<svg width="300" height="300" viewBox="0 0 300 300" fill="none" xmlns="http://www.w3.org/2000/svg">
<path d="M52.9707 155.514C67.544 155.514 79.358 148.972 79.358 140.903C79.358 132.834 67.544 126.292 52.9707 126.292C38.3975 126.292 26.5835 132.834 26.5835 140.903C26.5835 148.972 38.3975 155.514 52.9707 155.514Z" fill="#E0E0E0" fill-opacity="0.48"/>
<path d="M36.8367 165.011L78.1883 188.878C78.3999 188.984 78.6335 189.04 78.8704 189.04C79.1073 189.04 79.3408 188.984 79.5525 188.878L152.678 146.657C152.76 146.629 152.831 146.575 152.881 146.505C152.931 146.434 152.958 146.35 152.958 146.263C152.958 146.176 152.931 146.092 152.881 146.021C152.831 145.95 152.76 145.897 152.678 145.869L111.326 122.001C111.115 121.895 110.882 121.84 110.646 121.84C110.409 121.84 110.176 121.895 109.965 122.001L36.8367 164.222C36.7548 164.251 36.6837 164.304 36.6335 164.375C36.5832 164.445 36.5562 164.53 36.5562 164.617C36.5562 164.703 36.5832 164.788 36.6335 164.858C36.6837 164.929 36.7548 164.982 36.8367 165.011Z" fill="#E0E0E0" fill-opacity="0.48"/>
<path d="M63.6379 153.699C63.5605 153.699 63.4839 153.684 63.4125 153.654C63.3411 153.624 63.2763 153.581 63.2217 153.526C63.1672 153.471 63.1241 153.406 63.0948 153.334C63.0655 153.263 63.0507 153.186 63.0512 153.109V115.373C63.0512 115.217 63.113 115.068 63.223 114.958C63.333 114.848 63.4823 114.786 63.6379 114.786C63.7935 114.786 63.9427 114.848 64.0527 114.958C64.1627 115.068 64.2246 115.217 64.2246 115.373V153.109C64.2246 153.265 64.1629 153.414 64.0529 153.525C63.943 153.635 63.7938 153.698 63.6379 153.699Z" fill="#455A64"/>
<path d="M86.9863 139.961C86.8704 139.962 86.7568 139.929 86.6595 139.866C86.5622 139.803 86.4853 139.713 86.4384 139.607L74.8671 110.318C74.8099 110.173 74.8126 110.012 74.8746 109.869C74.9365 109.726 75.0527 109.614 75.1975 109.557C75.3423 109.499 75.504 109.502 75.6468 109.564C75.7896 109.626 75.902 109.742 75.9592 109.887L87.5305 139.158C87.5657 139.247 87.5785 139.343 87.5681 139.438C87.5576 139.533 87.5241 139.624 87.4704 139.703C87.4168 139.782 87.3446 139.847 87.2602 139.892C87.1759 139.937 87.0818 139.96 86.9863 139.961Z" fill="#455A64"/>
<path d="M85.5941 136.445C85.5146 136.445 85.436 136.428 85.363 136.397C85.2901 136.365 85.2244 136.319 85.17 136.261L63.6353 113.475L42.1431 136.162C42.0911 136.221 42.0276 136.27 41.9565 136.304C41.8854 136.338 41.8082 136.358 41.7293 136.361C41.6505 136.365 41.5717 136.353 41.4977 136.325C41.4237 136.298 41.3561 136.256 41.2987 136.201C41.2414 136.147 41.1956 136.082 41.1641 136.01C41.1325 135.937 41.1159 135.859 41.1153 135.78C41.1146 135.701 41.1298 135.623 41.1601 135.55C41.1903 135.477 41.235 135.411 41.2914 135.356L63.2042 112.217C63.2591 112.159 63.3254 112.112 63.399 112.081C63.4725 112.049 63.5518 112.033 63.6318 112.033C63.7113 112.034 63.7898 112.05 63.8627 112.082C63.9356 112.113 64.0014 112.159 64.0559 112.217L86.0147 135.455C86.0676 135.511 86.1089 135.577 86.1363 135.649C86.1637 135.72 86.1767 135.797 86.1744 135.874C86.1721 135.951 86.1546 136.026 86.1229 136.096C86.0913 136.167 86.0461 136.23 85.9899 136.282C85.8838 136.385 85.742 136.443 85.5941 136.445Z" fill="#455A64"/>
<path d="M40.2916 139.961C40.2176 139.961 40.1444 139.946 40.076 139.918C40.004 139.891 39.9382 139.849 39.8825 139.796C39.8267 139.742 39.7821 139.678 39.7512 139.608C39.7203 139.537 39.7038 139.461 39.7025 139.384C39.7012 139.307 39.7152 139.23 39.7437 139.158L51.3151 109.87C51.3723 109.725 51.4847 109.609 51.6275 109.547C51.7703 109.485 51.9319 109.482 52.0768 109.539C52.2216 109.596 52.3378 109.709 52.3997 109.851C52.4617 109.994 52.4644 110.156 52.4072 110.301L40.8358 139.59C40.7927 139.699 40.7177 139.793 40.6207 139.859C40.5237 139.925 40.409 139.96 40.2916 139.961Z" fill="#455A64"/>
<path d="M86.1892 135.54L87.7195 139.576C87.7227 139.61 87.7227 139.645 87.7195 139.679V139.753C87.6755 139.862 87.5941 139.952 87.4898 140.007C87.3452 140.081 87.1854 140.119 87.0233 140.119C86.8612 140.119 86.7013 140.081 86.5568 140.007C86.4762 139.967 86.4124 139.899 86.3765 139.817V139.764L84.9628 135.978L86.1892 135.54Z" fill="#0071CE"/>
<path d="M41.0862 135.54L39.5559 139.576C39.5526 139.61 39.5526 139.645 39.5559 139.679C39.5523 139.703 39.5523 139.728 39.5559 139.753C39.5974 139.864 39.6795 139.955 39.7856 140.007C39.9296 140.081 40.0888 140.119 40.2504 140.119C40.4119 140.119 40.5712 140.081 40.7151 140.007C40.7975 139.969 40.862 139.901 40.8954 139.817V139.764L42.3303 135.978L41.0862 135.54Z" fill="#0071CE"/>
<path d="M64.3127 150.189V153.529C64.3055 153.588 64.2836 153.644 64.249 153.692C64.2145 153.74 64.1683 153.779 64.1148 153.805C63.9664 153.88 63.8023 153.919 63.6359 153.919C63.4695 153.919 63.3055 153.88 63.157 153.805C63.1036 153.779 63.0574 153.74 63.0228 153.692C62.9882 153.644 62.9663 153.588 62.9591 153.529V150.189C63.1673 150.078 63.3998 150.02 63.6359 150.02C63.8721 150.02 64.1045 150.078 64.3127 150.189Z" fill="#0071CE"/>
<path d="M85.7316 111.676C85.7316 110.789 84.9541 109.849 83.3142 108.785C80.2852 106.82 73.5205 102.875 69.2829 100.525C69.2814 100.517 69.2771 100.509 69.2707 100.503C69.2643 100.497 69.2561 100.494 69.2476 100.493C65.9854 98.514 62.9423 89.0879 60.6874 81.9274C59.9169 79.4852 58.9768 78.1033 57.86 77.4529C57.5949 77.301 56.6159 76.7638 56.3968 76.633C54.1843 75.3041 51.2755 76.8981 47.6564 78.8808C44.32 80.7045 41.7152 83.0407 41.1921 89.2434C40.8705 93.0181 41.1744 100.232 41.9414 105.699C43.0512 114.835 44.4154 114.85 46.3911 116.376C49.7982 119.013 57.4677 122.703 60.7086 123.961C66.5685 126.265 71.3611 122.71 74.9307 120.946C78.2034 119.294 81.3629 117.426 84.3886 115.355C85.2828 114.708 85.7458 114.051 85.7352 113.358C85.7246 113.086 85.7316 111.962 85.7316 111.676Z" fill="#0071CE"/>
<path opacity="0.25" d="M85.7316 111.676C85.7316 110.789 84.9541 109.849 83.3142 108.785C80.2852 106.82 73.5205 102.875 69.2829 100.525C69.2814 100.517 69.2771 100.509 69.2707 100.503C69.2643 100.497 69.2561 100.494 69.2476 100.493C65.9854 98.514 62.9423 89.0879 60.6874 81.9274C59.9169 79.4852 58.9768 78.1033 57.86 77.4529C57.5949 77.301 56.6159 76.7638 56.3968 76.633C54.1843 75.3041 51.2755 76.8981 47.6564 78.8808C44.32 80.7045 41.7152 83.0407 41.1921 89.2434C40.8705 93.0181 41.1744 100.232 41.9414 105.699C43.0512 114.835 44.4154 114.85 46.3911 116.376C49.7982 119.013 57.4677 122.703 60.7086 123.961C66.5685 126.265 71.3611 122.71 74.9307 120.946C78.2034 119.294 81.3629 117.426 84.3886 115.355C85.2828 114.708 85.7458 114.051 85.7352 113.358C85.7246 113.086 85.7316 111.962 85.7316 111.676Z" fill="black"/>
<path d="M57.728 77.3787C55.5332 76.2265 52.681 77.7922 49.1538 79.7255C46.8953 80.9661 44.9691 82.4328 43.7993 85.179L42.329 84.3166C43.4988 81.581 45.4215 80.1143 47.6729 78.8808C51.2956 76.8981 54.2008 75.3041 56.4168 76.633L57.728 77.3787Z" fill="#0071CE"/>
<path d="M83.3286 108.785C81.3635 107.509 81.3211 107.184 69.1913 100.465C69.2115 100.47 69.2306 100.478 69.2479 100.49C65.9892 98.5034 62.9497 89.0845 60.6948 81.9275C58.4011 74.6538 54.5805 76.7603 49.1623 79.7291C45.8189 81.5493 43.2141 83.889 42.6839 90.0918C42.1538 96.2945 43.3024 111.651 45.4195 113.524C47.7274 116.076 56.9909 120.819 60.6913 122.275C66.5512 124.58 71.3437 121.024 74.9134 119.261C78.1923 117.605 81.3578 115.733 84.3889 113.659C86.4141 112.181 86.2268 110.672 83.3286 108.785Z" fill="#0071CE"/>
<g opacity="0.1">
<path d="M49.155 79.7291C54.5731 76.7603 58.3937 74.6538 60.6875 81.9275C62.9424 89.088 65.989 98.5141 69.2476 100.493C69.2476 100.493 63.6528 100.493 55.5486 104.865C47.1228 109.414 45.8363 113.864 45.451 113.546C43.3304 111.778 42.1641 96.291 42.6907 90.0918C43.2173 83.8926 45.8186 81.5493 49.155 79.7291Z" fill="black"/>
</g>
<path d="M58.6624 58.5742C61.4898 58.652 62.2921 59.783 63.9956 62.2181C65.6992 64.6533 71.4955 73.8814 71.4955 73.8814L79.7057 77.034L78.6242 81.823C78.6242 81.823 67.6501 79.9639 66.9327 79.5434C66.2152 79.1228 60.8713 70.3188 60.8713 70.3188L58.6624 58.5742Z" fill="#E6E6E6"/>
<path d="M56.499 58.6516C59.171 57.9836 60.3514 59.4751 61.2421 61.1256C65.2889 68.5477 66.9323 113.08 66.9323 113.08C66.9323 113.08 57.9057 116.682 51.2081 112.455L56.499 58.6516Z" fill="#F0F0F0"/>
<path d="M65.1045 135.195L63.4151 141.624C63.4151 141.624 61.4677 142.772 59.7889 141.641C58.4564 140.744 58.5377 139.68 58.5377 139.68L58.6155 138.711L58.8063 131.236L65.1045 135.195Z" fill="#B16668"/>
<path d="M56.9751 143.154C56.5121 144.183 56.2471 147.187 56.2471 147.187C56.2471 147.187 56.5298 148.293 58.0673 149.272L59.5623 145.3L56.9751 143.154Z" fill="#263238"/>
<path d="M58.067 149.286L61.9512 148.753L63.4286 145.66L58.9294 146.996L58.067 149.286Z" fill="black"/>
<path d="M63.7099 140.511L63.9184 139.726C64.5086 139.758 64.4556 140.924 64.498 141.263C64.6288 142.235 64.7278 143.207 64.8762 144.176C65.03 145.248 65.2796 146.304 65.6219 147.332C65.9754 148.311 66.1804 149.353 66.7777 150.219C67.375 151.085 68.4247 151.598 69.2729 152.181C69.4974 152.309 69.6831 152.496 69.8101 152.722C70.0045 153.153 69.7324 153.651 69.3966 153.98C68.8007 154.536 68.0503 154.898 67.2442 155.019C66.4415 155.137 65.6258 155.137 64.8232 155.019C63.3976 154.866 62.0325 154.36 60.8506 153.549C59.7126 152.736 59.4652 151.128 59.2814 149.827C59.1329 148.767 59.2248 147.533 58.7866 146.54C58.3483 145.547 57.0972 144.243 56.977 143.168C56.9257 142.258 57.1185 141.35 57.5354 140.539C57.9913 139.666 58.32 138.553 58.6169 138.712L58.5639 139.348C58.5639 139.302 58.8573 140.571 60.6845 141.023C61.5433 141.239 63.1656 141.232 63.7099 140.511Z" fill="#263238"/>
<path d="M60.942 147.473C60.9914 148.661 60.942 149.152 60.942 149.689C60.9914 150.672 61.253 151.354 61.4756 152.308C61.5714 152.7 61.7064 153.081 61.8786 153.446C62.0623 153.87 62.4052 154.443 62.2037 154.86C62.104 155.051 61.967 155.221 61.8008 155.358C61.0656 155.988 60.1166 156.31 59.1501 156.259C58.6409 156.254 58.1427 156.111 57.7081 155.846C56.8563 155.287 56.5205 154.27 56.0646 153.411C55.5663 152.481 55.8561 151.997 55.7748 150.976C55.6755 149.625 55.4996 148.281 55.2482 146.95C57.0896 144.844 58.6376 146.886 60.942 147.473Z" fill="#B16668"/>
<path d="M63.7626 88.7256C66.5229 98.346 71.1847 114.696 69.877 119.785C68.8874 123.599 64.5755 137.524 64.5755 137.524C62.9108 137.757 59.5073 138.128 58.1819 135.213C57.8461 130.48 56.6798 98.346 56.6798 98.346L63.7626 88.7256Z" fill="#0071CE"/>
<path opacity="0.4" d="M63.7626 88.7256C66.5229 98.346 71.1847 114.696 69.877 119.785C68.8874 123.599 64.5755 137.524 64.5755 137.524C62.9108 137.757 59.5073 138.128 58.1819 135.213C57.8461 130.48 56.6798 98.346 56.6798 98.346L63.7626 88.7256Z" fill="white"/>
<path opacity="0.25" d="M56.6957 98.3278C58.4477 96.6721 60.0767 94.8908 61.5695 92.998C61.5695 92.998 61.2161 95.2777 58.0741 98.4197C58.0741 98.4197 63.3402 118.703 63.3084 121.941C63.2766 125.178 61.5412 136.785 61.5412 136.785L56.6957 98.3278Z" fill="black"/>
<path d="M63.7609 88.7254C61.5096 93.3942 60.626 95.2604 56.6923 98.3458C56.6923 98.3458 61.5025 118.336 61.7146 122.217C62.068 128.667 61.2374 143.104 60.9406 147.491C60.1948 148.466 56.5615 148.632 55.4164 147.802C54.8933 145.773 53.1368 138.634 52.3133 132.229C51.7054 127.497 52.4829 123.263 52.5819 122.022C50.0336 115.523 44.3116 106.036 42.2193 99.24C41.876 98.0636 41.6592 96.8539 41.5725 95.6315C41.1059 91.3231 42.8696 88.0327 43.9051 85.7354L63.7609 88.7254Z" fill="#0071CE"/>
<g opacity="0.5">
<path d="M63.7633 88.7254C61.5119 93.3942 60.6283 95.2604 56.6946 98.3458C56.6946 98.3458 61.5048 118.336 61.7169 122.217C62.0703 128.667 61.2398 143.104 60.9429 147.491C60.1971 148.466 56.5639 148.632 55.4187 147.802C54.8957 145.773 53.1391 138.634 52.3156 132.229C51.7077 127.497 52.4852 123.263 52.5842 122.022C50.036 115.523 44.3139 106.036 42.2216 99.24C41.8783 98.0636 41.6615 96.8539 41.5748 95.6315C41.1083 91.3231 42.8719 88.0327 43.9074 85.7354L63.7633 88.7254Z" fill="white"/>
</g>
<path d="M54.8599 154.234C54.5806 155.323 54.8351 158.324 54.8351 158.324C54.8351 158.324 55.2981 159.363 56.9769 160.066L57.7721 155.903L54.8599 154.234Z" fill="#263238"/>
<path d="M56.9771 160.066L60.7093 158.874L61.6318 155.584L57.4365 157.662L56.9771 160.066Z" fill="black"/>
<path d="M60.9292 150.47L60.9575 149.689C61.4594 149.94 62.5374 154.015 64.0147 156.821C65.3648 159.38 68.0721 160.822 68.9451 161.939C70.1114 163.434 67.8 165.325 64.1207 164.505C62.297 164.095 59.5261 162.9 58.7981 161.66C58.07 160.419 57.8226 158.15 57.2182 157.238C56.6138 156.326 55.1612 155.27 54.8608 154.234C54.6264 153.296 54.6374 152.314 54.8926 151.382C55.1895 150.445 55.1754 149.484 55.6454 149.406L55.7161 150.141C55.96 150.647 56.9143 151.226 58.7733 151.347C59.6604 151.4 60.5193 151.283 60.9292 150.47Z" fill="#37474F"/>
<path d="M54.4159 50.604L52.5603 56.8774C47.4002 56.8774 44.2123 51.8516 44.2123 46.6915C44.2123 41.5102 47.5133 37.1807 52.6947 37.1807H54.377C59.5583 37.1807 63.7606 40.6196 63.7606 45.8044C63.7606 49.1797 59.576 50.604 54.4159 50.604Z" fill="#263238"/>
<path d="M64.7296 41.0121C65.1257 40.3652 65.3166 39.6136 65.2774 38.8562C65.2528 38.4772 65.1423 38.1087 64.9543 37.7787C64.7663 37.4487 64.5058 37.1657 64.1924 36.9512C63.2275 36.3362 61.8915 36.626 61.0115 37.3364C60.9399 36.6615 60.6084 36.041 60.0873 35.6062C59.5661 35.1715 58.8962 34.9567 58.2194 35.0073C57.3605 35.0744 56.5971 35.5516 55.8549 35.9828C54.5913 36.6233 53.2274 37.0429 51.8223 37.2233L53.4021 37.8312C53.1873 38.1619 53.0508 38.5372 53.0031 38.9285C52.9553 39.3199 52.9975 39.717 53.1264 40.0896C53.1942 40.2424 53.2771 40.3881 53.3738 40.5244C54.4227 42.0931 55.8711 43.3535 57.5698 44.1755C59.2684 44.9975 61.1557 45.3513 63.0367 45.2003C63.5642 45.1889 64.08 45.0429 64.5352 44.7761C64.8007 44.5873 65.0255 44.3469 65.1961 44.0693C65.5261 43.5868 65.6887 43.0095 65.6591 42.4258C65.6384 42.1303 65.542 41.845 65.3792 41.5974C65.2164 41.3499 64.9927 41.1483 64.7296 41.0121Z" fill="#263238"/>
<path d="M50.3892 59.3906L47.0068 59.7441C44.7625 60.2919 43.7482 61.2815 43.5185 63.2784C43.4124 64.2044 42.8505 66.6713 43.6351 69.7639C44.342 72.563 46.2434 79.4161 46.2434 79.4161C46.2434 79.4161 43.7871 85.5764 42.6349 88.7255C50.6154 93.9316 60.4655 91.8746 63.7737 88.7255C63.4945 85.7496 62.4412 82.9752 62.2044 80.3209C62.2044 80.3209 62.3741 76.1716 62.7028 74.3726C65.2298 71.6194 64.9047 68.9828 63.7631 66.8586C61.6707 62.932 58.5146 59.4861 57.4967 59.4896L50.3892 59.3906Z" fill="#455A64"/>
<path d="M56.4534 57.1602C57.4642 57.4076 58.2523 57.8175 58.6623 58.5739C59.0723 59.3302 62.2709 64.3666 62.2709 64.3666C62.2709 64.3666 59.6908 60.9702 57.7469 59.9417C57.3502 59.71 56.9097 59.5632 56.4534 59.5105V57.1602Z" fill="#E0E0E0"/>
<path d="M50.3885 59.3908C50.3885 59.3908 53.9229 66.7598 54.552 71.7326C55.1811 76.7054 53.8451 93.6702 53.8451 99.0529C53.8451 105.542 53.8663 116.251 53.8663 116.251C53.8663 116.251 49.8337 116.251 47.0627 115.459C45.0376 114.883 42.6378 113.848 41.1852 112.112C41.1852 112.112 40.7893 98.8303 41.6234 92.5038C42.4116 86.4955 45.6101 79.0946 45.6101 79.0946L41.5103 63.4658C41.5103 63.4658 41.7012 60.7798 44.2282 60.027C46.621 59.306 50.3885 59.3908 50.3885 59.3908Z" fill="#FAFAFA"/>
<path d="M47.0635 62.6064L42.8788 68.7314L45.5967 79.087C45.5967 79.087 43.0732 84.4132 42.1437 89.5698C44.6636 82.4411 46.9398 80.3028 46.9398 80.3028L45.4624 74.2732C45.4624 74.2732 45.982 72.3753 46.7065 69.1379C47.431 65.9004 47.3109 64.0237 47.0635 62.6064Z" fill="#EBEBEB"/>
<path d="M49.3491 68.3815C49.3491 68.074 49.3208 67.4096 49.2678 66.5684C49.0063 62.465 48.8861 58.754 50.2716 58.4395L50.3953 59.0049C49.3809 59.2241 49.7167 64.522 49.8439 66.5154C49.9005 67.3742 49.9429 68.0493 49.9288 68.3886L49.3491 68.3815Z" fill="#0071CE"/>
<path d="M50.3875 57.1602C50.1297 57.1616 49.8772 57.2334 49.6573 57.368C49.4374 57.5025 49.2585 57.6947 49.1399 57.9236C48.8077 58.4891 48.1079 59.4398 48.1079 59.4398C48.1079 59.4398 48.0831 63.2074 48.4613 64.1864C48.7865 65.0346 52.7802 68.1766 52.7802 68.1766C52.7802 68.1766 52.3915 71.5024 52.3597 72.6652C52.3279 73.828 54.3778 78.0445 54.6287 80.3029C54.6287 80.3029 55.0528 74.8176 54.7206 72.2694C54.1374 67.8338 51.3701 61.1999 50.3875 59.3832V57.1602Z" fill="#EBEBEB"/>
<path d="M48.5105 82.106H48.461V81.7031C48.941 81.663 49.4006 81.4918 49.7899 81.2083C49.3746 80.9317 49.0029 80.5946 48.6872 80.2081C48.0334 79.3634 46.6055 73.3374 47.0473 71.9343C47.4007 70.7573 48.5706 68.1596 49.6026 68.1172H49.6274C50.6559 68.1172 52.006 70.57 52.4725 71.701C53.0309 73.0652 52.1191 79.1902 51.5394 80.0844C51.2587 80.4978 50.9167 80.8661 50.5251 81.1765C50.9348 81.4296 51.4077 81.5619 51.8893 81.5582L51.9388 81.9576C51.3116 81.9682 50.6958 81.7896 50.1716 81.4451C49.6912 81.8175 49.1154 82.0466 48.5105 82.106ZM49.645 68.5166C49.0407 68.5413 47.9556 70.4675 47.4608 72.0509C47.0544 73.3409 48.4292 79.1725 49.0336 79.9572C49.3548 80.3455 49.7353 80.6807 50.161 80.9503C50.5708 80.6455 50.9288 80.2768 51.2213 79.8582C51.7586 79.0276 52.6351 73.1006 52.1155 71.8494C51.4864 70.3473 50.2529 68.5166 49.645 68.5166Z" fill="#455A64"/>
<path d="M52.5287 81.7276C52.5335 81.8449 52.5034 81.961 52.4422 82.0612C52.3811 82.1614 52.2916 82.2412 52.1851 82.2906C52.0786 82.3399 51.9598 82.3566 51.8438 82.3385C51.7278 82.3204 51.6198 82.2683 51.5334 82.1888C51.447 82.1093 51.3861 82.006 51.3584 81.8919C51.3307 81.7779 51.3375 81.6581 51.3778 81.5479C51.4181 81.4376 51.4902 81.3418 51.585 81.2725C51.6797 81.2032 51.7929 81.1636 51.9102 81.1586C52.0675 81.1528 52.2206 81.2094 52.3365 81.3159C52.4523 81.4225 52.5214 81.5704 52.5287 81.7276Z" fill="#263238"/>
<path d="M49.0615 81.8762C49.0663 81.9935 49.0362 82.1096 48.9751 82.2098C48.9139 82.31 48.8244 82.3898 48.7179 82.4392C48.6114 82.4885 48.4926 82.5052 48.3767 82.4871C48.2607 82.4689 48.1526 82.4169 48.0663 82.3374C47.9799 82.2579 47.919 82.1546 47.8913 82.0405C47.8636 81.9264 47.8703 81.8067 47.9106 81.6965C47.951 81.5862 48.0231 81.4904 48.1178 81.4211C48.2126 81.3518 48.3258 81.3122 48.443 81.3072C48.521 81.3039 48.5989 81.316 48.6722 81.3428C48.7455 81.3696 48.8128 81.4106 48.8703 81.4634C48.9277 81.5163 48.9742 81.58 49.007 81.6508C49.0398 81.7216 49.0584 81.7982 49.0615 81.8762Z" fill="#263238"/>
<path d="M52.5873 74.3546L52.2339 74.3298C52.2165 74.329 52.1995 74.3246 52.1839 74.3169C52.1683 74.3092 52.1545 74.2984 52.1432 74.2852C52.132 74.2719 52.1235 74.2565 52.1185 74.2399C52.1134 74.2232 52.1118 74.2057 52.1137 74.1885C52.1809 73.0575 52.1455 72.2234 52.0077 71.8912C51.4069 70.428 50.1699 68.5972 49.6291 68.6184C49.0884 68.6396 48.0069 70.5729 47.5333 72.082C47.4272 72.4355 47.459 73.2589 47.6251 74.3793C47.6303 74.4139 47.6217 74.4492 47.6012 74.4776C47.5808 74.506 47.55 74.5252 47.5156 74.5313L47.1622 74.5843C47.1445 74.5868 47.1265 74.5857 47.1093 74.5812C47.092 74.5766 47.0759 74.5687 47.0617 74.5579C47.0476 74.547 47.0357 74.5334 47.0269 74.518C47.018 74.5025 47.0124 74.4854 47.0102 74.4677C46.8229 73.2095 46.8017 72.3471 46.9395 71.8982C47.194 71.0924 48.385 68.0635 49.5867 68.0105C50.7884 67.9575 52.2339 70.8768 52.5555 71.6614C52.7322 72.0926 52.7853 72.955 52.704 74.2273C52.7026 74.2589 52.6901 74.2889 52.6688 74.3122C52.6475 74.3355 52.6186 74.3505 52.5873 74.3546Z" fill="#0071CE"/>
<path d="M38.656 105.16C39.271 105.736 39.6067 106.51 40.2394 107.655C40.872 108.8 43.9928 108.91 44.2402 105.69C44.4276 103.265 43.5793 102.445 41.8793 100.558C40.0945 98.5718 39.4053 98.2467 39.4866 96.4053C39.5325 95.497 40.9003 82.3493 40.9003 82.3493L45.3995 69.9544C45.3995 69.9544 47.0253 64.1617 46.2088 60.1255C46.2088 60.1255 43.293 59.8887 41.2325 61.9457C38.8257 64.349 36.1007 76.2314 35.4999 78.6312C34.6342 81.672 34.2561 84.8308 34.3795 87.9901C34.5209 91.846 34.535 99.9043 35.0475 101.682C35.5599 103.46 36.9984 103.608 38.656 105.16Z" fill="#B16668"/>
<path d="M46.4094 59.5924C46.4094 59.5924 43.3098 59.398 41.4967 60.8824C39.6836 62.3668 38.5561 66.5161 37.2237 70.6619C35.8913 74.8076 34.7037 78.8473 34.2655 81.7526C33.912 84.1842 34.6189 97.0208 34.6189 97.0208C34.6189 97.0208 36.6829 97.7701 39.4857 96.4059L41.221 82.364L46.4165 68.2691C47.3742 65.4557 47.3717 62.4042 46.4094 59.5924Z" fill="#F0F0F0"/>
<path d="M58.4853 41.917C60.8462 42.1609 62.8183 44.6702 62.6876 50.364C62.5745 55.1919 61.0088 56.3724 60.2136 56.7258C59.4183 57.0792 57.9127 57.1252 56.4424 56.8778V59.5108C56.4424 59.5108 58.1389 63.2502 57.4179 64.5861C53.3923 62.925 50.3881 59.3907 50.3881 59.3907V53.4247C50.3881 53.4247 49.395 54.6017 47.7692 53.5237C46.1434 52.4457 46.0798 49.7703 47.027 48.8089C47.9742 47.8476 50.01 48.1551 50.3881 49.4804C50.3881 49.4804 51.8019 49.4451 54.4067 47.5896C56.3886 46.2347 57.832 44.2272 58.4853 41.917Z" fill="#B16668"/>
<path d="M56.1327 48.5123C56.1404 48.5988 56.1307 48.6861 56.1041 48.7688C56.0775 48.8516 56.0346 48.9282 55.978 48.9941C55.9213 49.06 55.852 49.1138 55.7742 49.1525C55.6963 49.1911 55.6115 49.2138 55.5248 49.2191C55.3924 49.2308 55.2596 49.2028 55.1433 49.1386C55.0269 49.0744 54.9324 48.977 54.8717 48.8588C54.811 48.7406 54.787 48.607 54.8026 48.4751C54.8183 48.3432 54.8729 48.2189 54.9595 48.1182C55.0461 48.0174 55.1608 47.9448 55.2889 47.9096C55.417 47.8744 55.5527 47.8782 55.6787 47.9205C55.8046 47.9628 55.9151 48.0417 55.9959 48.1471C56.0768 48.2525 56.1244 48.3797 56.1327 48.5123Z" fill="#263238"/>
<path d="M56.8117 53.0293L58.7273 53.6407C58.6928 53.7688 58.6329 53.8886 58.5511 53.993C58.4692 54.0973 58.3672 54.1841 58.251 54.2481C58.1349 54.3121 58.007 54.352 57.8751 54.3655C57.7432 54.3789 57.6099 54.3656 57.4832 54.3264C57.2264 54.2375 57.0135 54.0533 56.8885 53.8119C56.7635 53.5705 56.736 53.2904 56.8117 53.0293Z" fill="#9A4A4D"/>
<path d="M61.8253 47.0203L60.5247 46.1191C60.5794 46.0315 60.6513 45.956 60.7362 45.8971C60.8211 45.8383 60.9171 45.7974 61.0183 45.7769C61.1195 45.7563 61.2238 45.7567 61.3249 45.7778C61.426 45.799 61.5217 45.8406 61.6062 45.8999C61.7804 46.0222 61.9005 46.2071 61.9414 46.416C61.9822 46.6249 61.9406 46.8415 61.8253 47.0203Z" fill="#263238"/>
<path d="M61.3668 48.3885C61.368 48.5146 61.3321 48.6383 61.2636 48.7442C61.1951 48.8501 61.097 48.9335 60.9814 48.9841C60.8658 49.0346 60.738 49.0501 60.6137 49.0286C60.4894 49.007 60.3742 48.9494 60.2824 48.8629C60.1906 48.7764 60.1263 48.6648 60.0974 48.542C60.0685 48.4192 60.0764 48.2907 60.12 48.1723C60.1636 48.054 60.2411 47.951 60.3427 47.8764C60.4444 47.8017 60.5657 47.7585 60.6917 47.7523C60.7779 47.7495 60.8638 47.7637 60.9444 47.7942C61.025 47.8247 61.0989 47.8708 61.1616 47.93C61.2243 47.9891 61.2748 48.06 61.31 48.1387C61.3452 48.2174 61.3645 48.3023 61.3668 48.3885Z" fill="#263238"/>
<path d="M58.1041 48.0205L58.2066 51.8871L60.2424 51.2579L58.1041 48.0205Z" fill="#9A4A4D"/>
<path d="M56.4533 56.8777C54.8982 56.6762 51.7067 55.4958 51.2084 54.2305C51.4077 54.8699 51.7989 55.4325 52.3287 55.8421C53.283 56.6621 56.4533 57.581 56.4533 57.581V56.8777Z" fill="#9A4A4D"/>
<g opacity="0.2">
<path d="M75.5033 87.1813C75.6447 87.5347 76.8216 88.3335 78.5287 88.1921L78.815 87.1318L75.5033 87.1813Z" fill="black"/>
</g>
<path d="M81.0452 78.9036C81.0452 78.9036 80.5009 80.9111 80.3595 81.4165C80.2182 81.9219 77.7017 83.0847 76.44 83.2437C74.0296 83.5441 73.7574 84.0672 74.337 85.7778C74.8707 87.3541 76.44 87.9514 78.6171 87.6934C79.635 87.5732 81.0452 86.6685 81.6001 85.0886C82.3069 83.0741 81.9252 80.9181 82.2044 79.7412C82.4837 78.5643 81.6602 78.2038 81.0452 78.9036Z" fill="#B16668"/>
<path d="M56.1174 134.453L19 113.024L80.9955 77.25L118.109 98.6786L56.1174 134.453Z" fill="#455A64"/>
<path d="M19.0002 113.024V155.882L20.9547 157.009V127.685L54.1632 146.858V176.183L56.1177 177.31V134.453L19.0002 113.024Z" fill="#263238"/>
<path d="M20.9543 157.009L22.9088 155.881V128.812L20.9543 127.685V157.009Z" fill="black"/>
<path d="M56.1187 177.31L58.0731 176.183V146.859L116.16 113.343V142.667L118.111 141.539V98.6787L56.1187 134.453V177.31Z" fill="#37474F"/>
<path d="M116.158 142.667L114.204 141.54V114.47L116.158 113.343V142.667Z" fill="#263238"/>
<g opacity="0.2">
<path d="M52.7457 125.999C50.8478 127.091 50.8478 128.865 52.7457 129.961C54.6436 131.057 57.6938 131.053 59.6058 129.961C61.5179 128.869 61.5002 127.091 59.6058 125.999C57.7114 124.907 54.6472 124.903 52.7457 125.999Z" fill="black"/>
</g>
<g opacity="0.2">
<path d="M25.3407 113L38.962 120.871C39.0806 120.932 39.2121 120.964 39.3455 120.964C39.4789 120.964 39.6103 120.932 39.7289 120.871L49.7629 115.078C49.809 115.062 49.8491 115.033 49.8775 114.993C49.9059 114.953 49.9212 114.906 49.9212 114.857C49.9212 114.808 49.9059 114.761 49.8775 114.721C49.8491 114.682 49.809 114.652 49.7629 114.636L36.1345 106.762C36.0154 106.703 35.8841 106.672 35.7511 106.672C35.618 106.672 35.4868 106.703 35.3676 106.762L25.3337 112.558C25.1287 112.678 25.1287 112.876 25.3407 113Z" fill="black"/>
</g>
<g opacity="0.2">
<path d="M25.3388 114.406L38.9601 122.277C39.0787 122.338 39.2102 122.37 39.3436 122.37C39.477 122.37 39.6084 122.338 39.727 122.277L49.761 116.484C49.973 116.361 49.973 116.163 49.761 116.043L36.1326 108.168C36.0135 108.109 35.8822 108.078 35.7492 108.078C35.6161 108.078 35.4849 108.109 35.3657 108.168L25.3388 113.961C25.2931 113.977 25.2535 114.008 25.2256 114.047C25.1976 114.087 25.1826 114.135 25.1826 114.183C25.1826 114.232 25.1976 114.28 25.2256 114.319C25.2535 114.359 25.2931 114.39 25.3388 114.406Z" fill="black"/>
</g>
<path d="M25.3427 113.947L38.964 121.818C39.0826 121.879 39.2141 121.911 39.3475 121.911C39.4809 121.911 39.6124 121.879 39.731 121.818L49.779 116.039C49.9911 115.916 49.9911 115.718 49.779 115.598L36.1365 107.709C36.0174 107.65 35.8861 107.619 35.7531 107.619C35.62 107.619 35.4888 107.65 35.3696 107.709L25.3427 113.502C25.297 113.518 25.2574 113.549 25.2295 113.589C25.2015 113.628 25.1865 113.676 25.1865 113.725C25.1865 113.773 25.2015 113.821 25.2295 113.861C25.2574 113.9 25.297 113.931 25.3427 113.947Z" fill="#EBEBEB"/>
<path d="M35.3742 107.709L25.8457 113.212L38.9616 120.793C39.0807 120.853 39.212 120.883 39.345 120.883C39.4781 120.883 39.6093 120.853 39.7285 120.793L49.2712 115.29L36.1341 107.709C36.0159 107.651 35.8859 107.621 35.7542 107.621C35.6225 107.621 35.4925 107.651 35.3742 107.709Z" fill="#E0E0E0"/>
<path d="M25.3427 112.561L38.964 120.432C39.0826 120.493 39.2141 120.525 39.3475 120.525C39.4809 120.525 39.6124 120.493 39.731 120.432L49.779 114.626C49.8248 114.609 49.8643 114.579 49.8923 114.539C49.9202 114.499 49.9352 114.452 49.9352 114.403C49.9352 114.354 49.9202 114.307 49.8923 114.267C49.8643 114.227 49.8248 114.197 49.779 114.18L36.1365 106.323C36.0179 106.262 35.8865 106.23 35.7531 106.23C35.6197 106.23 35.4882 106.262 35.3696 106.323L25.3427 112.116C25.297 112.133 25.2574 112.163 25.2295 112.203C25.2015 112.243 25.1865 112.29 25.1865 112.339C25.1865 112.387 25.2015 112.435 25.2295 112.475C25.2574 112.515 25.297 112.545 25.3427 112.561Z" fill="#FAFAFA"/>
<g opacity="0.2">
<path d="M49.523 101.924L63.0841 112.35C63.225 112.422 63.381 112.459 63.5392 112.459C63.6974 112.459 63.8533 112.422 63.9943 112.35L86.1564 98.7314C86.2116 98.7131 86.2596 98.678 86.2937 98.631C86.3277 98.5841 86.346 98.5277 86.346 98.4698C86.346 98.412 86.3277 98.3556 86.2937 98.3086C86.2596 98.2617 86.2116 98.2266 86.1564 98.2083L72.5989 87.7825C72.4573 87.711 72.3008 87.6738 72.142 87.6738C71.9832 87.6738 71.8267 87.711 71.6851 87.7825L49.523 101.401C49.4678 101.42 49.4198 101.455 49.3857 101.502C49.3517 101.549 49.3334 101.605 49.3334 101.663C49.3334 101.721 49.3517 101.777 49.3857 101.824C49.4198 101.871 49.4678 101.906 49.523 101.924Z" fill="black"/>
</g>
<path d="M50.5966 100.606V100.44C50.606 100.297 50.6486 100.159 50.7211 100.037C50.7935 99.9138 50.8937 99.8097 51.0136 99.7327L72.8486 87.1152C72.9777 87.0491 73.1207 87.0146 73.2657 87.0146C73.4107 87.0146 73.5537 87.0491 73.6827 87.1152L85.6853 96.4661C85.8045 96.5439 85.9041 96.6482 85.9765 96.7708C86.0488 96.8934 86.0919 97.031 86.1024 97.173V97.3391C86.0924 97.4812 86.0496 97.619 85.9772 97.7417C85.9048 97.8643 85.8049 97.9685 85.6853 98.0459L63.8503 110.663C63.7212 110.73 63.5783 110.764 63.4333 110.764C63.2882 110.764 63.1453 110.73 63.0162 110.663L51.0136 101.327C50.8926 101.247 50.7919 101.141 50.7194 101.016C50.647 100.891 50.6049 100.75 50.5966 100.606Z" fill="#E0E0E0"/>
<path d="M51.0138 100.199L63.0362 109.144C63.1658 109.208 63.3085 109.242 63.4532 109.242C63.598 109.242 63.7407 109.208 63.8703 109.144L85.7195 96.5264C85.7694 96.509 85.8126 96.4765 85.8433 96.4335C85.8739 96.3904 85.8903 96.3389 85.8903 96.286C85.8903 96.2332 85.8739 96.1817 85.8433 96.1386C85.8126 96.0955 85.7694 96.0631 85.7195 96.0457L73.6688 87.1005C73.5397 87.0345 73.3968 87 73.2518 87C73.1067 87 72.9638 87.0345 72.8347 87.1005L50.9997 99.7181C50.9502 99.7368 50.9079 99.7706 50.8785 99.8145C50.8491 99.8585 50.8341 99.9106 50.8357 99.9634C50.8372 100.016 50.8552 100.067 50.8871 100.11C50.9191 100.152 50.9633 100.183 51.0138 100.199Z" fill="#FAFAFA"/>
<path d="M59.3131 128.261C60.9849 126.554 61.9674 122.288 60.3345 120.935H52.0395C50.4066 122.288 51.3892 126.551 53.0609 128.258L53.1069 128.307L53.1634 128.364L53.3154 128.498L53.3543 128.53L53.4815 128.625C53.5522 128.675 53.6264 128.721 53.6971 128.763C54.4698 129.155 55.3241 129.36 56.1905 129.36C57.057 129.36 57.9113 129.155 58.684 128.763C58.7588 128.721 58.8308 128.673 58.8996 128.622L59.0198 128.533L59.0693 128.494C59.1187 128.452 59.1682 128.41 59.2142 128.364L59.2813 128.3L59.3131 128.261Z" fill="#EBEBEB"/>
<path d="M52.7457 120.39C50.8478 121.482 50.8478 123.256 52.7457 124.352C54.6436 125.447 57.6938 125.444 59.6058 124.352C61.5179 123.26 61.5002 121.482 59.6058 120.39C57.7114 119.298 54.6472 119.294 52.7457 120.39Z" fill="#FAFAFA"/>
<path d="M54.0957 121.164C52.9435 121.832 52.9435 122.91 54.0957 123.575C54.742 123.904 55.4572 124.076 56.1827 124.076C56.9082 124.076 57.6234 123.904 58.2697 123.575C59.4219 122.91 59.4219 121.832 58.2697 121.164C57.6228 120.837 56.9079 120.666 56.1827 120.666C55.4576 120.666 54.7426 120.837 54.0957 121.164Z" fill="#EBEBEB"/>
<path d="M58.2686 122.309C57.6217 121.981 56.9067 121.811 56.1816 121.811C55.4564 121.811 54.7415 121.981 54.0946 122.309C53.8101 122.458 53.5671 122.675 53.3877 122.942C53.5671 123.208 53.8101 123.425 54.0946 123.574C54.7409 123.904 55.4561 124.076 56.1816 124.076C56.9071 124.076 57.6223 123.904 58.2686 123.574C58.5541 123.427 58.7974 123.209 58.9755 122.942C58.7974 122.674 58.5541 122.456 58.2686 122.309Z" fill="#E0E0E0"/>
<path d="M54.3497 122.942C53.7594 122.343 53.2519 121.668 52.8406 120.935C52.1337 119.701 52.0135 118.051 52.374 117.846C52.7345 117.641 54.2013 119.291 54.2013 119.291C54.0659 118.593 54.0137 117.881 54.0458 117.171C54.1094 116.071 54.3745 115.075 54.689 114.873C55.0036 114.672 55.7104 116.057 56.0108 117.061C56.3113 118.065 56.4915 118.892 56.4915 118.892C56.6141 118.109 56.7948 117.336 57.0323 116.58C57.3857 115.538 57.7391 115.301 57.9901 115.407C58.241 115.513 58.4177 115.994 58.4919 117.383C58.5193 118.045 58.498 118.709 58.4283 119.369C58.4283 119.369 58.9479 118.8 59.5204 118.249C60.1531 117.644 60.4217 117.542 60.6019 117.676C60.7822 117.81 60.8317 118.736 59.8562 120.503C59.3704 121.403 58.748 122.222 58.0113 122.931C58.0113 122.931 56.6576 123.815 54.3497 122.942Z" fill="#0071CE"/>
<path opacity="0.2" d="M62.3335 100.62L63.4079 101.239L71.8832 96.2765L72.8198 95.1738L70.8689 95.6898L62.3335 100.62Z" fill="black"/>
<path d="M70.9459 94.9372L72.752 94.5838C72.7634 94.5819 72.7751 94.5835 72.7855 94.5884C72.796 94.5933 72.8047 94.6013 72.8105 94.6113C72.8163 94.6213 72.8188 94.6329 72.8178 94.6444C72.8169 94.6559 72.8124 94.6668 72.805 94.6757L71.575 96.0612L70.9459 94.9372Z" fill="#FFA8A7"/>
<path d="M72.8033 94.6757C72.8107 94.6668 72.8152 94.6559 72.8162 94.6444C72.8171 94.6329 72.8146 94.6213 72.8088 94.6113C72.803 94.6013 72.7943 94.5933 72.7839 94.5884C72.7734 94.5835 72.7617 94.5819 72.7503 94.5838L72.3969 94.651C72.4456 94.681 72.485 94.724 72.5106 94.7752C72.5362 94.8264 72.547 94.8838 72.5418 94.9408V94.9726L72.8033 94.6757Z" fill="#263238"/>
<path d="M64.8601 99.9209L65.0086 99.8361L65.1888 99.7371L71.5753 96.0614C71.6352 95.8632 71.6175 95.6497 71.5258 95.4641C71.4783 95.3358 71.4005 95.2209 71.2989 95.1292C71.1974 95.0375 71.0752 94.9717 70.9427 94.9375L64.542 98.6097L64.1886 98.804C64.4325 98.7051 65.0722 99.8043 64.8601 99.9209Z" fill="#0071CE"/>
<path d="M65.4112 99.6029L65.7399 99.412C65.8353 99.359 65.7823 99.1222 65.6656 98.8748C65.5172 98.5461 65.2203 98.228 65.0896 98.2952L64.8492 98.4365L64.7609 98.486C64.8916 98.4189 65.1885 98.737 65.337 99.0657C65.4465 99.3025 65.5031 99.5322 65.4182 99.5958L65.4112 99.6029Z" fill="#EBEBEB"/>
<path d="M65.4932 99.5526C65.7194 99.4325 65.0726 98.3156 64.8428 98.4358L64.5142 98.6266C64.7404 98.5065 65.3871 99.6233 65.1609 99.7435L65.4932 99.5526Z" fill="#0071CE"/>
<path d="M64.8597 99.921L65.1884 99.7372C65.4111 99.6206 64.7925 98.5391 64.5593 98.6098L64.2306 98.8006C64.432 98.7052 65.0718 99.8044 64.8597 99.921Z" fill="#EBEBEB"/>
<path opacity="0.15" d="M72.8123 94.6123L72.7523 94.584L71.441 95.2908L64.6657 99.1786C64.6657 99.1574 64.6445 99.1574 64.6375 99.1786C64.8283 99.479 64.9732 99.8572 64.846 99.9208L64.9944 99.836L65.1747 99.737L71.5753 96.0613L72.8017 94.6759C72.8094 94.6674 72.8144 94.6569 72.8163 94.6456C72.8182 94.6343 72.8168 94.6228 72.8123 94.6123Z" fill="black"/>
<path d="M63.4651 100.716L64.847 99.9209C64.9459 99.8714 64.8929 99.6346 64.7798 99.3908C64.6314 99.0585 64.3345 98.7405 64.2037 98.8041L62.8148 99.5993C62.5391 99.7583 62.7935 100.359 63.101 100.624C63.1451 100.675 63.2036 100.711 63.2686 100.727C63.3337 100.744 63.4023 100.74 63.4651 100.716Z" fill="#F28F8F"/>
<path opacity="0.1" d="M63.546 100.285C63.5112 100.135 63.442 99.9951 63.3438 99.8767C63.2457 99.7583 63.1213 99.6644 62.9805 99.6024C62.9467 99.5893 62.9102 99.5849 62.8743 99.5899C62.8384 99.5948 62.8044 99.6089 62.7755 99.6307C62.567 99.8216 62.8073 100.373 63.1006 100.624C63.1439 100.672 63.2005 100.707 63.2634 100.723C63.3263 100.74 63.3927 100.737 63.4541 100.716C63.5601 100.656 63.599 100.497 63.546 100.285Z" fill="black"/>
<path d="M263.302 138.451L224.682 160.739C224.3 160.989 223.982 161.326 223.755 161.722C223.528 162.118 223.398 162.563 223.376 163.019V253.964C223.376 254.797 223.963 255.135 224.682 254.715L263.302 232.42C263.682 232.171 263.998 231.836 264.225 231.442C264.452 231.049 264.583 230.607 264.609 230.154V139.195C264.609 138.362 264.022 138.021 263.302 138.451ZM262.729 223.415C262.729 224.128 262.227 224.582 261.609 224.937L226.245 245.362C225.631 245.703 225.126 245.43 225.126 244.714V169.082C225.126 168.691 225.229 168.307 225.425 167.969C225.621 167.63 225.903 167.349 226.242 167.154L261.606 146.726C261.719 146.66 261.848 146.625 261.979 146.624C262.111 146.624 262.24 146.658 262.353 146.724C262.467 146.789 262.562 146.883 262.628 146.997C262.694 147.11 262.728 147.239 262.729 147.37V223.415Z" fill="#455A64"/>
<path d="M262.728 223.414C262.728 224.128 262.227 224.581 261.609 224.936L226.245 245.362C225.631 245.703 225.126 245.43 225.126 244.713V169.082C225.126 168.691 225.229 168.307 225.425 167.968C225.621 167.63 225.903 167.349 226.242 167.154L261.606 146.725C261.719 146.659 261.848 146.624 261.979 146.624C262.111 146.624 262.24 146.658 262.353 146.723C262.467 146.789 262.562 146.883 262.628 146.996C262.693 147.11 262.728 147.239 262.728 147.37V223.414Z" fill="#263238"/>
<path d="M226.245 245.362L261.609 224.944C261.857 224.81 262.087 224.643 262.292 224.449L225.126 203.519V244.714C225.126 245.431 225.631 245.717 226.245 245.362Z" fill="#37474F"/>
<path d="M259.866 222.088V147.732L226.242 167.155C225.903 167.35 225.621 167.63 225.425 167.969C225.229 168.307 225.126 168.692 225.126 169.083V243.022L258.746 223.61C259.364 223.255 259.866 222.801 259.866 222.088Z" fill="#0071CE"/>
<path d="M224.519 254.807C224.129 254.972 223.708 255.05 223.285 255.036C222.862 255.021 222.447 254.916 222.069 254.726L220.574 253.862C220.193 253.615 219.876 253.282 219.648 252.888C219.42 252.495 219.289 252.054 219.264 251.6V160.631C219.273 160.293 219.349 159.962 219.489 159.655C219.537 159.549 219.588 159.447 219.646 159.341L223.741 161.729C223.655 161.883 223.58 162.043 223.516 162.207C223.416 162.465 223.362 162.739 223.355 163.016V253.965C223.376 254.732 223.874 255.08 224.519 254.807Z" fill="#263238"/>
<path d="M245.145 236.483C245.981 236.483 246.07 237.422 246.07 237.824C246.02 238.631 245.783 239.415 245.379 240.115C244.974 240.815 244.413 241.411 243.739 241.858C243.469 242.029 243.158 242.128 242.838 242.144C242.002 242.144 241.913 241.206 241.913 240.803C241.964 239.997 242.2 239.212 242.604 238.512C243.007 237.812 243.568 237.214 244.241 236.767C244.513 236.598 244.824 236.5 245.145 236.483Z" fill="#0071CE"/>
<path d="M243.964 151.045C244.306 150.84 244.602 151.004 244.602 151.414C244.59 151.635 244.526 151.85 244.415 152.042C244.304 152.234 244.15 152.398 243.964 152.519C243.623 152.721 243.323 152.557 243.323 152.151C243.335 151.929 243.399 151.713 243.51 151.521C243.622 151.328 243.777 151.165 243.964 151.045Z" fill="#263238"/>
<path d="M239.842 156.434C240.156 156.253 240.409 156.399 240.409 156.775C240.398 156.971 240.341 157.162 240.243 157.332C240.145 157.503 240.007 157.647 239.842 157.754C239.528 157.935 239.276 157.788 239.276 157.413C239.287 157.217 239.344 157.026 239.442 156.856C239.54 156.685 239.678 156.541 239.842 156.434Z" fill="#263238"/>
<path d="M241.736 155.314L248.08 151.653C248.421 151.451 248.708 151.595 248.708 151.97C248.691 152.181 248.626 152.385 248.517 152.566C248.408 152.747 248.258 152.901 248.08 153.014L241.736 156.676C241.395 156.877 241.109 156.734 241.109 156.358C241.125 156.147 241.191 155.943 241.3 155.762C241.409 155.581 241.558 155.428 241.736 155.314Z" fill="#263238"/>
<path d="M264.594 138.987C264.499 138.304 263.956 138.062 263.304 138.441L224.678 160.739C224.292 160.979 223.974 161.316 223.757 161.715L219.662 159.327C219.883 158.93 220.201 158.597 220.587 158.358L259.189 136.062C259.594 135.857 260.042 135.75 260.496 135.75C260.95 135.75 261.398 135.857 261.803 136.062L263.304 136.922C263.654 137.154 263.95 137.459 264.173 137.815C264.395 138.171 264.539 138.57 264.594 138.987Z" fill="#37474F"/>
<path d="M254.466 141.748C254.265 141.855 254.042 141.913 253.815 141.917C253.588 141.921 253.363 141.871 253.159 141.771C253.091 141.742 253.031 141.695 252.988 141.635C252.944 141.575 252.917 141.504 252.91 141.43C252.91 141.335 252.91 140.98 252.91 140.881C252.921 140.796 252.954 140.715 253.005 140.646C253.056 140.577 253.125 140.523 253.203 140.488L257.342 138.1C257.544 137.994 257.767 137.936 257.995 137.932C258.222 137.928 258.448 137.977 258.653 138.076C258.72 138.107 258.778 138.154 258.821 138.214C258.864 138.274 258.891 138.344 258.898 138.417C258.898 138.516 258.898 138.885 258.898 138.98C258.888 139.066 258.855 139.147 258.804 139.217C258.752 139.286 258.684 139.341 258.605 139.376L254.466 141.748Z" fill="#0071CE"/>
<path opacity="0.25" d="M254.466 141.748C254.265 141.855 254.042 141.913 253.815 141.917C253.588 141.921 253.363 141.871 253.159 141.771C253.091 141.742 253.031 141.695 252.988 141.635C252.944 141.575 252.917 141.504 252.91 141.43C252.91 141.335 252.91 140.98 252.91 140.881C252.921 140.796 252.954 140.715 253.005 140.646C253.056 140.577 253.125 140.523 253.203 140.488L257.342 138.1C257.544 137.994 257.767 137.936 257.995 137.932C258.222 137.928 258.448 137.977 258.653 138.076C258.72 138.107 258.778 138.154 258.821 138.214C258.864 138.274 258.891 138.344 258.898 138.417C258.898 138.516 258.898 138.885 258.898 138.98C258.888 139.066 258.855 139.147 258.804 139.217C258.752 139.286 258.684 139.341 258.605 139.376L254.466 141.748Z" fill="black"/>
<path d="M254.465 141.204L258.604 138.816C258.979 138.598 258.996 138.26 258.648 138.058C258.443 137.96 258.218 137.91 257.99 137.914C257.763 137.918 257.539 137.976 257.338 138.082L253.199 140.471C252.827 140.686 252.807 141.024 253.158 141.225C253.362 141.324 253.587 141.374 253.814 141.371C254.041 141.367 254.264 141.31 254.465 141.204Z" fill="#0071CE"/>
<path opacity="0.3" d="M254.465 141.204L258.604 138.816C258.979 138.598 258.996 138.26 258.648 138.058C258.443 137.96 258.218 137.91 257.99 137.914C257.763 137.918 257.539 137.976 257.338 138.082L253.199 140.471C252.827 140.686 252.807 141.024 253.158 141.225C253.362 141.324 253.587 141.374 253.814 141.371C254.041 141.367 254.264 141.31 254.465 141.204Z" fill="black"/>
<path d="M221.852 174.337C221.844 174.11 221.783 173.888 221.672 173.689C221.562 173.49 221.406 173.321 221.218 173.194C221.156 173.148 221.083 173.12 221.006 173.114C220.93 173.107 220.853 173.122 220.784 173.156C220.706 173.204 220.392 173.378 220.31 173.429C220.241 173.481 220.188 173.55 220.153 173.629C220.119 173.708 220.106 173.794 220.116 173.88V184.021C220.124 184.247 220.185 184.469 220.295 184.667C220.405 184.866 220.559 185.036 220.747 185.164C220.808 185.205 220.88 185.23 220.954 185.236C221.028 185.242 221.102 185.229 221.17 185.198C221.259 185.153 221.576 184.969 221.661 184.918C221.73 184.866 221.784 184.797 221.818 184.718C221.852 184.64 221.865 184.553 221.856 184.468L221.852 174.337Z" fill="#0071CE"/>
<path opacity="0.3" d="M221.852 174.337C221.844 174.11 221.783 173.888 221.672 173.689C221.562 173.49 221.406 173.321 221.218 173.194C221.156 173.148 221.083 173.12 221.006 173.114C220.93 173.107 220.853 173.122 220.784 173.156C220.706 173.204 220.392 173.378 220.31 173.429C220.241 173.481 220.188 173.55 220.153 173.629C220.119 173.708 220.106 173.794 220.116 173.88V184.021C220.124 184.247 220.185 184.469 220.295 184.667C220.405 184.866 220.559 185.036 220.747 185.164C220.808 185.205 220.88 185.23 220.954 185.236C221.028 185.242 221.102 185.229 221.17 185.198C221.259 185.153 221.576 184.969 221.661 184.918C221.73 184.866 221.784 184.797 221.818 184.718C221.852 184.64 221.865 184.553 221.856 184.468L221.852 174.337Z" fill="black"/>
<path d="M221.382 174.62V184.761C221.382 185.191 221.099 185.375 220.747 185.174C220.56 185.046 220.405 184.876 220.295 184.678C220.186 184.479 220.124 184.258 220.116 184.031V173.88C220.116 173.446 220.399 173.262 220.747 173.463C220.937 173.592 221.094 173.764 221.204 173.965C221.314 174.166 221.375 174.391 221.382 174.62Z" fill="#0071CE"/>
<path opacity="0.4" d="M221.382 174.62V184.761C221.382 185.191 221.099 185.375 220.747 185.174C220.56 185.046 220.405 184.876 220.295 184.678C220.186 184.479 220.124 184.258 220.116 184.031V173.88C220.116 173.446 220.399 173.262 220.747 173.463C220.937 173.592 221.094 173.764 221.204 173.965C221.314 174.166 221.375 174.391 221.382 174.62Z" fill="black"/>
<path d="M221.852 187.928C221.844 187.701 221.783 187.479 221.672 187.28C221.562 187.081 221.406 186.911 221.218 186.785C221.156 186.739 221.083 186.711 221.006 186.705C220.93 186.698 220.853 186.713 220.784 186.747C220.706 186.795 220.392 186.969 220.31 187.02C220.241 187.072 220.188 187.141 220.153 187.22C220.119 187.299 220.106 187.385 220.116 187.47V192.247C220.124 192.474 220.186 192.694 220.296 192.892C220.405 193.09 220.56 193.26 220.747 193.387C220.806 193.431 220.877 193.459 220.951 193.466C221.024 193.474 221.099 193.462 221.166 193.432C221.255 193.387 221.573 193.203 221.658 193.152C221.726 193.1 221.78 193.032 221.814 192.954C221.848 192.875 221.861 192.79 221.852 192.705V187.928Z" fill="#0071CE"/>
<path opacity="0.3" d="M221.852 187.928C221.844 187.701 221.783 187.479 221.672 187.28C221.562 187.081 221.406 186.911 221.218 186.785C221.156 186.739 221.083 186.711 221.006 186.705C220.93 186.698 220.853 186.713 220.784 186.747C220.706 186.795 220.392 186.969 220.31 187.02C220.241 187.072 220.188 187.141 220.153 187.22C220.119 187.299 220.106 187.385 220.116 187.47V192.247C220.124 192.474 220.186 192.694 220.296 192.892C220.405 193.09 220.56 193.26 220.747 193.387C220.806 193.431 220.877 193.459 220.951 193.466C221.024 193.474 221.099 193.462 221.166 193.432C221.255 193.387 221.573 193.203 221.658 193.152C221.726 193.1 221.78 193.032 221.814 192.954C221.848 192.875 221.861 192.79 221.852 192.705V187.928Z" fill="black"/>
<path d="M221.382 188.183V192.961C221.382 193.39 221.099 193.578 220.747 193.373C220.56 193.246 220.405 193.076 220.295 192.877C220.186 192.679 220.124 192.457 220.116 192.23V187.453C220.116 187.023 220.399 186.836 220.747 187.037C220.935 187.165 221.091 187.335 221.201 187.535C221.311 187.734 221.373 187.956 221.382 188.183Z" fill="#0071CE"/>
<path opacity="0.4" d="M221.382 188.183V192.961C221.382 193.39 221.099 193.578 220.747 193.373C220.56 193.246 220.405 193.076 220.295 192.877C220.186 192.679 220.124 192.457 220.116 192.23V187.453C220.116 187.023 220.399 186.836 220.747 187.037C220.935 187.165 221.091 187.335 221.201 187.535C221.311 187.734 221.373 187.956 221.382 188.183Z" fill="black"/>
<path d="M233.16 179.462C233.194 179.627 233.239 179.79 233.296 179.95C233.518 180.55 233.917 181.117 233.883 181.758C233.846 182.481 233.276 183.041 232.839 183.618C232.271 184.38 231.893 185.267 231.735 186.204C231.578 187.141 231.645 188.103 231.931 189.009C232.351 190.113 232.933 191.148 233.658 192.08L235.306 194.417C235.804 195.072 236.44 195.609 237.169 195.99C238.585 196.791 240.165 197.258 241.789 197.355C244.458 197.535 247.113 196.839 249.351 195.373C251.722 193.803 250.678 189.777 253.104 188.306C256.039 186.532 257.438 180.369 253.841 177.797C253.841 177.797 254.421 174.023 253.357 173.06C252.296 172.173 250.983 171.64 249.603 171.539C247.699 171.341 245.792 171.713 243.891 171.706C241.935 171.699 239.98 171.821 238.039 172.071C237.357 172.163 236.395 172.412 236.026 173.077C235.922 173.338 235.894 173.623 235.944 173.9C235.939 174.338 235.782 174.761 235.501 175.097C235.077 175.609 234.477 175.954 234.027 176.435C233.655 176.836 233.383 177.319 233.232 177.845C233.082 178.371 233.057 178.925 233.16 179.462Z" fill="#263238"/>
<path d="M252.098 184.908C255.169 184.994 255.569 185.649 258.319 188.372C260.605 190.634 268.18 197.625 268.18 197.625L277.257 200.041L275.114 205.579C275.114 205.579 273.066 205.494 268.972 205.491C266.457 205.491 265.583 204.928 263.052 203.239C261.762 202.375 254.484 197.612 254.484 197.612L252.098 184.908Z" fill="#E6E6E6"/>
<path d="M287.296 188.842L270.662 194.704L266.076 214.495L266.448 214.891L282.263 208.991L287.665 189.238L287.296 188.842Z" fill="#0071CE"/>
<path opacity="0.35" d="M271.03 195.1L266.448 214.891L266.076 214.495L270.662 194.704L271.03 195.1Z" fill="black"/>
<path opacity="0.25" d="M287.667 189.238L271.032 195.1L266.45 214.891L282.265 208.992L287.667 189.238Z" fill="black"/>
<g opacity="0.2">
<path d="M279.79 204.965C279.943 205.354 281.219 206.21 283.065 206.057L283.376 204.917L279.79 204.965Z" fill="black"/>
</g>
<g opacity="0.1">
<path d="M282.657 193.292L282.793 192.627C282.868 192.261 281.892 192.453 280.613 193.057L277.61 193.964C276.33 194.568 275.123 195.019 275.044 195.384L274.908 196.046L282.657 193.292Z" fill="black"/>
</g>
<path d="M283.647 190.289C283.695 190.061 283.306 190.108 282.784 190.248L281.825 190.572C281.825 190.572 282.217 189.61 279.948 190.231C277.454 190.914 277.399 192.152 277.399 192.152C277.009 192.322 276.609 192.467 276.202 192.589C275.373 192.859 275.284 193.019 275.216 193.251L275.093 193.671L283.572 190.688C283.572 190.688 283.613 190.518 283.647 190.289Z" fill="#37474F"/>
<path d="M282.755 191.562C281.97 191.903 281.646 192.091 281.526 192.657C281.393 193.302 281.366 193.572 281.366 193.572L276.95 195.312C276.95 195.312 277.189 194.36 277.247 194.043C277.305 193.725 276.722 193.725 275.957 194.077L276.138 193.285L283.007 190.736L282.755 191.562Z" fill="#37474F"/>
<path d="M282.883 193.302C282.883 193.302 282.948 193.005 283.023 192.637C283.098 192.268 282.122 192.463 280.843 193.067L277.84 193.974C276.56 194.578 275.349 195.029 275.274 195.394L275.137 196.076L282.883 193.302Z" fill="#37474F"/>
<path d="M285.816 196.008C285.816 196.008 285.226 198.178 285.069 198.738C284.912 199.298 282.189 200.543 280.827 200.714C278.221 201.038 277.924 201.601 278.548 203.443C279.128 205.15 280.824 205.798 283.178 205.521C284.284 205.392 285.809 204.412 286.41 202.703C287.174 200.519 286.751 198.189 287.068 196.902C287.386 195.616 286.478 195.247 285.816 196.008Z" fill="#FFA8A7"/>
<path d="M260.041 225.851L258.277 226.875L257.536 227.301L247.832 232.901L246.508 233.652L244.273 234.941L244.956 227.977L246.259 214.492V214.352L246.32 213.748L248.026 196.117L248.774 188.402L249.037 185.635L249.125 184.741H249.173C249.963 184.521 250.799 184.521 251.589 184.741C251.765 184.794 251.936 184.863 252.101 184.946C253.124 185.454 253.807 186.444 254.373 187.484C254.512 187.738 254.638 187.999 254.749 188.266C255.169 189.277 255.494 190.326 255.718 191.398C256.165 193.377 256.741 195.401 256.97 198.591C257.006 199.412 256.962 200.235 256.84 201.048C256.686 203.199 256.66 205.357 256.762 207.511C257.048 212.39 258.277 214.601 260.041 225.851Z" fill="#E0E0E0"/>
<path d="M257.535 227.295L247.831 232.894L246.507 233.652L244.272 234.941L242.733 235.829L233.39 241.22C233.489 237.466 233.534 233.396 233.445 229.55C233.418 228.264 233.407 226.95 233.462 225.606C233.639 220.938 234.527 215.932 237.707 210.664L237.853 210.397C238.229 212.626 241.641 214.072 244.712 214.414L245.053 214.444C245.439 214.482 245.838 214.499 246.251 214.499H246.51C249.107 214.475 252.181 213.864 255.723 212.667C256.064 214.646 256.406 217.242 256.771 220.279C256.934 221.644 257.101 223.099 257.269 224.643C257.337 225.507 257.443 226.39 257.535 227.295Z" fill="#FFA8A7"/>
<path d="M258.276 226.868L257.536 227.294L247.832 232.894L246.508 233.651L244.273 234.941L242.734 235.828L233.391 241.219L232.367 241.81C232.419 237.77 232.453 233.811 232.449 231.327C232.449 229.017 232.501 226.963 232.627 225.141C232.876 221.545 233.395 218.839 234.261 216.791C235.278 214.551 236.481 212.399 237.858 210.359C237.858 210.359 238.711 213.239 245.092 213.693H245.132C245.508 213.72 245.904 213.737 246.32 213.744H246.804C254.748 213.744 255.625 211.741 255.625 211.741C256.401 214.687 257.015 217.672 257.464 220.685C257.633 221.749 257.795 222.887 257.952 224.097C258.068 224.984 258.177 225.905 258.276 226.868Z" fill="#0071CE"/>
<path opacity="0.4" d="M258.276 226.868L257.536 227.294L247.832 232.894L246.508 233.651L244.273 234.941L242.734 235.828L233.391 241.219L232.367 241.81C232.419 237.77 232.453 233.811 232.449 231.327C232.449 229.017 232.501 226.963 232.627 225.141C232.876 221.545 233.395 218.839 234.261 216.791C235.278 214.551 236.481 212.399 237.858 210.359C237.858 210.359 238.711 213.239 245.092 213.693H245.132C245.508 213.72 245.904 213.737 246.32 213.744H246.804C254.748 213.744 255.625 211.741 255.625 211.741C256.401 214.687 257.015 217.672 257.464 220.685C257.633 221.749 257.795 222.887 257.952 224.097C258.068 224.984 258.177 225.905 258.276 226.868Z" fill="black"/>
<path opacity="0.2" d="M253.722 222.34C253.722 222.34 252.835 225.158 249.102 226.738L248.925 227.601L247.833 232.894L246.509 233.651L247.301 227.813L247.642 225.274C249.949 225.035 252.1 223.997 253.722 222.34Z" fill="black"/>
<path d="M242.368 185.557L238.615 185.952C236.131 186.56 235.008 187.659 234.752 189.853C234.633 190.876 234.015 193.606 234.882 197.018C235.667 200.117 237.762 207.698 237.762 207.698C237.762 207.698 232.94 213.991 232.067 224.78C240.891 230.54 254.427 227.445 258.088 223.964C257.781 220.668 255.676 211.622 255.413 208.685C255.413 208.685 255.608 204.095 255.973 202.106C258.764 199.059 258.409 196.145 257.157 193.794C254.843 189.453 251.356 185.639 250.227 185.642L242.368 185.557Z" fill="#0071CE"/>
<path opacity="0.7" d="M242.368 185.557L238.615 185.952C236.131 186.56 235.008 187.659 234.752 189.853C234.633 190.876 234.015 193.606 234.882 197.018C235.667 200.117 237.762 207.698 237.762 207.698C237.762 207.698 232.94 213.991 232.067 224.78C240.891 230.54 254.427 227.445 258.088 223.964C257.781 220.668 255.676 211.622 255.413 208.685C255.413 208.685 255.608 204.095 255.973 202.106C258.764 199.059 258.409 196.145 257.157 193.794C254.843 189.453 251.356 185.639 250.227 185.642L242.368 185.557Z" fill="white"/>
<path d="M245.621 209.05C245.621 209.118 245.621 209.179 245.621 209.23V209.319C245.624 209.348 245.624 209.376 245.621 209.404C245.492 210.769 245.338 212.22 245.174 213.697C245.174 213.697 245.174 213.697 245.174 213.718C245.151 213.956 245.123 214.195 245.096 214.437C244.594 218.89 243.997 223.65 243.537 227.984C243.424 229.035 243.322 230.059 243.229 231.055C243.086 232.546 242.933 234.18 242.776 235.832L233.433 241.223L232.409 241.814L229.799 243.318C230.325 238.149 231.55 226.172 232.232 220.767C232.31 220.156 232.413 219.546 232.529 218.938L232.621 218.495L232.662 218.314C232.706 218.109 232.751 217.911 232.798 217.71C232.846 217.508 232.891 217.338 232.935 217.157C233.041 216.744 233.153 216.338 233.276 215.942C233.334 215.751 233.389 215.56 233.45 215.372C233.512 215.185 233.563 214.997 233.624 214.813C233.747 214.444 233.866 214.083 233.993 213.731C233.991 213.724 233.991 213.717 233.993 213.711C234.051 213.543 234.112 213.369 234.174 213.213C234.255 212.98 234.341 212.755 234.426 212.53L234.528 212.26C234.58 212.138 234.624 212.018 234.672 211.899C234.839 211.479 235.013 211.08 235.166 210.708C235.201 210.626 235.238 210.544 235.272 210.466C235.306 210.387 235.361 210.271 235.402 210.176C235.504 209.937 235.607 209.715 235.706 209.493C235.747 209.398 235.791 209.306 235.832 209.217C235.873 209.128 235.931 209.012 235.975 208.917L236.04 208.78L236.108 208.647C236.113 208.63 236.121 208.613 236.132 208.599C236.141 208.574 236.153 208.55 236.166 208.528C236.174 208.512 236.181 208.496 236.187 208.48C236.215 208.431 236.24 208.381 236.262 208.33L236.49 207.886C236.49 207.862 236.514 207.845 236.521 207.825L236.61 207.661L233.771 195.889L232.358 190.04V189.945C232.423 189.426 232.856 186.979 235.354 186.236C236.764 185.872 238.209 185.657 239.664 185.594C240.223 185.56 240.728 185.546 241.141 185.536H241.793H242.185C242.186 185.544 242.186 185.552 242.185 185.56C242.206 185.611 242.264 185.765 242.353 186.004C242.362 186.044 242.376 186.082 242.394 186.12C242.394 186.125 242.394 186.131 242.394 186.137C243.008 187.822 244.731 192.729 245.587 196.991C245.737 197.728 245.86 198.448 245.949 199.13C246.205 201.263 246.017 204.832 245.621 209.05Z" fill="#FAFAFA"/>
<path d="M236.703 202.024C236.703 202.024 237.044 200.341 237.545 196.707C238.129 192.517 237.921 190.446 237.289 189.122L233.731 195.909L236.569 207.681C236.569 207.681 233.652 213.025 232.475 218.941C235.266 211.056 238.32 208.705 238.32 208.705L236.703 202.024Z" fill="#E6E6E6"/>
<path d="M249.17 182.929C250.275 182.929 250.405 183.113 251.357 184.389C251.923 185.15 255.51 191.07 255.51 191.07C255.51 191.07 252.657 187.317 250.504 186.177C250.089 185.934 249.641 185.755 249.173 185.645L249.17 182.929Z" fill="#EBEBEB"/>
<path d="M240.993 195.51C240.993 195.169 240.959 194.431 240.901 193.503C240.618 188.951 240.482 184.857 242.017 184.516L242.15 185.143C241.031 185.386 241.399 191.244 241.539 193.449C241.601 194.397 241.649 195.155 241.631 195.523L240.993 195.51Z" fill="#0071CE"/>
<path d="M235.876 165.708L238.264 167.663C238.394 167.514 238.492 167.341 238.553 167.153C238.613 166.965 238.635 166.767 238.616 166.57C238.597 166.374 238.538 166.183 238.443 166.01C238.348 165.837 238.219 165.686 238.063 165.565C237.749 165.305 237.348 165.175 236.941 165.202C236.534 165.228 236.153 165.409 235.876 165.708Z" fill="#263238"/>
<path d="M242.115 183.219C242.115 181.721 238.624 179.465 236.822 176.316C235.021 173.166 235.921 167.987 238.392 167.192C238.412 167.192 238.481 166.526 238.491 166.479C238.627 165.878 238.858 165.302 239.173 164.772C240.18 163.039 242.312 161.701 244.291 161.422C252.116 160.282 255.712 163.322 257.149 166.666C257.614 167.791 257.822 169.006 257.756 170.222C257.716 171.115 257.385 171.97 256.813 172.657C256.241 173.344 255.46 173.825 254.59 174.026L242.115 183.219Z" fill="#263238"/>
<path d="M252.968 165.547C254.5 166.229 255.957 168.56 255.934 175.118C255.913 180.68 254.207 182.086 253.347 182.499C252.487 182.912 250.805 182.7 249.171 182.451V185.645C249.171 185.645 250.396 186.849 249.966 187.607C249.536 188.364 247.949 189.006 245.482 188.231C242.687 187.354 242.049 185.501 242.049 185.501L241.985 178.493C241.985 178.493 241.046 179.479 239.391 178.032C238.026 176.834 237.535 174.784 238.562 173.658C239.589 172.532 240.906 172.443 242.094 173.702L242.947 173.252C244.469 173.074 246.7 172.818 248.345 171.989C252.562 169.843 252.999 167.516 252.968 165.547Z" fill="#FFA8A7"/>
<path d="M242.118 172.795L242.138 175.866C242.335 175.871 242.532 175.836 242.715 175.763C242.898 175.689 243.064 175.579 243.203 175.439C243.342 175.299 243.451 175.132 243.523 174.949C243.595 174.765 243.629 174.569 243.622 174.371C243.619 173.967 243.461 173.578 243.182 173.286C242.902 172.993 242.522 172.817 242.118 172.795Z" fill="#263238"/>
<path d="M253.111 173.231C253.113 173.376 253.156 173.516 253.237 173.636C253.318 173.756 253.432 173.849 253.565 173.904C253.698 173.96 253.845 173.975 253.986 173.948C254.128 173.921 254.259 173.853 254.362 173.752C254.466 173.652 254.537 173.523 254.568 173.382C254.599 173.241 254.588 173.094 254.536 172.959C254.484 172.825 254.394 172.708 254.276 172.624C254.159 172.54 254.02 172.493 253.875 172.487C253.776 172.485 253.677 172.503 253.585 172.539C253.493 172.575 253.408 172.63 253.337 172.699C253.266 172.768 253.209 172.851 253.171 172.942C253.132 173.034 253.112 173.132 253.111 173.231Z" fill="black"/>
<path d="M247.226 173.558C247.22 173.664 247.235 173.77 247.27 173.87C247.305 173.97 247.359 174.062 247.43 174.141C247.5 174.22 247.586 174.284 247.682 174.33C247.777 174.376 247.881 174.402 247.987 174.408C248.094 174.409 248.2 174.389 248.3 174.348C248.399 174.308 248.49 174.248 248.566 174.173C248.643 174.097 248.704 174.008 248.745 173.909C248.787 173.81 248.808 173.703 248.809 173.596C248.812 173.492 248.795 173.388 248.758 173.291C248.722 173.194 248.666 173.105 248.595 173.029C248.524 172.953 248.439 172.892 248.344 172.849C248.249 172.806 248.147 172.782 248.043 172.779C247.939 172.775 247.835 172.793 247.738 172.829C247.641 172.866 247.551 172.921 247.476 172.993C247.4 173.064 247.339 173.149 247.296 173.244C247.253 173.339 247.229 173.441 247.226 173.545V173.558Z" fill="black"/>
<path d="M255.061 171.856L253.161 171.102C253.205 170.974 253.275 170.856 253.366 170.757C253.457 170.657 253.568 170.577 253.692 170.523C253.816 170.468 253.949 170.439 254.085 170.438C254.22 170.438 254.354 170.465 254.478 170.518C254.728 170.624 254.929 170.821 255.037 171.07C255.146 171.319 255.154 171.601 255.061 171.856Z" fill="black"/>
<path d="M251.309 172.631L251.214 177.183L253.66 176.64L251.309 172.631Z" fill="#F28F8F"/>
<path d="M248.426 178.11L250.815 178.851C250.78 179.014 250.712 179.168 250.615 179.303C250.519 179.439 250.395 179.553 250.252 179.639C250.11 179.724 249.951 179.78 249.786 179.802C249.621 179.823 249.453 179.811 249.293 179.765C248.965 179.651 248.693 179.417 248.532 179.109C248.371 178.802 248.333 178.445 248.426 178.11Z" fill="#B16668"/>
<path d="M249.748 179.807C249.745 179.475 249.611 179.157 249.375 178.923C249.14 178.689 248.821 178.558 248.489 178.558C248.456 178.556 248.423 178.556 248.39 178.558C248.402 178.825 248.494 179.081 248.654 179.295C248.814 179.508 249.035 179.669 249.287 179.756C249.435 179.805 249.592 179.822 249.748 179.807Z" fill="#F28F8F"/>
<path d="M249.17 182.468C247.447 182.263 243.894 181.273 243.318 179.83C243.549 180.555 243.992 181.193 244.59 181.662C245.662 182.584 249.17 183.543 249.17 183.543V182.468Z" fill="#F28F8F"/>
<path d="M242.031 182.946C241.581 182.854 241.181 183.052 240.813 183.673C240.444 184.294 239.636 185.618 239.636 185.618C239.636 185.618 239.216 189.982 239.636 191.078C239.997 192.019 243.986 195.551 243.986 195.551C243.986 195.551 242.945 199.472 242.908 200.758C242.87 202.044 245.296 206.927 245.59 209.425C245.59 209.425 246.453 201.577 246.081 198.748C245.44 193.845 243.14 187.512 242.055 185.499L242.031 182.946Z" fill="#EBEBEB"/>
<path d="M244.471 199.188C244.205 198.554 243.891 197.942 243.533 197.355C242.966 196.417 242.267 195.516 241.635 195.284C241.54 195.246 241.438 195.225 241.335 195.223H241.301C241.197 195.229 241.095 195.254 241.001 195.298C240.503 195.52 239.977 196.199 239.551 196.98C239.114 197.765 238.754 198.59 238.476 199.444C238.312 199.972 238.384 201.095 238.578 202.378C238.96 204.869 239.81 207.981 240.284 208.595C240.632 209.024 241.042 209.398 241.502 209.704C241.221 209.89 240.917 210.04 240.598 210.151C240.418 210.217 240.227 210.25 240.035 210.25V210.697H240.09C240.292 210.694 240.494 210.66 240.687 210.598C241.134 210.453 241.556 210.24 241.939 209.967C242.343 210.207 242.781 210.385 243.239 210.492C243.455 210.544 243.677 210.558 243.898 210.533L243.843 210.09C243.652 210.106 243.46 210.091 243.273 210.045C242.945 209.96 242.629 209.834 242.331 209.67C242.765 209.325 243.144 208.918 243.457 208.462C243.724 208.056 244.051 206.657 244.297 205.05C244.447 204.091 244.57 203.06 244.638 202.122C244.713 200.812 244.679 199.689 244.471 199.188ZM243.062 208.216C242.742 208.678 242.349 209.085 241.898 209.421C241.42 209.125 240.993 208.753 240.636 208.319C240.192 207.742 239.373 204.705 239.005 202.31C238.817 201.098 238.749 200.051 238.899 199.58C239.177 198.716 239.545 197.883 239.998 197.096C240.468 196.284 240.97 195.687 241.318 195.673C241.731 195.673 242.4 196.42 243.024 197.379C243.15 197.567 243.27 197.772 243.386 197.976C243.64 198.417 243.868 198.873 244.068 199.341C244.256 199.805 244.276 200.853 244.191 202.071C244.143 202.753 244.068 203.467 243.973 204.176C243.713 206.029 243.348 207.766 243.062 208.206V208.216Z" fill="#455A64"/>
<path d="M244.509 210.27C244.514 210.401 244.481 210.53 244.413 210.641C244.345 210.752 244.245 210.84 244.127 210.895C244.008 210.95 243.877 210.968 243.748 210.948C243.619 210.927 243.499 210.869 243.404 210.781C243.308 210.692 243.241 210.577 243.21 210.45C243.18 210.324 243.188 210.191 243.233 210.069C243.278 209.946 243.359 209.84 243.465 209.764C243.57 209.687 243.696 209.644 243.826 209.639C244 209.633 244.17 209.695 244.298 209.814C244.426 209.932 244.502 210.096 244.509 210.27Z" fill="#263238"/>
<path d="M240.684 210.449C240.69 210.579 240.657 210.708 240.59 210.82C240.522 210.932 240.423 211.021 240.305 211.076C240.187 211.131 240.055 211.15 239.926 211.13C239.797 211.11 239.677 211.052 239.581 210.964C239.485 210.875 239.417 210.76 239.386 210.634C239.356 210.507 239.363 210.374 239.409 210.251C239.454 210.129 239.534 210.022 239.64 209.946C239.745 209.869 239.871 209.826 240.002 209.821C240.088 209.817 240.174 209.831 240.255 209.86C240.336 209.89 240.41 209.935 240.473 209.993C240.537 210.052 240.588 210.122 240.624 210.2C240.66 210.278 240.681 210.363 240.684 210.449Z" fill="#263238"/>
<path d="M244.583 202.116L244.204 202.088C244.166 202.085 244.13 202.067 244.105 202.037C244.079 202.008 244.066 201.97 244.068 201.932C244.146 200.679 244.105 199.758 243.952 199.389C243.29 197.772 241.905 195.745 241.321 195.769C240.738 195.793 239.53 197.932 239.004 199.598C238.885 199.98 238.922 200.901 239.103 202.143C239.109 202.181 239.1 202.22 239.078 202.251C239.055 202.282 239.022 202.304 238.984 202.31L238.608 202.368C238.569 202.373 238.529 202.362 238.498 202.338C238.467 202.314 238.446 202.278 238.441 202.239C238.233 200.846 238.209 199.891 238.366 199.396C238.646 198.502 239.966 195.155 241.294 195.1C242.621 195.046 244.221 198.267 244.576 199.137C244.771 199.615 244.829 200.57 244.74 201.972C244.737 202.012 244.72 202.049 244.69 202.076C244.661 202.102 244.623 202.117 244.583 202.116Z" fill="#0071CE"/>
<path d="M234.666 187.22C232.361 188.182 231.641 189.416 231.038 191.991C230.56 194.035 229.719 204.321 229.296 207.403L219.322 206.612C217.194 206.197 215.887 204.645 214.398 204.056C212.908 203.466 211.744 203.725 210.23 203.362C208.716 202.999 207.961 202.532 207.984 203.479C208.006 204.426 209.841 205.174 210.222 205.391C210.604 205.608 212.186 205.77 210.549 206.514C208.912 207.259 204.905 206.975 203.978 207.019C203.051 207.062 203.512 207.989 204.168 208.425C204.823 208.861 205.553 210.583 206.645 211.286C207.801 212.033 208.382 212.323 210.234 212.326C211.952 212.32 215.094 211.246 217.049 211.536C219.004 211.826 224.287 213.548 227.487 214.567C231.556 215.862 233.791 215.448 234.754 213.185C235.618 210.823 236.379 208.164 236.734 206.829C237.69 203.228 238.393 195.679 238.393 195.679C238.393 195.679 238.482 191.917 234.666 187.22Z" fill="#FFA8A7"/>
<path d="M234.883 186.854C231.512 188.326 231.038 189.985 230.542 193.556C230.046 197.128 229.139 207.126 229.139 207.126L221.304 206.57C221.304 206.57 221.26 209.598 221.177 212.735C221.177 212.735 226.151 214.287 228.505 215.02C230.858 215.754 233.628 215.926 234.936 213.199C236.335 210.287 239.221 197.072 239.221 197.072C239.579 193.185 237.121 188.603 234.883 186.854Z" fill="#F0F0F0"/>
<path d="M229.139 207.125C230.715 207.896 232.578 208.725 232.995 209.835C232.995 209.835 233.288 208.56 229.233 206.105L229.139 207.125Z" fill="#E0E0E0"/>
<path d="M133.147 139.778C131.92 139.145 130.412 139.626 129.778 140.853C129.145 142.08 129.626 143.588 130.853 144.222L133.147 139.778ZM194.76 176.382C196.075 175.962 196.801 174.555 196.382 173.24L189.541 151.805C189.121 150.49 187.714 149.764 186.399 150.184C185.084 150.603 184.358 152.01 184.777 153.325L190.858 172.378L171.805 178.459C170.49 178.879 169.764 180.286 170.184 181.601C170.603 182.916 172.01 183.642 173.325 183.223L194.76 176.382ZM130.853 144.222L192.853 176.222L195.147 171.778L133.147 139.778L130.853 144.222Z" fill="url(#paint0_linear_0_17997)"/>
<defs>
<linearGradient id="paint0_linear_0_17997" x1="198.5" y1="174" x2="132" y2="142" gradientUnits="userSpaceOnUse">
<stop stop-color="#0071CE"/>
<stop offset="1" stop-color="#99D1F3"/>
</linearGradient>
</defs>
</svg>
