<svg width="130" height="131" viewBox="0 0 130 131" fill="none" xmlns="http://www.w3.org/2000/svg">
<path d="M130 126.45C130 126.492 100.896 126.528 65.003 126.528C29.1101 126.528 0 126.501 0 126.45C0 126.398 29.0981 126.371 65.003 126.371C100.908 126.371 130 126.407 130 126.45Z" fill="#263238"/>
<path d="M47.1718 91.4395C47.1718 91.4395 38.5909 97.2687 38.1202 110.876C37.9633 115.441 40.2051 129.975 40.2051 129.975L90.3905 130.178L81.0039 91.2222L65.2148 87.6016L47.1718 91.4395Z" fill="#E7E9EC"/>
<path d="M66.3429 101.543L59.5059 130.065L76.5954 130.179L66.3429 101.543Z" fill="#263238"/>
<path d="M66.0819 95.3633C66.1359 95.6713 66.1661 95.983 66.1725 96.2956C66.2117 96.9232 66.26 97.6956 66.3143 98.5525C66.3686 99.4094 66.3988 100.233 66.4108 100.809C66.4313 101.122 66.4242 101.436 66.3897 101.748C66.3358 101.44 66.3055 101.128 66.2992 100.815C66.26 100.191 66.2117 99.4154 66.1574 98.5615C66.1031 97.7077 66.0729 96.8809 66.0638 96.3016C66.0417 95.9889 66.0477 95.6749 66.0819 95.3633Z" fill="#263238"/>
<path d="M69.181 98.5081C69.181 98.5231 69.0694 98.5473 68.8793 98.6529C68.6302 98.8024 68.4316 99.0231 68.3091 99.2865C68.2142 99.4758 68.1699 99.6864 68.1805 99.8979C68.1911 100.109 68.2561 100.314 68.3694 100.493C68.499 100.718 68.6935 100.897 68.9273 101.008C69.1611 101.12 69.4232 101.157 69.6789 101.116C69.9345 101.075 70.1718 100.958 70.3592 100.779C70.5467 100.601 70.6756 100.37 70.7289 100.116C70.7822 99.9135 70.7825 99.7004 70.7296 99.4974C70.6768 99.2945 70.5726 99.1086 70.4271 98.9576C70.229 98.7448 69.9714 98.5966 69.6879 98.5322C69.4888 98.4869 69.3862 98.499 69.3681 98.4839C69.35 98.4688 69.3983 98.4839 69.4526 98.4658C69.5346 98.4541 69.6179 98.4541 69.7 98.4658C70.0057 98.5104 70.2885 98.6534 70.5056 98.8731C70.6588 99.0243 70.7763 99.2078 70.8496 99.4102C70.9305 99.6474 70.9421 99.9029 70.8827 100.146C70.8241 100.429 70.6808 100.687 70.472 100.886C70.2633 101.085 69.9989 101.216 69.714 101.261C69.4291 101.306 69.1372 101.263 68.8771 101.139C68.617 101.014 68.401 100.813 68.2578 100.563C68.1263 100.35 68.0583 100.104 68.0616 99.8537C68.0704 99.6434 68.125 99.4374 68.2216 99.2503C68.3598 98.9734 68.5843 98.7489 68.8612 98.6106C68.9343 98.5725 69.0126 98.5451 69.0935 98.5292C69.1509 98.505 69.178 98.502 69.181 98.5081Z" fill="#263238"/>
<path d="M74.6509 114.081C74.6509 114.081 74.5392 114.123 74.3491 114.226C74.101 114.376 73.9035 114.596 73.7819 114.86C73.6871 115.049 73.6428 115.259 73.6534 115.471C73.6639 115.682 73.729 115.888 73.8423 116.066C73.9718 116.291 74.1664 116.47 74.4002 116.581C74.634 116.693 74.896 116.73 75.1517 116.689C75.4074 116.649 75.6446 116.531 75.8321 116.352C76.0196 116.174 76.1485 115.943 76.2017 115.689C76.2548 115.486 76.2549 115.273 76.2021 115.071C76.1492 114.868 76.0452 114.682 75.9 114.531C75.7029 114.318 75.4464 114.17 75.1638 114.105C74.9616 114.06 74.844 114.072 74.844 114.057C74.8706 114.045 74.8994 114.039 74.9285 114.039C75.0096 114.029 75.0917 114.029 75.1729 114.039C75.4798 114.084 75.7637 114.228 75.9815 114.449C76.1344 114.599 76.251 114.782 76.3224 114.983C76.4063 115.22 76.4179 115.476 76.3556 115.719C76.2992 116.003 76.1572 116.263 75.9487 116.463C75.7402 116.664 75.4753 116.796 75.1896 116.841C74.904 116.886 74.6113 116.843 74.3509 116.717C74.0906 116.591 73.8752 116.388 73.7336 116.136C73.5994 115.924 73.5312 115.677 73.5375 115.427C73.5449 115.216 73.5996 115.01 73.6974 114.823C73.8356 114.546 74.0601 114.322 74.3371 114.184C74.4106 114.146 74.4887 114.119 74.5694 114.102C74.5954 114.091 74.6229 114.084 74.6509 114.081Z" fill="#263238"/>
<path d="M56.9079 102.773C56.8764 102.821 56.84 102.866 56.7993 102.906C56.7269 102.991 56.6182 103.114 56.4704 103.268C56.0472 103.7 55.5956 104.103 55.1187 104.475C53.5304 105.693 51.6987 106.554 49.748 107.001C48.677 107.258 47.5727 107.347 46.4743 107.266C45.5685 107.201 44.698 106.887 43.958 106.361C43.4637 106 43.0667 105.522 42.8024 104.97C42.736 104.82 42.6815 104.664 42.6395 104.505C42.6224 104.451 42.6133 104.394 42.6123 104.336C42.6274 104.336 42.6727 104.566 42.8597 104.94C43.1368 105.468 43.5361 105.922 44.0244 106.264C44.7535 106.766 45.6037 107.063 46.4864 107.124C47.5704 107.193 48.6585 107.099 49.7148 106.847C51.6452 106.404 53.4627 105.566 55.0523 104.385C55.5311 104.025 55.9895 103.64 56.4251 103.229L56.7782 102.888C56.8596 102.807 56.9019 102.773 56.9079 102.773Z" fill="#263238"/>
<path d="M56.9079 105.598C56.8764 105.646 56.84 105.69 56.7993 105.73C56.7269 105.815 56.6182 105.942 56.4704 106.096C54.6353 107.959 52.301 109.253 49.748 109.822C48.6772 110.08 47.5729 110.17 46.4743 110.09C45.5688 110.023 44.6987 109.71 43.958 109.185C43.4633 108.826 43.0661 108.349 42.8024 107.797C42.7354 107.646 42.681 107.49 42.6395 107.33C42.6221 107.275 42.613 107.218 42.6123 107.161C42.6274 107.161 42.6727 107.39 42.8597 107.764C43.1366 108.293 43.5359 108.748 44.0244 109.092C44.7538 109.592 45.604 109.888 46.4864 109.948C47.5704 110.019 48.6588 109.925 49.7148 109.671C51.6445 109.228 53.4617 108.391 55.0523 107.212C55.5313 106.852 55.9897 106.465 56.4251 106.053L56.7782 105.712C56.8168 105.669 56.8603 105.631 56.9079 105.598Z" fill="#263238"/>
<path d="M57.3497 104.742C57.3605 104.782 57.3676 104.822 57.3708 104.863C57.3708 104.95 57.3919 105.071 57.41 105.222C57.4462 105.548 57.4975 106.012 57.5609 106.607C57.6876 107.814 57.929 109.543 58.0376 111.706C58.0996 112.886 58.0744 114.069 57.9622 115.245C57.8386 116.6 57.5342 117.933 57.057 119.207C56.5309 120.624 55.6973 121.907 54.6161 122.963C54.0421 123.519 53.3968 123.996 52.6971 124.381C51.9732 124.776 51.1909 125.052 50.3799 125.199C48.7625 125.462 47.1041 125.155 45.6881 124.33C44.3676 123.582 43.2548 122.516 42.4506 121.228C41.7415 120.065 41.2316 118.791 40.942 117.46C40.6842 116.302 40.5447 115.121 40.5256 113.936C40.5192 112.226 40.6403 110.519 40.8877 108.828C40.9752 108.224 41.0416 107.771 41.0868 107.449C41.111 107.298 41.1321 107.18 41.1442 107.09C41.1497 107.049 41.1588 107.008 41.1713 106.969C41.1753 107.01 41.1753 107.051 41.1713 107.093C41.1713 107.183 41.1472 107.301 41.1291 107.452C41.0899 107.778 41.0325 108.242 40.9571 108.834C40.7365 110.524 40.6357 112.228 40.6554 113.933C40.6808 115.108 40.8243 116.277 41.0838 117.424C41.3781 118.737 41.8879 119.993 42.5924 121.141C43.3806 122.407 44.4727 123.457 45.7696 124.194C47.1547 125.001 48.777 125.3 50.3588 125.042C51.1534 124.9 51.9197 124.63 52.6277 124.242C53.3162 123.865 53.9514 123.397 54.5165 122.852C55.5839 121.813 56.4082 120.55 56.9303 119.155C57.4047 117.894 57.7091 116.575 57.8354 115.233C57.9532 114.063 57.9845 112.886 57.929 111.712C57.8354 109.555 57.6272 107.817 57.5035 106.613C57.4432 106.009 57.404 105.542 57.3798 105.225C57.3798 105.074 57.3617 104.953 57.3557 104.863C57.3497 104.772 57.3497 104.742 57.3497 104.742Z" fill="#263238"/>
<g opacity="0.2">
<path opacity="0.2" d="M41.6487 119.688C42.1918 121.528 42.4241 122.005 43.4409 123.474C44.3799 124.867 45.754 125.909 47.3482 126.437C48.488 126.83 49.7093 126.926 50.8964 126.715C52.0835 126.504 53.1969 125.993 54.1309 125.23C55.9745 123.688 56.6262 121.308 56.946 119.694C56.1434 120.774 55.2896 122.309 54.2788 123.2C53.268 124.09 51.9314 124.868 50.5978 125.1C48.7874 125.402 46.6301 124.859 45.0823 123.875C43.5345 122.892 42.5991 121.13 41.6396 119.691" fill="black"/>
</g>
<g opacity="0.2">
<path opacity="0.2" d="M42.9404 107.984C43.2846 108.752 43.8102 109.424 44.472 109.943C45.1338 110.461 45.9119 110.811 46.7391 110.962C48.3714 111.264 50.4865 110.748 51.5063 109.215C47.9158 110.477 44.3465 110.507 42.9404 107.984Z" fill="black"/>
</g>
<path d="M72.4455 103.534C72.3686 103.548 72.2901 103.548 72.2132 103.534C72.0088 103.506 71.807 103.462 71.6097 103.402C70.2651 103.003 69.112 102.127 68.3662 100.94C68.2525 100.762 68.1517 100.576 68.0645 100.384C68.0072 100.246 67.98 100.17 67.9921 100.164C68.0041 100.158 68.155 100.448 68.4507 100.879C68.84 101.436 69.3121 101.929 69.8507 102.343C70.3932 102.751 70.9957 103.073 71.6369 103.296C72.1287 103.45 72.4485 103.507 72.4455 103.534Z" fill="#263238"/>
<g opacity="0.2">
<path opacity="0.2" d="M68.2705 100.359C68.6416 101.621 70.0416 102.797 71.2877 103.211C71.5314 103.301 71.7916 103.34 72.0511 103.322C72.1808 103.313 72.3069 103.276 72.4206 103.213C72.5342 103.15 72.6326 103.063 72.7088 102.957C72.9713 102.556 72.745 101.986 72.3588 101.702C71.948 101.451 71.4899 101.288 71.0132 101.222C70.0507 100.999 69.1817 101.485 68.3852 100.676" fill="black"/>
</g>
<g opacity="0.2">
<path opacity="0.2" d="M41.584 98.0245C43.8348 99.9918 47.015 100.076 49.8783 99.2314C52.7417 98.3866 55.2369 96.7965 57.6688 95.0586C55.0167 95.5866 52.7537 96.7965 50.0775 97.1918C47.5219 97.5689 44.8637 97.6081 42.3504 96.7543" fill="black"/>
</g>
<path d="M84.7484 128.243C84.7315 128.258 84.7121 128.269 84.691 128.277C84.6335 128.307 84.574 128.335 84.513 128.358C84.2784 128.453 84.0316 128.514 83.7798 128.539C82.8465 128.616 81.9153 128.367 81.1458 127.833C80.1441 127.196 79.2329 126.125 78.2583 124.936C77.2128 123.632 76.2734 122.245 75.4493 120.791C73.9536 118.144 72.8085 115.315 72.0428 112.373C71.7411 111.244 71.5661 110.321 71.4545 109.678C71.4062 109.377 71.367 109.12 71.3368 108.939C71.3219 108.853 71.3118 108.767 71.3066 108.68C71.3358 108.762 71.357 108.847 71.37 108.933L71.5148 109.666C71.6446 110.303 71.8467 111.223 72.1484 112.343C72.9434 115.264 74.0977 118.075 75.5851 120.712C76.4065 122.16 77.3386 123.542 78.373 124.846C79.3355 126.035 80.2346 127.106 81.2061 127.739C81.9568 128.272 82.8669 128.533 83.7859 128.479C84.1159 128.444 84.4397 128.365 84.7484 128.243Z" fill="#263238"/>
<g opacity="0.2">
<path opacity="0.2" d="M73.8994 117.109C73.8994 117.109 78.3528 122.709 81.6024 124.082C82.7037 124.55 83.9166 124.93 84.6679 125.859C84.8556 126.072 84.9947 126.323 85.0755 126.595C85.1562 126.867 85.1767 127.154 85.1355 127.434C85.123 127.501 85.1028 127.566 85.0752 127.627C84.6075 128.819 82.3597 128.653 81.3308 127.899C80.8813 127.57 81.1468 127.781 80.7847 127.51C79.7438 126.725 74.171 120.271 73.8994 117.109Z" fill="black"/>
</g>
<path d="M54.2391 41.5291L57.0814 40.9648L71.1386 41.1308L78.2804 42.6997L81.0049 82.5814L49.4297 84.0568L54.2391 41.5291Z" fill="#0071CE"/>
<path d="M74.6868 80.7468L75.3596 62.6073L74.2402 41.5742C78.6816 42.7177 84.7553 43.988 88.1195 47.8229C90.3009 50.3121 92.4401 53.4953 93.2487 58.6215C94.178 64.656 95.403 76.1968 96.1694 82.6537" fill="#E7E9EC"/>
<path d="M79.1519 77.7704L57.3223 81.3157L56.5499 67.8347L55.343 41.1836C49.0068 41.4431 41.7957 46.678 39.6323 50.7572C38.1237 53.5874 36.8595 56.8762 36.4642 60.0593C35.7069 66.0938 34.4246 76.4338 33.6582 82.8937C33.4264 84.8569 33.6349 86.8471 34.2685 88.7197C34.9021 90.5923 35.9449 92.3003 37.3211 93.7194C40.4892 96.9871 45.4495 98.1185 49.909 97.1953L83.1467 87.8419L79.1519 77.7704Z" fill="#E7E9EC"/>
<path d="M76.8472 77.5314C76.849 77.5057 76.8541 77.4804 76.8623 77.456C76.8804 77.4017 76.9015 77.3293 76.9256 77.2388C76.989 77.0366 77.0735 76.756 77.1851 76.3969C77.4205 75.6547 77.7554 74.5866 78.1718 73.2651L81.5963 62.572L81.6416 62.6656L78.1024 61.2022L77.9636 61.1449L78.0873 61.0634L78.9049 60.5264L81.5752 58.7824L81.545 58.8669C80.1873 54.154 78.9924 49.9963 78.1325 47.0062C77.7131 45.5217 77.3752 44.3269 77.1368 43.4941C77.0282 43.0868 76.9407 42.77 76.8774 42.5437C76.8512 42.4452 76.8301 42.3637 76.814 42.2993C76.8042 42.2721 76.7981 42.2437 76.7959 42.2148C76.7959 42.2148 76.7959 42.239 76.8261 42.2933L76.9045 42.5377C76.9739 42.761 77.0705 43.0748 77.1912 43.4791L78.2321 46.976L81.6929 58.8246L81.7079 58.879L81.6597 58.9122L78.9924 60.6591L78.1748 61.1932V61.0544L81.711 62.5238L81.7773 62.5509L81.7562 62.6173C80.3623 66.8987 79.1463 70.625 78.2774 73.2952C77.8399 74.6168 77.4929 75.6758 77.2485 76.412C77.1278 76.7681 77.0313 77.0487 76.9649 77.2478C76.9347 77.3353 76.9075 77.4047 76.8894 77.462C76.8781 77.4867 76.8639 77.51 76.8472 77.5314Z" fill="#0071CE"/>
<g opacity="0.2">
<path opacity="0.2" d="M81.6743 58.8906C81.4962 59.545 81.1109 60.124 80.576 60.541C80.1597 60.7794 80.398 61.0962 80.742 61.4281C81.1554 61.8264 81.8191 61.935 82.1239 62.4178C82.4286 62.9005 82.2566 63.4527 82.0997 63.9596C80.5882 68.7686 78.7536 73.4701 76.6084 78.0319L81.6743 62.5928L78.1412 61.1354L81.6743 58.8906Z" fill="black"/>
</g>
<path d="M55.5065 77.9032C55.4916 77.8839 55.4794 77.8626 55.4703 77.8399C55.4492 77.7916 55.419 77.7313 55.3858 77.6528L55.0599 76.9166C54.7763 76.2649 54.372 75.3265 53.8531 74.1559L49.7828 64.6154L49.7587 64.5611L49.81 64.5249L52.6009 62.5275V62.6421L50.7514 61.1758L49.9307 60.5301L49.5233 60.2284L49.4238 60.1469C49.4028 60.132 49.3836 60.1148 49.3664 60.0956C49.347 60.0705 49.3327 60.0418 49.3242 60.0111C49.302 59.9213 49.2908 59.8291 49.291 59.7366C49.3096 59.0614 49.3721 58.3881 49.4781 57.7211C49.6621 56.4146 49.8794 55.1594 50.0815 53.9646C50.51 51.578 50.9354 49.4388 51.2884 47.6285C51.6414 45.8181 51.9582 44.3789 52.1725 43.3772C52.2811 42.8824 52.3686 42.4962 52.4289 42.2216L52.4983 41.9199C52.5035 41.8854 52.5137 41.8519 52.5285 41.8203C52.5268 41.8559 52.5218 41.8913 52.5134 41.9259C52.5134 42.0013 52.4802 42.1009 52.4591 42.2276C52.4048 42.5032 52.3294 42.8894 52.2328 43.3862C52.0337 44.4 51.7501 45.8543 51.4001 47.6466C51.0501 49.4388 50.6397 51.5901 50.2173 53.9827C50.0091 55.1745 49.7949 56.4297 49.6139 57.7331C49.5099 58.3923 49.4484 59.0574 49.4298 59.7245C49.429 59.8018 49.4382 59.8788 49.457 59.9538C49.457 59.99 49.5445 60.0443 49.6078 60.0986L50.0121 60.4185L50.8298 61.0672L52.6763 62.5305L52.7578 62.5969L52.6733 62.6572L49.8794 64.6486L49.9035 64.5551L53.9496 74.1076C54.4414 75.2873 54.8337 76.2196 55.1052 76.8864C55.2349 77.2033 55.3375 77.4507 55.4069 77.6317L55.4793 77.8248C55.4906 77.8501 55.4997 77.8764 55.5065 77.9032Z" fill="#0071CE"/>
<path d="M81.9 64.8126L59.9052 61.4195C59.5083 61.3582 59.1369 61.6303 59.0757 62.0272L54.3318 92.7771C54.2706 93.174 54.5427 93.5453 54.9396 93.6066L76.9344 96.9998C77.3313 97.061 77.7027 96.7889 77.7639 96.392L82.5078 65.6422C82.569 65.2453 82.2969 64.8739 81.9 64.8126Z" fill="#E7E9EC"/>
<g opacity="0.2">
<path opacity="0.2" d="M81.901 64.8126L59.9061 61.4195C59.5093 61.3582 59.1379 61.6303 59.0766 62.0272L54.3328 92.7771C54.2716 93.174 54.5437 93.5453 54.9406 93.6066L76.9354 96.9998C77.3323 97.061 77.7037 96.7889 77.7649 96.392L82.5088 65.6422C82.57 65.2453 82.2979 64.8739 81.901 64.8126Z" fill="black"/>
</g>
<path d="M81.2056 65.4068L60.3887 62.1953L55.7663 92.1579L76.5832 95.3694L81.2056 65.4068Z" fill="#EBEBEB"/>
<path d="M74.9532 64.9158C74.8055 64.4599 74.5341 64.054 74.1691 63.7433C73.8042 63.4327 73.3601 63.2296 72.8864 63.1568L73.0614 61.8745C73.1325 61.41 73.0164 60.9363 72.7387 60.5573C72.461 60.1784 72.0442 59.925 71.58 59.8529C71.115 59.781 70.6406 59.8966 70.2609 60.1744C69.8812 60.4522 69.6275 60.8695 69.5554 61.3344L69.3502 62.6619L68.9037 62.6016C68.4352 62.5365 67.9579 62.6018 67.5241 62.7902C67.0903 62.9786 66.7168 63.2829 66.4446 63.6697L66.0977 64.1525L75.1493 65.5524L74.9532 64.9158ZM71.2118 62.5745C71.0254 62.546 70.8515 62.4628 70.7123 62.3354C70.5731 62.2081 70.4748 62.0423 70.4299 61.8591C70.3849 61.6759 70.3953 61.4834 70.4598 61.3061C70.5243 61.1288 70.6399 60.9746 70.792 60.8631C70.9441 60.7515 71.126 60.6876 71.3144 60.6794C71.5029 60.6712 71.6896 60.7191 71.8508 60.8171C72.0121 60.915 72.1406 61.0586 72.2202 61.2296C72.2999 61.4007 72.3269 61.5915 72.2981 61.7779C72.2586 62.0271 72.1224 62.2506 71.9189 62.3998C71.7155 62.549 71.4614 62.6118 71.2118 62.5745Z" fill="#263238"/>
<path d="M67.4421 67.6385C66.4908 67.5727 65.5439 67.4538 64.6059 67.2825C63.6611 67.1619 62.7234 66.9907 61.7969 66.7695C62.7471 66.8354 63.693 66.9543 64.63 67.1256C65.5759 67.2459 66.5146 67.4171 67.4421 67.6385Z" fill="#263238"/>
<path d="M64.37 68.1387C63.9087 68.1488 63.4479 68.1043 62.9971 68.006C62.5382 67.9617 62.0857 67.8655 61.6484 67.7194C62.1095 67.7129 62.5699 67.7574 63.0213 67.8521C63.4802 67.8964 63.9327 67.9926 64.37 68.1387Z" fill="#263238"/>
<path d="M77.2204 72.8385C77.2204 72.8807 73.6903 72.3708 69.3545 71.704C65.0188 71.0372 61.5098 70.4549 61.5098 70.4126C61.5098 70.3704 65.0369 70.8773 69.3757 71.5471C73.7144 72.2169 77.2265 72.7932 77.2204 72.8385Z" fill="#263238"/>
<path d="M76.987 74.3354C76.987 74.3777 73.4599 73.8708 69.1211 73.201C64.7824 72.5311 61.2764 71.9549 61.2764 71.9126C61.2764 71.8704 64.8035 72.3773 69.1423 73.0471C73.481 73.7169 76.9931 74.2932 76.987 74.3354Z" fill="#263238"/>
<path d="M76.7614 75.8346C76.7614 75.8768 73.2313 75.3669 68.8956 74.7001C64.5598 74.0333 61.0508 73.451 61.0508 73.4087C61.0508 73.3665 64.5809 73.8734 68.9197 74.5432C73.2585 75.213 76.7675 75.7893 76.7614 75.8346Z" fill="#263238"/>
<path d="M76.5281 77.331C76.5281 77.3732 73.0009 76.8663 68.6622 76.1965C64.3234 75.5267 60.8174 74.9504 60.8174 74.9051C60.8174 74.8599 64.3445 75.3728 68.6833 76.0426C73.022 76.7124 76.5462 77.2887 76.5281 77.331Z" fill="#263238"/>
<path d="M76.2947 78.8276C76.2947 78.8729 72.7675 78.363 68.4288 77.6932C64.09 77.0233 60.584 76.447 60.584 76.4048C60.584 76.3626 64.1111 76.8695 68.4499 77.5393C72.7886 78.2091 76.3037 78.7854 76.2947 78.8276Z" fill="#263238"/>
<path d="M76.0652 80.3271C76.0652 80.3693 72.535 79.8624 68.1993 79.1926C63.8635 78.5228 60.3545 77.9465 60.3545 77.9012C60.3545 77.856 63.8816 78.3659 68.2204 79.0357C72.5592 79.7055 76.0712 80.2848 76.0652 80.3271Z" fill="#263238"/>
<path d="M68.0029 80.4657C67.902 80.4708 67.8008 80.4648 67.7012 80.4476C67.499 80.4265 67.2124 80.3903 66.8564 80.342C66.1413 80.2454 65.1577 80.1036 64.0745 79.9377C62.9913 79.7717 62.0107 79.6088 61.3016 79.4851C60.9456 79.4248 60.662 79.3704 60.4629 79.3312C60.3592 79.3189 60.2577 79.2925 60.1611 79.2528C60.2621 79.2458 60.3635 79.2519 60.4629 79.2709C60.665 79.292 60.9516 79.3282 61.3077 79.3765C62.0228 79.47 63.0064 79.6148 64.0896 79.7808C65.1727 79.9467 66.1533 80.1097 66.8624 80.2334C67.2184 80.2937 67.502 80.348 67.7012 80.3872C67.8048 80.3995 67.9064 80.4259 68.0029 80.4657Z" fill="#263238"/>
<path d="M78.4802 69.2017C78.0536 69.2147 77.627 69.1751 77.21 69.084C76.785 69.0455 76.3664 68.9543 75.9639 68.8125C76.8154 68.8391 77.6605 68.9698 78.4802 69.2017Z" fill="#263238"/>
<path d="M63.9279 83.1775C63.239 83.1498 62.5531 83.0701 61.8762 82.9391C61.1913 82.8603 60.5135 82.7292 59.8486 82.5469C60.5376 82.5744 61.2234 82.6541 61.9003 82.7852C62.5851 82.865 63.2628 82.9961 63.9279 83.1775Z" fill="#263238"/>
<path d="M63.8557 84.5606C63.1547 84.5309 62.4568 84.4492 61.7678 84.3162C61.0716 84.2373 60.3825 84.1042 59.707 83.918C60.4071 83.9477 61.104 84.0293 61.7919 84.1624C62.4892 84.2411 63.1792 84.3743 63.8557 84.5606Z" fill="#263238"/>
<path d="M75.7915 84.8004C75.1231 84.8027 74.4584 84.7009 73.8213 84.4986C74.1559 84.4721 74.4927 84.4966 74.82 84.5711C75.1541 84.5943 75.4823 84.6718 75.7915 84.8004Z" fill="#263238"/>
<path d="M75.6695 86.0361C75.001 86.0384 74.3363 85.9366 73.6992 85.7344C74.3676 85.7321 75.0324 85.8339 75.6695 86.0361Z" fill="#263238"/>
<path d="M61.731 85.6942C61.4075 85.7209 61.0819 85.6975 60.7655 85.6249C60.4425 85.6007 60.1256 85.5243 59.8271 85.3986C60.1496 85.3699 60.4746 85.3933 60.7896 85.468C61.1137 85.4911 61.4318 85.5676 61.731 85.6942Z" fill="#263238"/>
<path d="M75.52 87.477C75.278 87.5166 75.0303 87.5053 74.7929 87.4438C74.548 87.4316 74.3084 87.3678 74.0898 87.2567C74.3315 87.2135 74.5797 87.2238 74.817 87.2869C75.0622 87.2993 75.302 87.3641 75.52 87.477Z" fill="#263238"/>
<path d="M59.2021 88.6056C59.3206 88.5951 59.4397 88.5951 59.5582 88.6056L60.5599 88.6358L64.1383 88.7776H64.2198L64.2017 88.856C64.112 89.2439 63.8901 89.5885 63.5741 89.8306C63.4067 89.9644 63.2111 90.0586 63.0021 90.1062C62.7931 90.1537 62.5761 90.1534 62.3672 90.1052C62.1443 90.0535 61.9373 89.9481 61.7643 89.7982C61.5913 89.6484 61.4575 89.4586 61.3745 89.2453C61.2985 89.0161 61.2929 88.7694 61.3585 88.537C61.4241 88.3047 61.5579 88.0973 61.7426 87.9418C61.8782 87.8193 62.042 87.7322 62.2194 87.6884C62.2638 87.6769 62.3093 87.6699 62.3551 87.6673C62.4042 87.6612 62.4539 87.6612 62.503 87.6673C62.536 87.6726 62.5671 87.6859 62.5939 87.7058C62.6207 87.7258 62.6423 87.7519 62.6569 87.7819C62.6768 87.8338 62.6831 87.8899 62.675 87.9448C62.6353 88.2826 62.5231 88.6079 62.3461 88.8983C62.174 89.1764 61.9471 89.4166 61.6793 89.6043C61.4182 89.8002 61.1005 89.906 60.7741 89.906C60.6168 89.895 60.4657 89.8403 60.3378 89.7481C60.2099 89.6559 60.1102 89.5298 60.05 89.3841C59.9345 89.1185 59.9132 88.8215 59.9896 88.5423C60.1683 88.0769 60.4584 87.6625 60.8345 87.3354L60.9159 87.2539V87.3686C60.9642 87.7848 60.8842 88.2059 60.6866 88.5755C60.5397 88.8548 60.3338 89.0988 60.0832 89.2905C59.9271 89.4115 59.753 89.5072 59.5672 89.5741C59.5034 89.5995 59.4364 89.6158 59.3681 89.6224C59.6133 89.533 59.8426 89.4046 60.047 89.2423C60.2798 89.048 60.4698 88.8076 60.6052 88.5362C60.7867 88.1789 60.8551 87.7748 60.8013 87.3776L60.8978 87.4078C60.541 87.728 60.2667 88.1296 60.0983 88.5785C60.0324 88.8285 60.0537 89.0935 60.1586 89.3298C60.2088 89.4511 60.2919 89.5561 60.3985 89.6329C60.5051 89.7096 60.631 89.7551 60.7621 89.7642C61.0503 89.7612 61.3297 89.6649 61.5586 89.4897C61.8137 89.3112 62.0281 89.0807 62.1878 88.8134C62.3474 88.5461 62.4487 88.248 62.4849 87.9388C62.4917 87.9121 62.4917 87.8841 62.4849 87.8574C62.4849 87.8423 62.4849 87.8362 62.4426 87.8302C62.3696 87.8261 62.2963 87.8332 62.2254 87.8513C62.0732 87.8899 61.9325 87.9644 61.8151 88.0686C61.6555 88.2048 61.5397 88.3852 61.4823 88.587C61.4248 88.7889 61.4283 89.0032 61.4922 89.203C61.5648 89.3869 61.6797 89.5512 61.8275 89.6826C61.9753 89.8139 62.1519 89.9087 62.3431 89.9592C62.5343 90.0097 62.7347 90.0145 62.928 89.9733C63.1214 89.9321 63.3024 89.846 63.4564 89.722C63.7482 89.5034 63.9543 89.1896 64.0388 88.8349L64.1021 88.9164L60.5539 88.7082L59.5521 88.6418C59.4348 88.637 59.3179 88.6249 59.2021 88.6056Z" fill="#263238"/>
<path d="M74.1141 90.8539C74.066 90.9224 74.0081 90.9835 73.9421 91.035C73.8648 91.1011 73.7784 91.156 73.6857 91.1979C73.5552 91.2556 73.408 91.2631 73.2723 91.219C73.1867 91.1927 73.1124 91.1386 73.0611 91.0652C73.0102 90.9856 72.9811 90.894 72.9766 90.7996C72.9791 90.6069 72.9932 90.4144 73.0189 90.2233C73.0581 89.813 73.1033 89.3634 73.1516 88.8777L73.2814 88.929L72.1288 90.4889L71.8421 90.8751L71.6551 91.1285L71.7003 90.8268C71.824 90.0212 71.9357 89.2699 72.0352 88.6091L72.1469 88.6695C71.6762 89.0662 71.2593 89.5226 70.9068 90.0272C70.6534 90.3923 70.5327 90.6307 70.5176 90.6126C70.5324 90.5522 70.5557 90.4943 70.587 90.4406C70.6644 90.2843 70.75 90.1323 70.8434 89.985C71.1746 89.456 71.5811 88.9783 72.0503 88.5669L72.1861 88.4492L72.1589 88.6303C72.0684 89.288 71.9598 90.0423 71.8572 90.8509L71.7154 90.7906L72.0171 90.4044C72.4275 89.8552 72.8167 89.3302 73.1788 88.8505L73.3387 88.6333L73.3085 88.9018C73.2512 89.3876 73.1999 89.8371 73.1516 90.2445C73.1234 90.4294 73.1053 90.6157 73.0973 90.8026C73.0924 90.8752 73.1109 90.9475 73.1499 91.0088C73.189 91.0701 73.2467 91.1174 73.3145 91.1436C73.4188 91.1718 73.5284 91.1739 73.6336 91.1497C73.7389 91.1254 73.8365 91.0757 73.918 91.0048C73.9791 90.9492 74.0447 90.8988 74.1141 90.8539Z" fill="#263238"/>
<path d="M74.6453 90.0328C73.6605 90.106 72.6725 90.1271 71.6854 90.0962C70.6989 90.1179 69.7119 90.0877 68.7285 90.0057C69.7122 89.9305 70.6993 89.9084 71.6854 89.9393C72.673 89.9175 73.661 89.9487 74.6453 90.0328Z" fill="#263238"/>
<path d="M75.6074 90.9727C74.827 91.1351 74.0368 91.247 73.2419 91.3076C72.4531 91.4186 71.6579 91.4791 70.8613 91.4886C71.6411 91.3218 72.4315 91.2089 73.2268 91.1507C74.0154 91.0377 74.8108 90.9782 75.6074 90.9727Z" fill="#263238"/>
<g opacity="0.2">
<path opacity="0.2" d="M49.3693 59.9062C49.333 60.8114 49.5774 61.7347 50.3317 62.2446C49.3874 62.7032 48.8835 63.8015 48.8533 64.8515C48.8231 65.9015 49.1882 66.9213 49.5835 67.8959C50.8055 70.892 53.4123 75.11 55.4007 77.6626C55.4007 77.6626 54.3929 74.9471 54.1033 74.3105C52.7938 71.4471 51.6382 68.5777 50.3257 65.7053C50.1809 65.4036 49.9214 64.5226 49.9214 64.5226C50.0643 64.4522 50.1963 64.3618 50.3136 64.2541C51.0498 63.6506 52.646 62.5916 52.646 62.5916C52.646 62.5916 49.3693 59.9968 49.3693 59.9062Z" fill="black"/>
</g>
<path d="M49.3223 66.0625C49.3646 66.0625 49.2891 69.5474 49.1504 73.8409C49.0116 78.1344 48.8667 81.6163 48.8245 81.6133C48.7823 81.6102 48.8547 78.1314 48.9935 73.8349C49.1322 69.5383 49.2771 66.0595 49.3223 66.0625Z" fill="#263238"/>
<path d="M54.5195 56.9104H54.2178C54.2178 56.7958 54.6553 45.3816 54.9962 40.8377C55.0074 40.5188 55.0835 40.2055 55.2199 39.917C55.3564 39.6286 55.5503 39.371 55.7897 39.1601C56.7311 38.3545 58.1402 38.4601 58.2035 38.4631L58.1794 38.7649C58.1643 38.7649 56.8337 38.6683 55.9889 39.3894C55.7803 39.5755 55.6115 39.8018 55.4927 40.0549C55.374 40.308 55.3077 40.5825 55.2979 40.8618C54.966 45.3726 54.5346 56.7837 54.5195 56.9104Z" fill="#263238"/>
<path d="M57.3475 76.0044H56.8135V75.401H57.3475C57.9077 75.401 58.4449 75.1784 58.841 74.7824C59.2371 74.3863 59.4596 73.8491 59.4596 73.2889V66.8984H60.063V73.2889C60.063 74.0091 59.7769 74.6998 59.2677 75.2091C58.7584 75.7183 58.0677 76.0044 57.3475 76.0044Z" fill="#455A64"/>
<path d="M57.5658 75.7746C57.5532 75.9023 57.5031 76.0234 57.4217 76.1226C57.3404 76.2218 57.2314 76.2946 57.1087 76.3319C56.9859 76.3692 56.8549 76.3692 56.7321 76.332C56.6093 76.2948 56.5003 76.2221 56.4189 76.1229C56.3375 76.0238 56.2873 75.9027 56.2746 75.775C56.262 75.6474 56.2875 75.5188 56.348 75.4056C56.4084 75.2925 56.501 75.1998 56.6141 75.1392C56.7272 75.0787 56.8558 75.0531 56.9835 75.0656C57.1544 75.0831 57.3115 75.1675 57.4205 75.3003C57.5296 75.4331 57.5818 75.6035 57.5658 75.7746Z" fill="#263238"/>
<path d="M52.1265 75.9888H51.5925C50.8723 75.9888 50.1816 75.7027 49.6723 75.1934C49.163 74.6842 48.877 73.9935 48.877 73.2733L48.9011 66.8828H49.5045L49.4804 73.2733C49.4804 73.8334 49.7029 74.3707 50.099 74.7667C50.4951 75.1628 51.0323 75.3853 51.5925 75.3853H52.1265V75.9888Z" fill="#455A64"/>
<path d="M51.3791 75.7557C51.3916 75.8827 51.4414 76.0031 51.5222 76.1018C51.6031 76.2005 51.7114 76.273 51.8334 76.3102C51.9555 76.3474 52.0858 76.3476 52.2079 76.3108C52.3301 76.274 52.4386 76.2018 52.5198 76.1034C52.601 76.005 52.6512 75.8847 52.664 75.7578C52.6769 75.6309 52.6519 75.503 52.5922 75.3902C52.5325 75.2775 52.4407 75.185 52.3284 75.1244C52.2161 75.0638 52.0884 75.0378 51.9614 75.0497C51.8767 75.0576 51.7945 75.0822 51.7193 75.122C51.6442 75.1618 51.5777 75.2161 51.5235 75.2817C51.4694 75.3473 51.4288 75.423 51.404 75.5043C51.3792 75.5857 51.3708 75.6711 51.3791 75.7557Z" fill="#263238"/>
<path d="M48.7238 67.6177L48.6484 63.0617C48.5911 59.5889 51.1286 56.7255 54.3057 56.6682C55.0795 56.6613 55.8461 56.8173 56.5557 57.1261C57.2652 57.4349 57.9019 57.8895 58.4242 58.4604C59.5343 59.6615 60.1572 61.2331 60.1712 62.8686L60.2466 67.4276L59.3414 67.4427L59.266 62.8837C59.255 61.4717 58.717 60.1148 57.7574 59.0789C57.3227 58.5986 56.7911 58.2158 56.1977 57.9558C55.6043 57.6957 54.9626 57.5644 54.3148 57.5703C51.6355 57.6156 49.4872 60.0686 49.5475 63.0436L49.623 67.5996L48.7238 67.6177Z" fill="#263238"/>
<path d="M74.4953 57.0784C74.4953 56.9577 73.1104 45.097 72.7121 41.2953L72.6849 41.0178C72.5612 39.7264 72.4164 38.2661 70.9893 37.8798L71.0677 37.5781C72.697 38.0186 72.8569 39.66 72.9867 40.9785L73.0138 41.2531C73.4091 45.0548 74.7819 56.9155 74.794 57.0362L74.4953 57.0784Z" fill="#263238"/>
<path d="M76.938 57.3361C78.2024 56.0718 78.2024 54.0219 76.938 52.7576C75.6737 51.4933 73.6239 51.4933 72.3596 52.7576C71.0952 54.022 71.0952 56.0718 72.3596 57.3361C73.6239 58.6004 75.6737 58.6004 76.938 57.3361Z" fill="#263238"/>
<path d="M76.211 55.0464C76.211 55.3563 76.1191 55.6591 75.9469 55.9167C75.7747 56.1743 75.5299 56.375 75.2436 56.4934C74.9573 56.6119 74.6423 56.6427 74.3384 56.582C74.0346 56.5214 73.7556 56.3719 73.5367 56.1526C73.3178 55.9333 73.1689 55.654 73.1088 55.3501C73.0487 55.0461 73.0802 54.7311 73.1992 54.4451C73.3181 54.159 73.5193 53.9146 73.7773 53.7429C74.0352 53.5712 74.3382 53.4799 74.6481 53.4805C74.8536 53.4805 75.057 53.521 75.2469 53.5997C75.4367 53.6785 75.6091 53.7939 75.7543 53.9393C75.8994 54.0848 76.0145 54.2574 76.0929 54.4474C76.1712 54.6373 76.2114 54.8409 76.211 55.0464Z" fill="#455A64"/>
<path d="M55.5056 77.9023L51.4414 87.8984L83.8614 96.8867C85.3435 97.2996 86.8987 97.3785 88.415 97.1176C89.9312 96.8567 91.3707 96.2626 92.6295 95.3781C96.0208 92.9854 96.8536 88.8006 96.4402 84.6579L95.8549 80.2528L55.5056 77.9023Z" fill="#E7E9EC"/>
<path d="M89.8538 88.7559C89.8206 88.7559 89.7512 88.074 89.4163 87.021C89.3304 86.7334 89.2297 86.4504 89.1146 86.1731C89 85.8714 88.84 85.5697 88.6801 85.2317C88.308 84.5332 87.8706 83.8715 87.3737 83.2555C86.8678 82.6472 86.3062 82.0876 85.6961 81.5839C85.3944 81.3637 85.1349 81.1434 84.8603 80.9805C84.6122 80.8094 84.3554 80.6513 84.0909 80.5068C83.1254 79.9727 82.4647 79.7676 82.4767 79.7344C82.6348 79.7667 82.7894 79.8142 82.9384 79.8762C83.1185 79.9346 83.2948 80.0041 83.4664 80.0844C83.6685 80.1779 83.9039 80.2714 84.1452 80.4102C84.4163 80.549 84.6792 80.7031 84.9327 80.8719C85.2133 81.0408 85.4909 81.2611 85.7866 81.4753C86.4105 81.9793 86.9835 82.5432 87.4974 83.1589C87.9996 83.7835 88.4383 84.4567 88.8069 85.1684C88.9668 85.5033 89.1237 85.8171 89.2353 86.1279C89.3524 86.4095 89.4531 86.6976 89.537 86.9908C89.6129 87.2303 89.6743 87.4741 89.7211 87.721C89.769 87.9082 89.8023 88.0988 89.8206 88.2912C89.8458 88.4448 89.8569 88.6003 89.8538 88.7559Z" fill="#263238"/>
<g opacity="0.2">
<path opacity="0.2" d="M50.7177 82.1608C48.2436 82.3659 46.3337 82.5922 43.7781 82.906C42.182 83.1021 40.5255 82.9905 40.0036 81.4728C39.4816 79.9552 39.8135 78.2173 40.6704 76.8565C41.5273 75.4957 42.8729 72.3307 50.0781 74.7444L50.7177 82.1608Z" fill="black"/>
</g>
<path d="M54.0547 81.7218L54.0728 81.6554L54.1422 81.4563L54.4137 80.6959L55.4547 77.8869L55.4698 77.8477H55.509L66.5369 78.8464L77.2058 79.8601L80.4373 80.183L81.3153 80.2795L81.5416 80.3097C81.5684 80.3104 81.5949 80.3155 81.62 80.3248H81.5416H81.3123L80.4312 80.2584L77.1938 79.9808L66.5218 79.0153L55.4999 77.9683L55.5542 77.9321L54.468 80.7261L54.1663 81.4744L54.0849 81.6675C54.0698 81.7037 54.0577 81.7248 54.0547 81.7218Z" fill="#263238"/>
<g opacity="0.2">
<path opacity="0.2" d="M67.3936 92.0322C71.9978 93.2662 74.7978 92.5511 78.9797 90.2641C79.8364 89.7618 80.6588 89.2034 81.4417 88.5925C82.038 88.105 82.5684 87.5421 83.0197 86.918C77.634 88.9787 73.1595 90.5386 67.6078 92.0895" fill="black"/>
</g>
<path d="M54.0711 81.6119L55.1241 78.6701L52.6771 74.8443C52.4653 74.5127 52.188 74.228 51.8621 74.0075C51.5363 73.787 51.1688 73.6354 50.7823 73.562L41.7789 71.8633C41.6669 72.2004 41.6825 72.5669 41.8226 72.8933C41.9627 73.2197 42.2177 73.4834 42.5392 73.6344C43.719 74.3072 49.0263 75.5413 49.0263 75.5413L40.8526 75.4025C40.8526 75.4025 40.5992 76.5822 41.5255 77.0046C42.4517 77.427 48.275 77.6413 48.275 77.6413L40.8194 78.6913C40.8194 78.6913 40.7772 79.874 42.4819 79.8981C44.1608 79.8781 45.8375 79.7724 47.5056 79.5813C47.5746 79.5717 47.6447 79.5893 47.701 79.6304C47.7573 79.6715 47.7955 79.7329 47.8073 79.8016C47.8175 79.8681 47.8024 79.9359 47.765 79.9918C47.7275 80.0477 47.6705 80.0875 47.6052 80.1033L42.6479 81.274C42.505 81.3062 42.3768 81.3847 42.2833 81.4973C42.1897 81.6099 42.1359 81.7503 42.1304 81.8966C42.1249 82.0429 42.1679 82.1869 42.2528 82.3062C42.3377 82.4256 42.4596 82.5135 42.5996 82.5563C42.6894 82.5779 42.7823 82.5841 42.8742 82.5744C43.719 82.4899 48.7638 81.8503 48.7638 81.8503L49.0263 82.4386L54.0711 81.618" fill="#B78876"/>
<path d="M50.3679 80.7062C50.2993 80.5437 50.2056 80.393 50.0903 80.2597C49.957 80.1234 49.7937 80.0201 49.6136 79.9579C49.391 79.8899 49.1577 79.8643 48.9256 79.8825C48.4248 79.9187 47.9722 80.0635 47.6343 80.1058C47.4519 80.1501 47.2615 80.1501 47.0791 80.1058C47.2547 80.0561 47.433 80.0168 47.6132 79.9881C48.0395 79.8621 48.4754 79.7712 48.9166 79.7165C49.17 79.6967 49.4248 79.7296 49.6649 79.8131C49.8603 79.8888 50.0343 80.011 50.1718 80.1691C50.2441 80.2372 50.2994 80.3212 50.3335 80.4144C50.3676 80.5077 50.3793 80.6076 50.3679 80.7062Z" fill="#AA6550"/>
<path d="M51.1822 78.4617C51.1671 78.4617 51.1581 78.3802 51.0917 78.2505C50.9937 78.0704 50.8446 77.9235 50.6632 77.828C50.2076 77.5625 49.4383 77.65 48.6296 77.7043C47.821 77.7587 47.0788 77.8793 46.5447 77.9487C46.2582 78.003 45.9674 78.0323 45.6758 78.0362C45.9522 77.9428 46.2372 77.8771 46.5266 77.8401C47.2171 77.7045 47.914 77.6038 48.6146 77.5384C49.0017 77.5032 49.3905 77.4881 49.7792 77.4931C50.1068 77.4852 50.4306 77.5644 50.7176 77.7224C50.9117 77.8348 51.0626 78.009 51.146 78.2173C51.1837 78.2928 51.1964 78.3784 51.1822 78.4617Z" fill="#AA6550"/>
<path d="M51.8034 77.1598C51.7965 76.9205 51.7312 76.6864 51.6133 76.4779C51.4788 76.2597 51.2922 76.0782 51.0702 75.9499C50.7889 75.8028 50.4813 75.7125 50.1651 75.6844C49.4892 75.621 48.8556 75.6844 48.394 75.6482C48.1431 75.6479 47.8959 75.5879 47.6729 75.4732C47.6729 75.4491 47.9504 75.5305 48.4 75.5396C48.8496 75.5486 49.4741 75.4642 50.1832 75.5396C50.5205 75.5676 50.8473 75.6706 51.1396 75.8413C51.3797 75.9875 51.5757 76.1961 51.7069 76.4447C51.7979 76.609 51.8447 76.794 51.8427 76.9818C51.8366 77.0934 51.8034 77.1598 51.8034 77.1598Z" fill="#AA6550"/>
<path d="M81.0332 77.1496C81.0339 76.9856 81.049 76.8221 81.0785 76.6608C81.1177 76.3591 81.1931 75.8944 81.2987 75.3393C81.5069 74.2289 81.875 72.7113 82.2642 71.0367C82.6084 69.6105 82.8713 68.166 83.0517 66.71C83.0879 66.4294 83.103 66.176 83.1241 65.9527C83.1453 65.7294 83.1573 65.5393 83.1634 65.3794C83.1619 65.2155 83.176 65.0518 83.2056 64.8906C83.2251 65.0538 83.2312 65.2183 83.2237 65.3824C83.2237 65.5393 83.2237 65.7354 83.2237 65.9587C83.2237 66.182 83.2056 66.4385 83.1724 66.7191C83.0257 68.1857 82.7777 69.6405 82.4302 71.0729C82.0379 72.7505 81.6548 74.2591 81.4194 75.3634C81.3017 75.9125 81.2082 76.3621 81.1509 76.6699C81.1247 76.8327 81.0854 76.9931 81.0332 77.1496Z" fill="#263238"/>
<path d="M84.1593 96.9419C84.0988 96.9409 84.0388 96.9307 83.9813 96.9118L83.4804 96.8001L81.6459 96.3475C80.0981 95.9583 77.9649 95.3941 75.6115 94.7424C73.2581 94.0907 71.149 93.4661 69.6253 92.9984L67.815 92.4372L67.3262 92.2743C67.2788 92.2582 67.2332 92.237 67.1904 92.2109C67.2501 92.215 67.309 92.2271 67.3654 92.2471L67.8633 92.3799L69.6736 92.8958L75.6718 94.5945L81.6731 96.2419L83.4834 96.7398L83.9783 96.8816C84.0406 96.8953 84.1012 96.9155 84.1593 96.9419Z" fill="#263238"/>
<path d="M53.1035 9.42971C53.7673 7.38102 57.1677 5.53146 59.0324 4.45733C61.8233 2.85519 64.409 3.17501 66.0021 4.60216C68.8806 2.18838 72.6732 -0.134879 76.309 0.815546C79.9447 1.76597 82.8986 5.48922 82.2348 9.19135C81.8456 11.3728 80.3339 13.328 80.4245 15.5275C80.4848 17.0361 81.2844 18.3999 81.9331 19.7697C82.5818 21.1395 83.0585 22.7326 82.4913 24.1326C81.9632 25.4331 80.6447 26.2447 79.9357 27.4516C79.3564 28.4412 79.2236 29.6179 78.8525 30.7011C77.4827 34.714 72.7456 36.9649 68.5638 36.2588C64.3819 35.5528 60.897 32.4058 58.9086 28.6524C56.9203 24.899 56.2807 20.5904 56.0513 16.3573" fill="#263238"/>
<path d="M56.1826 12.2545L57.0184 45.7155C57.3201 49.5504 60.8533 52.3534 64.9567 51.9973C69.0993 51.6413 72.2644 48.2107 72.026 44.3306C71.7756 40.2604 71.5886 35.9669 71.5886 35.9669C71.5886 35.9669 76.7751 34.76 77.4208 27.8445C77.7497 24.3023 77.1764 18.4911 76.576 13.8868C76.4583 12.9689 76.1561 12.0842 75.6876 11.2861C75.219 10.488 74.5939 9.79293 73.8497 9.24271C73.1056 8.69249 72.2578 8.29851 71.3575 8.08447C70.4571 7.87042 69.5227 7.84074 68.6106 7.99721" fill="#B78876"/>
<path d="M75.0384 18.8356C75.056 19.064 74.9834 19.2902 74.8362 19.4656C74.689 19.641 74.4788 19.7518 74.2509 19.774C74.1399 19.7905 74.0267 19.7846 73.9181 19.7566C73.8094 19.7286 73.7075 19.6791 73.6183 19.6111C73.5291 19.543 73.4545 19.4577 73.3989 19.3603C73.3432 19.2628 73.3077 19.1552 73.2944 19.0438C73.2775 18.8153 73.3502 18.5892 73.4973 18.4134C73.6443 18.2377 73.854 18.1261 74.0819 18.1024C74.193 18.0863 74.3063 18.0927 74.4149 18.121C74.5236 18.1493 74.6255 18.1991 74.7146 18.2675C74.8038 18.3358 74.8783 18.4212 74.9339 18.5188C74.9895 18.6164 75.025 18.7241 75.0384 18.8356Z" fill="#263238"/>
<path d="M75.9087 17.9408C75.8061 18.0615 75.1091 17.6119 74.1647 17.6753C73.2204 17.7386 72.5596 18.2546 72.451 18.1459C72.3967 18.0977 72.4932 17.8865 72.7798 17.6451C73.1708 17.335 73.6483 17.1537 74.1466 17.1261C74.6369 17.0938 75.1248 17.2174 75.5406 17.4791C75.8453 17.6873 75.957 17.8835 75.9087 17.9408Z" fill="#263238"/>
<path d="M65.9856 19.7809C66.0041 20.0098 65.9319 20.2367 65.7846 20.4128C65.6373 20.5889 65.4266 20.7001 65.1981 20.7223C65.087 20.7384 64.9737 20.7321 64.8651 20.7037C64.7564 20.6754 64.6545 20.6256 64.5654 20.5573C64.4763 20.489 64.4017 20.4035 64.3461 20.3059C64.2905 20.2083 64.255 20.1006 64.2417 19.9891C64.2247 19.7606 64.2975 19.5345 64.4445 19.3588C64.5915 19.183 64.8013 19.0714 65.0292 19.0477C65.1403 19.0317 65.2535 19.038 65.3622 19.0663C65.4709 19.0947 65.5728 19.1444 65.6619 19.2128C65.751 19.2811 65.8256 19.3666 65.8812 19.4641C65.9368 19.5617 65.9723 19.6694 65.9856 19.7809Z" fill="#263238"/>
<path d="M66.6372 18.7181C66.5346 18.8388 65.8376 18.3892 64.8932 18.4526C63.9489 18.516 63.2881 19.0319 63.1795 18.9233C63.1252 18.875 63.2217 18.6638 63.5114 18.4224C63.9015 18.1129 64.3779 17.9316 64.8751 17.9035C65.3654 17.8712 65.8533 17.9947 66.2691 18.2565C66.5889 18.4617 66.6855 18.6608 66.6372 18.7181Z" fill="#263238"/>
<path d="M70.5095 25.4957C70.5095 25.4444 71.0797 25.3056 72.0181 25.1216C72.2564 25.0824 72.4827 25.019 72.5129 24.85C72.5171 24.5999 72.4444 24.3545 72.3047 24.147C72.0422 23.5768 71.7646 22.9824 71.475 22.3578C70.3164 19.8053 69.4595 17.7023 69.562 17.657C69.6646 17.6117 70.6875 19.6423 71.8491 22.1828C72.1267 22.8104 72.3952 23.4108 72.6487 23.9932C72.821 24.2736 72.8874 24.6064 72.8357 24.9315C72.8063 25.0188 72.7572 25.0981 72.6924 25.1635C72.6275 25.2288 72.5486 25.2785 72.4616 25.3087C72.3312 25.3542 72.1952 25.3816 72.0573 25.3901C71.1129 25.5078 70.5095 25.55 70.5095 25.4957Z" fill="#263238"/>
<path d="M71.5898 35.958C68.3705 36.2154 65.143 35.5741 62.2666 34.1055C62.2666 34.1055 64.8584 38.7128 71.6652 37.6296L71.5898 35.958Z" fill="#AA6550"/>
<path d="M66.6432 14.9991C66.5647 15.2616 65.6143 15.2012 64.516 15.4064C63.4178 15.6116 62.5397 15.9706 62.3768 15.7504C62.3044 15.6448 62.4462 15.3913 62.7902 15.1198C63.2497 14.7797 63.7832 14.5532 64.3471 14.459C64.9104 14.3552 65.4901 14.3852 66.0397 14.5465C66.4561 14.6853 66.6733 14.8754 66.6432 14.9991Z" fill="#263238"/>
<path d="M75.3847 15.228C75.2339 15.4543 74.5671 15.2733 73.7856 15.3125C73.0041 15.3517 72.3494 15.5508 72.1835 15.3366C72.108 15.231 72.1835 15.0108 72.4852 14.7875C72.8583 14.5192 73.3028 14.3678 73.7622 14.3528C74.2215 14.3378 74.675 14.4597 75.0649 14.703C75.3395 14.9052 75.4511 15.1194 75.3847 15.228Z" fill="#263238"/>
<path d="M69.0506 27.2717C69.7898 27.2717 70.1579 27.4889 70.7855 27.8751C70.9745 27.9747 71.1299 28.128 71.232 28.3156C71.2803 28.4504 71.297 28.5946 71.2807 28.7368C71.2645 28.8791 71.2158 29.0158 71.1385 29.1363C70.9842 29.4103 70.7548 29.6346 70.4774 29.7826C70.2 29.9307 69.8861 29.9964 69.5725 29.9721C69.26 29.9392 68.9656 29.8097 68.7303 29.6014C68.495 29.3932 68.3306 29.1166 68.26 28.8104C68.2016 28.5017 68.2476 28.1823 68.3907 27.9026C68.5338 27.6229 68.766 27.3988 69.0506 27.2656" fill="#AA6550"/>
<path d="M71.5585 28.8508C71.5585 28.9232 71.3231 29.0318 70.9098 29.0077C70.3871 28.9592 69.8819 28.7942 69.4314 28.5249C68.9769 28.272 68.5745 27.9352 68.2456 27.5323C68.0012 27.2305 67.9258 26.965 67.9891 26.9288C68.1128 26.8474 68.7344 27.4991 69.712 28.0361C70.1163 28.2695 70.5415 28.4644 70.9822 28.6185C71.3201 28.7331 71.5494 28.7723 71.5585 28.8508Z" fill="#263238"/>
<path d="M66.8961 22.9621C67.0345 22.9621 67.1467 22.8499 67.1467 22.7115C67.1467 22.5731 67.0345 22.4609 66.8961 22.4609C66.7577 22.4609 66.6455 22.5731 66.6455 22.7115C66.6455 22.8499 66.7577 22.9621 66.8961 22.9621Z" fill="#AA6550"/>
<path d="M74.2385 21.481C74.2385 21.5306 74.2238 21.5791 74.1962 21.6203C74.1687 21.6615 74.1296 21.6936 74.0838 21.7125C74.038 21.7315 73.9876 21.7365 73.939 21.7268C73.8904 21.7171 73.8457 21.6933 73.8107 21.6582C73.7757 21.6232 73.7518 21.5785 73.7421 21.5299C73.7325 21.4813 73.7374 21.4309 73.7564 21.3852C73.7753 21.3394 73.8075 21.3002 73.8487 21.2727C73.8899 21.2452 73.9383 21.2305 73.9879 21.2305C74.0543 21.2305 74.1181 21.2569 74.1651 21.3039C74.2121 21.3509 74.2385 21.4146 74.2385 21.481Z" fill="#AA6550"/>
<path d="M75.6229 22.1361C75.6268 22.1715 75.6231 22.2074 75.6122 22.2413C75.6013 22.2752 75.5834 22.3065 75.5596 22.333C75.5358 22.3596 75.5067 22.3808 75.4742 22.3953C75.4417 22.4098 75.4064 22.4173 75.3708 22.4173C75.3352 22.4173 75.2999 22.4098 75.2674 22.3953C75.2348 22.3808 75.2057 22.3596 75.182 22.333C75.1582 22.3065 75.1402 22.2752 75.1293 22.2413C75.1184 22.2074 75.1148 22.1715 75.1187 22.1361C75.1255 22.074 75.155 22.0166 75.2015 21.9749C75.248 21.9332 75.3083 21.9102 75.3708 21.9102C75.4333 21.9102 75.4935 21.9332 75.5401 21.9749C75.5866 22.0166 75.6161 22.074 75.6229 22.1361Z" fill="#AA6550"/>
<path d="M76.0431 21.0865C76.0431 21.1361 76.0285 21.1845 76.0009 21.2257C75.9734 21.2669 75.9342 21.299 75.8885 21.318C75.8427 21.337 75.7923 21.3419 75.7437 21.3323C75.6951 21.3226 75.6504 21.2987 75.6154 21.2637C75.5803 21.2287 75.5565 21.184 75.5468 21.1354C75.5371 21.0868 75.5421 21.0364 75.5611 20.9906C75.58 20.9448 75.6122 20.9057 75.6534 20.8782C75.6946 20.8506 75.743 20.8359 75.7926 20.8359C75.859 20.8359 75.9228 20.8623 75.9697 20.9093C76.0167 20.9563 76.0431 21.0201 76.0431 21.0865Z" fill="#AA6550"/>
<path d="M66.0003 23.817C66.0009 23.8673 65.9866 23.9166 65.9591 23.9587C65.9316 24.0008 65.8922 24.0338 65.8459 24.0534C65.7996 24.0731 65.7485 24.0785 65.6991 24.0691C65.6498 24.0596 65.6043 24.0357 65.5685 24.0004C65.5327 23.965 65.5083 23.9199 65.4983 23.8706C65.4882 23.8213 65.4931 23.7702 65.5122 23.7237C65.5313 23.6771 65.5638 23.6374 65.6055 23.6094C65.6473 23.5814 65.6965 23.5664 65.7467 23.5664C65.8135 23.5664 65.8775 23.5927 65.925 23.6396C65.9725 23.6865 65.9995 23.7502 66.0003 23.817Z" fill="#AA6550"/>
<path d="M65.0597 22.817C65.0597 22.8665 65.045 22.915 65.0175 22.9562C64.99 22.9974 64.9508 23.0295 64.9051 23.0485C64.8593 23.0675 64.8089 23.0724 64.7603 23.0627C64.7117 23.0531 64.667 23.0292 64.632 22.9942C64.5969 22.9591 64.5731 22.9145 64.5634 22.8659C64.5537 22.8173 64.5587 22.7669 64.5777 22.7211C64.5966 22.6753 64.6287 22.6362 64.67 22.6086C64.7112 22.5811 64.7596 22.5664 64.8092 22.5664C64.8756 22.5664 64.9394 22.5928 64.9864 22.6398C65.0333 22.6868 65.0597 22.7505 65.0597 22.817Z" fill="#AA6550"/>
<path d="M68.295 7.02077C67.6915 12.4729 63.6364 17.3819 58.4045 19.0353C60.0911 21.4672 59.0291 26.0956 59.0713 29.9577C59.1135 33.5482 59.1105 34.574 56.7843 36.4055C54.8623 36.8671 53.767 31.6021 52.3248 30.1297C50.8826 28.6573 49.5278 26.8439 49.6334 24.7982C49.6847 23.8388 50.0589 22.9215 50.1102 21.9651C50.1705 20.903 49.8296 19.853 49.6425 18.8181C48.8097 14.1867 51.1994 9.20524 55.2455 6.78241C59.2916 4.35958 64.6652 4.52251 68.6691 6.99965" fill="#263238"/>
<path d="M56.7499 29.4361C56.2485 27.6749 55.3864 26.0371 54.2185 24.6267L54.306 24.8138C53.9452 23.9909 53.4019 23.261 52.7173 22.6792C52.0327 22.0974 51.2246 21.6789 50.3544 21.4555C49.4842 21.2321 48.5745 21.2097 47.6943 21.3898C46.8141 21.5699 45.9864 21.9479 45.2739 22.4952C44.5614 23.0425 43.9827 23.7448 43.5817 24.5487C43.1807 25.3527 42.9678 26.2374 42.9593 27.1358C42.9507 28.0342 43.1466 28.9228 43.5322 29.7343C43.9178 30.5458 44.483 31.259 45.1849 31.8197C44.5061 31.6689 43.8181 32.2542 43.6763 32.9331C43.6237 33.2784 43.6417 33.6309 43.7294 33.969C43.817 34.3072 43.9725 34.624 44.1862 34.9003C45.6013 36.9701 48.8086 37.5163 50.8241 36.0318C52.4232 37.115 54.7857 36.4844 55.9715 34.9607C57.1573 33.437 57.2961 31.2887 56.7499 29.4361Z" fill="#263238"/>
<path d="M50.2715 21.4489C50.2087 21.3897 50.1511 21.3251 50.0996 21.2558C49.9591 21.0538 49.8569 20.8278 49.7978 20.589C49.6138 19.9645 49.7013 18.9778 50.1961 17.9339C50.465 17.3623 50.835 16.8441 51.2883 16.4041C51.7848 15.882 52.335 15.4138 52.9297 15.0072C53.5877 14.5538 54.3057 14.1944 55.0629 13.9391C55.8443 13.6705 56.6741 13.4623 57.5189 13.2511C58.3637 13.0399 59.1904 12.8317 59.9628 12.5602C60.7075 12.3036 61.4309 11.9888 62.1262 11.6188C63.3024 10.9926 64.396 10.2223 65.3818 9.32574C66.0463 8.71824 66.6598 8.05726 67.2162 7.34946C67.4154 7.09903 67.5602 6.89687 67.6598 6.74601C67.7068 6.67485 67.7604 6.60819 67.8197 6.54688C67.7805 6.62227 67.7362 6.69486 67.6869 6.76411C67.5934 6.90592 67.4576 7.11411 67.2645 7.36756C66.7234 8.09475 66.1175 8.77137 65.4542 9.3891C64.4675 10.3048 63.3684 11.0916 62.1835 11.7305C61.4826 12.106 60.7532 12.4258 60.0021 12.6869C59.2206 12.9615 58.3909 13.1727 57.5461 13.3869C56.7012 13.6011 55.8745 13.8033 55.0991 14.0658C54.3508 14.3147 53.6402 14.6649 52.987 15.1067C52.3993 15.5074 51.8534 15.9664 51.3577 16.4765C50.9162 16.9128 50.5564 17.4248 50.2957 17.9882C49.7978 19.005 49.6922 19.9675 49.8582 20.58C49.9351 20.8949 50.0757 21.1906 50.2715 21.4489Z" fill="#455A64"/>
<path d="M67.8139 6.5625C67.7707 6.62301 67.7233 6.68047 67.6721 6.73448C67.5756 6.84612 67.4277 7.00301 67.2376 7.20517C66.6903 7.76836 66.1089 8.29737 65.4967 8.78921C64.5913 9.53352 63.5832 10.1432 62.5036 10.5995C61.8554 10.8391 61.1869 11.0198 60.5062 11.1396C59.8032 11.2814 59.07 11.3901 58.3218 11.5047C56.912 11.6732 55.5198 11.965 54.161 12.3767C53.0586 12.7365 52.0346 13.3028 51.1438 14.0452C50.5449 14.5473 50.0507 15.1625 49.6895 15.8555C49.5954 16.0459 49.5118 16.2414 49.4391 16.4409C49.4177 16.5124 49.3884 16.5812 49.3516 16.6461C49.3656 16.5734 49.3848 16.5018 49.4089 16.4318C49.4691 16.2253 49.5448 16.0236 49.6352 15.8284C49.9804 15.1146 50.4693 14.4798 51.0714 13.9637C51.963 13.1987 52.9949 12.6146 54.1097 12.2439C55.4738 11.8178 56.8734 11.5148 58.2916 11.3388C59.0429 11.2271 59.773 11.1155 60.47 10.9797C61.1429 10.8632 61.8043 10.6875 62.4463 10.4547C63.5154 10.0105 64.5168 9.41834 65.4213 8.69567C66.0386 8.2157 66.6298 7.70304 67.1924 7.15991L67.648 6.71336C67.6981 6.65762 67.7537 6.60707 67.8139 6.5625Z" fill="#455A64"/>
<path d="M75.4747 0.594394C75.4747 0.627583 74.8863 0.648704 73.9661 0.896116C73.7166 0.961068 73.4708 1.03963 73.2299 1.13146C72.9674 1.21896 72.7019 1.3487 72.4152 1.47542C71.1949 2.06471 70.121 2.91807 69.2713 3.97368C69.0842 4.22411 68.8972 4.45342 68.7523 4.69178C68.608 4.90426 68.476 5.12488 68.3571 5.35255C67.9135 6.18531 67.7536 6.75858 67.7295 6.74651C67.7495 6.61051 67.7839 6.477 67.8321 6.34824C67.8755 6.19171 67.9299 6.03846 67.995 5.88962C68.0715 5.68341 68.1602 5.48191 68.2605 5.28617C68.3731 5.05069 68.5011 4.8229 68.6437 4.60428C68.7855 4.3629 68.9696 4.12454 69.1566 3.86808C69.5883 3.33306 70.0747 2.84463 70.6079 2.41076C71.1502 1.98961 71.7358 1.62751 72.3549 1.3306C72.6259 1.20321 72.9039 1.09139 73.1876 0.995685C73.6365 0.838205 74.0992 0.723049 74.5695 0.651722C74.7288 0.620837 74.8902 0.601676 75.0523 0.594394C75.1926 0.57791 75.3344 0.57791 75.4747 0.594394Z" fill="#455A64"/>
<path d="M80.3348 26.6472C80.3348 26.6472 80.3348 26.6261 80.3801 26.5869L80.5219 26.4209C80.6486 26.2731 80.8387 26.0589 81.0529 25.7602C81.3226 25.4082 81.527 25.0106 81.6564 24.5865C81.7299 24.3226 81.7514 24.0469 81.7197 23.7748C81.677 23.4711 81.5744 23.1788 81.418 22.9149C81.0921 22.3507 80.5581 21.8589 80.0693 21.2494C78.9702 19.8741 78.2643 18.2267 78.0267 16.4822C77.9295 15.5048 77.9053 14.5215 77.9542 13.5404C78.0028 12.5681 77.9124 11.5937 77.6857 10.6469C77.4445 9.82117 77.0273 9.0575 76.4627 8.4085C75.898 7.75949 75.1995 7.24057 74.415 6.88745C73.7646 6.5959 73.0636 6.43397 72.3513 6.41073C71.0255 6.35721 69.719 6.74215 68.634 7.50599L68.453 7.63271C68.4138 7.65986 68.3927 7.67495 68.3896 7.67193C68.6718 7.41188 68.9873 7.19067 69.328 7.01418C70.2543 6.51708 71.2944 6.27058 72.3452 6.2991C73.0729 6.317 73.7901 6.47582 74.4573 6.76677C75.2643 7.1232 75.9838 7.6516 76.5655 8.31503C77.1471 8.97846 77.5768 9.76091 77.8245 10.6077C78.0553 11.5682 78.1478 12.5568 78.0991 13.5434C78.0505 14.5174 78.0737 15.4936 78.1685 16.4641C78.398 18.1835 79.0881 19.8088 80.1659 21.168C80.6426 21.7714 81.1796 22.2723 81.5115 22.8606C81.6723 23.1388 81.775 23.4468 81.8133 23.7658C81.8434 24.0508 81.8167 24.339 81.7348 24.6136C81.596 25.0453 81.378 25.4474 81.0922 25.7994C80.9196 26.025 80.7342 26.2406 80.537 26.4451L80.3801 26.602C80.3669 26.6189 80.3517 26.6341 80.3348 26.6472Z" fill="#455A64"/>
<path d="M56.7434 36.5173C56.6899 36.4908 56.6402 36.4574 56.5955 36.4178C56.502 36.3484 56.3692 36.2428 56.1942 36.116C55.7065 35.7253 55.2486 35.2987 54.8244 34.8398C54.1698 34.1625 53.7218 33.3126 53.533 32.3898C53.4705 31.845 53.4463 31.2965 53.4606 30.7484C53.4709 30.1741 53.3068 29.6102 52.9899 29.1312C52.6349 28.671 52.2401 28.243 51.8102 27.8519C51.4116 27.4658 51.0829 27.0136 50.8387 26.5152C50.6225 26.0643 50.4644 25.5878 50.368 25.0971C50.2772 24.6719 50.2357 24.2375 50.2443 23.8028C50.2443 23.4015 50.3378 23.0515 50.374 22.7437C50.4094 22.4807 50.4154 22.2145 50.3921 21.9502C50.3408 21.5157 50.2563 21.2834 50.2714 21.2773C50.2992 21.3302 50.3214 21.3858 50.3378 21.4433C50.3881 21.6062 50.4265 21.7726 50.4525 21.9411C50.4849 22.2107 50.4849 22.4832 50.4525 22.7528C50.4253 23.0545 50.3529 23.4166 50.3438 23.8058C50.3484 24.7214 50.5544 25.6248 50.9473 26.4519C51.1874 26.9338 51.5089 27.3707 51.8977 27.7432C52.3385 28.1382 52.7425 28.5725 53.1046 29.0407C53.2799 29.2927 53.4096 29.5735 53.4878 29.8704C53.557 30.1561 53.5944 30.4485 53.5994 30.7424C53.5845 31.2843 53.6057 31.8265 53.6628 32.3656C53.8378 33.2694 54.2634 34.1058 54.8908 34.7794C55.3051 35.2418 55.7496 35.6762 56.2214 36.0798L56.6317 36.3936C56.6729 36.4311 56.7103 36.4726 56.7434 36.5173Z" fill="#455A64"/>
<path d="M53.3136 29.4883C53.3188 29.5293 53.3188 29.5709 53.3136 29.612C53.3136 29.6935 53.3136 29.8111 53.2894 29.965C53.2384 30.3987 53.1372 30.825 52.9877 31.2353C52.5109 32.6124 51.5643 33.7776 50.3141 34.5263C49.0638 35.275 47.5897 35.5594 46.1507 35.3296C45.7196 35.2645 45.2975 35.1501 44.8925 34.9887C44.7477 34.9344 44.6421 34.874 44.5696 34.8408C44.4972 34.8076 44.461 34.7835 44.464 34.7775C45.0153 34.981 45.5853 35.1296 46.1658 35.221C46.7966 35.3024 47.436 35.2913 48.0636 35.1878C49.6179 34.9497 51.0171 34.1125 51.9618 32.8555C52.3487 32.3513 52.6598 31.7933 52.8851 31.199C53.0819 30.6437 53.2253 30.0708 53.3136 29.4883Z" fill="#455A64"/>
<path d="M52.1519 28.0703C52.1394 28.2111 52.11 28.3499 52.0645 28.4837C51.9575 28.8536 51.815 29.2123 51.639 29.5548C51.0518 30.692 50.1623 31.6452 49.0683 32.3095C47.9717 32.9664 46.7254 33.332 45.4477 33.3716C45.0635 33.3833 44.679 33.3631 44.2981 33.3112C44.1576 33.2985 44.019 33.2702 43.8848 33.2267C44.4038 33.2641 44.9245 33.2751 45.4447 33.2599C46.697 33.1907 47.9137 32.8179 48.9899 32.1737C50.0602 31.5215 50.9404 30.5997 51.5425 29.5005C51.7767 29.0376 51.9803 28.5599 52.1519 28.0703Z" fill="#455A64"/>
<path d="M43.3271 25.0679C43.41 25.0033 43.5014 24.9505 43.5987 24.911C43.7066 24.8528 43.8185 24.8024 43.9336 24.7601C44.0842 24.697 44.2384 24.6426 44.3952 24.5972C44.8015 24.4752 45.219 24.3944 45.6414 24.3558C46.1589 24.3106 46.6798 24.3208 47.1952 24.386C47.7099 24.4586 48.2155 24.585 48.7038 24.7631C49.1004 24.9154 49.4805 25.1075 49.8383 25.3364C49.9757 25.4228 50.1077 25.5175 50.2336 25.62C50.3335 25.6916 50.4273 25.7714 50.5142 25.8584C50.5946 25.9259 50.6665 26.0029 50.7284 26.0877C50.7073 26.1118 50.3905 25.786 49.778 25.4299C49.4198 25.2189 49.0431 25.0412 48.6525 24.8989C48.1719 24.7345 47.6769 24.6153 47.1741 24.5429C46.6738 24.48 46.1687 24.4649 45.6655 24.4976C45.2507 24.5299 44.8397 24.5995 44.4375 24.7058C43.7375 24.8868 43.3573 25.095 43.3271 25.0679Z" fill="#455A64"/>
<path d="M50.2712 24.5076C50.2441 24.5408 48.3402 22.9235 46.023 20.8869C43.7058 18.8503 41.8472 17.1938 41.8743 17.1607C41.9015 17.1275 43.8053 18.7477 46.1256 20.7813C48.4458 22.8149 50.2954 24.4774 50.2712 24.5076Z" fill="#E7E9EC"/>
<path d="M50.4916 22.905C50.4766 22.8862 50.4635 22.866 50.4524 22.8447C50.4252 22.7934 50.392 22.7331 50.3498 22.6606C50.2328 22.4165 50.1534 22.1561 50.1144 21.8882C50.003 20.8847 50.2889 19.8775 50.911 19.0822C51.1075 18.8155 51.3332 18.5716 51.5838 18.3551C51.8587 18.1248 52.1558 17.9227 52.4709 17.7516C53.1702 17.3853 53.921 17.1269 54.6976 16.9852C56.3299 16.6443 58.1674 16.7258 60.0381 16.4482C60.9534 16.3271 61.8419 16.0527 62.6661 15.6366C63.4191 15.2272 64.1 14.6972 64.6816 14.0676C65.6687 12.9952 66.4593 11.7574 67.0169 10.4107C67.5118 9.2672 67.8225 8.29867 68.0488 7.64695L68.3053 6.88359L68.3747 6.68747C68.3818 6.66459 68.3908 6.64238 68.4018 6.62109C68.4018 6.62109 68.4018 6.64523 68.4018 6.69049L68.3475 6.89264L68.0971 7.67712C67.8177 8.62321 67.4884 9.55381 67.1105 10.465C66.5613 11.8325 65.7713 13.0905 64.7781 14.1792C64.1849 14.8202 63.4896 15.3585 62.7204 15.7723C61.885 16.1991 60.983 16.4807 60.0532 16.6051C58.1584 16.8887 56.3299 16.7982 54.7157 17.1301C53.1015 17.462 51.7166 18.1348 50.9894 19.1486C50.3791 19.9157 50.0855 20.8873 50.1688 21.8641C50.2208 22.2259 50.3298 22.5773 50.4916 22.905Z" fill="#FAFAFA"/>
<path d="M52.4068 34.8849C52.3436 35.3023 52.2217 35.7086 52.0447 36.0918C51.8408 36.5526 51.576 36.9839 51.2572 37.3741C50.8344 37.8955 50.3163 38.3317 49.7305 38.6595C49.013 39.0483 48.2112 39.2555 47.3952 39.2629C46.4532 39.2846 45.5277 39.0137 44.746 38.4875C43.8863 37.8926 43.2644 37.0131 42.99 36.0043C42.8434 35.4729 42.8126 34.9163 42.8995 34.372C42.9951 33.8118 43.2102 33.2787 43.5301 32.8091C44.0518 32.0175 44.852 31.451 45.7719 31.222V31.3729C44.8387 31.2285 43.9521 30.8679 43.1831 30.3199C42.4702 29.8169 41.9021 29.1354 41.5357 28.3436C41.2133 27.632 41.0753 26.8506 41.1344 26.0716C41.1843 25.3985 41.41 24.7503 41.7892 24.1919C42.1081 23.7387 42.5194 23.3582 42.9961 23.0755C43.3502 22.8664 43.7366 22.7175 44.1396 22.635C44.3918 22.5849 44.6491 22.5657 44.906 22.5777L45.1021 22.5988C45.1241 22.5955 45.1465 22.5955 45.1685 22.5988C44.8266 22.5811 44.4838 22.6075 44.1486 22.6772C43.756 22.767 43.3808 22.921 43.0383 23.1328C42.5811 23.4163 42.1885 23.7925 41.8857 24.2371C41.5231 24.7831 41.3098 25.4145 41.2672 26.0686C41.2167 26.826 41.3557 27.584 41.6715 28.2742C42.0317 29.0411 42.5861 29.7005 43.2797 30.1871C44.0329 30.7175 44.898 31.0675 45.8081 31.2099L46.1973 31.2703L45.8141 31.3608C44.9317 31.5818 44.1647 32.1268 43.6659 32.8875C43.3584 33.341 43.1525 33.8556 43.0624 34.3961C42.9798 34.9192 43.0086 35.4539 43.1469 35.9651C43.4086 36.9442 44.0081 37.7993 44.8396 38.3789C45.5956 38.8911 46.4912 39.1576 47.4042 39.1422C48.2012 39.1393 48.9853 38.9415 49.6883 38.5659C50.2647 38.2512 50.7765 37.8305 51.1969 37.3258C51.5171 36.9447 51.7869 36.5238 51.9994 36.0737C52.1313 35.7881 52.2432 35.4937 52.3344 35.1927C52.3615 35.0961 52.3826 35.0177 52.3977 34.9543L52.4068 34.8849Z" fill="#263238"/>
<path d="M50.6291 21.8349C50.6035 21.8274 50.5791 21.8162 50.5567 21.8017L50.3455 21.6901C50.0814 21.5388 49.8301 21.3663 49.5942 21.1741C48.7175 20.4582 48.0487 19.5206 47.6571 18.4586C47.2027 17.1999 47.1625 15.8288 47.5424 14.5456C47.9224 13.2624 48.7026 12.1343 49.7692 11.3259C50.6226 10.697 51.5823 10.2268 52.6023 9.93801C53.6222 9.65006 54.6684 9.46508 55.7252 9.38586C56.739 9.28931 57.7165 9.24405 58.6458 9.18069C59.5254 9.12534 60.4016 9.02463 61.2708 8.87896C62.0257 8.7492 62.7663 8.54713 63.4824 8.27552C64.522 7.89198 65.4697 7.29481 66.2643 6.52252C66.4735 6.30537 66.6681 6.07455 66.8466 5.83157L66.9854 5.64149C66.9998 5.61827 67.017 5.59697 67.0367 5.57812C66.8381 5.9379 66.5926 6.26968 66.3066 6.56476C65.518 7.36419 64.5645 7.982 63.5126 8.37509C62.7915 8.65543 62.0447 8.86461 61.2829 8.99965C60.4098 9.14666 59.5296 9.24738 58.6458 9.30138C56.7902 9.44922 54.7234 9.46431 52.6567 10.0768C51.6554 10.3611 50.7125 10.8209 49.8718 11.4346C48.8264 12.2239 48.0587 13.3247 47.6791 14.5783C47.2995 15.832 47.3278 17.1738 47.7597 18.4104C48.1382 19.4551 48.783 20.3829 49.6304 21.1017C49.8603 21.2984 50.1043 21.4779 50.3605 21.6388L50.5597 21.7625C50.586 21.7834 50.6093 21.8077 50.6291 21.8349Z" fill="#263238"/>
<path d="M84.255 17.3843C84.2204 17.4256 84.1776 17.4592 84.1293 17.4831C84.081 17.507 84.0283 17.5206 83.9744 17.5231C83.8178 17.5261 83.6638 17.482 83.5325 17.3965C83.4012 17.3109 83.2987 17.1879 83.2382 17.0433C83.1917 16.9384 83.1713 16.8238 83.1787 16.7093C83.186 16.5947 83.2209 16.4837 83.2805 16.3856C83.4198 16.1536 83.632 15.9743 83.8839 15.8757C84.1914 15.7645 84.5222 15.7338 84.8449 15.7866C85.1676 15.8394 85.4714 15.974 85.7274 16.1774C86.036 16.4001 86.2738 16.707 86.4123 17.0614C86.5588 17.4466 86.5882 17.8665 86.4968 18.2683C86.4043 18.7039 86.1685 19.0959 85.827 19.3817C85.4654 19.6813 85.0236 19.8681 84.5567 19.9187C84.0586 19.9549 83.5588 19.8787 83.094 19.696C82.6293 19.5132 82.2115 19.2285 81.8714 18.8627C81.4967 18.492 81.2038 18.047 81.0115 17.5563C80.8151 17.0462 80.763 16.4919 80.8606 15.9541C80.965 15.4283 81.129 14.9161 81.3494 14.4274C81.5516 13.9446 81.7387 13.4679 81.8956 12.9912C82.2092 12.0754 82.4118 11.1252 82.499 10.161C82.5799 9.29118 82.527 8.41404 82.3421 7.56021C82.1774 6.81248 81.8866 6.09825 81.4822 5.44815C80.8996 4.50256 80.0633 3.73944 79.0684 3.24558C78.7965 3.12225 78.515 3.02134 78.2266 2.94386L77.9973 2.88653C77.971 2.88126 77.9455 2.87211 77.9219 2.85938H78.0003L78.2326 2.90162C78.5289 2.96898 78.8179 3.06498 79.0956 3.18825C80.1127 3.67139 80.9702 4.43571 81.5667 5.39082C81.9864 6.03818 82.2926 6.75247 82.4718 7.50288C82.6661 8.36962 82.7251 9.26118 82.6468 10.146C82.5619 11.1222 82.3593 12.0847 82.0434 13.0123C81.8865 13.4951 81.6964 13.9778 81.4943 14.4576C81.2803 14.9413 81.1204 15.4473 81.0175 15.9662C80.9275 16.4729 80.9775 16.9945 81.1624 17.4748C81.3447 17.9469 81.6255 18.3748 81.9861 18.73C82.3089 19.0801 82.7059 19.3537 83.1481 19.5307C83.5902 19.7077 84.0664 19.7835 84.5417 19.7528C84.9843 19.7076 85.404 19.5335 85.7485 19.2519C86.0696 18.9876 86.2927 18.6232 86.3822 18.217C86.4706 17.8382 86.4465 17.4418 86.3128 17.0765C86.1827 16.7415 85.9611 16.4498 85.6731 16.2347C85.4326 16.0394 85.1459 15.909 84.8405 15.8562C84.5352 15.8034 84.2214 15.8298 83.9292 15.933C83.6927 16.0202 83.4921 16.1837 83.3589 16.3976C83.3014 16.4862 83.2664 16.5875 83.257 16.6926C83.2475 16.7978 83.2639 16.9037 83.3046 17.0011C83.3594 17.1373 83.4529 17.2545 83.5735 17.3381C83.6942 17.4218 83.8367 17.4682 83.9835 17.4718C84.0802 17.4673 84.1739 17.4371 84.255 17.3843Z" fill="#263238"/>
<g opacity="0.2">
<path opacity="0.2" d="M82.3302 85.6716C83.7966 85.2583 85.3173 86.5768 86.8048 86.2358C87.7099 86.0246 88.3918 85.216 88.8022 84.3682C89.2125 83.5203 89.4328 82.585 89.8673 81.7462C90.3017 80.9074 91.0259 80.138 91.9612 80.0083C92.8181 79.8936 93.8349 80.2949 94.4715 79.7066C94.9633 79.254 94.897 78.4152 94.5047 77.8751C94.1125 77.335 93.4909 77.0182 92.8905 76.7225C92.2319 76.3628 91.5317 76.0852 90.8056 75.8958C90.072 75.7092 89.2954 75.7994 88.6242 76.1493C87.369 76.8794 87.1155 78.5359 86.7505 79.9419C86.5277 80.9311 86.1091 81.8657 85.5194 82.6906C84.9206 83.5178 84.0336 84.0905 83.0332 84.2958C82.6481 84.3097 82.2704 84.4065 81.9259 84.5794C81.6091 84.7966 81.4854 85.3397 81.8143 85.5419" fill="black"/>
</g>
<path d="M74.6885 80.2495L80.1859 78.3336L85.113 70.6306C85.3533 70.2549 85.6678 69.9321 86.0372 69.6821C86.4066 69.432 86.8231 69.2599 87.2612 69.1763L96.0987 67.5078C96.2109 67.8446 96.1958 68.2108 96.0562 68.5371C95.9167 68.8635 95.6623 69.1274 95.3414 69.2789C94.1616 69.9518 88.8543 71.1888 88.8543 71.1888L97.028 71.05C97.028 71.05 97.2784 72.2298 96.3521 72.6522C95.4258 73.0746 89.6026 73.2858 89.6026 73.2858L97.0642 74.3479C97.0642 74.3479 97.1064 75.5336 95.4017 75.5547C93.7231 75.5395 92.0464 75.4388 90.378 75.253C90.3089 75.2426 90.2384 75.2599 90.1819 75.3011C90.1254 75.3424 90.0874 75.4042 90.0763 75.4733C90.0654 75.5398 90.0802 75.6081 90.1177 75.6641C90.1553 75.7201 90.2127 75.7598 90.2785 75.775L95.2358 76.9457C95.3787 76.9775 95.5071 77.0557 95.601 77.1681C95.6949 77.2805 95.749 77.4208 95.7549 77.5671C95.7607 77.7134 95.718 77.8576 95.6334 77.9772C95.5488 78.0967 95.427 78.1849 95.287 78.228C95.1964 78.251 95.1023 78.2571 95.0095 78.2461C94.1677 78.1616 89.1198 77.522 89.1198 77.522C89.1198 77.522 87.3397 83.7616 86.1871 84.2655C85.0345 84.7693 82.6177 84.9081 82.6177 84.9081L77.4885 86.9387L74.6885 80.2495Z" fill="#B78876"/>
<path d="M96.4579 71.0262C96.3171 71.056 96.1734 71.0701 96.0295 71.0685L94.8588 71.1258C93.8722 71.168 92.5054 71.2163 90.9998 71.2555L88.8726 71.3099C88.3004 71.2859 87.7286 71.3678 87.186 71.5512C86.8288 71.6918 86.5256 71.9422 86.3201 72.2663C86.254 72.391 86.1965 72.52 86.1481 72.6525C86.142 72.6156 86.142 72.5778 86.1481 72.5409C86.1712 72.4361 86.2077 72.3347 86.2567 72.2392C86.4533 71.886 86.7623 71.6088 87.1347 71.4517C87.6864 71.2471 88.2724 71.1508 88.8606 71.168L90.9726 71.1017C92.4812 71.0624 93.848 71.0323 94.8347 71.0172H96.0053C96.1562 71.0076 96.3076 71.0106 96.4579 71.0262Z" fill="#AA6550"/>
<path d="M96.5829 74.3691C96.4505 74.3743 96.318 74.3651 96.1876 74.3419L95.1195 74.2062C94.2143 74.0885 92.9712 73.9044 91.5984 73.7053C90.9135 73.6087 90.2588 73.485 89.6674 73.4337C89.1487 73.3712 88.6231 73.4658 88.1588 73.7053C87.8492 73.8773 87.5822 74.1165 87.3773 74.4053C87.2325 74.6105 87.1752 74.7402 87.1631 74.7342C87.1678 74.6996 87.178 74.666 87.1933 74.6346C87.23 74.5425 87.2744 74.4537 87.326 74.3691C87.5202 74.0564 87.7873 73.7955 88.1045 73.6087C88.5836 73.3414 89.134 73.2297 89.6794 73.2889C90.2829 73.3342 90.9376 73.4549 91.6256 73.5484C92.9984 73.7536 94.2415 73.9497 95.1376 74.0975L96.1997 74.2816C96.3299 74.2982 96.4583 74.3275 96.5829 74.3691Z" fill="#AA6550"/>
<path d="M92.4339 76.2649C92.1421 76.2236 91.8537 76.1611 91.571 76.0778C91.04 75.9481 90.3098 75.755 89.5012 75.589C89.3088 75.5439 89.113 75.5147 88.9159 75.5015C88.7392 75.5085 88.5671 75.5593 88.415 75.6494C88.1448 75.7988 87.9174 76.0148 87.7542 76.277C87.6191 76.5329 87.5302 76.8108 87.4917 77.0977C87.4665 77.0198 87.4603 76.937 87.4736 76.8563C87.4894 76.6348 87.5511 76.419 87.6547 76.2227C87.8167 75.9316 88.0544 75.6898 88.3426 75.5227C88.5158 75.4194 88.7114 75.3593 88.9128 75.3477C89.121 75.3589 89.3278 75.3871 89.5314 75.4321C90.3521 75.6041 91.0762 75.8123 91.5982 75.9692C91.8859 76.0398 92.1659 76.1388 92.4339 76.2649Z" fill="#AA6550"/>
<path d="M33.8789 84.3925L50.368 82.3649L79.2881 77.6641L83.0204 87.0446C72.1584 90.8101 61.0128 94.2075 50.0784 97.1945C49.1847 97.3728 48.2738 97.4497 47.3629 97.4238C43.712 97.4389 34.7086 95.9726 33.8789 84.3925Z" fill="#E7E9EC"/>
<path d="M83.0188 87.0455C82.9907 86.9916 82.9655 86.9362 82.9434 86.8795C82.8921 86.7618 82.8257 86.5989 82.7352 86.3877C82.5572 85.9472 82.2977 85.3136 81.9688 84.505L79.2262 77.686L79.2955 77.7253L65.2444 80.0727C61.9254 80.6429 58.7422 81.014 55.8578 81.3972C54.4125 81.5873 53.0427 81.7774 51.7664 82.0007C51.1268 82.1033 50.5113 82.2038 49.9199 82.3024C49.3532 82.3932 48.7921 82.5161 48.2393 82.6705C46.5742 83.1951 45.1716 84.3345 44.3169 85.8567C44.0828 86.2661 43.8897 86.6976 43.7406 87.145C43.6893 87.2989 43.6561 87.4196 43.635 87.498C43.6246 87.5395 43.6105 87.5799 43.5928 87.6187C43.6209 87.4553 43.6602 87.294 43.7104 87.136C43.8479 86.6813 44.033 86.2423 44.2626 85.8265C44.6254 85.1659 45.092 84.5679 45.6445 84.0554C46.384 83.3792 47.2609 82.8708 48.2152 82.5649C48.772 82.4063 49.337 82.2784 49.9078 82.1817C50.5113 82.0731 51.1147 81.9614 51.7544 81.8558C53.0337 81.6446 54.4035 81.4455 55.8457 81.2524C58.7332 80.8632 61.9133 80.489 65.2262 79.9158L79.2835 77.6016H79.3348L79.3529 77.6498C80.4753 80.4981 81.3986 82.8455 82.0442 84.4869L82.7804 86.3817C82.8619 86.5959 82.9222 86.7618 82.9705 86.8795C83.0188 86.9972 83.0188 87.0455 83.0188 87.0455Z" fill="#263238"/>
<path d="M42.752 96.9256C42.797 96.9304 42.8414 96.9395 42.8847 96.9528L43.2679 97.0463C43.6058 97.1187 44.1037 97.2334 44.7554 97.3119C46.5966 97.5387 48.463 97.4489 50.2739 97.0463C50.8472 96.9256 51.4385 96.7627 52.0571 96.5877L53.982 96.0446L58.2062 94.8377C61.1902 93.9688 64.4639 92.9942 67.8884 91.9291C73.6211 90.149 78.8892 88.405 82.9745 86.996L82.9383 87.0774C81.8099 84.2111 80.8836 81.8667 80.2409 80.2283C79.9241 79.4167 79.6797 78.7801 79.5077 78.3396C79.4263 78.1284 79.3659 77.9654 79.3207 77.8447C79.2754 77.7241 79.2633 77.6758 79.2633 77.6758C79.2633 77.6758 79.2905 77.7301 79.3388 77.8387C79.3871 77.9473 79.4534 78.1193 79.5409 78.3275L80.3043 80.2012L83.053 87.0322L83.0771 87.0925L83.0168 87.1136C78.9254 88.5438 73.6634 90.2968 67.9307 92.08C64.5061 93.1451 61.2294 94.1166 58.2424 94.9795L53.9941 96.1864L52.0661 96.7175C51.4627 96.8894 50.8592 97.0524 50.2769 97.17C48.4531 97.565 46.5745 97.6395 44.7252 97.3903C44.054 97.2993 43.3932 97.1437 42.752 96.9256Z" fill="#263238"/>
<path d="M49.142 82.3643C49.0069 82.4 48.8683 82.4213 48.7287 82.4277L47.5972 82.5393L43.8679 82.9044L40.1387 83.3027L39.0072 83.4204C38.8697 83.4438 38.7301 83.4519 38.5908 83.4445C38.725 83.4049 38.8623 83.3767 39.0012 83.36C39.2667 83.3178 39.6499 83.2604 40.1266 83.1941C41.077 83.0613 42.3925 82.8924 43.8498 82.7505C45.3072 82.6087 46.6317 82.4941 47.5882 82.4307C48.0679 82.3975 48.4571 82.3764 48.7257 82.3643C48.8642 82.3525 49.0035 82.3525 49.142 82.3643Z" fill="#263238"/>
</svg>