<svg width="19" height="19" viewBox="0 0 19 19" fill="none" xmlns="http://www.w3.org/2000/svg">
<path d="M15.3527 0.90001C15.1495 0.696916 14.874 0.582825 14.5868 0.582825C14.2995 0.582825 14.024 0.696916 13.8208 0.90001L12.289 2.43293L16.8845 7.02843L18.4163 5.49659C18.6194 5.29344 18.7335 5.01794 18.7335 4.73068C18.7335 4.44342 18.6194 4.16792 18.4163 3.96476L15.3527 0.90001ZM15.3527 8.56134L10.7561 3.96476L1.11443 13.6064C0.911913 13.8095 0.798157 14.0845 0.798096 14.3713V17.436C0.798096 17.7233 0.912232 17.9989 1.1154 18.202C1.31856 18.4052 1.59411 18.5193 1.88143 18.5193H4.9451C5.23239 18.5193 5.50789 18.4051 5.71101 18.2019L15.3527 8.56026V8.56134Z" fill="#FF9E19"/>
</svg>