<svg width="145" height="66" viewBox="0 0 145 66" fill="none" xmlns="http://www.w3.org/2000/svg">
<mask id="mask0_64_13208" style="mask-type:luminance" maskUnits="userSpaceOnUse" x="0" y="17" width="28" height="26">
<path d="M0 17.5409H27.4194V42.6735H0V17.5409Z" fill="white"/>
</mask>
<g mask="url(#mask0_64_13208)">
<path fill-rule="evenodd" clip-rule="evenodd" d="M5.16049 23.7463C4.23703 21.4976 3.68282 19.5459 1.46599 19.2426L0.236025 19.0613C-0.131906 18.5711 -0.069153 17.7222 0.420651 17.5409C1.9614 17.6589 4.11251 17.7222 6.20583 17.7222C7.86449 17.7222 9.09841 17.6589 11.1864 17.5409C11.6188 17.784 11.6789 18.76 11.2439 19.0613L10.5077 19.1838C8.60167 19.4848 8.54024 19.789 9.15621 21.6162C10.5708 25.8156 12.3576 30.0762 13.7672 33.2398C14.3211 34.4586 14.5675 35.0075 14.7511 35.185C14.9998 35.0075 15.4309 34.1521 15.9233 32.8728C16.7213 30.8065 18.8159 25.5107 19.4263 23.9263C20.2883 21.8005 20.5347 20.5196 20.5347 20.1536C20.5347 19.6066 20.1677 19.3639 19.4263 19.2426L18.0169 19.0613C17.649 18.6336 17.7062 17.784 18.1362 17.5409C20.0475 17.6589 21.583 17.7222 22.7472 17.7222C24.288 17.7222 25.3303 17.6589 27.0557 17.5409C27.4801 17.784 27.5485 18.6937 27.1792 19.0613L26.2581 19.1838C24.1007 19.4848 23.5518 21.0685 21.7646 24.4792C20.9052 26.1198 17.0908 34.9441 16.1096 37.4396C15.4887 38.9629 14.8757 40.3568 14.0751 42.4278C13.9558 42.6072 13.7094 42.6735 13.4621 42.6735C13.1556 42.6735 12.8451 42.6072 12.6671 42.4278C12.1677 40.7277 11.2439 38.3519 10.3257 36.1022L5.16049 23.7463Z" fill="white"/>
</g>
<path fill-rule="evenodd" clip-rule="evenodd" d="M34.7536 24.2934C39.3058 24.2934 40.662 24.0493 41.1544 23.6853C41.3364 23.5651 41.5184 23.3233 41.5184 22.5296C41.5184 20.8239 40.3551 18.6938 36.7868 18.6938C33.1567 18.6938 30.0181 21.9813 29.955 23.9898C29.955 24.115 29.955 24.2934 30.3903 24.2934H34.7536ZM30.9389 26.12C29.3433 26.12 29.2819 26.2379 29.2819 27.7616C29.2819 33.9085 32.909 39.1431 39.4908 39.1431C41.5184 39.1431 43.2424 38.5353 45.1498 36.1624C45.7654 35.9775 46.1925 36.3425 46.2582 36.8927C44.2277 41.0275 39.7999 42.5485 36.5979 42.5485C32.6025 42.5485 29.4678 40.8474 27.682 38.5353C25.8337 36.1624 25.0989 33.301 25.0989 30.6223C25.0989 23.14 30.0811 16.8689 37.4599 16.8689C42.7497 16.8689 46.1925 20.4622 46.1925 24.115C46.1925 24.9639 46.0723 25.4485 45.9478 25.6935C45.7655 26.0569 44.9064 26.12 42.3216 26.12H30.9389Z" fill="white"/>
<path fill-rule="evenodd" clip-rule="evenodd" d="M51.4959 24.2335C51.4959 21.8613 51.4959 21.5574 49.8375 20.4621L49.2833 20.0942C49.0343 19.8511 49.0343 19.1835 49.3461 19.0009C50.7597 18.5124 54.0175 16.9293 55.553 16.0179C55.8595 16.0794 56.0507 16.2016 56.0507 16.4437V19.9769C56.0507 20.2739 56.1082 20.4621 56.2327 20.5196C58.3852 18.7601 60.7209 16.8688 63.0015 16.8688C64.5343 16.8688 65.7633 17.8429 65.7633 19.3021C65.7633 21.3091 64.1046 22.1034 63.1237 22.1034C62.5024 22.1034 62.2025 21.9214 61.7675 21.6757C60.8494 21.0686 59.9246 20.7039 59.0626 20.7039C58.0773 20.7039 57.3398 21.2499 56.8474 21.9214C56.2327 22.7729 56.0507 24.5341 56.0507 26.6074V34.885C56.0507 39.2635 56.17 39.9925 58.5113 40.1778L60.7209 40.3569C61.1559 40.666 61.0313 41.6988 60.6017 41.8789C57.7091 41.758 55.9318 41.6988 53.7768 41.6988C51.5629 41.6988 49.713 41.758 48.1118 41.8789C47.6851 41.6988 47.5566 40.666 47.9876 40.3569L49.1641 40.1778C51.4367 39.8138 51.4959 39.2635 51.4959 34.885V24.2335Z" fill="white"/>
<path fill-rule="evenodd" clip-rule="evenodd" d="M75.5676 10.5271C75.5676 12.6572 74.0295 13.6323 72.3659 13.6323C70.4599 13.6323 69.2299 12.2909 69.2299 10.6477C69.2299 8.64077 70.769 7.42133 72.5518 7.42133C74.3991 7.42133 75.5676 8.82081 75.5676 10.5271ZM70.5229 24.2335C70.5229 21.8612 70.5229 21.5547 68.8633 20.4624L68.3087 20.0942C68.06 19.851 68.06 19.1838 68.3705 19.0008C69.7851 18.5123 73.288 16.9292 74.7073 16.0179C75.0134 16.0179 75.2572 16.1378 75.3173 16.3816C75.1967 18.5123 75.0712 21.4322 75.0712 23.9263V34.885C75.0712 39.2635 75.1967 39.8719 77.4122 40.1781L78.6997 40.3568C79.1333 40.6659 79.0101 41.6988 78.5834 41.8788C76.7348 41.7579 74.952 41.6988 72.7969 41.6988C70.5844 41.6988 68.7384 41.7579 67.0134 41.8788C66.5863 41.6988 66.4645 40.6659 66.8928 40.3568L68.1846 40.1781C70.4599 39.8719 70.5229 39.2635 70.5229 34.885V24.2335Z" fill="white"/>
<path fill-rule="evenodd" clip-rule="evenodd" d="M95.628 17.966C96.1822 19.3021 96.6119 21.2499 96.6119 22.8934C96.3642 23.3231 95.442 23.4463 95.1299 23.0787C94.0889 20.3987 92.2443 18.6332 89.7239 18.6332C87.3251 18.6332 85.786 20.1536 85.786 22.3471C85.786 24.8396 88.3681 26.1835 90.5229 27.3971C93.7781 29.221 96.7899 31.2897 96.7899 35.6153C96.7899 40.2375 92.4907 42.5483 87.9381 42.5483C85.0458 42.5483 82.8987 41.9412 81.3553 40.7277C80.8615 39.5674 80.4962 36.5874 80.6181 34.5778C80.9256 34.2135 81.7249 34.1521 82.0353 34.5161C83.0767 37.8637 85.0458 40.7839 88.5484 40.7839C90.7719 40.7839 92.6726 39.5112 92.6726 36.8926C92.6726 34.0913 90.2127 32.5729 87.9381 31.2897C84.3711 29.2834 81.8481 27.1517 81.8481 23.8057C81.8481 19.3638 85.5409 16.8691 90.2127 16.8691C92.7932 16.8691 95.0738 17.4788 95.628 17.966Z" fill="white"/>
<path fill-rule="evenodd" clip-rule="evenodd" d="M141.573 12.0369H129.915V30.426C129.915 33.3547 127.533 35.7168 124.571 35.7168C121.61 35.7168 119.224 33.3547 119.224 30.426V12.0369H107.565C104.546 12.0369 103.414 14.0912 105.046 16.6036L121.599 42.0666C123.232 44.5819 125.904 44.5819 127.539 42.0666L144.094 16.6036C145.726 14.0912 144.593 12.0369 141.573 12.0369Z" fill="white"/>
<path fill-rule="evenodd" clip-rule="evenodd" d="M25.1764 55.8227V59.6596H25.3651C25.966 59.6596 26.4015 59.4719 26.6716 59.0965C26.9418 58.7212 27.1142 58.1675 27.1887 57.4353H27.4542V62.3704H27.1887C27.1328 61.8328 27.0152 61.3926 26.8358 61.0497C26.6565 60.7068 26.4481 60.4763 26.2105 60.3581C25.973 60.24 25.6283 60.1809 25.1764 60.1809V62.8361C25.1764 63.3551 25.1986 63.6725 25.2428 63.7883C25.2871 63.9042 25.3698 63.9992 25.4909 64.0733C25.612 64.1475 25.8076 64.1845 26.0778 64.1845H26.6437C27.5287 64.1845 28.2379 63.9807 28.7712 63.5729C29.3046 63.1651 29.6877 62.5442 29.9206 61.7101H30.1791L29.7529 64.7059H21.5642V64.4487H21.8786C22.1534 64.4487 22.3747 64.4 22.5424 64.3027C22.6635 64.2378 22.7566 64.1266 22.8219 63.9691C22.8731 63.8579 22.8987 63.5659 22.8987 63.0933V56.8931C22.8987 56.4668 22.8871 56.205 22.8638 56.1077C22.8172 55.9455 22.731 55.8204 22.6053 55.7323C22.4283 55.6026 22.186 55.5377 21.8786 55.5377H21.5642V55.2805H29.4944V58.0678H29.2289C29.0938 57.3866 28.904 56.8978 28.6594 56.6012C28.4149 56.3046 28.069 56.0868 27.6219 55.9478C27.361 55.8644 26.8719 55.8227 26.1546 55.8227H25.1764ZM37.6411 61.4946L40.2123 55.2805H44.0691V55.5377H43.7617C43.4822 55.5377 43.2586 55.5864 43.0909 55.6837C42.9745 55.7486 42.8813 55.8575 42.8114 56.0104C42.7602 56.1216 42.7346 56.4112 42.7346 56.8792V63.0933C42.7346 63.5752 42.7602 63.8764 42.8114 63.9969C42.8627 64.1174 42.9675 64.2228 43.1258 64.3131C43.2842 64.4035 43.4961 64.4487 43.7617 64.4487H44.0691V64.7059H39.1223V64.4487H39.4298C39.7092 64.4487 39.9328 64.4 40.1005 64.3027C40.217 64.2378 40.3101 64.1266 40.38 63.9691C40.4312 63.8579 40.4568 63.5659 40.4568 63.0933V56.1077L36.8236 64.7059H36.656L32.9669 56.1702V62.8083C32.9669 63.2717 32.9785 63.5567 33.0018 63.6632C33.0623 63.8949 33.1939 64.0838 33.3966 64.2297C33.5992 64.3757 33.9171 64.4487 34.3503 64.4487V64.7059H31.1083V64.4487H31.2062C31.4158 64.4533 31.6114 64.4197 31.7931 64.3479C31.9747 64.2761 32.1121 64.1799 32.2053 64.0594C32.2984 63.939 32.3706 63.7698 32.4219 63.552C32.4312 63.5011 32.4359 63.2647 32.4359 62.843V56.8792C32.4359 56.4019 32.4102 56.1042 32.359 55.986C32.3078 55.8679 32.203 55.7636 32.0446 55.6733C31.8862 55.5829 31.6743 55.5377 31.4088 55.5377H31.1083V55.2805H34.9791L37.6411 61.4946ZM48.1914 60.438V63.0516C48.1914 63.5613 48.2228 63.8822 48.2857 64.0143C48.3486 64.1463 48.4604 64.2517 48.6211 64.3305C48.7818 64.4093 49.0764 64.4487 49.5049 64.4487V64.7059H44.6909V64.4487C45.1288 64.4487 45.4257 64.4081 45.5817 64.327C45.7378 64.2459 45.8472 64.1405 45.9101 64.0108C45.973 63.881 46.0045 63.5613 46.0045 63.0516V56.9348C46.0045 56.4251 45.973 56.1042 45.9101 55.9721C45.8472 55.8401 45.7366 55.7347 45.5782 55.6559C45.4199 55.5771 45.1241 55.5377 44.6909 55.5377V55.2805H48.8202C50.1803 55.2805 51.1561 55.5215 51.7477 56.0034C52.3393 56.4853 52.635 57.0878 52.635 57.8106C52.635 58.4223 52.4441 58.9459 52.0621 59.3815C51.6802 59.8171 51.1538 60.1137 50.4831 60.2712C50.0312 60.3824 49.2673 60.438 48.1914 60.438ZM48.1914 55.8227V59.8959C48.3451 59.9052 48.4615 59.9098 48.5407 59.9098C49.109 59.9098 49.5468 59.7418 49.8542 59.4059C50.1617 59.0699 50.3154 58.5497 50.3154 57.8454C50.3154 57.1457 50.1617 56.6336 49.8542 56.3093C49.5468 55.9849 49.088 55.8227 48.4778 55.8227H48.1914ZM56.8691 60.4102V63.0516C56.8691 63.5613 56.9006 63.8822 56.9634 64.0143C57.0263 64.1463 57.1369 64.2517 57.2953 64.3305C57.4537 64.4093 57.7495 64.4487 58.1827 64.4487V64.7059H53.3337V64.4487C53.7716 64.4487 54.0685 64.4081 54.2246 64.327C54.3806 64.2459 54.4901 64.1405 54.5529 64.0108C54.6158 63.881 54.6473 63.5613 54.6473 63.0516V56.9348C54.6473 56.4251 54.6158 56.1042 54.5529 55.9721C54.4901 55.8401 54.3794 55.7347 54.2211 55.6559C54.0627 55.5771 53.7669 55.5377 53.3337 55.5377V55.2805H57.7355C58.8813 55.2805 59.7198 55.3593 60.2508 55.5169C60.7818 55.6744 61.215 55.9652 61.5503 56.3892C61.8857 56.8132 62.0534 57.3102 62.0534 57.8801C62.0534 58.5752 61.8019 59.1498 61.2988 59.604C60.9774 59.8913 60.5279 60.1067 59.9503 60.2504L62.2281 63.4408C62.5262 63.8532 62.7381 64.1104 62.8639 64.2124C63.0549 64.356 63.2761 64.4348 63.5276 64.4487V64.7059H60.5442L57.4909 60.4102H56.8691ZM56.8691 55.7879V59.9167H57.2674C57.9148 59.9167 58.3992 59.8577 58.7206 59.7395C59.042 59.6213 59.2947 59.4082 59.4787 59.1C59.6627 58.7919 59.7547 58.3899 59.7547 57.894C59.7547 57.1758 59.5859 56.6452 59.2482 56.3023C58.9105 55.9594 58.3666 55.7879 57.6167 55.7879H56.8691ZM67.3006 55.8227V59.6596H67.4892C68.0901 59.6596 68.5256 59.4719 68.7958 59.0965C69.0659 58.7212 69.2383 58.1675 69.3128 57.4353H69.5783V62.3704H69.3128C69.2569 61.8328 69.1393 61.3926 68.96 61.0497C68.7806 60.7068 68.5722 60.4763 68.3346 60.3581C68.0971 60.24 67.7524 60.1809 67.3006 60.1809V62.8361C67.3006 63.3551 67.3227 63.6725 67.367 63.7883C67.4112 63.9042 67.4939 63.9992 67.615 64.0733C67.7361 64.1475 67.9317 64.1845 68.2019 64.1845H68.7678C69.6528 64.1845 70.362 63.9807 70.8954 63.5729C71.4287 63.1651 71.8118 62.5442 72.0447 61.7101H72.3032L71.877 64.7059H63.6883V64.4487H64.0028C64.2776 64.4487 64.4988 64.4 64.6665 64.3027C64.7876 64.2378 64.8808 64.1266 64.946 63.9691C64.9972 63.8579 65.0228 63.5659 65.0228 63.0933V56.8931C65.0228 56.4668 65.0112 56.205 64.9879 56.1077C64.9413 55.9455 64.8552 55.8204 64.7294 55.7323C64.5524 55.6026 64.3102 55.5377 64.0028 55.5377H63.6883V55.2805H71.6185V58.0678H71.353C71.2179 57.3866 71.0281 56.8978 70.7836 56.6012C70.539 56.3046 70.1932 56.0868 69.746 55.9478C69.4852 55.8644 68.9961 55.8227 68.2788 55.8227H67.3006ZM79.6674 55.0651L79.7443 58.2068H79.4578C79.3227 57.4191 78.9909 56.7854 78.4622 56.3058C77.9335 55.8262 77.3617 55.5864 76.7469 55.5864C76.2718 55.5864 75.8957 55.7126 75.6185 55.9652C75.3414 56.2177 75.2028 56.5085 75.2028 56.8375C75.2028 57.0461 75.2517 57.2314 75.3495 57.3936C75.4846 57.6114 75.7012 57.8269 75.9993 58.04C76.2182 58.1929 76.7236 58.464 77.5155 58.8533C78.6241 59.3954 79.3716 59.9075 79.7583 60.3894C80.1402 60.8713 80.3312 61.4228 80.3312 62.0437C80.3312 62.8315 80.0226 63.5092 79.4054 64.0768C78.7882 64.6445 78.0045 64.9283 77.0543 64.9283C76.7562 64.9283 76.4744 64.8982 76.2089 64.8379C75.9434 64.7777 75.6104 64.6642 75.2098 64.4973C74.9862 64.4047 74.8022 64.3583 74.6578 64.3583C74.5367 64.3583 74.4086 64.4047 74.2735 64.4973C74.1384 64.59 74.029 64.7313 73.9451 64.9213H73.6866V61.3625H73.9451C74.1501 62.3634 74.5448 63.1269 75.1294 63.6528C75.714 64.1788 76.344 64.4417 77.0194 64.4417C77.5411 64.4417 77.9568 64.3004 78.2666 64.0177C78.5763 63.7351 78.7312 63.4061 78.7312 63.0307C78.7312 62.8083 78.6718 62.5928 78.553 62.3843C78.4342 62.1758 78.2537 61.9777 78.0115 61.79C77.7693 61.6023 77.3408 61.3579 76.7259 61.0567C75.8642 60.635 75.2447 60.2759 74.8674 59.9793C74.4901 59.6827 74.2002 59.3514 73.9975 58.9853C73.7949 58.6193 73.6936 58.2161 73.6936 57.7759C73.6936 57.0252 73.9708 56.3857 74.5251 55.8575C75.0794 55.3292 75.778 55.0651 76.6211 55.0651C76.9286 55.0651 77.2267 55.1021 77.5155 55.1763C77.7344 55.2319 78.001 55.335 78.3155 55.4856C78.6299 55.6362 78.85 55.7115 78.9757 55.7115C79.0968 55.7115 79.1923 55.6744 79.2622 55.6003C79.3321 55.5261 79.3973 55.3477 79.4578 55.0651H79.6674ZM86.857 62.0228H83.5102L83.112 62.9403C82.9816 63.2462 82.9163 63.4987 82.9163 63.698C82.9163 63.9621 83.0235 64.1567 83.2377 64.2819C83.3635 64.356 83.6733 64.4116 84.167 64.4487V64.7059H81.0159V64.4487C81.3559 64.3977 81.6354 64.2575 81.8543 64.0282C82.0733 63.7988 82.3434 63.325 82.6648 62.6067L86.0535 55.0859H86.1862L89.6028 62.8152C89.9289 63.5474 90.1967 64.0085 90.4063 64.1984C90.5647 64.3421 90.7883 64.4255 91.0771 64.4487V64.7059H86.4936V64.4487H86.6823C87.0503 64.4487 87.3088 64.3977 87.4578 64.2958C87.5603 64.2216 87.6116 64.115 87.6116 63.976C87.6116 63.8926 87.5976 63.8069 87.5696 63.7188C87.5603 63.6771 87.4904 63.5034 87.36 63.1975L86.857 62.0228ZM86.6194 61.5085L85.208 58.2624L83.7548 61.5085H86.6194ZM95.0387 60.4102V63.0516C95.0387 63.5613 95.0701 63.8822 95.133 64.0143C95.1959 64.1463 95.3065 64.2517 95.4649 64.3305C95.6232 64.4093 95.919 64.4487 96.3522 64.4487V64.7059H91.5033V64.4487C91.9411 64.4487 92.2381 64.4081 92.3941 64.327C92.5501 64.2459 92.6596 64.1405 92.7225 64.0108C92.7854 63.881 92.8168 63.5613 92.8168 63.0516V56.9348C92.8168 56.4251 92.7854 56.1042 92.7225 55.9721C92.6596 55.8401 92.549 55.7347 92.3906 55.6559C92.2322 55.5771 91.9365 55.5377 91.5033 55.5377V55.2805H95.905C97.0509 55.2805 97.8893 55.3593 98.4203 55.5169C98.9513 55.6744 99.3845 55.9652 99.7199 56.3892C100.055 56.8132 100.223 57.3102 100.223 57.8801C100.223 58.5752 99.9714 59.1498 99.4684 59.604C99.147 59.8913 98.6975 60.1067 98.1199 60.2504L100.398 63.4408C100.696 63.8532 100.908 64.1104 101.033 64.2124C101.224 64.356 101.446 64.4348 101.697 64.4487V64.7059H98.7138L95.6605 60.4102H95.0387ZM95.0387 55.7879V59.9167H95.4369C96.0844 59.9167 96.5688 59.8577 96.8902 59.7395C97.2116 59.6213 97.4643 59.4082 97.6483 59.1C97.8323 58.7919 97.9242 58.3899 97.9242 57.894C97.9242 57.1758 97.7554 56.6452 97.4177 56.3023C97.08 55.9594 96.5362 55.7879 95.7862 55.7879H95.0387ZM106.812 64.4487V64.7059H101.858V64.4487H102.172C102.447 64.4487 102.668 64.4 102.836 64.3027C102.957 64.2378 103.05 64.1266 103.116 63.9691C103.167 63.8579 103.192 63.5659 103.192 63.0933V56.8931C103.192 56.4112 103.167 56.11 103.116 55.9895C103.064 55.869 102.961 55.7636 102.805 55.6733C102.649 55.5829 102.438 55.5377 102.172 55.5377H101.858V55.2805H106.812V55.5377H106.497C106.222 55.5377 106.001 55.5864 105.833 55.6837C105.712 55.7486 105.617 55.8598 105.547 56.0173C105.496 56.1285 105.47 56.4205 105.47 56.8931V63.0933C105.47 63.5752 105.497 63.8764 105.55 63.9969C105.604 64.1174 105.709 64.2228 105.865 64.3131C106.021 64.4035 106.232 64.4487 106.497 64.4487H106.812ZM113.093 62.0228H109.746L109.348 62.9403C109.217 63.2462 109.152 63.4987 109.152 63.698C109.152 63.9621 109.259 64.1567 109.474 64.2819C109.599 64.356 109.909 64.4116 110.403 64.4487V64.7059H107.252V64.4487C107.592 64.3977 107.871 64.2575 108.09 64.0282C108.309 63.7988 108.579 63.325 108.901 62.6067L112.289 55.0859H112.422L115.839 62.8152C116.165 63.5474 116.433 64.0085 116.642 64.1984C116.801 64.3421 117.024 64.4255 117.313 64.4487V64.7059H112.73V64.4487H112.918C113.286 64.4487 113.545 64.3977 113.694 64.2958C113.796 64.2216 113.847 64.115 113.847 63.976C113.847 63.8926 113.833 63.8069 113.806 63.7188C113.796 63.6771 113.726 63.5034 113.596 63.1975L113.093 62.0228ZM112.855 61.5085L111.444 58.2624L109.991 61.5085H112.855ZM126.508 61.3973L126.151 64.7059H117.739V64.4487H118.054C118.328 64.4487 118.55 64.4 118.717 64.3027C118.838 64.2378 118.932 64.1266 118.997 63.9691C119.048 63.8579 119.074 63.5659 119.074 63.0933V56.8931C119.074 56.4112 119.048 56.11 118.997 55.9895C118.946 55.869 118.842 55.7636 118.686 55.6733C118.53 55.5829 118.319 55.5377 118.054 55.5377H117.739V55.2805H122.791V55.5377H122.378C122.104 55.5377 121.882 55.5864 121.715 55.6837C121.594 55.7486 121.498 55.8598 121.428 56.0173C121.377 56.1285 121.351 56.4205 121.351 56.8931V62.8986C121.351 63.3806 121.379 63.6876 121.435 63.8196C121.491 63.9517 121.601 64.0502 121.764 64.115C121.88 64.1567 122.162 64.1776 122.609 64.1776H123.399C123.902 64.1776 124.321 64.0896 124.656 63.9135C124.992 63.7374 125.282 63.4593 125.526 63.0794C125.771 62.6994 126.002 62.1387 126.221 61.3973H126.508Z" fill="white"/>
<path fill-rule="evenodd" clip-rule="evenodd" d="M124.571 10.5764C127.532 10.5764 129.914 8.21988 129.914 5.28857C129.914 2.42229 127.532 6.10352e-05 124.571 6.10352e-05C121.61 6.10352e-05 119.224 2.42229 119.224 5.28857C119.224 8.21988 121.61 10.5764 124.571 10.5764Z" fill="white"/>
</svg>