<svg width="48" height="48" viewBox="0 0 48 48" fill="none" xmlns="http://www.w3.org/2000/svg">
<path d="M33.5625 6.25C38.2109 6.25 42.0625 10.1016 42.0625 14.75V19.5312C42.0625 20.4609 41.332 21.125 40.4688 21.125C39.5391 21.125 38.875 20.4609 38.875 19.5312V14.75C38.875 11.8281 36.4844 9.4375 33.5625 9.4375C30.5742 9.4375 28.25 11.8281 28.25 14.75V19H30.375C32.6992 19 34.625 20.9258 34.625 23.25V36C34.625 38.3906 32.6992 40.25 30.375 40.25H9.125C6.73438 40.25 4.875 38.3906 4.875 36V23.25C4.875 20.9258 6.73438 19 9.125 19H25.0625V14.75C25.0625 10.1016 28.8477 6.25 33.5625 6.25ZM30.375 22.1875H9.125C8.52734 22.1875 8.0625 22.7188 8.0625 23.25V36C8.0625 36.5977 8.52734 37.0625 9.125 37.0625H30.375C30.9062 37.0625 31.4375 36.5977 31.4375 36V23.25C31.4375 22.7188 30.9062 22.1875 30.375 22.1875ZM19.75 32.8125C18.8203 32.8125 18.1562 32.1484 18.1562 31.2188V28.0312C18.1562 27.168 18.8203 26.4375 19.75 26.4375C20.6133 26.4375 21.3438 27.168 21.3438 28.0312V31.2188C21.3438 32.1484 20.6133 32.8125 19.75 32.8125Z" fill="#0071CE"/>
</svg>