<svg width="77" height="40" viewBox="0 0 77 40" fill="none" xmlns="http://www.w3.org/2000/svg">
<g clip-path="url(#clip0_858_29021)">
<path fill-rule="evenodd" clip-rule="evenodd" d="M37.1379 15.676C37.1379 14.4916 37.1379 14.3456 36.3501 13.8102L36.0823 13.6317C35.9562 13.5181 35.9562 13.1774 36.1138 13.0963C36.7913 12.8529 38.4613 12.0741 39.1388 11.6198C39.2806 11.6198 39.4067 11.6847 39.4224 11.7983C39.3594 12.8529 39.3121 14.3131 39.3121 15.5462V20.9814C39.3121 23.1555 39.3752 23.4638 40.4308 23.6098L41.0453 23.6909C41.2501 23.837 41.1871 24.3561 40.9822 24.4535C40.0999 24.3886 39.2491 24.3561 38.225 24.3561C37.1694 24.3561 36.2871 24.3886 35.4678 24.4535C35.263 24.3561 35.2 23.8532 35.4048 23.6909L36.0192 23.6098C37.1064 23.4638 37.1379 23.1555 37.1379 20.9814V15.676ZM39.5485 8.86165C39.5485 9.91625 38.808 10.403 38.0202 10.403C37.1064 10.403 36.5234 9.73778 36.5234 8.92655C36.5234 7.93685 37.2639 7.32031 38.1147 7.32031C38.997 7.32031 39.5485 8.01797 39.5485 8.86165ZM27.2747 13.81C28.0625 14.3454 28.0625 14.4914 28.0625 15.6758V20.965C28.0625 23.1391 28.031 23.4149 26.9439 23.5934L26.3767 23.6745C26.1718 23.8368 26.2349 24.3397 26.4397 24.4371C27.2117 24.3722 28.094 24.3397 29.1496 24.3397C30.1895 24.3397 31.0245 24.3722 32.411 24.4371C32.6159 24.3397 32.6789 23.8205 32.4741 23.6745L31.4184 23.5934C30.3155 23.4961 30.2525 23.1391 30.2525 20.965V16.8602C30.2525 15.838 30.3313 14.9619 30.6307 14.5401C30.867 14.2156 31.2136 13.9398 31.6863 13.9398C32.0959 13.9398 32.5371 14.1182 32.9782 14.4265L33.0344 14.458C33.2111 14.5575 33.353 14.6374 33.6242 14.6374C34.0969 14.6374 34.8847 14.2318 34.8847 13.2421C34.8847 12.5282 34.2859 12.0415 33.5612 12.0415C32.4741 12.0415 31.3554 12.9825 30.3313 13.8586C30.2683 13.8262 30.2368 13.7288 30.2368 13.5828V11.8306C30.2368 11.717 30.1422 11.6521 30.0004 11.6196C29.2599 12.0739 27.7159 12.8527 27.0384 13.0961C26.8808 13.1772 26.8808 13.5179 27.0069 13.6315L27.2747 13.81ZM18.2628 16.6009C17.5065 16.6009 17.475 16.6658 17.475 17.4121C17.475 20.4624 19.2081 23.0583 22.3435 23.0583C23.3045 23.0583 24.1396 22.75 25.0377 21.5818C25.337 21.4845 25.5418 21.6792 25.5733 21.9388C24.6123 23.9993 22.4853 24.7456 20.9727 24.7456C19.0663 24.7456 17.5695 23.902 16.7187 22.75C15.8364 21.5656 15.4898 20.1541 15.4898 18.8237C15.4898 15.1082 17.8689 11.9931 21.3824 11.9931C23.9033 11.9931 25.5418 13.7778 25.5418 15.595C25.5418 16.0168 25.4788 16.2602 25.4315 16.3738C25.337 16.5522 24.9274 16.5847 23.6984 16.5847H18.2628V16.6009ZM20.0746 15.6923C22.2489 15.6923 22.8949 15.5787 23.1312 15.3841C23.2258 15.3192 23.3045 15.2056 23.3045 14.8162C23.3045 13.9725 22.7531 12.9179 21.0515 12.9179C19.3184 12.9179 17.8216 14.5566 17.7901 15.5463C17.7901 15.6112 17.7901 15.6923 17.9949 15.6923H20.0746ZM5.95756 15.4328C5.91527 15.3255 5.87456 15.2195 5.83461 15.1154C5.45781 14.1342 5.14735 13.3258 4.19294 13.1938L3.60999 13.0964C3.43667 12.8531 3.46819 12.4312 3.70452 12.3339C4.44503 12.3988 5.46914 12.4312 6.46174 12.4312C7.24952 12.4312 7.84823 12.3988 8.84083 12.3339C9.04565 12.4475 9.07716 12.9342 8.87234 13.0964L8.52572 13.1613C7.6119 13.3074 7.58038 13.4696 7.87974 14.362C8.54147 16.4549 9.39227 18.5641 10.0698 20.1379C10.1187 20.2475 10.1623 20.3463 10.2016 20.4351L10.2019 20.4358L10.202 20.4362L10.2022 20.4365C10.3776 20.8334 10.4652 21.0319 10.5424 21.1114C10.6685 21.0303 10.8733 20.5922 11.1096 19.9594C11.2678 19.5318 11.5363 18.8232 11.8159 18.0852L11.816 18.0849L11.8161 18.0846L11.8162 18.0844C12.2048 17.0585 12.6148 15.9762 12.7797 15.5139C13.1894 14.4593 13.3154 13.8266 13.3154 13.6481C13.3154 13.3723 13.1421 13.2587 12.7797 13.1938L12.1022 13.0964C11.9289 12.8855 11.9604 12.4637 12.1652 12.3339C13.0791 12.3988 13.8038 12.4312 14.371 12.4312C15.1115 12.4312 15.6 12.3988 16.4192 12.3339C16.6241 12.4475 16.6556 12.9017 16.4823 13.0964L16.0411 13.1613C15.1361 13.2904 14.8217 13.9263 14.1736 15.2369C14.0883 15.4094 13.9973 15.5935 13.8984 15.7897C13.4887 16.601 11.6611 20.9816 11.2042 22.2309C11.1025 22.4897 11.0028 22.7392 10.8998 22.9965C10.6996 23.4972 10.4875 24.0273 10.2273 24.7132C10.1643 24.7944 10.054 24.843 9.92796 24.843C9.78616 24.843 9.62861 24.8106 9.54983 24.7132C9.31349 23.8696 8.87234 22.6852 8.43118 21.5657L5.95756 15.4328ZM49.5846 15.0107C49.5846 14.1994 49.3798 13.226 49.112 12.5608C48.8599 12.3174 47.7728 12.0091 46.5438 12.0578C44.3223 12.0578 42.5577 13.2909 42.5577 15.4974C42.5577 17.1523 43.7551 18.2231 45.4567 19.2128C46.5438 19.8456 47.7097 20.5919 47.7097 21.9872C47.7097 23.2852 46.7959 23.918 45.7403 23.918C44.0702 23.918 43.1406 22.4578 42.6365 20.8029C42.4947 20.6244 42.1008 20.6568 41.959 20.8353C41.8959 21.825 42.0693 23.3014 42.3056 23.8855C43.0303 24.4858 44.0545 24.7941 45.4409 24.7941C47.6152 24.7941 49.6634 23.6422 49.6634 21.3545C49.6634 19.1966 48.2297 18.1745 46.6699 17.2659C46.6149 17.2328 46.5594 17.1996 46.5036 17.1662C45.5175 16.5764 44.4168 15.918 44.4168 14.7511C44.4168 13.664 45.1416 12.9015 46.2917 12.9015C47.5049 12.9015 48.3715 13.7776 48.8756 15.108C49.0332 15.2865 49.4744 15.2216 49.5846 15.0107Z" fill="white"/>
<path d="M71.028 9.60938H65.4663V18.7438C65.4663 20.204 64.3319 21.3722 62.9139 21.3722C61.4959 21.3722 60.3615 20.204 60.3615 18.7438V9.60938H54.7998C53.3661 9.60938 52.8146 10.6315 53.6024 11.8808L61.4959 24.5198C62.2679 25.7691 63.5441 25.7691 64.3319 24.5198L72.2254 11.8808C73.0132 10.6315 72.4775 9.60938 71.028 9.60938Z" fill="white"/>
<path d="M62.9298 8.89349C64.3478 8.89349 65.4822 7.72532 65.4822 6.2651C65.4822 4.83734 64.3478 3.63672 62.9298 3.63672C61.5118 3.63672 60.3774 4.83734 60.3774 6.2651C60.3774 7.72532 61.5118 8.89349 62.9298 8.89349Z" fill="white"/>
<path fill-rule="evenodd" clip-rule="evenodd" d="M60.0841 35.526L61.4741 32.3415C61.5522 32.1646 61.6772 32.0681 61.8646 32.0681H61.8958C62.0832 32.0681 62.2082 32.1646 62.2863 32.3415L63.6763 35.526C63.7075 35.5742 63.7075 35.6225 63.7075 35.6707C63.7075 35.8476 63.5669 35.9924 63.3951 35.9924C63.239 35.9924 63.1296 35.8959 63.0828 35.7511L62.786 35.0274H60.9743L60.662 35.7672C60.6151 35.912 60.4902 35.9763 60.3652 35.9763C60.1934 35.9763 60.0685 35.8315 60.0685 35.6707C60.0373 35.6225 60.0529 35.5742 60.0841 35.526ZM62.5205 34.4323L61.8646 32.8884L61.2086 34.4323H62.5205ZM61.6772 31.6661C61.6772 31.6339 61.6928 31.5856 61.724 31.5535L62.0208 31.071C62.0832 30.9745 62.1613 30.9102 62.2706 30.9102C62.4424 30.9102 62.6611 31.0227 62.6611 31.1192C62.6611 31.1836 62.6299 31.2318 62.5674 31.2801L62.2082 31.6339C62.0832 31.7626 61.9739 31.7786 61.8333 31.7786C61.7552 31.7786 61.6772 31.7304 61.6772 31.6661ZM5.42102 32.0682C4.29652 32.0682 3.5 32.9527 3.5 34.0625C3.5 35.1561 4.31214 36.0246 5.38978 36.0407C5.99888 36.0407 6.38933 35.8477 6.74855 35.526C6.81102 35.4778 6.85788 35.3813 6.85788 35.2848C6.85788 35.1239 6.71731 34.9792 6.54552 34.9792C6.46742 34.9792 6.38933 35.0114 6.34248 35.0596C6.06136 35.3008 5.79585 35.4295 5.4054 35.4295C4.68697 35.4295 4.17158 34.8184 4.17158 34.0625V34.0464C4.17158 33.3066 4.70259 32.6954 5.4054 32.6954C5.76461 32.6954 6.04574 32.8241 6.29563 33.0331C6.34248 33.0653 6.40495 33.0975 6.49866 33.0975C6.68608 33.0975 6.82664 32.9688 6.82664 32.7758C6.82664 32.6471 6.76417 32.5506 6.7017 32.5024C6.37372 32.2451 5.99888 32.0682 5.42102 32.0682ZM7.63876 32.438V34.3358C7.63876 35.4455 8.26348 36.0245 9.21619 36.0245C10.2001 36.0245 10.8248 35.4455 10.8248 34.3036V32.438C10.8248 32.245 10.6843 32.1003 10.4969 32.1003C10.3094 32.1003 10.1689 32.245 10.1689 32.438V34.3519C10.1689 35.0595 9.80967 35.4134 9.2318 35.4134C8.65394 35.4134 8.29472 35.0274 8.29472 34.3197V32.438C8.29472 32.245 8.15416 32.1003 7.96674 32.1003C7.77933 32.1003 7.63876 32.245 7.63876 32.438ZM11.8713 32.438C11.8713 32.245 12.0118 32.1003 12.1993 32.1003C12.3867 32.1003 12.5272 32.245 12.5272 32.438V35.6546C12.5272 35.8476 12.3867 35.9924 12.1993 35.9924C12.0118 35.9924 11.8713 35.8476 11.8713 35.6546V32.438ZM13.9641 32.1325C13.7767 32.1325 13.6361 32.2772 13.6361 32.4702H13.6205V35.6386C13.6205 35.8316 13.7611 35.9763 13.9485 35.9763H15.0105C16.1818 35.9763 16.994 35.14 16.994 34.0624V34.0463C16.994 32.9527 16.1818 32.1325 15.0105 32.1325H13.9641ZM16.3068 34.0624C16.3068 34.8022 15.7914 35.3491 15.0105 35.3491H14.2764V32.7436H15.0105C15.7914 32.7436 16.3068 33.2904 16.3068 34.0463V34.0624ZM17.4937 35.526L18.8838 32.3416C18.9618 32.1647 19.0868 32.0682 19.2742 32.0682H19.3054C19.4929 32.0682 19.6178 32.1647 19.6959 32.3416L21.0859 35.526C21.1171 35.5742 21.1171 35.6225 21.1171 35.6707C21.1171 35.8477 20.9766 35.9924 20.8048 35.9924C20.6486 35.9924 20.5393 35.8959 20.4924 35.7512L20.1957 35.0274H18.384L18.0716 35.7672C18.0248 35.912 17.8998 35.9763 17.7749 35.9763C17.6031 35.9763 17.4781 35.8316 17.4781 35.6707C17.4625 35.6225 17.4781 35.5742 17.4937 35.526ZM19.9302 34.4324L19.2742 32.8884L18.6182 34.4324H19.9302ZM22.2573 32.1325C22.0698 32.1325 21.9293 32.2772 21.9293 32.4702H21.9449V35.6546C21.9449 35.8476 22.0855 35.9924 22.2729 35.9924C22.4603 35.9924 22.6008 35.8476 22.6008 35.6546V34.6253H23.4286L24.3344 35.8155C24.3969 35.9281 24.4906 35.9924 24.6468 35.9924C24.803 35.9924 24.9592 35.8798 24.9592 35.6868C24.9592 35.5903 24.9123 35.5099 24.8498 35.4295L24.1314 34.4967C24.6312 34.3358 24.9748 33.9659 24.9748 33.3548V33.3387C24.9748 33.017 24.8655 32.7275 24.6624 32.5185C24.4282 32.2772 24.0533 32.1325 23.5848 32.1325H22.2573ZM24.3188 33.3869C24.3188 33.7729 24.0221 34.0303 23.5535 34.0303V34.0142H22.6008V32.7275H23.5535C24.0377 32.7275 24.3188 32.9527 24.3188 33.3709V33.3869ZM26.7865 32.7436H25.8806C25.7088 32.7436 25.5839 32.5989 25.5839 32.438C25.5839 32.2772 25.7244 32.1325 25.8806 32.1325H28.3639C28.5357 32.1325 28.6606 32.2772 28.6606 32.438C28.6606 32.5989 28.5201 32.7436 28.3639 32.7436H27.458V35.6546C27.458 35.8476 27.3019 35.9924 27.1301 35.9924C26.9427 35.9924 26.8021 35.8476 26.8021 35.6546V32.7436H26.7865ZM29.7539 32.1325C29.5665 32.1325 29.4259 32.2772 29.4259 32.4702V35.6225C29.4259 35.8155 29.5665 35.9602 29.7695 35.9763H31.956C32.1122 35.9763 32.2528 35.8476 32.2528 35.6707C32.2528 35.5099 32.1122 35.3651 31.956 35.3651H30.0819V34.3358H31.6905C31.8467 34.3358 31.9873 34.2072 31.9873 34.0463C31.9873 33.8855 31.8467 33.7408 31.6905 33.7408H30.0819V32.7436H31.9248C32.081 32.7436 32.2216 32.615 32.2216 32.438C32.2216 32.2772 32.081 32.1325 31.9248 32.1325H29.7539ZM34.7985 32.4702C34.7985 32.2772 34.9391 32.1325 35.1265 32.1325H37.2974C37.4536 32.1325 37.5941 32.2772 37.5941 32.438C37.5941 32.615 37.4536 32.7436 37.2974 32.7436H35.4545V33.7408H37.0631C37.2193 33.7408 37.3599 33.8855 37.3599 34.0463C37.3599 34.2072 37.2193 34.3358 37.0631 34.3358H35.4545V35.3651H37.3286C37.4848 35.3651 37.6254 35.5099 37.6254 35.6707C37.6254 35.8476 37.4848 35.9763 37.3286 35.9763H35.1421C34.9547 35.9602 34.7985 35.8155 34.7985 35.6225V32.4702ZM38.2657 35.2847C38.2657 35.3973 38.3126 35.4938 38.3907 35.542C38.7968 35.8476 39.2809 36.0245 39.7807 36.0567C40.5616 36.0567 41.1082 35.6385 41.1082 34.9148V34.8987C41.1082 34.2554 40.7022 33.9659 39.9212 33.7729C39.2028 33.596 39.031 33.4512 39.031 33.1618V33.1457C39.031 32.9044 39.2497 32.6953 39.6401 32.6953C39.9369 32.6953 40.218 32.7918 40.4991 32.9848C40.546 33.017 40.6084 33.0331 40.6709 33.0331C40.8427 33.0331 40.9833 32.9044 40.9833 32.7275C40.9833 32.5989 40.9208 32.5024 40.8427 32.4541C40.4991 32.2289 40.1243 32.1003 39.6557 32.1003C38.9217 32.1003 38.3907 32.5506 38.3907 33.21V33.2261C38.3907 33.9337 38.828 34.175 39.6245 34.368C40.3117 34.5288 40.4679 34.6736 40.4679 34.947V34.963C40.4679 35.2525 40.218 35.4455 39.8119 35.4455C39.4059 35.4455 39.0779 35.3008 38.7655 35.0435C38.7343 35.0113 38.6718 34.9791 38.5781 34.9791C38.4063 34.9791 38.2657 35.1078 38.2657 35.2847ZM44.6067 32.7436H43.7008C43.529 32.7436 43.4041 32.5989 43.4041 32.438C43.4041 32.2772 43.5446 32.1325 43.7008 32.1325H46.1841C46.3559 32.1325 46.4808 32.2772 46.4808 32.438C46.4808 32.5989 46.3403 32.7436 46.1841 32.7436H45.2782V35.6546C45.2782 35.8476 45.1221 35.9924 44.9503 35.9924C44.7628 35.9924 44.6223 35.8476 44.6223 35.6546V32.7436H44.6067ZM48.0114 32.3416L46.6214 35.526C46.5901 35.5742 46.5745 35.6225 46.5901 35.6707C46.5901 35.8316 46.7151 35.9763 46.8869 35.9763C47.0118 35.9763 47.1368 35.912 47.1836 35.7672L47.496 35.0274H49.3233L49.62 35.7512C49.6669 35.8959 49.7762 35.9924 49.9324 35.9924C50.1042 35.9924 50.2448 35.8477 50.2448 35.6707C50.2448 35.6225 50.2448 35.5742 50.2135 35.526L48.8235 32.3416C48.7454 32.1647 48.6205 32.0682 48.4331 32.0682H48.4018C48.2144 32.0682 48.0895 32.1647 48.0114 32.3416ZM48.4018 32.8884L49.0578 34.4324H47.7459L48.4018 32.8884ZM51.0413 32.438C51.0413 32.245 51.1818 32.1003 51.3693 32.1003H51.4317C51.5879 32.1003 51.6816 32.1807 51.7753 32.2933L53.6339 34.7701V32.4059C53.6339 32.229 53.7744 32.0842 53.9462 32.0842C54.1337 32.0842 54.2742 32.229 54.2742 32.4059V35.6225C54.2742 35.8155 54.1337 35.9602 53.9619 35.9602H53.9306C53.7744 35.9602 53.6807 35.8798 53.587 35.7511L51.666 33.1939V35.6546C51.666 35.8315 51.5254 35.9763 51.3536 35.9763C51.1662 35.9763 51.0257 35.8315 51.0257 35.6546V32.438H51.0413ZM57.3978 32.1325C57.2104 32.1325 57.0698 32.2772 57.0698 32.4702V35.6546C57.0698 35.8476 57.2104 35.9924 57.3978 35.9924C57.5852 35.9924 57.7258 35.8476 57.7258 35.6546V34.4002H59.3345C59.4906 34.4002 59.6312 34.2554 59.6312 34.0946C59.6312 33.9338 59.5063 33.789 59.3345 33.789H57.7258V32.7436H59.5687C59.7249 32.7436 59.8655 32.5989 59.8655 32.438C59.8655 32.2772 59.7405 32.1325 59.5687 32.1325H57.3978ZM66.1127 32.0682C64.9882 32.0682 64.1917 32.9527 64.1917 34.0625C64.1917 35.1561 65.0038 36.0246 66.0814 36.0407C66.6905 36.0407 67.081 35.8477 67.4402 35.526C67.5027 35.4778 67.5495 35.3813 67.5495 35.2848C67.5495 35.1239 67.409 34.9792 67.2372 34.9792C67.1591 34.9792 67.081 35.0114 67.0341 35.0596C66.753 35.3008 66.4875 35.4295 66.0971 35.4295C65.3786 35.4295 64.8632 34.8184 64.8632 34.0625V34.0464C64.8632 33.3066 65.3943 32.6954 66.0971 32.6954C66.4563 32.6954 66.7374 32.8241 66.9873 33.0331C67.0341 33.0653 67.0966 33.0975 67.1903 33.0975C67.3777 33.0975 67.5183 32.9688 67.5183 32.7758C67.5183 32.6471 67.4558 32.5506 67.3934 32.5024C67.0654 32.2451 66.6906 32.0682 66.1127 32.0682ZM68.4241 32.438C68.4241 32.245 68.5647 32.1003 68.7521 32.1003C68.9395 32.1003 69.0801 32.245 69.0801 32.438V35.6546C69.0801 35.8476 68.9395 35.9924 68.7521 35.9924C68.5647 35.9924 68.4241 35.8476 68.4241 35.6546V32.438ZM70.517 32.1003C70.3295 32.1003 70.189 32.245 70.189 32.438V35.6225C70.189 35.8154 70.3295 35.9602 70.517 35.9602H72.5317C72.6879 35.9602 72.8284 35.8154 72.8284 35.6546C72.8284 35.4938 72.7035 35.349 72.5317 35.349H70.8449V32.438C70.8449 32.245 70.7044 32.1003 70.517 32.1003Z" fill="white"/>
</g>
<defs>
<clipPath id="clip0_858_29021">
<rect width="70" height="32.7273" fill="white" transform="translate(3.5 3.63672)"/>
</clipPath>
</defs>
</svg>
