<?xml version="1.0" encoding="UTF-8"?>
<svg xmlns="http://www.w3.org/2000/svg" version="1.1" viewBox="0 0 472.66 137.56">
  <defs>
    <style>
      .cls-1 {
        fill: none;
      }

      .cls-2 {
        fill: #006ec7;
      }

      .cls-3 {
        fill: #fff;
      }

      .cls-4 {
        fill: #001280;
      }
    </style>
  </defs>
  <!-- Generator: Adobe Illustrator 28.6.0, SVG Export Plug-In . SVG Version: 1.2.0 Build 709)  -->
  <g>
    <g id="Capa_1">
      <g>
        <path class="cls-1" d="M106.09,79.3c-.76.13-1.53.15-2.3.15-5.72,0-11.43,0-17.15,0v4.25c0,.63-.51,1.14-1.14,1.14s-1.14-.51-1.14-1.14v-4.25c-1.41,0-2.83,0-4.24,0-1.45,0-2.87.15-4.22.72-2.21.94-3.86,2.48-4.93,4.63-.64,1.27-.96,2.62-.96,4.05.01,9.41.01,18.83,0,28.24,0,3.45-1.19,6.35-4.07,8.42-1.31.94-2.77,1.5-4.37,1.69-.5.06-1,.1-1.5.1-4.18,0-8.36.02-12.54.02,1.4,4.59,5.67,7.94,10.72,7.94h16.25c6.18,0,11.2-5.03,11.2-11.21v-23.18c0-7.44,6.05-13.5,13.5-13.5h19.4c6.18,0,11.2-5.03,11.2-11.2v-16.92c0-6.18-5.03-11.21-11.2-11.21h-4.58c.02,7.27,0,14.55.01,21.82,0,4.71-3.43,8.68-7.92,9.43Z"/>
        <path class="cls-1" d="M10.86,66.82c.93-.22,1.91-.36,2.87-.37,8.16-.03,16.31-.01,24.47-.02,2.62,0,4.79-.84,6.54-2.46v-8.2c0-.63.51-1.14,1.14-1.14s1.14.51,1.14,1.14v5.06c.43-.96.68-1.98.76-3.05.04-.62.09-1.25.09-1.87,0-2.62,0-5.24,0-7.85H13.49c-6.18,0-11.21,5.03-11.21,11.21v20.05c0,2.07.58,4.01,1.56,5.68,0-2.96,0-5.92-.03-8.88-.04-4.6,3.33-8.41,7.04-9.3Z"/>
        <path class="cls-3" d="M88.83,38.16c.01.1.02.21.02.31,0,2.43,0,4.87,0,7.3h24.99c-.03-.2-.06-.4-.1-.59-.99-4.18-4.69-7.32-9.43-7.34-3.07-.01-6.15,0-9.22,0-2.08,0-4.16-.01-6.23-.02-.02,0-.04.02-.06.04.01.1.03.21.04.31Z"/>
        <path class="cls-3" d="M44.73,108.07s.02-.08.03-.13c-.43.07-.87.1-1.32.1-4.66,0-9.33,0-13.99,0-.14,0-.28-.02-.42-.03-.02.02-.03.04-.03.06,0,.21.02.42.02.63,0,2.88.03,5.76,0,8.65-.03,1.93.4,3.73,1.43,5.36,1.84,2.89,4.49,4.54,7.91,4.58,2.26.03,4.53.04,6.79.04-.26-1.05-.41-2.13-.41-3.26v-16Z"/>
        <path class="cls-3" d="M88.85,52.83c0,2.43-.76,4.56-2.21,6.47v20.16c5.72,0,11.43,0,17.15,0,.77,0,1.55-.02,2.3-.15,4.49-.75,7.92-4.72,7.92-9.43,0-7.27,0-14.55-.01-21.82h-25.15c0,1.59,0,3.18,0,4.77Z"/>
        <path class="cls-3" d="M60.05,127.31c.5,0,1-.04,1.5-.1,1.6-.18,3.06-.75,4.37-1.69,2.88-2.07,4.07-4.97,4.07-8.42,0-9.41,0-18.83,0-28.24,0-1.44.32-2.78.96-4.05,1.07-2.15,2.72-3.69,4.93-4.63,1.35-.57,2.78-.72,4.22-.72,1.41,0,2.83,0,4.24,0v-17.29c-1.48,1.85-2.95,3.72-4.43,5.57-2.35,2.96-4.71,5.92-7.06,8.87-2.38,2.98-4.75,5.97-7.13,8.95-2.16,2.71-4.32,5.42-6.48,8.13-2.36,2.97-4.71,5.96-7.09,8.92-1.14,1.42-2.17,2.96-3.78,3.94-.52.32-1.06.59-1.61.82.15.19.26.43.26.7v16c0,1.13.17,2.23.49,3.26,4.18,0,8.36-.02,12.54-.02Z"/>
        <path class="cls-3" d="M29.05,92.81h-15.55c-3.77,0-7.19-1.56-9.64-4.07,0,3.23-.01,6.46,0,9.69,0,.74.06,1.5.25,2.21.95,3.74,3.34,6.11,7.04,7.14.83.23,1.74.26,2.62.26,5.08.03,10.16.02,15.24.02,0-.02.02-.04.03-.06,0-5.07-.04-10.13.01-15.2Z"/>
        <path class="cls-3" d="M47.78,57.78c-.08,1.07-.33,2.09-.76,3.05v5.93c.95-1.2,1.9-2.39,2.85-3.59,2.01-2.52,4.02-5.04,6.02-7.56,2.01-2.52,4-5.06,6.02-7.57h-14.03c0,2.62,0,5.24,0,7.85,0,.62-.05,1.25-.09,1.87Z"/>
        <path class="cls-3" d="M68.34,40.3c1.38-1.52,3.31-2.32,5.38-2.37,3.54-.08,7.09-.09,10.63-.1v-17.74c-1.5-.94-3.26-1.43-5.28-1.45-7.16-.06-14.32-.02-21.48,0-.77,0-1.56.06-2.31.24-4.31,1-7.42,4.98-7.4,9.21.02,5.89.02,11.79.01,17.68h15.87c1.49-1.86,2.99-3.71,4.58-5.47Z"/>
        <path class="cls-3" d="M37.61,78.59c2.01-2.52,4.02-5.04,6.02-7.56.37-.46.73-.92,1.1-1.38v-5.67c-1.75,1.63-3.92,2.46-6.54,2.46-8.16,0-16.31-.01-24.47.02-.96,0-1.93.14-2.87.37-3.71.89-7.08,4.69-7.04,9.3.03,2.96.03,5.92.03,8.88,1.95,3.3,5.54,5.53,9.64,5.53h15.76c.33-1.46,1.06-2.79,2.04-4.01,2.12-2.63,4.21-5.28,6.32-7.92Z"/>
        <path class="cls-2" d="M88.79,37.85h0s.04-.03.06-.04h0s-.04.02-.06.04Z"/>
        <path class="cls-4" d="M88.83,38.16c-.01-.1-.03-.21-.04-.31h0c.01.1.03.21.04.31Z"/>
        <path class="cls-3" d="M118.59,45.77h-4.75c.1.56.16,1.12.16,1.68,0,.2,0,.41,0,.61h4.58c6.18,0,11.2,5.03,11.2,11.21v16.92c0,6.18-5.03,11.2-11.2,11.2h-19.4c-7.44,0-13.5,6.05-13.5,13.5v23.18c0,6.18-5.03,11.21-11.2,11.21h-16.25c-5.04,0-9.32-3.35-10.72-7.94-.79,0-1.57,0-2.36,0,1.46,5.87,6.77,10.23,13.08,10.23h16.25c7.44,0,13.49-6.05,13.49-13.49v-23.18c0-6.18,5.03-11.21,11.21-11.21h19.4c7.44,0,13.49-6.05,13.49-13.49v-16.92c0-7.44-6.05-13.5-13.49-13.5Z"/>
        <path class="cls-3" d="M46.36,62.05c.26-.39.48-.8.66-1.22v-5.06c0-.63-.51-1.14-1.14-1.14s-1.14.51-1.14,1.14v8.2c.59-.55,1.13-1.19,1.63-1.92Z"/>
        <path class="cls-3" d="M3.85,84.99c-.99-1.67-1.56-3.61-1.56-5.68v-20.05c0-6.18,5.03-11.21,11.21-11.21h34.39c0-.76,0-1.53,0-2.29H13.49c-7.44,0-13.49,6.05-13.49,13.5v20.05c0,3.67,1.48,6.99,3.86,9.43,0-1.25,0-2.5,0-3.75Z"/>
        <path class="cls-3" d="M88.85,48.06h25.15c0-.2,0-.41,0-.61,0-.56-.07-1.12-.16-1.68h-24.99c0,.76,0,1.53,0,2.29Z"/>
        <path class="cls-3" d="M61.92,48.06c.08-.09.15-.19.22-.28.54-.67,1.08-1.34,1.61-2.01h-15.87c0,.76,0,1.53,0,2.29h14.03Z"/>
        <path class="cls-3" d="M46.36,62.05c-.49.73-1.03,1.37-1.63,1.92v5.67c.76-.96,1.53-1.92,2.29-2.88v-5.93c-.19.42-.4.83-.66,1.22Z"/>
        <path class="cls-3" d="M88.85,45.77h-25.1c-.54.67-1.07,1.34-1.61,2.01-.08.09-.15.19-.22.28h26.94c0-.76,0-1.53,0-2.29Z"/>
        <path class="cls-3" d="M47.02,79.32v-12.55c-.76.96-1.53,1.92-2.29,2.88v9.67c0,6.18-5.03,11.21-11.21,11.21h-4.27c-.12.54-.2,1.1-.2,1.67,0,.21,0,.41,0,.62h4.48c7.44,0,13.49-6.05,13.49-13.5Z"/>
        <path class="cls-3" d="M45.88,106.92c-.59,0-1.05.45-1.12,1.02.69-.11,1.36-.3,2-.57-.21-.27-.52-.45-.89-.45Z"/>
        <path class="cls-3" d="M86.64,22.17v-8.68c0-7.44-6.05-13.5-13.49-13.5h-15.69c-7.44,0-13.5,6.05-13.5,13.5v26.1c0,.63.51,1.14,1.14,1.14s1.14-.51,1.14-1.14V13.5c0-6.18,5.03-11.21,11.21-11.21h15.69c6.18,0,11.21,5.03,11.21,11.21v6.6c.86.54,1.62,1.24,2.29,2.08Z"/>
        <path class="cls-3" d="M85.5,40.74c.63,0,1.14-.51,1.14-1.14v-1.77c-.76,0-1.53,0-2.29,0v1.76c0,.63.51,1.14,1.14,1.14Z"/>
        <path class="cls-3" d="M84.35,83.71c0,.63.51,1.14,1.14,1.14s1.14-.51,1.14-1.14v-4.25c-.76,0-1.53,0-2.29,0v4.25Z"/>
        <path class="cls-3" d="M85.5,53.25c-.63,0-1.14.51-1.14,1.15v7.76c.67-.84,1.34-1.68,2.02-2.52.1-.12.18-.24.27-.35v-4.9c0-.63-.51-1.15-1.14-1.15Z"/>
        <path class="cls-3" d="M234.15,33.27c-7.32,0-12.69,1.03-17.64,2.89-2.48.93-4.23,3.3-4.23,6.09,0,3.61,2.89,6.4,6.5,6.4.72,0,1.34-.1,2.27-.41,2.99-.93,6.5-1.55,10.83-1.55,7.84,0,11.86,3.61,11.86,10.11v.93c-3.92-1.34-7.94-2.27-13.51-2.27-13.1,0-22.28,5.57-22.28,17.64v.21c0,10.93,8.56,16.92,18.98,16.92,7.63,0,12.89-2.79,16.71-7.01v.1c0,3.3,2.99,6.5,7.53,6.5,4.23,0,7.63-3.3,7.63-7.53v-25.17c0-7.43-1.86-13.51-5.98-17.64-3.92-3.92-10.11-6.19-18.67-6.19ZM243.95,69.68c0,5.67-4.95,9.7-12.27,9.7-5.05,0-8.56-2.48-8.56-6.7v-.21c0-4.95,4.13-7.63,10.83-7.63,3.82,0,7.32.82,10.01,2.06v2.78Z"/>
        <path class="cls-3" d="M271.91,89.8c4.33,0,7.84-3.51,7.84-7.84v-14.65c0-11.14,4.44-17.23,12.38-19.08,3.2-.72,5.88-3.2,5.88-7.32,0-4.44-2.78-7.63-7.63-7.63s-8.35,4.95-10.62,10.32v-2.48c0-4.33-3.51-7.84-7.84-7.84s-7.84,3.51-7.84,7.84v40.85c0,4.33,3.51,7.84,7.84,7.84Z"/>
        <path class="cls-3" d="M319.47,55.45c-13.1,0-22.28,5.57-22.28,17.64v.21c0,10.93,8.56,16.92,18.98,16.92,7.63,0,12.89-2.79,16.71-7.01v.1c0,3.3,2.99,6.5,7.53,6.5,4.23,0,7.63-3.3,7.63-7.53v-25.17c0-7.43-1.86-13.51-5.98-17.64-3.92-3.92-10.11-6.19-18.67-6.19-7.32,0-12.69,1.03-17.64,2.89-2.48.93-4.23,3.3-4.23,6.09,0,3.61,2.89,6.4,6.5,6.4.72,0,1.34-.1,2.27-.41,2.99-.93,6.5-1.55,10.83-1.55,7.84,0,11.86,3.61,11.86,10.11v.93c-3.92-1.34-7.94-2.27-13.51-2.27ZM333.19,66.9v2.78c0,5.67-4.95,9.7-12.27,9.7-5.05,0-8.56-2.48-8.56-6.7v-.21c0-4.95,4.13-7.63,10.83-7.63,3.82,0,7.32.82,10.01,2.06Z"/>
        <path class="cls-3" d="M160,90.83c4.45,0,7.96-3.52,7.96-7.96v-14.37h12.1c16.24,0,29.26-8.69,29.26-25.44v-.21c0-14.79-10.44-25.03-27.71-25.03h-21.61c-4.45,0-7.96,3.52-7.96,7.96v57.08c0,4.45,3.52,7.96,7.96,7.96ZM167.96,32.2h12.31c7.96,0,12.93,3.83,12.93,10.96v.21c0,6.2-4.65,10.96-12.62,10.96h-12.62v-22.13Z"/>
        <path class="cls-3" d="M463.68,75.74c-5.16,0-8.97,3.02-8.97,6.95v.16c0,3.92,3.82,6.95,8.97,6.95s8.97-3.02,8.97-6.95v-.16c0-3.92-3.82-6.95-8.97-6.95Z"/>
        <path class="cls-3" d="M439.87,91.04c4.33,0,7.84-3.51,7.84-7.84v-40.85c0-4.33-3.51-7.84-7.84-7.84s-7.84,3.51-7.84,7.84v40.85c0,4.33,3.51,7.84,7.84,7.84Z"/>
        <path class="cls-3" d="M427.46,25.58c0-4.45-3.52-7.96-7.96-7.96h-1.76c-3.21,0-5.48,1.34-7.14,4.03l-19.34,31.44-19.23-31.33c-1.45-2.38-3.83-4.14-7.24-4.14h-1.76c-4.45,0-7.96,3.52-7.96,7.96v57.7c0,4.34,3.41,7.76,7.76,7.76s7.86-3.41,7.86-7.76v-35.99l13.75,21.2c1.65,2.48,3.72,4.03,6.62,4.03s4.96-1.55,6.62-4.03l13.96-21.51v36.09c0,4.34,3.52,7.96,7.86,7.96s7.96-3.52,7.96-7.96V25.58Z"/>
        <g>
          <path class="cls-3" d="M171.72,127.17c-.34,0-.64.17-.84.37-2.01,1.85-4.06,2.85-6.98,2.85-5.17,0-9.1-4.26-9.1-9.7v-.07c0-5.41,3.89-9.64,9.1-9.64,2.89,0,4.94,1.07,6.75,2.69.2.14.5.3.87.3.71,0,1.34-.61,1.34-1.31,0-.47-.27-.84-.54-1.07-2.18-1.81-4.6-3.06-8.4-3.06-6.92,0-11.89,5.51-11.89,12.16v.07c0,6.75,5,12.09,11.79,12.09,3.86,0,6.41-1.34,8.73-3.46.23-.2.44-.54.44-.94,0-.67-.6-1.27-1.28-1.27Z"/>
          <path class="cls-3" d="M192.6,130.03h-13.43v-8.23h11.75c.67,0,1.21-.54,1.21-1.21s-.54-1.21-1.21-1.21h-11.75v-8.03h13.26c.67,0,1.21-.54,1.21-1.21s-.54-1.21-1.21-1.21h-14.61c-.7,0-1.31.6-1.31,1.34v20.82c0,.74.6,1.34,1.31,1.34h14.78c.67,0,1.21-.54,1.21-1.21s-.54-1.21-1.21-1.21Z"/>
          <path class="cls-3" d="M216.28,108.77c-.74,0-1.31.6-1.31,1.31v17.73l-14.27-18.2c-.37-.47-.74-.77-1.34-.77h-.37c-.71,0-1.31.6-1.31,1.31v21.16c0,.7.57,1.31,1.28,1.31s1.31-.6,1.31-1.31v-18.2l14.57,18.64c.4.47.81.81,1.38.81h.14c.7,0,1.21-.54,1.21-1.24v-21.22c0-.71-.57-1.31-1.28-1.31Z"/>
          <path class="cls-3" d="M238.57,108.94h-16.32c-.67,0-1.24.57-1.24,1.24s.57,1.21,1.24,1.21h6.82v19.88c0,.74.6,1.34,1.34,1.34s1.34-.6,1.34-1.34v-19.88h6.82c.67,0,1.24-.54,1.24-1.21s-.57-1.24-1.24-1.24Z"/>
          <path class="cls-3" d="M253.38,108.94h-8.8c-.71,0-1.31.6-1.31,1.34v20.99c0,.74.6,1.34,1.31,1.34s1.34-.6,1.34-1.34v-7.96h6.75l6.62,8.6c.3.4.7.71,1.24.71.67,0,1.34-.6,1.34-1.31,0-.37-.17-.67-.44-.97l-5.84-7.52c3.66-.71,6.28-2.96,6.28-6.82v-.07c0-1.85-.67-3.49-1.81-4.63-1.48-1.48-3.79-2.35-6.68-2.35ZM259.19,116.09c0,3.02-2.52,4.84-6.04,4.84h-7.22v-9.54h7.25c3.79,0,6.01,1.75,6.01,4.63v.07Z"/>
          <path class="cls-3" d="M277.19,108.53c-7.15,0-12.02,5.68-12.02,12.16v.07c0,6.48,4.8,12.09,11.95,12.09s12.02-5.67,12.02-12.16v-.07c0-6.48-4.8-12.09-11.95-12.09ZM286.39,120.76c0,5.34-3.83,9.64-9.2,9.64s-9.27-4.36-9.27-9.7v-.07c0-5.34,3.83-9.64,9.2-9.64s9.27,4.36,9.27,9.7v.07Z"/>
          <path class="cls-3" d="M301.67,119.41c-5.17-1.11-6.38-2.35-6.38-4.57v-.07c0-2.12,1.95-3.79,5-3.79,2.18,0,4.1.6,6.08,2.05.24.17.47.24.77.24.71,0,1.28-.57,1.28-1.28,0-.5-.3-.87-.57-1.07-2.15-1.54-4.4-2.32-7.49-2.32-4.47,0-7.72,2.72-7.72,6.41v.07c0,3.86,2.48,5.61,7.89,6.78,4.94,1.04,6.11,2.28,6.11,4.47v.07c0,2.32-2.08,4-5.24,4-2.99,0-5.21-.91-7.42-2.79-.17-.17-.47-.3-.81-.3-.7,0-1.28.57-1.28,1.31,0,.44.2.81.5,1.01,2.62,2.08,5.47,3.16,8.9,3.16,4.67,0,8.03-2.62,8.03-6.65v-.07c0-3.59-2.42-5.51-7.66-6.65Z"/>
          <path class="cls-3" d="M343.31,108.84h-.3c-.54,0-.97.27-1.24.7l-8.4,12.63-8.4-12.63c-.27-.4-.67-.7-1.24-.7h-.3c-.7,0-1.31.6-1.31,1.31v21.16c0,.74.57,1.31,1.28,1.31s1.31-.57,1.31-1.31v-17.53l7.49,11.01c.3.44.67.67,1.14.67s.81-.24,1.11-.67l7.52-11.05v17.53c0,.7.6,1.34,1.34,1.34s1.31-.6,1.31-1.34v-21.12c0-.7-.6-1.31-1.31-1.31Z"/>
          <path class="cls-3" d="M366.01,130.03h-13.43v-8.23h11.75c.67,0,1.21-.54,1.21-1.21s-.54-1.21-1.21-1.21h-11.75v-8.03h13.26c.67,0,1.21-.54,1.21-1.21s-.54-1.21-1.21-1.21h-14.61c-.71,0-1.31.6-1.31,1.34v20.82c0,.74.6,1.34,1.31,1.34h14.78c.67,0,1.21-.54,1.21-1.21s-.54-1.21-1.21-1.21Z"/>
          <path class="cls-3" d="M358.39,106.99c.64,0,1.04-.1,1.58-.64l2.52-2.38c.27-.27.47-.5.47-.77,0-.47-1.01-1.01-1.81-1.01-.5,0-.87.27-1.21.77l-2.02,3.06c-.1.13-.17.34-.17.5,0,.27.27.47.64.47Z"/>
          <path class="cls-3" d="M379.24,108.94h-6.85c-.7,0-1.31.6-1.31,1.34v20.82c0,.74.61,1.34,1.31,1.34h6.85c7.39,0,12.49-5.14,12.49-11.75v-.07c0-6.62-5.1-11.69-12.49-11.69ZM388.98,120.76c0,5.2-3.79,9.23-9.74,9.23h-5.51v-18.6h5.51c5.94,0,9.74,4.1,9.74,9.3v.07Z"/>
          <path class="cls-3" d="M397.54,108.77c-.7,0-1.31.6-1.31,1.34v21.16c0,.74.6,1.34,1.31,1.34s1.34-.6,1.34-1.34v-21.16c0-.74-.6-1.34-1.34-1.34Z"/>
          <path class="cls-3" d="M423.06,127.17c-.34,0-.64.17-.84.37-2.02,1.85-4.06,2.85-6.98,2.85-5.17,0-9.1-4.26-9.1-9.7v-.07c0-5.41,3.9-9.64,9.1-9.64,2.89,0,4.94,1.07,6.75,2.69.2.14.5.3.87.3.71,0,1.34-.61,1.34-1.31,0-.47-.27-.84-.54-1.07-2.18-1.81-4.6-3.06-8.4-3.06-6.92,0-11.89,5.51-11.89,12.16v.07c0,6.75,5,12.09,11.79,12.09,3.86,0,6.41-1.34,8.73-3.46.24-.2.44-.54.44-.94,0-.67-.6-1.27-1.28-1.27Z"/>
          <path class="cls-3" d="M438.17,108.53c-7.15,0-12.02,5.68-12.02,12.16v.07c0,6.48,4.8,12.09,11.95,12.09s12.02-5.67,12.02-12.16v-.07c0-6.48-4.8-12.09-11.95-12.09ZM447.38,120.76c0,5.34-3.83,9.64-9.2,9.64s-9.27-4.36-9.27-9.7v-.07c0-5.34,3.83-9.64,9.2-9.64s9.27,4.36,9.27,9.7v.07Z"/>
          <path class="cls-3" d="M462.65,119.41c-5.17-1.11-6.38-2.35-6.38-4.57v-.07c0-2.12,1.95-3.79,5-3.79,2.18,0,4.1.6,6.08,2.05.24.17.47.24.77.24.71,0,1.28-.57,1.28-1.28,0-.5-.3-.87-.57-1.07-2.15-1.54-4.4-2.32-7.49-2.32-4.47,0-7.72,2.72-7.72,6.41v.07c0,3.86,2.49,5.61,7.89,6.78,4.94,1.04,6.11,2.28,6.11,4.47v.07c0,2.32-2.08,4-5.24,4-2.99,0-5.21-.91-7.42-2.79-.17-.17-.47-.3-.81-.3-.71,0-1.28.57-1.28,1.31,0,.44.2.81.5,1.01,2.62,2.08,5.47,3.16,8.9,3.16,4.67,0,8.03-2.62,8.03-6.65v-.07c0-3.59-2.42-5.51-7.66-6.65Z"/>
        </g>
        <path class="cls-3" d="M439.62,28.32c3.52,0,6-.62,9-3.41l6.41-6c1.24-1.14,2.07-2.27,2.07-3.72,0-2.38-4.96-4.76-8.79-4.76-2.59,0-4.55,1.34-5.89,3.52l-5.69,8.89c-.52.83-1.03,1.86-1.03,2.79,0,1.65,1.65,2.69,3.93,2.69Z"/>
      </g>
    </g>
  </g>
</svg>