<svg width="32" height="32" viewBox="0 0 32 32" fill="none" xmlns="http://www.w3.org/2000/svg">
<path d="M13.5 6.75V8H18.5V6.75C18.5 6.08594 19.0469 5.5 19.75 5.5C20.4141 5.5 21 6.08594 21 6.75V8H22.875C23.8906 8 24.75 8.85938 24.75 9.875V11.75H7.25V9.875C7.25 8.85938 8.07031 8 9.125 8H11V6.75C11 6.08594 11.5469 5.5 12.25 5.5C12.9141 5.5 13.5 6.08594 13.5 6.75ZM7.25 13H24.75V23.625C24.75 24.6797 23.8906 25.5 22.875 25.5H9.125C8.07031 25.5 7.25 24.6797 7.25 23.625V13ZM10.375 15.5C10.0234 15.5 9.75 15.8125 9.75 16.125V19.875C9.75 20.2266 10.0234 20.5 10.375 20.5H14.125C14.4375 20.5 14.75 20.2266 14.75 19.875V16.125C14.75 15.8125 14.4375 15.5 14.125 15.5H10.375Z" fill="white"/>
</svg>
