<svg width="32" height="32" viewBox="0 0 32 32" fill="none" xmlns="http://www.w3.org/2000/svg">
<path d="M16.3125 7.6875C16.3125 7.17969 16.7031 6.75 17.25 6.75H18.8516C19.7891 6.75 20.6094 7.375 20.9219 8.23438L21.2344 9.13281L23.2266 8.15625C23.3828 8.07812 23.5781 8 23.7734 8H24.125C24.4375 8 24.75 8.3125 24.75 8.625V11.125C24.75 11.4766 24.4375 11.75 24.125 11.75H23.7734C23.5781 11.75 23.3828 11.7109 23.2266 11.6328L21.8594 10.9688L23.0312 14.2891C23.1484 14.2891 23.3047 14.25 23.5 14.25C25.1797 14.25 26.7422 14.9531 27.875 16.0469C28.2266 16.4375 28.2266 17.0234 27.875 17.375C27.5234 17.7656 26.8984 17.7656 26.5469 17.4141C25.7656 16.6328 24.6719 16.125 23.5 16.125C21.4297 16.125 19.6719 17.5703 19.2422 19.4844C19.1641 19.8359 19.125 20.1484 19.125 20.5H13.5C13.5 22.5703 11.8203 24.25 9.75 24.25C7.64062 24.25 6 22.5703 6 20.5H4.75C4.04688 20.5 3.5 19.9531 3.5 19.25V18C3.5 15.2656 5.72656 13 8.5 13H12.25C12.9141 13 13.5 13.5859 13.5 14.25V16.75C13.5 17.4531 14.0469 18 14.75 18H17.7578C18.4219 16.5156 19.6328 15.3047 21.1562 14.7188L19.125 8.85938C19.0859 8.74219 18.9688 8.625 18.8516 8.625H17.25C16.7031 8.625 16.3125 8.23438 16.3125 7.6875ZM11.625 20.5H7.875C7.875 21.5547 8.69531 22.375 9.75 22.375C10.7656 22.375 11.625 21.5547 11.625 20.5ZM12.25 9.25C12.9141 9.25 13.5 9.83594 13.5 10.5C13.5 11.2031 12.9141 11.75 12.25 11.75H8.5C7.79688 11.75 7.25 11.2031 7.25 10.5C7.25 9.83594 7.79688 9.25 8.5 9.25H12.25ZM19.75 20.5C19.75 18.4297 21.3906 16.75 23.5 16.75C25.5703 16.75 27.25 18.4297 27.25 20.5C27.25 22.5703 25.5703 24.25 23.5 24.25C21.3906 24.25 19.75 22.5703 19.75 20.5ZM23.5 22.375C24.5156 22.375 25.375 21.5547 25.375 20.5C25.375 19.4844 24.5156 18.625 23.5 18.625C22.4453 18.625 21.625 19.4844 21.625 20.5C21.625 21.5547 22.4453 22.375 23.5 22.375Z" fill="white"/>
</svg>
