<svg width="32" height="32" viewBox="0 0 32 32" fill="none" xmlns="http://www.w3.org/2000/svg">
<path d="M19.75 12.375C19.75 16.2031 16.0781 19.25 11.625 19.25C10.1016 19.25 8.73438 18.9375 7.52344 18.3125C6.54688 18.8203 5.29688 19.25 3.77344 19.25C3.65625 19.25 3.53906 19.2109 3.5 19.0938C3.46094 18.9766 3.46094 18.8594 3.57812 18.7812C3.57812 18.7422 4.47656 17.8047 5.10156 16.5156C4.08594 15.3438 3.5 13.9375 3.5 12.375C3.5 8.58594 7.13281 5.5 11.625 5.5C16.0781 5.5 19.75 8.58594 19.75 12.375ZM26.8984 22.8438C27.5234 24.0938 28.3828 24.9922 28.3828 25.0312C28.4609 25.1094 28.5 25.2266 28.4609 25.3438C28.4219 25.4609 28.3047 25.5 28.1875 25.5C26.7812 25.5 25.5703 25.1094 24.5938 24.6797C23.5391 25.1875 22.2891 25.5 21 25.5C17.4453 25.5 14.5156 23.3125 13.6953 20.3047C17.875 19.4844 21 16.2422 21 12.375C21 12.1797 20.9609 11.9844 20.9609 11.7891C20.9609 11.7891 20.9609 11.75 21 11.75C25.1406 11.75 28.5 14.8359 28.5 18.625C28.5 20.2266 27.875 21.6719 26.8984 22.8438Z" fill="white"/>
</svg>
