<svg width="32" height="32" viewBox="0 0 32 32" fill="none" xmlns="http://www.w3.org/2000/svg">
<path d="M28.0312 20.3438C28.2656 20.3438 28.5 20.5781 28.5 20.8125V22.6875C28.5 22.9609 28.2656 23.1562 28.0312 23.1562H26.1562V25.0312C26.1562 25.3047 25.9219 25.5 25.6875 25.5H23.8125C23.5391 25.5 23.3438 25.3047 23.3438 25.0312V23.1562H21.4688C21.1953 23.1562 21 22.9609 21 22.6875V20.8125C21 20.5781 21.1953 20.3438 21.4688 20.3438H23.3438V18.4688C23.3438 18.2344 23.5391 18 23.8125 18H25.6875C25.9219 18 26.1562 18.2344 26.1562 18.4688V20.3438H28.0312ZM22.6406 13H25.0234C26.9375 13 28.5 14.6406 28.5 16.6719C28.5 17.0625 28.1875 17.375 27.7969 17.375H26.9766C26.6641 17.0234 26.1953 16.75 25.6875 16.75H23.8125C23.2656 16.75 22.7969 17.0234 22.4844 17.375H19.9844C20.8047 16.4766 21.2734 15.2656 21.2734 13.9375C21.2734 13.7422 21.2344 13.5469 21.2344 13.3516C21.6641 13.1562 22.1328 13 22.6406 13ZM15.9609 18C13.7344 18 11.8984 16.2031 11.9375 13.9375C11.9375 11.7109 13.7344 9.875 15.9609 9.875C18.1875 9.875 20.0234 11.7109 20.0234 13.9375C20.0234 16.2031 18.2266 18 15.9609 18ZM23.5 11.75C21.7422 11.75 20.375 10.3828 20.375 8.625C20.375 6.90625 21.7422 5.5 23.5 5.5C25.2188 5.5 26.625 6.90625 26.625 8.625C26.625 10.3828 25.2188 11.75 23.5 11.75ZM22.0938 24.4062V25.0312C22.0938 25.2266 22.0938 25.3828 22.1328 25.5H9.59375C8.96875 25.5 8.5 25.0703 8.5 24.4844C8.5 21.5938 10.9609 19.25 14.0469 19.25H17.9141C18.7344 19.25 19.4766 19.4453 20.1406 19.7188C19.9062 20.0312 19.75 20.4219 19.75 20.8125V22.6875C19.75 23.6641 20.4922 24.4062 21.4688 24.4062H22.0938ZM10.6484 13.9375C10.6484 15.2656 11.1562 16.4766 11.9766 17.375H4.16406C3.77344 17.375 3.5 17.0625 3.5 16.6719C3.5 14.6406 5.02344 13 6.9375 13H9.32031C9.82812 13 10.2969 13.1172 10.7266 13.3516C10.6875 13.5469 10.6484 13.7422 10.6484 13.9375ZM8.5 11.75C6.74219 11.75 5.375 10.3828 5.375 8.625C5.375 6.90625 6.74219 5.5 8.5 5.5C10.2188 5.5 11.625 6.90625 11.625 8.625C11.625 10.3828 10.2188 11.75 8.5 11.75Z" fill="white"/>
</svg>
