<svg width="32" height="32" viewBox="0 0 32 32" fill="none" xmlns="http://www.w3.org/2000/svg">
<path d="M18.5 5.5L23.5 10.5H18.5V5.5ZM17.25 10.5C17.25 11.2031 17.7969 11.75 18.5 11.75H23.5V23.625C23.5 24.6797 22.6406 25.5 21.625 25.5H10.375C9.32031 25.5 8.5 24.6797 8.5 23.625V7.375C8.5 6.35938 9.32031 5.5 10.375 5.5H17.25V10.5ZM19.75 17.2969C19.75 17.0234 19.4766 16.75 19.2031 16.75H17.25V14.7969C17.25 14.5234 16.9766 14.25 16.7031 14.25H15.2578C14.9844 14.25 14.75 14.5234 14.75 14.7969V16.75H12.7578C12.4844 16.75 12.25 17.0234 12.25 17.2969V18.7422C12.25 19.0156 12.4844 19.25 12.7578 19.25H14.75V21.2422C14.75 21.5156 14.9844 21.75 15.2578 21.75H16.7031C16.9766 21.75 17.25 21.5156 17.25 21.2031V19.25H19.2031C19.4766 19.25 19.75 19.0156 19.75 18.7422V17.2969Z" fill="white"/>
</svg>
