<svg width="32" height="32" viewBox="0 0 32 32" fill="none" xmlns="http://www.w3.org/2000/svg">
<path d="M27.2109 15.5C27.2109 16.2031 26.625 16.75 25.9609 16.75H24.7109L24.75 23C24.75 23.1172 24.75 23.2344 24.75 23.3125V23.9375C24.75 24.8359 24.0469 25.5 23.1875 25.5H22.5625C22.4844 25.5 22.4453 25.5 22.4062 25.5C22.3672 25.5 22.2891 25.5 22.25 25.5H20.0625C19.1641 25.5 18.5 24.8359 18.5 23.9375V20.5C18.5 19.8359 17.9141 19.25 17.25 19.25H14.75C14.0469 19.25 13.5 19.8359 13.5 20.5V23.9375C13.5 24.8359 12.7969 25.5 11.9375 25.5H9.75C9.67188 25.5 9.63281 25.5 9.55469 25.5C9.51562 25.5 9.47656 25.5 9.4375 25.5H8.8125C7.91406 25.5 7.25 24.8359 7.25 23.9375V19.5625C7.25 19.5625 7.25 19.5234 7.25 19.4844V16.75H6C5.29688 16.75 4.75 16.2031 4.75 15.5C4.75 15.1484 4.86719 14.8359 5.14062 14.5625L15.1406 5.85156C15.4141 5.57812 15.7266 5.5 16 5.5C16.2734 5.5 16.5859 5.61719 16.8203 5.8125L26.7812 14.5625C27.0938 14.8359 27.25 15.1484 27.2109 15.5Z" fill="white"/>
</svg>
