<svg width="32" height="32" viewBox="0 0 32 32" fill="none" xmlns="http://www.w3.org/2000/svg">
<path d="M7.25 7.84375C7.25 7.25781 7.71875 6.75 8.34375 6.75H15.6094C16.1172 6.75 16.8203 7.0625 17.1719 7.41406L24.0859 14.3281C24.9453 15.1875 24.9453 16.5547 24.0859 17.4141L17.875 23.625C17.0156 24.4844 15.6484 24.4844 14.7891 23.625L7.875 16.7109C7.52344 16.3594 7.25 15.6562 7.25 15.1484V7.84375ZM10.375 11.125C10.375 11.8281 10.9219 12.375 11.625 12.375C12.2891 12.375 12.875 11.8281 12.875 11.125C12.875 10.4609 12.2891 9.875 11.625 9.875C10.9219 9.875 10.375 10.4609 10.375 11.125Z" fill="white"/>
</svg>
