<svg width="32" height="32" viewBox="0 0 32 32" fill="none" xmlns="http://www.w3.org/2000/svg">
<path d="M18.5 5.5L23.5 10.5H18.5V5.5ZM17.25 10.5C17.25 11.2031 17.7969 11.75 18.5 11.75H23.5V23.625C23.5 24.6797 22.6406 25.5 21.625 25.5H10.375C9.32031 25.5 8.5 24.6797 8.5 23.625V7.375C8.5 6.35938 9.32031 5.5 10.375 5.5H17.25V10.5ZM19.125 21.75C19.4375 21.75 19.75 21.4766 19.75 21.125C19.75 20.8125 19.4375 20.5 19.125 20.5H12.875C12.5234 20.5 12.25 20.8125 12.25 21.125C12.25 21.4766 12.5234 21.75 12.875 21.75H19.125ZM19.125 19.25C19.4375 19.25 19.75 18.9766 19.75 18.625C19.75 18.3125 19.4375 18 19.125 18H12.875C12.5234 18 12.25 18.3125 12.25 18.625C12.25 18.9766 12.5234 19.25 12.875 19.25H19.125ZM19.75 16.125C19.75 15.8125 19.4375 15.5 19.125 15.5H12.875C12.5234 15.5 12.25 15.8125 12.25 16.125C12.25 16.4766 12.5234 16.75 12.875 16.75H19.125C19.4375 16.75 19.75 16.4766 19.75 16.125Z" fill="white"/>
</svg>
