<svg width="32" height="32" viewBox="0 0 32 32" fill="none" xmlns="http://www.w3.org/2000/svg">
<path d="M21.625 8C22.6406 8 23.5 8.85938 23.5 9.875V23.625C23.5 24.6797 22.6406 25.5 21.625 25.5H10.375C9.32031 25.5 8.5 24.6797 8.5 23.625V9.875C8.5 8.85938 9.32031 8 10.375 8H12.4453C12.9922 6.55469 14.3594 5.5 16 5.5C17.6016 5.5 18.9688 6.55469 19.5156 8H21.625ZM16 8C15.2969 8 14.75 8.58594 14.75 9.25C14.75 9.95312 15.2969 10.5 16 10.5C16.6641 10.5 17.25 9.95312 17.25 9.25C17.25 8.58594 16.6641 8 16 8ZM12.25 20.8125C12.7578 20.8125 13.1875 20.4219 13.1875 19.875C13.1875 19.3672 12.7578 18.9375 12.25 18.9375C11.7031 18.9375 11.3125 19.3672 11.3125 19.875C11.3125 20.4219 11.7031 20.8125 12.25 20.8125ZM12.875 16.75C13.0312 16.75 13.1875 16.7109 13.3047 16.5938L15.8047 14.0938C16.0391 13.8594 16.0391 13.4297 15.8047 13.1953C15.5703 12.9609 15.1406 12.9609 14.9062 13.1953L12.875 15.2656L12.0547 14.4453C11.8203 14.2109 11.3906 14.2109 11.1562 14.4453C10.9219 14.6797 10.9219 15.1094 11.1562 15.3438L12.4062 16.5938C12.5234 16.7109 12.6797 16.75 12.875 16.75ZM20.375 20.5C20.6875 20.5 21 20.2266 21 19.875C21 19.5625 20.6875 19.25 20.375 19.25H15.375C15.0234 19.25 14.75 19.5625 14.75 19.875C14.75 20.2266 15.0234 20.5 15.375 20.5H20.375ZM20.375 16.75C20.6875 16.75 21 16.4766 21 16.125C21 15.8125 20.6875 15.5 20.375 15.5H16.625C16.2734 15.5 16 15.8125 16 16.125C16 16.4766 16.2734 16.75 16.625 16.75H20.375Z" fill="white"/>
</svg>
