<svg xmlns="http://www.w3.org/2000/svg" width="25" height="20" viewBox="0 0 25 20" fill="none">
<path d="M22.2656 17.8438H3.39062C3.14439 17.8459 2.90017 17.7994 2.67189 17.7071C2.44362 17.6148 2.23577 17.4784 2.0602 17.3057C1.88464 17.133 1.74481 16.9275 1.64869 16.7008C1.55257 16.4741 1.50204 16.2307 1.5 15.9844L1.5 4.85944C1.50204 4.61321 1.55257 4.36979 1.64869 4.14309C1.74481 3.91638 1.88464 3.71083 2.0602 3.53817C2.23577 3.36551 2.44362 3.22912 2.67189 3.13679C2.90017 3.04447 3.14439 2.99801 3.39062 3.00007H22.2656C22.5119 2.99801 22.7561 3.04447 22.9844 3.13679C23.2126 3.22912 23.4205 3.36551 23.596 3.53817C23.7716 3.71083 23.9114 3.91638 24.0076 4.14309C24.1037 4.36979 24.1542 4.61321 24.1562 4.85944V15.9923C24.1501 16.4882 23.9477 16.9615 23.5933 17.3085C23.239 17.6555 22.7616 17.848 22.2656 17.8438Z" fill="#1D91CE"/>
<path d="M4.67422 12.2937L4.30547 13.1562H1L3.60859 7.6875H9.83906L10.468 8.89531L11.0555 7.6875H13.2688H14.3844H19.4555L20.1734 8.43828L20.9445 7.6875H24.8453L22.0758 10.4156L24.7258 13.1562H20.9508L20.1062 12.3508L19.2687 13.1562H14.3844H13.2688H5.79375L5.38828 12.2937" fill="white"/>
<path d="M13.375 8.46875H11.7344L10.5 11.0859L9.17187 8.46875H7.53125V12.2578L5.83594 8.46875H4.29688L2.48438 12.375H3.59375L3.96094 11.4844H6.07031L6.49219 12.375H8.53125V9.19531L9.97656 12.375H10.9297L12.3672 9.25V12.375H13.375V8.46875ZM20.1484 9.73437L18.9766 8.46875H14.2734V12.375H18.8203L20.1094 11.0937L21.4062 12.375H22.6172L20.7656 10.3984L22.6719 8.46875H21.4062L20.1484 9.73437ZM17.6719 11.5938H15.2812V10.7344H17.6719V9.95312H15.2812V9.25H17.6719V8.58594L19.4453 10.3594L17.6719 12.1406V11.5938ZM5.03906 9.10937L5.72656 10.6953H4.29688L5.03906 9.10937Z" fill="#1D91CE"/>
</svg>