<svg width="272" height="268" viewBox="0 0 272 268" fill="none" xmlns="http://www.w3.org/2000/svg">
<path d="M233.566 139.19C182.662 109.801 100.405 109.801 49.8304 139.19C-0.744012 168.578 -0.477052 216.227 50.3984 245.615C101.274 275.003 183.565 275.009 234.14 245.615C284.714 216.221 284.476 168.578 233.566 139.19Z" fill="#EBEBEB"/>
<path d="M53.1702 191.028L95.6677 166.508L147.293 196.299C147.601 196.477 147.856 196.733 148.034 197.041C148.212 197.349 148.305 197.699 148.305 198.054C148.305 198.41 148.212 198.759 148.034 199.067C147.856 199.375 147.601 199.631 147.293 199.809L133.349 207.852C141.937 206.824 151.206 208.239 157.846 212.095C168.337 218.19 168.28 228.073 157.727 234.173C147.174 240.274 130.105 240.268 119.614 234.173C112.969 230.311 110.561 224.932 112.372 219.973L109.834 221.433C108.296 222.32 106.551 222.788 104.776 222.788C103 222.788 101.256 222.32 99.7175 221.433L53.1702 194.538C52.8624 194.36 52.6068 194.104 52.4291 193.796C52.2515 193.488 52.158 193.139 52.158 192.783C52.158 192.428 52.2515 192.078 52.4291 191.77C52.6068 191.462 52.8624 191.206 53.1702 191.028Z" fill="#DBD9D9"/>
<path d="M51.875 235.423L80.2181 219.059C80.4092 218.949 80.5679 218.79 80.6783 218.599C80.7887 218.408 80.8468 218.192 80.8468 217.971C80.8468 217.75 80.7887 217.534 80.6783 217.343C80.5679 217.152 80.4092 216.993 80.2181 216.883L55.2262 202.365C55.0358 202.254 54.8192 202.195 54.5986 202.195C54.378 202.195 54.1614 202.254 53.9709 202.365L24.9917 219.093C24.8006 219.203 24.6419 219.361 24.5315 219.552C24.4211 219.743 24.363 219.96 24.363 220.18C24.363 220.401 24.4211 220.618 24.5315 220.809C24.6419 221 24.8006 221.158 24.9917 221.268L49.3418 235.417C49.7258 235.642 50.1626 235.761 50.6076 235.762C51.0527 235.763 51.49 235.646 51.875 235.423Z" fill="#E6E6E6"/>
<path d="M252.355 211.293C253.707 212.077 253.713 213.344 252.355 214.133L246.829 217.32C246.071 217.706 245.234 217.908 244.383 217.908C243.533 217.908 242.695 217.706 241.938 217.32L181.299 182.28C179.941 181.502 179.936 180.23 181.299 179.44L186.825 176.248C187.583 175.862 188.421 175.66 189.271 175.66C190.121 175.66 190.959 175.862 191.716 176.248L252.355 211.293Z" fill="#DBD9D9"/>
<path d="M235.338 216.303C236.696 217.087 236.701 218.353 235.338 219.143L229.811 222.335C229.054 222.722 228.216 222.923 227.366 222.923C226.516 222.923 225.678 222.722 224.921 222.335L173.12 192.413C171.768 191.635 171.757 190.363 173.12 189.573L178.646 186.381C179.403 185.994 180.241 185.793 181.092 185.793C181.942 185.793 182.78 185.994 183.537 186.381L235.338 216.303Z" fill="#DBD9D9"/>
<path d="M59.5544 55.5565L59.5942 70.6822L61.4288 71.7501L61.3777 54.5L59.5544 55.5565Z" fill="#F0F0F0"/>
<path d="M39.8052 82.1078L39.8109 84.2264L61.4288 71.7475L59.5942 70.6797L39.8052 82.1078Z" fill="#F5F5F5"/>
<path d="M63.6156 50.6797L37.5388 65.7202L37.6013 88.0368L63.6496 72.9963L63.6156 50.6797ZM39.8108 84.2256V82.107L39.7597 66.9812L59.5544 55.5531L61.3777 54.525L61.4288 71.7751L39.8108 84.2256Z" fill="#E0E0E0"/>
<path d="M63.5873 50.6811L61.7527 49.6133L35.7043 64.6538L37.539 65.716L63.5873 50.6811Z" fill="#F5F5F5"/>
<path d="M35.7043 64.6523L35.7668 86.986L37.6015 88.0538L37.539 65.7145L35.7043 64.6523Z" fill="#F0F0F0"/>
<path d="M59.5374 89.5018L59.5828 104.628L61.4174 105.69L61.3663 88.4453L59.5374 89.5018Z" fill="#F0F0F0"/>
<path d="M39.7937 116.051L39.7994 118.176L61.4173 105.691L59.5827 104.629L39.7937 116.051Z" fill="#F5F5F5"/>
<path d="M63.5759 84.6289L37.5276 99.6638L37.5901 121.997L63.6157 106.957L63.5759 84.6289ZM39.7996 118.175V116.051L39.7598 100.925L59.5488 89.5023L61.3778 88.4458L61.4289 105.69L39.7996 118.175Z" fill="#E0E0E0"/>
<path d="M63.5758 84.6247L61.7412 83.5625L35.6929 98.5974L37.5275 99.6652L63.5758 84.6247Z" fill="#F5F5F5"/>
<path d="M35.6929 98.5977L35.7554 120.931L37.59 121.999L37.5275 99.6655L35.6929 98.5977Z" fill="#F0F0F0"/>
<path d="M53.2667 61.2969L58.6626 65.5512L58.674 69.6976L40.7196 80.0635L40.7083 75.9114L44.1333 69.1182L47.2061 71.5038L46.1156 74.8777L47.6946 71.8787L53.2667 61.2969Z" fill="#E0E0E0"/>
<path d="M47.3652 63.3938C48.2116 62.9053 48.8988 63.2972 48.9045 64.2685C48.8757 64.7979 48.7223 65.3131 48.4568 65.772C48.1913 66.231 47.8212 66.6208 47.3766 66.9097C46.5303 67.3982 45.843 67.0063 45.843 66.035C45.8708 65.506 46.0231 64.991 46.2876 64.532C46.5522 64.073 46.9214 63.683 47.3652 63.3938Z" fill="#E0E0E0"/>
<path d="M53.2498 95.2461L58.6457 99.4947L58.6628 103.647L40.7084 114.013L40.697 109.861L44.1164 103.062L47.1892 105.447L46.1044 108.821L47.6777 105.828L53.2498 95.2461Z" fill="#E0E0E0"/>
<path d="M47.3538 97.3352C48.2001 96.8467 48.8874 97.2386 48.8874 98.2099C48.861 98.7393 48.7092 99.2548 48.4446 99.714C48.1799 100.173 47.8099 100.563 47.3651 100.851C46.5188 101.34 45.8315 100.948 45.8315 99.9764C45.8579 99.447 46.0097 98.9315 46.2743 98.4723C46.539 98.0131 46.909 97.6234 47.3538 97.3352Z" fill="#E0E0E0"/>
<path d="M253.281 74.3408C252.794 73.3348 252.014 72.4994 251.043 71.9438L192.733 38.7728C192.464 38.6698 192.18 38.6122 191.892 38.6024C188.893 38.5456 185.877 41.3686 185.451 42.8567C185.354 43.0447 185.304 43.253 185.303 43.4645V169.531C185.303 170.516 185.564 171.483 186.059 172.334C186.553 173.185 187.265 173.89 188.121 174.376L246.431 207.604C246.503 207.639 246.577 207.67 246.653 207.695C250.135 209.172 253.838 206.105 253.838 202.89V76.7945C253.842 75.9448 253.652 75.1055 253.281 74.3408Z" fill="#263238"/>
<path d="M185.457 42.8606C185.883 41.3725 188.899 38.5495 191.898 38.6063C192.186 38.6161 192.47 38.6737 192.738 38.7767L251.055 71.9421C251.907 72.4342 252.618 73.1396 253.115 73.989C253.613 74.8384 253.882 75.8026 253.895 76.7871V202.882C253.895 206.097 250.191 209.164 246.71 207.688C246.634 207.662 246.56 207.632 246.488 207.597L188.121 174.375C187.266 173.887 186.556 173.182 186.062 172.331C185.568 171.48 185.308 170.514 185.309 169.53V43.4684C185.309 43.2569 185.36 43.0486 185.457 42.8606Z" fill="#455A64"/>
<path d="M245.727 90.1185C245.725 89.6262 245.595 89.143 245.347 88.7172C245.1 88.2915 244.745 87.9384 244.318 87.6932L190.177 56.8964C189.965 56.7762 189.726 56.7136 189.482 56.7149C189.239 56.7161 189 56.7813 188.79 56.9037C188.579 57.0261 188.405 57.2016 188.283 57.4126C188.162 57.6236 188.098 57.8628 188.098 58.1062V159.806C188.099 160.298 188.229 160.781 188.477 161.206C188.724 161.63 189.079 161.982 189.507 162.226L243.671 193.079C243.883 193.199 244.123 193.262 244.368 193.26C244.612 193.258 244.851 193.193 245.062 193.07C245.273 192.947 245.448 192.771 245.569 192.559C245.691 192.348 245.755 192.108 245.755 191.864L245.727 90.1185Z" fill="#0071CE"/>
<path opacity="0.2" d="M245.727 90.1185C245.725 89.6262 245.595 89.143 245.347 88.7172C245.1 88.2915 244.745 87.9384 244.318 87.6932L190.177 56.8964C189.965 56.7762 189.726 56.7136 189.482 56.7149C189.239 56.7161 189 56.7813 188.79 56.9037C188.579 57.0261 188.405 57.2016 188.283 57.4126C188.162 57.6236 188.098 57.8628 188.098 58.1062V159.806C188.099 160.298 188.229 160.781 188.477 161.206C188.724 161.63 189.079 161.982 189.507 162.226L243.671 193.079C243.883 193.199 244.123 193.262 244.368 193.26C244.612 193.258 244.851 193.193 245.062 193.07C245.273 192.947 245.448 192.771 245.569 192.559C245.691 192.348 245.755 192.108 245.755 191.864L245.727 90.1185Z" fill="black"/>
<path opacity="0.3" d="M253.861 76.789V202.884C253.861 206.099 250.157 209.166 246.676 207.69C246.885 207.765 247.109 207.789 247.33 207.76C247.551 207.73 247.761 207.649 247.944 207.521C248.126 207.394 248.275 207.225 248.379 207.027C248.482 206.83 248.537 206.611 248.539 206.389V80.2935C248.535 79.1968 248.207 78.1257 247.596 77.215L253.304 74.375C253.669 75.1276 253.859 75.9527 253.861 76.789Z" fill="black"/>
<path opacity="0.1" d="M191.892 38.6266C192.18 38.6364 192.464 38.694 192.733 38.797L251.055 71.9454C252.025 72.5009 252.805 73.3363 253.293 74.3423L247.584 77.1823C247.106 76.4539 246.464 75.8471 245.71 75.4101L187.394 42.2561C187.228 42.1627 187.045 42.1043 186.856 42.0844C186.666 42.0645 186.475 42.0836 186.294 42.1406C186.112 42.1976 185.944 42.2911 185.8 42.4155C185.656 42.5399 185.539 42.6925 185.457 42.8639C185.877 41.3701 188.893 38.5471 191.892 38.6266Z" fill="white"/>
<path d="M209.727 63.0813C209.318 62.8428 208.978 63.0245 208.978 63.496C208.991 63.7551 209.066 64.0073 209.195 64.2323C209.324 64.4573 209.505 64.6487 209.722 64.791L221.161 71.3911C221.57 71.6297 221.899 71.4309 221.899 70.9594C221.887 70.7044 221.814 70.456 221.687 70.2347C221.559 70.0135 221.381 69.8258 221.167 69.6871L209.727 63.0813Z" fill="#263238"/>
<path d="M224.103 71.3811C223.694 71.1483 223.359 71.3357 223.359 71.8071C223.374 72.0638 223.448 72.3135 223.577 72.5363C223.705 72.7591 223.883 72.949 224.098 73.0908C224.506 73.3294 224.847 73.1306 224.847 72.6648C224.832 72.4076 224.757 72.1574 224.628 71.9344C224.499 71.7115 224.319 71.522 224.103 71.3811Z" fill="#263238"/>
<path d="M216.782 62.1215C215.964 61.6501 215.299 62.025 215.299 62.9622C215.325 63.4766 215.471 63.9777 215.727 64.4248C215.982 64.8719 216.34 65.2524 216.77 65.5352C217.588 66.0066 218.264 65.6204 218.27 64.6775C218.24 64.1647 218.089 63.6661 217.831 63.2221C217.572 62.7781 217.213 62.4011 216.782 62.1215Z" fill="#263238"/>
<path d="M216.776 180.853C215.112 179.893 213.766 180.654 213.76 182.557C213.813 183.602 214.111 184.621 214.631 185.53C215.151 186.439 215.878 187.212 216.753 187.788C218.423 188.748 219.803 187.964 219.809 186.044C219.746 185.001 219.439 183.988 218.912 183.086C218.385 182.185 217.653 181.419 216.776 180.853Z" fill="#263238"/>
<path d="M236.855 94.7092C236.785 94.1404 236.62 93.5874 236.366 93.0734C236.255 92.8487 236.128 92.6323 235.986 92.4259C235.558 91.7964 234.993 91.272 234.333 90.8923L181.407 60.7884L181.327 60.7543C181.257 60.7307 181.185 60.7117 181.111 60.6976C180.956 60.6663 180.798 60.6473 180.64 60.6408C179.78 60.6349 178.93 60.8294 178.158 61.2087C177.403 61.5809 176.709 62.0633 176.096 62.6401L175.772 62.9639C175.341 63.3887 175.008 63.9024 174.795 64.4691C174.754 64.5524 174.722 64.64 174.699 64.7303C174.671 64.8243 174.658 64.922 174.659 65.02V179.488C174.662 180.381 174.899 181.257 175.348 182.029C175.797 182.801 176.441 183.441 177.215 183.885L230.141 214.045C230.207 214.077 230.275 214.103 230.345 214.125C233.504 215.465 236.866 212.682 236.866 209.763V95.2943C236.874 95.0992 236.87 94.9038 236.855 94.7092Z" fill="#0071CE"/>
<path d="M174.784 64.4943C175.17 63.1482 177.908 60.5808 180.629 60.6376C180.891 60.6438 181.15 60.6937 181.396 60.7853L234.322 90.8892C235.201 91.398 235.909 92.1573 236.355 93.0703C236.697 93.7607 236.876 94.5206 236.878 95.2911V209.765C236.878 212.685 233.515 215.445 230.357 214.127C230.287 214.106 230.219 214.079 230.153 214.048L177.215 183.87C176.439 183.428 175.795 182.788 175.346 182.016C174.897 181.244 174.66 180.367 174.659 179.474V65.0453C174.658 64.8545 174.701 64.6661 174.784 64.4943Z" fill="#0071CE"/>
<path opacity="0.2" d="M236.855 95.2912V209.765C236.855 212.685 233.492 215.445 230.334 214.128C230.525 214.201 230.731 214.226 230.934 214.201C231.137 214.177 231.33 214.103 231.498 213.987C231.666 213.87 231.803 213.715 231.897 213.533C231.991 213.352 232.04 213.15 232.038 212.946V98.4549C232.036 97.4598 231.739 96.4876 231.186 95.6604L236.366 93.0703C236.697 93.7636 236.864 94.5233 236.855 95.2912Z" fill="white"/>
<path opacity="0.4" d="M180.623 60.6337C180.885 60.6399 181.144 60.6898 181.39 60.7814L234.316 90.8853C235.195 91.394 235.903 92.1534 236.349 93.0664L231.175 95.6621C230.741 94.9996 230.158 94.4488 229.471 94.0547L176.545 63.9508C176.394 63.8659 176.227 63.8131 176.054 63.7959C175.882 63.7786 175.708 63.7973 175.543 63.8506C175.378 63.904 175.226 63.9909 175.096 64.1059C174.967 64.2209 174.862 64.3615 174.79 64.5188C175.165 63.1443 177.902 60.5769 180.623 60.6337Z" fill="white"/>
<path opacity="0.3" d="M174.784 64.4943C175.17 63.1482 177.908 60.5808 180.629 60.6376C180.891 60.6438 181.15 60.6937 181.396 60.7853L234.322 90.8892C235.201 91.398 235.909 92.1573 236.355 93.0703C236.697 93.7607 236.876 94.5206 236.878 95.2911V209.765C236.878 212.685 233.515 215.445 230.357 214.127C230.287 214.106 230.219 214.079 230.153 214.048L177.215 183.87C176.439 183.428 175.795 182.788 175.346 182.016C174.897 181.244 174.66 180.367 174.659 179.474V65.0453C174.658 64.8545 174.701 64.6661 174.784 64.4943Z" fill="white"/>
<path d="M179.987 71.2673L180.578 71.6138L180.589 69.0635L179.993 68.7227L179.987 71.2673Z" fill="white"/>
<path d="M178.97 70.6829L179.561 71.0237L179.567 68.9619L178.976 68.6211L178.97 70.6829Z" fill="white"/>
<path d="M177.948 70.0904L178.538 70.4312L178.544 68.9033L177.953 68.5625L177.948 70.0904Z" fill="white"/>
<path d="M176.931 69.5064L177.522 69.8472V68.8135L176.931 68.4727V69.5064Z" fill="white"/>
<path d="M182.191 72.5437L185.82 74.6396L185.826 72.4983L182.196 70.4023L182.191 72.5437Z" fill="white"/>
<path d="M187.626 75.6786L189.438 76.7238L189.444 74.5881L187.632 73.543L187.626 75.6786Z" fill="white"/>
<path d="M225.074 97.0296L225.08 95.3086L227.028 96.4332L225.08 95.3086L225.074 97.0296Z" fill="white"/>
<path d="M225.074 97.0296L227.023 98.1543L227.028 96.4332L225.08 95.3086L225.074 97.0296Z" fill="#0071CE"/>
<path d="M228.403 97.486V96.8157L224.722 94.6914V97.236L228.403 99.3603V98.6901L228.874 98.9627V97.7586L228.403 97.486ZM227.023 98.1562L225.075 97.0202V95.3162L227.023 96.4522V98.1562Z" fill="white"/>
<path d="M219.451 94.0164L223.081 96.1066L223.087 93.9709L219.457 91.875L219.451 94.0164Z" fill="white"/>
<path d="M202.133 83.8857L205.763 85.9816L205.768 83.8459L202.139 81.75L202.133 83.8857Z" fill="white"/>
<path d="M222.359 104.232L169.03 73.4414C168.877 73.3349 168.7 73.2679 168.515 73.2461C168.33 73.2243 168.142 73.2484 167.968 73.3164H167.94L166.804 73.9639L167.502 74.6569L167.463 89.8849V90.2427V94.3493C167.491 94.8839 167.646 95.4042 167.913 95.868C168.181 96.3318 168.554 96.7261 169.002 97.0189L220.252 126.663L222.223 128.605L223.325 127.975C223.365 127.956 223.403 127.933 223.439 127.907H223.49C223.614 127.791 223.711 127.648 223.773 127.49C223.835 127.332 223.86 127.162 223.848 126.992V123.232V122.528L223.893 106.947C223.872 106.406 223.722 105.877 223.455 105.404C223.188 104.932 222.813 104.53 222.359 104.232Z" fill="#0071CE"/>
<path opacity="0.2" d="M222.359 104.232L169.03 73.4414C168.877 73.3349 168.7 73.2679 168.515 73.2461C168.33 73.2243 168.142 73.2484 167.968 73.3164H167.94L166.804 73.9639L167.502 74.6569L167.463 89.8849V90.2427V94.3493C167.491 94.8839 167.646 95.4042 167.913 95.868C168.181 96.3318 168.554 96.7261 169.002 97.0189L220.252 126.663L222.223 128.605L223.325 127.975C223.365 127.956 223.403 127.933 223.439 127.907H223.49C223.614 127.791 223.711 127.648 223.773 127.49C223.835 127.332 223.86 127.162 223.848 126.992V123.232V122.528L223.893 106.947C223.872 106.406 223.722 105.877 223.455 105.404C223.188 104.932 222.813 104.53 222.359 104.232Z" fill="black"/>
<path d="M221.218 104.874C221.666 105.166 222.039 105.561 222.307 106.024C222.574 106.488 222.728 107.009 222.757 107.543L222.712 123.118L166.293 90.5487V91.2587L222.712 123.822V127.576C222.712 128.559 222.013 128.957 221.161 128.463L167.821 97.6941C167.373 97.4019 167.001 97.0085 166.733 96.5457C166.466 96.083 166.311 95.5638 166.281 95.0302L166.338 74.9856C166.338 74.0086 167.031 73.611 167.889 74.0995L221.218 104.874Z" fill="#0071CE"/>
<path d="M222.712 123.12V123.83L166.292 91.2608V90.5508L222.712 123.12Z" fill="#0071CE"/>
<g opacity="0.2">
<path d="M222.712 123.12V123.83L166.292 91.2608V90.5508L222.712 123.12Z" fill="white"/>
</g>
<g opacity="0.6">
<path d="M195.152 109.702L195.147 111.44L168.07 95.8027L168.076 94.0703L195.152 109.702Z" fill="white"/>
</g>
<path d="M178.118 82.1721C178.387 82.3478 178.61 82.5845 178.77 82.8628C178.93 83.1412 179.022 83.4533 179.038 83.7739V94.1909C179.038 94.7589 178.624 95.0145 178.107 94.7192L169.047 89.4822C168.778 89.3084 168.553 89.0731 168.392 88.7956C168.231 88.5182 168.138 88.2065 168.121 87.8862L168.15 77.4691C168.15 76.9011 168.57 76.6398 169.081 76.9352L178.118 82.1721Z" fill="white"/>
<g opacity="0.6">
<path d="M211.227 102.391L211.221 104.669L182.531 88.1058L182.537 85.8281L211.227 102.391Z" fill="white"/>
</g>
<g opacity="0.6">
<path d="M198.532 103.067L198.526 105.345L182.509 96.098L182.514 93.8203L198.532 103.067Z" fill="white"/>
</g>
<g opacity="0.6">
<path d="M211.215 106.391L211.21 108.663L182.52 92.1001L182.526 89.8281L211.215 106.391Z" fill="white"/>
</g>
<g opacity="0.5">
<path d="M220.576 106.778L219.713 107.551L220.729 109.658L219.877 109.164L219.264 107.835L218.702 108.488L217.844 107.988L218.883 107.074L218.054 105.324L218.895 105.807L219.338 106.784L219.724 106.29L220.576 106.778Z" fill="white"/>
</g>
<path d="M222.359 132.604L169.03 101.813C168.877 101.707 168.699 101.641 168.514 101.62C168.329 101.6 168.141 101.625 167.968 101.693H167.94L166.804 102.341L167.502 103.034L167.463 118.262V118.62V122.726C167.492 123.26 167.647 123.779 167.915 124.242C168.182 124.705 168.554 125.098 169.002 125.39L220.292 155.006L222.263 156.948L223.365 156.312C223.405 156.296 223.443 156.275 223.478 156.25L223.53 156.221C223.654 156.105 223.75 155.963 223.812 155.805C223.874 155.646 223.9 155.476 223.887 155.307V151.547V150.837L223.933 135.262C223.898 134.726 223.738 134.206 223.465 133.744C223.191 133.283 222.813 132.892 222.359 132.604Z" fill="#0071CE"/>
<path opacity="0.2" d="M222.359 132.604L169.03 101.813C168.877 101.707 168.699 101.641 168.514 101.62C168.329 101.6 168.141 101.625 167.968 101.693H167.94L166.804 102.341L167.502 103.034L167.463 118.262V118.62V122.726C167.492 123.26 167.647 123.779 167.915 124.242C168.182 124.705 168.554 125.098 169.002 125.39L220.292 155.006L222.263 156.948L223.365 156.312C223.405 156.296 223.443 156.275 223.478 156.25L223.53 156.221C223.654 156.105 223.75 155.963 223.812 155.805C223.874 155.646 223.9 155.476 223.887 155.307V151.547V150.837L223.933 135.262C223.898 134.726 223.738 134.206 223.465 133.744C223.191 133.283 222.813 132.892 222.359 132.604Z" fill="black"/>
<path d="M221.218 133.252C221.666 133.545 222.039 133.939 222.306 134.403C222.574 134.867 222.728 135.387 222.757 135.922L222.712 151.496L166.292 118.927V119.632L222.712 152.223V155.978C222.712 156.96 222.013 157.358 221.161 156.864L167.832 126.073C167.384 125.78 167.012 125.387 166.744 124.924C166.477 124.462 166.322 123.942 166.292 123.409L166.349 103.364C166.349 102.381 167.042 101.984 167.9 102.478L221.218 133.252Z" fill="#0071CE"/>
<path d="M222.712 151.495V152.205L166.292 119.63V118.926L222.712 151.495Z" fill="#0071CE"/>
<g opacity="0.2">
<path d="M222.712 151.495V152.205L166.292 119.63V118.926L222.712 151.495Z" fill="white"/>
</g>
<path d="M178.118 110.547C178.387 110.723 178.61 110.959 178.77 111.238C178.93 111.516 179.022 111.828 179.038 112.149V122.56C179.038 123.128 178.624 123.384 178.107 123.094L169.047 117.857C168.777 117.683 168.552 117.447 168.391 117.168C168.23 116.89 168.138 116.577 168.121 116.255L168.15 105.844C168.15 105.276 168.57 105.015 169.081 105.31L178.118 110.547Z" fill="white"/>
<g opacity="0.6">
<path d="M211.227 130.768L211.221 133.045L182.531 116.477L182.537 114.199L211.227 130.768Z" fill="white"/>
</g>
<g opacity="0.5">
<path d="M220.576 135.153L219.713 135.926L220.729 138.027L219.877 137.539L219.264 136.21L218.702 136.857L217.844 136.363L218.883 135.449L218.054 133.699L218.895 134.182L219.338 135.159L219.724 134.665L220.576 135.153Z" fill="white"/>
</g>
<path opacity="0.6" d="M168.076 122.449L168.07 124.182L183.81 133.27V131.531L168.076 122.449Z" fill="white"/>
<path opacity="0.6" d="M182.526 118.199L182.52 120.477L196.203 128.372V126.094L182.526 118.199Z" fill="white"/>
<path d="M222.359 189.748L169.03 158.957C168.877 158.851 168.7 158.783 168.515 158.762C168.33 158.74 168.142 158.764 167.968 158.832H167.94L166.804 159.48L167.502 160.172L167.463 175.4V175.758V179.865C167.491 180.4 167.646 180.92 167.913 181.384C168.181 181.847 168.554 182.242 169.002 182.535L220.292 212.144L222.263 214.087L223.365 213.456L223.478 213.394L223.53 213.36C223.654 213.244 223.75 213.101 223.812 212.943C223.874 212.785 223.9 212.615 223.887 212.445V208.691V207.981L223.933 192.401C223.898 191.866 223.737 191.347 223.463 190.886C223.19 190.425 222.812 190.035 222.359 189.748Z" fill="#0071CE"/>
<path opacity="0.2" d="M222.359 189.748L169.03 158.957C168.877 158.851 168.7 158.783 168.515 158.762C168.33 158.74 168.142 158.764 167.968 158.832H167.94L166.804 159.48L167.502 160.172L167.463 175.4V175.758V179.865C167.491 180.4 167.646 180.92 167.913 181.384C168.181 181.847 168.554 182.242 169.002 182.535L220.292 212.144L222.263 214.087L223.365 213.456L223.478 213.394L223.53 213.36C223.654 213.244 223.75 213.101 223.812 212.943C223.874 212.785 223.9 212.615 223.887 212.445V208.691V207.981L223.933 192.401C223.898 191.866 223.737 191.347 223.463 190.886C223.19 190.425 222.812 190.035 222.359 189.748Z" fill="black"/>
<path d="M221.218 190.398C221.665 190.691 222.038 191.084 222.305 191.547C222.573 192.01 222.727 192.529 222.757 193.062L222.712 208.642L166.292 176.079V176.789L222.712 209.358V213.118C222.712 214.095 222.013 214.493 221.161 214.004L167.832 183.213C167.384 182.92 167.011 182.526 166.743 182.062C166.476 181.599 166.321 181.078 166.292 180.544L166.349 160.505C166.349 159.522 167.042 159.125 167.9 159.619L221.218 190.398Z" fill="#0071CE"/>
<path d="M222.712 208.641V209.345L166.292 176.776V176.066L222.712 208.641Z" fill="#0071CE"/>
<g opacity="0.2">
<path d="M222.712 208.641V209.345L166.292 176.776V176.066L222.712 208.641Z" fill="white"/>
</g>
<path d="M178.118 167.69C178.386 167.866 178.61 168.103 178.769 168.381C178.929 168.659 179.021 168.971 179.038 169.292V179.709C179.038 180.277 178.624 180.532 178.107 180.237L169.047 175.006C168.778 174.831 168.553 174.594 168.392 174.316C168.231 174.038 168.138 173.725 168.121 173.404L168.127 163.015C168.127 162.447 168.547 162.192 169.059 162.487L178.118 167.69Z" fill="white"/>
<g opacity="0.6">
<path d="M211.227 187.91L211.221 190.188L182.531 173.625L182.537 171.348L211.227 187.91Z" fill="white"/>
</g>
<g opacity="0.5">
<path d="M220.576 192.3L219.713 193.072L220.729 195.174L219.877 194.685L219.264 193.356L218.702 194.004L217.844 193.509L218.883 192.589L218.054 190.84L218.895 191.328L219.338 192.305L219.724 191.805L220.576 192.3Z" fill="white"/>
</g>
<path opacity="0.6" d="M168.076 179.59L168.07 181.328L183.81 190.41V188.672L168.076 179.59Z" fill="white"/>
<path opacity="0.6" d="M182.526 175.344L182.52 177.616L188.706 181.183V178.905L182.526 175.344Z" fill="white"/>
<path d="M222.359 160.979L169.03 130.188C168.878 130.08 168.7 130.012 168.515 129.991C168.329 129.97 168.141 129.997 167.968 130.069H167.94L166.804 130.722L167.502 131.409L167.463 146.643V147.001V151.108C167.492 151.641 167.647 152.16 167.915 152.623C168.182 153.086 168.554 153.479 169.002 153.772L220.292 183.387L222.263 185.329L223.365 184.693L223.478 184.631L223.53 184.602C223.655 184.486 223.752 184.343 223.814 184.183C223.876 184.024 223.901 183.853 223.887 183.682V179.928V179.218L223.933 163.643C223.899 163.107 223.739 162.586 223.466 162.123C223.192 161.66 222.813 161.268 222.359 160.979Z" fill="#0071CE"/>
<path opacity="0.2" d="M222.359 160.979L169.03 130.188C168.878 130.08 168.7 130.012 168.515 129.991C168.329 129.97 168.141 129.997 167.968 130.069H167.94L166.804 130.722L167.502 131.409L167.463 146.643V147.001V151.108C167.492 151.641 167.647 152.16 167.915 152.623C168.182 153.086 168.554 153.479 169.002 153.772L220.292 183.387L222.263 185.329L223.365 184.693L223.478 184.631L223.53 184.602C223.655 184.486 223.752 184.343 223.814 184.183C223.876 184.024 223.901 183.853 223.887 183.682V179.928V179.218L223.933 163.643C223.899 163.107 223.739 162.586 223.466 162.123C223.192 161.66 222.813 161.268 222.359 160.979Z" fill="black"/>
<path d="M221.218 161.629C221.665 161.921 222.038 162.314 222.305 162.777C222.573 163.24 222.727 163.759 222.757 164.292L222.712 179.873L166.292 147.298V148.008L222.712 180.583V184.337C222.712 185.32 222.013 185.712 221.161 185.223L167.832 154.432C167.384 154.14 167.012 153.746 166.744 153.284C166.477 152.821 166.322 152.302 166.292 151.768L166.349 131.723C166.349 130.741 167.042 130.343 167.9 130.837L221.218 161.629Z" fill="#0071CE"/>
<path d="M222.712 179.872V180.582L166.292 148.007V147.297L222.712 179.872Z" fill="#0071CE"/>
<g opacity="0.2">
<path d="M222.712 179.872V180.582L166.292 148.007V147.297L222.712 179.872Z" fill="white"/>
</g>
<g opacity="0.6">
<path d="M188.211 162.508L188.206 164.24L168.07 152.557L168.076 150.824L188.211 162.508Z" fill="white"/>
</g>
<path d="M178.118 138.92C178.386 139.096 178.61 139.333 178.769 139.611C178.929 139.89 179.021 140.202 179.038 140.522V150.939C179.038 151.507 178.624 151.763 178.107 151.467L169.047 146.236C168.777 146.062 168.552 145.826 168.391 145.547C168.23 145.268 168.138 144.956 168.121 144.634L168.15 134.223C168.15 133.655 168.57 133.394 169.081 133.689L178.118 138.92Z" fill="white"/>
<g opacity="0.6">
<path d="M211.227 159.141L211.221 161.419L182.531 144.856L182.537 142.578L211.227 159.141Z" fill="white"/>
</g>
<g opacity="0.6">
<path d="M206.166 164.274L206.16 166.552L182.509 152.852L182.514 150.574L206.166 164.274Z" fill="white"/>
</g>
<g opacity="0.6">
<path d="M211.215 163.141L211.21 165.419L182.52 148.856L182.526 146.578L211.215 163.141Z" fill="white"/>
</g>
<g opacity="0.5">
<path d="M220.576 163.532L219.713 164.305L220.729 166.406L219.877 165.918L219.264 164.589L218.702 165.236L217.844 164.742L218.883 163.828L218.054 162.078L218.895 162.561L219.338 163.538L219.724 163.044L220.576 163.532Z" fill="white"/>
</g>
<path d="M96.8151 198.068L64.9619 179.437C63.9528 178.846 63.192 177.909 62.8203 176.8C62.4485 175.691 62.491 174.485 62.9398 173.405L64.5472 169.543L63.6839 171.616C63.2726 172.609 63.2385 173.717 63.5879 174.733C63.9374 175.749 64.6462 176.602 65.581 177.131L100.229 196.733C100.128 197.072 99.9513 197.383 99.712 197.643C99.4727 197.904 99.1773 198.106 98.8481 198.234C98.5189 198.363 98.1646 198.415 97.8123 198.386C97.46 198.357 97.119 198.248 96.8151 198.068Z" fill="#37474F"/>
<path d="M65.2343 159.34L68.0743 161.044L64.5414 169.564L62.9339 173.426C62.4851 174.506 62.4427 175.712 62.8144 176.821C63.1862 177.93 63.9469 178.867 64.956 179.458L96.8093 198.089C97.1129 198.268 97.4535 198.376 97.8051 198.404C98.1567 198.433 98.5101 198.38 98.8386 198.252C99.1671 198.123 99.4619 197.921 99.7008 197.662C99.9396 197.402 100.116 197.092 100.217 196.754L102.489 198.032L145.237 173.296L146.617 187.779L144.373 188.115L144.209 187.132C144.141 186.743 143.98 186.377 143.74 186.064C143.501 185.75 143.189 185.5 142.832 185.332C142.474 185.165 142.082 185.087 141.688 185.103C141.294 185.12 140.91 185.231 140.568 185.428L109.055 203.558C107.769 204.299 106.723 205.393 106.042 206.712C105.362 208.03 105.075 209.516 105.216 210.993L105.324 212.129H103.052L102.586 209.38C102.398 208.255 101.962 207.185 101.311 206.248C100.66 205.311 99.8092 204.53 98.82 203.962L62.4114 182.991C62.0649 182.791 61.6806 182.665 61.2829 182.62C60.8852 182.576 60.4825 182.615 60.1004 182.734C59.7183 182.853 59.365 183.049 59.0628 183.312C58.7606 183.574 58.516 183.896 58.3445 184.258L54.8968 191.494C54.8968 191.494 53.7608 192.102 53.3291 191.011L65.2343 159.34Z" fill="#455A64"/>
<path d="M105.738 123.629L139.966 150.143C141.009 150.952 141.876 151.966 142.513 153.123C143.149 154.279 143.543 155.554 143.669 156.868L147.503 197.094C147.292 197.291 147.02 197.412 146.732 197.437C146.444 197.463 146.156 197.392 145.913 197.236L139.097 156.851C138.982 156.163 138.719 155.509 138.327 154.932C137.934 154.356 137.422 153.871 136.825 153.511L106.573 135.381C102.609 133.024 101.916 124.691 105.738 123.629Z" fill="#455A64"/>
<path opacity="0.3" d="M105.738 123.629L139.966 150.143C141.009 150.952 141.876 151.966 142.513 153.123C143.149 154.279 143.543 155.554 143.669 156.868L147.503 197.094C147.292 197.291 147.02 197.412 146.732 197.437C146.444 197.463 146.156 197.392 145.913 197.236L139.097 156.851C138.982 156.163 138.719 155.509 138.327 154.932C137.934 154.356 137.422 153.871 136.825 153.511L106.573 135.381C102.609 133.024 101.916 124.691 105.738 123.629Z" fill="white"/>
<path d="M66.5295 169.401C66.6817 168.992 66.9734 168.651 67.3531 168.436L101.671 148.624C102.397 148.202 103.221 147.98 104.06 147.98C104.899 147.98 105.723 148.202 106.448 148.624L140.528 168.424C140.91 168.642 141.201 168.989 141.352 169.401C142.329 171.208 142.658 175.308 141.295 177.921C141.115 178.263 140.846 178.55 140.517 178.751L106.215 198.562C105.489 198.982 104.666 199.203 103.827 199.203C102.988 199.203 102.165 198.982 101.439 198.562L67.3588 178.762C67.0236 178.566 66.7562 178.273 66.592 177.921C65.2231 175.308 65.5525 171.208 66.5295 169.401Z" fill="#0071CE"/>
<path opacity="0.3" d="M66.5295 169.401C66.6817 168.992 66.9734 168.651 67.3531 168.436L101.671 148.624C102.397 148.202 103.221 147.98 104.06 147.98C104.899 147.98 105.723 148.202 106.448 148.624L140.528 168.424C140.91 168.642 141.201 168.989 141.352 169.401C142.329 171.208 142.658 175.308 141.295 177.921C141.115 178.263 140.846 178.55 140.517 178.751L106.215 198.562C105.489 198.982 104.666 199.203 103.827 199.203C102.988 199.203 102.165 198.982 101.439 198.562L67.3588 178.762C67.0236 178.566 66.7562 178.273 66.592 177.921C65.2231 175.308 65.5525 171.208 66.5295 169.401Z" fill="white"/>
<path opacity="0.3" d="M66.5295 169.398C66.3664 169.821 66.3592 170.288 66.509 170.716C66.6589 171.144 66.9561 171.504 67.3474 171.733L101.427 191.533C102.153 191.953 102.977 192.174 103.816 192.174C104.654 192.174 105.478 191.953 106.204 191.533L140.522 171.716C140.914 171.491 141.212 171.135 141.364 170.71C141.516 170.285 141.512 169.82 141.352 169.398C142.329 171.205 142.658 175.306 141.295 177.918C141.115 178.26 140.846 178.547 140.517 178.748L106.215 198.559C105.489 198.979 104.666 199.2 103.827 199.2C102.988 199.2 102.165 198.979 101.439 198.559L67.3588 178.759C67.0236 178.563 66.7562 178.27 66.592 177.918C65.2231 175.306 65.5525 171.205 66.5295 169.398Z" fill="black"/>
<path d="M63.6952 131.775L96.1449 113.031C96.4331 112.863 96.7599 112.773 97.0934 112.77H97.2524C100.217 112.798 102.541 114.564 104.262 116.643C104.289 116.667 104.314 116.694 104.335 116.723C104.508 116.936 104.634 117.184 104.705 117.45L114.014 152.098C114.29 153.082 114.232 154.13 113.849 155.078C113.466 156.026 112.778 156.819 111.895 157.335L79.4514 176.078C79.1077 176.277 78.7113 176.367 78.3154 176.334C74.6007 175.948 72.4139 173.653 71.3177 172.443C71.1097 172.211 70.9598 171.933 70.8803 171.631L61.5709 136.983C61.3019 136.002 61.3643 134.96 61.7485 134.018C62.1326 133.076 62.8169 132.288 63.6952 131.775Z" fill="#0071CE"/>
<path opacity="0.2" d="M63.6952 131.775L96.1449 113.031C96.4331 112.863 96.7599 112.773 97.0934 112.77H97.2524C100.217 112.798 102.541 114.564 104.262 116.643C104.289 116.667 104.314 116.694 104.335 116.723C104.508 116.936 104.634 117.184 104.705 117.45L114.014 152.098C114.29 153.082 114.232 154.13 113.849 155.078C113.466 156.026 112.778 156.819 111.895 157.335L79.4514 176.078C79.1077 176.277 78.7113 176.367 78.3154 176.334C74.6007 175.948 72.4139 173.653 71.3177 172.443C71.1097 172.211 70.9598 171.933 70.8803 171.631L61.5709 136.983C61.3019 136.002 61.3643 134.96 61.7485 134.018C62.1326 133.076 62.8169 132.288 63.6952 131.775Z" fill="white"/>
<path opacity="0.1" d="M63.6952 131.775L96.1449 113.031C96.4331 112.863 96.76 112.773 97.0934 112.77H97.2525C100.217 112.798 102.541 114.564 104.262 116.643C103.959 116.312 103.553 116.094 103.109 116.026C102.666 115.958 102.213 116.043 101.825 116.268L69.3752 135.012C68.4526 135.548 67.7441 136.387 67.3702 137.387L61.6902 134.115C62.0713 133.128 62.7789 132.303 63.6952 131.775Z" fill="black"/>
<path opacity="0.2" d="M67.3701 137.358C67.0225 138.266 66.9728 139.261 67.2281 140.198L76.5375 174.846C76.6424 175.24 76.8671 175.591 77.1805 175.852C77.4939 176.113 77.8806 176.269 78.287 176.3C74.5723 175.914 72.3855 173.619 71.2893 172.409C71.0813 172.177 70.9314 171.899 70.8519 171.597L61.5424 136.949C61.2923 136.01 61.346 135.016 61.6958 134.109L67.3701 137.358Z" fill="black"/>
<path d="M135.518 194.472C135.141 196.462 134.926 198.479 134.877 200.504L133.479 199.936C132.802 199.677 132.063 199.624 131.355 199.783C130.648 199.943 130.004 200.308 129.503 200.834L129.435 200.908C129.181 201.176 128.832 201.335 128.462 201.352C128.093 201.369 127.731 201.242 127.453 200.998C127.304 200.869 127.184 200.711 127.1 200.533C127.016 200.355 126.97 200.161 126.964 199.965L126.771 193.898L135.518 194.472Z" fill="#FFA8A7"/>
<path d="M130.02 217.004C132.974 220.167 138.421 222.934 142.374 220.236L141.931 221.241C137.955 223.939 132.531 221.173 129.577 218.015C126.624 214.857 128.538 212.658 125.879 209.853C124.876 208.896 124.091 207.733 123.579 206.445C123.698 206.144 123.806 205.746 123.948 205.309C124.522 206.626 125.326 207.83 126.323 208.864C128.981 211.653 127.061 213.846 130.02 217.004Z" fill="white"/>
<path d="M125.402 201.986C125.86 201.34 126.177 200.604 126.334 199.828C126.361 199.65 126.425 199.48 126.523 199.329C126.621 199.178 126.75 199.05 126.902 198.953L126.936 199.97C126.944 200.253 127.036 200.527 127.199 200.758C127.363 200.989 127.592 201.166 127.856 201.267C128.121 201.367 128.409 201.388 128.685 201.325C128.961 201.262 129.212 201.118 129.407 200.913L129.475 200.839C129.975 200.314 130.619 199.948 131.327 199.788C132.035 199.629 132.774 199.682 133.451 199.941L134.899 200.509C135.113 200.593 135.296 200.739 135.424 200.929C135.553 201.118 135.621 201.342 135.621 201.572C135.524 205.718 137.461 211.228 139.494 214.249C141.585 215.118 143.385 217.964 142.465 220.049L142.374 220.259C138.398 222.957 132.974 220.191 130.02 217.027C127.067 213.863 128.981 211.676 126.322 208.87C125.326 207.836 124.522 206.632 123.948 205.315C124.276 204.143 124.765 203.023 125.402 201.986Z" fill="#0071CE"/>
<path opacity="0.2" d="M125.402 201.986C125.86 201.34 126.177 200.604 126.334 199.828C126.361 199.65 126.425 199.48 126.523 199.329C126.621 199.178 126.75 199.05 126.902 198.953L126.936 199.97C126.944 200.253 127.036 200.527 127.199 200.758C127.363 200.989 127.592 201.166 127.856 201.267C128.121 201.367 128.409 201.388 128.685 201.325C128.961 201.262 129.212 201.118 129.407 200.913L129.475 200.839C129.975 200.314 130.619 199.948 131.327 199.788C132.035 199.629 132.774 199.682 133.451 199.941L134.899 200.509C135.113 200.593 135.296 200.739 135.424 200.929C135.553 201.118 135.621 201.342 135.621 201.572C135.524 205.718 137.461 211.228 139.494 214.249C141.585 215.118 143.385 217.964 142.465 220.049L142.374 220.259C138.398 222.957 132.974 220.191 130.02 217.027C127.067 213.863 128.981 211.676 126.322 208.87C125.326 207.836 124.522 206.632 123.948 205.315C124.276 204.143 124.765 203.023 125.402 201.986Z" fill="white"/>
<path d="M131.207 207.974C131.148 208.003 131.084 208.02 131.019 208.024C130.953 208.029 130.887 208.02 130.825 207.999C130.763 207.978 130.705 207.945 130.656 207.901C130.607 207.858 130.566 207.805 130.537 207.746C130.506 207.689 130.487 207.626 130.481 207.561C130.475 207.496 130.481 207.431 130.5 207.369C130.519 207.306 130.55 207.249 130.592 207.198C130.633 207.148 130.684 207.107 130.742 207.076C131.608 206.586 132.586 206.328 133.582 206.328C134.577 206.328 135.555 206.586 136.422 207.076C136.507 207.4 136.603 207.724 136.7 208.047C135.869 207.56 134.926 207.297 133.963 207.284C133 207.271 132.051 207.509 131.207 207.974Z" fill="white"/>
<path d="M130.463 205.73C130.344 205.791 130.206 205.803 130.078 205.763C129.95 205.722 129.843 205.633 129.782 205.514C129.72 205.395 129.708 205.256 129.748 205.128C129.789 205 129.879 204.894 129.998 204.832C130.905 204.337 131.924 204.081 132.958 204.09C133.992 204.099 135.006 204.372 135.905 204.883C135.961 205.218 136.035 205.559 136.109 205.9C134.382 204.991 132.644 204.628 130.463 205.73Z" fill="white"/>
<path d="M131.985 210.203C131.866 210.26 131.729 210.268 131.604 210.226C131.479 210.183 131.375 210.094 131.315 209.975C131.255 209.859 131.243 209.723 131.283 209.597C131.322 209.472 131.409 209.367 131.525 209.305C132.371 208.828 133.324 208.573 134.296 208.563C135.267 208.553 136.225 208.789 137.08 209.248C137.205 209.601 137.336 209.941 137.472 210.282C136.643 209.795 135.701 209.532 134.739 209.518C133.778 209.504 132.829 209.74 131.985 210.203Z" fill="white"/>
<path d="M139.494 214.224C141.585 215.093 143.385 217.939 142.465 220.023L142.374 220.234C138.478 222.892 133.144 220.234 130.156 217.144C132.644 212.265 137.847 213.48 139.494 214.224Z" fill="white"/>
<path d="M132.86 212.379C132.801 212.408 132.737 212.425 132.672 212.43C132.606 212.434 132.54 212.425 132.478 212.404C132.416 212.383 132.358 212.35 132.309 212.307C132.259 212.263 132.219 212.211 132.19 212.152C132.131 212.035 132.119 211.9 132.157 211.775C132.195 211.65 132.28 211.545 132.394 211.481C133.244 211.005 134.2 210.75 135.175 210.742C136.149 210.734 137.109 210.973 137.967 211.436C138.143 211.822 138.324 212.191 138.535 212.572C136.785 211.64 135.047 211.294 132.86 212.379Z" fill="white"/>
<path d="M141.732 206.523C142.186 208.488 142.799 210.413 143.567 212.277L142.05 212.362C141.328 212.401 140.634 212.651 140.054 213.083C139.474 213.514 139.034 214.107 138.79 214.788L138.756 214.879C138.631 215.227 138.376 215.513 138.044 215.677C137.713 215.841 137.331 215.87 136.978 215.759C136.79 215.702 136.616 215.607 136.467 215.479C136.319 215.35 136.199 215.193 136.115 215.015L133.479 209.54L141.732 206.523Z" fill="#FFA8A7"/>
<path d="M145.799 229.364C149.775 231.068 155.875 231.397 158.403 227.33V228.432C155.875 232.493 149.781 232.164 145.799 230.466C141.817 228.767 142.686 225.984 139.119 224.49C137.814 224.017 136.627 223.267 135.638 222.292C135.638 221.968 135.569 221.565 135.513 221.094C136.569 222.068 137.791 222.847 139.119 223.394C142.686 224.888 141.817 227.665 145.799 229.364Z" fill="white"/>
<path d="M135.513 217.487C135.677 216.711 135.677 215.91 135.513 215.135C135.467 214.959 135.46 214.775 135.491 214.596C135.522 214.416 135.592 214.246 135.695 214.096L136.138 215.016C136.222 215.193 136.342 215.351 136.49 215.479C136.639 215.608 136.813 215.703 137.001 215.76C137.354 215.871 137.736 215.842 138.067 215.678C138.399 215.514 138.654 215.228 138.779 214.88L138.813 214.789C139.057 214.108 139.497 213.515 140.077 213.083C140.657 212.652 141.351 212.401 142.073 212.363L143.618 212.278C143.847 212.27 144.073 212.331 144.267 212.454C144.461 212.576 144.613 212.755 144.703 212.965C146.293 216.794 150.287 221.048 153.365 223.002C155.637 222.945 158.426 224.825 158.426 227.103V227.33C155.898 231.397 149.804 231.062 145.822 229.363C141.84 227.665 142.709 224.888 139.142 223.394C137.814 222.846 136.592 222.067 135.536 221.093C135.361 219.898 135.354 218.684 135.513 217.487Z" fill="#0071CE"/>
<path opacity="0.2" d="M135.513 217.487C135.677 216.711 135.677 215.91 135.513 215.135C135.467 214.959 135.46 214.775 135.491 214.596C135.522 214.416 135.592 214.246 135.695 214.096L136.138 215.016C136.222 215.193 136.342 215.351 136.49 215.479C136.639 215.608 136.813 215.703 137.001 215.76C137.354 215.871 137.736 215.842 138.067 215.678C138.399 215.514 138.654 215.228 138.779 214.88L138.813 214.789C139.057 214.108 139.497 213.515 140.077 213.083C140.657 212.652 141.351 212.401 142.073 212.363L143.618 212.278C143.847 212.27 144.073 212.331 144.267 212.454C144.461 212.576 144.613 212.755 144.703 212.965C146.293 216.794 150.287 221.048 153.365 223.002C155.637 222.945 158.426 224.825 158.426 227.103V227.33C155.898 231.397 149.804 231.062 145.822 229.363C141.84 227.665 142.709 224.888 139.142 223.394C137.814 222.846 136.592 222.067 135.536 221.093C135.361 219.898 135.354 218.684 135.513 217.487Z" fill="white"/>
<path d="M143.22 220.629C143.136 220.733 143.013 220.8 142.88 220.815C142.746 220.829 142.612 220.79 142.507 220.705C142.403 220.621 142.336 220.499 142.322 220.365C142.307 220.231 142.346 220.097 142.431 219.993C143.03 219.199 143.824 218.573 144.735 218.176C145.646 217.778 146.644 217.621 147.634 217.721C147.844 217.987 148.06 218.243 148.281 218.499C147.325 218.385 146.357 218.522 145.47 218.895C144.582 219.269 143.807 219.866 143.22 220.629Z" fill="white"/>
<path d="M141.647 218.866C141.559 218.955 141.441 219.008 141.316 219.015C141.191 219.023 141.068 218.983 140.97 218.905C140.873 218.826 140.808 218.714 140.788 218.59C140.768 218.467 140.795 218.34 140.863 218.235C141.492 217.414 142.321 216.768 143.271 216.359C144.22 215.949 145.259 215.789 146.288 215.895C146.481 216.179 146.68 216.463 146.884 216.741C144.942 216.605 143.203 216.974 141.647 218.866Z" fill="white"/>
<path d="M144.839 222.343C144.751 222.432 144.633 222.485 144.508 222.492C144.383 222.5 144.26 222.46 144.162 222.382C144.065 222.303 144 222.191 143.98 222.067C143.96 221.944 143.987 221.817 144.055 221.712C144.64 220.939 145.41 220.325 146.295 219.928C147.179 219.531 148.15 219.363 149.116 219.44C149.372 219.713 149.633 219.974 149.894 220.23C148.941 220.115 147.974 220.249 147.088 220.619C146.202 220.99 145.427 221.583 144.839 222.343Z" fill="white"/>
<path d="M153.359 223.001C155.631 222.944 158.42 224.825 158.42 227.102V227.329C155.926 231.305 149.979 231.067 145.998 229.437C146.287 223.967 151.536 222.979 153.359 223.001Z" fill="white"/>
<path d="M146.543 223.984C146.458 224.084 146.337 224.146 146.207 224.158C146.077 224.17 145.947 224.132 145.845 224.05C145.742 223.968 145.676 223.85 145.659 223.72C145.642 223.59 145.676 223.459 145.754 223.354C146.34 222.578 147.113 221.963 148.001 221.566C148.889 221.169 149.862 221.002 150.832 221.082C151.15 221.366 151.462 221.65 151.78 221.883C149.821 221.724 148.083 222.087 146.543 223.984Z" fill="white"/>
<path d="M118.342 154.738L138.273 165.854C140.079 166.86 141.524 168.408 142.404 170.279C143.283 172.15 143.553 174.25 143.175 176.282L139.307 197.094L142.482 207.17C139.727 210.845 133.479 211.032 133.479 211.032C129.975 204.006 127.402 201.019 125.414 195.129C123.426 189.238 122.08 185.166 122.08 185.166L105.528 180.622C101.743 179.593 98.3531 177.454 95.7965 174.479C93.2399 171.504 91.634 167.831 91.1862 163.934C90.9079 161.435 90.8909 159.725 90.8909 159.725L118.342 154.738Z" fill="#455A64"/>
<path d="M118.342 154.738L138.273 165.854C140.079 166.86 141.524 168.408 142.404 170.279C143.283 172.15 143.553 174.25 143.175 176.282L139.307 197.094L142.482 207.17C139.727 210.845 133.479 211.032 133.479 211.032C129.975 204.006 127.402 201.019 125.414 195.129C123.426 189.238 122.08 185.166 122.08 185.166L105.528 180.622C101.743 179.593 98.3531 177.454 95.7965 174.479C93.2399 171.504 91.634 167.831 91.1862 163.934C90.9079 161.435 90.8909 159.725 90.8909 159.725L118.342 154.738Z" fill="#37474F"/>
<path opacity="0.2" d="M118.195 160.34C118.195 162.567 117.406 164.722 115.968 166.423L130.026 175.227C132.091 176.517 133.62 178.51 134.331 180.839L139.307 197.095L134.82 178.97C134.303 176.884 132.99 175.084 131.162 173.955L118.178 165.935C119.507 162.623 118.195 160.34 118.195 160.34Z" fill="black"/>
<path d="M116.189 120.508H116.701C120.143 120.542 124.499 122.888 126.629 128.891L134.899 144.909L125.459 149.095L120.29 133.981L116.189 120.508Z" fill="#0071CE"/>
<g opacity="0.2">
<path d="M116.189 120.508H116.701C120.143 120.542 124.499 122.888 126.629 128.891L134.899 144.909L125.459 149.095L120.29 133.981L116.189 120.508Z" fill="black"/>
</g>
<path opacity="0.2" d="M122.818 131.135C123.477 133.027 123.517 135.066 123.625 137.071C123.733 139.076 123.96 141.484 124.874 143.268C125.884 142.565 127.094 142.209 128.323 142.253C129.552 142.297 130.734 142.739 131.69 143.512C132.374 144.088 132.9 144.829 133.218 145.665L125.471 149.101L120.302 133.987L117.763 125.648C118.927 126.182 119.974 126.942 120.842 127.884C121.71 128.826 122.382 129.931 122.818 131.135Z" fill="black"/>
<path d="M125.368 146.206C125.73 145.317 126.312 144.533 127.059 143.929C127.806 143.325 128.694 142.921 129.64 142.753C130.626 142.654 131.622 142.799 132.539 143.175C133.457 143.552 134.267 144.148 134.899 144.911C135.928 146.155 135.768 147.842 135.115 149.319C134.572 150.467 133.647 151.392 132.499 151.936C131.35 152.479 130.049 152.608 128.816 152.301C126.379 151.619 124.448 148.569 125.368 146.206Z" fill="#0071CE"/>
<g opacity="0.2">
<path d="M125.368 146.206C125.73 145.317 126.312 144.533 127.059 143.929C127.806 143.325 128.694 142.921 129.64 142.753C130.626 142.654 131.622 142.799 132.539 143.175C133.457 143.552 134.267 144.148 134.899 144.911C135.928 146.155 135.768 147.842 135.115 149.319C134.572 150.467 133.647 151.392 132.499 151.936C131.35 152.479 130.049 152.608 128.816 152.301C126.379 151.619 124.448 148.569 125.368 146.206Z" fill="black"/>
</g>
<path d="M90.5729 161.313C94.1115 164.721 111.089 165.329 119.751 157.081C118.922 151.26 119.183 145.023 119.751 138.854C120.319 132.686 123.909 121.9 117.024 120.644C107.829 118.85 103.188 120.502 95.6791 122.456C89.1188 133.385 90.0219 149.743 90.5729 161.313Z" fill="#0071CE"/>
<path opacity="0.2" d="M90.5729 161.313C94.1115 164.721 111.089 165.329 119.751 157.081C118.922 151.26 119.183 145.023 119.751 138.854C120.319 132.686 123.909 121.9 117.024 120.644C107.829 118.85 103.188 120.502 95.6791 122.456C89.1188 133.385 90.0219 149.743 90.5729 161.313Z" fill="black"/>
<path opacity="0.2" d="M100.621 149.175C100.257 143.108 100.621 132.788 98.6269 129.772L93.1514 127.801C89.7888 137.11 89.982 148.618 90.4023 157.95C94.0913 160.075 98.131 161.521 102.33 162.221C104.08 162.545 105.846 162.789 107.618 162.931C112.066 162.011 116.49 160.165 119.739 157.07C119.626 156.292 119.541 155.496 119.467 154.701C115.179 154.461 110.943 153.643 106.874 152.27C106.116 151.335 105.164 150.574 104.085 150.04C103.006 149.506 101.824 149.21 100.621 149.175Z" fill="black"/>
<path opacity="0.15" d="M115.627 160.9C115.627 160.9 115.627 160.9 115.627 160.872C115.627 160.844 115.627 160.872 115.627 160.838V160.809V160.775C115.627 160.775 115.627 160.775 115.627 160.741V160.713L121.807 149.211L122.659 150.182L116.479 161.684C116.44 161.749 116.413 161.82 116.4 161.894C116.393 161.916 116.392 161.939 116.397 161.961C116.402 161.982 116.413 162.003 116.428 162.019L115.576 161.054V161.008C115.576 161.008 115.576 160.98 115.576 160.968L115.627 160.9Z" fill="white"/>
<path opacity="0.2" d="M121.909 149.14V149.106V149.072V149.038V148.998V148.964V148.924L121.937 148.89V148.856V148.822V148.794L122.028 148.714H122.057H122.091H122.131H122.17H122.21L129.316 144.738H129.356H129.395H129.435H129.475H129.509H129.549H129.583H129.622H129.662H129.793C129.813 144.738 129.833 144.742 129.852 144.75C129.87 144.758 129.887 144.769 129.901 144.784L130.747 145.755C130.713 145.71 130.639 145.698 130.537 145.721C130.4 145.756 130.268 145.81 130.145 145.88L123.039 149.856C122.899 149.936 122.765 150.025 122.636 150.123C122.5 150.231 122.369 150.339 122.244 150.458C122.125 150.57 122.013 150.69 121.909 150.816C121.821 150.922 121.743 151.036 121.676 151.157L120.824 150.185L121.909 149.14Z" fill="white"/>
<path d="M125.482 153.514C125.482 153.514 120.995 155.786 119.007 154.536L120.058 152.583C117.234 152.539 114.482 153.474 112.27 155.229C108.027 154.453 103.885 153.201 99.9221 151.498L98.5135 150.93L91.3738 156.865C96.2415 160.018 119.206 162.176 121.591 160.705C123.977 159.234 125.806 156.314 125.482 153.514Z" fill="#FFA8A7"/>
<path d="M130.333 147.727C130.483 148.475 130.57 149.235 130.594 149.999C130.41 151.832 129.632 153.555 128.379 154.906C128.118 155.202 127.791 155.431 127.424 155.576C127.241 155.644 127.043 155.664 126.85 155.633C126.657 155.602 126.475 155.522 126.322 155.4C126.055 155.084 125.917 154.678 125.936 154.264C125.876 153.643 125.91 153.017 126.038 152.407C126.166 151.79 126.513 151.241 127.015 150.862C127.406 150.624 127.824 150.434 128.259 150.294C128.685 150.116 129.064 149.842 129.367 149.493L130.333 147.727Z" fill="#FFA8A7"/>
<path d="M98.5133 150.912L98.7291 131.714C98.7583 129.119 98.1207 126.561 96.8774 124.284L95.679 122.461C94.7232 122.556 93.8066 122.889 93.0129 123.43C92.2191 123.971 91.5735 124.702 91.135 125.557C89.4746 128.409 88.7052 131.692 88.9255 134.985C88.9255 134.985 88.1701 154.774 91.3736 156.847L98.5133 150.912Z" fill="#0071CE"/>
<path d="M103.307 151.694L98.5135 150.91L91.3738 156.846C93.4697 158.465 98.4908 160.203 101.802 161.015C102.817 161.263 103.879 161.238 104.881 160.941L105.449 160.776L106.545 153.358C105.665 152.48 104.534 151.898 103.307 151.694Z" fill="#0071CE"/>
<g opacity="0.2">
<path d="M98.5133 150.912L98.7291 131.714C98.7583 129.119 98.1207 126.561 96.8774 124.284L95.679 122.461C94.7232 122.556 93.8066 122.889 93.0129 123.43C92.2191 123.971 91.5735 124.702 91.135 125.557C89.4746 128.409 88.7052 131.692 88.9255 134.985C88.9255 134.985 88.1701 154.774 91.3736 156.847L98.5133 150.912Z" fill="black"/>
<path d="M103.307 151.694L98.5135 150.91L91.3738 156.846C93.4697 158.465 98.4908 160.203 101.802 161.015C102.817 161.263 103.879 161.238 104.881 160.941L105.449 160.776L106.545 153.358C105.665 152.48 104.534 151.898 103.307 151.694Z" fill="black"/>
</g>
<path d="M110.76 154.95C108.584 156.057 109.697 160.442 110.123 160.777L110.76 160.834C110.655 161.011 110.502 161.155 110.319 161.248C110.136 161.342 109.93 161.381 109.726 161.362C108.561 161.243 106.25 160.988 105.42 160.794C103.188 157.438 105.682 153.842 106.522 153.359C107.885 153.763 109.22 154.058 109.93 154.2C110.082 154.231 110.226 154.295 110.35 154.387C110.475 154.479 110.578 154.598 110.652 154.734L110.76 154.95Z" fill="#0071CE"/>
<path opacity="0.3" d="M110.76 154.95C108.584 156.057 109.697 160.442 110.123 160.777L110.76 160.834C110.655 161.011 110.502 161.155 110.319 161.248C110.136 161.342 109.93 161.381 109.726 161.362C108.561 161.243 106.25 160.988 105.42 160.794C103.188 157.438 105.682 153.842 106.522 153.359C107.885 153.763 109.22 154.058 109.93 154.2C110.082 154.231 110.226 154.295 110.35 154.387C110.475 154.479 110.578 154.598 110.652 154.734L110.76 154.95Z" fill="black"/>
<path d="M102.546 121.346C102.389 121.649 102.303 121.984 102.293 122.325C102.283 122.666 102.35 123.005 102.489 123.317C102.778 123.938 103.201 124.487 103.728 124.924C105.295 126.31 107.271 127.149 109.357 127.316C110.481 127.444 111.618 127.247 112.634 126.748C113.136 126.488 113.566 126.107 113.882 125.639C114.199 125.17 114.393 124.63 114.446 124.067C114.429 123.407 114.227 122.765 113.864 122.214C113.5 121.662 112.99 121.224 112.39 120.948C111.177 120.427 109.85 120.232 108.539 120.38C107.311 120.545 106.073 120.613 104.835 120.585C103.983 120.46 103.04 120.5 102.546 121.346Z" fill="#0071CE"/>
<path opacity="0.3" d="M102.546 121.346C102.389 121.649 102.303 121.984 102.293 122.325C102.283 122.666 102.35 123.005 102.489 123.317C102.778 123.938 103.201 124.487 103.728 124.924C105.295 126.31 107.271 127.149 109.357 127.316C110.481 127.444 111.618 127.247 112.634 126.748C113.136 126.488 113.566 126.107 113.882 125.639C114.199 125.17 114.393 124.63 114.446 124.067C114.429 123.407 114.227 122.765 113.864 122.214C113.5 121.662 112.99 121.224 112.39 120.948C111.177 120.427 109.85 120.232 108.539 120.38C107.311 120.545 106.073 120.613 104.835 120.585C103.983 120.46 103.04 120.5 102.546 121.346Z" fill="black"/>
<path d="M101.762 107.075L106.767 114.459H106.891L101.552 106.598C101.552 106.598 92.9812 110.273 93.6004 112.902C93.6142 112.936 93.6256 112.97 93.6344 113.005L93.7026 113.175C93.7005 113.192 93.7005 113.209 93.7026 113.226L93.873 113.658C93.8397 113.583 93.8131 113.505 93.7935 113.425C93.1914 110.761 101.762 107.075 101.762 107.075Z" fill="#0071CE"/>
<path opacity="0.1" d="M101.762 107.075L106.767 114.459H106.891L101.552 106.598C101.552 106.598 92.9812 110.273 93.6004 112.902C93.6142 112.936 93.6256 112.97 93.6344 113.005L93.7026 113.175C93.7005 113.192 93.7005 113.209 93.7026 113.226L93.873 113.658C93.8397 113.583 93.8131 113.505 93.7935 113.425C93.1914 110.761 101.762 107.075 101.762 107.075Z" fill="black"/>
<path d="M106.783 114.446L101.779 107.062C101.779 107.062 93.2083 110.743 93.8274 113.367C93.847 113.447 93.8736 113.525 93.9069 113.6C95.236 116.781 107.113 114.924 107.113 114.924L106.783 114.446Z" fill="#0071CE"/>
<path opacity="0.3" d="M106.783 114.446L101.779 107.062C101.779 107.062 93.2083 110.743 93.8274 113.367C93.847 113.447 93.8736 113.525 93.9069 113.6C95.236 116.781 107.113 114.924 107.113 114.924L106.783 114.446Z" fill="black"/>
<path d="M104.449 118.888C103.267 116.733 102.346 114.445 101.706 112.072C101.138 109.675 99.5074 104.353 100.666 102.183C101.541 100.553 103.949 98.9059 105.568 98.0142C107.187 97.1224 109.305 97.3951 111.112 97.0032C112.698 96.6103 114.34 96.4836 115.968 96.6283C117.587 96.8271 119.626 99.7523 120.705 100.979C122.409 102.91 122.466 105.96 121.239 108.232C120.012 110.504 117.734 112.061 115.303 112.941C112.872 113.822 110.277 114.077 107.709 114.355C106.647 115.775 105.511 117.457 104.449 118.888Z" fill="#263238"/>
<path d="M118.053 95.3495C115.531 93.0775 111.719 92.6231 108.397 93.4978C105.585 94.2419 102.325 95.1109 100.7 97.4738C99.0758 99.8366 99.8994 103.199 100.087 106.562C103.021 104.22 106.495 102.65 110.192 101.995C110.629 101.916 111.078 101.859 111.532 101.813L111.31 100.711C111.246 100.398 111.249 100.073 111.32 99.7611C111.391 99.4486 111.529 99.1552 111.723 98.9004C111.917 98.6457 112.164 98.4357 112.447 98.2846C112.729 98.1336 113.041 98.0449 113.361 98.0247C113.87 97.9964 114.381 98.0078 114.889 98.0588C115.595 98.1315 116.261 98.4229 116.794 98.8923C117.326 99.3617 117.699 99.9858 117.86 100.677C117.973 101.188 118.087 101.705 118.195 102.171C119.452 102.392 120.691 102.704 121.904 103.103C121.074 100.336 120.205 97.292 118.053 95.3495Z" fill="#455A64"/>
<path d="M117.78 100.446C115.639 99.9626 113.425 99.897 111.259 100.253C111.258 100.408 111.273 100.562 111.305 100.713L111.526 101.815C113.753 101.633 115.994 101.753 118.189 102.173C118.081 101.707 117.967 101.19 117.854 100.679C117.831 100.6 117.802 100.537 117.78 100.446Z" fill="#37474F"/>
<path d="M112.6 118.142L112.27 121.812C112.257 122.097 112.331 122.38 112.48 122.624C112.683 123.006 112.76 123.443 112.702 123.871C112.644 124.3 112.453 124.7 112.157 125.015C111.686 125.378 111.11 125.577 110.515 125.583C109.398 125.643 108.281 125.467 107.236 125.065C106.192 124.664 105.244 124.047 104.455 123.254C104.296 123.087 104.172 122.89 104.09 122.675C104.008 122.459 103.97 122.23 103.978 121.999L104.216 112.695L112.6 118.142Z" fill="#FFA8A7"/>
<path d="M112.6 118.142L112.27 121.812C112.257 122.097 112.331 122.38 112.48 122.624C112.683 123.006 112.76 123.443 112.702 123.871C112.644 124.3 112.453 124.7 112.157 125.015C111.686 125.378 111.11 125.577 110.515 125.583C109.398 125.643 108.281 125.467 107.236 125.065C106.192 124.664 105.244 124.047 104.455 123.254C104.296 123.087 104.172 122.89 104.09 122.675C104.008 122.459 103.97 122.23 103.978 121.999L104.216 112.695L112.6 118.142Z" fill="#FFA8A7"/>
<path opacity="0.2" d="M106.948 119.965C107.874 120.763 108.999 121.293 110.203 121.499C110.916 121.598 111.642 121.526 112.321 121.289L112.6 118.148L104.216 112.684L104.131 116.092C104.727 117.6 105.696 118.933 106.948 119.965Z" fill="black"/>
<path d="M115.718 106.784C116.508 106.412 117.175 105.821 117.638 105.08C115.986 105.834 114.22 106.306 112.412 106.477C113.105 105.875 113.764 105.194 114.457 104.591C113.218 105.011 111.945 105.32 110.651 105.517C111.373 105.147 112.015 104.639 112.543 104.023C110.515 104.97 108.341 105.564 106.113 105.779C106.014 105.912 105.95 106.068 105.926 106.233L105.585 108.874C105.589 109.062 105.551 109.248 105.473 109.419C105.395 109.59 105.28 109.742 105.136 109.862C104.98 109.936 104.806 109.96 104.635 109.933C104.465 109.906 104.307 109.828 104.182 109.709C103.937 109.464 103.744 109.173 103.614 108.851C103.338 108.185 102.969 107.562 102.518 107C102.289 106.72 102.002 106.493 101.678 106.333C101.354 106.174 100.999 106.085 100.638 106.074C99.4619 106.102 98.5645 107.278 98.4395 108.448C98.382 109.053 98.476 109.662 98.713 110.222C98.95 110.781 99.3226 111.272 99.797 111.652C100.286 111.999 100.854 112.218 101.449 112.289C102.044 112.36 102.648 112.282 103.205 112.061C102.671 114.1 103.739 116.286 105.324 117.672C106.908 119.058 108.942 119.808 110.924 120.512C112.009 120.904 113.156 121.302 114.287 121.08C115.208 120.873 116.034 120.363 116.632 119.632C117.228 118.904 117.715 118.095 118.081 117.229C119.869 113.368 120.888 109.195 121.08 104.944C119.568 106.174 117.667 106.827 115.718 106.784Z" fill="#FFA8A7"/>
<path d="M114.241 110.941L115.9 115.326L112.997 115.36L114.241 110.941Z" fill="#F28F8F"/>
<path d="M109.783 116.207L112.827 117.462C112.594 117.814 112.253 118.08 111.855 118.22C111.458 118.36 111.025 118.367 110.623 118.24C109.879 117.956 109.624 117.008 109.783 116.207Z" fill="#F28F8F"/>
<path opacity="0.3" d="M109.783 116.207L112.827 117.462C112.594 117.814 112.253 118.08 111.855 118.22C111.458 118.36 111.025 118.367 110.623 118.24C109.879 117.956 109.624 117.008 109.783 116.207Z" fill="black"/>
<path d="M111.657 118.273C111.317 118.365 110.957 118.353 110.623 118.239C110.343 118.102 110.11 117.886 109.952 117.617C109.795 117.349 109.72 117.039 109.737 116.728C110.194 116.692 110.647 116.832 111.004 117.119C111.361 117.406 111.594 117.819 111.657 118.273Z" fill="#F28F8F"/>
<path d="M110.14 110.141C110.082 110.351 110.108 110.575 110.215 110.765C110.321 110.954 110.499 111.094 110.708 111.152C110.918 111.211 111.142 111.184 111.332 111.078C111.521 110.971 111.661 110.794 111.719 110.584C111.748 110.481 111.757 110.372 111.744 110.265C111.731 110.159 111.698 110.055 111.645 109.961C111.592 109.867 111.521 109.785 111.437 109.718C111.352 109.652 111.255 109.603 111.151 109.573C111.048 109.544 110.939 109.536 110.832 109.549C110.725 109.562 110.622 109.595 110.528 109.648C110.434 109.701 110.352 109.772 110.285 109.856C110.219 109.941 110.169 110.038 110.14 110.141Z" fill="#263238"/>
<path d="M116.684 111.509C116.625 111.718 116.652 111.942 116.758 112.132C116.865 112.321 117.042 112.461 117.252 112.52C117.461 112.578 117.685 112.552 117.875 112.445C118.064 112.339 118.204 112.161 118.263 111.952C118.292 111.848 118.3 111.74 118.287 111.633C118.274 111.526 118.241 111.422 118.188 111.329C118.135 111.235 118.065 111.152 117.98 111.086C117.895 111.019 117.798 110.97 117.695 110.941C117.591 110.912 117.483 110.903 117.376 110.916C117.269 110.929 117.165 110.963 117.071 111.015C116.978 111.068 116.895 111.139 116.828 111.223C116.762 111.308 116.713 111.405 116.684 111.509Z" fill="#263238"/>
<path d="M118.467 107.472L119.876 109.176C120.017 108.982 120.093 108.749 120.093 108.509C120.093 108.269 120.017 108.036 119.876 107.842C119.699 107.654 119.474 107.52 119.225 107.455C118.975 107.39 118.713 107.396 118.467 107.472Z" fill="#263238"/>
<path d="M111.214 106.117L109.124 106.839C109.104 106.601 109.161 106.364 109.284 106.16C109.407 105.956 109.592 105.796 109.811 105.703C110.06 105.633 110.324 105.636 110.572 105.709C110.82 105.782 111.042 105.924 111.214 106.117Z" fill="#263238"/>
<path d="M64.4107 147.59L98.6325 174.104C99.6768 174.912 100.544 175.926 101.181 177.083C101.818 178.239 102.211 179.514 102.336 180.829L106.176 221.055C105.964 221.252 105.693 221.373 105.405 221.398C105.117 221.424 104.828 221.353 104.585 221.197L97.7692 180.812C97.6549 180.123 97.3926 179.467 97.0003 178.89C96.6081 178.312 96.0953 177.827 95.4972 177.466L65.2457 159.342C61.281 156.985 60.5824 148.652 64.4107 147.59Z" fill="#455A64"/>
<path opacity="0.3" d="M64.4107 147.59L98.6325 174.104C99.6768 174.912 100.544 175.926 101.181 177.083C101.818 178.239 102.211 179.514 102.336 180.829L106.176 221.055C105.964 221.252 105.693 221.373 105.405 221.398C105.117 221.424 104.828 221.353 104.585 221.197L97.7692 180.812C97.6549 180.123 97.3926 179.467 97.0003 178.89C96.6081 178.312 96.0953 177.827 95.4972 177.466L65.2457 159.342C61.281 156.985 60.5824 148.652 64.4107 147.59Z" fill="white"/>
<path d="M115.627 160.938C115.627 160.938 115.627 160.966 115.627 160.978V161.023L116.479 161.989C116.479 161.989 116.479 161.949 116.479 161.926C116.513 162.074 116.729 162.068 117.098 161.864L124.204 157.888C124.754 157.569 125.22 157.125 125.567 156.593L131.775 145.074C131.872 144.881 131.872 144.767 131.775 144.716H131.804L130.957 143.745C130.943 143.73 130.927 143.719 130.908 143.711C130.89 143.703 130.87 143.699 130.85 143.699H130.719H130.679H130.639H130.605H130.566H130.531H130.492H130.452H130.412H130.372L123.267 147.675H123.227H123.187H123.147H123.113H123.085L122.994 147.755V147.783V147.817V147.851L122.966 147.885V147.925V147.959V147.999V148.033V148.067V148.101V148.135L116.786 159.637V159.666C116.786 159.666 116.786 159.666 116.786 159.7V159.734V159.762C116.786 159.762 116.786 159.762 116.786 159.796C116.786 159.83 116.786 159.796 116.786 159.825V159.87L115.627 160.938ZM131.571 144.699H131.599C131.599 144.699 131.628 144.699 131.65 144.699C131.624 144.693 131.597 144.693 131.571 144.699ZM123.307 149.447L123.505 149.283L123.307 149.447ZM122.971 149.805L123.057 149.714L122.971 149.805ZM116.479 161.881C116.493 161.806 116.519 161.735 116.559 161.671C116.517 161.742 116.49 161.821 116.479 161.904V161.881Z" fill="#455A64"/>
<path d="M73.9077 216.993L76.3331 218.402L76.3217 215.602L73.9077 216.993Z" fill="#E6E6E6"/>
<path d="M76.2251 188.422L52.6646 202.02L76.2251 188.422Z" fill="#CFCFCF"/>
<path d="M76.3216 215.601V218.401L78.8435 216.947L78.7583 184.031L50.1143 200.571L50.2051 233.481L52.727 232.027V229.227L73.9076 216.975L76.3216 215.601ZM52.6646 202.02L76.2251 188.422L76.2535 199.095L52.6986 212.726L52.6646 202.02ZM52.7043 215.618L76.2648 202.014V202.048V212.692L52.7327 226.29L52.7043 215.618Z" fill="#E0E0E0"/>
<path d="M76.2933 212.692L76.2649 202.048V202.02L52.7043 215.617L52.7327 226.29L76.2933 212.692Z" fill="#E0E0E0"/>
<path d="M76.2535 199.095L76.2251 188.422L52.6646 202.02L52.6986 212.698L76.2535 199.095Z" fill="#E0E0E0"/>
<path d="M50.1144 200.57L25.1055 186.035L25.1963 218.951L50.2053 233.48L50.1144 200.57Z" fill="#E0E0E0"/>
<path d="M50.1144 200.571L78.7585 184.031L53.7496 169.496L25.1055 186.036L50.1144 200.571Z" fill="#E0E0E0"/>
<path opacity="0.2" d="M73.9077 216.993L76.3331 218.402L76.3217 215.602L73.9077 216.993Z" fill="white"/>
<path d="M76.2251 188.422L52.6646 202.02L76.2251 188.422Z" fill="#CFCFCF"/>
<path opacity="0.8" d="M76.2933 212.692L76.2649 202.048V202.02L52.7043 215.617L52.7327 226.29L76.2933 212.692Z" fill="white"/>
<path opacity="0.8" d="M76.2535 199.095L76.2251 188.422L52.6646 202.02L52.6986 212.698L76.2535 199.095Z" fill="white"/>
<path d="M68.5457 196.823L68.5344 195.352L60.3779 200.06L60.3836 201.537L68.5457 196.823Z" fill="#E0E0E0"/>
<path d="M68.5457 210.231L68.5344 208.754L60.3779 213.463L60.3836 214.939L68.5457 210.231Z" fill="#E0E0E0"/>
<path opacity="0.2" d="M50.1144 200.57L25.1055 186.035L25.1963 218.951L50.2053 233.48L50.1144 200.57Z" fill="white"/>
<path opacity="0.4" d="M50.1144 200.571L78.7585 184.031L53.7496 169.496L25.1055 186.036L50.1144 200.571Z" fill="white"/>
<path opacity="0.05" d="M44.5593 177.986C47.7401 176.145 52.8805 176.145 56.0386 177.986C59.1966 179.826 59.1796 182.797 55.9988 184.637C52.818 186.477 47.6777 186.472 44.5196 184.637C41.3615 182.802 41.3786 179.82 44.5593 177.986Z" fill="black"/>
<path d="M41.7989 166.422L50.5233 166.677L59.2534 166.422C59.6283 172.318 58.4753 178.321 56.8906 181.258C56.5221 182.01 55.9258 182.626 55.1866 183.019C52.6135 184.507 48.4501 184.507 45.8941 183.019C45.1412 182.623 44.5417 181.987 44.1902 181.213C42.5657 178.265 41.424 172.295 41.7989 166.422Z" fill="white"/>
<path d="M44.3775 162.855C40.9695 164.832 40.9355 168.03 44.3321 170.006C47.7287 171.983 53.2553 171.977 56.6746 170.006C60.094 168.035 60.0826 164.832 56.7144 162.855C53.3462 160.879 47.7969 160.884 44.3775 162.855Z" fill="#EBEBEB"/>
<path d="M45.7293 163.641C43.0597 165.186 43.0483 167.679 45.6952 169.219C48.342 170.758 52.6588 170.758 55.3511 169.219C58.0434 167.679 58.0321 165.186 55.3852 163.641C52.7383 162.096 48.3932 162.102 45.7293 163.641Z" fill="#E0E0E0"/>
<g opacity="0.15">
<path d="M45.7293 163.641C43.0597 165.186 43.0483 167.679 45.6952 169.219C48.342 170.758 52.6588 170.758 55.3511 169.219C58.0434 167.679 58.0321 165.186 55.3852 163.641C52.7383 162.096 48.3932 162.102 45.7293 163.641Z" fill="black"/>
</g>
<path d="M51.2561 166.678C50.5562 167.262 49.7282 167.672 48.8398 167.874C47.9513 168.076 47.0276 168.066 46.1441 167.843C45.2925 167.583 44.519 167.115 43.8934 166.481C43.2677 165.847 42.8095 165.068 42.56 164.213C43.593 163.722 44.5388 163.066 45.3603 162.271C44.0482 161.941 42.6695 161.99 41.3843 162.413C41.029 161.855 40.8157 161.218 40.7633 160.559C40.7108 159.899 40.8206 159.237 41.0832 158.63C42.5725 157.967 44.2479 157.85 45.8147 158.3C45.1646 157.733 44.4041 157.306 43.581 157.047C42.7579 156.788 41.89 156.702 41.0321 156.795C40.9045 154.293 41.2912 151.792 42.1681 149.445C45.4227 149.616 48.5751 151.013 49.643 152.024C49.6897 153.189 49.5672 154.354 49.2794 155.483C49.6995 155.268 50.0583 154.95 50.3224 154.558C50.5866 154.167 50.7475 153.715 50.7903 153.245C52.8294 153.756 53.6984 154.773 54.0165 155.546C53.7242 156.993 53.0607 158.34 52.091 159.453C53.9995 158.885 54.7776 156.744 54.7776 156.744C56.6691 161.197 56.3112 166.241 51.2561 166.678Z" fill="#0071CE"/>
<path opacity="0.2" d="M51.2561 166.678C50.5562 167.262 49.7282 167.672 48.8398 167.874C47.9513 168.076 47.0276 168.066 46.1441 167.843C45.2925 167.583 44.519 167.115 43.8934 166.481C43.2677 165.847 42.8095 165.068 42.56 164.213C43.593 163.722 44.5388 163.066 45.3603 162.271C44.0482 161.941 42.6695 161.99 41.3843 162.413C41.029 161.855 40.8157 161.218 40.7633 160.559C40.7108 159.899 40.8206 159.237 41.0832 158.63C42.5725 157.967 44.2479 157.85 45.8147 158.3C45.1646 157.733 44.4041 157.306 43.581 157.047C42.7579 156.788 41.89 156.702 41.0321 156.795C40.9045 154.293 41.2912 151.792 42.1681 149.445C45.4227 149.616 48.5751 151.013 49.643 152.024C49.6897 153.189 49.5672 154.354 49.2794 155.483C49.6995 155.268 50.0583 154.95 50.3224 154.558C50.5866 154.167 50.7475 153.715 50.7903 153.245C52.8294 153.756 53.6984 154.773 54.0165 155.546C53.7242 156.993 53.0607 158.34 52.091 159.453C53.9995 158.885 54.7776 156.744 54.7776 156.744C56.6691 161.197 56.3112 166.241 51.2561 166.678Z" fill="black"/>
<path opacity="0.3" d="M51.2561 166.678C50.5562 167.262 49.7282 167.672 48.8398 167.874C47.9513 168.076 47.0276 168.066 46.1441 167.843C45.2925 167.583 44.519 167.115 43.8934 166.481C43.2677 165.847 42.8095 165.068 42.56 164.213C43.593 163.722 44.5388 163.066 45.3603 162.271C44.0482 161.941 42.6695 161.99 41.3843 162.413C41.029 161.855 40.8157 161.218 40.7633 160.559C40.7108 159.899 40.8206 159.237 41.0832 158.63C42.5725 157.967 44.2479 157.85 45.8147 158.3C45.1646 157.733 44.4041 157.306 43.581 157.047C42.7579 156.788 41.89 156.702 41.0321 156.795C40.9045 154.293 41.2912 151.792 42.1681 149.445C45.4227 149.616 48.5751 151.013 49.643 152.024C49.6897 153.189 49.5672 154.354 49.2794 155.483C49.6995 155.268 50.0583 154.95 50.3224 154.558C50.5866 154.167 50.7475 153.715 50.7903 153.245C52.8294 153.756 53.6984 154.773 54.0165 155.546C53.7242 156.993 53.0607 158.34 52.091 159.453C53.9995 158.885 54.7776 156.744 54.7776 156.744C56.6691 161.197 56.3112 166.241 51.2561 166.678Z" fill="white"/>
<path d="M51.3696 167.161C51.4193 167.156 51.465 167.132 51.4976 167.094C51.5303 167.056 51.5474 167.007 51.5457 166.957C51.2333 162.85 48.8818 156.068 43.2756 150.485C43.2587 150.468 43.2384 150.454 43.2159 150.444C43.1935 150.435 43.1694 150.43 43.145 150.43C43.1206 150.43 43.0965 150.435 43.074 150.444C43.0516 150.454 43.0313 150.468 43.0143 150.485C42.9967 150.503 42.9826 150.523 42.973 150.546C42.9634 150.569 42.9585 150.594 42.9585 150.619C42.9585 150.643 42.9634 150.668 42.973 150.691C42.9826 150.714 42.9967 150.735 43.0143 150.752C48.5466 156.273 50.8641 162.953 51.1708 166.997C51.1729 167.021 51.1798 167.044 51.1909 167.065C51.2021 167.086 51.2174 167.105 51.2359 167.121C51.2543 167.136 51.2757 167.147 51.2986 167.154C51.3216 167.161 51.3457 167.164 51.3696 167.161Z" fill="#F5F5F5"/>
<path d="M49.8302 168.876C50.4826 169.409 51.252 169.781 52.0754 169.96C52.8989 170.139 53.753 170.12 54.5679 169.906C55.3828 169.691 56.1355 169.287 56.7642 168.726C57.3929 168.165 57.88 167.463 58.1855 166.678C57.252 166.258 56.3971 165.682 55.6579 164.974C56.8955 164.679 58.1892 164.718 59.4066 165.088C59.7747 164.617 60.0159 164.059 60.1074 163.469C60.1989 162.878 60.1375 162.274 59.9292 161.714C58.5122 161.13 56.9411 161.036 55.4648 161.447C56.7788 160.42 58.4326 159.929 60.0939 160.072C60.3782 157.866 60.1647 155.624 59.4691 153.512C56.3679 153.699 53.3007 154.983 52.2328 155.892C52.1134 156.916 52.1556 157.953 52.3578 158.964C51.9835 158.784 51.666 158.504 51.4396 158.156C51.2133 157.807 51.0869 157.403 51.0741 156.988C49.1316 157.459 48.2341 158.368 47.9104 159.055C48.094 160.33 48.6379 161.527 49.4781 162.503C48.9335 162.305 48.4407 161.987 48.0365 161.572C47.6322 161.157 47.327 160.656 47.1436 160.106C45.1045 164.054 45.1386 168.495 49.8302 168.876Z" fill="#0071CE"/>
<path opacity="0.3" d="M49.8302 168.876C50.4826 169.409 51.252 169.781 52.0754 169.96C52.8989 170.139 53.753 170.12 54.5679 169.906C55.3828 169.691 56.1355 169.287 56.7642 168.726C57.3929 168.165 57.88 167.463 58.1855 166.678C57.252 166.258 56.3971 165.682 55.6579 164.974C56.8955 164.679 58.1892 164.718 59.4066 165.088C59.7747 164.617 60.0159 164.059 60.1074 163.469C60.1989 162.878 60.1375 162.274 59.9292 161.714C58.5122 161.13 56.9411 161.036 55.4648 161.447C56.7788 160.42 58.4326 159.929 60.0939 160.072C60.3782 157.866 60.1647 155.624 59.4691 153.512C56.3679 153.699 53.3007 154.983 52.2328 155.892C52.1134 156.916 52.1556 157.953 52.3578 158.964C51.9835 158.784 51.666 158.504 51.4396 158.156C51.2133 157.807 51.0869 157.403 51.0741 156.988C49.1316 157.459 48.2341 158.368 47.9104 159.055C48.094 160.33 48.6379 161.527 49.4781 162.503C48.9335 162.305 48.4407 161.987 48.0365 161.572C47.6322 161.157 47.327 160.656 47.1436 160.106C45.1045 164.054 45.1386 168.495 49.8302 168.876Z" fill="white"/>
<path d="M49.7053 169.327C49.7502 169.326 49.7934 169.31 49.8276 169.281C49.8618 169.252 49.8848 169.212 49.8927 169.168C50.4267 165.589 53.0224 159.648 58.5945 154.69C58.6122 154.672 58.6262 154.651 58.6358 154.628C58.6454 154.605 58.6503 154.581 58.6503 154.556C58.6503 154.531 58.6454 154.507 58.6358 154.484C58.6262 154.461 58.6122 154.44 58.5945 154.423C58.5775 154.405 58.5572 154.391 58.5348 154.382C58.5123 154.372 58.4882 154.367 58.4638 154.367C58.4394 154.367 58.4153 154.372 58.3929 154.382C58.3704 154.391 58.3501 154.405 58.3332 154.423C52.6873 159.455 50.0518 165.487 49.5065 169.128C49.5 169.177 49.5131 169.226 49.5429 169.266C49.5726 169.305 49.6167 169.331 49.6655 169.338L49.7053 169.327Z" fill="white"/>
<path d="M113.196 44.3825L90.289 57.4464C89.7728 57.7497 89.3443 58.1819 89.0456 58.7007C88.7469 59.2195 88.5881 59.8071 88.585 60.4057V81.8987C88.5999 82.4925 88.7716 83.0718 89.0827 83.5778C89.3938 84.0839 89.8331 84.4986 90.3562 84.7801C90.8793 85.0615 91.4675 85.1996 92.0612 85.1804C92.6549 85.1612 93.2329 84.9853 93.7367 84.6706L100.269 80.9899L100.541 81.433C100.554 81.4491 100.569 81.4626 100.587 81.4727H100.621C101.121 81.8022 102.001 82.2793 102.2 82.3758C102.246 82.3905 102.296 82.3869 102.339 82.3658C102.382 82.3446 102.416 82.3075 102.433 82.2622L103.569 79.0871L116.633 71.6066C117.153 71.3064 117.584 70.874 117.883 70.3533C118.183 69.8327 118.339 69.2422 118.337 68.6417V47.143C118.354 44.6949 114.736 43.5021 113.196 44.3825Z" fill="#0071CE"/>
<path opacity="0.2" d="M100.536 81.4563C100.548 81.4725 100.563 81.486 100.581 81.4961H100.615C101.115 81.8255 101.995 82.3027 102.194 82.3992C102.171 82.3943 102.149 82.3848 102.129 82.3711C102.11 82.3574 102.093 82.3399 102.081 82.3197L101.001 80.5646L101.211 80.4453L100.263 81.0133L100.536 81.4563Z" fill="white"/>
<path opacity="0.4" d="M92.4132 60.685C92.6346 60.2461 92.9462 59.859 93.3277 59.549C93.4581 59.4434 93.5967 59.3484 93.7423 59.265L116.644 46.2011C116.817 46.1012 117.013 46.0487 117.213 46.0489C117.413 46.0491 117.609 46.1019 117.782 46.2022C117.955 46.3024 118.098 46.4465 118.197 46.6198C118.297 46.7931 118.349 46.9896 118.348 47.1894C118.348 44.7299 114.724 43.5372 113.191 44.4175L90.2832 57.4815C89.7514 57.7878 89.3135 58.2337 89.0166 58.7708L92.4132 60.685Z" fill="white"/>
<path opacity="0.2" d="M92.0156 83.7117V62.2187C92.007 62.0844 92.007 61.9497 92.0156 61.8154C92.0728 61.4199 92.1937 61.0363 92.3735 60.6794L88.9655 58.7539C88.6768 59.2632 88.5243 59.8384 88.5225 60.4238V81.9168C88.5374 82.5106 88.7091 83.0899 89.0202 83.596C89.3313 84.102 89.7706 84.5167 90.2937 84.7982C90.8168 85.0796 91.405 85.2177 91.9987 85.1985C92.5924 85.1793 93.1704 85.0034 93.6742 84.6887C93.5034 84.7772 93.3129 84.821 93.1206 84.8158C92.9283 84.8106 92.7404 84.7567 92.5746 84.659C92.4089 84.5614 92.2706 84.4232 92.1728 84.2575C92.0751 84.0918 92.021 83.904 92.0156 83.7117Z" fill="white"/>
<path d="M108.363 71.9766C108.317 72.999 107.227 74.6859 106.159 75.3391L106.068 75.3959C104.932 76.0491 103.836 75.7253 103.694 74.6745L108.363 71.9766Z" fill="white"/>
<path d="M112.463 67.254C112.753 67.3619 112.844 67.9697 112.645 68.4524C112.545 68.7162 112.359 68.9384 112.117 69.0829L111.486 69.4521L110.856 69.8156L106.028 72.5988L100.036 76.0636C99.5358 76.3476 99.3256 76.2113 99.3029 75.6546C99.2976 75.2694 99.4171 74.8928 99.6437 74.5811C100.297 73.5458 100.724 72.3847 100.899 71.1732C101.061 70.0446 101.137 68.9053 101.126 67.7652C101.112 67.1083 101.148 66.4513 101.234 65.7999C101.575 63.8305 102.451 61.993 103.767 60.4891C103.936 60.34 104.064 60.1497 104.137 59.9367C104.211 59.7237 104.228 59.4953 104.188 59.2736C104.161 58.5852 104.312 57.9015 104.625 57.2879C104.938 56.6744 105.404 56.1514 105.977 55.7691C106.274 55.5819 106.629 55.5073 106.977 55.5589C107.624 55.6782 107.897 56.2405 107.783 57.1947C107.715 57.7627 107.783 57.9047 108.22 57.9275C109.924 58.0297 110.816 59.1771 110.884 61.3752C110.918 62.4487 110.941 63.5222 111.015 64.5674C111.04 65.2798 111.248 65.9739 111.617 66.5837C111.819 66.893 112.116 67.1282 112.463 67.254ZM107.028 66.4531L107.516 60.6027L104.511 62.3408L105.028 67.6061L107.045 66.4701M106.045 70.6279C106.467 70.3782 106.822 70.0295 107.08 69.6119C107.337 69.1943 107.489 68.7203 107.522 68.2309C107.522 67.3676 106.914 67.0609 106.039 67.5664C105.617 67.8101 105.261 68.1543 105.004 68.5685C104.746 68.9826 104.594 69.4539 104.563 69.9406C104.563 70.7869 105.176 71.1334 106.045 70.6279ZM106.005 57.1891C105.827 57.3052 105.678 57.462 105.571 57.6466C105.465 57.8312 105.403 58.0384 105.392 58.2512C105.392 58.6375 105.664 58.7908 106 58.6034C106.178 58.4878 106.326 58.3319 106.432 58.1484C106.539 57.9649 106.601 57.7588 106.613 57.5469C106.613 57.155 106.34 56.9789 106 57.1891" fill="white"/>
</svg>
