<svg width="24" height="24" viewBox="0 0 24 24" fill="none" xmlns="http://www.w3.org/2000/svg">
<path d="M20.7109 12.5C20.7109 13.2031 20.1641 13.75 19.5 13.75H7.50781L11.6094 17.8906C12.1172 18.3594 12.1172 19.1797 11.6094 19.6484C11.375 19.8828 11.0625 20 10.75 20C10.3984 20 10.0859 19.8828 9.85156 19.6484L3.60156 13.3984C3.09375 12.9297 3.09375 12.1094 3.60156 11.6406L9.85156 5.39062C10.3203 4.88281 11.1406 4.88281 11.6094 5.39062C12.1172 5.85938 12.1172 6.67969 11.6094 7.14844L7.50781 11.25H19.5C20.1641 11.25 20.7109 11.8359 20.7109 12.5Z" fill="#0A2240"/>
</svg>
