<svg width="317" height="270" viewBox="0 0 317 270" fill="none" xmlns="http://www.w3.org/2000/svg">
<path d="M46.2868 245.819C108.003 278.056 208.071 278.056 269.78 245.819C331.488 213.581 331.502 161.301 269.78 129.064C208.057 96.826 108.003 96.8191 46.2868 129.064C-15.4289 161.308 -15.4289 213.574 46.2868 245.819Z" fill="#F5F5F5"/>
<path d="M77.9425 209.893C77.4384 203.824 76.0378 197.864 73.7861 192.206C70.0953 183.092 63.693 175.704 55.5172 173.971C47.3414 172.239 44.2189 176.512 44.9105 181.353C45.6021 186.194 52.4427 189.864 57.0852 193.924C61.7278 197.985 70.3144 207.804 72.7042 217.281L77.3193 217.788L77.9425 209.893Z" fill="#0071CE"/>
<path opacity="0.2" d="M77.9425 209.893C77.4384 203.824 76.0378 197.864 73.7861 192.206C70.0953 183.092 63.693 175.704 55.5172 173.971C47.3414 172.239 44.2189 176.512 44.9105 181.353C45.6021 186.194 52.4427 189.864 57.0852 193.924C61.7278 197.985 70.3144 207.804 72.7042 217.281L77.3193 217.788L77.9425 209.893Z" fill="black"/>
<path d="M75.6071 217.816C75.5169 217.809 75.433 217.767 75.3729 217.699C75.3129 217.632 75.2815 217.543 75.2853 217.453C76.3261 201.197 65.74 183.216 51.1824 176.526C51.141 176.508 51.1035 176.482 51.0723 176.45C51.0411 176.417 51.0167 176.379 51.0008 176.336C50.9848 176.294 50.9775 176.249 50.9793 176.204C50.9811 176.159 50.9919 176.115 51.0112 176.074C51.05 175.993 51.1186 175.93 51.2028 175.898C51.287 175.866 51.3803 175.868 51.4632 175.903C66.2673 182.709 77.0314 200.978 75.9701 217.494C75.9674 217.539 75.956 217.583 75.9363 217.624C75.9166 217.664 75.8891 217.7 75.8554 217.73C75.8217 217.76 75.7824 217.783 75.7398 217.798C75.6972 217.813 75.6521 217.819 75.6071 217.816Z" fill="#F5F5F5"/>
<path d="M77.6344 246.441C77.6344 246.441 72.8412 249.454 65.4186 248.174C57.996 246.893 56.3869 241.826 55.7501 236.814C55.1133 231.802 51.4567 234.075 46.465 232.021C41.4732 229.967 40.6515 224.831 41.7676 220.983C42.2515 219.306 43.1163 217.764 44.2943 216.477C44.2943 216.477 40.7679 214.936 37.577 209.589C36.2325 207.175 35.0875 204.656 34.1533 202.056C34.1533 202.056 38.207 198.961 46.2116 200.639C48.8897 201.239 51.4175 202.379 53.6411 203.987C53.6411 203.987 57.9892 199.105 63.919 200.886C64.9193 201.201 65.8327 201.744 66.5873 202.472C67.3418 203.201 67.9169 204.094 68.2671 205.083C68.5384 205.913 68.8632 206.725 69.2395 207.514C69.5903 208.004 70.0444 208.41 70.5698 208.705C71.0952 208.999 71.679 209.175 72.2797 209.219C75.1077 209.63 77.7577 209.15 80.3597 210.588C81.6225 211.395 82.6406 212.532 83.3041 213.875C87.1729 220.723 77.6344 246.441 77.6344 246.441Z" fill="#0071CE"/>
<path d="M80.9072 236.771C80.8484 236.77 80.7907 236.754 80.7393 236.726C80.688 236.697 80.6445 236.656 80.6128 236.606C68.9722 217.721 50.5595 206.806 38.3163 203.198C38.2255 203.172 38.1485 203.112 38.1023 203.03C38.0561 202.948 38.0444 202.85 38.0698 202.76C38.0952 202.669 38.1557 202.592 38.2379 202.546C38.3201 202.499 38.4172 202.488 38.508 202.513C50.8334 206.156 69.4652 217.173 81.1948 236.216C81.2258 236.268 81.2426 236.327 81.2437 236.388C81.2448 236.449 81.2301 236.508 81.2011 236.562C81.1721 236.615 81.1298 236.66 81.0782 236.691C81.0267 236.723 80.9678 236.741 80.9072 236.743V236.771Z" fill="#F5F5F5"/>
<path d="M50.1485 221.914C50.0995 221.914 50.051 221.903 50.0062 221.883C49.9615 221.863 49.9213 221.834 49.8883 221.798C49.8564 221.767 49.8311 221.729 49.8138 221.688C49.7965 221.647 49.7876 221.603 49.7876 221.558C49.7876 221.514 49.7965 221.469 49.8138 221.428C49.8311 221.387 49.8564 221.35 49.8883 221.319C50.1211 221.106 55.6881 216.279 63.2476 216.149C63.2928 216.147 63.3379 216.154 63.3802 216.17C63.4225 216.186 63.4611 216.211 63.4938 216.242C63.5264 216.273 63.5523 216.311 63.57 216.353C63.5878 216.394 63.5969 216.439 63.5968 216.484C63.5977 216.529 63.5898 216.574 63.5734 216.616C63.557 216.658 63.5326 216.696 63.5014 216.728C63.4703 216.761 63.433 216.787 63.3918 216.805C63.3506 216.823 63.3063 216.833 63.2613 216.833C55.9483 216.957 50.395 221.777 50.3402 221.832C50.286 221.878 50.2192 221.907 50.1485 221.914Z" fill="#F5F5F5"/>
<path d="M58.9269 213.526C58.8422 213.525 58.7607 213.493 58.6977 213.436C58.6348 213.38 58.5945 213.302 58.5846 213.218C58.3162 210.185 58.84 207.134 60.1047 204.364C60.1245 204.324 60.152 204.288 60.1858 204.258C60.2196 204.228 60.2589 204.205 60.3015 204.19C60.3441 204.176 60.3891 204.17 60.4341 204.173C60.479 204.175 60.523 204.187 60.5635 204.207C60.6039 204.227 60.6401 204.254 60.6699 204.288C60.6997 204.322 60.7226 204.361 60.7372 204.404C60.7519 204.446 60.7579 204.491 60.7552 204.536C60.7524 204.581 60.7407 204.625 60.721 204.666C59.5256 207.322 59.026 210.24 59.2693 213.143C59.279 213.233 59.253 213.324 59.1967 213.396C59.1404 213.467 59.0583 213.514 58.968 213.526H58.9269Z" fill="#F5F5F5"/>
<path d="M265.828 138.927C265.828 138.927 263.028 129.792 264.418 121.124C265.808 112.455 269.896 105.676 275.278 102.82C280.66 99.965 287.35 103.122 282.933 109.216C278.517 115.31 269.526 123.479 270.382 138.715L265.828 138.927Z" fill="#37474F"/>
<path d="M268.033 139.113C267.973 139.112 267.914 139.091 267.866 139.054C267.817 139.017 267.783 138.966 267.766 138.907C264.774 127.855 269.136 110.148 279.215 103.855C279.277 103.821 279.349 103.811 279.418 103.829C279.486 103.847 279.545 103.89 279.582 103.95C279.619 104.01 279.631 104.082 279.617 104.151C279.602 104.22 279.561 104.281 279.503 104.321C269.608 110.483 265.356 127.896 268.294 138.763C268.313 138.834 268.303 138.91 268.267 138.974C268.232 139.038 268.172 139.085 268.102 139.106L268.033 139.113Z" fill="#F5F5F5"/>
<path d="M273.258 148.919C274.099 149.378 275.039 149.627 275.997 149.645C277.122 149.713 278.249 149.542 279.304 149.145C281.181 148.46 282.728 147.364 283.221 145.338C283.591 143.742 283.002 141.914 283.7 140.407C284.399 138.901 286.487 137.97 287.919 137.518C288.925 137.196 289.973 137.045 290.966 136.669C291.469 136.511 291.936 136.254 292.337 135.911C292.738 135.569 293.066 135.149 293.301 134.676C294.246 132.348 291.664 129.712 292.513 127.349C292.931 126.179 294.074 125.46 295.129 124.788C296.183 124.117 297.299 123.323 297.587 122.111C297.678 121.552 297.631 120.978 297.45 120.441C297.268 119.904 296.958 119.419 296.546 119.03C294.663 117.085 291.507 116.9 288.98 117.866C288.199 118.214 287.402 118.523 286.59 118.79C283.413 119.619 280.023 117.537 276.826 118.29C275.798 118.547 274.86 119.082 274.115 119.835C273.37 120.589 272.846 121.532 272.601 122.563C272.45 123.248 272.43 123.98 272.265 124.679C271.861 126.425 270.019 126.795 269.581 128.582C269.177 130.198 269.684 131.896 269.965 133.492C270.389 135.943 270.868 138.381 271.382 140.818C271.656 142.142 271.939 143.461 272.231 144.776C272.498 145.995 272.142 147.323 272.683 148.439C272.865 148.611 273.057 148.771 273.258 148.919Z" fill="#455A64"/>
<path d="M272.361 140.273H272.313C272.241 140.261 272.176 140.222 272.133 140.163C272.089 140.104 272.07 140.03 272.08 139.958C273.45 131.056 285.974 120.511 293.992 119.416C294.064 119.408 294.137 119.428 294.194 119.473C294.252 119.518 294.29 119.583 294.3 119.655C294.31 119.727 294.291 119.8 294.247 119.857C294.204 119.915 294.139 119.953 294.067 119.963C286.22 121.045 273.977 131.317 272.635 140.04C272.624 140.105 272.59 140.164 272.54 140.206C272.49 140.249 272.427 140.272 272.361 140.273Z" fill="#F5F5F5"/>
<path d="M279.51 128.37C279.442 128.369 279.377 128.342 279.327 128.295C279.278 128.248 279.248 128.185 279.243 128.117C278.743 122.68 276.764 120.585 276.743 120.585C276.718 120.559 276.698 120.528 276.685 120.494C276.672 120.461 276.665 120.425 276.666 120.388C276.667 120.352 276.674 120.316 276.689 120.283C276.703 120.25 276.724 120.22 276.75 120.195C276.776 120.169 276.807 120.15 276.841 120.136C276.875 120.123 276.911 120.117 276.947 120.117C276.983 120.118 277.019 120.126 277.052 120.14C277.085 120.155 277.115 120.175 277.141 120.201C277.223 120.291 279.27 122.447 279.784 128.103C279.787 128.139 279.784 128.175 279.774 128.209C279.763 128.244 279.746 128.275 279.723 128.303C279.7 128.33 279.672 128.353 279.64 128.369C279.608 128.386 279.573 128.395 279.537 128.398L279.51 128.37Z" fill="#F5F5F5"/>
<path d="M288.213 132.904C288.179 132.911 288.144 132.911 288.11 132.904C288.048 132.904 281.913 130.309 276.771 131.706C276.703 131.72 276.632 131.707 276.573 131.67C276.514 131.634 276.471 131.576 276.453 131.509C276.434 131.442 276.442 131.371 276.474 131.31C276.507 131.248 276.561 131.201 276.627 131.179C281.954 129.727 288.062 132.288 288.322 132.398C288.356 132.412 288.386 132.432 288.411 132.458C288.437 132.484 288.457 132.515 288.47 132.549C288.483 132.583 288.49 132.619 288.489 132.655C288.489 132.691 288.481 132.727 288.466 132.76C288.442 132.806 288.406 132.844 288.361 132.87C288.316 132.895 288.264 132.907 288.213 132.904Z" fill="#F5F5F5"/>
<path d="M79.6698 249.476C78.96 248.991 78.3739 248.347 77.9587 247.595C77.5435 246.843 77.3108 246.004 77.2793 245.145V107.271C77.3264 106.386 77.5822 105.525 78.0258 104.759C78.4694 103.992 79.0881 103.341 79.8315 102.859L256.693 0.73831C257.431 0.272942 258.282 0.0179705 259.155 0.00091553C260.027 -0.0161394 260.888 0.205371 261.644 0.641534C262.399 1.0777 263.022 1.71195 263.444 2.4759C263.866 3.23985 264.071 4.10448 264.037 4.97651V142.851C263.988 143.736 263.732 144.598 263.288 145.367C262.845 146.135 262.227 146.788 261.485 147.274L84.624 249.383C83.8636 249.787 83.0188 250.006 82.1579 250.022C81.2971 250.038 80.4447 249.851 79.6698 249.476Z" fill="#455A64"/>
<path d="M86.8529 109.812L78.0301 104.719C77.5703 105.476 77.3118 106.339 77.2794 107.225V245.145C77.2459 246.017 77.4511 246.882 77.873 247.646C78.2948 248.41 78.9172 249.044 79.6731 249.48C80.429 249.916 81.2895 250.138 82.1621 250.121C83.0346 250.104 83.8859 249.849 84.6241 249.383L86.8529 248.09V109.812Z" fill="#263238"/>
<path d="M82.0718 110.044V247.918C82.0718 249.546 83.2266 250.228 84.6239 249.385L261.485 147.275C262.227 146.79 262.845 146.136 263.288 145.368C263.732 144.6 263.988 143.738 264.037 142.852V4.97801C264.037 3.34971 262.882 2.66836 261.485 3.51138L84.6239 105.621C83.8803 106.105 83.2616 106.758 82.8181 107.527C82.3746 108.295 82.1189 109.158 82.0718 110.044Z" fill="#37474F"/>
<path d="M96.438 145.981V167.738C96.438 169.366 97.5928 170.048 98.9902 169.205L127.399 152.806C128.143 152.323 128.762 151.67 129.206 150.901C129.649 150.132 129.905 149.27 129.951 148.383V126.626C129.951 124.998 128.796 124.317 127.399 125.16L99.0248 141.558C98.2761 142.04 97.6516 142.692 97.2021 143.46C96.7526 144.229 96.4908 145.093 96.438 145.981Z" fill="#0071CE"/>
<path d="M129.951 132.641V131.312L96.4609 150.656V151.995L105.457 146.799V156.568L96.4609 161.765V163.093L129.951 143.75V142.41L120.955 147.607V137.837L129.951 132.641ZM119.811 148.277L106.6 155.899V146.129L119.811 138.507V148.277Z" fill="#F5F5F5"/>
<path d="M96.438 187.462V192.624C96.438 194.252 97.5928 194.934 98.9902 194.091L127.399 177.692C128.141 177.207 128.759 176.553 129.202 175.785C129.645 175.017 129.902 174.155 129.951 173.269V168.107C129.951 166.479 128.796 165.797 127.399 166.629L99.0248 183.039C98.2748 183.519 97.6493 184.171 97.1997 184.939C96.75 185.708 96.489 186.573 96.438 187.462Z" fill="#E0E0E0"/>
<path d="M136.337 164.411V169.573C136.337 171.201 137.492 171.883 138.889 171.051L167.309 154.641C168.053 154.159 168.671 153.509 169.115 152.742C169.559 151.975 169.814 151.114 169.861 150.23V145.056C169.861 143.428 168.707 142.746 167.309 143.59L138.889 159.988C138.147 160.474 137.529 161.127 137.086 161.895C136.642 162.664 136.386 163.525 136.337 164.411Z" fill="#E0E0E0"/>
<path d="M176.248 141.371V146.533C176.248 148.162 177.403 148.843 178.8 148.011L207.209 131.601C207.961 131.115 208.587 130.455 209.033 129.678C209.479 128.9 209.732 128.028 209.773 127.132V121.97C209.773 120.342 208.618 119.661 207.209 120.504L178.8 136.902C178.052 137.392 177.43 138.053 176.987 138.83C176.543 139.607 176.29 140.478 176.248 141.371Z" fill="#E0E0E0"/>
<path d="M216.147 118.337V123.499C216.147 125.127 217.302 125.809 218.699 124.977L247.119 108.567C247.862 108.082 248.479 107.428 248.923 106.66C249.366 105.892 249.623 105.03 249.671 104.144V98.9821C249.671 97.3538 248.517 96.6725 247.119 97.5039L218.699 113.914C217.956 114.398 217.337 115.051 216.893 115.82C216.45 116.588 216.194 117.451 216.147 118.337Z" fill="#E0E0E0"/>
<path d="M233.769 124.573L227.21 128.292C226.766 128.584 226.396 128.977 226.131 129.438C225.866 129.899 225.714 130.417 225.686 130.948V132.946C225.686 133.916 226.367 134.308 227.21 133.823L233.723 130.059C234.17 129.771 234.542 129.381 234.809 128.921C235.076 128.461 235.23 127.945 235.259 127.414V125.416C235.294 124.481 234.624 124.077 233.769 124.573Z" fill="#0071CE"/>
<path d="M248.135 116.27L241.622 120.035C241.177 120.326 240.807 120.719 240.542 121.181C240.277 121.642 240.125 122.159 240.098 122.691V124.677C240.098 125.659 240.779 126.051 241.622 125.566L248.135 121.802C248.584 121.513 248.957 121.121 249.224 120.659C249.491 120.197 249.644 119.678 249.671 119.146V117.159C249.671 116.178 248.99 115.785 248.135 116.27Z" fill="#0071CE"/>
<path d="M165.9 177.576L246.992 130.759C248.401 129.939 249.544 130.597 249.544 132.226V134.628C249.495 135.513 249.239 136.375 248.795 137.143C248.352 137.912 247.734 138.565 246.992 139.051L165.9 185.867C164.491 186.687 163.348 186.017 163.348 184.389V181.999C163.395 181.112 163.651 180.25 164.095 179.481C164.538 178.713 165.157 178.06 165.9 177.576Z" fill="#0071CE"/>
</svg>
