<svg width="48" height="48" viewBox="0 0 48 48" fill="none" xmlns="http://www.w3.org/2000/svg">
<path d="M13.5 12.75C13.5 7.00781 18.1758 2.25 24 2.25C29.7422 2.25 34.5 7.00781 34.5 12.75C34.5 18.5742 29.7422 23.25 24 23.25C18.1758 23.25 13.5 18.5742 13.5 12.75ZM31.875 12.75C31.875 8.40234 28.3477 4.875 24 4.875C19.5703 4.875 16.125 8.40234 16.125 12.75C16.125 17.0977 19.5703 20.625 24 20.625C28.3477 20.625 31.875 17.0977 31.875 12.75ZM5.625 41.7891C5.625 33.75 12.1055 27.1875 20.1445 27.1875H27.7734C35.8125 27.1875 42.375 33.75 42.375 41.7891C42.375 43.1836 41.2266 44.25 39.832 44.25H8.08594C6.69141 44.25 5.625 43.1836 5.625 41.7891ZM18.75 35.0625C18.0117 35.0625 17.4375 35.7188 17.4375 36.375C17.4375 37.1133 18.0117 37.6875 18.75 37.6875C19.4062 37.6875 20.0625 37.1133 20.0625 36.375C20.0625 35.7188 19.4062 35.0625 18.75 35.0625ZM20.0625 29.8125V32.6836C21.5391 33.2578 22.6875 34.7344 22.6875 36.375C22.6875 38.5898 20.8828 40.3125 18.75 40.3125C16.5352 40.3125 14.8125 38.5898 14.8125 36.375C14.8125 34.7344 15.8789 33.2578 17.4375 32.6836V30.1406C12.1875 31.3711 8.25 36.0469 8.25 41.625H39.668C39.668 36.5391 36.3867 32.1914 31.875 30.5508V32.6836C33.3516 33.2578 34.5 34.7344 34.5 36.375V39C34.5 39.7383 33.8438 40.3125 33.1875 40.3125C32.4492 40.3125 31.875 39.7383 31.875 39V36.375C31.875 35.7188 31.2188 35.0625 30.5625 35.0625C29.8242 35.0625 29.25 35.7188 29.25 36.375V39C29.25 39.7383 28.5938 40.3125 27.9375 40.3125C27.1992 40.3125 26.625 39.7383 26.625 39V36.375C26.625 34.7344 27.6914 33.2578 29.25 32.6836V29.8945C28.7578 29.8945 28.2656 29.8125 27.7734 29.8125H20.1445C20.0625 29.8125 20.0625 29.8125 19.9805 29.8125H20.0625Z" fill="#0071CE"/>
</svg>
