<svg width="25" height="25" viewBox="0 0 64 64" fill="none" xmlns="http://www.w3.org/2000/svg">
<circle cx="32" cy="32" r="32" fill="#0071CE"/>
<path d="M34.2832 16.5312V17.8594C39.1309 18.8555 42.7832 23.1055 42.7832 28.2188V29.4805C42.7832 32.6016 43.9121 35.6562 45.9707 37.9805L46.4355 38.5117C47.0332 39.1758 47.166 40.0391 46.834 40.8359C46.502 41.5664 45.7051 42.0312 44.9082 42.0312H19.4082C18.5449 42.0312 17.748 41.5664 17.416 40.8359C17.084 40.0391 17.2168 39.1758 17.8145 38.5117L18.2793 37.9805C20.3379 35.6562 21.5332 32.6016 21.5332 29.4805V28.2188C21.5332 23.1055 25.1191 18.8555 30.0332 17.8594V16.5312C30.0332 15.4023 30.9629 14.4062 32.1582 14.4062C33.2871 14.4062 34.2832 15.4023 34.2832 16.5312ZM32.1582 48.4062C31.0293 48.4062 29.9004 48.0078 29.1035 47.2109C28.3066 46.4141 27.9082 45.2852 27.9082 44.1562H36.4082C36.4082 45.2852 35.9434 46.4141 35.1465 47.2109C34.3496 48.0078 33.2207 48.4062 32.1582 48.4062Z" fill="white"/>
</svg>
