<svg width="56" height="92" viewBox="0 0 40 44" fill="none" xmlns="http://www.w3.org/2000/svg">
<g filter="url(#filter0_d_976_5820)">
<path d="M2.18993 35.0684C2.11931 35.0211 2.06438 34.9538 2.03213 34.8751C1.99988 34.7965 1.99177 34.71 2.00884 34.6267L6.34758 15.4242C6.3998 15.2385 6.51762 15.0781 6.67916 14.9727L32.4962 0.0697507C32.5752 0.0280054 32.6629 0.00547331 32.7522 0.0039851C32.8414 0.00249689 32.9298 0.0220946 33.0101 0.0611858C33.0796 0.108825 33.1335 0.175913 33.1651 0.254048C33.1967 0.332184 33.2045 0.417893 33.1875 0.500443L28.8476 19.703C28.7953 19.8889 28.6769 20.0495 28.5148 20.1545L2.70382 35.0574C2.62507 35.0995 2.53749 35.1225 2.44819 35.1244C2.3589 35.1263 2.27042 35.1071 2.18993 35.0684Z" fill="#F0F0F0"/>
<path d="M6.84425 15.7066L2.50551 34.9165C2.46881 35.0804 2.5569 35.1465 2.70373 35.0621L28.5208 20.1591C28.683 20.0541 28.8013 19.8936 28.8536 19.7076L33.1875 0.499013C33.2242 0.333833 33.1361 0.268984 32.9892 0.35341L7.17216 15.2563C7.01231 15.3622 6.8959 15.522 6.84425 15.7066Z" fill="#E6E6E6"/>
<path d="M33.5017 0.341851C33.4213 0.302947 33.3329 0.283558 33.2436 0.285259C33.1543 0.28696 33.0667 0.309703 32.9878 0.35164L7.17074 15.2546C7.09585 15.3031 7.03563 15.3711 6.9966 15.4513C6.95756 15.5315 6.9412 15.6209 6.94928 15.7097L10.3471 39.4945C10.3637 39.5846 10.3981 39.6706 10.4483 39.7473C10.4985 39.8239 10.5635 39.8898 10.6395 39.9411C10.7196 39.9803 10.8079 39.9998 10.897 39.9981C10.9862 39.9964 11.0737 39.9735 11.1522 39.9313L36.9644 25.032C37.0395 24.9834 37.0998 24.9152 37.1388 24.8348C37.1779 24.7543 37.1941 24.6647 37.1858 24.5756L33.799 0.78845C33.7819 0.697882 33.7468 0.611677 33.6957 0.534956C33.6446 0.458236 33.5787 0.392566 33.5017 0.341851Z" fill="#F0F0F0"/>
<path d="M7.45127 16.0001L10.8442 39.7848C10.8449 39.8203 10.8553 39.8548 10.8745 39.8847C10.8936 39.9146 10.9206 39.9386 10.9525 39.9541C10.9845 39.9695 11.0201 39.9758 11.0554 39.9723C11.0907 39.9688 11.1243 39.9555 11.1525 39.9341L36.9647 25.0348C37.0398 24.9862 37.1001 24.918 37.1392 24.8375C37.1782 24.7571 37.1945 24.6675 37.1862 24.5784L33.7994 0.791231C33.7989 0.755659 33.7886 0.720911 33.7696 0.69086C33.7505 0.660808 33.7235 0.636633 33.6915 0.621029C33.6596 0.605425 33.6239 0.599004 33.5885 0.602483C33.5531 0.605963 33.5193 0.619204 33.491 0.640733L7.67395 15.5437C7.59864 15.5921 7.53805 15.6602 7.49879 15.7407C7.45952 15.8212 7.44309 15.9109 7.45127 16.0001Z" fill="#FAFAFA"/>
<path d="M2.52856 34.8085L9.13578 30.9922L9.32788 32.3748L6.29835 34.1245C6.29835 34.1245 5.4908 34.4108 5.17023 34.4916C4.84965 34.5723 2.52856 34.8085 2.52856 34.8085Z" fill="#E0E0E0"/>
<path d="M9.33141 32.375L10.3225 39.3248L6.30188 34.1247L9.33141 32.375Z" fill="#E6E6E6"/>
<path d="M10.2043 39.5594L6.60087 34.8793C6.54105 34.8095 6.46544 34.755 6.38031 34.7203C6.29519 34.6856 6.20301 34.6717 6.11145 34.6798L2.74177 35.1693C2.55201 35.1896 2.36041 35.1547 2.18995 35.0689C2.05291 34.9906 2.07616 34.9001 2.24134 34.8683L6.1139 34.1231C6.2047 34.1095 6.29748 34.1195 6.38324 34.1523C6.469 34.1851 6.54482 34.2395 6.60332 34.3103L10.7059 39.8408C10.8062 39.9766 10.7769 40.0219 10.6398 39.9424C10.4747 39.8394 10.3275 39.71 10.2043 39.5594Z" fill="#E0E0E0"/>
<path d="M33.1936 0.403597C33.1931 0.334655 33.1757 0.266885 33.1429 0.206279C33.11 0.145672 33.0627 0.0940948 33.0052 0.0561069C32.9247 0.0175819 32.8363 -0.00159564 32.7471 0.000103866C32.6578 0.00180337 32.5702 0.0243331 32.4913 0.0658956L6.6742 14.9688C6.59548 15.0182 6.52695 15.0821 6.47231 15.1573C6.41167 15.2354 6.36717 15.3248 6.34139 15.4203L5.72961 18.133L6.22638 18.418L32.5757 3.20922L33.1875 0.497811C33.1933 0.466761 33.1958 0.435174 33.1948 0.403597H33.1936Z" fill="#0071CE"/>
<path opacity="0.2" d="M33.1875 0.499013C33.2242 0.333833 33.1361 0.268984 32.9893 0.35341L7.17225 15.2563C7.01101 15.3615 6.89324 15.5214 6.84066 15.7066L6.22888 18.4192L32.5758 3.21042L33.1875 0.499013Z" fill="black"/>
<path opacity="0.1" d="M6.97371 15.4438C6.91297 15.5212 6.86882 15.6104 6.84402 15.7056L6.23224 18.4183L5.73547 18.1319L6.34725 15.4193C6.37303 15.3238 6.41753 15.2344 6.47817 15.1562L6.97371 15.4438Z" fill="black"/>
<path opacity="0.4" d="M33.1934 0.403598C33.1812 0.311831 33.1017 0.281242 32.9879 0.353432L7.17082 15.2551C7.09154 15.3043 7.0229 15.3687 6.96893 15.4448L6.47217 15.1573C6.5268 15.0821 6.59533 15.0182 6.67405 14.9688L32.4911 0.0658956C32.5701 0.0243331 32.6577 0.00180337 32.7469 0.000103863C32.8361 -0.00159565 32.9245 0.0175823 33.005 0.0561074C33.0626 0.0940953 33.1098 0.145672 33.1427 0.206279C33.1756 0.266886 33.193 0.334656 33.1934 0.403598Z" fill="white"/>
<path d="M33.8249 1.01603L33.7992 0.78845C33.7974 0.777316 33.7949 0.766288 33.7919 0.755414C33.7924 0.752172 33.7924 0.748866 33.7919 0.745625C33.7503 0.580976 33.6497 0.437311 33.5093 0.341851C33.4289 0.302947 33.3404 0.283558 33.2511 0.285259C33.1618 0.28696 33.0742 0.309703 32.9954 0.35164L7.17829 15.2546C7.10014 15.303 7.03833 15.3737 7.00087 15.4577C6.96265 15.5358 6.94737 15.6232 6.95682 15.7097L7.44624 19.1173L7.94301 19.4049L34.2801 4.19728L33.8249 1.01603Z" fill="#0071CE"/>
<path opacity="0.1" d="M7.93788 19.4042L7.44112 19.1167L6.95169 15.7091C6.94225 15.6226 6.95752 15.5352 6.99574 15.457L7.49373 15.7433C7.45463 15.8212 7.43891 15.9088 7.44846 15.9954L7.93788 19.4042Z" fill="black"/>
<path opacity="0.4" d="M33.7845 0.745625C33.7775 0.714801 33.7629 0.686233 33.7419 0.662553C33.721 0.638873 33.6944 0.620841 33.6647 0.610117C33.635 0.599393 33.603 0.596321 33.5718 0.601186C33.5406 0.60605 33.5111 0.618693 33.486 0.637952L7.66891 15.5409C7.59046 15.5889 7.52856 15.6598 7.4915 15.744L7.0033 15.4577C7.04105 15.3736 7.10277 15.3025 7.18071 15.2534L32.9978 0.35164C33.0766 0.309703 33.1643 0.28696 33.2536 0.285259C33.3429 0.283558 33.4313 0.302947 33.5117 0.341851C33.6488 0.438701 33.7458 0.582284 33.7845 0.745625Z" fill="white"/>
<path d="M14.791 35.8421L14.4827 33.6752C14.4823 33.647 14.4741 33.6194 14.4591 33.5955C14.444 33.5716 14.4228 33.5523 14.3975 33.5397C14.3723 33.5271 14.344 33.5216 14.3159 33.524C14.2878 33.5263 14.2608 33.5363 14.238 33.5528L11.9879 34.8523C11.9273 34.891 11.8786 34.9459 11.8472 35.0107C11.8159 35.0755 11.8032 35.1477 11.8105 35.2193L12.1176 37.3911C12.1176 37.4195 12.1255 37.4474 12.1404 37.4715C12.1554 37.4957 12.1767 37.5152 12.2021 37.5279C12.2275 37.5406 12.256 37.546 12.2843 37.5435C12.3125 37.5409 12.3396 37.5305 12.3623 37.5135L14.6124 36.2141C14.6742 36.1752 14.7237 36.1196 14.7553 36.0538C14.7869 35.988 14.7993 35.9146 14.791 35.8421Z" fill="#0071CE"/>
<path d="M18.2708 33.8343L17.9613 31.6686C17.9613 31.6402 17.9534 31.6123 17.9384 31.5882C17.9235 31.564 17.9021 31.5445 17.8767 31.5318C17.8513 31.5191 17.8229 31.5137 17.7946 31.5162C17.7663 31.5188 17.7393 31.5292 17.7166 31.5462L15.4664 32.8444C15.4059 32.8833 15.3573 32.9382 15.326 33.0029C15.2947 33.0677 15.2819 33.1399 15.289 33.2115L15.5986 35.3784C15.5986 35.4068 15.6065 35.4346 15.6214 35.4588C15.6364 35.483 15.6577 35.5025 15.6831 35.5152C15.7085 35.5279 15.737 35.5333 15.7653 35.5307C15.7936 35.5282 15.8206 35.5178 15.8433 35.5008L18.0934 34.2013C18.1542 34.1626 18.2029 34.1078 18.2343 34.043C18.2656 33.9782 18.2783 33.9059 18.2708 33.8343Z" fill="#EBEBEB"/>
<path d="M21.7508 31.8304L21.4413 29.6647C21.4413 29.6363 21.4334 29.6084 21.4184 29.5843C21.4035 29.5601 21.3821 29.5406 21.3567 29.5279C21.3313 29.5152 21.3029 29.5098 21.2746 29.5123C21.2463 29.5149 21.2193 29.5253 21.1966 29.5423L18.9452 30.8429C18.8847 30.8818 18.8361 30.9367 18.8048 31.0015C18.7735 31.0663 18.7607 31.1384 18.7678 31.21L19.0774 33.3769C19.0774 33.4053 19.0853 33.4332 19.1002 33.4573C19.1151 33.4815 19.1365 33.501 19.1619 33.5137C19.1873 33.5264 19.2157 33.5318 19.244 33.5293C19.2723 33.5267 19.2993 33.5163 19.3221 33.4993L21.5722 32.1999C21.6335 32.1612 21.6828 32.106 21.7144 32.0407C21.746 31.9754 21.7586 31.9025 21.7508 31.8304Z" fill="#EBEBEB"/>
<path d="M25.2344 29.8238L24.9248 27.6569C24.9248 27.6284 24.9169 27.6006 24.902 27.5764C24.8871 27.5523 24.8657 27.5328 24.8403 27.5201C24.8149 27.5074 24.7864 27.502 24.7581 27.5045C24.7299 27.5071 24.7028 27.5175 24.6801 27.5345L22.4202 28.8364C22.3595 28.875 22.3107 28.9299 22.2794 28.9947C22.248 29.0595 22.2354 29.1318 22.2428 29.2034L22.5523 31.3691C22.5523 31.3975 22.5603 31.4254 22.5752 31.4495C22.5901 31.4737 22.6115 31.4932 22.6369 31.5059C22.6623 31.5186 22.6907 31.524 22.719 31.5215C22.7473 31.5189 22.7743 31.5085 22.7971 31.4915L25.0472 30.1933C25.1099 30.1555 25.1607 30.1008 25.1938 30.0354C25.2269 29.9701 25.241 29.8967 25.2344 29.8238Z" fill="#EBEBEB"/>
<path d="M28.7104 27.8169L28.4009 25.6451C28.4009 25.6167 28.393 25.5889 28.378 25.5647C28.3631 25.5406 28.3417 25.521 28.3163 25.5083C28.2909 25.4956 28.2625 25.4903 28.2342 25.4928C28.2059 25.4954 28.1789 25.5057 28.1562 25.5228L25.906 26.8222C25.8453 26.8609 25.7965 26.9157 25.7652 26.9805C25.7339 27.0454 25.7212 27.1176 25.7286 27.1893L26.0382 29.355C26.0382 29.3834 26.0461 29.4112 26.061 29.4354C26.076 29.4595 26.0973 29.4791 26.1227 29.4918C26.1481 29.5045 26.1766 29.5098 26.2049 29.5073C26.2332 29.5047 26.2602 29.4944 26.2829 29.4773L28.5379 28.1816C28.5971 28.1423 28.6445 28.0875 28.6749 28.0233C28.7053 27.959 28.7176 27.8877 28.7104 27.8169Z" fill="#EBEBEB"/>
<path d="M32.19 25.8121L31.8805 23.6451C31.8805 23.6167 31.8726 23.5889 31.8576 23.5647C31.8427 23.5406 31.8213 23.521 31.7959 23.5083C31.7705 23.4956 31.7421 23.4903 31.7138 23.4928C31.6855 23.4954 31.6585 23.5057 31.6358 23.5228L29.3857 24.8222C29.3249 24.8609 29.2762 24.9157 29.2448 24.9805C29.2135 25.0454 29.2008 25.1176 29.2082 25.1893L29.5166 27.3599C29.5166 27.3883 29.5245 27.4161 29.5394 27.4403C29.5543 27.4644 29.5757 27.484 29.6011 27.4967C29.6265 27.5094 29.655 27.5147 29.6833 27.5122C29.7115 27.5096 29.7386 27.4993 29.7613 27.4822L32.0114 26.1828C32.0729 26.1439 32.1222 26.0885 32.1538 26.023C32.1853 25.9574 32.1979 25.8844 32.19 25.8121Z" fill="#EBEBEB"/>
<path d="M35.6698 23.8121L35.3603 21.6451C35.3603 21.6167 35.3524 21.5889 35.3374 21.5647C35.3225 21.5406 35.3011 21.521 35.2757 21.5083C35.2503 21.4956 35.2219 21.4903 35.1936 21.4928C35.1653 21.4954 35.1383 21.5057 35.1156 21.5228L32.8654 22.8222C32.8048 22.861 32.7561 22.9158 32.7248 22.9806C32.6935 23.0454 32.6808 23.1177 32.688 23.1893L32.9964 25.3562C32.9968 25.3844 33.005 25.412 33.02 25.4358C33.035 25.4597 33.0563 25.479 33.0816 25.4917C33.1068 25.5043 33.135 25.5097 33.1632 25.5074C33.1913 25.5051 33.2182 25.4951 33.2411 25.4785L35.4912 24.1791C35.552 24.1405 35.601 24.0857 35.6325 24.0209C35.6641 23.9561 35.677 23.8838 35.6698 23.8121Z" fill="#EBEBEB"/>
<path d="M14.1868 31.6014L13.8772 29.4369C13.8768 29.4087 13.8686 29.3811 13.8536 29.3572C13.8386 29.3334 13.8173 29.3141 13.792 29.3014C13.7668 29.2888 13.7386 29.2834 13.7104 29.2857C13.6823 29.288 13.6554 29.298 13.6325 29.3146L11.3824 30.614C11.3218 30.6528 11.2731 30.7076 11.2418 30.7724C11.2105 30.8372 11.1977 30.9094 11.205 30.981L11.5133 33.148C11.5138 33.1762 11.522 33.2037 11.537 33.2276C11.552 33.2515 11.5733 33.2708 11.5985 33.2834C11.6238 33.2961 11.652 33.3015 11.6801 33.2992C11.7083 33.2969 11.7352 33.2869 11.758 33.2703L14.0082 31.9709C14.069 31.9317 14.1179 31.8764 14.1494 31.8112C14.1809 31.7461 14.1939 31.6734 14.1868 31.6014Z" fill="#0071CE"/>
<path d="M17.6663 29.596L17.3567 27.4291C17.3563 27.4009 17.3481 27.3733 17.3331 27.3494C17.3181 27.3256 17.2968 27.3062 17.2715 27.2936C17.2463 27.281 17.2181 27.2755 17.1899 27.2779C17.1618 27.2802 17.1349 27.2902 17.112 27.3067L14.8619 28.6062C14.8013 28.645 14.7526 28.6998 14.7213 28.7646C14.6899 28.8294 14.6772 28.9016 14.6845 28.9732L14.9928 31.1402C14.9933 31.1684 15.0014 31.1959 15.0165 31.2198C15.0315 31.2437 15.0528 31.263 15.078 31.2756C15.1033 31.2883 15.1315 31.2937 15.1596 31.2914C15.1877 31.2891 15.2147 31.2791 15.2375 31.2625L17.4877 29.9631C17.5481 29.9241 17.5967 29.8692 17.6282 29.8045C17.6597 29.7398 17.6729 29.6677 17.6663 29.596Z" fill="#EBEBEB"/>
<path d="M21.1463 27.5882L20.8367 25.4213C20.8363 25.3931 20.8281 25.3655 20.8131 25.3416C20.798 25.3177 20.7768 25.2984 20.7515 25.2858C20.7263 25.2732 20.698 25.2677 20.6699 25.2701C20.6418 25.2724 20.6148 25.2824 20.592 25.2989L18.3419 26.5984C18.2813 26.6371 18.2326 26.692 18.2012 26.7568C18.1699 26.8216 18.1572 26.8938 18.1645 26.9654L18.4728 29.1323C18.4732 29.1606 18.4814 29.1881 18.4964 29.212C18.5115 29.2359 18.5328 29.2552 18.558 29.2678C18.5832 29.2804 18.6115 29.2859 18.6396 29.2836C18.6677 29.2813 18.6947 29.2713 18.7175 29.2547L20.9676 27.9553C21.0281 27.9162 21.0767 27.8614 21.1082 27.7967C21.1397 27.732 21.1529 27.6599 21.1463 27.5882Z" fill="#EBEBEB"/>
<path d="M24.6224 25.5843L24.3128 23.4174C24.3124 23.3892 24.3042 23.3616 24.2892 23.3377C24.2742 23.3138 24.2529 23.2945 24.2276 23.2819C24.2024 23.2693 24.1742 23.2638 24.146 23.2661C24.1179 23.2685 24.091 23.2785 24.0681 23.295L21.8205 24.5969C21.7599 24.6358 21.7113 24.6906 21.68 24.7554C21.6487 24.8202 21.6359 24.8924 21.643 24.964L21.9514 27.1309C21.9518 27.1591 21.96 27.1867 21.975 27.2105C21.99 27.2344 22.0113 27.2537 22.0366 27.2664C22.0618 27.279 22.09 27.2844 22.1182 27.2821C22.1463 27.2798 22.1732 27.2698 22.1961 27.2532L24.4462 25.9538C24.5067 25.9144 24.5552 25.859 24.5863 25.7938C24.6173 25.7286 24.6298 25.6561 24.6224 25.5843Z" fill="#EBEBEB"/>
<path d="M28.1061 23.5765L27.7965 21.4108C27.7965 21.3824 27.7886 21.3545 27.7736 21.3303C27.7587 21.3062 27.7374 21.2867 27.7119 21.274C27.6865 21.2613 27.6581 21.2559 27.6298 21.2584C27.6015 21.261 27.5745 21.2714 27.5518 21.2884L25.3004 22.5866C25.2399 22.6255 25.1913 22.6803 25.16 22.7451C25.1287 22.8099 25.1159 22.8821 25.123 22.9537L25.4314 25.1206C25.4318 25.1488 25.44 25.1764 25.455 25.2002C25.47 25.2241 25.4913 25.2434 25.5166 25.2561C25.5418 25.2687 25.57 25.2741 25.5981 25.2718C25.6263 25.2695 25.6532 25.2595 25.6761 25.2429L27.9262 23.9411C27.9866 23.9025 28.0353 23.8481 28.067 23.7838C28.0987 23.7196 28.1122 23.6479 28.1061 23.5765Z" fill="#EBEBEB"/>
<path d="M31.5859 21.5713L31.2764 19.4069C31.2764 19.3784 31.2685 19.3506 31.2535 19.3264C31.2386 19.3023 31.2172 19.2828 31.1918 19.2701C31.1664 19.2574 31.138 19.252 31.1097 19.2545C31.0814 19.2571 31.0544 19.2675 31.0317 19.2845L28.7828 20.5851C28.722 20.6238 28.6733 20.6787 28.6419 20.7435C28.6106 20.8083 28.5979 20.8806 28.6053 20.9522L28.9137 23.1179C28.9141 23.1461 28.9223 23.1737 28.9373 23.1976C28.9523 23.2215 28.9736 23.2408 28.9989 23.2534C29.0241 23.266 29.0523 23.2715 29.0805 23.2691C29.1086 23.2668 29.1355 23.2568 29.1584 23.2403L31.4085 21.9408C31.4692 21.9016 31.5179 21.8463 31.5492 21.7811C31.5805 21.7159 31.5932 21.6433 31.5859 21.5713Z" fill="#EBEBEB"/>
<path d="M35.0653 19.566L34.7557 17.399C34.7557 17.3706 34.7478 17.3428 34.7329 17.3186C34.718 17.2945 34.6966 17.2749 34.6712 17.2622C34.6458 17.2495 34.6173 17.2442 34.5891 17.2467C34.5608 17.2493 34.5337 17.2596 34.511 17.2767L32.2597 18.5761C32.1993 18.615 32.1508 18.67 32.1197 18.7347C32.0886 18.7995 32.0761 18.8717 32.0835 18.9432L32.3918 21.1089C32.3923 21.1371 32.4004 21.1646 32.4155 21.1885C32.4305 21.2124 32.4518 21.2317 32.477 21.2443C32.5023 21.257 32.5305 21.2624 32.5586 21.2601C32.5867 21.2578 32.6137 21.2478 32.6365 21.2312L34.8867 19.933C34.947 19.8939 34.9956 19.839 35.027 19.7743C35.0585 19.7097 35.0717 19.6376 35.0653 19.566Z" fill="#EBEBEB"/>
<path d="M13.581 27.3577L13.2727 25.1908C13.2722 25.1626 13.2641 25.135 13.249 25.1112C13.234 25.0873 13.2127 25.068 13.1875 25.0553C13.1622 25.0427 13.134 25.0373 13.1059 25.0396C13.0778 25.0419 13.0508 25.0519 13.028 25.0685L10.7754 26.3789C10.7151 26.418 10.6666 26.4729 10.6353 26.5376C10.604 26.6023 10.5911 26.6744 10.598 26.746L10.9075 28.9117C10.9075 28.9401 10.9154 28.9679 10.9304 28.9921C10.9453 29.0162 10.9667 29.0358 10.9921 29.0485C11.0175 29.0612 11.0459 29.0665 11.0742 29.064C11.1025 29.0614 11.1295 29.0511 11.1523 29.034L13.4036 27.7248C13.4641 27.6859 13.5127 27.6311 13.544 27.5663C13.5753 27.5015 13.5881 27.4293 13.581 27.3577Z" fill="#0071CE"/>
<path d="M17.0607 25.3577L16.7524 23.1908C16.752 23.1626 16.7438 23.135 16.7288 23.1112C16.7137 23.0873 16.6924 23.068 16.6672 23.0553C16.642 23.0427 16.6137 23.0373 16.5856 23.0396C16.5575 23.0419 16.5305 23.0519 16.5077 23.0685L14.2576 24.3679C14.1972 24.407 14.1488 24.4619 14.1175 24.5266C14.0862 24.5913 14.0733 24.6634 14.0802 24.735L14.3897 26.9019C14.3902 26.9301 14.3983 26.9576 14.4134 26.9815C14.4284 27.0054 14.4497 27.0247 14.4749 27.0374C14.5002 27.05 14.5284 27.0554 14.5565 27.0531C14.5846 27.0508 14.6116 27.0408 14.6344 27.0242L16.8846 25.7248C16.945 25.6859 16.9934 25.631 17.0245 25.5662C17.0556 25.5014 17.0681 25.4292 17.0607 25.3577Z" fill="#EBEBEB"/>
<path d="M20.5407 23.3499L20.2323 21.183C20.2319 21.1548 20.2237 21.1272 20.2087 21.1033C20.1937 21.0795 20.1724 21.0601 20.1471 21.0475C20.1219 21.0349 20.0937 21.0295 20.0655 21.0318C20.0374 21.0341 20.0105 21.0441 19.9876 21.0607L17.7375 22.3601C17.6773 22.3993 17.6289 22.4542 17.5976 22.5189C17.5663 22.5836 17.5534 22.6556 17.5601 22.7271L17.8696 24.8941C17.8701 24.9223 17.8783 24.9498 17.8933 24.9737C17.9083 24.9976 17.9296 25.0169 17.9548 25.0295C17.9801 25.0422 18.0083 25.0476 18.0364 25.0453C18.0646 25.043 18.0915 25.033 18.1143 25.0164L20.3645 23.717C20.4249 23.6781 20.4733 23.6231 20.5044 23.5584C20.5355 23.4936 20.5481 23.4214 20.5407 23.3499Z" fill="#EBEBEB"/>
<path d="M24.0205 21.3421L23.7122 19.1752C23.7117 19.147 23.7036 19.1194 23.6885 19.0955C23.6735 19.0716 23.6522 19.0523 23.627 19.0397C23.6017 19.0271 23.5735 19.0216 23.5454 19.024C23.5173 19.0263 23.4903 19.0363 23.4675 19.0528L21.2173 20.3523C21.1571 20.3914 21.1087 20.4464 21.0775 20.5111C21.0462 20.5758 21.0332 20.6478 21.0399 20.7193L21.3495 22.8862C21.3499 22.9145 21.3581 22.942 21.3731 22.9659C21.3882 22.9898 21.4095 23.0091 21.4347 23.0217C21.4599 23.0344 21.4882 23.0398 21.5163 23.0375C21.5444 23.0352 21.5714 23.0252 21.5942 23.0086L23.8443 21.7092C23.9047 21.6702 23.9532 21.6153 23.9843 21.5505C24.0154 21.4857 24.0279 21.4136 24.0205 21.3421Z" fill="#EBEBEB"/>
<path d="M27.5001 19.3382L27.1918 17.1713C27.1914 17.1431 27.1832 17.1155 27.1682 17.0916C27.1531 17.0677 27.1318 17.0484 27.1066 17.0358C27.0814 17.0232 27.0531 17.0177 27.025 17.0201C26.9969 17.0224 26.9699 17.0324 26.9471 17.0489L24.697 18.3484C24.6367 18.3875 24.5884 18.4425 24.5571 18.5072C24.5258 18.5719 24.5128 18.6439 24.5195 18.7154L24.8291 20.8823C24.8295 20.9106 24.8377 20.9381 24.8528 20.962C24.8678 20.9859 24.8891 21.0052 24.9143 21.0178C24.9396 21.0304 24.9678 21.0359 24.9959 21.0336C25.024 21.0313 25.051 21.0213 25.0738 21.0047L27.3239 19.7053C27.3843 19.6663 27.4328 19.6114 27.4639 19.5466C27.495 19.4818 27.5075 19.4097 27.5001 19.3382Z" fill="#EBEBEB"/>
<path d="M30.9851 17.3265L30.6768 15.1596C30.6764 15.1314 30.6682 15.1038 30.6532 15.0799C30.6381 15.056 30.6168 15.0367 30.5916 15.0241C30.5664 15.0115 30.5381 15.006 30.51 15.0083C30.4819 15.0106 30.4549 15.0206 30.4321 15.0372L28.171 16.3476C28.1107 16.3868 28.0624 16.4417 28.0311 16.5064C27.9998 16.5711 27.9868 16.6432 27.9935 16.7147L28.3031 18.8816C28.3035 18.9099 28.3117 18.9374 28.3267 18.9613C28.3418 18.9852 28.3631 19.0045 28.3883 19.0171C28.4136 19.0297 28.4418 19.0352 28.4699 19.0329C28.498 19.0306 28.525 19.0206 28.5478 19.004L30.8028 17.6936C30.8645 17.6555 30.9142 17.6009 30.9464 17.5361C30.9787 17.4712 30.9921 17.3986 30.9851 17.3265Z" fill="#EBEBEB"/>
<path d="M34.4597 15.3253L34.1513 13.1596C34.1509 13.1314 34.1427 13.1038 34.1277 13.0799C34.1127 13.056 34.0914 13.0367 34.0661 13.0241C34.0409 13.0115 34.0127 13.006 33.9845 13.0083C33.9564 13.0106 33.9295 13.0206 33.9066 13.0372L31.6565 14.3354C31.5962 14.3745 31.5477 14.4294 31.5164 14.4941C31.4852 14.5588 31.4722 14.6309 31.4791 14.7025L31.7886 16.8694C31.7891 16.8976 31.7973 16.9252 31.8123 16.9491C31.8273 16.973 31.8486 16.9923 31.8738 17.0049C31.8991 17.0175 31.9273 17.023 31.9554 17.0206C31.9836 17.0183 32.0105 17.0083 32.0334 16.9918L34.2884 15.6899C34.3476 15.6506 34.3949 15.5959 34.4251 15.5316C34.4553 15.4673 34.4672 15.3959 34.4597 15.3253Z" fill="#EBEBEB"/>
<path d="M12.9767 23.1233L12.6671 20.9576C12.6671 20.9292 12.6592 20.9014 12.6443 20.8772C12.6293 20.8531 12.608 20.8335 12.5825 20.8208C12.5571 20.8081 12.5287 20.8028 12.5004 20.8053C12.4721 20.8079 12.4451 20.8182 12.4224 20.8353L10.1723 22.1335C10.1117 22.1724 10.0631 22.2272 10.0318 22.292C10.0005 22.3568 9.98771 22.4289 9.99484 22.5005L10.3068 24.6675C10.3068 24.6959 10.3148 24.7237 10.3297 24.7479C10.3446 24.772 10.366 24.7916 10.3914 24.8043C10.4168 24.817 10.4452 24.8223 10.4735 24.8198C10.5018 24.8172 10.5288 24.8069 10.5516 24.7898L12.8017 23.4904C12.862 23.4514 12.9102 23.3964 12.9411 23.3316C12.972 23.2668 12.9843 23.1947 12.9767 23.1233Z" fill="#0071CE"/>
<path d="M16.4563 21.1194L16.1467 18.9537C16.1467 18.9253 16.1388 18.8975 16.1239 18.8733C16.109 18.8492 16.0876 18.8296 16.0622 18.8169C16.0368 18.8042 16.0083 18.7988 15.98 18.8014C15.9518 18.804 15.9247 18.8143 15.902 18.8314L13.6519 20.1308C13.5912 20.1695 13.5424 20.2243 13.5111 20.2891C13.4797 20.354 13.4671 20.4262 13.4745 20.4979L13.784 22.6636C13.784 22.692 13.7919 22.7198 13.8069 22.744C13.8218 22.7681 13.8432 22.7876 13.8686 22.8004C13.894 22.8131 13.9224 22.8184 13.9507 22.8159C13.979 22.8133 14.006 22.803 14.0287 22.7859L16.2789 21.4865C16.3396 21.4478 16.3884 21.393 16.4197 21.3281C16.451 21.2633 16.4637 21.191 16.4563 21.1194Z" fill="#EBEBEB"/>
<path d="M19.9363 19.1089L19.6267 16.942C19.6267 16.9136 19.6188 16.8858 19.6039 16.8616C19.5889 16.8374 19.5676 16.8179 19.5422 16.8052C19.5168 16.7925 19.4883 16.7871 19.46 16.7897C19.4317 16.7922 19.4047 16.8026 19.382 16.8197L17.1319 18.1191C17.0711 18.1578 17.0224 18.2126 16.991 18.2774C16.9597 18.3422 16.947 18.4145 16.9545 18.4861L17.264 20.6518C17.264 20.6802 17.2719 20.7081 17.2869 20.7322C17.3018 20.7564 17.3232 20.7759 17.3486 20.7886C17.374 20.8013 17.4024 20.8067 17.4307 20.8042C17.459 20.8016 17.486 20.7912 17.5087 20.7742L19.7588 19.476C19.8194 19.4371 19.868 19.3822 19.8993 19.3175C19.9306 19.2527 19.9434 19.1805 19.9363 19.1089Z" fill="#EBEBEB"/>
<path d="M23.4162 17.105L23.1067 14.9381C23.1067 14.9097 23.0988 14.8819 23.0838 14.8577C23.0689 14.8335 23.0475 14.814 23.0221 14.8013C22.9967 14.7886 22.9683 14.7832 22.94 14.7858C22.9117 14.7883 22.8847 14.7987 22.862 14.8157L20.6119 16.1152C20.5511 16.1539 20.5024 16.2087 20.471 16.2735C20.4397 16.3383 20.427 16.4106 20.4344 16.4822L20.7428 18.6492C20.7432 18.6774 20.7514 18.7049 20.7664 18.7288C20.7814 18.7527 20.8027 18.772 20.828 18.7846C20.8532 18.7973 20.8814 18.8027 20.9096 18.8004C20.9377 18.7981 20.9646 18.7881 20.9875 18.7715L23.2376 17.4721C23.2984 17.4334 23.3472 17.3786 23.3787 17.3138C23.4103 17.249 23.4233 17.1767 23.4162 17.105Z" fill="#EBEBEB"/>
<path d="M26.8957 15.0972L26.5862 12.9303C26.5862 12.9019 26.5783 12.874 26.5633 12.8499C26.5484 12.8257 26.527 12.8062 26.5016 12.7935C26.4762 12.7808 26.4478 12.7754 26.4195 12.778C26.3912 12.7805 26.3642 12.7909 26.3415 12.8079L24.0913 14.1074C24.0306 14.146 23.9819 14.2009 23.9505 14.2657C23.9192 14.3305 23.9065 14.4028 23.9139 14.4744L24.2223 16.6413C24.2227 16.6696 24.2309 16.6971 24.2459 16.721C24.2609 16.7449 24.2822 16.7642 24.3075 16.7768C24.3327 16.7894 24.3609 16.7949 24.3891 16.7926C24.4172 16.7903 24.4441 16.7803 24.467 16.7637L26.7171 15.4643C26.778 15.4256 26.8269 15.3709 26.8584 15.3061C26.89 15.2412 26.9029 15.1689 26.8957 15.0972Z" fill="#EBEBEB"/>
<path d="M30.3731 13.0894L30.0635 10.9225C30.0635 10.8941 30.0556 10.8662 30.0407 10.8421C30.0257 10.8179 30.0044 10.7984 29.979 10.7857C29.9536 10.773 29.9251 10.7676 29.8968 10.7701C29.8686 10.7727 29.8415 10.7831 29.8188 10.8001L27.5687 12.0995C27.5081 12.1383 27.4594 12.1932 27.4281 12.258C27.3967 12.3228 27.384 12.395 27.3913 12.4666L27.7008 14.6323C27.7013 14.6605 27.7095 14.6881 27.7245 14.712C27.7395 14.7359 27.7608 14.7552 27.786 14.7678C27.8113 14.7804 27.8395 14.7859 27.8676 14.7835C27.8958 14.7812 27.9227 14.7712 27.9455 14.7547L30.1957 13.4552C30.2561 13.4166 30.3047 13.3619 30.336 13.2973C30.3673 13.2328 30.3801 13.1608 30.3731 13.0894Z" fill="#EBEBEB"/>
<path d="M33.8556 11.0855L33.5461 8.91857C33.5461 8.89017 33.5382 8.86232 33.5232 8.83816C33.5083 8.814 33.4869 8.79447 33.4615 8.78177C33.4361 8.76907 33.4077 8.76369 33.3794 8.76624C33.3511 8.76879 33.3241 8.77917 33.3014 8.79621L31.0512 10.0956C30.9906 10.1344 30.9419 10.1893 30.9106 10.2541C30.8793 10.3189 30.8665 10.3911 30.8738 10.4627L31.1822 12.6296C31.1826 12.6578 31.1908 12.6854 31.2058 12.7093C31.2208 12.7332 31.2421 12.7525 31.2674 12.7651C31.2926 12.7777 31.3208 12.7832 31.349 12.7809C31.3771 12.7785 31.404 12.7686 31.4269 12.752L33.677 11.4526C33.7378 11.4139 33.7868 11.3591 33.8183 11.2943C33.8499 11.2295 33.8628 11.1572 33.8556 11.0855Z" fill="#EBEBEB"/>
<path d="M12.4418 19.2919L12.3635 18.7389C12.3635 18.7105 12.3555 18.6826 12.3406 18.6585C12.3257 18.6343 12.3043 18.6148 12.2789 18.6021C12.2535 18.5894 12.2251 18.584 12.1968 18.5866C12.1685 18.5891 12.1415 18.5995 12.1187 18.6165L9.86739 19.9184C9.80677 19.9572 9.75808 20.012 9.72676 20.0768C9.69544 20.1416 9.68271 20.2139 9.68998 20.2855L9.76706 20.8385C9.7675 20.8667 9.77568 20.8943 9.79071 20.9182C9.80573 20.9421 9.82702 20.9614 9.85227 20.974C9.87751 20.9866 9.90573 20.9921 9.93386 20.9897C9.96198 20.9874 9.98893 20.9774 10.0118 20.9609L12.2643 19.6566C12.3243 19.6177 12.3725 19.5632 12.4037 19.4989C12.435 19.4347 12.4482 19.3631 12.4418 19.2919Z" fill="#E6E6E6"/>
<path d="M15.9217 17.288L15.8434 16.735C15.8434 16.7066 15.8355 16.6787 15.8206 16.6546C15.8057 16.6304 15.7843 16.6109 15.7589 16.5982C15.7335 16.5855 15.705 16.5801 15.6768 16.5826C15.6485 16.5852 15.6214 16.5956 15.5987 16.6126L13.3474 17.9145C13.2867 17.9533 13.2381 18.0081 13.2067 18.0729C13.1754 18.1377 13.1627 18.2099 13.17 18.2816L13.247 18.8346C13.2475 18.8628 13.2557 18.8904 13.2707 18.9143C13.2857 18.9382 13.307 18.9575 13.3322 18.9701C13.3575 18.9827 13.3857 18.9882 13.4138 18.9858C13.442 18.9835 13.4689 18.9735 13.4918 18.957L15.7431 17.6575C15.8041 17.6184 15.853 17.5632 15.8845 17.498C15.9161 17.4328 15.9289 17.3601 15.9217 17.288Z" fill="#E6E6E6"/>
<path d="M19.4017 15.279L19.3234 14.726C19.323 14.6978 19.3148 14.6702 19.2998 14.6463C19.2847 14.6224 19.2635 14.6031 19.2382 14.5905C19.213 14.5779 19.1847 14.5724 19.1566 14.5747C19.1285 14.5771 19.1015 14.587 19.0787 14.6036L16.8274 15.9055C16.7667 15.9443 16.718 15.9991 16.6867 16.0639C16.6554 16.1287 16.6427 16.2009 16.6499 16.2726L16.727 16.8256C16.727 16.854 16.7349 16.8818 16.7499 16.906C16.7648 16.9302 16.7862 16.9497 16.8116 16.9624C16.837 16.9751 16.8654 16.9805 16.8937 16.9779C16.922 16.9754 16.949 16.965 16.9717 16.948L19.2231 15.6485C19.284 15.6094 19.333 15.5542 19.3645 15.489C19.396 15.4238 19.4089 15.3511 19.4017 15.279Z" fill="#E6E6E6"/>
<path d="M22.8812 13.2724L22.8029 12.7182C22.8025 12.6899 22.7943 12.6624 22.7793 12.6385C22.7642 12.6146 22.7429 12.5953 22.7177 12.5827C22.6925 12.5701 22.6642 12.5646 22.6361 12.5669C22.608 12.5692 22.581 12.5792 22.5582 12.5958L20.3068 13.8977C20.2462 13.9365 20.1975 13.9913 20.1662 14.0561C20.1349 14.1209 20.1222 14.1931 20.1294 14.2647L20.2065 14.8178C20.2065 14.8462 20.2144 14.874 20.2294 14.8982C20.2443 14.9224 20.2657 14.9419 20.2911 14.9546C20.3165 14.9673 20.3449 14.9727 20.3732 14.9701C20.4015 14.9676 20.4285 14.9572 20.4512 14.9401L22.7026 13.642C22.7633 13.6026 22.8121 13.5474 22.8436 13.4822C22.8751 13.417 22.8881 13.3445 22.8812 13.2724Z" fill="#E6E6E6"/>
<path d="M26.3611 11.2685L26.2828 10.7143C26.2824 10.686 26.2742 10.6585 26.2592 10.6346C26.2442 10.6107 26.2229 10.5914 26.1976 10.5788C26.1724 10.5662 26.1442 10.5607 26.116 10.563C26.0879 10.5653 26.0609 10.5753 26.0381 10.5919L23.7868 11.8938C23.7262 11.9327 23.6776 11.9875 23.6463 12.0523C23.615 12.1171 23.6022 12.1892 23.6093 12.2608L23.6864 12.8139C23.6864 12.8423 23.6943 12.8701 23.7093 12.8943C23.7242 12.9185 23.7456 12.938 23.771 12.9507C23.7964 12.9634 23.8248 12.9688 23.8531 12.9662C23.8814 12.9637 23.9084 12.9533 23.9311 12.9362L26.1825 11.638C26.2432 11.5987 26.292 11.5435 26.3235 11.4783C26.355 11.4131 26.368 11.3406 26.3611 11.2685Z" fill="#E6E6E6"/>
<path d="M29.8411 9.26068L29.7628 8.70763C29.7628 8.67923 29.7549 8.65139 29.74 8.62722C29.725 8.60306 29.7037 8.58354 29.6783 8.57083C29.6528 8.55813 29.6244 8.55275 29.5961 8.55531C29.5678 8.55786 29.5408 8.56823 29.5181 8.58528L27.2667 9.88592C27.2062 9.92481 27.1576 9.97967 27.1263 10.0444C27.095 10.1092 27.0822 10.1814 27.0893 10.253L27.1664 10.8073C27.1669 10.8355 27.175 10.863 27.1901 10.8869C27.2051 10.9108 27.2264 10.9301 27.2516 10.9427C27.2769 10.9554 27.3051 10.9608 27.3332 10.9585C27.3613 10.9562 27.3883 10.9462 27.4111 10.9296L29.6625 9.6302C29.7233 9.59096 29.7722 9.53572 29.8037 9.47054C29.8352 9.40535 29.8482 9.33274 29.8411 9.26068Z" fill="#E6E6E6"/>
<path d="M33.3196 7.25287L33.2426 6.69982C33.2426 6.67142 33.2346 6.64357 33.2197 6.61941C33.2048 6.59525 33.1834 6.57572 33.158 6.56302C33.1326 6.55032 33.1042 6.54494 33.0759 6.54749C33.0476 6.55004 33.0206 6.56042 32.9978 6.57746L30.7477 7.87688C30.687 7.91557 30.6382 7.9704 30.6069 8.03523C30.5756 8.10006 30.5629 8.17233 30.5703 8.24395L30.6474 8.797C30.6478 8.82522 30.656 8.85277 30.671 8.87666C30.6861 8.90055 30.7073 8.91986 30.7326 8.93248C30.7578 8.9451 30.7861 8.95055 30.8142 8.94824C30.8423 8.94592 30.8693 8.93593 30.8921 8.91935L33.1434 7.61994C33.2037 7.58089 33.2521 7.52596 33.2832 7.4612C33.3143 7.39643 33.3269 7.32434 33.3196 7.25287Z" fill="#E6E6E6"/>
<path opacity="0.2" d="M9.8175 16.0264C9.80644 15.8647 9.83981 15.7031 9.914 15.559C9.98819 15.415 10.1004 15.2939 10.2384 15.2091C10.5125 15.0512 10.7682 15.1601 10.811 15.4538C10.8224 15.6156 10.789 15.7775 10.7146 15.9216C10.6401 16.0658 10.5275 16.1867 10.3889 16.2711C10.1161 16.4289 9.86033 16.32 9.8175 16.0264Z" fill="black"/>
<path opacity="0.2" d="M13.301 14.0233C13.2897 13.8616 13.3229 13.6998 13.3971 13.5557C13.4713 13.4116 13.5837 13.2906 13.7219 13.2059C13.996 13.0469 14.2517 13.1558 14.2945 13.4506C14.3058 13.6123 14.2724 13.774 14.1979 13.9179C14.1235 14.0618 14.0108 14.1825 13.8724 14.2668C13.5983 14.4197 13.3426 14.3108 13.301 14.0233Z" fill="black"/>
<path opacity="0.2" d="M16.7771 12.0076C16.7657 11.8459 16.799 11.6842 16.8732 11.5401C16.9474 11.396 17.0598 11.275 17.198 11.1903C17.4721 11.0312 17.729 11.1401 17.7706 11.435C17.7818 11.5965 17.7486 11.7581 17.6743 11.902C17.6001 12.0459 17.4878 12.1666 17.3497 12.2511C17.0756 12.409 16.8187 12.3001 16.7771 12.0076Z" fill="black"/>
<path opacity="0.2" d="M23.734 7.99123C23.7226 7.82952 23.7559 7.66781 23.8301 7.52369C23.9043 7.37957 24.0167 7.25858 24.1549 7.1739C24.429 7.01606 24.6847 7.12495 24.7263 7.41861C24.7382 7.58039 24.7052 7.74231 24.6309 7.88653C24.5566 8.03075 24.444 8.15167 24.3054 8.23594C24.0313 8.39256 23.7756 8.28489 23.734 7.99123Z" fill="black"/>
<path opacity="0.2" d="M27.2163 5.98421C27.2046 5.82246 27.2378 5.66064 27.312 5.51647C27.3863 5.3723 27.4987 5.25135 27.6372 5.16687C27.9112 5.00781 28.167 5.1167 28.2098 5.41158C28.2211 5.57343 28.1878 5.73528 28.1133 5.87943C28.0389 6.02359 27.9262 6.14449 27.7877 6.22892C27.5136 6.38553 27.2579 6.27664 27.2163 5.98421Z" fill="black"/>
<path opacity="0.2" d="M30.6927 3.97639C30.6814 3.81469 30.7146 3.65297 30.7888 3.50885C30.8631 3.36473 30.9754 3.24374 31.1136 3.15906C31.3877 2.99999 31.6447 3.10889 31.6863 3.40377C31.6975 3.56529 31.6642 3.72681 31.59 3.87071C31.5158 4.01462 31.4035 4.1354 31.2654 4.21988C30.9852 4.37772 30.7404 4.26882 30.6927 3.97639Z" fill="black"/>
<path d="M9.45755 12.7216C9.09049 12.5074 8.73076 12.4768 8.45668 12.6347C8.18261 12.7925 8.03088 13.1155 8.03088 13.545C8.03327 13.7459 8.06291 13.9455 8.11898 14.1384L8.33677 14.0161C8.29767 13.8629 8.27713 13.7056 8.2756 13.5475C8.2756 13.2098 8.38327 12.9614 8.57904 12.8488C8.65936 12.8039 8.75012 12.7812 8.8421 12.7827C9.01564 12.791 9.18415 12.8437 9.33153 12.9357C9.98246 13.3125 10.5123 14.2302 10.5123 14.9815C10.5126 15.035 10.5098 15.0885 10.5037 15.1418C10.5007 15.2483 10.4725 15.3526 10.4215 15.4462C10.3705 15.5398 10.298 15.6199 10.21 15.6801C10.0979 15.7407 9.96845 15.7614 9.84297 15.7388C9.81827 15.8179 9.80791 15.9008 9.81239 15.9836C9.85812 15.9908 9.90434 15.9945 9.95065 15.9946C10.0854 15.9962 10.2181 15.9616 10.3348 15.8942C10.4441 15.8257 10.5367 15.7337 10.6059 15.6249C10.6751 15.5162 10.7192 15.3933 10.7349 15.2653C10.7514 15.1724 10.7596 15.0783 10.7594 14.9839C10.7606 14.1458 10.1758 13.1363 9.45755 12.7216Z" fill="#F5F5F5"/>
<path d="M12.9401 10.7098C12.573 10.4957 12.2133 10.4651 11.9392 10.623C11.6651 10.7808 11.5134 11.1038 11.5134 11.5333C11.5158 11.7342 11.5455 11.9338 11.6015 12.1267L11.8193 12.0044C11.7802 11.8512 11.7597 11.6938 11.7581 11.5357C11.7581 11.198 11.8658 10.9497 12.0616 10.8371C12.1419 10.7922 12.2327 10.7694 12.3246 10.771C12.4982 10.7793 12.6667 10.832 12.8141 10.924C13.465 11.3008 13.9948 12.2185 13.9948 12.9697C13.9952 13.0233 13.9923 13.0768 13.9862 13.13C13.9832 13.2366 13.9551 13.3409 13.904 13.4345C13.853 13.528 13.7805 13.6082 13.6926 13.6684C13.5804 13.729 13.451 13.7497 13.3255 13.7271C13.3008 13.8062 13.2905 13.8891 13.2949 13.9718C13.3407 13.9791 13.3869 13.9828 13.4332 13.9829C13.5679 13.9845 13.7007 13.9499 13.8174 13.8825C13.9266 13.814 14.0192 13.722 14.0884 13.6132C14.1576 13.5044 14.2017 13.3816 14.2175 13.2536C14.234 13.1607 14.2422 13.0665 14.242 12.9722C14.2432 12.1377 13.6583 11.1246 12.9401 10.7098Z" fill="#F5F5F5"/>
<path d="M16.4162 8.70202C16.0491 8.4879 15.6894 8.45731 15.4153 8.61515C15.1412 8.77299 14.9895 9.09601 14.9895 9.52548C14.9919 9.72636 15.0215 9.92599 15.0776 10.1189L15.2954 9.99655C15.2563 9.84336 15.2358 9.68602 15.2342 9.52792C15.2342 9.19022 15.3419 8.94184 15.5377 8.82927C15.618 8.78442 15.7087 8.76162 15.8007 8.7632C15.9743 8.77148 16.1428 8.82414 16.2901 8.91614C16.9411 9.293 17.4709 10.2107 17.4709 10.9619C17.4712 11.0155 17.4684 11.069 17.4623 11.1222C17.4593 11.2288 17.4311 11.3331 17.3801 11.4267C17.3291 11.5202 17.2566 11.6004 17.1687 11.6606C17.0565 11.7212 16.9271 11.7419 16.8016 11.7193C16.7769 11.7984 16.7665 11.8813 16.771 11.964C16.8167 11.9713 16.863 11.975 16.9093 11.975C17.044 11.9767 17.1767 11.9421 17.2935 11.8747C17.4027 11.8062 17.4953 11.7142 17.5645 11.6054C17.6337 11.4966 17.6778 11.3738 17.6936 11.2458C17.7101 11.1529 17.7182 11.0587 17.718 10.9644C17.7193 10.1299 17.1344 9.11681 16.4162 8.70202Z" fill="#F5F5F5"/>
<path d="M23.3744 4.6903C23.0074 4.47618 22.6476 4.44559 22.3736 4.60343C22.0995 4.76127 21.9478 5.08429 21.9478 5.51376C21.9501 5.71464 21.9798 5.91427 22.0359 6.10718L22.2536 5.98483C22.2145 5.83164 22.194 5.6743 22.1925 5.5162C22.1925 5.1785 22.3001 4.93012 22.4959 4.81755C22.5762 4.7727 22.667 4.7499 22.759 4.75148C22.9325 4.75976 23.101 4.81242 23.2484 4.90443C23.8993 5.28128 24.4291 6.19895 24.4291 6.95021C24.4295 7.00377 24.4266 7.05729 24.4206 7.1105C24.4176 7.21704 24.3894 7.32136 24.3384 7.41493C24.2873 7.5085 24.2149 7.58867 24.1269 7.64887C24.0147 7.70945 23.8853 7.73016 23.7598 7.7076C23.7351 7.78669 23.7248 7.86957 23.7293 7.95231C23.775 7.95957 23.8212 7.96325 23.8675 7.96332C24.0023 7.965 24.135 7.93034 24.2517 7.86299C24.361 7.79448 24.4535 7.70249 24.5228 7.5937C24.592 7.48491 24.6361 7.36205 24.6518 7.23408C24.6683 7.14119 24.6765 7.04701 24.6763 6.95266C24.6775 6.11819 24.0926 5.10509 23.3744 4.6903Z" fill="#F5F5F5"/>
<path d="M26.8565 2.68249C26.4894 2.46837 26.1297 2.43778 25.8556 2.59562C25.5815 2.75346 25.4298 3.07648 25.4298 3.50595C25.4322 3.70683 25.4618 3.90646 25.5179 4.09937L25.7357 3.97702C25.6966 3.82382 25.6761 3.66649 25.6745 3.50839C25.6745 3.17069 25.7822 2.92231 25.978 2.80974C26.0583 2.76489 26.149 2.74209 26.241 2.74367C26.4146 2.75195 26.5831 2.80461 26.7305 2.89661C27.3814 3.27347 27.9112 4.19114 27.9112 4.9424C27.9115 4.99595 27.9087 5.04948 27.9026 5.10269C27.8996 5.20923 27.8715 5.31355 27.8204 5.40712C27.7694 5.50069 27.6969 5.58085 27.609 5.64105C27.4968 5.70164 27.3674 5.72235 27.2419 5.69978C27.2172 5.77888 27.2068 5.86175 27.2113 5.9445C27.257 5.95176 27.3033 5.95544 27.3496 5.95551C27.4843 5.95719 27.617 5.92253 27.7338 5.85518C27.843 5.78667 27.9356 5.69468 28.0048 5.58588C28.074 5.47709 28.1181 5.35424 28.1339 5.22627C28.1504 5.13337 28.1585 5.0392 28.1583 4.94485C28.1596 4.11161 27.5747 3.09728 26.8565 2.68249Z" fill="#F5F5F5"/>
<path d="M30.333 0.674678C29.966 0.460556 29.6062 0.429967 29.3322 0.587806C29.0581 0.745645 28.9052 1.06866 28.9052 1.49813C28.9075 1.69902 28.9372 1.89864 28.9932 2.09156L29.211 1.9692C29.1719 1.81601 29.1514 1.65867 29.1499 1.50058C29.1499 1.16288 29.2575 0.914496 29.4533 0.801928C29.5336 0.757075 29.6244 0.734279 29.7164 0.735856C29.8899 0.744134 30.0584 0.796795 30.2058 0.888801C30.8567 1.26566 31.3865 2.18332 31.3865 2.93459C31.3869 2.98814 31.384 3.04167 31.378 3.09488C31.375 3.20142 31.3468 3.30574 31.2958 3.39931C31.2447 3.49288 31.1723 3.57304 31.0843 3.63324C30.9721 3.69383 30.8427 3.71453 30.7172 3.69197C30.6925 3.77107 30.6822 3.85394 30.6867 3.93668C30.7324 3.94395 30.7786 3.94763 30.8249 3.9477C30.9597 3.94937 31.0924 3.91472 31.2091 3.84736C31.3183 3.77886 31.4109 3.68686 31.4802 3.57807C31.5494 3.46928 31.5935 3.34643 31.6092 3.21845C31.6257 3.12556 31.6339 3.03138 31.6337 2.93704C31.6361 2.10257 31.0513 1.08946 30.333 0.674678Z" fill="#F5F5F5"/>
</g>
<defs>
<filter id="filter0_d_976_5820" x="0.00012207" y="0" width="39.1881" height="44" filterUnits="userSpaceOnUse" color-interpolation-filters="sRGB">
<feFlood flood-opacity="0" result="BackgroundImageFix"/>
<feColorMatrix in="SourceAlpha" type="matrix" values="0 0 0 0 0 0 0 0 0 0 0 0 0 0 0 0 0 0 127 0" result="hardAlpha"/>
<feOffset dy="2"/>
<feGaussianBlur stdDeviation="1"/>
<feComposite in2="hardAlpha" operator="out"/>
<feColorMatrix type="matrix" values="0 0 0 0 0 0 0 0 0 0 0 0 0 0 0 0 0 0 0.25 0"/>
<feBlend mode="normal" in2="BackgroundImageFix" result="effect1_dropShadow_976_5820"/>
<feBlend mode="normal" in="SourceGraphic" in2="effect1_dropShadow_976_5820" result="shape"/>
</filter>
</defs>
</svg>
