<svg width="126" height="127" viewBox="0 0 126 127" fill="none" xmlns="http://www.w3.org/2000/svg">
<g filter="url(#filter0_d_272_31393)">
<path d="M52.9265 46.2294L107.78 78.203C109.443 79.1814 109.443 80.29 109.443 81.285C109.443 82.2801 108.999 83.6603 107.78 84.3671L76.7376 102.469C76.0583 102.817 75.3059 102.999 74.5425 102.999C73.7791 102.999 73.0266 102.817 72.3473 102.469L17.4884 70.4951C16.2744 69.7883 16 68.602 16 67.607C16 66.612 16.2772 65.0377 17.4884 64.3309L48.5307 46.2294C49.1877 45.8117 49.9501 45.5898 50.7286 45.5898C51.5071 45.5898 52.2695 45.8117 52.9265 46.2294Z" fill="#37474F"/>
<path d="M51.3245 47.5986L19.3953 66.2129L74.5342 98.3417V103.001C73.7688 103.016 73.0125 102.833 72.339 102.469L17.4884 70.4951C16.2744 69.7883 16 68.602 16 67.607C16 66.612 16.2772 65.0377 17.4884 64.331L48.5307 46.2294C49.3615 45.7102 50.349 45.5012 51.3189 45.639V47.5986H51.3245Z" fill="#263238"/>
<path d="M107.215 78.4663L52.4776 46.5565C51.9369 46.2806 51.3385 46.1367 50.7315 46.1367C50.1245 46.1367 49.5261 46.2806 48.9854 46.5565L18.6748 64.2284C17.3721 64.9879 17.3721 66.2323 18.6748 67.0001L72.9988 98.666C73.4755 98.9093 74.0032 99.0362 74.5384 99.0362C75.0737 99.0362 75.6013 98.9093 76.0781 98.666L107.217 80.5118C108.176 79.9353 108.176 79.0262 107.215 78.4663Z" fill="#455A64"/>
<path d="M37.1393 78.7093C37.3868 78.8664 37.594 79.0794 37.7441 79.3312C37.8943 79.5829 37.9834 79.8664 38.004 80.1588C38.0135 80.2574 37.9963 80.3566 37.9544 80.4463C37.9125 80.536 37.8473 80.6128 37.7657 80.6688C37.6604 80.727 37.2668 80.9654 37.1587 81.0236C37.0576 81.0675 36.9467 81.084 36.8372 81.0713C36.7277 81.0587 36.6235 81.0173 36.5351 80.9515L31.2302 77.8584C30.9819 77.7019 30.7739 77.4891 30.6232 77.2373C30.4725 76.9854 30.3832 76.7016 30.3626 76.4088C30.3531 76.3138 30.3682 76.218 30.4066 76.1306C30.445 76.0432 30.5052 75.9672 30.5816 75.9099C30.6897 75.8434 31.0999 75.605 31.208 75.5441C31.3091 75.5001 31.42 75.4837 31.5295 75.4963C31.639 75.509 31.7432 75.5503 31.8316 75.6161L37.1393 78.7093Z" fill="#455A64"/>
<path d="M36.5357 79.063L31.2308 75.9699C30.7513 75.6927 30.3633 75.8867 30.3633 76.4106C30.3838 76.7034 30.4731 76.9872 30.6238 77.239C30.7745 77.4909 30.9825 77.7037 31.2308 77.8601L36.5357 80.9533C37.0124 81.2305 37.4005 81.0364 37.4005 80.5126C37.3798 80.2202 37.2908 79.9367 37.1406 79.6849C36.9904 79.4332 36.7832 79.2202 36.5357 79.063Z" fill="#37474F"/>
<path d="M27.8514 73.2824C28.0988 73.4403 28.3058 73.6539 28.456 73.906C28.6061 74.1582 28.6952 74.442 28.7161 74.7348C28.7272 74.8331 28.7107 74.9325 28.6687 75.0221C28.6266 75.1116 28.5605 75.1877 28.4777 75.242C28.3752 75.3002 27.9816 75.5385 27.8735 75.5995C27.772 75.6434 27.6606 75.6598 27.5507 75.6472C27.4408 75.6345 27.3361 75.5933 27.2471 75.5275L21.9422 72.4509C21.6952 72.2933 21.4884 72.0802 21.3382 71.8285C21.1881 71.5769 21.0988 71.2936 21.0775 71.0014C21.0679 70.9064 21.0831 70.8106 21.1214 70.7232C21.1598 70.6358 21.2201 70.5597 21.2964 70.5025C21.4018 70.4332 21.812 70.1948 21.9201 70.1339C22.0216 70.09 22.133 70.0735 22.2429 70.0862C22.3528 70.0988 22.4575 70.1401 22.5465 70.2059L27.8514 73.2824Z" fill="#455A64"/>
<path d="M27.2478 73.6483L21.9429 70.5552C21.4662 70.278 21.0781 70.4748 21.0781 70.9987C21.0995 71.2909 21.1887 71.5742 21.3389 71.8258C21.489 72.0775 21.6958 72.2906 21.9429 72.4482L27.2478 75.5414C27.7273 75.8185 28.1153 75.6217 28.1153 75.1007C28.0945 74.8076 28.0052 74.5235 27.8545 74.2712C27.7038 74.0189 27.496 73.8056 27.2478 73.6483Z" fill="#37474F"/>
<path d="M53.9041 48.7823L104.231 78.1201C105.149 78.655 105.152 79.5281 104.231 80.0602L76.0606 96.4877C75.5463 96.7527 74.9762 96.8909 74.3976 96.8909C73.8191 96.8909 73.2489 96.7527 72.7346 96.4877L21.9611 66.8922C21.2155 66.4571 21.0714 65.803 21.5398 65.2847L21.6534 65.1655C21.7498 65.0858 21.8527 65.0144 21.9611 64.9521L29.8852 60.3317L30.4007 60.0296C30.5607 59.9477 30.7378 59.9049 30.9176 59.9049C31.0974 59.9049 31.2745 59.9477 31.4345 60.0296C31.6017 60.1115 31.786 60.1523 31.9721 60.1484C32.1582 60.1446 32.3407 60.0962 32.5044 60.0075L41.7394 54.6249C42.0416 54.4476 42.061 54.1676 41.7755 54.0013C41.49 53.835 41.4983 53.5994 41.72 53.4304L41.7727 53.3971L49.5333 48.8793L49.6968 48.7823C50.3484 48.4504 51.0692 48.2773 51.8005 48.2773C52.5317 48.2773 53.2526 48.4504 53.9041 48.7823Z" fill="black"/>
<path d="M31.4355 61.2271C31.2757 61.1444 31.0984 61.1013 30.9186 61.1013C30.7387 61.1013 30.5614 61.1444 30.4017 61.2271L29.8861 61.5264L21.962 66.1467C21.8535 66.2099 21.7506 66.2823 21.6544 66.3629L21.5407 66.4793C21.5407 66.4932 21.5213 66.5098 21.5103 66.5209C21.6385 66.6696 21.7913 66.7953 21.962 66.8923L72.7356 96.4878C73.2499 96.7528 73.8201 96.891 74.3986 96.891C74.9771 96.891 75.5473 96.7528 76.0616 96.4878L104.235 80.0631C104.405 79.9659 104.557 79.8403 104.684 79.6917C104.557 79.5408 104.404 79.414 104.232 79.3175L53.9051 49.9798C53.2525 49.6464 52.5301 49.4727 51.7973 49.4727C51.0645 49.4727 50.3421 49.6464 49.6895 49.9798L49.5259 50.0768L41.976 54.4754C41.976 54.4754 41.976 55.3817 41.976 55.4898C41.9689 55.5612 41.9431 55.6296 41.9013 55.6879C41.8594 55.7463 41.803 55.7927 41.7376 55.8224L32.5026 61.2049C32.3391 61.2925 32.1571 61.3403 31.9717 61.3441C31.7862 61.348 31.6025 61.3079 31.4355 61.2271Z" fill="#FEA2C6"/>
<path opacity="0.65" d="M31.4355 61.2271C31.2757 61.1444 31.0984 61.1013 30.9186 61.1013C30.7387 61.1013 30.5614 61.1444 30.4017 61.2271L29.8861 61.5264L21.962 66.1467C21.8535 66.2099 21.7506 66.2823 21.6544 66.3629L21.5407 66.4793C21.5407 66.4932 21.5213 66.5098 21.5103 66.5209C21.6385 66.6696 21.7913 66.7953 21.962 66.8923L72.7356 96.4878C73.2499 96.7528 73.8201 96.891 74.3986 96.891C74.9771 96.891 75.5473 96.7528 76.0616 96.4878L104.235 80.0631C104.405 79.9659 104.557 79.8403 104.684 79.6917C104.557 79.5408 104.404 79.414 104.232 79.3175L53.9051 49.9798C53.2525 49.6464 52.5301 49.4727 51.7973 49.4727C51.0645 49.4727 50.3421 49.6464 49.6895 49.9798L49.5259 50.0768L41.976 54.4754C41.976 54.4754 41.976 55.3817 41.976 55.4898C41.9689 55.5612 41.9431 55.6296 41.9013 55.6879C41.8594 55.7463 41.803 55.7927 41.7376 55.8224L32.5026 61.2049C32.3391 61.2925 32.1571 61.3403 31.9717 61.3441C31.7862 61.348 31.6025 61.3079 31.4355 61.2271Z" fill="white"/>
<path d="M29.8836 65.3632C29.8696 65.3608 29.8563 65.3551 29.8448 65.3466L29.709 65.2551L29.357 65.4602C29.349 65.4661 29.3393 65.4693 29.3293 65.4693C29.3193 65.4693 29.3096 65.4661 29.3016 65.4602L29.2517 65.427L29.2295 65.4076C29.2286 65.4002 29.2286 65.3928 29.2295 65.3854L29.1187 64.8311V64.8089L29.1381 64.7895L29.1879 64.7618C29.2022 64.7565 29.218 64.7565 29.2323 64.7618C29.2476 64.7628 29.2621 64.7686 29.2739 64.7784L29.745 65.0972L29.8226 65.0528C29.836 65.0477 29.8508 65.0477 29.8642 65.0528C29.8794 65.0543 29.8938 65.0601 29.9058 65.0694L29.9363 65.0916C29.9363 65.0916 29.9585 65.1082 29.9585 65.1166C29.9585 65.1249 29.9585 65.1332 29.9363 65.1415L29.8587 65.1859L29.9945 65.2773C30.0083 65.2773 30.0167 65.2967 30.0167 65.305C30.0167 65.3133 30.0167 65.3217 29.9917 65.33L29.9335 65.3632C29.9173 65.3683 29.8999 65.3683 29.8836 65.3632ZM29.6065 65.1637L29.2711 64.9364L29.3515 65.3133L29.6065 65.1637Z" fill="#455A64"/>
<path d="M30.2193 65.0674C30.0705 65.0546 29.9278 65.0019 29.8064 64.9149C29.6733 64.8262 29.604 64.7348 29.5985 64.6377C29.5929 64.5407 29.6567 64.4659 29.7814 64.3938C29.8307 64.3631 29.8838 64.3389 29.9394 64.3218C29.9897 64.3052 30.0418 64.295 30.0946 64.2913C30.1026 64.2883 30.1115 64.2883 30.1195 64.2913C30.1209 64.2958 30.1209 64.3006 30.1195 64.3052L30.1473 64.3634H30.1279C30.0484 64.3713 29.9717 64.3969 29.9034 64.4382C29.8202 64.4881 29.7786 64.5435 29.7814 64.6045C29.7842 64.6655 29.8368 64.7348 29.9394 64.804C30.0281 64.8687 30.1323 64.9088 30.2415 64.9205C30.338 64.9302 30.4351 64.9089 30.5187 64.8595C30.5461 64.8433 30.572 64.8247 30.5963 64.804C30.6152 64.7886 30.6312 64.7698 30.6434 64.7486L30.4244 64.6017L30.2775 64.6876C30.2639 64.6914 30.2496 64.6914 30.236 64.6876L30.1944 64.671L30.1639 64.6488C30.15 64.6488 30.1417 64.6294 30.1417 64.6211C30.1417 64.6128 30.1417 64.6073 30.1639 64.5989L30.3995 64.4631C30.4131 64.4531 30.4298 64.4482 30.4466 64.4493C30.4634 64.4526 30.4794 64.4592 30.4937 64.4687L30.8069 64.6821C30.8154 64.6872 30.8229 64.6938 30.8291 64.7015C30.8311 64.7043 30.8322 64.7077 30.8322 64.7112C30.8322 64.7147 30.8311 64.7181 30.8291 64.7209C30.7876 64.8133 30.7136 64.8873 30.6212 64.9288C30.5051 65.0159 30.3645 65.0644 30.2193 65.0674Z" fill="#455A64"/>
<path d="M33.1337 63.3059C33.1566 63.3183 33.1755 63.337 33.1881 63.3598C33.2007 63.3826 33.2065 63.4086 33.2047 63.4346C33.203 63.4606 33.1938 63.4856 33.1782 63.5065C33.1627 63.5274 33.1414 63.5434 33.117 63.5526C33.0574 63.5861 32.9901 63.6037 32.9216 63.6037C32.8532 63.6037 32.7859 63.5861 32.7262 63.5526C32.7017 63.5426 32.6806 63.5256 32.6658 63.5036C32.651 63.4816 32.6431 63.4557 32.6431 63.4292C32.6431 63.4027 32.651 63.3768 32.6658 63.3549C32.6806 63.3329 32.7017 63.3158 32.7262 63.3059C32.7879 63.2693 32.8583 63.25 32.9299 63.25C33.0016 63.25 33.072 63.2693 33.1337 63.3059Z" fill="#455A64"/>
<path d="M32.4301 63.088C32.3434 63.1222 32.2731 63.1885 32.2339 63.2731C32.1946 63.3577 32.1895 63.4542 32.2195 63.5425C32.2309 63.5617 32.2479 63.577 32.2681 63.5864C32.2884 63.5958 32.3111 63.5989 32.3331 63.5952C32.3996 63.5952 32.4468 63.5508 32.4301 63.5093C32.409 63.4471 32.4125 63.3791 32.4398 63.3194C32.4671 63.2596 32.5162 63.2125 32.577 63.1878C32.7373 63.1043 32.922 63.0807 33.0981 63.1212C33.1591 63.1212 33.2284 63.1074 33.2394 63.0658C33.2394 63.0325 33.2173 63.0021 33.1674 62.991C32.9179 62.9351 32.6567 62.9695 32.4301 63.088Z" fill="#455A64"/>
<path d="M32.1283 62.8796C31.9998 62.9338 31.894 63.0307 31.8288 63.154C31.7637 63.2772 31.7431 63.4193 31.7707 63.5559C31.7707 63.592 31.8289 63.6169 31.8871 63.6141C31.9509 63.6141 31.998 63.5725 31.9841 63.5337C31.9605 63.4219 31.9766 63.3053 32.0297 63.2041C32.0829 63.1029 32.1697 63.0234 32.2752 62.9794C32.5501 62.8327 32.8665 62.7829 33.1732 62.8381C33.2369 62.8381 33.2979 62.8214 33.309 62.7826C33.309 62.7466 33.2813 62.7133 33.2258 62.705C32.8507 62.6398 32.4646 62.7013 32.1283 62.8796Z" fill="#455A64"/>
<path d="M26.1053 67.6943L25.8447 67.5197L26.2189 67.3008L26.4794 67.4782L26.1053 67.6943Z" fill="#455A64"/>
<path d="M26.6653 67.3678L26.147 67.0158L26.5211 66.7969L27.0422 67.1489L26.6653 67.3678Z" fill="#455A64"/>
<path d="M27.228 67.0374L26.4492 66.508L26.8234 66.2891L27.6022 66.8184L27.228 67.0374Z" fill="#455A64"/>
<path d="M27.7908 66.7109L26.7515 66.0041L27.1256 65.7852L28.165 66.4919L27.7908 66.7109Z" fill="#455A64"/>
<path d="M50.4795 52.4313C50.4069 52.4181 50.332 52.4288 50.266 52.4618L48.8636 53.2766C48.7721 53.3293 48.7888 53.4291 48.9024 53.5039L49.3736 53.8254C49.4434 53.8709 49.5234 53.8985 49.6064 53.9058C49.6423 53.9099 49.6786 53.9099 49.7145 53.9058C49.7515 53.9019 49.7873 53.8906 49.8198 53.8725L51.2223 53.0577C51.3137 53.005 51.2971 52.9052 51.1862 52.8304L50.7123 52.5089C50.6422 52.4643 50.5623 52.4377 50.4795 52.4313ZM49.5981 53.8531C49.5621 53.847 49.528 53.8328 49.4983 53.8116L49.0244 53.4928C48.944 53.4374 48.9301 53.357 48.9966 53.3182L50.3991 52.5033C50.4159 52.4928 50.4348 52.4862 50.4545 52.4839H50.4905C50.5251 52.4906 50.558 52.5038 50.5876 52.5227L51.0615 52.8443C51.1447 52.8997 51.1557 52.9801 51.0892 53.0189L49.6868 53.8337C49.6601 53.8498 49.629 53.8566 49.5981 53.8531Z" fill="#455A64"/>
<path d="M49.3445 53.2148L49.8988 53.5946L49.6799 53.722C49.6568 53.7313 49.631 53.7313 49.6078 53.722L49.1921 53.4449C49.1311 53.4033 49.1228 53.3423 49.1699 53.3146L49.3445 53.2148Z" fill="#455A64"/>
<path d="M49.4482 53.1591L49.7115 53.0039L50.2686 53.3836L50.0053 53.5361L49.4482 53.1591Z" fill="#455A64"/>
<path d="M49.814 52.9454L50.0773 52.793L50.6371 53.1727L50.3711 53.3251L49.814 52.9454Z" fill="#455A64"/>
<path d="M50.4802 52.6056L50.882 52.8827C50.9569 52.9326 50.9347 53.0019 50.8266 53.0657L50.7379 53.1183L50.1836 52.7386L50.3915 52.6167C50.4185 52.6016 50.4503 52.5976 50.4802 52.6056Z" fill="#455A64"/>
<path d="M50.7675 52.4976C50.8063 52.4726 50.9172 52.4976 51.0142 52.5752L51.1001 52.6334C51.1971 52.6999 51.247 52.772 51.211 52.7969L51.1417 52.8413L50.6982 52.5392L50.7675 52.4976Z" fill="#455A64"/>
<path d="M46.8896 54.8228L47.9983 53.8555L48.4944 54.723L47.7849 54.4929L46.8896 54.8228Z" fill="#455A64"/>
<path d="M32.1658 58.1777L36.4009 55.7082C36.537 55.636 36.6883 55.5968 36.8424 55.5939C36.9964 55.591 37.1491 55.6245 37.2878 55.6916C37.5234 55.8301 37.5123 56.063 37.2573 56.2099L33.025 58.6766C32.8891 58.7495 32.7378 58.789 32.5836 58.7919C32.4294 58.7948 32.2767 58.761 32.1381 58.6932C31.9025 58.5547 31.9136 58.3163 32.1658 58.1777Z" fill="#263238"/>
<path d="M38.4006 54.3434C38.5601 54.2615 38.7368 54.2188 38.9161 54.2188C39.0954 54.2187 39.2722 54.2615 39.4316 54.3434C39.4939 54.3653 39.5479 54.406 39.5861 54.4599C39.6242 54.5137 39.6447 54.5781 39.6447 54.6442C39.6447 54.7102 39.6242 54.7746 39.5861 54.8284C39.5479 54.8823 39.4939 54.923 39.4316 54.9449C39.2718 55.0255 39.0952 55.0675 38.9161 55.0675C38.737 55.0675 38.5605 55.0255 38.4006 54.9449C38.3383 54.923 38.2843 54.8823 38.2462 54.8284C38.208 54.7746 38.1875 54.7102 38.1875 54.6442C38.1875 54.5781 38.208 54.5137 38.2462 54.4599C38.2843 54.406 38.3383 54.3653 38.4006 54.3434Z" fill="#263238"/>
<g opacity="0.3">
<path d="M75.6836 61.4779L67.7374 56.8438L60.7085 89.477L68.6548 94.1112L75.6836 61.4779Z" fill="white"/>
<path d="M57.2747 87.4781L64.3008 54.8449L53.9044 48.7806C53.2518 48.4472 52.5294 48.2734 51.7966 48.2734C51.0637 48.2734 50.3414 48.4472 49.6887 48.7806L49.5252 48.8776L44.855 51.5993L39.3755 77.0429L57.2747 87.4781Z" fill="white"/>
<path d="M83.705 66.1562L93.2782 71.7356L89.6557 88.5621L77.333 95.7462L83.705 66.1562Z" fill="white"/>
<path d="M104.231 80.0629L99.8853 82.5989L101.227 76.3711L104.228 78.12C105.149 78.6577 105.151 79.5308 104.231 80.0629Z" fill="white"/>
</g>
<path opacity="0.3" d="M59.7121 59.3751L38.2036 71.8429C37.4758 72.2641 37.4758 72.9448 38.2036 73.366L62.8594 87.6162C63.2677 87.8232 63.7191 87.931 64.1769 87.931C64.6347 87.931 65.0861 87.8232 65.4945 87.6162L87.003 75.1485C87.7308 74.7273 87.7308 74.0466 87.003 73.6254L62.3472 59.3819C61.9396 59.1731 61.4884 59.0637 61.0305 59.0625C60.5725 59.0613 60.1208 59.1685 59.7121 59.3751Z" fill="#FF87B6"/>
<path d="M68.4925 80.1644C67.6589 80.2292 66.8225 80.0796 66.063 79.7297L44.5545 67.3395C43.2572 66.6858 41.7981 64.9807 41.7071 63.3801L41.0332 48.0583L42.2294 47.9909L42.9034 63.3094C42.9674 64.4045 44.1097 65.776 45.0936 66.2679L66.6022 78.6582C67.1802 78.8992 67.8055 79.0056 68.4307 78.9694C69.0559 78.9332 69.6647 78.7553 70.2111 78.4492L84.5591 70.1868C84.896 69.9611 85.0982 69.6915 85.0847 69.4657C85.0712 69.24 84.8556 69.0075 84.495 68.8255L61.4702 55.4581C60.1728 54.8077 58.7172 53.0993 58.6262 51.4954L58.3061 42.9971L59.5023 42.9297L59.8393 51.428C59.8999 52.5231 61.0389 53.8946 62.0194 54.3865L85.0274 67.7438C85.7957 68.1314 86.2405 68.7143 86.2809 69.3849C86.3214 70.0554 85.944 70.7058 85.2128 71.1775L70.8715 79.4399C70.1543 79.8826 69.3347 80.1321 68.4925 80.1644Z" fill="#455A64"/>
<path d="M66.0667 79.7271C66.0789 79.7354 66.0927 79.7411 66.1071 79.744C64.7053 81.5636 62.4207 82.0825 61.9085 81.8433C61.4941 81.6546 61.2514 81.1693 61.5716 80.8661C61.7165 80.7313 61.9658 80.5931 62.2017 80.3977C62.8756 79.8282 63.1149 78.8342 63.1789 78.0625L66.0667 79.7271Z" fill="#EF2E79"/>
<path d="M64.6241 82.5375C64.5863 81.7402 64.3609 80.9631 63.9662 80.2693C63.5716 79.5755 63.0189 78.9845 62.353 78.5445C61.6791 78.157 61.0927 78.1367 60.6682 78.4131L59.1147 79.2892L62.3732 84.9064L63.9131 84.0336C64.3411 83.7978 64.6174 83.2822 64.6241 82.5375Z" fill="#37474F"/>
<path d="M60.7384 79.4616C61.405 79.9001 61.9584 80.4903 62.3531 81.1837C62.7478 81.8771 62.9728 82.6542 63.0096 83.4513C63.0096 84.9171 61.9684 85.5034 60.7047 84.7621C60.0381 84.3235 59.4848 83.7334 59.0901 83.04C58.6953 82.3465 58.4704 81.5695 58.4336 80.7724C58.4437 79.3066 59.4748 78.7203 60.7384 79.4616Z" fill="#455A64"/>
<path d="M59.9624 81.6582C59.9624 81.0853 60.2994 80.8259 60.7442 81.0752C60.98 81.2459 61.1724 81.4696 61.3059 81.7283C61.4394 81.987 61.5101 82.2735 61.5124 82.5646C61.5124 83.1374 61.1586 83.4003 60.7307 83.1476C60.4948 82.9769 60.3024 82.7532 60.1689 82.4945C60.0355 82.2358 59.9647 81.9493 59.9624 81.6582Z" fill="#263238"/>
<path d="M62.0912 77.4414C62.0912 77.4414 62.2394 80.1371 61.0028 81.1784C60.7703 81.3704 60.5175 81.5153 60.3726 81.6467C60.0593 81.9399 60.3052 82.4319 60.7096 82.6239C61.3128 82.9036 64.3859 82.1118 65.5855 79.4565L62.0912 77.4414Z" fill="#F5F5F5"/>
<path d="M60.7774 81.8217C60.8466 81.8616 60.9054 81.9171 60.9493 81.9838C60.9932 82.0505 61.0209 82.1265 61.0302 82.2058C61.0302 82.3507 60.9392 82.4147 60.8078 82.3473C60.7391 82.308 60.6808 82.253 60.6375 82.1868C60.5941 82.1207 60.567 82.0452 60.5584 81.9666C60.5483 81.8217 60.6359 81.7577 60.7774 81.8217Z" fill="#263238"/>
<path d="M49.0808 69.9459L49.1179 69.9661C47.7195 71.7857 45.4382 72.3046 44.9226 72.062C44.5115 71.8733 44.2487 71.3881 44.5857 71.0848C44.7306 70.95 44.9799 70.8119 45.2124 70.6164C45.8864 70.0469 46.1256 69.0529 46.1896 68.2812L49.0808 69.9459Z" fill="#EF2E79"/>
<path d="M47.6407 72.758C47.6036 71.9591 47.3786 71.1803 46.984 70.4847C46.5894 69.7892 46.0363 69.1965 45.3696 68.7548C44.6957 68.3673 44.1093 68.3471 43.6848 68.6268L42.1313 69.4995L45.3864 75.1167L46.9297 74.244C47.3611 74.0182 47.634 73.5027 47.6407 72.758Z" fill="#37474F"/>
<path d="M43.756 69.6803C44.4215 70.1201 44.9739 70.7105 45.3685 71.4037C45.7631 72.0969 45.9888 72.8733 46.0272 73.67C46.0272 75.1358 44.9859 75.7221 43.7223 74.9842C43.0568 74.5437 42.5043 73.9527 42.1098 73.259C41.7152 72.5652 41.4896 71.7883 41.4512 70.9911C41.4613 69.5253 42.4924 68.939 43.756 69.6803Z" fill="#455A64"/>
<path d="M42.9648 71.8769C42.9648 71.3041 43.3187 71.0446 43.7466 71.294C43.9825 71.4646 44.1749 71.6883 44.3083 71.947C44.4418 72.2058 44.5126 72.4922 44.5149 72.7834C44.5149 73.3562 44.1779 73.619 43.7331 73.3663C43.4973 73.1957 43.3048 72.9719 43.1714 72.7132C43.0379 72.4545 42.9672 72.168 42.9648 71.8769Z" fill="#263238"/>
<path d="M45.1083 67.6602C45.1083 67.6602 45.2565 70.3559 44.0199 71.3971C43.784 71.5892 43.5347 71.7341 43.3898 71.8655C43.073 72.1587 43.3224 72.6506 43.7267 72.8427C44.3265 73.1224 47.403 72.3305 48.6026 69.6752L45.1083 67.6602Z" fill="#F5F5F5"/>
<path d="M43.7875 72.0404C43.8567 72.0799 43.9155 72.1353 43.9588 72.2022C44.0022 72.269 44.029 72.3453 44.0368 72.4246C44.0368 72.5695 43.9492 72.6335 43.8178 72.5661C43.7486 72.5274 43.6899 72.4726 43.6464 72.4063C43.603 72.34 43.5763 72.2642 43.5684 72.1853C43.5651 72.0404 43.6662 71.9764 43.7875 72.0404Z" fill="#263238"/>
<path d="M83.0842 68.0046C81.6824 69.8175 79.4012 70.3398 78.889 70.1005C78.4745 69.9085 78.2319 69.4266 78.552 69.1233C78.6969 68.9885 78.9463 68.8504 79.1822 68.6516C79.8561 68.0821 80.0953 67.0914 80.1594 66.3164L82.8787 67.8833L83.0539 67.9844L83.0842 68.0046Z" fill="#EF2E79"/>
<path d="M81.6036 70.7931C81.565 69.9964 81.3392 69.2201 80.9446 68.5269C80.5501 67.8338 79.9978 67.2433 79.3325 66.8034C78.6585 66.4125 78.0722 66.3957 77.6476 66.672L76.0942 67.5481L79.3493 73.1653L80.8926 72.2892C81.3239 72.0567 81.5969 71.5411 81.6036 70.7931Z" fill="#37474F"/>
<path d="M77.7189 67.7194C78.3855 68.1579 78.9388 68.7481 79.3336 69.4415C79.7283 70.135 79.9533 70.912 79.9901 71.7091C79.9901 73.1749 78.9488 73.7612 77.6852 73.0199C77.0186 72.5813 76.4653 71.9912 76.0706 71.2978C75.6758 70.6043 75.4508 69.8273 75.4141 69.0302C75.4242 67.5644 76.4721 66.9781 77.7189 67.7194Z" fill="#455A64"/>
<path d="M76.9268 69.916C76.9268 69.3431 77.2637 69.0837 77.7085 69.333C77.9444 69.5037 78.1368 69.7274 78.2703 69.9861C78.4037 70.2448 78.4745 70.5313 78.4768 70.8224C78.4768 71.3953 78.123 71.6547 77.695 71.4054C77.4592 71.2347 77.2668 71.011 77.1333 70.7523C76.9998 70.4936 76.9291 70.2071 76.9268 69.916Z" fill="#263238"/>
<path d="M79.0712 65.6992C79.0712 65.6992 79.2194 68.395 77.9828 69.4328C77.7469 69.6282 77.4975 69.7698 77.3526 69.9046C77.0359 70.1977 77.2853 70.6897 77.6896 70.8818C78.2894 71.1614 81.3659 70.3696 82.5655 67.7143L79.0712 65.6992Z" fill="#F5F5F5"/>
<path d="M77.7559 70.0795C77.825 70.1182 77.8838 70.173 77.9272 70.2393C77.9706 70.3056 77.9974 70.3814 78.0052 70.4603C78.0052 70.6052 77.9176 70.6725 77.7862 70.6052C77.717 70.5665 77.6582 70.5116 77.6148 70.4453C77.5714 70.379 77.5447 70.3032 77.5368 70.2244C77.5267 70.0795 77.6278 70.0155 77.7559 70.0795Z" fill="#263238"/>
<path d="M66.1086 58.1602L66.1457 58.1804C64.7473 59.9966 62.4627 60.5156 61.9505 60.2763C61.5394 60.0842 61.2765 59.6024 61.6135 59.2991C61.7584 59.1643 62.0078 59.0262 62.2436 58.8307C62.9176 58.2579 63.1568 57.2672 63.2208 56.4922L66.1086 58.1602Z" fill="#EF2E79"/>
<path d="M64.6793 60.9649C64.6425 60.1679 64.4175 59.3908 64.0228 58.6974C63.628 58.0039 63.0747 57.4138 62.4081 56.9753C61.7342 56.5844 61.1512 56.5675 60.7233 56.8438L59.1665 57.7199L62.425 63.3338L63.9649 62.4611C64.3895 62.2286 64.6793 61.713 64.6793 60.9649Z" fill="#37474F"/>
<path d="M60.7843 57.8892C61.4498 58.3294 62.002 58.9205 62.3961 59.6143C62.7901 60.3082 63.0149 61.0852 63.0521 61.8822C63.0521 63.348 62.0143 63.9344 60.7506 63.193C60.0847 62.753 59.532 62.162 59.1374 61.4682C58.7428 60.7744 58.5174 59.9973 58.4795 59.2C58.4862 57.7376 59.5207 57.1512 60.7843 57.8892Z" fill="#455A64"/>
<path d="M59.9917 60.0893C59.9917 59.5165 60.3287 59.2536 60.7735 59.5063C61.0083 59.6777 61.1998 59.9017 61.3326 60.1603C61.4654 60.4189 61.5359 60.705 61.5384 60.9957C61.5384 61.5686 61.2014 61.828 60.76 61.5787C60.5247 61.4075 60.3327 61.1836 60.1993 60.925C60.0659 60.6665 59.9948 60.3802 59.9917 60.0893Z" fill="#263238"/>
<path d="M62.1322 55.8711C62.1322 55.8711 62.2838 58.5668 61.0438 59.6047C60.8113 59.8001 60.5585 59.9416 60.4137 60.0764C60.1003 60.3696 60.3463 60.8616 60.7506 61.0536C61.3504 61.3333 64.4269 60.5414 65.6265 57.8861L62.1322 55.8711Z" fill="#F5F5F5"/>
<path d="M60.8189 60.2528C60.8875 60.2922 60.9459 60.3471 60.9892 60.4133C61.0326 60.4795 61.0596 60.555 61.0683 60.6336C61.0683 60.7785 60.9773 60.8459 60.8492 60.7785C60.7802 60.7393 60.7213 60.6844 60.6774 60.6183C60.6335 60.5521 60.6058 60.4766 60.5965 60.3977C60.5898 60.2528 60.6875 60.1854 60.8189 60.2528Z" fill="#263238"/>
<path d="M58.4253 20.01L57.785 20.384L57.2897 18.3622C56.8559 16.9709 55.9533 15.773 54.7355 14.9724L54.1492 14.6354C53.9749 14.5505 53.7836 14.5064 53.5898 14.5064C53.396 14.5064 53.2047 14.5505 53.0304 14.6354L49.0475 16.9268C49.0073 16.95 48.9628 16.9651 48.9167 16.9711C48.8706 16.9772 48.8238 16.9741 48.7789 16.9621C48.734 16.95 48.6919 16.9292 48.655 16.9009C48.6181 16.8726 48.5872 16.8373 48.564 16.797C48.5407 16.7568 48.5257 16.7123 48.5196 16.6662C48.5136 16.6201 48.5166 16.5733 48.5287 16.5284C48.5407 16.4835 48.5615 16.4414 48.5898 16.4045C48.6181 16.3677 48.6534 16.3367 48.6937 16.3135L52.6766 14.0188C52.9597 13.8755 53.2725 13.8008 53.5898 13.8008C53.9071 13.8008 54.2199 13.8755 54.503 14.0188L55.0893 14.3557C56.4756 15.2592 57.4984 16.6233 57.9771 18.2072L58.4253 20.01Z" fill="#37474F"/>
<path d="M40.4786 22.9252L39.3262 20.9303L48.9499 15.3771C49.0443 15.3178 49.1545 15.2887 49.2658 15.2935C49.3771 15.2983 49.4844 15.3369 49.5733 15.4041C49.8108 15.5586 50.0084 15.767 50.1501 16.0124C50.2918 16.2577 50.3736 16.533 50.3888 16.816C50.4032 16.9268 50.3836 17.0394 50.3324 17.1387C50.2812 17.2381 50.201 17.3194 50.1023 17.372L40.4786 22.9252Z" fill="#EF2E79"/>
<path opacity="0.25" d="M40.4786 22.9252L39.3262 20.9303L48.9499 15.3771C49.0443 15.3178 49.1545 15.2887 49.2658 15.2935C49.3771 15.2983 49.4844 15.3369 49.5733 15.4041C49.8108 15.5586 50.0084 15.767 50.1501 16.0124C50.2918 16.2577 50.3736 16.533 50.3888 16.816C50.4032 16.9268 50.3836 17.0394 50.3324 17.1387C50.2812 17.2381 50.201 17.3194 50.1023 17.372L40.4786 22.9252Z" fill="black"/>
<path d="M39.3245 20.9442C39.6278 20.769 40.1332 21.0723 40.45 21.6181C40.7667 22.164 40.7869 22.7571 40.4769 22.9323C40.1669 23.1075 39.6716 22.8009 39.3515 22.2584C39.0313 21.7159 39.0212 21.1194 39.3245 20.9442Z" fill="#EF2E79"/>
<path d="M40.0566 30.7495L39.4164 31.1168L38.921 29.095C38.4853 27.7102 37.5856 26.5178 36.3736 25.7186L35.7839 25.3817C35.6407 25.3204 35.5186 25.2185 35.4328 25.0885C35.347 24.9585 35.3013 24.8062 35.3013 24.6504C35.3013 24.4947 35.347 24.3424 35.4328 24.2124C35.5186 24.0824 35.6407 23.9805 35.7839 23.9192L39.5882 21.7222C39.6826 21.6683 39.8376 21.7627 39.9252 21.9311C40.0128 22.0996 40.0263 22.2849 39.9252 22.3389L36.1209 24.5359C36.0676 24.5602 36.0229 24.6002 35.9928 24.6504C35.9928 24.6504 36.0198 24.7111 36.1209 24.7718L36.7105 25.1087C38.0925 26.0086 39.1136 27.3661 39.595 28.9434L40.0566 30.7495Z" fill="#455A64"/>
<path d="M60.5298 43.4023L41.3228 54.4919L69.3954 70.6966L88.599 59.607L60.5298 43.4023Z" fill="#EF2E79"/>
<path opacity="0.1" d="M60.5298 43.4023L41.3228 54.4919L69.3954 70.6966L88.599 59.607L60.5298 43.4023Z" fill="black"/>
<path d="M39.416 31.1181L58.4243 20.0117L60.5303 43.4039L41.3232 54.4934L39.416 31.1181Z" fill="#EF2E79"/>
<path d="M58.4253 20.0117L60.5313 43.4039L88.6039 59.6086L93.0384 39.9904L58.4253 20.0117ZM68.2411 42.5008C68.04 42.5653 67.8281 42.5895 67.6177 42.5721C67.4072 42.5546 67.2022 42.4959 67.0144 42.3992C66.8267 42.3025 66.6598 42.1697 66.5234 42.0085C66.3869 41.8473 66.2836 41.6608 66.2193 41.4596L61.5793 29.4198C61.4795 29.2309 61.4208 29.0229 61.4072 28.8096C61.3935 28.5964 61.4252 28.3827 61.5002 28.1825C61.5751 27.9824 61.6916 27.8004 61.8419 27.6486C61.9923 27.4967 62.1731 27.3784 62.3725 27.3015C62.5718 27.2246 62.7852 27.1908 62.9986 27.2023C63.212 27.2138 63.4205 27.2704 63.6105 27.3683C63.8004 27.4663 63.9674 27.6033 64.1005 27.7705C64.2337 27.9377 64.3299 28.1311 64.3828 28.3381L69.0229 40.3779C69.1977 40.7635 69.2137 41.2024 69.0674 41.5997C68.9211 41.997 68.6243 42.3207 68.2411 42.5008ZM77.0022 46.6253C76.596 46.7546 76.1551 46.7176 75.7762 46.5224C75.3972 46.3273 75.111 45.9898 74.9804 45.584L70.3404 33.5443C70.0034 32.6681 70.3572 31.7179 71.1323 31.4214C71.3334 31.3569 71.5452 31.3327 71.7557 31.3501C71.9662 31.3675 72.1712 31.4263 72.3589 31.523C72.5467 31.6197 72.7136 31.7524 72.85 31.9137C72.9864 32.0749 73.0898 32.2614 73.1541 32.4626L77.7974 44.4923C77.8857 44.6843 77.9352 44.8918 77.9432 45.103C77.9512 45.3142 77.9174 45.5249 77.8439 45.723C77.7703 45.9211 77.6584 46.1028 77.5146 46.2576C77.3707 46.4124 77.1978 46.5374 77.0056 46.6253H77.0022ZM85.7633 50.7497C85.562 50.8141 85.3499 50.8382 85.1393 50.8206C84.9286 50.8029 84.7235 50.7439 84.5357 50.6468C84.3479 50.5498 84.1811 50.4167 84.0448 50.2551C83.9085 50.0935 83.8055 49.9066 83.7415 49.7051L79.1015 37.6687C79.0017 37.4798 78.943 37.2718 78.9294 37.0586C78.9157 36.8453 78.9474 36.6316 79.0224 36.4315C79.0973 36.2313 79.2138 36.0493 79.3641 35.8975C79.5145 35.7456 79.6953 35.6274 79.8947 35.5504C80.094 35.4735 80.3074 35.4397 80.5208 35.4512C80.7342 35.4627 80.9427 35.5193 81.1327 35.6173C81.3226 35.7152 81.4896 35.8523 81.6228 36.0194C81.7559 36.1866 81.8521 36.38 81.9051 36.5871L86.5451 48.6268C86.7213 49.0115 86.7387 49.4501 86.5936 49.8475C86.4486 50.2449 86.1526 50.5691 85.7701 50.7497H85.7633Z" fill="#EF2E79"/>
<path d="M61.4059 8.69311C59.967 7.86417 58.791 7.81363 57.8711 8.35614L54.0432 10.5666C52.3347 11.5472 51.5024 14.526 51.5024 18.2596C51.5024 24.0149 53.4164 29.9826 57.5678 32.3852C59.0741 33.2545 60.2636 33.3253 61.2071 32.7929L65.0485 30.5757C66.6996 29.6187 67.4712 26.7477 67.4712 23.0681C67.4814 17.2992 65.5674 11.0957 61.4059 8.69311Z" fill="#003B83"/>
<path d="M65.759 14.0205C64.7481 11.7157 63.3227 9.80173 61.4054 8.69311C59.9665 7.86417 58.7905 7.81363 57.8706 8.35614L54.0427 10.5666C53.5062 10.8972 53.0649 11.3617 52.7622 11.9145L61.0853 16.7196L65.759 14.0205Z" fill="#0055AA"/>
<path d="M57.5795 32.362C53.418 29.9594 51.5142 23.9918 51.5142 18.2364C51.5142 12.481 53.4888 8.52504 57.5795 10.8939C61.7411 13.2965 63.6449 19.5 63.6449 25.252C63.6449 31.004 61.7714 34.7915 57.5795 32.362Z" fill="#0071CE"/>
<path d="M57.5784 16.5227C56.3047 15.7847 55.5566 16.7046 55.5566 20.5865C55.5566 24.2324 56.3485 25.9981 57.5784 26.7192C58.8084 27.4403 59.6002 26.6754 59.6002 22.9351C59.6002 19.1948 58.9162 17.2876 57.5784 16.5227Z" fill="#003B83"/>
<path d="M76.5525 16.0339L72.6336 13.7695L68.8056 15.98L59.812 49.6092L63.7612 51.8905L67.5892 49.68L76.5525 16.0339Z" fill="#0055AA"/>
<path d="M72.7245 18.2449L63.7612 51.8909L59.812 49.6096L68.8056 15.9805L72.7245 18.2449Z" fill="#0071CE"/>
<path d="M76.5529 16.0352L72.725 18.2457L63.7617 51.8917L67.5896 49.6812L76.5529 16.0352Z" fill="#003B83"/>
<path d="M79.2545 33.2268C77.8157 32.3945 76.6396 32.344 75.7197 32.8899L71.8918 35.1037C70.1834 36.0843 69.3511 39.0597 69.3511 42.7967C69.3511 48.5487 71.265 54.5197 75.4165 56.9223C76.9227 57.7883 78.129 57.859 79.0557 57.3266L82.8937 55.1094C84.5482 54.1524 85.3199 51.2815 85.3199 47.6018C85.33 41.8329 83.416 35.6294 79.2545 33.2268Z" fill="#003B83"/>
<path d="M83.6076 38.5543C82.5967 36.2494 81.1714 34.3321 79.254 33.2268C77.8152 32.3945 76.6392 32.344 75.7192 32.8899L71.8913 35.1037C71.3553 35.4349 70.9141 35.8993 70.6108 36.4516L78.9339 41.2567L83.6076 38.5543Z" fill="#0055AA"/>
<path d="M75.4282 56.9064C71.2666 54.5038 69.3628 48.5328 69.3628 42.7808C69.3628 37.0287 71.3374 33.0694 75.4282 35.4349C79.5897 37.8408 81.4936 44.0444 81.4936 49.7964C81.4936 55.5484 79.62 59.319 75.4282 56.9064Z" fill="#0071CE"/>
<path d="M75.4271 41.0487C74.1533 40.3141 73.4053 41.2307 73.4053 45.1125C73.4053 48.7618 74.1971 50.5275 75.4271 51.2453C76.657 51.963 77.4489 51.2048 77.4489 47.4645C77.4623 43.6737 76.7648 41.8203 75.4271 41.0487Z" fill="#003B83"/>
<path d="M39.4062 31.1172L41.3135 54.4925L69.3962 70.7006L73.8273 51.079L39.4062 31.1172ZM50.4857 54.1252C50.2846 54.1902 50.0726 54.2147 49.862 54.1975C49.6514 54.1803 49.4462 54.1216 49.2584 54.0248C49.0705 53.9281 48.9036 53.7952 48.7672 53.6337C48.6309 53.4722 48.5278 53.2854 48.4639 53.084L43.8272 41.0442C43.7268 40.8551 43.6676 40.6468 43.6536 40.4332C43.6396 40.2195 43.6712 40.0053 43.7461 39.8047C43.8211 39.6042 43.9378 39.4218 44.0885 39.2697C44.2391 39.1175 44.4204 38.9991 44.6202 38.9222C44.8201 38.8454 45.034 38.8118 45.2478 38.8238C45.4616 38.8357 45.6704 38.8929 45.8604 38.9915C46.0505 39.0902 46.2174 39.2281 46.3502 39.396C46.483 39.564 46.5786 39.7582 46.6308 39.9659L51.2674 52.0057C51.4437 52.3894 51.4616 52.8272 51.3171 53.224C51.1726 53.6208 50.8775 53.9446 50.4958 54.1252H50.4857ZM59.2468 58.2497C58.4751 58.5496 57.562 58.0812 57.225 57.2084L52.6119 45.1653C52.5115 44.9762 52.4523 44.7679 52.4383 44.5543C52.4243 44.3406 52.4559 44.1264 52.5308 43.9258C52.6058 43.7252 52.7225 43.5429 52.8731 43.3907C53.0238 43.2386 53.2051 43.1202 53.4049 43.0433C53.6048 42.9665 53.8187 42.9329 54.0325 42.9448C54.2463 42.9568 54.4551 43.014 54.6451 43.1126C54.8352 43.2113 55.0021 43.3491 55.1349 43.5171C55.2677 43.6851 55.3633 43.8793 55.4155 44.087L60.0521 56.1234C60.3891 57.0029 60.0353 57.97 59.2603 58.2497H59.2468ZM68.0079 62.3741C67.2362 62.674 66.3231 62.2056 65.9861 61.3329L61.3764 49.2931C61.2766 49.1042 61.2179 48.8962 61.2043 48.683C61.1907 48.4697 61.2223 48.256 61.2973 48.0558C61.3722 47.8557 61.4887 47.6737 61.639 47.5219C61.7894 47.37 61.9702 47.2518 62.1696 47.1748C62.3689 47.0979 62.5824 47.0641 62.7957 47.0756C63.0091 47.0871 63.2176 47.1437 63.4076 47.2417C63.5975 47.3396 63.7645 47.4767 63.8977 47.6438C64.0308 47.811 64.127 48.0044 64.18 48.2115L68.82 60.2512C68.9949 60.6384 69.0094 61.079 68.8603 61.4768C68.7113 61.8745 68.4109 62.1972 68.0247 62.3741H68.0079Z" fill="#FF8BB8"/>
<path d="M73.8261 51.0784L93.0332 39.9922L88.5987 59.6103L69.395 70.6965L73.8261 51.0784Z" fill="#EF2E79"/>
</g>
<defs>
<filter id="filter0_d_272_31393" x="0" y="0" width="125.443" height="127" filterUnits="userSpaceOnUse" color-interpolation-filters="sRGB">
<feFlood flood-opacity="0" result="BackgroundImageFix"/>
<feColorMatrix in="SourceAlpha" type="matrix" values="0 0 0 0 0 0 0 0 0 0 0 0 0 0 0 0 0 0 127 0" result="hardAlpha"/>
<feOffset dy="8"/>
<feGaussianBlur stdDeviation="8"/>
<feColorMatrix type="matrix" values="0 0 0 0 0 0 0 0 0 0 0 0 0 0 0 0 0 0 0.15 0"/>
<feBlend mode="normal" in2="BackgroundImageFix" result="effect1_dropShadow_272_31393"/>
<feBlend mode="normal" in="SourceGraphic" in2="effect1_dropShadow_272_31393" result="shape"/>
</filter>
</defs>
</svg>
