<svg width="56" height="92" viewBox="0 0 87 92" fill="none" xmlns="http://www.w3.org/2000/svg">
<path d="M46.7548 70.166C46.7548 70.166 53.9806 104.387 54.6036 115.738C55.2266 127.089 52.2637 155.615 52.2637 155.615L43.0316 157.086L41.2705 120.683L37.2235 92.9324C37.2235 92.9324 32.9851 115.498 31.1603 120.781C29.3355 126.064 20.6282 141.384 13.4368 153.623L7.25585 149.095C7.25585 149.095 18.8083 116.062 20.7803 109.611C22.7523 103.16 21.418 75.8123 27.5008 68.0469L46.7548 70.166Z" fill="#0071CE"/>
<path opacity="0.4" d="M46.7548 70.166C46.7548 70.166 53.9806 104.387 54.6036 115.738C55.2266 127.089 52.2637 155.615 52.2637 155.615L43.0316 157.086L41.2705 120.683L37.2235 92.9324C37.2235 92.9324 32.9851 115.498 31.1603 120.781C29.3355 126.064 20.6282 141.384 13.4368 153.623L7.25585 149.095C7.25585 149.095 18.8083 116.062 20.7803 109.611C22.7523 103.16 21.418 75.8123 27.5008 68.0469L46.7548 70.166Z" fill="#F3F4F5"/>
<path d="M36.5065 27.4373C36.2367 27.2852 30.6199 27.0301 25.2239 28.1633C19.8278 29.2965 29.4426 35.9336 29.4426 35.9336L32.4546 47.9913L37.9732 48.0403L38.6404 30.9202L36.5065 27.4373Z" fill="#EBEBEB"/>
<path d="M25.2304 28.179L36.9349 46.6481L35.6398 27.2812C35.6398 27.2812 39.8929 27.3892 41.2124 27.7718C42.532 28.1544 43.6652 31.2351 44.6119 35.4538C45.5587 39.6725 46.996 49.7876 46.996 49.7876L53.7214 106.201C53.7214 106.201 30.7294 111.106 19.8981 107.295C19.8981 107.295 23.9697 56.6259 23.2976 53.4962C22.6256 50.3665 20.4524 38.9171 20.4524 38.9171C20.4524 38.9171 17.4404 33.2022 18.7502 31.5196C20.06 29.837 25.2304 28.179 25.2304 28.179Z" fill="#0071CE"/>
<path d="M39.0259 63.7148L37.358 108.482" stroke="#F3F4F5" stroke-width="0.904594" stroke-linecap="round" stroke-linejoin="round"/>
<path d="M40.4465 28.7331L81.0237 42.5625L70.804 72.5484L30.2268 58.7191L40.4465 28.7331Z" fill="#0071CE"/>
<path d="M40.4499 28.7326L70.81 72.5484L76.5101 69.9633L86.7283 39.9809L46.1501 26.1523L40.4499 28.7326Z" fill="#0071CE"/>
<path opacity="0.7" d="M40.4499 28.7326L81.0281 42.5612L70.81 72.5484L76.5101 69.9633L86.7283 39.9809L46.1501 26.1523L40.4499 28.7326Z" fill="#F3F4F5"/>
<path opacity="0.46" d="M40.4465 28.7331L81.0237 42.5625L70.804 72.5484L30.2268 58.7191L40.4465 28.7331Z" fill="#F3F4F5"/>
<path d="M49.1279 59.511C44.236 55.5086 43.5149 48.2982 47.5174 43.4063C51.5199 38.5144 58.7302 37.7934 63.6221 41.7958C68.5141 45.7983 69.2351 53.0086 65.2326 57.9006C61.2301 62.7925 54.0198 63.5135 49.1279 59.511Z" fill="#F3F4F5"/>
<path d="M24.3794 16.6472C25.8069 18.7026 27.1167 18.418 27.1167 18.418C27.546 19.1985 28.1051 19.9002 28.7699 20.4931C29.0053 26.9045 27.1167 28.6362 27.1167 28.6362C29.0789 31.6629 31.5022 31.5795 33.9549 30.6965C36.4077 29.8135 36.5352 27.8905 36.5352 27.8905C34.318 26.8015 34.2885 25.0944 34.6074 23.9269C34.7344 23.475 34.9225 23.0426 35.1666 22.6417C39.3314 21.4987 40.5332 17.5056 40.2487 13.7382C40.0726 11.4532 39.5121 9.21423 38.5906 7.1158L36.1379 3.40234L26.5477 5.36454L26.0326 10.4466L27.9948 14.214C24.5364 11.6583 22.9372 14.5672 24.3794 16.6472Z" fill="#FFBE9D"/>
<path d="M35.6635 16.5968C35.8966 16.5981 36.1295 16.5817 36.3601 16.5478C36.3823 16.5439 36.4036 16.5357 36.4226 16.5236C36.4417 16.5115 36.4582 16.4958 36.4712 16.4774C36.4841 16.4589 36.4933 16.4381 36.4983 16.4161C36.5032 16.3941 36.5038 16.3713 36.4999 16.3491C36.496 16.3269 36.4878 16.3056 36.4758 16.2866C36.4637 16.2675 36.448 16.251 36.4295 16.238C36.4111 16.2251 36.3902 16.2158 36.3682 16.2109C36.3462 16.206 36.3235 16.2054 36.3012 16.2093C36.3012 16.2093 33.8485 16.6361 32.7938 14.821C32.7825 14.8014 32.7675 14.7841 32.7496 14.7703C32.7316 14.7565 32.7111 14.7463 32.6893 14.7404C32.6674 14.7345 32.6446 14.7329 32.6221 14.7358C32.5997 14.7387 32.578 14.746 32.5584 14.7573C32.5387 14.7685 32.5215 14.7836 32.5076 14.8015C32.4938 14.8194 32.4836 14.8399 32.4777 14.8618C32.4718 14.8836 32.4702 14.9065 32.4731 14.9289C32.476 14.9514 32.4833 14.9731 32.4946 14.9927C33.304 16.3761 34.8002 16.5968 35.6635 16.5968Z" fill="#0A2240"/>
<path d="M36.3359 14.3563C36.2328 14.3563 35.8159 11.2266 35.8159 11.2266L38.043 13.905C37.8135 14.1083 37.5395 14.2551 37.243 14.3335C36.9466 14.4119 36.6359 14.4197 36.3359 14.3563Z" fill="#EB996E"/>
<path d="M32.8852 11.2885C32.9392 11.676 33.1796 11.9655 33.4199 11.9311C33.6603 11.8968 33.8124 11.5534 33.7584 11.1659C33.7044 10.7783 33.4641 10.484 33.2237 10.5184C32.9833 10.5527 32.8313 10.8961 32.8852 11.2885Z" fill="#0A2240"/>
<path d="M37.6257 10.8579C37.6797 11.2454 37.92 11.5349 38.1604 11.5005C38.4008 11.4662 38.5528 11.1277 38.4989 10.7353C38.4449 10.3428 38.2046 10.0583 37.9642 10.0927C37.7238 10.127 37.5472 10.4655 37.6257 10.8579Z" fill="#0A2240"/>
<path d="M30.964 9.53439C31.0074 9.5339 31.0497 9.52122 31.0861 9.49779C31.1225 9.47437 31.1516 9.44115 31.1701 9.40195C31.7538 8.16086 32.5779 8.32274 32.6123 8.32764C32.6692 8.3361 32.7273 8.32295 32.775 8.29077C32.8227 8.2586 32.8567 8.20973 32.8703 8.15377C32.8838 8.09781 32.8759 8.03881 32.8481 7.98838C32.8204 7.93795 32.7747 7.89973 32.7202 7.88124C32.6711 7.88124 31.5036 7.60654 30.758 9.20573C30.7448 9.23338 30.7373 9.26338 30.7359 9.29397C30.7344 9.32457 30.7391 9.35514 30.7496 9.38392C30.7601 9.41269 30.7762 9.43908 30.797 9.46154C30.8179 9.48401 30.843 9.50211 30.8708 9.51477C30.9001 9.52802 30.9319 9.53471 30.964 9.53439Z" fill="#0A2240"/>
<path d="M39.1303 8.70966C39.1594 8.70989 39.1882 8.70438 39.2151 8.69343C39.2421 8.68249 39.2666 8.66633 39.2873 8.64589C39.3089 8.62486 39.3261 8.59969 39.3379 8.57189C39.3497 8.54408 39.3557 8.5142 39.3557 8.48401C39.3557 8.45382 39.3497 8.42393 39.3379 8.39613C39.3261 8.36832 39.3089 8.34316 39.2873 8.32212C39.2284 8.26326 37.9137 6.91915 36.2557 7.58139C36.2273 7.59225 36.2013 7.60863 36.1792 7.62958C36.1572 7.65052 36.1395 7.67563 36.1272 7.70344C36.1149 7.73126 36.1082 7.76123 36.1075 7.79164C36.1068 7.82205 36.1122 7.8523 36.1232 7.88063C36.1471 7.93748 36.1924 7.98269 36.2492 8.00654C36.3061 8.03039 36.3701 8.03098 36.4274 8.00817C37.8058 7.45876 38.939 8.62627 38.9537 8.64098C38.976 8.66511 39.0034 8.68383 39.0341 8.69574C39.0647 8.70764 39.0976 8.7124 39.1303 8.70966Z" fill="#0A2240"/>
<path opacity="0.2" d="M33.0275 22.3828C33.4112 23.0147 33.9498 23.5381 34.5924 23.9035C34.7194 23.4516 34.9075 23.0192 35.1516 22.6183C34.4349 22.6874 33.7117 22.6072 33.0275 22.3828Z" fill="#0A2240"/>
<path d="M27.002 5.795C27.002 5.795 35.2776 8.00737 38.5741 6.83496C41.8705 5.66255 40.7178 1.61062 40.2714 1.22799C39.6631 0.708007 38.3386 2.85661 38.3386 2.85661C38.3386 2.85661 39.4227 0.555936 38.5741 0.050671C37.7254 -0.454594 37.593 2.99396 34.5025 2.63096C31.4121 2.26795 22.8471 -0.0621551 22.3418 5.32407C22.0386 8.55095 22.5602 11.802 23.8576 14.772C23.8576 14.772 24.3138 11.8287 27.9586 14.1687C27.9586 14.1687 29.1702 13.3053 27.9586 12.1182C25.8492 10.0628 26.585 7.35985 27.002 5.795Z" fill="#0A2240"/>
<path d="M27.8835 5.36436C27.8835 5.36436 29.3208 10.0638 26.6767 9.83817C24.0326 9.61252 25.6564 4.70703 25.6564 4.70703L27.8835 5.36436Z" fill="#0A2240"/>
<path d="M34.8342 2.91077C34.8342 2.91077 36.5609 1.64025 36.1194 0.718014C35.6779 -0.204217 34.9912 2.02287 31.5524 1.61572C28.1137 1.20856 24.0323 0.899519 23.2769 3.18057C22.5214 5.46162 30.1445 3.72508 30.1445 3.72508L34.844 4.73561L34.8342 2.91077Z" fill="#0A2240"/>
<path d="M35.4319 59.0605L38.753 58.1236C38.753 58.1236 42.6774 57.8832 43.006 59.3794C43.3347 60.8756 43.4966 63.4559 41.9366 63.6619C40.3767 63.8679 35.5202 63.5638 35.5202 63.5638L35.4319 59.0605Z" fill="#FFBE9D"/>
<path d="M24.1013 36.2662L18.7494 31.4883C18.7494 31.4883 12.1221 46.2047 11.7493 51.8608C11.3765 57.5168 15.7473 60.0578 19.4509 61.0095C23.1546 61.9612 35.4281 64.4973 35.4281 64.4973L36.0903 57.6689C36.0903 57.6689 23.0172 55.4369 17.9842 53.1264C18.0038 53.1411 22.5316 39.9699 24.1013 36.2662Z" fill="#0071CE"/>
<path opacity="0.1" d="M35.4268 64.5152L23.0551 61.8711L23.0208 63.7352L35.4268 64.5152Z" fill="#0A2240"/>
</svg>
