<svg width="48" height="48" viewBox="0 0 49 48" fill="none" xmlns="http://www.w3.org/2000/svg">
<path d="M24.5 2.25C36.0664 2.25 45.5 11.6836 45.5 23.25C45.5 34.8984 36.0664 44.25 24.5 44.25C12.8516 44.25 3.5 34.8984 3.5 23.25C3.5 11.6836 12.8516 2.25 24.5 2.25ZM33.9336 19.6406C34.8359 18.7383 34.8359 17.3438 33.9336 16.4414C33.0312 15.5391 31.6367 15.5391 30.7344 16.4414L21.875 25.3008L18.1836 21.6914C17.2812 20.7891 15.8867 20.7891 14.9844 21.6914C14.082 22.5938 14.082 23.9883 14.9844 24.8906L20.2344 30.1406C20.6445 30.6328 21.2188 30.7969 21.875 30.7969C22.4492 30.7969 23.0234 30.6328 23.4336 30.1406L33.9336 19.6406Z" fill="#0071CE"/>
</svg>
