<svg width="279" height="263" viewBox="0 0 279 263" fill="none" xmlns="http://www.w3.org/2000/svg">
<path d="M39.5129 239.201C-13.171 208.786 -13.171 159.495 39.5129 129.051C92.1968 98.6079 177.61 98.6079 230.288 129.051C282.967 159.495 282.972 208.758 230.288 239.201C177.605 269.645 92.1912 269.617 39.5129 239.201Z" fill="#F5F5F5"/>
<path d="M15.6904 232.836C10.0223 236.108 10.0223 241.416 15.6904 244.687C21.3584 247.958 30.5468 247.958 36.2148 244.687C41.8828 241.416 41.8828 236.108 36.2148 232.836C30.5468 229.565 21.3584 229.565 15.6904 232.836Z" fill="#E0E0E0"/>
<path d="M205.829 157.651L203.062 156.04C201.999 155.5 200.823 155.219 199.63 155.219C198.437 155.219 197.262 155.5 196.198 156.04L48.5804 241.232C46.6929 242.339 46.6929 244.105 48.5804 245.196L51.348 246.806C52.4121 247.344 53.5876 247.624 54.7798 247.624C55.972 247.624 57.1475 247.344 58.2116 246.806L101.79 221.66L119.652 231.966C124.794 234.939 133.208 234.939 138.35 231.966L169.308 214.11C173.698 211.575 173.698 207.429 169.308 204.894L150.079 193.796L205.829 161.598C207.717 160.507 207.717 158.725 205.829 157.651Z" fill="#E0E0E0"/>
<path d="M231.387 248.401C257.568 248.401 278.792 236.139 278.792 221.013C278.792 205.887 257.568 193.625 231.387 193.625C205.206 193.625 183.981 205.887 183.981 221.013C183.981 236.139 205.206 248.401 231.387 248.401Z" fill="#CDD4DA"/>
<path d="M17.4554 239.395C12.8667 234.657 10.1711 215.383 14.6491 211.625H37.4319C41.9043 215.378 39.2142 234.651 34.6255 239.389L34.4982 239.522L34.3432 239.677C34.2104 239.805 34.072 239.926 33.9281 240.048L33.8174 240.137L33.4687 240.402C33.2785 240.541 33.0808 240.668 32.8764 240.784C29.1014 242.998 22.9795 242.998 19.2045 240.784C18.9963 240.67 18.7965 240.54 18.6067 240.397C18.4905 240.319 18.3853 240.236 18.2801 240.153L18.1473 240.043C18.0082 239.93 17.8752 239.81 17.7488 239.683C17.6823 239.627 17.627 239.567 17.5661 239.506L17.4554 239.395Z" fill="#0071CE"/>
<path opacity="0.6" d="M17.4554 239.395C12.8667 234.657 10.1711 215.383 14.6491 211.625H37.4319C41.9043 215.378 39.2142 234.651 34.6255 239.389L34.4982 239.522L34.3432 239.677C34.2104 239.805 34.072 239.926 33.9281 240.048L33.8174 240.137L33.4687 240.402C33.2785 240.541 33.0808 240.668 32.8764 240.784C29.1014 242.998 22.9795 242.998 19.2045 240.784C18.9963 240.67 18.7965 240.54 18.6067 240.397C18.4905 240.319 18.3853 240.236 18.2801 240.153L18.1473 240.043C18.0082 239.93 17.8752 239.81 17.7488 239.683C17.6823 239.627 17.627 239.567 17.5661 239.506L17.4554 239.395Z" fill="white"/>
<path d="M35.4502 210.108C40.6477 213.147 40.6477 218.068 35.4502 221.101C30.2527 224.134 21.8281 224.134 16.6306 221.101C11.433 218.068 11.433 213.147 16.6306 210.114C21.8281 207.08 30.2527 207.075 35.4502 210.108Z" fill="#0071CE"/>
<path opacity="0.8" d="M35.4502 210.108C40.6477 213.147 40.6477 218.068 35.4502 221.101C30.2527 224.134 21.8281 224.134 16.6306 221.101C11.433 218.068 11.433 213.147 16.6306 210.114C21.8281 207.08 30.2527 207.075 35.4502 210.108Z" fill="white"/>
<path d="M32.9544 211.569C36.7681 213.783 36.7681 217.415 32.9544 219.64C29.1406 221.865 22.9468 221.854 19.1164 219.64C15.2861 217.426 15.3027 213.8 19.1164 211.569C22.9302 209.339 29.1351 209.344 32.9544 211.569Z" fill="#0071CE"/>
<path opacity="0.6" d="M32.9544 211.569C36.7681 213.783 36.7681 217.415 32.9544 219.64C29.1406 221.865 22.9468 221.854 19.1164 219.64C15.2861 217.426 15.3027 213.8 19.1164 211.569C22.9302 209.339 29.1351 209.344 32.9544 211.569Z" fill="white"/>
<path d="M19.1272 215.399C22.9465 213.185 29.1348 213.185 32.9651 215.399C33.8945 215.907 34.6851 216.635 35.2678 217.519C34.6843 218.408 33.8893 219.138 32.9541 219.644C29.1348 221.858 22.9465 221.858 19.1161 219.644C18.1906 219.138 17.4051 218.409 16.8301 217.524C17.4089 216.637 18.198 215.907 19.1272 215.399Z" fill="#FAFAFA"/>
<path d="M19.4428 175.091C19.4339 174.978 19.4339 174.866 19.4428 174.753L19.4096 174.404C19.4096 174.172 19.3487 173.945 19.3045 173.713C19.2159 173.253 19.0996 172.799 18.9668 172.351C18.9519 172.259 18.924 172.169 18.8838 172.085L18.8008 171.825L18.6181 171.271C18.5351 171.017 18.4465 170.762 18.3579 170.508C18.261 170.268 18.1797 170.022 18.1144 169.771C18.0996 169.673 18.0755 169.577 18.0424 169.484C18.0211 169.443 18.0043 169.401 17.9926 169.356C17.9926 169.229 17.9428 169.107 17.9207 168.98C17.8653 168.731 17.8044 168.482 17.738 168.238C17.61 167.745 17.4566 167.26 17.2786 166.782C17.142 166.413 16.9871 166.044 16.8136 165.675C16.5579 165.005 16.121 164.418 15.5516 163.982C15.484 163.924 15.4025 163.885 15.3151 163.868C15.2277 163.852 15.1375 163.858 15.0534 163.888C14.8818 163.976 14.8486 164.203 14.832 164.397C14.7601 165.504 14.6881 166.572 14.6106 167.657C14.5414 168.327 14.5414 169.002 14.6106 169.672C14.7428 170.578 15.1263 171.43 15.7177 172.129C16.1195 172.569 16.5625 172.97 17.0406 173.325C17.3948 173.607 17.7601 173.879 18.1033 174.183C18.493 174.562 18.9464 174.869 19.4428 175.091Z" fill="#0071CE"/>
<path d="M25.8574 168.227C25.8316 168.072 25.7984 167.917 25.7578 167.762C25.6736 167.429 25.5392 167.109 25.3593 166.816C25.2652 166.672 25.2209 166.511 25.1323 166.362C25.0466 166.209 24.9341 166.072 24.8002 165.958C24.7228 165.883 24.6275 165.83 24.5234 165.803C24.4716 165.789 24.417 165.79 24.3654 165.804C24.3138 165.819 24.267 165.847 24.2301 165.886C24.1831 165.965 24.1564 166.054 24.1526 166.146C24.097 166.732 23.982 167.311 23.8094 167.873C23.7322 168.157 23.6322 168.435 23.5105 168.703C23.4658 168.782 23.4139 168.856 23.3555 168.925C23.3207 168.975 23.291 169.029 23.267 169.085C23.1385 169.358 22.9866 169.619 22.8131 169.866C22.6824 170.05 22.5361 170.222 22.3758 170.381C21.824 170.83 21.3212 171.337 20.8758 171.892C20.3222 172.799 20.3997 173.962 20.3776 174.991C20.3776 175.168 20.3776 175.346 20.3776 175.545C20.3776 176.956 20.1451 178.174 20.5104 179.563C20.5104 179.663 20.6377 179.907 20.7872 179.813L20.9422 179.707C21.6735 179.088 22.221 178.28 22.5252 177.372L22.802 176.674C22.8884 176.511 22.9985 176.362 23.1286 176.231C23.4578 175.775 23.7609 175.3 24.0363 174.809C24.6577 173.86 25.1614 172.84 25.5364 171.77C25.8013 170.987 25.9414 170.167 25.9515 169.34C25.9516 168.967 25.9201 168.595 25.8574 168.227Z" fill="#0071CE"/>
<path d="M16.0828 179.353C16.3484 179.353 16.6363 179.353 16.8854 179.353C17.4389 179.353 17.9924 179.353 18.5459 179.353C18.8171 179.353 19.0994 179.353 19.3651 179.353C19.4648 179.353 19.5533 179.353 19.6474 179.353C19.78 179.364 19.9133 179.364 20.0459 179.353C20.0715 179.358 20.0979 179.358 20.1234 179.353C20.1382 179.336 20.1493 179.317 20.1559 179.296C20.1626 179.275 20.1648 179.253 20.1622 179.231C20.1649 178.846 20.0757 178.467 19.902 178.124C19.8137 177.958 19.7079 177.802 19.5865 177.659C19.1983 177.193 18.7152 176.816 18.1695 176.552C17.637 176.324 17.0798 176.158 16.509 176.059L12.0199 175.096C11.9214 175.058 11.8149 175.046 11.7104 175.061C11.6058 175.075 11.5067 175.116 11.4221 175.179C11.3534 175.274 11.3165 175.388 11.317 175.506C11.3003 176.078 11.4317 176.644 11.6984 177.15C11.9651 177.657 12.358 178.085 12.8391 178.395C13.8156 178.998 14.9355 179.328 16.0828 179.353Z" fill="#0071CE"/>
<path d="M20.9984 184.855C20.8525 184.606 20.6654 184.383 20.4449 184.197C20.1424 183.9 19.7878 183.662 19.3988 183.494C18.7447 183.235 18.0684 183.037 17.3784 182.901C15.7964 182.506 14.2588 181.949 12.7898 181.241C12.695 181.182 12.5857 181.152 12.4742 181.152C12.2141 181.18 12.1089 181.507 12.0979 181.767C12.0628 182.491 12.2347 183.211 12.5934 183.841C12.9522 184.471 13.483 184.986 14.1237 185.326C15.3636 185.962 16.8304 185.879 18.2253 185.819H18.2807C18.7826 185.794 19.2855 185.804 19.7862 185.846C20.034 185.868 20.28 185.907 20.5224 185.962C20.7272 186.007 21.0759 186.228 21.2309 185.962C21.2615 185.859 21.2615 185.75 21.2309 185.647C21.1865 185.39 21.1024 185.142 20.9818 184.911L20.9984 184.855Z" fill="#0071CE"/>
<path d="M22.5384 185.245C22.4758 185.306 22.405 185.358 22.328 185.4C22.2751 185.434 22.2138 185.453 22.1509 185.455C22.1063 185.457 22.0619 185.447 22.0222 185.427C21.9825 185.406 21.9486 185.376 21.9239 185.339C21.8963 185.294 21.8686 185.25 21.8465 185.206C21.7972 185.115 21.7546 185.021 21.7191 184.924C21.6505 184.726 21.6005 184.522 21.5697 184.315C21.5697 184.265 21.5697 184.215 21.5697 184.165C21.542 183.938 21.5254 183.706 21.5033 183.473C21.5033 183.357 21.5033 183.241 21.459 183.125C21.4425 183.039 21.4425 182.95 21.459 182.864C21.4755 182.723 21.4755 182.58 21.459 182.438C21.4479 182.265 21.4479 182.091 21.459 181.918C21.5863 180.379 22.7099 179.15 23.6343 177.894C24.4547 176.763 25.1454 175.543 25.6934 174.257C25.8207 173.975 26.0311 173.637 26.3355 173.704C26.6399 173.77 26.7119 174.008 26.7894 174.257C27.2985 175.941 27.2539 177.743 26.6621 179.399C26.3187 180.382 25.8439 181.313 25.2506 182.167C24.9549 182.596 24.6352 183.008 24.293 183.401C24.1934 183.523 24.1048 183.639 23.9996 183.75C23.6786 184.099 23.352 184.436 23.0199 184.769L22.6103 185.178C22.5879 185.202 22.5638 185.224 22.5384 185.245Z" fill="#0071CE"/>
<path d="M19.6813 189.509C18.6522 189.17 17.585 188.96 16.5041 188.884C15.4206 188.808 14.3675 188.492 13.421 187.959C13.3289 187.886 13.2172 187.842 13.1 187.832C12.8786 187.832 12.7623 188.103 12.7347 188.325C12.689 188.997 12.8681 189.664 13.2439 190.223C13.8361 191.16 14.6888 191.905 15.6974 192.365C16.7061 192.825 17.827 192.981 18.923 192.814C19.6204 192.692 20.3013 192.443 21.0098 192.371C21.183 192.36 21.3568 192.36 21.5301 192.371C21.6408 192.371 21.8234 192.448 21.912 192.371C22.1002 192.166 21.8732 191.895 21.829 191.69C21.7623 191.448 21.6577 191.218 21.519 191.009C21.2304 190.58 20.8529 190.217 20.412 189.946C20.1816 189.78 19.9371 189.633 19.6813 189.509Z" fill="#0071CE"/>
<path d="M19.7689 195.841C18.7006 195.576 17.5548 195.52 16.5419 195.15C16.077 194.983 15.6341 194.757 15.1803 194.596C15.0474 194.541 14.8869 194.502 14.7873 194.596C14.7367 194.662 14.713 194.745 14.7208 194.829C14.73 195.418 14.8836 195.996 15.1683 196.513C15.453 197.029 15.86 197.467 16.3537 197.79C17.3456 198.421 18.4991 198.752 19.6748 198.742C20.3778 198.742 21.0863 198.681 21.7893 198.742C21.9564 198.743 22.1225 198.769 22.2819 198.819C22.3649 198.853 22.4147 198.941 22.4978 198.969C22.8077 199.08 22.852 198.631 22.8188 198.415C22.7514 198.048 22.6081 197.7 22.3981 197.391C22.2982 197.235 22.1771 197.094 22.0383 196.971C21.9845 196.929 21.9248 196.895 21.8612 196.871C21.5623 196.722 21.3077 196.472 21.0088 196.317C20.6165 196.109 20.2001 195.949 19.7689 195.841Z" fill="#0071CE"/>
<path d="M25.9082 217.369C25.8363 217.015 25.792 216.65 25.6868 216.307L25.3381 215.144C25.1315 214.436 24.9469 213.722 24.7846 213.002C24.4525 211.53 24.1868 210.052 23.9986 208.574C23.6167 205.574 23.4783 202.541 23.351 199.518C23.2237 196.496 23.0908 193.43 22.7975 190.419C22.4707 187.314 21.955 184.233 21.2531 181.191C20.4504 177.663 19.299 174.224 17.8158 170.924C17.777 170.841 17.7106 170.957 17.7272 171.007C19.5649 177.062 21.159 183.184 21.8897 189.505C22.5816 195.461 22.4045 201.478 23.0631 207.434C23.2363 209.066 23.4931 210.688 23.8325 212.294C23.9986 213.091 24.2034 213.877 24.4414 214.657C24.5742 215.122 24.7237 215.576 24.8897 216.03C25.0798 216.514 25.3074 216.982 25.5706 217.43C25.6591 217.602 25.958 217.613 25.9082 217.369Z" fill="#37474F"/>
<path d="M20.5728 179.586C20.3958 179.229 20.1163 178.935 19.7702 178.739C19.4114 178.51 19.0268 178.324 18.6244 178.185C17.606 177.831 16.5487 177.587 15.5137 177.277C15.4583 177.277 15.4306 177.41 15.486 177.432C16.4436 177.764 17.3956 178.113 18.3477 178.467C18.729 178.598 19.0992 178.759 19.4547 178.949C19.6347 179.044 19.8037 179.16 19.9584 179.292C20.13 179.436 20.2628 179.619 20.4289 179.768C20.595 179.918 20.6116 179.685 20.5728 179.586Z" fill="#37474F"/>
<path d="M21.8404 186.536C21.4142 185.202 20.0027 184.427 18.713 184.172C18.0101 184.029 17.2905 184.001 16.5764 183.907C15.8834 183.805 15.2109 183.594 14.5838 183.281C14.5506 183.281 14.534 183.353 14.5561 183.37C15.5303 184.261 17.1134 184.294 18.3477 184.477C19.0231 184.562 19.6744 184.782 20.2629 185.124C20.8347 185.522 21.3111 186.042 21.6577 186.647C21.7518 186.818 21.8791 186.663 21.8404 186.536Z" fill="#37474F"/>
<path d="M22.3762 192.762C22.0733 192.252 21.6043 191.861 21.0478 191.655C20.4479 191.383 19.8125 191.196 19.1603 191.102C17.8429 190.891 16.4425 190.842 15.3133 190.039C15.3133 190.039 15.2801 190.067 15.3133 190.078C16.2599 190.98 17.5717 191.224 18.8116 191.467C19.4366 191.573 20.0515 191.732 20.6493 191.943C20.9347 192.049 21.2076 192.187 21.4629 192.353C21.7306 192.553 21.9874 192.767 22.2323 192.995C22.3486 193.072 22.4261 192.868 22.3762 192.762Z" fill="#37474F"/>
<path d="M22.787 198.832C22.668 198.455 22.4188 198.133 22.084 197.924C21.7368 197.668 21.3443 197.48 20.9272 197.37C19.8976 197.105 18.8072 197.26 17.7942 196.922C17.75 196.922 17.7278 197.01 17.7942 197.033C18.7326 197.315 19.6911 197.526 20.6615 197.664C21.049 197.755 21.4217 197.9 21.7685 198.095C21.9359 198.189 22.0888 198.306 22.2224 198.444C22.3718 198.594 22.4604 198.782 22.5988 198.948C22.7372 199.114 22.8091 198.964 22.787 198.832Z" fill="#37474F"/>
<path d="M23.7495 171.139C23.4163 171.902 22.9786 172.616 22.4488 173.259C21.9471 173.885 21.525 174.571 21.1923 175.301C20.8876 176.01 20.6702 176.754 20.5447 177.515C20.4637 177.931 20.4211 178.353 20.4174 178.777C20.4362 179.169 20.4918 179.558 20.5834 179.939C20.5834 180.061 20.7439 180.117 20.755 179.939C20.7993 179.469 20.9045 179.004 20.9487 178.534C20.9816 178.149 21.037 177.766 21.1148 177.388C21.2701 176.628 21.5039 175.886 21.8122 175.174C22.399 173.79 23.3953 172.6 23.8547 171.161C23.8768 171.144 23.7883 171.033 23.7495 171.139Z" fill="#37474F"/>
<path d="M24.8788 179.036C24.3253 180.143 23.3899 181.068 22.6648 182.103C22.2824 182.66 21.9788 183.267 21.7625 183.907C21.551 184.536 21.5203 185.211 21.674 185.856C21.674 185.966 21.8234 185.955 21.8345 185.856C21.9903 184.606 22.4399 183.411 23.1463 182.368C23.8277 181.335 24.422 180.246 24.9231 179.114C24.9619 179.053 24.912 178.97 24.8788 179.036Z" fill="#37474F"/>
<path d="M15.5354 198.664C15.0301 198.372 14.5026 198.12 13.9579 197.911L10.36 196.428C10.2788 196.374 10.1849 196.343 10.0877 196.337C9.9905 196.331 9.8935 196.351 9.80647 196.395C9.75316 196.443 9.71076 196.502 9.68212 196.568C9.65348 196.633 9.63926 196.705 9.64041 196.777C9.60237 197.295 9.67404 197.815 9.85075 198.304C10.1747 199.357 10.7783 200.302 11.5971 201.039C12.4159 201.776 13.4192 202.277 14.5003 202.489C15.4081 202.633 16.3491 202.528 17.2679 202.738C17.6221 202.821 18.2089 202.937 18.2144 202.4C18.2035 202.26 18.1537 202.126 18.0705 202.013C17.9819 201.836 17.9376 201.636 17.8657 201.459C17.5805 200.726 17.1471 200.059 16.5926 199.5C16.2779 199.177 15.9225 198.896 15.5354 198.664Z" fill="#0071CE"/>
<path d="M17.3783 204.77C16.6515 204.486 15.8902 204.3 15.1144 204.217L13.0387 203.89C12.7731 203.851 12.4852 203.813 12.2361 203.763C12.1994 203.768 12.1622 203.768 12.1254 203.763C12.0202 203.706 11.9019 203.677 11.7823 203.68C11.6273 203.68 11.6051 203.813 11.5941 203.946C11.5726 204.221 11.5988 204.498 11.6716 204.765C11.8343 205.304 12.1472 205.786 12.5738 206.154C13.2888 206.754 14.1537 207.148 15.0757 207.294C15.804 207.442 16.5471 207.503 17.2898 207.477C17.5974 207.508 17.9076 207.452 18.1853 207.316C18.4631 207.18 18.6973 206.97 18.8618 206.708C19.1274 206.154 18.657 205.678 18.3082 205.346C18.0287 205.109 17.7153 204.915 17.3783 204.77Z" fill="#0071CE"/>
<path d="M19.7697 200.393C19.7505 200.245 19.7657 200.096 19.814 199.955C19.8699 199.874 19.9466 199.809 20.0361 199.767C20.1257 199.725 20.2248 199.708 20.3232 199.717C20.531 199.749 20.724 199.844 20.8767 199.989C21.5133 200.542 21.6738 201.489 21.7568 202.341C21.8668 203.213 21.835 204.097 21.6627 204.959C21.5077 205.585 21.2199 206.393 20.5059 206.542C20.2529 206.587 19.9921 206.552 19.7599 206.442C19.5277 206.332 19.3357 206.152 19.2106 205.928C18.8121 205.203 19.1608 204.24 19.3435 203.498C19.6028 202.597 19.7497 201.667 19.7807 200.73C19.7697 200.614 19.7697 200.503 19.7697 200.393Z" fill="#0071CE"/>
<path d="M18.2305 209.622C17.342 209.288 16.4098 209.084 15.463 209.018L14.4279 208.885C14.3547 208.872 14.2796 208.872 14.2065 208.885C13.9795 208.957 13.9629 209.273 14.0349 209.5C14.3448 210.485 15.4187 211.011 16.4316 211.205C17.4445 211.398 18.5073 211.376 19.4538 211.758C19.6752 211.852 20.0073 212.002 20.1679 211.719C20.3284 211.437 20.0793 211.321 19.9797 211.138C19.7319 210.694 19.383 210.315 18.9612 210.031C18.732 209.87 18.4872 209.733 18.2305 209.622Z" fill="#0071CE"/>
<path d="M20.2907 208.39C20.6173 207.582 21.3147 206.935 21.4531 206.077C21.5408 206.062 21.6308 206.073 21.7124 206.108C21.7939 206.144 21.8635 206.202 21.9125 206.276C22.0042 206.427 22.0662 206.594 22.0952 206.769C22.2689 207.422 22.3746 208.092 22.4107 208.767C22.4425 209.447 22.2605 210.121 21.8904 210.693C21.8012 210.842 21.6799 210.969 21.5352 211.065C21.3906 211.16 21.2264 211.223 21.0546 211.247C20.9097 211.256 20.7646 211.232 20.6297 211.179C20.4948 211.125 20.3734 211.043 20.2741 210.937C19.9642 210.593 20.0583 210.095 20.0804 209.669C20.0758 209.234 20.147 208.801 20.2907 208.39Z" fill="#0071CE"/>
<path d="M22.5701 217.983C21.8906 216.991 21.4095 215.876 21.1531 214.701C20.904 213.705 20.7158 212.697 20.5276 211.695C20.5582 211.476 20.612 211.261 20.6881 211.053C20.7722 210.821 20.8701 210.593 20.9815 210.373C21.0313 210.262 21.0922 210.151 21.1476 210.04C21.2237 209.88 21.2706 209.708 21.2859 209.531C21.2859 209.531 21.2859 209.481 21.2527 209.487C20.9704 209.581 20.832 209.863 20.6992 210.101C20.5721 210.31 20.4611 210.529 20.3671 210.754C20.1402 209.609 19.9187 208.468 19.6863 207.323C19.7196 207.136 19.764 206.951 19.8191 206.769C19.9353 206.404 20.118 206.072 20.2619 205.723C20.4265 205.351 20.5454 204.961 20.6162 204.561C20.7047 204.199 20.7328 203.825 20.6992 203.454C20.6992 203.354 20.594 203.454 20.6051 203.52C20.666 203.935 20.3228 204.328 20.1457 204.671C19.9686 205.014 19.808 205.308 19.6475 205.629C19.57 205.778 19.4981 205.928 19.4316 206.083C19.2841 204.992 18.9764 203.929 18.5183 202.928C18.2217 202.338 17.8138 201.812 17.3172 201.378C17.0258 201.134 16.7106 200.921 16.3762 200.741C16.0188 200.565 15.6488 200.415 15.2692 200.293C15.236 200.293 15.2138 200.37 15.2692 200.387C15.557 200.575 15.8227 200.797 16.1105 200.979C16.4222 201.177 16.7216 201.393 17.0072 201.627C17.4359 202.011 17.7614 202.496 17.9538 203.038C18.338 204.127 18.6161 205.25 18.784 206.393C18.2401 206.25 17.6843 206.157 17.1235 206.116C16.535 206.052 15.962 205.888 15.4297 205.629C15.3578 205.59 15.3245 205.751 15.3688 205.789C15.8856 206.144 16.4761 206.377 17.0958 206.47C17.4058 206.531 17.7157 206.592 18.0202 206.664C18.3246 206.736 18.5737 206.813 18.856 206.891C19.1051 208.208 19.3652 209.52 19.6254 210.832L19.7084 211.264C19.6364 211.208 19.5645 211.153 19.487 211.103C19.2883 210.968 19.0724 210.86 18.8449 210.782C18.7312 210.738 18.612 210.71 18.4907 210.699H18.1586C18.0755 210.699 18.07 210.86 18.1586 210.876C18.3833 210.931 18.6034 211.004 18.8172 211.092C19.0087 211.174 19.1937 211.27 19.3708 211.38C19.5247 211.477 19.6677 211.59 19.797 211.718C19.9852 212.697 20.1678 213.677 20.4114 214.646C20.5556 215.261 20.7576 215.862 21.0147 216.439C21.3418 217.157 21.8283 217.791 22.4373 218.293C22.6365 218.432 22.6421 218.089 22.5701 217.983Z" fill="#37474F"/>
<path d="M37.4824 170.255C38.3238 168.483 39.8515 167.066 40.4714 165.207C40.4907 165.111 40.5367 165.023 40.6043 164.952C40.6755 164.902 40.7624 164.88 40.8489 164.889C40.9354 164.898 41.0156 164.938 41.0748 165.002C41.1912 165.133 41.2696 165.294 41.3017 165.467C41.7552 166.838 41.8165 168.308 41.4788 169.712C41.2692 170.347 41.0158 170.967 40.7205 171.567C40.2962 172.672 39.8158 173.754 39.2814 174.81C38.961 175.381 38.556 175.9 38.0802 176.349C37.726 176.676 37.1005 177.235 36.7186 176.631C36.5864 176.356 36.5346 176.049 36.5691 175.746C36.5691 175.386 36.5691 175.026 36.5691 174.666C36.5849 173.954 36.6534 173.243 36.7739 172.541C36.8915 171.847 37.0883 171.169 37.3607 170.52C37.4049 170.415 37.4382 170.332 37.4824 170.255Z" fill="#0071CE"/>
<path d="M34.6263 176.946C34.3861 175.991 33.9916 175.083 33.4584 174.256L31.5598 170.935C31.51 170.851 31.4436 170.752 31.344 170.746C31.2443 170.741 31.1613 170.84 31.106 170.929C30.692 171.687 30.4532 172.527 30.4072 173.39C30.3613 174.252 30.5092 175.113 30.8403 175.911C31.5131 177.495 32.4847 178.934 33.702 180.151C33.7642 180.235 33.8493 180.301 33.9473 180.339C34.0453 180.377 34.1522 180.387 34.2555 180.366C34.3598 180.304 34.4481 180.217 34.5134 180.115C34.5788 180.012 34.6193 179.895 34.6319 179.774C34.6427 179.699 34.6427 179.623 34.6319 179.547C34.6227 179.332 34.6357 179.117 34.6706 178.905C34.6706 178.645 34.7204 178.379 34.7204 178.114C34.7294 177.722 34.6979 177.331 34.6263 176.946Z" fill="#0071CE"/>
<path d="M42.1033 175.773L43.9355 174.86C43.9901 174.821 44.057 174.803 44.1237 174.81C44.2122 174.81 44.2565 174.937 44.2731 175.026C44.395 175.682 44.2813 176.36 43.9521 176.941C43.6235 177.517 43.207 178.038 42.7177 178.485C42.2198 178.956 41.6909 179.392 41.1347 179.792C40.5836 180.201 40.0047 180.57 39.4022 180.899C38.8011 181.217 38.1777 181.49 37.5368 181.718C36.8957 181.94 36.2363 182.105 35.5663 182.211C35.212 182.266 34.7415 182.327 34.6696 181.862C34.6599 181.428 34.7877 181.001 35.0349 180.644C35.344 180.156 35.731 179.722 36.1807 179.36C36.72 178.895 37.2896 178.466 37.8855 178.076C38.4778 177.688 39.0922 177.328 39.7177 176.969C40.3431 176.609 40.9852 176.304 41.6273 175.983L42.1033 175.773Z" fill="#0071CE"/>
<path d="M31.155 182.72C30.9843 182.193 30.7772 181.679 30.535 181.181C29.9995 179.98 29.5537 178.74 29.2011 177.473C28.9963 177.473 28.8247 177.628 28.7029 177.788C27.9136 178.789 27.4448 180.004 27.3579 181.275C27.3215 181.909 27.4152 182.543 27.6332 183.139C27.8512 183.735 28.1889 184.28 28.6254 184.74C29.273 185.394 30.1531 185.847 30.6181 186.639C30.7011 186.788 30.7897 186.96 30.9557 187.015C31.0064 187.025 31.0589 187.019 31.1057 186.997C31.1524 186.975 31.191 186.939 31.2159 186.894C31.2657 186.799 31.2159 186.705 31.2159 186.6C31.2491 186.285 31.2934 185.964 31.3266 185.648C31.3976 185.02 31.4105 184.386 31.3653 183.755C31.3286 183.404 31.2581 183.057 31.155 182.72Z" fill="#0071CE"/>
<path d="M33.2433 185.253C34.1953 184.473 35.4573 184.246 36.6917 184.091C37.926 183.936 39.1825 183.82 40.2397 183.189C40.3527 183.108 40.4839 183.056 40.6217 183.039C40.9814 183.039 41.1309 183.51 41.07 183.858C40.9448 184.355 40.7082 184.817 40.3781 185.209C40.0857 185.619 39.7436 185.99 39.3596 186.316C38.0091 187.423 36.1216 187.523 34.378 187.561L33.1215 187.595H32.4905C32.2859 187.608 32.0806 187.608 31.8761 187.595C31.5606 187.561 31.8152 187.185 31.8761 187.041C32.0444 186.727 32.2292 186.422 32.4296 186.128C32.6605 185.801 32.9342 185.507 33.2433 185.253Z" fill="#0071CE"/>
<path d="M28.5212 189.828C28.3232 189.304 28.0689 188.803 27.7629 188.334L26.2462 185.815C26.0857 185.55 25.8754 185.262 25.5709 185.262C24.8458 187.199 24.4639 189.441 25.3772 191.29C25.706 191.885 26.0995 192.442 26.5507 192.95L27.8348 194.522C28.012 194.732 28.3441 194.959 28.6319 194.81C28.7647 194.738 28.7869 194.566 28.8146 194.434C28.857 194.222 28.883 194.007 28.892 193.791C28.9086 193.631 28.9086 193.47 28.892 193.31C28.8081 192.852 28.771 192.386 28.7813 191.921C28.8114 191.214 28.7235 190.506 28.5212 189.828Z" fill="#0071CE"/>
<path d="M33.0536 190.723C33.4815 190.489 33.9398 190.316 34.4153 190.208C34.9688 190.086 35.5223 190.086 36.0758 190.014C37.0002 189.903 37.8969 189.616 38.8158 189.461C38.9055 189.43 39.0028 189.43 39.0925 189.461C39.1512 189.503 39.1986 189.558 39.2304 189.623C39.2623 189.688 39.2777 189.759 39.2752 189.831C39.2943 190.459 39.1288 191.079 38.7992 191.614C38.3494 192.41 37.7352 193.101 36.9974 193.641C36.2596 194.181 35.4152 194.558 34.5205 194.747C33.7022 194.879 32.875 194.947 32.0462 194.951C31.6314 194.964 31.2175 194.999 30.8064 195.057C30.5995 195.084 30.3944 195.122 30.192 195.173C30.0703 195.217 29.9372 195.217 29.8156 195.173C29.6108 195.079 29.5997 194.802 29.6163 194.619C29.6616 194.322 29.7651 194.036 29.9207 193.778C30.5856 192.536 31.582 191.504 32.799 190.795L33.0536 190.723Z" fill="#0071CE"/>
<path d="M24.2869 195.444C24.1355 196.292 24.0504 197.151 24.0323 198.012C23.9764 199.098 24.1305 200.184 24.4862 201.212C24.9703 202.297 25.6243 203.299 26.4235 204.179C26.4625 204.24 26.5209 204.287 26.5895 204.311C26.739 204.345 26.8497 204.179 26.905 204.035C27.4139 202.754 27.5594 201.358 27.3257 200C27.2103 199.309 27.0018 198.636 26.7058 198.001C26.5729 197.714 26.3737 197.448 26.263 197.149C26.263 197.082 26.2187 197.005 26.1965 196.939C26.0926 196.722 25.9743 196.513 25.8423 196.313C25.5947 195.866 25.389 195.397 25.2279 194.913C25.191 194.741 25.0974 194.587 24.9622 194.475C24.9172 194.448 24.8655 194.434 24.8127 194.434C24.76 194.434 24.7083 194.448 24.6633 194.475C24.5581 194.536 24.5747 194.63 24.5305 194.73C24.4681 194.84 24.4144 194.955 24.3699 195.073C24.3344 195.195 24.3066 195.319 24.2869 195.444Z" fill="#0071CE"/>
<path d="M28.9962 198.664C29.3215 198.07 29.773 197.554 30.3191 197.153C30.7691 196.886 31.2532 196.681 31.7582 196.544L35.5111 195.332C35.5916 196.031 35.5119 196.739 35.2779 197.403C35.0439 198.067 34.6617 198.668 34.1605 199.162C33.2098 200.102 32.1263 200.896 30.9445 201.52C30.1143 201.996 29.284 202.362 28.808 202.672C28.5976 202.81 28.3984 202.96 28.1991 203.109C27.9998 203.258 27.7563 203.474 27.5902 203.297C27.5127 203.214 27.5902 203.065 27.5902 202.965C27.5902 202.865 27.6511 202.677 27.6843 202.533C27.7175 202.389 27.784 202.168 27.8393 201.98C27.8947 201.792 27.9389 201.626 27.9777 201.426C27.9777 201.338 28.0054 201.249 28.0275 201.161C28.1148 200.719 28.2407 200.285 28.4039 199.865C28.5673 199.449 28.7655 199.047 28.9962 198.664Z" fill="#0071CE"/>
<path d="M37.5153 176.335C37.8585 175.433 38.1519 174.503 38.4065 173.568C38.641 172.602 38.8257 171.624 38.96 170.64C38.96 170.523 38.8493 170.44 38.8161 170.584C38.6113 171.475 38.2626 172.339 38.008 173.208C37.7533 174.077 37.4157 174.896 37.067 175.721C36.3876 177.322 35.6017 178.875 34.7145 180.37C34.5928 180.57 34.471 180.769 34.3547 180.968V180.575C34.3577 180.027 34.3076 179.481 34.2053 178.942C34.1123 178.434 33.9771 177.934 33.8012 177.448C33.6791 176.94 33.4403 176.468 33.1038 176.07C33.0484 176.02 33.0042 176.114 33.0152 176.158C33.1447 176.624 33.3094 177.079 33.5079 177.52C33.6616 177.998 33.7728 178.489 33.84 178.987C33.9044 179.484 33.9303 179.985 33.9175 180.487C33.8651 180.924 33.8429 181.364 33.851 181.804C33.209 182.867 32.5669 183.935 31.9912 185.037C31.7311 185.535 31.4875 186.038 31.244 186.548V186.481C31.0906 185.91 30.885 185.354 30.6296 184.821C29.9742 183.602 29.4917 182.298 29.196 180.946C29.196 180.874 29.1185 180.946 29.1185 180.979C29.213 182.166 29.5029 183.33 29.9764 184.422C30.1923 185.02 30.3916 185.618 30.5576 186.238C30.6371 186.536 30.6945 186.839 30.7292 187.145C30.7292 187.3 30.7624 187.45 30.7846 187.599L30.7071 187.782C30.5954 187.95 30.5166 188.138 30.4746 188.336C30.3085 188.723 30.148 189.116 29.993 189.515C29.4395 190.943 28.9579 192.398 28.5373 193.871C28.4398 193.324 28.2953 192.787 28.1055 192.266C27.9095 191.726 27.665 191.205 27.3749 190.71C27.1139 190.167 26.7619 189.673 26.3343 189.249C26.2844 189.21 26.2623 189.343 26.2734 189.371C26.4948 189.874 26.8269 190.317 27.0538 190.826C27.2636 191.317 27.4484 191.817 27.6074 192.326C27.8645 193.21 28.066 194.108 28.2107 195.016C27.6876 197 27.2719 199.01 26.9653 201.039C26.6498 200.258 26.2402 199.522 25.8582 198.769C25.8084 198.67 25.7254 198.819 25.7531 198.886C26.1537 199.805 26.4634 200.762 26.6774 201.742C26.7217 201.941 26.7549 202.14 26.7881 202.34C26.5059 204.504 26.3343 206.69 26.2678 208.871C26.2678 209.198 26.3066 211.19 26.3453 212.419C26.3627 213.443 26.457 214.465 26.6276 215.475C26.7312 216.018 26.8869 216.55 27.0926 217.063C27.1978 217.296 27.4468 217.528 27.6793 217.423C27.6295 217.041 27.6074 216.648 27.5243 216.272C27.2027 214.588 27.0397 212.877 27.0372 211.163C27.0372 210.609 27.0372 210.056 27.0372 209.502C27.0704 207.803 27.1756 206.103 27.3417 204.41C27.5281 203.94 27.7736 203.495 28.0723 203.087C28.8472 201.98 30.0484 201.221 30.8399 200.131C30.8842 200.07 30.8676 199.827 30.7458 199.899C30.0965 200.306 29.4836 200.769 28.9137 201.282C28.4029 201.679 27.9502 202.144 27.5686 202.666C27.6904 201.675 27.8343 200.685 28.0114 199.705C28.2033 198.598 28.4284 197.511 28.6867 196.445C28.8324 196.288 28.9692 196.124 29.0963 195.952C29.2734 195.719 29.445 195.481 29.6498 195.26C30.3616 194.455 31.2865 193.868 32.3178 193.566C32.5447 193.505 32.7772 193.444 33.0152 193.4C33.2701 193.387 33.5209 193.331 33.7569 193.234C33.7569 193.234 33.8012 193.135 33.7569 193.112C33.1819 192.922 32.5607 192.922 31.9857 193.112C31.4009 193.243 30.8405 193.465 30.3251 193.771C29.8672 194.063 29.4518 194.417 29.0908 194.823C29.5059 193.301 29.9819 191.795 30.5355 190.317C30.8676 189.439 31.2237 188.574 31.6038 187.721C31.9061 187.494 32.2374 187.307 32.589 187.168C33.0752 186.977 33.5724 186.816 34.078 186.686C34.5567 186.543 35.0216 186.358 35.4673 186.133C35.5227 186.105 35.5337 185.95 35.4673 185.972C34.9138 186.127 34.2717 186.171 33.685 186.288C33.1378 186.379 32.6017 186.527 32.0853 186.73C32.661 185.531 33.2754 184.35 33.9285 183.188C34.1409 182.885 34.3819 182.603 34.6481 182.346C35.0773 182.033 35.5329 181.757 36.0098 181.522C36.9905 180.993 37.9438 180.415 38.8659 179.789C38.9268 179.75 38.9047 179.562 38.8161 179.601C37.6773 180.068 36.5682 180.604 35.495 181.206C35.2847 181.317 35.0632 181.439 34.8363 181.572C34.8527 181.541 34.8712 181.511 34.8917 181.483C35.9151 179.847 36.793 178.125 37.5153 176.335Z" fill="#37474F"/>
<path d="M29.6888 211.368C29.6734 210.788 29.5879 210.212 29.4342 209.652C29.2758 208.859 28.8709 208.137 28.2773 207.588C28.1181 207.456 27.9326 207.359 27.7333 207.303C27.5339 207.248 27.325 207.236 27.1205 207.267C27.2423 208.08 27.3585 208.9 27.4803 209.713C27.4803 209.802 27.4803 209.89 27.519 209.973C27.5722 210.601 27.7611 211.209 28.0725 211.756C28.1695 211.876 28.2769 211.987 28.3936 212.088C28.6118 212.299 28.8532 212.484 29.1132 212.641L29.2349 212.708C29.2932 212.744 29.3599 212.765 29.4287 212.769C29.6556 212.769 29.6279 212.403 29.6445 212.248C29.6722 211.978 29.6833 211.706 29.6777 211.435L29.6888 211.368Z" fill="#0071CE"/>
<path d="M33.6079 208.291C34.0675 208.089 34.5037 207.836 34.9087 207.539C34.9972 207.478 35.119 207.406 35.2131 207.461C35.2653 207.5 35.3008 207.558 35.3127 207.622C35.3558 207.93 35.3284 208.244 35.2325 208.541C35.1366 208.837 34.9748 209.107 34.7592 209.332C34.3192 209.922 33.7842 210.434 33.1762 210.849C32.5841 211.262 31.9036 211.531 31.189 211.635C30.7684 211.696 29.8384 211.773 30.0156 211.081C30.1065 210.811 30.2453 210.56 30.4252 210.34C30.6254 210.06 30.8475 209.797 31.0894 209.554C31.7425 209.025 32.4955 208.633 33.3035 208.402L33.6079 208.291Z" fill="#0071CE"/>
<path d="M33.7013 203.81C35.1986 203.354 36.8048 203.409 38.2678 203.965C38.647 204.064 38.988 204.274 39.2475 204.568C39.3716 204.72 39.4348 204.912 39.4245 205.108C39.4143 205.303 39.3314 205.488 39.1922 205.625C39.0574 205.718 38.9046 205.78 38.7438 205.808L31.6532 207.546C31.4735 207.598 31.2863 207.618 31.0997 207.607C31.0056 207.607 30.9281 207.541 30.8396 207.53C30.751 207.519 30.6901 207.563 30.6403 207.474C30.613 207.421 30.6015 207.362 30.6071 207.303C30.606 207.154 30.619 207.006 30.6458 206.86C30.6616 206.792 30.6857 206.727 30.7178 206.666C30.7953 206.511 30.8562 206.351 30.9337 206.19C31.293 205.472 31.8328 204.86 32.5001 204.413C32.8719 204.16 33.2758 203.957 33.7013 203.81Z" fill="#0071CE"/>
<path d="M34.9692 199.563C36.1814 198.926 37.6095 198.865 38.9822 198.821C39.0149 198.809 39.0498 198.806 39.0842 198.811C39.1185 198.815 39.1511 198.828 39.1793 198.849C39.2076 198.869 39.2305 198.895 39.2463 198.926C39.2621 198.957 39.2703 198.991 39.2701 199.026C39.2885 199.334 39.239 199.642 39.1252 199.929C39.0114 200.216 38.836 200.475 38.6114 200.686C38.1262 201.234 37.5325 201.675 36.8678 201.982C36.2222 202.254 35.5509 202.462 34.864 202.601L33.054 203.039C32.9323 203.066 32.6555 203.216 32.5448 203.127C32.4341 203.039 32.5448 202.668 32.5448 202.574C32.6409 202.334 32.7576 202.102 32.8935 201.882C33.0947 201.436 33.3554 201.018 33.6684 200.642C34.0287 200.202 34.4703 199.836 34.9692 199.563Z" fill="#0071CE"/>
<path d="M28.3275 203.482C28.2887 203.482 28.2444 203.432 28.2057 203.449C28.1909 203.458 28.1787 203.472 28.17 203.487C28.1614 203.502 28.1565 203.52 28.1559 203.537C28.1263 203.635 28.1077 203.735 28.1005 203.836C28.0977 203.862 28.0977 203.888 28.1005 203.914C28.0985 203.992 28.0892 204.07 28.0728 204.146C28.0345 204.328 28.0178 204.514 28.023 204.7C28.0279 204.897 28.052 205.094 28.095 205.286C28.2027 205.75 28.39 206.192 28.6485 206.593C28.7053 206.692 28.772 206.784 28.8478 206.869C28.9308 206.964 29.0249 207.047 29.1135 207.135C29.3089 207.334 29.4782 207.557 29.6172 207.799C29.6559 207.866 29.7168 207.943 29.7943 207.932C29.8393 207.915 29.8779 207.884 29.905 207.844C29.9795 207.761 30.0377 207.665 30.0766 207.561C30.0766 207.451 30.1319 207.334 30.143 207.224C30.1403 207.207 30.1403 207.19 30.143 207.174C30.1911 206.591 30.1176 206.005 29.9271 205.452C29.8331 205.19 29.7125 204.938 29.5673 204.7C29.2437 204.212 28.8213 203.797 28.3275 203.482Z" fill="#0071CE"/>
<path d="M35.5563 205.307C34.9735 205.16 34.362 205.172 33.785 205.34C33.1422 205.452 32.5143 205.638 31.9142 205.894C31.5432 206.061 31.1953 206.275 30.8791 206.53C31.3016 205.598 31.8471 204.727 32.5009 203.94C33.255 202.997 34.1361 202.162 35.119 201.46C35.1578 201.46 35.1633 201.3 35.119 201.327C34.1373 201.745 33.2319 202.323 32.44 203.038C31.6442 203.797 30.9801 204.684 30.475 205.661C30.2366 206.107 30.0312 206.57 29.8606 207.045C29.8606 206.951 29.8053 206.857 29.772 206.763C29.6744 206.475 29.5463 206.199 29.3901 205.938C29.315 205.803 29.2279 205.676 29.13 205.556C29.0691 205.479 28.9916 205.34 28.8753 205.357C28.8652 205.362 28.8569 205.37 28.8519 205.38C28.8468 205.39 28.8454 205.401 28.8477 205.412C28.8699 205.56 28.9268 205.7 29.0137 205.822C29.0691 205.938 29.1355 206.049 29.1853 206.165C29.2956 206.396 29.3899 206.635 29.4676 206.879C29.5466 207.133 29.6094 207.392 29.6558 207.654C29.5562 207.992 29.4731 208.335 29.4067 208.678C29.2832 209.347 29.2092 210.024 29.1853 210.704C29.13 210.556 29.0691 210.413 29.0027 210.272C28.8167 209.889 28.5863 209.528 28.3163 209.198C28.2609 209.126 28.2111 209.281 28.2443 209.331C28.684 210.013 28.9728 210.781 29.0912 211.584C29.0912 211.728 29.141 211.866 29.1632 212.005C29.1632 212.237 29.1632 212.464 29.1632 212.691C29.1632 213.527 29.1632 214.352 29.1632 215.188C29.1632 216.023 29.0469 216.776 29.0137 217.573C29.0137 217.695 29.213 217.939 29.3071 217.756C29.8606 216.61 29.8606 215.21 29.8606 213.959C29.8606 213.184 29.8606 212.414 29.8606 211.639L29.8938 211.612C30.0228 211.535 30.1603 211.474 30.3034 211.429C30.6063 211.323 30.9005 211.193 31.1835 211.042C31.7388 210.745 32.2418 210.36 32.6725 209.901C32.6725 209.868 32.6725 209.763 32.6393 209.813C32.1785 210.258 31.604 210.569 30.9787 210.71C30.6577 210.793 30.3366 210.887 30.0156 210.986C29.9665 211 29.9184 211.016 29.8717 211.036C29.8717 210.676 29.8717 210.317 29.9326 209.962C29.9943 209.336 30.1072 208.716 30.2702 208.108C30.5248 207.842 30.7186 207.499 30.9787 207.245C31.3323 206.901 31.7376 206.615 32.1798 206.398C32.6746 206.161 33.192 205.976 33.7242 205.844L34.5489 205.623C34.8512 205.5 35.1747 205.438 35.501 205.44C35.5895 205.435 35.6061 205.324 35.5563 205.307Z" fill="#37474F"/>
<path d="M138.038 228.62L163.627 213.824C166.262 212.297 167.579 210.304 167.579 208.289C167.579 206.274 167.579 204.73 167.579 204.73L143.512 191.08C142.769 190.595 142.151 189.941 141.708 189.172C141.266 188.402 141.011 187.539 140.966 186.652V155.102L96.2697 180.929V212.479C96.3148 213.366 96.5691 214.229 97.0116 214.999C97.4541 215.768 98.0723 216.422 98.8158 216.907L118.931 228.62C124.206 231.664 132.758 231.664 138.038 228.62Z" fill="#263238"/>
<path opacity="0.15" d="M107.002 218.081V221.629L98.81 216.908C98.0662 216.423 97.4477 215.769 97.0051 215C96.5626 214.23 96.3085 213.366 96.2638 212.48V180.929L104.782 176.02C104.954 178.184 105.148 180.42 105.336 182.595L99.3635 186.049V210.697C99.406 211.585 99.6591 212.449 100.102 213.219C100.545 213.989 101.164 214.643 101.91 215.126L107.002 218.081Z" fill="black"/>
<path d="M99.3529 210.719C99.3972 211.606 99.6511 212.47 100.094 213.239C100.536 214.009 101.155 214.663 101.899 215.147L118.925 225.077C124.206 228.122 132.763 228.122 138.033 225.077L163.639 210.282C168.914 207.238 168.914 202.3 163.639 199.256L146.596 189.32C145.852 188.835 145.234 188.181 144.792 187.411C144.35 186.642 144.095 185.778 144.05 184.892V160.238L99.3529 186.065V210.719Z" fill="#455A64"/>
<path opacity="0.15" d="M151.788 192.304L146.596 189.309C145.852 188.824 145.234 188.17 144.792 187.4C144.35 186.631 144.095 185.767 144.05 184.881V160.238L99.3529 186.065V210.719C99.3972 211.606 99.6511 212.47 100.094 213.239C100.536 214.009 101.155 214.663 101.899 215.147L106.997 218.092L151.788 192.304Z" fill="black"/>
<path d="M50.15 229.414C51.8106 230.366 54.5782 230.31 56.3162 229.297C78.2909 216.611 179.336 158.259 201.338 145.578C202.266 144.97 203.038 144.152 203.591 143.191C204.144 142.229 204.463 141.15 204.521 140.043V6.09116C204.521 4.05975 203.181 1.66302 201.532 0.688824C199.882 -0.285368 197.104 -0.207876 195.36 0.805062L50.3493 84.5192C49.4194 85.1254 48.6459 85.9428 48.0919 86.9047C47.5378 87.8666 47.2189 88.9458 47.161 90.0543V224.006C47.161 226.043 48.5005 228.462 50.15 229.414Z" fill="#455A64"/>
<path d="M56.3002 229.29L201.322 145.57C202.251 144.963 203.024 144.146 203.577 143.184C204.13 142.222 204.448 141.143 204.505 140.035V6.08331C204.505 4.05744 203.077 3.2327 201.322 4.24563L56.3002 87.9653C55.3701 88.5708 54.5967 89.3882 54.0435 90.3503C53.4903 91.3125 53.1729 92.392 53.1174 93.5005V227.452C53.134 229.483 54.5621 230.308 56.3002 229.29Z" fill="#37474F"/>
<path d="M53.1335 216.622V227.454C53.1335 229.485 54.5616 230.31 56.3218 229.292L201.321 145.572C202.251 144.965 203.023 144.148 203.576 143.186C204.129 142.224 204.447 141.145 204.504 140.037V129.227L53.1335 216.622Z" fill="#455A64"/>
<path d="M57.345 206.55V94.9002C57.3813 94.221 57.5777 93.5601 57.9183 92.9713C58.2588 92.3826 58.7338 91.8827 59.3044 91.5126L198.321 11.2525C199.4 10.627 200.28 11.1363 200.28 12.3596V124.015C200.243 124.695 200.046 125.356 199.706 125.946C199.365 126.535 198.891 127.036 198.321 127.408L59.2934 207.668C58.2195 208.305 57.345 207.796 57.345 206.55Z" fill="#99D1F3"/>
<path d="M48.1023 86.8867L54.0858 90.3296C53.5163 91.2837 53.1912 92.3636 53.1393 93.4736V227.453C53.1393 229.307 54.3958 230.342 56.3221 229.296C55.3772 229.803 54.3252 230.078 53.253 230.098C52.1808 230.119 51.1192 229.883 50.1559 229.412C49.2794 228.89 48.547 228.157 48.0251 227.281C47.5032 226.404 47.2082 225.411 47.1669 224.392V90.0362C47.2069 88.9241 47.5288 87.8404 48.1023 86.8867Z" fill="#263238"/>
<path d="M127.055 179.99L134.251 175.855C134.898 175.484 135.419 175.75 135.419 176.447C135.391 176.839 135.271 177.218 135.069 177.555C134.867 177.891 134.588 178.175 134.256 178.385L127.061 182.519C126.419 182.89 125.893 182.63 125.893 181.927C125.921 181.536 126.041 181.157 126.243 180.82C126.445 180.484 126.723 180.199 127.055 179.99Z" fill="#0071CE"/>
<path d="M244.227 74.1806C249.291 73.8378 251.853 74.8597 255.041 80.3316C258.612 86.4568 266.147 101.676 266.6 102.704C267.466 104.645 267.861 106.702 266.024 108.416C260.998 113.131 251.562 121.048 251.562 121.048L248.056 112.51L255.417 104.315L249.201 91.9934L244.227 74.1806Z" fill="#FFA8A7"/>
<path d="M255.416 104.312C256.198 105.675 257.113 106.958 258.146 108.142C256.693 107.541 255.483 106.474 254.705 105.108L255.416 104.312Z" fill="#F28F8F"/>
<path d="M243.051 74.1973C244.931 73.8164 246.865 73.7901 248.755 74.1197C251.342 74.7148 253.535 76.7457 255.741 80.6459C257.946 84.5461 262.752 94.4874 262.752 94.4874C262.752 94.4874 260.922 98.504 253.503 101.136L244.558 88.2652L243.051 74.1973Z" fill="#0071CE"/>
<path opacity="0.3" d="M243.051 74.1973C244.931 73.8164 246.865 73.7901 248.755 74.1197C251.342 74.7148 253.535 76.7457 255.741 80.6459C257.946 84.5461 262.752 94.4874 262.752 94.4874C262.752 94.4874 260.922 98.504 253.503 101.136L244.558 88.2652L243.051 74.1973Z" fill="black"/>
<path d="M199.547 229.742C199.282 230.606 199.259 231.525 199.482 232.401C199.734 232.931 201.332 234.69 204.579 235.331C207.826 235.971 212.295 235.331 214.216 235.214C216.137 235.098 222.178 235.861 224.099 236.094C227.113 236.501 229.435 235.842 230.567 234.748C230.75 234.53 230.885 234.275 230.963 234.001C231.041 233.727 231.061 233.439 231.02 233.157C231.011 232.431 230.904 231.708 230.703 231.01L199.547 229.742Z" fill="#37474F"/>
<path d="M230.159 227.852C230.217 228.098 230.276 228.35 230.321 228.608C230.617 229.89 230.711 231.211 230.599 232.522C230.211 233.472 229.144 234.003 228.283 234.274C226.013 234.992 224.286 234.876 221.77 234.404C219.238 234.031 216.678 233.873 214.119 233.932C212.139 234.067 209.416 234.443 207.431 234.262C205.747 234.189 204.086 233.851 202.509 233.259C201.215 232.696 199.837 231.965 199.514 230.607C199.126 227.742 200.329 226.474 201.694 225.678C203.058 224.883 204.973 224.941 207.036 224.805C208.905 224.676 210.27 224.676 211.926 224.547C213.366 224.48 214.797 224.283 216.201 223.958C217.45 223.563 218.737 221.966 219.267 221.908C219.267 221.908 227.578 221.843 228.374 221.908C229.292 221.985 229.571 224.825 229.668 225.446C229.758 225.931 229.778 226.448 229.907 226.914C230.004 227.224 230.088 227.535 230.159 227.852Z" fill="#455A64"/>
<path d="M204.547 233.871C204.288 231.808 203.945 227.338 207.742 224.751H208.227C206.51 224.255 204.686 224.255 202.969 224.751C199.929 225.56 198.583 228.018 199.34 230.618C199.34 230.598 200.019 233.114 204.547 233.871Z" fill="#FAFAFA"/>
<path d="M215.639 224.108C214.41 225.195 213.983 227.672 213.983 227.672C213.821 228.603 212.139 228.739 212.301 227.847C212.557 226.612 213.051 225.439 213.756 224.393C214.334 224.088 214.997 223.988 215.639 224.108Z" fill="#FAFAFA"/>
<path d="M212.19 224.529C211.266 225.441 210.66 226.628 210.463 227.912C210.295 228.798 208.892 228.785 208.989 227.912C208.989 227.912 209.157 225.719 210.47 224.678C210.724 224.517 211.013 224.42 211.312 224.394C211.611 224.368 211.913 224.414 212.19 224.529Z" fill="#FAFAFA"/>
<path d="M228.651 215.84C228.651 215.84 228.431 221.189 228.134 222.955C227.953 224.002 226.588 225.096 223.179 224.979C220.78 224.901 218.897 225.102 218.994 223.226L219.201 217.767L228.651 215.84Z" fill="#FFA8A7"/>
<path d="M233.975 203.242C233.852 204.697 233.658 206.017 234.253 207.621C235.107 209.924 236.918 210.984 237.979 211.89C239.102 212.997 240.136 214.191 241.071 215.46C242.112 216.754 242.364 217.543 243.955 218.875C244.964 219.71 247.784 220.395 249.518 219.658C250.876 219.082 251.348 218.617 251.264 216.54C251.18 214.464 244.55 213.746 244.55 213.746L233.975 203.242Z" fill="#37474F"/>
<path d="M250.404 210.337C250.973 210.538 251.115 211.566 251.199 213.603C251.264 215.143 251.95 217.4 249.712 218.37C247.914 219.153 245.035 218.636 243.819 217.18C242.299 215.369 241.271 213.772 239.104 211.56C237.222 209.619 235.269 208.972 234.428 205.156C233.891 202.686 234.318 201.664 236.064 200.959C238.464 199.982 242.235 203.164 244.111 203.662C245.734 204.121 249.841 210.13 250.404 210.337Z" fill="#455A64"/>
<path d="M244.11 203.662L243.793 203.559C242.724 203.601 241.684 203.922 240.776 204.489C239.869 205.056 239.125 205.85 238.619 206.793C238.295 207.439 239.265 207.989 239.867 207.439C241.212 204.904 243.961 204.341 245.041 204.205C244.77 203.965 244.453 203.78 244.11 203.662Z" fill="#FAFAFA"/>
<path d="M245.663 204.824C244.653 204.92 243.683 205.265 242.841 205.83C241.998 206.395 241.31 207.16 240.838 208.058C240.515 208.705 241.485 209.248 242.093 208.705C242.549 207.91 243.171 207.224 243.919 206.693C244.666 206.163 245.519 205.801 246.42 205.633C246.161 205.342 245.909 205.07 245.663 204.824Z" fill="#FAFAFA"/>
<path d="M250.727 206.648L250.404 210.95C250.404 210.95 247.674 212.948 243.761 211.118C243.645 210.879 243.315 207.037 243.315 207.037L250.727 206.648Z" fill="#FFA8A7"/>
<path d="M235.534 208.003C235.534 208.003 235.721 203.43 242.209 202.796L242.584 202.996C241.845 201.848 240.707 201.014 239.389 200.655C237.235 200.099 235.508 200.655 234.395 202.02C233.283 203.384 234.408 207.104 235.534 208.003Z" fill="#FAFAFA"/>
<path d="M252.623 178.015C251.698 170.492 251.329 166.295 251.329 166.295C251.329 166.295 251.142 155.713 251.788 145.946C252.073 141.645 252.215 136.891 252.306 132.603C252.42 127.833 252.041 123.065 251.174 118.373C251.174 118.373 217.864 111.75 217.45 123.975C216.952 138.618 217.34 168.054 217.547 171.877C217.844 177.251 217.489 182.659 217.825 193.092C218.11 201.739 218.763 219.526 218.763 219.526C223.342 221.091 228.762 219.526 228.762 219.526C228.762 219.526 232.21 194.721 232.604 188.545C233.025 181.902 232.32 178.532 232.32 178.532L235.767 147.576C235.767 147.576 236.026 157.511 236.324 162.88C236.621 168.248 237.391 171.527 238.788 181.527C239.997 190.194 243.141 207.683 243.141 207.683C245.587 208.633 248.301 208.633 250.747 207.683C250.747 207.683 253.554 185.537 252.623 178.015Z" fill="#455A64"/>
<path d="M248.055 135.27C248.055 135.27 243.884 140.593 238.528 142.882C238.528 142.882 236.2 161.601 236.219 161.232L235.611 142.391C235.611 142.391 243.618 138.846 248.055 135.27Z" fill="#37474F"/>
<path d="M230.877 69.509L231.401 80.6469L242.448 80.0583L242.106 67.1094L230.877 69.509Z" fill="#FFA8A7"/>
<path d="M253.289 79.8534C252.364 76.8135 249.15 74.3104 245.094 74.1875C244.195 74.1875 242.293 74.1875 242.293 74.1875C241.834 76.0632 236.084 76.7747 231.169 75.604C229.681 75.9985 223.504 77.4862 222.269 77.8937C218.737 79.0708 217.644 82.6735 217.094 94.1994C217.094 94.1994 217.204 116.928 217.094 127.775C223.31 131.054 232.921 130.647 239.732 129.954C250.469 128.868 252.067 124.981 252.067 124.981C251.62 118.655 251.892 116.275 252.067 110.027C252.196 105.337 253.548 100.37 253.968 95.0532C254.615 87.1558 253.923 81.9426 253.289 79.8534Z" fill="#0071CE"/>
<path d="M223.477 55.8359C223.477 55.8359 220.845 59.8331 221.149 60.2212C221.453 60.6093 223.387 60.9715 223.387 60.9715L223.477 55.8359Z" fill="#F28F8F"/>
<path d="M230.761 44.7821C225.431 45.9075 223.303 47.4663 222.999 56.5668C222.676 65.4214 223.789 68.3385 224.94 69.5027C225.722 70.3048 230.082 70.4535 232.281 69.8455C235.03 69.0888 241.252 66.8832 244.163 62.4332C247.591 57.2006 248.49 50.1053 244.809 47.1947C239.648 43.1263 232.928 44.3229 230.761 44.7821Z" fill="#FFA8A7"/>
<path d="M224.933 69.5306C225.58 70.1774 228.62 70.4038 230.91 70.1256L230.877 68.832C228.978 69.5263 226.942 69.7656 224.933 69.5306Z" fill="#F28F8F"/>
<path d="M222.267 48.1974C223.593 49.1511 225.239 49.5481 226.853 49.3034C226.82 50.0162 227.01 50.7215 227.396 51.3214C227.938 52.1399 228.758 52.7331 229.705 52.9902C229.123 54.1329 228.814 55.3946 228.8 56.6769C228.763 57.0816 228.851 57.4879 229.052 57.8412C229.115 57.9691 229.212 58.0765 229.334 58.1505C229.456 58.2245 229.596 58.262 229.738 58.2586C229.881 58.2552 230.019 58.211 230.137 58.1313C230.255 58.0515 230.348 57.9396 230.404 57.8088C230.703 57.1209 231.081 56.4698 231.529 55.8684C232.102 55.1708 232.913 54.71 233.806 54.5748C237.157 54.2126 237.57 58.585 236.232 60.396C234.039 63.3648 232.183 61.3597 232.183 61.3597C232.093 62.7544 232.303 64.1521 232.797 65.4594C233.291 66.7667 234.058 67.9534 235.048 68.9402C237.424 69.6371 239.941 69.7017 242.35 69.1278C245.326 65.04 247.195 63.0543 248.773 59.5293C252.123 52.0717 250.506 47.3954 247.919 45.4226C247.402 41.9817 244.685 40.4423 241.613 39.7373C237.001 38.6765 232.687 41.4125 228.121 40.3841C227.369 40.2289 226.627 40.0346 225.896 39.802C225.615 39.6692 225.294 39.6461 224.997 39.7373C224.834 39.8478 224.706 40.003 224.629 40.1843C224.552 40.3656 224.529 40.5652 224.563 40.7592C224.622 41.6389 225.514 42.6155 225.967 43.0877C224.97 43.1807 223.965 43.1218 222.985 42.913C222.641 42.8609 222.29 42.8741 221.95 42.9519C221.577 43.0955 221.261 43.3556 221.048 43.6935C220.834 44.0314 220.736 44.4292 220.767 44.8276C220.763 45.4636 220.896 46.093 221.154 46.674C221.413 47.255 221.792 47.7743 222.267 48.1974Z" fill="#263238"/>
<path d="M248.005 46.5855L251.194 44.7033C250.944 44.2804 250.537 43.974 250.061 43.8515C249.586 43.729 249.081 43.8004 248.658 44.05C248.235 44.2996 247.929 44.7069 247.806 45.1824C247.684 45.6579 247.755 46.1626 248.005 46.5855Z" fill="#263238"/>
<path d="M183.441 86.8635C184.307 88.4934 193.867 105.996 196.648 108.641C198.627 110.53 201.693 111.811 204.869 109.087C210.787 104.01 219.635 95.3818 219.635 95.3818C226.821 91.1971 227.572 81.7991 224.325 78.5133C224.325 78.5133 221.44 76.3466 217.126 80.402C209.959 87.1416 200.794 97.2187 200.794 97.2187C199.028 94.8903 197.463 93.0469 195.555 90.395C194.035 88.28 191.674 86.0615 191.577 83.2802C191.526 81.8443 192.056 80.4085 192.276 78.9984C192.554 77.1615 192.813 75.3376 193.117 73.5006C193.226 73.1396 193.192 72.7499 193.02 72.414C192.824 72.2167 192.56 72.1021 192.282 72.0937C192.004 72.0852 191.733 72.1837 191.526 72.3688C191.052 72.7908 190.692 73.3244 190.478 73.9211L189.617 75.7968C189.482 76.0943 189.288 76.4436 188.971 76.4436C188.162 76.4436 187.729 74.3674 187.587 73.7982C187.335 72.6761 187.237 71.5251 187.295 70.3766C187.328 69.5099 187.347 68.4815 186.649 67.9705C186.33 67.8001 185.975 67.7109 185.614 67.7109C185.253 67.7109 184.897 67.8001 184.579 67.9705C182.784 68.6938 181.323 70.0618 180.485 71.806C179.327 74.2703 179.838 77.1357 180.485 79.6646C181.184 82.172 182.176 84.5883 183.441 86.8635Z" fill="#FFA8A7"/>
<path d="M200.795 97.2433C198.99 99.2225 197.929 103.142 197.929 103.142C197.929 103.142 197.735 98.9897 199.87 96.0273L200.795 97.2433Z" fill="#F28F8F"/>
<path d="M225.037 77.1758C222.217 77.3116 219.494 78.0425 217.347 79.8535C215.717 81.2312 204.074 92.9771 204.074 92.9771C204.074 92.9771 206.493 99.445 212.625 102.867L223.84 92.9771C223.84 92.9771 229.946 84.808 225.037 77.1758Z" fill="#0071CE"/>
<g opacity="0.3">
<path opacity="0.3" d="M225.035 77.1758C222.215 77.3116 219.492 78.0425 217.345 79.8535C215.715 81.2312 204.073 92.9771 204.073 92.9771C204.073 92.9771 206.492 99.445 212.623 102.867L223.839 92.9771C223.839 92.9771 229.945 84.808 225.035 77.1758Z" fill="black"/>
</g>
<mask id="mask0_353_57315" style="mask-type:alpha" maskUnits="userSpaceOnUse" x="89" y="50" width="103" height="136">
<path d="M187.619 133.482L98.0859 185.346L90.9888 170.788L89.533 116.922L103.545 70.9726L144.581 50.5L191.896 100.362L187.619 133.482Z" fill="#0071CE"/>
</mask>
<g mask="url(#mask0_353_57315)">
<path d="M143.654 98.7266C149.432 99.8926 151.533 101.568 154.774 106.984C157.169 110.986 158.619 113.581 162.521 119.222L174.723 120.546L172.254 129.359C172.254 129.359 164.738 129.596 160.483 129.932C157.3 130.184 156.57 129.932 154.59 127.547C150.493 122.626 145.571 115.619 145.571 115.619L143.654 98.7266Z" fill="#E0E0E0"/>
<path opacity="0.02" d="M143.654 98.7266C149.432 99.8926 151.533 101.568 154.774 106.984C157.169 110.986 158.619 113.581 162.521 119.222L174.723 120.546L172.254 129.359C172.254 129.359 164.738 129.596 160.483 129.932C157.3 130.184 156.57 129.932 154.59 127.547C150.493 122.626 145.571 115.619 145.571 115.619L143.654 98.7266Z" fill="black"/>
<path d="M155.141 135.053L156.811 183.902C156.811 183.902 141.852 180.225 128.448 182.489C115.043 184.753 111.85 187.904 111.85 187.904L120.495 112.336L151.428 113.271C151.428 113.271 155.141 118.345 155.141 135.053Z" fill="#EBEBEB"/>
<path d="M106.491 214.134C108.229 205.704 110.168 201.932 110.53 200.015C110.53 200.015 113.083 180.103 114.238 163.158C114.795 155.001 114.596 149.501 119.927 140.047L150.917 147.663C151.295 152.007 154.21 181.574 152.776 207.069C151.6 227.996 150.066 234.824 149.909 238.317C149.819 240.302 149.861 241.616 149.945 244.373C149.982 245.487 150.077 246.401 150.723 247.104C151.782 248.166 152.961 249.1 154.237 249.888C156.648 251.464 157.756 252.341 160.513 253.323C161.052 253.484 161.568 253.713 162.047 254.006C162.281 254.147 162.477 254.342 162.621 254.574C162.764 254.806 162.85 255.069 162.872 255.34C162.872 256.086 162.189 256.675 161.496 257.042C159.001 258.366 155.881 258.093 153.155 257.305C150.429 256.517 147.902 255.204 145.144 254.411C143.243 253.886 141.231 253.618 139.487 252.73C138.912 252.487 138.434 252.06 138.127 251.517C137.955 251.043 137.909 250.532 137.996 250.035C138.206 247.85 138.437 247.162 138.379 244.961C138.327 242.86 138.006 239.01 137.854 236.92C137.712 235.16 135.48 222.554 135.816 214.759C135.91 212.375 135.827 209.988 135.569 207.616L132.811 179.919C131.551 184.547 126.881 197.951 125.426 204.081C123.64 211.56 122.679 220.611 118.966 234.304C117.915 238.159 115.982 242.808 115.504 245.14C115.299 248.097 114.212 255.845 112.789 259.107C110.63 264.054 104.027 263.897 103.471 259.6C103.003 255.95 105.461 246.395 105.572 244C105.682 241.605 104.495 223.956 106.491 214.134Z" fill="#C8856A"/>
<path d="M150.865 138.513L151.191 141.664C154.179 159.087 154.458 182.177 154.137 189.195C153.202 209.879 150.534 246.358 150.534 246.358C150.534 246.358 149.709 248.386 143.826 248.853C139.299 249.215 136.667 247.676 136.667 247.676C136.667 247.676 134.566 222.947 134.235 216.975C134.124 214.42 134.178 211.86 134.398 209.312C134.667 206.131 134.628 202.931 134.283 199.757L132.707 182.093C132.707 182.093 126.845 206.559 126.278 209.538C123.447 224.476 116.576 252.167 116.576 252.167C116.576 252.167 111.791 253.428 107.484 252.666C103.177 251.905 102.205 250.387 102.205 250.387C102.205 250.387 104.868 219.244 105.541 213.209C106.444 205.141 107.279 201.386 107.888 198.082C108.608 194.195 108.939 179.54 109.464 171.015C109.8 165.201 110.032 160.783 110.741 156.513C112.211 147.584 116.55 142.216 118.194 138.928L118.451 137.168C123.315 141.081 141.757 143.497 150.865 138.513Z" fill="#455A64"/>
<path d="M132.702 182.099L137.292 165.427C137.292 165.427 143.254 164.288 146.185 161.062C146.185 161.062 145.523 165.133 139.357 167.213L135.018 181.779L134.204 198.902L132.702 182.099Z" fill="#37474F"/>
<path d="M121.462 68.9436C121.342 63.5597 131.826 57.6716 141.664 64.2163C151.502 70.761 147.93 77.0798 147.247 79.0022L147.914 104.74L114.587 105.522C114.587 105.522 116.163 82.3218 116.073 78.5347C115.984 74.7477 116.241 69.0644 121.462 68.9436Z" fill="#263238"/>
<path d="M125.787 97.1883L117.703 99.3418C116.091 99.8671 117.908 109.39 117.456 120.263C116.999 131.424 113.827 149.488 113.827 149.488C113.827 149.488 121.396 152.639 134.968 152.424C148.368 152.204 152.37 148.023 152.37 148.023L150.568 134.839L149.67 124.465C149.67 124.465 154.487 117.721 151.808 111.092C149.129 104.463 139.879 95.8594 139.879 95.8594L135.725 96.0642L125.787 97.1883Z" fill="#0071CE"/>
<path opacity="0.7" d="M125.787 97.1883L117.703 99.3418C116.091 99.8671 117.908 109.39 117.456 120.263C116.999 131.424 113.827 149.488 113.827 149.488C113.827 149.488 121.396 152.639 134.968 152.424C148.368 152.204 152.37 148.023 152.37 148.023L150.568 134.839L149.67 124.465C149.67 124.465 154.487 117.721 151.808 111.092C149.129 104.463 139.879 95.8594 139.879 95.8594L135.725 96.0642L125.787 97.1883Z" fill="white"/>
<path opacity="0.3" d="M124.983 123.657C125.857 124.935 127.046 125.965 128.434 126.648C129.823 127.332 131.364 127.646 132.91 127.56C134.359 127.471 135.764 127.029 137.005 126.274C138.245 125.519 139.282 124.473 140.027 123.227C140.027 123.227 139.097 128.821 132.39 128.947C125.682 129.073 124.983 123.657 124.983 123.657Z" fill="#0071CE"/>
<path d="M135.398 96.3901C138.738 99.1792 143.938 102.93 147.022 106.958C153.251 115.11 154.606 122.611 155.1 132.086C155.2 117.905 156.933 109.947 139.868 95.3186C136.821 92.6923 135.613 92.125 135.613 92.125L135.398 96.3901Z" fill="#E0E0E0"/>
<path d="M124.163 94.5195C124.41 98.023 128.102 106.8 128.444 116.36C128.785 125.919 123.501 188.015 123.501 188.015C123.501 188.015 113.38 189.297 105.926 185.053C105.926 185.053 108.552 162.524 114.33 137.491C115.817 130.999 113.101 122.946 112.555 114.196C112.251 109.44 112.87 104.671 114.378 100.15C114.378 100.15 119.798 98.3381 121.453 97.3769C122.562 96.6433 123.489 95.666 124.163 94.5195Z" fill="#F0F0F0"/>
<path d="M123.758 96.2161C123.994 97.3454 124.372 98.7111 124.808 100.292C125.969 104.531 127.566 110.33 127.781 116.386C128.096 125.315 123.411 181.244 122.891 187.411C122.292 187.463 121.231 187.537 119.881 187.537C116.205 187.537 110.999 187.012 106.635 184.685C107.039 181.413 109.728 160.444 114.955 137.638C115.926 133.394 115.159 128.525 114.345 123.372C113.878 120.399 113.389 117.326 113.195 114.159C112.921 109.599 113.491 105.028 114.876 100.676C116.063 100.271 120.286 98.8109 121.767 97.9494C122.523 97.4872 123.196 96.9013 123.758 96.2161ZM124.162 94.5195C123.482 95.6683 122.548 96.6458 121.431 97.3769C119.776 98.3381 114.356 100.15 114.356 100.15C112.848 104.671 112.229 109.44 112.533 114.196C113.058 122.946 115.795 131.004 114.309 137.491C108.573 162.524 105.904 185.053 105.904 185.053C110.553 187.679 116.236 188.204 119.86 188.204C121.069 188.212 122.278 188.151 123.479 188.02C123.479 188.02 128.732 125.93 128.422 116.365C128.112 106.8 124.388 98.0282 124.141 94.5248L124.162 94.5195Z" fill="#EBEBEB"/>
<path d="M141.984 70.6077C142.972 71.3483 144.274 73.6594 144.085 77.5516C143.985 78.7281 144.742 79.9572 144.789 82.1528C144.978 90.4571 143.528 91.9541 141.301 92.9836C139.727 93.6979 138.014 94.0566 136.285 94.0341L136.548 98.047C137.976 100.405 137.929 101.724 137.693 104.776C130.255 102.643 124.488 97.548 124.483 97.5323L124.204 88.1617C124.204 88.1617 123.5 87.9674 123.5 87.9726C122.977 88.3859 122.329 88.6106 121.662 88.6106C120.995 88.6106 120.347 88.3859 119.824 87.9726C118.132 86.733 116.982 83.6183 118.432 81.8324C119.881 80.0465 122.534 80.7346 123.506 82.2684C124.477 83.8021 126.794 83.3189 126.043 80.971C127.093 80.4457 128.396 79.3374 127.329 75.0198C127.088 73.9116 127.45 71.9891 128.485 71.0332C130.208 69.4574 133.632 69.7148 135.607 71.6162C138.255 69.3891 139.941 69.0792 141.984 70.6077Z" fill="#C8856A"/>
<path d="M141.789 75.1894L139.058 74.6642C139.083 74.4849 139.144 74.3125 139.238 74.1577C139.332 74.0029 139.457 73.8688 139.604 73.7636C139.752 73.6585 139.919 73.5844 140.096 73.546C140.273 73.5076 140.456 73.5056 140.634 73.5401C141 73.6153 141.325 73.8281 141.539 74.1349C141.754 74.4416 141.844 74.8189 141.789 75.1894Z" fill="#263238"/>
<path d="M129.556 76.4729L132.182 75.4907C132.127 75.318 132.036 75.1586 131.917 75.0221C131.797 74.8855 131.651 74.7748 131.488 74.6966C131.324 74.6184 131.146 74.5745 130.965 74.5674C130.783 74.5604 130.603 74.5903 130.433 74.6555C130.08 74.7863 129.792 75.0486 129.628 75.3874C129.465 75.7263 129.439 76.1154 129.556 76.4729Z" fill="#263238"/>
<path d="M133.128 85.8867L137.014 87.0948C136.949 87.3521 136.832 87.5933 136.669 87.8037C136.507 88.014 136.304 88.1889 136.072 88.3178C135.84 88.4467 135.584 88.5267 135.319 88.5531C135.055 88.5794 134.788 88.5515 134.535 88.471C134.015 88.3013 133.579 87.9392 133.318 87.4587C133.056 86.9782 132.988 86.4158 133.128 85.8867Z" fill="#AF6152"/>
<path d="M135.429 88.5562C135.409 88.0768 135.199 87.6251 134.847 87.2994C134.495 86.9737 134.028 86.8005 133.549 86.8176C133.401 86.8202 133.254 86.845 133.113 86.8911C133.184 87.2622 133.353 87.6074 133.604 87.8903C133.854 88.1731 134.176 88.3832 134.536 88.4984C134.825 88.5876 135.131 88.6074 135.429 88.5562Z" fill="#FFA8A7"/>
<path d="M135.549 77.3281L136.343 84.7185L140.004 83.6049L135.549 77.3281Z" fill="#AF6152"/>
<path d="M136.311 94.0204C133.643 93.9311 127.624 92.4814 126.158 88.9727C126.158 88.9727 126.421 91.4939 129.735 93.3743C132.361 94.8608 136.39 95.1812 136.39 95.1812L136.311 94.0204Z" fill="#AF6152"/>
<path d="M133.323 79.2308C133.309 79.4627 133.227 79.6854 133.087 79.8707C132.947 80.056 132.755 80.1956 132.535 80.272C132.316 80.3485 132.079 80.3582 131.854 80.3001C131.629 80.242 131.426 80.1185 131.271 79.9454C131.116 79.7722 131.016 79.5571 130.983 79.3271C130.951 79.0971 130.987 78.8625 131.087 78.653C131.187 78.4434 131.347 78.2682 131.547 78.1495C131.747 78.0308 131.977 77.9739 132.209 77.986C132.522 78.0036 132.815 78.1446 133.024 78.378C133.232 78.6114 133.34 78.9181 133.323 79.2308Z" fill="#263238"/>
<path d="M142.047 78.6767C142.003 78.9065 141.892 79.1181 141.728 79.2847C141.564 79.4514 141.354 79.5655 141.125 79.6128C140.896 79.66 140.658 79.6381 140.441 79.55C140.224 79.4619 140.039 79.3114 139.907 79.1177C139.776 78.9239 139.706 78.6956 139.704 78.4617C139.703 78.2278 139.771 77.9987 139.9 77.8036C140.029 77.6084 140.213 77.4559 140.429 77.3654C140.645 77.2749 140.882 77.2505 141.112 77.2952C141.264 77.3242 141.409 77.383 141.539 77.4681C141.668 77.5533 141.78 77.6633 141.867 77.7916C141.954 77.92 142.014 78.0643 142.045 78.2162C142.076 78.368 142.077 78.5245 142.047 78.6767Z" fill="#263238"/>
<path d="M119.204 98.3553C120.538 97.7617 122.051 96.0914 122.833 95.1617C123.616 94.232 123.884 93.5859 124.409 93.5859V95.2615C124.409 95.2615 128.653 104.889 128.611 113.32C128.705 119.098 128.086 125.889 128.086 125.889C126.347 121.803 122.308 115.079 122.308 115.079L124.514 109.79C123.19 104.559 120.17 101.16 119.204 98.3553Z" fill="#E0E0E0"/>
<path d="M125.191 127.295C125.087 127.235 124.963 127.219 124.846 127.25C124.73 127.282 124.631 127.358 124.571 127.463C124.511 127.567 124.495 127.691 124.527 127.807C124.558 127.924 124.635 128.023 124.739 128.082L125.133 128.308C125.167 128.33 125.206 128.341 125.246 128.341C125.286 128.341 125.325 128.33 125.359 128.308C125.453 128.247 125.53 128.165 125.586 128.068C125.642 127.972 125.674 127.863 125.68 127.751C125.683 127.711 125.676 127.671 125.66 127.634C125.643 127.597 125.617 127.565 125.585 127.541L125.191 127.316V127.295Z" fill="#455A64"/>
<path d="M125.68 127.733C125.683 127.693 125.676 127.653 125.66 127.616C125.643 127.579 125.618 127.547 125.585 127.523L125.191 127.297C125.124 127.259 125.048 127.238 124.971 127.238C124.893 127.238 124.817 127.259 124.75 127.297C124.871 127.25 125.06 127.36 125.275 127.486C125.491 127.613 125.601 127.775 125.428 128.106C125.302 128.348 125.154 128.322 125.086 128.29L125.128 128.316C125.162 128.338 125.201 128.349 125.241 128.349C125.281 128.349 125.32 128.338 125.354 128.316C125.452 128.253 125.533 128.167 125.59 128.066C125.647 127.964 125.677 127.85 125.68 127.733Z" fill="#37474F"/>
<path d="M127.082 127.269C126.921 127.164 126.741 127.093 126.552 127.06C126.362 127.027 126.169 127.033 125.982 127.077C125.795 127.122 125.619 127.204 125.465 127.319C125.311 127.433 125.182 127.578 125.086 127.744C124.99 127.911 124.928 128.095 124.906 128.285C124.883 128.476 124.9 128.669 124.954 128.854C125.009 129.038 125.1 129.209 125.223 129.356C125.346 129.504 125.498 129.625 125.669 129.712C125.782 129.763 125.907 129.784 126.031 129.771C126.155 129.758 126.273 129.712 126.373 129.638C126.664 129.45 126.905 129.196 127.079 128.897C127.252 128.597 127.352 128.261 127.371 127.915C127.384 127.792 127.364 127.667 127.314 127.553C127.263 127.44 127.183 127.342 127.082 127.269Z" fill="#0071CE"/>
<path d="M126.351 127.336C126.061 127.525 125.819 127.78 125.645 128.08C125.472 128.381 125.372 128.718 125.353 129.064C125.341 129.188 125.361 129.312 125.411 129.426C125.462 129.539 125.542 129.637 125.642 129.71L134.356 134.742C134.469 134.794 134.594 134.816 134.717 134.804C134.841 134.792 134.959 134.747 135.06 134.674C135.351 134.485 135.593 134.23 135.766 133.929C135.94 133.629 136.04 133.292 136.058 132.946C136.071 132.822 136.051 132.697 136 132.584C135.949 132.471 135.87 132.373 135.769 132.3L127.081 127.268C126.965 127.21 126.836 127.186 126.707 127.198C126.578 127.21 126.455 127.258 126.351 127.336Z" fill="#0071CE"/>
<path opacity="0.2" d="M126.351 127.336C126.061 127.525 125.819 127.78 125.645 128.08C125.472 128.381 125.372 128.718 125.353 129.064C125.341 129.188 125.361 129.312 125.411 129.426C125.462 129.539 125.542 129.637 125.642 129.71L134.356 134.742C134.469 134.794 134.594 134.816 134.717 134.804C134.841 134.792 134.959 134.747 135.06 134.674C135.351 134.485 135.593 134.23 135.766 133.929C135.94 133.629 136.04 133.292 136.058 132.946C136.071 132.822 136.051 132.697 136 132.584C135.949 132.471 135.87 132.373 135.769 132.3L127.081 127.268C126.965 127.21 126.836 127.186 126.707 127.198C126.578 127.21 126.455 127.258 126.351 127.336Z" fill="white"/>
<path d="M136.605 133.232C136.587 133.587 136.485 133.934 136.307 134.242C136.129 134.551 135.88 134.813 135.581 135.007C135.477 135.082 135.356 135.128 135.228 135.141C135.101 135.153 134.973 135.133 134.856 135.08L134.184 134.692C134.08 134.618 133.997 134.518 133.944 134.401C133.892 134.285 133.871 134.157 133.884 134.03C133.907 133.672 134.014 133.325 134.196 133.016C134.379 132.707 134.632 132.446 134.935 132.255C135.039 132.18 135.16 132.134 135.288 132.121C135.415 132.108 135.543 132.129 135.66 132.181L136.332 132.57C136.431 132.647 136.509 132.748 136.557 132.864C136.605 132.98 136.621 133.107 136.605 133.232Z" fill="#0071CE"/>
<path opacity="0.35" d="M136.605 133.232C136.587 133.587 136.485 133.934 136.307 134.242C136.129 134.551 135.88 134.813 135.581 135.007C135.477 135.082 135.356 135.128 135.228 135.141C135.101 135.153 134.973 135.133 134.856 135.08L134.184 134.692C134.08 134.618 133.997 134.518 133.944 134.401C133.892 134.285 133.871 134.157 133.884 134.03C133.907 133.672 134.014 133.325 134.196 133.016C134.379 132.707 134.632 132.446 134.935 132.255C135.039 132.18 135.16 132.134 135.288 132.121C135.415 132.108 135.543 132.129 135.66 132.181L136.332 132.57C136.431 132.647 136.509 132.748 136.557 132.864C136.605 132.98 136.621 133.107 136.605 133.232Z" fill="white"/>
<path d="M134.556 134.414C134.579 134.056 134.685 133.709 134.868 133.4C135.051 133.092 135.304 132.831 135.607 132.639C135.705 132.553 135.828 132.5 135.958 132.487C136.088 132.475 136.219 132.503 136.332 132.569C136.445 132.634 136.534 132.733 136.588 132.852C136.642 132.971 136.657 133.104 136.631 133.232C136.613 133.588 136.51 133.935 136.332 134.243C136.154 134.552 135.906 134.814 135.607 135.008C135.503 135.082 135.381 135.128 135.254 135.141C135.127 135.154 134.999 135.134 134.882 135.081C134.772 135.01 134.684 134.911 134.626 134.793C134.569 134.675 134.545 134.545 134.556 134.414Z" fill="#0071CE"/>
<path opacity="0.15" d="M134.556 134.414C134.579 134.056 134.685 133.709 134.868 133.4C135.051 133.092 135.304 132.831 135.607 132.639C135.705 132.553 135.828 132.5 135.958 132.487C136.088 132.475 136.219 132.503 136.332 132.569C136.445 132.634 136.534 132.733 136.588 132.852C136.642 132.971 136.657 133.104 136.631 133.232C136.613 133.588 136.51 133.935 136.332 134.243C136.154 134.552 135.906 134.814 135.607 135.008C135.503 135.082 135.381 135.128 135.254 135.141C135.127 135.154 134.999 135.134 134.882 135.081C134.772 135.01 134.684 134.911 134.626 134.793C134.569 134.675 134.545 134.545 134.556 134.414Z" fill="black"/>
<path d="M142.966 139.539C142.874 139.476 142.802 139.39 142.756 139.289C142.709 139.188 142.691 139.077 142.703 138.966C142.72 138.658 142.809 138.358 142.964 138.091C143.118 137.824 143.333 137.596 143.591 137.427C143.681 137.363 143.787 137.323 143.898 137.312C144.008 137.301 144.12 137.319 144.221 137.364L144.547 137.68C144.606 137.744 144.651 137.819 144.68 137.901C144.709 137.983 144.721 138.071 144.715 138.157C144.699 138.442 144.616 138.718 144.474 138.964C144.332 139.21 144.134 139.42 143.895 139.576C143.824 139.623 143.743 139.656 143.658 139.671C143.573 139.686 143.486 139.684 143.402 139.665L142.966 139.539Z" fill="#0071CE"/>
<g opacity="0.15">
<path opacity="0.15" d="M142.967 139.539C142.876 139.476 142.803 139.39 142.757 139.289C142.711 139.188 142.693 139.077 142.705 138.966C142.722 138.658 142.811 138.358 142.965 138.091C143.119 137.824 143.334 137.596 143.592 137.427C143.683 137.363 143.789 137.323 143.899 137.312C144.01 137.301 144.121 137.319 144.223 137.364L144.548 137.68C144.607 137.744 144.653 137.819 144.682 137.901C144.711 137.983 144.722 138.071 144.716 138.157C144.7 138.442 144.618 138.718 144.476 138.964C144.333 139.21 144.135 139.42 143.897 139.576C143.825 139.623 143.744 139.656 143.659 139.671C143.575 139.686 143.487 139.684 143.403 139.665L142.967 139.539Z" fill="black"/>
</g>
<path d="M142.703 138.982C142.72 138.674 142.81 138.374 142.964 138.106C143.118 137.839 143.333 137.612 143.591 137.443C143.681 137.378 143.787 137.338 143.898 137.327C144.008 137.316 144.12 137.334 144.221 137.38L136.342 132.841C136.242 132.794 136.13 132.774 136.019 132.784C135.908 132.794 135.802 132.834 135.712 132.899C135.454 133.068 135.239 133.296 135.085 133.563C134.931 133.83 134.842 134.13 134.824 134.438C134.813 134.549 134.831 134.66 134.876 134.761C134.921 134.863 134.992 134.951 135.082 135.016L142.961 139.554C142.87 139.491 142.799 139.404 142.753 139.303C142.708 139.203 142.691 139.091 142.703 138.982Z" fill="#0071CE"/>
<path d="M144.579 137.723C144.489 137.679 144.388 137.661 144.288 137.67C144.188 137.68 144.093 137.716 144.012 137.775C143.78 137.927 143.588 138.131 143.45 138.371C143.312 138.611 143.233 138.881 143.219 139.157C143.206 139.257 143.221 139.359 143.261 139.452C143.302 139.544 143.367 139.624 143.45 139.682C143.975 139.971 145.472 140.523 146.218 140.433C146.259 140.43 146.298 140.417 146.333 140.397C146.421 140.339 146.493 140.261 146.544 140.17C146.595 140.078 146.624 139.976 146.628 139.871C146.636 139.835 146.636 139.797 146.628 139.761C146.323 139.052 145.073 138.012 144.579 137.723Z" fill="#0071CE"/>
<path opacity="0.2" d="M135.733 132.882C135.642 132.936 135.558 132.999 135.481 133.072L143.36 137.615C143.438 137.545 143.523 137.482 143.612 137.426H143.659L135.78 132.888L135.733 132.882ZM135.208 132.126H135.129L127.376 127.646C126.362 127.057 125.942 127.073 125.532 127.309C125.937 127.162 126.861 127.703 126.982 127.772L134.803 132.289L134.898 132.231L135.57 132.615C135.668 132.561 135.772 132.521 135.88 132.494L135.208 132.126ZM146.574 140.084L146.453 139.842C146.453 139.842 146.453 139.658 145.97 139.138C145.383 138.59 144.72 138.13 144 137.773C143.893 137.835 143.796 137.913 143.711 138.004C144.46 138.378 145.165 138.834 145.812 139.364C146.079 139.59 146.319 139.845 146.527 140.126C146.527 140.126 146.579 140.099 146.585 140.084H146.574Z" fill="white"/>
<path d="M146.249 140.222L146.574 140.411C146.716 140.49 147.1 140.621 147.178 140.506C147.257 140.39 146.931 140.112 146.79 140.028L146.464 139.844C146.464 139.844 146.385 139.844 146.296 139.996C146.207 140.148 146.249 140.222 146.249 140.222Z" fill="#455A64"/>
<path d="M147.148 140.363C147.128 140.368 147.11 140.376 147.093 140.388C147.077 140.4 147.063 140.415 147.052 140.432C147.037 140.471 147.037 140.515 147.052 140.554C147.121 140.554 147.174 140.554 147.196 140.506C147.217 140.459 147.185 140.422 147.148 140.363Z" fill="#263238"/>
<path d="M103.698 137.146C103.525 133.947 104.223 124.986 104.943 116.577C105.941 105.021 108.042 103.382 114.035 101.113C118.993 103.808 119.949 108.961 118.101 120.548L116.525 134.026C119.745 134.709 124.12 135.602 127.812 134.551C128.566 134.337 129.263 133.96 129.856 133.448C130.213 133.17 130.617 132.959 131.048 132.823L131.841 133.29C132.366 133.338 132.928 133.422 133.448 133.443C134.646 133.49 136.327 133.443 137.53 133.511C140.156 133.669 142.126 133.826 144.521 134.871C144.973 135.071 145.54 135.423 146.097 135.749C146.527 135.99 146.097 136.479 145.829 136.647C145.492 136.856 145.117 136.995 144.726 137.057C144.201 137.111 143.671 137.097 143.15 137.014C143.009 136.991 142.865 137.01 142.735 137.067C142.622 137.146 142.544 137.267 142.52 137.403C142.501 137.536 142.491 137.669 142.488 137.802C142.463 138.137 142.36 138.461 142.189 138.75C142.018 139.039 141.782 139.284 141.501 139.467C141.264 139.615 141.007 139.714 140.765 139.856C140.477 140.052 140.234 140.306 140.051 140.602C139.788 140.943 139.526 141.301 139.263 141.653C138.333 142.798 137.918 142.861 135.98 143.339C134.042 143.817 132.64 143.144 129.887 143.339C127.135 143.533 117.223 145.14 112.748 145.266C104.418 145.45 104.008 142.892 103.698 137.146Z" fill="#C8856A"/>
<path d="M116.505 134.02C113.148 133.394 109.555 133.536 107.444 135.07C110.905 131.362 116.641 132.89 116.641 132.89L116.505 134.02Z" fill="#F28F8F"/>
<path d="M114.356 100.148C110.054 101.33 106.361 103.762 105.426 107.959C104.491 112.156 103.446 124.473 103.257 130.697C103.068 136.922 103.257 141.996 104.518 143.529C105.778 145.063 107.118 145.662 110.642 145.657C114.167 145.651 121.473 144.916 121.473 144.916C121.473 144.916 120.134 138.455 122.397 134.968L117.187 133.823C117.187 133.823 119.036 118.286 119.456 114.593C119.876 110.9 119.729 104.34 114.356 100.148Z" fill="#E0E0E0"/>
<path d="M187.619 107.797L160.227 114.158L149.475 144.712L149.995 145.4L176.095 138.839L188.139 108.49L187.619 107.797Z" fill="#0071CE"/>
<path opacity="0.35" d="M160.747 114.85L149.995 145.398L149.475 144.71L160.227 114.156L160.747 114.85Z" fill="black"/>
<path opacity="0.25" d="M188.139 108.492L160.747 114.853L149.995 145.402L176.095 138.841L188.139 108.492Z" fill="black"/>
<g opacity="0.1">
<path opacity="0.1" d="M179.483 114.033C179.483 114.033 179.63 113.571 179.819 112.982C180.008 112.394 178.422 112.547 176.284 113.277L171.368 114.191C169.235 114.921 167.239 115.42 167.055 115.987L166.719 117.037L179.483 114.033Z" fill="black"/>
</g>
<path d="M181.579 109.447C181.695 109.095 181.085 109.1 180.219 109.232L178.643 109.578C178.643 109.578 179.431 108.123 175.733 108.696C171.662 109.326 171.358 111.291 171.358 111.291C170.707 111.486 170.046 111.646 169.377 111.769C168.022 112.052 167.844 112.294 167.697 112.646L167.429 113.292L181.39 110.056C181.39 110.056 181.464 109.804 181.579 109.447Z" fill="#37474F"/>
<path d="M179.94 111.305C178.637 111.73 178.086 111.951 177.802 112.823C177.476 113.826 177.382 114.246 177.382 114.246L170.081 116.227C170.081 116.227 170.606 114.761 170.774 114.273C170.942 113.784 170.002 113.669 168.726 114.094L169.156 112.875L180.481 110.039L179.94 111.305Z" fill="#37474F"/>
<path d="M179.84 114.09L180.176 113.04C180.36 112.473 178.779 112.604 176.646 113.334L171.73 114.295C169.592 115.025 167.596 115.524 167.412 116.092L167.076 117.116L179.84 114.09Z" fill="#37474F"/>
<path d="M184.289 122.541C185.224 121.49 185.166 121.354 184.814 120.729C184.54 120.233 184.151 119.811 183.681 119.496C183.21 119.181 182.672 118.982 182.109 118.916C181.122 118.832 180.124 118.696 179.583 118.916C179.042 119.137 179.352 120.245 180.633 120.686C182.603 121.375 182.529 121.926 182.529 121.926C181.675 121.614 180.806 121.345 179.924 121.122C179.178 120.991 177.765 121.191 176.893 121.222C176.021 121.254 175.722 122.341 177.13 122.893L175.554 122.961C174.435 123.008 173.978 123.544 174.777 124.327C175.029 124.592 175.364 124.765 175.727 124.815C175.727 124.815 174.556 124.678 174.488 125.062C174.288 126.17 174.976 126.548 177.256 127.51C179.052 128.266 179.709 129.311 179.577 130.094L179.399 130.546C179.399 130.546 180.176 130.057 181.048 129.595C181.689 129.253 182.246 128.854 182.099 127.898C182.099 127.898 183.38 128.072 183.554 127.289C183.642 126.706 183.605 126.112 183.443 125.545C183.689 125.442 183.9 125.271 184.053 125.053C184.205 124.834 184.293 124.577 184.305 124.311C184.369 123.805 184.262 123.293 184 122.856L184.289 122.541Z" fill="#C8856A"/>
<path d="M177.129 122.91C177.607 122.863 178.09 122.863 178.568 122.91C179.039 123.041 179.487 123.243 179.897 123.509C180.716 123.985 181.494 124.528 182.224 125.132C181.343 124.786 180.494 124.365 179.687 123.872C179.308 123.621 178.907 123.405 178.489 123.225C178.074 123.12 177.581 123.052 177.129 122.91Z" fill="#AF6152"/>
<path d="M175.707 124.831C176.225 124.745 176.756 124.792 177.251 124.968C177.741 125.133 178.215 125.346 178.664 125.603C179.56 126.095 180.402 126.682 181.175 127.352C180.229 126.948 179.347 126.454 178.459 125.966C177.62 125.42 176.687 125.035 175.707 124.831Z" fill="#AF6152"/>
</g>
</svg>
