<svg width="56" height="92" viewBox="0 0 69 96" fill="none" xmlns="http://www.w3.org/2000/svg">
<g filter="url(#filter0_d_976_6042)">
<path d="M28.8575 111.743C42.3097 111.743 53.2149 105.705 53.2149 98.2565C53.2149 90.8079 42.3097 84.7695 28.8575 84.7695C15.4052 84.7695 4.5 90.8079 4.5 98.2565C4.5 105.705 15.4052 111.743 28.8575 111.743Z" fill="#E0E0E0" fill-opacity="0.48"/>
<path d="M13.9645 120.51L52.1352 142.541C52.3306 142.64 52.5462 142.691 52.7649 142.691C52.9835 142.691 53.1991 142.64 53.3945 142.541L120.895 103.568C120.97 103.542 121.036 103.493 121.082 103.428C121.129 103.363 121.154 103.284 121.154 103.204C121.154 103.124 121.129 103.046 121.082 102.981C121.036 102.916 120.97 102.867 120.895 102.841L82.7239 80.8094C82.5291 80.7113 82.314 80.6602 82.0959 80.6602C81.8778 80.6602 81.6627 80.7113 81.4679 80.8094L13.9645 119.783C13.8889 119.809 13.8233 119.858 13.7769 119.923C13.7305 119.988 13.7056 120.066 13.7056 120.146C13.7056 120.226 13.7305 120.304 13.7769 120.37C13.8233 120.435 13.8889 120.484 13.9645 120.51Z" fill="#E0E0E0" fill-opacity="0.48"/>
<path d="M38.7042 110.068C38.6328 110.068 38.5621 110.054 38.4962 110.026C38.4303 109.999 38.3704 109.959 38.3201 109.908C38.2697 109.858 38.2299 109.798 38.2029 109.731C38.1759 109.665 38.1622 109.595 38.1626 109.523V74.69C38.1626 74.5464 38.2197 74.4086 38.3212 74.3071C38.4228 74.2055 38.5605 74.1484 38.7042 74.1484C38.8478 74.1484 38.9856 74.2055 39.0871 74.3071C39.1887 74.4086 39.2457 74.5464 39.2457 74.69V109.523C39.2457 109.667 39.1888 109.805 39.0873 109.907C38.9858 110.009 38.8481 110.067 38.7042 110.068Z" fill="#455A64"/>
<path d="M60.2565 97.3883C60.1496 97.3891 60.0448 97.3587 59.9549 97.3007C59.8651 97.2428 59.7941 97.1598 59.7509 97.062L49.0696 70.0261C49.0168 69.8924 49.0193 69.7432 49.0765 69.6114C49.1337 69.4795 49.241 69.3758 49.3746 69.323C49.5083 69.2702 49.6575 69.2727 49.7893 69.3299C49.9212 69.3871 50.0249 69.4944 50.0777 69.6281L60.759 96.6477C60.7914 96.7297 60.8033 96.8184 60.7936 96.9061C60.7839 96.9938 60.753 97.0777 60.7035 97.1507C60.6539 97.2237 60.5873 97.2835 60.5095 97.3249C60.4316 97.3663 60.3448 97.388 60.2565 97.3883Z" fill="#455A64"/>
<path d="M58.9715 94.1431C58.8981 94.143 58.8255 94.1279 58.7582 94.0987C58.6909 94.0696 58.6302 94.0269 58.58 93.9735L38.7019 72.9405L18.8629 93.8821C18.8149 93.9369 18.7563 93.9814 18.6907 94.0131C18.625 94.0447 18.5537 94.0627 18.4809 94.0661C18.4081 94.0695 18.3354 94.0582 18.2671 94.0329C18.1988 94.0075 18.1364 93.9686 18.0834 93.9186C18.0305 93.8685 17.9882 93.8083 17.9591 93.7415C17.93 93.6747 17.9147 93.6027 17.9141 93.5299C17.9134 93.457 17.9275 93.3848 17.9554 93.3175C17.9834 93.2502 18.0246 93.1893 18.0766 93.1383L38.3038 71.779C38.3546 71.7253 38.4158 71.6826 38.4837 71.6534C38.5516 71.6242 38.6247 71.6092 38.6986 71.6094C38.7719 71.6097 38.8445 71.6249 38.9118 71.654C38.979 71.6832 39.0397 71.7257 39.0901 71.779L59.3597 93.2296C59.4085 93.2811 59.4467 93.3418 59.472 93.4081C59.4973 93.4745 59.5092 93.5451 59.5071 93.6161C59.505 93.687 59.4889 93.7569 59.4596 93.8216C59.4304 93.8863 59.3887 93.9445 59.3369 93.993C59.2388 94.0881 59.108 94.1419 58.9715 94.1431Z" fill="#455A64"/>
<path d="M17.1537 97.3889C17.0855 97.3889 17.0179 97.3756 16.9547 97.3498C16.8883 97.3242 16.8276 97.2857 16.7761 97.2365C16.7246 97.1873 16.6835 97.1283 16.6549 97.0631C16.6264 96.9979 16.6111 96.9276 16.6099 96.8564C16.6088 96.7852 16.6217 96.7145 16.648 96.6484L27.3293 69.6124C27.3821 69.4788 27.4858 69.3715 27.6177 69.3143C27.7495 69.2571 27.8987 69.2546 28.0324 69.3074C28.166 69.3602 28.2733 69.4639 28.3305 69.5957C28.3877 69.7276 28.3902 69.8768 28.3374 70.0105L17.6561 97.0464C17.6163 97.1472 17.5471 97.2338 17.4575 97.2948C17.368 97.3559 17.2621 97.3887 17.1537 97.3889Z" fill="#455A64"/>
<path d="M59.5207 93.3047L60.9334 97.0304C60.9363 97.0619 60.9363 97.0935 60.9334 97.125V97.1935C60.8927 97.2944 60.8176 97.3777 60.7213 97.4284C60.5879 97.4961 60.4403 97.5313 60.2907 97.5313C60.141 97.5313 59.9935 97.4961 59.86 97.4284C59.7857 97.391 59.7268 97.3286 59.6937 97.2522V97.2033L58.3887 93.7092L59.5207 93.3047Z" fill="#0071CE"/>
<path d="M17.8873 93.3047L16.4746 97.0304C16.4716 97.0619 16.4716 97.0936 16.4746 97.125C16.4714 97.1477 16.4714 97.1708 16.4746 97.1935C16.5129 97.2959 16.5887 97.3799 16.6867 97.4284C16.8196 97.496 16.9666 97.5313 17.1157 97.5313C17.2648 97.5313 17.4118 97.496 17.5447 97.4284C17.6207 97.3932 17.6803 97.3302 17.7111 97.2522V97.2033L19.0356 93.7092L17.8873 93.3047Z" fill="#0071CE"/>
<path d="M59.0985 71.2786C59.0985 70.4597 58.3807 69.5919 56.867 68.6099C54.0711 66.7959 47.8267 63.1551 43.915 60.9855C43.9136 60.9777 43.9096 60.9706 43.9037 60.9653C43.8978 60.96 43.8903 60.9568 43.8824 60.9562C40.8712 59.1292 38.0622 50.4282 35.9808 43.8185C35.2695 41.5642 34.4017 40.2885 33.3708 39.6882C33.1261 39.548 32.2224 39.0521 32.0201 38.9313C29.9779 37.7047 27.2929 39.176 23.9521 41.0063C20.8724 42.6897 18.4679 44.8462 17.9851 50.5718C17.6882 54.0561 17.9688 60.7147 18.6767 65.7617C19.7011 74.1952 20.9604 74.2082 22.7841 75.6176C25.9291 78.0514 33.0087 81.4574 36.0003 82.6188C41.4095 84.7459 45.8334 81.4639 49.1284 79.836C52.1494 78.3103 55.0658 76.5861 57.8588 74.6748C58.6842 74.0777 59.1115 73.4709 59.1017 72.8315C59.092 72.5803 59.0985 71.5428 59.0985 71.2786Z" fill="#0071CE"/>
<path opacity="0.25" d="M59.0985 71.2786C59.0985 70.4597 58.3807 69.5919 56.867 68.6099C54.0711 66.7959 47.8267 63.1551 43.915 60.9855C43.9136 60.9777 43.9096 60.9706 43.9037 60.9653C43.8978 60.96 43.8903 60.9568 43.8824 60.9562C40.8712 59.1292 38.0622 50.4282 35.9808 43.8185C35.2695 41.5642 34.4017 40.2885 33.3708 39.6882C33.1261 39.548 32.2224 39.0521 32.0201 38.9313C29.9779 37.7047 27.2929 39.176 23.9521 41.0063C20.8724 42.6897 18.4679 44.8462 17.9851 50.5718C17.6882 54.0561 17.9688 60.7147 18.6767 65.7617C19.7011 74.1952 20.9604 74.2082 22.7841 75.6176C25.9291 78.0514 33.0087 81.4574 36.0003 82.6188C41.4095 84.7459 45.8334 81.4639 49.1284 79.836C52.1494 78.3103 55.0658 76.5861 57.8588 74.6748C58.6842 74.0777 59.1115 73.4709 59.1017 72.8315C59.092 72.5803 59.0985 71.5428 59.0985 71.2786Z" fill="black"/>
<path d="M33.2489 39.6197C31.2229 38.5562 28.5901 40.0014 25.3342 41.786C23.2495 42.9311 21.4715 44.285 20.3916 46.82L19.0344 46.0239C20.1143 43.4988 21.8891 42.1449 23.9673 41.0063C27.3113 39.176 29.993 37.7047 32.0386 38.9313L33.2489 39.6197Z" fill="#0071CE"/>
<path d="M56.8802 68.6093C55.0663 67.4316 55.0271 67.1314 43.8304 60.9295C43.849 60.934 43.8667 60.9417 43.8826 60.9524C40.8746 59.1189 38.0689 50.4244 35.9875 43.818C33.8701 37.1039 30.3434 39.0483 25.3421 41.7887C22.2558 43.4689 19.8514 45.6286 19.362 51.3542C18.8727 57.0798 19.933 71.2552 21.8872 72.9843C24.0175 75.3398 32.5684 79.718 35.9842 81.0621C41.3934 83.1892 45.8172 79.9072 49.1123 78.2792C52.139 76.7509 55.061 75.0234 57.859 73.1083C59.7283 71.7446 59.5554 70.3515 56.8802 68.6093Z" fill="#0071CE"/>
<g opacity="0.1">
<path d="M25.3353 41.7887C30.3367 39.0483 33.8634 37.1039 35.9807 43.818C38.0622 50.4277 40.8744 59.1287 43.8824 60.9556C43.8824 60.9556 38.7179 60.9556 31.2371 64.9913C23.4594 69.1901 22.2719 73.2975 21.9163 73.0039C19.9588 71.3726 18.8822 57.0766 19.3683 51.3542C19.8544 45.6319 22.2556 43.4689 25.3353 41.7887Z" fill="black"/>
</g>
<path d="M34.1116 22.2617C36.7215 22.3335 37.4621 23.3775 39.0346 25.6253C40.6071 27.8731 45.9575 36.3914 45.9575 36.3914L53.5362 39.3015L52.5379 43.7221C52.5379 43.7221 42.408 42.0061 41.7457 41.6178C41.0834 41.2296 36.1506 33.1028 36.1506 33.1028L34.1116 22.2617Z" fill="#E6E6E6"/>
<path d="M32.1146 22.3343C34.581 21.7177 35.6707 23.0945 36.4928 24.6181C40.2283 31.4692 41.7454 72.5761 41.7454 72.5761C41.7454 72.5761 33.4131 75.9005 27.2307 71.9986L32.1146 22.3343Z" fill="#F0F0F0"/>
<path d="M40.0581 92.986L38.4987 98.9204C38.4987 98.9204 36.7011 99.9807 35.1514 98.9367C33.9215 98.108 33.9965 97.126 33.9965 97.126L34.0683 96.2321L34.2444 89.332L40.0581 92.986Z" fill="#B16668"/>
<path d="M38.8194 50.0938C41.3674 58.9741 45.6706 74.0662 44.4635 78.7642C43.55 82.2844 39.5698 95.1384 39.5698 95.1384C38.0332 95.3537 34.8915 95.6963 33.668 93.0048C33.3581 88.6363 32.2815 58.9741 32.2815 58.9741L38.8194 50.0938Z" fill="#0071CE"/>
<path opacity="0.4" d="M38.8194 50.0938C41.3674 58.9741 45.6706 74.0662 44.4635 78.7642C43.55 82.2844 39.5698 95.1384 39.5698 95.1384C38.0332 95.3537 34.8915 95.6963 33.668 93.0048C33.3581 88.6363 32.2815 58.9741 32.2815 58.9741L38.8194 50.0938Z" fill="white"/>
<path opacity="0.25" d="M32.2961 58.9588C33.9134 57.4305 35.4171 55.7862 36.7951 54.0391C36.7951 54.0391 36.4688 56.1433 33.5685 59.0437C33.5685 59.0437 38.4295 77.7669 38.4002 80.7553C38.3708 83.7437 36.769 94.4576 36.769 94.4576L32.2961 58.9588Z" fill="black"/>
<path d="M38.8179 50.0921C36.7397 54.4018 35.9241 56.1243 32.293 58.9725C32.293 58.9725 36.7332 77.4249 36.9289 81.0071C37.2552 86.961 36.4885 100.288 36.2144 104.337C35.5261 105.237 32.1723 105.391 31.1152 104.624C30.6324 102.751 29.011 96.1611 28.2508 90.2496C27.6897 85.8811 28.4074 81.9727 28.4987 80.8276C26.1465 74.828 20.8646 66.0716 18.9332 59.7979C18.6164 58.7119 18.4162 57.5953 18.3362 56.4669C17.9056 52.49 19.5335 49.4526 20.4894 47.332L38.8179 50.0921Z" fill="#0071CE"/>
<g opacity="0.5">
<path d="M38.8201 50.0921C36.7419 54.4018 35.9263 56.1243 32.2952 58.9725C32.2952 58.9725 36.7354 77.4249 36.9311 81.0071C37.2574 86.961 36.4907 100.288 36.2166 104.337C35.5283 105.237 32.1745 105.391 31.1174 104.624C30.6346 102.751 29.0131 96.1611 28.253 90.2496C27.6919 85.8811 28.4096 81.9727 28.5009 80.8276C26.1487 74.828 20.8668 66.0716 18.9354 59.7979C18.6186 58.7119 18.4184 57.5953 18.3384 56.4669C17.9078 52.49 19.5357 49.4526 20.4916 47.332L38.8201 50.0921Z" fill="white"/>
</g>
<path d="M30.1916 14.9025L28.4789 20.6934C23.7157 20.6934 20.7729 16.0542 20.7729 11.291C20.7729 6.50822 23.8201 2.51172 28.6028 2.51172H30.1558C34.9385 2.51172 38.8176 5.68608 38.8176 10.4721C38.8176 13.5877 34.9548 14.9025 30.1916 14.9025Z" fill="#263238"/>
<path d="M39.7121 6.04963C40.0777 5.45251 40.254 4.75873 40.2178 4.05953C40.195 3.70969 40.093 3.36959 39.9195 3.06496C39.746 2.76032 39.5055 2.49911 39.2162 2.30107C38.3255 1.7334 37.0923 2.00092 36.28 2.65668C36.2139 2.03369 35.9079 1.46088 35.4269 1.05958C34.9458 0.658277 34.3274 0.459992 33.7026 0.506721C32.9099 0.568708 32.2052 1.00914 31.5201 1.40716C30.3537 1.99844 29.0947 2.38573 27.7976 2.55228L29.2559 3.11342C29.0577 3.41863 28.9317 3.76507 28.8876 4.12634C28.8435 4.48761 28.8824 4.85418 29.0015 5.19813C29.064 5.33916 29.1405 5.47359 29.2298 5.59941C30.198 7.04749 31.535 8.21096 33.103 8.96971C34.671 9.72847 36.413 10.055 38.1494 9.91563C38.6363 9.90513 39.1124 9.77037 39.5326 9.52414C39.7777 9.34978 39.9852 9.12788 40.1427 8.87165C40.4473 8.42632 40.5974 7.89342 40.5701 7.35461C40.5509 7.08178 40.462 6.81846 40.3117 6.58994C40.1614 6.36141 39.955 6.17535 39.7121 6.04963Z" fill="#263238"/>
<path d="M26.4747 23.0156L23.3525 23.3419C21.2809 23.8475 20.3446 24.761 20.1325 26.6043C20.0346 27.4591 19.5159 29.7363 20.2402 32.5909C20.8927 35.1748 22.6479 41.5007 22.6479 41.5007C22.6479 41.5007 20.3805 47.1871 19.3169 50.094C26.6835 54.8996 35.776 53.0008 38.8296 50.094C38.5719 47.347 37.5997 44.786 37.3811 42.3359C37.3811 42.3359 37.5377 38.5057 37.8411 36.8452C40.1737 34.3037 39.8736 31.8699 38.8198 29.9092C36.8885 26.2846 33.9751 23.1037 33.0355 23.107L26.4747 23.0156Z" fill="#455A64"/>
<path d="M32.0725 20.957C33.0056 21.1854 33.7331 21.5638 34.1115 22.262C34.49 22.9602 37.4425 27.6092 37.4425 27.6092C37.4425 27.6092 35.0609 24.474 33.2666 23.5246C32.9003 23.3108 32.4938 23.1752 32.0725 23.1266V20.957Z" fill="#E0E0E0"/>
<path d="M26.4742 23.0146C26.4742 23.0146 29.7366 29.8168 30.3173 34.407C30.898 38.9973 29.6648 54.6571 29.6648 59.6258C29.6648 65.6157 29.6844 75.5009 29.6844 75.5009C29.6844 75.5009 25.962 75.5009 23.4042 74.7701C21.5348 74.2383 19.3196 73.2824 17.9787 71.6806C17.9787 71.6806 17.6133 59.4203 18.3833 53.5805C19.1108 48.0343 22.0633 41.2027 22.0633 41.2027L18.2789 26.7762C18.2789 26.7762 18.4551 24.2967 20.7877 23.6018C22.9964 22.9363 26.4742 23.0146 26.4742 23.0146Z" fill="#FAFAFA"/>
<path d="M23.4049 25.9844L19.5421 31.6382L22.0509 41.1972C22.0509 41.1972 19.7216 46.1137 18.8635 50.8736C21.1897 44.2932 23.2907 42.3195 23.2907 42.3195L21.927 36.7537C21.927 36.7537 22.4065 35.0018 23.0754 32.0134C23.7442 29.025 23.6332 27.2926 23.4049 25.9844Z" fill="#EBEBEB"/>
<path d="M25.5147 31.314C25.5147 31.0302 25.4886 30.4168 25.4397 29.6404C25.1982 25.8527 25.0873 22.4271 26.3662 22.1367L26.4804 22.6587C25.5441 22.861 25.854 27.7514 25.9714 29.5914C26.0236 30.3842 26.0628 31.0073 26.0497 31.3205L25.5147 31.314Z" fill="#0071CE"/>
<path d="M26.4732 20.957C26.2353 20.9583 26.0022 21.0247 25.7992 21.1489C25.5962 21.2731 25.4311 21.4504 25.3216 21.6617C25.0149 22.1837 24.369 23.0613 24.369 23.0613C24.369 23.0613 24.3461 26.5391 24.6952 27.4428C24.9953 28.2258 28.6819 31.1261 28.6819 31.1261C28.6819 31.1261 28.323 34.1961 28.2937 35.2694C28.2643 36.3427 30.1565 40.2349 30.3882 42.3196C30.3882 42.3196 30.7797 37.2562 30.473 34.904C29.9347 30.8096 27.3802 24.686 26.4732 23.0091V20.957Z" fill="#EBEBEB"/>
<path d="M24.7406 43.9831H24.6949V43.6112C25.1379 43.5741 25.5622 43.4161 25.9216 43.1544C25.5382 42.8991 25.1951 42.5879 24.9037 42.2312C24.3001 41.4514 22.9821 35.889 23.3899 34.5938C23.7161 33.5074 24.796 31.1095 25.7486 31.0703H25.7715C26.7209 31.0703 27.9671 33.3345 28.3978 34.3784C28.9132 35.6377 28.0715 41.2916 27.5365 42.117C27.2773 42.4986 26.9616 42.8385 26.6001 43.1251C26.9784 43.3587 27.4149 43.4808 27.8595 43.4774L27.9051 43.8461C27.3262 43.8559 26.7577 43.691 26.2739 43.373C25.8304 43.7167 25.2989 43.9282 24.7406 43.9831ZM25.7878 31.439C25.2299 31.4618 24.2283 33.2398 23.7716 34.7014C23.3964 35.8922 24.6655 41.2753 25.2234 41.9995C25.5199 42.358 25.8711 42.6674 26.2641 42.9163C26.6424 42.6349 26.9728 42.2946 27.2428 41.9082C27.7387 41.1415 28.5478 35.6704 28.0682 34.5155C27.4875 33.1289 26.3489 31.439 25.7878 31.439Z" fill="#455A64"/>
<path d="M28.4497 43.635C28.4541 43.7433 28.4264 43.8504 28.3699 43.9429C28.3135 44.0354 28.2308 44.1091 28.1325 44.1546C28.0342 44.2002 27.9246 44.2156 27.8175 44.1989C27.7105 44.1821 27.6107 44.1341 27.531 44.0607C27.4513 43.9873 27.395 43.892 27.3695 43.7867C27.3439 43.6814 27.3501 43.5709 27.3874 43.4691C27.4246 43.3673 27.4911 43.2789 27.5786 43.2149C27.6661 43.1509 27.7705 43.1143 27.8788 43.1097C28.024 43.1044 28.1654 43.1566 28.2723 43.255C28.3792 43.3533 28.443 43.4899 28.4497 43.635Z" fill="#263238"/>
<path d="M25.2493 43.7718C25.2537 43.8801 25.2259 43.9873 25.1695 44.0798C25.113 44.1723 25.0304 44.2459 24.9321 44.2915C24.8338 44.337 24.7241 44.3524 24.6171 44.3357C24.51 44.319 24.4103 44.2709 24.3306 44.1975C24.2508 44.1242 24.1946 44.0288 24.169 43.9235C24.1435 43.8182 24.1497 43.7077 24.1869 43.6059C24.2241 43.5042 24.2907 43.4157 24.3782 43.3517C24.4656 43.2878 24.5701 43.2512 24.6784 43.2466C24.7504 43.2435 24.8222 43.2547 24.8899 43.2794C24.9576 43.3042 25.0197 43.342 25.0727 43.3908C25.1258 43.4396 25.1687 43.4984 25.199 43.5638C25.2292 43.6291 25.2464 43.6998 25.2493 43.7718Z" fill="#263238"/>
<path d="M28.5038 36.8294L28.1776 36.8066C28.1616 36.8058 28.1459 36.8017 28.1315 36.7946C28.1171 36.7875 28.1043 36.7776 28.0939 36.7653C28.0835 36.7531 28.0757 36.7389 28.071 36.7235C28.0663 36.7082 28.0649 36.692 28.0667 36.6761C28.1286 35.6321 28.096 34.8622 27.9688 34.5555C27.4142 33.2048 26.2723 31.5149 25.7732 31.5345C25.274 31.554 24.2757 33.3386 23.8385 34.7317C23.7406 35.0579 23.77 35.8181 23.9233 36.8523C23.9281 36.8842 23.9202 36.9167 23.9013 36.9429C23.8824 36.9691 23.854 36.9869 23.8222 36.9925L23.496 37.0415C23.4797 37.0438 23.4631 37.0428 23.4472 37.0386C23.4312 37.0344 23.4163 37.0271 23.4033 37.0171C23.3902 37.007 23.3793 36.9945 23.3711 36.9802C23.3629 36.9659 23.3577 36.9502 23.3557 36.9338C23.1828 35.7724 23.1632 34.9763 23.2904 34.562C23.5253 33.8182 24.6248 31.0223 25.734 30.9733C26.8432 30.9244 28.1776 33.6192 28.4745 34.3434C28.6376 34.7414 28.6865 35.5375 28.6115 36.712C28.6102 36.7411 28.5987 36.7688 28.579 36.7903C28.5593 36.8118 28.5327 36.8256 28.5038 36.8294Z" fill="#0071CE"/>
<path d="M15.6441 65.2614C16.2118 65.7932 16.5217 66.5077 17.1057 67.5647C17.6897 68.6217 20.5704 68.7229 20.7988 65.7508C20.9717 63.5127 20.1887 62.7558 18.6195 61.0137C16.972 59.1802 16.3358 58.88 16.4108 57.1803C16.4532 56.3419 17.7158 44.2055 17.7158 44.2055L21.8689 32.7641C21.8689 32.7641 23.3696 27.417 22.616 23.6912C22.616 23.6912 19.9245 23.4727 18.0225 25.3714C15.8007 27.5899 13.2854 38.5582 12.7308 40.7734C11.9317 43.5804 11.5827 46.4962 11.6966 49.4124C11.8271 52.9717 11.8401 60.4101 12.3132 62.0511C12.7862 63.6922 14.114 63.8292 15.6441 65.2614Z" fill="#B16668"/>
<path d="M22.8011 23.1991C22.8011 23.1991 19.94 23.0197 18.2663 24.3899C16.5927 25.7602 15.552 29.5903 14.322 33.4171C13.0921 37.244 11.9959 40.973 11.5913 43.6547C11.2651 45.8993 11.9176 57.7485 11.9176 57.7485C11.9176 57.7485 13.8229 58.4401 16.41 57.1808L18.0118 44.2191L22.8077 31.2085C23.6917 28.6115 23.6894 25.7947 22.8011 23.1991Z" fill="#F0F0F0"/>
<path d="M33.9481 6.88672C36.1274 7.11183 37.9478 9.42817 37.8271 14.684C37.7227 19.1405 36.2775 20.2301 35.5434 20.5564C34.8094 20.8826 33.4196 20.925 32.0624 20.6967V23.1272C32.0624 23.1272 33.6284 26.5789 32.9628 27.8121C29.2469 26.2787 26.4738 23.0163 26.4738 23.0163V17.5093C26.4738 17.5093 25.5571 18.5957 24.0563 17.6006C22.5556 16.6056 22.4969 14.1359 23.3712 13.2485C24.2455 12.3611 26.1247 12.6449 26.4738 13.8684C26.4738 13.8684 27.7788 13.8357 30.1832 12.123C32.0127 10.8723 33.3451 9.01919 33.9481 6.88672Z" fill="#B16668"/>
<path d="M31.7764 12.9729C31.7836 13.0528 31.7746 13.1333 31.7501 13.2097C31.7256 13.2861 31.686 13.3568 31.6337 13.4176C31.5814 13.4784 31.5174 13.5281 31.4455 13.5638C31.3737 13.5995 31.2954 13.6204 31.2153 13.6253C31.0931 13.6361 30.9705 13.6103 30.8632 13.551C30.7558 13.4918 30.6685 13.4019 30.6125 13.2928C30.5565 13.1837 30.5343 13.0603 30.5487 12.9386C30.5632 12.8168 30.6136 12.7021 30.6935 12.6091C30.7735 12.5161 30.8794 12.4491 30.9976 12.4166C31.1159 12.3841 31.2411 12.3876 31.3574 12.4266C31.4736 12.4657 31.5756 12.5385 31.6502 12.6358C31.7249 12.7331 31.7688 12.8505 31.7764 12.9729Z" fill="#263238"/>
<path d="M32.4032 17.1406L34.1714 17.705C34.1396 17.8232 34.0843 17.9338 34.0088 18.0302C33.9332 18.1265 33.839 18.2066 33.7318 18.2657C33.6246 18.3248 33.5066 18.3616 33.3848 18.374C33.263 18.3865 33.14 18.3742 33.0231 18.3379C32.786 18.2559 32.5894 18.0859 32.4741 17.863C32.3587 17.6402 32.3333 17.3816 32.4032 17.1406Z" fill="#9A4A4D"/>
<path d="M37.0311 11.5954L35.8306 10.7635C35.8811 10.6826 35.9475 10.6129 36.0258 10.5586C36.1042 10.5043 36.1928 10.4665 36.2862 10.4476C36.3796 10.4286 36.4759 10.4289 36.5692 10.4485C36.6626 10.468 36.7509 10.5064 36.8289 10.5612C36.9897 10.674 37.1006 10.8447 37.1383 11.0375C37.176 11.2304 37.1376 11.4303 37.0311 11.5954Z" fill="#263238"/>
<path d="M36.6079 12.8571C36.6091 12.9735 36.5759 13.0877 36.5127 13.1855C36.4494 13.2832 36.3588 13.3602 36.2522 13.4069C36.1455 13.4535 36.0275 13.4678 35.9127 13.4479C35.798 13.428 35.6917 13.3749 35.6069 13.295C35.5222 13.2152 35.4628 13.1122 35.4362 12.9988C35.4095 12.8855 35.4168 12.7668 35.457 12.6576C35.4973 12.5483 35.5688 12.4533 35.6626 12.3844C35.7565 12.3154 35.8685 12.2756 35.9848 12.2699C36.0643 12.2672 36.1436 12.2804 36.218 12.3085C36.2925 12.3367 36.3606 12.3793 36.4185 12.4338C36.4764 12.4884 36.523 12.5539 36.5555 12.6266C36.588 12.6992 36.6058 12.7775 36.6079 12.8571Z" fill="#263238"/>
<path d="M33.5962 12.5195L33.6908 16.0887L35.57 15.5079L33.5962 12.5195Z" fill="#9A4A4D"/>
<path d="M32.0724 20.6936C30.637 20.5076 27.691 19.418 27.231 18.25C27.415 18.8402 27.776 19.3596 28.2651 19.7377C29.146 20.4946 32.0724 21.3428 32.0724 21.3428V20.6936Z" fill="#9A4A4D"/>
<path opacity="0.35" d="M42.1703 42.0034L38.2652 58.88L37.9487 58.544L41.8506 41.6641L42.1703 42.0034Z" fill="black"/>
<g opacity="0.2">
<path d="M49.657 48.6668C49.7875 48.993 50.8739 49.7303 52.4496 49.5998L52.7139 48.6211L49.657 48.6668Z" fill="black"/>
</g>
<path d="M54.7726 41.0276C54.7726 41.0276 54.2702 42.8806 54.1397 43.3472C54.0092 43.8137 51.6863 44.887 50.5216 45.0339C48.2966 45.3112 48.0454 45.794 48.5805 47.373C49.0731 48.8281 50.5216 49.3794 52.5313 49.1413C53.4709 49.0304 54.7726 48.1952 55.2848 46.7369C55.9373 44.8773 55.585 42.8872 55.8427 41.8008C56.1004 40.7144 55.3403 40.3816 54.7726 41.0276Z" fill="#B16668"/>
<path d="M31.7623 92.3028L-2.5 72.5225L54.7267 39.5L88.9856 59.2802L31.7623 92.3028Z" fill="#455A64"/>
<path d="M-2.49976 72.5234V112.084L-0.695619 113.125V86.0561L29.9584 103.755V130.823L31.7625 131.864V92.3037L-2.49976 72.5234Z" fill="#263238"/>
<path d="M-0.696045 113.123L1.10809 112.083V87.0954L-0.696045 86.0547V113.123Z" fill="black"/>
<path d="M31.7634 131.864L33.5676 130.824V103.755L87.186 72.8172V99.8857L88.9868 98.845V59.2812L31.7634 92.3038V131.864Z" fill="#37474F"/>
<g opacity="0.2">
<path d="M28.6499 84.4995C26.898 85.5076 26.898 87.1453 28.6499 88.1567C30.4018 89.1681 33.2173 89.1648 34.9823 88.1567C36.7473 87.1486 36.731 85.5076 34.9823 84.4995C33.2336 83.4914 30.4051 83.4881 28.6499 84.4995Z" fill="black"/>
</g>
<g opacity="0.2">
<path d="M3.35296 72.5014L15.9264 79.7669C16.0359 79.8233 16.1573 79.8527 16.2804 79.8527C16.4036 79.8527 16.5249 79.8233 16.6344 79.7669L25.8965 74.4197C25.9391 74.4053 25.9761 74.3778 26.0023 74.3413C26.0285 74.3047 26.0426 74.2608 26.0426 74.2158C26.0426 74.1708 26.0285 74.127 26.0023 74.0904C25.9761 74.0538 25.9391 74.0264 25.8965 74.0119L13.3165 66.7432C13.2065 66.6886 13.0853 66.6602 12.9625 66.6602C12.8397 66.6602 12.7185 66.6886 12.6085 66.7432L3.34643 72.0936C3.15721 72.2045 3.15721 72.3872 3.35296 72.5014Z" fill="black"/>
</g>
<g opacity="0.2">
<path d="M3.35122 73.7983L15.9247 81.0638C16.0342 81.1201 16.1555 81.1495 16.2787 81.1495C16.4018 81.1495 16.5232 81.1201 16.6327 81.0638L25.8948 75.7166C26.0905 75.6024 26.0905 75.4197 25.8948 75.3088L13.3147 68.0401C13.2047 67.9854 13.0836 67.957 12.9608 67.957C12.838 67.957 12.7168 67.9854 12.6068 68.0401L3.35122 73.3872C3.30898 73.4025 3.27247 73.4304 3.24667 73.4672C3.22087 73.504 3.20703 73.5478 3.20703 73.5928C3.20703 73.6377 3.22087 73.6815 3.24667 73.7183C3.27247 73.7551 3.30898 73.783 3.35122 73.7983Z" fill="black"/>
</g>
<path d="M3.35488 73.3725L15.9284 80.638C16.0378 80.6944 16.1592 80.7238 16.2823 80.7238C16.4055 80.7238 16.5268 80.6944 16.6363 80.638L25.9115 75.3039C26.1072 75.1897 26.1072 75.007 25.9115 74.8961L13.3184 67.6143C13.2084 67.5597 13.0872 67.5312 12.9644 67.5312C12.8416 67.5312 12.7205 67.5597 12.6105 67.6143L3.35488 72.9614C3.31264 72.9767 3.27613 73.0047 3.25033 73.0414C3.22453 73.0782 3.21069 73.1221 3.21069 73.167C3.21069 73.2119 3.22453 73.2557 3.25033 73.2925C3.27613 73.3293 3.31264 73.3572 3.35488 73.3725Z" fill="#EBEBEB"/>
<path d="M12.6147 67.6166L3.81909 72.6962L15.926 79.6942C16.0361 79.7488 16.1572 79.7772 16.28 79.7772C16.4028 79.7772 16.524 79.7488 16.634 79.6942L25.4426 74.6145L13.3161 67.6166C13.2069 67.563 13.087 67.5352 12.9654 67.5352C12.8438 67.5352 12.7238 67.563 12.6147 67.6166Z" fill="#E0E0E0"/>
<path d="M3.35488 72.094L15.9284 79.3595C16.0378 79.4159 16.1592 79.4453 16.2823 79.4453C16.4055 79.4453 16.5268 79.4159 16.6363 79.3595L25.9115 73.9993C25.9537 73.984 25.9902 73.9561 26.016 73.9193C26.0418 73.8825 26.0557 73.8387 26.0557 73.7937C26.0557 73.7488 26.0418 73.705 26.016 73.6682C25.9902 73.6314 25.9537 73.6035 25.9115 73.5882L13.3184 66.3358C13.2089 66.2794 13.0876 66.25 12.9644 66.25C12.8413 66.25 12.7199 66.2794 12.6105 66.3358L3.35488 71.6829C3.31264 71.6982 3.27613 71.7262 3.25033 71.7629C3.22453 71.7997 3.21069 71.8436 3.21069 71.8885C3.21069 71.9334 3.22453 71.9772 3.25033 72.014C3.27613 72.0508 3.31264 72.0787 3.35488 72.094Z" fill="#FAFAFA"/>
<g opacity="0.2">
<path d="M25.6751 62.2755L38.1929 71.8994C38.3231 71.9653 38.467 71.9996 38.613 71.9996C38.7591 71.9996 38.903 71.9653 39.0331 71.8994L59.4904 59.3281C59.5414 59.3112 59.5858 59.2788 59.6172 59.2354C59.6486 59.1921 59.6655 59.14 59.6655 59.0866C59.6655 59.0332 59.6486 58.9812 59.6172 58.9378C59.5858 58.8945 59.5414 58.8621 59.4904 58.8452L46.9759 49.2214C46.8452 49.1554 46.7007 49.1211 46.5541 49.1211C46.4076 49.1211 46.2631 49.1554 46.1324 49.2214L25.6751 61.7927C25.6241 61.8096 25.5797 61.842 25.5483 61.8853C25.5169 61.9286 25.5 61.9807 25.5 62.0341C25.5 62.0875 25.5169 62.1396 25.5483 62.1829C25.5797 62.2262 25.6241 62.2586 25.6751 62.2755Z" fill="black"/>
</g>
<path d="M26.666 61.0573V60.9039C26.6747 60.7727 26.7141 60.6453 26.7809 60.5319C26.8478 60.4186 26.9403 60.3226 27.051 60.2515L47.2064 48.6045C47.3256 48.5435 47.4575 48.5117 47.5914 48.5117C47.7252 48.5117 47.8572 48.5435 47.9763 48.6045L59.0557 57.2361C59.1657 57.308 59.2576 57.4042 59.3244 57.5174C59.3912 57.6306 59.4309 57.7576 59.4406 57.8886V58.042C59.4314 58.1731 59.3919 58.3003 59.3251 58.4136C59.2582 58.5268 59.166 58.623 59.0557 58.6944L38.9002 70.3414C38.7811 70.4024 38.6491 70.4342 38.5153 70.4342C38.3814 70.4342 38.2495 70.4024 38.1303 70.3414L27.051 61.7228C26.9393 61.6497 26.8463 61.5514 26.7794 61.4358C26.7126 61.3202 26.6737 61.1906 26.666 61.0573Z" fill="#E0E0E0"/>
<path d="M27.0512 60.6834L38.1488 68.9405C38.2685 69 38.4002 69.031 38.5338 69.031C38.6674 69.031 38.7992 69 38.9188 68.9405L59.0872 57.2936C59.1333 57.2775 59.1732 57.2476 59.2015 57.2078C59.2298 57.1681 59.2449 57.1205 59.2449 57.0717C59.2449 57.0229 59.2298 56.9754 59.2015 56.9356C59.1732 56.8959 59.1333 56.8659 59.0872 56.8499L47.9636 48.5928C47.8444 48.5318 47.7125 48.5 47.5786 48.5C47.4447 48.5 47.3128 48.5318 47.1936 48.5928L27.0382 60.2397C26.9926 60.2571 26.9535 60.2882 26.9263 60.3288C26.8992 60.3694 26.8854 60.4174 26.8868 60.4662C26.8883 60.515 26.9049 60.5622 26.9343 60.6011C26.9638 60.64 27.0047 60.6688 27.0512 60.6834Z" fill="#FAFAFA"/>
<path d="M34.7121 86.5873C36.2552 85.0115 37.1622 81.0737 35.6549 79.8242H27.998C26.4907 81.0737 27.3977 85.0083 28.9408 86.584L28.9832 86.6297L29.0354 86.6819L29.1757 86.8059L29.2116 86.8352L29.3291 86.9233C29.3943 86.969 29.4628 87.0114 29.5281 87.0505C30.2413 87.4125 31.0299 87.6011 31.8297 87.6011C32.6296 87.6011 33.4181 87.4125 34.1314 87.0505C34.2004 87.0113 34.2669 86.9677 34.3304 86.92L34.4413 86.8385L34.487 86.8026C34.5327 86.7634 34.5783 86.7243 34.6207 86.6819L34.6827 86.6232L34.7121 86.5873Z" fill="#EBEBEB"/>
<path d="M28.6499 79.3198C26.898 80.3279 26.898 81.9656 28.6499 82.977C30.4018 83.9884 33.2173 83.9851 34.9823 82.977C36.7473 81.9689 36.731 80.3279 34.9823 79.3198C33.2336 78.3117 30.4051 78.3084 28.6499 79.3198Z" fill="#FAFAFA"/>
<path d="M29.8961 80.0342C28.8325 80.6508 28.8325 81.6459 29.8961 82.2592C30.4927 82.5634 31.1528 82.722 31.8225 82.722C32.4922 82.722 33.1524 82.5634 33.749 82.2592C34.8126 81.6459 34.8126 80.6508 33.749 80.0342C33.1519 79.7318 32.4919 79.5742 31.8225 79.5742C31.1532 79.5742 30.4932 79.7318 29.8961 80.0342Z" fill="#EBEBEB"/>
<path d="M33.7479 81.0928C33.1507 80.7904 32.4908 80.6328 31.8214 80.6328C31.152 80.6328 30.4921 80.7904 29.8949 81.0928C29.6323 81.2303 29.4081 81.431 29.2424 81.6768C29.4081 81.9226 29.6323 82.1233 29.8949 82.2608C30.4915 82.565 31.1517 82.7235 31.8214 82.7235C32.4911 82.7235 33.1513 82.565 33.7479 82.2608C34.0115 82.1247 34.236 81.9237 34.4004 81.6768C34.236 81.4298 34.0115 81.2289 33.7479 81.0928Z" fill="#E0E0E0"/>
<path d="M30.1305 81.6773C29.5857 81.1245 29.1172 80.5013 28.7375 79.8242C28.085 78.6856 27.9741 77.1621 28.3068 76.9729C28.6396 76.7836 29.9935 78.3072 29.9935 78.3072C29.8686 77.6627 29.8204 77.0056 29.85 76.3497C29.9087 75.3351 30.1534 74.4151 30.4437 74.2291C30.7341 74.0432 31.3866 75.3221 31.6639 76.2486C31.9412 77.1751 32.1076 77.9385 32.1076 77.9385C32.2207 77.2159 32.3876 76.5027 32.6067 75.8049C32.933 74.8425 33.2592 74.6239 33.4909 74.7218C33.7225 74.8196 33.8856 75.2633 33.9541 76.5455C33.9794 77.1572 33.9597 77.7701 33.8954 78.379C33.8954 78.379 34.375 77.8537 34.9035 77.3448C35.4875 76.7869 35.7354 76.6923 35.9018 76.8163C36.0682 76.9402 36.1139 77.795 35.2134 79.4262C34.765 80.2568 34.1905 81.0129 33.5104 81.6675C33.5104 81.6675 32.2609 82.4831 30.1305 81.6773Z" fill="#0071CE"/>
<path opacity="0.2" d="M37.5 61.0743L38.4918 61.6452L46.3151 57.0648L47.1797 56.0469L45.3788 56.5232L37.5 61.0743Z" fill="black"/>
<path d="M45.45 55.827L47.1171 55.5007C47.1276 55.4989 47.1384 55.5004 47.1481 55.505C47.1577 55.5095 47.1657 55.5169 47.1711 55.5261C47.1764 55.5354 47.1788 55.546 47.1779 55.5566C47.177 55.5673 47.1728 55.5774 47.166 55.5856L46.0307 56.8645L45.45 55.827Z" fill="#FFA8A7"/>
<path d="M47.1645 55.5856C47.1713 55.5774 47.1755 55.5673 47.1764 55.5566C47.1773 55.546 47.1749 55.5354 47.1696 55.5261C47.1642 55.5169 47.1562 55.5095 47.1465 55.505C47.1369 55.5004 47.1261 55.4989 47.1156 55.5007L46.7893 55.5627C46.8343 55.5905 46.8707 55.6302 46.8943 55.6774C46.9179 55.7247 46.9279 55.7776 46.9231 55.8303V55.8596L47.1645 55.5856Z" fill="#263238"/>
<path d="M39.8323 60.4282L39.9693 60.3499L40.1357 60.2585L46.0309 56.8656C46.0861 56.6827 46.0698 56.4856 45.9852 56.3142C45.9414 56.1958 45.8695 56.0897 45.7758 56.0051C45.682 55.9204 45.5692 55.8597 45.4469 55.8281L39.5386 59.2178L39.2124 59.3972C39.4375 59.3059 40.028 60.3205 39.8323 60.4282Z" fill="#0071CE"/>
<path d="M40.341 60.1334L40.6444 59.9573C40.7325 59.9083 40.6836 59.6897 40.5759 59.4614C40.4389 59.158 40.1648 58.8643 40.0441 58.9263L39.8223 59.0568L39.7407 59.1025C39.8614 59.0405 40.1355 59.3341 40.2725 59.6375C40.3736 59.8561 40.4258 60.0682 40.3475 60.1269L40.341 60.1334Z" fill="#EBEBEB"/>
<path d="M40.4166 60.0861C40.6254 59.9752 40.0284 58.9443 39.8163 59.0552L39.5129 59.2314C39.7217 59.1205 40.3188 60.1514 40.11 60.2623L40.4166 60.0861Z" fill="#0071CE"/>
<path d="M39.8319 60.4283L40.1353 60.2586C40.3409 60.151 39.7699 59.1527 39.5546 59.2179L39.2512 59.3941C39.4372 59.306 40.0277 60.3206 39.8319 60.4283Z" fill="#EBEBEB"/>
<path opacity="0.15" d="M47.1728 55.5261L47.1173 55.5L45.9069 56.1525L39.6528 59.7412C39.6528 59.7216 39.6332 59.7216 39.6267 59.7412C39.8029 60.0185 39.9366 60.3676 39.8192 60.4263L39.9562 60.348L40.1226 60.2567L46.0309 56.8637L47.163 55.5848C47.17 55.577 47.1747 55.5673 47.1764 55.5569C47.1781 55.5465 47.1769 55.5358 47.1728 55.5261Z" fill="black"/>
<path d="M38.5445 61.1593L39.8201 60.4252C39.9115 60.3795 39.8626 60.1609 39.7582 59.9358C39.6211 59.6292 39.3471 59.3355 39.2264 59.3943L37.9442 60.1283C37.6898 60.2751 37.9247 60.8297 38.2085 61.0744C38.2491 61.1212 38.3031 61.1544 38.3632 61.1695C38.4233 61.1847 38.4866 61.1811 38.5445 61.1593Z" fill="#F28F8F"/>
<path opacity="0.1" d="M38.6192 60.7642C38.5871 60.6259 38.5232 60.497 38.4326 60.3877C38.342 60.2784 38.2272 60.1917 38.0972 60.1345C38.0661 60.1224 38.0323 60.1184 37.9992 60.1229C37.9661 60.1275 37.9347 60.1405 37.908 60.1606C37.7155 60.3368 37.9374 60.8457 38.2081 61.0774C38.248 61.1222 38.3003 61.1542 38.3584 61.1693C38.4165 61.1844 38.4777 61.1819 38.5344 61.1622C38.6323 61.1067 38.6681 60.9599 38.6192 60.7642Z" fill="black"/>
</g>
<defs>
<filter id="filter0_d_976_6042" x="-4.5" y="0.5" width="127.654" height="146.191" filterUnits="userSpaceOnUse" color-interpolation-filters="sRGB">
<feFlood flood-opacity="0" result="BackgroundImageFix"/>
<feColorMatrix in="SourceAlpha" type="matrix" values="0 0 0 0 0 0 0 0 0 0 0 0 0 0 0 0 0 0 127 0" result="hardAlpha"/>
<feOffset dy="2"/>
<feGaussianBlur stdDeviation="1"/>
<feComposite in2="hardAlpha" operator="out"/>
<feColorMatrix type="matrix" values="0 0 0 0 0 0 0 0 0 0 0 0 0 0 0 0 0 0 0.25 0"/>
<feBlend mode="normal" in2="BackgroundImageFix" result="effect1_dropShadow_976_6042"/>
<feBlend mode="normal" in="SourceGraphic" in2="effect1_dropShadow_976_6042" result="shape"/>
</filter>
</defs>
</svg>
