<svg width="56" height="92" viewBox="0 0 67 95" fill="none" xmlns="http://www.w3.org/2000/svg">
<g filter="url(#filter0_d_976_7951)">
<path d="M47.2508 2.52655L18.2712 19.2517C17.9842 19.439 17.7457 19.6917 17.5753 19.989C17.4048 20.2863 17.3072 20.6198 17.2905 20.9621V89.2067C17.2905 89.8315 17.7309 90.085 18.2712 89.7701L47.2508 73.0398C47.5359 72.8529 47.7731 72.6017 47.9434 72.3064C48.1137 72.0111 48.2124 71.68 48.2315 71.3397V3.08474C48.2315 2.45998 47.7911 2.20393 47.2508 2.52655ZM46.8206 66.2827C46.8206 66.8178 46.4442 67.1584 45.9808 67.4247L19.4439 82.7518C18.983 83.0078 18.6041 82.803 18.6041 82.2653V25.5121C18.6042 25.2186 18.6816 24.9304 18.8286 24.6764C18.9756 24.4224 19.1869 24.2117 19.4413 24.0654L45.9782 8.73574C46.0634 8.68627 46.1601 8.66011 46.2585 8.65987C46.357 8.65963 46.4538 8.68533 46.5392 8.73439C46.6246 8.78344 46.6956 8.85412 46.745 8.93931C46.7944 9.02449 46.8205 9.12119 46.8206 9.21967V66.2827Z" fill="#455A64"/>
<path d="M46.8206 66.283C46.8206 66.8181 46.4442 67.1587 45.9807 67.425L19.4438 82.7521C18.983 83.0081 18.604 82.8033 18.604 82.2656V25.5123C18.6041 25.2189 18.6816 24.9307 18.8286 24.6767C18.9755 24.4227 19.1869 24.2119 19.4413 24.0657L45.9782 8.73602C46.0633 8.68656 46.16 8.66039 46.2585 8.66016C46.357 8.65992 46.4538 8.68562 46.5392 8.73468C46.6245 8.78373 46.6955 8.85441 46.7449 8.93959C46.7943 9.02478 46.8204 9.12148 46.8206 9.21996V66.283Z" fill="#263238"/>
<path d="M19.4438 82.7508L45.9807 67.4289C46.167 67.3282 46.3392 67.2033 46.4928 67.0576L18.604 51.3516V82.2643C18.604 82.802 18.983 83.0171 19.4438 82.7508Z" fill="#37474F"/>
<path d="M44.6723 65.2878V9.49219L19.4413 24.0665C19.1869 24.2128 18.9755 24.4235 18.8286 24.6775C18.6816 24.9315 18.6041 25.2197 18.604 25.5132V80.9964L43.8325 66.4298C44.2959 66.1635 44.6723 65.8229 44.6723 65.2878Z" fill="#0071CE"/>
<path d="M18.1485 89.8405C17.8558 89.9639 17.5399 90.0223 17.2225 90.0117C16.9051 90.0011 16.5938 89.9217 16.31 89.779L15.1886 89.1312C14.9024 88.9459 14.6641 88.6955 14.4932 88.4004C14.3223 88.1054 14.2237 87.7741 14.2053 87.4336V19.171C14.2118 18.918 14.2693 18.6689 14.3743 18.4387C14.4102 18.3593 14.4486 18.2825 14.4921 18.2031L17.5647 19.9955C17.5001 20.1109 17.4436 20.2307 17.3957 20.3539C17.3211 20.5478 17.2804 20.7531 17.2753 20.9608V89.208C17.2907 89.7841 17.6645 90.0453 18.1485 89.8405Z" fill="#263238"/>
<path d="M33.626 76.0898C34.2533 76.0898 34.3198 76.794 34.3198 77.0961C34.2824 77.7015 34.1049 78.2899 33.8014 78.8151C33.498 79.3402 33.0768 79.7878 32.571 80.1226C32.3681 80.2515 32.1352 80.3257 31.8951 80.3377C31.2677 80.3377 31.2012 79.6336 31.2012 79.3314C31.239 78.7261 31.4163 78.1376 31.7192 77.6122C32.0221 77.0867 32.4425 76.6384 32.9474 76.3024C33.1521 76.1755 33.3855 76.1024 33.626 76.0898Z" fill="#0071CE"/>
<path d="M32.7402 11.9763C32.9962 11.8227 33.219 11.9456 33.219 12.2528C33.2097 12.4189 33.1615 12.5805 33.0783 12.7246C32.9952 12.8687 32.8793 12.9913 32.7402 13.0824C32.4841 13.2335 32.2588 13.1106 32.2588 12.8059C32.2676 12.6394 32.3158 12.4773 32.3995 12.3331C32.4832 12.1888 32.5999 12.0665 32.7402 11.9763Z" fill="#263238"/>
<path d="M29.647 16.0188C29.8825 15.8831 30.072 15.9932 30.072 16.2748C30.0642 16.4222 30.0216 16.5656 29.9477 16.6933C29.8739 16.821 29.7708 16.9295 29.647 17.0097C29.4114 17.1454 29.2219 17.0353 29.2219 16.7537C29.2301 16.6064 29.2729 16.4632 29.3467 16.3355C29.4206 16.2078 29.5234 16.0993 29.647 16.0188Z" fill="#263238"/>
<path d="M31.0683 15.1791L35.8282 12.4317C36.0843 12.2807 36.2994 12.3882 36.2994 12.6699C36.2869 12.828 36.2378 12.9811 36.1561 13.1171C36.0743 13.2531 35.9621 13.3682 35.8282 13.4534L31.0683 16.2008C30.8122 16.3518 30.5972 16.2443 30.5972 15.9627C30.6096 15.8045 30.6587 15.6514 30.7405 15.5154C30.8222 15.3794 30.9344 15.2643 31.0683 15.1791Z" fill="#263238"/>
<path d="M48.2207 2.92872C48.149 2.41663 47.7418 2.23483 47.2528 2.51905L18.2681 19.2518C17.978 19.4319 17.7398 19.6842 17.5767 19.9841L14.5042 18.1918C14.6698 17.8943 14.9086 17.644 15.198 17.4646L44.1648 0.734386C44.4688 0.580299 44.8047 0.5 45.1455 0.5C45.4863 0.5 45.8222 0.580299 46.1262 0.734386L47.2528 1.37963C47.5153 1.5538 47.7376 1.78216 47.9045 2.04936C48.0714 2.31655 48.1792 2.6164 48.2207 2.92872Z" fill="#37474F"/>
<path d="M40.6205 5.00011C40.4701 5.08045 40.3028 5.12396 40.1323 5.12707C39.9618 5.13019 39.793 5.09282 39.6398 5.01804C39.5885 4.99615 39.544 4.9608 39.5111 4.91573C39.4782 4.87066 39.4581 4.81754 39.4529 4.76199C39.4529 4.6903 39.4529 4.424 39.4529 4.34975C39.4611 4.28586 39.4857 4.22517 39.5243 4.17358C39.5629 4.12199 39.6141 4.08124 39.6731 4.05529L42.779 2.26295C42.93 2.18319 43.0977 2.14001 43.2684 2.1369C43.4392 2.13379 43.6083 2.17082 43.7622 2.24503C43.8126 2.26794 43.8561 2.30362 43.8884 2.34853C43.9208 2.39345 43.9408 2.44603 43.9465 2.50108C43.9465 2.57533 43.9465 2.85186 43.9465 2.92356C43.9385 2.98783 43.914 3.04894 43.8754 3.10097C43.8368 3.153 43.7855 3.1942 43.7263 3.22057L40.6205 5.00011Z" fill="#0071CE"/>
<path opacity="0.25" d="M40.6205 5.00011C40.4701 5.08045 40.3028 5.12396 40.1323 5.12707C39.9618 5.13019 39.793 5.09282 39.6398 5.01804C39.5885 4.99615 39.544 4.9608 39.5111 4.91573C39.4782 4.87066 39.4581 4.81754 39.4529 4.76199C39.4529 4.6903 39.4529 4.424 39.4529 4.34975C39.4611 4.28586 39.4857 4.22517 39.5243 4.17358C39.5629 4.12199 39.6141 4.08124 39.6731 4.05529L42.779 2.26295C42.93 2.18319 43.0977 2.14001 43.2684 2.1369C43.4392 2.13379 43.6083 2.17082 43.7622 2.24503C43.8126 2.26794 43.8561 2.30362 43.8884 2.34853C43.9208 2.39345 43.9408 2.44603 43.9465 2.50108C43.9465 2.57533 43.9465 2.85186 43.9465 2.92356C43.9385 2.98783 43.914 3.04894 43.8754 3.10097C43.8368 3.153 43.7855 3.1942 43.7263 3.22057L40.6205 5.00011Z" fill="black"/>
<path d="M40.6197 4.59408L43.7255 2.80174C44.0072 2.63787 44.02 2.38438 43.7588 2.23331C43.605 2.1591 43.4359 2.12207 43.2651 2.12518C43.0943 2.12829 42.9266 2.17147 42.7756 2.25123L39.6697 4.04357C39.3906 4.20488 39.3753 4.45837 39.639 4.60944C39.7922 4.68402 39.9608 4.72149 40.1312 4.71882C40.3015 4.71615 40.4689 4.67342 40.6197 4.59408Z" fill="#0071CE"/>
<path opacity="0.3" d="M40.6197 4.59408L43.7255 2.80174C44.0072 2.63787 44.02 2.38438 43.7588 2.23331C43.605 2.1591 43.4359 2.12207 43.2651 2.12518C43.0943 2.12829 42.9266 2.17147 42.7756 2.25123L39.6697 4.04357C39.3906 4.20488 39.3753 4.45837 39.639 4.60944C39.7922 4.68402 39.9608 4.72149 40.1312 4.71882C40.3015 4.71615 40.4689 4.67342 40.6197 4.59408Z" fill="black"/>
<path d="M16.1475 29.454C16.1414 29.2836 16.0951 29.117 16.0123 28.968C15.9295 28.8189 15.8127 28.6915 15.6712 28.5963C15.6249 28.562 15.57 28.5413 15.5126 28.5363C15.4552 28.5314 15.3976 28.5423 15.346 28.5681C15.2872 28.6039 15.0516 28.7345 14.9901 28.7729C14.9387 28.8119 14.8982 28.8635 14.8727 28.9227C14.8471 28.9819 14.8373 29.0468 14.8442 29.1109V36.7207C14.8504 36.8908 14.8965 37.057 14.9788 37.206C15.061 37.355 15.1772 37.4826 15.3179 37.5784C15.3642 37.6096 15.4177 37.6283 15.4733 37.6328C15.5289 37.6373 15.5847 37.6274 15.6354 37.6041C15.702 37.5708 15.9401 37.4325 16.0041 37.3941C16.0555 37.3551 16.096 37.3035 16.1216 37.2443C16.1471 37.1851 16.1569 37.1202 16.15 37.0561L16.1475 29.454Z" fill="#0071CE"/>
<path opacity="0.3" d="M16.1475 29.454C16.1414 29.2836 16.0951 29.117 16.0123 28.968C15.9295 28.8189 15.8127 28.6915 15.6712 28.5963C15.6249 28.562 15.57 28.5413 15.5126 28.5363C15.4552 28.5314 15.3976 28.5423 15.346 28.5681C15.2872 28.6039 15.0516 28.7345 14.9901 28.7729C14.9387 28.8119 14.8982 28.8635 14.8727 28.9227C14.8471 28.9819 14.8373 29.0468 14.8442 29.1109V36.7207C14.8504 36.8908 14.8965 37.057 14.9788 37.206C15.061 37.355 15.1772 37.4826 15.3179 37.5784C15.3642 37.6096 15.4177 37.6283 15.4733 37.6328C15.5289 37.6373 15.5847 37.6274 15.6354 37.6041C15.702 37.5708 15.9401 37.4325 16.0041 37.3941C16.0555 37.3551 16.096 37.3035 16.1216 37.2443C16.1471 37.1851 16.1569 37.1202 16.15 37.0561L16.1475 29.454Z" fill="black"/>
<path d="M15.7944 29.6674V37.2772C15.7944 37.5998 15.5819 37.7381 15.3182 37.587C15.1775 37.4912 15.0613 37.3636 14.979 37.2146C14.8968 37.0656 14.8507 36.8993 14.8445 36.7292V29.1118C14.8445 28.7866 15.057 28.6483 15.3182 28.7994C15.4607 28.896 15.5782 29.025 15.661 29.176C15.7438 29.3269 15.7895 29.4953 15.7944 29.6674Z" fill="#0071CE"/>
<path opacity="0.4" d="M15.7944 29.6674V37.2772C15.7944 37.5998 15.5819 37.7381 15.3182 37.587C15.1775 37.4912 15.0613 37.3636 14.979 37.2146C14.8968 37.0656 14.8507 36.8993 14.8445 36.7292V29.1118C14.8445 28.7866 15.057 28.6483 15.3182 28.7994C15.4607 28.896 15.5782 29.025 15.661 29.176C15.7438 29.3269 15.7895 29.4953 15.7944 29.6674Z" fill="black"/>
<path d="M16.1475 39.6532C16.1414 39.4828 16.0951 39.3163 16.0123 39.1672C15.9295 39.0181 15.8127 38.8907 15.6712 38.7955C15.6249 38.7612 15.57 38.7405 15.5126 38.7355C15.4552 38.7306 15.3976 38.7416 15.346 38.7673C15.2872 38.8032 15.0516 38.9337 14.9901 38.9721C14.9387 39.0111 14.8982 39.0627 14.8727 39.1219C14.8471 39.1812 14.8373 39.246 14.8442 39.3101V42.8948C14.8508 43.0645 14.8971 43.2302 14.9793 43.3787C15.0616 43.5273 15.1775 43.6544 15.3179 43.75C15.3626 43.7831 15.4154 43.8037 15.4708 43.8095C15.5262 43.8154 15.5821 43.8063 15.6328 43.7833C15.6994 43.75 15.9375 43.6117 16.0015 43.5733C16.0527 43.5348 16.0931 43.4836 16.1187 43.4249C16.1443 43.3661 16.1542 43.3017 16.1475 43.2379V39.6532Z" fill="#0071CE"/>
<path opacity="0.3" d="M16.1475 39.6532C16.1414 39.4828 16.0951 39.3163 16.0123 39.1672C15.9295 39.0181 15.8127 38.8907 15.6712 38.7955C15.6249 38.7612 15.57 38.7405 15.5126 38.7355C15.4552 38.7306 15.3976 38.7416 15.346 38.7673C15.2872 38.8032 15.0516 38.9337 14.9901 38.9721C14.9387 39.0111 14.8982 39.0627 14.8727 39.1219C14.8471 39.1812 14.8373 39.246 14.8442 39.3101V42.8948C14.8508 43.0645 14.8971 43.2302 14.9793 43.3787C15.0616 43.5273 15.1775 43.6544 15.3179 43.75C15.3626 43.7831 15.4154 43.8037 15.4708 43.8095C15.5262 43.8154 15.5821 43.8063 15.6328 43.7833C15.6994 43.75 15.9375 43.6117 16.0015 43.5733C16.0527 43.5348 16.0931 43.4836 16.1187 43.4249C16.1443 43.3661 16.1542 43.3017 16.1475 43.2379V39.6532Z" fill="black"/>
<path d="M15.7944 39.8429V43.4276C15.7944 43.7502 15.5819 43.891 15.3182 43.7374C15.1775 43.6416 15.0613 43.514 14.979 43.365C14.8968 43.216 14.8507 43.0497 14.8445 42.8796V39.295C14.8445 38.9723 15.057 38.8315 15.3182 38.9826C15.4594 39.0787 15.576 39.2066 15.6587 39.356C15.7415 39.5055 15.7879 39.6722 15.7944 39.8429Z" fill="#0071CE"/>
<path opacity="0.4" d="M15.7944 39.8429V43.4276C15.7944 43.7502 15.5819 43.891 15.3182 43.7374C15.1775 43.6416 15.0613 43.514 14.979 43.365C14.8968 43.216 14.8507 43.0497 14.8445 42.8796V39.295C14.8445 38.9723 15.057 38.8315 15.3182 38.9826C15.4594 39.0787 15.576 39.2066 15.6587 39.356C15.7415 39.5055 15.7879 39.6722 15.7944 39.8429Z" fill="black"/>
<path d="M24.6324 33.3015C24.6578 33.4258 24.692 33.5482 24.7348 33.6677C24.9012 34.1183 25.2008 34.5434 25.1752 35.0247C25.147 35.5676 24.7194 35.9875 24.3917 36.4202C23.9657 36.9923 23.6819 37.6575 23.5634 38.3609C23.445 39.0643 23.4955 39.7857 23.7106 40.4658C24.0254 41.2941 24.4621 42.0708 25.0062 42.7702L26.2429 44.5242C26.6168 45.0152 27.0941 45.4182 27.6409 45.7045C28.7036 46.3052 29.8893 46.6555 31.1078 46.7287C33.1107 46.8639 35.103 46.3416 36.7819 45.2411C38.5614 44.0633 37.7779 41.0419 39.5984 39.9383C41.8004 38.6069 42.8502 33.9826 40.1515 32.052C40.1515 32.052 40.5868 29.2201 39.7879 28.4981C38.9918 27.8319 38.0066 27.4324 36.9713 27.3561C35.5426 27.2076 34.1113 27.4867 32.6851 27.4815C31.2169 27.4768 29.75 27.5683 28.2939 27.7555C27.7818 27.8246 27.0597 28.0116 26.7832 28.5109C26.7051 28.7067 26.6838 28.9206 26.7217 29.1279C26.7178 29.4569 26.6002 29.7745 26.3888 30.0267C26.0713 30.4107 25.6207 30.6694 25.2827 31.0304C25.0038 31.3314 24.7996 31.6939 24.6867 32.0884C24.5737 32.4829 24.5551 32.8985 24.6324 33.3015Z" fill="#263238"/>
<path d="M38.8438 37.3906C41.1482 37.4546 41.4478 37.9463 43.5115 39.9895C45.227 41.6871 50.9113 46.9336 50.9113 46.9336L57.7222 48.7464L56.1142 52.9021C56.1142 52.9021 54.5779 52.8381 51.5054 52.8355C49.6183 52.8355 48.9628 52.413 47.0629 51.1456C46.0951 50.4978 40.6335 46.9233 40.6335 46.9233L38.8438 37.3906Z" fill="#E6E6E6"/>
<path d="M65.2562 40.3398L52.7738 44.7388L49.3325 59.5896L49.6116 59.8866L61.4795 55.4595L65.5327 40.6369L65.2562 40.3398Z" fill="#0071CE"/>
<path opacity="0.35" d="M53.0503 45.0353L49.6116 59.8861L49.3325 59.5891L52.7738 44.7383L53.0503 45.0353Z" fill="black"/>
<path opacity="0.25" d="M65.5339 40.6367L53.0515 45.0356L49.6128 59.8865L61.4807 55.4594L65.5339 40.6367Z" fill="black"/>
<g opacity="0.2">
<path d="M59.623 52.4382C59.7383 52.7301 60.6959 53.3728 62.0811 53.2575L62.3141 52.4023L59.623 52.4382Z" fill="black"/>
</g>
<g opacity="0.1">
<path d="M61.7746 43.6812L61.877 43.1819C61.9333 42.9079 61.201 43.0513 60.2408 43.5045L57.9876 44.1856C57.0274 44.6388 56.121 44.9768 56.0621 45.2508L55.9597 45.7475L61.7746 43.6812Z" fill="black"/>
</g>
<path d="M62.5178 41.4268C62.5536 41.2552 62.2617 41.2911 61.87 41.396L61.1505 41.6393C61.1505 41.6393 61.4449 40.9172 59.7422 41.3832C57.8705 41.8953 57.8295 42.8248 57.8295 42.8248C57.5367 42.9518 57.2366 43.0612 56.9308 43.1525C56.3086 43.3548 56.242 43.4752 56.1908 43.6493L56.0986 43.9642L62.4614 41.7263C62.4614 41.7263 62.4922 41.5983 62.5178 41.4268Z" fill="#37474F"/>
<path d="M61.8478 42.3814C61.2589 42.6374 61.0157 42.7782 60.926 43.2033C60.8262 43.6872 60.8057 43.8895 60.8057 43.8895L57.4924 45.1953C57.4924 45.1953 57.6717 44.481 57.7152 44.2428C57.7587 44.0047 57.3209 44.0047 56.7473 44.2684L56.883 43.6744L62.0373 41.7617L61.8478 42.3814Z" fill="#37474F"/>
<path d="M61.9444 43.6863C61.9444 43.6863 61.993 43.4635 62.0494 43.187C62.1057 42.9104 61.3734 43.0564 60.4132 43.5096L58.16 44.1907C57.1998 44.6439 56.2908 44.9819 56.2345 45.2558L56.1321 45.7679L61.9444 43.6863Z" fill="#37474F"/>
<path d="M64.1454 45.7168C64.1454 45.7168 63.7024 47.3452 63.5846 47.7652C63.4668 48.1851 61.4236 49.1197 60.4019 49.2477C58.4457 49.4909 58.2229 49.9134 58.6915 51.2961C59.1268 52.5763 60.3994 53.0628 62.1661 52.8554C62.9957 52.7581 64.1402 52.0232 64.5909 50.7404C65.1644 49.1017 64.8469 47.3529 65.0851 46.3876C65.3232 45.4223 64.6421 45.1458 64.1454 45.7168Z" fill="#FFA8A7"/>
<path d="M44.8037 68.1131L43.4799 68.8813L42.9243 69.2013L35.6423 73.4031L34.6488 73.9664L32.9717 74.9342L33.4838 69.7083L34.4619 59.5892V59.4843L34.508 59.0311L35.7882 45.801L36.349 40.0117L36.5461 37.9352L36.6127 37.2643H36.6485C37.2416 37.0994 37.8683 37.0994 38.4614 37.2643C38.5936 37.3044 38.7221 37.3558 38.8454 37.418C39.6136 37.7995 40.1257 38.542 40.5507 39.323C40.6552 39.5131 40.7492 39.7089 40.8324 39.9093C41.1481 40.6682 41.3915 41.4552 41.5596 42.2598C41.895 43.7449 42.3277 45.2633 42.4993 47.6574C42.5263 48.2736 42.4937 48.891 42.402 49.5009C42.2866 51.1148 42.2669 52.7342 42.3431 54.3505C42.5581 58.012 43.4799 59.6712 44.8037 68.1131Z" fill="#E0E0E0"/>
<path d="M42.9234 69.1952L35.6414 73.3969L34.6479 73.9654L32.9708 74.9332L31.816 75.5989L24.8054 79.6445C24.8797 76.828 24.913 73.7733 24.8464 70.8876C24.8259 69.9223 24.8182 68.9366 24.8592 67.9277C24.9923 64.425 25.6581 60.6687 28.0444 56.7153L28.1545 56.5156C28.4362 58.1876 30.9967 59.2733 33.3011 59.5293L33.5572 59.5524C33.8465 59.5805 34.1461 59.5933 34.4559 59.5933H34.6505C36.599 59.5754 38.906 59.1171 41.5638 58.2183C41.8199 59.7034 42.0759 61.652 42.3499 63.9308C42.4728 64.955 42.5974 66.0466 42.7237 67.2057C42.7749 67.8535 42.8543 68.5166 42.9234 69.1952Z" fill="#FFA8A7"/>
<path d="M43.4796 68.8759L42.924 69.196L35.642 73.3977L34.6485 73.9662L32.9714 74.934L31.8166 75.5998L24.806 79.6453L24.0378 80.0883C24.0762 77.0567 24.1019 74.0865 24.0993 72.2225C24.0993 70.489 24.1377 68.9476 24.2324 67.5803C24.4194 64.8816 24.8085 62.8511 25.4589 61.3148C26.222 59.6334 27.1248 58.0189 28.1577 56.4883C28.1577 56.4883 28.7978 58.6493 33.5859 58.9899H33.6166C33.8983 59.0104 34.1953 59.0232 34.5077 59.0283H34.8713C40.8321 59.0283 41.4901 57.5253 41.4901 57.5253C42.0724 59.7354 42.5332 61.9758 42.8702 64.2363C42.9965 65.0352 43.1186 65.8887 43.2364 66.7968C43.3234 67.4625 43.4054 68.1539 43.4796 68.8759Z" fill="#0071CE"/>
<path opacity="0.4" d="M43.4796 68.8759L42.924 69.196L35.642 73.3977L34.6485 73.9662L32.9714 74.934L31.8166 75.5998L24.806 79.6453L24.0378 80.0883C24.0762 77.0567 24.1019 74.0865 24.0993 72.2225C24.0993 70.489 24.1377 68.9476 24.2324 67.5803C24.4194 64.8816 24.8085 62.8511 25.4589 61.3148C26.222 59.6334 27.1248 58.0189 28.1577 56.4883C28.1577 56.4883 28.7978 58.6493 33.5859 58.9899H33.6166C33.8983 59.0104 34.1953 59.0232 34.5077 59.0283H34.8713C40.8321 59.0283 41.4901 57.5253 41.4901 57.5253C42.0724 59.7354 42.5332 61.9758 42.8702 64.2363C42.9965 65.0352 43.1186 65.8887 43.2364 66.7968C43.3234 67.4625 43.4054 68.1539 43.4796 68.8759Z" fill="black"/>
<path opacity="0.2" d="M40.0625 65.4766C40.0625 65.4766 39.3968 67.5915 36.5956 68.777L36.4625 69.4248L35.6431 73.3962L34.6497 73.9646L35.2437 69.5836L35.4997 67.6786C37.2309 67.499 38.8449 66.7201 40.0625 65.4766Z" fill="black"/>
<path d="M31.5424 37.875L28.7258 38.172C26.8618 38.6278 26.0194 39.4523 25.8274 41.0987C25.7377 41.8668 25.2743 43.9152 25.9247 46.4757C26.5136 48.8006 28.0857 54.49 28.0857 54.49C28.0857 54.49 24.4677 59.2115 23.8123 67.3078C30.4337 71.6299 40.5911 69.3076 43.3385 66.6959C43.1081 64.2224 41.5283 57.4346 41.3311 55.23C41.3311 55.23 41.4771 51.7861 41.751 50.2934C43.8455 48.0069 43.5792 45.8202 42.6395 44.056C40.9035 40.7991 38.2867 37.9365 37.4392 37.939L31.5424 37.875Z" fill="#0071CE"/>
<path opacity="0.7" d="M31.5424 37.875L28.7258 38.172C26.8618 38.6278 26.0194 39.4523 25.8274 41.0987C25.7377 41.8668 25.2743 43.9152 25.9247 46.4757C26.5136 48.8006 28.0857 54.49 28.0857 54.49C28.0857 54.49 24.4677 59.2115 23.8123 67.3078C30.4337 71.6299 40.5911 69.3076 43.3385 66.6959C43.1081 64.2224 41.5283 57.4346 41.3311 55.23C41.3311 55.23 41.4771 51.7861 41.751 50.2934C43.8455 48.0069 43.5792 45.8202 42.6395 44.056C40.9035 40.7991 38.2867 37.9365 37.4392 37.939L31.5424 37.875Z" fill="white"/>
<path d="M33.9836 55.5037C33.9836 55.5549 33.9836 55.601 33.9836 55.6394V55.706C33.9852 55.7273 33.9852 55.7487 33.9836 55.77C33.8863 56.7942 33.7711 57.8824 33.6482 58.9911C33.6482 58.9911 33.6482 58.9911 33.6482 59.0064C33.6302 59.1857 33.6097 59.3649 33.5893 59.5467C33.2129 62.8881 32.7648 66.46 32.4191 69.7119C32.3346 70.5005 32.2578 71.2686 32.1887 72.0163C32.0811 73.1352 31.9659 74.3617 31.8481 75.601L24.8375 79.6465L24.0694 80.0895L22.1106 81.2187C22.5049 77.3395 23.4241 68.3522 23.9362 64.2964C23.9951 63.8381 24.0719 63.3798 24.159 62.924L24.2281 62.5911L24.2588 62.4554C24.2921 62.3018 24.3254 62.1533 24.3613 62.0022C24.3971 61.8511 24.4304 61.7231 24.4637 61.5874C24.5431 61.2776 24.6276 60.9729 24.7197 60.6759C24.7633 60.5325 24.8042 60.3891 24.8503 60.2483C24.8964 60.1075 24.9348 59.9666 24.9809 59.8284C25.0731 59.5518 25.1627 59.2804 25.2574 59.0167C25.2563 59.0116 25.2563 59.0064 25.2574 59.0013C25.301 58.8759 25.3471 58.7453 25.3931 58.6275C25.4546 58.4534 25.5186 58.2844 25.5826 58.1154L25.6594 57.9131C25.6978 57.8209 25.7311 57.7313 25.767 57.6417C25.8924 57.3268 26.023 57.0272 26.1382 56.7481C26.1638 56.6866 26.192 56.6252 26.2176 56.5663C26.2432 56.5074 26.2842 56.4204 26.3149 56.3487C26.3917 56.1694 26.4685 56.003 26.5428 55.8366C26.5735 55.7649 26.6068 55.6957 26.6375 55.6292C26.6683 55.5626 26.7118 55.4755 26.7451 55.4038L26.7937 55.3014L26.8449 55.2016C26.8483 55.1885 26.8544 55.1762 26.8629 55.1657C26.8698 55.1471 26.8784 55.1291 26.8885 55.1119C26.8947 55.1005 26.8998 55.0885 26.9038 55.0761C26.9251 55.0399 26.944 55.0022 26.9602 54.9634L27.1317 54.6306C27.1317 54.6126 27.1496 54.5998 27.1548 54.5845L27.2213 54.4616L25.091 45.6279L24.031 41.2392V41.1675C24.0796 40.7783 24.4048 38.9425 26.2791 38.3843C27.3372 38.1111 28.4211 37.9498 29.513 37.9029C29.9329 37.8773 30.3118 37.8671 30.6217 37.8594H31.1107H31.4052C31.4058 37.8653 31.4058 37.8713 31.4052 37.8773C31.4205 37.9157 31.4641 38.0309 31.5306 38.2102C31.5378 38.2402 31.5481 38.2693 31.5614 38.2972C31.5616 38.3015 31.5616 38.3058 31.5614 38.31C32.0222 39.5749 33.3153 43.2569 33.958 46.4549C34.0706 47.008 34.1628 47.5483 34.2294 48.0604C34.4214 49.6607 34.2806 52.3389 33.9836 55.5037Z" fill="#FAFAFA"/>
<path d="M27.2909 50.232C27.2909 50.232 27.5469 48.9697 27.9233 46.2427C28.3611 43.0985 28.2049 41.5443 27.7313 40.5508L25.0607 45.6436L27.191 54.4773C27.191 54.4773 25.0018 58.487 24.1184 62.9269C26.2129 57.0096 28.5045 55.2454 28.5045 55.2454L27.2909 50.232Z" fill="#E6E6E6"/>
<path d="M36.6462 35.9023C37.4758 35.9023 37.5731 36.0406 38.2875 36.9982C38.7126 37.5692 41.4036 42.0117 41.4036 42.0117C41.4036 42.0117 39.2631 39.1951 37.6474 38.3399C37.3364 38.1576 36.9998 38.023 36.6488 37.9405L36.6462 35.9023Z" fill="#EBEBEB"/>
<path d="M30.5106 45.3436C30.5106 45.0876 30.485 44.5345 30.4415 43.8381C30.229 40.4224 30.1266 37.3498 31.2788 37.0938L31.3786 37.5649C30.5388 37.7467 30.8153 42.143 30.9203 43.7971C30.9664 44.5089 31.0023 45.0774 30.9895 45.3539L30.5106 45.3436Z" fill="#0071CE"/>
<path d="M26.6707 22.98L28.463 24.4472C28.5604 24.3357 28.6341 24.2054 28.6794 24.0645C28.7248 23.9235 28.7409 23.7747 28.7267 23.6273C28.7126 23.4799 28.6685 23.3369 28.5972 23.2071C28.5259 23.0773 28.4288 22.9635 28.3119 22.8725C28.0763 22.6776 27.7751 22.5802 27.4699 22.6002C27.1648 22.6202 26.8789 22.7561 26.6707 22.98Z" fill="#263238"/>
<path d="M31.3521 36.1215C31.3521 34.9974 28.7327 33.3049 27.3807 30.9416C26.0288 28.5783 26.7048 24.6915 28.5586 24.0949C28.5739 24.0949 28.6251 23.5956 28.6328 23.5597C28.7353 23.1088 28.9081 22.6767 29.1449 22.2795C29.9003 20.9788 31.5006 19.975 32.9856 19.7651C38.8568 18.9099 41.5556 21.1913 42.6336 23.7006C42.983 24.5447 43.1387 25.4564 43.0893 26.3686C43.0591 27.0386 42.8105 27.6803 42.3815 28.1958C41.9525 28.7112 41.3666 29.0722 40.7132 29.2235L31.3521 36.1215Z" fill="#263238"/>
<path d="M39.4966 22.8594C40.6463 23.3715 41.7396 25.1203 41.7217 30.0415C41.7063 34.2151 40.4261 35.2701 39.7808 35.5799C39.1356 35.8897 37.8733 35.7309 36.6468 35.544V37.9406C36.6468 37.9406 37.566 38.8445 37.2434 39.4129C36.9208 39.9814 35.7301 40.4627 33.8789 39.8815C31.7819 39.2235 31.3031 37.8331 31.3031 37.8331L31.2544 32.5739C31.2544 32.5739 30.5503 33.3138 29.3084 32.2282C28.2842 31.3295 27.9155 29.7906 28.6862 28.9457C29.4569 28.1007 30.4453 28.0341 31.3363 28.9789L31.9765 28.641C33.1184 28.5078 34.793 28.3158 36.0272 27.6936C39.1919 26.083 39.5197 24.3368 39.4966 22.8594Z" fill="#FFA8A7"/>
<path d="M31.3545 28.3008L31.3699 30.6052C31.5178 30.6091 31.6651 30.5828 31.8025 30.5277C31.9399 30.4726 32.0646 30.39 32.1689 30.285C32.2732 30.1799 32.355 30.0547 32.4091 29.9169C32.4632 29.7791 32.4886 29.6317 32.4837 29.4837C32.4809 29.18 32.3626 28.8887 32.1529 28.669C31.9432 28.4493 31.6577 28.3177 31.3545 28.3008Z" fill="#263238"/>
<path d="M39.6038 28.6286C39.6048 28.7369 39.6377 28.8425 39.6982 28.9323C39.7587 29.0221 39.8443 29.0921 39.9442 29.1337C40.0442 29.1753 40.1542 29.1867 40.2605 29.1664C40.3669 29.1461 40.4649 29.095 40.5425 29.0195C40.6201 28.944 40.6738 28.8473 40.697 28.7416C40.7202 28.6358 40.7118 28.5256 40.673 28.4245C40.6341 28.3235 40.5664 28.236 40.4783 28.1731C40.3902 28.1102 40.2855 28.0745 40.1773 28.0705C40.1028 28.0688 40.0287 28.0819 39.9594 28.1092C39.89 28.1364 39.8268 28.1772 39.7734 28.2292C39.72 28.2812 39.6775 28.3433 39.6484 28.4118C39.6192 28.4804 39.6041 28.5541 39.6038 28.6286Z" fill="black"/>
<path d="M35.1875 28.8744C35.183 28.9538 35.1942 29.0333 35.2205 29.1084C35.2468 29.1834 35.2876 29.2525 35.3407 29.3117C35.3937 29.371 35.4579 29.4191 35.5296 29.4535C35.6013 29.4879 35.6791 29.5078 35.7585 29.512C35.8391 29.5127 35.919 29.4974 35.9936 29.4671C36.0683 29.4369 36.1363 29.3921 36.1936 29.3355C36.2509 29.2789 36.2965 29.2115 36.3278 29.1372C36.359 29.0629 36.3752 28.9832 36.3756 28.9026C36.3781 28.8246 36.3652 28.7469 36.3377 28.6738C36.3102 28.6008 36.2685 28.5339 36.2151 28.4769C36.1618 28.42 36.0977 28.3741 36.0266 28.3419C35.9555 28.3098 35.8787 28.2919 35.8007 28.2894C35.7227 28.2869 35.645 28.2997 35.5719 28.3272C35.4989 28.3548 35.432 28.3964 35.3751 28.4498C35.3181 28.5032 35.2722 28.5672 35.2401 28.6383C35.2079 28.7094 35.19 28.7862 35.1875 28.8642V28.8744Z" fill="black"/>
<path d="M41.0673 27.5948L39.6411 27.0289C39.6741 26.933 39.7265 26.8449 39.7951 26.7701C39.8637 26.6953 39.947 26.6355 40.0398 26.5944C40.1326 26.5534 40.2328 26.5318 40.3343 26.5313C40.4357 26.5307 40.5362 26.5511 40.6295 26.5911C40.8174 26.6702 40.9677 26.8185 41.0492 27.0054C41.1307 27.1922 41.1372 27.4033 41.0673 27.5948Z" fill="black"/>
<path d="M38.2519 28.1758L38.1802 31.5915L40.016 31.1844L38.2519 28.1758Z" fill="#F28F8F"/>
<path d="M36.0882 32.2891L37.8806 32.8447C37.8545 32.9669 37.8036 33.0824 37.731 33.1841C37.6584 33.2858 37.5657 33.3714 37.4586 33.4358C37.3515 33.5001 37.2323 33.5418 37.1085 33.5581C36.9846 33.5745 36.8587 33.5652 36.7386 33.5309C36.4926 33.4454 36.2885 33.2694 36.1677 33.0387C36.0469 32.808 36.0185 32.5399 36.0882 32.2891Z" fill="#B16668"/>
<path d="M37.0799 33.5592C37.0778 33.3099 36.9774 33.0716 36.8004 32.8961C36.6235 32.7205 36.3843 32.622 36.135 32.622C36.1103 32.6208 36.0855 32.6208 36.0608 32.622C36.07 32.8221 36.1391 33.0148 36.2592 33.175C36.3793 33.3353 36.5448 33.4558 36.7342 33.5208C36.8455 33.5575 36.9632 33.5706 37.0799 33.5592Z" fill="#F28F8F"/>
<path d="M36.6461 35.5574C35.3531 35.4038 32.6876 34.6612 32.2549 33.5781C32.4283 34.1218 32.761 34.6008 33.2099 34.9531C34.0139 35.6444 36.6461 36.3639 36.6461 36.3639V35.5574Z" fill="#F28F8F"/>
<path d="M31.2892 35.9184C30.9513 35.8493 30.6517 35.9978 30.3752 36.4638C30.0986 36.9298 29.4918 37.9233 29.4918 37.9233C29.4918 37.9233 29.1768 41.1982 29.4918 42.0201C29.7632 42.7268 32.7564 45.3769 32.7564 45.3769C32.7564 45.3769 31.9755 48.3189 31.9473 49.2842C31.9191 50.2495 33.7396 53.9135 33.9598 55.7878C33.9598 55.7878 34.6076 49.8987 34.3285 47.7761C33.8472 44.0966 32.1214 39.3444 31.3072 37.8337L31.2892 35.9184Z" fill="#EBEBEB"/>
<path d="M33.1202 48.1042C32.9205 47.6288 32.6851 47.1692 32.4161 46.7292C31.991 46.0251 31.4661 45.3491 30.9924 45.175C30.9206 45.1465 30.8444 45.1309 30.7671 45.1289H30.7415C30.6635 45.1333 30.5871 45.1524 30.5162 45.1852C30.1424 45.3517 29.7481 45.8612 29.428 46.4476C29.1002 47.0364 28.8301 47.6555 28.6214 48.2962C28.4985 48.6931 28.5523 49.5355 28.6983 50.4982C28.985 52.3674 29.6226 54.7026 29.9785 55.1635C30.2394 55.4855 30.5476 55.7661 30.8926 55.9956C30.6813 56.1354 30.4534 56.248 30.2141 56.331C30.0787 56.3804 29.9357 56.4056 29.7916 56.4053V56.7407H29.8325C29.9848 56.7383 30.1358 56.7133 30.2806 56.6665C30.6163 56.5576 30.9332 56.3978 31.2203 56.1928C31.5235 56.3733 31.8525 56.5062 32.1959 56.5871C32.3576 56.6259 32.5248 56.6363 32.6901 56.6178L32.6491 56.285C32.5057 56.2971 32.3613 56.2858 32.2215 56.2517C31.9752 56.1874 31.7378 56.0928 31.5148 55.97C31.8397 55.7113 32.1245 55.4059 32.3598 55.0636C32.5595 54.7589 32.8053 53.7091 32.9896 52.5031C33.1023 51.7836 33.1945 51.0103 33.2457 50.3062C33.302 49.323 33.2764 48.4806 33.1202 48.1042ZM32.0627 54.8792C31.8225 55.2258 31.5276 55.531 31.1896 55.7831C30.8305 55.5613 30.5104 55.2819 30.2422 54.9561C29.9094 54.5233 29.2948 52.2445 29.0183 50.447C28.8775 49.5381 28.8263 48.752 28.9389 48.3986C29.1477 47.7501 29.4241 47.1254 29.7634 46.5346C30.1168 45.9252 30.4932 45.4771 30.7543 45.4669C31.0641 45.4669 31.566 46.0276 32.0346 46.7471C32.1293 46.888 32.2189 47.0416 32.306 47.1952C32.497 47.5261 32.668 47.8681 32.8181 48.2194C32.9589 48.5676 32.9743 49.3537 32.9103 50.2678C32.8744 50.7799 32.8181 51.315 32.7464 51.8476C32.5518 53.238 32.2778 54.5413 32.0627 54.8716V54.8792Z" fill="#455A64"/>
<path d="M33.1486 56.4193C33.1526 56.5171 33.1275 56.6138 33.0764 56.6972C33.0254 56.7807 32.9508 56.8471 32.862 56.8881C32.7732 56.9291 32.6742 56.9429 32.5776 56.9276C32.481 56.9123 32.3911 56.8687 32.3193 56.8023C32.2474 56.7358 32.197 56.6496 32.1742 56.5545C32.1514 56.4593 32.1574 56.3596 32.1914 56.2679C32.2254 56.1761 32.2858 56.0966 32.365 56.0392C32.4443 55.9818 32.5387 55.9493 32.6365 55.9457C32.7671 55.9408 32.8944 55.9879 32.9904 56.0767C33.0864 56.1655 33.1433 56.2887 33.1486 56.4193Z" fill="#263238"/>
<path d="M30.2788 56.5536C30.2833 56.6514 30.2587 56.7484 30.208 56.8321C30.1573 56.9159 30.0828 56.9827 29.9941 57.0241C29.9054 57.0655 29.8063 57.0796 29.7096 57.0647C29.6128 57.0497 29.5227 57.0063 29.4506 56.94C29.3785 56.8737 29.3278 56.7875 29.3048 56.6923C29.2818 56.5971 29.2877 56.4972 29.3215 56.4054C29.3554 56.3135 29.4158 56.2337 29.4951 56.1763C29.5743 56.1188 29.6689 56.0861 29.7667 56.0825C29.8313 56.0797 29.8958 56.0897 29.9565 56.1119C30.0172 56.1341 30.0729 56.1681 30.1205 56.2119C30.1681 56.2556 30.2065 56.3083 30.2337 56.367C30.2609 56.4256 30.2762 56.489 30.2788 56.5536Z" fill="#263238"/>
<path d="M33.2043 50.3L32.9201 50.2795C32.8911 50.2769 32.8643 50.2632 32.8452 50.2413C32.8261 50.2193 32.8162 50.1908 32.8177 50.1618C32.8766 49.2221 32.8459 48.5307 32.7306 48.2542C32.2339 47.0405 31.1943 45.5196 30.7565 45.5375C30.3186 45.5554 29.4122 47.1609 29.0179 48.4104C28.9283 48.6972 28.9565 49.3885 29.0922 50.3205C29.0966 50.349 29.0898 50.3781 29.073 50.4016C29.0562 50.425 29.0309 50.441 29.0026 50.446L28.7209 50.4895C28.6914 50.4931 28.6616 50.4849 28.6381 50.4667C28.6146 50.4485 28.5993 50.4217 28.5954 50.3922C28.4392 49.3475 28.4213 48.6306 28.5391 48.2593C28.7491 47.5885 29.74 45.0766 30.736 45.0357C31.732 44.9947 32.9329 47.4118 33.1992 48.0647C33.3451 48.4232 33.3887 49.1401 33.3221 50.1925C33.3201 50.2221 33.3068 50.2499 33.2848 50.2699C33.2629 50.29 33.234 50.3008 33.2043 50.3Z" fill="#0071CE"/>
<path d="M25.7629 39.1239C24.0329 39.8457 23.4928 40.7716 23.0402 42.7042C22.6817 44.2381 22.0507 51.9565 21.7331 54.2688L14.249 53.6752C12.6518 53.3639 11.6713 52.1994 10.5534 51.7571C9.43554 51.3148 8.56202 51.509 7.42612 51.2366C6.29023 50.9642 5.72369 50.6137 5.74059 51.3243C5.75749 52.035 7.13406 52.5962 7.42027 52.7591C7.70648 52.9219 8.89381 53.0433 7.66535 53.602C6.43689 54.1607 3.43002 53.948 2.73461 53.9806C2.0392 54.0132 2.38482 54.7088 2.8769 55.036C3.36898 55.3632 3.91632 56.6553 4.73622 57.183C5.60374 57.743 6.03961 57.9606 7.4292 57.9629C8.71823 57.9589 11.0764 57.1529 12.5431 57.3703C14.0098 57.5876 17.9741 58.8798 20.3755 59.6447C23.4288 60.6165 25.1065 60.306 25.829 58.6076C26.4773 56.8354 27.0478 54.8401 27.3144 53.838C28.0318 51.1361 28.5594 45.4716 28.5594 45.4716C28.5594 45.4716 28.626 42.6487 25.7629 39.1239Z" fill="#FFA8A7"/>
<path d="M25.9257 38.8499C23.3961 39.9543 23.0401 41.1994 22.6678 43.8792C22.2956 46.559 21.615 54.0616 21.615 54.0616L15.7361 53.6444C15.7361 53.6444 15.7027 55.9164 15.641 58.2707C15.641 58.2707 19.3734 59.435 21.1393 59.9855C22.9051 60.5361 24.9841 60.6649 25.9655 58.6188C27.0148 56.4341 29.181 46.5172 29.181 46.5172C29.4498 43.6004 27.6049 40.1619 25.9257 38.8499Z" fill="#F0F0F0"/>
<path d="M21.6151 54.0625C22.7982 54.6412 24.1957 55.2631 24.5089 56.0959C24.5089 56.0959 24.7284 55.1395 21.686 53.2968L21.6151 54.0625Z" fill="#E0E0E0"/>
</g>
<defs>
<filter id="filter0_d_976_7951" x="0.342529" y="0.5" width="67.1914" height="93.5117" filterUnits="userSpaceOnUse" color-interpolation-filters="sRGB">
<feFlood flood-opacity="0" result="BackgroundImageFix"/>
<feColorMatrix in="SourceAlpha" type="matrix" values="0 0 0 0 0 0 0 0 0 0 0 0 0 0 0 0 0 0 127 0" result="hardAlpha"/>
<feOffset dy="2"/>
<feGaussianBlur stdDeviation="1"/>
<feComposite in2="hardAlpha" operator="out"/>
<feColorMatrix type="matrix" values="0 0 0 0 0 0 0 0 0 0 0 0 0 0 0 0 0 0 0.25 0"/>
<feBlend mode="normal" in2="BackgroundImageFix" result="effect1_dropShadow_976_7951"/>
<feBlend mode="normal" in="SourceGraphic" in2="effect1_dropShadow_976_7951" result="shape"/>
</filter>
</defs>
</svg>
