<svg width="56" height="92" viewBox="0 0 37 41" fill="none" xmlns="http://www.w3.org/2000/svg">
<path d="M7.90901 32.9863L5.79433 36.6587C5.65537 36.8882 5.61327 37.1635 5.6773 37.424C5.74134 37.6846 5.90625 37.909 6.13576 38.048C6.36528 38.1869 6.64059 38.229 6.90114 38.165C7.16169 38.101 7.38614 37.9361 7.5251 37.7066L9.65237 34.0122C9.85691 33.6597 9.63663 33.1468 9.15831 32.8699C8.67999 32.5929 8.11356 32.6433 7.90901 32.9863Z" fill="#455A64"/>
<path d="M24.7385 26.518L28.4109 28.6326C28.5238 28.7025 28.6494 28.7492 28.7805 28.7701C28.9117 28.7909 29.0456 28.7855 29.1746 28.754C29.3036 28.7226 29.425 28.6658 29.5318 28.5869C29.6387 28.5081 29.7287 28.4088 29.7968 28.2948C29.8648 28.1808 29.9095 28.0544 29.9283 27.923C29.947 27.7915 29.9394 27.6577 29.9059 27.5292C29.8724 27.4007 29.8136 27.2802 29.7331 27.1747C29.6526 27.0691 29.5518 26.9807 29.4367 26.9145L25.7424 24.8029C25.3899 24.5984 24.877 24.8187 24.6 25.297C24.3231 25.7753 24.3861 26.3134 24.7385 26.518Z" fill="#455A64"/>
<path d="M28.8073 9.96372H28.7884L19.8419 4.79974H19.8168C17.8531 3.68261 15.1468 3.85569 12.1605 5.57387C6.15946 9.0354 1.29443 17.4658 1.29443 24.3952C1.29443 27.8567 2.50597 30.2766 4.46016 31.4158H4.47589L13.4224 36.5829H13.4444C15.408 37.7063 18.1175 37.5269 21.107 35.8119C27.1049 32.3504 31.9699 23.92 31.9699 16.9938C31.9699 13.5322 30.7615 11.1029 28.8073 9.96372Z" fill="#0071CE"/>
<path opacity="0.1" d="M13.2777 36.4779L4.46649 31.3989H4.44761C2.49342 30.2566 1.28503 27.8272 1.28503 24.3783C1.28503 21.2881 2.25426 17.9021 3.856 14.793L12.8025 19.9569C11.1976 23.066 10.2315 26.452 10.2315 29.5422C10.2378 32.9094 11.3958 35.3073 13.2777 36.4779Z" fill="black"/>
<path opacity="0.4" d="M28.7889 27.6925C33.0322 20.343 33.0324 12.3993 28.7895 9.94961C24.5466 7.49997 17.6672 11.4721 13.424 18.8215C9.18078 26.171 9.18053 34.1147 13.4234 36.5644C17.6664 39.014 24.5457 35.0419 28.7889 27.6925Z" fill="white"/>
<path d="M16.2512 35.0853C12.8148 35.0853 12.4435 31.2021 12.4435 29.5311C12.4435 23.4199 16.9151 15.685 22.1987 12.62C23.5456 11.8427 24.842 11.4336 25.9497 11.4336C29.3861 11.4336 29.7574 15.3168 29.7574 16.9878C29.7574 23.099 25.2858 30.8339 20.0022 33.8989C18.6522 34.6762 17.3557 35.0853 16.2512 35.0853Z" fill="#FAFAFA"/>
<path d="M18.6967 30.3398C18.6801 30.3428 18.663 30.3428 18.6464 30.3398C18.6071 30.3256 18.5749 30.2965 18.5567 30.2589C18.5385 30.2213 18.5357 30.1781 18.5488 30.1384L20.9562 23.2626C20.9699 23.2229 20.9989 23.1904 21.0366 23.1721C21.0744 23.1538 21.1179 23.1512 21.1576 23.165C21.1972 23.1788 21.2297 23.2077 21.248 23.2455C21.2663 23.2833 21.2689 23.3268 21.2551 23.3664L18.8541 30.2328C18.8436 30.2657 18.8224 30.2941 18.7939 30.3135C18.7653 30.3329 18.7311 30.3422 18.6967 30.3398Z" fill="#0071CE"/>
<path d="M24.7134 25.3369C24.6495 25.338 24.5862 25.3251 24.5278 25.2991L20.6351 23.6156V16.5541C20.6351 16.4289 20.6849 16.3088 20.7734 16.2203C20.8619 16.1318 20.982 16.082 21.1072 16.082C21.2323 16.082 21.3524 16.1318 21.4409 16.2203C21.5295 16.3088 21.5792 16.4289 21.5792 16.5541V22.9957L24.9023 24.4338C25.0007 24.4777 25.0812 24.554 25.1303 24.65C25.1794 24.746 25.1942 24.8559 25.1721 24.9615C25.15 25.067 25.0925 25.1618 25.009 25.2302C24.9256 25.2985 24.8213 25.3361 24.7134 25.3369Z" fill="#37474F"/>
<path d="M21.1071 21.7849C21.812 21.3758 22.3847 21.7063 22.3847 22.5213C22.3585 22.9627 22.2293 23.3919 22.0074 23.7744C21.7855 24.1569 21.4772 24.4821 21.1071 24.7241C20.399 25.1332 19.8263 24.8028 19.8263 23.9846C19.8533 23.5434 19.9833 23.1147 20.2056 22.7328C20.428 22.3508 20.7367 22.0262 21.1071 21.7849Z" fill="#0071CE"/>
<path d="M10.7099 16.7162C9.1679 19.3815 6.26336 20.5899 4.07945 19.3281C2.79835 18.5874 1.86397 17.3681 1.48185 15.9384C1.09973 14.5088 1.30118 12.9859 2.04188 11.7048C2.78258 10.4237 4.00186 9.48933 5.4315 9.10721C6.86113 8.72509 8.384 8.92654 9.6651 9.66724C11.8427 10.9574 12.2455 14.0476 10.7099 16.7162Z" fill="#455A64"/>
<path d="M4.07906 19.3279C6.26297 20.5867 9.16751 19.3814 10.7095 16.716C11.0539 16.1185 11.3094 15.474 11.4679 14.8028C11.3797 14.9192 8.81192 18.1919 5.62102 17.2699C2.37347 16.3258 1.76298 13.8304 2.04305 11.7031C1.67594 12.3374 1.4374 13.0378 1.34104 13.7644C1.24468 14.4909 1.2924 15.2292 1.48147 15.9373C1.67054 16.6454 1.99726 17.3093 2.44296 17.891C2.88866 18.4728 3.44461 18.9611 4.07906 19.3279Z" fill="#37474F"/>
<path d="M3.18253 11.1642L1.52729 10.2201C1.41441 10.1503 1.28875 10.1035 1.15763 10.0827C1.02651 10.0619 0.892556 10.0673 0.76357 10.0988C0.634584 10.1302 0.513143 10.187 0.406323 10.2659C0.299504 10.3447 0.209436 10.444 0.141375 10.558C0.0733145 10.672 0.0286158 10.7984 0.00988522 10.9298C-0.00884532 11.0613 -0.00122842 11.1951 0.0322804 11.3236C0.0657892 11.452 0.124521 11.5726 0.205065 11.6781C0.285608 11.7836 0.386349 11.8721 0.501416 11.9383L2.17554 12.9076C2.53113 13.1121 3.04407 12.8918 3.321 12.4135C3.59792 11.9352 3.53498 11.3687 3.18253 11.1642Z" fill="#0071CE"/>
<path d="M27.8726 3.1795L28.8166 1.52741C28.8865 1.41452 28.9332 1.28886 28.9541 1.15775C28.9749 1.02663 28.9694 0.89267 28.938 0.763684C28.9065 0.634698 28.8497 0.513261 28.7709 0.406442C28.6921 0.299623 28.5928 0.209559 28.4788 0.141499C28.3648 0.073438 28.2384 0.0287392 28.1069 0.0100087C27.9755 -0.00872186 27.8417 -0.00110976 27.7132 0.032399C27.5847 0.0659078 27.4642 0.124645 27.3587 0.205188C27.2531 0.285732 27.1647 0.386472 27.0985 0.50154L26.1292 2.17566C25.9247 2.52811 26.1292 3.04104 26.6233 3.31797C27.1173 3.59489 27.6649 3.5351 27.8726 3.1795Z" fill="#0071CE"/>
<path d="M19.8766 3.86397C20.2433 3.2286 20.7317 2.67169 21.3137 2.22503C21.8956 1.77838 22.5599 1.45073 23.2685 1.26079C23.9771 1.07086 24.7162 1.02235 25.4436 1.11804C26.1709 1.21374 26.8723 1.45176 27.5077 1.81852C28.1431 2.18528 28.7 2.67359 29.1466 3.25558C29.5933 3.83757 29.9209 4.50183 30.1109 5.21044C30.3008 5.91906 30.3493 6.65814 30.2536 7.3855C30.1579 8.11286 29.9199 8.81425 29.5531 9.44962L19.8766 3.86397Z" fill="#455A64"/>
<path d="M28.3259 2.41016C28.6406 3.06785 29.4966 5.8528 28.3259 6.54511C27.1553 7.23742 21.749 4.94022 21.749 4.94022L29.5532 9.4465C30.2032 8.31511 30.4363 6.99178 30.2121 5.70637C29.9879 4.42096 29.3206 3.2547 28.3259 2.41016Z" fill="#37474F"/>
</svg>
