<svg width="69" height="111" viewBox="0 0 69 111" fill="none" xmlns="http://www.w3.org/2000/svg">
<mask id="path-1-inside-1_3682_77485" fill="white">
<path d="M0 55.5C0 24.8482 24.8482 0 55.5 0H61C65.4183 0 69 3.58172 69 8V103C69 107.418 65.4183 111 61 111H55.5C24.8482 111 0 86.1518 0 55.5V55.5Z"/>
</mask>
<path d="M0 55.5C0 24.8482 24.8482 0 55.5 0H61C65.4183 0 69 3.58172 69 8V103C69 107.418 65.4183 111 61 111H55.5C24.8482 111 0 86.1518 0 55.5V55.5Z" fill="white"/>
<path d="M-1 55.5C-1 24.2959 24.2959 -1 55.5 -1H60C64.9706 -1 69 3.02944 69 8C69 4.13401 65.4183 1 61 1H55.5C25.4005 1 1 25.4005 1 55.5H-1ZM69 103C69 107.971 64.9706 112 60 112H55.5C24.2959 112 -1 86.7041 -1 55.5H1C1 85.5995 25.4005 110 55.5 110H61C65.4183 110 69 106.866 69 103ZM55.5 112C24.2959 112 -1 86.7041 -1 55.5C-1 24.2959 24.2959 -1 55.5 -1V1C25.4005 1 1 25.4005 1 55.5C1 85.5995 25.4005 110 55.5 110V112ZM69 0V111V0Z" fill="#E7E9EC" mask="url(#path-1-inside-1_3682_77485)"/>
<path d="M45.353 34.2366C45.353 29.0601 42.458 24.4116 38.6213 22.1972C36.6923 21.0829 35.003 20.8574 33.7973 21.5651L30.5613 23.42C30.5028 23.4528 30.4443 23.487 30.3873 23.5241L30.4229 23.4999L30.3701 23.5313C29.2373 24.2632 28.5581 25.8584 28.5581 28.3653C28.5581 33.5902 31.4545 38.1888 35.2912 40.4046C37.2188 41.5175 38.9081 41.7544 40.1138 41.0524L43.3697 39.1904C43.4068 39.1705 43.4439 39.1491 43.481 39.1262L43.5381 39.0934C44.6738 38.3629 45.353 36.7649 45.353 34.2366Z" fill="#0071CE"/>
<path opacity="0.5" d="M39.8234 40.9015C42.574 39.4598 42.7748 34.42 40.272 29.6446C37.7691 24.8692 33.5103 22.1668 30.7597 23.6084C28.0091 25.0501 27.8083 30.0899 30.3111 34.8653C32.814 39.6406 37.0728 42.3431 39.8234 40.9015Z" fill="white"/>
<path d="M36.8848 33.176C36.8848 30.3752 36.0886 29.0797 35.291 28.6188C34.4935 28.158 33.6987 28.5361 33.6987 31.3298C33.6987 34.1234 34.4949 35.4261 35.291 35.887C36.0872 36.3478 36.8848 35.9769 36.8848 33.176Z" fill="#0071CE"/>
<path opacity="0.3" d="M36.8848 33.176C36.8848 30.3752 36.0886 29.0797 35.291 28.6188C34.4935 28.158 33.6987 28.5361 33.6987 31.3298C33.6987 34.1234 34.4949 35.4261 35.291 35.887C36.0872 36.3478 36.8848 35.9769 36.8848 33.176Z" fill="black"/>
<path d="M63.9999 58.7167C63.9999 53.5331 61.1035 48.8931 57.2654 46.6773C55.3378 45.5644 53.6471 45.3375 52.4428 46.0452L49.2083 47.9001C49.1483 47.9315 49.0898 47.9657 49.0328 48.0028L49.0684 47.98L49.0157 48.0099C47.8828 48.7405 47.2036 50.3356 47.2036 52.8425C47.2036 58.0675 50.1 62.666 53.9367 64.8819C55.8643 65.9948 57.5536 66.2316 58.7593 65.5311L62.021 63.6691L62.1322 63.6049L62.1893 63.5721C63.3193 62.843 63.9999 61.2464 63.9999 58.7167Z" fill="#0071CE"/>
<path opacity="0.5" d="M58.4674 65.3898C61.218 63.9481 61.4189 58.9082 58.916 54.1329C56.4131 49.3575 52.1544 46.655 49.4038 48.0967C46.6531 49.5383 46.4523 54.5782 48.9552 59.3536C51.458 64.1289 55.7168 66.8314 58.4674 65.3898Z" fill="white"/>
<path d="M55.5303 57.6586C55.5303 54.8578 54.7341 53.5622 53.9366 53.1028C53.139 52.6434 52.3442 53.0186 52.3442 55.8137C52.3442 58.6088 53.1404 59.9115 53.9366 60.3709C54.7327 60.8304 55.5303 60.4608 55.5303 57.6586Z" fill="#0071CE"/>
<path opacity="0.3" d="M55.5303 57.6586C55.5303 54.8578 54.7341 53.5622 53.9366 53.1028C53.139 52.6434 52.3442 53.0186 52.3442 55.8137C52.3442 58.6088 53.1404 59.9115 53.9366 60.3709C54.7327 60.8304 55.5303 60.4608 55.5303 57.6586Z" fill="black"/>
<path d="M53.5001 31.207L50.1714 33.1132L32.8657 52.3851L38.9853 55.9178L42.3126 54.0102L59.6183 34.7384L53.5001 31.207Z" fill="#0071CE"/>
<path opacity="0.3" d="M56.2896 36.6459L38.9854 55.9177L42.3127 54.0101L59.6183 34.7383L56.2896 36.6459Z" fill="black"/>
<path opacity="0.5" d="M50.1714 33.1133L56.2895 36.646L38.9853 55.9179L32.8657 52.3851L50.1714 33.1133Z" fill="white"/>
<path d="M26.0524 31.5247L26.3934 32.5234C26.4414 32.6673 26.5307 32.7939 26.6502 32.8873L27.4107 33.458C27.6961 33.6663 27.8031 34.1272 27.6005 34.2385L27.0497 34.5395C27.0072 34.5722 26.9752 34.6167 26.9577 34.6674C26.9402 34.7181 26.938 34.7729 26.9513 34.8249L27.0811 35.7751C27.1282 36.1247 26.8372 36.2032 26.586 35.905L25.9055 35.0988C25.8689 35.0473 25.8217 35.0042 25.767 34.9725C25.7124 34.9407 25.6516 34.921 25.5887 34.9148L24.9067 34.9347C24.657 34.9433 24.3645 34.5281 24.413 34.2342L24.5429 33.4337C24.5554 33.2915 24.5208 33.1491 24.4444 33.0285L23.8937 32.0911C23.6911 31.7458 23.8023 31.4134 24.082 31.529L24.8439 31.84C24.8869 31.865 24.938 31.872 24.9861 31.8594C25.0343 31.8468 25.0754 31.8158 25.1007 31.7729L25.4403 31.1737C25.5659 30.9511 25.9226 31.1594 26.0524 31.5247Z" fill="#455A64"/>
<path d="M61.199 38.5453L61.54 39.544C61.5884 39.6873 61.6771 39.8137 61.7954 39.9079L62.5573 40.4786C62.8427 40.6869 62.9483 41.1492 62.7471 41.259L62.1949 41.5615C62.1525 41.5943 62.1206 41.6388 62.1034 41.6896C62.0861 41.7403 62.0842 41.795 62.0979 41.8469L62.2277 42.7971C62.2748 43.1467 61.9823 43.2252 61.7326 42.927L61.052 42.1194C61.015 42.0681 60.9675 42.0253 60.9126 41.9938C60.8578 41.9623 60.7968 41.9429 60.7339 41.9368L60.0533 41.9567C59.8036 41.9567 59.5111 41.5501 59.5582 41.2562L59.6895 40.4557C59.7042 40.3126 59.6711 40.1686 59.5953 40.0463L59.0445 39.1074C58.8419 38.7636 58.9532 38.4311 59.2329 38.5453L59.9948 38.8577C60.0379 38.8823 60.0889 38.8891 60.1369 38.8766C60.1849 38.864 60.2261 38.8332 60.2516 38.7907L60.594 38.1914C60.7125 37.9717 61.0734 38.18 61.199 38.5453Z" fill="#455A64"/>
<path d="M57.9773 42.1043L58.1871 42.7178C58.2173 42.8066 58.2722 42.8848 58.3454 42.9433L58.8163 43.2943C58.9904 43.4227 59.0588 43.708 58.9333 43.7765L58.5966 43.9634C58.5695 43.9841 58.5491 44.0124 58.5382 44.0447C58.5273 44.077 58.5262 44.1118 58.5352 44.1446L58.6151 44.7325C58.6451 44.9479 58.4639 44.995 58.3098 44.8124L57.8817 44.313C57.8591 44.281 57.8297 44.2544 57.7957 44.2349C57.7617 44.2155 57.7239 44.2036 57.6848 44.2003L57.2639 44.2131C57.1098 44.2131 56.9286 43.9606 56.9586 43.7851L57.0385 43.29C57.0461 43.202 57.0251 43.1139 56.9786 43.0389L56.6376 42.4596C56.512 42.2456 56.5805 42.0401 56.7546 42.1114L57.2254 42.3041C57.252 42.3193 57.2834 42.3234 57.313 42.3157C57.3426 42.308 57.368 42.2889 57.3838 42.2627L57.5949 41.8917C57.6763 41.749 57.8989 41.8789 57.9773 42.1043Z" fill="#455A64"/>
<path d="M23.9096 26.8322L24.1193 27.4457C24.15 27.5345 24.2055 27.6127 24.2791 27.6711L24.75 28.0221C24.9226 28.1505 24.9911 28.4359 24.867 28.5044L24.5259 28.6913C24.4988 28.7116 24.4784 28.7396 24.4675 28.7717C24.4565 28.8038 24.4555 28.8384 24.4646 28.8711L24.5459 29.4589C24.5745 29.6758 24.3947 29.7229 24.2392 29.5388L23.8182 29.0409C23.7956 29.0091 23.7665 28.9824 23.7328 28.9628C23.6991 28.9431 23.6616 28.9308 23.6228 28.9267L23.1947 28.9395C23.0406 28.9395 22.8594 28.6884 22.8894 28.5115L22.9693 28.0164C22.9785 27.9283 22.9573 27.8398 22.9094 27.7653L22.5684 27.1846C22.4428 26.972 22.5127 26.7665 22.6854 26.8379L23.1562 27.0305C23.1828 27.0457 23.2142 27.0498 23.2438 27.0421C23.2734 27.0344 23.2988 27.0153 23.3146 26.9891L23.5258 26.6167C23.6085 26.4769 23.8325 26.6053 23.9096 26.8322Z" fill="#455A64"/>
<path d="M24.9197 49.611C24.9197 49.611 24.6837 59.9275 23.0001 62.6765C21.3165 65.4256 14.3162 71.1949 14.3162 71.1949L13.1274 69.5976C13.1274 69.5976 16.8891 62.6536 18.6097 61.7995L19.9552 49.5547L24.9197 49.611Z" fill="#263238"/>
<path d="M11.8472 74.8719L12.77 74.4756L12.3702 73.7148L11.8472 74.8719Z" fill="#0071CE"/>
<path d="M11.3698 71.6094C11.241 71.8538 11.162 72.1214 11.1374 72.3966L11 73.934L11.8471 74.8727L12.3754 73.7156L11.3698 71.6094Z" fill="#0071CE"/>
<g style="mix-blend-mode:overlay" opacity="0.5">
<path d="M11.8472 74.8719L12.77 74.4756L12.3702 73.7148L11.8472 74.8719Z" fill="black"/>
</g>
<g style="mix-blend-mode:overlay" opacity="0.2">
<path d="M11.3698 71.6094C11.241 71.8538 11.162 72.1214 11.1374 72.3966L11 73.934L11.8471 74.8727L12.3754 73.7156L11.3698 71.6094Z" fill="black"/>
</g>
<path d="M14.2402 67.6743C14.2402 67.6743 14.5537 69.4248 16.1299 69.5991C16.1299 69.5991 16.3483 69.8527 15.8182 70.418C15.2881 70.9833 14.316 72.165 14.316 72.165C14.316 72.165 14.4164 74.0071 15.1314 74.7028C15.4836 75.055 15.8552 75.4072 16.1334 75.6995C16.1884 75.7549 16.2294 75.8225 16.253 75.8969C16.2766 75.9712 16.2822 76.0501 16.2693 76.127C16.2564 76.2039 16.2254 76.2767 16.1788 76.3392C16.1322 76.4018 16.0713 76.4524 16.0013 76.4867C15.5689 76.6998 15.0831 76.78 14.6052 76.7173C14.1272 76.6547 13.6785 76.4519 13.3157 76.1345L13.0286 75.8827C12.7299 75.6174 12.5414 75.2499 12.5003 74.8525L12.377 73.7218L11.4102 72.313C11.3412 72.2119 11.3016 72.0938 11.2957 71.9716C11.2898 71.8495 11.3178 71.7281 11.3767 71.6209C11.9843 70.5131 13.8352 67.2516 14.2402 67.6743Z" fill="#0071CE"/>
<path d="M18.7788 48.9336C18.7788 48.9336 15.5772 52.262 16.7395 56.2897C17.9018 60.3173 20.5029 65.8488 20.5029 65.8488C20.5029 65.8488 20.1102 67.0481 21.2074 69.5964C22.3045 72.1447 23.3207 74.9818 23.3207 74.9818C23.3207 74.9818 24.3773 75.5823 25.3565 74.5363L22.5687 53.4966C22.5687 53.4966 24.6961 52.0049 24.4178 49.5288L18.7788 48.9336Z" fill="#37474F"/>
<path d="M23.5195 77.6406L23.8999 79.3242L24.8615 79.8473L24.8245 78.6198L23.5195 77.6406Z" fill="#0071CE"/>
<path opacity="0.2" d="M23.5195 77.6406L23.8999 79.3242L24.8615 79.8473L24.8245 78.6198L23.5195 77.6406Z" fill="black"/>
<path d="M24.8617 79.8486L25.346 79.5298L24.8247 78.6211L24.8617 79.8486Z" fill="#0071CE"/>
<path opacity="0.5" d="M24.8617 79.8486L25.346 79.5298L24.8247 78.6211L24.8617 79.8486Z" fill="black"/>
<path d="M22.8098 73.6079C22.8098 73.6079 24.1641 74.2278 25.182 73.2257L25.1362 72.9087C25.1362 72.9087 25.4884 72.8048 25.6082 73.437C25.7279 74.0693 26.3672 77.1441 26.3672 77.1441C26.3672 77.1441 27.5207 78.6287 28.3625 78.9651C29.2043 79.3014 29.3752 79.7734 28.8222 80.1838L28.8063 80.1961C28.4846 80.4349 28.1038 80.5812 27.705 80.6194C27.3062 80.6576 26.9045 80.5861 26.5433 80.4127L25.89 80.101C25.6325 79.9764 25.4246 79.7685 25.3 79.511L25.2208 79.3472C25.0228 78.9376 24.7093 78.5948 24.3191 78.361L23.8365 78.0722C23.7595 78.0257 23.6925 77.9644 23.6393 77.8919C23.5861 77.8193 23.5478 77.737 23.5266 77.6495L22.646 73.9654C22.6293 73.8966 22.6365 73.8241 22.6666 73.76C22.6968 73.6959 22.7479 73.6441 22.8116 73.6131L22.8098 73.6079Z" fill="#0071CE"/>
<path d="M23.84 61.8334C23.768 61.8333 23.6979 61.8095 23.6408 61.7656C23.5836 61.7218 23.5425 61.6602 23.5239 61.5906C23.5052 61.521 23.51 61.4472 23.5376 61.3806C23.5651 61.314 23.6139 61.2584 23.6762 61.2223L34.1741 55.1501C34.2114 55.1272 34.2529 55.1119 34.2961 55.1053C34.3394 55.0987 34.3836 55.1008 34.426 55.1116C34.4684 55.1223 34.5083 55.1414 34.5432 55.1678C34.5781 55.1942 34.6074 55.2274 34.6293 55.2653C34.6512 55.3032 34.6652 55.3451 34.6707 55.3885C34.6761 55.432 34.6727 55.476 34.6608 55.5182C34.649 55.5603 34.6287 55.5996 34.6014 55.6338C34.574 55.668 34.5401 55.6963 34.5016 55.7172L24.0108 61.7894C23.9588 61.8188 23.8998 61.834 23.84 61.8334Z" fill="#37474F"/>
<path d="M24.3471 71.0811C24.2898 71.0813 24.2335 71.0662 24.184 71.0374C24.1344 71.0086 24.0935 70.9671 24.0653 70.9173C24.0217 70.8423 24.0097 70.7531 24.0318 70.6692C24.0539 70.5854 24.1084 70.5137 24.1833 70.47L34.6741 64.3995C34.7112 64.378 34.7522 64.364 34.7947 64.3583C34.8372 64.3527 34.8805 64.3554 34.9219 64.3665C34.9634 64.3775 35.0022 64.3966 35.0363 64.4227C35.0704 64.4487 35.099 64.4812 35.1205 64.5184C35.142 64.5555 35.156 64.5965 35.1617 64.639C35.1673 64.6815 35.1646 64.7247 35.1535 64.7662C35.1425 64.8077 35.1234 64.8465 35.0973 64.8806C35.0713 64.9147 35.0388 64.9433 35.0016 64.9648L24.5109 71.0405C24.4608 71.0684 24.4043 71.0823 24.3471 71.0811Z" fill="#37474F"/>
<path d="M23.8031 64.0372C23.7745 64.0375 23.7464 64.0301 23.7216 64.0158C23.6969 64.0016 23.6764 63.981 23.6622 63.9562C23.6513 63.9376 23.6441 63.917 23.6412 63.8957C23.6382 63.8743 23.6396 63.8526 23.6452 63.8317C23.6507 63.8109 23.6604 63.7914 23.6736 63.7744C23.6868 63.7573 23.7033 63.7431 23.7221 63.7325L34.2886 57.618C34.3073 57.6065 34.328 57.5989 34.3497 57.5956C34.3713 57.5923 34.3934 57.5934 34.4146 57.5988C34.4358 57.6041 34.4557 57.6137 34.4732 57.6269C34.4906 57.6401 34.5053 57.6567 34.5162 57.6756C34.5272 57.6946 34.5342 57.7155 34.5369 57.7372C34.5396 57.7589 34.538 57.781 34.532 57.8021C34.5261 57.8231 34.516 57.8428 34.5023 57.8599C34.4886 57.8769 34.4717 57.8911 34.4524 57.9015L23.8859 64.016C23.8605 64.0298 23.832 64.037 23.8031 64.0372Z" fill="#37474F"/>
<path d="M24.1005 66.3764C24.0647 66.3763 24.0299 66.3644 24.0015 66.3425C23.9731 66.3207 23.9526 66.2902 23.9432 66.2556C23.9338 66.221 23.936 66.1843 23.9495 66.1511C23.963 66.1179 23.9869 66.09 24.0178 66.0718L34.5843 59.9573C34.6218 59.937 34.6658 59.9321 34.7068 59.9437C34.7479 59.9553 34.7828 59.9824 34.8041 60.0194C34.8254 60.0563 34.8315 60.1001 34.8211 60.1415C34.8106 60.1828 34.7844 60.2185 34.7481 60.2408L24.1815 66.3553C24.1568 66.3692 24.1289 66.3765 24.1005 66.3764Z" fill="#37474F"/>
<path d="M24.1005 68.7319C24.0647 68.7317 24.0299 68.7198 24.0015 68.698C23.9731 68.6762 23.9526 68.6456 23.9432 68.6111C23.9338 68.5765 23.936 68.5398 23.9495 68.5066C23.963 68.4734 23.9869 68.4455 24.0178 68.4272L34.5843 62.3127C34.6218 62.2924 34.6658 62.2875 34.7068 62.2991C34.7479 62.3107 34.7828 62.3379 34.8041 62.3748C34.8254 62.4118 34.8315 62.4556 34.8211 62.4969C34.8106 62.5383 34.7844 62.5739 34.7481 62.5963L24.1815 68.7108C24.1568 68.7247 24.1289 68.732 24.1005 68.7319Z" fill="#37474F"/>
<path d="M33.6953 65.5916C33.6534 65.5916 33.613 65.5756 33.5825 65.5467C33.552 65.5179 33.5338 65.4785 33.5315 65.4366L33.0032 56.1152C33.0006 56.0717 33.0154 56.029 33.0443 55.9965C33.0732 55.964 33.1139 55.9443 33.1573 55.9417C33.2007 55.9391 33.2434 55.9539 33.276 55.9828C33.3085 56.0117 33.3282 56.0524 33.3308 56.0958L33.8591 65.419C33.8605 65.4407 33.8577 65.4625 33.8506 65.4832C33.8436 65.5038 33.8326 65.5229 33.8182 65.5392C33.8038 65.5556 33.7863 65.5689 33.7667 65.5785C33.7472 65.5881 33.7259 65.5937 33.7041 65.5951L33.6953 65.5916Z" fill="#37474F"/>
<path d="M32.3427 66.3783C32.301 66.3784 32.2609 66.3626 32.2305 66.3341C32.2 66.3057 32.1816 66.2667 32.1789 66.2251L31.6506 56.9019C31.6474 56.8794 31.6488 56.8565 31.655 56.8346C31.6611 56.8127 31.6717 56.7923 31.6861 56.7747C31.7005 56.7572 31.7184 56.7428 31.7387 56.7325C31.759 56.7222 31.7812 56.7163 31.8039 56.7151C31.8266 56.7139 31.8493 56.7174 31.8705 56.7254C31.8918 56.7334 31.9112 56.7458 31.9274 56.7617C31.9436 56.7776 31.9564 56.7967 31.9648 56.8178C31.9732 56.8389 31.9772 56.8616 31.9764 56.8843L32.5047 66.2057C32.5066 66.2274 32.5042 66.2493 32.4974 66.27C32.4907 66.2908 32.4799 66.3099 32.4656 66.3264C32.4513 66.3428 32.4338 66.3562 32.4142 66.3657C32.3946 66.3752 32.3733 66.3807 32.3515 66.3818L32.3427 66.3783Z" fill="#37474F"/>
<path d="M30.9883 67.1647C30.9466 67.1648 30.9064 67.1487 30.8762 67.1198C30.846 67.0909 30.8281 67.0515 30.8263 67.0097L30.298 57.6883C30.2961 57.6666 30.2985 57.6447 30.3053 57.624C30.312 57.6033 30.3228 57.5841 30.3371 57.5677C30.3515 57.5512 30.3689 57.5378 30.3885 57.5283C30.4081 57.5188 30.4294 57.5133 30.4512 57.5122C30.4729 57.5105 30.4946 57.5132 30.5153 57.52C30.5359 57.5268 30.555 57.5377 30.5713 57.5519C30.5877 57.5662 30.6011 57.5836 30.6107 57.6031C30.6203 57.6225 30.626 57.6437 30.6273 57.6654L31.1556 66.9886C31.1573 67.0103 31.1547 67.032 31.1479 67.0527C31.141 67.0733 31.1302 67.0924 31.1159 67.1087C31.1017 67.1251 31.0843 67.1385 31.0648 67.1481C31.0453 67.1577 31.0241 67.1634 31.0024 67.1647H30.9883Z" fill="#37474F"/>
<path d="M29.6357 67.9564C29.594 67.9565 29.5539 67.9407 29.5234 67.9123C29.493 67.8838 29.4746 67.8448 29.4719 67.8032L28.9436 58.48C28.9403 58.4575 28.9418 58.4346 28.9479 58.4127C28.954 58.3908 28.9646 58.3704 28.9791 58.3529C28.9935 58.3353 29.0114 58.3209 29.0317 58.3106C29.0519 58.3004 29.0741 58.2944 29.0968 58.2932C29.1195 58.292 29.1422 58.2955 29.1635 58.3035C29.1848 58.3115 29.2041 58.3239 29.2204 58.3398C29.2366 58.3557 29.2493 58.3749 29.2578 58.396C29.2662 58.4171 29.2701 58.4397 29.2694 58.4624L29.7977 67.7838C29.7994 67.8056 29.7967 67.8276 29.7897 67.8483C29.7828 67.869 29.7718 67.8882 29.7573 67.9046C29.7429 67.921 29.7253 67.9344 29.7056 67.9439C29.6859 67.9534 29.6645 67.9588 29.6427 67.96L29.6357 67.9564Z" fill="#37474F"/>
<path d="M28.2832 68.7486C28.2413 68.7483 28.2012 68.7321 28.1708 68.7034C28.1404 68.6746 28.1221 68.6354 28.1194 68.5937L27.5911 59.2705C27.5899 59.249 27.593 59.2274 27.6002 59.2071C27.6073 59.1868 27.6184 59.1681 27.6328 59.1521C27.6472 59.1361 27.6646 59.123 27.684 59.1137C27.7035 59.1044 27.7245 59.099 27.746 59.0979C27.7675 59.0967 27.7891 59.0998 27.8094 59.107C27.8297 59.1141 27.8484 59.1252 27.8644 59.1396C27.8804 59.154 27.8935 59.1714 27.9028 59.1909C27.9121 59.2103 27.9175 59.2314 27.9186 59.2529L28.4469 68.5761C28.4484 68.5978 28.4455 68.6196 28.4385 68.6403C28.4315 68.6609 28.4204 68.6799 28.406 68.6963C28.3916 68.7127 28.3741 68.726 28.3546 68.7356C28.335 68.7452 28.3137 68.7508 28.292 68.7522L28.2832 68.7486Z" fill="#37474F"/>
<path d="M26.9307 69.5369C26.8887 69.5369 26.8483 69.5209 26.8179 69.4921C26.7874 69.4632 26.7691 69.4238 26.7669 69.3819L26.2386 60.0605C26.236 60.017 26.2508 59.9744 26.2797 59.9418C26.3086 59.9093 26.3492 59.8896 26.3927 59.887C26.4361 59.8844 26.4788 59.8992 26.5113 59.9281C26.5438 59.957 26.5636 59.9977 26.5661 60.0411L27.0945 69.3643C27.0961 69.3859 27.0935 69.4077 27.0867 69.4284C27.0798 69.449 27.069 69.468 27.0547 69.4844C27.0405 69.5008 27.0231 69.5142 27.0036 69.5238C26.9841 69.5334 26.9629 69.5391 26.9412 69.5404L26.9307 69.5369Z" fill="#37474F"/>
<path d="M25.5763 70.3254C25.5348 70.3246 25.4951 70.3082 25.465 70.2795C25.435 70.2508 25.4169 70.2118 25.4143 70.1704L24.8859 60.8472C24.8827 60.8247 24.8842 60.8018 24.8903 60.7799C24.8964 60.758 24.907 60.7376 24.9214 60.7201C24.9359 60.7025 24.9538 60.6881 24.9741 60.6778C24.9943 60.6676 25.0165 60.6616 25.0392 60.6604C25.0619 60.6592 25.0846 60.6627 25.1059 60.6707C25.1272 60.6787 25.1465 60.6911 25.1627 60.707C25.179 60.7229 25.1917 60.742 25.2001 60.7632C25.2086 60.7843 25.2125 60.8069 25.2117 60.8296L25.7401 70.1528C25.7422 70.1746 25.74 70.1965 25.7333 70.2174C25.7267 70.2382 25.7159 70.2575 25.7015 70.274C25.6872 70.2904 25.6696 70.3038 25.6499 70.3133C25.6301 70.3227 25.6087 70.3281 25.5869 70.3289L25.5763 70.3254Z" fill="#37474F"/>
<path d="M39.8662 45.3266L32.7373 41.2109V46.0187L39.8662 50.1344L41.5463 49.6958V47.697L39.8662 45.3266ZM40.4738 48.5635C40.3556 48.4862 40.2574 48.3821 40.187 48.2597C40.1166 48.1373 40.0761 48 40.0687 47.859C40.0687 47.6002 40.2448 47.4963 40.4738 47.6248C40.5922 47.7018 40.6906 47.8058 40.7611 47.9283C40.8315 48.0507 40.8718 48.1882 40.8788 48.3292C40.8788 48.5811 40.6904 48.685 40.4738 48.5564V48.5635Z" fill="#0071CE"/>
<path opacity="0.5" d="M39.8662 45.3266L32.7373 41.2109V46.0187L39.8662 50.1344L41.5463 49.6958V47.697L39.8662 45.3266ZM40.4738 48.5635C40.3556 48.4862 40.2574 48.3821 40.187 48.2597C40.1166 48.1373 40.0761 48 40.0687 47.859C40.0687 47.6002 40.2448 47.4963 40.4738 47.6248C40.5922 47.7018 40.6906 47.8058 40.7611 47.9283C40.8315 48.0507 40.8718 48.1882 40.8788 48.3292C40.8788 48.5811 40.6904 48.685 40.4738 48.5564V48.5635Z" fill="#3394DD"/>
<path d="M40.549 56.829C40.5129 56.8263 40.4785 56.8126 40.4505 56.7897C40.4225 56.7669 40.4022 56.7359 40.3923 56.7011C40.3825 56.6662 40.3837 56.6292 40.3956 56.5951C40.4076 56.5609 40.4298 56.5313 40.4592 56.5102L41.7466 55.7177C42.1633 55.4598 42.5076 55.1001 42.747 54.6725C42.9863 54.2449 43.113 53.7634 43.1149 53.2733V50.8659C43.1139 50.571 43.0377 50.2811 42.8935 50.0238C42.7493 49.7665 42.5418 49.5502 42.2908 49.3954L40.5138 48.3018C40.4881 48.294 40.4645 48.2805 40.4449 48.2623C40.4252 48.244 40.4099 48.2215 40.4003 48.1965C40.3906 48.1715 40.3868 48.1446 40.3891 48.1178C40.3915 48.0911 40.3999 48.0653 40.4137 48.0423C40.4276 48.0193 40.4465 47.9998 40.469 47.9852C40.4916 47.9706 40.5171 47.9614 40.5438 47.9583C40.5704 47.9551 40.5975 47.9581 40.6228 47.9669C40.6481 47.9758 40.6711 47.9903 40.6899 48.0094L42.4792 49.1031C42.7799 49.2885 43.0284 49.5475 43.2012 49.8557C43.3741 50.1638 43.4656 50.5109 43.4672 50.8642V53.2716C43.465 53.8203 43.3232 54.3594 43.0551 54.8381C42.7871 55.3169 42.4016 55.7196 41.935 56.0083L40.6424 56.8008C40.6145 56.8188 40.5822 56.8285 40.549 56.829Z" fill="#0071CE"/>
<path opacity="0.9" d="M40.549 56.829C40.5129 56.8263 40.4785 56.8126 40.4505 56.7897C40.4225 56.7669 40.4022 56.7359 40.3923 56.7011C40.3825 56.6662 40.3837 56.6292 40.3956 56.5951C40.4076 56.5609 40.4298 56.5313 40.4592 56.5102L41.7466 55.7177C42.1633 55.4598 42.5076 55.1001 42.747 54.6725C42.9863 54.2449 43.113 53.7634 43.1149 53.2733V50.8659C43.1139 50.571 43.0377 50.2811 42.8935 50.0238C42.7493 49.7665 42.5418 49.5502 42.2908 49.3954L40.5138 48.3018C40.4881 48.294 40.4645 48.2805 40.4449 48.2623C40.4252 48.244 40.4099 48.2215 40.4003 48.1965C40.3906 48.1715 40.3868 48.1446 40.3891 48.1178C40.3915 48.0911 40.3999 48.0653 40.4137 48.0423C40.4276 48.0193 40.4465 47.9998 40.469 47.9852C40.4916 47.9706 40.5171 47.9614 40.5438 47.9583C40.5704 47.9551 40.5975 47.9581 40.6228 47.9669C40.6481 47.9758 40.6711 47.9903 40.6899 48.0094L42.4792 49.1031C42.7799 49.2885 43.0284 49.5475 43.2012 49.8557C43.3741 50.1638 43.4656 50.5109 43.4672 50.8642V53.2716C43.465 53.8203 43.3232 54.3594 43.0551 54.8381C42.7871 55.3169 42.4016 55.7196 41.935 56.0083L40.6424 56.8008C40.6145 56.8188 40.5822 56.8285 40.549 56.829Z" fill="black"/>
<path d="M38.2246 78.2351C38.2246 78.9906 37.6963 79.2918 37.0412 78.9184C36.6961 78.6939 36.4088 78.391 36.2029 78.0345C35.9969 77.678 35.8781 77.2779 35.856 76.8667C35.856 76.1112 36.3843 75.8101 37.0412 76.1834C37.3858 76.4084 37.6725 76.7114 37.8781 77.0678C38.0837 77.4243 38.2024 77.8242 38.2246 78.2351Z" fill="#455A64"/>
<path d="M37.4426 77.783C37.4426 78.0401 37.2665 78.1457 37.0393 78.0172C36.9212 77.9399 36.823 77.8358 36.7526 77.7134C36.6822 77.591 36.6417 77.4537 36.6343 77.3127C36.6343 77.0539 36.8104 76.95 37.0393 77.0785C37.1573 77.1558 37.2554 77.2599 37.3255 77.3824C37.3955 77.5048 37.4357 77.6421 37.4426 77.783Z" fill="#263238"/>
<path d="M38.7633 77.9213C38.7411 77.51 38.6222 77.1097 38.4163 76.7529C38.2103 76.3962 37.9232 76.093 37.5781 75.8679C37.1114 75.5985 36.7099 75.6795 36.5215 76.0211C36.7086 76.0275 36.8907 76.0828 37.0498 76.1814C37.3928 76.4073 37.6778 76.7107 37.8818 77.0671C38.0859 77.4235 38.2032 77.8229 38.2245 78.2331C38.2245 78.6064 38.0941 78.8688 37.8846 78.9939L38.4006 78.698C38.6225 78.5782 38.7633 78.3088 38.7633 77.9213Z" fill="#263238"/>
<path d="M37.0903 75.6423C36.2661 75.165 35.5986 75.5507 35.5986 76.5017L38.5766 78.224C38.5766 77.273 37.9127 76.1177 37.0903 75.6423Z" fill="#0071CE"/>
<path d="M37.6257 75.224C37.0199 74.8718 36.5003 74.9916 36.2661 75.453C36.5547 75.4172 36.8466 75.4845 37.0903 75.6432C37.9127 76.1187 38.5819 77.2739 38.5819 78.2249L39.1103 77.8075C39.1173 76.8513 38.4499 75.6995 37.6257 75.224Z" fill="#0071CE"/>
<path opacity="0.5" d="M37.6257 75.224C37.0199 74.8718 36.5003 74.9916 36.2661 75.453C36.5547 75.4172 36.8466 75.4845 37.0903 75.6432C37.9127 76.1187 38.5819 77.2739 38.5819 78.2249L39.1103 77.8075C39.1173 76.8513 38.4499 75.6995 37.6257 75.224Z" fill="black"/>
<path d="M46.9349 83.2664C46.9349 84.0219 46.4066 84.323 45.7497 83.9497C45.4046 83.7251 45.1173 83.4223 44.9114 83.0658C44.7054 82.7092 44.5866 82.3091 44.5645 81.898C44.5645 81.1425 45.0928 80.8413 45.7497 81.2147C46.0945 81.4395 46.3815 81.7425 46.5874 82.0989C46.7933 82.4554 46.9124 82.8553 46.9349 83.2664Z" fill="#455A64"/>
<path d="M46.1495 82.8142C46.1495 83.0713 45.9733 83.177 45.7444 83.0484C45.6263 82.9711 45.528 82.867 45.4577 82.7446C45.3873 82.6222 45.3468 82.485 45.3394 82.344C45.3394 82.0851 45.5155 81.9812 45.7444 82.1098C45.8628 82.1868 45.9613 82.2908 46.0317 82.4132C46.1021 82.5357 46.1425 82.6731 46.1495 82.8142Z" fill="#263238"/>
<path d="M47.474 82.9526C47.4517 82.5415 47.3329 82.1414 47.1273 81.7847C46.9217 81.4279 46.6351 81.1246 46.2905 80.8992C45.8239 80.6297 45.4206 80.7107 45.2339 81.0524C45.421 81.0588 45.6031 81.114 45.7622 81.2126C46.107 81.4375 46.394 81.7404 46.5999 82.0969C46.8059 82.4533 46.9249 82.8533 46.9474 83.2643C46.9474 83.6377 46.8171 83.9001 46.6075 84.0251L47.1218 83.7292C47.3331 83.6095 47.474 83.34 47.474 82.9526Z" fill="#263238"/>
<path d="M45.7973 80.6774C44.9731 80.2002 44.3057 80.5858 44.3057 81.5368L47.2889 83.2592C47.2925 82.3117 46.625 81.1529 45.7973 80.6774Z" fill="#0071CE"/>
<path d="M46.3363 80.2553C45.7323 79.9031 45.211 80.0228 44.9785 80.4842C45.2666 80.4476 45.5582 80.5151 45.8009 80.6744C46.6251 81.1499 47.2926 82.3052 47.2926 83.2562L47.8209 82.8388C47.8279 81.886 47.1605 80.7237 46.3363 80.2553Z" fill="#0071CE"/>
<path opacity="0.5" d="M46.3363 80.2553C45.7323 79.9031 45.211 80.0228 44.9785 80.4842C45.2666 80.4476 45.5582 80.5151 45.8009 80.6744C46.6251 81.1499 47.2926 82.3052 47.2926 83.2562L47.8209 82.8388C47.8279 81.886 47.1605 80.7237 46.3363 80.2553Z" fill="black"/>
<path d="M36.4741 89.3289C36.4741 90.0844 35.9458 90.3855 35.2907 90.0122C34.9456 89.7876 34.6583 89.4848 34.4524 89.1283C34.2464 88.7717 34.1276 88.3716 34.1055 87.9605C34.1055 87.205 34.6338 86.9038 35.2907 87.2772C35.6353 87.5021 35.922 87.8051 36.1276 88.1616C36.3332 88.518 36.4519 88.9179 36.4741 89.3289Z" fill="#455A64"/>
<path d="M35.6941 88.8806C35.6941 89.1395 35.518 89.2434 35.2908 89.1148C35.1727 89.0375 35.0744 88.9334 35.004 88.811C34.9337 88.6887 34.8931 88.5514 34.8857 88.4104C34.8857 88.1515 35.0619 88.0476 35.2908 88.1762C35.4084 88.2539 35.5061 88.3581 35.5762 88.4805C35.6462 88.6028 35.6866 88.7398 35.6941 88.8806Z" fill="#263238"/>
<path d="M37.0148 89.0179C36.9927 88.6067 36.8738 88.2066 36.6679 87.8501C36.4619 87.4936 36.1747 87.1908 35.8296 86.9662C35.3629 86.6968 34.9614 86.776 34.7729 87.1177C34.96 87.1241 35.1422 87.1793 35.3013 87.2779C35.6459 87.5029 35.9326 87.8059 36.1382 88.1623C36.3438 88.5188 36.4625 88.9187 36.4847 89.3296C36.4847 89.7029 36.3544 89.9653 36.1448 90.0921L36.6608 89.7945C36.8739 89.6748 37.0148 89.4053 37.0148 89.0179Z" fill="#263238"/>
<path d="M35.3417 86.7388C34.5175 86.2633 33.8501 86.649 33.8501 87.6L36.8334 89.3223C36.8334 88.3695 36.1659 87.2143 35.3417 86.7388Z" fill="#0071CE"/>
<path d="M35.8771 86.3216C35.2713 85.9694 34.7518 86.0891 34.5176 86.5523C34.806 86.5141 35.0986 86.581 35.3418 86.7407C36.166 87.2162 36.8334 88.3715 36.8334 89.3242L37.3617 88.9051C37.3688 87.9471 36.7013 86.7971 35.8771 86.3216Z" fill="#0071CE"/>
<path opacity="0.5" d="M35.8771 86.3216C35.2713 85.9694 34.7518 86.0891 34.5176 86.5523C34.806 86.5141 35.0986 86.581 35.3418 86.7407C36.166 87.2162 36.8334 88.3715 36.8334 89.3242L37.3617 88.9051C37.3688 87.9471 36.7013 86.7971 35.8771 86.3216Z" fill="black"/>
<path d="M47.4084 83.027C47.3361 83.0268 47.2659 83.0027 47.2087 82.9585C47.1515 82.9142 47.1105 82.8523 47.0922 82.7823C47.0739 82.7123 47.0793 82.6383 47.1075 82.5717C47.1357 82.5051 47.1852 82.4497 47.2482 82.4141C47.3244 82.3712 47.3879 82.3088 47.432 82.2333C47.4761 82.1578 47.4994 82.0719 47.4994 81.9844C47.4994 81.8969 47.4761 81.8111 47.432 81.7355C47.3879 81.66 47.3244 81.5976 47.2482 81.5547L36.2168 75.3645C35.8678 75.17 35.5738 74.8904 35.3619 74.5517C35.1501 74.213 35.0273 73.8262 35.0051 73.4273L33.8111 51.9843C33.7942 51.6912 33.7049 51.4069 33.5512 51.1568C33.3976 50.9066 33.1843 50.6984 32.9306 50.5508L32.1592 50.1C32.0559 50.0411 31.9391 50.0102 31.8202 50.0102C31.7013 50.0102 31.5845 50.0411 31.4812 50.1L30.8331 50.461C30.7581 50.4964 30.6723 50.502 30.5933 50.4767C30.5143 50.4514 30.4478 50.397 30.4073 50.3245C30.3668 50.2521 30.3554 50.1669 30.3752 50.0864C30.3951 50.0058 30.4448 49.9357 30.5144 49.8904L31.1607 49.5382C31.3638 49.424 31.5933 49.3651 31.8262 49.3672C32.0592 49.3694 32.2876 49.4326 32.4885 49.5505L33.2599 50.0013C33.6066 50.2031 33.8977 50.4878 34.1071 50.8299C34.3164 51.1721 34.4374 51.5609 34.4592 51.9614L35.6532 73.3991C35.6689 73.6892 35.758 73.9706 35.9119 74.217C36.0659 74.4634 36.2799 74.6667 36.5337 74.808L47.5652 80.9982C47.743 81.0978 47.8911 81.243 47.9941 81.4188C48.0972 81.5946 48.1515 81.7947 48.1515 81.9985C48.1515 82.2023 48.0972 82.4024 47.9941 82.5782C47.8911 82.7541 47.743 82.8992 47.5652 82.9988C47.516 83.0208 47.4622 83.0305 47.4084 83.027Z" fill="#263238"/>
<path d="M38.1822 76.583C38.0983 76.5826 38.0158 76.5608 37.9427 76.5196L35.9579 75.4066C35.8444 75.3431 35.7608 75.2371 35.7255 75.1119C35.6901 74.9868 35.706 74.8527 35.7695 74.7392C35.833 74.6257 35.939 74.5421 36.0642 74.5067C36.1894 74.4714 36.3235 74.4872 36.4369 74.5507L38.4217 75.6638C38.5161 75.717 38.5903 75.8 38.6326 75.8998C38.675 75.9997 38.6831 76.1107 38.6558 76.2156C38.6284 76.3205 38.5671 76.4134 38.4815 76.4799C38.3958 76.5464 38.2906 76.5826 38.1822 76.583Z" fill="#0071CE"/>
<path d="M39.0454 76.9045C38.9893 76.9042 38.9341 76.8897 38.8852 76.8622L38.1931 76.473C38.1235 76.4277 38.0738 76.3577 38.054 76.2771C38.0341 76.1965 38.0456 76.1114 38.086 76.0389C38.1265 75.9664 38.193 75.9121 38.272 75.8867C38.3511 75.8614 38.4368 75.867 38.5118 75.9024L39.2057 76.2916C39.2687 76.3272 39.3181 76.3826 39.3464 76.4492C39.3746 76.5158 39.38 76.5898 39.3617 76.6598C39.3434 76.7298 39.3024 76.7917 39.2452 76.836C39.188 76.8803 39.1178 76.9043 39.0454 76.9045Z" fill="#253239"/>
<path d="M47.0743 81.5752C46.9902 81.5757 46.9076 81.5538 46.8348 81.5118L44.85 80.3988C44.7938 80.3674 44.7444 80.3252 44.7045 80.2746C44.6646 80.224 44.6351 80.1661 44.6176 80.1041C44.6001 80.0421 44.595 79.9773 44.6025 79.9134C44.6101 79.8494 44.6301 79.7876 44.6616 79.7314C44.7251 79.6179 44.8311 79.5343 44.9563 79.4989C45.0183 79.4814 45.0831 79.4763 45.147 79.4839C45.211 79.4914 45.2728 79.5115 45.329 79.5429L47.3155 80.6577C47.4106 80.7105 47.4854 80.7935 47.5281 80.8935C47.5707 80.9936 47.5789 81.105 47.5512 81.2102C47.5236 81.3154 47.4617 81.4083 47.3753 81.4744C47.289 81.5405 47.183 81.576 47.0743 81.5752Z" fill="#0071CE"/>
<path d="M47.4089 83.0271C47.3366 83.0269 47.2663 83.0028 47.2091 82.9586C47.1519 82.9143 47.111 82.8524 47.0927 82.7824C47.0744 82.7124 47.0798 82.6383 47.108 82.5717C47.1362 82.5051 47.1857 82.4498 47.2486 82.4142C47.3249 82.3713 47.3883 82.3089 47.4325 82.2334C47.4766 82.1579 47.4999 82.072 47.4999 81.9845C47.4999 81.897 47.4766 81.8111 47.4325 81.7356C47.3883 81.6601 47.3249 81.5977 47.2486 81.5548C47.1771 81.5102 47.1255 81.4398 47.1045 81.3581C47.0836 81.2765 47.095 81.1899 47.1363 81.1164C47.1775 81.0429 47.2456 80.9881 47.3262 80.9635C47.4068 80.9389 47.4939 80.9463 47.5692 80.9842C47.747 81.0838 47.895 81.229 47.9981 81.4048C48.1011 81.5806 48.1555 81.7807 48.1555 81.9845C48.1555 82.1883 48.1011 82.3884 47.9981 82.5642C47.895 82.7401 47.747 82.8852 47.5692 82.9848C47.5202 83.0123 47.465 83.0268 47.4089 83.0271Z" fill="#455A64"/>
<path d="M27.4154 85.0658C27.8778 84.7989 27.8778 83.9331 27.4153 83.132C26.9528 82.331 26.2031 81.898 25.7406 82.165C25.2782 82.432 25.2782 83.2978 25.7407 84.0989C26.2032 84.8999 26.953 85.3328 27.4154 85.0658Z" fill="#455A64"/>
<path d="M26.9836 83.8494C26.9836 84.1082 26.8075 84.2121 26.5786 84.0836C26.4607 84.0062 26.3627 83.902 26.2926 83.7796C26.2226 83.6572 26.1824 83.52 26.1753 83.3792C26.1753 83.1203 26.3514 83.0164 26.5786 83.1449C26.6967 83.2222 26.795 83.3263 26.8653 83.4487C26.9357 83.5711 26.9762 83.7084 26.9836 83.8494Z" fill="#263238"/>
<path d="M28.3044 83.9827C28.2818 83.5717 28.1628 83.1717 27.9569 82.8153C27.751 82.4588 27.464 82.1559 27.1192 81.9311C26.6525 81.6616 26.2492 81.7409 26.0625 82.0825C26.2496 82.0887 26.4318 82.1439 26.5908 82.2428C26.9359 82.4673 27.2232 82.7702 27.4291 83.1267C27.6351 83.4832 27.7539 83.8833 27.776 84.2944C27.776 84.6678 27.6457 84.9302 27.4361 85.057L27.9504 84.7594C28.1635 84.6396 28.3044 84.3702 28.3044 83.9827Z" fill="#263238"/>
<path d="M26.6295 81.7075C25.8071 81.232 25.1396 81.6177 25.1396 82.5687L28.1212 84.291C28.1212 83.3383 27.4537 82.183 26.6295 81.7075Z" fill="#0071CE"/>
<path d="M27.1649 81.2864C26.5609 80.9342 26.0414 81.054 25.8071 81.5171C26.095 81.4787 26.3871 81.5456 26.6296 81.7056C27.4537 82.181 28.1212 83.3363 28.1212 84.2891L28.6495 83.8699C28.6566 82.9189 27.9891 81.7619 27.1649 81.2864Z" fill="#0071CE"/>
<path opacity="0.5" d="M27.1649 81.2864C26.5609 80.9342 26.0414 81.054 25.8071 81.5171C26.095 81.4787 26.3871 81.5456 26.6296 81.7056C27.4537 82.181 28.1212 83.3363 28.1212 84.2891L28.6495 83.8699C28.6566 82.9189 27.9891 81.7619 27.1649 81.2864Z" fill="black"/>
<path d="M38.0487 87.8349C37.4817 87.836 36.9239 87.6917 36.4285 87.4157L25.5802 81.3276C25.2313 81.1331 24.9372 80.8535 24.7254 80.5148C24.5135 80.1761 24.3908 79.7893 24.3686 79.3905L23.1746 57.9528C23.1578 57.6599 23.0686 57.3757 22.9149 57.1258C22.7612 56.8759 22.5479 56.6681 22.294 56.521L21.4945 56.0437C21.3977 55.9872 21.3175 55.9061 21.2621 55.8086C21.2068 55.7111 21.1782 55.6007 21.1792 55.4886C21.1803 55.3765 21.211 55.2666 21.2682 55.1702C21.3255 55.0738 21.4072 54.9942 21.5051 54.9395L30.5218 49.8852C30.5594 49.8607 30.6017 49.8442 30.646 49.8366C30.6902 49.8291 30.7356 49.8308 30.7792 49.8416C30.8228 49.8523 30.8637 49.8719 30.8994 49.8991C30.9351 49.9264 30.9648 49.9606 30.9867 49.9998C31.0086 50.039 31.0222 50.0823 31.0267 50.127C31.0312 50.1717 31.0264 50.2168 31.0127 50.2596C30.999 50.3023 30.9766 50.3418 30.947 50.3756C30.9174 50.4093 30.8812 50.4366 30.8406 50.4558L21.8591 55.496L22.6357 55.9504C22.9822 56.1528 23.2731 56.4379 23.4824 56.7803C23.6917 57.1226 23.8129 57.5116 23.835 57.9122L25.0167 79.3482C25.0322 79.6383 25.1212 79.9198 25.2752 80.1662C25.4292 80.4126 25.6432 80.6159 25.8972 80.7571L36.7473 86.8451C37.1445 87.066 37.5916 87.1818 38.0461 87.1818C38.5006 87.1818 38.9476 87.066 39.3449 86.8451L47.2486 82.4142C47.2862 82.3908 47.3281 82.3753 47.3719 82.3685C47.4156 82.3618 47.4603 82.364 47.5032 82.375C47.546 82.386 47.5862 82.4055 47.6213 82.4325C47.6565 82.4595 47.6857 82.4933 47.7074 82.5318C47.7291 82.5704 47.7427 82.613 47.7475 82.657C47.7522 82.701 47.748 82.7456 47.7351 82.7879C47.7222 82.8302 47.7008 82.8695 47.6723 82.9034C47.6438 82.9372 47.6087 82.9649 47.5691 82.9848L39.6636 87.4175C39.1699 87.6924 38.6139 87.8361 38.0487 87.8349Z" fill="#455A64"/>
<path d="M27.7232 82.6473C27.6386 82.6478 27.5554 82.6259 27.4819 82.5839L25.4972 81.4709C25.3898 81.404 25.3124 81.2983 25.281 81.1758C25.2496 81.0534 25.2667 80.9235 25.3286 80.8132C25.3905 80.703 25.4926 80.6208 25.6135 80.5839C25.7345 80.547 25.865 80.5581 25.978 80.615L27.9627 81.7298C28.0576 81.7825 28.1323 81.8653 28.175 81.9652C28.2177 82.0651 28.226 82.1763 28.1986 82.2814C28.1712 82.3865 28.1096 82.4794 28.0235 82.5457C27.9374 82.6119 27.8318 82.6477 27.7232 82.6473Z" fill="#0071CE"/>
<path d="M36.6149 87.6364C36.5311 87.6367 36.4486 87.6155 36.3753 87.5748L34.3888 86.46C34.3326 86.4279 34.2833 86.385 34.2437 86.3338C34.2041 86.2826 34.1749 86.224 34.1579 86.1616C34.1409 86.0991 34.1364 86.0339 34.1446 85.9697C34.1528 85.9055 34.1735 85.8435 34.2057 85.7873C34.2378 85.7311 34.2807 85.6818 34.3319 85.6421C34.3831 85.6025 34.4417 85.5734 34.5041 85.5564C34.5666 85.5394 34.6318 85.5348 34.696 85.543C34.7602 85.5512 34.8222 85.572 34.8784 85.6041L36.8544 86.7136C36.9493 86.7664 37.024 86.8492 37.0667 86.949C37.1094 87.0489 37.1177 87.1601 37.0903 87.2652C37.0628 87.3703 37.0012 87.4633 36.9152 87.5295C36.8291 87.5958 36.7235 87.6315 36.6149 87.6311V87.6364Z" fill="#0071CE"/>
<path d="M38.0485 87.8397C37.6262 87.8399 37.2077 87.7592 36.8158 87.602C36.7739 87.5875 36.7353 87.5647 36.7025 87.5349C36.6697 87.5051 36.6433 87.4689 36.6249 87.4286C36.6064 87.3883 36.5964 87.3446 36.5953 87.3003C36.5942 87.256 36.6022 87.2119 36.6186 87.1708C36.6351 87.1296 36.6598 87.0922 36.6911 87.0608C36.7224 87.0295 36.7598 87.0048 36.801 86.9883C36.8421 86.9719 36.8862 86.9639 36.9305 86.9649C36.9748 86.966 37.0185 86.976 37.0588 86.9944C37.3728 87.1211 37.7082 87.1863 38.0468 87.1864C38.0917 87.1831 38.1368 87.1891 38.1793 87.204C38.2218 87.2189 38.2608 87.2425 38.2937 87.2731C38.3267 87.3038 38.3531 87.3409 38.371 87.3822C38.389 87.4235 38.3983 87.468 38.3983 87.5131C38.3983 87.5581 38.389 87.6027 38.371 87.6439C38.3531 87.6852 38.3267 87.7224 38.2937 87.753C38.2608 87.7837 38.2218 87.8072 38.1793 87.8221C38.1368 87.837 38.0917 87.843 38.0468 87.8397H38.0485Z" fill="#455A64"/>
<path d="M26.8023 81.6324C26.7164 81.6326 26.632 81.6102 26.5575 81.5675C26.483 81.5248 26.4211 81.4632 26.3779 81.389C26.3347 81.3148 26.3118 81.2305 26.3115 81.1446C26.3112 81.0588 26.3335 80.9743 26.3761 80.8998L26.7389 80.2587C26.7692 80.1999 26.811 80.1477 26.862 80.1055C26.9129 80.0632 26.9719 80.0316 27.0353 80.0127C27.0988 79.9938 27.1654 79.9879 27.2312 79.9953C27.297 80.0028 27.3606 80.0235 27.4181 80.0561C27.4757 80.0888 27.5261 80.1327 27.5663 80.1853C27.6065 80.238 27.6356 80.2982 27.652 80.3623C27.6683 80.4265 27.6715 80.4933 27.6614 80.5587C27.6512 80.6241 27.628 80.6868 27.593 80.743L27.2285 81.3841C27.1858 81.4595 27.1238 81.5222 27.0489 81.5658C26.9741 81.6095 26.8889 81.6324 26.8023 81.6324Z" fill="#0071CE"/>
<path d="M27.2849 80.6166C27.2285 80.6165 27.1732 80.6013 27.1246 80.5726C27.0872 80.5515 27.0543 80.5233 27.0278 80.4894C27.0013 80.4556 26.9818 80.4169 26.9703 80.3754C26.9588 80.334 26.9557 80.2908 26.961 80.2481C26.9663 80.2055 26.9801 80.1643 27.0014 80.127L28.6216 77.2705C28.7415 77.0592 28.9154 76.8834 29.1255 76.7612C29.3356 76.639 29.5743 76.5747 29.8173 76.5749H30.6222C30.9434 76.5744 31.2513 76.4466 31.4784 76.2195C31.7055 75.9924 31.8333 75.6845 31.8338 75.3633C31.8305 75.3184 31.8365 75.2732 31.8514 75.2308C31.8663 75.1883 31.8899 75.1493 31.9205 75.1163C31.9512 75.0833 31.9883 75.057 32.0296 75.039C32.0709 75.021 32.1154 75.0117 32.1605 75.0117C32.2055 75.0117 32.2501 75.021 32.2914 75.039C32.3326 75.057 32.3698 75.0833 32.4004 75.1163C32.4311 75.1493 32.4546 75.1883 32.4695 75.2308C32.4845 75.2732 32.4905 75.3184 32.4872 75.3633C32.4867 75.8578 32.29 76.3319 31.9404 76.6815C31.5907 77.0312 31.1166 77.2278 30.6222 77.2283H29.8173C29.6899 77.2282 29.5648 77.2618 29.4546 77.3259C29.3445 77.3899 29.2533 77.482 29.1904 77.5928L27.5702 80.4493C27.5419 80.5001 27.5005 80.5424 27.4504 80.5718C27.4002 80.6013 27.3431 80.6167 27.2849 80.6166Z" fill="#455A64"/>
<path d="M23.6215 60.4514C23.5498 60.4511 23.4803 60.4273 23.4234 60.3837C23.3666 60.34 23.3257 60.2789 23.3069 60.2098C23.2881 60.1406 23.2925 60.0672 23.3194 60.0008C23.3463 59.9344 23.3943 59.8786 23.4559 59.8421L34.0225 53.7276C34.0596 53.7061 34.1006 53.6921 34.1431 53.6865C34.1856 53.6808 34.2288 53.6836 34.2703 53.6946C34.3118 53.7056 34.3506 53.7247 34.3847 53.7508C34.4188 53.7769 34.4474 53.8094 34.4689 53.8465C34.4904 53.8836 34.5044 53.9246 34.5101 53.9671C34.5157 54.0096 34.513 54.0529 34.5019 54.0943C34.4909 54.1358 34.4718 54.1747 34.4457 54.2087C34.4197 54.2428 34.3871 54.2714 34.35 54.2929L23.7835 60.4074C23.7344 60.4362 23.6784 60.4514 23.6215 60.4514Z" fill="#455A64"/>
<path d="M28.5862 82.9681C28.5301 82.9678 28.475 82.9533 28.426 82.9259L27.7321 82.5367C27.6948 82.5156 27.6619 82.4874 27.6355 82.4537C27.609 82.4199 27.5895 82.3813 27.5779 82.34C27.5664 82.2987 27.5631 82.2556 27.5683 82.213C27.5734 82.1705 27.5869 82.1293 27.608 82.092C27.629 82.0546 27.6572 82.0218 27.6909 81.9953C27.7247 81.9689 27.7633 81.9493 27.8046 81.9378C27.8459 81.9263 27.889 81.923 27.9316 81.9281C27.9742 81.9333 28.0153 81.9468 28.0526 81.9678L28.7465 82.3553C28.8095 82.3908 28.859 82.4462 28.8872 82.5128C28.9154 82.5794 28.9208 82.6535 28.9025 82.7234C28.8842 82.7934 28.8432 82.8554 28.786 82.8996C28.7288 82.9439 28.6586 82.968 28.5862 82.9681Z" fill="#455A64"/>
<path d="M36.1114 65.5776C36.068 65.5776 36.0263 65.5604 35.9956 65.5297C35.9649 65.4989 35.9477 65.4573 35.9477 65.4138V56.5362C35.9453 56.5134 35.9477 56.4903 35.9548 56.4685C35.9619 56.4467 35.9735 56.4266 35.9889 56.4096C36.0043 56.3926 36.023 56.3789 36.044 56.3696C36.0649 56.3603 36.0876 56.3555 36.1106 56.3555C36.1335 56.3555 36.1562 56.3603 36.1771 56.3696C36.1981 56.3789 36.2169 56.3926 36.2322 56.4096C36.2476 56.4266 36.2592 56.4467 36.2663 56.4685C36.2734 56.4903 36.2758 56.5134 36.2735 56.5362V65.4174C36.2725 65.4599 36.2551 65.5004 36.2249 65.5303C36.1947 65.5602 36.154 65.5772 36.1114 65.5776Z" fill="#263238"/>
<path d="M37.4444 66.345C37.401 66.345 37.3593 66.3278 37.3286 66.297C37.2979 66.2663 37.2807 66.2247 37.2807 66.1812V57.3018C37.2783 57.279 37.2807 57.256 37.2878 57.2341C37.2949 57.2123 37.3065 57.1923 37.3219 57.1752C37.3373 57.1582 37.356 57.1446 37.377 57.1352C37.3979 57.1259 37.4206 57.1211 37.4436 57.1211C37.4665 57.1211 37.4892 57.1259 37.5101 57.1352C37.5311 57.1446 37.5499 57.1582 37.5652 57.1752C37.5806 57.1923 37.5922 57.2123 37.5993 57.2341C37.6064 57.256 37.6088 57.279 37.6065 57.3018V66.183C37.606 66.2258 37.5888 66.2668 37.5585 66.2971C37.5282 66.3273 37.4873 66.3446 37.4444 66.345Z" fill="#263238"/>
<path d="M38.7795 67.1072C38.7579 67.1074 38.7365 67.1033 38.7166 67.0952C38.6966 67.087 38.6784 67.075 38.6632 67.0597C38.6479 67.0445 38.6359 67.0263 38.6277 67.0063C38.6196 66.9864 38.6155 66.9649 38.6157 66.9434V58.0622C38.6157 58.0188 38.633 57.9771 38.6637 57.9464C38.6944 57.9157 38.7361 57.8984 38.7795 57.8984C38.8229 57.8984 38.8646 57.9157 38.8953 57.9464C38.926 57.9771 38.9433 58.0188 38.9433 58.0622V66.9434C38.9433 66.9868 38.926 67.0285 38.8953 67.0592C38.8646 67.0899 38.8229 67.1072 38.7795 67.1072Z" fill="#263238"/>
<path d="M40.1145 67.8689C40.093 67.8689 40.0717 67.8646 40.0518 67.8564C40.0319 67.8482 40.0139 67.8361 39.9987 67.8209C39.9834 67.8057 39.9714 67.7876 39.9631 67.7678C39.9549 67.7479 39.9507 67.7266 39.9507 67.7051V58.8239C39.9507 58.7805 39.9679 58.7388 39.9987 58.7081C40.0294 58.6774 40.071 58.6602 40.1145 58.6602C40.1579 58.6602 40.1996 58.6774 40.2303 58.7081C40.261 58.7388 40.2782 58.7805 40.2782 58.8239V67.7051C40.2782 67.7485 40.261 67.7902 40.2303 67.8209C40.1996 67.8516 40.1579 67.8689 40.1145 67.8689Z" fill="#263238"/>
<path d="M41.4489 68.6314C41.4055 68.6314 41.3638 68.6141 41.3331 68.5834C41.3024 68.5527 41.2852 68.511 41.2852 68.4676V59.5935C41.2852 59.55 41.3024 59.5084 41.3331 59.4777C41.3638 59.4469 41.4055 59.4297 41.4489 59.4297C41.4924 59.4297 41.534 59.4469 41.5647 59.4777C41.5955 59.5084 41.6127 59.55 41.6127 59.5935V68.4746C41.6109 68.5168 41.5928 68.5567 41.5623 68.5859C41.5318 68.6151 41.4912 68.6314 41.4489 68.6314Z" fill="#263238"/>
<path d="M42.7839 69.3923C42.7405 69.3923 42.6988 69.3751 42.6681 69.3443C42.6374 69.3136 42.6201 69.272 42.6201 69.2285V60.3474C42.6201 60.3039 42.6374 60.2623 42.6681 60.2316C42.6988 60.2009 42.7405 60.1836 42.7839 60.1836C42.8273 60.1836 42.869 60.2009 42.8997 60.2316C42.9304 60.2623 42.9477 60.3039 42.9477 60.3474V69.2285C42.9477 69.272 42.9304 69.3136 42.8997 69.3443C42.869 69.3751 42.8273 69.3923 42.7839 69.3923Z" fill="#263238"/>
<path d="M44.1189 70.1593C44.0754 70.1593 44.0338 70.1421 44.003 70.1113C43.9723 70.0806 43.9551 70.039 43.9551 69.9955V61.1091C43.9551 61.0657 43.9723 61.024 44.003 60.9933C44.0338 60.9626 44.0754 60.9453 44.1189 60.9453C44.1623 60.9453 44.204 60.9626 44.2347 60.9933C44.2654 61.024 44.2826 61.0657 44.2826 61.1091V69.9832C44.2843 70.0057 44.2814 70.0284 44.2739 70.0497C44.2664 70.071 44.2546 70.0905 44.2393 70.1071C44.2239 70.1236 44.2052 70.1368 44.1845 70.1458C44.1638 70.1548 44.1414 70.1594 44.1189 70.1593Z" fill="#263238"/>
<path d="M45.4538 70.9157C45.4104 70.9157 45.3687 70.8985 45.338 70.8678C45.3073 70.8371 45.29 70.7954 45.29 70.752V61.8708C45.29 61.8274 45.3073 61.7857 45.338 61.755C45.3687 61.7243 45.4104 61.707 45.4538 61.707C45.4973 61.707 45.5389 61.7243 45.5696 61.755C45.6003 61.7857 45.6176 61.8274 45.6176 61.8708V70.752C45.6176 70.7954 45.6003 70.8371 45.5696 70.8678C45.5389 70.8985 45.4973 70.9157 45.4538 70.9157Z" fill="#263238"/>
<path d="M46.7888 71.6775C46.7453 71.6775 46.7037 71.6602 46.673 71.6295C46.6423 71.5988 46.625 71.5571 46.625 71.5137V62.6325C46.625 62.5891 46.6423 62.5474 46.673 62.5167C46.7037 62.486 46.7453 62.4688 46.7888 62.4688C46.8322 62.4688 46.8739 62.486 46.9046 62.5167C46.9353 62.5474 46.9526 62.5891 46.9526 62.6325V71.5137C46.9526 71.5571 46.9353 71.5988 46.9046 71.6295C46.8739 71.6602 46.8322 71.6775 46.7888 71.6775Z" fill="#263238"/>
<path d="M48.1237 72.448C48.1022 72.448 48.0809 72.4438 48.0611 72.4355C48.0412 72.4273 48.0231 72.4152 48.0079 72.4C47.9927 72.3848 47.9807 72.3668 47.9724 72.3469C47.9642 72.327 47.96 72.3057 47.96 72.2842V63.3942C47.96 63.3508 47.9772 63.3092 48.0079 63.2784C48.0386 63.2477 48.0803 63.2305 48.1237 63.2305C48.1672 63.2305 48.2088 63.2477 48.2396 63.2784C48.2703 63.3092 48.2875 63.3508 48.2875 63.3942V72.2719C48.2892 72.2944 48.2862 72.317 48.2788 72.3384C48.2713 72.3597 48.2595 72.3792 48.2441 72.3957C48.2288 72.4123 48.2101 72.4255 48.1894 72.4345C48.1687 72.4434 48.1463 72.4481 48.1237 72.448Z" fill="#263238"/>
<path d="M49.4587 73.2009C49.4153 73.2009 49.3736 73.1836 49.3429 73.1529C49.3122 73.1222 49.2949 73.0806 49.2949 73.0371V64.156C49.2949 64.1125 49.3122 64.0709 49.3429 64.0402C49.3736 64.0094 49.4153 63.9922 49.4587 63.9922C49.5021 63.9922 49.5438 64.0094 49.5745 64.0402C49.6052 64.0709 49.6225 64.1125 49.6225 64.156V73.0371C49.6227 73.0587 49.6186 73.0801 49.6105 73.1001C49.6024 73.1201 49.5903 73.1382 49.575 73.1535C49.5598 73.1687 49.5416 73.1808 49.5217 73.1889C49.5017 73.1971 49.4803 73.2011 49.4587 73.2009Z" fill="#263238"/>
<path d="M50.7933 73.964C50.7501 73.9635 50.7089 73.946 50.6786 73.9154C50.6483 73.8847 50.6312 73.8433 50.6313 73.8002V64.919C50.6289 64.8962 50.6313 64.8731 50.6384 64.8513C50.6455 64.8295 50.6571 64.8095 50.6725 64.7924C50.6878 64.7754 50.7066 64.7618 50.7276 64.7524C50.7485 64.7431 50.7712 64.7383 50.7942 64.7383C50.8171 64.7383 50.8398 64.7431 50.8607 64.7524C50.8817 64.7618 50.9005 64.7754 50.9158 64.7924C50.9312 64.8095 50.9428 64.8295 50.9499 64.8513C50.957 64.8731 50.9594 64.8962 50.957 64.919V73.8002C50.957 73.8436 50.9398 73.8853 50.9091 73.916C50.8784 73.9467 50.8367 73.964 50.7933 73.964Z" fill="#263238"/>
<path d="M52.137 73.9649C52.0939 73.9644 52.0527 73.947 52.0223 73.9163C51.992 73.8856 51.975 73.8442 51.975 73.8011V65.6807C51.9726 65.6579 51.9751 65.6349 51.9822 65.6131C51.9893 65.5912 52.0009 65.5712 52.0162 65.5541C52.0316 65.5371 52.0504 65.5235 52.0713 65.5141C52.0923 65.5048 52.115 65.5 52.1379 65.5C52.1608 65.5 52.1835 65.5048 52.2045 65.5141C52.2254 65.5235 52.2442 65.5371 52.2596 65.5541C52.2749 65.5712 52.2865 65.5912 52.2936 65.6131C52.3007 65.6349 52.3032 65.6579 52.3008 65.6807V73.8011C52.3008 73.8445 52.2836 73.8862 52.2528 73.9169C52.2221 73.9476 52.1805 73.9649 52.137 73.9649Z" fill="#263238"/>
<path d="M53.465 72.8194C53.4435 72.8196 53.4223 72.8156 53.4024 72.8075C53.3826 72.7995 53.3645 72.7876 53.3493 72.7725C53.334 72.7575 53.3219 72.7395 53.3137 72.7197C53.3054 72.7 53.3012 72.6788 53.3012 72.6573V66.4425C53.2988 66.4197 53.3012 66.3966 53.3083 66.3748C53.3155 66.353 53.3271 66.3329 53.3424 66.3158C53.3578 66.2988 53.3765 66.2852 53.3975 66.2759C53.4185 66.2665 53.4411 66.2617 53.4641 66.2617C53.487 66.2617 53.5097 66.2665 53.5307 66.2759C53.5516 66.2852 53.5704 66.2988 53.5857 66.3158C53.6011 66.3329 53.6127 66.353 53.6198 66.3748C53.6269 66.3966 53.6294 66.4197 53.627 66.4425V72.6573C53.627 72.6786 53.6228 72.6997 53.6146 72.7193C53.6065 72.739 53.5946 72.7569 53.5795 72.7719C53.5645 72.7869 53.5466 72.7989 53.527 72.807C53.5073 72.8152 53.4862 72.8194 53.465 72.8194Z" fill="#263238"/>
<path d="M54.8 71.4911C54.7566 71.4911 54.7149 71.4738 54.6842 71.4431C54.6535 71.4124 54.6362 71.3707 54.6362 71.3273V67.2028C54.6362 67.1594 54.6535 67.1177 54.6842 67.087C54.7149 67.0563 54.7566 67.0391 54.8 67.0391C54.8434 67.0391 54.8851 67.0563 54.9158 67.087C54.9465 67.1177 54.9638 67.1594 54.9638 67.2028V71.3273C54.9638 71.3707 54.9465 71.4124 54.9158 71.4431C54.8851 71.4738 54.8434 71.4911 54.8 71.4911Z" fill="#263238"/>
<path d="M56.135 70.2874C56.0915 70.2874 56.0499 70.2702 56.0192 70.2395C55.9884 70.2088 55.9712 70.1671 55.9712 70.1237V67.9646C55.9712 67.9211 55.9884 67.8795 56.0192 67.8488C56.0499 67.818 56.0915 67.8008 56.135 67.8008C56.1784 67.8008 56.2201 67.818 56.2508 67.8488C56.2815 67.8795 56.2988 67.9211 56.2988 67.9646V70.1237C56.2988 70.1671 56.2815 70.2088 56.2508 70.2395C56.2201 70.2702 56.1784 70.2874 56.135 70.2874Z" fill="#263238"/>
<path d="M56.1418 70.4405C56.1132 70.4409 56.085 70.433 56.0608 70.4176L34.3361 57.9721C34.3156 57.9624 34.2974 57.9487 34.2826 57.9316C34.2677 57.9146 34.2566 57.8947 34.2498 57.8732C34.243 57.8516 34.2407 57.8289 34.2431 57.8065C34.2455 57.784 34.2526 57.7623 34.2638 57.7427C34.275 57.7231 34.2901 57.706 34.3082 57.6925C34.3264 57.679 34.3471 57.6695 34.3691 57.6644C34.3911 57.6593 34.4139 57.6588 34.4361 57.663C34.4583 57.6671 34.4794 57.6758 34.4981 57.6885L56.2228 70.1341C56.2604 70.1558 56.2878 70.1916 56.2991 70.2335C56.3103 70.2755 56.3044 70.3202 56.2827 70.3578C56.2687 70.3828 56.2482 70.4037 56.2235 70.4182C56.1987 70.4328 56.1705 70.4405 56.1418 70.4405Z" fill="#263238"/>
<path d="M54.6029 71.7806C54.5746 71.7802 54.5468 71.7729 54.5219 71.7594L34.5881 60.3388C34.5518 60.3177 34.525 60.2834 34.5135 60.243C34.502 60.2025 34.5067 60.1592 34.5265 60.1222C34.5371 60.1034 34.5513 60.087 34.5683 60.0737C34.5853 60.0604 34.6047 60.0507 34.6255 60.0449C34.6463 60.0392 34.668 60.0377 34.6894 60.0403C34.7108 60.043 34.7314 60.0499 34.7501 60.0606L54.6821 71.4812C54.7142 71.4985 54.7396 71.526 54.7541 71.5595C54.7685 71.5929 54.7713 71.6303 54.762 71.6655C54.7526 71.7008 54.7316 71.7318 54.7024 71.7536C54.6732 71.7755 54.6375 71.7868 54.6011 71.7859L54.6029 71.7806Z" fill="#263238"/>
<path d="M53.1761 73.1854C53.1475 73.1853 53.1195 73.1774 53.0951 73.1625L34.7164 62.633C34.6977 62.6223 34.6812 62.6081 34.6679 62.5911C34.6547 62.5741 34.6449 62.5547 34.6392 62.5339C34.6335 62.5131 34.6319 62.4914 34.6346 62.4701C34.6372 62.4487 34.6441 62.428 34.6548 62.4093C34.6768 62.3721 34.7126 62.3449 34.7544 62.3338C34.7962 62.3226 34.8407 62.3282 34.8785 62.3494L53.2589 72.879C53.2961 72.901 53.3233 72.9368 53.3344 72.9786C53.3456 73.0204 53.34 73.0649 53.3188 73.1026C53.3046 73.1279 53.2839 73.1489 53.2588 73.1635C53.2337 73.1781 53.2051 73.1856 53.1761 73.1854Z" fill="#263238"/>
<path d="M51.7305 74.6605C51.673 74.6607 51.6164 74.6455 51.5668 74.6165L34.8963 65.0661C34.8209 65.0229 34.7657 64.9515 34.7429 64.8676C34.7201 64.7837 34.7316 64.6942 34.7748 64.6188C34.818 64.5434 34.8894 64.4882 34.9733 64.4654C35.0572 64.4426 35.1467 64.4541 35.2221 64.4973L51.6847 73.9297L57.123 68.9264L34.5001 55.9648C34.4302 55.919 34.3804 55.8483 34.361 55.767C34.3416 55.6857 34.354 55.6001 34.3956 55.5277C34.4372 55.4552 34.5049 55.4014 34.5849 55.3773C34.6649 55.3531 34.7511 55.3604 34.8259 55.3977L57.8362 68.5742C57.8806 68.6002 57.9183 68.6362 57.9464 68.6793C57.9745 68.7224 57.9923 68.7714 57.9982 68.8225C58.0038 68.8735 57.9973 68.9251 57.9792 68.9731C57.9612 69.0212 57.9321 69.0643 57.8943 69.099L51.9507 74.576C51.8903 74.6305 51.8119 74.6606 51.7305 74.6605Z" fill="#263238"/>
<path d="M25.5448 71.4171C25.5162 71.4173 25.4881 71.41 25.4633 71.3957C25.4386 71.3815 25.4181 71.3609 25.4039 71.336C25.393 71.3175 25.3858 71.2969 25.3829 71.2756C25.3799 71.2542 25.3813 71.2325 25.3869 71.2116C25.3924 71.1908 25.4021 71.1713 25.4153 71.1543C25.4285 71.1372 25.445 71.123 25.4638 71.1124L35.627 65.2039C35.6457 65.1925 35.6664 65.1849 35.6881 65.1816C35.7097 65.1783 35.7318 65.1793 35.753 65.1847C35.7742 65.1901 35.7941 65.1996 35.8116 65.2128C35.8291 65.226 35.8437 65.2426 35.8546 65.2615C35.8656 65.2805 35.8726 65.3015 35.8753 65.3232C35.878 65.3449 35.8764 65.3669 35.8704 65.388C35.8645 65.4091 35.8544 65.4287 35.8407 65.4458C35.827 65.4629 35.8101 65.4771 35.7908 65.4875L25.6346 71.3924C25.6075 71.4085 25.5764 71.4171 25.5448 71.4171Z" fill="#37474F"/>
<path d="M26.8866 72.1778C26.8581 72.1778 26.8301 72.1703 26.8054 72.156C26.7807 72.1418 26.7601 72.1214 26.7457 72.0968C26.7348 72.0783 26.7276 72.0577 26.7246 72.0363C26.7217 72.015 26.7231 71.9932 26.7287 71.9724C26.7342 71.9516 26.7439 71.9321 26.7571 71.915C26.7703 71.898 26.7868 71.8838 26.8056 71.8732L36.9688 65.9647C36.9874 65.9513 37.0085 65.9419 37.0309 65.9372C37.0533 65.9324 37.0764 65.9324 37.0988 65.9371C37.1212 65.9419 37.1424 65.9513 37.1609 65.9647C37.1795 65.9781 37.195 65.9953 37.2065 66.0151C37.218 66.0349 37.2252 66.0568 37.2277 66.0796C37.2302 66.1024 37.2279 66.1254 37.2209 66.1472C37.214 66.169 37.2025 66.1891 37.1873 66.2062C37.1721 66.2233 37.1535 66.237 37.1326 66.2465L26.9694 72.1549C26.9444 72.17 26.9158 72.178 26.8866 72.1778Z" fill="#37474F"/>
<path d="M28.2236 72.9399C28.1878 72.9397 28.153 72.9278 28.1246 72.906C28.0961 72.8842 28.0757 72.8536 28.0663 72.8191C28.0569 72.7845 28.0591 72.7478 28.0725 72.7146C28.086 72.6814 28.11 72.6535 28.1408 72.6352L38.304 66.7268C38.3416 66.7065 38.3855 66.7016 38.4266 66.7132C38.4676 66.7248 38.5025 66.752 38.5239 66.7889C38.5452 66.8258 38.5513 66.8696 38.5408 66.911C38.5304 66.9523 38.5042 66.988 38.4678 67.0103L28.3046 72.9188C28.2797 72.9322 28.2519 72.9395 28.2236 72.9399Z" fill="#37474F"/>
<path d="M29.5585 73.7052C29.5299 73.7043 29.502 73.6964 29.4771 73.6823C29.4523 73.6682 29.4312 73.6482 29.4158 73.6242C29.3946 73.5865 29.389 73.5419 29.4002 73.5001C29.4114 73.4583 29.4385 73.4226 29.4757 73.4005L39.6336 67.4921C39.6522 67.4786 39.6733 67.4693 39.6957 67.4645C39.7181 67.4598 39.7413 67.4597 39.7637 67.4645C39.7861 67.4692 39.8072 67.4786 39.8257 67.492C39.8443 67.5055 39.8598 67.5226 39.8713 67.5424C39.8828 67.5622 39.8901 67.5842 39.8925 67.6069C39.895 67.6297 39.8927 67.6527 39.8857 67.6745C39.8788 67.6963 39.8673 67.7164 39.8521 67.7336C39.8369 67.7507 39.8183 67.7644 39.7974 67.7738L29.6395 73.6841C29.615 73.6985 29.5869 73.7058 29.5585 73.7052Z" fill="#37474F"/>
<path d="M30.893 74.4621C30.8572 74.4619 30.8224 74.45 30.794 74.4282C30.7656 74.4063 30.7451 74.3758 30.7357 74.3412C30.7263 74.3067 30.7285 74.2699 30.742 74.2367C30.7554 74.2035 30.7794 74.1757 30.8102 74.1574L40.9735 68.249C41.0111 68.227 41.0559 68.2209 41.098 68.232C41.1401 68.243 41.1761 68.2704 41.198 68.308C41.22 68.3456 41.2261 68.3903 41.215 68.4324C41.204 68.4745 41.1766 68.5105 41.139 68.5325L30.974 74.4409C30.9493 74.4549 30.9214 74.4622 30.893 74.4621Z" fill="#37474F"/>
<path d="M32.2367 75.226C32.2081 75.2251 32.1802 75.2173 32.1554 75.2031C32.1305 75.189 32.1095 75.1691 32.0941 75.145C32.0728 75.1073 32.0672 75.0628 32.0784 75.021C32.0896 74.9792 32.1167 74.9434 32.1539 74.9214L42.3172 69.0129C42.3357 69.0003 42.3566 68.9915 42.3787 68.9873C42.4007 68.9831 42.4234 68.9834 42.4453 68.9883C42.4672 68.9932 42.4879 69.0026 42.506 69.0158C42.5241 69.029 42.5394 69.0458 42.5507 69.0652C42.5621 69.0845 42.5694 69.106 42.5721 69.1283C42.5748 69.1506 42.5729 69.1732 42.5666 69.1947C42.5602 69.2162 42.5494 69.2362 42.535 69.2534C42.5206 69.2706 42.5028 69.2847 42.4827 69.2947L32.3177 75.2031C32.2935 75.2184 32.2654 75.2264 32.2367 75.226Z" fill="#37474F"/>
<path d="M33.5632 75.9896C33.5346 75.9899 33.5065 75.9825 33.4817 75.9683C33.4569 75.954 33.4364 75.9334 33.4223 75.9086C33.4004 75.8712 33.3943 75.8267 33.4052 75.7848C33.4161 75.7429 33.4431 75.707 33.4804 75.6849L43.6436 69.7765C43.6622 69.7655 43.6827 69.7583 43.7041 69.7554C43.7255 69.7525 43.7472 69.7538 43.768 69.7594C43.7889 69.765 43.8084 69.7747 43.8254 69.7879C43.8425 69.8011 43.8567 69.8176 43.8673 69.8364C43.8891 69.8738 43.8953 69.9183 43.8844 69.9602C43.8735 70.0021 43.8465 70.038 43.8092 70.06L33.6459 75.9738C33.6202 75.9862 33.5917 75.9916 33.5632 75.9896Z" fill="#37474F"/>
<path d="M34.8979 76.7499C34.8621 76.7497 34.8273 76.7378 34.7989 76.716C34.7705 76.6942 34.75 76.6636 34.7406 76.6291C34.7312 76.5945 34.7334 76.5578 34.7469 76.5246C34.7603 76.4914 34.7843 76.4635 34.8151 76.4452L44.9784 70.5368C45.0155 70.5182 45.0583 70.5145 45.0981 70.5263C45.1379 70.5381 45.1717 70.5646 45.1927 70.6003C45.2138 70.6361 45.2204 70.6786 45.2113 70.7191C45.2023 70.7596 45.1782 70.7951 45.1439 70.8186L34.9807 76.727C34.9557 76.7421 34.9271 76.75 34.8979 76.7499Z" fill="#37474F"/>
<path d="M36.2326 77.5091C36.204 77.5094 36.1759 77.5021 36.1511 77.4878C36.1264 77.4736 36.1058 77.453 36.0917 77.4281C36.0699 77.3907 36.0637 77.3462 36.0746 77.3043C36.0855 77.2624 36.1125 77.2265 36.1498 77.2045L46.3148 71.296C46.3334 71.285 46.3539 71.2779 46.3753 71.2749C46.3967 71.272 46.4184 71.2734 46.4392 71.2789C46.4601 71.2845 46.4796 71.2942 46.4966 71.3074C46.5137 71.3206 46.5279 71.3371 46.5385 71.3559C46.5597 71.3936 46.5653 71.4381 46.5541 71.4799C46.5429 71.5217 46.5158 71.5575 46.4786 71.5796L36.3154 77.488C36.2899 77.5017 36.2615 77.509 36.2326 77.5091Z" fill="#37474F"/>
<path d="M37.5678 78.2745C37.532 78.2744 37.4972 78.2625 37.4688 78.2407C37.4404 78.2188 37.4199 78.1883 37.4105 78.1537C37.4011 78.1191 37.4033 78.0824 37.4168 78.0492C37.4302 78.016 37.4542 77.9881 37.4851 77.9699L47.65 72.0614C47.6874 72.0396 47.7319 72.0334 47.7739 72.0443C47.8158 72.0552 47.8517 72.0823 47.8737 72.1196C47.8949 72.1573 47.9006 72.2018 47.8894 72.2436C47.8782 72.2854 47.8511 72.3212 47.8138 72.3432L37.6506 78.2517C37.6256 78.2668 37.597 78.2747 37.5678 78.2745Z" fill="#37474F"/>
<path d="M38.9027 79.0342C38.8742 79.0345 38.846 79.0272 38.8213 79.0129C38.7965 78.9987 38.776 78.9781 38.7618 78.9532C38.7509 78.9347 38.7437 78.9141 38.7408 78.8928C38.7378 78.8714 38.7392 78.8497 38.7448 78.8288C38.7503 78.808 38.76 78.7885 38.7732 78.7714C38.7865 78.7544 38.8029 78.7402 38.8217 78.7296L48.9849 72.8211C49.0036 72.8097 49.0243 72.8021 49.046 72.7988C49.0676 72.7954 49.0897 72.7965 49.1109 72.8019C49.1321 72.8073 49.152 72.8168 49.1695 72.83C49.187 72.8432 49.2016 72.8598 49.2125 72.8787C49.2235 72.8977 49.2305 72.9186 49.2332 72.9404C49.236 72.9621 49.2343 72.9841 49.2283 73.0052C49.2224 73.0262 49.2123 73.0459 49.1986 73.063C49.1849 73.0801 49.168 73.0942 49.1487 73.1047L38.9855 79.0131C38.9601 79.0268 38.9316 79.0341 38.9027 79.0342Z" fill="#37474F"/>
<path d="M40.2376 79.7972C40.2091 79.7971 40.1811 79.7896 40.1564 79.7754C40.1317 79.7612 40.1111 79.7408 40.0967 79.7162C40.0862 79.6974 40.0796 79.6767 40.0772 79.6553C40.0748 79.6339 40.0767 79.6122 40.0827 79.5915C40.0888 79.5709 40.0989 79.5516 40.1125 79.5349C40.1261 79.5182 40.1429 79.5044 40.1619 79.4943L50.3251 73.5858C50.3436 73.5724 50.3648 73.563 50.3872 73.5583C50.4096 73.5535 50.4327 73.5535 50.4551 73.5582C50.4775 73.563 50.4987 73.5724 50.5172 73.5858C50.5357 73.5992 50.5513 73.6164 50.5628 73.6362C50.5743 73.656 50.5815 73.6779 50.584 73.7007C50.5865 73.7234 50.5842 73.7465 50.5772 73.7683C50.5702 73.7901 50.5588 73.8102 50.5436 73.8273C50.5284 73.8444 50.5097 73.8581 50.4889 73.8676L40.3204 79.7743C40.2954 79.7894 40.2668 79.7973 40.2376 79.7972Z" fill="#37474F"/>
<path d="M36.2858 75.6529L28.1602 70.9631V59.8242L36.2858 64.5157V75.6529Z" fill="#0071CE"/>
<path d="M36.2856 75.6529V64.5157L44.4095 59.8242V70.9631L36.2856 75.6529Z" fill="#0071CE"/>
<path opacity="0.5" d="M36.2858 75.6529L28.1602 70.9631V59.8242L36.2858 64.5157V75.6529Z" fill="black"/>
<path opacity="0.7" d="M36.2856 75.6529V64.5157L44.4095 59.8242V70.9631L36.2856 75.6529Z" fill="black"/>
<path d="M36.2859 64.0596L27.5298 59.0053L36.2859 53.9492L45.0403 59.0053L36.2859 64.0596Z" fill="#0071CE"/>
<path d="M31.3369 56.8092L40.093 61.8653L41.2325 61.2067L32.4781 56.1523L31.3369 56.8092Z" fill="#0071CE"/>
<path opacity="0.8" d="M31.3369 56.8092L40.093 61.8653L41.2325 61.2067L32.4781 56.1523L31.3369 56.8092Z" fill="white"/>
<path d="M41.2325 56.8092L32.4781 61.8653L31.3369 61.2067L40.093 56.1523L41.2325 56.8092Z" fill="#0071CE"/>
<path opacity="0.8" d="M41.2325 56.8092L32.4781 61.8653L31.3369 61.2067L40.093 56.1523L41.2325 56.8092Z" fill="white"/>
<path d="M36.2859 65.8109L27.5298 60.7548V59.0078L36.2859 64.0621V65.8109Z" fill="#0071CE"/>
<path d="M36.2856 65.8109V64.0621L45.04 59.0078V60.7566L36.2856 65.8109Z" fill="#0071CE"/>
<path opacity="0.3" d="M36.2859 65.8109L27.5298 60.7548V59.0078L36.2859 64.0621V65.8109Z" fill="black"/>
<path opacity="0.5" d="M36.2856 65.8109V64.0621L45.04 59.0078V60.7566L36.2856 65.8109Z" fill="black"/>
<path d="M32.4781 73.4642L31.3369 72.8108V61.207L32.4781 61.8657V73.4642Z" fill="#0071CE"/>
<path d="M40.0933 73.4642L41.2327 72.8108V61.207L40.0933 61.8657V73.4642Z" fill="#0071CE"/>
<path d="M40.4627 63.598C40.4565 63.7209 40.4214 63.8407 40.3602 63.9475C40.299 64.0543 40.2135 64.1451 40.1105 64.2126C39.915 64.3271 39.7583 64.2337 39.7583 64.0083C39.7649 63.8852 39.8002 63.7654 39.8613 63.6584C39.9225 63.5514 40.0078 63.4601 40.1105 63.3919C40.3042 63.2792 40.4627 63.3708 40.4627 63.598Z" fill="#0071CE"/>
<path d="M44.1595 61.4613C44.1531 61.5841 44.1178 61.7038 44.0566 61.8105C43.9954 61.9173 43.91 62.0082 43.8073 62.0759C43.6101 62.1886 43.4551 62.097 43.4551 61.8716C43.4613 61.7484 43.4964 61.6284 43.5576 61.5213C43.6188 61.4143 43.7043 61.3231 43.8073 61.2552C44.001 61.1425 44.1595 61.2341 44.1595 61.4613Z" fill="#0071CE"/>
<path d="M40.1073 63.8949C40.0606 63.8949 40.0158 63.8763 39.9827 63.8433C39.9497 63.8103 39.9312 63.7655 39.9312 63.7188V61.2673C39.9327 60.7588 40.065 60.2592 40.3155 59.8166C40.5659 59.3741 40.926 59.0034 41.3612 58.7402L42.2276 58.2119C42.4022 58.1067 42.6015 58.0498 42.8053 58.047C43.0091 58.0442 43.2099 58.0956 43.3873 58.1959C43.5647 58.2962 43.7122 58.4419 43.8148 58.618C43.9173 58.7941 43.9713 58.9943 43.9711 59.1981V61.579C43.9711 61.6258 43.9525 61.6706 43.9195 61.7036C43.8865 61.7366 43.8417 61.7552 43.795 61.7552C43.7483 61.7552 43.7035 61.7366 43.6704 61.7036C43.6374 61.6706 43.6189 61.6258 43.6189 61.579V59.2069C43.619 59.064 43.5812 58.9237 43.5093 58.8002C43.4374 58.6767 43.3341 58.5746 43.2097 58.5042C43.0854 58.4338 42.9446 58.3976 42.8018 58.3995C42.6589 58.4014 42.5191 58.4411 42.3967 58.5148L41.5302 59.0343C41.1453 59.2666 40.8267 59.5941 40.6049 59.9851C40.3832 60.3762 40.2658 60.8178 40.264 61.2673V63.7241C40.263 63.7667 40.2465 63.8075 40.2177 63.8389C40.1889 63.8703 40.1496 63.8902 40.1073 63.8949Z" fill="#0071CE"/>
<path opacity="0.9" d="M40.1073 63.8949C40.0606 63.8949 40.0158 63.8763 39.9827 63.8433C39.9497 63.8103 39.9312 63.7655 39.9312 63.7188V61.2673C39.9327 60.7588 40.065 60.2592 40.3155 59.8166C40.5659 59.3741 40.926 59.0034 41.3612 58.7402L42.2276 58.2119C42.4022 58.1067 42.6015 58.0498 42.8053 58.047C43.0091 58.0442 43.2099 58.0956 43.3873 58.1959C43.5647 58.2962 43.7122 58.4419 43.8148 58.618C43.9173 58.7941 43.9713 58.9943 43.9711 59.1981V61.579C43.9711 61.6258 43.9525 61.6706 43.9195 61.7036C43.8865 61.7366 43.8417 61.7552 43.795 61.7552C43.7483 61.7552 43.7035 61.7366 43.6704 61.7036C43.6374 61.6706 43.6189 61.6258 43.6189 61.579V59.2069C43.619 59.064 43.5812 58.9237 43.5093 58.8002C43.4374 58.6767 43.3341 58.5746 43.2097 58.5042C43.0854 58.4338 42.9446 58.3976 42.8018 58.3995C42.6589 58.4014 42.5191 58.4411 42.3967 58.5148L41.5302 59.0343C41.1453 59.2666 40.8267 59.5941 40.6049 59.9851C40.3832 60.3762 40.2658 60.8178 40.264 61.2673V63.7241C40.263 63.7667 40.2465 63.8075 40.2177 63.8389C40.1889 63.8703 40.1496 63.8902 40.1073 63.8949Z" fill="black"/>
<path d="M45.6934 59.3906L49.9076 62.0287V73.9724L45.6934 71.3343V59.3906Z" fill="#0071CE"/>
<path d="M37.3477 76.1526V64.209L45.6934 59.3906V71.3343L37.3477 76.1526Z" fill="#0071CE"/>
<path opacity="0.3" d="M37.3477 76.1526V64.209L45.6934 59.3906V71.3343L37.3477 76.1526Z" fill="black"/>
<path d="M37.9515 72.6233L39.1173 65.7938C39.2235 65.1761 39.4642 64.5892 39.8224 64.0749C40.1806 63.5606 40.6476 63.1313 41.1901 62.8176L45.5629 60.2957C45.8101 60.1531 46.0886 60.0734 46.3738 60.0635C46.659 60.0537 46.9423 60.114 47.1988 60.2392C47.4552 60.3644 47.677 60.5506 47.8447 60.7815C48.0124 61.0125 48.1209 61.281 48.1605 61.5637L49.3193 69.7879C49.4769 70.9096 49.1922 72.0485 48.5254 72.9641C47.8586 73.8796 46.8619 74.5001 45.7461 74.6943L40.8661 75.5396C40.4681 75.6073 40.0596 75.5786 39.6749 75.4559C39.2903 75.3333 38.9406 75.1202 38.6552 74.8346C38.3698 74.5491 38.1569 74.1992 38.0345 73.8145C37.9121 73.4298 37.8836 73.0213 37.9515 72.6233Z" fill="#0071CE"/>
<path opacity="0.8" d="M37.9515 72.6233L39.1173 65.7938C39.2235 65.1761 39.4642 64.5892 39.8224 64.0749C40.1806 63.5606 40.6476 63.1313 41.1901 62.8176L45.5629 60.2957C45.8101 60.1531 46.0886 60.0734 46.3738 60.0635C46.659 60.0537 46.9423 60.114 47.1988 60.2392C47.4552 60.3644 47.677 60.5506 47.8447 60.7815C48.0124 61.0125 48.1209 61.281 48.1605 61.5637L49.3193 69.7879C49.4769 70.9096 49.1922 72.0485 48.5254 72.9641C47.8586 73.8796 46.8619 74.5001 45.7461 74.6943L40.8661 75.5396C40.4681 75.6073 40.0596 75.5786 39.6749 75.4559C39.2903 75.3333 38.9406 75.1202 38.6552 74.8346C38.3698 74.5491 38.1569 74.1992 38.0345 73.8145C37.9121 73.4298 37.8836 73.0213 37.9515 72.6233Z" fill="white"/>
<path d="M41.5635 78.7894V66.8457L49.9075 62.0273V73.971L41.5635 78.7894Z" fill="#0071CE"/>
<path opacity="0.5" d="M41.5635 78.7894V66.8457L49.9075 62.0273V73.971L41.5635 78.7894Z" fill="black"/>
<path d="M37.3477 64.2109L41.5637 66.849V78.7927L37.3477 76.1546V64.2109Z" fill="#0071CE"/>
<path opacity="0.3" d="M39.4556 75.3348V65.5273L41.5636 66.8446V78.7883L39.4556 75.3348Z" fill="black"/>
<path d="M44.242 66.4229C44.2358 66.546 44.2007 66.666 44.1395 66.7731C44.0783 66.8802 43.9928 66.9714 43.8898 67.0392C43.6943 67.1519 43.5376 67.0604 43.5376 66.8332C43.5438 66.7102 43.5789 66.5905 43.6401 66.4837C43.7013 66.3769 43.7869 66.2861 43.8898 66.2186C44.0835 66.1094 44.242 66.1974 44.242 66.4229Z" fill="#0071CE"/>
<path d="M47.9408 64.2845C47.9344 64.4075 47.8992 64.5271 47.8381 64.6339C47.7769 64.7407 47.6914 64.8316 47.5885 64.8992C47.3913 65.0136 47.2363 64.9221 47.2363 64.6949C47.2424 64.5719 47.2774 64.4521 47.3387 64.3453C47.3999 64.2385 47.4855 64.1476 47.5885 64.0803C47.7805 63.9658 47.9408 64.0591 47.9408 64.2845Z" fill="#0071CE"/>
<path d="M43.8866 66.721C43.8399 66.721 43.7951 66.7024 43.762 66.6694C43.729 66.6363 43.7104 66.5915 43.7104 66.5448V64.0952C43.7117 63.5861 43.8441 63.086 44.0949 62.6431C44.3457 62.2001 44.7064 61.8292 45.1422 61.5663L46.0087 61.0467C46.1832 60.942 46.3824 60.8855 46.5859 60.8829C46.7894 60.8803 46.9899 60.9318 47.167 61.0321C47.3441 61.1324 47.4914 61.2779 47.5939 61.4537C47.6964 61.6295 47.7504 61.8294 47.7504 62.0329V64.4157C47.7569 64.4417 47.7574 64.4688 47.7518 64.495C47.7463 64.5211 47.7349 64.5457 47.7184 64.5668C47.7019 64.5879 47.6809 64.605 47.6568 64.6168C47.6327 64.6285 47.6063 64.6346 47.5796 64.6346C47.5528 64.6346 47.5264 64.6285 47.5023 64.6168C47.4783 64.605 47.4572 64.5879 47.4407 64.5668C47.4242 64.5457 47.4128 64.5211 47.4073 64.495C47.4017 64.4688 47.4022 64.4417 47.4087 64.4157V62.0329C47.4085 61.89 47.3704 61.7497 47.2983 61.6263C47.2262 61.5029 47.1227 61.4009 46.9983 61.3305C46.8739 61.2602 46.733 61.2241 46.5901 61.2259C46.4472 61.2277 46.3074 61.2674 46.1848 61.3408L45.3183 61.8604C44.9334 62.0929 44.6149 62.4207 44.3934 62.8121C44.1719 63.2036 44.055 63.6454 44.0539 64.0952V66.5501C44.0526 66.5944 44.0347 66.6366 44.0036 66.6683C43.9726 66.6999 43.9308 66.7188 43.8866 66.721Z" fill="#0071CE"/>
<path opacity="0.9" d="M43.8866 66.721C43.8399 66.721 43.7951 66.7024 43.762 66.6694C43.729 66.6363 43.7104 66.5915 43.7104 66.5448V64.0952C43.7117 63.5861 43.8441 63.086 44.0949 62.6431C44.3457 62.2001 44.7064 61.8292 45.1422 61.5663L46.0087 61.0467C46.1832 60.942 46.3824 60.8855 46.5859 60.8829C46.7894 60.8803 46.9899 60.9318 47.167 61.0321C47.3441 61.1324 47.4914 61.2779 47.5939 61.4537C47.6964 61.6295 47.7504 61.8294 47.7504 62.0329V64.4157C47.7569 64.4417 47.7574 64.4688 47.7518 64.495C47.7463 64.5211 47.7349 64.5457 47.7184 64.5668C47.7019 64.5879 47.6809 64.605 47.6568 64.6168C47.6327 64.6285 47.6063 64.6346 47.5796 64.6346C47.5528 64.6346 47.5264 64.6285 47.5023 64.6168C47.4783 64.605 47.4572 64.5879 47.4407 64.5668C47.4242 64.5457 47.4128 64.5211 47.4073 64.495C47.4017 64.4688 47.4022 64.4417 47.4087 64.4157V62.0329C47.4085 61.89 47.3704 61.7497 47.2983 61.6263C47.2262 61.5029 47.1227 61.4009 46.9983 61.3305C46.8739 61.2602 46.733 61.2241 46.5901 61.2259C46.4472 61.2277 46.3074 61.2674 46.1848 61.3408L45.3183 61.8604C44.9334 62.0929 44.6149 62.4207 44.3934 62.8121C44.1719 63.2036 44.055 63.6454 44.0539 64.0952V66.5501C44.0526 66.5944 44.0347 66.6366 44.0036 66.6683C43.9726 66.6999 43.9308 66.7188 43.8866 66.721Z" fill="black"/>
<path d="M46.8346 75.1489C46.7619 75.149 46.6911 75.125 46.6336 75.0805C46.576 75.036 46.5349 74.9736 46.5167 74.9031C46.4986 74.8326 46.5044 74.7581 46.5332 74.6914C46.5621 74.6246 46.6124 74.5693 46.6761 74.5342L57.5156 68.573C57.5908 68.5384 57.6763 68.5335 57.755 68.5594C57.8336 68.5853 57.8995 68.64 57.9395 68.7125C57.9794 68.785 57.9904 68.87 57.9703 68.9503C57.9501 69.0306 57.9003 69.1003 57.8308 69.1453L46.9914 75.1066C46.9437 75.1341 46.8897 75.1486 46.8346 75.1489Z" fill="#37474F"/>
<path d="M40.8911 80.6274C40.832 80.627 40.7741 80.6104 40.7237 80.5794C40.6734 80.5483 40.6326 80.504 40.6058 80.4513C40.585 80.4137 40.5718 80.3724 40.567 80.3298C40.5622 80.2871 40.5659 80.2439 40.5778 80.2027C40.5898 80.1614 40.6097 80.1229 40.6366 80.0895C40.6635 80.056 40.6967 80.0281 40.7344 80.0075L51.5721 74.0409C51.648 74.0014 51.7364 73.9932 51.8184 74.018C51.9003 74.0428 51.9693 74.0988 52.0105 74.1738C52.0517 74.2489 52.0619 74.3371 52.0389 74.4196C52.0159 74.502 51.9614 74.5722 51.8873 74.6151L41.0426 80.5869C40.9962 80.6127 40.9441 80.6266 40.8911 80.6274Z" fill="#37474F"/>
<path d="M48.9213 76.102C48.8988 76.1022 48.8765 76.0975 48.8558 76.0884C48.8352 76.0793 48.8167 76.0659 48.8016 76.0492C48.7723 76.0174 48.7568 75.9753 48.7584 75.932C48.7601 75.8888 48.7787 75.848 48.8104 75.8185L54.754 70.3362C54.7859 70.307 54.828 70.2914 54.8712 70.2931C54.9144 70.2947 54.9553 70.3134 54.9848 70.345C55.0142 70.3772 55.0297 70.4196 55.0281 70.4631C55.0264 70.5066 55.0077 70.5477 54.9759 70.5775L49.0323 76.0527C49.0179 76.0678 49.0008 76.08 48.9817 76.0884C48.9627 76.0969 48.9422 76.1015 48.9213 76.102Z" fill="#37474F"/>
<path d="M43.7263 78.9405C43.7037 78.9406 43.6814 78.936 43.6607 78.9269C43.6401 78.9178 43.6216 78.9044 43.6065 78.8877C43.5918 78.872 43.5803 78.8536 43.5728 78.8335C43.5653 78.8134 43.5618 78.7919 43.5626 78.7705C43.5634 78.749 43.5685 78.7279 43.5776 78.7084C43.5866 78.6889 43.5994 78.6714 43.6153 78.657L49.559 73.18C49.5748 73.1654 49.5934 73.1541 49.6136 73.1467C49.6338 73.1393 49.6553 73.136 49.6768 73.1369C49.6983 73.1378 49.7194 73.1429 49.7389 73.1519C49.7584 73.161 49.776 73.1738 49.7906 73.1897C49.8051 73.2055 49.8164 73.2241 49.8238 73.2443C49.8312 73.2645 49.8346 73.286 49.8337 73.3075C49.8328 73.329 49.8277 73.3501 49.8186 73.3696C49.8095 73.3891 49.7967 73.4067 49.7809 73.4213L43.8372 78.8982C43.8067 78.9256 43.7672 78.9406 43.7263 78.9405Z" fill="#37474F"/>
<path d="M46.2585 77.5144C46.2359 77.5145 46.2136 77.5098 46.193 77.5007C46.1723 77.4916 46.1539 77.4783 46.1387 77.4615C46.124 77.4459 46.1126 77.4275 46.105 77.4073C46.0975 77.3872 46.094 77.3658 46.0948 77.3443C46.0957 77.3229 46.1007 77.3018 46.1098 77.2823C46.1188 77.2628 46.1317 77.2453 46.1475 77.2308L52.0912 71.7538C52.1069 71.7394 52.1254 71.7282 52.1454 71.7208C52.1655 71.7135 52.1868 71.7102 52.2081 71.7111C52.2295 71.712 52.2504 71.7171 52.2698 71.7261C52.2892 71.7351 52.3066 71.7478 52.321 71.7635C52.3355 71.7793 52.3467 71.7977 52.354 71.8177C52.3614 71.8378 52.3647 71.8591 52.3638 71.8804C52.3629 71.9018 52.3578 71.9227 52.3488 71.9421C52.3398 71.9615 52.3271 71.9789 52.3113 71.9933L46.3694 77.4703C46.3396 77.4989 46.2998 77.5147 46.2585 77.5144Z" fill="#37474F"/>
<path d="M40.8908 80.6243C40.8341 80.6243 40.7783 80.6097 40.7288 80.5821L24.0583 71.0387C23.9831 70.9958 23.9281 70.9247 23.9053 70.8411C23.8825 70.7576 23.8939 70.6684 23.9368 70.5932C23.9798 70.518 24.0509 70.4629 24.1344 70.4402C24.218 70.4174 24.3072 70.4287 24.3824 70.4717L40.845 79.9041L46.285 74.892L23.6621 61.9304C23.5869 61.8874 23.5319 61.8164 23.5091 61.7328C23.4863 61.6492 23.4976 61.5601 23.5406 61.4849C23.5836 61.4097 23.6546 61.3546 23.7382 61.3318C23.8218 61.309 23.9109 61.3204 23.9861 61.3633L46.9965 74.5468C47.0418 74.5722 47.0804 74.608 47.1091 74.6513C47.1379 74.6946 47.1559 74.744 47.1618 74.7957C47.1676 74.8473 47.1611 74.8995 47.1428 74.9481C47.1245 74.9967 47.0948 75.0403 47.0564 75.0752L41.1127 80.5521C41.0504 80.6032 40.9712 80.629 40.8908 80.6243Z" fill="#455A64"/>
<path d="M25.388 71.5772C25.3666 71.5772 25.3454 71.573 25.3256 71.5647C25.3058 71.5565 25.2879 71.5444 25.2728 71.5292C25.2577 71.5139 25.2458 71.4959 25.2378 71.476C25.2298 71.4561 25.2257 71.4349 25.226 71.4135V62.5323C25.2236 62.5095 25.226 62.4864 25.2332 62.4646C25.2403 62.4428 25.2519 62.4227 25.2672 62.4057C25.2826 62.3887 25.3013 62.375 25.3223 62.3657C25.3433 62.3564 25.3659 62.3516 25.3889 62.3516C25.4118 62.3516 25.4345 62.3564 25.4555 62.3657C25.4764 62.375 25.4952 62.3887 25.5105 62.4057C25.5259 62.4227 25.5375 62.4428 25.5446 62.4646C25.5517 62.4864 25.5542 62.5095 25.5518 62.5323V71.4135C25.552 71.435 25.5479 71.4564 25.5398 71.4764C25.5316 71.4964 25.5196 71.5145 25.5043 71.5298C25.4891 71.5451 25.4709 71.5571 25.451 71.5653C25.431 71.5734 25.4096 71.5775 25.388 71.5772Z" fill="#455A64"/>
<path d="M26.7247 72.3421C26.7032 72.3421 26.6819 72.3379 26.662 72.3296C26.6422 72.3214 26.6241 72.3093 26.6089 72.2941C26.5937 72.2789 26.5816 72.2609 26.5734 72.241C26.5652 72.2211 26.5609 72.1998 26.5609 72.1783V63.2901C26.5586 63.2673 26.561 63.2442 26.5681 63.2224C26.5752 63.2006 26.5868 63.1805 26.6022 63.1635C26.6175 63.1465 26.6363 63.1328 26.6573 63.1235C26.6782 63.1142 26.7009 63.1094 26.7238 63.1094C26.7468 63.1094 26.7695 63.1142 26.7904 63.1235C26.8114 63.1328 26.8301 63.1465 26.8455 63.1635C26.8609 63.1805 26.8725 63.2006 26.8796 63.2224C26.8867 63.2442 26.8891 63.2673 26.8867 63.2901V72.1713C26.8877 72.1932 26.8842 72.2151 26.8765 72.2357C26.8688 72.2563 26.8571 72.2751 26.8419 72.291C26.8268 72.307 26.8087 72.3197 26.7885 72.3285C26.7684 72.3373 26.7467 72.3419 26.7247 72.3421Z" fill="#455A64"/>
<path d="M28.0598 73.1033C28.0382 73.1035 28.0168 73.0994 27.9968 73.0913C27.9769 73.0831 27.9587 73.0711 27.9434 73.0558C27.9282 73.0405 27.9161 73.0224 27.908 73.0024C27.8998 72.9824 27.8958 72.961 27.896 72.9395V64.0583C27.896 64.0149 27.9133 63.9732 27.944 63.9425C27.9747 63.9118 28.0163 63.8945 28.0598 63.8945C28.1032 63.8945 28.1449 63.9118 28.1756 63.9425C28.2063 63.9732 28.2236 64.0149 28.2236 64.0583V72.9395C28.2236 72.9829 28.2063 73.0246 28.1756 73.0553C28.1449 73.086 28.1032 73.1033 28.0598 73.1033Z" fill="#455A64"/>
<path d="M29.3947 73.865C29.3513 73.865 29.3096 73.8477 29.2789 73.817C29.2482 73.7863 29.231 73.7446 29.231 73.7012V64.82C29.231 64.7766 29.2482 64.7349 29.2789 64.7042C29.3096 64.6735 29.3513 64.6562 29.3947 64.6562C29.4382 64.6562 29.4798 64.6735 29.5105 64.7042C29.5413 64.7349 29.5585 64.7766 29.5585 64.82V73.7012C29.5585 73.7446 29.5413 73.7863 29.5105 73.817C29.4798 73.8477 29.4382 73.865 29.3947 73.865Z" fill="#455A64"/>
<path d="M30.7292 74.6284C30.6858 74.6284 30.6441 74.6112 30.6134 74.5805C30.5827 74.5498 30.5654 74.5081 30.5654 74.4647V65.5817C30.5654 65.5383 30.5827 65.4967 30.6134 65.4659C30.6441 65.4352 30.6858 65.418 30.7292 65.418C30.7726 65.418 30.8143 65.4352 30.845 65.4659C30.8757 65.4967 30.893 65.5383 30.893 65.5817V74.4629C30.8932 74.4846 30.8892 74.506 30.881 74.5261C30.8729 74.5462 30.8609 74.5645 30.8456 74.5799C30.8304 74.5953 30.8123 74.6075 30.7923 74.6158C30.7723 74.6242 30.7509 74.6284 30.7292 74.6284Z" fill="#455A64"/>
<path d="M32.0608 75.3884C32.0173 75.3884 31.9757 75.3711 31.9449 75.3404C31.9142 75.3097 31.897 75.2681 31.897 75.2246V66.3435C31.897 66.3 31.9142 66.2584 31.9449 66.2277C31.9757 66.1969 32.0173 66.1797 32.0608 66.1797C32.1042 66.1797 32.1458 66.1969 32.1766 66.2277C32.2073 66.2584 32.2245 66.3 32.2245 66.3435V75.2246C32.2245 75.2681 32.2073 75.3097 32.1766 75.3404C32.1458 75.3711 32.1042 75.3884 32.0608 75.3884Z" fill="#455A64"/>
<path d="M33.3991 76.1466C33.3557 76.1466 33.314 76.1293 33.2833 76.0986C33.2526 76.0679 33.2354 76.0263 33.2354 75.9828V67.1052C33.2354 67.0617 33.2526 67.0201 33.2833 66.9894C33.314 66.9587 33.3557 66.9414 33.3991 66.9414C33.4426 66.9414 33.4842 66.9587 33.5149 66.9894C33.5457 67.0201 33.5629 67.0617 33.5629 67.1052V75.9863C33.562 76.0292 33.5443 76.0699 33.5137 76.0999C33.4831 76.1298 33.442 76.1466 33.3991 76.1466Z" fill="#455A64"/>
<path d="M34.7341 76.9101C34.6907 76.9101 34.649 76.8928 34.6183 76.8621C34.5876 76.8314 34.5703 76.7897 34.5703 76.7463V67.8669C34.5703 67.8235 34.5876 67.7818 34.6183 67.7511C34.649 67.7204 34.6907 67.7031 34.7341 67.7031C34.7775 67.7031 34.8192 67.7204 34.8499 67.7511C34.8806 67.7818 34.8979 67.8235 34.8979 67.8669V76.7481C34.8974 76.7912 34.88 76.8324 34.8493 76.8627C34.8186 76.8931 34.7772 76.9101 34.7341 76.9101Z" fill="#455A64"/>
<path d="M36.0691 77.6736C36.0256 77.6736 35.984 77.6563 35.9532 77.6256C35.9225 77.5949 35.9053 77.5532 35.9053 77.5098V68.6286C35.9053 68.5852 35.9225 68.5435 35.9532 68.5128C35.984 68.4821 36.0256 68.4648 36.0691 68.4648C36.1125 68.4648 36.1541 68.4821 36.1849 68.5128C36.2156 68.5435 36.2328 68.5852 36.2328 68.6286V77.5098C36.2328 77.5532 36.2156 77.5949 36.1849 77.6256C36.1541 77.6563 36.1125 77.6736 36.0691 77.6736Z" fill="#455A64"/>
<path d="M37.404 78.4392C37.3606 78.4392 37.3189 78.4219 37.2882 78.3912C37.2575 78.3605 37.2402 78.3188 37.2402 78.2754V69.3943C37.2402 69.3508 37.2575 69.3092 37.2882 69.2784C37.3189 69.2477 37.3606 69.2305 37.404 69.2305C37.4475 69.2305 37.4891 69.2477 37.5198 69.2784C37.5505 69.3092 37.5678 69.3508 37.5678 69.3943V78.2754C37.5678 78.3188 37.5505 78.3605 37.5198 78.3912C37.4891 78.4219 37.4475 78.4392 37.404 78.4392Z" fill="#455A64"/>
<path d="M38.739 79.1978C38.6955 79.1978 38.6539 79.1805 38.6232 79.1498C38.5924 79.1191 38.5752 79.0774 38.5752 79.034V70.1599C38.5752 70.1164 38.5924 70.0748 38.6232 70.0441C38.6539 70.0133 38.6955 69.9961 38.739 69.9961C38.7824 69.9961 38.8241 70.0133 38.8548 70.0441C38.8855 70.0748 38.9028 70.1164 38.9028 70.1599V79.041C38.9014 79.0834 38.8835 79.1235 38.8528 79.1528C38.8222 79.1821 38.7813 79.1983 38.739 79.1978Z" fill="#455A64"/>
<path d="M40.0735 79.9561C40.0304 79.9557 39.9892 79.9382 39.9589 79.9076C39.9285 79.8769 39.9115 79.8355 39.9115 79.7924V70.9112C39.9091 70.8884 39.9116 70.8653 39.9187 70.8435C39.9258 70.8217 39.9374 70.8016 39.9528 70.7846C39.9681 70.7676 39.9869 70.7539 40.0078 70.7446C40.0288 70.7353 40.0515 70.7305 40.0744 70.7305C40.0974 70.7305 40.12 70.7353 40.141 70.7446C40.162 70.7539 40.1807 70.7676 40.1961 70.7846C40.2114 70.8016 40.223 70.8217 40.2302 70.8435C40.2373 70.8653 40.2397 70.8884 40.2373 70.9112V79.7924C40.2373 79.8358 40.2201 79.8775 40.1894 79.9082C40.1586 79.9389 40.117 79.9561 40.0735 79.9561Z" fill="#455A64"/>
<path d="M41.4085 79.961C41.3654 79.9605 41.3242 79.9431 41.2938 79.9124C41.2635 79.8817 41.2465 79.8403 41.2465 79.7972V71.6768C41.2441 71.654 41.2466 71.631 41.2537 71.6091C41.2608 71.5873 41.2724 71.5673 41.2877 71.5502C41.3031 71.5332 41.3218 71.5196 41.3428 71.5102C41.3638 71.5009 41.3864 71.4961 41.4094 71.4961C41.4323 71.4961 41.455 71.5009 41.476 71.5102C41.4969 71.5196 41.5157 71.5332 41.531 71.5502C41.5464 71.5673 41.558 71.5873 41.5651 71.6091C41.5722 71.631 41.5747 71.654 41.5723 71.6768V79.7972C41.5723 79.8406 41.555 79.8823 41.5243 79.913C41.4936 79.9437 41.4519 79.961 41.4085 79.961Z" fill="#455A64"/>
<path d="M42.7452 78.8154C42.7238 78.8157 42.7025 78.8117 42.6827 78.8036C42.6628 78.7956 42.6448 78.7837 42.6295 78.7686C42.6143 78.7535 42.6022 78.7356 42.5939 78.7158C42.5857 78.6961 42.5814 78.6749 42.5814 78.6534V72.4386C42.5791 72.4157 42.5815 72.3927 42.5886 72.3709C42.5957 72.3491 42.6073 72.329 42.6227 72.3119C42.638 72.2949 42.6568 72.2813 42.6778 72.272C42.6987 72.2626 42.7214 72.2578 42.7443 72.2578C42.7673 72.2578 42.79 72.2626 42.8109 72.272C42.8319 72.2813 42.8506 72.2949 42.866 72.3119C42.8814 72.329 42.893 72.3491 42.9001 72.3709C42.9072 72.3927 42.9096 72.4157 42.9072 72.4386V78.6534C42.9072 78.6964 42.8902 78.7376 42.8598 78.768C42.8294 78.7984 42.7882 78.8154 42.7452 78.8154Z" fill="#455A64"/>
<path d="M44.0802 77.4846C44.0368 77.4846 43.9951 77.4674 43.9644 77.4366C43.9337 77.4059 43.9164 77.3643 43.9164 77.3208V73.1964C43.914 73.1736 43.9165 73.1505 43.9236 73.1287C43.9307 73.1069 43.9423 73.0868 43.9576 73.0698C43.973 73.0527 43.9918 73.0391 44.0127 73.0298C44.0337 73.0204 44.0564 73.0156 44.0793 73.0156C44.1022 73.0156 44.1249 73.0204 44.1459 73.0298C44.1668 73.0391 44.1856 73.0527 44.201 73.0698C44.2163 73.0868 44.2279 73.1069 44.235 73.1287C44.2421 73.1505 44.2446 73.1736 44.2422 73.1964V77.3208C44.2422 77.364 44.2252 77.4054 44.1949 77.436C44.1645 77.4667 44.1233 77.4841 44.0802 77.4846Z" fill="#455A64"/>
<path d="M45.4152 76.2835C45.3718 76.2835 45.3302 76.2663 45.2994 76.2356C45.2687 76.2048 45.2515 76.1632 45.2515 76.1197V73.9607C45.2515 73.9172 45.2687 73.8756 45.2994 73.8448C45.3302 73.8141 45.3718 73.7969 45.4152 73.7969C45.4587 73.7969 45.5003 73.8141 45.5311 73.8448C45.5618 73.8756 45.579 73.9172 45.579 73.9607V76.1197C45.579 76.1632 45.5618 76.2048 45.5311 76.2356C45.5003 76.2663 45.4587 76.2835 45.4152 76.2835Z" fill="#455A64"/>
<path d="M45.4221 76.4366C45.3934 76.437 45.3653 76.4291 45.3411 76.4137L23.6163 63.9681C23.5959 63.9585 23.5777 63.9447 23.5628 63.9277C23.548 63.9107 23.5368 63.8908 23.53 63.8693C23.5232 63.8477 23.521 63.825 23.5234 63.8026C23.5258 63.7801 23.5328 63.7584 23.544 63.7388C23.5552 63.7192 23.5704 63.7021 23.5885 63.6886C23.6066 63.6751 23.6274 63.6655 23.6494 63.6605C23.6714 63.6554 23.6942 63.6549 23.7164 63.659C23.7386 63.6632 23.7597 63.6719 23.7784 63.6846L45.5031 76.1302C45.5407 76.1519 45.5681 76.1877 45.5793 76.2296C45.5906 76.2716 45.5847 76.3163 45.563 76.3539C45.5489 76.3789 45.5285 76.3998 45.5037 76.4143C45.479 76.4289 45.4508 76.4366 45.4221 76.4366Z" fill="#455A64"/>
<path d="M43.8828 77.7761C43.8545 77.7757 43.8267 77.7685 43.8018 77.755L23.8681 66.3344C23.834 66.3112 23.8099 66.276 23.8006 66.2358C23.7913 66.1957 23.7975 66.1535 23.818 66.1177C23.8384 66.0819 23.8716 66.0551 23.9109 66.0427C23.9502 66.0303 23.9928 66.0332 24.0301 66.0508L43.9638 77.4715C43.9959 77.4887 44.0213 77.5163 44.0357 77.5498C44.0502 77.5832 44.053 77.6206 44.0437 77.6558C44.0343 77.691 44.0133 77.7221 43.9841 77.7439C43.9549 77.7657 43.9192 77.7771 43.8828 77.7761Z" fill="#455A64"/>
<path d="M42.451 79.181C42.4224 79.1809 42.3944 79.173 42.37 79.1581L23.9966 68.6286C23.9779 68.6182 23.9615 68.6041 23.9482 68.5873C23.935 68.5705 23.9252 68.5512 23.9195 68.5305C23.9138 68.5099 23.9122 68.4883 23.9148 68.4671C23.9175 68.4458 23.9243 68.4253 23.935 68.4067C23.9567 68.3692 23.9924 68.3417 24.0342 68.3302C24.076 68.3186 24.1207 68.324 24.1586 68.3451L42.5391 78.8746C42.5708 78.8925 42.5956 78.9204 42.6097 78.954C42.6237 78.9876 42.6262 79.0249 42.6167 79.06C42.6072 79.0951 42.5863 79.1261 42.5573 79.148C42.5282 79.1699 42.4927 79.1816 42.4563 79.181H42.451Z" fill="#455A64"/>
<path d="M22.6022 55.1909C22.4938 55.1905 22.3886 55.1543 22.3029 55.0878C22.2173 55.0213 22.156 54.9284 22.1287 54.8235C22.1013 54.7186 22.1095 54.6076 22.1518 54.5077C22.1941 54.4079 22.2683 54.3249 22.3627 54.2717L30.4391 49.7439C30.552 49.687 30.6825 49.6759 30.8035 49.7128C30.9244 49.7497 31.0265 49.8319 31.0884 49.9421C31.1504 50.0524 31.1674 50.1823 31.136 50.3048C31.1046 50.4273 31.0272 50.5329 30.9198 50.5998L22.8417 55.1275C22.7686 55.1687 22.6862 55.1905 22.6022 55.1909Z" fill="#0071CE"/>
<path d="M21.6706 55.5509C21.5983 55.5507 21.5281 55.5266 21.4709 55.4824C21.4136 55.4381 21.3727 55.3761 21.3544 55.3062C21.3361 55.2362 21.3415 55.1621 21.3697 55.0955C21.3979 55.0289 21.4474 54.9735 21.5104 54.938L22.3081 54.4907C22.3458 54.4662 22.388 54.4496 22.4323 54.4421C22.4765 54.4346 22.5219 54.4363 22.5655 54.447C22.6091 54.4578 22.65 54.4774 22.6857 54.5046C22.7214 54.5318 22.7511 54.5661 22.773 54.6053C22.7949 54.6445 22.8085 54.6878 22.813 54.7325C22.8175 54.7772 22.8127 54.8223 22.799 54.865C22.7853 54.9078 22.7629 54.9473 22.7333 54.981C22.7037 55.0148 22.6675 55.0421 22.6269 55.0613L21.8309 55.5086C21.7819 55.536 21.7268 55.5506 21.6706 55.5509Z" fill="#455A64"/>
<path d="M32.8761 49.889C32.6613 49.4364 32.3478 48.7161 31.9076 48.4801L29.6375 47.0871L24.791 43.8203L21.9609 45.1605C23.4438 46.7754 28.2427 48.5066 28.2427 48.5066C28.2954 48.6521 28.3614 48.7924 28.44 48.9257H28.4259C28.4593 49.0014 29.5495 51.4458 29.9105 51.4088C30.069 51.3947 30.0972 51.1817 30.0866 50.9474L29.8911 50.0017C30.1324 50.0722 30.3525 50.1144 30.5128 50.1567C30.7523 50.2201 30.9883 50.685 31.1133 50.8964C31.1449 50.9509 31.187 50.9985 31.2374 51.0364C31.2877 51.0743 31.3451 51.1017 31.4062 51.1169C31.4673 51.1322 31.5308 51.1351 31.5931 51.1253C31.6553 51.1155 31.7149 51.0934 31.7684 51.0601L32.7159 50.4755C32.7844 50.4325 32.84 50.3719 32.8768 50.3C32.9137 50.2281 32.9305 50.1475 32.9255 50.0669C32.9225 50.0047 32.9057 49.9439 32.8761 49.889Z" fill="#FFA8A7"/>
<path d="M17.8579 35.1797L16.0105 43.1645C15.8926 43.6792 15.9593 44.219 16.1989 44.6896C16.3383 44.9612 16.5317 45.2015 16.7672 45.3956C17.0028 45.5898 17.2756 45.7338 17.5688 45.8187C17.862 45.9036 18.1695 45.9277 18.4724 45.8895C18.7753 45.8513 19.0672 45.7516 19.3301 45.5965L23.4898 43.1398V35.1797H17.8579Z" fill="#263238"/>
<path d="M18.6768 41.4801L22.9034 39.756C23.2117 39.6283 23.5467 39.5787 23.8788 39.6113C24.2109 39.644 24.5298 39.758 24.8073 39.9432C25.0849 40.1285 25.3125 40.3793 25.47 40.6735C25.6275 40.9676 25.7101 41.2961 25.7105 41.6298V43.8663L19.3125 45.8616L18.6768 41.4801Z" fill="#FFA8A7"/>
<path d="M22.5898 39.9808C22.5898 39.9808 23.9265 40.8156 24.1079 42.2016C24.1079 42.2016 23.3823 43.3621 21.0788 43.2952C21.0788 43.2952 20.5505 41.4531 19.6453 41.0868L18.6767 41.4795L18.6045 46.1077L19.2631 47.0516C19.3428 47.1651 19.3903 47.298 19.4006 47.4363C19.4108 47.5746 19.3834 47.7131 19.3213 47.837L18.7736 48.9342C18.7736 48.9342 19.7615 50.6319 22.3433 50.6319C23.2952 50.6112 24.2079 50.2487 24.9145 49.6105L24.8405 46.6782C24.8405 46.6782 28.1108 44.4698 23.3788 39.6797L22.5898 39.9808Z" fill="#0071CE"/>
<path d="M19.0288 33.4628C19.0288 33.4628 18.784 32.5312 18.6184 32.5471C18.4529 32.5629 18.4723 33.3801 18.4723 33.3801C18.4723 33.3801 17.6974 33.3114 17.7784 33.5333C17.8594 33.7552 18.7628 33.9841 18.7628 33.9841L19.0288 33.4628Z" fill="#263238"/>
<path d="M17.824 36.6977C18.1762 39.3288 20.3934 39.3288 20.3934 39.3288L25.0409 37.2842C25.3009 37.0063 25.4619 36.6503 25.4988 36.2716C25.5405 35.9831 25.5405 35.6901 25.4988 35.4016V35.3928C25.3491 34.2868 24.5232 33.1034 22.7198 32.7318C22.325 32.6532 21.9231 32.6148 21.5205 32.6173C21.3265 32.6167 21.1325 32.6261 20.9394 32.6455C19.5305 32.7828 18.5566 33.438 18.0899 34.4541C17.9852 34.6839 17.9072 34.925 17.8575 35.1726C17.7607 35.6755 17.7494 36.1911 17.824 36.6977Z" fill="#263238"/>
<path d="M20.9166 41.7932C21.075 41.9165 21.2648 41.9928 21.4644 42.0136C21.6641 42.0343 21.8655 41.9986 22.0458 41.9105C22.2262 41.8225 22.3782 41.6856 22.4846 41.5154C22.591 41.3452 22.6475 41.1486 22.6477 40.9479V37.5508H20.3936V40.7207C20.3936 40.9275 20.4407 41.1315 20.5313 41.3173C20.6219 41.5032 20.7537 41.6659 20.9166 41.7932Z" fill="#FFA8A7"/>
<path d="M22.6477 40.52C22.1463 40.3342 21.6879 40.0485 21.3004 39.68C20.9129 39.3116 20.6043 38.8682 20.3936 38.3767V37.5508H22.6477V40.52Z" fill="#F28F8F"/>
<path d="M22.1599 33.4062C23.0158 33.4062 24.8315 33.8835 25.0428 36.1183C25.2542 38.3531 25.0428 40.0896 23.8946 40.2569C22.7464 40.4242 20.0625 39.5877 19.7032 36.6924C19.344 33.7972 21.3269 33.4062 22.1599 33.4062Z" fill="#FFA8A7"/>
<path d="M23.5054 37.0664V38.3855L24.2785 38.1477L23.5054 37.0664Z" fill="#F28F8F"/>
<path d="M22.375 37.295C22.3747 37.3484 22.3902 37.4007 22.4196 37.4452C22.449 37.4897 22.4909 37.5246 22.5401 37.5452C22.5893 37.5659 22.6435 37.5715 22.6959 37.5613C22.7483 37.5511 22.7965 37.5256 22.8343 37.4879C22.8722 37.4503 22.898 37.4023 22.9086 37.35C22.9191 37.2977 22.9139 37.2434 22.8936 37.1941C22.8732 37.1448 22.8387 37.1026 22.7943 37.0729C22.75 37.0432 22.6978 37.0273 22.6445 37.0273C22.5733 37.0273 22.505 37.0555 22.4545 37.1056C22.4041 37.1558 22.3755 37.2239 22.375 37.295Z" fill="#263238"/>
<path d="M24.1445 37.1054C24.1445 37.1587 24.1603 37.2108 24.1899 37.2551C24.2195 37.2994 24.2616 37.3339 24.3109 37.3543C24.3601 37.3747 24.4143 37.38 24.4665 37.3697C24.5188 37.3593 24.5668 37.3336 24.6045 37.2959C24.6422 37.2582 24.6678 37.2102 24.6782 37.158C24.6886 37.1057 24.6833 37.0515 24.6629 37.0023C24.6425 36.953 24.608 36.911 24.5637 36.8813C24.5194 36.8517 24.4673 36.8359 24.414 36.8359C24.3425 36.8359 24.274 36.8643 24.2234 36.9149C24.1729 36.9654 24.1445 37.0339 24.1445 37.1054Z" fill="#263238"/>
<path d="M24.7417 36.5493L24.2134 36.2376C24.2134 36.2376 24.4141 36.028 24.6149 36.1531C24.6735 36.1986 24.717 36.2608 24.7397 36.3316C24.7623 36.4023 24.763 36.4782 24.7417 36.5493Z" fill="#263238"/>
<path d="M23.8701 38.9203C23.614 38.9385 23.3591 38.8703 23.1463 38.7266C23.1463 38.7266 23.097 39.107 23.4158 39.1809C23.5099 39.1962 23.6064 39.1786 23.6892 39.1312C23.7719 39.0837 23.8358 39.0093 23.8701 38.9203Z" fill="#F28F8F"/>
<path d="M24.328 34.1684C24.328 34.1684 24.0057 37.2555 19.8073 37.3524C19.8073 37.3524 18.5393 34.2846 21.04 33.2878C23.5408 32.291 24.328 34.1684 24.328 34.1684Z" fill="#263238"/>
<path d="M20.51 37.4648C20.7794 37.9333 20.7108 38.5003 20.3339 38.6976C20.0926 38.8226 19.3776 38.5532 19.1011 38.0847C18.8246 37.6163 18.9831 37.2165 19.3494 37.0052C19.7158 36.7939 20.2406 36.9981 20.51 37.4648Z" fill="#FFA8A7"/>
<path d="M19.2984 44.5744L18.6099 46.1048C18.8005 46.1058 18.9892 46.0656 19.1628 45.9868L19.4675 44.6307C19.4718 44.6093 19.4681 44.587 19.4571 44.5681C19.4461 44.5492 19.4286 44.535 19.4078 44.528C19.3871 44.5211 19.3645 44.522 19.3444 44.5306C19.3242 44.5391 19.3079 44.5547 19.2984 44.5744Z" fill="#F28F8F"/>
<path d="M25.8845 54.3417C25.698 53.8784 25.3742 53.4832 24.9564 53.2093L24.5584 52.9487C24.5584 52.9487 25.6468 53.1988 25.6609 52.8325C25.675 52.4662 23.0791 51.5134 23.0791 51.5134L17.8857 47.5739C17.8857 47.5739 18.252 46.9751 18.6852 46.1034C19.4266 46.0628 19.8599 45.4606 20.1047 44.8706C20.3225 44.3577 20.385 43.7921 20.2846 43.244C20.1841 42.6958 19.925 42.1892 19.5393 41.7869C19.4885 41.7332 19.4344 41.6826 19.3773 41.6355C19.2638 41.5175 19.1287 41.4225 18.9793 41.3555L18.6271 41.4981C17.7577 41.8481 17.0509 42.5109 16.6459 43.3561C15.9802 44.7473 15.0274 46.8782 14.8848 48.0282C14.6629 49.814 21.348 52.6458 21.348 52.6458C21.753 54.0547 22.9735 54.5707 23.5088 54.7485C23.6247 54.7865 23.7319 54.847 23.8244 54.9265C23.9168 55.006 23.9927 55.1029 24.0477 55.2117C24.0757 55.2681 24.1147 55.3183 24.1624 55.3594C24.2101 55.4004 24.2656 55.4315 24.3255 55.4507C24.3855 55.4699 24.4487 55.4769 24.5114 55.4713C24.5741 55.4656 24.635 55.4474 24.6905 55.4177L25.675 54.8894C25.7703 54.8389 25.844 54.7556 25.8826 54.6549C25.9211 54.5542 25.9218 54.4429 25.8845 54.3417Z" fill="#FFA8A7"/>
<path d="M19.1628 45.9869L19.4675 44.6309C19.4703 44.6186 19.4705 44.606 19.468 44.5937C19.4655 44.5814 19.4604 44.5698 19.4531 44.5596C19.4457 44.5494 19.4363 44.5409 19.4254 44.5347C19.4146 44.5285 19.4025 44.5246 19.39 44.5234C19.1681 45.094 18.9198 45.6347 18.6855 46.1084C18.8509 46.0985 19.0128 46.0572 19.1628 45.9869Z" fill="#F28F8F"/>
</svg>
