<svg width="56" height="92" viewBox="0 0 53 70" fill="none" xmlns="http://www.w3.org/2000/svg">
<path d="M34.3531 13.2366C34.3531 8.06013 31.4581 3.41161 27.6215 1.19722C25.6924 0.0828835 24.0031 -0.142551 22.7974 0.565143L19.5615 2.41999C19.503 2.4528 19.4445 2.48705 19.3874 2.52414L19.4231 2.49989L19.3703 2.53128C18.2374 3.26323 17.5582 4.85839 17.5582 7.36528C17.5582 12.5902 20.4546 17.1888 24.2913 19.4046C26.2189 20.5175 27.9082 20.7544 29.1139 20.0524L32.3699 18.1904C32.407 18.1705 32.4441 18.1491 32.4812 18.1262L32.5382 18.0934C33.674 17.3629 34.3531 15.7649 34.3531 13.2366Z" fill="#0071CE"/>
<path opacity="0.5" d="M28.8235 19.9015C31.5741 18.4598 31.775 13.42 29.2721 8.6446C26.7692 3.86925 22.5104 1.16675 19.7598 2.60841C17.0092 4.05006 16.8084 9.08994 19.3113 13.8653C21.8141 18.6406 26.0729 21.3431 28.8235 19.9015Z" fill="white"/>
<path d="M25.885 12.176C25.885 9.37523 25.0889 8.07969 24.2913 7.61884C23.4937 7.15798 22.699 7.53608 22.699 10.3298C22.699 13.1234 23.4951 14.4261 24.2913 14.887C25.0874 15.3478 25.885 14.9769 25.885 12.176Z" fill="#0071CE"/>
<path opacity="0.3" d="M25.885 12.176C25.885 9.37523 25.0889 8.07969 24.2913 7.61884C23.4937 7.15798 22.699 7.53608 22.699 10.3298C22.699 13.1234 23.4951 14.4261 24.2913 14.887C25.0874 15.3478 25.885 14.9769 25.885 12.176Z" fill="black"/>
<path d="M52.9999 37.7167C52.9999 32.5331 50.1035 27.8931 46.2654 25.6773C44.3378 24.5644 42.6471 24.3375 41.4428 25.0452L38.2083 26.9001C38.1483 26.9315 38.0898 26.9657 38.0328 27.0028L38.0684 26.98L38.0157 27.0099C36.8828 27.7405 36.2036 29.3356 36.2036 31.8425C36.2036 37.0675 39.1 41.666 42.9367 43.8819C44.8643 44.9948 46.5536 45.2316 47.7593 44.5311L51.021 42.6691L51.1322 42.6049L51.1893 42.5721C52.3193 41.843 52.9999 40.2464 52.9999 37.7167Z" fill="#0071CE"/>
<path opacity="0.5" d="M47.4678 44.3898C50.2184 42.9481 50.4192 37.9082 47.9164 33.1329C45.4135 28.3575 41.1547 25.655 38.4041 27.0967C35.6535 28.5383 35.4527 33.5782 37.9555 38.3536C40.4584 43.1289 44.7172 45.8314 47.4678 44.3898Z" fill="white"/>
<path d="M44.5304 36.6586C44.5304 33.8578 43.7343 32.5622 42.9367 32.1028C42.1391 31.6434 41.3444 32.0186 41.3444 34.8137C41.3444 37.6088 42.1405 38.9115 42.9367 39.3709C43.7328 39.8304 44.5304 39.4608 44.5304 36.6586Z" fill="#0071CE"/>
<path opacity="0.3" d="M44.5304 36.6586C44.5304 33.8578 43.7343 32.5622 42.9367 32.1028C42.1391 31.6434 41.3444 32.0186 41.3444 34.8137C41.3444 37.6088 42.1405 38.9115 42.9367 39.3709C43.7328 39.8304 44.5304 39.4608 44.5304 36.6586Z" fill="black"/>
<path d="M42.5001 10.207L39.1714 12.1132L21.8657 31.3851L27.9853 34.9178L31.3126 33.0102L48.6183 13.7384L42.5001 10.207Z" fill="#0071CE"/>
<path opacity="0.3" d="M45.2895 15.6459L27.9852 34.9177L31.3125 33.0101L48.6182 13.7383L45.2895 15.6459Z" fill="black"/>
<path opacity="0.5" d="M39.1714 12.1133L45.2895 15.646L27.9853 34.9179L21.8657 31.3851L39.1714 12.1133Z" fill="white"/>
<path d="M15.0528 10.5247L15.3938 11.5234C15.4418 11.6673 15.5311 11.7939 15.6506 11.8873L16.4111 12.458C16.6965 12.6663 16.8035 13.1272 16.6009 13.2385L16.0501 13.5395C16.0076 13.5722 15.9755 13.6167 15.958 13.6674C15.9405 13.7181 15.9383 13.7729 15.9517 13.8249L16.0815 14.7751C16.1286 15.1247 15.8375 15.2032 15.5864 14.905L14.9058 14.0988C14.8692 14.0473 14.822 14.0042 14.7674 13.9725C14.7128 13.9407 14.6519 13.921 14.5891 13.9148L13.9071 13.9347C13.6574 13.9433 13.3649 13.5281 13.4134 13.2342L13.5432 12.4337C13.5558 12.2915 13.5212 12.1491 13.4448 12.0285L12.894 11.0911C12.6914 10.7458 12.8027 10.4134 13.0824 10.529L13.8443 10.84C13.8873 10.865 13.9384 10.872 13.9865 10.8594C14.0346 10.8468 14.0758 10.8158 14.1011 10.7729L14.4407 10.1737C14.5662 9.9511 14.9229 10.1594 15.0528 10.5247Z" fill="#455A64"/>
<path d="M50.1991 17.5453L50.5401 18.544C50.5885 18.6873 50.6772 18.8137 50.7955 18.9079L51.5574 19.4786C51.8428 19.6869 51.9484 20.1492 51.7472 20.259L51.195 20.5615C51.1526 20.5943 51.1207 20.6388 51.1035 20.6896C51.0862 20.7403 51.0843 20.795 51.098 20.8469L51.2279 21.7971C51.2749 22.1467 50.9824 22.2252 50.7328 21.927L50.0522 21.1194C50.0152 21.0681 49.9676 21.0253 49.9128 20.9938C49.8579 20.9623 49.797 20.9429 49.734 20.9368L49.0534 20.9567C48.8037 20.9567 48.5112 20.5501 48.5583 20.2562L48.6896 19.4557C48.7043 19.3126 48.6712 19.1686 48.5954 19.0463L48.0447 18.1074C47.8421 17.7636 47.9533 17.4311 48.233 17.5453L48.9949 17.8577C49.038 17.8823 49.089 17.8891 49.137 17.8766C49.185 17.864 49.2262 17.8332 49.2517 17.7907L49.5942 17.1914C49.7126 16.9717 50.0736 17.18 50.1991 17.5453Z" fill="#455A64"/>
<path d="M46.9775 21.1043L47.1872 21.7178C47.2174 21.8066 47.2723 21.8848 47.3456 21.9433L47.8164 22.2943C47.9905 22.4227 48.059 22.708 47.9334 22.7765L47.5967 22.9634C47.5696 22.9841 47.5493 23.0124 47.5383 23.0447C47.5274 23.077 47.5264 23.1118 47.5353 23.1446L47.6152 23.7325C47.6452 23.9479 47.464 23.995 47.3099 23.8124L46.8819 23.313C46.8592 23.281 46.8298 23.2544 46.7958 23.2349C46.7618 23.2155 46.724 23.2036 46.685 23.2003L46.2641 23.2131C46.11 23.2131 45.9288 22.9606 45.9587 22.7851L46.0386 22.29C46.0462 22.202 46.0252 22.1139 45.9787 22.0389L45.6377 21.4596C45.5121 21.2456 45.5806 21.0401 45.7547 21.1114L46.2255 21.3041C46.2521 21.3193 46.2835 21.3234 46.3132 21.3157C46.3428 21.308 46.3682 21.2889 46.3839 21.2627L46.5951 20.8917C46.6764 20.749 46.899 20.8789 46.9775 21.1043Z" fill="#455A64"/>
<path d="M12.9097 5.83216L13.1194 6.44569C13.1501 6.53451 13.2056 6.61272 13.2792 6.67112L13.7501 7.02212C13.9227 7.15053 13.9912 7.43589 13.8671 7.50437L13.5261 7.69129C13.4989 7.71159 13.4786 7.73962 13.4676 7.7717C13.4567 7.80377 13.4557 7.8384 13.4647 7.87106L13.546 8.45891C13.5746 8.67578 13.3948 8.72286 13.2393 8.53881L12.8184 8.04085C12.7957 8.00906 12.7666 7.98245 12.7329 7.96277C12.6992 7.94309 12.6617 7.9308 12.6229 7.92671L12.1949 7.93955C12.0408 7.93955 11.8596 7.68843 11.8895 7.51151L11.9694 7.01641C11.9786 6.92832 11.9574 6.83975 11.9095 6.76529L11.5685 6.18458C11.4429 5.97199 11.5128 5.76653 11.6855 5.83787L12.1563 6.03049C12.1829 6.04567 12.2144 6.04984 12.244 6.04211C12.2736 6.03437 12.299 6.01535 12.3147 5.98911L12.5259 5.61671C12.6086 5.47689 12.8326 5.6053 12.9097 5.83216Z" fill="#455A64"/>
<path d="M13.9197 28.611C13.9197 28.611 13.6837 38.9275 12.0001 41.6765C10.3165 44.4256 3.31617 50.1949 3.31617 50.1949L2.12744 48.5976C2.12744 48.5976 5.88912 41.6536 7.6097 40.7995L8.95517 28.5547L13.9197 28.611Z" fill="#263238"/>
<path d="M0.847046 53.8719L1.76985 53.4756L1.37009 52.7148L0.847046 53.8719Z" fill="#0071CE"/>
<path d="M0.369828 50.6094C0.241035 50.8538 0.162022 51.1214 0.137364 51.3966L0 52.934L0.847082 53.8727L1.37541 52.7156L0.369828 50.6094Z" fill="#0071CE"/>
<g style="mix-blend-mode:overlay" opacity="0.5">
<path d="M0.847046 53.8719L1.76985 53.4756L1.37009 52.7148L0.847046 53.8719Z" fill="black"/>
</g>
<g style="mix-blend-mode:overlay" opacity="0.2">
<path d="M0.369828 50.6094C0.241035 50.8538 0.162022 51.1214 0.137364 51.3966L0 52.934L0.847082 53.8727L1.37541 52.7156L0.369828 50.6094Z" fill="black"/>
</g>
<path d="M3.24037 46.6743C3.24037 46.6743 3.55384 48.4248 5.13001 48.5991C5.13001 48.5991 5.34838 48.8527 4.8183 49.418C4.28821 49.9833 3.31609 51.165 3.31609 51.165C3.31609 51.165 3.41647 53.0071 4.13148 53.7028C4.48369 54.055 4.85528 54.4072 5.13353 54.6995C5.18849 54.7549 5.22948 54.8225 5.25311 54.8969C5.27674 54.9712 5.28233 55.0501 5.26942 55.127C5.25652 55.2039 5.22548 55.2767 5.17888 55.3392C5.13229 55.4018 5.07146 55.4524 5.00145 55.4867C4.56904 55.6998 4.08324 55.78 3.60528 55.7173C3.12734 55.6547 2.67864 55.4519 2.3158 55.1345L2.02874 54.8827C1.72999 54.6174 1.54148 54.2499 1.50041 53.8525L1.37714 52.7218L0.410301 51.313C0.341349 51.2119 0.301723 51.0938 0.295817 50.9716C0.28991 50.8495 0.317955 50.7281 0.376841 50.6209C0.984416 49.5131 2.83532 46.2516 3.24037 46.6743Z" fill="#0071CE"/>
<path d="M7.7787 27.9336C7.7787 27.9336 4.57705 31.262 5.73936 35.2896C6.90168 39.3173 9.50281 44.8488 9.50281 44.8488C9.50281 44.8488 9.11008 46.0481 10.2072 48.5964C11.3044 51.1447 12.3205 53.9818 12.3205 53.9818C12.3205 53.9818 13.3772 54.5823 14.3564 53.5363L11.5686 32.4966C11.5686 32.4966 13.696 31.0049 13.4177 28.5288L7.7787 27.9336Z" fill="#37474F"/>
<path d="M12.5195 56.6406L12.8999 58.3242L13.8615 58.8473L13.8245 57.6198L12.5195 56.6406Z" fill="#0071CE"/>
<path opacity="0.2" d="M12.5195 56.6406L12.8999 58.3242L13.8615 58.8473L13.8245 57.6198L12.5195 56.6406Z" fill="black"/>
<path d="M13.8616 58.8486L14.3459 58.5298L13.8246 57.6211L13.8616 58.8486Z" fill="#0071CE"/>
<path opacity="0.5" d="M13.8616 58.8486L14.3459 58.5298L13.8246 57.6211L13.8616 58.8486Z" fill="black"/>
<path d="M11.8098 52.6079C11.8098 52.6079 13.1641 53.2278 14.182 52.2257L14.1362 51.9087C14.1362 51.9087 14.4884 51.8048 14.6082 52.437C14.7279 53.0693 15.3672 56.1441 15.3672 56.1441C15.3672 56.1441 16.5207 57.6287 17.3625 57.9651C18.2043 58.3014 18.3752 58.7734 17.8222 59.1838L17.8063 59.1961C17.4846 59.4349 17.1038 59.5812 16.705 59.6194C16.3062 59.6576 15.9045 59.5861 15.5433 59.4127L14.89 59.101C14.6325 58.9764 14.4246 58.7685 14.3 58.511L14.2208 58.3472C14.0228 57.9376 13.7093 57.5948 13.3191 57.361L12.8365 57.0722C12.7595 57.0257 12.6925 56.9644 12.6393 56.8919C12.5861 56.8193 12.5478 56.737 12.5266 56.6495L11.646 52.9654C11.6293 52.8966 11.6365 52.8241 11.6666 52.76C11.6968 52.6959 11.7479 52.6441 11.8116 52.6131L11.8098 52.6079Z" fill="#0071CE"/>
<path d="M12.8401 40.8334C12.7681 40.8333 12.698 40.8095 12.6409 40.7656C12.5837 40.7218 12.5426 40.6602 12.524 40.5906C12.5053 40.521 12.5101 40.4472 12.5377 40.3806C12.5652 40.314 12.614 40.2584 12.6764 40.2223L23.1742 34.1501C23.2115 34.1272 23.253 34.1119 23.2963 34.1053C23.3395 34.0987 23.3837 34.1008 23.4261 34.1116C23.4685 34.1223 23.5084 34.1414 23.5433 34.1678C23.5782 34.1942 23.6075 34.2274 23.6294 34.2653C23.6513 34.3032 23.6654 34.3451 23.6708 34.3885C23.6762 34.432 23.6729 34.476 23.661 34.5182C23.6491 34.5603 23.6289 34.5996 23.6015 34.6338C23.5742 34.668 23.5402 34.6963 23.5017 34.7172L13.011 40.7894C12.9589 40.8188 12.9 40.834 12.8401 40.8334Z" fill="#37474F"/>
<path d="M13.3473 50.0811C13.29 50.0813 13.2337 50.0662 13.1842 50.0374C13.1347 50.0086 13.0937 49.9671 13.0655 49.9173C13.022 49.8423 13.01 49.7531 13.0321 49.6692C13.0542 49.5854 13.1087 49.5137 13.1835 49.47L23.6743 43.3995C23.7114 43.378 23.7524 43.364 23.795 43.3583C23.8375 43.3527 23.8807 43.3554 23.9222 43.3665C23.9636 43.3775 24.0025 43.3966 24.0366 43.4227C24.0706 43.4487 24.0993 43.4812 24.1208 43.5184C24.1423 43.5555 24.1563 43.5965 24.1619 43.639C24.1676 43.6815 24.1648 43.7247 24.1538 43.7662C24.1427 43.8077 24.1236 43.8465 24.0976 43.8806C24.0715 43.9147 24.039 43.9433 24.0019 43.9648L13.5111 50.0405C13.4611 50.0684 13.4045 50.0823 13.3473 50.0811Z" fill="#37474F"/>
<path d="M12.8031 43.0372C12.7745 43.0374 12.7464 43.0301 12.7216 43.0158C12.6969 43.0016 12.6764 42.981 12.6622 42.9562C12.6513 42.9376 12.6441 42.917 12.6412 42.8957C12.6382 42.8743 12.6396 42.8526 12.6452 42.8317C12.6507 42.8109 12.6604 42.7914 12.6736 42.7744C12.6868 42.7573 12.7033 42.7431 12.7221 42.7325L23.2886 36.618C23.3073 36.6065 23.328 36.5989 23.3497 36.5956C23.3713 36.5923 23.3934 36.5934 23.4146 36.5988C23.4358 36.6041 23.4557 36.6137 23.4732 36.6269C23.4906 36.6401 23.5053 36.6567 23.5162 36.6756C23.5272 36.6946 23.5342 36.7155 23.5369 36.7372C23.5396 36.7589 23.538 36.781 23.532 36.8021C23.5261 36.8231 23.516 36.8428 23.5023 36.8599C23.4886 36.8769 23.4717 36.8911 23.4524 36.9015L12.8859 43.016C12.8605 43.0298 12.832 43.037 12.8031 43.0372Z" fill="#37474F"/>
<path d="M13.1008 45.3764C13.065 45.3763 13.0302 45.3644 13.0018 45.3425C12.9733 45.3207 12.9529 45.2902 12.9435 45.2556C12.9341 45.221 12.9363 45.1843 12.9497 45.1511C12.9632 45.1179 12.9872 45.09 13.018 45.0718L23.5845 38.9573C23.622 38.937 23.666 38.9321 23.707 38.9437C23.7481 38.9553 23.783 38.9824 23.8044 39.0194C23.8257 39.0563 23.8318 39.1001 23.8213 39.1415C23.8108 39.1828 23.7846 39.2185 23.7483 39.2408L13.1818 45.3553C13.1571 45.3692 13.1292 45.3765 13.1008 45.3764Z" fill="#37474F"/>
<path d="M13.1008 47.7319C13.065 47.7317 13.0302 47.7198 13.0018 47.698C12.9733 47.6762 12.9529 47.6456 12.9435 47.6111C12.9341 47.5765 12.9363 47.5398 12.9497 47.5066C12.9632 47.4734 12.9872 47.4455 13.018 47.4272L23.5845 41.3127C23.622 41.2924 23.666 41.2875 23.707 41.2991C23.7481 41.3107 23.783 41.3379 23.8044 41.3748C23.8257 41.4118 23.8318 41.4556 23.8213 41.4969C23.8108 41.5383 23.7846 41.5739 23.7483 41.5963L13.1818 47.7108C13.1571 47.7247 13.1292 47.732 13.1008 47.7319Z" fill="#37474F"/>
<path d="M22.6951 44.5916C22.6531 44.5916 22.6127 44.5756 22.5823 44.5467C22.5518 44.5179 22.5336 44.4785 22.5313 44.4366L22.003 35.1152C22.0004 35.0717 22.0152 35.029 22.0441 34.9965C22.073 34.964 22.1136 34.9443 22.1571 34.9417C22.2005 34.9391 22.2432 34.9539 22.2757 34.9828C22.3082 35.0117 22.328 35.0524 22.3305 35.0958L22.8589 44.419C22.8603 44.4407 22.8574 44.4625 22.8504 44.4832C22.8434 44.5038 22.8323 44.5229 22.8179 44.5392C22.8036 44.5556 22.7861 44.5689 22.7665 44.5785C22.7469 44.5881 22.7256 44.5937 22.7039 44.5951L22.6951 44.5916Z" fill="#37474F"/>
<path d="M21.3426 45.3783C21.3009 45.3784 21.2608 45.3626 21.2303 45.3341C21.1999 45.3057 21.1815 45.2667 21.1788 45.2251L20.6505 35.9019C20.6472 35.8794 20.6487 35.8565 20.6548 35.8346C20.6609 35.8127 20.6715 35.7923 20.686 35.7747C20.7004 35.7572 20.7183 35.7428 20.7386 35.7325C20.7589 35.7222 20.781 35.7163 20.8037 35.7151C20.8264 35.7139 20.8491 35.7174 20.8704 35.7254C20.8917 35.7334 20.911 35.7458 20.9273 35.7617C20.9435 35.7776 20.9562 35.7967 20.9647 35.8178C20.9731 35.8389 20.9771 35.8616 20.9763 35.8843L21.5046 45.2057C21.5065 45.2274 21.504 45.2493 21.4973 45.27C21.4906 45.2908 21.4797 45.3099 21.4654 45.3264C21.4511 45.3428 21.4337 45.3562 21.4141 45.3657C21.3945 45.3752 21.3731 45.3807 21.3514 45.3818L21.3426 45.3783Z" fill="#37474F"/>
<path d="M19.9883 46.1647C19.9466 46.1648 19.9064 46.1487 19.8762 46.1198C19.846 46.0909 19.8281 46.0515 19.8263 46.0097L19.298 36.6883C19.2961 36.6666 19.2985 36.6447 19.3053 36.624C19.312 36.6033 19.3228 36.5841 19.3371 36.5677C19.3515 36.5512 19.3689 36.5378 19.3885 36.5283C19.4081 36.5188 19.4294 36.5133 19.4512 36.5122C19.4729 36.5105 19.4946 36.5132 19.5153 36.52C19.5359 36.5268 19.555 36.5377 19.5713 36.5519C19.5877 36.5662 19.6011 36.5836 19.6107 36.6031C19.6203 36.6225 19.626 36.6437 19.6273 36.6654L20.1556 45.9886C20.1573 46.0103 20.1547 46.032 20.1479 46.0527C20.141 46.0733 20.1302 46.0924 20.1159 46.1088C20.1017 46.1251 20.0843 46.1385 20.0648 46.1481C20.0453 46.1577 20.0241 46.1634 20.0024 46.1647H19.9883Z" fill="#37474F"/>
<path d="M18.6358 46.9564C18.5941 46.9565 18.554 46.9407 18.5236 46.9123C18.4931 46.8838 18.4747 46.8448 18.472 46.8032L17.9437 37.48C17.9404 37.4575 17.9419 37.4346 17.948 37.4127C17.9542 37.3908 17.9648 37.3704 17.9792 37.3529C17.9936 37.3353 18.0115 37.3209 18.0318 37.3106C18.0521 37.3004 18.0743 37.2944 18.097 37.2932C18.1197 37.292 18.1424 37.2955 18.1636 37.3035C18.1849 37.3115 18.2043 37.3239 18.2205 37.3398C18.2367 37.3557 18.2494 37.3749 18.2579 37.396C18.2663 37.4171 18.2703 37.4397 18.2695 37.4624L18.7978 46.7838C18.7995 46.8056 18.7968 46.8276 18.7898 46.8483C18.7829 46.869 18.7719 46.8882 18.7575 46.9046C18.743 46.921 18.7254 46.9344 18.7057 46.9439C18.6861 46.9534 18.6647 46.9588 18.6428 46.96L18.6358 46.9564Z" fill="#37474F"/>
<path d="M17.2833 47.7486C17.2415 47.7483 17.2013 47.7321 17.1709 47.7034C17.1405 47.6746 17.1222 47.6354 17.1195 47.5937L16.5912 38.2705C16.59 38.249 16.5931 38.2274 16.6003 38.2071C16.6074 38.1868 16.6185 38.1681 16.6329 38.1521C16.6473 38.1361 16.6647 38.123 16.6841 38.1137C16.7036 38.1044 16.7246 38.099 16.7462 38.0979C16.7677 38.0967 16.7892 38.0998 16.8095 38.107C16.8298 38.1141 16.8485 38.1252 16.8645 38.1396C16.8806 38.154 16.8936 38.1714 16.9029 38.1909C16.9122 38.2103 16.9176 38.2314 16.9187 38.2529L17.4471 47.5761C17.4485 47.5978 17.4456 47.6196 17.4386 47.6403C17.4316 47.6609 17.4206 47.6799 17.4062 47.6963C17.3918 47.7127 17.3743 47.726 17.3547 47.7356C17.3351 47.7452 17.3138 47.7508 17.2921 47.7522L17.2833 47.7486Z" fill="#37474F"/>
<path d="M15.9308 48.5369C15.8888 48.5369 15.8485 48.5209 15.818 48.4921C15.7875 48.4632 15.7693 48.4238 15.767 48.3819L15.2387 39.0605C15.2361 39.017 15.2509 38.9744 15.2798 38.9418C15.3087 38.9093 15.3493 38.8896 15.3928 38.887C15.4362 38.8844 15.4789 38.8992 15.5114 38.9281C15.544 38.957 15.5637 38.9977 15.5663 39.0411L16.0946 48.3643C16.0963 48.3859 16.0936 48.4077 16.0868 48.4284C16.08 48.449 16.0691 48.468 16.0548 48.4844C16.0406 48.5008 16.0232 48.5142 16.0037 48.5238C15.9842 48.5334 15.963 48.5391 15.9414 48.5404L15.9308 48.5369Z" fill="#37474F"/>
<path d="M14.5765 49.3254C14.535 49.3246 14.4953 49.3082 14.4653 49.2795C14.4353 49.2508 14.4172 49.2118 14.4145 49.1704L13.8862 39.8472C13.883 39.8247 13.8844 39.8018 13.8906 39.7799C13.8967 39.758 13.9073 39.7376 13.9217 39.7201C13.9361 39.7025 13.954 39.6881 13.9743 39.6778C13.9946 39.6676 14.0168 39.6616 14.0395 39.6604C14.0622 39.6592 14.0849 39.6627 14.1061 39.6707C14.1274 39.6787 14.1468 39.6911 14.163 39.707C14.1792 39.7229 14.1919 39.742 14.2004 39.7632C14.2088 39.7843 14.2128 39.8069 14.212 39.8296L14.7403 49.1528C14.7425 49.1746 14.7402 49.1965 14.7336 49.2174C14.7269 49.2382 14.7161 49.2575 14.7018 49.274C14.6874 49.2904 14.6698 49.3038 14.6501 49.3133C14.6304 49.3227 14.6089 49.3281 14.5871 49.3289L14.5765 49.3254Z" fill="#37474F"/>
<path d="M28.8659 24.3266L21.7371 20.2109V25.0187L28.8659 29.1344L30.546 28.6958V26.697L28.8659 24.3266ZM29.4735 27.5635C29.3554 27.4862 29.2571 27.3821 29.1868 27.2597C29.1164 27.1373 29.0759 27 29.0685 26.859C29.0685 26.6002 29.2446 26.4963 29.4735 26.6248C29.5919 26.7018 29.6904 26.8058 29.7608 26.9283C29.8312 27.0507 29.8716 27.1882 29.8786 27.3292C29.8786 27.5811 29.6901 27.685 29.4735 27.5564V27.5635Z" fill="#0071CE"/>
<path opacity="0.5" d="M28.8659 24.3266L21.7371 20.2109V25.0187L28.8659 29.1344L30.546 28.6958V26.697L28.8659 24.3266ZM29.4735 27.5635C29.3554 27.4862 29.2571 27.3821 29.1868 27.2597C29.1164 27.1373 29.0759 27 29.0685 26.859C29.0685 26.6002 29.2446 26.4963 29.4735 26.6248C29.5919 26.7018 29.6904 26.8058 29.7608 26.9283C29.8312 27.0507 29.8716 27.1882 29.8786 27.3292C29.8786 27.5811 29.6901 27.685 29.4735 27.5564V27.5635Z" fill="#3394DD"/>
<path d="M29.5493 35.829C29.5132 35.8263 29.4788 35.8126 29.4507 35.7898C29.4227 35.7669 29.4024 35.7359 29.3926 35.7011C29.3828 35.6662 29.3839 35.6292 29.3959 35.5951C29.4079 35.5609 29.4301 35.5313 29.4595 35.5102L30.7468 34.7177C31.1636 34.4598 31.5078 34.1001 31.7472 33.6725C31.9866 33.2449 32.1132 32.7634 32.1152 32.2733V29.8659C32.1142 29.571 32.0379 29.2811 31.8937 29.0238C31.7495 28.7665 31.5421 28.5502 31.291 28.3954L29.5141 27.3018C29.4884 27.294 29.4648 27.2805 29.4451 27.2623C29.4254 27.244 29.4102 27.2215 29.4005 27.1965C29.3909 27.1715 29.3871 27.1446 29.3894 27.1178C29.3917 27.0911 29.4001 27.0653 29.414 27.0423C29.4278 27.0193 29.4467 26.9998 29.4693 26.9852C29.4918 26.9706 29.5174 26.9614 29.544 26.9583C29.5707 26.9551 29.5977 26.9581 29.623 26.9669C29.6484 26.9758 29.6713 26.9903 29.6902 27.0094L31.4794 28.1031C31.7801 28.2885 32.0286 28.5475 32.2015 28.8557C32.3743 29.1638 32.4659 29.5109 32.4674 29.8642V32.2716C32.4652 32.8203 32.3234 33.3594 32.0554 33.8381C31.7873 34.3169 31.4019 34.7196 30.9353 35.0083L29.6426 35.8008C29.6148 35.8188 29.5824 35.8285 29.5493 35.829Z" fill="#0071CE"/>
<path opacity="0.9" d="M29.5493 35.829C29.5132 35.8263 29.4788 35.8126 29.4507 35.7898C29.4227 35.7669 29.4024 35.7359 29.3926 35.7011C29.3828 35.6662 29.3839 35.6292 29.3959 35.5951C29.4079 35.5609 29.4301 35.5313 29.4595 35.5102L30.7468 34.7177C31.1636 34.4598 31.5078 34.1001 31.7472 33.6725C31.9866 33.2449 32.1132 32.7634 32.1152 32.2733V29.8659C32.1142 29.571 32.0379 29.2811 31.8937 29.0238C31.7495 28.7665 31.5421 28.5502 31.291 28.3954L29.5141 27.3018C29.4884 27.294 29.4648 27.2805 29.4451 27.2623C29.4254 27.244 29.4102 27.2215 29.4005 27.1965C29.3909 27.1715 29.3871 27.1446 29.3894 27.1178C29.3917 27.0911 29.4001 27.0653 29.414 27.0423C29.4278 27.0193 29.4467 26.9998 29.4693 26.9852C29.4918 26.9706 29.5174 26.9614 29.544 26.9583C29.5707 26.9551 29.5977 26.9581 29.623 26.9669C29.6484 26.9758 29.6713 26.9903 29.6902 27.0094L31.4794 28.1031C31.7801 28.2885 32.0286 28.5475 32.2015 28.8557C32.3743 29.1638 32.4659 29.5109 32.4674 29.8642V32.2716C32.4652 32.8203 32.3234 33.3594 32.0554 33.8381C31.7873 34.3169 31.4019 34.7196 30.9353 35.0083L29.6426 35.8008C29.6148 35.8188 29.5824 35.8285 29.5493 35.829Z" fill="black"/>
<path d="M27.2246 57.2351C27.2246 57.9906 26.6963 58.2918 26.0412 57.9184C25.6961 57.6939 25.4088 57.391 25.2029 57.0345C24.9969 56.678 24.8781 56.2779 24.856 55.8667C24.856 55.1112 25.3843 54.8101 26.0412 55.1834C26.3858 55.4084 26.6725 55.7114 26.8781 56.0678C27.0837 56.4243 27.2024 56.8242 27.2246 57.2351Z" fill="#455A64"/>
<path d="M26.4427 56.783C26.4427 57.0401 26.2666 57.1457 26.0394 57.0172C25.9213 56.9399 25.8231 56.8358 25.7527 56.7134C25.6823 56.591 25.6418 56.4537 25.6344 56.3127C25.6344 56.0539 25.8105 55.95 26.0394 56.0785C26.1574 56.1558 26.2555 56.2599 26.3256 56.3824C26.3957 56.5048 26.4358 56.6421 26.4427 56.783Z" fill="#263238"/>
<path d="M27.7635 56.9213C27.7412 56.51 27.6223 56.1097 27.4164 55.7529C27.2104 55.3962 26.9233 55.093 26.5783 54.8679C26.1116 54.5985 25.71 54.6795 25.5216 55.0211C25.7087 55.0275 25.8908 55.0828 26.0499 55.1814C26.3929 55.4073 26.6779 55.7107 26.882 56.0671C27.086 56.4235 27.2034 56.8229 27.2246 57.2331C27.2246 57.6064 27.0943 57.8688 26.8847 57.9939L27.4007 57.698C27.6226 57.5782 27.7635 57.3088 27.7635 56.9213Z" fill="#263238"/>
<path d="M26.0905 54.6423C25.2663 54.165 24.5989 54.5507 24.5989 55.5017L27.5769 57.224C27.5769 56.273 26.9129 55.1177 26.0905 54.6423Z" fill="#0071CE"/>
<path d="M26.6258 54.224C26.02 53.8718 25.5005 53.9916 25.2662 54.453C25.5548 54.4172 25.8467 54.4845 26.0904 54.6432C26.9128 55.1187 27.5821 56.2739 27.5821 57.2249L28.1104 56.8075C28.1174 55.8513 27.45 54.6995 26.6258 54.224Z" fill="#0071CE"/>
<path opacity="0.5" d="M26.6258 54.224C26.02 53.8718 25.5005 53.9916 25.2662 54.453C25.5548 54.4172 25.8467 54.4845 26.0904 54.6432C26.9128 55.1187 27.5821 56.2739 27.5821 57.2249L28.1104 56.8075C28.1174 55.8513 27.45 54.6995 26.6258 54.224Z" fill="black"/>
<path d="M35.935 62.2664C35.935 63.0219 35.4067 63.323 34.7498 62.9497C34.4047 62.7251 34.1175 62.4223 33.9115 62.0658C33.7055 61.7092 33.5867 61.3091 33.5646 60.898C33.5646 60.1425 34.0929 59.8413 34.7498 60.2147C35.0946 60.4395 35.3816 60.7425 35.5875 61.0989C35.7934 61.4554 35.9125 61.8553 35.935 62.2664Z" fill="#455A64"/>
<path d="M35.1495 61.8142C35.1495 62.0713 34.9733 62.177 34.7444 62.0484C34.6263 61.9711 34.528 61.867 34.4577 61.7446C34.3873 61.6222 34.3468 61.485 34.3394 61.344C34.3394 61.0851 34.5155 60.9812 34.7444 61.1098C34.8628 61.1868 34.9613 61.2908 35.0317 61.4132C35.1021 61.5357 35.1425 61.6731 35.1495 61.8142Z" fill="#263238"/>
<path d="M36.4739 61.9526C36.4515 61.5415 36.3328 61.1414 36.1272 60.7847C35.9216 60.4279 35.6349 60.1246 35.2904 59.8992C34.8237 59.6297 34.4204 59.7107 34.2338 60.0524C34.4208 60.0588 34.603 60.114 34.7621 60.2126C35.1069 60.4375 35.3939 60.7404 35.5998 61.0969C35.8057 61.4533 35.9248 61.8533 35.9473 62.2643C35.9473 62.6377 35.817 62.9001 35.6074 63.0251L36.1216 62.7292C36.333 62.6095 36.4739 62.34 36.4739 61.9526Z" fill="#263238"/>
<path d="M34.7973 59.6774C33.9731 59.2002 33.3057 59.5858 33.3057 60.5368L36.2889 62.2592C36.2925 61.3117 35.625 60.1529 34.7973 59.6774Z" fill="#0071CE"/>
<path d="M35.3362 59.2553C34.7321 58.9031 34.2109 59.0228 33.9784 59.4842C34.2664 59.4476 34.5581 59.5151 34.8008 59.6744C35.625 60.1499 36.2925 61.3052 36.2925 62.2562L36.8208 61.8388C36.8278 60.886 36.1604 59.7237 35.3362 59.2553Z" fill="#0071CE"/>
<path opacity="0.5" d="M35.3362 59.2553C34.7321 58.9031 34.2109 59.0228 33.9784 59.4842C34.2664 59.4476 34.5581 59.5151 34.8008 59.6744C35.625 60.1499 36.2925 61.3052 36.2925 62.2562L36.8208 61.8388C36.8278 60.886 36.1604 59.7237 35.3362 59.2553Z" fill="black"/>
<path d="M25.4741 68.3289C25.4741 69.0844 24.9458 69.3855 24.2907 69.0122C23.9456 68.7876 23.6583 68.4848 23.4524 68.1283C23.2464 67.7717 23.1276 67.3716 23.1055 66.9605C23.1055 66.205 23.6338 65.9038 24.2907 66.2772C24.6353 66.5021 24.922 66.8051 25.1276 67.1616C25.3332 67.518 25.4519 67.9179 25.4741 68.3289Z" fill="#455A64"/>
<path d="M24.694 67.8806C24.694 68.1395 24.5179 68.2434 24.2907 68.1148C24.1725 68.0375 24.0743 67.9334 24.0039 67.811C23.9336 67.6887 23.893 67.5514 23.8856 67.4104C23.8856 67.1515 24.0617 67.0476 24.2907 67.1762C24.4083 67.2539 24.506 67.3581 24.5761 67.4805C24.6461 67.6028 24.6865 67.7398 24.694 67.8806Z" fill="#263238"/>
<path d="M26.0148 68.0179C25.9927 67.6067 25.8738 67.2066 25.6679 66.8501C25.4619 66.4936 25.1747 66.1908 24.8296 65.9662C24.3629 65.6968 23.9614 65.776 23.7729 66.1177C23.96 66.1241 24.1422 66.1793 24.3013 66.2779C24.6459 66.5029 24.9326 66.8059 25.1382 67.1623C25.3438 67.5188 25.4625 67.9187 25.4847 68.3296C25.4847 68.7029 25.3544 68.9653 25.1448 69.0921L25.6608 68.7945C25.8739 68.6748 26.0148 68.4053 26.0148 68.0179Z" fill="#263238"/>
<path d="M24.3417 65.7388C23.5175 65.2633 22.8501 65.649 22.8501 66.6L25.8334 68.3223C25.8334 67.3695 25.1659 66.2143 24.3417 65.7388Z" fill="#0071CE"/>
<path d="M24.8771 65.3216C24.2713 64.9694 23.7518 65.0891 23.5176 65.5523C23.806 65.5141 24.0986 65.581 24.3418 65.7407C25.166 66.2162 25.8334 67.3715 25.8334 68.3242L26.3617 67.9051C26.3688 66.9471 25.7013 65.7971 24.8771 65.3216Z" fill="#0071CE"/>
<path opacity="0.5" d="M24.8771 65.3216C24.2713 64.9694 23.7518 65.0891 23.5176 65.5523C23.806 65.5141 24.0986 65.581 24.3418 65.7407C25.166 66.2162 25.8334 67.3715 25.8334 68.3242L26.3617 67.9051C26.3688 66.9471 25.7013 65.7971 24.8771 65.3216Z" fill="black"/>
<path d="M36.4087 62.027C36.3364 62.0268 36.2661 62.0027 36.2089 61.9585C36.1517 61.9142 36.1108 61.8523 36.0925 61.7823C36.0742 61.7123 36.0795 61.6383 36.1078 61.5717C36.136 61.5051 36.1854 61.4497 36.2484 61.4141C36.3247 61.3712 36.3881 61.3088 36.4322 61.2333C36.4764 61.1578 36.4997 61.0719 36.4997 60.9844C36.4997 60.8969 36.4764 60.8111 36.4322 60.7355C36.3881 60.66 36.3247 60.5976 36.2484 60.5547L25.217 54.3645C24.8681 54.17 24.574 53.8904 24.3622 53.5517C24.1503 53.213 24.0276 52.8262 24.0054 52.4273L22.8114 30.9843C22.7944 30.6912 22.7051 30.4069 22.5515 30.1568C22.3978 29.9066 22.1846 29.6984 21.9308 29.5508L21.1595 29.1C21.0561 29.0411 20.9393 29.0102 20.8204 29.0102C20.7016 29.0102 20.5847 29.0411 20.4814 29.1L19.8334 29.461C19.7583 29.4964 19.6726 29.502 19.5936 29.4767C19.5145 29.4514 19.448 29.397 19.4076 29.3245C19.3671 29.2521 19.3556 29.1669 19.3755 29.0864C19.3954 29.0058 19.4451 28.9357 19.5146 28.8904L20.1609 28.5382C20.364 28.424 20.5935 28.3651 20.8265 28.3672C21.0595 28.3694 21.2878 28.4326 21.4888 28.5505L22.2601 29.0013C22.6068 29.2031 22.8979 29.4878 23.1073 29.8299C23.3166 30.1721 23.4376 30.5609 23.4594 30.9614L24.6534 52.3991C24.6692 52.6892 24.7582 52.9706 24.9122 53.217C25.0662 53.4634 25.2801 53.6667 25.534 53.808L36.5654 59.9982C36.7432 60.0978 36.8913 60.243 36.9944 60.4188C37.0974 60.5946 37.1517 60.7947 37.1517 60.9985C37.1517 61.2023 37.0974 61.4024 36.9944 61.5782C36.8913 61.7541 36.7432 61.8992 36.5654 61.9988C36.5163 62.0208 36.4625 62.0305 36.4087 62.027Z" fill="#263238"/>
<path d="M27.1823 55.583C27.0984 55.5826 27.0159 55.5608 26.9428 55.5196L24.9581 54.4066C24.8446 54.3431 24.7609 54.2371 24.7256 54.1119C24.6903 53.9868 24.7061 53.8527 24.7696 53.7392C24.8331 53.6257 24.9391 53.5421 25.0643 53.5067C25.1895 53.4714 25.3236 53.4872 25.4371 53.5507L27.4218 54.6638C27.5162 54.717 27.5904 54.8 27.6327 54.8998C27.6751 54.9997 27.6832 55.1107 27.6559 55.2156C27.6285 55.3205 27.5673 55.4134 27.4816 55.4799C27.396 55.5464 27.2907 55.5826 27.1823 55.583Z" fill="#0071CE"/>
<path d="M28.0453 55.9045C27.9892 55.9042 27.934 55.8897 27.885 55.8622L27.1929 55.473C27.1234 55.4277 27.0737 55.3577 27.0538 55.2771C27.034 55.1965 27.0454 55.1114 27.0859 55.0389C27.1264 54.9664 27.1929 54.9121 27.2719 54.8867C27.3509 54.8614 27.4366 54.867 27.5117 54.9024L28.2056 55.2916C28.2686 55.3272 28.318 55.3826 28.3462 55.4492C28.3745 55.5158 28.3798 55.5898 28.3615 55.6598C28.3432 55.7298 28.3023 55.7917 28.2451 55.836C28.1879 55.8803 28.1176 55.9043 28.0453 55.9045Z" fill="#253239"/>
<path d="M36.074 60.5752C35.99 60.5757 35.9073 60.5538 35.8345 60.5118L33.8498 59.3988C33.7936 59.3674 33.7441 59.3252 33.7042 59.2746C33.6644 59.224 33.6348 59.1661 33.6173 59.1041C33.5998 59.0421 33.5947 58.9773 33.6023 58.9134C33.6098 58.8494 33.6299 58.7876 33.6613 58.7314C33.7249 58.6179 33.8309 58.5343 33.956 58.4989C34.018 58.4814 34.0828 58.4763 34.1468 58.4839C34.2108 58.4914 34.2726 58.5115 34.3288 58.5429L36.3153 59.6577C36.4104 59.7105 36.4851 59.7935 36.5278 59.8935C36.5705 59.9936 36.5787 60.105 36.551 60.2102C36.5233 60.3154 36.4614 60.4083 36.3751 60.4744C36.2887 60.5405 36.1828 60.576 36.074 60.5752Z" fill="#0071CE"/>
<path d="M36.4087 62.0271C36.3363 62.0269 36.2661 62.0028 36.2089 61.9586C36.1517 61.9143 36.1107 61.8524 36.0924 61.7824C36.0741 61.7124 36.0795 61.6383 36.1077 61.5717C36.1359 61.5051 36.1854 61.4498 36.2484 61.4142C36.3246 61.3713 36.3881 61.3089 36.4322 61.2334C36.4764 61.1579 36.4996 61.072 36.4996 60.9845C36.4996 60.897 36.4764 60.8111 36.4322 60.7356C36.3881 60.6601 36.3246 60.5977 36.2484 60.5548C36.1768 60.5102 36.1252 60.4398 36.1043 60.3581C36.0834 60.2765 36.0947 60.1899 36.136 60.1164C36.1773 60.0429 36.2453 59.9881 36.326 59.9635C36.4066 59.9389 36.4936 59.9463 36.5689 59.9842C36.7467 60.0838 36.8948 60.229 36.9978 60.4048C37.1009 60.5806 37.1552 60.7807 37.1552 60.9845C37.1552 61.1883 37.1009 61.3884 36.9978 61.5642C36.8948 61.7401 36.7467 61.8852 36.5689 61.9848C36.52 62.0123 36.4648 62.0268 36.4087 62.0271Z" fill="#455A64"/>
<path d="M16.4153 64.0658C16.8777 63.7989 16.8777 62.9331 16.4152 62.132C15.9527 61.331 15.2029 60.898 14.7405 61.165C14.2781 61.432 14.2781 62.2978 14.7406 63.0989C15.2031 63.8999 15.9529 64.3328 16.4153 64.0658Z" fill="#455A64"/>
<path d="M15.9836 62.8494C15.9836 63.1082 15.8075 63.2121 15.5786 63.0836C15.4607 63.0062 15.3627 62.902 15.2926 62.7796C15.2226 62.6572 15.1824 62.52 15.1753 62.3792C15.1753 62.1203 15.3514 62.0164 15.5786 62.1449C15.6967 62.2222 15.795 62.3263 15.8653 62.4487C15.9357 62.5711 15.9762 62.7084 15.9836 62.8494Z" fill="#263238"/>
<path d="M17.3045 62.9827C17.282 62.5717 17.1629 62.1717 16.957 61.8153C16.7511 61.4588 16.4641 61.1559 16.1193 60.9311C15.6526 60.6616 15.2493 60.7409 15.0626 61.0825C15.2497 61.0887 15.4319 61.1439 15.5909 61.2428C15.9361 61.4673 16.2233 61.7702 16.4292 62.1267C16.6352 62.4832 16.7541 62.8833 16.7762 63.2944C16.7762 63.6678 16.6458 63.9302 16.4363 64.057L16.9505 63.7594C17.1636 63.6396 17.3045 63.3702 17.3045 62.9827Z" fill="#263238"/>
<path d="M15.6297 60.7075C14.8072 60.232 14.1398 60.6177 14.1398 61.5687L17.1213 63.291C17.1213 62.3383 16.4538 61.183 15.6297 60.7075Z" fill="#0071CE"/>
<path d="M16.165 60.2864C15.561 59.9342 15.0415 60.054 14.8073 60.5171C15.0951 60.4787 15.3872 60.5456 15.6297 60.7056C16.4539 61.181 17.1213 62.3363 17.1213 63.2891L17.6496 62.8699C17.6567 61.9189 16.9892 60.7619 16.165 60.2864Z" fill="#0071CE"/>
<path opacity="0.5" d="M16.165 60.2864C15.561 59.9342 15.0415 60.054 14.8073 60.5171C15.0951 60.4787 15.3872 60.5456 15.6297 60.7056C16.4539 61.181 17.1213 62.3363 17.1213 63.2891L17.6496 62.8699C17.6567 61.9189 16.9892 60.7619 16.165 60.2864Z" fill="black"/>
<path d="M27.0485 66.8349C26.4814 66.836 25.9236 66.6917 25.4283 66.4157L14.58 60.3277C14.231 60.1331 13.937 59.8535 13.7251 59.5148C13.5133 59.1761 13.3906 58.7893 13.3684 58.3905L12.1743 36.9528C12.1576 36.6599 12.0684 36.3757 11.9147 36.1258C11.761 35.8759 11.5476 35.6681 11.2938 35.521L10.4943 35.0437C10.3974 34.9872 10.3173 34.9061 10.2619 34.8086C10.2065 34.7111 10.1779 34.6007 10.179 34.4886C10.1801 34.3765 10.2108 34.2666 10.268 34.1702C10.3252 34.0738 10.4069 33.9942 10.5048 33.9395L19.5216 28.8852C19.5592 28.8607 19.6014 28.8442 19.6457 28.8366C19.69 28.8291 19.7353 28.8308 19.7789 28.8416C19.8225 28.8523 19.8634 28.8719 19.8992 28.8991C19.9349 28.9264 19.9646 28.9606 19.9865 28.9998C20.0084 29.039 20.022 29.0823 20.0265 29.127C20.0309 29.1717 20.0262 29.2168 20.0125 29.2596C19.9987 29.3023 19.9764 29.3418 19.9468 29.3756C19.9172 29.4093 19.8809 29.4366 19.8403 29.4558L10.8588 34.496L11.6354 34.9504C11.982 35.1528 12.2729 35.4379 12.4822 35.7803C12.6915 36.1226 12.8126 36.5116 12.8347 36.9122L14.0164 58.3482C14.032 58.6383 14.121 58.9198 14.275 59.1662C14.429 59.4126 14.643 59.6159 14.897 59.7571L25.747 65.8451C26.1443 66.066 26.5913 66.1818 27.0458 66.1818C27.5003 66.1818 27.9474 66.066 28.3446 65.8451L36.2484 61.4142C36.2859 61.3908 36.3279 61.3753 36.3716 61.3685C36.4154 61.3618 36.46 61.364 36.5029 61.375C36.5458 61.386 36.586 61.4055 36.6211 61.4325C36.6562 61.4595 36.6855 61.4933 36.7072 61.5318C36.7288 61.5704 36.7425 61.613 36.7472 61.657C36.752 61.701 36.7478 61.7456 36.7349 61.7879C36.7219 61.8302 36.7006 61.8695 36.672 61.9034C36.6435 61.9372 36.6084 61.9649 36.5689 61.9848L28.6634 66.4175C28.1696 66.6924 27.6136 66.8361 27.0485 66.8349Z" fill="#455A64"/>
<path d="M16.7233 61.6473C16.6387 61.6478 16.5555 61.6259 16.482 61.5839L14.4973 60.4709C14.39 60.404 14.3125 60.2983 14.2811 60.1758C14.2497 60.0534 14.2668 59.9235 14.3287 59.8132C14.3906 59.703 14.4927 59.6208 14.6136 59.5839C14.7346 59.547 14.8651 59.5581 14.9781 59.615L16.9628 60.7298C17.0577 60.7825 17.1324 60.8653 17.1752 60.9652C17.2179 61.0651 17.2261 61.1763 17.1987 61.2814C17.1713 61.3865 17.1097 61.4794 17.0236 61.5457C16.9376 61.6119 16.8319 61.6477 16.7233 61.6473Z" fill="#0071CE"/>
<path d="M25.615 66.6364C25.5312 66.6367 25.4487 66.6155 25.3755 66.5748L23.389 65.46C23.3328 65.4279 23.2835 65.385 23.2438 65.3338C23.2042 65.2826 23.1751 65.224 23.1581 65.1616C23.1411 65.0991 23.1365 65.0339 23.1447 64.9697C23.1529 64.9055 23.1737 64.8435 23.2058 64.7873C23.238 64.7311 23.2809 64.6818 23.3321 64.6421C23.3833 64.6025 23.4418 64.5734 23.5042 64.5564C23.5667 64.5394 23.6319 64.5348 23.6961 64.543C23.7604 64.5512 23.8223 64.572 23.8785 64.6041L25.8545 65.7136C25.9494 65.7664 26.0241 65.8492 26.0668 65.949C26.1095 66.0489 26.1178 66.1601 26.0904 66.2652C26.063 66.3703 26.0014 66.4633 25.9153 66.5295C25.8292 66.5958 25.7236 66.6315 25.615 66.6311V66.6364Z" fill="#0071CE"/>
<path d="M27.0485 66.8397C26.6262 66.8399 26.2077 66.7592 25.8158 66.602C25.7739 66.5875 25.7353 66.5647 25.7025 66.5349C25.6697 66.5051 25.6433 66.4689 25.6249 66.4286C25.6064 66.3883 25.5964 66.3446 25.5953 66.3003C25.5942 66.256 25.6022 66.2119 25.6186 66.1708C25.6351 66.1296 25.6598 66.0922 25.6911 66.0608C25.7224 66.0295 25.7598 66.0048 25.801 65.9883C25.8421 65.9719 25.8862 65.9639 25.9305 65.9649C25.9748 65.966 26.0185 65.976 26.0588 65.9944C26.3728 66.1211 26.7082 66.1863 27.0468 66.1864C27.0917 66.1831 27.1368 66.1891 27.1793 66.204C27.2218 66.2189 27.2608 66.2425 27.2937 66.2731C27.3267 66.3038 27.3531 66.3409 27.371 66.3822C27.389 66.4235 27.3983 66.468 27.3983 66.5131C27.3983 66.5581 27.389 66.6027 27.371 66.6439C27.3531 66.6852 27.3267 66.7224 27.2937 66.753C27.2608 66.7837 27.2218 66.8072 27.1793 66.8221C27.1368 66.837 27.0917 66.843 27.0468 66.8397H27.0485Z" fill="#455A64"/>
<path d="M15.8022 60.6324C15.7163 60.6326 15.6319 60.6102 15.5574 60.5675C15.4829 60.5248 15.421 60.4632 15.3778 60.389C15.3346 60.3148 15.3117 60.2305 15.3114 60.1446C15.3111 60.0588 15.3334 59.9743 15.376 59.8998L15.7388 59.2587C15.7691 59.1999 15.8109 59.1477 15.8619 59.1055C15.9128 59.0632 15.9718 59.0316 16.0352 59.0127C16.0987 58.9938 16.1653 58.9879 16.2311 58.9953C16.2968 59.0028 16.3604 59.0235 16.418 59.0561C16.4756 59.0888 16.526 59.1327 16.5662 59.1853C16.6064 59.238 16.6355 59.2982 16.6518 59.3623C16.6682 59.4265 16.6714 59.4933 16.6612 59.5587C16.6511 59.6241 16.6279 59.6868 16.5929 59.743L16.2283 60.3841C16.1856 60.4595 16.1237 60.5222 16.0488 60.5658C15.9739 60.6095 15.8888 60.6324 15.8022 60.6324Z" fill="#0071CE"/>
<path d="M16.2848 59.6166C16.2284 59.6165 16.173 59.6013 16.1245 59.5726C16.0871 59.5515 16.0541 59.5233 16.0277 59.4894C16.0012 59.4556 15.9816 59.4169 15.9702 59.3754C15.9587 59.334 15.9556 59.2908 15.9609 59.2481C15.9662 59.2055 15.9799 59.1643 16.0012 59.127L17.6214 56.2705C17.7414 56.0592 17.9153 55.8834 18.1254 55.7612C18.3354 55.639 18.5742 55.5747 18.8172 55.5749H19.622C19.9432 55.5744 20.2512 55.4466 20.4783 55.2195C20.7054 54.9924 20.8332 54.6845 20.8337 54.3633C20.8304 54.3184 20.8364 54.2732 20.8513 54.2308C20.8662 54.1883 20.8897 54.1493 20.9204 54.1163C20.9511 54.0833 20.9882 54.057 21.0295 54.039C21.0708 54.021 21.1153 54.0117 21.1604 54.0117C21.2054 54.0117 21.2499 54.021 21.2912 54.039C21.3325 54.057 21.3696 54.0833 21.4003 54.1163C21.431 54.1493 21.4545 54.1883 21.4694 54.2308C21.4843 54.2732 21.4903 54.3184 21.487 54.3633C21.4866 54.8578 21.2899 55.3319 20.9403 55.6815C20.5906 56.0312 20.1165 56.2278 19.622 56.2283H18.8172C18.6898 56.2282 18.5647 56.2618 18.4545 56.3259C18.3444 56.3899 18.2532 56.482 18.1903 56.5928L16.5701 59.4493C16.5418 59.5001 16.5004 59.5424 16.4502 59.5718C16.4001 59.6013 16.3429 59.6167 16.2848 59.6166Z" fill="#455A64"/>
<path d="M12.6217 39.4514C12.5501 39.4511 12.4805 39.4273 12.4237 39.3837C12.3668 39.34 12.3259 39.2789 12.3071 39.2098C12.2883 39.1406 12.2927 39.0672 12.3197 39.0008C12.3466 38.9344 12.3945 38.8786 12.4562 38.8421L23.0227 32.7276C23.0598 32.7061 23.1008 32.6921 23.1433 32.6865C23.1859 32.6808 23.2291 32.6836 23.2705 32.6946C23.312 32.7056 23.3509 32.7247 23.3849 32.7508C23.419 32.7769 23.4476 32.8094 23.4691 32.8465C23.4906 32.8836 23.5046 32.9246 23.5103 32.9671C23.516 33.0096 23.5132 33.0529 23.5022 33.0943C23.4911 33.1358 23.472 33.1747 23.446 33.2087C23.4199 33.2428 23.3874 33.2714 23.3503 33.2929L12.7837 39.4074C12.7346 39.4362 12.6787 39.4514 12.6217 39.4514Z" fill="#455A64"/>
<path d="M17.5862 61.9681C17.5301 61.9678 17.475 61.9533 17.426 61.9259L16.7321 61.5367C16.6948 61.5156 16.6619 61.4874 16.6355 61.4537C16.609 61.4199 16.5895 61.3813 16.5779 61.34C16.5664 61.2987 16.5631 61.2556 16.5683 61.213C16.5734 61.1705 16.5869 61.1293 16.608 61.092C16.629 61.0546 16.6572 61.0218 16.6909 60.9953C16.7247 60.9689 16.7633 60.9493 16.8046 60.9378C16.8459 60.9263 16.889 60.923 16.9316 60.9281C16.9742 60.9333 17.0153 60.9468 17.0526 60.9678L17.7465 61.3553C17.8095 61.3908 17.859 61.4462 17.8872 61.5128C17.9154 61.5794 17.9208 61.6535 17.9025 61.7234C17.8842 61.7934 17.8432 61.8554 17.786 61.8996C17.7288 61.9439 17.6586 61.968 17.5862 61.9681Z" fill="#455A64"/>
<path d="M25.1113 44.5776C25.0679 44.5776 25.0262 44.5604 24.9955 44.5297C24.9648 44.4989 24.9475 44.4573 24.9475 44.4138V35.5362C24.9452 35.5134 24.9476 35.4903 24.9547 35.4685C24.9618 35.4467 24.9734 35.4266 24.9888 35.4096C25.0041 35.3926 25.0229 35.3789 25.0439 35.3696C25.0648 35.3603 25.0875 35.3555 25.1104 35.3555C25.1334 35.3555 25.1561 35.3603 25.177 35.3696C25.198 35.3789 25.2167 35.3926 25.2321 35.4096C25.2475 35.4266 25.2591 35.4467 25.2662 35.4685C25.2733 35.4903 25.2757 35.5134 25.2733 35.5362V44.4174C25.2724 44.4599 25.255 44.5004 25.2248 44.5303C25.1945 44.5602 25.1538 44.5772 25.1113 44.5776Z" fill="#263238"/>
<path d="M26.4444 45.345C26.401 45.345 26.3593 45.3278 26.3286 45.297C26.2979 45.2663 26.2807 45.2247 26.2807 45.1812V36.3018C26.2783 36.279 26.2807 36.256 26.2878 36.2341C26.2949 36.2123 26.3065 36.1923 26.3219 36.1752C26.3373 36.1582 26.356 36.1446 26.377 36.1352C26.3979 36.1259 26.4206 36.1211 26.4436 36.1211C26.4665 36.1211 26.4892 36.1259 26.5101 36.1352C26.5311 36.1446 26.5499 36.1582 26.5652 36.1752C26.5806 36.1923 26.5922 36.2123 26.5993 36.2341C26.6064 36.256 26.6088 36.279 26.6065 36.3018V45.183C26.606 45.2258 26.5888 45.2668 26.5585 45.2971C26.5282 45.3273 26.4873 45.3446 26.4444 45.345Z" fill="#263238"/>
<path d="M27.7794 46.1072C27.7578 46.1074 27.7364 46.1033 27.7164 46.0952C27.6965 46.087 27.6783 46.075 27.6631 46.0597C27.6478 46.0445 27.6357 46.0263 27.6276 46.0063C27.6195 45.9864 27.6154 45.9649 27.6156 45.9434V37.0622C27.6156 37.0188 27.6329 36.9771 27.6636 36.9464C27.6943 36.9157 27.736 36.8984 27.7794 36.8984C27.8228 36.8984 27.8645 36.9157 27.8952 36.9464C27.9259 36.9771 27.9432 37.0188 27.9432 37.0622V45.9434C27.9432 45.9868 27.9259 46.0285 27.8952 46.0592C27.8645 46.0899 27.8228 46.1072 27.7794 46.1072Z" fill="#263238"/>
<path d="M29.1142 46.8689C29.0927 46.8689 29.0714 46.8646 29.0515 46.8564C29.0317 46.8482 29.0136 46.8361 28.9984 46.8209C28.9832 46.8057 28.9711 46.7876 28.9629 46.7678C28.9547 46.7479 28.9504 46.7266 28.9504 46.7051V37.8239C28.9504 37.7805 28.9677 37.7388 28.9984 37.7081C29.0291 37.6774 29.0708 37.6602 29.1142 37.6602C29.1577 37.6602 29.1993 37.6774 29.23 37.7081C29.2607 37.7388 29.278 37.7805 29.278 37.8239V46.7051C29.278 46.7485 29.2607 46.7902 29.23 46.8209C29.1993 46.8516 29.1577 46.8689 29.1142 46.8689Z" fill="#263238"/>
<path d="M30.4492 47.6314C30.4057 47.6314 30.3641 47.6141 30.3334 47.5834C30.3027 47.5527 30.2854 47.511 30.2854 47.4676V38.5935C30.2854 38.55 30.3027 38.5084 30.3334 38.4777C30.3641 38.4469 30.4057 38.4297 30.4492 38.4297C30.4926 38.4297 30.5343 38.4469 30.565 38.4777C30.5957 38.5084 30.613 38.55 30.613 38.5935V47.4746C30.6111 47.5168 30.5931 47.5567 30.5626 47.5859C30.532 47.6151 30.4914 47.6314 30.4492 47.6314Z" fill="#263238"/>
<path d="M31.784 48.3923C31.7406 48.3923 31.6989 48.3751 31.6682 48.3443C31.6375 48.3136 31.6202 48.272 31.6202 48.2285V39.3474C31.6202 39.3039 31.6375 39.2623 31.6682 39.2316C31.6989 39.2009 31.7406 39.1836 31.784 39.1836C31.8275 39.1836 31.8691 39.2009 31.8998 39.2316C31.9305 39.2623 31.9478 39.3039 31.9478 39.3474V48.2285C31.9478 48.272 31.9305 48.3136 31.8998 48.3443C31.8691 48.3751 31.8275 48.3923 31.784 48.3923Z" fill="#263238"/>
<path d="M33.119 49.1593C33.0755 49.1593 33.0339 49.1421 33.0032 49.1113C32.9725 49.0806 32.9552 49.039 32.9552 48.9955V40.1091C32.9552 40.0657 32.9725 40.024 33.0032 39.9933C33.0339 39.9626 33.0755 39.9453 33.119 39.9453C33.1624 39.9453 33.2041 39.9626 33.2348 39.9933C33.2655 40.024 33.2828 40.0657 33.2828 40.1091V48.9832C33.2845 49.0057 33.2815 49.0284 33.274 49.0497C33.2666 49.071 33.2548 49.0905 33.2394 49.1071C33.224 49.1236 33.2054 49.1368 33.1846 49.1458C33.1639 49.1548 33.1416 49.1594 33.119 49.1593Z" fill="#263238"/>
<path d="M34.4538 49.9157C34.4104 49.9157 34.3687 49.8985 34.338 49.8678C34.3073 49.8371 34.29 49.7954 34.29 49.752V40.8708C34.29 40.8274 34.3073 40.7857 34.338 40.755C34.3687 40.7243 34.4104 40.707 34.4538 40.707C34.4973 40.707 34.5389 40.7243 34.5696 40.755C34.6003 40.7857 34.6176 40.8274 34.6176 40.8708V49.752C34.6176 49.7954 34.6003 49.8371 34.5696 49.8678C34.5389 49.8985 34.4973 49.9157 34.4538 49.9157Z" fill="#263238"/>
<path d="M35.7888 50.6775C35.7453 50.6775 35.7037 50.6602 35.673 50.6295C35.6423 50.5988 35.625 50.5571 35.625 50.5137V41.6325C35.625 41.5891 35.6423 41.5474 35.673 41.5167C35.7037 41.486 35.7453 41.4688 35.7888 41.4688C35.8322 41.4688 35.8739 41.486 35.9046 41.5167C35.9353 41.5474 35.9526 41.5891 35.9526 41.6325V50.5137C35.9526 50.5571 35.9353 50.5988 35.9046 50.6295C35.8739 50.6602 35.8322 50.6775 35.7888 50.6775Z" fill="#263238"/>
<path d="M37.1237 51.448C37.1022 51.448 37.0809 51.4438 37.0611 51.4355C37.0412 51.4273 37.0231 51.4152 37.0079 51.4C36.9927 51.3848 36.9807 51.3668 36.9724 51.3469C36.9642 51.327 36.96 51.3057 36.96 51.2842V42.3942C36.96 42.3508 36.9772 42.3092 37.0079 42.2784C37.0386 42.2477 37.0803 42.2305 37.1237 42.2305C37.1672 42.2305 37.2088 42.2477 37.2396 42.2784C37.2703 42.3092 37.2875 42.3508 37.2875 42.3942V51.2719C37.2892 51.2944 37.2862 51.317 37.2788 51.3384C37.2713 51.3597 37.2595 51.3792 37.2441 51.3957C37.2288 51.4123 37.2101 51.4255 37.1894 51.4345C37.1687 51.4434 37.1463 51.4481 37.1237 51.448Z" fill="#263238"/>
<path d="M38.4586 52.2009C38.4151 52.2009 38.3735 52.1837 38.3428 52.1529C38.3121 52.1222 38.2948 52.0806 38.2948 52.0371V43.156C38.2948 43.1125 38.3121 43.0709 38.3428 43.0402C38.3735 43.0094 38.4151 42.9922 38.4586 42.9922C38.502 42.9922 38.5437 43.0094 38.5744 43.0402C38.6051 43.0709 38.6224 43.1125 38.6224 43.156V52.0371C38.6226 52.0587 38.6185 52.0801 38.6104 52.1001C38.6022 52.1201 38.5902 52.1382 38.5749 52.1535C38.5597 52.1687 38.5415 52.1808 38.5215 52.1889C38.5016 52.1971 38.4802 52.2011 38.4586 52.2009Z" fill="#263238"/>
<path d="M39.7935 52.964C39.7504 52.9635 39.7092 52.946 39.6788 52.9154C39.6485 52.8847 39.6315 52.8433 39.6315 52.8002V43.919C39.6291 43.8962 39.6316 43.8731 39.6387 43.8513C39.6458 43.8295 39.6574 43.8095 39.6727 43.7924C39.6881 43.7754 39.7069 43.7618 39.7278 43.7524C39.7488 43.7431 39.7715 43.7383 39.7944 43.7383C39.8173 43.7383 39.84 43.7431 39.861 43.7524C39.8819 43.7618 39.9007 43.7754 39.9161 43.7924C39.9314 43.8095 39.943 43.8295 39.9501 43.8513C39.9572 43.8731 39.9597 43.8962 39.9573 43.919V52.8002C39.9573 52.8436 39.94 52.8853 39.9093 52.916C39.8786 52.9467 39.837 52.964 39.7935 52.964Z" fill="#263238"/>
<path d="M41.1371 52.9649C41.094 52.9644 41.0528 52.947 41.0225 52.9163C40.9921 52.8856 40.9751 52.8442 40.9751 52.8011V44.6807C40.9727 44.6579 40.9752 44.6349 40.9823 44.6131C40.9894 44.5912 41.001 44.5712 41.0164 44.5541C41.0317 44.5371 41.0505 44.5235 41.0714 44.5141C41.0924 44.5048 41.1151 44.5 41.138 44.5C41.161 44.5 41.1836 44.5048 41.2046 44.5141C41.2256 44.5235 41.2443 44.5371 41.2597 44.5541C41.275 44.5712 41.2867 44.5912 41.2938 44.6131C41.3009 44.6349 41.3033 44.6579 41.3009 44.6807V52.8011C41.3009 52.8445 41.2837 52.8862 41.253 52.9169C41.2222 52.9476 41.1806 52.9649 41.1371 52.9649Z" fill="#263238"/>
<path d="M42.4651 51.8194C42.4437 51.8196 42.4224 51.8156 42.4025 51.8075C42.3827 51.7995 42.3646 51.7876 42.3494 51.7725C42.3341 51.7575 42.322 51.7395 42.3138 51.7197C42.3055 51.7 42.3013 51.6788 42.3013 51.6573V45.4425C42.2989 45.4197 42.3014 45.3966 42.3085 45.3748C42.3156 45.353 42.3272 45.3329 42.3425 45.3158C42.3579 45.2988 42.3767 45.2852 42.3976 45.2759C42.4186 45.2665 42.4413 45.2617 42.4642 45.2617C42.4871 45.2617 42.5098 45.2665 42.5308 45.2759C42.5517 45.2852 42.5705 45.2988 42.5859 45.3158C42.6012 45.3329 42.6128 45.353 42.6199 45.3748C42.627 45.3966 42.6295 45.4197 42.6271 45.4425V51.6573C42.6271 51.6786 42.6229 51.6997 42.6148 51.7193C42.6066 51.739 42.5947 51.7569 42.5796 51.7719C42.5646 51.7869 42.5467 51.7989 42.5271 51.807C42.5074 51.8152 42.4864 51.8194 42.4651 51.8194Z" fill="#263238"/>
<path d="M43.8 50.4911C43.7566 50.4911 43.7149 50.4738 43.6842 50.4431C43.6535 50.4124 43.6362 50.3707 43.6362 50.3273V46.2028C43.6362 46.1594 43.6535 46.1177 43.6842 46.087C43.7149 46.0563 43.7566 46.0391 43.8 46.0391C43.8434 46.0391 43.8851 46.0563 43.9158 46.087C43.9465 46.1177 43.9638 46.1594 43.9638 46.2028V50.3273C43.9638 50.3707 43.9465 50.4124 43.9158 50.4431C43.8851 50.4738 43.8434 50.4911 43.8 50.4911Z" fill="#263238"/>
<path d="M45.1349 49.2874C45.0914 49.2874 45.0498 49.2702 45.019 49.2395C44.9883 49.2088 44.9711 49.1671 44.9711 49.1237V46.9646C44.9711 46.9211 44.9883 46.8795 45.019 46.8488C45.0498 46.818 45.0914 46.8008 45.1349 46.8008C45.1783 46.8008 45.2199 46.818 45.2507 46.8488C45.2814 46.8795 45.2986 46.9211 45.2986 46.9646V49.1237C45.2986 49.1671 45.2814 49.2088 45.2507 49.2395C45.2199 49.2702 45.1783 49.2874 45.1349 49.2874Z" fill="#263238"/>
<path d="M45.1419 49.4405C45.1133 49.4409 45.0852 49.433 45.0609 49.4176L23.3362 36.9721C23.3158 36.9624 23.2976 36.9487 23.2827 36.9316C23.2678 36.9146 23.2567 36.8947 23.2499 36.8732C23.2431 36.8516 23.2408 36.8289 23.2432 36.8065C23.2457 36.784 23.2527 36.7623 23.2639 36.7427C23.2751 36.7231 23.2902 36.706 23.3084 36.6925C23.3265 36.679 23.3472 36.6695 23.3692 36.6644C23.3912 36.6593 23.414 36.6588 23.4362 36.663C23.4584 36.6671 23.4795 36.6758 23.4982 36.6885L45.223 49.1341C45.2605 49.1558 45.288 49.1916 45.2992 49.2335C45.3104 49.2755 45.3045 49.3202 45.2828 49.3578C45.2688 49.3828 45.2483 49.4037 45.2236 49.4182C45.1988 49.4328 45.1707 49.4405 45.1419 49.4405Z" fill="#263238"/>
<path d="M43.6027 50.7806C43.5744 50.7802 43.5466 50.7729 43.5217 50.7594L23.588 39.3388C23.5516 39.3177 23.5249 39.2834 23.5134 39.243C23.5019 39.2025 23.5065 39.1592 23.5264 39.1222C23.537 39.1034 23.5512 39.087 23.5682 39.0737C23.5852 39.0604 23.6046 39.0507 23.6254 39.0449C23.6462 39.0392 23.6679 39.0377 23.6893 39.0403C23.7106 39.043 23.7313 39.0499 23.75 39.0606L43.682 50.4812C43.7141 50.4985 43.7394 50.526 43.7539 50.5595C43.7684 50.5929 43.7712 50.6303 43.7618 50.6655C43.7525 50.7008 43.7315 50.7318 43.7023 50.7536C43.6731 50.7755 43.6374 50.7868 43.601 50.7859L43.6027 50.7806Z" fill="#263238"/>
<path d="M42.1763 52.1854C42.1477 52.1853 42.1197 52.1774 42.0952 52.1625L23.7166 41.633C23.6978 41.6223 23.6813 41.6081 23.6681 41.5911C23.6548 41.5741 23.645 41.5547 23.6393 41.5339C23.6336 41.5131 23.632 41.4914 23.6347 41.4701C23.6374 41.4487 23.6442 41.428 23.6549 41.4093C23.677 41.3721 23.7127 41.3449 23.7545 41.3338C23.7963 41.3226 23.8409 41.3282 23.8786 41.3494L42.259 51.879C42.2963 51.901 42.3234 51.9368 42.3346 51.9786C42.3458 52.0204 42.3401 52.0649 42.3189 52.1026C42.3047 52.1279 42.284 52.1489 42.2589 52.1635C42.2338 52.1781 42.2053 52.1856 42.1763 52.1854Z" fill="#263238"/>
<path d="M40.7304 53.6605C40.6729 53.6607 40.6163 53.6455 40.5666 53.6165L23.8962 44.0661C23.8208 44.0229 23.7656 43.9515 23.7428 43.8676C23.72 43.7837 23.7315 43.6942 23.7747 43.6188C23.8179 43.5434 23.8893 43.4882 23.9732 43.4654C24.0571 43.4426 24.1466 43.4541 24.222 43.4973L40.6846 52.9297L46.1229 47.9264L23.5 34.9648C23.4301 34.919 23.3803 34.8483 23.3609 34.767C23.3415 34.6857 23.3538 34.6001 23.3955 34.5277C23.4371 34.4552 23.5048 34.4014 23.5848 34.3773C23.6648 34.3531 23.751 34.3604 23.8258 34.3977L46.8361 47.5742C46.8805 47.6002 46.9182 47.6362 46.9463 47.6793C46.9744 47.7224 46.9921 47.7714 46.9981 47.8225C47.0037 47.8735 46.9971 47.9251 46.9791 47.9731C46.9611 48.0212 46.932 48.0643 46.8942 48.099L40.9506 53.576C40.8902 53.6305 40.8117 53.6606 40.7304 53.6605Z" fill="#263238"/>
<path d="M14.5448 50.4171C14.5162 50.4173 14.4881 50.41 14.4633 50.3957C14.4386 50.3815 14.4181 50.3609 14.4039 50.336C14.393 50.3175 14.3858 50.2969 14.3829 50.2756C14.3799 50.2542 14.3813 50.2325 14.3869 50.2116C14.3924 50.1908 14.4021 50.1713 14.4153 50.1543C14.4285 50.1372 14.445 50.123 14.4638 50.1124L24.627 44.2039C24.6457 44.1925 24.6664 44.1849 24.6881 44.1816C24.7097 44.1783 24.7318 44.1793 24.753 44.1847C24.7742 44.1901 24.7941 44.1996 24.8116 44.2128C24.8291 44.226 24.8437 44.2426 24.8546 44.2615C24.8656 44.2805 24.8726 44.3015 24.8753 44.3232C24.878 44.3449 24.8764 44.3669 24.8704 44.388C24.8645 44.4091 24.8544 44.4287 24.8407 44.4458C24.827 44.4629 24.8101 44.4771 24.7908 44.4875L14.6346 50.3924C14.6075 50.4085 14.5764 50.4171 14.5448 50.4171Z" fill="#37474F"/>
<path d="M15.8867 51.1778C15.8582 51.1778 15.8302 51.1702 15.8055 51.156C15.7808 51.1418 15.7603 51.1214 15.7459 51.0968C15.7349 51.0783 15.7277 51.0577 15.7248 51.0363C15.7218 51.015 15.7232 50.9932 15.7288 50.9724C15.7344 50.9516 15.744 50.9321 15.7572 50.915C15.7705 50.898 15.7869 50.8838 15.8057 50.8732L25.969 44.9647C25.9875 44.9513 26.0086 44.9419 26.031 44.9372C26.0534 44.9324 26.0766 44.9324 26.099 44.9371C26.1214 44.9419 26.1425 44.9513 26.1611 44.9647C26.1796 44.9781 26.1951 44.9953 26.2066 45.0151C26.2181 45.0349 26.2254 45.0568 26.2278 45.0796C26.2303 45.1024 26.228 45.1254 26.2211 45.1472C26.2141 45.169 26.2026 45.1891 26.1874 45.2062C26.1722 45.2233 26.1536 45.237 26.1327 45.2465L15.9695 51.1549C15.9446 51.17 15.9159 51.178 15.8867 51.1778Z" fill="#37474F"/>
<path d="M17.2235 51.9399C17.1876 51.9397 17.1528 51.9278 17.1244 51.906C17.096 51.8842 17.0755 51.8536 17.0662 51.8191C17.0568 51.7845 17.059 51.7478 17.0724 51.7146C17.0859 51.6814 17.1099 51.6535 17.1407 51.6352L27.3039 45.7268C27.3414 45.7065 27.3854 45.7016 27.4264 45.7132C27.4675 45.7248 27.5024 45.752 27.5237 45.7889C27.5451 45.8258 27.5512 45.8696 27.5407 45.911C27.5302 45.9523 27.504 45.988 27.4677 46.0103L17.3045 51.9188C17.2796 51.9322 17.2518 51.9395 17.2235 51.9399Z" fill="#37474F"/>
<path d="M18.5584 52.7052C18.5298 52.7043 18.5019 52.6964 18.477 52.6823C18.4522 52.6682 18.4311 52.6482 18.4157 52.6242C18.3945 52.5865 18.3888 52.5419 18.4 52.5001C18.4112 52.4583 18.4384 52.4226 18.4756 52.4005L28.6335 46.4921C28.6521 46.4786 28.6732 46.4693 28.6956 46.4645C28.718 46.4598 28.7411 46.4597 28.7635 46.4645C28.7859 46.4692 28.8071 46.4786 28.8256 46.492C28.8442 46.5055 28.8597 46.5226 28.8712 46.5424C28.8827 46.5622 28.8899 46.5842 28.8924 46.6069C28.8949 46.6297 28.8926 46.6527 28.8856 46.6745C28.8787 46.6963 28.8672 46.7164 28.852 46.7336C28.8368 46.7507 28.8182 46.7644 28.7973 46.7738L18.6394 52.6841C18.6148 52.6985 18.5868 52.7058 18.5584 52.7052Z" fill="#37474F"/>
<path d="M19.8933 53.4621C19.8574 53.4619 19.8226 53.45 19.7942 53.4282C19.7658 53.4063 19.7453 53.3758 19.736 53.3412C19.7266 53.3067 19.7288 53.2699 19.7422 53.2367C19.7557 53.2035 19.7797 53.1757 19.8105 53.1574L29.9737 47.249C30.0113 47.227 30.0561 47.2209 30.0982 47.232C30.1403 47.243 30.1763 47.2704 30.1983 47.308C30.2202 47.3456 30.2263 47.3903 30.2153 47.4324C30.2042 47.4745 30.1769 47.5105 30.1393 47.5325L19.9743 53.4409C19.9496 53.4549 19.9216 53.4622 19.8933 53.4621Z" fill="#37474F"/>
<path d="M21.2369 54.226C21.2084 54.2251 21.1805 54.2173 21.1556 54.2031C21.1308 54.189 21.1097 54.1691 21.0943 54.145C21.0731 54.1073 21.0674 54.0628 21.0786 54.021C21.0898 53.9792 21.1169 53.9434 21.1542 53.9214L31.3174 48.0129C31.3359 48.0003 31.3569 47.9915 31.3789 47.9873C31.401 47.9831 31.4236 47.9834 31.4455 47.9883C31.4674 47.9932 31.4881 48.0026 31.5063 48.0158C31.5244 48.029 31.5396 48.0458 31.551 48.0652C31.5624 48.0845 31.5696 48.106 31.5723 48.1283C31.5751 48.1506 31.5732 48.1732 31.5668 48.1947C31.5604 48.2162 31.5497 48.2362 31.5353 48.2534C31.5208 48.2706 31.503 48.2847 31.4829 48.2947L21.318 54.2031C21.2937 54.2184 21.2656 54.2264 21.2369 54.226Z" fill="#37474F"/>
<path d="M22.563 54.9896C22.5345 54.9899 22.5063 54.9825 22.4816 54.9683C22.4568 54.954 22.4363 54.9334 22.4222 54.9086C22.4003 54.8712 22.3942 54.8267 22.405 54.7848C22.4159 54.7429 22.443 54.707 22.4803 54.6849L32.6435 48.7765C32.6621 48.7655 32.6826 48.7583 32.704 48.7554C32.7254 48.7525 32.7471 48.7538 32.7679 48.7594C32.7887 48.765 32.8083 48.7747 32.8253 48.7879C32.8423 48.8011 32.8566 48.8176 32.8672 48.8364C32.889 48.8738 32.8952 48.9183 32.8843 48.9602C32.8734 49.0021 32.8463 49.038 32.809 49.06L22.6458 54.9738C22.6201 54.9862 22.5915 54.9916 22.563 54.9896Z" fill="#37474F"/>
<path d="M23.8979 55.7499C23.8621 55.7497 23.8273 55.7378 23.7989 55.716C23.7705 55.6942 23.75 55.6636 23.7406 55.6291C23.7312 55.5945 23.7334 55.5578 23.7469 55.5246C23.7603 55.4914 23.7843 55.4635 23.8151 55.4452L33.9784 49.5368C34.0155 49.5182 34.0583 49.5145 34.0981 49.5263C34.1379 49.5381 34.1717 49.5646 34.1927 49.6003C34.2138 49.6361 34.2204 49.6786 34.2113 49.7191C34.2023 49.7596 34.1782 49.7951 34.1439 49.8186L23.9807 55.727C23.9557 55.7421 23.9271 55.75 23.8979 55.7499Z" fill="#37474F"/>
<path d="M25.2328 56.5091C25.2043 56.5094 25.1761 56.5021 25.1514 56.4878C25.1266 56.4736 25.1061 56.453 25.092 56.4281C25.0701 56.3907 25.064 56.3462 25.0748 56.3043C25.0857 56.2624 25.1128 56.2265 25.1501 56.2045L35.3151 50.296C35.3336 50.285 35.3542 50.2779 35.3755 50.2749C35.3969 50.272 35.4186 50.2734 35.4395 50.2789C35.4603 50.2845 35.4798 50.2942 35.4969 50.3074C35.5139 50.3206 35.5281 50.3371 35.5387 50.3559C35.5599 50.3936 35.5656 50.4381 35.5544 50.4799C35.5432 50.5217 35.5161 50.5575 35.4788 50.5796L25.3156 56.488C25.2902 56.5017 25.2618 56.509 25.2328 56.5091Z" fill="#37474F"/>
<path d="M26.5677 57.2745C26.5319 57.2744 26.4971 57.2625 26.4687 57.2407C26.4403 57.2188 26.4198 57.1883 26.4104 57.1537C26.401 57.1191 26.4032 57.0824 26.4167 57.0492C26.4301 57.016 26.4541 56.9881 26.4849 56.9699L36.6499 51.0614C36.6873 51.0396 36.7318 51.0334 36.7737 51.0443C36.8157 51.0552 36.8516 51.0823 36.8736 51.1196C36.8948 51.1573 36.9004 51.2018 36.8892 51.2436C36.8781 51.2854 36.8509 51.3212 36.8137 51.3432L26.6505 57.2517C26.6255 57.2668 26.5969 57.2747 26.5677 57.2745Z" fill="#37474F"/>
<path d="M27.9026 58.0342C27.874 58.0345 27.8459 58.0272 27.8211 58.0129C27.7964 57.9987 27.7759 57.9781 27.7617 57.9532C27.7507 57.9347 27.7436 57.9141 27.7406 57.8928C27.7377 57.8714 27.7391 57.8497 27.7446 57.8288C27.7502 57.808 27.7599 57.7885 27.7731 57.7714C27.7863 57.7544 27.8028 57.7402 27.8216 57.7296L37.9848 51.8211C38.0035 51.8097 38.0242 51.8021 38.0459 51.7988C38.0675 51.7954 38.0896 51.7965 38.1108 51.8019C38.132 51.8073 38.1519 51.8168 38.1694 51.83C38.1868 51.8432 38.2015 51.8598 38.2124 51.8787C38.2234 51.8977 38.2304 51.9186 38.2331 51.9404C38.2358 51.9621 38.2342 51.9841 38.2282 52.0052C38.2223 52.0262 38.2122 52.0459 38.1985 52.063C38.1848 52.0801 38.1678 52.0942 38.1486 52.1047L27.9854 58.0131C27.9599 58.0268 27.9315 58.0341 27.9026 58.0342Z" fill="#37474F"/>
<path d="M29.2376 58.7972C29.2091 58.7971 29.1811 58.7896 29.1564 58.7754C29.1317 58.7612 29.1111 58.7408 29.0967 58.7162C29.0862 58.6974 29.0796 58.6767 29.0772 58.6553C29.0748 58.6339 29.0767 58.6122 29.0827 58.5915C29.0888 58.5709 29.0989 58.5516 29.1125 58.5349C29.1261 58.5182 29.1429 58.5044 29.1619 58.4943L39.3251 52.5858C39.3436 52.5724 39.3648 52.563 39.3872 52.5583C39.4096 52.5535 39.4327 52.5535 39.4551 52.5582C39.4775 52.563 39.4987 52.5724 39.5172 52.5858C39.5357 52.5992 39.5513 52.6164 39.5628 52.6362C39.5743 52.656 39.5815 52.6779 39.584 52.7007C39.5865 52.7234 39.5842 52.7465 39.5772 52.7683C39.5702 52.7901 39.5588 52.8102 39.5436 52.8273C39.5284 52.8444 39.5097 52.8581 39.4889 52.8676L29.3204 58.7743C29.2954 58.7894 29.2668 58.7973 29.2376 58.7972Z" fill="#37474F"/>
<path d="M25.2857 54.6529L17.16 49.9631V38.8242L25.2857 43.5157V54.6529Z" fill="#0071CE"/>
<path d="M25.2856 54.6529V43.5157L33.4095 38.8242V49.9631L25.2856 54.6529Z" fill="#0071CE"/>
<path opacity="0.5" d="M25.2857 54.6529L17.16 49.9631V38.8242L25.2857 43.5157V54.6529Z" fill="black"/>
<path opacity="0.7" d="M25.2856 54.6529V43.5157L33.4095 38.8242V49.9631L25.2856 54.6529Z" fill="black"/>
<path d="M25.2857 43.0596L16.5295 38.0053L25.2857 32.9492L34.04 38.0053L25.2857 43.0596Z" fill="#0071CE"/>
<path d="M20.337 35.8092L29.0932 40.8653L30.2326 40.2067L21.4782 35.1523L20.337 35.8092Z" fill="#0071CE"/>
<path opacity="0.8" d="M20.337 35.8092L29.0932 40.8653L30.2326 40.2067L21.4782 35.1523L20.337 35.8092Z" fill="white"/>
<path d="M30.2326 35.8092L21.4782 40.8653L20.337 40.2067L29.0932 35.1523L30.2326 35.8092Z" fill="#0071CE"/>
<path opacity="0.8" d="M30.2326 35.8092L21.4782 40.8653L20.337 40.2067L29.0932 35.1523L30.2326 35.8092Z" fill="white"/>
<path d="M25.2857 44.8109L16.5295 39.7548V38.0078L25.2857 43.0621V44.8109Z" fill="#0071CE"/>
<path d="M25.2856 44.8109V43.0621L34.04 38.0078V39.7566L25.2856 44.8109Z" fill="#0071CE"/>
<path opacity="0.3" d="M25.2857 44.8109L16.5295 39.7548V38.0078L25.2857 43.0621V44.8109Z" fill="black"/>
<path opacity="0.5" d="M25.2856 44.8109V43.0621L34.04 38.0078V39.7566L25.2856 44.8109Z" fill="black"/>
<path d="M21.4782 52.4642L20.337 51.8108V40.207L21.4782 40.8657V52.4642Z" fill="#0071CE"/>
<path d="M29.0931 52.4642L30.2326 51.8108V40.207L29.0931 40.8657V52.4642Z" fill="#0071CE"/>
<path d="M29.463 42.598C29.4568 42.7209 29.4217 42.8407 29.3605 42.9475C29.2993 43.0543 29.2137 43.1451 29.1108 43.2126C28.9153 43.3271 28.7585 43.2337 28.7585 43.0083C28.7651 42.8852 28.8004 42.7654 28.8616 42.6584C28.9227 42.5514 29.0081 42.4601 29.1108 42.3919C29.3045 42.2792 29.463 42.3708 29.463 42.598Z" fill="#0071CE"/>
<path d="M33.1595 40.4613C33.1531 40.5841 33.1178 40.7038 33.0566 40.8105C32.9954 40.9173 32.91 41.0082 32.8073 41.0759C32.6101 41.1886 32.4551 41.097 32.4551 40.8716C32.4613 40.7484 32.4964 40.6284 32.5576 40.5213C32.6188 40.4143 32.7043 40.3231 32.8073 40.2552C33.001 40.1425 33.1595 40.2341 33.1595 40.4613Z" fill="#0071CE"/>
<path d="M29.1073 42.8949C29.0606 42.8949 29.0158 42.8763 28.9827 42.8433C28.9497 42.8103 28.9312 42.7655 28.9312 42.7188V40.2673C28.9327 39.7588 29.065 39.2592 29.3155 38.8166C29.5659 38.3741 29.926 38.0034 30.3612 37.7402L31.2276 37.2119C31.4022 37.1067 31.6015 37.0498 31.8053 37.047C32.0091 37.0442 32.2099 37.0956 32.3873 37.1959C32.5647 37.2962 32.7122 37.4419 32.8148 37.618C32.9173 37.7941 32.9713 37.9943 32.9711 38.1981V40.579C32.9711 40.6258 32.9525 40.6706 32.9195 40.7036C32.8865 40.7366 32.8417 40.7552 32.795 40.7552C32.7483 40.7552 32.7035 40.7366 32.6704 40.7036C32.6374 40.6706 32.6189 40.6258 32.6189 40.579V38.2069C32.619 38.064 32.5812 37.9237 32.5093 37.8002C32.4374 37.6767 32.3341 37.5746 32.2097 37.5042C32.0854 37.4338 31.9446 37.3976 31.8018 37.3995C31.6589 37.4014 31.5191 37.4411 31.3967 37.5148L30.5302 38.0343C30.1453 38.2666 29.8267 38.5941 29.6049 38.9851C29.3832 39.3762 29.2658 39.8178 29.264 40.2673V42.7241C29.263 42.7667 29.2465 42.8075 29.2177 42.8389C29.1889 42.8703 29.1496 42.8902 29.1073 42.8949Z" fill="#0071CE"/>
<path opacity="0.9" d="M29.1073 42.8949C29.0606 42.8949 29.0158 42.8763 28.9827 42.8433C28.9497 42.8103 28.9312 42.7655 28.9312 42.7188V40.2673C28.9327 39.7588 29.065 39.2592 29.3155 38.8166C29.5659 38.3741 29.926 38.0034 30.3612 37.7402L31.2276 37.2119C31.4022 37.1067 31.6015 37.0498 31.8053 37.047C32.0091 37.0442 32.2099 37.0956 32.3873 37.1959C32.5647 37.2962 32.7122 37.4419 32.8148 37.618C32.9173 37.7941 32.9713 37.9943 32.9711 38.1981V40.579C32.9711 40.6258 32.9525 40.6706 32.9195 40.7036C32.8865 40.7366 32.8417 40.7552 32.795 40.7552C32.7483 40.7552 32.7035 40.7366 32.6704 40.7036C32.6374 40.6706 32.6189 40.6258 32.6189 40.579V38.2069C32.619 38.064 32.5812 37.9237 32.5093 37.8002C32.4374 37.6767 32.3341 37.5746 32.2097 37.5042C32.0854 37.4338 31.9446 37.3976 31.8018 37.3995C31.6589 37.4014 31.5191 37.4411 31.3967 37.5148L30.5302 38.0343C30.1453 38.2666 29.8267 38.5941 29.6049 38.9851C29.3832 39.3762 29.2658 39.8178 29.264 40.2673V42.7241C29.263 42.7667 29.2465 42.8075 29.2177 42.8389C29.1889 42.8703 29.1496 42.8902 29.1073 42.8949Z" fill="black"/>
<path d="M34.6934 38.3906L38.9076 41.0287V52.9724L34.6934 50.3343V38.3906Z" fill="#0071CE"/>
<path d="M26.3475 55.1526V43.209L34.6933 38.3906V50.3343L26.3475 55.1526Z" fill="#0071CE"/>
<path opacity="0.3" d="M26.3475 55.1526V43.209L34.6933 38.3906V50.3343L26.3475 55.1526Z" fill="black"/>
<path d="M26.9516 51.6233L28.1175 44.7938C28.2236 44.1761 28.4643 43.5892 28.8225 43.0749C29.1807 42.5606 29.6477 42.1313 30.1903 41.8176L34.563 39.2957C34.8103 39.1531 35.0887 39.0734 35.3739 39.0635C35.6591 39.0537 35.9424 39.114 36.1989 39.2392C36.4554 39.3644 36.6772 39.5506 36.8449 39.7815C37.0125 40.0125 37.121 40.281 37.1606 40.5637L38.3194 48.7879C38.477 49.9096 38.1923 51.0485 37.5255 51.9641C36.8587 52.8796 35.8621 53.5001 34.7462 53.6943L29.8662 54.5396C29.4682 54.6073 29.0597 54.5786 28.6751 54.4559C28.2904 54.3333 27.9407 54.1202 27.6553 53.8346C27.3699 53.5491 27.1571 53.1992 27.0346 52.8145C26.9122 52.4298 26.8837 52.0213 26.9516 51.6233Z" fill="#0071CE"/>
<path opacity="0.8" d="M26.9516 51.6233L28.1175 44.7938C28.2236 44.1761 28.4643 43.5892 28.8225 43.0749C29.1807 42.5606 29.6477 42.1313 30.1903 41.8176L34.563 39.2957C34.8103 39.1531 35.0887 39.0734 35.3739 39.0635C35.6591 39.0537 35.9424 39.114 36.1989 39.2392C36.4554 39.3644 36.6772 39.5506 36.8449 39.7815C37.0125 40.0125 37.121 40.281 37.1606 40.5637L38.3194 48.7879C38.477 49.9096 38.1923 51.0485 37.5255 51.9641C36.8587 52.8796 35.8621 53.5001 34.7462 53.6943L29.8662 54.5396C29.4682 54.6073 29.0597 54.5786 28.6751 54.4559C28.2904 54.3333 27.9407 54.1202 27.6553 53.8346C27.3699 53.5491 27.1571 53.1992 27.0346 52.8145C26.9122 52.4298 26.8837 52.0213 26.9516 51.6233Z" fill="white"/>
<path d="M30.5636 57.7894V45.8457L38.9076 41.0273V52.971L30.5636 57.7894Z" fill="#0071CE"/>
<path opacity="0.5" d="M30.5636 57.7894V45.8457L38.9076 41.0273V52.971L30.5636 57.7894Z" fill="black"/>
<path d="M26.3475 43.2109L30.5636 45.849V57.7927L26.3475 55.1546V43.2109Z" fill="#0071CE"/>
<path opacity="0.3" d="M28.4556 54.3348V44.5273L30.5636 45.8446V57.7883L28.4556 54.3348Z" fill="black"/>
<path d="M33.2423 45.4229C33.2361 45.546 33.201 45.666 33.1398 45.7731C33.0786 45.8802 32.993 45.9714 32.8901 46.0392C32.6946 46.1519 32.5378 46.0604 32.5378 45.8332C32.544 45.7102 32.5791 45.5905 32.6404 45.4837C32.7016 45.3769 32.7871 45.2861 32.8901 45.2186C33.0838 45.1094 33.2423 45.1974 33.2423 45.4229Z" fill="#0071CE"/>
<path d="M36.9405 43.2845C36.9342 43.4075 36.899 43.5271 36.8378 43.6339C36.7766 43.7407 36.6911 43.8316 36.5883 43.8992C36.3911 44.0136 36.2361 43.9221 36.2361 43.6949C36.2421 43.5719 36.2772 43.4521 36.3384 43.3453C36.3996 43.2385 36.4853 43.1476 36.5883 43.0803C36.7803 42.9658 36.9405 43.0591 36.9405 43.2845Z" fill="#0071CE"/>
<path d="M32.8866 45.721C32.8399 45.721 32.7951 45.7024 32.762 45.6694C32.729 45.6363 32.7104 45.5915 32.7104 45.5448V43.0952C32.7117 42.5861 32.8441 42.086 33.0949 41.6431C33.3457 41.2001 33.7064 40.8292 34.1422 40.5663L35.0087 40.0467C35.1832 39.942 35.3824 39.8855 35.5859 39.8829C35.7894 39.8803 35.9899 39.9318 36.167 40.0321C36.3441 40.1324 36.4914 40.2779 36.5939 40.4537C36.6964 40.6295 36.7504 40.8294 36.7504 41.0329V43.4157C36.7569 43.4417 36.7574 43.4688 36.7518 43.495C36.7463 43.5211 36.7349 43.5457 36.7184 43.5668C36.7019 43.5879 36.6809 43.605 36.6568 43.6168C36.6327 43.6285 36.6063 43.6346 36.5796 43.6346C36.5528 43.6346 36.5264 43.6285 36.5023 43.6168C36.4783 43.605 36.4572 43.5879 36.4407 43.5668C36.4242 43.5457 36.4128 43.5211 36.4073 43.495C36.4017 43.4688 36.4022 43.4417 36.4087 43.4157V41.0329C36.4085 40.89 36.3704 40.7497 36.2983 40.6263C36.2262 40.5029 36.1227 40.4009 35.9983 40.3305C35.8739 40.2602 35.733 40.2241 35.5901 40.2259C35.4472 40.2277 35.3074 40.2674 35.1848 40.3408L34.3183 40.8604C33.9334 41.0929 33.6149 41.4207 33.3934 41.8121C33.1719 42.2036 33.055 42.6454 33.0539 43.0952V45.5501C33.0526 45.5944 33.0347 45.6366 33.0036 45.6683C32.9726 45.6999 32.9308 45.7188 32.8866 45.721Z" fill="#0071CE"/>
<path opacity="0.9" d="M32.8866 45.721C32.8399 45.721 32.7951 45.7024 32.762 45.6694C32.729 45.6363 32.7104 45.5915 32.7104 45.5448V43.0952C32.7117 42.5861 32.8441 42.086 33.0949 41.6431C33.3457 41.2001 33.7064 40.8292 34.1422 40.5663L35.0087 40.0467C35.1832 39.942 35.3824 39.8855 35.5859 39.8829C35.7894 39.8803 35.9899 39.9318 36.167 40.0321C36.3441 40.1324 36.4914 40.2779 36.5939 40.4537C36.6964 40.6295 36.7504 40.8294 36.7504 41.0329V43.4157C36.7569 43.4417 36.7574 43.4688 36.7518 43.495C36.7463 43.5211 36.7349 43.5457 36.7184 43.5668C36.7019 43.5879 36.6809 43.605 36.6568 43.6168C36.6327 43.6285 36.6063 43.6346 36.5796 43.6346C36.5528 43.6346 36.5264 43.6285 36.5023 43.6168C36.4783 43.605 36.4572 43.5879 36.4407 43.5668C36.4242 43.5457 36.4128 43.5211 36.4073 43.495C36.4017 43.4688 36.4022 43.4417 36.4087 43.4157V41.0329C36.4085 40.89 36.3704 40.7497 36.2983 40.6263C36.2262 40.5029 36.1227 40.4009 35.9983 40.3305C35.8739 40.2602 35.733 40.2241 35.5901 40.2259C35.4472 40.2277 35.3074 40.2674 35.1848 40.3408L34.3183 40.8604C33.9334 41.0929 33.6149 41.4207 33.3934 41.8121C33.1719 42.2036 33.055 42.6454 33.0539 43.0952V45.5501C33.0526 45.5944 33.0347 45.6366 33.0036 45.6683C32.9726 45.6999 32.9308 45.7188 32.8866 45.721Z" fill="black"/>
<path d="M35.8345 54.1489C35.7617 54.149 35.691 54.125 35.6334 54.0805C35.5759 54.036 35.5348 53.9736 35.5166 53.9031C35.4984 53.8326 35.5042 53.7581 35.5331 53.6914C35.562 53.6246 35.6122 53.5693 35.676 53.5342L46.5155 47.573C46.5907 47.5384 46.6762 47.5335 46.7549 47.5594C46.8335 47.5853 46.8994 47.64 46.9394 47.7125C46.9793 47.785 46.9903 47.87 46.9701 47.9503C46.95 48.0306 46.9002 48.1003 46.8307 48.1453L35.9912 54.1066C35.9436 54.1341 35.8895 54.1486 35.8345 54.1489Z" fill="#37474F"/>
<path d="M29.8909 59.6274C29.8317 59.627 29.7738 59.6104 29.7235 59.5794C29.6732 59.5483 29.6324 59.504 29.6056 59.4513C29.5847 59.4137 29.5715 59.3724 29.5667 59.3298C29.5619 59.2871 29.5656 59.2439 29.5776 59.2027C29.5895 59.1614 29.6095 59.1229 29.6364 59.0895C29.6632 59.056 29.6965 59.0281 29.7341 59.0075L40.5718 53.0409C40.6478 53.0014 40.7362 52.9932 40.8181 53.018C40.9001 53.0428 40.9691 53.0988 41.0103 53.1738C41.0515 53.2489 41.0617 53.3371 41.0386 53.4196C41.0156 53.502 40.9612 53.5722 40.8871 53.6151L30.0423 59.5869C29.9959 59.6127 29.9439 59.6266 29.8909 59.6274Z" fill="#37474F"/>
<path d="M37.9215 55.102C37.8989 55.1022 37.8766 55.0975 37.8559 55.0884C37.8353 55.0793 37.8168 55.0659 37.8017 55.0492C37.7724 55.0174 37.7569 54.9753 37.7585 54.932C37.7602 54.8888 37.7789 54.848 37.8105 54.8185L43.7542 49.3362C43.786 49.307 43.8281 49.2914 43.8713 49.2931C43.9146 49.2947 43.9554 49.3134 43.9849 49.345C44.0143 49.3772 44.0298 49.4196 44.0282 49.4631C44.0265 49.5066 44.0078 49.5477 43.9761 49.5775L38.0324 55.0527C38.0181 55.0678 38.0009 55.08 37.9818 55.0884C37.9628 55.0969 37.9423 55.1015 37.9215 55.102Z" fill="#37474F"/>
<path d="M32.7263 57.9405C32.7037 57.9406 32.6814 57.936 32.6607 57.9269C32.6401 57.9178 32.6216 57.9044 32.6065 57.8877C32.5918 57.872 32.5803 57.8536 32.5728 57.8335C32.5653 57.8134 32.5618 57.7919 32.5626 57.7705C32.5634 57.749 32.5685 57.7279 32.5776 57.7084C32.5866 57.6889 32.5994 57.6714 32.6153 57.657L38.559 52.18C38.5748 52.1654 38.5934 52.1541 38.6136 52.1467C38.6338 52.1393 38.6553 52.136 38.6768 52.1369C38.6983 52.1378 38.7194 52.1429 38.7389 52.1519C38.7584 52.161 38.776 52.1738 38.7906 52.1897C38.8051 52.2055 38.8164 52.2241 38.8238 52.2443C38.8312 52.2645 38.8346 52.286 38.8337 52.3075C38.8328 52.329 38.8277 52.3501 38.8186 52.3696C38.8095 52.3891 38.7967 52.4067 38.7809 52.4213L32.8372 57.8982C32.8067 57.9256 32.7672 57.9406 32.7263 57.9405Z" fill="#37474F"/>
<path d="M35.2587 56.5144C35.2362 56.5145 35.2139 56.5098 35.1932 56.5007C35.1726 56.4916 35.1541 56.4783 35.139 56.4615C35.1243 56.4459 35.1128 56.4275 35.1053 56.4073C35.0977 56.3872 35.0943 56.3658 35.0951 56.3443C35.0959 56.3229 35.101 56.3018 35.11 56.2823C35.1191 56.2628 35.1319 56.2453 35.1478 56.2308L41.0914 50.7538C41.1072 50.7394 41.1256 50.7282 41.1457 50.7208C41.1657 50.7135 41.187 50.7102 41.2084 50.7111C41.2297 50.712 41.2507 50.7171 41.27 50.7261C41.2894 50.7351 41.3068 50.7478 41.3213 50.7635C41.3357 50.7793 41.3469 50.7977 41.3543 50.8177C41.3616 50.8378 41.3649 50.8591 41.364 50.8804C41.3631 50.9018 41.358 50.9227 41.349 50.9421C41.34 50.9615 41.3273 50.9789 41.3116 50.9933L35.3697 56.4703C35.3399 56.4989 35.3 56.5147 35.2587 56.5144Z" fill="#37474F"/>
<path d="M29.8909 59.6243C29.8342 59.6243 29.7784 59.6097 29.7289 59.5821L13.0585 50.0387C12.9833 49.9958 12.9282 49.9247 12.9054 49.8411C12.8826 49.7576 12.894 49.6684 12.937 49.5932C12.9799 49.518 13.051 49.4629 13.1346 49.4402C13.2181 49.4174 13.3073 49.4287 13.3825 49.4717L29.8451 58.9041L35.2851 53.892L12.6622 40.9304C12.587 40.8874 12.532 40.8164 12.5092 40.7328C12.4864 40.6492 12.4977 40.5601 12.5407 40.4849C12.5837 40.4097 12.6548 40.3546 12.7383 40.3318C12.8219 40.309 12.9111 40.3204 12.9863 40.3633L35.9966 53.5468C36.0419 53.5722 36.0805 53.608 36.1093 53.6513C36.138 53.6946 36.156 53.744 36.1619 53.7957C36.1677 53.8473 36.1612 53.8995 36.1429 53.9481C36.1246 53.9967 36.095 54.0403 36.0565 54.0752L30.1128 59.5521C30.0506 59.6032 29.9713 59.629 29.8909 59.6243Z" fill="#455A64"/>
<path d="M14.3881 50.5772C14.3667 50.5772 14.3455 50.573 14.3257 50.5647C14.3059 50.5565 14.288 50.5444 14.2729 50.5292C14.2579 50.5139 14.246 50.4959 14.2379 50.476C14.2299 50.4561 14.2259 50.4349 14.2261 50.4135V41.5323C14.2237 41.5095 14.2262 41.4864 14.2333 41.4646C14.2404 41.4428 14.252 41.4227 14.2673 41.4057C14.2827 41.3887 14.3015 41.375 14.3224 41.3657C14.3434 41.3564 14.3661 41.3516 14.389 41.3516C14.4119 41.3516 14.4346 41.3564 14.4556 41.3657C14.4765 41.375 14.4953 41.3887 14.5107 41.4057C14.526 41.4227 14.5376 41.4428 14.5447 41.4646C14.5518 41.4864 14.5543 41.5095 14.5519 41.5323V50.4135C14.5521 50.435 14.5481 50.4564 14.5399 50.4764C14.5318 50.4964 14.5197 50.5145 14.5045 50.5298C14.4892 50.5451 14.4711 50.5571 14.4511 50.5653C14.4311 50.5734 14.4097 50.5775 14.3881 50.5772Z" fill="#455A64"/>
<path d="M15.7247 51.3421C15.7032 51.3421 15.6819 51.3379 15.662 51.3296C15.6422 51.3214 15.6241 51.3093 15.6089 51.2941C15.5937 51.2789 15.5816 51.2609 15.5734 51.241C15.5652 51.2211 15.5609 51.1998 15.5609 51.1783V42.2901C15.5586 42.2673 15.561 42.2442 15.5681 42.2224C15.5752 42.2006 15.5868 42.1805 15.6022 42.1635C15.6175 42.1465 15.6363 42.1328 15.6573 42.1235C15.6782 42.1142 15.7009 42.1094 15.7238 42.1094C15.7468 42.1094 15.7695 42.1142 15.7904 42.1235C15.8114 42.1328 15.8301 42.1465 15.8455 42.1635C15.8609 42.1805 15.8725 42.2006 15.8796 42.2224C15.8867 42.2442 15.8891 42.2673 15.8867 42.2901V51.1713C15.8877 51.1932 15.8842 51.2151 15.8765 51.2357C15.8688 51.2563 15.8571 51.2751 15.8419 51.291C15.8268 51.307 15.8087 51.3197 15.7885 51.3285C15.7684 51.3373 15.7467 51.3419 15.7247 51.3421Z" fill="#455A64"/>
<path d="M17.0597 52.1033C17.0381 52.1035 17.0167 52.0994 16.9967 52.0913C16.9767 52.0831 16.9586 52.0711 16.9433 52.0558C16.9281 52.0405 16.916 52.0224 16.9079 52.0024C16.8997 51.9824 16.8956 51.961 16.8959 51.9395V43.0583C16.8959 43.0149 16.9131 42.9732 16.9439 42.9425C16.9746 42.9118 17.0162 42.8945 17.0597 42.8945C17.1031 42.8945 17.1448 42.9118 17.1755 42.9425C17.2062 42.9732 17.2234 43.0149 17.2234 43.0583V51.9395C17.2234 51.9829 17.2062 52.0246 17.1755 52.0553C17.1448 52.086 17.1031 52.1033 17.0597 52.1033Z" fill="#455A64"/>
<path d="M18.3945 52.865C18.3511 52.865 18.3094 52.8477 18.2787 52.817C18.248 52.7863 18.2307 52.7446 18.2307 52.7012V43.82C18.2307 43.7766 18.248 43.7349 18.2787 43.7042C18.3094 43.6735 18.3511 43.6562 18.3945 43.6562C18.4379 43.6562 18.4796 43.6735 18.5103 43.7042C18.541 43.7349 18.5583 43.7766 18.5583 43.82V52.7012C18.5583 52.7446 18.541 52.7863 18.5103 52.817C18.4796 52.8477 18.4379 52.865 18.3945 52.865Z" fill="#455A64"/>
<path d="M19.7295 53.6284C19.686 53.6284 19.6444 53.6112 19.6136 53.5805C19.5829 53.5498 19.5657 53.5081 19.5657 53.4647V44.5817C19.5657 44.5383 19.5829 44.4967 19.6136 44.4659C19.6444 44.4352 19.686 44.418 19.7295 44.418C19.7729 44.418 19.8146 44.4352 19.8453 44.4659C19.876 44.4967 19.8932 44.5383 19.8932 44.5817V53.4629C19.8935 53.4846 19.8894 53.506 19.8813 53.5261C19.8732 53.5462 19.8611 53.5645 19.8459 53.5799C19.8307 53.5953 19.8125 53.6075 19.7925 53.6158C19.7726 53.6242 19.7511 53.6284 19.7295 53.6284Z" fill="#455A64"/>
<path d="M21.0609 54.3884C21.0174 54.3884 20.9758 54.3712 20.9451 54.3404C20.9143 54.3097 20.8971 54.2681 20.8971 54.2246V45.3435C20.8971 45.3 20.9143 45.2584 20.9451 45.2277C20.9758 45.1969 21.0174 45.1797 21.0609 45.1797C21.1043 45.1797 21.146 45.1969 21.1767 45.2277C21.2074 45.2584 21.2247 45.3 21.2247 45.3435V54.2246C21.2247 54.2681 21.2074 54.3097 21.1767 54.3404C21.146 54.3712 21.1043 54.3884 21.0609 54.3884Z" fill="#455A64"/>
<path d="M22.3993 55.1466C22.3558 55.1466 22.3142 55.1293 22.2834 55.0986C22.2527 55.0679 22.2355 55.0263 22.2355 54.9828V46.1052C22.2355 46.0617 22.2527 46.0201 22.2834 45.9894C22.3142 45.9587 22.3558 45.9414 22.3993 45.9414C22.4427 45.9414 22.4844 45.9587 22.5151 45.9894C22.5458 46.0201 22.563 46.0617 22.563 46.1052V54.9863C22.5621 55.0292 22.5445 55.0699 22.5138 55.0999C22.4832 55.1298 22.4421 55.1466 22.3993 55.1466Z" fill="#455A64"/>
<path d="M23.7341 55.9101C23.6907 55.9101 23.649 55.8928 23.6183 55.8621C23.5876 55.8314 23.5703 55.7897 23.5703 55.7463V46.8669C23.5703 46.8235 23.5876 46.7818 23.6183 46.7511C23.649 46.7204 23.6907 46.7031 23.7341 46.7031C23.7775 46.7031 23.8192 46.7204 23.8499 46.7511C23.8806 46.7818 23.8979 46.8235 23.8979 46.8669V55.7481C23.8974 55.7912 23.88 55.8324 23.8493 55.8627C23.8186 55.8931 23.7772 55.9101 23.7341 55.9101Z" fill="#455A64"/>
<path d="M25.0691 56.6736C25.0256 56.6736 24.984 56.6563 24.9532 56.6256C24.9225 56.5949 24.9053 56.5532 24.9053 56.5098V47.6286C24.9053 47.5852 24.9225 47.5435 24.9532 47.5128C24.984 47.4821 25.0256 47.4648 25.0691 47.4648C25.1125 47.4648 25.1541 47.4821 25.1849 47.5128C25.2156 47.5435 25.2328 47.5852 25.2328 47.6286V56.5098C25.2328 56.5532 25.2156 56.5949 25.1849 56.6256C25.1541 56.6563 25.1125 56.6736 25.0691 56.6736Z" fill="#455A64"/>
<path d="M26.4039 57.4392C26.3605 57.4392 26.3188 57.4219 26.2881 57.3912C26.2574 57.3605 26.2401 57.3188 26.2401 57.2754V48.3943C26.2401 48.3508 26.2574 48.3092 26.2881 48.2784C26.3188 48.2477 26.3605 48.2305 26.4039 48.2305C26.4473 48.2305 26.489 48.2477 26.5197 48.2784C26.5504 48.3092 26.5677 48.3508 26.5677 48.3943V57.2754C26.5677 57.3188 26.5504 57.3605 26.5197 57.3912C26.489 57.4219 26.4473 57.4392 26.4039 57.4392Z" fill="#455A64"/>
<path d="M27.7389 58.1978C27.6954 58.1978 27.6538 58.1805 27.623 58.1498C27.5923 58.1191 27.5751 58.0774 27.5751 58.034V49.1599C27.5751 49.1164 27.5923 49.0748 27.623 49.0441C27.6538 49.0133 27.6954 48.9961 27.7389 48.9961C27.7823 48.9961 27.8239 49.0133 27.8547 49.0441C27.8854 49.0748 27.9026 49.1164 27.9026 49.1599V58.041C27.9013 58.0834 27.8833 58.1235 27.8527 58.1528C27.8221 58.1821 27.7812 58.1983 27.7389 58.1978Z" fill="#455A64"/>
<path d="M29.0738 58.9561C29.0307 58.9557 28.9895 58.9382 28.9591 58.9076C28.9288 58.8769 28.9118 58.8355 28.9118 58.7924V49.9112C28.9094 49.8884 28.9118 49.8653 28.9189 49.8435C28.926 49.8217 28.9377 49.8016 28.953 49.7846C28.9684 49.7676 28.9871 49.7539 29.0081 49.7446C29.029 49.7353 29.0517 49.7305 29.0747 49.7305C29.0976 49.7305 29.1203 49.7353 29.1412 49.7446C29.1622 49.7539 29.181 49.7676 29.1963 49.7846C29.2117 49.8016 29.2233 49.8217 29.2304 49.8435C29.2375 49.8653 29.2399 49.8884 29.2376 49.9112V58.7924C29.2376 58.8358 29.2203 58.8775 29.1896 58.9082C29.1589 58.9389 29.1172 58.9561 29.0738 58.9561Z" fill="#455A64"/>
<path d="M30.4086 58.961C30.3655 58.9605 30.3243 58.9431 30.294 58.9124C30.2636 58.8817 30.2466 58.8403 30.2466 58.7972V50.6768C30.2442 50.654 30.2467 50.631 30.2538 50.6091C30.2609 50.5873 30.2725 50.5673 30.2878 50.5502C30.3032 50.5332 30.322 50.5196 30.3429 50.5102C30.3639 50.5009 30.3866 50.4961 30.4095 50.4961C30.4324 50.4961 30.4551 50.5009 30.4761 50.5102C30.497 50.5196 30.5158 50.5332 30.5312 50.5502C30.5465 50.5673 30.5581 50.5873 30.5652 50.6091C30.5723 50.631 30.5748 50.654 30.5724 50.6768V58.7972C30.5724 58.8406 30.5552 58.8823 30.5244 58.913C30.4937 58.9437 30.4521 58.961 30.4086 58.961Z" fill="#455A64"/>
<path d="M31.7453 57.8154C31.7239 57.8157 31.7027 57.8117 31.6828 57.8036C31.6629 57.7956 31.6449 57.7837 31.6296 57.7686C31.6144 57.7535 31.6023 57.7356 31.5941 57.7158C31.5858 57.6961 31.5816 57.6749 31.5816 57.6534V51.4386C31.5792 51.4157 31.5816 51.3927 31.5887 51.3709C31.5958 51.3491 31.6075 51.329 31.6228 51.3119C31.6382 51.2949 31.6569 51.2813 31.6779 51.272C31.6988 51.2626 31.7215 51.2578 31.7445 51.2578C31.7674 51.2578 31.7901 51.2626 31.811 51.272C31.832 51.2813 31.8508 51.2949 31.8661 51.3119C31.8815 51.329 31.8931 51.3491 31.9002 51.3709C31.9073 51.3927 31.9097 51.4157 31.9074 51.4386V57.6534C31.9074 57.6964 31.8903 57.7376 31.8599 57.768C31.8295 57.7984 31.7883 57.8154 31.7453 57.8154Z" fill="#455A64"/>
<path d="M33.0802 56.4846C33.0368 56.4846 32.9951 56.4674 32.9644 56.4366C32.9337 56.4059 32.9164 56.3643 32.9164 56.3208V52.1964C32.914 52.1736 32.9165 52.1505 32.9236 52.1287C32.9307 52.1069 32.9423 52.0868 32.9576 52.0698C32.973 52.0527 32.9918 52.0391 33.0127 52.0298C33.0337 52.0204 33.0564 52.0156 33.0793 52.0156C33.1022 52.0156 33.1249 52.0204 33.1459 52.0298C33.1668 52.0391 33.1856 52.0527 33.201 52.0698C33.2163 52.0868 33.2279 52.1069 33.235 52.1287C33.2421 52.1505 33.2446 52.1736 33.2422 52.1964V56.3208C33.2422 56.364 33.2252 56.4054 33.1949 56.436C33.1645 56.4667 33.1233 56.4841 33.0802 56.4846Z" fill="#455A64"/>
<path d="M34.4151 55.2835C34.3717 55.2835 34.33 55.2663 34.2993 55.2356C34.2686 55.2048 34.2513 55.1632 34.2513 55.1197V52.9607C34.2513 52.9172 34.2686 52.8756 34.2993 52.8448C34.33 52.8141 34.3717 52.7969 34.4151 52.7969C34.4586 52.7969 34.5002 52.8141 34.5309 52.8448C34.5617 52.8756 34.5789 52.9172 34.5789 52.9607V55.1197C34.5789 55.1632 34.5617 55.2048 34.5309 55.2356C34.5002 55.2663 34.4586 55.2835 34.4151 55.2835Z" fill="#455A64"/>
<path d="M34.4222 55.4366C34.3936 55.437 34.3654 55.4291 34.3412 55.4137L12.6165 42.9681C12.596 42.9585 12.5778 42.9447 12.563 42.9277C12.5481 42.9107 12.5369 42.8908 12.5302 42.8693C12.5234 42.8477 12.5211 42.825 12.5235 42.8026C12.5259 42.7801 12.533 42.7584 12.5442 42.7388C12.5554 42.7192 12.5705 42.7021 12.5886 42.6886C12.6068 42.6751 12.6275 42.6655 12.6495 42.6605C12.6715 42.6554 12.6943 42.6549 12.7165 42.659C12.7387 42.6632 12.7598 42.6719 12.7785 42.6846L34.5032 55.1302C34.5408 55.1519 34.5682 55.1877 34.5795 55.2296C34.5907 55.2716 34.5848 55.3163 34.5631 55.3539C34.5491 55.3789 34.5286 55.3998 34.5039 55.4143C34.4791 55.4289 34.4509 55.4366 34.4222 55.4366Z" fill="#455A64"/>
<path d="M32.883 56.7761C32.8547 56.7757 32.8269 56.7685 32.802 56.755L12.8683 45.3344C12.8342 45.3112 12.8101 45.276 12.8008 45.2358C12.7916 45.1957 12.7978 45.1535 12.8182 45.1177C12.8387 45.0819 12.8719 45.0551 12.9112 45.0427C12.9505 45.0303 12.993 45.0332 13.0303 45.0508L32.964 56.4715C32.9962 56.4887 33.0215 56.5163 33.036 56.5498C33.0505 56.5832 33.0533 56.6206 33.0439 56.6558C33.0345 56.691 33.0136 56.7221 32.9844 56.7439C32.9552 56.7657 32.9195 56.7771 32.883 56.7761Z" fill="#455A64"/>
<path d="M31.4513 58.181C31.4227 58.1809 31.3947 58.173 31.3702 58.1581L12.9968 47.6286C12.9781 47.6182 12.9617 47.6041 12.9485 47.5873C12.9352 47.5705 12.9255 47.5512 12.9197 47.5305C12.914 47.5099 12.9124 47.4883 12.9151 47.4671C12.9177 47.4458 12.9246 47.4253 12.9352 47.4067C12.957 47.3692 12.9926 47.3417 13.0344 47.3302C13.0763 47.3186 13.1209 47.324 13.1589 47.3451L31.5393 57.8746C31.571 57.8925 31.5959 57.9204 31.6099 57.954C31.624 57.9876 31.6265 58.0249 31.617 58.06C31.6075 58.0951 31.5866 58.1261 31.5575 58.148C31.5285 58.1699 31.4929 58.1816 31.4565 58.181H31.4513Z" fill="#455A64"/>
<path d="M11.602 34.1909C11.4936 34.1905 11.3883 34.1543 11.3027 34.0878C11.217 34.0213 11.1558 33.9284 11.1284 33.8235C11.1011 33.7186 11.1092 33.6076 11.1516 33.5077C11.1939 33.4079 11.2681 33.3249 11.3625 33.2717L19.4388 28.7439C19.5518 28.687 19.6823 28.6759 19.8032 28.7128C19.9242 28.7497 20.0263 28.8319 20.0882 28.9421C20.1501 29.0524 20.1672 29.1823 20.1358 29.3048C20.1044 29.4273 20.0269 29.5329 19.9196 29.5998L11.8415 34.1275C11.7684 34.1687 11.6859 34.1905 11.602 34.1909Z" fill="#0071CE"/>
<path d="M10.6704 34.5509C10.5981 34.5507 10.5278 34.5266 10.4706 34.4824C10.4134 34.4381 10.3725 34.3761 10.3542 34.3062C10.3359 34.2362 10.3412 34.1621 10.3695 34.0955C10.3977 34.0289 10.4471 33.9735 10.5101 33.938L11.3079 33.4907C11.3455 33.4662 11.3878 33.4496 11.432 33.4421C11.4763 33.4346 11.5216 33.4363 11.5652 33.447C11.6088 33.4578 11.6498 33.4774 11.6855 33.5046C11.7212 33.5318 11.7509 33.5661 11.7728 33.6053C11.7947 33.6445 11.8083 33.6878 11.8128 33.7325C11.8172 33.7772 11.8125 33.8223 11.7988 33.865C11.7851 33.9078 11.7627 33.9473 11.7331 33.981C11.7035 34.0148 11.6673 34.0421 11.6267 34.0613L10.8306 34.5086C10.7817 34.536 10.7265 34.5506 10.6704 34.5509Z" fill="#455A64"/>
<path d="M21.8761 28.889C21.6613 28.4364 21.3478 27.7161 20.9076 27.4801L18.6375 26.0871L13.791 22.8203L10.9609 24.1605C12.4438 25.7754 17.2427 27.5066 17.2427 27.5066C17.2954 27.6521 17.3614 27.7924 17.44 27.9257H17.4259C17.4593 28.0014 18.5495 30.4458 18.9105 30.4088C19.069 30.3947 19.0972 30.1817 19.0866 29.9474L18.8911 29.0017C19.1324 29.0722 19.3525 29.1144 19.5128 29.1567C19.7523 29.2201 19.9883 29.685 20.1133 29.8964C20.1449 29.9509 20.187 29.9985 20.2374 30.0364C20.2877 30.0743 20.3451 30.1017 20.4062 30.1169C20.4673 30.1322 20.5308 30.1351 20.5931 30.1253C20.6553 30.1155 20.7149 30.0934 20.7684 30.0601L21.7159 29.4755C21.7844 29.4325 21.84 29.3719 21.8768 29.3C21.9137 29.2281 21.9305 29.1475 21.9255 29.0669C21.9225 29.0047 21.9057 28.9439 21.8761 28.889Z" fill="#FFA8A7"/>
<path d="M6.85761 14.1797L5.01023 22.1645C4.89233 22.6792 4.95902 23.219 5.19867 23.6896C5.33802 23.9612 5.53142 24.2015 5.76699 24.3956C6.00256 24.5898 6.27533 24.7338 6.56856 24.8187C6.86179 24.9036 7.16929 24.9277 7.47217 24.8895C7.77506 24.8513 8.06693 24.7516 8.32988 24.5965L12.4896 22.1398V14.1797H6.85761Z" fill="#263238"/>
<path d="M7.67651 20.4801L11.9031 18.756C12.2114 18.6283 12.5465 18.5787 12.8785 18.6113C13.2106 18.644 13.5295 18.758 13.8071 18.9432C14.0846 19.1285 14.3122 19.3793 14.4698 19.6735C14.6273 19.9676 14.7099 20.2961 14.7103 20.6298V22.8663L8.31227 24.8616L7.67651 20.4801Z" fill="#FFA8A7"/>
<path d="M11.5897 18.9808C11.5897 18.9808 12.9264 19.8156 13.1078 21.2016C13.1078 21.2016 12.3822 22.3621 10.0787 22.2952C10.0787 22.2952 9.55037 20.4531 8.64517 20.0868L7.67658 20.4795L7.60437 25.1077L8.26302 26.0516C8.34273 26.1651 8.39022 26.298 8.40045 26.4363C8.41068 26.5746 8.38327 26.7131 8.32113 26.837L7.77344 27.9342C7.77344 27.9342 8.76141 29.6319 11.3432 29.6319C12.2951 29.6112 13.2078 29.2487 13.9143 28.6105L13.8404 25.6782C13.8404 25.6782 17.1107 23.4698 12.3787 18.6797L11.5897 18.9808Z" fill="#0071CE"/>
<path d="M8.02877 12.4628C8.02877 12.4628 7.78398 11.5312 7.61843 11.5471C7.45289 11.5629 7.47226 12.3801 7.47226 12.3801C7.47226 12.3801 6.69739 12.3114 6.7784 12.5333C6.85941 12.7552 7.76284 12.9841 7.76284 12.9841L8.02877 12.4628Z" fill="#263238"/>
<path d="M6.82426 15.6977C7.17648 18.3288 9.39368 18.3288 9.39368 18.3288L14.0412 16.2842C14.3012 16.0063 14.4621 15.6503 14.4991 15.2716C14.5407 14.9831 14.5407 14.6901 14.4991 14.4016V14.3928C14.3494 13.2868 13.5234 12.1034 11.7201 11.7318C11.3252 11.6532 10.9234 11.6148 10.5208 11.6173C10.3267 11.6167 10.1327 11.6261 9.93962 11.6455C8.53075 11.7828 7.55687 12.438 7.09018 13.4541C6.98546 13.6839 6.90746 13.925 6.85772 14.1726C6.76097 14.6755 6.74966 15.1911 6.82426 15.6977Z" fill="#263238"/>
<path d="M9.91672 20.7932C10.0751 20.9165 10.2649 20.9928 10.4645 21.0136C10.6642 21.0343 10.8656 20.9986 11.046 20.9105C11.2263 20.8225 11.3783 20.6856 11.4847 20.5154C11.5911 20.3452 11.6477 20.1486 11.6479 19.9479V16.5508H9.39368V19.7207C9.39369 19.9275 9.4408 20.1315 9.53143 20.3173C9.62205 20.5032 9.75382 20.6659 9.91672 20.7932Z" fill="#FFA8A7"/>
<path d="M11.6479 19.52C11.1464 19.3342 10.688 19.0485 10.3005 18.68C9.91299 18.3116 9.60446 17.8682 9.39368 17.3767V16.5508H11.6479V19.52Z" fill="#F28F8F"/>
<path d="M11.16 12.4062C12.0159 12.4062 13.8316 12.8835 14.0429 15.1183C14.2543 17.3531 14.0429 19.0896 12.8947 19.2569C11.7465 19.4242 9.0626 18.5877 8.70334 15.6924C8.34407 12.7972 10.3271 12.4062 11.16 12.4062Z" fill="#FFA8A7"/>
<path d="M12.5055 16.0664V17.3855L13.2786 17.1477L12.5055 16.0664Z" fill="#F28F8F"/>
<path d="M11.3749 16.295C11.3745 16.3484 11.39 16.4007 11.4194 16.4452C11.4488 16.4897 11.4908 16.5246 11.54 16.5452C11.5892 16.5659 11.6434 16.5715 11.6958 16.5613C11.7482 16.5511 11.7964 16.5256 11.8342 16.4879C11.8721 16.4503 11.8979 16.4023 11.9085 16.35C11.919 16.2977 11.9138 16.2434 11.8934 16.1941C11.8731 16.1448 11.8386 16.1026 11.7942 16.0729C11.7499 16.0432 11.6977 16.0273 11.6443 16.0273C11.5732 16.0273 11.5049 16.0555 11.4544 16.1056C11.4039 16.1558 11.3753 16.2239 11.3749 16.295Z" fill="#263238"/>
<path d="M13.1448 16.1054C13.1448 16.1587 13.1606 16.2108 13.1902 16.2551C13.2198 16.2994 13.2619 16.3339 13.3111 16.3543C13.3603 16.3747 13.4145 16.38 13.4668 16.3697C13.5191 16.3593 13.5671 16.3336 13.6047 16.2959C13.6424 16.2582 13.6681 16.2102 13.6785 16.158C13.6889 16.1057 13.6835 16.0515 13.6632 16.0023C13.6428 15.953 13.6082 15.911 13.5639 15.8813C13.5196 15.8517 13.4675 15.8359 13.4142 15.8359C13.3428 15.8359 13.2742 15.8643 13.2237 15.9149C13.1732 15.9654 13.1448 16.0339 13.1448 16.1054Z" fill="#263238"/>
<path d="M13.7417 15.5493L13.2134 15.2376C13.2134 15.2376 13.4141 15.028 13.6149 15.1531C13.6735 15.1986 13.717 15.2608 13.7397 15.3316C13.7623 15.4023 13.763 15.4782 13.7417 15.5493Z" fill="#263238"/>
<path d="M12.87 17.9203C12.6138 17.9385 12.359 17.8703 12.1462 17.7266C12.1462 17.7266 12.0969 18.107 12.4156 18.1809C12.5098 18.1962 12.6063 18.1786 12.689 18.1312C12.7718 18.0837 12.8357 18.0093 12.87 17.9203Z" fill="#F28F8F"/>
<path d="M13.3279 13.1684C13.3279 13.1684 13.0056 16.2555 8.80716 16.3524C8.80716 16.3524 7.53918 13.2846 10.0399 12.2878C12.5407 11.291 13.3279 13.1684 13.3279 13.1684Z" fill="#263238"/>
<path d="M9.50988 16.4648C9.77933 16.9333 9.71065 17.5003 9.33377 17.6976C9.0925 17.8226 8.3775 17.5532 8.10101 17.0847C7.82452 16.6163 7.98302 16.2165 8.34933 16.0052C8.71563 15.7939 9.24044 15.9981 9.50988 16.4648Z" fill="#FFA8A7"/>
<path d="M8.2982 23.5744L7.60962 25.1048C7.8003 25.1058 7.98895 25.0656 8.1626 24.9868L8.46727 23.6307C8.47152 23.6093 8.46781 23.587 8.45682 23.5681C8.44583 23.5492 8.42832 23.535 8.40757 23.528C8.38683 23.5211 8.36427 23.522 8.34414 23.5306C8.324 23.5391 8.30767 23.5547 8.2982 23.5744Z" fill="#F28F8F"/>
<path d="M14.8847 33.3417C14.6982 32.8784 14.3743 32.4832 13.9566 32.2093L13.5586 31.9487C13.5586 31.9487 14.6469 32.1988 14.661 31.8325C14.6751 31.4662 12.0793 30.5134 12.0793 30.5134L6.88581 26.5739C6.88581 26.5739 7.25212 25.9751 7.68534 25.1034C8.42676 25.0628 8.85999 24.4606 9.10478 23.8706C9.32261 23.3577 9.38516 22.7921 9.28467 22.244C9.18419 21.6958 8.92509 21.1892 8.53947 20.7869C8.4886 20.7332 8.43449 20.6826 8.37745 20.6355C8.26393 20.5175 8.12882 20.4225 7.97944 20.3555L7.62723 20.4981C6.75783 20.8481 6.051 21.5109 5.64601 22.3561C4.98032 23.7473 4.02757 25.8782 3.88492 27.0282C3.66302 28.814 10.3481 31.6458 10.3481 31.6458C10.7532 33.0547 11.9736 33.5707 12.509 33.7485C12.6248 33.7865 12.732 33.847 12.8245 33.9265C12.917 34.006 12.9929 34.1029 13.0478 34.2117C13.0758 34.2681 13.1148 34.3183 13.1625 34.3594C13.2102 34.4004 13.2657 34.4315 13.3257 34.4507C13.3856 34.4699 13.4488 34.4769 13.5115 34.4713C13.5742 34.4656 13.6351 34.4474 13.6906 34.4177L14.6751 33.8894C14.7704 33.8389 14.8441 33.7556 14.8827 33.6549C14.9212 33.5542 14.9219 33.4429 14.8847 33.3417Z" fill="#FFA8A7"/>
<path d="M8.16268 24.9869L8.46735 23.6309C8.47016 23.6186 8.47033 23.606 8.46785 23.5937C8.46537 23.5814 8.46029 23.5698 8.45295 23.5596C8.44562 23.5494 8.43619 23.5409 8.42531 23.5347C8.41443 23.5285 8.40234 23.5246 8.38986 23.5234C8.16796 24.094 7.91965 24.6347 7.68542 25.1084C7.85077 25.0985 8.01272 25.0572 8.16268 24.9869Z" fill="#F28F8F"/>
</svg>
