<svg xmlns="http://www.w3.org/2000/svg" width="25" height="20" viewBox="0 0 25 20" fill="none">
<path d="M21.7656 17.8438H2.89062C2.64439 17.8459 2.40017 17.7994 2.17189 17.7071C1.94362 17.6148 1.73577 17.4784 1.5602 17.3057C1.38464 17.133 1.24481 16.9275 1.14869 16.7008C1.05257 16.4741 1.00204 16.2307 1 15.9844L1 4.85944C1.00204 4.61321 1.05257 4.36979 1.14869 4.14309C1.24481 3.91638 1.38464 3.71083 1.5602 3.53817C1.73577 3.36551 1.94362 3.22912 2.17189 3.13679C2.40017 3.04447 2.64439 2.99801 2.89062 3.00007H21.7656C22.0119 2.99801 22.2561 3.04447 22.4844 3.13679C22.7126 3.22912 22.9205 3.36551 23.096 3.53817C23.2716 3.71083 23.4114 3.91638 23.5076 4.14309C23.6037 4.36979 23.6542 4.61321 23.6562 4.85944V15.9923C23.6501 16.4882 23.4477 16.9615 23.0933 17.3085C22.739 17.6555 22.2616 17.848 21.7656 17.8438Z" fill="#EBF1F8"/>
<path d="M10.3751 4.57812V4.5625H14.2814V4.57812C15.7574 4.68614 17.1379 5.3487 18.1455 6.43272C19.1531 7.51674 19.7131 8.9419 19.7131 10.4219C19.7131 11.9019 19.1531 13.327 18.1455 14.411C17.1379 15.495 15.7574 16.1576 14.2814 16.2656V16.2812H10.3751V16.2656C8.89908 16.1576 7.5186 15.495 6.51101 14.411C5.50341 13.327 4.94336 11.9019 4.94336 10.4219C4.94336 8.9419 5.50341 7.51674 6.51101 6.43272C7.5186 5.3487 8.89908 4.68614 10.3751 4.57812Z" fill="#0165AC"/>
<path d="M11.9375 13.7344C12.6215 13.4912 13.2135 13.0422 13.6321 12.4491C14.0507 11.856 14.2754 11.1478 14.2754 10.4219C14.2754 9.69592 14.0507 8.98776 13.6321 8.39465C13.2135 7.80154 12.6215 7.35256 11.9375 7.10938V13.7344ZM9.59375 7.10938C8.90974 7.35256 8.31778 7.80154 7.89917 8.39465C7.48056 8.98776 7.25582 9.69592 7.25582 10.4219C7.25582 11.1478 7.48056 11.856 7.89917 12.4491C8.31778 13.0422 8.90974 13.4912 9.59375 13.7344V7.10938ZM10.7656 15.5C9.41882 15.5 8.12718 14.965 7.17485 14.0127C6.22251 13.0603 5.6875 11.7687 5.6875 10.4219C5.6875 9.07507 6.22251 7.78343 7.17485 6.8311C8.12718 5.87876 9.41882 5.34375 10.7656 5.34375C12.1124 5.34375 13.4041 5.87876 14.3564 6.8311C15.3087 7.78343 15.8438 9.07507 15.8438 10.4219C15.8438 11.7687 15.3087 13.0603 14.3564 14.0127C13.4041 14.965 12.1124 15.5 10.7656 15.5Z" fill="white"/>
</svg>