<svg xmlns="http://www.w3.org/2000/svg" width="25" height="20" viewBox="0 0 25 20" fill="none">
  <path d="M21.7656 17.8438H2.89062C2.64439 17.8459 2.40017 17.7994 2.17189 17.7071C1.94362 17.6148 1.73577 17.4784 1.5602 17.3057C1.38464 17.133 1.24481 16.9275 1.14869 16.7008C1.05257 16.4741 1.00204 16.2307 1 15.9844L1 4.85944C1.00204 4.61321 1.05257 4.36979 1.14869 4.14309C1.24481 3.91638 1.38464 3.71083 1.5602 3.53817C1.73577 3.36551 1.94362 3.22912 2.17189 3.13679C2.40017 3.04447 2.64439 2.99801 2.89062 3.00007H21.7656C22.0119 2.99801 22.2561 3.04447 22.4844 3.13679C22.7126 3.22912 22.9205 3.36551 23.096 3.53817C23.2716 3.71083 23.4114 3.91638 23.5076 4.14309C23.6037 4.36979 23.6542 4.61321 23.6562 4.85944V15.9923C23.6501 16.4882 23.4477 16.9615 23.0933 17.3085C22.739 17.6555 22.2616 17.848 21.7656 17.8438Z" fill="#EBF1F8"/>
  <path d="M12.9062 17.8437H21.7656C22.0119 17.8458 22.2561 17.7993 22.4844 17.707C22.7126 17.6147 22.9205 17.4783 23.096 17.3056C23.2716 17.133 23.4114 16.9274 23.5076 16.7007C23.6037 16.474 23.6542 16.2306 23.6562 15.9844V13.7578C20.3108 15.6782 16.6826 17.0572 12.9062 17.8437Z" fill="#F27712"/>
  <path d="M22.875 11.5156H22.0703L21.1641 10.3203H21.0781V11.5156H20.4219V8.54688H21.3906C22.1484 8.54688 22.5859 8.85938 22.5859 9.42188C22.5859 9.88281 22.3125 10.1797 21.8203 10.2734L22.875 11.5156ZM21.9062 9.44531C21.9062 9.15625 21.6875 9.00781 21.2812 9.00781H21.0781V9.90625H21.2656C21.6875 9.90625 21.9062 9.75 21.9062 9.44531ZM18.125 8.54688H19.9844V9.04687H18.7812V9.71094H19.9375V10.2187H18.7812V11.0234H19.9844V11.5234H18.125V8.54688ZM16.0156 11.5938L14.5938 8.53906H15.3125L16.2109 10.5391L17.1172 8.53906H17.8203L16.3828 11.5938H16.0312H16.0156ZM10.0703 11.5859C9.07031 11.5859 8.28906 10.9062 8.28906 10.0234C8.28906 9.16406 9.08594 8.46875 10.0859 8.46875C10.3672 8.46875 10.6016 8.52344 10.8906 8.64844V9.33594C10.6717 9.12087 10.3772 9.00025 10.0703 9C9.44531 9 8.96875 9.45312 8.96875 10.0234C8.96875 10.625 9.4375 11.0547 10.1016 11.0547C10.3984 11.0547 10.625 10.9609 10.8906 10.7266V11.4141C10.5938 11.5391 10.3438 11.5859 10.0703 11.5859ZM8.08594 10.6094C8.08594 11.1875 7.60938 11.5859 6.92188 11.5859C6.42188 11.5859 6.0625 11.4141 5.75781 11.0234L6.1875 10.6563C6.33594 10.9219 6.58594 11.0547 6.89844 11.0547C7.19531 11.0547 7.40625 10.875 7.40625 10.6406C7.40625 10.5078 7.34375 10.4063 7.21094 10.3281C7.06531 10.2575 6.91367 10.1999 6.75781 10.1562C6.14062 9.96094 5.92969 9.75 5.92969 9.33594C5.92969 8.85156 6.38281 8.48438 6.97656 8.48438C7.35156 8.48438 7.6875 8.60156 7.96875 8.82031L7.625 9.21094C7.55762 9.13707 7.47557 9.07807 7.3841 9.03772C7.29262 8.99736 7.19373 8.97653 7.09375 8.97656C6.8125 8.97656 6.60938 9.11719 6.60938 9.30469C6.60938 9.46094 6.72656 9.54688 7.11719 9.67969C7.86719 9.91406 8.08594 10.1328 8.08594 10.6172V10.6094ZM4.85938 8.54688H5.51563V11.5234H4.85938V8.54688ZM2.75 11.5234H1.78125V8.54688H2.75C3.8125 8.54688 4.54688 9.15625 4.54688 10.0312C4.54688 10.4766 4.32812 10.8984 3.94531 11.1797C3.61719 11.4141 3.25 11.5234 2.74219 11.5234H2.75ZM3.51562 9.28906C3.29688 9.11719 3.04688 9.05469 2.61719 9.05469H2.4375V11.0234H2.61719C3.03906 11.0234 3.30469 10.9453 3.51562 10.7891C3.74219 10.6016 3.875 10.3203 3.875 10.0312C3.875 9.74219 3.74219 9.46875 3.51562 9.28906Z" fill="black"/>
  <path d="M12.7188 8.46875C11.8594 8.46875 11.1562 9.15625 11.1562 10.0078C11.1562 10.9141 11.8281 11.5938 12.7188 11.5938C13.5938 11.5938 14.2812 10.9062 14.2812 10.0312C14.2812 9.15625 13.6016 8.46875 12.7188 8.46875Z" fill="#F27712"/>
</svg>