<svg width="300" height="300" viewBox="0 0 300 300" fill="none" xmlns="http://www.w3.org/2000/svg">
<g clip-path="url(#clip0_316_39629)">
<path d="M46.5958 239.739C-10.5122 272.709 -10.5062 326.169 46.5958 359.139C103.698 392.109 196.29 392.109 253.398 359.139C310.506 326.169 310.5 272.739 253.398 239.739C196.296 206.739 103.704 206.769 46.5958 239.739Z" fill="white"/>
<path d="M71.1605 225.195C63.5401 238.604 57.3934 249.902 55.4153 285.322C53.1717 325.296 53.5036 340.523 53.3044 345.342C53.1053 350.161 49.9456 359.016 47.2639 382.767C44.5821 406.518 47.3966 464.122 47.3966 464.122C47.3966 464.122 49.3084 467.998 58.5617 468.888C67.0981 469.698 72.1031 466.75 72.1031 466.75C72.1031 466.75 85.6844 391.078 89.0299 376.833C92.3754 362.588 102.133 315.525 102.133 315.525L105.346 360.397C105.346 360.397 102.691 373.5 105.094 394.37C107.497 415.24 113.829 454.656 113.829 454.656C113.829 454.656 117.454 458.267 128.619 458.055C140.501 457.829 142.97 454.576 142.97 454.576C142.97 454.576 145.625 369.77 145.811 346.139C145.997 322.508 147.377 261.173 140.062 226.098L71.1605 225.195Z" fill="#455A64"/>
<path d="M110.099 270.124L102.133 315.501L105.346 360.4V315.036L112.449 277.864C118.263 276.536 131.513 269.792 135.217 260.061C126.202 269.128 110.099 270.124 110.099 270.124ZM83.1752 243.386C84.224 239.576 85.3259 235.792 86.5739 231.969C84.4275 235.378 82.6475 239.005 81.2635 242.789C79.8599 246.541 78.672 250.371 77.7056 254.259C76.7424 258.139 75.9759 262.064 75.4088 266.021C74.8006 269.975 74.5032 273.97 74.5194 277.97C75.515 274.093 76.4444 270.243 77.3737 266.38C78.303 262.517 79.219 258.68 80.2014 254.856C81.1839 251.033 82.1397 247.196 83.1752 243.386ZM77.3073 240.479C78.6349 238.155 79.9625 235.832 81.1971 233.376C79.16 235.208 77.2978 237.226 75.6345 239.403C73.9897 241.573 72.4949 243.853 71.1605 246.227C69.8181 248.598 68.664 251.07 67.7088 253.622C66.7347 256.185 66.0879 258.862 65.7838 261.587L69.5409 254.458C70.8685 252.122 72.0766 249.785 73.4042 247.488C74.7318 245.192 76.0461 242.815 77.3073 240.479ZM71.3995 392.169C69.0541 404.463 66.8724 416.783 64.8545 429.129C67.846 416.942 70.6693 404.755 73.3245 392.567C75.9797 380.34 78.6349 368.14 81.1308 355.846C83.6266 343.553 85.1135 331.087 86.4411 318.674C87.7687 306.261 88.791 293.768 89.6539 281.289C87.8085 293.662 86.1358 306.062 84.4497 318.461C82.7637 330.861 81.0644 343.141 78.6349 355.368C76.2054 367.595 73.7095 379.889 71.3995 392.169ZM135.124 331.259C135.336 336.676 135.628 342.132 135.496 347.496C135.363 352.859 135.602 363.214 135.283 368.631C135.283 368.631 134.965 400.573 135.934 412.68C137.261 401.861 137.606 358.515 138.058 347.549C138.058 336.53 137.235 325.71 136.332 314.824C135.429 303.937 134.128 293.131 132.509 282.351L134.341 314.97C134.54 320.4 134.858 325.883 135.057 331.259H135.124Z" fill="#37474F"/>
<path d="M77.0684 91.471C76.9755 91.9888 75.4488 92.9978 75.0239 93.4757C74.1078 94.4173 73.2894 95.4492 72.5812 96.5557C71.2067 98.9579 70.4751 101.674 70.457 104.442C70.53 108.694 71.7007 112.856 73.8557 116.523C76.0072 120.174 78.4679 123.634 81.2105 126.865L88.0609 135.388C88.417 136.059 88.9977 136.584 89.7015 136.87C90.4053 137.156 91.1873 137.186 91.9109 136.954C95.4511 136.406 98.9914 135.808 102.532 135.162C105.817 134.656 109.046 133.829 112.17 132.693C117.358 130.604 121.792 126.994 124.888 122.338C126.295 120.24 128.181 117.266 128.446 114.691C128.566 113.522 128.008 112.527 128.3 111.319C128.672 109.765 129.867 108.544 130.517 107.11C132.166 103.823 132.925 100.161 132.721 96.4893C132.031 88.9353 127.411 79.1245 113.471 76.31C101.987 73.9336 79.8829 76.456 77.0684 91.471Z" fill="#263238"/>
<path d="M99.4384 68.6853C98.352 68.5584 97.2912 68.2674 96.292 67.8224C94.9644 67.0126 94.6989 65.3531 93.9289 64.0786C93.2164 62.9814 92.1592 62.1524 90.9238 61.7222C89.6884 61.292 88.3449 61.2849 87.1051 61.7022C86.0032 62.1005 83.4011 63.6936 82.5647 62.0076C82.4834 61.8188 82.4436 61.6148 82.448 61.4093C82.4524 61.2038 82.501 61.0016 82.5904 60.8165C82.6798 60.6314 82.8079 60.4677 82.9661 60.3365C83.1243 60.2053 83.3089 60.1096 83.5073 60.056C82.6215 59.9178 81.715 60.0824 80.9344 60.5233C80.1538 60.9642 79.5448 61.6555 79.2059 62.4855C79.2501 61.8603 79.1373 61.234 78.8776 60.6636C78.6179 60.0931 78.2196 59.5968 77.719 59.2196C77.2079 58.8579 76.6136 58.6317 75.9914 58.5621C75.3691 58.4924 74.7394 58.5816 74.1611 58.8213C74.4709 59.1207 74.6689 59.5171 74.7221 59.9447C74.7752 60.3722 74.6803 60.8051 74.4531 61.1712C73.5902 62.6182 72.1299 62.2996 70.7492 62.1801C69.5054 62.0961 68.2745 62.4755 67.2939 63.2453C66.3133 64.015 65.6525 65.1206 65.4388 66.3488C65.4238 66.948 65.3255 67.5423 65.1467 68.1145C64.629 69.3359 63.1288 69.7209 61.8543 70.1059C60.1278 70.5812 58.5775 71.5502 57.3936 72.8938C56.8009 73.5884 56.4106 74.4325 56.2654 75.334C56.1202 76.2355 56.2258 77.1595 56.5705 78.005C57.1945 79.3326 58.5752 80.3283 58.7212 81.7887C58.7697 82.3654 58.6118 82.9407 58.2757 83.412C57.9395 83.8832 57.447 84.2197 56.8858 84.3616C56.3246 84.5035 55.7313 84.4415 55.2116 84.1867C54.6919 83.9318 54.2795 83.5007 54.0481 82.9702C53.6355 83.4791 53.4009 84.109 53.3799 84.7638C53.359 85.4186 53.553 86.0622 53.9322 86.5964C54.3114 87.1306 54.855 87.526 55.48 87.7222C56.105 87.9185 56.7771 87.9047 57.3936 87.6832C56.7841 88.7936 56.3921 90.0102 56.2386 91.2677C56.1393 91.9259 56.27 92.5982 56.6085 93.1713C56.9471 93.7444 57.4728 94.1833 58.0972 94.414C59.0238 94.7097 59.8944 95.1584 60.6727 95.7416C61.7481 96.6577 61.6817 97.6666 61.7215 98.981C61.717 99.5527 61.7794 100.123 61.9074 100.68C62.1277 101.44 62.5777 102.114 63.1956 102.608C63.8136 103.102 64.5693 103.394 65.3591 103.442C65.0923 102.977 64.9454 102.454 64.9315 101.918C64.9175 101.383 65.0372 100.853 65.2795 100.375C65.5464 101.012 65.9635 101.576 66.4952 102.017C67.0268 102.459 67.6573 102.765 68.3329 102.911C70.3509 103.389 72.3157 102.353 74.3337 102.765C75.1037 102.924 75.8206 103.282 76.564 103.495C77.5983 103.785 78.6883 103.816 79.7373 103.584C80.7863 103.353 81.762 102.866 82.578 102.167C84.1977 100.84 84.8216 98.4765 86.4678 97.0294C88.4061 95.3301 91.2604 94.9849 93.212 93.2989C96.3849 90.564 96.3451 85.0944 99.85 82.864C102.983 80.8859 103.169 79.5716 102.877 76.08C102.704 73.0266 103.275 69.7872 99.4384 68.6853Z" fill="#263238"/>
<path d="M249.35 166.49C248.106 165.825 246.688 165.557 245.287 165.72C243.06 166.08 240.863 166.608 238.716 167.3C235.37 168.057 229.98 169.331 226.648 168.269C225.971 168.057 224.63 167.406 225.785 166.822C227.346 166.144 228.847 165.336 230.272 164.406C230.983 163.942 231.586 163.334 232.044 162.62C232.502 161.906 232.803 161.103 232.928 160.264C232.998 159.755 232.875 159.239 232.582 158.817C232.131 158.259 231.666 158.405 231.135 158.618C230.561 158.816 229.976 158.98 229.383 159.109C228.162 159.401 226.94 159.706 225.719 160.025C218.616 161.884 211.341 164.34 206.004 169.517C202.865 172.064 199.857 174.767 196.99 177.616C192.675 181.306 167.584 194.317 167.584 194.317C167.584 194.317 153.962 174.775 149.329 168.15C143.908 159.991 135.514 154.274 125.937 152.219L136.279 193.135C136.279 193.135 152.661 211.721 155.396 215.054C159.445 219.992 165.791 220.364 171.885 217.005C179.456 212.996 186.577 208.189 193.126 202.667C203.747 194.29 206.933 191.9 209.96 189.697C212.987 187.493 217.581 187.466 219.851 187.387C222.995 187.372 226.122 186.925 229.144 186.059C231.793 185.431 234.35 184.463 236.751 183.178C237.981 182.68 239.09 181.924 240.004 180.961C240.427 179.964 240.91 178.993 241.451 178.054C242.261 177.058 243.522 176.487 244.225 175.398C244.67 174.501 245 173.551 245.208 172.571C245.489 171.912 245.906 171.321 246.432 170.836C246.959 170.35 247.582 169.983 248.261 169.756C248.95 169.495 249.568 169.077 250.067 168.535C250.757 167.672 250.173 166.968 249.35 166.49Z" fill="#B16668"/>
<path d="M123.056 149.938C131.473 152.5 136.929 152.168 144.205 160.558C151.48 168.949 169.429 192.181 169.429 192.181L192.131 180.233C192.112 184.987 193.579 189.629 196.326 193.509C200.813 199.271 202.353 199.271 202.353 199.271C202.353 199.271 183.873 212.985 176.385 217.193C168.898 221.402 164.822 222.504 162.021 221.667C159.22 220.831 153.87 215.799 146.342 206.413C138.815 197.027 125.964 180.246 125.964 180.246L123.056 149.938Z" fill="#EBEBEB"/>
<path d="M222.015 170.102C219.406 173.43 215.901 175.945 211.912 177.35C214.131 177.676 216.393 177.206 218.298 176.023C219.301 175.355 220.151 174.481 220.791 173.461C221.432 172.44 221.849 171.295 222.015 170.102Z" fill="#9A4A4D"/>
<path d="M62.518 243.498C58.0705 239.887 61.7745 234.908 63.3676 212.963C63.7792 207.294 61.8409 193.262 61.8409 193.262C61.8409 193.262 70.2047 181.034 66.8326 153.699L85.9632 148.203L112.342 148.402L122.671 151.416C126.176 154.496 132.588 159.381 137.686 166.763C145.028 177.384 146.13 189 138.204 197.483C138.098 199.156 139.903 218.632 140.62 225.217C141.616 234.35 145.147 238.678 139.85 243.179C124.37 256.322 83.5204 257.251 62.518 243.498Z" fill="#0071CE"/>
<path opacity="0.6" d="M62.518 243.498C58.0705 239.887 61.7745 234.908 63.3676 212.963C63.7792 207.294 61.8409 193.262 61.8409 193.262C61.8409 193.262 70.2047 181.034 66.8326 153.699L85.9632 148.203L112.342 148.402L122.671 151.416C126.176 154.496 132.588 159.381 137.686 166.763C145.028 177.384 146.13 189 138.204 197.483C138.098 199.156 139.903 218.632 140.62 225.217C141.616 234.35 145.147 238.678 139.85 243.179C124.37 256.322 83.5204 257.251 62.518 243.498Z" fill="white"/>
<path d="M82.6174 130.302C81.1811 130.502 79.7176 130.341 78.3593 129.834C77.0009 129.326 75.7905 128.488 74.8377 127.395C70.7354 122.961 70.3504 118.46 72.2622 115.446C73.8287 112.977 77.692 111.464 80.4136 113.07C83.1351 114.676 83.4006 116.309 84.5025 118.38C85.6044 120.451 88.4057 118.818 87.4631 110.72C93.0921 108.065 92.1893 98.8515 95.2295 95.0679C99.9823 89.1468 107.828 90.6868 110.391 92.0675C111.937 91.0108 113.739 90.3903 115.608 90.2711C117.477 90.152 119.343 90.5386 121.011 91.3905C124.795 93.3819 127.317 97.5638 128.658 111.955C129.986 126.625 127.45 136.409 124.012 139.516C121.635 141.666 117.228 143.113 111.97 142.821V148.344C111.97 148.344 127.158 163.89 107.802 162.483C103.488 162.121 99.3006 160.846 95.5171 158.743C91.7337 156.639 88.4407 153.755 85.8567 150.282L85.7239 128.045C85.7239 128.045 85.5381 129.758 82.6174 130.302Z" fill="#B16668"/>
<path d="M114.375 128.81C114.3 129 113.578 129.774 112.629 130.398C111.679 131.021 110.522 131.246 109.408 131.022C108.857 130.921 108.33 130.712 107.86 130.407C107.39 130.102 106.985 129.706 106.668 129.243C106.352 128.78 106.335 128.67 106.3 128.5C106.265 128.33 105.905 127.625 105.905 127.164L114.375 128.81Z" fill="#9A4A4D"/>
<path d="M105.93 127.415C106.009 127.981 106.201 128.526 106.495 129.016C106.789 129.507 107.178 129.934 107.64 130.271C108.102 130.608 108.627 130.848 109.184 130.978C109.741 131.108 110.319 131.124 110.882 131.026C110.696 129.894 110.072 128.881 109.146 128.206C108.219 127.53 107.064 127.246 105.93 127.415Z" fill="#F28F8F"/>
<path d="M124.582 102.715L118.993 100.896C119.102 100.529 119.283 100.187 119.527 99.8917C119.77 99.5962 120.07 99.3526 120.409 99.1755C120.749 98.9983 121.12 98.8913 121.502 98.8607C121.884 98.8301 122.267 98.8766 122.631 98.9974C123.374 99.2444 123.992 99.7696 124.356 100.463C124.72 101.156 124.801 101.963 124.582 102.715Z" fill="#263238"/>
<path d="M103.965 101.109L98.4157 104.056C98.2001 103.712 98.0586 103.326 98.0002 102.923C97.9417 102.52 97.9676 102.11 98.0763 101.718C98.1849 101.326 98.3738 100.961 98.6311 100.646C98.8883 100.331 99.2083 100.073 99.5707 99.8878C100.322 99.501 101.192 99.4119 102.007 99.6383C102.821 99.8647 103.521 100.39 103.965 101.109Z" fill="#263238"/>
<path d="M101.668 111.578C101.668 112.032 101.803 112.476 102.056 112.854C102.308 113.232 102.667 113.526 103.086 113.7C103.506 113.874 103.968 113.919 104.413 113.831C104.859 113.742 105.268 113.523 105.589 113.202C105.91 112.881 106.129 112.472 106.218 112.026C106.306 111.581 106.261 111.119 106.087 110.699C105.913 110.279 105.619 109.921 105.241 109.668C104.863 109.416 104.419 109.281 103.965 109.281C103.356 109.281 102.772 109.523 102.341 109.954C101.91 110.385 101.668 110.969 101.668 111.578Z" fill="#263238"/>
<path d="M120.108 110.883C120.108 111.337 120.243 111.781 120.495 112.159C120.748 112.536 121.107 112.831 121.526 113.005C121.946 113.178 122.408 113.224 122.853 113.135C123.299 113.047 123.708 112.828 124.029 112.507C124.35 112.185 124.569 111.776 124.658 111.331C124.746 110.885 124.701 110.423 124.527 110.004C124.353 109.584 124.059 109.225 123.681 108.973C123.303 108.721 122.859 108.586 122.405 108.586C121.797 108.589 121.215 108.833 120.785 109.262C120.355 109.692 120.112 110.275 120.108 110.883Z" fill="#263238"/>
<path d="M131.632 104.174L130.53 104.094C126.854 103.767 123.15 104.045 119.564 104.917C116.126 106.085 114.971 107.28 113.032 107.373C111.094 107.466 109.567 106.377 105.757 105.528C101.846 104.985 97.8749 105.043 93.9814 105.7L92.8131 105.886C92.4233 106.016 92.0915 106.278 91.8755 106.628C91.6595 106.977 91.5732 107.391 91.6315 107.798C91.8602 108.615 92.3215 109.349 92.9591 109.909C93.1601 110.162 93.313 110.45 93.4105 110.758C93.856 112.775 94.4688 114.751 95.2426 116.666C95.6503 117.458 96.194 118.173 96.849 118.777C97.1019 118.998 97.3728 119.198 97.6588 119.374C97.8046 119.471 97.9552 119.559 98.1102 119.64C98.5344 119.863 98.9789 120.046 99.4378 120.184H99.6635L100.022 120.264L100.394 120.344C100.78 120.406 101.171 120.446 101.562 120.463H102.69C107.51 120.277 109.328 117.994 110.417 115.684C111.506 113.374 110.948 110.188 113.165 110.108H113.577C115.249 110.413 115.249 113.347 116.418 115.418C116.871 116.252 117.459 117.005 118.157 117.649C118.283 117.771 118.416 117.886 118.555 117.994L118.767 118.153L118.993 118.299L119.192 118.432L119.405 118.565L119.577 118.658H119.697C120.316 118.971 120.978 119.19 121.662 119.308H121.848C122.629 119.432 123.421 119.472 124.211 119.428C128.724 119.215 130.105 116.613 130.742 114.993C131.23 113.014 131.554 110.998 131.712 108.966C131.76 108.67 131.883 108.391 132.07 108.156C132.591 107.521 132.894 106.734 132.933 105.913C132.926 105.523 132.796 105.145 132.563 104.833C132.329 104.521 132.004 104.29 131.632 104.174ZM109.063 113.626C108.882 114.815 108.376 115.931 107.602 116.852C106.95 117.534 106.161 118.071 105.287 118.428C104.414 118.785 103.474 118.953 102.531 118.923C101.545 119.031 100.547 118.899 99.6219 118.539C98.6973 118.178 97.8736 117.599 97.2207 116.852L97.0481 116.64L96.8888 116.414L96.7428 116.215C96.7024 116.156 96.6669 116.094 96.6365 116.029L96.5436 115.883L96.464 115.75C96.4232 115.678 96.3877 115.602 96.3578 115.524C96.2423 115.314 96.1403 115.097 96.0524 114.874L95.8931 114.476L95.6807 113.852C95.6869 113.812 95.6869 113.772 95.6807 113.732V113.613C95.2028 112.046 94.5522 108.966 95.3355 108.302C96.1188 107.639 98.2562 106.736 101.867 106.975H102.252C102.809 107.008 103.363 107.075 103.912 107.174C104.131 107.201 104.348 107.241 104.562 107.293C105.11 107.402 105.651 107.544 106.182 107.718L106.686 107.891L107.231 108.103H107.35L107.549 108.196C107.974 108.379 108.358 108.646 108.678 108.979C109.435 109.842 109.355 111.9 109.076 113.679L109.063 113.626ZM129.946 112.033C129.893 113.08 129.589 114.1 129.06 115.006C128.531 115.911 127.792 116.677 126.906 117.237C126.08 117.653 125.174 117.884 124.25 117.914C123.223 118.054 122.178 117.933 121.21 117.562C120.242 117.191 119.384 116.581 118.714 115.79C118.675 115.745 118.639 115.696 118.608 115.644L118.489 115.485L118.422 115.392C118.369 115.315 118.32 115.235 118.276 115.153C118.214 115.063 118.156 114.97 118.104 114.874C118.099 114.825 118.099 114.776 118.104 114.728V114.648V114.529V114.449C117.94 114.068 117.798 113.678 117.679 113.281C117.201 111.542 116.856 109.497 117.466 108.501C118.077 107.506 120.653 106.324 123.188 105.846C123.729 105.756 124.274 105.694 124.821 105.66H126.282H126.733L127.569 105.767H127.769H127.901H128.114H128.353L128.751 105.899H128.831C129.159 106.022 129.468 106.192 129.747 106.404C130.41 107.373 130.211 110.493 129.959 112.139L129.946 112.033Z" fill="#37474F"/>
<path d="M121.117 120.293L112.926 123.784L111.121 113.469C111.413 111.929 111.718 110.336 113.059 110.203L121.117 120.293Z" fill="#9A4A4D"/>
<path d="M93.0786 107.133L80.4399 113.08C81.1353 113.529 81.7885 114.04 82.3915 114.607L93.3972 109.708L93.0786 107.133Z" fill="#37474F"/>
<path d="M112.063 142.768C104.483 142.489 94.3397 139.847 91.6182 135.055C93.1316 140.219 98.4685 142.901 102.717 144.069C105.752 144.915 108.866 145.444 112.01 145.649L112.063 142.768Z" fill="#9A4A4D"/>
<path d="M85.9502 145.977C85.9502 145.977 91.8978 161.191 91.619 185.804C91.3403 210.418 88.4594 284.219 86.9061 321.365C61.5358 319.878 49.6406 309.562 49.6406 309.562C49.6406 309.562 51.8179 283.143 53.6234 260.441C55.3891 237.023 59.8896 225.26 58.7745 209.794C55.6148 165.665 66.8993 153.783 66.8993 153.783L85.9502 145.977Z" fill="#E0E0E0"/>
<path d="M111.997 145.664L112.09 148.319C112.09 148.319 129.535 160.639 133.066 178.535C136.597 196.431 140.036 319.87 140.036 319.87C140.036 319.87 147.298 318.158 151.705 314.56C148.532 268.904 142.08 196.63 142.08 196.63C144.777 192.45 146.164 187.559 146.063 182.584C145.811 174.433 138.469 161.688 123.069 149.965L111.997 145.664Z" fill="#E0E0E0"/>
<path d="M136.332 219.14C138.987 204.045 140.62 186.255 140.62 186.255L137.647 181.728H141.337C141.337 181.728 135.629 165.797 128.539 156.504C124.214 150.884 118.556 146.431 112.077 143.547V148.857C112.077 148.857 126.455 160.314 130.663 173.112C134.872 185.91 136.332 219.14 136.332 219.14Z" fill="#F5F5F5"/>
<path d="M85.937 142.688C84.1311 144.545 82.0812 146.148 79.8434 147.454C76.2854 149.471 73.5107 150.945 73.5107 150.945L82.3259 185.316L85.937 184.281L83.1491 191.317L90.8491 216.103C90.8491 216.103 92.721 189.551 92.0439 173.912C91.5858 164.31 89.5262 154.851 85.9503 145.927L85.937 142.688Z" fill="#F5F5F5"/>
<path d="M112.595 189.156C117.268 185.731 119.618 184.417 121.795 183.846C123.972 183.275 131.619 180.115 134.553 179.398C136.412 178.947 137.208 181.854 134.792 183.846C132.973 185.386 128.234 187.404 126.149 188.519C124.065 189.634 119.989 194.506 119.989 194.506L112.595 189.156Z" fill="#9A4A4D"/>
<path d="M46.9194 168.344C51.5527 158.652 56.5179 156.396 66.7138 154.922C71.1878 164.985 68.7052 187.607 68.7052 187.607L63.6073 211.344C63.6073 211.344 90.9954 207.441 94.1418 205.463C97.2882 203.485 105.798 194.471 108.639 191.816C112.516 188.165 114.441 188.656 116.406 188.948C122.844 189.891 124.265 190.422 125.699 191.285C126.097 191.555 126.42 191.923 126.639 192.352C126.857 192.782 126.963 193.259 126.947 193.741C128.659 193.953 131.221 193.9 131.553 196.661C131.694 197.387 131.725 198.13 131.646 198.865C132.082 198.939 132.477 199.165 132.761 199.502C134.182 201.109 131.739 206.724 130.199 208.092C129.097 209.048 127.544 209.167 125.513 208.902C123.774 208.663 124.583 206.937 124.583 206.937L122.154 207.07C116.923 210.734 116.658 217.969 109.728 219.562C106.844 219.86 103.992 220.411 101.205 221.208C86.2825 226.121 61.8283 241.043 48.5391 242.158C35.5685 243.26 35.9403 236.462 35.7411 228.67C35.542 221.7 42.2994 178.022 46.9194 168.344Z" fill="#B16668"/>
<path d="M64.1641 208.664L63.6065 211.319C57.6987 212.819 50.7554 220.48 49.3481 223.666C50.45 218.621 53.769 211.386 64.1641 208.664Z" fill="#F28F8F"/>
<path d="M66.8328 153.695C64.3678 154.213 61.9449 154.914 59.5842 155.793C55.7407 156.998 52.4214 159.475 50.1716 162.816C47.3836 166.799 46.0162 169.64 42.5247 182.438C39.6969 192.806 34.5591 217.34 34.0679 226.421C33.5767 235.501 35.8336 239.006 38.1436 240.878C40.4536 242.75 45.8702 244.197 53.8623 241.741C61.8544 239.285 85.5519 229.076 85.5519 229.076C85.5519 229.076 81.37 228.226 80.4008 219.371C79.4317 210.516 82.6179 208.034 82.6179 208.034L64.1644 210.848L68.6118 190.775C68.6118 190.775 72.8734 164.754 66.8328 153.695Z" fill="#EBEBEB"/>
<path d="M64.1645 210.853C60.9852 211.491 58.0061 212.885 55.4783 214.916C52.9506 216.947 50.9484 219.556 49.6406 222.523C50.2789 218.742 52.1035 215.262 54.8505 212.586C57.5976 209.911 61.1245 208.179 64.9212 207.641L64.1645 210.853Z" fill="#E0E0E0"/>
<path d="M126.879 193.763L119.219 192.25L126.72 192.728C126.838 193.06 126.892 193.411 126.879 193.763Z" fill="#9A4A4D"/>
<path d="M131.579 198.889L122.777 197.773L131.593 197.893C131.628 198.224 131.623 198.558 131.579 198.889Z" fill="#9A4A4D"/>
<path d="M123.773 205.696C124.292 205.263 124.671 204.685 124.862 204.036C125.891 204.022 126.92 203.951 127.942 203.824C128.34 203.746 128.73 203.635 129.11 203.492C129.609 203.334 130.064 203.061 130.437 202.695C130.149 203.144 129.733 203.496 129.243 203.704C128.822 203.915 128.376 204.071 127.915 204.169L127.411 205.231C127.742 205.257 128.06 205.377 128.327 205.576C128.69 205.867 128.958 206.26 129.097 206.705C128.874 206.323 128.565 206 128.194 205.762C127.836 205.556 127.419 205.481 127.012 205.55C126.028 205.673 125.132 206.179 124.516 206.957L122.087 207.09C122.678 206.662 123.241 206.196 123.773 205.696Z" fill="#9A4A4D"/>
<path d="M169.402 192.147C166.819 193.784 164.586 195.918 162.833 198.425C161.081 200.932 159.843 203.762 159.193 206.75C158.463 197.962 167.862 190.195 167.862 190.195L169.402 192.147Z" fill="#E0E0E0"/>
<path d="M226.191 194.103C226.191 194.103 226.191 194.049 226.191 194.025L228.081 155.223C228.118 154.808 228.267 154.41 228.51 154.072C228.754 153.735 229.085 153.469 229.467 153.303C230.514 152.79 231.667 152.531 232.833 152.548C233.999 152.564 235.144 152.856 236.175 153.399C237.099 153.951 237.567 154.659 237.561 155.361L239.427 194.217C239.43 194.243 239.43 194.269 239.427 194.295C239.427 194.337 239.427 194.385 239.427 194.427C239.431 195.294 239.261 196.154 238.928 196.955C238.595 197.755 238.105 198.482 237.487 199.091C236.87 199.7 236.137 200.18 235.332 200.502C234.526 200.824 233.665 200.982 232.797 200.967C231.034 200.931 229.356 200.205 228.122 198.945C226.888 197.686 226.197 195.992 226.197 194.229C226.185 194.187 226.191 194.145 226.191 194.103Z" fill="#37474F"/>
<path opacity="0.25" d="M236.169 153.399C238.023 154.503 238.017 156.237 236.169 157.281C235.123 157.794 233.97 158.053 232.804 158.036C231.638 158.02 230.493 157.728 229.461 157.185C227.607 156.087 227.613 154.347 229.461 153.303C230.508 152.79 231.661 152.531 232.827 152.548C233.993 152.564 235.138 152.856 236.169 153.399Z" fill="black"/>
<path d="M235.251 192.457L234.195 157.939C234.886 157.838 235.554 157.619 236.169 157.291C237.087 156.769 237.555 156.091 237.555 155.383L239.421 194.221C239.424 194.247 239.424 194.273 239.421 194.299C239.421 194.341 239.421 194.389 239.421 194.431C239.425 195.298 239.255 196.157 238.922 196.957C238.589 197.757 238.1 198.483 237.483 199.093C236.867 199.702 236.134 200.181 235.33 200.504C234.525 200.826 233.664 200.985 232.797 200.971C234.855 200.473 235.371 196.897 235.251 192.457Z" fill="#455A64"/>
<path d="M230.805 138.306C231.438 137.997 232.134 137.842 232.838 137.852C233.541 137.862 234.233 138.038 234.855 138.366C235.089 138.473 235.29 138.641 235.438 138.852C235.585 139.063 235.674 139.309 235.695 139.566V155.352C235.672 155.602 235.582 155.842 235.434 156.046C235.286 156.249 235.086 156.41 234.855 156.51C234.222 156.82 233.525 156.976 232.82 156.965C232.115 156.955 231.423 156.778 230.799 156.45C230.566 156.342 230.365 156.174 230.218 155.963C230.07 155.752 229.981 155.506 229.959 155.25V139.47C229.984 139.218 230.075 138.977 230.224 138.772C230.372 138.567 230.573 138.406 230.805 138.306Z" fill="#E0E0E0"/>
<path opacity="0.25" d="M235.69 148.645V141.883C233.766 142.311 231.854 142.651 229.954 142.903V150.385C231.736 150.457 234.544 149.401 235.69 148.645Z" fill="black"/>
<path d="M258.424 76.6239L251.572 72.7059C246.382 69.7059 239.212 70.1439 231.286 74.7159C215.446 83.8659 202.6 106.108 202.6 124.408C202.6 133.558 205.81 140.008 211 142.978L217.834 146.884C220.112 148.165 222.69 148.815 225.304 148.768C229.162 148.768 233.512 147.514 238.114 144.85C253.96 135.706 266.806 113.458 266.806 95.1639C266.812 86.0499 263.602 79.6239 258.424 76.6239ZM221.782 102.316C226.81 93.6159 233.422 86.6019 240.382 82.5699C244.042 80.4579 247.582 79.3179 250.69 79.2699C251.216 79.2569 251.744 79.2789 252.268 79.3359C254.452 82.0779 255.646 86.2419 255.646 91.5399C255.646 99.5979 252.88 108.832 247.846 117.538C242.812 126.244 236.212 133.252 229.246 137.278C225.496 139.444 221.854 140.59 218.716 140.59C218.265 140.589 217.814 140.563 217.366 140.512C216.961 140.003 216.6 139.461 216.286 138.892C214.792 136.234 213.988 132.658 213.988 128.314C213.994 120.256 216.76 111.022 221.782 102.316Z" fill="#37474F"/>
<path d="M210.1 97.7709L220.9 103.963C221.196 103.423 221.496 102.883 221.8 102.343C223.348 99.6617 225.085 97.0933 226.996 94.6569L216.196 88.4529C213.918 91.3909 211.879 94.5069 210.1 97.7709ZM223.156 80.7969C221.824 82.0209 220.534 83.3249 219.286 84.7089L230.152 90.9429C231.411 89.5895 232.743 88.3056 234.142 87.0969L223.156 80.7969Z" fill="#455A64"/>
<path opacity="0.25" d="M217.803 146.86L211.005 142.978C205.809 139.978 202.605 133.558 202.605 124.408C202.605 124.054 202.605 123.706 202.605 123.352L209.433 127.258C209.433 127.612 209.433 127.96 209.433 128.314C209.433 137.434 212.631 143.854 217.803 146.86Z" fill="black"/>
<path d="M259.227 83.4519C258.438 82.3072 257.411 81.3467 256.216 80.6363C255.021 79.9258 253.686 79.4822 252.303 79.3359C254.487 82.0779 255.681 86.2419 255.681 91.5399C255.681 99.5979 252.915 108.832 247.881 117.538C242.847 126.244 236.247 133.252 229.281 137.278C225.531 139.444 221.889 140.59 218.751 140.59C218.3 140.589 217.85 140.563 217.401 140.512C218.27 141.63 219.375 142.543 220.637 143.184C221.9 143.825 223.288 144.179 224.703 144.22C224.895 144.22 225.093 144.22 225.303 144.22C228.447 144.22 232.089 143.08 235.839 140.914C242.817 136.882 249.429 129.868 254.439 121.168C259.449 112.468 262.239 103.228 262.239 95.1699C262.251 90.1839 261.183 86.1879 259.227 83.4519Z" fill="#263238"/>
<path d="M238.126 78.6306C222.28 87.7746 209.434 110.023 209.434 128.317C209.434 146.611 222.28 154.027 238.126 144.883C253.972 135.739 266.812 113.485 266.812 95.1906C266.812 76.8966 253.966 69.4806 238.126 78.6306ZM235.846 140.935C232.096 143.095 228.454 144.241 225.31 144.241C223.459 144.284 221.633 143.806 220.041 142.861C218.45 141.915 217.156 140.541 216.31 138.895C214.81 136.237 214.012 132.655 214.012 128.317C214.012 120.253 216.778 111.025 221.812 102.319C226.846 93.6126 233.452 86.6046 240.412 82.5726C244.072 80.4606 247.612 79.3206 250.72 79.2726H250.948C258.04 79.2726 262.264 85.2246 262.264 95.1966C262.264 103.255 259.498 112.495 254.464 121.195C249.43 129.895 242.824 136.903 235.846 140.935Z" fill="#455A64"/>
<g opacity="0.3">
<path d="M216.393 102.672C213.749 107.826 211.79 113.305 210.567 118.968C209.976 121.797 209.648 124.676 209.589 127.566C209.517 130.451 209.834 133.333 210.531 136.134C211.205 138.938 212.506 141.554 214.335 143.784C216.21 145.986 218.728 147.543 221.535 148.236C224.357 148.88 227.292 148.835 230.091 148.104C232.905 147.41 235.607 146.326 238.119 144.882C235.628 146.377 232.94 147.516 230.133 148.266C227.307 149.026 224.338 149.09 221.481 148.452C218.617 147.77 216.041 146.201 214.119 143.97C212.245 141.717 210.905 139.069 210.201 136.224C209.515 133.389 209.215 130.475 209.307 127.56C209.386 124.656 209.733 121.766 210.345 118.926C210.958 116.088 211.776 113.299 212.793 110.58C213.829 107.872 215.031 105.231 216.393 102.672Z" fill="white"/>
</g>
<g opacity="0.3">
<path d="M257.776 115.597C258.974 112.975 259.963 110.263 260.734 107.485C261.528 104.712 262.064 101.872 262.336 99.0009C262.631 96.1287 262.55 93.2302 262.096 90.3789C261.853 88.9503 261.451 87.5535 260.896 86.2149C260.356 84.869 259.593 83.6236 258.64 82.5309C257.671 81.4496 256.474 80.597 255.136 80.0349C254.056 79.6048 252.913 79.3555 251.752 79.2969C258.352 79.7409 262.246 85.6149 262.246 95.1909C262.246 103.249 259.48 112.489 254.446 121.189C249.412 129.889 242.806 136.903 235.846 140.935C232.096 143.095 228.454 144.241 225.31 144.241C223.459 144.285 221.633 143.807 220.042 142.861C218.45 141.916 217.157 140.541 216.31 138.895C214.81 136.237 214.012 132.655 214.012 128.317C214.012 120.253 216.778 111.025 221.812 102.319C220.339 104.78 219.034 107.338 217.906 109.975C216.761 112.612 215.824 115.334 215.104 118.117C214.382 120.907 213.934 123.76 213.766 126.637C213.57 129.532 213.819 132.439 214.504 135.259C214.856 136.683 215.404 138.052 216.13 139.327C216.501 139.965 216.931 140.568 217.414 141.127C217.896 141.693 218.442 142.203 219.04 142.645C220.241 143.543 221.63 144.158 223.102 144.445C224.559 144.707 226.049 144.723 227.512 144.493C230.393 144.007 233.163 143.007 235.69 141.541C238.194 140.108 240.544 138.421 242.704 136.507C246.996 132.635 250.703 128.161 253.708 123.223C255.226 120.771 256.585 118.224 257.776 115.597Z" fill="white"/>
</g>
<path opacity="0.4" d="M254.236 79.7675C253.167 79.4385 252.054 79.2746 250.936 79.2815H250.708C247.618 79.3295 244.06 80.4815 240.4 82.5815C233.422 86.6135 226.81 93.6275 221.8 102.327C216.79 111.027 214 120.267 214 128.325C214 132.669 214.804 136.245 216.298 138.903C216.932 140.073 217.776 141.117 218.788 141.981C219.856 142.313 220.969 142.477 222.088 142.467C225.232 142.467 228.874 141.327 232.624 139.161C239.602 135.135 246.22 128.121 251.224 119.415C256.228 110.709 259.024 101.481 259.024 93.4175C259.03 87.0635 257.314 82.3415 254.236 79.7675Z" fill="white"/>
<path d="M231.1 158.032C230.14 158.512 225.4 160.197 223.9 160.497L226.3 166.497C229.3 165.297 232.3 160.432 232.6 159.232C232.9 158.032 232.3 157.432 231.1 158.032Z" fill="#B16668"/>
</g>
<defs>
<clipPath id="clip0_316_39629">
<rect width="300" height="300" fill="white"/>
</clipPath>
</defs>
</svg>
