<svg width="71" height="80" viewBox="0 0 71 80" fill="none" xmlns="http://www.w3.org/2000/svg">
<path d="M15.5 20C15.5 8.95469 24.4531 0 35.5 0C46.5469 0 55.5 8.95469 55.5 20C55.5 31.0469 46.5469 40 35.5 40C24.4531 40 15.5 31.0469 15.5 20ZM50.5 20C50.5 11.7156 43.7812 5 35.5 5C27.0781 5 20.5 11.7156 20.5 20C20.5 28.2812 27.0781 35 35.5 35C43.7812 35 50.5 28.2812 50.5 20ZM0.5 75.1875C0.5 59.8906 12.8953 47.5 28.1875 47.5H42.8125C58.1094 47.5 70.5 59.8906 70.5 75.1875C70.5 77.8438 68.3438 80 65.6875 80H5.31563C2.65625 80 0.500094 77.8438 0.500094 75.1875H0.5ZM25.5 62.5C24.125 62.5 23 63.625 23 65C23 66.375 24.125 67.5 25.5 67.5C26.875 67.5 28 66.375 28 65C28 63.625 26.875 62.5 25.5 62.5ZM28 52.5V57.9219C30.9062 58.9531 33 61.7344 33 65C33 69.1406 29.6406 72.5 25.5 72.5C21.3594 72.5 18 69.1406 18 65C18 61.7344 20.0938 58.9531 23 57.9219V53.0938C13.0281 55.4219 5.58594 64.3438 5.5 75H65.3594C65.4219 65.25 59.1875 56.9688 50.5 53.8281V57.9219C53.4062 58.9531 55.5 61.7344 55.5 65V70C55.5 71.375 54.375 72.5 53 72.5C51.625 72.5 50.5 71.375 50.5 70V65C50.5 63.625 49.375 62.5 48 62.5C46.625 62.5 45.5 63.625 45.5 65V70C45.5 71.375 44.375 72.5 43 72.5C41.625 72.5 40.5 71.375 40.5 70V65C40.5 61.7344 42.5938 58.9531 45.5 57.9219V52.6562C44.625 52.5469 43.7188 52.5 42.8125 52.5H28.1875C28.125 52.5 28.0625 52.5 27.8594 52.5H28Z" fill="#3A5068"/>
</svg>
