<svg width="300" height="300" viewBox="0 0 300 300" fill="none" xmlns="http://www.w3.org/2000/svg">
<path d="M150 286.647C222.679 286.647 281.598 252.333 281.598 210.003C281.598 167.674 222.679 133.359 150 133.359C77.3203 133.359 18.4019 167.674 18.4019 210.003C18.4019 252.333 77.3203 286.647 150 286.647Z" fill="#F5F5F5"/>
<path d="M224.202 242.781C245.317 242.781 262.434 232.898 262.434 220.707C262.434 208.516 245.317 198.633 224.202 198.633C203.087 198.633 185.97 208.516 185.97 220.707C185.97 232.898 203.087 242.781 224.202 242.781Z" fill="#E6E6E6"/>
<path d="M150 250.043C173.846 250.043 193.176 238.884 193.176 225.119C193.176 211.354 173.846 200.195 150 200.195C126.155 200.195 106.824 211.354 106.824 225.119C106.824 238.884 126.155 250.043 150 250.043Z" fill="#E6E6E6"/>
<path d="M74.502 242.781C95.617 242.781 112.734 232.898 112.734 220.707C112.734 208.516 95.617 198.633 74.502 198.633C53.3871 198.633 36.27 208.516 36.27 220.707C36.27 232.898 53.3871 242.781 74.502 242.781Z" fill="#E6E6E6"/>
<path d="M59.2799 191.555C59.7419 186.287 56.8799 175.037 52.0199 167.711C47.1599 160.385 38.9999 154.631 32.7059 156.185C26.8439 157.631 26.8079 165.149 33.2699 170.699C39.7319 176.249 49.5719 183.371 51.8699 192.191L57.3179 203.237L59.2799 191.555Z" fill="#0071CE"/>
<path opacity="0.1" d="M59.2799 191.555C59.7419 186.287 56.8799 175.037 52.0199 167.711C47.1599 160.385 38.9999 154.631 32.7059 156.185C26.8439 157.631 26.8079 165.149 33.2699 170.699C39.7319 176.249 49.5719 183.371 51.8699 192.191L57.3179 203.237L59.2799 191.555Z" fill="black"/>
<path d="M59.0338 198.806C58.951 198.791 58.8753 198.75 58.818 198.688C58.7607 198.626 58.7248 198.548 58.7158 198.464C56.7658 180.164 43.4998 164.264 35.0698 160.268C35.0239 160.246 34.9828 160.215 34.9488 160.178C34.9149 160.14 34.8888 160.096 34.872 160.048C34.8553 160 34.8482 159.949 34.8513 159.898C34.8543 159.847 34.8675 159.798 34.8898 159.752C34.9131 159.708 34.9448 159.67 34.9832 159.638C35.0216 159.607 35.0658 159.584 35.1133 159.57C35.1608 159.556 35.2106 159.551 35.2598 159.557C35.309 159.563 35.3566 159.578 35.3998 159.602C43.9918 163.67 57.5038 179.834 59.4838 198.416C59.4896 198.466 59.4854 198.517 59.4712 198.565C59.4571 198.614 59.4333 198.659 59.4015 198.698C59.3696 198.737 59.3302 198.77 59.2856 198.793C59.241 198.817 59.1921 198.832 59.1418 198.836C59.1044 198.832 59.0678 198.822 59.0338 198.806Z" fill="white"/>
<path d="M55.344 210.086C54.744 207.05 51.564 201.842 46.068 197.288C39.984 192.254 31.974 189.488 30.39 185.84C28.488 181.46 32.358 177.824 38.934 179.24C45.51 180.656 56.4 190.742 57.078 204.566L55.344 210.086Z" fill="#0071CE"/>
<path d="M56.9041 207.086C56.8301 207.073 56.7615 207.038 56.7062 206.987C56.651 206.936 56.6114 206.871 56.5921 206.798C52.4281 190.904 41.1421 184.46 35.7601 183.278C35.7052 183.273 35.6521 183.256 35.6043 183.228C35.5565 183.201 35.5151 183.163 35.4827 183.119C35.4504 183.074 35.4279 183.023 35.4168 182.969C35.4056 182.915 35.406 182.859 35.418 182.805C35.4299 182.752 35.4532 182.701 35.4862 182.657C35.5191 182.613 35.5611 182.576 35.6093 182.549C35.6575 182.522 35.7109 182.506 35.7658 182.501C35.8207 182.497 35.876 182.504 35.9281 182.522C41.8801 183.83 53.0881 190.376 57.3421 206.606C57.3561 206.668 57.355 206.733 57.3387 206.795C57.3223 206.856 57.2914 206.913 57.2484 206.96C57.2053 207.008 57.1516 207.044 57.0916 207.065C57.0317 207.087 56.9673 207.094 56.9041 207.086Z" fill="white"/>
<path d="M235.08 198.638C234.594 193.1 237.774 175.28 242.88 167.588C247.986 159.896 257.238 152.126 263.85 153.758C270.006 155.282 270.048 163.178 263.25 169.01C256.452 174.842 246.126 182.33 243.726 191.588L237.726 207.248L235.08 198.638Z" fill="#0071CE"/>
<path opacity="0.1" d="M235.08 198.638C234.594 193.1 237.774 175.28 242.88 167.588C247.986 159.896 257.238 152.126 263.85 153.758C270.006 155.282 270.048 163.178 263.25 169.01C256.452 174.842 246.126 182.33 243.726 191.588L237.726 207.248L235.08 198.638Z" fill="black"/>
<path d="M236.196 198.542C236.283 198.526 236.363 198.482 236.423 198.417C236.484 198.352 236.522 198.27 236.532 198.182C238.578 178.952 252.522 162.248 261.372 158.048C261.42 158.025 261.464 157.993 261.5 157.954C261.536 157.915 261.563 157.868 261.581 157.818C261.599 157.768 261.607 157.715 261.604 157.661C261.601 157.608 261.587 157.556 261.564 157.508C261.542 157.459 261.511 157.415 261.471 157.379C261.432 157.342 261.386 157.314 261.335 157.296C261.285 157.278 261.231 157.271 261.178 157.274C261.124 157.278 261.072 157.292 261.024 157.316C252.024 161.594 237.798 178.574 235.722 198.116C235.716 198.169 235.721 198.222 235.736 198.273C235.751 198.324 235.776 198.372 235.809 198.413C235.843 198.454 235.884 198.489 235.931 198.514C235.978 198.539 236.029 198.555 236.082 198.56C236.121 198.56 236.159 198.554 236.196 198.542Z" fill="white"/>
<path d="M240.078 210.391C240.678 207.199 243.258 201.781 248.664 196.591C255.264 190.225 265.842 187.117 267.51 183.289C269.508 178.693 265.746 175.261 258.894 177.013C249.69 179.365 238.956 190.081 238.254 204.613L240.078 210.391Z" fill="#0071CE"/>
<path d="M238.434 207.246C238.512 207.234 238.584 207.199 238.643 207.147C238.701 207.095 238.743 207.027 238.764 206.952C243.138 190.248 257.298 181.926 262.956 180.684C263.009 180.672 263.058 180.651 263.102 180.62C263.146 180.589 263.184 180.55 263.213 180.505C263.242 180.46 263.262 180.41 263.271 180.357C263.281 180.304 263.28 180.25 263.268 180.198C263.258 180.145 263.236 180.095 263.206 180.05C263.176 180.006 263.137 179.968 263.091 179.939C263.046 179.91 262.995 179.89 262.942 179.881C262.889 179.872 262.835 179.873 262.782 179.886C256.524 181.266 242.442 189.696 237.978 206.742C237.964 206.793 237.96 206.847 237.967 206.9C237.973 206.954 237.991 207.005 238.017 207.051C238.044 207.098 238.08 207.138 238.123 207.171C238.166 207.203 238.214 207.226 238.266 207.24C238.321 207.253 238.378 207.256 238.434 207.246Z" fill="white"/>
<path d="M242.46 90.6325C238.758 86.8165 232.608 77.9185 232.608 77.9185L228.816 64.8025C228.726 64.8385 230.748 64.8445 231.36 64.8025C235.458 65.0785 236.664 65.4025 239.214 68.2165C241.236 70.4305 248.718 82.0645 251.406 85.6165L258.762 75.4525C260.466 72.8725 260.19 69.9865 261.078 67.8745C261.966 65.7625 263.394 64.8385 264.54 62.9365C265.686 61.0345 265.962 59.7865 266.904 60.7585C267.846 61.7305 266.76 64.3585 266.616 64.9585C266.472 65.5585 265.044 67.3585 267.438 66.4105C269.832 65.4625 273.54 61.0945 274.5 60.2005C275.46 59.3065 275.958 60.6925 275.742 61.7905C275.526 62.8885 276.558 65.3905 276.18 67.1905C275.784 69.1165 275.502 69.9985 273.648 71.8645C271.914 73.6105 267.684 75.7465 266.028 78.0325C264.372 80.3185 260.838 87.4225 258.678 91.7065C255.93 97.1485 252.918 100.244 249.366 97.2025C246.642 94.8325 243.834 92.0485 242.46 90.6325Z" fill="#FFBDA7"/>
<path d="M232.992 64.7031C236.13 64.9911 237.792 65.7051 240.924 69.8091C244.056 73.9131 251.328 84.7191 251.328 84.7191L257.61 77.0331C257.61 77.0331 261.936 80.3271 264.21 84.1791C264.21 84.1791 258.132 94.3791 255.696 96.9531C253.26 99.5271 251.376 99.7311 248.064 96.9531C244.752 94.1751 235.2 83.6391 235.2 83.6391L232.992 64.7031Z" fill="#F0F0F0"/>
<path d="M251.328 84.717C249.906 86.775 248.988 90.117 249.24 91.803C249.24 91.803 247.26 89.523 250.59 83.625L251.328 84.717Z" fill="#E0E0E0"/>
<path d="M205.308 217.747H212.442L213.864 205.117H205.308V217.747Z" fill="#FFBDA7"/>
<path d="M228.876 204.756L236.478 205.008L236.34 191.934L227.742 191.766L228.876 204.756Z" fill="#FFBDA7"/>
<path d="M205.386 116.225C205.248 123.149 203.778 168.971 203.778 168.971C203.27 172.715 202.968 176.485 202.872 180.263C202.68 189.419 204.6 211.151 204.6 211.151C205.026 213.125 212.4 213.929 213.378 212.147C213.378 212.147 217.41 180.623 218.556 171.563C219.552 163.655 222.846 137.795 222.846 137.795L225.39 163.205C225.293 166.166 225.363 169.131 225.6 172.085C225.894 176.285 228 200.999 228 200.999C228.036 202.541 235.704 203.813 237 201.545C237 201.545 239.4 165.449 239.502 161.603C239.586 157.217 238.974 115.727 238.974 115.727L205.386 116.225Z" fill="#37474F"/>
<path d="M212.85 214.114L212.97 213.04C213.366 213.04 213.54 213.484 213.702 214.432C214.038 216.454 214.675 218.414 215.592 220.246C216.792 222.736 217.512 223.774 219.9 226.774C220.464 227.488 221.742 228.622 222.192 229.414C222.642 230.206 222.792 232.414 222.036 232.924C219.252 234.778 215.022 234.832 212.028 233.956C210.893 233.68 209.869 233.065 209.093 232.193C208.317 231.32 207.826 230.231 207.684 229.072C207.198 226.348 206.94 224.662 205.554 222.604C205.044 221.848 204.222 221.236 203.88 220.396C203.28 218.878 203.754 217.174 204.15 215.662C204.492 214.36 204.864 212.926 205.308 213.046V213.85C205.842 214.45 207.708 215.05 209.388 215.098C210.468 215.14 212.862 214.942 212.85 214.114Z" fill="#263238"/>
<path d="M236.454 202.945C236.64 203.071 237.054 203.545 237.84 204.277C238.623 204.958 239.444 205.593 240.3 206.179C242.04 207.454 243.869 208.603 245.772 209.617C248.034 210.859 250.074 211.615 252.78 212.833C253.064 212.948 253.321 213.119 253.536 213.337C253.7 213.531 253.813 213.762 253.866 214.009C253.945 214.52 253.881 215.043 253.681 215.52C253.481 215.996 253.152 216.408 252.732 216.709C251.884 217.302 250.921 217.711 249.906 217.909C247.61 218.554 245.192 218.626 242.862 218.119C240.849 217.549 238.937 216.666 237.198 215.503C235.749 214.476 234.099 213.766 232.356 213.421C230.838 213.205 228.972 213.277 227.652 212.371C226.194 211.363 226.776 209.209 227.19 207.355C227.64 205.339 227.742 202.255 228.66 202.321L228.732 203.131C228.816 204.001 230.928 204.403 232.56 204.403C233.916 204.403 236.478 204.049 236.466 203.413L236.454 202.945Z" fill="#263238"/>
<path d="M223.626 128.098C226.536 126.971 229.189 125.269 231.426 123.094C231.426 123.094 230.184 126.694 225.09 129.694L225.426 161.314L222.858 137.782L223.626 128.098Z" fill="#263238"/>
<path d="M216.882 63.9246C215.592 64.2306 211.482 65.3406 208.146 66.5166C206.464 67.1588 205.005 68.2761 203.946 69.7326C201.546 73.2666 203.706 81.1326 205.488 95.9166C205.356 105.469 205.08 117.349 205.08 117.349C209.472 120.547 229.962 122.719 239.208 115.969C239.208 115.969 239.514 80.1186 238.902 75.4566C237.702 66.5286 234.24 64.1466 227.028 63.7266L216.882 63.9246Z" fill="#0071CE"/>
<path opacity="0.6" d="M216.882 63.9246C215.592 64.2306 211.482 65.3406 208.146 66.5166C206.464 67.1588 205.005 68.2761 203.946 69.7326C201.546 73.2666 203.706 81.1326 205.488 95.9166C205.356 105.469 205.08 117.349 205.08 117.349C209.472 120.547 229.962 122.719 239.208 115.969C239.208 115.969 239.514 80.1186 238.902 75.4566C237.702 66.5286 234.24 64.1466 227.028 63.7266L216.882 63.9246Z" fill="white"/>
<path d="M229.476 74.4022C230.124 76.6342 233.958 92.3182 233.418 97.8382C233.007 100.671 232.241 103.441 231.138 106.082C229.476 110.012 228.366 106.496 227.442 104.174C226.661 102.009 226.137 99.7597 225.882 97.4722C225.576 94.5082 226.77 85.5022 226.308 74.9422C226.657 74.4508 227.187 74.118 227.781 74.0167C228.375 73.9155 228.985 74.0541 229.476 74.4022Z" fill="#0071CE"/>
<path opacity="0.2" d="M229.476 74.4022C230.124 76.6342 233.958 92.3182 233.418 97.8382C233.007 100.671 232.241 103.441 231.138 106.082C229.476 110.012 228.366 106.496 227.442 104.174C226.661 102.009 226.137 99.7597 225.882 97.4722C225.576 94.5082 226.77 85.5022 226.308 74.9422C226.657 74.4508 227.187 74.118 227.781 74.0167C228.375 73.9155 228.985 74.0541 229.476 74.4022Z" fill="black"/>
<path d="M229.62 69.366C231.138 70.662 229.476 74.4 229.476 74.4C228.39 74.1659 227.256 74.3593 226.308 74.94C226.308 74.94 223.308 73.65 223.278 71.406C223.278 69.366 225.444 70.02 226.986 69.75C228.6 69.468 229.44 68.274 229.62 69.366Z" fill="#0071CE"/>
<path opacity="0.2" d="M229.62 69.366C231.138 70.662 229.476 74.4 229.476 74.4C228.39 74.1659 227.256 74.3593 226.308 74.94C226.308 74.94 223.308 73.65 223.278 71.406C223.278 69.366 225.444 70.02 226.986 69.75C228.6 69.468 229.44 68.274 229.62 69.366Z" fill="black"/>
<path opacity="0.2" d="M229.476 74.4007C229.23 73.5247 228.036 73.6087 227.076 73.3087C226.538 73.0953 226.087 72.7062 225.798 72.2047C225.306 71.3587 225.798 69.9547 226.482 69.8047C225.012 69.9067 223.266 69.5707 223.272 71.4007C223.272 73.6447 226.302 74.9347 226.302 74.9347C227.252 74.3545 228.389 74.1632 229.476 74.4007Z" fill="black"/>
<path d="M219.042 43.2041C219.095 45.0478 219.693 46.8346 220.76 48.339C221.827 49.8433 223.316 50.998 225.038 51.6571C226.761 52.3162 228.64 52.4503 230.439 52.0425C232.238 51.6346 233.875 50.7031 235.145 49.3655C236.415 48.0279 237.26 46.3441 237.574 44.5266C237.888 42.709 237.657 40.8393 236.909 39.1532C236.162 37.4671 234.931 36.0402 233.373 35.0526C231.816 34.065 230 33.561 228.156 33.6041C226.927 33.6329 225.715 33.9044 224.59 34.403C223.466 34.9016 222.451 35.6175 221.604 36.5096C220.757 37.4017 220.095 38.4524 219.655 39.6012C219.215 40.7501 219.007 41.9745 219.042 43.2041Z" fill="#455A64"/>
<path d="M212.4 49.9844C212.4 49.9844 214.086 57.0524 214.716 58.2044C215.134 58.914 215.809 59.436 216.6 59.6624L216.378 54.6644L212.4 49.9844Z" fill="#455A64"/>
<path d="M214.056 39.7555C213.529 39.7094 212.997 39.7837 212.503 39.9729C212.008 40.162 211.563 40.4611 211.2 40.8475C210 42.1495 210.774 46.1155 212.4 49.9855L215.256 50.2435L214.056 39.7555Z" fill="#455A64"/>
<path d="M216.114 50.2246C215.55 50.5786 214.71 49.4986 213.984 48.7786C213.258 48.0586 210.942 47.1106 209.85 49.5526C208.758 51.9946 211.002 55.2466 212.85 55.7746C215.994 56.6806 216.414 54.6646 216.414 54.6646L216.948 67.4086C219.174 70.1266 224.412 70.2766 227.01 69.7486C229.086 69.3286 229.116 67.8586 227.07 65.6026L226.974 61.9486C228.366 62.139 229.774 62.1793 231.174 62.0686C233.46 61.6546 234.87 59.8126 235.5 57.3106C236.46 53.4886 236.7 49.2226 235.734 42.2386C234.534 33.6526 224.484 33.8386 219.162 37.3366C213.84 40.8346 216.114 50.2246 216.114 50.2246Z" fill="#FFBDA7"/>
<path d="M216.138 51.1836C215.85 51.1836 214.71 49.3836 213.984 48.7836C212.982 47.9136 214.056 39.7836 214.056 39.7836C213.703 39.0751 213.571 38.2766 213.678 37.4921C213.785 36.7077 214.126 35.9737 214.656 35.3856C215.97 33.8676 217.806 32.0076 223.95 32.5836C228.33 32.9976 233.118 34.2456 236.91 32.2656C237.296 33.5098 237.302 34.8409 236.927 36.0884C236.552 37.3359 235.813 38.443 234.804 39.2676C234.804 39.2676 233.43 40.1976 229.788 40.7256C226.146 41.2536 220.434 40.8636 219.654 40.7796C218.592 40.6596 218.388 41.6916 217.884 44.5116C217.416 46.9596 217.104 51.1416 216.138 51.1836Z" fill="#455A64"/>
<path d="M214.08 40.3904L210.576 38.5904C210.681 38.3547 210.833 38.1428 211.022 37.9676C211.211 37.7923 211.434 37.6573 211.677 37.5709C211.92 37.4845 212.178 37.4484 212.435 37.4648C212.693 37.4812 212.944 37.5498 213.174 37.6664C213.649 37.9141 214.009 38.3368 214.178 38.8451C214.347 39.3535 214.312 39.9076 214.08 40.3904Z" fill="#455A64"/>
<path d="M226.95 61.95C226.95 61.95 221.802 61.044 219.99 60.15C218.923 59.6246 218.04 58.7877 217.458 57.75C217.754 58.7913 218.256 59.7625 218.934 60.606C220.284 62.25 226.986 63.426 226.986 63.426L226.95 61.95Z" fill="#F0997A"/>
<path d="M225.228 48.9669C225.209 49.1669 225.132 49.3569 225.006 49.5134C224.88 49.6698 224.711 49.7858 224.519 49.847C224.328 49.9082 224.123 49.9119 223.929 49.8576C223.736 49.8033 223.563 49.6934 223.431 49.5416C223.3 49.3897 223.216 49.2026 223.189 49.0034C223.163 48.8043 223.196 48.6018 223.284 48.4211C223.372 48.2405 223.511 48.0896 223.684 47.9871C223.856 47.8847 224.055 47.8353 224.256 47.8449C224.534 47.8649 224.792 47.9943 224.974 48.2047C225.157 48.4151 225.248 48.6893 225.228 48.9669Z" fill="#263238"/>
<path d="M224.562 45.105L222.306 46.203C222.164 45.8941 222.147 45.5421 222.259 45.221C222.371 44.8999 222.603 44.6346 222.906 44.481C223.055 44.4058 223.217 44.3623 223.383 44.3533C223.549 44.3443 223.716 44.37 223.871 44.4286C224.027 44.4873 224.169 44.5778 224.288 44.6942C224.407 44.8106 224.5 44.9505 224.562 45.105Z" fill="#263238"/>
<path d="M225.816 55.8828L229.02 56.7588C228.97 56.9705 228.877 57.1701 228.749 57.3456C228.62 57.5211 228.458 57.6692 228.271 57.781C228.084 57.8928 227.877 57.9661 227.662 57.9967C227.446 58.0272 227.227 58.0143 227.016 57.9588C226.589 57.8314 226.227 57.5454 226.003 57.1594C225.78 56.7734 225.713 56.3166 225.816 55.8828Z" fill="#F0997A"/>
<path d="M235.2 46.0597L232.8 45.2377C232.842 45.0766 232.916 44.9258 233.019 44.795C233.121 44.6642 233.25 44.5561 233.397 44.4777C233.544 44.3993 233.705 44.3522 233.871 44.3395C234.037 44.3267 234.203 44.3486 234.36 44.4037C234.689 44.5148 234.961 44.7505 235.119 45.0602C235.276 45.3698 235.305 45.7287 235.2 46.0597Z" fill="#263238"/>
<path d="M234 48.6791C234.015 48.8155 234.003 48.9534 233.965 49.0851C233.927 49.2168 233.863 49.3396 233.777 49.4466C233.691 49.5536 233.585 49.6426 233.465 49.7086C233.345 49.7745 233.212 49.8162 233.076 49.8311C232.799 49.8493 232.526 49.7575 232.316 49.5756C232.106 49.3936 231.976 49.1362 231.954 48.8591C231.942 48.7248 231.957 48.5894 231.998 48.4608C232.038 48.3322 232.103 48.2128 232.19 48.1094C232.277 48.0061 232.383 47.9208 232.503 47.8585C232.622 47.7961 232.753 47.758 232.887 47.7461C233.021 47.7343 233.157 47.7491 233.285 47.7896C233.414 47.8301 233.534 47.8955 233.637 47.9821C233.74 48.0688 233.826 48.1749 233.888 48.2945C233.95 48.4141 233.988 48.5448 234 48.6791Z" fill="#263238"/>
<path d="M228.462 48.1016L228.834 54.2756L232.05 53.1596L228.462 48.1016Z" fill="#F0997A"/>
<path d="M226.986 69.7499C224.136 69.1499 217.386 66.5159 216.75 63.2219L216.666 61.4219C215.556 61.4219 215.052 62.6519 214.506 64.4219C214.278 69.0779 219.192 73.3319 224.106 74.4779C224.271 73.3983 224.64 72.3599 225.192 71.4179C225.611 70.696 226.236 70.1153 226.986 69.7499Z" fill="#0071CE"/>
<path d="M226.962 62.4062C227.715 62.6369 228.399 63.049 228.954 63.6062C232.644 67.4282 230.538 72.4383 230.538 72.4383C230.348 71.6051 229.872 70.8646 229.194 70.3443C228.546 69.9037 227.769 69.6925 226.986 69.7443C227.892 68.7783 227.538 67.0922 227.046 65.5982L226.962 62.4062Z" fill="#0071CE"/>
<path d="M237.69 45.8953L237.192 45.8473C235.526 45.6447 233.839 45.6973 232.188 46.0033C230.58 46.4413 229.998 46.9273 229.116 46.9393C228.234 46.9513 227.592 46.4533 225.912 46.0213C224.149 45.7254 222.353 45.683 220.578 45.8953L220.038 45.9553L212.4 48.0073C213.057 48.1109 213.661 48.4296 214.116 48.9133L219.684 47.4073C219.762 47.5153 219.84 47.6113 219.894 47.6773C219.971 47.7901 220.026 47.9163 220.056 48.0493C220.163 48.9129 220.35 49.7646 220.614 50.5933C220.771 50.9353 220.991 51.2447 221.262 51.5053C221.366 51.605 221.479 51.6954 221.598 51.7753L221.796 51.8953C221.988 51.9987 222.189 52.0831 222.396 52.1473L222.498 52.1773L222.654 52.2193L222.822 52.2553C222.997 52.2902 223.173 52.3142 223.35 52.3273H223.572H223.854C226.05 52.3273 226.998 51.3913 227.58 50.4253C228.162 49.4593 228.072 48.0973 229.08 48.0973H229.176H229.266C230.01 48.2473 229.866 49.5013 230.31 50.3953C230.478 50.772 230.711 51.1154 231 51.4093L231.162 51.5593L231.252 51.6313L231.348 51.7033L231.432 51.7573L231.522 51.8173L231.594 51.8593H231.648C231.92 52.0038 232.211 52.1089 232.512 52.1713H232.59C232.94 52.2398 233.296 52.272 233.652 52.2673C235.704 52.2673 236.454 51.1693 236.814 50.4673C237.129 49.6402 237.37 48.7869 237.534 47.9173C237.573 47.7898 237.643 47.6741 237.738 47.5813C237.995 47.3264 238.168 47.0003 238.236 46.6453C238.242 46.4774 238.191 46.3126 238.092 46.1767C237.993 46.0409 237.852 45.9419 237.69 45.8953ZM227.034 49.5313C226.886 50.048 226.598 50.5133 226.2 50.8753C225.53 51.4324 224.67 51.7095 223.8 51.6493C223.373 51.6802 222.945 51.6081 222.551 51.4389C222.157 51.2698 221.81 51.0086 221.538 50.6773L221.466 50.5813C221.444 50.5507 221.424 50.5186 221.406 50.4853C221.384 50.4581 221.366 50.4278 221.352 50.3953L221.304 50.3173L221.274 50.2513C221.274 50.2513 221.274 50.2093 221.244 50.1913C221.214 50.1733 221.214 50.1313 221.202 50.0953C221.16 49.9993 221.13 49.9033 221.1 49.8133C221.1 49.7533 221.064 49.6993 221.052 49.6453C221.04 49.5913 221.004 49.4533 220.986 49.3693C220.968 49.2853 220.986 49.3393 220.986 49.3213V49.2673C220.842 48.5953 220.692 47.2753 221.082 46.9753C221.472 46.6753 222.48 46.3753 224.082 46.4953H224.256C224.504 46.5182 224.751 46.5563 224.994 46.6093L225.282 46.6693C225.526 46.727 225.766 46.797 226.002 46.8793L226.218 46.9633L226.458 47.0653H226.506L226.59 47.1133C226.771 47.1944 226.933 47.313 227.064 47.4613C227.4 47.9053 227.244 48.7813 227.034 49.5313ZM236.568 49.2073C236.483 49.6693 236.291 50.1051 236.009 50.4809C235.727 50.8566 235.362 51.162 234.942 51.3733C234.562 51.5316 234.154 51.6132 233.742 51.6133C233.29 51.6636 232.833 51.598 232.413 51.4227C231.993 51.2474 231.625 50.9682 231.342 50.6113C231.326 50.5928 231.312 50.5727 231.3 50.5513C231.282 50.5288 231.266 50.5047 231.252 50.4793V50.4433L231.192 50.3353L231.132 50.2093C231.131 50.1893 231.131 50.1693 231.132 50.1493V50.0953C231.129 50.0816 231.129 50.0671 231.132 50.0533C231.069 49.8928 231.022 49.7258 230.994 49.5553C230.85 48.8053 230.796 47.9293 231.12 47.5153C231.444 47.1013 232.662 46.6453 233.826 46.5133C234.096 46.5133 234.348 46.4653 234.576 46.4593H235.242H235.44C235.567 46.4702 235.694 46.4882 235.818 46.5133H235.902H235.962H236.052L236.16 46.5433L236.334 46.6093C236.477 46.6624 236.611 46.7373 236.73 46.8313C237 47.2153 236.748 48.5413 236.568 49.2073Z" fill="#37474F"/>
<path d="M216.762 63.4141C216.762 63.4141 218.934 74.3161 219.87 81.6901C220.806 89.0641 220.632 109.89 220.128 123.09C219.768 132.69 218.328 150.498 218.328 150.498C218.328 150.498 215.928 150.978 210.222 150.03C205.338 149.226 202.866 147.78 201.822 147.15C201.822 147.15 202.728 120.108 203.418 110.664C204.048 101.958 204.018 97.1701 204.018 97.1701L201.966 77.2921C201.966 77.2921 202.122 64.8001 205.998 64.2721C210 63.7261 216.762 63.4141 216.762 63.4141Z" fill="#FAFAFA"/>
<path d="M213.054 81.2956C213.054 80.8396 213.006 79.8556 212.928 78.6076C212.544 72.5176 213.102 63.7036 215.154 63.2656L215.34 64.1056C213.834 64.4296 213.6 75.5956 213.786 78.5536C213.87 79.8256 213.93 80.8276 213.912 81.3316L213.054 81.2956Z" fill="#0071CE"/>
<path d="M205.26 128.329C204.27 126.643 204.216 125.383 202.722 123.877C202.082 123.258 201.617 122.482 201.372 121.627C200.916 120.277 200.94 118.867 200.832 117.391L192.162 117.793C192.235 121.018 192.592 124.23 193.23 127.393C194.874 134.635 196.464 137.683 199.578 138.385C204.546 139.507 205.77 137.365 204.024 133.783C203.274 132.289 202.737 130.697 202.428 129.055C202.966 129.689 203.59 130.244 204.282 130.705C204.635 130.968 205.074 131.088 205.512 131.04C205.949 130.992 206.353 130.78 206.64 130.447C206.856 130.129 206.04 129.655 205.26 128.329Z" fill="#FFBDA7"/>
<path d="M207.6 64.2736C207.6 64.2736 202.986 64.2076 200.4 66.5356C197.814 68.8636 196.44 75.0916 194.766 81.3376C193.092 87.5836 191.604 93.6436 191.166 97.9876C190.794 101.588 192.006 120.704 192.006 120.704C192.006 120.704 197.28 121.814 201.336 119.588L201.51 98.3776L208.2 77.1136C209.422 72.8846 209.211 68.3703 207.6 64.2736Z" fill="#F0F0F0"/>
<path d="M216.6 59.8625C216 59.7365 215.442 60.0545 214.95 60.8945C214.458 61.7345 213.372 63.4985 213.372 63.4985C213.372 63.4985 212.814 69.3545 213.372 70.8125C213.858 72.0725 217.08 78.0125 217.08 78.0125C217.08 78.0125 216.87 83.7965 216.816 85.5245C216.762 87.2525 220.11 94.4645 220.488 97.8125C220.488 97.8125 220.656 84.1985 220.158 80.4125C219.294 73.8125 218.214 65.9525 216.756 63.2525L216.6 59.8625Z" fill="#EBEBEB"/>
<path d="M211.8 101.502H211.728V100.902C212.44 100.847 213.121 100.593 213.696 100.17C213.08 99.76 212.528 99.2605 212.058 98.6882C211.092 97.4342 208.974 88.4882 209.622 86.4062C210.174 84.6602 211.89 80.8082 213.414 80.7422H213.456C214.98 80.7422 216.99 84.3842 217.656 86.0642C218.484 88.0862 217.134 97.1762 216.276 98.5082C215.858 99.1188 215.35 99.6629 214.77 100.122C215.376 100.499 216.078 100.695 216.792 100.686L216.87 101.286C215.937 101.3 215.021 101.032 214.242 100.518C213.536 101.067 212.69 101.408 211.8 101.502ZM213.486 81.3362C212.586 81.3722 210.978 84.2342 210.24 86.5742C209.64 88.4882 211.68 97.1462 212.574 98.3042C213.057 98.8838 213.628 99.3839 214.266 99.7862C214.871 99.3335 215.4 98.7865 215.832 98.1662C216.624 96.9362 217.92 88.1402 217.158 86.2802C216.234 84.0062 214.41 81.3362 213.504 81.3362H213.486Z" fill="#455A64"/>
<path d="M217.8 100.941C217.806 101.056 217.788 101.172 217.749 101.28C217.71 101.389 217.649 101.489 217.571 101.575C217.493 101.66 217.399 101.729 217.294 101.778C217.189 101.826 217.076 101.854 216.96 101.859C216.844 101.864 216.728 101.846 216.619 101.806C216.51 101.767 216.41 101.706 216.325 101.628C216.239 101.549 216.17 101.455 216.121 101.35C216.072 101.245 216.044 101.131 216.039 101.016C216.034 100.9 216.052 100.784 216.091 100.675C216.131 100.566 216.191 100.466 216.27 100.38C216.348 100.295 216.442 100.226 216.547 100.177C216.652 100.128 216.766 100.1 216.882 100.095C216.998 100.09 217.113 100.108 217.222 100.148C217.331 100.188 217.431 100.249 217.516 100.327C217.602 100.406 217.671 100.5 217.719 100.606C217.768 100.711 217.795 100.825 217.8 100.941Z" fill="#263238"/>
<path d="M212.64 101.156C212.645 101.272 212.627 101.388 212.587 101.497C212.547 101.606 212.486 101.706 212.408 101.791C212.329 101.876 212.235 101.945 212.129 101.994C212.024 102.042 211.91 102.07 211.794 102.074C211.679 102.08 211.563 102.063 211.454 102.023C211.346 101.984 211.246 101.924 211.16 101.846C211.075 101.768 211.006 101.673 210.957 101.568C210.908 101.463 210.881 101.35 210.876 101.234C210.871 101.119 210.889 101.003 210.929 100.894C210.968 100.785 211.029 100.685 211.107 100.599C211.185 100.514 211.28 100.444 211.385 100.395C211.49 100.346 211.604 100.318 211.719 100.313C211.835 100.308 211.951 100.326 212.06 100.366C212.169 100.405 212.269 100.466 212.354 100.544C212.44 100.622 212.509 100.717 212.558 100.822C212.607 100.927 212.635 101.041 212.64 101.156Z" fill="#263238"/>
<path d="M217.866 90.001L217.362 89.965C217.336 89.9635 217.311 89.9568 217.287 89.9454C217.264 89.934 217.243 89.9181 217.225 89.8986C217.208 89.8791 217.195 89.8564 217.186 89.8317C217.178 89.8071 217.174 89.781 217.176 89.755C217.278 88.075 217.224 86.839 217.02 86.347C216.132 84.175 214.29 81.457 213.492 81.493C212.694 81.529 211.092 84.391 210.384 86.629C210.234 87.7642 210.278 88.9168 210.516 90.037C210.525 90.0887 210.513 90.1417 210.482 90.1845C210.452 90.2272 210.406 90.2562 210.354 90.265L209.85 90.343C209.824 90.3463 209.798 90.3445 209.772 90.3375C209.747 90.3305 209.723 90.3186 209.703 90.3024C209.682 90.2862 209.665 90.2661 209.652 90.2432C209.639 90.2203 209.631 90.1951 209.628 90.169C209.352 88.303 209.316 87.019 209.526 86.359C209.898 85.159 211.668 80.665 213.45 80.587C215.232 80.509 217.38 84.841 217.854 85.987C218.118 86.629 218.196 87.907 218.076 89.791C218.078 89.819 218.074 89.8471 218.064 89.8734C218.054 89.8996 218.038 89.9235 218.018 89.9434C217.999 89.9632 217.975 89.9786 217.948 89.9886C217.922 89.9985 217.894 90.0027 217.866 90.001Z" fill="#0071CE"/>
<path d="M226.95 61.9453C227.742 62.0173 228.432 63.1873 230.256 63.7453C233.664 64.7533 236.76 66.3013 237.714 68.3953C239.298 71.8633 239.556 72.5473 240.114 87.9913C240.672 103.435 240.87 147.391 240.87 147.391C239.234 148.131 237.451 148.49 235.656 148.441C235.656 148.441 235.794 99.9013 235.47 88.9873C235.146 78.0733 233.49 72.7453 231.126 69.1453C230.46 66.1453 228.336 64.1413 226.926 62.6773L226.95 61.9453Z" fill="#FAFAFA"/>
<path d="M231.138 69.1597C233.502 72.7597 235.152 78.0817 235.482 89.0017C235.518 90.2977 235.554 92.1217 235.584 94.3117C235.584 94.3117 237.528 84.4237 237.186 82.3117C236.844 80.1997 234.564 75.8557 234.564 75.8557C234.858 72.2557 234.018 68.1397 232.632 65.6557C232.31 65.0768 231.906 64.5474 231.432 64.0837C230.972 63.7102 230.48 63.377 229.962 63.0877C229.075 62.4567 228.044 62.0585 226.962 61.9297V62.6737C228.348 64.1557 230.472 66.1477 231.138 69.1597Z" fill="#EBEBEB"/>
<path d="M159.744 64.1972C164.274 64.1252 166.71 66.1592 170.034 71.3972C172.872 75.8492 179.442 86.5112 181.29 89.7211C183.378 93.3211 183.69 94.8211 182.034 97.5211C180.48 100.101 165.744 117.117 165.744 117.117L161.946 110.373L171.414 94.5452L160.314 78.1472L159.744 64.1972Z" fill="#B16668"/>
<path d="M159.45 63.9794C162.726 63.8054 164.766 64.4834 166.74 66.3794C168.714 68.2754 178.884 85.3514 178.884 85.3514C178.884 85.3514 177.42 88.8494 168.84 93.4214L160.44 82.0214L159.45 63.9794Z" fill="#0071CE"/>
<path opacity="0.2" d="M159.45 63.9794C162.726 63.8054 164.766 64.4834 166.74 66.3794C168.714 68.2754 178.884 85.3514 178.884 85.3514C178.884 85.3514 177.42 88.8494 168.84 93.4214L160.44 82.0214L159.45 63.9794Z" fill="black"/>
<path d="M181.95 220.726C182.106 220.726 182.346 222.49 181.482 223.234C180.48 224.098 177.54 225.52 173.652 225.034C169.764 224.548 167.652 223.33 166.11 222.034C164.568 220.738 162.372 218.896 160.614 218.506C158.982 218.146 157.212 217.408 156.69 216.904C156.168 216.4 156.24 214.156 156.24 214.156L181.95 220.726Z" fill="#455A64"/>
<path d="M157.8 205.492C157.653 205.491 157.511 205.543 157.401 205.64C157.29 205.736 157.219 205.869 157.2 206.014C157.08 206.614 156.954 208.414 156.696 209.446C156.291 211.234 156.161 213.073 156.312 214.9C156.528 216.046 159.186 216.844 160.89 217.492C162.889 218.371 164.746 219.544 166.398 220.972C168.198 222.478 172.068 224.044 174.6 224.026C177.6 224.026 180.966 223.036 181.74 221.626C182.7 219.904 181.95 218.908 177.504 216.826C176.664 216.436 173.712 214.684 172.704 214.054C169.98 212.338 167.304 209.95 166.026 206.914C165.926 206.542 165.701 206.216 165.39 205.99C165.117 205.874 164.815 205.847 164.526 205.912C163.785 206.017 163.065 206.233 162.39 206.554C161.79 206.842 160.944 207.154 160.956 207.934C160.973 208.199 161.03 208.46 161.124 208.708C161.178 208.864 161.22 209.074 161.082 209.164C160.944 209.254 160.782 209.164 160.668 209.05C160.231 208.602 159.83 208.121 159.468 207.61C159.262 207.346 159.026 207.107 158.766 206.896C158.503 206.746 158.249 206.582 158.004 206.404C157.734 206.182 157.8 205.846 157.8 205.492Z" fill="#0071CE"/>
<path opacity="0.9" d="M157.8 205.492C157.653 205.491 157.511 205.543 157.401 205.64C157.29 205.736 157.219 205.869 157.2 206.014C157.08 206.614 156.954 208.414 156.696 209.446C156.291 211.234 156.161 213.073 156.312 214.9C156.528 216.046 159.186 216.844 160.89 217.492C162.889 218.371 164.746 219.544 166.398 220.972C168.198 222.478 172.068 224.044 174.6 224.026C177.6 224.026 180.966 223.036 181.74 221.626C182.7 219.904 181.95 218.908 177.504 216.826C176.664 216.436 173.712 214.684 172.704 214.054C169.98 212.338 167.304 209.95 166.026 206.914C165.926 206.542 165.701 206.216 165.39 205.99C165.117 205.874 164.815 205.847 164.526 205.912C163.785 206.017 163.065 206.233 162.39 206.554C161.79 206.842 160.944 207.154 160.956 207.934C160.973 208.199 161.03 208.46 161.124 208.708C161.178 208.864 161.22 209.074 161.082 209.164C160.944 209.254 160.782 209.164 160.668 209.05C160.231 208.602 159.83 208.121 159.468 207.61C159.262 207.346 159.026 207.107 158.766 206.896C158.503 206.746 158.249 206.582 158.004 206.404C157.734 206.182 157.8 205.846 157.8 205.492Z" fill="white"/>
<path d="M166.398 220.977C165.624 220.341 164.802 219.723 163.998 219.177C163.998 219.177 169.224 222.357 171.336 220.911C172.698 219.987 172.05 218.853 172.014 218.511C171.978 218.169 175.338 216.609 176.658 216.453C177.03 216.657 177.336 216.819 177.528 216.909C181.974 218.967 182.724 219.963 181.764 221.709C180.99 223.095 178.548 224.181 174.678 224.181C172.116 224.127 168.222 222.483 166.398 220.977Z" fill="#0071CE"/>
<path opacity="0.8" d="M166.398 220.977C165.624 220.341 164.802 219.723 163.998 219.177C163.998 219.177 169.224 222.357 171.336 220.911C172.698 219.987 172.05 218.853 172.014 218.511C171.978 218.169 175.338 216.609 176.658 216.453C177.03 216.657 177.336 216.819 177.528 216.909C181.974 218.967 182.724 219.963 181.764 221.709C180.99 223.095 178.548 224.181 174.678 224.181C172.116 224.127 168.222 222.483 166.398 220.977Z" fill="white"/>
<path d="M171.6 217.426C174.366 218.53 173.184 219.046 172.416 219.16C171.648 219.274 167.016 216.55 164.154 214.306C161.196 211.966 159.354 209.41 158.232 208.552C157.824 208.228 157.38 207.838 156.99 207.466C157.062 206.866 157.122 206.308 157.176 206.014C157.195 205.869 157.266 205.736 157.377 205.64C157.487 205.543 157.629 205.491 157.776 205.492C157.776 205.846 157.722 206.182 157.992 206.452C158.237 206.63 158.491 206.794 158.754 206.944C159.014 207.155 159.25 207.394 159.456 207.658C159.818 208.169 160.219 208.65 160.656 209.098C163.08 212.158 168.864 216.322 171.6 217.426Z" fill="#0071CE"/>
<path d="M172.242 218.755C172.19 218.756 172.139 218.742 172.095 218.715C172.051 218.687 172.016 218.648 171.994 218.601C171.972 218.554 171.964 218.502 171.971 218.451C171.977 218.399 171.998 218.351 172.032 218.311C172.683 217.636 173.471 217.108 174.344 216.763C175.216 216.418 176.153 216.265 177.09 216.313C177.157 216.328 177.216 216.366 177.256 216.422C177.296 216.477 177.314 216.546 177.307 216.614C177.3 216.682 177.267 216.745 177.216 216.79C177.165 216.835 177.098 216.86 177.03 216.859C176.184 216.825 175.339 216.967 174.551 217.277C173.763 217.587 173.048 218.058 172.452 218.659C172.426 218.69 172.394 218.714 172.357 218.73C172.321 218.747 172.282 218.756 172.242 218.755Z" fill="#FAFAFA"/>
<path d="M169.83 217.27C169.766 217.268 169.705 217.245 169.656 217.204C169.601 217.158 169.567 217.091 169.56 217.02C169.553 216.948 169.575 216.876 169.62 216.82C170.273 216.148 171.062 215.623 171.934 215.279C172.807 214.936 173.742 214.782 174.678 214.828C174.714 214.831 174.749 214.842 174.781 214.858C174.813 214.875 174.842 214.898 174.865 214.926C174.887 214.954 174.905 214.987 174.915 215.021C174.925 215.056 174.928 215.092 174.924 215.128C174.92 215.164 174.91 215.198 174.892 215.23C174.875 215.261 174.852 215.289 174.824 215.311C174.796 215.333 174.764 215.35 174.73 215.36C174.695 215.37 174.659 215.373 174.624 215.368C173.777 215.335 172.932 215.477 172.143 215.787C171.354 216.097 170.638 216.567 170.04 217.168C170.015 217.2 169.983 217.226 169.947 217.244C169.91 217.262 169.87 217.271 169.83 217.27Z" fill="#FAFAFA"/>
<path d="M167.4 215.865C167.338 215.864 167.278 215.841 167.232 215.799C167.204 215.777 167.18 215.749 167.162 215.718C167.145 215.686 167.134 215.652 167.13 215.616C167.126 215.58 167.129 215.544 167.14 215.51C167.15 215.475 167.167 215.443 167.19 215.415C167.842 214.74 168.632 214.213 169.506 213.87C170.379 213.526 171.316 213.374 172.254 213.423C172.325 213.431 172.391 213.467 172.436 213.523C172.481 213.58 172.502 213.652 172.494 213.723C172.486 213.795 172.45 213.86 172.394 213.905C172.337 213.95 172.265 213.971 172.194 213.963C171.348 213.928 170.503 214.07 169.715 214.38C168.927 214.69 168.212 215.161 167.616 215.763C167.59 215.795 167.557 215.821 167.519 215.839C167.482 215.856 167.441 215.865 167.4 215.865Z" fill="#FAFAFA"/>
<path d="M165.186 214.262C165.123 214.263 165.061 214.242 165.012 214.202C164.957 214.156 164.922 214.089 164.916 214.018C164.909 213.946 164.931 213.874 164.976 213.818C165.629 213.145 166.417 212.619 167.29 212.274C168.162 211.93 169.097 211.775 170.034 211.82C170.073 211.82 170.111 211.828 170.147 211.843C170.182 211.858 170.214 211.881 170.241 211.91C170.267 211.938 170.287 211.972 170.299 212.009C170.311 212.046 170.316 212.085 170.312 212.123C170.308 212.162 170.296 212.199 170.277 212.233C170.258 212.267 170.231 212.296 170.2 212.319C170.169 212.342 170.133 212.358 170.095 212.366C170.057 212.374 170.018 212.374 169.98 212.366C169.133 212.33 168.287 212.472 167.498 212.782C166.708 213.092 165.992 213.563 165.396 214.166C165.371 214.197 165.339 214.222 165.302 214.239C165.266 214.256 165.226 214.264 165.186 214.262Z" fill="#FAFAFA"/>
<path d="M162.996 212.656C162.935 212.655 162.876 212.634 162.828 212.596C162.8 212.574 162.776 212.546 162.759 212.515C162.741 212.483 162.73 212.449 162.726 212.413C162.722 212.377 162.726 212.341 162.736 212.307C162.746 212.272 162.763 212.24 162.786 212.212C163.854 210.856 166.278 209.968 168.312 210.19C168.348 210.194 168.382 210.205 168.413 210.222C168.444 210.239 168.472 210.263 168.494 210.291C168.516 210.318 168.533 210.35 168.543 210.385C168.553 210.419 168.556 210.455 168.552 210.49C168.548 210.526 168.537 210.56 168.52 210.591C168.503 210.623 168.48 210.65 168.452 210.672C168.424 210.695 168.392 210.711 168.358 210.721C168.323 210.731 168.288 210.734 168.252 210.73C166.422 210.532 164.166 211.33 163.212 212.53C163.189 212.567 163.157 212.597 163.119 212.619C163.082 212.641 163.039 212.654 162.996 212.656Z" fill="#FAFAFA"/>
<path d="M139.926 227.576C140.04 230.216 139.806 231.998 139.032 233.636C138.258 235.274 136.542 235.928 134.718 235.658C132.894 235.388 130.488 234.409 129.75 232.195C129.012 229.981 128.958 228.416 129.12 225.938L139.926 227.576Z" fill="#455A64"/>
<path d="M130.932 209.266C130.2 209.398 130.332 212.95 130.272 216.52C130.2 220.354 129.228 222.034 129.132 225.178C129.03 228.778 129.372 230.332 130.83 232.378C132.288 234.424 136.896 236.056 138.756 232.768C140.274 230.086 140.064 227.302 139.548 223.768C139.014 220.126 138.612 217.564 138.48 214.768C138.354 212.098 138.282 209.506 137.616 209.272C137.616 209.668 137.616 210.166 137.616 210.556C137.616 210.856 137.676 212.302 137.268 212.356C137.202 212.026 137.166 211.69 137.16 211.354C137.173 211.049 137.07 210.751 136.872 210.52C136.627 210.335 136.327 210.235 136.02 210.238C135.285 210.159 134.545 210.119 133.806 210.118C133.434 210.118 133.068 210.118 132.702 210.184C132.386 210.211 132.076 210.288 131.784 210.412C131.699 210.448 131.622 210.502 131.56 210.57C131.498 210.638 131.452 210.719 131.424 210.808C131.4 210.943 131.4 211.081 131.424 211.216C131.454 211.461 131.454 211.709 131.424 211.954C131.424 212.062 131.352 212.2 131.244 212.182C131.136 212.164 131.112 212.068 131.1 211.978C131.058 211.552 131.1 211.234 131.046 210.736C131.046 210.508 131.046 210.19 131.046 209.956C131.046 209.722 130.938 209.494 130.932 209.266Z" fill="#0071CE"/>
<path opacity="0.9" d="M130.932 209.266C130.2 209.398 130.332 212.95 130.272 216.52C130.2 220.354 129.228 222.034 129.132 225.178C129.03 228.778 129.372 230.332 130.83 232.378C132.288 234.424 136.896 236.056 138.756 232.768C140.274 230.086 140.064 227.302 139.548 223.768C139.014 220.126 138.612 217.564 138.48 214.768C138.354 212.098 138.282 209.506 137.616 209.272C137.616 209.668 137.616 210.166 137.616 210.556C137.616 210.856 137.676 212.302 137.268 212.356C137.202 212.026 137.166 211.69 137.16 211.354C137.173 211.049 137.07 210.751 136.872 210.52C136.627 210.335 136.327 210.235 136.02 210.238C135.285 210.159 134.545 210.119 133.806 210.118C133.434 210.118 133.068 210.118 132.702 210.184C132.386 210.211 132.076 210.288 131.784 210.412C131.699 210.448 131.622 210.502 131.56 210.57C131.498 210.638 131.452 210.719 131.424 210.808C131.4 210.943 131.4 211.081 131.424 211.216C131.454 211.461 131.454 211.709 131.424 211.954C131.424 212.062 131.352 212.2 131.244 212.182C131.136 212.164 131.112 212.068 131.1 211.978C131.058 211.552 131.1 211.234 131.046 210.736C131.046 210.508 131.046 210.19 131.046 209.956C131.046 209.722 130.938 209.494 130.932 209.266Z" fill="white"/>
<path d="M129.198 224.152C129.198 224.668 129.084 228.1 130.068 228.616C131.052 229.132 131.412 226.463 131.412 226.463C131.412 226.463 133.686 225.509 137.244 226.655C137.124 227.225 137.844 228.983 138.726 228.509C139.608 228.035 139.59 224.111 139.59 224.062C140.076 227.441 140.226 230.141 138.756 232.745C136.896 236.033 132.288 234.371 130.83 232.355C129.372 230.339 129.03 228.755 129.132 225.155C129.144 224.819 129.168 224.476 129.198 224.152Z" fill="#0071CE"/>
<path opacity="0.8" d="M129.198 224.152C129.198 224.668 129.084 228.1 130.068 228.616C131.052 229.132 131.412 226.463 131.412 226.463C131.412 226.463 133.686 225.509 137.244 226.655C137.124 227.225 137.844 228.983 138.726 228.509C139.608 228.035 139.59 224.111 139.59 224.062C140.076 227.441 140.226 230.141 138.756 232.745C136.896 236.033 132.288 234.371 130.83 232.355C129.372 230.339 129.03 228.755 129.132 225.155C129.144 224.819 129.168 224.476 129.198 224.152Z" fill="white"/>
<path d="M131.706 226.66C131.82 227.944 130.506 227.638 130.272 225.832C130.038 224.026 130.596 219.634 130.272 216.52C130.338 212.95 130.2 209.398 130.932 209.266C130.932 209.314 130.932 209.356 130.932 209.398L131.016 211.198C131.016 211.462 131.016 211.69 131.052 211.966C131.298 214.588 131.436 219.676 131.454 222.088C131.454 223.615 131.538 225.141 131.706 226.66Z" fill="#0071CE"/>
<path d="M136.842 226.654C137.008 225.137 137.09 223.613 137.088 222.088C137.088 219.688 137.244 214.66 137.484 212.032C137.575 211.541 137.611 211.042 137.592 210.544C137.592 210.184 137.592 209.728 137.592 209.344C137.595 209.318 137.595 209.292 137.592 209.266C138.078 209.44 138.246 210.856 138.354 212.638C138.354 213.67 138.32 214.962 138.252 216.514C137.928 219.628 138.492 224.05 138.252 225.85C138.012 227.65 136.728 227.938 136.842 226.654Z" fill="#0071CE"/>
<path d="M137.322 226.749H137.22C135.372 226.107 133.362 226.107 131.514 226.749C131.479 226.768 131.441 226.779 131.402 226.782C131.363 226.785 131.323 226.78 131.286 226.766C131.249 226.753 131.216 226.732 131.187 226.704C131.159 226.677 131.137 226.644 131.123 226.607C131.109 226.57 131.103 226.531 131.105 226.492C131.107 226.452 131.118 226.414 131.136 226.379C131.154 226.344 131.18 226.314 131.211 226.289C131.242 226.265 131.277 226.248 131.316 226.239C133.279 225.527 135.428 225.514 137.4 226.203C137.434 226.215 137.464 226.235 137.491 226.259C137.517 226.284 137.538 226.314 137.552 226.347C137.567 226.38 137.575 226.415 137.575 226.451C137.576 226.487 137.569 226.523 137.556 226.557C137.539 226.608 137.508 226.653 137.467 226.687C137.425 226.721 137.375 226.742 137.322 226.749Z" fill="#FAFAFA"/>
<path d="M137.658 223.907C137.626 223.912 137.594 223.912 137.562 223.907C135.481 223.258 133.252 223.258 131.172 223.907C131.137 223.925 131.098 223.935 131.059 223.937C131.019 223.939 130.98 223.933 130.943 223.918C130.906 223.903 130.873 223.881 130.846 223.852C130.818 223.824 130.797 223.79 130.784 223.752C130.771 223.715 130.767 223.675 130.77 223.636C130.774 223.597 130.786 223.559 130.806 223.524C130.825 223.49 130.852 223.46 130.884 223.437C130.916 223.414 130.953 223.398 130.992 223.391C133.19 222.693 135.55 222.693 137.748 223.391C137.816 223.415 137.871 223.465 137.903 223.53C137.934 223.595 137.939 223.67 137.916 223.739C137.894 223.789 137.858 223.831 137.812 223.861C137.766 223.891 137.712 223.907 137.658 223.907Z" fill="#FAFAFA"/>
<path d="M131.082 221.213C131.021 221.211 130.962 221.188 130.915 221.149C130.868 221.11 130.836 221.056 130.823 220.996C130.81 220.936 130.817 220.874 130.843 220.819C130.869 220.764 130.913 220.719 130.968 220.691C134.148 219.245 137.568 220.589 137.706 220.649C137.739 220.662 137.77 220.681 137.797 220.706C137.823 220.73 137.844 220.76 137.858 220.793C137.873 220.826 137.881 220.862 137.881 220.898C137.882 220.934 137.875 220.97 137.862 221.003C137.833 221.07 137.779 221.122 137.712 221.15C137.645 221.178 137.569 221.179 137.502 221.153C137.502 221.153 134.154 219.839 131.196 221.189C131.159 221.203 131.121 221.211 131.082 221.213Z" fill="#FAFAFA"/>
<path d="M131.022 218.7C130.97 218.701 130.919 218.686 130.876 218.659C130.832 218.631 130.797 218.591 130.776 218.544C130.76 218.511 130.75 218.476 130.748 218.44C130.745 218.404 130.75 218.368 130.762 218.334C130.774 218.3 130.792 218.268 130.816 218.242C130.84 218.215 130.869 218.193 130.902 218.178C131.979 217.687 133.146 217.427 134.329 217.415C135.513 217.402 136.685 217.638 137.772 218.106C137.838 218.137 137.889 218.193 137.914 218.261C137.938 218.33 137.935 218.406 137.904 218.472C137.872 218.536 137.815 218.586 137.747 218.61C137.678 218.633 137.603 218.629 137.538 218.598C136.522 218.173 135.43 217.961 134.329 217.975C133.228 217.988 132.141 218.227 131.136 218.676C131.1 218.692 131.061 218.7 131.022 218.7Z" fill="#FAFAFA"/>
<path d="M130.962 215.878C130.91 215.877 130.86 215.863 130.817 215.835C130.773 215.807 130.738 215.768 130.716 215.722C130.685 215.657 130.68 215.582 130.704 215.513C130.728 215.445 130.777 215.388 130.842 215.356C134.106 213.748 137.622 215.284 137.766 215.356C137.799 215.371 137.828 215.391 137.853 215.417C137.877 215.443 137.897 215.474 137.909 215.507C137.922 215.541 137.928 215.576 137.927 215.612C137.926 215.648 137.918 215.683 137.904 215.716C137.889 215.749 137.868 215.778 137.842 215.803C137.817 215.827 137.786 215.847 137.752 215.859C137.719 215.872 137.683 215.878 137.648 215.877C137.612 215.877 137.577 215.869 137.544 215.854C137.508 215.854 134.112 214.354 131.082 215.854C131.044 215.871 131.003 215.879 130.962 215.878Z" fill="#EBEBEB"/>
<path d="M135.438 100.133C133.428 104.756 132.121 109.655 131.562 114.665C130.158 132.893 130.914 159.065 130.914 159.065C130.752 160.973 129.546 165.299 128.736 173.681C127.776 183.587 128.982 217.157 128.982 217.157C128.982 217.157 134.904 220.691 139.518 216.671C139.518 216.671 144.876 170.525 146.118 160.673C147.204 152.081 150.234 133.481 150.234 133.481L153.78 160.985C153.78 160.985 153.45 168.719 153.684 173.717C153.948 179.531 155.574 209.153 155.574 209.153C155.574 209.153 163.716 211.907 167.352 207.995C167.352 207.995 168.216 166.907 168.342 159.911C168.582 146.189 168.342 121.181 166.116 106.787L135.438 100.133Z" fill="#0071CE"/>
<path opacity="0.2" d="M135.438 100.133C133.428 104.756 132.121 109.655 131.562 114.665C130.158 132.893 130.914 159.065 130.914 159.065C130.752 160.973 129.546 165.299 128.736 173.681C127.776 183.587 128.982 217.157 128.982 217.157C128.982 217.157 134.904 220.691 139.518 216.671C139.518 216.671 144.876 170.525 146.118 160.673C147.204 152.081 150.234 133.481 150.234 133.481L153.78 160.985C153.78 160.985 153.45 168.719 153.684 173.717C153.948 179.531 155.574 209.153 155.574 209.153C155.574 209.153 163.716 211.907 167.352 207.995C167.352 207.995 168.216 166.907 168.342 159.911C168.582 146.189 168.342 121.181 166.116 106.787L135.438 100.133Z" fill="black"/>
<path opacity="0.2" d="M150.234 133.476L151.506 124.728C151.506 124.728 158.898 123.738 162.246 120.594C161.287 122.094 160.009 123.365 158.503 124.316C156.998 125.267 155.301 125.875 153.534 126.096L152.232 134.01L153.354 157.686L150.234 133.476Z" fill="black"/>
<path d="M165.558 86.9628C165.234 90.5628 165.156 97.5888 165.156 97.5888C166.458 106.781 167.502 115.757 167.502 115.757C153.774 123.083 133.056 117.155 130.446 114.131C131.736 105.131 134.58 99.5268 136.446 94.4628L133.008 79.1448C133.008 79.1448 138.93 74.2188 138.408 64.2288L146.52 63.3828L154.26 63.6048L159.762 63.9948C162.524 66.673 164.942 69.6841 166.962 72.9588C169.596 77.2668 169.698 82.6248 165.558 86.9628Z" fill="#0071CE"/>
<path opacity="0.1" d="M156.24 86.3977C156.24 86.3977 152.64 89.5657 148.26 88.3117C147.029 88.0062 145.898 87.3884 144.975 86.5182C144.052 85.648 143.369 84.5547 142.992 83.3438C142.992 83.3438 142.848 88.2877 148.392 89.6197C149.873 89.9964 151.435 89.8864 152.849 89.3061C154.262 88.7259 155.451 87.7061 156.24 86.3977Z" fill="black"/>
<path d="M144.81 58.5262C144.81 57.1522 142.878 54.2902 141.114 51.0802C139.35 47.8702 137.448 42.7102 141.114 37.8802C144.78 33.0502 153.072 30.1582 157.956 32.4802C162.84 34.8022 164.202 40.3522 164.202 40.3522L144.81 58.5262Z" fill="#37474F"/>
<path d="M139.56 47.0972C139.563 47.0853 139.563 47.073 139.56 47.0612C139.384 46.7709 139.106 46.557 138.78 46.4612C138.414 46.3251 138.025 46.2619 137.634 46.2752C137.172 46.2752 136.29 46.6052 136.32 47.2052C136.35 47.9132 137.52 47.9912 138.024 47.9672C138.461 47.9602 138.895 47.8936 139.314 47.7692C139.321 48.6063 139.202 49.4396 138.96 50.2412C138.812 50.6076 138.577 50.9329 138.276 51.1892C138.074 51.3466 137.839 51.456 137.588 51.509C137.338 51.5621 137.079 51.5573 136.83 51.4952C136.548 51.4472 136.668 51.8492 136.83 51.9092C137.299 52.0395 137.799 52.0023 138.243 51.8041C138.688 51.6059 139.05 51.2591 139.266 50.8232C139.866 49.7612 139.644 48.5312 139.902 47.3792C139.962 47.2112 139.74 47.0732 139.56 47.0972ZM137.274 47.4692C137.184 47.4692 136.95 47.4092 136.896 47.3192C136.842 47.2292 136.926 47.1932 136.98 47.1332C137.195 46.9645 137.45 46.8539 137.72 46.8118C137.99 46.7698 138.266 46.7978 138.522 46.8932C138.668 46.9244 138.81 46.9686 138.948 47.0252C139.023 47.0582 139.095 47.0963 139.164 47.1392L139.254 47.1872H139.308C138.934 47.37 138.524 47.4664 138.108 47.4692C137.831 47.508 137.551 47.508 137.274 47.4692Z" fill="#0071CE"/>
<path d="M160.896 36.0457C162.696 36.9817 165.288 38.9797 164.892 48.3097C164.58 55.5997 161.892 58.9597 160.692 59.5957C159.492 60.2317 157.908 60.3877 155.472 60.1297V64.2757C155.472 64.2757 158.28 71.7277 156.576 75.5137C154.321 74.2942 152.212 72.8228 150.288 71.1277C146.16 67.1617 144.924 65.3017 144.924 65.3017L144.774 54.2677C144.774 54.2677 143.154 55.4677 140.622 53.4997C138.528 51.8797 137.682 48.9937 139.134 47.3317C139.515 46.9125 139.996 46.598 140.533 46.4184C141.07 46.2387 141.644 46.1999 142.2 46.3057C142.808 46.4401 143.377 46.7123 143.862 47.1014C144.348 47.4905 144.738 47.986 145.002 48.5497C145.116 48.7717 145.29 49.0057 145.536 49.0297C145.63 49.0337 145.723 49.0157 145.808 48.9772C145.894 48.9386 145.969 48.8806 146.028 48.8077C146.143 48.66 146.227 48.4906 146.274 48.3097C146.796 46.7617 146.55 45.1417 146.916 43.5637C147.201 42.3467 147.736 41.2024 148.488 40.2037C150.273 37.912 152.87 36.3934 155.742 35.9617C157.452 35.6956 159.195 35.724 160.896 36.0457Z" fill="#B16668"/>
<path d="M164.268 40.5227C161.826 39.0173 158.939 38.4025 156.096 38.7827C152.987 39.2817 150.016 40.4218 147.372 42.1307C147.669 41.4472 148.041 40.7991 148.482 40.1987C150.272 37.9066 152.872 36.3884 155.748 35.9567C157.454 35.6885 159.193 35.7149 160.89 36.0347C162.03 36.5987 163.458 37.6127 164.268 40.5227Z" fill="#B16668"/>
<path d="M153.702 46.202C153.736 46.486 153.655 46.7718 153.479 46.9968C153.302 47.2218 153.044 47.3675 152.76 47.402C152.624 47.4213 152.487 47.4129 152.355 47.3773C152.223 47.3417 152.1 47.2796 151.992 47.1948C151.885 47.1101 151.796 47.0045 151.731 46.8843C151.666 46.7642 151.626 46.6321 151.614 46.496C151.592 46.2179 151.678 45.9421 151.855 45.7262C152.031 45.5104 152.285 45.3712 152.562 45.338C152.693 45.3194 152.827 45.3271 152.956 45.3605C153.085 45.3939 153.206 45.4525 153.312 45.5328C153.418 45.6131 153.507 45.7136 153.574 45.8284C153.64 45.9433 153.684 46.0703 153.702 46.202Z" fill="black"/>
<path d="M154.008 53.1875L157.68 54.1175C157.63 54.3643 157.53 54.5985 157.387 54.8057C157.244 55.0129 157.06 55.1889 156.847 55.323C156.634 55.4571 156.396 55.5465 156.147 55.5857C155.898 55.625 155.644 55.6134 155.4 55.5515C154.908 55.4122 154.489 55.0887 154.23 54.6485C153.971 54.2082 153.891 53.6849 154.008 53.1875Z" fill="#9A4A4D"/>
<path d="M163.134 43.7556L161.004 42.6996C161.066 42.5579 161.156 42.4302 161.269 42.3244C161.381 42.2186 161.514 42.1368 161.66 42.084C161.805 42.0313 161.96 42.0086 162.114 42.0175C162.269 42.0264 162.42 42.0666 162.558 42.1356C162.842 42.2815 163.06 42.5303 163.167 42.8314C163.274 43.1325 163.262 43.4631 163.134 43.7556Z" fill="black"/>
<path d="M152.796 42.9442L150.648 43.9522C150.576 43.8155 150.532 43.6656 150.52 43.5115C150.507 43.3574 150.526 43.2024 150.576 43.0559C150.625 42.9094 150.704 42.7745 150.807 42.6594C150.91 42.5443 151.036 42.4513 151.176 42.3862C151.466 42.2534 151.796 42.2373 152.098 42.3411C152.399 42.445 152.649 42.661 152.796 42.9442Z" fill="black"/>
<path d="M162.186 45.7121C162.21 45.9896 162.125 46.2655 161.949 46.4815C161.773 46.6976 161.521 46.8369 161.244 46.8701C161.11 46.8885 160.973 46.8796 160.842 46.844C160.711 46.8083 160.589 46.7467 160.483 46.6626C160.376 46.5786 160.288 46.474 160.223 46.355C160.158 46.236 160.117 46.1051 160.104 45.9701C160.079 45.6917 160.163 45.4143 160.339 45.1969C160.515 44.9795 160.768 44.8393 161.046 44.8061C161.181 44.7877 161.318 44.7968 161.449 44.8328C161.58 44.8689 161.703 44.9311 161.809 45.0157C161.916 45.1004 162.004 45.2057 162.069 45.3254C162.134 45.4451 162.174 45.5766 162.186 45.7121Z" fill="black"/>
<path d="M156.84 45.5078L157.362 51.4778L160.452 50.3078L156.84 45.5078Z" fill="#9A4A4D"/>
<path d="M155.448 60.1274C152.88 59.7494 147.438 58.3754 146.496 56.3594C146.884 57.5106 147.612 58.5169 148.584 59.2454C150.228 60.4874 155.448 61.5974 155.448 61.5974V60.1274Z" fill="#9A4A4D"/>
<path d="M164.268 40.525C164.268 40.525 162.936 38.401 156.84 38.959C153.49 39.3157 150.258 40.4011 147.372 42.139C145.571 43.2362 144.052 44.7405 142.938 46.531C142.697 46.4264 142.446 46.3499 142.188 46.303C141.629 46.1951 141.052 46.2329 140.512 46.4125C139.972 46.5922 139.487 46.9078 139.104 47.329L139.074 47.365C137.964 45.331 137.142 43.267 137.604 40.255C138.252 36.013 142.458 33.055 147.132 31.099C152.658 28.747 158.718 29.347 161.142 31.639C163.566 33.931 164.202 40.309 164.268 40.525Z" fill="#0071CE"/>
<path d="M138.498 116.837C136.819 115.725 135.308 114.38 134.01 112.841C135.096 112.969 136.194 112.969 137.28 112.841C138.768 112.529 139.08 111.905 138.984 111.365C138.93 110.945 137.898 111.077 136.26 110.567C134.398 109.923 132.477 109.469 130.524 109.211C129.573 108.987 128.738 108.421 128.178 107.621C127.662 106.979 124.614 101.621 121.926 95.9327L134.352 80.5607C137.454 77.0867 141.162 70.8527 137.442 64.4688C128.904 66.2687 128.97 66.0587 111.894 91.3367C108.948 95.6987 109.188 97.7507 119.694 110.759C121.813 113.396 124.091 115.9 126.516 118.259C132.582 123.917 136.968 124.325 139.488 122.795C142.938 120.677 141.816 119.021 138.498 116.837Z" fill="#B16668"/>
<path d="M138.384 64.2344C133.71 64.4444 130.266 65.1104 126.984 69.1244C123.462 73.4144 115.308 85.1984 115.308 85.1984C115.308 85.1984 117.492 91.9364 126.276 94.1984L137.34 79.9964C137.34 79.9964 141.378 72.0704 138.384 64.2344Z" fill="#0071CE"/>
<path opacity="0.2" d="M138.384 64.2344C133.71 64.4444 130.266 65.1104 126.984 69.1244C123.462 73.4144 115.308 85.1984 115.308 85.1984C115.308 85.1984 117.492 91.9364 126.276 94.1984L137.34 79.9964C137.34 79.9964 141.378 72.0704 138.384 64.2344Z" fill="black"/>
<path d="M69.7919 69.4141C65.5919 69.5281 64.3919 71.2141 61.8839 74.8141C59.3759 78.4141 50.7539 92.1061 50.7539 92.1061L38.5679 96.7861L40.1999 103.902C40.1999 103.902 50.5079 101.85 55.7999 100.77C56.4885 100.675 57.1459 100.422 57.7205 100.031C58.295 99.6391 58.7713 99.1201 59.1119 98.5141C59.7899 97.4881 66.5639 86.8321 66.5639 86.8321L69.7919 69.4141Z" fill="#E6E6E6"/>
<path d="M73.0079 69.5326C69.0419 68.5426 67.2899 70.7326 65.9699 73.1806C63.8579 77.0566 62.5859 84.9766 62.4059 99.4486C62.2919 108.755 59.0519 120.005 58.4759 128.849C57.5999 142.097 57.1919 152.399 57.1919 152.399C65.0378 151.384 72.9451 150.918 80.8559 151.007L73.0079 69.5326Z" fill="#E0E0E0"/>
<path d="M95.8677 204.491C95.8677 204.491 98.2677 188.201 97.2537 178.655C96.4017 170.465 95.1957 167.039 95.0277 165.173C95.0277 165.173 93.6477 145.973 94.0257 129.659C94.1997 121.937 93.8097 113.423 88.3137 104.321L88.1157 103.961C87.6297 106.961 83.0277 108.881 78.9237 109.361C74.9717 109.801 70.0517 109.019 64.1637 107.015C62.8497 114.737 61.3617 129.455 59.8377 145.493C59.0997 153.335 59.2377 159.935 59.0937 164.975C58.9197 171.815 59.5437 198.611 59.5437 198.611V199.745C59.5017 200.993 59.2017 201.863 58.3437 203.843C57.249 206.397 55.7227 208.743 53.8317 210.779C53.2317 211.379 49.1937 214.685 48.6477 215.405C46.8897 217.325 50.3577 218.549 52.9737 218.291C55.7337 218.015 60.0297 217.091 61.2957 215.477C62.1417 214.391 62.8737 210.509 63.7377 209.405C66.6597 205.691 67.8597 204.089 67.9377 202.877C68.0457 200.675 67.3377 199.781 67.0917 198.533C67.3977 195.947 72.6537 182.411 73.0017 174.857C73.1697 171.257 72.4017 164.873 72.4017 164.873L76.9437 138.599C77.9697 145.979 79.9437 162.599 80.6217 167.909C81.5997 175.199 85.1997 187.529 87.4677 197.213C88.3197 200.855 88.7397 202.475 88.9497 204.851L89.0037 205.703C89.0037 206.777 89.1117 218.255 89.4597 220.703C90.1797 225.785 94.6857 225.299 95.5437 221.237C96.2697 217.781 95.8617 206.999 95.8857 205.673L95.8677 204.491Z" fill="#FFA8A7"/>
<path d="M96.0001 204.414C97.2661 204.48 96.2701 209.352 96.4921 212.52C96.7321 215.91 97.7581 218.418 97.9801 221.196C98.2381 224.376 97.9141 225.696 96.6901 228.258C95.7421 230.256 91.2121 232.884 89.6221 229.932C88.0321 226.98 87.7801 223.662 88.0801 220.512C88.3861 217.26 88.6801 214.884 88.8121 212.406C88.9381 210.222 87.4261 205.038 89.0821 204.78L89.1301 205.632C89.6821 206.832 95.2741 207.828 96.0181 205.584L96.0001 204.414Z" fill="#37474F"/>
<path d="M68.2201 205.453C68.5561 207.043 68.0101 211.363 68.0101 211.363C68.0101 211.363 67.2781 212.833 64.8061 213.763L63.9121 207.703L68.2201 205.453Z" fill="#263238"/>
<path d="M64.806 213.748L59.49 211.804L58.356 206.992L64.29 210.25L64.806 213.748Z" fill="black"/>
<path d="M59.6819 199.653V198.519C58.9439 198.849 57.1439 204.675 54.8339 208.635C52.7339 212.235 48.7319 214.167 47.4059 215.727C45.6059 217.815 48.8519 220.689 54.2159 219.723C56.8739 219.249 60.9359 217.689 62.0759 215.943C63.2159 214.197 63.6959 210.933 64.6259 209.649C65.5559 208.365 67.7159 206.931 68.2259 205.449C68.6182 204.108 68.6616 202.689 68.3519 201.327C67.9799 199.953 67.6679 198.327 67.1999 198.435L67.1339 199.467C66.7559 200.181 65.4419 200.985 62.7479 201.039C61.4579 201.069 60.2279 200.835 59.6819 199.653Z" fill="#37474F"/>
<path d="M73.6617 177.73C73.9725 173.598 73.8216 169.444 73.2117 165.346L77.0877 139.546C77.0877 139.546 79.7277 164.146 80.1717 167.938C80.6157 171.73 87.6957 212.842 87.6957 212.842C91.2957 214.99 95.9697 214.306 98.9937 212.704C98.9937 196.084 98.4777 179.428 97.8777 174.826C97.3478 171.681 96.6285 168.571 95.7237 165.514C95.7237 165.514 95.3397 141.268 95.3577 132.064C95.3757 122.86 94.6857 116.704 92.9577 112.564C91.6017 109.557 89.9961 106.669 88.1577 103.93C88.1577 103.93 86.8137 108.472 76.1577 108.484C65.5017 108.496 64.3257 105.79 64.3257 105.79C64.3257 105.79 61.2057 116.692 60.1677 133.156C59.3277 146.422 59.1357 152.458 58.8837 158.356C58.6677 163.396 58.5357 169.216 58.4217 179.398C58.3317 187.078 57.2217 203.998 57.2217 203.998C57.2217 203.998 62.4237 206.722 71.0217 203.614C70.9857 203.59 73.1277 184.354 73.6617 177.73Z" fill="#455A64"/>
<path d="M77.0876 139.524L74.9816 123.924C71.8898 123.605 69.0062 122.217 66.8276 120C66.8276 120 68.0276 123.78 73.0196 125.904L75.8456 139.602L73.7996 161.562L77.0876 139.524Z" fill="#37474F"/>
<path d="M82.0738 70.6172L87.0898 71.1512C90.4258 71.9672 91.9258 73.4372 92.2678 76.3892C92.8833 79.566 92.824 82.8368 92.0938 85.9892C91.0378 90.1412 88.2298 100.311 88.2298 100.311C88.2298 100.311 91.8718 109.461 93.5938 114.111C81.7558 121.833 67.1398 118.785 62.2318 114.111C62.6458 109.689 64.2118 105.579 64.5598 101.637C64.5598 101.637 64.3018 95.4812 63.8158 92.8112C60.0718 88.7252 60.5458 84.8132 62.2318 81.6572C65.3338 75.8372 70.0318 70.7192 71.5318 70.7252L82.0738 70.6172Z" fill="#0071CE"/>
<path opacity="0.6" d="M82.0738 70.6172L87.0898 71.1512C90.4258 71.9672 91.9258 73.4372 92.2678 76.3892C92.8833 79.566 92.824 82.8368 92.0938 85.9892C91.0378 90.1412 88.2298 100.311 88.2298 100.311C88.2298 100.311 91.8718 109.461 93.5938 114.111C81.7558 121.833 67.1398 118.785 62.2318 114.111C62.6458 109.689 64.2118 105.579 64.5598 101.637C64.5598 101.637 64.3018 95.4812 63.8158 92.8112C60.0718 88.7252 60.5458 84.8132 62.2318 81.6572C65.3338 75.8372 70.0318 70.7192 71.5318 70.7252L82.0738 70.6172Z" fill="white"/>
<path d="M72.9539 67.0859C71.4659 67.0859 71.2979 67.3379 70.0139 69.0479C69.2519 70.0679 64.4399 78.0059 64.4399 78.0059C64.4399 78.0059 68.2739 72.9719 71.1599 71.4479C71.7202 71.1199 72.3272 70.8791 72.9599 70.7339L72.9539 67.0859Z" fill="#EBEBEB"/>
<path d="M82.3559 70.6129C82.3559 70.6129 78.2219 81.4849 77.2799 88.8649C76.3379 96.2449 79.5719 118.535 80.0699 131.747C80.4359 141.347 81.3479 155.219 81.3479 155.219C84.2816 155.506 87.24 155.413 90.1499 154.943C95.0099 154.025 96.5159 153.227 99.2939 151.415C99.2939 151.415 96.8939 127.253 95.6939 117.863C94.5839 109.025 89.8319 100.307 89.8319 100.307L95.5439 76.6609C95.5439 76.6609 95.2619 72.6769 91.5059 71.5609C87.9479 70.4989 82.3559 70.6129 82.3559 70.6129Z" fill="#FAFAFA"/>
<path d="M89.67 92.7162C89.67 92.7162 88.896 89.9023 87.828 85.0963C86.76 80.2903 86.928 77.5063 87.294 75.4062L93.504 84.4903L89.844 100.306C92.3336 105.073 94.172 110.152 95.31 115.408C91.572 104.83 87.474 101.656 87.474 101.656L89.67 92.7162Z" fill="#F5F5F5"/>
<path d="M83.9157 83.9956C83.9157 83.5396 83.9577 82.5496 84.0357 81.3076C84.4257 75.2116 84.6057 69.7096 82.5477 69.2656L82.3677 70.1056C83.8677 70.4296 83.3697 78.2896 83.1837 81.2536C83.0997 82.5256 83.0337 83.5276 83.0577 84.0316L83.9157 83.9956Z" fill="#0071CE"/>
<path d="M95.2018 133.37C95.9998 131.852 95.9878 130.76 97.2298 129.386C97.7622 128.822 98.1349 128.126 98.3098 127.37C98.5692 126.15 98.668 124.902 98.6038 123.656L105.72 123.764C105.774 126.128 106.092 129.524 105.648 132.044C104.514 138.422 103.248 141.14 100.572 141.884C96.2938 143.084 95.1418 141.284 96.5098 138.056C97.1048 136.719 97.5087 135.306 97.7098 133.856C97.2654 134.43 96.7446 134.941 96.1618 135.374C95.8649 135.617 95.4876 135.738 95.1051 135.715C94.7226 135.692 94.363 135.525 94.0978 135.248C93.8878 134.996 94.5838 134.552 95.2018 133.37Z" fill="#FFA8A7"/>
<path d="M88.2658 70.9264C88.2658 70.9264 92.8618 70.6384 95.5558 72.8404C98.2498 75.0424 99.9178 81.1984 101.892 87.3544C103.866 93.5104 105.636 99.4984 106.284 103.812C106.83 107.412 106.122 126.51 106.122 126.51C103.299 126.776 100.457 126.275 97.8958 125.058L95.9998 104.694L88.2958 83.7844C86.8675 79.6191 86.8569 75.0984 88.2658 70.9264Z" fill="#F0F0F0"/>
<path d="M31.1819 85.6562L53.9819 93.7023L60.2579 120.834L59.7479 121.374L38.0699 113.28L30.6719 86.1963L31.1819 85.6562Z" fill="#0071CE"/>
<path opacity="0.35" d="M53.4717 94.2353L59.7477 121.367L60.2577 120.827L53.9817 93.6953L53.4717 94.2353Z" fill="black"/>
<path opacity="0.25" d="M30.6719 86.1953L53.4719 94.2413L59.7479 121.373L38.0699 113.279L30.6719 86.1953Z" fill="black"/>
<g opacity="0.2">
<path d="M41.4599 107.759C41.2499 108.287 39.5039 109.464 36.9719 109.254L36.5459 107.688L41.4599 107.759Z" fill="black"/>
</g>
<g opacity="0.1">
<path d="M37.5357 91.7532L37.3497 90.8412C37.2477 90.3372 38.5857 90.6012 40.3497 91.4412L44.4657 92.6892C46.2237 93.5172 47.8797 94.1352 47.9817 94.6332L48.1737 95.5452L37.5357 91.7532Z" fill="black"/>
</g>
<path d="M36.1859 87.6353C36.1199 87.3173 36.6359 87.3833 37.3859 87.5753L38.6999 88.0253C38.6999 88.0253 38.1599 86.7053 41.2679 87.5453C44.6879 88.4753 44.7599 90.1793 44.7599 90.1793C45.2956 90.4113 45.8446 90.6116 46.4039 90.7793C47.5379 91.1513 47.6639 91.3793 47.7599 91.6913L47.9279 92.2913L36.2879 88.1933C36.2879 88.1933 36.2519 87.9473 36.1859 87.6353Z" fill="#37474F"/>
<path d="M37.404 89.3954C38.484 89.8814 38.928 90.1214 39.09 90.8954C39.27 91.7774 39.312 92.1494 39.312 92.1494L45.366 94.5494C45.366 94.5494 45.036 93.2474 44.958 92.8094C44.88 92.3714 45.678 92.3714 46.722 92.8574L46.476 91.7714L37.062 88.2734L37.404 89.3954Z" fill="#37474F"/>
<path d="M37.1998 91.7941L37.0138 90.8881C36.9118 90.3841 38.2498 90.6481 40.0138 91.4881L44.1298 92.7301C45.8818 93.5581 47.5438 94.1761 47.6458 94.6801L47.8318 95.5921L37.1998 91.7941Z" fill="#37474F"/>
<path d="M33.2041 95.4745C33.2041 95.4745 34.0141 98.4745 34.2241 99.2065C34.4341 99.9385 38.1721 101.679 40.0441 101.913C43.6441 102.363 44.0221 103.113 43.1641 105.675C42.3721 108.015 40.0441 108.897 36.8161 108.519C35.8052 108.32 34.8645 107.858 34.0892 107.18C33.3138 106.501 32.7312 105.63 32.4001 104.655C31.3501 101.655 31.9141 98.4685 31.5001 96.7165C31.0861 94.9645 32.2981 94.4365 33.2041 95.4745Z" fill="#FFA8A7"/>
<path d="M90.7921 43.9948L87.6001 46.6168C87.4259 46.4176 87.2942 46.1849 87.2131 45.9329C87.132 45.681 87.1032 45.4151 87.1285 45.1516C87.1538 44.8882 87.2326 44.6327 87.3601 44.4007C87.4876 44.1688 87.6612 43.9653 87.8701 43.8028C88.2894 43.4552 88.8259 43.2814 89.3693 43.3171C89.9128 43.3528 90.4219 43.5953 90.7921 43.9948Z" fill="#455A64"/>
<path d="M82.4161 67.4846C82.4161 65.4746 87.1021 62.4626 89.5201 58.2266C91.9381 53.9906 90.7201 47.0486 87.4201 45.9806C87.4201 45.9806 87.3541 39.6566 78.8221 37.9766C70.2901 36.2966 67.6141 34.4126 66.1021 34.1426C64.5901 33.8726 64.3021 39.2486 66.2881 40.6586C64.8598 40.0972 63.5552 39.2615 62.4481 38.1986C61.2061 36.9986 60.7141 43.2506 63.3961 45.4466C63.3961 45.4466 61.1761 46.7486 61.4461 50.0366C61.4988 51.2341 61.942 52.3814 62.708 53.3034C63.4739 54.2254 64.5206 54.8713 65.6881 55.1426L82.4161 67.4846Z" fill="#455A64"/>
<path d="M67.8657 43.7969C65.8077 44.6909 63.8517 47.8349 63.8817 56.6369C63.8817 64.0949 66.1917 65.9849 67.3497 66.5369C68.5077 67.0889 70.7577 66.8129 72.9537 66.4709V70.7609C72.9537 70.7609 71.3157 72.3749 71.8857 73.3949C72.4557 74.4149 74.5977 75.2669 77.8857 74.2289C81.6357 73.0289 82.4937 70.5509 82.4937 70.5509L82.5657 61.1669C82.5657 61.1669 83.8317 62.4929 86.0457 60.5669C87.8817 58.9649 88.5417 56.2109 87.1617 54.6989C85.7817 53.1869 84.0177 53.0669 82.4277 54.7589L81.2757 54.1589C79.2417 53.9189 76.2237 53.5589 74.0397 52.4669C68.3997 49.5449 67.7997 46.4129 67.8657 43.7969Z" fill="#FFA8A7"/>
<path d="M82.4159 53.5V57.646C82.1492 57.6552 81.8834 57.6095 81.6351 57.5118C81.3867 57.4141 81.1611 57.2665 80.9721 57.0781C80.7831 56.8896 80.6348 56.6644 80.5364 56.4164C80.438 56.1683 80.3915 55.9027 80.3999 55.636C80.4005 55.0901 80.6095 54.5651 80.9841 54.1681C81.3588 53.7711 81.8709 53.5321 82.4159 53.5Z" fill="#455A64"/>
<path d="M67.6677 54.0794C67.675 54.2116 67.656 54.3438 67.6119 54.4685C67.5678 54.5933 67.4994 54.708 67.4107 54.8062C67.322 54.9044 67.2148 54.984 67.0951 55.0405C66.9755 55.0971 66.8459 55.1293 66.7137 55.1354C66.5096 55.1497 66.3059 55.1026 66.1288 55.0002C65.9517 54.8979 65.8092 54.7449 65.7197 54.5609C65.6301 54.3769 65.5976 54.1704 65.6264 53.9679C65.6551 53.7653 65.7437 53.576 65.8809 53.4241C66.018 53.2723 66.1974 53.165 66.396 53.1159C66.5947 53.0668 66.8034 53.0782 66.9955 53.1487C67.1876 53.2191 67.3542 53.3454 67.474 53.5112C67.5938 53.6771 67.6612 53.875 67.6677 54.0794Z" fill="#263238"/>
<path d="M75.5638 54.518C75.5727 54.66 75.5533 54.8024 75.5066 54.9369C75.46 55.0714 75.3872 55.1953 75.2922 55.3014C75.1973 55.4074 75.0823 55.4936 74.9538 55.5548C74.8253 55.616 74.6859 55.6511 74.5438 55.658C74.3241 55.6746 74.1046 55.6252 73.9133 55.516C73.722 55.4069 73.5678 55.243 73.4703 55.0455C73.3729 54.848 73.3368 54.6258 73.3666 54.4076C73.3964 54.1894 73.4908 53.9851 73.6377 53.821C73.7846 53.6569 73.9771 53.5404 74.1907 53.4866C74.4043 53.4328 74.629 53.4441 74.8361 53.519C75.0432 53.5939 75.2232 53.7291 75.3528 53.9071C75.4825 54.0852 75.5559 54.2979 75.5638 54.518Z" fill="#263238"/>
<path d="M73.9498 60.625L70.7578 61.621C70.807 61.8371 70.8999 62.0409 71.0308 62.2198C71.1617 62.3987 71.3277 62.549 71.5188 62.6613C71.7098 62.7737 71.9219 62.8459 72.1418 62.8733C72.3618 62.9008 72.585 62.883 72.7978 62.821C73.2296 62.6652 73.5873 62.3534 73.8006 61.9469C74.0138 61.5404 74.0671 61.0688 73.9498 60.625Z" fill="#F28F8F"/>
<path d="M65.046 52.2368L67.602 51.2228C67.5429 51.0475 67.4478 50.8865 67.3228 50.7502C67.1978 50.6138 67.0456 50.5051 66.8761 50.4311C66.7066 50.3571 66.5234 50.3194 66.3384 50.3203C66.1534 50.3213 65.9707 50.361 65.802 50.4368C65.472 50.5859 65.2106 50.8544 65.0704 51.1883C64.9301 51.5222 64.9214 51.8967 65.046 52.2368Z" fill="#263238"/>
<path d="M70.0857 53.2734L70.2117 59.3874L66.9297 58.6554L70.0857 53.2734Z" fill="#F28F8F"/>
<path d="M72.9538 66.4499C75.2638 66.1799 80.0278 64.8539 80.8018 62.9219C80.4918 63.8918 79.8983 64.7466 79.0978 65.3759C77.6578 66.6119 72.9478 67.8959 72.9478 67.8959L72.9538 66.4499Z" fill="#F28F8F"/>
<path d="M82.5237 67.1216C83.1237 67.0016 83.6697 67.2596 84.1617 68.0996C84.6537 68.9396 85.7397 70.7036 85.7397 70.7036C85.7397 70.7036 86.2977 76.5596 85.7397 78.0116C85.2537 79.2776 79.9017 84.0116 79.9017 84.0116C79.9017 84.0116 81.2997 89.2736 81.3477 90.9956C81.3957 92.7176 78.0297 99.2756 77.6517 102.63C77.6517 102.63 76.5957 92.0876 77.0877 88.3016C77.9517 81.7016 81.0417 73.2236 82.4877 70.5296L82.5237 67.1216Z" fill="#EBEBEB"/>
<path d="M82.6619 103.346C81.883 103.861 80.9672 104.128 80.0339 104.114L80.1119 103.514C80.826 103.523 81.5276 103.328 82.1339 102.95C81.5537 102.491 81.046 101.947 80.6279 101.336C79.7699 100.004 78.4199 90.9143 79.2479 88.8923C79.9319 87.2123 81.9419 83.5703 83.4479 83.5703H83.4839C85.0139 83.6363 86.7299 87.4883 87.2759 89.2343C87.9299 91.3163 85.8119 100.262 84.8459 101.516C84.3747 102.087 83.8229 102.586 83.2079 102.998C83.7826 103.422 84.4644 103.675 85.1759 103.73V104.33H85.1039C84.2141 104.236 83.3683 103.896 82.6619 103.346ZM79.7999 89.1203C79.0439 90.9803 80.3399 99.7763 81.1319 101.006C81.5633 101.625 82.0898 102.172 82.6919 102.626C83.3328 102.228 83.9043 101.727 84.3839 101.144C85.2839 99.9863 87.3239 91.3283 86.7239 89.4143C85.9859 87.0743 84.3779 84.2123 83.4779 84.1763C82.5539 84.1703 80.7299 86.8643 79.7999 89.1203Z" fill="#455A64"/>
<path d="M79.1999 103.794C79.1951 103.91 79.2132 104.026 79.2531 104.135C79.293 104.244 79.354 104.344 79.4326 104.429C79.5112 104.514 79.6058 104.583 79.711 104.632C79.8163 104.68 79.9301 104.708 80.0459 104.712C80.2801 104.721 80.5081 104.637 80.6809 104.478C80.8537 104.32 80.9575 104.1 80.9699 103.866C80.9795 103.628 80.8938 103.395 80.7318 103.219C80.5697 103.044 80.3446 102.94 80.1059 102.93C79.8672 102.921 79.6345 103.007 79.459 103.169C79.2834 103.331 79.1795 103.556 79.1699 103.794H79.1999Z" fill="#263238"/>
<path d="M84.3241 103.992C84.3138 104.226 84.3968 104.455 84.5549 104.627C84.713 104.8 84.9332 104.903 85.1671 104.913C85.401 104.924 85.6295 104.841 85.8022 104.683C85.9749 104.524 86.0778 104.304 86.0881 104.07C86.0932 103.954 86.0755 103.839 86.0359 103.73C85.9963 103.621 85.9356 103.521 85.8574 103.435C85.7791 103.35 85.6847 103.28 85.5797 103.231C85.4746 103.182 85.3609 103.154 85.2451 103.149C85.1293 103.144 85.0136 103.162 84.9046 103.202C84.7956 103.241 84.6955 103.302 84.61 103.38C84.5245 103.458 84.4552 103.553 84.4062 103.658C84.3571 103.763 84.3292 103.876 84.3241 103.992Z" fill="#263238"/>
<path d="M79.0979 92.8369L79.6019 92.8009C79.6279 92.7994 79.6534 92.7927 79.6768 92.7814C79.7003 92.77 79.7212 92.7541 79.7385 92.7345C79.7558 92.715 79.769 92.6923 79.7775 92.6677C79.786 92.643 79.7895 92.6169 79.7879 92.5909C79.6437 91.4544 79.6965 90.3015 79.9439 89.1829C80.8319 87.0109 82.6679 84.2929 83.4719 84.3289C84.2759 84.3649 85.8719 87.2269 86.5799 89.4649C86.7419 89.9749 86.6879 91.2109 86.4479 92.8729C86.4392 92.9246 86.4514 92.9777 86.4818 93.0204C86.5121 93.0632 86.5582 93.0921 86.6099 93.1009L87.1139 93.1789C87.1399 93.1823 87.1664 93.1804 87.1917 93.1734C87.217 93.1665 87.2406 93.1546 87.2613 93.1384C87.282 93.1222 87.2992 93.102 87.312 93.0791C87.3248 93.0562 87.3329 93.031 87.3359 93.0049C87.6119 91.1389 87.6479 89.8549 87.4379 89.1949C87.0659 87.9949 85.2959 83.5009 83.5139 83.4229C81.7319 83.3449 79.5839 87.6769 79.1099 88.8229C78.8459 89.4649 78.7679 90.7429 78.8879 92.6269C78.8861 92.655 78.8904 92.683 78.9003 92.7093C78.9102 92.7356 78.9256 92.7594 78.9455 92.7793C78.9654 92.7992 78.9892 92.8146 79.0155 92.8245C79.0418 92.8345 79.0699 92.8387 79.0979 92.8369Z" fill="#0071CE"/>
<path d="M26.6104 51.9647V59.4167L33.0664 55.6907V63.1487L39.5224 59.4167V51.9647L45.9784 48.2387V40.7807L39.5044 44.5247L39.5224 37.0547L33.0664 40.7807V48.2387L26.6104 51.9647Z" fill="#0071CE"/>
<path d="M26.6102 59.4152L23.8442 57.8192V50.3672L26.6102 51.9632V59.4152Z" fill="#0071CE"/>
<path d="M33.0662 48.2444L30.3002 46.6484L23.8442 50.3744L26.6102 51.9704L33.0662 48.2444Z" fill="#0071CE"/>
<path d="M33.0663 40.7835L30.3003 39.1875V46.6455L33.0663 48.2415V40.7835Z" fill="#0071CE"/>
<path d="M39.5223 37.0569L36.7563 35.4609L30.3003 39.1869L33.0663 40.7829L39.5223 37.0569Z" fill="#0071CE"/>
<path d="M33.0663 63.1533L30.3003 61.5513V57.2913L33.0663 55.6953V63.1533Z" fill="#0071CE"/>
<g opacity="0.2">
<path d="M26.6102 59.423L23.8442 57.827V50.375L26.6102 51.971V59.423Z" fill="black"/>
<path d="M33.0663 40.7835L30.3003 39.1875V46.6455L33.0663 48.2415V40.7835Z" fill="black"/>
<path d="M33.0663 63.1533L30.3003 61.5513V57.2913L33.0663 55.6953V63.1533Z" fill="black"/>
</g>
<path d="M45.9784 40.7835L43.2124 39.1875L39.5104 41.3115L39.5044 44.5275L45.9784 40.7835Z" fill="#0071CE"/>
<g opacity="0.5">
<path d="M33.0662 48.2444L30.3002 46.6484L23.8442 50.3744L26.6102 51.9704L33.0662 48.2444Z" fill="white"/>
<path d="M39.5223 37.0569L36.7563 35.4609L30.3003 39.1869L33.0663 40.7829L39.5223 37.0569Z" fill="white"/>
<path d="M45.9784 40.7835L43.2124 39.1875L39.5104 41.3115L39.5044 44.5275L45.9784 40.7835Z" fill="white"/>
</g>
<path d="M262.2 40.6606C262.2 41.3926 262.686 42.1306 263.658 42.6886C264.748 43.242 265.953 43.5304 267.174 43.5304C268.396 43.5304 269.601 43.242 270.69 42.6886C271.662 42.1306 272.148 41.3926 272.148 40.6606V34.1206C272.148 32.7998 271.624 31.5332 270.69 30.5992C269.756 29.6653 268.489 29.1406 267.168 29.1406C265.848 29.1406 264.581 29.6653 263.647 30.5992C262.713 31.5332 262.188 32.7998 262.188 34.1206L262.2 40.6606Z" fill="#F5F5F5"/>
<path d="M262.201 49.2981C262.201 50.6188 262.725 51.8855 263.659 52.8195C264.593 53.7534 265.86 54.2781 267.181 54.2781C268.501 54.2781 269.768 53.7534 270.702 52.8195C271.636 51.8855 272.161 50.6188 272.161 49.2981V40.6641C272.161 41.3961 271.675 42.1341 270.703 42.6921C269.613 43.2454 268.409 43.5338 267.187 43.5338C265.965 43.5338 264.76 43.2454 263.671 42.6921C262.693 42.1341 262.201 41.4021 262.201 40.6641V49.2981Z" fill="#0071CE"/>
<path opacity="0.4" d="M269.082 51.9752C268.832 51.976 268.584 51.9273 268.353 51.8321C268.121 51.7369 267.911 51.5969 267.734 51.4202C267.556 51.2435 267.416 51.0336 267.32 50.8024C267.224 50.5713 267.174 50.3234 267.174 50.0732V39.9392C268.401 39.9127 269.614 40.202 270.696 40.7792C270.804 40.8392 270.894 40.8992 270.99 40.9652V50.0732C270.989 50.5782 270.787 51.0619 270.429 51.4184C270.072 51.775 269.587 51.9752 269.082 51.9752Z" fill="white"/>
<path d="M262.2 40.6606C262.2 41.3926 262.686 42.1306 263.658 42.6886C264.748 43.242 265.953 43.5304 267.174 43.5304C268.396 43.5304 269.601 43.242 270.69 42.6886C271.662 42.1306 272.148 41.3926 272.148 40.6606V34.1206C272.148 32.7998 271.624 31.5332 270.69 30.5992C269.756 29.6653 268.489 29.1406 267.168 29.1406C265.848 29.1406 264.581 29.6653 263.647 30.5992C262.713 31.5332 262.188 32.7998 262.188 34.1206L262.2 40.6606Z" fill="#F5F5F5"/>
<path opacity="0.1" d="M270.697 42.6921C269.607 43.2454 268.403 43.5338 267.181 43.5338C265.959 43.5338 264.754 43.2454 263.665 42.6921C262.693 42.1341 262.201 41.4021 262.201 40.6641V41.4021C262.201 42.1401 262.687 42.8721 263.659 43.4361C264.748 43.9894 265.953 44.2778 267.175 44.2778C268.397 44.2778 269.601 43.9894 270.691 43.4361C271.663 42.8721 272.149 42.1401 272.149 41.4021V40.6821C272.155 41.4021 271.669 42.1341 270.697 42.6921Z" fill="black"/>
<path d="M270.102 30.1016C269.36 29.5613 268.484 29.2369 267.569 29.1641C266.654 29.0913 265.737 29.273 264.919 29.6892C264.101 30.1053 263.414 30.7395 262.934 31.5218C262.454 32.3041 262.2 33.2039 262.2 34.1216V40.6616C262.2 41.3936 262.686 42.1316 263.658 42.6896C264.106 42.9512 264.586 43.1529 265.086 43.2896V33.2276C265.092 30.3596 268.68 29.3096 270.102 30.1016Z" fill="#E0E0E0"/>
<path d="M269.082 31.4922C268.576 31.4922 268.091 31.6932 267.733 32.051C267.375 32.4088 267.174 32.8942 267.174 33.4002V43.5342C268.401 43.5585 269.614 43.2672 270.696 42.6882C270.804 42.6282 270.894 42.5682 270.99 42.5082V33.4002C270.99 32.8942 270.789 32.4088 270.431 32.051C270.074 31.6932 269.588 31.4922 269.082 31.4922Z" fill="white"/>
<path opacity="0.1" d="M267.799 54.2361L268.081 54.1881L268.279 54.1521L268.501 54.0921L268.729 54.0261L268.837 53.9841C269.164 53.8703 269.478 53.7214 269.773 53.5401C269.879 53.4791 269.981 53.4109 270.079 53.3361C268.657 54.1221 265.069 53.0781 265.069 50.2101V43.2681C264.568 43.1314 264.088 42.9297 263.641 42.6681C262.693 42.1341 262.201 41.4021 262.201 40.6641V49.2981C262.202 50.6184 262.727 51.8841 263.661 52.8177C264.595 53.7513 265.86 54.2765 267.181 54.2781C267.337 54.2781 267.493 54.2781 267.643 54.2781L267.799 54.2361Z" fill="black"/>
</svg>
