<svg width="56" height="92" viewBox="0 0 56 92" fill="none" xmlns="http://www.w3.org/2000/svg">
<g filter="url(#filter0_d_207_31040)">
<path d="M25.635 24.0117C21.9254 24.7604 20.5764 25.8362 18.4957 29.3131C16.9579 31.8829 16.0271 33.5488 13.5214 37.1707L5.68738 38.0206L7.27239 43.6794C7.27239 43.6794 12.0983 43.8312 14.8299 44.047C16.8736 44.2089 17.3423 44.047 18.6137 42.516C21.2442 39.356 24.4041 34.8573 24.4041 34.8573L25.635 24.0117Z" fill="#E0E0E0"/>
<path opacity="0.02" d="M25.635 24.0117C21.9254 24.7604 20.5764 25.8362 18.4957 29.3131C16.9579 31.8829 16.0271 33.5488 13.5214 37.1707L5.68738 38.0206L7.27239 43.6794C7.27239 43.6794 12.0983 43.8312 14.8299 44.047C16.8736 44.2089 17.3423 44.047 18.6137 42.516C21.2442 39.356 24.4041 34.8573 24.4041 34.8573L25.635 24.0117Z" fill="black"/>
<path d="M18.2578 47.3355L17.1854 78.6987C17.1854 78.6987 26.7899 76.338 35.3963 77.7915C44.0026 79.245 46.053 81.2685 46.053 81.2685L40.502 32.75L20.6421 33.3503C20.6421 33.3503 18.2578 36.608 18.2578 47.3355Z" fill="#EBEBEB"/>
<path d="M49.4942 98.1065C48.3779 92.6938 47.1335 90.2725 46.9008 89.0415C46.9008 89.0415 45.2618 76.2568 44.5199 65.3775C44.1624 60.1402 44.2906 56.6093 40.8676 50.5391L20.9706 55.429C20.7277 58.218 18.8561 77.2011 19.7767 93.5707C20.5322 107.006 21.5169 111.39 21.6181 113.633C21.6754 114.908 21.6484 115.751 21.5945 117.521C21.5708 118.236 21.5101 118.823 21.0953 119.275C20.4154 119.956 19.6582 120.556 18.8392 121.062C17.2913 122.074 16.5797 122.637 14.8092 123.268C14.4634 123.371 14.1324 123.518 13.8245 123.706C13.6746 123.797 13.5483 123.922 13.4563 124.071C13.3642 124.22 13.3089 124.388 13.295 124.563C13.295 125.042 13.7334 125.419 14.1786 125.655C15.7805 126.505 17.7837 126.33 19.5339 125.824C21.2842 125.318 22.9063 124.475 24.6768 123.966C25.8976 123.629 27.1892 123.457 28.3089 122.887C28.6781 122.731 28.9852 122.457 29.1823 122.108C29.2929 121.804 29.322 121.476 29.2666 121.157C29.1317 119.754 28.9833 119.312 29.0204 117.899C29.0542 116.55 29.2599 114.078 29.3577 112.736C29.4487 111.606 30.882 103.512 30.6662 98.5078C30.606 96.9772 30.6589 95.4442 30.8247 93.9214L32.5952 76.1388C33.4045 79.1099 36.4026 87.7162 37.3367 91.6518C38.4833 96.454 39.1005 102.265 41.4848 111.056C42.1592 113.532 43.4003 116.516 43.7072 118.014C43.8387 119.912 44.5368 124.887 45.4507 126.981C46.8367 130.158 51.0758 130.056 51.4333 127.298C51.7334 124.954 50.1551 118.82 50.0843 117.282C50.0135 115.744 50.7757 104.413 49.4942 98.1065Z" fill="#C8856A"/>
<path d="M21.0048 49.5547L20.7958 51.5782C18.8769 62.7644 18.6981 77.5893 18.9039 82.0948C19.5041 95.3753 21.2173 118.796 21.2173 118.796C21.2173 118.796 21.7468 120.098 25.5238 120.398C28.4308 120.631 30.1204 119.643 30.1204 119.643C30.1204 119.643 31.4693 103.766 31.6818 99.9314C31.7533 98.2907 31.7184 96.6472 31.5773 95.0111C31.4046 92.9686 31.4295 90.9143 31.6515 88.8767L32.6632 77.5354C32.6632 77.5354 36.4267 93.2439 36.791 95.1561C38.6087 104.747 43.0197 122.526 43.0197 122.526C43.0197 122.526 46.092 123.336 48.8573 122.847C51.6227 122.358 52.2466 121.383 52.2466 121.383C52.2466 121.383 50.5368 101.388 50.1051 97.5134C49.5251 92.3334 48.9889 89.9221 48.5977 87.8009C48.1357 85.3053 47.9232 75.8964 47.586 70.423C47.3701 66.6898 47.2217 63.8536 46.7665 61.1119C45.8222 55.3788 43.0366 51.9323 41.9811 49.8212L41.8158 48.6914C38.693 51.2038 26.8526 52.7551 21.0048 49.5547Z" fill="#455A64"/>
<path d="M32.6665 77.5376L29.719 66.8337C29.719 66.8337 25.8914 66.1019 24.0096 64.0312C24.0096 64.0312 24.4345 66.6448 28.3937 67.9803L31.1793 77.3319L31.702 88.3259L32.6665 77.5376Z" fill="#37474F"/>
<path d="M39.8829 4.88947C39.9605 1.43278 33.2292 -2.34766 26.9127 1.85433C20.5963 6.05631 22.8895 10.1133 23.3279 11.3476L22.8996 27.8722L44.2974 28.3747C44.2974 28.3747 43.2856 13.4789 43.343 11.0474C43.4003 8.61595 43.2351 4.96703 39.8829 4.88947Z" fill="#263238"/>
<path d="M37.1067 23.0212L42.2968 24.4039C43.3321 24.7411 42.1653 30.8552 42.4553 37.836C42.7487 45.0024 44.7856 56.6 44.7856 56.6C44.7856 56.6 39.926 58.6234 31.2118 58.4851C22.6089 58.3435 20.0391 55.6591 20.0391 55.6591L21.1958 47.1944L21.7725 40.534C21.7725 40.534 18.68 36.2038 20.4 31.9479C22.1199 27.6919 28.0586 22.168 28.0586 22.168L30.7262 22.2995L37.1067 23.0212Z" fill="#0071CE"/>
<path opacity="0.7" d="M37.1067 23.0212L42.2968 24.4039C43.3321 24.7411 42.1653 30.8552 42.4553 37.836C42.7487 45.0024 44.7856 56.6 44.7856 56.6C44.7856 56.6 39.926 58.6234 31.2118 58.4851C22.6089 58.3435 20.0391 55.6591 20.0391 55.6591L21.1958 47.1944L21.7725 40.534C21.7725 40.534 18.68 36.2038 20.4 31.9479C22.1199 27.6919 28.0586 22.168 28.0586 22.168L30.7262 22.2995L37.1067 23.0212Z" fill="white"/>
<path opacity="0.3" d="M37.6218 40.0148C37.0607 40.8349 36.2975 41.4963 35.4061 41.9353C34.5146 42.3742 33.525 42.5758 32.5329 42.5205C31.6024 42.4632 30.6999 42.1799 29.9037 41.6951C29.1074 41.2103 28.4414 40.5386 27.9633 39.7383C27.9633 39.7383 28.5602 43.3299 32.8668 43.4108C37.1733 43.4917 37.6218 40.0148 37.6218 40.0148Z" fill="#0071CE"/>
<path d="M30.936 22.5118C28.7912 24.3025 25.4525 26.7104 23.473 29.297C19.4733 34.531 18.6032 39.3467 18.2862 45.4305C18.2222 36.3251 17.1093 31.2159 28.0661 21.8238C30.0221 20.1377 30.7978 19.7734 30.7978 19.7734L30.936 22.5118Z" fill="#E0E0E0"/>
<path d="M38.149 21.3086C37.9905 23.558 35.6197 29.1932 35.4005 35.331C35.1813 41.4687 38.5739 81.337 38.5739 81.337C38.5739 81.337 45.0725 82.1598 49.8579 79.4349C49.8579 79.4349 48.1717 64.9708 44.4621 48.898C43.5077 44.7298 45.2512 39.5599 45.602 33.9415C45.7973 30.8883 45.4 27.8261 44.4318 24.9238C44.4318 24.9238 40.9515 23.7603 39.8892 23.1432C39.1769 22.6722 38.5817 22.0447 38.149 21.3086Z" fill="#F0F0F0"/>
<path d="M38.4089 22.3979C38.2571 23.1229 38.0143 23.9998 37.7344 25.0148C36.9891 27.7364 35.9639 31.4595 35.8256 35.3478C35.6233 41.0809 38.6314 76.99 38.9653 80.9492C39.3498 80.9829 40.031 81.0301 40.8977 81.0301C43.2583 81.0301 46.6004 80.6929 49.4028 79.1989C49.1431 77.0979 47.4165 63.6353 44.061 48.9925C43.4371 46.2676 43.9294 43.1414 44.4522 39.8331C44.7523 37.9243 45.0659 35.9515 45.1907 33.9179C45.3663 30.9905 45.0005 28.0558 44.1116 25.261C43.3494 25.0014 40.638 24.0638 39.687 23.5108C39.2016 23.214 38.7696 22.8378 38.4089 22.3979ZM38.1492 21.3086C38.5858 22.0462 39.1857 22.6738 39.9028 23.1432C40.9651 23.7603 44.4454 24.9238 44.4454 24.9238C45.4136 27.8261 45.811 30.8883 45.6156 33.9415C45.2784 39.5599 43.5214 44.7332 44.4758 48.898C48.1584 64.9708 49.8716 79.4349 49.8716 79.4349C46.887 81.1211 43.2381 81.4584 40.9112 81.4584C40.135 81.4637 39.3592 81.4243 38.5876 81.3403C38.5876 81.3403 35.2152 41.4754 35.4142 35.3343C35.6132 29.1932 38.0042 23.5613 38.1627 21.312L38.1492 21.3086Z" fill="#EBEBEB"/>
<path d="M26.7066 5.95993C26.0726 6.43543 25.2363 7.91928 25.3577 10.4182C25.4218 11.1736 24.9361 11.9628 24.9058 13.3724C24.7844 18.7042 25.7152 19.6653 27.145 20.3263C28.156 20.7849 29.2556 21.0152 30.3657 21.0007L30.1971 23.5772C29.2798 25.0914 29.3101 25.9379 29.4619 27.8973C34.2372 26.5281 37.94 23.2569 37.9434 23.2468L38.1221 17.2304C38.1221 17.2304 38.574 17.1056 38.574 17.109C38.9103 17.3743 39.3261 17.5186 39.7544 17.5186C40.1827 17.5186 40.5985 17.3743 40.9347 17.109C42.0206 16.3131 42.7592 14.3133 41.8284 13.1667C40.8976 12.0201 39.1946 12.4619 38.5707 13.4466C37.9468 14.4313 36.4596 14.1211 36.9418 12.6136C36.2673 12.2764 35.431 11.5648 36.1156 8.79273C36.2707 8.08115 36.038 6.84686 35.3737 6.23309C34.2675 5.22137 32.0687 5.38662 30.8007 6.60742C29.101 5.17753 28.0185 4.97856 26.7066 5.95993Z" fill="#C8856A"/>
<path d="M26.8328 8.89889L28.5864 8.56165C28.5703 8.44651 28.5308 8.33587 28.4705 8.23647C28.4102 8.13706 28.3303 8.05098 28.2356 7.98346C28.141 7.91594 28.0335 7.86839 27.9199 7.84372C27.8063 7.81905 27.6888 7.81777 27.5747 7.83996C27.3392 7.88824 27.131 8.02487 26.993 8.2218C26.8551 8.41873 26.7977 8.661 26.8328 8.89889Z" fill="#263238"/>
<path d="M34.6865 9.72407L33.0003 9.09343C33.0361 8.98259 33.0941 8.88021 33.1708 8.79254C33.2475 8.70488 33.3412 8.63378 33.4464 8.58359C33.5515 8.53341 33.6657 8.50518 33.7821 8.50065C33.8985 8.49612 34.0146 8.51537 34.1233 8.55723C34.3498 8.64115 34.535 8.80958 34.64 9.02714C34.7451 9.24471 34.7617 9.4945 34.6865 9.72407Z" fill="#263238"/>
<path d="M32.3924 15.7695L29.8969 16.5452C29.9389 16.7104 30.0143 16.8653 30.1184 17.0003C30.2225 17.1353 30.3531 17.2477 30.5021 17.3304C30.6512 17.4131 30.8156 17.4645 30.9852 17.4814C31.1549 17.4984 31.3262 17.4804 31.4886 17.4287C31.8226 17.3198 32.1023 17.0873 32.2704 16.7788C32.4384 16.4703 32.4821 16.1092 32.3924 15.7695Z" fill="#AF6152"/>
<path d="M30.9156 17.4803C30.9288 17.1725 31.0631 16.8825 31.2893 16.6734C31.5154 16.4643 31.8151 16.3531 32.1229 16.364C32.2181 16.3657 32.3124 16.3816 32.4028 16.4112C32.3574 16.6495 32.2485 16.8711 32.0876 17.0528C31.9268 17.2344 31.72 17.3692 31.4889 17.4432C31.3034 17.5005 31.107 17.5132 30.9156 17.4803Z" fill="#FFA8A7"/>
<path d="M30.8384 10.2734L30.3292 15.0184L27.9786 14.3034L30.8384 10.2734Z" fill="#AF6152"/>
<path d="M30.3489 20.9909C32.062 20.9335 35.9268 20.0028 36.8677 17.75C36.8677 17.75 36.6991 19.3687 34.5711 20.5761C32.8849 21.5304 30.2983 21.7362 30.2983 21.7362L30.3489 20.9909Z" fill="#AF6152"/>
<path d="M32.2683 11.4917C32.2772 11.6406 32.3299 11.7835 32.4199 11.9025C32.5099 12.0215 32.6331 12.1111 32.7739 12.1602C32.9148 12.2093 33.067 12.2155 33.2114 12.1782C33.3559 12.1409 33.486 12.0616 33.5854 11.9505C33.6849 11.8393 33.7492 11.7012 33.7703 11.5535C33.7913 11.4058 33.7682 11.2552 33.7038 11.1207C33.6394 10.9861 33.5366 10.8737 33.4084 10.7975C33.2802 10.7212 33.1322 10.6847 32.9833 10.6924C32.7825 10.7037 32.5945 10.7943 32.4604 10.9441C32.3264 11.094 32.2573 11.2909 32.2683 11.4917Z" fill="#263238"/>
<path d="M26.6663 11.1392C26.6944 11.2868 26.7657 11.4226 26.8711 11.5296C26.9765 11.6366 27.1113 11.7099 27.2584 11.7402C27.4055 11.7706 27.5584 11.7565 27.6975 11.6999C27.8366 11.6434 27.9558 11.5468 28.04 11.4224C28.1242 11.298 28.1696 11.1514 28.1704 11.0012C28.1712 10.851 28.1274 10.7039 28.0446 10.5786C27.9618 10.4533 27.8436 10.3554 27.7051 10.2973C27.5666 10.2392 27.414 10.2236 27.2666 10.2523C27.1688 10.2709 27.0757 10.3086 26.9925 10.3633C26.9094 10.418 26.8379 10.4886 26.7821 10.571C26.7263 10.6534 26.6873 10.746 26.6675 10.8435C26.6476 10.9411 26.6472 11.0415 26.6663 11.1392Z" fill="#263238"/>
<path d="M41.3325 23.7731C40.4759 23.392 39.5047 22.3196 39.0022 21.7227C38.4997 21.1257 38.3277 20.7109 37.9905 20.7109V21.7867C37.9905 21.7867 35.2656 27.9683 35.2926 33.381C35.2319 37.0906 35.6298 41.4511 35.6298 41.4511C36.7461 38.8274 39.3394 34.5107 39.3394 34.5107L37.923 31.1147C38.7729 27.7558 40.712 25.5739 41.3325 23.7731Z" fill="#E0E0E0"/>
<path d="M37.488 42.3511C37.5551 42.3127 37.6347 42.3024 37.7093 42.3227C37.7839 42.3429 37.8475 42.392 37.8859 42.459C37.9244 42.5261 37.9346 42.6057 37.9144 42.6804C37.8942 42.755 37.8451 42.8185 37.778 42.857L37.5251 43.002C37.5034 43.0158 37.4783 43.0231 37.4526 43.0231C37.4269 43.0231 37.4017 43.0158 37.3801 43.002C37.3201 42.9628 37.2702 42.91 37.2344 42.8479C37.1987 42.7858 37.1781 42.7161 37.1744 42.6445C37.1721 42.6187 37.1765 42.5928 37.1872 42.5692C37.1978 42.5456 37.2143 42.5251 37.2351 42.5096L37.488 42.3646V42.3511Z" fill="#455A64"/>
<path d="M37.1753 42.6304C37.1731 42.6046 37.1775 42.5786 37.1881 42.555C37.1987 42.5314 37.2152 42.5109 37.236 42.4955L37.4889 42.3505C37.532 42.3256 37.5808 42.3125 37.6306 42.3125C37.6803 42.3125 37.7292 42.3256 37.7722 42.3505C37.6947 42.3201 37.5732 42.3909 37.435 42.4719C37.2967 42.5528 37.2259 42.6573 37.3372 42.8698C37.4181 43.0249 37.5125 43.0081 37.5564 42.9878L37.5294 43.0047C37.5077 43.0185 37.4826 43.0258 37.4569 43.0258C37.4312 43.0258 37.4061 43.0185 37.3844 43.0047C37.3215 42.9643 37.2695 42.909 37.233 42.8437C37.1966 42.7784 37.1767 42.7051 37.1753 42.6304Z" fill="#37474F"/>
<path d="M36.273 42.3353C36.3762 42.2679 36.4921 42.2222 36.6135 42.201C36.735 42.1798 36.8595 42.1836 36.9794 42.2122C37.0994 42.2407 37.2122 42.2934 37.3111 42.367C37.41 42.4407 37.4928 42.5337 37.5546 42.6404C37.6163 42.7471 37.6557 42.8653 37.6702 42.9877C37.6847 43.1102 37.6741 43.2343 37.6391 43.3525C37.6041 43.4707 37.5453 43.5805 37.4664 43.6753C37.3875 43.77 37.2901 43.8476 37.1802 43.9035C37.1075 43.9366 37.0273 43.9496 36.9478 43.9413C36.8684 43.933 36.7926 43.9037 36.7283 43.8563C36.5417 43.7356 36.3863 43.5725 36.275 43.3802C36.1636 43.1879 36.0993 42.972 36.0875 42.7501C36.0791 42.6708 36.0918 42.5906 36.1243 42.5177C36.1569 42.4449 36.2082 42.3819 36.273 42.3353Z" fill="#0071CE"/>
<path d="M36.7424 42.3794C36.929 42.5008 37.0844 42.6645 37.1957 42.8573C37.3071 43.0502 37.3713 43.2666 37.3831 43.4889C37.3913 43.5682 37.3784 43.6483 37.3458 43.7211C37.3133 43.7939 37.2622 43.8569 37.1977 43.9037L31.6029 47.1344C31.5305 47.168 31.4504 47.1816 31.371 47.1739C31.2915 47.1662 31.2156 47.1375 31.151 47.0906C30.9643 46.9692 30.809 46.8055 30.6976 46.6126C30.5863 46.4198 30.5221 46.2034 30.5102 45.9811C30.5021 45.9018 30.515 45.8217 30.5475 45.7489C30.5801 45.6761 30.6312 45.6131 30.6957 45.5663L36.2736 42.3355C36.3481 42.2987 36.4314 42.2833 36.5142 42.291C36.597 42.2988 36.676 42.3293 36.7424 42.3794Z" fill="#0071CE"/>
<path opacity="0.2" d="M36.7424 42.3794C36.929 42.5008 37.0844 42.6645 37.1957 42.8573C37.3071 43.0502 37.3713 43.2666 37.3831 43.4889C37.3913 43.5682 37.3784 43.6483 37.3458 43.7211C37.3133 43.7939 37.2622 43.8569 37.1977 43.9037L31.6029 47.1344C31.5305 47.168 31.4504 47.1816 31.371 47.1739C31.2915 47.1662 31.2156 47.1375 31.151 47.0906C30.9643 46.9692 30.809 46.8055 30.6976 46.6126C30.5863 46.4198 30.5221 46.2034 30.5102 45.9811C30.5021 45.9018 30.515 45.8217 30.5475 45.7489C30.5801 45.6761 30.6312 45.6131 30.6957 45.5663L36.2736 42.3355C36.3481 42.2987 36.4314 42.2833 36.5142 42.291C36.597 42.2988 36.676 42.3293 36.7424 42.3794Z" fill="white"/>
<path d="M30.1595 46.1647C30.1712 46.3931 30.2369 46.6156 30.3512 46.8137C30.4656 47.0119 30.6252 47.1801 30.8171 47.3045C30.8838 47.3525 30.9619 47.3821 31.0435 47.3904C31.1252 47.3986 31.2076 47.3853 31.2825 47.3518L31.7142 47.1022C31.7811 47.0548 31.8341 46.9905 31.8679 46.9158C31.9016 46.8411 31.915 46.7588 31.9064 46.6773C31.8921 46.4475 31.8235 46.2244 31.7062 46.0263C31.589 45.8281 31.4264 45.6606 31.232 45.5374C31.1653 45.4895 31.0872 45.4599 31.0056 45.4516C30.9239 45.4433 30.8415 45.4566 30.7666 45.4902L30.3349 45.7398C30.2711 45.7891 30.2214 45.8543 30.1906 45.9289C30.1599 46.0034 30.1491 46.0847 30.1595 46.1647Z" fill="#0071CE"/>
<path opacity="0.35" d="M30.1595 46.1647C30.1712 46.3931 30.2369 46.6156 30.3512 46.8137C30.4656 47.0119 30.6252 47.1801 30.8171 47.3045C30.8838 47.3525 30.9619 47.3821 31.0435 47.3904C31.1252 47.3986 31.2076 47.3853 31.2825 47.3518L31.7142 47.1022C31.7811 47.0548 31.8341 46.9905 31.8679 46.9158C31.9016 46.8411 31.915 46.7588 31.9064 46.6773C31.8921 46.4475 31.8235 46.2244 31.7062 46.0263C31.589 45.8281 31.4264 45.6606 31.232 45.5374C31.1653 45.4895 31.0872 45.4599 31.0056 45.4516C30.9239 45.4433 30.8415 45.4566 30.7666 45.4902L30.3349 45.7398C30.2711 45.7891 30.2214 45.8543 30.1906 45.9289C30.1599 46.0034 30.1491 46.0847 30.1595 46.1647Z" fill="white"/>
<path d="M31.4736 46.9226C31.4592 46.6929 31.3906 46.4698 31.2733 46.2716C31.1561 46.0735 30.9936 45.906 30.7991 45.7828C30.736 45.7276 30.6571 45.6936 30.5737 45.6855C30.4902 45.6774 30.4063 45.6956 30.3337 45.7377C30.2612 45.7797 30.2036 45.8434 30.1691 45.9199C30.1346 45.9963 30.125 46.0816 30.1415 46.1639C30.1532 46.3923 30.2189 46.6147 30.3332 46.8129C30.4475 47.011 30.6072 47.1792 30.7991 47.3037C30.8657 47.3517 30.9438 47.3812 31.0255 47.3895C31.1071 47.3978 31.1896 47.3845 31.2645 47.3509C31.335 47.3053 31.3917 47.2413 31.4285 47.1658C31.4653 47.0904 31.4809 47.0063 31.4736 46.9226Z" fill="#0071CE"/>
<path opacity="0.15" d="M31.4736 46.9226C31.4592 46.6929 31.3906 46.4698 31.2733 46.2716C31.1561 46.0735 30.9936 45.906 30.7991 45.7828C30.736 45.7276 30.6571 45.6936 30.5737 45.6855C30.4902 45.6774 30.4063 45.6956 30.3337 45.7377C30.2612 45.7797 30.2036 45.8434 30.1691 45.9199C30.1346 45.9963 30.125 46.0816 30.1415 46.1639C30.1532 46.3923 30.2189 46.6147 30.3332 46.8129C30.4475 47.011 30.6072 47.1792 30.7991 47.3037C30.8657 47.3517 30.9438 47.3812 31.0255 47.3895C31.1071 47.3978 31.1896 47.3845 31.2645 47.3509C31.335 47.3053 31.3917 47.2413 31.4285 47.1658C31.4653 47.0904 31.4809 47.0063 31.4736 46.9226Z" fill="black"/>
<path d="M26.0759 50.2132C26.1346 50.1729 26.1812 50.1174 26.2109 50.0527C26.2406 49.988 26.2522 49.9164 26.2445 49.8456C26.2336 49.6478 26.1763 49.4553 26.0773 49.2837C25.9783 49.112 25.8404 48.9661 25.6746 48.8575C25.6166 48.816 25.5487 48.7904 25.4777 48.7833C25.4066 48.7762 25.335 48.7878 25.2699 48.8171L25.0608 49.0194C25.0229 49.0605 24.9938 49.109 24.9752 49.1617C24.9567 49.2145 24.9491 49.2705 24.9529 49.3263C24.9632 49.5086 25.0162 49.686 25.1076 49.8442C25.1989 50.0023 25.3262 50.1368 25.479 50.2368C25.5252 50.2674 25.5771 50.2882 25.6316 50.2981C25.6861 50.308 25.742 50.3066 25.796 50.2942L26.0759 50.2132Z" fill="#0071CE"/>
<g opacity="0.15">
<path d="M26.0759 50.2132C26.1346 50.1729 26.1812 50.1174 26.2109 50.0527C26.2406 49.988 26.2522 49.9164 26.2445 49.8456C26.2336 49.6478 26.1763 49.4553 26.0773 49.2837C25.9783 49.112 25.8404 48.9661 25.6746 48.8575C25.6166 48.816 25.5487 48.7904 25.4777 48.7833C25.4066 48.7762 25.335 48.7878 25.2699 48.8171L25.0608 49.0194C25.0229 49.0605 24.9938 49.109 24.9752 49.1617C24.9567 49.2145 24.9491 49.2705 24.9529 49.3263C24.9632 49.5086 25.0162 49.686 25.1076 49.8442C25.1989 50.0023 25.3262 50.1368 25.479 50.2368C25.5252 50.2674 25.5771 50.2882 25.6316 50.2981C25.6861 50.308 25.742 50.3066 25.796 50.2942L26.0759 50.2132Z" fill="black"/>
</g>
<path d="M26.2447 49.856C26.2338 49.6581 26.1765 49.4657 26.0775 49.294C25.9785 49.1224 25.8406 48.9764 25.6748 48.8679C25.6168 48.8263 25.5489 48.8007 25.4779 48.7936C25.4069 48.7865 25.3352 48.7982 25.2701 48.8274L30.3287 45.9137C30.3933 45.8829 30.4649 45.8701 30.5361 45.8767C30.6073 45.8832 30.6755 45.9088 30.7334 45.9508C30.8991 46.0593 31.0371 46.2053 31.1361 46.3769C31.2351 46.5485 31.2924 46.741 31.3033 46.9389C31.3105 47.0098 31.2991 47.0813 31.2701 47.1464C31.2411 47.2114 31.1956 47.2678 31.1381 47.3098L26.0795 50.2236C26.1375 50.1828 26.1835 50.1272 26.2126 50.0625C26.2417 49.9978 26.2528 49.9264 26.2447 49.856Z" fill="#0071CE"/>
<path d="M25.0404 49.047C25.0985 49.019 25.163 49.0073 25.2272 49.0132C25.2914 49.0192 25.3528 49.0425 25.4046 49.0808C25.5533 49.1781 25.6769 49.3092 25.7654 49.4633C25.8539 49.6174 25.9047 49.7902 25.9139 49.9677C25.9221 50.0321 25.9126 50.0975 25.8865 50.1569C25.8603 50.2163 25.8185 50.2675 25.7655 50.3049C25.4282 50.4904 24.4671 50.8445 23.9882 50.7872C23.962 50.7851 23.9367 50.777 23.9141 50.7636C23.858 50.7265 23.8116 50.6765 23.7787 50.6179C23.7458 50.5592 23.7275 50.4935 23.7252 50.4263C23.7197 50.403 23.7197 50.3788 23.7252 50.3555C23.9208 49.9002 24.7234 49.2325 25.0404 49.047Z" fill="#0071CE"/>
<path opacity="0.2" d="M30.7191 45.9421C30.7774 45.9765 30.8317 46.0172 30.881 46.0635L25.8224 48.9806C25.7718 48.9359 25.7177 48.8953 25.6606 48.8592H25.6302L30.6888 45.9455L30.7191 45.9421ZM31.0564 45.4565H31.107L36.0846 42.5798C36.7355 42.2021 37.0053 42.2122 37.2683 42.364C37.0086 42.2696 36.4151 42.6169 36.3375 42.6608L31.3161 45.561L31.2554 45.5239L30.8237 45.7701C30.7609 45.7359 30.6941 45.7098 30.6247 45.6925L31.0564 45.4565ZM23.7586 50.5656L23.8361 50.4105C23.8361 50.4105 23.8361 50.2925 24.1464 49.9586C24.5232 49.6066 24.9492 49.3112 25.411 49.0818C25.4796 49.1221 25.5421 49.1721 25.5965 49.2302C25.1158 49.4703 24.6634 49.7633 24.2475 50.1036C24.0764 50.2485 23.9225 50.4125 23.7889 50.5926C23.7889 50.5926 23.7552 50.5757 23.7518 50.5656H23.7586Z" fill="white"/>
<path d="M23.969 50.653L23.7599 50.7744C23.6689 50.825 23.4227 50.9093 23.3721 50.8351C23.3215 50.7609 23.5306 50.5821 23.6216 50.5282L23.8307 50.4102C23.8307 50.4102 23.8813 50.4102 23.9386 50.508C23.996 50.6058 23.969 50.653 23.969 50.653Z" fill="#455A64"/>
<path d="M23.3934 50.7422C23.4055 50.7451 23.417 50.7503 23.4272 50.7576C23.4373 50.765 23.4459 50.7742 23.4525 50.7849C23.4621 50.8091 23.4621 50.8361 23.4525 50.8604C23.4098 50.8604 23.3769 50.8604 23.3638 50.8308C23.3507 50.8013 23.3704 50.7783 23.3934 50.7422Z" fill="#263238"/>
<path d="M51.288 48.6814C51.3993 46.6276 50.9508 40.8743 50.4887 35.4752C49.848 28.0559 48.499 27.0037 44.6512 25.5469C41.4676 27.2769 40.8539 30.5852 42.0409 38.0247L43.0526 46.6782C40.9854 47.1166 38.1762 47.6899 35.8054 47.0155C35.3216 46.878 34.8739 46.6363 34.4935 46.3072C34.2643 46.129 34.0051 45.993 33.728 45.9059L33.2188 46.2061C32.8815 46.2364 32.5207 46.2904 32.1868 46.3039C31.4179 46.3342 30.3388 46.3039 29.5665 46.3477C27.8803 46.4489 26.6157 46.5501 25.0779 47.2212C24.7878 47.3493 24.4236 47.5753 24.0661 47.7844C23.7896 47.9395 24.0661 48.2531 24.2381 48.361C24.4542 48.4953 24.695 48.5848 24.9463 48.6241C25.2833 48.6588 25.6234 48.6498 25.958 48.5971C26.0482 48.5823 26.1408 48.594 26.2245 48.6308C26.2972 48.6818 26.3468 48.7593 26.3627 48.8467C26.3745 48.9316 26.3813 49.0172 26.383 49.103C26.3994 49.3179 26.4652 49.5261 26.5751 49.7115C26.6851 49.8969 26.8363 50.0545 27.017 50.172C27.1687 50.2664 27.334 50.3305 27.4891 50.4216C27.6739 50.5472 27.8302 50.7104 27.9478 50.9004C28.1164 51.1196 28.285 51.349 28.4536 51.5749C29.0505 52.3101 29.3169 52.3506 30.5613 52.6574C31.8058 52.9643 32.7062 52.5327 34.4733 52.6574C36.2404 52.7822 42.6041 53.8142 45.4774 53.8951C50.826 54.0131 51.089 52.3708 51.288 48.6814Z" fill="#C8856A"/>
<path d="M43.0659 46.6715C45.2209 46.2702 47.5276 46.3613 48.8833 47.346C46.6609 44.9651 42.9783 45.9465 42.9783 45.9465L43.0659 46.6715Z" fill="#F28F8F"/>
<path d="M44.4457 24.9258C47.2077 25.6846 49.5785 27.246 50.1788 29.9405C50.7791 32.635 51.4502 40.5433 51.5716 44.5395C51.693 48.5358 51.5716 51.7935 50.7622 52.7783C49.9528 53.763 49.0929 54.1475 46.83 54.1441C44.5671 54.1407 39.8762 53.6686 39.8762 53.6686C39.8762 53.6686 40.7361 49.5206 39.2826 47.2813L42.628 46.5461C42.628 46.5461 41.4409 36.5706 41.1712 34.1998C40.9014 31.829 40.9958 27.6169 44.4457 24.9258Z" fill="#E0E0E0"/>
<path d="M2.33447 32.8672L19.9214 36.9511L26.8247 56.5683L26.4908 57.0101L9.73348 52.798L2.00061 33.3123L2.33447 32.8672Z" fill="#0071CE"/>
<path opacity="0.35" d="M19.5878 37.3944L26.4911 57.0081L26.825 56.5664L19.9217 36.9492L19.5878 37.3944Z" fill="black"/>
<path opacity="0.25" d="M2.00073 33.3125L19.5877 37.3965L26.491 57.0102L9.73361 52.7981L2.00073 33.3125Z" fill="black"/>
<g opacity="0.1">
<path d="M7.55976 36.8714C7.55976 36.8714 7.46533 36.5746 7.34392 36.1969C7.22252 35.8192 8.24098 35.917 9.61354 36.3857L12.7701 36.9725C14.1393 37.4413 15.4208 37.7617 15.5388 38.1259L15.7546 38.8004L7.55976 36.8714Z" fill="black"/>
</g>
<path d="M6.21241 33.9273C6.13822 33.7014 6.52942 33.7047 7.08586 33.789L8.09757 34.0116C8.09757 34.0116 7.59172 33.0775 9.96587 33.4451C12.5795 33.8497 12.7751 35.111 12.7751 35.111C13.1929 35.2367 13.6173 35.3391 14.0465 35.4179C14.9165 35.6 15.0312 35.7551 15.1256 35.9811L15.2976 36.3959L6.33382 34.3185C6.33382 34.3185 6.2866 34.1566 6.21241 33.9273Z" fill="#37474F"/>
<path d="M7.26359 35.1213C8.09994 35.3945 8.45404 35.5361 8.63615 36.096C8.84524 36.7401 8.90594 37.0099 8.90594 37.0099L13.5935 38.2813C13.5935 38.2813 13.2563 37.3404 13.1484 37.0267C13.0405 36.7131 13.6441 36.6389 14.4636 36.9121L14.1871 36.1297L6.91623 34.3086L7.26359 35.1213Z" fill="#37474F"/>
<path d="M7.32928 36.9086L7.11345 36.2341C6.99542 35.8699 8.0105 35.9542 9.37969 36.423L12.5362 37.0401C13.9088 37.5089 15.1903 37.8293 15.3083 38.1935L15.5242 38.8511L7.32928 36.9086Z" fill="#37474F"/>
<path d="M4.47285 42.3334C3.87256 41.6589 3.90966 41.5712 4.13561 41.1699C4.31197 40.852 4.56147 40.5807 4.86348 40.3784C5.16549 40.1761 5.51133 40.0486 5.87239 40.0064C6.5064 39.9525 7.14715 39.8648 7.4945 40.0064C7.84186 40.1481 7.64289 40.8596 6.82003 41.1429C5.55538 41.5847 5.6026 41.9388 5.6026 41.9388C6.1509 41.7381 6.70921 41.5659 7.27529 41.4228C7.75417 41.3385 8.66135 41.4667 9.22116 41.4869C9.78098 41.5071 9.9732 42.2052 9.0694 42.5593L10.0811 42.6031C10.7994 42.6335 11.0928 42.9775 10.5802 43.48C10.4182 43.6507 10.203 43.7612 9.96983 43.7936C9.96983 43.7936 10.7219 43.7059 10.7657 43.9521C10.8939 44.6637 10.4521 44.9065 8.98847 45.5236C7.83511 46.0093 7.41356 46.6804 7.49787 47.1828L7.61253 47.4729C7.61253 47.4729 7.11342 47.1592 6.55361 46.8625C6.14217 46.6433 5.7847 46.387 5.87913 45.7732C5.87913 45.7732 5.05627 45.8845 4.94498 45.382C4.88812 45.008 4.91227 44.6262 5.0158 44.2624C4.85806 44.1961 4.72235 44.0865 4.62444 43.9462C4.52654 43.8059 4.47046 43.6408 4.46273 43.4699C4.42146 43.1454 4.49034 42.8164 4.65833 42.5357L4.47285 42.3334Z" fill="#C8856A"/>
<path d="M9.06909 42.5695C8.76182 42.5393 8.45233 42.5393 8.14506 42.5695C7.84273 42.6535 7.555 42.7831 7.29185 42.954C6.76609 43.2597 6.26641 43.6083 5.79788 43.9961C6.36332 43.7741 6.90834 43.5033 7.42674 43.1867C7.67023 43.0259 7.92754 42.8871 8.19565 42.7719C8.46206 42.7044 8.77907 42.6606 9.06909 42.5695Z" fill="#AF6152"/>
<path d="M9.98315 43.8042C9.65057 43.749 9.30941 43.7792 8.99168 43.8919C8.67673 43.9981 8.3729 44.1348 8.08451 44.3C7.50889 44.6161 6.96852 44.9926 6.47251 45.423C7.07954 45.1633 7.6461 44.8463 8.21603 44.5327C8.75475 44.1823 9.354 43.9353 9.98315 43.8042Z" fill="#AF6152"/>
</g>
<defs>
<filter id="filter0_d_207_31040" x="0.000488281" y="0" width="55.373" height="139.996" filterUnits="userSpaceOnUse" color-interpolation-filters="sRGB">
<feFlood flood-opacity="0" result="BackgroundImageFix"/>
<feColorMatrix in="SourceAlpha" type="matrix" values="0 0 0 0 0 0 0 0 0 0 0 0 0 0 0 0 0 0 127 0" result="hardAlpha"/>
<feOffset dy="2"/>
<feGaussianBlur stdDeviation="1"/>
<feComposite in2="hardAlpha" operator="out"/>
<feColorMatrix type="matrix" values="0 0 0 0 0 0 0 0 0 0 0 0 0 0 0 0 0 0 0.25 0"/>
<feBlend mode="normal" in2="BackgroundImageFix" result="effect1_dropShadow_207_31040"/>
<feBlend mode="normal" in="SourceGraphic" in2="effect1_dropShadow_207_31040" result="shape"/>
</filter>
</defs>
</svg>
