<svg width="61" height="92" viewBox="0 0 61 92" fill="none" xmlns="http://www.w3.org/2000/svg">
<g filter="url(#filter0_d_900_31370)">
<path d="M24.5754 38.9801C27.0477 36.4316 31.155 30.4891 31.155 30.4891L33.6875 21.7296C33.7476 21.7536 32.3972 21.7576 31.9885 21.7296C29.2516 21.9139 28.4462 22.1303 26.7432 24.0096C25.3928 25.4882 20.396 33.258 18.6008 35.6302L13.6881 28.8422C12.5501 27.1191 12.7344 25.1917 12.1413 23.7812C11.5483 22.3707 10.5946 21.7536 9.82926 20.4834C9.0639 19.2131 8.87957 18.3796 8.25046 19.0288C7.62135 19.6779 8.34663 21.4331 8.4428 21.8338C8.53897 22.2345 9.49265 23.4366 7.89382 22.8035C6.29499 22.1704 3.81861 19.2532 3.17747 18.6561C2.53634 18.0591 2.20375 18.9847 2.348 19.718C2.49226 20.4513 1.80305 22.1223 2.05549 23.3244C2.31996 24.6107 2.5083 25.1997 3.74649 26.4459C4.90454 27.612 7.72953 29.0385 8.83549 30.5652C9.94145 32.0919 12.3016 36.8363 13.7442 39.6974C15.5794 43.3318 17.591 45.3995 19.9632 43.3679C21.7824 41.7851 23.6577 39.9258 24.5754 38.9801Z" fill="#FFBDA7"/>
<path d="M30.8979 21.6641C28.8022 21.8564 27.6923 22.3332 25.6006 25.0741C23.5089 27.815 18.6523 35.0317 18.6523 35.0317L14.4568 29.8986C14.4568 29.8986 11.5677 32.0985 10.049 34.6711C10.049 34.6711 14.1082 41.4832 15.7351 43.2022C17.362 44.9212 18.6202 45.0575 20.8321 43.2022C23.044 41.3469 29.4233 34.3105 29.4233 34.3105L30.8979 21.6641Z" fill="#F0F0F0"/>
<path d="M18.6528 35.0301C19.6025 36.4045 20.2156 38.6365 20.0473 39.7625C20.0473 39.7625 21.3696 38.2398 19.1457 34.3008L18.6528 35.0301Z" fill="#E0E0E0"/>
<path d="M49.3354 56.0709C49.4276 60.6951 50.4093 91.2972 50.4093 91.2972C50.7487 93.7981 50.9507 96.3156 51.0144 98.8386C51.1427 104.953 49.8604 119.467 49.8604 119.467C49.5759 120.785 44.6512 121.322 43.998 120.132C43.998 120.132 41.3052 99.079 40.5399 93.0283C39.8747 87.747 37.6748 70.4764 37.6748 70.4764L35.9758 87.4464C36.0408 89.4243 35.9939 91.4043 35.8355 93.3769C35.6392 96.1819 34.2327 112.687 34.2327 112.687C34.2087 113.717 29.0876 114.566 28.2221 113.052C28.2221 113.052 26.6192 88.9451 26.5511 86.3765C26.495 83.4473 26.9037 55.7383 26.9037 55.7383L49.3354 56.0709Z" fill="#37474F"/>
<path d="M37.1536 64.0021C35.2102 63.2495 33.4385 62.1129 31.9444 60.6602C31.9444 60.6602 32.7738 63.0644 36.1759 65.068L35.9515 86.1854L37.6665 70.4695L37.1536 64.0021Z" fill="#263238"/>
<path d="M41.6568 21.144C42.5183 21.3483 45.2631 22.0896 47.4911 22.875C48.6145 23.3039 49.589 24.0501 50.2961 25.0228C51.8989 27.383 50.4563 32.6363 49.2662 42.5098C49.3544 48.8891 49.5387 56.8231 49.5387 56.8231C46.6055 58.9589 32.9213 60.4095 26.7464 55.9015C26.7464 55.9015 26.542 31.9591 26.9507 28.8456C27.7521 22.883 30.0642 21.2922 34.8808 21.0117L41.6568 21.144Z" fill="#0071CE"/>
<path opacity="0.6" d="M41.6568 21.144C42.5183 21.3483 45.2631 22.0896 47.4911 22.875C48.6145 23.3039 49.589 24.0501 50.2961 25.0228C51.8989 27.383 50.4563 32.6363 49.2662 42.5098C49.3544 48.8891 49.5387 56.8231 49.5387 56.8231C46.6055 58.9589 32.9213 60.4095 26.7464 55.9015C26.7464 55.9015 26.542 31.9591 26.9507 28.8456C27.7521 22.883 30.0642 21.2922 34.8808 21.0117L41.6568 21.144Z" fill="white"/>
<path d="M33.246 28.1423C32.8132 29.633 30.2527 40.1075 30.6133 43.794C30.8881 45.6858 31.3997 47.5356 32.136 49.2998C33.246 51.9244 33.9873 49.5763 34.6044 48.0255C35.1264 46.5797 35.4761 45.0773 35.6462 43.5496C35.8506 41.5701 35.0532 35.5554 35.3617 28.503C35.1288 28.1748 34.7751 27.9525 34.3784 27.8849C33.9818 27.8173 33.5744 27.9099 33.246 28.1423Z" fill="#0071CE"/>
<path opacity="0.2" d="M33.246 28.1423C32.8132 29.633 30.2527 40.1075 30.6133 43.794C30.8881 45.6858 31.3997 47.5356 32.136 49.2998C33.246 51.9244 33.9873 49.5763 34.6044 48.0255C35.1264 46.5797 35.4761 45.0773 35.6462 43.5496C35.8506 41.5701 35.0532 35.5554 35.3617 28.503C35.1288 28.1748 34.7751 27.9525 34.3784 27.8849C33.9818 27.8173 33.5744 27.9099 33.246 28.1423Z" fill="black"/>
<path d="M33.1493 24.7745C32.1355 25.64 33.2454 28.1365 33.2454 28.1365C33.9708 27.9801 34.7286 28.1093 35.3612 28.4971C35.3612 28.4971 37.3647 27.6356 37.3848 26.1369C37.3848 24.7745 35.9382 25.2113 34.9084 25.031C33.8305 24.8426 33.2695 24.0452 33.1493 24.7745Z" fill="#0071CE"/>
<path opacity="0.2" d="M33.1493 24.7745C32.1355 25.64 33.2454 28.1365 33.2454 28.1365C33.9708 27.9801 34.7286 28.1093 35.3612 28.4971C35.3612 28.4971 37.3647 27.6356 37.3848 26.1369C37.3848 24.7745 35.9382 25.2113 34.9084 25.031C33.8305 24.8426 33.2695 24.0452 33.1493 24.7745Z" fill="black"/>
<path opacity="0.2" d="M33.2458 28.1437C33.4101 27.5586 34.2075 27.6147 34.8487 27.4144C35.2081 27.2718 35.5089 27.012 35.7022 26.6771C36.0307 26.1121 35.7022 25.1744 35.2454 25.0742C36.2271 25.1423 37.3932 24.9179 37.3891 26.1401C37.3891 27.6388 35.3656 28.5003 35.3656 28.5003C34.7313 28.1128 33.972 27.985 33.2458 28.1437Z" fill="black"/>
<path d="M40.2143 7.30368C40.1791 8.53498 39.78 9.72827 39.0673 10.733C38.3547 11.7377 37.3604 12.5088 36.2099 12.949C35.0595 13.3892 33.8044 13.4787 32.6031 13.2064C31.4018 12.934 30.3081 12.3119 29.4599 11.4186C28.6118 10.5252 28.0473 9.4007 27.8377 8.18687C27.628 6.97305 27.7826 5.72432 28.2819 4.59826C28.7813 3.4722 29.6029 2.51927 30.6433 1.85971C31.6836 1.20016 32.896 0.86354 34.1275 0.892329C34.9488 0.911529 35.7582 1.09284 36.5092 1.42585C37.2602 1.75885 37.9379 2.23699 38.5036 2.83277C39.0692 3.42855 39.5115 4.13024 39.8051 4.89751C40.0987 5.66478 40.2377 6.4825 40.2143 7.30368Z" fill="#455A64"/>
<path d="M44.6509 11.832C44.6509 11.832 43.5249 16.5524 43.1041 17.3218C42.8252 17.7957 42.3747 18.1443 41.8459 18.2955L41.9942 14.9576L44.6509 11.832Z" fill="#455A64"/>
<path d="M43.5452 5.00105C43.8976 4.97027 44.2523 5.01992 44.5827 5.14625C44.9132 5.27258 45.2106 5.4723 45.4525 5.73034C46.254 6.59988 45.737 9.24857 44.6511 11.8331L42.7437 12.0055L43.5452 5.00105Z" fill="#455A64"/>
<path d="M42.1697 11.9945C42.5464 12.2309 43.1073 11.5096 43.5922 11.0288C44.0771 10.5479 45.6238 9.91479 46.3531 11.5457C47.0824 13.1766 45.5837 15.3484 44.3496 15.701C42.2498 16.3061 41.9693 14.9597 41.9693 14.9597L41.6127 23.4708C40.1261 25.286 36.6279 25.3862 34.8928 25.0336C33.5063 24.7531 33.4863 23.7713 34.8527 22.2647L34.9168 19.8243C33.9874 19.9515 33.047 19.9784 32.1119 19.9045C30.5852 19.628 29.6435 18.3978 29.2228 16.7269C28.5816 14.1743 28.4213 11.3253 29.0665 6.66103C29.8679 0.926877 36.5798 1.0511 40.1341 3.38724C43.6884 5.72337 42.1697 11.9945 42.1697 11.9945Z" fill="#FFBDA7"/>
<path d="M42.1539 12.6344C42.3463 12.6344 43.1076 11.4322 43.5925 11.0315C44.2617 10.4505 43.5444 5.02089 43.5444 5.02089C43.7803 4.54769 43.8682 4.01442 43.7968 3.49053C43.7253 2.96664 43.4977 2.47642 43.1437 2.08369C42.2661 1.06989 41.04 -0.172306 36.9367 0.212376C34.0115 0.488865 30.8139 1.32234 28.2814 0C28.0234 0.830899 28.0195 1.71991 28.2701 2.55306C28.5207 3.38621 29.0144 4.12555 29.6879 4.67628C29.6879 4.67628 30.6055 5.29738 33.0378 5.65001C35.4701 6.00263 39.2849 5.74217 39.8058 5.68607C40.515 5.60593 40.6513 6.29515 40.9879 8.17848C41.3004 9.81338 41.5088 12.6063 42.1539 12.6344Z" fill="#455A64"/>
<path d="M43.5285 5.42522L45.8687 4.22309C45.7987 4.06568 45.6974 3.92415 45.5711 3.80709C45.4447 3.69004 45.2958 3.59991 45.1335 3.54219C44.9712 3.48447 44.7989 3.46036 44.627 3.47133C44.4551 3.4823 44.2872 3.52811 44.1336 3.60599C43.8164 3.77142 43.5759 4.0537 43.463 4.39318C43.3501 4.73266 43.3736 5.10274 43.5285 5.42522Z" fill="#455A64"/>
<path d="M34.9323 19.8245C34.9323 19.8245 38.3703 19.2194 39.5805 18.6224C40.2933 18.2715 40.8829 17.7126 41.2715 17.0195C41.074 17.715 40.7388 18.3636 40.2857 18.9269C39.3841 20.0249 34.9082 20.8102 34.9082 20.8102L34.9323 19.8245Z" fill="#F0997A"/>
<path d="M36.0838 11.1564C36.0965 11.2899 36.1482 11.4168 36.2323 11.5213C36.3165 11.6258 36.4295 11.7033 36.5572 11.7441C36.685 11.785 36.822 11.7874 36.9512 11.7512C37.0803 11.7149 37.196 11.6415 37.2839 11.5401C37.3717 11.4387 37.4278 11.3138 37.4453 11.1808C37.4628 11.0477 37.4409 10.9125 37.3822 10.7919C37.3235 10.6712 37.2307 10.5704 37.1153 10.502C36.9999 10.4336 36.867 10.4006 36.733 10.407C36.5475 10.4204 36.375 10.5068 36.2533 10.6473C36.1315 10.7878 36.0706 10.9709 36.0838 11.1564Z" fill="#263238"/>
<path d="M36.5286 8.57351L38.0352 9.30681C38.1303 9.10052 38.1416 8.86544 38.0669 8.65097C37.9921 8.4365 37.8372 8.25936 37.6345 8.15677C37.5354 8.10655 37.4269 8.07751 37.3159 8.07149C37.2049 8.06547 37.0939 8.08259 36.9899 8.12179C36.8859 8.16098 36.7911 8.22138 36.7117 8.29914C36.6323 8.37691 36.5699 8.47034 36.5286 8.57351Z" fill="#263238"/>
<path d="M35.6912 15.7734L33.5514 16.3585C33.5851 16.4999 33.6467 16.6331 33.7326 16.7504C33.8185 16.8676 33.9271 16.9665 34.0518 17.0411C34.1765 17.1158 34.3149 17.1648 34.4588 17.1852C34.6027 17.2056 34.7492 17.197 34.8898 17.1599C35.1751 17.0748 35.4171 16.8838 35.5661 16.626C35.7151 16.3682 35.7599 16.0632 35.6912 15.7734Z" fill="#F0997A"/>
<path d="M29.424 9.21374L31.0269 8.66477C30.9992 8.55716 30.9496 8.45647 30.881 8.36909C30.8124 8.2817 30.7264 8.20954 30.6284 8.15716C30.5305 8.10479 30.4227 8.07335 30.3119 8.06485C30.2011 8.05635 30.0898 8.07097 29.985 8.10778C29.7653 8.18198 29.5835 8.33938 29.4786 8.54617C29.3737 8.75296 29.3541 8.99265 29.424 9.21374Z" fill="#263238"/>
<path d="M30.2252 10.9617C30.2152 11.0527 30.2232 11.1448 30.2488 11.2328C30.2744 11.3207 30.317 11.4028 30.3743 11.4742C30.4316 11.5457 30.5025 11.6051 30.5827 11.6492C30.663 11.6932 30.7512 11.7211 30.8423 11.731C31.0275 11.7432 31.21 11.6819 31.3502 11.5604C31.4905 11.4388 31.5772 11.2669 31.5916 11.0819C31.5995 10.9922 31.5896 10.9018 31.5626 10.8159C31.5356 10.73 31.4919 10.6502 31.434 10.5812C31.3761 10.5122 31.3052 10.4552 31.2254 10.4136C31.1455 10.372 31.0582 10.3465 30.9685 10.3386C30.8788 10.3307 30.7884 10.3405 30.7025 10.3676C30.6166 10.3946 30.5368 10.4383 30.4678 10.4962C30.3988 10.554 30.3418 10.6249 30.3002 10.7048C30.2586 10.7847 30.2331 10.872 30.2252 10.9617Z" fill="#263238"/>
<path d="M33.9229 10.5742L33.6744 14.6975L31.5266 13.9522L33.9229 10.5742Z" fill="#F0997A"/>
<path d="M34.9082 25.0306C36.8116 24.6299 41.3195 22.8708 41.7443 20.6709L41.8004 19.4688C42.5417 19.4688 42.8783 20.2902 43.2429 21.4723C43.3952 24.5818 40.1134 27.4228 36.8316 28.1882C36.7214 27.4672 36.4753 26.7737 36.1063 26.1446C35.8265 25.6624 35.4094 25.2746 34.9082 25.0306Z" fill="#0071CE"/>
<path d="M34.9253 20.1289C34.4229 20.283 33.966 20.5582 33.5949 20.9303C31.1306 23.4828 32.5371 26.8288 32.5371 26.8288C32.6644 26.2724 32.9818 25.7778 33.4347 25.4303C33.8678 25.1361 34.3868 24.995 34.9093 25.0296C34.3042 24.3844 34.5406 23.2584 34.8692 22.2607L34.9253 20.1289Z" fill="#0071CE"/>
<path d="M27.761 9.101L28.0936 9.06894C29.2064 8.9336 30.3333 8.96874 31.4355 9.17312C32.5094 9.46564 32.8981 9.79022 33.4871 9.79823C34.0762 9.80624 34.5049 9.47366 35.6269 9.18514C36.8043 8.98754 38.0038 8.9592 39.1892 9.101L39.5498 9.14107L44.6509 10.5115C44.2124 10.5807 43.8093 10.7935 43.5049 11.1166L39.7863 10.1108C39.7342 10.1829 39.6821 10.247 39.646 10.2911C39.5947 10.3664 39.558 10.4507 39.5378 10.5395C39.4668 11.1163 39.3421 11.6851 39.1652 12.2385C39.0604 12.4669 38.9136 12.6735 38.7324 12.8476C38.663 12.9142 38.588 12.9745 38.508 13.0279L38.3758 13.1081C38.248 13.1771 38.1138 13.2335 37.9751 13.2764L37.9069 13.2964L37.8028 13.3245L37.6906 13.3485C37.5741 13.3718 37.4563 13.3878 37.3379 13.3966H37.1897H37.0013C35.5347 13.3966 34.9016 12.7715 34.5129 12.1264C34.1242 11.4812 34.1844 10.5716 33.5112 10.5716H33.447H33.3869C32.8901 10.6718 32.9862 11.5093 32.6897 12.1063C32.5779 12.3578 32.4218 12.5872 32.2289 12.7835L32.1207 12.8837L32.0606 12.9318L31.9965 12.9799L31.9404 13.0159L31.8803 13.056L31.8322 13.084H31.7961C31.6147 13.1806 31.4204 13.2507 31.2191 13.2924H31.167C30.9334 13.3382 30.6957 13.3597 30.4577 13.3565C29.0873 13.3565 28.5864 12.6232 28.346 12.1544C28.1358 11.602 27.9749 11.0321 27.8652 10.4514C27.8396 10.3662 27.7927 10.2889 27.7289 10.227C27.5578 10.0567 27.4419 9.83892 27.3963 9.60188C27.3928 9.48975 27.4268 9.37963 27.4928 9.28893C27.5588 9.19823 27.6532 9.13211 27.761 9.101ZM34.8776 11.5293C34.9764 11.8744 35.1693 12.1851 35.4346 12.4269C35.8825 12.7989 36.4565 12.984 37.0374 12.9438C37.3228 12.9644 37.6089 12.9162 37.8718 12.8033C38.1347 12.6903 38.3666 12.5159 38.5481 12.2946L38.5962 12.2305C38.6109 12.2101 38.6243 12.1887 38.6362 12.1664C38.6511 12.1483 38.6633 12.128 38.6723 12.1063L38.7044 12.0542L38.7244 12.0101C38.7244 12.0101 38.7244 11.9821 38.7444 11.9701C38.7645 11.9581 38.7645 11.93 38.7725 11.906C38.8005 11.8418 38.8206 11.7777 38.8406 11.7176C38.8406 11.6776 38.8646 11.6415 38.8726 11.6054C38.8807 11.5694 38.9047 11.4772 38.9167 11.4211C38.9287 11.365 38.9167 11.4011 38.9167 11.389V11.353C39.0129 10.9042 39.1131 10.0226 38.8526 9.82227C38.5922 9.62192 37.919 9.42156 36.8491 9.50171H36.7329C36.5672 9.51698 36.4026 9.5424 36.24 9.57784L36.0476 9.61791C35.8851 9.65639 35.7246 9.7032 35.5668 9.75816L35.4225 9.81426L35.2623 9.88238H35.2302L35.1741 9.91444C35.0533 9.96859 34.9454 10.0478 34.8575 10.1468C34.6331 10.4434 34.7373 11.0284 34.8776 11.5293ZM28.5103 11.3129C28.5676 11.6214 28.6954 11.9125 28.8838 12.1634C29.0721 12.4144 29.316 12.6184 29.5962 12.7595C29.8502 12.8652 30.1225 12.9197 30.3976 12.9198C30.6996 12.9533 31.0052 12.9095 31.2856 12.7924C31.566 12.6754 31.812 12.4889 32.0005 12.2506C32.0111 12.2382 32.0205 12.2248 32.0285 12.2105C32.0406 12.1954 32.0513 12.1793 32.0606 12.1624V12.1384L32.1007 12.0662L32.1407 11.9821C32.1414 11.9687 32.1414 11.9554 32.1407 11.942V11.906C32.1431 11.8968 32.1431 11.8871 32.1407 11.8779C32.1833 11.7707 32.2142 11.6592 32.2329 11.5453C32.3291 11.0444 32.3651 10.4594 32.1487 10.1829C31.9324 9.90642 31.1189 9.60188 30.3415 9.51373C30.1612 9.51373 29.9929 9.48167 29.8407 9.47766H29.3959H29.2636C29.1789 9.4849 29.0946 9.49694 29.0112 9.51373H28.9551H28.915H28.8549L28.7828 9.53376L28.6666 9.57784C28.5713 9.61327 28.4821 9.66328 28.4021 9.7261C28.2218 9.98256 28.3901 10.8681 28.5103 11.3129Z" fill="#37474F"/>
<path d="M41.7382 20.8047C41.7382 20.8047 40.2876 28.0856 39.6625 33.0103C39.0374 37.935 39.1536 51.8436 39.4902 60.6593C39.7306 67.0706 40.6923 78.9637 40.6923 78.9637C40.6923 78.9637 42.2951 79.2842 46.1059 78.6511C49.3677 78.1142 51.0186 77.1485 51.7158 76.7277C51.7158 76.7277 51.1107 58.6677 50.6499 52.3606C50.2292 46.5463 50.2492 43.3486 50.2492 43.3486L51.6197 30.0731C51.6197 30.0731 51.5155 21.7303 48.9269 21.3777C46.2542 21.0131 41.7382 20.8047 41.7382 20.8047Z" fill="#FAFAFA"/>
<path d="M44.2134 32.7444C44.2134 32.4399 44.2454 31.7827 44.2975 30.9493C44.554 26.8821 44.1813 20.9956 42.8109 20.7031L42.6867 21.2641C43.6924 21.4805 43.8487 28.9377 43.7245 30.9132C43.6684 31.7627 43.6283 32.4319 43.6404 32.7685L44.2134 32.7444Z" fill="#0071CE"/>
<path d="M49.419 64.1526C50.0802 63.0266 50.1162 62.1851 51.114 61.1793C51.5412 60.7662 51.8521 60.248 52.0156 59.6767C52.3201 58.7751 52.3041 57.8334 52.3762 56.8477L58.1665 57.1161C58.1179 59.2701 57.8793 61.4155 57.4532 63.5275C56.3553 68.364 55.2934 70.3997 53.2137 70.8685C49.8959 71.6178 49.0784 70.1873 50.2445 67.795C50.7452 66.7973 51.104 65.7345 51.3104 64.6375C50.9511 65.0608 50.5343 65.4317 50.0722 65.7394C49.8366 65.9152 49.5431 65.9952 49.2509 65.9632C48.9586 65.9312 48.6894 65.7897 48.4974 65.5671C48.3531 65.3547 48.8981 65.0382 49.419 64.1526Z" fill="#FFBDA7"/>
<path d="M47.8561 21.379C47.8561 21.379 50.9375 21.335 52.6646 22.8897C54.3917 24.4445 55.3093 28.6038 56.4273 32.7752C57.5452 36.9466 58.539 40.9938 58.8315 43.8949C59.08 46.2992 58.2705 59.0658 58.2705 59.0658C58.2705 59.0658 54.7483 59.8071 52.0395 58.3204L51.9233 44.1554L47.4554 29.9542C46.6395 27.1299 46.7804 24.115 47.8561 21.379Z" fill="#F0F0F0"/>
<path d="M41.8446 18.4318C42.2453 18.3477 42.6179 18.5601 42.9465 19.121C43.2751 19.682 44.0004 20.8601 44.0004 20.8601C44.0004 20.8601 44.373 24.7711 44.0004 25.7448C43.6758 26.5863 41.524 30.5533 41.524 30.5533C41.524 30.5533 41.6643 34.4161 41.7003 35.5702C41.7364 36.7242 39.5004 41.5408 39.248 43.7767C39.248 43.7767 39.1358 34.6846 39.4684 32.1561C40.0454 27.7483 40.7667 22.499 41.7404 20.6958L41.8446 18.4318Z" fill="#EBEBEB"/>
<path d="M45.0515 46.2396H45.0995V45.8388C44.6243 45.802 44.169 45.6326 43.7852 45.35C44.1968 45.076 44.5655 44.7424 44.8792 44.3602C45.5243 43.5227 46.9388 37.5482 46.506 36.1577C46.1374 34.9916 44.9914 32.4191 43.9736 32.375H43.9455C42.9277 32.375 41.5853 34.8073 41.1405 35.9293C40.5876 37.2797 41.4892 43.3504 42.0622 44.24C42.3414 44.6478 42.6804 45.0112 43.0679 45.3179C42.663 45.5699 42.1944 45.7006 41.7176 45.6946L41.6655 46.0953C42.2887 46.1046 42.9004 45.9258 43.4206 45.5824C43.8923 45.9492 44.4572 46.1768 45.0515 46.2396ZM43.9255 32.7717C44.5265 32.7957 45.6004 34.7071 46.0933 36.2699C46.494 37.5482 45.1316 43.3304 44.5345 44.1038C44.2121 44.4908 43.8307 44.8248 43.4045 45.0935C43.0003 44.7912 42.6472 44.4259 42.3587 44.0116C41.8298 43.1902 40.9642 37.3157 41.4731 36.0735C42.0902 34.5549 43.3084 32.7717 43.9134 32.7717H43.9255Z" fill="#455A64"/>
<path d="M41.0431 45.8663C41.0393 45.9435 41.0509 46.0206 41.0771 46.0933C41.1033 46.166 41.1436 46.2327 41.1958 46.2897C41.248 46.3467 41.3109 46.3929 41.381 46.4254C41.451 46.4579 41.5269 46.4763 41.6041 46.4794C41.6814 46.4828 41.7587 46.4709 41.8315 46.4445C41.9042 46.4181 41.9711 46.3775 42.0282 46.3253C42.0853 46.273 42.1316 46.21 42.1643 46.1398C42.1971 46.0697 42.2157 45.9937 42.2192 45.9164C42.2226 45.839 42.2107 45.7618 42.1843 45.689C42.1578 45.6162 42.1173 45.5493 42.065 45.4922C42.0128 45.4351 41.9497 45.3889 41.8796 45.3561C41.8094 45.3233 41.7335 45.3047 41.6562 45.3013C41.5788 45.2981 41.5015 45.3101 41.4288 45.3368C41.3561 45.3635 41.2894 45.4042 41.2325 45.4567C41.1755 45.5091 41.1295 45.5723 41.097 45.6426C41.0645 45.7129 41.0462 45.7889 41.0431 45.8663Z" fill="#263238"/>
<path d="M44.4908 46.0089C44.4875 46.0863 44.4996 46.1635 44.5263 46.2362C44.5529 46.3089 44.5937 46.3756 44.6461 46.4326C44.6986 46.4895 44.7618 46.5356 44.8321 46.5681C44.9024 46.6006 44.9784 46.6189 45.0558 46.622C45.1329 46.6257 45.2101 46.6142 45.2828 46.588C45.3555 46.5618 45.4222 46.5214 45.4792 46.4692C45.5362 46.4171 45.5823 46.3542 45.6149 46.2841C45.6474 46.214 45.6658 46.1382 45.6689 46.061C45.6723 45.9836 45.6604 45.9064 45.634 45.8336C45.6075 45.7608 45.567 45.6939 45.5147 45.6368C45.4625 45.5797 45.3994 45.5335 45.3293 45.5007C45.2591 45.4679 45.1832 45.4493 45.1059 45.4459C45.0285 45.4425 44.9512 45.4543 44.8785 45.4808C44.8057 45.5072 44.7388 45.5477 44.6817 45.6C44.6246 45.6523 44.5783 45.7153 44.5456 45.7855C44.5128 45.8556 44.4942 45.9315 44.4908 46.0089Z" fill="#263238"/>
<path d="M40.9997 38.5613L41.3363 38.5372C41.3537 38.5362 41.3707 38.5318 41.3863 38.5242C41.402 38.5165 41.416 38.5059 41.4275 38.4929C41.4391 38.4799 41.4479 38.4647 41.4536 38.4482C41.4592 38.4318 41.4616 38.4143 41.4605 38.397C41.3924 37.275 41.4285 36.4495 41.5647 36.1209C42.1577 34.6704 43.3879 32.8552 43.9209 32.8792C44.4538 32.9032 45.5237 34.8146 45.9965 36.3093C46.097 37.0674 46.0672 37.8372 45.9084 38.5853C45.9026 38.6198 45.9107 38.6553 45.931 38.6838C45.9513 38.7124 45.9821 38.7317 46.0166 38.7376L46.3532 38.7897C46.3706 38.7919 46.3882 38.7907 46.4051 38.786C46.422 38.7814 46.4378 38.7734 46.4516 38.7626C46.4654 38.7518 46.4769 38.7383 46.4855 38.723C46.494 38.7077 46.4995 38.6909 46.5014 38.6735C46.6858 37.4273 46.7098 36.5697 46.5696 36.129C46.3211 35.3275 45.139 32.3262 43.9489 32.2741C42.7588 32.222 41.3243 35.1152 41.0077 35.8805C40.8314 36.3093 40.7793 37.1628 40.8595 38.421C40.8583 38.4397 40.8611 38.4585 40.8677 38.476C40.8744 38.4936 40.8847 38.5095 40.8979 38.5228C40.9112 38.5361 40.9271 38.5463 40.9447 38.553C40.9622 38.5596 40.981 38.5624 40.9997 38.5613Z" fill="#0071CE"/>
<path d="M34.9337 19.8242C34.4047 19.8723 33.9439 20.6537 32.7258 21.0263C30.4497 21.6995 28.3821 22.7334 27.7449 24.1318C26.6871 26.4479 26.5148 26.9048 26.1421 37.219C25.7694 47.5333 25.6372 76.8893 25.6372 76.8893C26.73 77.3832 27.9206 77.6229 29.1194 77.5905C29.1194 77.5905 29.0272 45.1731 29.2436 37.8842C29.46 30.5953 30.5659 27.037 32.1447 24.6327C32.5895 22.6292 34.008 21.2908 34.9497 20.3131L34.9337 19.8242Z" fill="#FAFAFA"/>
<path d="M32.1363 24.6411C30.5575 27.0453 29.4556 30.5996 29.2352 37.8925C29.2112 38.758 29.1871 39.9762 29.1671 41.4388C29.1671 41.4388 27.8688 34.8351 28.0972 33.4246C28.3256 32.0141 29.8483 29.113 29.8483 29.113C29.6519 26.7087 30.2129 23.9598 31.1386 22.3009C31.3539 21.9143 31.6238 21.5607 31.94 21.251C32.2476 21.0016 32.5761 20.7791 32.9217 20.5859C33.5143 20.1644 34.2032 19.8985 34.9253 19.8125V20.3094C33.9997 21.2991 32.5811 22.6295 32.1363 24.6411Z" fill="#EBEBEB"/>
</g>
<defs>
<filter id="filter0_d_900_31370" x="-0.000488281" y="0" width="60.8794" height="139.066" filterUnits="userSpaceOnUse" color-interpolation-filters="sRGB">
<feFlood flood-opacity="0" result="BackgroundImageFix"/>
<feColorMatrix in="SourceAlpha" type="matrix" values="0 0 0 0 0 0 0 0 0 0 0 0 0 0 0 0 0 0 127 0" result="hardAlpha"/>
<feOffset dy="2"/>
<feGaussianBlur stdDeviation="1"/>
<feComposite in2="hardAlpha" operator="out"/>
<feColorMatrix type="matrix" values="0 0 0 0 0 0 0 0 0 0 0 0 0 0 0 0 0 0 0.25 0"/>
<feBlend mode="normal" in2="BackgroundImageFix" result="effect1_dropShadow_900_31370"/>
<feBlend mode="normal" in="SourceGraphic" in2="effect1_dropShadow_900_31370" result="shape"/>
</filter>
</defs>
</svg>
