<svg width="88" height="88" viewBox="0 0 88 88" fill="none" xmlns="http://www.w3.org/2000/svg">
<path d="M45.9688 35.375C47.3633 35.375 48.5938 36.6055 48.5938 38V41.2812H51.875C53.2695 41.2812 54.5 42.5117 54.5 43.9062V47.8438C54.5 49.3203 53.2695 50.4688 51.875 50.4688H48.5938V53.75C48.5938 55.2266 47.3633 56.375 45.9688 56.375H42.0312C40.5547 56.375 39.4062 55.2266 39.4062 53.75V50.4688H36.125C34.6484 50.4688 33.5 49.3203 33.5 47.8438V43.9062C33.5 42.5117 34.6484 41.2812 36.125 41.2812H39.4062V38C39.4062 36.6055 40.5547 35.375 42.0312 35.375H45.9688ZM42.0312 43.9062H36.125V47.8438H42.0312V53.75H45.9688V47.8438H51.875V43.9062H45.9688V38H42.0312V43.9062ZM67.1328 42.2656C67.707 42.7578 67.707 43.5781 67.2148 44.1523C66.8047 44.7266 65.9844 44.7266 65.4102 44.2344L62.375 41.5273V57.6875C62.375 61.3789 59.4219 64.25 55.8125 64.25H32.1875C28.4961 64.25 25.625 61.3789 25.625 57.6875V41.5273L22.5078 44.2344C21.9336 44.7266 21.1133 44.7266 20.7031 44.1523C20.2109 43.5781 20.2109 42.7578 20.7852 42.2656L43.0977 22.6602C43.5898 22.168 44.3281 22.168 44.8203 22.6602L67.1328 42.2656ZM32.1875 61.625H55.8125C57.9453 61.625 59.75 59.9023 59.75 57.6875V39.2305L44 25.3672L28.25 39.2305V57.6875C28.25 59.9023 29.9727 61.625 32.1875 61.625Z" fill="#0071CE"/>
</svg>
