<svg width="56" height="92" viewBox="0 0 41 61" fill="none" xmlns="http://www.w3.org/2000/svg">
<g filter="url(#filter0_d_976_5463)">
<path d="M5.16813 1.39754C6.23562 0.205761 9.10865 0.310694 11.2871 0.713352L11.9619 0.835493L11.61 1.45269C11.61 1.45269 10.7618 1.24762 10.6145 1.22547C10.1467 1.15519 9.67437 1.10564 9.20216 1.07731C8.20907 1.02001 7.01219 1.09315 6.40464 1.52502C6.03471 1.82095 5.85494 2.18681 5.89035 2.57168C5.88571 2.61584 5.88131 2.6578 5.89668 2.70406C5.91205 2.75032 5.89205 2.74822 5.8895 2.77251L5.88741 2.79239C5.90714 2.91278 5.92827 3.01992 5.9553 3.14777C6.10295 3.78389 6.33978 4.4182 6.58908 5.04935C7.27032 6.76838 8.10613 8.47906 8.96266 10.1852C9.81918 11.8914 10.6909 13.5299 11.6001 15.197C11.917 15.7749 12.2353 16.3523 12.555 16.9291C12.7117 17.209 12.9006 17.49 13.0286 17.7735C13.035 17.7865 13.0431 17.7993 13.0529 17.8118C13.0839 17.8947 13.0561 17.9768 12.9755 18.0402C12.8949 18.1035 12.7681 18.1429 12.6231 18.1496C12.4781 18.1563 12.3268 18.1298 12.2023 18.0759C12.0779 18.022 11.9906 17.9452 11.9596 17.8623C11.5397 17.1217 11.1321 16.3802 10.7245 15.6387C9.82068 13.9722 8.93621 12.3011 8.0711 10.6253C7.16906 8.85181 6.29594 7.07247 5.57318 5.28658C5.30666 4.62683 5.05238 3.96614 4.8915 3.30184C4.73063 2.63755 4.65963 1.96482 5.16813 1.39754Z" fill="#6A7D8E"/>
<path d="M38.7072 7.15358C38.3151 5.48206 35.6915 4.30258 33.5493 3.73201L32.8869 3.55267L32.91 4.32849C32.91 4.32849 33.7669 4.50224 33.9094 4.54592C34.3618 4.68467 34.8084 4.8462 35.2448 5.02895C36.1616 5.41558 37.1993 6.02403 37.5391 6.72844C37.7304 7.19038 37.7183 7.63737 37.5043 8.0072C37.4876 8.05352 37.4717 8.09754 37.436 8.13702C37.4003 8.1765 37.4192 8.18334 37.41 8.20882L37.4025 8.22967C37.3278 8.34148 37.2582 8.4394 37.1734 8.55543C36.74 9.12682 36.2276 9.65654 35.7054 10.1775C34.2813 11.5955 32.7227 12.9359 31.1477 14.2626C29.5726 15.5893 28.016 16.8414 26.4123 18.1053C25.8548 18.5428 25.2963 18.979 24.7369 19.414C24.464 19.6244 24.1617 19.8215 23.9128 20.0484C23.9009 20.0585 23.8876 20.0677 23.8729 20.0759C23.8059 20.1451 23.7919 20.2398 23.8342 20.3394C23.8764 20.4389 23.9713 20.535 24.098 20.6065C24.2247 20.6781 24.3729 20.7192 24.5099 20.7208C24.6469 20.7225 24.7615 20.6846 24.8285 20.6154C25.5552 20.061 26.2714 19.5002 26.9876 18.9394C28.5862 17.6737 30.1697 16.3946 31.7381 15.1022C33.3857 13.7284 35.0103 12.3358 36.5032 10.8695C37.0543 10.3275 37.5949 9.77919 38.0535 9.18547C38.5121 8.59175 38.8942 7.94939 38.7072 7.15358Z" fill="#6A7D8E"/>
<path d="M5.85253 37.7277C9.16919 35.3875 13.422 36.6923 17.17 36.2606L17.3438 36.2379L17.628 36.186C17.8232 36.1468 18.0163 36.0981 18.2064 36.0399L18.4572 35.949L18.5742 35.8939C18.7409 35.8145 18.9008 35.7222 19.0523 35.618L19.1125 35.5725C19.2028 35.4979 19.2964 35.4265 19.3833 35.3518C19.5533 35.2136 19.7151 35.0662 19.8681 34.9104C20.1218 34.652 20.3317 34.3562 20.49 34.034C20.6935 33.618 20.7385 33.1453 20.617 32.7001C20.4653 32.2171 20.2036 31.7733 19.8514 31.4018C19.3911 30.9522 18.9067 30.5264 18.4003 30.1262C17.232 29.0731 16.4937 27.6465 16.3207 26.108C16.2706 25.6668 16.2706 25.2216 16.3207 24.7804C15.4999 24.5268 14.7443 24.1061 14.1043 23.5464C13.4643 22.9867 12.9547 22.3009 12.6096 21.5347L9.60049 14.2837L11.4427 13.5664L14.4183 20.772C14.6782 21.3431 15.0746 21.8459 15.5748 22.2384C16.0749 22.6309 16.6644 22.9019 17.2941 23.0289C17.9238 23.1559 18.5757 23.1351 19.1955 22.9684C19.8153 22.8017 20.3851 22.4937 20.8577 22.0702L27.5245 16.1176L28.8619 17.5359L22.2118 23.4854C21.1015 24.4812 19.6446 25.0331 18.1329 25.0304H18.0225C17.8587 25.0304 17.6882 25.0304 17.5377 25.0012C17.4483 26.1257 17.7356 27.2483 18.3569 28.2014C18.7543 28.7711 19.2457 29.2733 19.8113 29.688C20.3144 30.0798 20.7638 30.5325 21.1486 31.035C21.5239 31.4953 21.7711 32.0415 21.8665 32.6212C21.962 33.2009 21.9024 33.7947 21.6936 34.3456C21.1821 35.5143 20.2455 36.4593 19.0623 37.0007C17.4608 37.692 15.5986 37.5654 13.8867 37.5102C11.9409 37.4453 10.0585 37.3577 8.26647 37.903C7.42537 38.153 6.65295 38.5834 6.00633 39.1623C5.21682 39.9191 4.6233 40.8468 4.27444 41.8693C3.68882 43.4305 3.598 45.1261 4.01365 46.7379C4.39677 48.171 5.06334 49.5181 5.97623 50.7042C9.14913 54.8912 15.0034 56.5141 20.0186 54.9236C21.3559 54.5017 22.6231 53.9142 23.9069 53.3949L28.5576 51.5124L28.8518 51.3955C28.9302 51.3743 29.0121 51.3683 29.0929 51.3779C29.1736 51.3875 29.2517 51.4124 29.3225 51.4513C29.3933 51.4902 29.4555 51.5423 29.5055 51.6046C29.5556 51.6668 29.5925 51.7381 29.6141 51.8142C29.6547 51.9678 29.6324 52.1306 29.552 52.2685C29.4716 52.4065 29.3393 52.5089 29.1828 52.5542C26.575 53.6102 23.9682 54.6651 21.3626 55.7188C18.8691 56.7086 16.1349 56.9813 13.4862 56.5042C10.8375 56.0271 8.38605 54.8204 6.42426 53.0281C4.16411 50.9184 2.5459 47.9031 2.50243 44.8229C2.44894 42.1744 3.61578 39.3084 5.85253 37.7277Z" fill="#0071CE"/>
<path d="M23.3208 51.2572C22.1298 48.465 23.4279 45.2359 26.2201 44.045C29.0123 42.854 32.2413 44.152 33.4323 46.9443C34.6233 49.7365 33.3252 52.9655 30.533 54.1565C27.7408 55.3474 24.5118 54.0494 23.3208 51.2572Z" fill="#9BA9B5"/>
<g opacity="0.3">
<path d="M32.0544 50.0184C31.916 50.7372 31.5675 51.3988 31.0531 51.9196C30.5387 52.4404 29.8814 52.7969 29.1644 52.9442C28.4474 53.0914 27.7028 53.0227 27.0248 52.7468C26.3467 52.4709 25.7658 52.0002 25.3553 51.3941C24.9448 50.788 24.7233 50.0739 24.7186 49.3419C24.714 48.6099 24.9265 47.893 25.3293 47.2818C25.7321 46.6706 26.3071 46.1925 26.9816 45.9081C27.6561 45.6236 28.3997 45.5456 29.1186 45.6837C29.5962 45.7751 30.0511 45.9598 30.4572 46.2273C30.8634 46.4947 31.2128 46.8396 31.4855 47.2422C31.7582 47.6448 31.9488 48.0973 32.0464 48.5737C32.144 49.0501 32.1468 49.541 32.0544 50.0184Z" fill="black"/>
</g>
<path d="M32.0105 49.5497C31.8721 50.2685 31.5236 50.9301 31.0092 51.4509C30.4948 51.9716 29.8375 52.3282 29.1205 52.4754C28.4035 52.6227 27.6589 52.554 26.9808 52.2781C26.3028 52.0022 25.7219 51.5314 25.3114 50.9253C24.9009 50.3193 24.6793 49.6051 24.6747 48.8731C24.6701 48.1411 24.8826 47.4242 25.2854 46.813C25.6882 46.2018 26.2632 45.7238 26.9377 45.4393C27.6122 45.1549 28.3558 45.0768 29.0747 45.215C30.0385 45.4011 30.889 45.9621 31.4395 46.7749C31.99 47.5876 32.1953 48.5856 32.0105 49.5497Z" fill="#F3F4F5"/>
</g>
<defs>
<filter id="filter0_d_976_5463" x="0.500732" y="0.4375" width="40.255" height="60.2969" filterUnits="userSpaceOnUse" color-interpolation-filters="sRGB">
<feFlood flood-opacity="0" result="BackgroundImageFix"/>
<feColorMatrix in="SourceAlpha" type="matrix" values="0 0 0 0 0 0 0 0 0 0 0 0 0 0 0 0 0 0 127 0" result="hardAlpha"/>
<feOffset dy="2"/>
<feGaussianBlur stdDeviation="1"/>
<feComposite in2="hardAlpha" operator="out"/>
<feColorMatrix type="matrix" values="0 0 0 0 0 0 0 0 0 0 0 0 0 0 0 0 0 0 0.25 0"/>
<feBlend mode="normal" in2="BackgroundImageFix" result="effect1_dropShadow_976_5463"/>
<feBlend mode="normal" in="SourceGraphic" in2="effect1_dropShadow_976_5463" result="shape"/>
</filter>
</defs>
</svg>
