<svg width="16" height="16" viewBox="0 0 16 16" fill="none" xmlns="http://www.w3.org/2000/svg">
<path d="M13.6484 6.72656C14.0938 7.14844 14.0938 7.875 13.6484 8.29688L8.77344 13.1719C8.35156 13.6172 7.625 13.6172 7.20312 13.1719L2.32812 8.29688C1.88281 7.875 1.88281 7.14844 2.32812 6.72656L7.17969 1.82812C7.60156 1.40625 8.32812 1.40625 8.77344 1.82812L13.6484 6.72656ZM7.4375 5.0625V7.6875C7.4375 7.99219 7.67188 8.25 8 8.25C8.30469 8.25 8.5625 7.99219 8.5625 7.6875V5.0625C8.5625 4.73438 8.30469 4.5 8 4.5C7.67188 4.5 7.4375 4.73438 7.4375 5.0625ZM8 10.5C8.39844 10.5 8.75 10.1484 8.75 9.75C8.75 9.32812 8.39844 9 8 9C7.57812 9 7.25 9.32812 7.25 9.75C7.25 10.1484 7.57812 10.5 8 10.5Z" fill="#D84315"/>
</svg>