<svg width="12" height="11" viewBox="0 0 12 11" fill="none" xmlns="http://www.w3.org/2000/svg">
<path d="M0.75 3.625C0.328125 3.625 0 3.29688 0 2.875C0 2.47656 0.328125 2.125 0.75 2.125H7.61719C7.94531 1.25781 8.76562 0.625 9.75 0.625C10.9922 0.625 12 1.63281 12 2.875C12 4.14062 10.9922 5.125 9.75 5.125C8.76562 5.125 7.94531 4.51562 7.61719 3.625H0.75ZM9.75 2.125C9.32812 2.125 9 2.47656 9 2.875C9 3.29688 9.32812 3.625 9.75 3.625C10.1484 3.625 10.5 3.29688 10.5 2.875C10.5 2.47656 10.1484 2.125 9.75 2.125ZM11.25 7.375C11.6484 7.375 12 7.72656 12 8.125C12 8.54688 11.6484 8.875 11.25 8.875H5.0625C5.0625 8.875 5.32031 8.875 4.35938 8.89844C4.03125 9.76562 3.21094 10.375 2.25 10.375C0.984375 10.375 0 9.39062 0 8.125C0 6.88281 0.984375 5.875 2.25 5.875C3.21094 5.875 4.03125 6.50781 4.35938 7.375C5.32031 7.375 5.0625 7.375 5.0625 7.375H11.25ZM2.25 8.875C2.64844 8.875 3 8.54688 3 8.125C3 7.72656 2.64844 7.375 2.25 7.375C1.82812 7.375 1.5 7.72656 1.5 8.125C1.5 8.54688 1.82812 8.875 2.25 8.875Z" fill="#0071CE"/>
</svg>
