<svg width="29" height="40" viewBox="0 0 29 40" fill="none" xmlns="http://www.w3.org/2000/svg">
<path d="M17.9904 24.8626L17.9584 24.9467L13.6449 35.8841L12.0228 39.9987L8.97493 34.4859L2.9873 36.433L8.96291 21.2969L12.7557 22.7953L17.7621 24.7744L17.9904 24.8626Z" fill="#0071CE"/>
<path d="M17.9904 24.8626L17.9584 24.9467L13.6449 35.8841L12.0228 39.9987L8.97493 34.4859L2.9873 36.433L8.96291 21.2969L12.7557 22.7953L17.7621 24.7744L17.9904 24.8626Z" fill="url(#paint0_linear_1350_42912)"/>
<g opacity="0.5">
<path d="M12.0592 37.9857L9.45592 33.2702L4.3374 34.9368L9.50397 21.8359L17.2298 24.8848L12.0592 37.9857ZM9.55203 33.0418L12.0312 37.529L16.9575 24.997L9.60811 22.0964L4.66582 34.6123L9.55203 33.0418Z" fill="white"/>
</g>
<path opacity="0.2" d="M17.9585 24.9482L13.641 35.8856C12.0334 32.0668 11.0855 28.0027 10.8374 23.8665L12.7719 22.8008L17.7782 24.7799L17.9585 24.9482Z" fill="black"/>
<path d="M16.977 39.9987L20.0208 34.4859L26.0085 36.433L20.0329 21.2969L11.0054 24.8626L16.977 39.9987Z" fill="url(#paint1_linear_1350_42912)"/>
<g opacity="0.5">
<path d="M11.75 24.8851L19.4918 21.8242L24.6624 34.9251L19.5399 33.2584L16.9566 37.986L11.75 24.8851ZM24.306 34.6126L19.3637 22.0967L12.0103 24.9973L16.9566 37.5172L19.4318 33.0301L24.306 34.6126Z" fill="white"/>
</g>
<path d="M14.4975 3.4388L15.5668 2.60547L16.468 3.61908L17.6695 2.98607L18.3744 4.14392L19.6681 3.73928L20.1567 5.00129L21.5024 4.83302L21.7587 6.16715L23.1124 6.23926L23.1245 7.59743L24.4461 7.90993L24.2179 9.24806L25.4594 9.79293L24.9948 11.067L26.1163 11.8282L25.4354 12.998L26.4046 13.9435L25.5235 14.9732L26.3085 16.0789L25.2592 16.9363L25.8319 18.1623L24.6464 18.8193L24.9948 20.1294L23.7092 20.5621L23.8173 21.9122L22.4756 22.1086L22.3395 23.4587L20.9857 23.4106L20.6133 24.7127L19.2876 24.4243L18.6868 25.6422L17.4332 25.1214L16.6282 26.2111L15.4867 25.4739L14.4975 26.4034L13.5082 25.4739L12.3708 26.2111L11.5617 25.1214L10.3081 25.6422L9.71139 24.4243L8.38571 24.7127L8.01323 23.4106L6.6555 23.4587L6.52333 22.1086L5.18163 21.9122L5.28976 20.5621L4.00413 20.1294L4.35257 18.8193L3.16306 18.1623L3.73979 16.9363L2.68645 16.0789L3.47546 14.9732L2.59033 13.9435L3.56357 12.998L2.8787 11.8282L4.00413 11.067L3.53954 9.79293L4.78112 9.24806L4.55283 7.90993L5.87051 7.59743L5.88252 6.23926L7.23624 6.16715L7.49257 4.83302L8.83828 5.00129L9.3269 3.73928L10.6205 4.14392L11.3254 2.98607L12.527 3.61908L13.4281 2.60547L14.4975 3.4388Z" fill="url(#paint2_linear_1350_42912)"/>
<path opacity="0.2" d="M21.7535 21.7551C25.7582 17.7504 25.7582 11.2574 21.7535 7.25274C17.7488 3.24803 11.2559 3.24803 7.25117 7.25274C3.24646 11.2575 3.24646 17.7504 7.25117 21.7551C11.2559 25.7598 17.7488 25.7598 21.7535 21.7551Z" fill="#C09525"/>
<path d="M14.6188 9.21875L16.4211 12.8245L20.0257 13.2752L17.5505 16.0516L18.2234 20.036L14.6188 18.2331L11.0142 20.036L11.6931 16.0516L9.21191 13.2752L12.8165 12.8245L14.6188 9.21875Z" fill="url(#paint3_linear_1350_42912)"/>
<defs>
<linearGradient id="paint0_linear_1350_42912" x1="15.1574" y1="21.2969" x2="2.02662" y2="23.202" gradientUnits="userSpaceOnUse">
<stop stop-color="#0071CE"/>
<stop offset="1" stop-color="#5AB4FF"/>
</linearGradient>
<linearGradient id="paint1_linear_1350_42912" x1="23.1754" y1="21.2969" x2="10.0447" y2="23.202" gradientUnits="userSpaceOnUse">
<stop stop-color="#0071CE"/>
<stop offset="1" stop-color="#5AB4FF"/>
</linearGradient>
<linearGradient id="paint2_linear_1350_42912" x1="14.4975" y1="2.60547" x2="14.4975" y2="26.4034" gradientUnits="userSpaceOnUse">
<stop stop-color="#F8C100"/>
<stop offset="1" stop-color="#FDD23A"/>
</linearGradient>
<linearGradient id="paint3_linear_1350_42912" x1="14.6188" y1="9.21875" x2="14.6188" y2="20.036" gradientUnits="userSpaceOnUse">
<stop stop-color="#FFFCDD"/>
<stop offset="1" stop-color="#FFE896"/>
</linearGradient>
</defs>
</svg>
