<svg width="48" height="48" viewBox="0 0 49 48" fill="none" xmlns="http://www.w3.org/2000/svg">
<path d="M45.0078 36.457C46.3203 38.7539 44.6797 41.625 41.9727 41.625H6.94531C4.23828 41.625 2.59766 38.7539 3.91016 36.457L21.4648 6.59766C22.7773 4.30078 26.1406 4.30078 27.5352 6.59766L45.0078 36.457ZM22.5312 16.0312V26.5312C22.5312 27.6797 23.5156 28.5 24.5 28.5C25.5664 28.5 26.4688 27.6797 26.4688 26.5312V16.0312C26.4688 14.9648 25.5664 14.0625 24.5 14.0625C23.3516 14.0625 22.5312 14.9648 22.5312 16.0312ZM24.5 36.375C25.8945 36.375 27.043 35.2266 27.043 33.832C27.043 32.4375 25.8945 31.2891 24.5 31.2891C23.0234 31.2891 21.875 32.4375 21.875 33.832C21.875 35.2266 23.0234 36.375 24.5 36.375Z" fill="#D84315"/>
</svg>
