<svg width="56" height="92" viewBox="0 0 36 63" fill="none" xmlns="http://www.w3.org/2000/svg">
<g filter="url(#filter0_d_976_5587)">
<path d="M33.0418 2.50778C33.0634 2.31232 33.0323 2.11465 32.9519 1.93524C32.8714 1.75583 32.7444 1.6012 32.584 1.48735L30.1681 0.102872C29.9909 0.0222616 29.7954 -0.00999432 29.6017 0.00938144C29.4079 0.0287572 29.2227 0.0990809 29.0649 0.213195L4.08379 14.6315C3.62206 14.9344 3.23847 15.3421 2.96432 15.8213C2.69016 16.3006 2.53321 16.838 2.50626 17.3895V56.4966C2.48529 56.6926 2.51721 56.8906 2.59869 57.0701C2.68018 57.2495 2.80825 57.4039 2.96959 57.5171L5.38552 58.9015C5.56277 58.9822 5.75821 59.0144 5.95197 58.995C6.14572 58.9757 6.3309 58.9053 6.48868 58.7912L31.4698 44.3673C31.9325 44.0655 32.3168 43.6581 32.5911 43.1786C32.8653 42.6991 33.0217 42.1612 33.0474 41.6094L33.0418 2.50778Z" fill="#263238"/>
<path d="M4.90503 57.8705V18.7633C4.93066 18.2115 5.08705 17.6737 5.36133 17.1942C5.6356 16.7147 6.0199 16.3073 6.48255 16.0054L31.4637 1.60913C32.3352 1.10719 33.0412 1.51536 33.0412 2.52476V41.6264C33.0156 42.1782 32.8592 42.716 32.5849 43.1956C32.3107 43.6751 31.9264 44.0825 31.4637 44.3843L6.48255 58.8082C5.63863 59.2715 4.90503 58.8634 4.90503 57.8705Z" fill="#455A64"/>
<path d="M32.5839 1.48684C32.4071 1.40545 32.2119 1.37227 32.0182 1.39068C31.8244 1.40908 31.639 1.47842 31.4807 1.59164L6.49956 16.0155C6.03816 16.3096 5.65866 16.7157 5.3964 17.1959L2.98047 15.8114C3.24329 15.3331 3.62277 14.9289 4.08363 14.6366L29.0648 0.212689C29.2221 0.0976841 29.407 0.0263764 29.6008 0.00603064C29.7945 -0.0143151 29.9902 0.0170316 30.168 0.0968613L32.5839 1.48684Z" fill="#37474F"/>
<path d="M29.1307 17.2128C28.7942 15.3098 27.2884 13.9033 25.1317 16.8763C22.975 19.8493 21.4582 25.1501 19.3732 26.5511C18.0549 27.4502 16.1795 25.0508 14.5358 24.4495C12.8921 23.8483 10.7685 24.5433 9.42264 30.0977C8.07678 35.6522 8.27535 37.7813 9.25166 38.6307C10.6085 39.8111 12.5115 38.8514 14.0339 38.5866C15.5562 38.3218 14.249 41.008 14.8723 42.5414C15.4956 44.0748 17.0234 43.8046 17.9391 41.8078C18.1211 41.4052 18.2921 41.008 18.441 40.633C18.9319 39.425 19.8365 38.8183 20.3826 39.3588C20.5094 39.4885 20.6458 39.6083 20.7908 39.7173C21.9325 40.5833 23.6424 38.0626 23.5487 36.0273C23.4549 33.9919 23.3832 32.5468 24.1995 31.6146C25.0159 30.6824 27.2443 30.0757 28.4081 27.5329C29.5719 24.9901 29.4727 19.1213 29.1307 17.2128ZM15.308 31.5539C15.2026 32.1113 15.003 32.6466 14.7178 33.137C14.4972 33.5765 14.2408 33.9971 13.9511 34.3946C13.4877 34.9948 12.8376 35.4237 12.1033 35.6136C11.8464 35.7044 11.566 35.7044 11.3091 35.6136C10.3107 35.1447 10.9726 31.7966 11.3863 30.2687C11.548 29.6414 11.7929 29.0385 12.1144 28.4761C12.1985 28.3382 12.3005 28.2121 12.4177 28.101C12.579 27.9555 12.7732 27.8514 12.9836 27.7976C13.194 27.7438 13.4144 27.7419 13.6257 27.7921C13.9375 27.8271 14.2229 27.9837 14.42 28.2279C14.563 28.4647 14.6708 28.7211 14.7399 28.9891L15.1205 30.1639C15.2956 30.6127 15.36 31.0971 15.308 31.576V31.5539ZM17.5144 40.0152C17.3677 40.3714 17.0919 40.659 16.7421 40.8205C16.6025 40.8337 16.4616 40.8174 16.3286 40.7727C16.1955 40.7281 16.0734 40.656 15.9699 40.5613C15.8604 40.3996 15.8151 40.2029 15.8431 40.0097C15.8961 39.7366 16.005 39.4775 16.163 39.2485C16.4719 38.7521 16.7697 38.2998 17.0455 37.7537C17.2661 37.3345 17.4592 37.0201 17.724 37.158C18.3252 37.4614 17.9391 39.2099 17.5088 40.0373L17.5144 40.0152ZM22.3628 37.4007C22.098 37.7372 21.8112 38.0957 21.5244 38.0957C21.2375 38.0957 21.1713 37.8695 21.0721 37.6213C20.9725 37.3786 20.9021 37.125 20.8625 36.8657C20.7872 36.5018 20.7872 36.1264 20.8625 35.7625C21.1879 34.4718 21.927 35.1061 22.3297 35.2881C22.7323 35.4702 22.9143 36.7112 22.3572 37.4228L22.3628 37.4007ZM27.9062 21.7964C27.8536 22.8697 27.719 23.9374 27.5035 24.9901C27.4473 25.3635 27.3298 25.725 27.156 26.0602C27.0875 26.211 26.9807 26.3414 26.8462 26.4381C26.7117 26.5349 26.5541 26.5948 26.3893 26.6117C25.7976 26.6245 25.2174 26.4466 24.7346 26.1043C24.4409 25.9311 24.1924 25.6908 24.0093 25.4033C23.8263 25.1157 23.7138 24.7889 23.681 24.4495C23.723 23.9137 23.8632 23.3902 24.0947 22.9051C24.3319 22.2984 24.5139 21.653 24.7897 21.0573C24.9811 20.6009 25.2756 20.195 25.6502 19.8714C25.7714 19.7736 25.9149 19.7073 26.0679 19.6784C26.2209 19.6495 26.3787 19.659 26.5272 19.7059C26.7068 19.7623 26.8805 19.8362 27.0457 19.9266C27.2417 20.0001 27.4171 20.1197 27.5572 20.2752C27.6974 20.4307 27.7981 20.6176 27.851 20.8201C27.9124 21.1492 27.9291 21.485 27.9006 21.8185L27.9062 21.7964Z" fill="#F5F5F5"/>
<path d="M13.6207 40.9875C12.8595 40.5462 12.694 41.1419 11.5854 41.2688C10.4767 41.3957 10.234 40.5683 9.37902 40.7172C8.52407 40.8662 7.56432 43.6351 8.72264 44.2363C9.88096 44.8376 10.2395 44.8155 10.2505 45.8525C10.2616 46.8894 10.1126 52.9734 10.1126 52.9734L13.2236 51.1752C13.2236 51.1752 13.2236 45.5712 13.2236 44.8596C13.2236 44.1481 13.4938 43.6351 13.7089 42.725C13.8082 42.1514 14.0178 41.2137 13.6207 40.9875Z" fill="#F5F5F5"/>
<path d="M24.531 33.9404C25.2921 32.6166 25.2149 33.295 26.5111 32.3629C27.2613 31.8113 27.3109 31.028 28.1659 30.1565C29.0208 29.285 30.4936 30.7081 29.3352 32.6497C28.1769 34.5912 27.9122 35.733 27.8956 36.7921C27.8791 37.8511 28.028 42.5892 28.028 42.5892L24.9446 44.3818C24.9446 44.3818 24.9446 38.7667 24.9446 38.0386C24.9651 37.309 24.8683 36.5809 24.6578 35.882C24.5254 35.4738 24.1338 34.6243 24.531 33.9404Z" fill="#F5F5F5"/>
<path d="M19.0034 21.3117C17.3983 22.2383 16.4937 22.0232 16.2841 22.5582C16.0745 23.0933 16.2014 23.5015 16.4496 23.6614C17.0012 24.0034 18.2809 23.5511 18.9924 23.2367C19.8134 22.8524 20.5218 22.2636 21.0498 21.5268C21.4469 20.8594 21.4249 19.9879 21.2042 19.7617C20.763 19.7672 20.4927 20.4512 19.0034 21.3117Z" fill="#F5F5F5"/>
<path d="M19.0034 17.7023C17.3983 18.6289 16.4937 18.4138 16.2841 18.9489C16.0745 19.4839 16.2014 19.8866 16.4496 20.052C17.0012 20.3995 18.2809 19.9417 18.9924 19.6328C19.8122 19.2467 20.5202 18.6582 21.0498 17.9229C21.4469 17.25 21.4249 16.3785 21.2042 16.1523C20.763 16.1523 20.4927 16.8418 19.0034 17.7023Z" fill="#F5F5F5"/>
<path d="M19.0034 14.089C17.3983 15.0157 16.4937 14.8006 16.2841 15.3356C16.0745 15.8706 16.2014 16.2788 16.4496 16.4388C17.0012 16.7807 18.2809 16.3284 18.9924 16.014C19.8134 15.6298 20.5218 15.041 21.0498 14.3041C21.4469 13.6367 21.4249 12.7652 21.2042 12.5391C20.763 12.5446 20.4927 13.2285 19.0034 14.089Z" fill="#F5F5F5"/>
<path d="M29.3573 32.6474C30.5156 30.7113 29.0705 29.2772 28.1879 30.1542C27.3054 31.0312 27.2558 31.809 26.5332 32.3605C25.237 33.2927 25.3142 32.6143 24.553 33.9381C24.1559 34.622 24.553 35.4715 24.6799 35.8796C24.8903 36.5785 24.9871 37.3067 24.9667 38.0363C24.9667 38.1687 24.9667 38.4555 24.9667 38.8361C25.5183 38.974 26.1526 38.5658 26.6214 38.1577C27.0903 37.7495 27.515 37.3634 27.9507 36.9442V36.7842C27.9397 35.7307 28.2045 34.5834 29.3573 32.6474Z" fill="#4D4084"/>
<path opacity="0.5" d="M29.3573 32.6474C30.5156 30.7113 29.0705 29.2772 28.1879 30.1542C27.3054 31.0312 27.2558 31.809 26.5332 32.3605C25.237 33.2927 25.3142 32.6143 24.553 33.9381C24.1559 34.622 24.553 35.4715 24.6799 35.8796C24.8903 36.5785 24.9871 37.3067 24.9667 38.0363C24.9667 38.1687 24.9667 38.4555 24.9667 38.8361C25.5183 38.974 26.1526 38.5658 26.6214 38.1577C27.0903 37.7495 27.515 37.3634 27.9507 36.9442V36.7842C27.9397 35.7307 28.2045 34.5834 29.3573 32.6474Z" fill="white"/>
</g>
<defs>
<filter id="filter0_d_976_5587" x="0.5" y="0" width="34.5486" height="63" filterUnits="userSpaceOnUse" color-interpolation-filters="sRGB">
<feFlood flood-opacity="0" result="BackgroundImageFix"/>
<feColorMatrix in="SourceAlpha" type="matrix" values="0 0 0 0 0 0 0 0 0 0 0 0 0 0 0 0 0 0 127 0" result="hardAlpha"/>
<feOffset dy="2"/>
<feGaussianBlur stdDeviation="1"/>
<feComposite in2="hardAlpha" operator="out"/>
<feColorMatrix type="matrix" values="0 0 0 0 0 0 0 0 0 0 0 0 0 0 0 0 0 0 0.25 0"/>
<feBlend mode="normal" in2="BackgroundImageFix" result="effect1_dropShadow_976_5587"/>
<feBlend mode="normal" in="SourceGraphic" in2="effect1_dropShadow_976_5587" result="shape"/>
</filter>
</defs>
</svg>
