<svg width="24" height="21" viewBox="0 0 24 21" fill="none" xmlns="http://www.w3.org/2000/svg">
<path d="M23.2109 10.5C23.2109 11.2031 22.625 11.75 21.9609 11.75H20.7109L20.75 18C20.75 18.1172 20.75 18.2344 20.75 18.3125V18.9375C20.75 19.8359 20.0469 20.5 19.1875 20.5H18.5625C18.4844 20.5 18.4453 20.5 18.4062 20.5C18.3672 20.5 18.2891 20.5 18.25 20.5H16.0625C15.1641 20.5 14.5 19.8359 14.5 18.9375V15.5C14.5 14.8359 13.9141 14.25 13.25 14.25H10.75C10.0469 14.25 9.5 14.8359 9.5 15.5V18.9375C9.5 19.8359 8.79688 20.5 7.9375 20.5H5.75C5.67188 20.5 5.63281 20.5 5.55469 20.5C5.51562 20.5 5.47656 20.5 5.4375 20.5H4.8125C3.91406 20.5 3.25 19.8359 3.25 18.9375V14.5625C3.25 14.5625 3.25 14.5234 3.25 14.4844V11.75H2C1.29688 11.75 0.75 11.2031 0.75 10.5C0.75 10.1484 0.867188 9.83594 1.14062 9.5625L11.1406 0.851562C11.4141 0.578125 11.7266 0.5 12 0.5C12.2734 0.5 12.5859 0.617188 12.8203 0.8125L22.7812 9.5625C23.0938 9.83594 23.25 10.1484 23.2109 10.5Z" fill="white"/>
</svg>
