<svg xmlns="http://www.w3.org/2000/svg" width="25" height="20" viewBox="0 0 25 20" fill="none">
  <path d="M9.003 17.3471V16.3251C9.00896 16.2394 8.99657 16.1534 8.96668 16.0729C8.93678 15.9923 8.89006 15.919 8.82962 15.8579C8.76918 15.7969 8.69642 15.7494 8.61618 15.7186C8.53594 15.6879 8.45007 15.6746 8.36429 15.6796C8.25171 15.6722 8.13922 15.6952 8.03855 15.7461C7.93789 15.7971 7.85275 15.8741 7.79201 15.9692C7.73664 15.877 7.65741 15.8014 7.56269 15.7504C7.46796 15.6995 7.36125 15.675 7.25378 15.6796C7.16011 15.6749 7.06682 15.6947 6.98317 15.7371C6.89952 15.7796 6.8284 15.8431 6.77688 15.9215V15.7205H6.42261V17.3471H6.78029V16.4461C6.77236 16.3903 6.77692 16.3335 6.79365 16.2798C6.81037 16.226 6.83883 16.1767 6.87698 16.1353C6.91512 16.0939 6.96199 16.0614 7.0142 16.0404C7.06641 16.0193 7.12264 16.0101 7.17884 16.0135C7.41389 16.0135 7.53311 16.1667 7.53311 16.4427V17.3471H7.89079V16.4461C7.88349 16.3904 7.8885 16.3339 7.90545 16.2804C7.92241 16.2269 7.9509 16.1778 7.98891 16.1366C8.02692 16.0953 8.07353 16.0629 8.12545 16.0416C8.17736 16.0204 8.23331 16.0107 8.28935 16.0135C8.5312 16.0135 8.64702 16.1667 8.64702 16.4427V17.3471H9.003ZM10.9958 16.5346V15.7222H10.6381V15.9198C10.578 15.8423 10.5003 15.7802 10.4115 15.7387C10.3226 15.6972 10.2251 15.6776 10.1271 15.6813C9.90127 15.6813 9.68465 15.771 9.52495 15.9308C9.36524 16.0905 9.27552 16.3071 9.27552 16.5329C9.27552 16.7588 9.36524 16.9754 9.52495 17.1351C9.68465 17.2948 9.90127 17.3846 10.1271 17.3846C10.2251 17.3883 10.3226 17.3686 10.4115 17.3272C10.5003 17.2857 10.578 17.2236 10.6381 17.1461V17.3437H10.9924L10.9958 16.5346ZM9.67918 16.5346C9.68483 16.4388 9.71838 16.3467 9.77572 16.2697C9.83305 16.1927 9.91165 16.1341 10.0018 16.1012C10.092 16.0683 10.1899 16.0625 10.2834 16.0845C10.3768 16.1065 10.4618 16.1553 10.5278 16.225C10.5939 16.2947 10.6381 16.3822 10.6551 16.4767C10.672 16.5712 10.661 16.6686 10.6233 16.7569C10.5856 16.8452 10.5229 16.9205 10.4429 16.9737C10.3629 17.0268 10.2691 17.0553 10.1731 17.0558C10.1053 17.0574 10.0379 17.0448 9.97529 17.0189C9.91264 16.9929 9.85609 16.9542 9.80928 16.9051C9.76246 16.8561 9.72641 16.7978 9.70342 16.734C9.68043 16.6702 9.67102 16.6023 9.67578 16.5346H9.67918ZM18.5649 15.683C18.6816 15.6827 18.7972 15.7047 18.9056 15.7478C19.009 15.7892 19.1034 15.8505 19.1832 15.9283C19.262 16.0054 19.3246 16.0974 19.3672 16.1991C19.4561 16.4175 19.4561 16.662 19.3672 16.8804C19.3246 16.9821 19.262 17.0742 19.1832 17.1512C19.1034 17.229 19.009 17.2903 18.9056 17.3318C18.681 17.419 18.4318 17.419 18.2073 17.3318C18.1043 17.2904 18.0105 17.229 17.9313 17.1512C17.8533 17.0739 17.7913 16.9818 17.7491 16.8804C17.6603 16.662 17.6603 16.4175 17.7491 16.1991C17.7913 16.0977 17.8533 16.0056 17.9313 15.9283C18.0105 15.8505 18.1043 15.7891 18.2073 15.7478C18.3195 15.7012 18.44 15.6775 18.5615 15.6779L18.5649 15.683ZM18.5649 16.0237C18.4956 16.0227 18.4267 16.0355 18.3622 16.0611C18.3015 16.0855 18.2465 16.122 18.2004 16.1684C18.1535 16.2173 18.117 16.2753 18.0931 16.3388C18.0411 16.4748 18.0411 16.6252 18.0931 16.7612C18.1169 16.8247 18.1534 16.8826 18.2004 16.9315C18.2464 16.978 18.3015 17.0145 18.3622 17.0388C18.492 17.0896 18.6362 17.0896 18.7659 17.0388C18.8295 17.0153 18.8876 16.9787 18.9362 16.9315C18.9833 16.8827 19.0198 16.8247 19.0435 16.7612C19.0956 16.6252 19.0956 16.4748 19.0435 16.3388C19.0198 16.2752 18.9833 16.2173 18.9362 16.1684C18.8876 16.1212 18.8295 16.0847 18.7659 16.0611C18.7017 16.0317 18.6322 16.0155 18.5615 16.0135L18.5649 16.0237ZM12.9204 16.5346C12.9204 16.0237 12.6036 15.683 12.1489 15.683C11.923 15.6862 11.7076 15.7789 11.5502 15.9409C11.3927 16.1028 11.306 16.3207 11.3092 16.5466C11.3123 16.7724 11.4051 16.9878 11.567 17.1453C11.729 17.3027 11.9468 17.3894 12.1727 17.3863C12.4152 17.3945 12.6522 17.3133 12.8387 17.158L12.6683 16.8957C12.5339 17.0036 12.3672 17.0635 12.1948 17.066C12.0777 17.0761 11.9613 17.0401 11.8704 16.9657C11.7794 16.8913 11.721 16.7843 11.7077 16.6675H12.9153C12.9204 16.6249 12.9204 16.5823 12.9204 16.5346ZM11.7094 16.3916C11.716 16.2834 11.7642 16.1821 11.8439 16.1087C11.9236 16.0354 12.0286 15.9957 12.1369 15.9981C12.19 15.997 12.2427 16.0063 12.2921 16.0256C12.3415 16.0448 12.3866 16.0736 12.4249 16.1103C12.4632 16.147 12.4938 16.1909 12.5152 16.2394C12.5365 16.288 12.548 16.3403 12.5491 16.3933L11.7094 16.3916ZM14.4108 16.1361C14.2552 16.0465 14.0793 15.9984 13.8998 15.9964C13.7056 15.9964 13.5898 16.068 13.5898 16.1872C13.5898 16.3064 13.7124 16.3268 13.8657 16.3473L14.036 16.3711C14.3903 16.4222 14.6049 16.5721 14.6049 16.8583C14.6049 17.1444 14.3324 17.3897 13.864 17.3897C13.613 17.3963 13.3664 17.3223 13.1606 17.1785L13.3309 16.9025C13.4872 17.0185 13.678 17.0785 13.8725 17.0729C14.1144 17.0729 14.2438 17.0013 14.2438 16.8753C14.2438 16.7833 14.1519 16.7322 13.9577 16.705L13.7874 16.6811C13.4229 16.63 13.2253 16.4665 13.2253 16.2008C13.2253 15.8772 13.491 15.6796 13.9066 15.6796C14.1392 15.6718 14.3691 15.7309 14.5692 15.8499L14.4108 16.1361ZM16.114 16.0441H15.5366V16.7782C15.5366 16.9485 15.5945 17.0507 15.7716 17.0507C15.8822 17.0471 15.99 17.0154 16.085 16.9587L16.1872 17.2619C16.0544 17.3448 15.9009 17.3885 15.7444 17.388C15.3254 17.388 15.1789 17.1631 15.1789 16.785V16.0441H14.8485V15.7205H15.1789V15.2266H15.5366V15.7205H16.114V16.0441ZM17.3386 15.6796C17.4245 15.68 17.5098 15.6949 17.5907 15.7239L17.4817 16.0646C17.4113 16.0365 17.336 16.0226 17.2603 16.0237C17.0286 16.0237 16.9196 16.1736 16.9196 16.4427V17.3539H16.5653V15.7273H16.9162V15.9249C16.9597 15.8502 17.0225 15.7886 17.098 15.7467C17.1736 15.7047 17.259 15.6839 17.3454 15.6864L17.3386 15.6796ZM19.7878 17.1103C19.81 17.1101 19.832 17.1141 19.8526 17.1223C19.8721 17.1302 19.89 17.1418 19.9054 17.1563C19.9203 17.171 19.9325 17.1883 19.9411 17.2074C19.9498 17.2273 19.9542 17.2488 19.9542 17.2704C19.9542 17.2921 19.9498 17.3136 19.9411 17.3335C19.9325 17.3525 19.9203 17.3699 19.9054 17.3846C19.89 17.3991 19.8721 17.4106 19.8526 17.4186C19.8322 17.4276 19.8101 17.4323 19.7878 17.4322C19.7556 17.432 19.724 17.4226 19.6969 17.4051C19.6697 17.3876 19.6481 17.3628 19.6346 17.3335C19.626 17.3135 19.6216 17.2921 19.6216 17.2704C19.6216 17.2488 19.626 17.2273 19.6346 17.2074C19.6432 17.1883 19.6554 17.171 19.6703 17.1563C19.6857 17.1418 19.7036 17.1302 19.7231 17.1223C19.7411 17.1151 19.7601 17.1111 19.7793 17.1103H19.7878ZM19.7878 17.3982C19.8048 17.3983 19.8217 17.3948 19.8372 17.388C19.8519 17.3814 19.8652 17.3722 19.8764 17.3607C19.8909 17.3462 19.9015 17.3283 19.9075 17.3087C19.9135 17.2891 19.9146 17.2683 19.9108 17.2482C19.9069 17.228 19.8982 17.2092 19.8854 17.1931C19.8726 17.1771 19.856 17.1645 19.8372 17.1563C19.8217 17.1495 19.8048 17.146 19.7878 17.1461C19.7709 17.1462 19.7541 17.1497 19.7385 17.1563C19.7232 17.1626 19.7093 17.1719 19.6976 17.1836C19.6763 17.2068 19.6645 17.2372 19.6645 17.2687C19.6645 17.3003 19.6763 17.3306 19.6976 17.3539C19.7094 17.3658 19.7234 17.3753 19.7389 17.3817C19.7544 17.3882 19.7711 17.3914 19.7878 17.3914V17.3982ZM19.7981 17.1955C19.814 17.1947 19.8296 17.1995 19.8424 17.2091C19.8476 17.2134 19.8517 17.2189 19.8543 17.2252C19.857 17.2314 19.8582 17.2381 19.8577 17.2449C19.8579 17.2505 19.857 17.2562 19.8549 17.2615C19.8529 17.2667 19.8498 17.2715 19.8458 17.2755C19.8359 17.2845 19.8233 17.2899 19.81 17.2909L19.8594 17.3471H19.8202L19.7742 17.2909H19.7589V17.3471H19.7265V17.1904L19.7981 17.1955ZM19.7606 17.2245V17.2653H19.7981C19.8047 17.2673 19.8118 17.2673 19.8185 17.2653C19.8197 17.263 19.8203 17.2603 19.8203 17.2577C19.8203 17.255 19.8197 17.2524 19.8185 17.25C19.8197 17.2476 19.8203 17.245 19.8203 17.2423C19.8203 17.2397 19.8197 17.237 19.8185 17.2347C19.8118 17.2327 19.8047 17.2327 19.7981 17.2347L19.7606 17.2245Z" fill="black"/>
  <path d="M15.603 3.3125H10.2378V12.9545H15.603V3.3125Z" fill="#7673C0"/>
  <path d="M10.5785 8.13248C10.5775 7.20376 10.7878 6.28698 11.1936 5.45158C11.5993 4.61618 12.1898 3.88405 12.9204 3.31064C12.0158 2.59975 10.9295 2.15769 9.78561 2.03498C8.6417 1.91227 7.48633 2.11387 6.45157 2.61673C5.41681 3.11959 4.54439 3.90343 3.93404 4.87865C3.32368 5.85388 3 6.98115 3 8.13163C3 9.28211 3.32368 10.4094 3.93404 11.3846C4.54439 12.3598 5.41681 13.1437 6.45157 13.6465C7.48633 14.1494 8.6417 14.351 9.78561 14.2283C10.9295 14.1056 12.0158 13.6635 12.9204 12.9526C12.1901 12.3794 11.5997 11.6475 11.1939 10.8124C10.7882 9.97736 10.5777 9.06092 10.5785 8.13248Z" fill="#EB001B"/>
  <path d="M22.2559 11.9338V11.743H22.336V11.7021H22.1333V11.743H22.2134V11.9406L22.2559 11.9338ZM22.6494 11.9338V11.6953H22.5881L22.5165 11.8656L22.445 11.6953H22.382V11.9338H22.4263V11.7549L22.4927 11.9099H22.5387L22.6051 11.7549V11.9355L22.6494 11.9338Z" fill="#00A1DF"/>
  <path d="M22.84 8.13319C22.8397 9.28346 22.5159 10.4104 21.9055 11.3854C21.2952 12.3604 20.4228 13.144 19.3882 13.6467C18.3537 14.1494 17.1985 14.351 16.0548 14.2284C14.9111 14.1058 13.8249 13.6639 12.9204 12.9533C13.6505 12.3796 14.2407 11.6475 14.6465 10.8124C15.0524 9.97726 15.2632 9.06086 15.2632 8.13234C15.2632 7.20381 15.0524 6.28741 14.6465 5.45228C14.2407 4.61714 13.6505 3.88509 12.9204 3.31135C13.8249 2.60024 14.9112 2.15796 16.0552 2.03507C17.1992 1.91219 18.3547 2.11366 19.3896 2.61645C20.4245 3.11924 21.297 3.90306 21.9075 4.87832C22.5179 5.85358 22.8417 6.98092 22.8417 8.13149L22.84 8.13319Z" fill="#00A1DF"/>
</svg>