<svg xmlns="http://www.w3.org/2000/svg" width="25" height="20" viewBox="0 0 25 20" fill="none">
  <path d="M15.3652 4.49219H8.75806V15.2511H15.3652V4.49219Z" fill="#FF5F00"/>
  <path d="M9.42751 9.84786C9.42751 7.74965 10.4096 5.74072 12.0614 4.44607C9.07036 2.12465 4.78465 2.66036 2.46322 5.60679C0.141792 8.55322 0.632863 12.8836 3.57929 15.2496C6.07929 17.2139 9.56143 17.2139 12.0614 15.2496C10.4096 13.955 9.42751 11.9461 9.42751 9.84786Z" fill="#EB001B"/>
  <path d="M22.508 14.0882V13.865H22.5972V13.8203H22.374V13.865H22.4633L22.508 14.0882ZM22.9097 14.0882V13.8203H22.8205L22.7758 14.0435L22.6865 13.865H22.5972V14.0882H22.6419V13.865L22.7758 14.0882H22.8205L22.9097 13.9096V14.0882Z" fill="#F79E1B"/>
  <path d="M23.133 9.84786C23.133 13.6425 20.0526 16.6782 16.3026 16.6782C14.7847 16.6782 13.2669 16.1425 12.0615 15.205C15.0526 12.8836 15.5437 8.55322 13.2222 5.60679C12.8651 5.16036 12.508 4.80322 12.0615 4.44607C15.0526 2.12465 19.3383 2.66036 21.6597 5.60679C22.6419 6.81215 23.133 8.33 23.133 9.84786Z" fill="#F79E1B"/>
</svg>