<svg width="56" height="92" viewBox="0 0 44 70" fill="none" xmlns="http://www.w3.org/2000/svg">
<g filter="url(#filter0_d_976_2892)">
<path d="M2.50292 48.787V50.5619L27.5787 65.0415V63.2614C27.5787 62.2839 26.5986 60.9223 25.3906 60.2256L4.69103 48.2705C3.96254 47.8519 3.31883 47.7672 2.92147 47.9791C2.78278 48.0608 2.66993 48.1799 2.59589 48.3228C2.52185 48.4657 2.48963 48.6266 2.50292 48.787Z" fill="#263238"/>
<path d="M17.2268 39.724L17.2586 39.7081C17.6533 39.4802 18.3182 39.5571 19.0493 39.973L39.7515 51.9254C40.9568 52.6221 41.937 53.9837 41.937 54.9639V56.7414L27.5766 65.0329V63.2527C27.5766 62.2752 26.5964 60.9136 25.3885 60.2169L4.68887 48.2618C3.96039 47.8433 3.31667 47.7585 2.91931 47.9704L17.2268 39.724Z" fill="#455A64"/>
<path d="M33.4358 49.7418C31.6954 48.7378 29.3298 48.3193 27.0622 48.4782L18.376 43.4609L11.6819 47.3259L20.3654 52.3458C20.0873 53.6544 20.8184 55.0213 22.5588 56.0253C25.5628 57.7605 30.4318 57.7605 33.4358 56.0253C36.4398 54.2902 36.4398 51.4769 33.4358 49.7418Z" fill="#37474F"/>
<path d="M10.0734 43.434V46.3956L15.2019 49.3573V46.3956C15.2019 44.7612 14.0549 42.7718 12.6376 41.9532C11.9197 41.5373 11.2734 41.5029 10.8098 41.7837C10.3462 42.0645 10.0734 42.6261 10.0734 43.434Z" fill="#B3D766"/>
<path opacity="0.6" d="M10.0734 43.434V46.3956L15.2019 49.3573V46.3956C15.2019 44.7612 14.0549 42.7718 12.6376 41.9532C11.9197 41.5373 11.2734 41.5029 10.8098 41.7837C10.3462 42.0645 10.0734 42.6261 10.0734 43.434Z" fill="white"/>
<path d="M16.9448 38.2415L16.9845 38.2177C17.4481 37.9528 18.0865 37.9951 18.7912 38.4031C20.2084 39.219 21.3554 41.2084 21.3554 42.8429V45.8071L15.2017 49.3595V46.3979C15.2017 44.7634 14.0547 42.774 12.6375 41.9554C11.9566 41.5634 11.3421 41.5104 10.8838 41.7435L16.9448 38.2415Z" fill="#B3D766"/>
<path opacity="0.7" d="M16.9448 38.2415L16.9845 38.2177C17.4481 37.9528 18.0865 37.9951 18.7912 38.4031C20.2084 39.219 21.3554 41.2084 21.3554 42.8429V45.8071L15.2017 49.3595V46.3979C15.2017 44.7634 14.0547 42.774 12.6375 41.9554C11.9566 41.5634 11.3421 41.5104 10.8838 41.7435L16.9448 38.2415Z" fill="white"/>
<path d="M12.6378 44.5553C12.2616 44.3355 11.9543 44.5129 11.9543 44.95C11.9675 45.1875 12.0362 45.4186 12.1549 45.6247C12.2736 45.8308 12.439 46.0062 12.6378 46.1368C13.0166 46.354 13.3239 46.1765 13.3239 45.7395C13.3107 45.502 13.2416 45.2711 13.1224 45.0654C13.0032 44.8596 12.8372 44.6849 12.6378 44.5553Z" fill="#455A64"/>
<path d="M8.75988 32.041C10.1347 36.5231 11.1043 38.4145 13.6738 41.8424L18.4421 39.09C16.0871 35.3814 14.7891 32.592 14.1878 28.9151C13.144 22.515 15.499 16.8964 17.9918 14.5838L16.1375 12.0195C15.0249 12.6871 11.3692 14.7745 11.3692 14.7745L12.9268 17.3812C8.47113 19.8051 7.38768 27.5561 8.75988 32.041Z" fill="#37474F"/>
<path d="M11.3714 14.7617C8.84956 16.269 4.98726 20.6903 5.56475 29.0533C5.84555 33.1328 7.49855 38.0812 10.4151 42.1554C10.5144 42.0014 10.6499 41.874 10.8098 41.7846C10.99 41.6786 11.2681 41.5196 11.4642 41.4057C11.9277 41.1408 12.5741 41.162 13.2893 41.5753C13.4234 41.6558 13.5526 41.7442 13.6761 41.8402C11.6099 38.0256 9.43764 34.6878 8.90784 30.9924C7.75286 22.9658 11.2761 18.3591 12.9264 17.3763L11.3714 14.7617Z" fill="#263238"/>
<path d="M11.3718 14.7621C12.6641 14.0218 14.1213 13.6175 15.6103 13.5859L16.0951 16.3886C16.0951 16.3886 14.8474 16.1846 12.9348 17.3688L11.3718 14.7621Z" fill="#263238"/>
<path d="M23.396 49.5379V47.1696L30.0875 43.3047V45.6729L23.396 49.5379Z" fill="#B3D766"/>
<path opacity="0.15" d="M23.396 49.5379V47.1696L30.0875 43.3047V45.6729L23.396 49.5379Z" fill="black"/>
<path d="M23.3959 49.5375L11.6819 42.7745V40.4062L23.3959 47.1692V49.5375Z" fill="#B3D766"/>
<path opacity="0.25" d="M23.3959 49.5375L11.6819 42.7745V40.4062L23.3959 47.1692V49.5375Z" fill="black"/>
<path d="M30.0874 43.306L18.3734 36.543L11.6819 40.4079L23.3959 47.1709L30.0874 43.306Z" fill="#B3D766"/>
<path d="M35.6851 48.1329V45.9606C35.6851 44.8242 34.9381 43.6878 33.4361 42.8189C30.4321 41.0864 25.5631 41.0864 22.5591 42.8189C21.0571 43.6878 20.3074 44.8242 20.3074 45.9606V48.1329C20.2863 49.2852 21.0359 50.4402 22.5565 51.3117C25.5605 53.0468 30.4294 53.0468 33.4334 51.3117C34.954 50.4349 35.701 49.2799 35.6798 48.1329H35.6851Z" fill="#B3D766"/>
<path opacity="0.25" d="M35.6851 48.1329V45.9606C35.6851 44.8242 34.9381 43.6878 33.4361 42.8189C30.4321 41.0864 25.5631 41.0864 22.5591 42.8189C21.0571 43.6878 20.3074 44.8242 20.3074 45.9606V48.1329C20.2863 49.2852 21.0359 50.4402 22.5565 51.3117C25.5605 53.0468 30.4294 53.0468 33.4334 51.3117C34.954 50.4349 35.701 49.2799 35.6798 48.1329H35.6851Z" fill="black"/>
<path d="M22.5587 42.8189C25.5627 41.0864 30.4316 41.0864 33.4356 42.8189C36.4396 44.5514 36.4396 47.3646 33.4356 49.0998C30.4316 50.8349 25.5627 50.8349 22.5587 49.0998C19.5547 47.3646 19.5547 44.554 22.5587 42.8189Z" fill="#B3D766"/>
<path d="M33.7613 45.8425V44.2133C33.7613 43.3603 33.2024 42.5073 32.0739 41.8583C29.8222 40.5576 26.1692 40.5576 23.9175 41.8583C22.7917 42.5073 22.2301 43.3603 22.2301 44.2133V45.8425C22.2142 46.7061 22.7758 47.5723 23.9148 48.2266C26.1665 49.5273 29.8196 49.5273 32.0712 48.2266C33.213 47.5696 33.7719 46.7034 33.7587 45.8425H33.7613Z" fill="#E0E0E0"/>
<path d="M23.9172 41.8583C26.1688 40.5576 29.8219 40.5576 32.0735 41.8583C34.3252 43.159 34.3252 45.2676 32.0735 46.5657C29.8219 47.8637 26.1688 47.8663 23.9172 46.5657C21.6655 45.265 21.6655 43.159 23.9172 41.8583Z" fill="#FAFAFA"/>
<path d="M24.1501 41.9941C26.2694 40.7676 29.7131 40.7676 31.8323 41.9941C33.9516 43.2206 33.9516 45.2074 31.8323 46.4339C29.7131 47.6604 26.2694 47.6604 24.1501 46.4339C22.0309 45.2074 22.0256 43.218 24.1501 41.9941Z" fill="#E6E6E6"/>
<path d="M31.8412 43.4999C29.7219 42.2761 26.2782 42.2761 24.159 43.4999C23.5357 43.8221 23.0331 44.3368 22.7258 44.9675C23.0331 45.5982 23.5357 46.1129 24.159 46.4351C26.2782 47.6616 29.7219 47.6616 31.8412 46.4351C32.4651 46.1129 32.9685 45.5983 33.2769 44.9675C32.9685 44.3367 32.4651 43.8221 31.8412 43.4999Z" fill="#F0F0F0"/>
<path d="M27.0204 44.3964C27.3231 44.2436 27.6575 44.1641 27.9966 44.1641C28.3356 44.1641 28.67 44.2436 28.9727 44.3964C29.5025 44.709 29.5025 45.2123 28.9727 45.5249C28.67 45.6776 28.3356 45.7572 27.9966 45.7572C27.6575 45.7572 27.3231 45.6776 27.0204 45.5249C26.4826 45.2176 26.4826 44.7143 27.0204 44.3964Z" fill="#B3D766"/>
<path d="M29.4942 45.5462C29.5875 45.4979 29.6911 45.4727 29.7962 45.4727C29.9013 45.4727 30.0048 45.4979 30.0982 45.5462C30.1347 45.5583 30.1664 45.5815 30.1889 45.6127C30.2114 45.6438 30.2235 45.6813 30.2235 45.7197C30.2235 45.7581 30.2114 45.7956 30.1889 45.8267C30.1664 45.8579 30.1347 45.8811 30.0982 45.8932C30.0048 45.9415 29.9013 45.9667 29.7962 45.9667C29.6911 45.9667 29.5875 45.9415 29.4942 45.8932C29.4577 45.8811 29.426 45.8579 29.4035 45.8267C29.381 45.7956 29.3689 45.7581 29.3689 45.7197C29.3689 45.6813 29.381 45.6438 29.4035 45.6127C29.426 45.5815 29.4577 45.5583 29.4942 45.5462Z" fill="#B3D766"/>
<path opacity="0.6" d="M28.9516 44.6946C28.9516 44.8456 28.7396 44.9595 28.4774 44.9595C28.2151 44.9595 28.0059 44.8403 28.0059 44.6946C28.0059 44.5489 28.2178 44.4297 28.4774 44.4297C28.737 44.4297 28.9516 44.5462 28.9516 44.6946Z" fill="white"/>
<path opacity="0.6" d="M30.0445 45.6329C30.0445 45.6806 29.9783 45.7177 29.8988 45.7177C29.8194 45.7177 29.7505 45.6806 29.7505 45.6329C29.7505 45.5852 29.8167 45.5508 29.8988 45.5508C29.981 45.5508 30.0445 45.5879 30.0445 45.6329Z" fill="white"/>
<path d="M30.5029 32.5263V26.5156L34.6884 26.5289V32.5395C34.6884 32.8495 34.4818 33.1568 34.0738 33.3925C33.6153 33.625 33.1084 33.7462 32.5944 33.7462C32.0803 33.7462 31.5734 33.625 31.1149 33.3925C30.9439 33.3172 30.7967 33.1968 30.6889 33.0442C30.5811 32.8916 30.5168 32.7126 30.5029 32.5263Z" fill="#263238"/>
<path d="M34.6858 31.2878C34.6858 31.5977 34.4791 31.905 34.0712 32.1408C33.6127 32.3733 33.1058 32.4944 32.5917 32.4944C32.0776 32.4944 31.5707 32.3733 31.1122 32.1408C30.9433 32.0659 30.7976 31.947 30.6904 31.7964C30.5832 31.6459 30.5184 31.4693 30.5029 31.2852V32.5382C30.5184 32.7223 30.5832 32.8989 30.6904 33.0494C30.7976 33.2 30.9433 33.3189 31.1122 33.3938C31.5707 33.6263 32.0776 33.7474 32.5917 33.7474C33.1058 33.7474 33.6127 33.6263 34.0712 33.3938C34.4791 33.158 34.6858 32.864 34.6858 32.5408V31.2878Z" fill="#B3D766"/>
<path opacity="0.6" d="M34.6858 31.2878C34.6858 31.5977 34.4791 31.905 34.0712 32.1408C33.6127 32.3733 33.1058 32.4944 32.5917 32.4944C32.0776 32.4944 31.5707 32.3733 31.1122 32.1408C30.9433 32.0659 30.7976 31.947 30.6904 31.7964C30.5832 31.6459 30.5184 31.4693 30.5029 31.2852V32.5382C30.5184 32.7223 30.5832 32.8989 30.6904 33.0494C30.7976 33.2 30.9433 33.3189 31.1122 33.3938C31.5707 33.6263 32.0776 33.7474 32.5917 33.7474C33.1058 33.7474 33.6127 33.6263 34.0712 33.3938C34.4791 33.158 34.6858 32.864 34.6858 32.5408V31.2878Z" fill="white"/>
<path d="M25.5077 32.5263V26.5156L21.3223 26.5289V32.5395C21.3223 32.8495 21.5289 33.1568 21.9368 33.3925C22.3954 33.625 22.9022 33.7462 23.4163 33.7462C23.9304 33.7462 24.4373 33.625 24.8958 33.3925C25.0664 33.3167 25.2133 33.1962 25.3211 33.0437C25.4288 32.8912 25.4933 32.7124 25.5077 32.5263Z" fill="#263238"/>
<path d="M21.3169 31.2878C21.3169 31.5977 21.5235 31.905 21.9315 32.1408C22.39 32.3733 22.8969 32.4944 23.411 32.4944C23.9251 32.4944 24.4319 32.3733 24.8905 32.1408C25.0591 32.0654 25.2045 31.9464 25.3116 31.7959C25.4187 31.6455 25.4837 31.4691 25.4997 31.2852V32.5382C25.4837 32.7221 25.4187 32.8985 25.3116 33.0489C25.2045 33.1994 25.0591 33.3184 24.8905 33.3938C24.4319 33.6263 23.9251 33.7474 23.411 33.7474C22.8969 33.7474 22.39 33.6263 21.9315 33.3938C21.5235 33.158 21.3169 32.864 21.3169 32.5408V31.2878Z" fill="#B3D766"/>
<path opacity="0.25" d="M21.3169 31.2878C21.3169 31.5977 21.5235 31.905 21.9315 32.1408C22.39 32.3733 22.8969 32.4944 23.411 32.4944C23.9251 32.4944 24.4319 32.3733 24.8905 32.1408C25.0591 32.0654 25.2045 31.9464 25.3116 31.7959C25.4187 31.6455 25.4837 31.4691 25.4997 31.2852V32.5382C25.4837 32.7221 25.4187 32.8985 25.3116 33.0489C25.2045 33.1994 25.0591 33.3184 24.8905 33.3938C24.4319 33.6263 23.9251 33.7474 23.411 33.7474C22.8969 33.7474 22.39 33.6263 21.9315 33.3938C21.5235 33.158 21.3169 32.864 21.3169 32.5408V31.2878Z" fill="black"/>
<path d="M25.9052 35.1774V29.1641L30.088 29.1773V35.1906C30.0703 35.3742 30.004 35.5497 29.896 35.6991C29.788 35.8486 29.6421 35.9666 29.4734 36.041C29.0149 36.2735 28.508 36.3946 27.9939 36.3946C27.4798 36.3946 26.973 36.2735 26.5145 36.041C26.1065 35.7946 25.9025 35.4847 25.9052 35.1774Z" fill="#37474F"/>
<path d="M30.088 33.935C30.088 34.2449 29.8814 34.5522 29.4734 34.788C29.0147 35.0199 28.5079 35.1407 27.9939 35.1407C27.48 35.1407 26.9732 35.0199 26.5145 34.788C26.1065 34.5496 25.9025 34.2396 25.9052 33.9297V35.1853C25.9052 35.4926 26.1065 35.8026 26.5145 36.041C26.973 36.2735 27.4798 36.3946 27.9939 36.3946C28.508 36.3946 29.0149 36.2735 29.4734 36.041C29.6421 35.9666 29.788 35.8486 29.896 35.6991C30.004 35.5497 30.0703 35.3742 30.088 35.1906V33.935Z" fill="#B3D766"/>
<path d="M35.1076 21.2827C35.1076 20.4351 34.652 19.59 33.7222 18.8801C33.177 18.4535 32.6828 17.9655 32.2493 17.4258L30.2493 14.9939C29.0736 13.5444 27.4967 12.4735 25.7157 11.9152C23.9348 11.3569 22.0288 11.3359 20.2359 11.8548C19.6565 12.0249 19.0984 12.2604 18.5723 12.5568C17.0968 13.4019 16.4293 14.5436 16.5776 15.6562V22.6391C16.4928 23.6987 17.1577 24.7954 18.5697 25.6166L23.3883 28.4113C26.0585 29.9663 30.4003 29.9795 33.0838 28.4431C34.4083 27.6749 35.0917 26.6682 35.0997 25.659C35.1076 24.6497 35.1023 22.292 35.1076 21.2827Z" fill="#37474F"/>
<path d="M18.3735 23.5802L20.0477 24.5444V23.5802L18.3735 22.6133V23.5802Z" fill="#B3D766"/>
<path d="M21.4148 21.6298C22.59 23.0801 24.1667 24.1517 25.9478 24.7105C27.7288 25.2693 29.6351 25.2905 31.4282 24.7715C32.0076 24.6015 32.5657 24.366 33.0918 24.0695C35.5501 22.6603 35.762 20.4377 33.7222 18.8774C33.1773 18.4534 32.6839 17.9671 32.252 17.4284L30.2494 14.9939C29.0736 13.5444 27.4967 12.4735 25.7158 11.9152C23.9348 11.3569 22.0288 11.3359 20.236 11.8548C19.6566 12.0249 19.0985 12.2604 18.5724 12.5568C16.1141 13.9661 15.9022 16.1887 17.9446 17.7463C18.489 18.1719 18.9823 18.659 19.4148 19.198L21.4148 21.6298Z" fill="#455A64"/>
<path d="M33.0913 27.6019C30.4079 29.141 26.0661 29.1277 23.3959 27.5727L18.5561 24.778C17.2315 24.0018 16.5534 22.9846 16.556 21.9727V22.8098C16.556 23.8217 17.2183 24.8389 18.5561 25.6151L23.3879 28.4098C26.0581 29.9648 30.3999 29.978 33.0834 28.4416C34.4079 27.6734 35.0914 26.6668 35.0993 25.6575V24.8204C35.0993 25.8297 34.4264 26.8363 33.0913 27.6019Z" fill="#B3D766"/>
<path d="M16.5534 15.3464V10.5781L30.2674 10.6205V15.3888C30.2674 16.4007 29.5919 17.4126 28.2515 18.1809C25.568 19.72 21.2289 19.7067 18.556 18.1517C17.2156 17.3756 16.5507 16.3583 16.5534 15.3464Z" fill="#37474F"/>
<path d="M30.2755 10.6322L16.5614 10.5898C16.5614 10.5898 16.5614 10.6349 16.5614 11.6495C16.5614 12.664 17.2237 13.676 18.5614 14.4548C21.2317 16.0071 25.5734 16.023 28.2569 14.4839C29.5973 13.7157 30.2702 12.7038 30.2728 11.6918C30.2755 10.6799 30.2755 10.6322 30.2755 10.6322Z" fill="#B3D766"/>
<path d="M28.2694 7.84189C25.5965 6.28955 21.2548 6.27365 18.5713 7.81275C15.8878 9.35184 15.8825 11.8578 18.5554 13.4102C21.2283 14.9625 25.57 14.9784 28.2509 13.442C30.9317 11.9055 30.9423 9.38363 28.2694 7.84189Z" fill="#B3D766"/>
<path opacity="0.5" d="M28.2694 7.84189C25.5965 6.28955 21.2548 6.27365 18.5713 7.81275C15.8878 9.35184 15.8825 11.8578 18.5554 13.4102C21.2283 14.9625 25.57 14.9784 28.2509 13.442C30.9317 11.9055 30.9423 9.38363 28.2694 7.84189Z" fill="white"/>
<path d="M20.4446 10.2252V1.69531L26.3705 1.71385V10.2252C26.3705 10.6623 26.0764 11.0994 25.4963 11.4332C24.8456 11.7596 24.1273 11.9285 23.3993 11.9262C22.6714 11.9239 21.9541 11.7505 21.3055 11.4199C20.7386 11.0888 20.4446 10.6491 20.4446 10.2252Z" fill="#37474F"/>
<path d="M26.3732 1.71385L20.4473 1.69531C20.4473 1.69531 20.4473 2.50592 20.4473 2.94301C20.4473 3.3801 20.736 3.81984 21.3135 4.15627C21.963 4.48536 22.6808 4.65685 23.4089 4.65685C24.137 4.65685 24.8548 4.48536 25.5043 4.15627C26.0818 3.82249 26.3732 3.3854 26.3758 2.94831C26.3785 2.51122 26.3732 1.71385 26.3732 1.71385Z" fill="#B3D766"/>
<path d="M25.5066 0.499625C24.8569 0.171146 24.1391 0 23.4112 0C22.6832 0 21.9654 0.171146 21.3158 0.499625C20.1555 1.16453 20.1529 2.24799 21.3158 2.92085C21.9642 3.25199 22.6815 3.42576 23.4096 3.42806C24.1377 3.43036 24.8561 3.26113 25.5066 2.93409C26.6615 2.25594 26.6642 1.17248 25.5066 0.499625Z" fill="#B3D766"/>
<path opacity="0.25" d="M25.5066 0.499625C24.8569 0.171146 24.1391 0 23.4112 0C22.6832 0 21.9654 0.171146 21.3158 0.499625C20.1555 1.16453 20.1529 2.24799 21.3158 2.92085C21.9642 3.25199 22.6815 3.42576 23.4096 3.42806C24.1377 3.43036 24.8561 3.26113 25.5066 2.93409C26.6615 2.25594 26.6642 1.17248 25.5066 0.499625Z" fill="black"/>
<path d="M24.9193 0.837224C24.4527 0.600137 23.9367 0.476562 23.4133 0.476562C22.8899 0.476563 22.374 0.600137 21.9073 0.837224C21.0729 1.3167 21.0703 2.09551 21.9073 2.57764C22.374 2.81473 22.8899 2.9383 23.4133 2.9383C23.9367 2.9383 24.4527 2.81473 24.9193 2.57764C25.7485 2.09816 25.7511 1.31935 24.9193 0.837224Z" fill="#263238"/>
<path d="M21.9067 2.05988C21.7818 2.13178 21.6676 2.22096 21.5676 2.32478C21.6655 2.42879 21.7779 2.51803 21.9014 2.58968C22.368 2.82677 22.884 2.95035 23.4074 2.95035C23.9308 2.95035 24.4468 2.82677 24.9134 2.58968C25.0383 2.51772 25.1524 2.42855 25.2524 2.32478C25.1531 2.22238 25.0409 2.13333 24.9187 2.05988C24.4521 1.82279 23.9361 1.69922 23.4127 1.69922C22.8893 1.69922 22.3733 1.82279 21.9067 2.05988Z" fill="#455A64"/>
<path d="M22.7417 2.17705C22.7655 2.29361 22.6569 2.41281 22.4979 2.44195C22.339 2.47109 22.188 2.41017 22.1642 2.29626C22.1403 2.18235 22.2489 2.06049 22.4079 2.03135C22.4716 2.00836 22.5417 2.01065 22.6038 2.03775C22.6659 2.06484 22.7152 2.11469 22.7417 2.17705Z" fill="#FAFAFA"/>
<path d="M23.1221 2.05091C23.1243 2.07886 23.1163 2.10664 23.0996 2.12917C23.0829 2.1517 23.0587 2.16747 23.0313 2.17358C23.004 2.17969 22.9753 2.17575 22.9507 2.16246C22.926 2.14918 22.9069 2.12744 22.897 2.10124C22.8906 2.07141 22.8962 2.04028 22.9126 2.01452C22.9289 1.98877 22.9547 1.97045 22.9844 1.96349C23.0142 1.95714 23.0454 1.96274 23.0711 1.97908C23.0969 1.99543 23.1152 2.02121 23.1221 2.05091Z" fill="#FAFAFA"/>
<path d="M14.8762 11.8125C15.2841 11.5476 15.859 11.5847 16.4947 11.9529C16.859 12.1687 17.1856 12.4425 17.4616 12.7635C17.5332 12.843 17.602 12.9251 17.6656 13.0099V13.0231C18.0338 13.5026 18.3202 14.0397 18.5133 14.6126C18.6518 15.0124 18.7252 15.4319 18.7305 15.855C18.7305 16.5543 18.4921 17.0523 18.1027 17.2934L17.353 17.7278C17.4702 17.6537 17.5726 17.5585 17.655 17.447C17.8863 17.1067 18.0007 16.7004 17.9809 16.2894C17.9809 14.8563 16.9742 13.1105 15.7318 12.3953C15.384 12.1722 14.9729 12.0689 14.5609 12.1013C14.4078 12.118 14.2603 12.1687 14.1292 12.2496L14.8762 11.8125Z" fill="#B3D766"/>
<path opacity="0.7" d="M14.8762 11.8125C15.2841 11.5476 15.859 11.5847 16.4947 11.9529C16.859 12.1687 17.1856 12.4425 17.4616 12.7635C17.5332 12.843 17.602 12.9251 17.6656 13.0099V13.0231C18.0338 13.5026 18.3202 14.0397 18.5133 14.6126C18.6518 15.0124 18.7252 15.4319 18.7305 15.855C18.7305 16.5543 18.4921 17.0523 18.1027 17.2934L17.353 17.7278C17.4702 17.6537 17.5726 17.5585 17.655 17.447C17.8863 17.1067 18.0007 16.7004 17.9809 16.2894C17.9809 14.8563 16.9742 13.1105 15.7318 12.3953C15.384 12.1722 14.9729 12.0689 14.5609 12.1013C14.4078 12.118 14.2603 12.1687 14.1292 12.2496L14.8762 11.8125Z" fill="white"/>
<path d="M14.1431 12.2362C14.2742 12.1552 14.4217 12.1046 14.5749 12.0878C14.9868 12.0555 15.398 12.1588 15.7458 12.3819C16.9882 13.0998 17.9948 14.8428 17.9948 16.276C18.0146 16.687 17.9003 17.0933 17.669 17.4336C17.5866 17.5451 17.4842 17.6403 17.367 17.7144L17.3299 17.7329C17.1421 17.839 16.9281 17.8895 16.7127 17.8786C16.3703 17.858 16.0382 17.7534 15.7458 17.574C14.506 16.8561 13.4994 15.113 13.4994 13.6799C13.4994 12.9726 13.7431 12.4746 14.1431 12.2362Z" fill="#B3D766"/>
<path opacity="0.6" d="M14.1431 12.2362C14.2742 12.1552 14.4217 12.1046 14.5749 12.0878C14.9868 12.0555 15.398 12.1588 15.7458 12.3819C16.9882 13.0998 17.9948 14.8428 17.9948 16.276C18.0146 16.687 17.9003 17.0933 17.669 17.4336C17.5866 17.5451 17.4842 17.6403 17.367 17.7144L17.3299 17.7329C17.1421 17.839 16.9281 17.8895 16.7127 17.8786C16.3703 17.858 16.0382 17.7534 15.7458 17.574C14.506 16.8561 13.4994 15.113 13.4994 13.6799C13.4994 12.9726 13.7431 12.4746 14.1431 12.2362Z" fill="white"/>
<path d="M15.7457 13.9318C15.2477 13.6431 14.8424 13.8788 14.8424 14.4616C14.8595 14.7755 14.9502 15.081 15.1071 15.3534C15.264 15.6258 15.4828 15.8575 15.7457 16.0298C16.2464 16.3186 16.6517 16.0855 16.6517 15.5C16.6343 15.1859 16.5432 14.8802 16.3858 14.6078C16.2285 14.3354 16.0092 14.1038 15.7457 13.9318Z" fill="#455A64"/>
</g>
<defs>
<filter id="filter0_d_976_2892" x="0.5" y="0" width="43.437" height="69.043" filterUnits="userSpaceOnUse" color-interpolation-filters="sRGB">
<feFlood flood-opacity="0" result="BackgroundImageFix"/>
<feColorMatrix in="SourceAlpha" type="matrix" values="0 0 0 0 0 0 0 0 0 0 0 0 0 0 0 0 0 0 127 0" result="hardAlpha"/>
<feOffset dy="2"/>
<feGaussianBlur stdDeviation="1"/>
<feComposite in2="hardAlpha" operator="out"/>
<feColorMatrix type="matrix" values="0 0 0 0 0 0 0 0 0 0 0 0 0 0 0 0 0 0 0.25 0"/>
<feBlend mode="normal" in2="BackgroundImageFix" result="effect1_dropShadow_976_2892"/>
<feBlend mode="normal" in="SourceGraphic" in2="effect1_dropShadow_976_2892" result="shape"/>
</filter>
</defs>
</svg>
