<svg width="32" height="49" viewBox="0 0 32 49" fill="none" xmlns="http://www.w3.org/2000/svg">
<g filter="url(#filter0_d_905_14911)">
<path d="M2.00207 35.5046V36.7648L19.8057 47.0452V45.7813C19.8057 45.0873 19.1098 44.1206 18.2522 43.6259L3.55561 35.1379C3.03839 34.8407 2.58136 34.7805 2.29924 34.931C2.20077 34.989 2.12065 35.0736 2.06808 35.175C2.01552 35.2765 1.99264 35.3908 2.00207 35.5046Z" fill="#263238"/>
<path d="M12.456 29.0656L12.4786 29.0543C12.7589 28.8926 13.2309 28.9471 13.75 29.2424L28.4485 37.7286C29.3042 38.2232 30.0001 39.19 30.0001 39.8858V41.1479L19.8043 47.0348V45.7709C19.8043 45.0769 19.1084 44.1101 18.2508 43.6155L3.55423 35.1274C3.03701 34.8303 2.57997 34.7701 2.29785 34.9205L12.456 29.0656Z" fill="#455A64"/>
<path d="M23.9644 36.1781C22.7287 35.4653 21.0492 35.1681 19.4392 35.281L13.2721 31.7188L8.51929 34.4628L14.6845 38.027C14.4871 38.9561 15.0062 39.9266 16.2418 40.6394C18.3747 41.8713 21.8316 41.8713 23.9644 40.6394C26.0972 39.4075 26.0972 37.4101 23.9644 36.1781Z" fill="#37474F"/>
<path d="M7.37695 31.7034V33.8061L11.0182 35.9088V33.8061C11.0182 32.6457 10.2038 31.2332 9.19756 30.652C8.68787 30.3567 8.22895 30.3323 7.89981 30.5316C7.57068 30.731 7.37695 31.1297 7.37695 31.7034Z" fill="#B3D766"/>
<path opacity="0.6" d="M7.37695 31.7034V33.8061L11.0182 35.9088V33.8061C11.0182 32.6457 10.2038 31.2332 9.19756 30.652C8.68787 30.3567 8.22895 30.3323 7.89981 30.5316C7.57068 30.731 7.37695 31.1297 7.37695 31.7034Z" fill="white"/>
<path d="M12.2557 28.0143L12.2839 27.9974C12.613 27.8093 13.0663 27.8394 13.5666 28.129C14.5728 28.7083 15.3872 30.1208 15.3872 31.2813V33.3859L11.0181 35.908V33.8053C11.0181 32.6448 10.2037 31.2324 9.19748 30.6512C8.71412 30.3728 8.27777 30.3352 7.95239 30.5007L12.2557 28.0143Z" fill="#B3D766"/>
<path opacity="0.7" d="M12.2557 28.0143L12.2839 27.9974C12.613 27.8093 13.0663 27.8394 13.5666 28.129C14.5728 28.7083 15.3872 30.1208 15.3872 31.2813V33.3859L11.0181 35.908V33.8053C11.0181 32.6448 10.2037 31.2324 9.19748 30.6512C8.71412 30.3728 8.27777 30.3352 7.95239 30.5007L12.2557 28.0143Z" fill="white"/>
<path d="M9.19765 32.4967C8.93058 32.3406 8.7124 32.4666 8.7124 32.7769C8.72175 32.9456 8.77052 33.1096 8.85479 33.256C8.93907 33.4023 9.0565 33.5268 9.19765 33.6195C9.4666 33.7738 9.68478 33.6478 9.68478 33.3374C9.67537 33.1689 9.62637 33.0049 9.54173 32.8588C9.45709 32.7128 9.33921 32.5887 9.19765 32.4967Z" fill="#455A64"/>
<path d="M6.44419 23.6096C7.42032 26.7919 8.1087 28.1348 9.93307 30.5686L13.3185 28.6144C11.6465 25.9813 10.7249 24.0008 10.2979 21.3903C9.55691 16.8463 11.2289 12.8571 12.9988 11.2151L11.6822 9.39453C10.8923 9.86849 8.29678 11.3506 8.29678 11.3506L9.40269 13.2013C6.23918 14.9222 5.46994 20.4254 6.44419 23.6096Z" fill="#37474F"/>
<path d="M8.29868 11.3438C6.50816 12.4139 3.76596 15.553 4.17597 21.4907C4.37534 24.3871 5.54895 27.9004 7.61971 30.7931C7.69019 30.6837 7.78642 30.5933 7.89995 30.5298C8.02785 30.4545 8.22533 30.3417 8.36451 30.2608C8.69365 30.0727 9.15257 30.0878 9.66038 30.3812C9.75559 30.4383 9.84729 30.5012 9.93498 30.5693C8.46795 27.8609 6.9257 25.4911 6.54954 22.8674C5.72951 17.1686 8.23097 13.8979 9.40271 13.2001L8.29868 11.3438Z" fill="#263238"/>
<path d="M8.29883 11.3429C9.21632 10.8173 10.251 10.5302 11.3081 10.5078L11.6523 12.4977C11.6523 12.4977 10.7664 12.3529 9.4085 13.1936L8.29883 11.3429Z" fill="#263238"/>
<path d="M16.8359 36.0349V34.3535L21.5868 31.6094V33.2908L16.8359 36.0349Z" fill="#B3D766"/>
<path opacity="0.15" d="M16.8359 36.0349V34.3535L21.5868 31.6094V33.2908L16.8359 36.0349Z" fill="black"/>
<path d="M16.8362 36.0339L8.51929 31.2322V29.5508L16.8362 34.3525V36.0339Z" fill="#B3D766"/>
<path opacity="0.25" d="M16.8362 36.0339L8.51929 31.2322V29.5508L16.8362 34.3525V36.0339Z" fill="black"/>
<path d="M21.5871 31.6103L13.2702 26.8086L8.51929 29.5527L16.8362 34.3544L21.5871 31.6103Z" fill="#B3D766"/>
<path d="M25.5612 35.0392V33.4969C25.5612 32.69 25.0308 31.8832 23.9644 31.2663C21.8315 30.0362 18.3746 30.0362 16.2418 31.2663C15.1754 31.8832 14.6431 32.69 14.6431 33.4969V35.0392C14.6281 35.8573 15.1604 36.6773 16.2399 37.2961C18.3728 38.528 21.8297 38.528 23.9625 37.2961C25.0421 36.6736 25.5725 35.8535 25.5574 35.0392H25.5612Z" fill="#B3D766"/>
<path opacity="0.25" d="M25.5612 35.0392V33.4969C25.5612 32.69 25.0308 31.8832 23.9644 31.2663C21.8315 30.0362 18.3746 30.0362 16.2418 31.2663C15.1754 31.8832 14.6431 32.69 14.6431 33.4969V35.0392C14.6281 35.8573 15.1604 36.6773 16.2399 37.2961C18.3728 38.528 21.8297 38.528 23.9625 37.2961C25.0421 36.6736 25.5725 35.8535 25.5574 35.0392H25.5612Z" fill="black"/>
<path d="M16.2415 31.2663C18.3743 30.0362 21.8312 30.0362 23.964 31.2663C26.0969 32.4963 26.0969 34.4937 23.964 35.7257C21.8312 36.9576 18.3743 36.9576 16.2415 35.7257C14.1086 34.4937 14.1086 32.4982 16.2415 31.2663Z" fill="#B3D766"/>
<path d="M24.1952 33.4119V32.2553C24.1952 31.6496 23.7983 31.044 22.9971 30.5832C21.3984 29.6598 18.8048 29.6598 17.2061 30.5832C16.4068 31.044 16.008 31.6496 16.008 32.2553V33.4119C15.9968 34.0251 16.3955 34.6401 17.2042 35.1047C18.8029 36.0281 21.3965 36.0281 22.9952 35.1047C23.8058 34.6382 24.2027 34.0232 24.1933 33.4119H24.1952Z" fill="#E0E0E0"/>
<path d="M17.2061 30.5832C18.8048 29.6598 21.3984 29.6598 22.9971 30.5832C24.5957 31.5067 24.5957 33.0038 22.9971 33.9254C21.3984 34.847 18.8048 34.8489 17.2061 33.9254C15.6074 33.0019 15.6074 31.5067 17.2061 30.5832Z" fill="#FAFAFA"/>
<path d="M17.3713 30.6805C18.876 29.8096 21.321 29.8096 22.8257 30.6805C24.3303 31.5513 24.3303 32.9619 22.8257 33.8327C21.321 34.7035 18.876 34.7035 17.3713 33.8327C15.8667 32.9619 15.8629 31.5494 17.3713 30.6805Z" fill="#E6E6E6"/>
<path d="M22.8322 31.7454C21.3275 30.8765 18.8825 30.8765 17.3779 31.7454C16.9354 31.9742 16.5785 32.3396 16.3604 32.7874C16.5785 33.2352 16.9354 33.6007 17.3779 33.8294C18.8825 34.7002 21.3275 34.7002 22.8322 33.8294C23.2751 33.6007 23.6326 33.2353 23.8516 32.7874C23.6326 32.3395 23.2751 31.9742 22.8322 31.7454Z" fill="#F0F0F0"/>
<path d="M19.4094 32.3837C19.6243 32.2752 19.8617 32.2188 20.1025 32.2188C20.3432 32.2188 20.5806 32.2752 20.7955 32.3837C21.1717 32.6056 21.1717 32.963 20.7955 33.1849C20.5806 33.2934 20.3432 33.3499 20.1025 33.3499C19.8617 33.3499 19.6243 33.2934 19.4094 33.1849C19.0276 32.9668 19.0276 32.6094 19.4094 32.3837Z" fill="#B3D766"/>
<path d="M21.1659 33.2006C21.2321 33.1663 21.3057 33.1484 21.3803 33.1484C21.4549 33.1484 21.5284 33.1663 21.5947 33.2006C21.6206 33.2092 21.6431 33.2257 21.6591 33.2479C21.6751 33.27 21.6837 33.2966 21.6837 33.3238C21.6837 33.3511 21.6751 33.3777 21.6591 33.3998C21.6431 33.4219 21.6206 33.4384 21.5947 33.447C21.5284 33.4813 21.4549 33.4992 21.3803 33.4992C21.3057 33.4992 21.2321 33.4813 21.1659 33.447C21.14 33.4384 21.1174 33.4219 21.1015 33.3998C21.0855 33.3777 21.0769 33.3511 21.0769 33.3238C21.0769 33.2966 21.0855 33.27 21.1015 33.2479C21.1174 33.2257 21.14 33.2092 21.1659 33.2006Z" fill="#B3D766"/>
<path opacity="0.6" d="M20.7803 32.5982C20.7803 32.7054 20.6299 32.7863 20.4437 32.7863C20.2575 32.7863 20.1089 32.7017 20.1089 32.5982C20.1089 32.4948 20.2594 32.4102 20.4437 32.4102C20.628 32.4102 20.7803 32.4929 20.7803 32.5982Z" fill="white"/>
<path opacity="0.6" d="M21.5564 33.2614C21.5564 33.2953 21.5094 33.3216 21.453 33.3216C21.3966 33.3216 21.3477 33.2953 21.3477 33.2614C21.3477 33.2276 21.3947 33.2031 21.453 33.2031C21.5113 33.2031 21.5564 33.2295 21.5564 33.2614Z" fill="white"/>
<path d="M21.8818 23.955V19.6875L24.8535 19.6969V23.9644C24.8535 24.1845 24.7068 24.4027 24.4172 24.5701C24.0916 24.7351 23.7317 24.8211 23.3667 24.8211C23.0017 24.8211 22.6419 24.7351 22.3163 24.5701C22.1949 24.5165 22.0904 24.4311 22.0139 24.3227C21.9373 24.2144 21.8917 24.0873 21.8818 23.955Z" fill="#263238"/>
<path d="M24.8516 23.0761C24.8516 23.2962 24.7049 23.5143 24.4153 23.6817C24.0897 23.8468 23.7299 23.9328 23.3648 23.9328C22.9998 23.9328 22.64 23.8468 22.3144 23.6817C22.1945 23.6286 22.091 23.5441 22.0149 23.4372C21.9388 23.3303 21.8928 23.205 21.8818 23.0742V23.9638C21.8928 24.0946 21.9388 24.22 22.0149 24.3268C22.091 24.4337 22.1945 24.5182 22.3144 24.5713C22.64 24.7364 22.9998 24.8224 23.3648 24.8224C23.7299 24.8224 24.0897 24.7364 24.4153 24.5713C24.7049 24.4039 24.8516 24.1952 24.8516 23.9657V23.0761Z" fill="#B3D766"/>
<path opacity="0.6" d="M24.8516 23.0761C24.8516 23.2962 24.7049 23.5143 24.4153 23.6817C24.0897 23.8468 23.7299 23.9328 23.3648 23.9328C22.9998 23.9328 22.64 23.8468 22.3144 23.6817C22.1945 23.6286 22.091 23.5441 22.0149 23.4372C21.9388 23.3303 21.8928 23.205 21.8818 23.0742V23.9638C21.8928 24.0946 21.9388 24.22 22.0149 24.3268C22.091 24.4337 22.1945 24.5182 22.3144 24.5713C22.64 24.7364 22.9998 24.8224 23.3648 24.8224C23.7299 24.8224 24.0897 24.7364 24.4153 24.5713C24.7049 24.4039 24.8516 24.1952 24.8516 23.9657V23.0761Z" fill="white"/>
<path d="M18.3354 23.955V19.6875L15.3638 19.6969V23.9644C15.3638 24.1845 15.5105 24.4027 15.8001 24.5701C16.1257 24.7351 16.4855 24.8211 16.8505 24.8211C17.2156 24.8211 17.5754 24.7351 17.901 24.5701C18.0221 24.5162 18.1264 24.4306 18.2029 24.3224C18.2794 24.2141 18.3252 24.0872 18.3354 23.955Z" fill="#263238"/>
<path d="M15.3599 23.0761C15.3599 23.2962 15.5066 23.5143 15.7962 23.6817C16.1218 23.8468 16.4816 23.9328 16.8466 23.9328C17.2116 23.9328 17.5715 23.8468 17.8971 23.6817C18.0168 23.6282 18.12 23.5437 18.1961 23.4369C18.2721 23.3301 18.3183 23.2048 18.3296 23.0742V23.9638C18.3183 24.0945 18.2721 24.2197 18.1961 24.3265C18.12 24.4333 18.0168 24.5178 17.8971 24.5713C17.5715 24.7364 17.2116 24.8224 16.8466 24.8224C16.4816 24.8224 16.1218 24.7364 15.7962 24.5713C15.5066 24.4039 15.3599 24.1952 15.3599 23.9657V23.0761Z" fill="#B3D766"/>
<path opacity="0.25" d="M15.3599 23.0761C15.3599 23.2962 15.5066 23.5143 15.7962 23.6817C16.1218 23.8468 16.4816 23.9328 16.8466 23.9328C17.2116 23.9328 17.5715 23.8468 17.8971 23.6817C18.0168 23.6282 18.12 23.5437 18.1961 23.4369C18.2721 23.3301 18.3183 23.2048 18.3296 23.0742V23.9638C18.3183 24.0945 18.2721 24.2197 18.1961 24.3265C18.12 24.4333 18.0168 24.5178 17.8971 24.5713C17.5715 24.7364 17.2116 24.8224 16.8466 24.8224C16.4816 24.8224 16.1218 24.7364 15.7962 24.5713C15.5066 24.4039 15.3599 24.1952 15.3599 23.9657V23.0761Z" fill="black"/>
<path d="M18.6177 25.8397V21.5703L21.5875 21.5797V25.8491C21.5749 25.9794 21.5278 26.1041 21.4512 26.2102C21.3745 26.3163 21.2709 26.4 21.1511 26.4529C20.8256 26.6179 20.4657 26.7039 20.1007 26.7039C19.7357 26.7039 19.3758 26.6179 19.0503 26.4529C18.7606 26.278 18.6158 26.0579 18.6177 25.8397Z" fill="#37474F"/>
<path d="M21.5875 24.9569C21.5875 25.1769 21.4408 25.3951 21.1511 25.5625C20.8254 25.7271 20.4656 25.8129 20.1007 25.8129C19.7358 25.8129 19.376 25.7271 19.0503 25.5625C18.7606 25.3932 18.6158 25.1732 18.6177 24.9531V25.8446C18.6177 26.0628 18.7606 26.2828 19.0503 26.4521C19.3758 26.6172 19.7357 26.7032 20.1007 26.7032C20.4657 26.7032 20.8256 26.6172 21.1511 26.4521C21.2709 26.3993 21.3745 26.3155 21.4512 26.2094C21.5278 26.1033 21.5749 25.9787 21.5875 25.8484V24.9569Z" fill="#B3D766"/>
<path d="M25.1513 15.9713C25.1513 15.3694 24.8278 14.7694 24.1676 14.2654C23.7805 13.9625 23.4296 13.6161 23.1219 13.2328L21.7019 11.5063C20.8671 10.4771 19.7475 9.71678 18.4831 9.32038C17.2186 8.92398 15.8654 8.90907 14.5925 9.27751C14.1811 9.39823 13.7848 9.56545 13.4113 9.77592C12.3637 10.3759 11.8898 11.1865 11.9951 11.9765V16.9342C11.9349 17.6866 12.407 18.4652 13.4094 19.0483L16.8306 21.0325C18.7265 22.1365 21.8091 22.1459 23.7143 21.0551C24.6547 20.5096 25.14 19.7949 25.1456 19.0784C25.1513 18.3618 25.1475 16.6879 25.1513 15.9713Z" fill="#37474F"/>
<path d="M13.27 17.6045L14.4587 18.2891V17.6045L13.27 16.918V17.6045Z" fill="#B3D766"/>
<path d="M15.4294 16.2177C16.2638 17.2474 17.3833 18.0082 18.6478 18.4049C19.9123 18.8017 21.2658 18.8168 22.5389 18.4483C22.9502 18.3276 23.3465 18.1603 23.72 17.9499C25.4654 16.9493 25.6158 15.3713 24.1676 14.2635C23.7807 13.9625 23.4304 13.6172 23.1238 13.2347L21.7019 11.5063C20.8671 10.4771 19.7476 9.71678 18.4831 9.32038C17.2186 8.92398 15.8654 8.90907 14.5925 9.27751C14.1811 9.39823 13.7848 9.56545 13.4113 9.77592C11.666 10.7765 11.5155 12.3545 12.9656 13.4604C13.3521 13.7626 13.7024 14.1084 14.0094 14.4911L15.4294 16.2177Z" fill="#455A64"/>
<path d="M23.7197 20.4615C21.8144 21.5543 18.7318 21.5449 16.836 20.4408L13.3997 18.4566C12.4593 17.9055 11.9779 17.1833 11.9797 16.4648V17.0592C11.9797 17.7776 12.4499 18.4999 13.3997 19.0509L16.8303 21.0352C18.7262 22.1392 21.8088 22.1486 23.714 21.0578C24.6544 20.5123 25.1397 19.7976 25.1453 19.081V18.4867C25.1453 19.2033 24.6676 19.918 23.7197 20.4615Z" fill="#B3D766"/>
<path d="M11.9778 11.7604V8.375L21.7147 8.40509V11.7905C21.7147 12.509 21.2351 13.2275 20.2834 13.7729C18.3781 14.8656 15.2974 14.8562 13.3997 13.7522C12.448 13.2011 11.9759 12.4789 11.9778 11.7604Z" fill="#37474F"/>
<path d="M21.7205 8.4129L11.9836 8.38281C11.9836 8.38281 11.9836 8.41479 11.9836 9.13513C11.9836 9.85548 12.4538 10.5739 13.4036 11.1269C15.2995 12.229 18.3821 12.2403 20.2874 11.1476C21.2391 10.6022 21.7168 9.88369 21.7187 9.16522C21.7205 8.44676 21.7205 8.4129 21.7205 8.4129Z" fill="#B3D766"/>
<path d="M20.2961 6.43113C18.3984 5.32898 15.3158 5.3177 13.4105 6.41044C11.5053 7.50318 11.5015 9.28242 13.3992 10.3846C15.297 11.4867 18.3796 11.498 20.283 10.4071C22.1863 9.31627 22.1939 7.52575 20.2961 6.43113Z" fill="#B3D766"/>
<path opacity="0.5" d="M20.2961 6.43113C18.3984 5.32898 15.3158 5.3177 13.4105 6.41044C11.5053 7.50318 11.5015 9.28242 13.3992 10.3846C15.297 11.4867 18.3796 11.498 20.283 10.4071C22.1863 9.31627 22.1939 7.52575 20.2961 6.43113Z" fill="white"/>
<path d="M14.7402 8.12258V2.06641L18.9476 2.07957V8.12258C18.9476 8.43291 18.7388 8.74324 18.3269 8.98022C17.8649 9.21198 17.3549 9.33189 16.8381 9.33025C16.3212 9.32862 15.812 9.20549 15.3515 8.97082C14.949 8.73572 14.7402 8.42351 14.7402 8.12258Z" fill="#37474F"/>
<path d="M18.9498 2.07957L14.7424 2.06641C14.7424 2.06641 14.7424 2.64193 14.7424 2.95226C14.7424 3.26259 14.9474 3.57481 15.3575 3.81367C15.8186 4.04732 16.3282 4.16908 16.8452 4.16908C17.3621 4.16908 17.8718 4.04732 18.3329 3.81367C18.7429 3.57669 18.9498 3.26636 18.9517 2.95602C18.9535 2.64569 18.9498 2.07957 18.9498 2.07957Z" fill="#B3D766"/>
<path d="M18.3342 1.21801C17.873 0.984794 17.3633 0.863281 16.8465 0.863281C16.3296 0.863281 15.82 0.984794 15.3588 1.21801C14.535 1.69009 14.5331 2.45934 15.3588 2.93706C15.8192 3.17217 16.3284 3.29554 16.8454 3.29718C17.3623 3.29881 17.8724 3.17866 18.3342 2.94647C19.1542 2.46498 19.1561 1.69573 18.3342 1.21801Z" fill="#B3D766"/>
<path opacity="0.25" d="M18.3342 1.21801C17.873 0.984794 17.3633 0.863281 16.8465 0.863281C16.3296 0.863281 15.82 0.984794 15.3588 1.21801C14.535 1.69009 14.5331 2.45934 15.3588 2.93706C15.8192 3.17217 16.3284 3.29554 16.8454 3.29718C17.3623 3.29881 17.8724 3.17866 18.3342 2.94647C19.1542 2.46498 19.1561 1.69573 18.3342 1.21801Z" fill="black"/>
<path d="M17.9175 1.45919C17.5862 1.29086 17.2199 1.20312 16.8483 1.20312C16.4767 1.20313 16.1103 1.29086 15.779 1.45919C15.1866 1.79962 15.1847 2.35257 15.779 2.69488C16.1103 2.86321 16.4767 2.95094 16.8483 2.95094C17.2199 2.95094 17.5862 2.86321 17.9175 2.69488C18.5062 2.35445 18.5081 1.8015 17.9175 1.45919Z" fill="#263238"/>
<path d="M15.7788 2.32638C15.6901 2.37743 15.6091 2.44074 15.5381 2.51446C15.6075 2.58831 15.6874 2.65166 15.7751 2.70254C16.1064 2.87087 16.4727 2.9586 16.8443 2.9586C17.2159 2.9586 17.5822 2.87087 17.9135 2.70254C18.0022 2.65145 18.0832 2.58813 18.1543 2.51446C18.0838 2.44175 18.0041 2.37853 17.9173 2.32638C17.586 2.15805 17.2197 2.07031 16.8481 2.07031C16.4765 2.07031 16.1101 2.15805 15.7788 2.32638Z" fill="#455A64"/>
<path d="M16.3716 2.40758C16.3885 2.49033 16.3114 2.57497 16.1985 2.59566C16.0857 2.61635 15.9785 2.57309 15.9616 2.49222C15.9446 2.41134 16.0217 2.32483 16.1346 2.30414C16.1798 2.28781 16.2296 2.28943 16.2737 2.30867C16.3178 2.32791 16.3528 2.36331 16.3716 2.40758Z" fill="#FAFAFA"/>
<path d="M16.6417 2.31779C16.6432 2.33763 16.6375 2.35735 16.6257 2.37335C16.6138 2.38935 16.5966 2.40054 16.5772 2.40488C16.5578 2.40922 16.5374 2.40642 16.5199 2.39699C16.5024 2.38755 16.4889 2.37212 16.4818 2.35352C16.4773 2.33234 16.4813 2.31024 16.4929 2.29195C16.5045 2.27367 16.5228 2.26066 16.5439 2.25572C16.565 2.25121 16.5871 2.25519 16.6054 2.26679C16.6237 2.27839 16.6367 2.2967 16.6417 2.31779Z" fill="#FAFAFA"/>
<path d="M10.7867 9.25095C11.0764 9.06287 11.4845 9.0892 11.9359 9.35063C12.1945 9.50383 12.4264 9.69822 12.6224 9.92616C12.6732 9.98258 12.7221 10.0409 12.7672 10.1011V10.1105C13.0286 10.4509 13.232 10.8322 13.3691 11.239C13.4674 11.5228 13.5195 11.8207 13.5233 12.1211C13.5233 12.6176 13.354 12.9712 13.0775 13.1423L12.5453 13.4508C12.6285 13.3982 12.7012 13.3306 12.7597 13.2514C12.9239 13.0098 13.0051 12.7213 12.991 12.4295C12.991 11.412 12.2763 10.1725 11.3942 9.66473C11.1473 9.50633 10.8554 9.43301 10.5629 9.45596C10.4542 9.46783 10.3494 9.50381 10.2563 9.56128L10.7867 9.25095Z" fill="#B3D766"/>
<path opacity="0.7" d="M10.7867 9.25095C11.0764 9.06287 11.4845 9.0892 11.9359 9.35063C12.1945 9.50383 12.4264 9.69822 12.6224 9.92616C12.6732 9.98258 12.7221 10.0409 12.7672 10.1011V10.1105C13.0286 10.4509 13.232 10.8322 13.3691 11.239C13.4674 11.5228 13.5195 11.8207 13.5233 12.1211C13.5233 12.6176 13.354 12.9712 13.0775 13.1423L12.5453 13.4508C12.6285 13.3982 12.7012 13.3306 12.7597 13.2514C12.9239 13.0098 13.0051 12.7213 12.991 12.4295C12.991 11.412 12.2763 10.1725 11.3942 9.66473C11.1473 9.50633 10.8554 9.43301 10.5629 9.45596C10.4542 9.46783 10.3494 9.50381 10.2563 9.56128L10.7867 9.25095Z" fill="white"/>
<path d="M10.2666 9.55086C10.3597 9.49338 10.4644 9.4574 10.5732 9.44553C10.8656 9.42258 11.1576 9.4959 11.4045 9.6543C12.2866 10.164 13.0013 11.4016 13.0013 12.4191C13.0154 12.7109 12.9342 12.9994 12.7699 13.241C12.7114 13.3201 12.6387 13.3877 12.5555 13.4403L12.5292 13.4535C12.3959 13.5288 12.2439 13.5647 12.091 13.557C11.8479 13.5423 11.6121 13.468 11.4045 13.3407C10.5243 12.831 9.80957 11.5934 9.80957 10.5759C9.80957 10.0737 9.98261 9.72013 10.2666 9.55086Z" fill="#B3D766"/>
<path opacity="0.6" d="M10.2666 9.55086C10.3597 9.49338 10.4644 9.4574 10.5732 9.44553C10.8656 9.42258 11.1576 9.4959 11.4045 9.6543C12.2866 10.164 13.0013 11.4016 13.0013 12.4191C13.0154 12.7109 12.9342 12.9994 12.7699 13.241C12.7114 13.3201 12.6387 13.3877 12.5555 13.4403L12.5292 13.4535C12.3959 13.5288 12.2439 13.5647 12.091 13.557C11.8479 13.5423 11.6121 13.468 11.4045 13.3407C10.5243 12.831 9.80957 11.5934 9.80957 10.5759C9.80957 10.0737 9.98261 9.72013 10.2666 9.55086Z" fill="white"/>
<path d="M11.4043 10.7554C11.0507 10.5504 10.7629 10.7178 10.7629 11.1316C10.7751 11.3545 10.8395 11.5714 10.9509 11.7648C11.0623 11.9582 11.2176 12.1227 11.4043 12.245C11.7598 12.45 12.0475 12.2845 12.0475 11.8689C12.0352 11.6458 11.9705 11.4288 11.8588 11.2354C11.747 11.042 11.5913 10.8776 11.4043 10.7554Z" fill="#455A64"/>
</g>
<defs>
<filter id="filter0_d_905_14911" x="0" y="0.863281" width="32.0002" height="50.1836" filterUnits="userSpaceOnUse" color-interpolation-filters="sRGB">
<feFlood flood-opacity="0" result="BackgroundImageFix"/>
<feColorMatrix in="SourceAlpha" type="matrix" values="0 0 0 0 0 0 0 0 0 0 0 0 0 0 0 0 0 0 127 0" result="hardAlpha"/>
<feOffset dy="2"/>
<feGaussianBlur stdDeviation="1"/>
<feComposite in2="hardAlpha" operator="out"/>
<feColorMatrix type="matrix" values="0 0 0 0 0 0 0 0 0 0 0 0 0 0 0 0 0 0 0.25 0"/>
<feBlend mode="normal" in2="BackgroundImageFix" result="effect1_dropShadow_905_14911"/>
<feBlend mode="normal" in="SourceGraphic" in2="effect1_dropShadow_905_14911" result="shape"/>
</filter>
</defs>
</svg>
