<svg width="69" height="111" viewBox="0 0 69 111" fill="none" xmlns="http://www.w3.org/2000/svg">
<mask id="path-1-inside-1_3682_77809" fill="white">
<path d="M0 55.5C0 24.8482 24.8482 0 55.5 0H61C65.4183 0 69 3.58172 69 8V103C69 107.418 65.4183 111 61 111H55.5C24.8482 111 0 86.1518 0 55.5V55.5Z"/>
</mask>
<path d="M0 55.5C0 24.8482 24.8482 0 55.5 0H61C65.4183 0 69 3.58172 69 8V103C69 107.418 65.4183 111 61 111H55.5C24.8482 111 0 86.1518 0 55.5V55.5Z" fill="white"/>
<path d="M-1 55.5C-1 24.2959 24.2959 -1 55.5 -1H60C64.9706 -1 69 3.02944 69 8C69 4.13401 65.4183 1 61 1H55.5C25.4005 1 1 25.4005 1 55.5H-1ZM69 103C69 107.971 64.9706 112 60 112H55.5C24.2959 112 -1 86.7041 -1 55.5H1C1 85.5995 25.4005 110 55.5 110H61C65.4183 110 69 106.866 69 103ZM55.5 112C24.2959 112 -1 86.7041 -1 55.5C-1 24.2959 24.2959 -1 55.5 -1V1C25.4005 1 1 25.4005 1 55.5C1 85.5995 25.4005 110 55.5 110V112ZM69 0V111V0Z" fill="#E7E9EC" mask="url(#path-1-inside-1_3682_77809)"/>
<g filter="url(#filter0_d_3682_77809)">
<path d="M20.1544 82.4563L24.7337 79.8095L23.2072 78.9297L18.6279 81.5727L20.1544 82.4563Z" fill="#0071CE"/>
<path d="M29.3174 77.1633L33.9005 74.5165L32.3703 73.6367L27.791 76.2798L29.3174 77.1633Z" fill="#0071CE"/>
<path d="M27.4352 76.0845C27.4352 78.2952 25.8862 80.9721 23.9725 82.1C22.9536 82.6902 22.0362 82.709 21.4046 82.2654C21.15 82.0653 20.9408 81.8133 20.7911 81.5261C20.6413 81.239 20.5544 80.9232 20.5361 80.5999C20.6647 80.5398 20.7902 80.4733 20.9121 80.4006C22.8258 79.299 24.3748 76.6108 24.3748 74.3851C24.3766 74.2204 24.3665 74.0558 24.3447 73.8926C24.6315 73.7408 24.9467 73.6504 25.2704 73.6271C25.594 73.6038 25.919 73.6481 26.2245 73.7572C26.9765 74.073 27.4352 74.8889 27.4352 76.0845Z" fill="#263238"/>
<path d="M27.7465 71.5434L27.6826 71.5058C26.7201 70.9945 25.4268 71.0885 23.9718 71.9231C21.0204 73.6263 18.6255 77.7694 18.6255 81.1795C18.6255 82.8939 19.2308 84.0932 20.2083 84.6497C21.1858 85.2061 22.5055 85.1121 23.968 84.2737C26.9194 82.5706 29.3105 78.4236 29.3105 75.0136C29.3143 73.2992 28.7203 72.0998 27.7465 71.5434ZM23.9868 82.0931C22.9642 82.6834 22.0468 82.7022 21.4152 82.2548C20.8587 81.8788 20.5204 81.1268 20.5204 80.0929C20.5204 77.886 22.0731 75.2053 23.9868 74.0774C24.8591 73.5736 25.6523 73.4872 26.2426 73.7466C26.972 74.0586 27.4307 74.8745 27.4307 76.0776C27.4344 78.3033 25.8854 80.9915 23.9718 82.1006L23.9868 82.0931Z" fill="#37474F"/>
<path d="M26.4184 73.8491L26.377 73.8265C25.7529 73.4919 24.907 73.5559 23.9708 74.0935C22.0571 75.1988 20.5044 77.887 20.5044 80.109C20.5044 81.2369 20.8804 81.9888 21.5308 82.3648C22.1812 82.7408 23.0347 82.6656 23.9708 82.1167C25.8845 81.0113 27.4335 78.3231 27.4335 76.1012C27.4335 74.9883 27.0463 74.2063 26.4184 73.8491ZM23.9708 81.3121C23.1512 81.7858 22.4143 81.8008 21.903 81.4399C21.4594 81.1279 21.1849 80.5301 21.1849 79.7029C21.2376 78.7366 21.5173 77.7962 22.0013 76.9581C22.4853 76.12 23.1601 75.4078 23.9708 74.8793C24.2342 74.6954 24.5369 74.5755 24.8547 74.5291C25.1726 74.4828 25.4969 74.5113 25.8018 74.6123C26.3883 74.8642 26.7568 75.5184 26.7568 76.4922C26.7044 77.4581 26.4248 78.3981 25.9407 79.2356C25.4566 80.0731 24.7817 80.7846 23.9708 81.3121V81.3121Z" fill="#0071CE"/>
<path d="M38.4801 71.8703L43.0631 69.2273L41.5367 68.3438L36.9536 70.9906L38.4801 71.8703Z" fill="#0071CE"/>
<path d="M47.6454 66.5813L52.2247 63.9382L50.6983 63.0547L46.1152 65.7015L47.6454 66.5813Z" fill="#0071CE"/>
<path d="M56.808 61.2922L61.3873 58.6491L59.8609 57.7656L55.2778 60.4124L56.808 61.2922Z" fill="#0071CE"/>
<path d="M34.0058 36.6897C34.0537 36.6257 34.1207 36.5787 34.1972 36.5554C34.2736 36.5321 34.3555 36.5338 34.4309 36.5602C34.5064 36.5866 34.5714 36.6363 34.6167 36.7022C34.6619 36.7681 34.685 36.8467 34.6825 36.9265C34.7119 37.1405 34.6901 37.3585 34.6189 37.5624C34.5476 37.7663 34.429 37.9504 34.2727 38.0996C33.9719 38.359 33.6674 38.2537 33.596 37.8627C33.5669 37.6487 33.5888 37.4309 33.6601 37.227C33.7313 37.0231 33.8498 36.839 34.0058 36.6897V36.6897Z" fill="#0071CE"/>
<path d="M37.5321 38.3528L34.4679 36.582L33.7949 38.2025L36.8703 39.977L37.5321 38.3528Z" fill="#0071CE"/>
<path d="M37.062 38.4558C37.3627 38.2001 37.6635 38.3054 37.7387 38.6964C37.7664 38.9101 37.7434 39.1273 37.6715 39.3304C37.5997 39.5335 37.481 39.7169 37.3251 39.8656C37.0244 40.1251 36.7198 40.0198 36.6484 39.6288C36.621 39.4146 36.6441 39.1969 36.7159 38.9932C36.7877 38.7895 36.9063 38.6054 37.062 38.4558V38.4558Z" fill="#0071CE"/>
<path d="M60.6132 53.2822C60.6132 53.3574 60.6132 53.4251 60.6132 53.5003C60.6132 53.6507 60.6132 53.8048 60.6132 53.959C60.0041 53.6995 59.2108 53.786 58.3386 54.2898C56.4249 55.3952 54.8722 58.0833 54.8722 60.3053C54.8722 61.3355 55.2105 62.0799 55.767 62.4671C55.6107 62.5782 55.4489 62.6811 55.282 62.7754L55.1053 62.8657L54.5751 64.8621L51.5072 63.1514C50.5372 62.5912 49.9395 61.3956 49.9395 59.6887C49.9395 56.2787 52.3306 52.1355 55.282 50.4286C56.7407 49.5864 58.0604 49.5 59.0417 50.0526L62.0494 51.737L62.1133 51.7746L60.6132 53.2822Z" fill="#455A64"/>
<path d="M62.1098 51.7426L62.0459 51.705C61.0834 51.1937 59.79 51.2877 58.335 52.1224C55.3837 53.8255 52.9888 57.9687 52.9888 61.3787C52.9888 63.0931 53.5941 64.2925 54.5716 64.8489C55.5491 65.4053 56.8688 65.3113 58.3313 64.4729C61.2826 62.7698 63.6738 58.6229 63.6738 55.2128C63.6851 53.4984 63.0798 52.2991 62.1098 51.7426ZM58.3501 62.2923C57.3275 62.8826 56.4101 62.9014 55.7785 62.454C55.222 62.078 54.8837 61.3261 54.8837 60.2922C54.8837 58.0852 56.4364 55.4046 58.3501 54.2767C59.2223 53.7729 60.0156 53.6864 60.6247 53.9458C61.3541 54.2579 61.8128 55.0737 61.8128 56.2768C61.8052 58.5025 60.2487 61.1907 58.335 62.2923H58.3501Z" fill="#37474F"/>
<path d="M61.8053 56.2915C61.8053 58.5022 60.2563 61.1791 58.3426 62.307C57.3237 62.8973 56.4064 62.9161 55.7747 62.4724C55.5201 62.2723 55.3109 62.0203 55.1612 61.7331C55.0115 61.446 54.9245 61.1302 54.9062 60.8069C55.0348 60.7468 55.1603 60.6803 55.2822 60.6076C57.1959 59.506 58.7449 56.8179 58.7449 54.5921C58.7467 54.4274 58.7366 54.2628 58.7148 54.0996C59.0016 53.9479 59.3169 53.8575 59.6405 53.8342C59.9641 53.8109 60.2891 53.8552 60.5947 53.9643C61.3391 54.2801 61.8053 55.0884 61.8053 56.2915Z" fill="#263238"/>
<path d="M60.7826 54.0463L60.7413 54.02C60.1172 53.6891 59.2675 53.7493 58.3351 54.2907C56.4214 55.396 54.8687 58.0805 54.8687 60.3062C54.8687 61.4341 55.2446 62.186 55.8951 62.562C56.5455 62.938 57.3989 62.859 58.3351 62.3101C60.2488 61.2085 61.7978 58.5203 61.7978 56.2946C61.8053 55.1855 61.4293 54.4072 60.7826 54.0463ZM58.3351 61.5055C57.5117 61.983 56.7748 61.9981 56.2673 61.6371C55.8199 61.3251 55.5492 60.7273 55.5492 59.9001C55.6018 58.9338 55.8815 57.9934 56.3656 57.1553C56.8496 56.3172 57.5243 55.605 58.3351 55.0765C59.0344 54.6704 59.6735 54.599 60.1623 54.8095C60.7488 55.0614 61.1173 55.7156 61.1173 56.6894C61.065 57.6544 60.7859 58.5935 60.3024 59.4303C59.819 60.2672 59.145 60.9782 58.3351 61.5055Z" fill="#0071CE"/>
<path d="M55.2772 57.4157L63.9245 52.4228C64.9283 51.8401 61.6687 48.4375 59.2437 48.2082C57.9086 48.0469 56.5545 48.1751 55.2734 48.5842C55.2734 48.5842 57.1194 50.949 56.8036 52.2912C56.4878 53.6334 55.2772 57.4157 55.2772 57.4157Z" fill="#0071CE"/>
<path d="M43.0633 43.3047C43.0633 43.3047 55.5981 49.6285 56.1395 50.0082C56.6809 50.3879 56.1395 54.7981 55.2785 57.4148C54.4176 60.0315 53.0942 64.0544 52.5641 65.1823C52.0339 66.3102 51.3421 66.7313 50.0714 67.4644L41.0481 72.6791L28.8329 74.168L23.9829 71.5362L25.2462 63.5995C25.2462 63.5995 38.2284 56.6929 40.0067 55.6665C41.785 54.6401 47.0448 49.824 43.0633 43.3047Z" fill="#0071CE"/>
<path opacity="0.2" d="M43.0633 43.3047C43.0633 43.3047 55.5981 49.6285 56.1395 50.0082C56.6809 50.3879 56.1395 54.7981 55.2785 57.4148C54.4176 60.0315 53.0942 64.0544 52.5641 65.1823C52.0339 66.3102 51.3421 66.7313 50.0714 67.4644L41.0481 72.6791L28.8329 74.168L23.9829 71.5362L25.2462 63.5995C25.2462 63.5995 38.2284 56.6929 40.0067 55.6665C41.785 54.6401 47.0448 49.824 43.0633 43.3047Z" fill="black"/>
<path d="M56.3803 55.9061C57.5082 52.8757 58.3504 50.3643 58.2075 48.6687C58.0346 46.6572 57.2826 45.0142 53.9666 44.1871C50.6506 43.36 46.0149 43.375 46.0149 43.375L44.605 44.1909C44.605 44.1909 54.1395 49.7176 55.2223 50.3192C55.884 50.6951 56.5909 52.3532 55.2938 57.4175L55.5156 57.5453C55.6246 57.613 56.0194 56.8798 56.3803 55.9061Z" fill="#0071CE"/>
<path opacity="0.3" d="M56.3803 55.9061C57.5082 52.8757 58.3504 50.3643 58.2075 48.6687C58.0346 46.6572 57.2826 45.0142 53.9666 44.1871C50.6506 43.36 46.0149 43.375 46.0149 43.375L44.605 44.1909C44.605 44.1909 54.1395 49.7176 55.2223 50.3192C55.884 50.6951 56.5909 52.3532 55.2938 57.4175L55.5156 57.5453C55.6246 57.613 56.0194 56.8798 56.3803 55.9061Z" fill="white"/>
<path d="M49.1576 46.8322L50.699 45.9525C50.699 45.9525 50.6088 40.61 48.3605 39.3129C46.1122 38.0158 38.4801 38.8993 38.4801 38.8993L36.9536 39.7791L49.1576 46.8322Z" fill="#0071CE"/>
<path d="M44.1563 40.5344C43.4232 40.9593 43.4232 41.6435 44.1563 42.0646C44.5674 42.2739 45.0222 42.383 45.4835 42.383C45.9448 42.383 46.3995 42.2739 46.8106 42.0646C47.54 41.6435 47.54 40.9555 46.8106 40.5344C46.399 40.3269 45.9445 40.2188 45.4835 40.2188C45.0225 40.2188 44.5679 40.3269 44.1563 40.5344V40.5344Z" fill="#F0F0F0"/>
<path d="M46.5025 43.087C45.9874 43.3877 45.9874 43.8727 46.5025 44.1698C46.7935 44.3186 47.1156 44.3962 47.4424 44.3962C47.7693 44.3962 48.0914 44.3186 48.3824 44.1698C48.9012 43.8727 48.9012 43.3877 48.3824 43.087C48.0909 42.9399 47.7689 42.8633 47.4424 42.8633C47.1159 42.8633 46.794 42.9399 46.5025 43.087V43.087Z" fill="#F0F0F0"/>
<path d="M40.5962 39.8553C40.0773 40.1523 40.0773 40.6373 40.5962 40.9381C40.8877 41.0852 41.2096 41.1618 41.5361 41.1618C41.8626 41.1618 42.1845 41.0852 42.476 40.9381C42.9948 40.6373 42.9948 40.1523 42.476 39.8553C42.185 39.7065 41.8629 39.6289 41.5361 39.6289C41.2093 39.6289 40.8871 39.7065 40.5962 39.8553V39.8553Z" fill="#F0F0F0"/>
<path d="M49.3965 45.2828C49.6973 45.0234 49.9981 45.1287 50.0733 45.5197C50.101 45.7339 50.078 45.9517 50.0062 46.1554C49.9343 46.3592 49.8157 46.5432 49.6597 46.6927C49.6118 46.7567 49.5448 46.8037 49.4683 46.827C49.3919 46.8503 49.31 46.8486 49.2346 46.8222C49.1591 46.7958 49.0941 46.746 49.0488 46.6802C49.0036 46.6143 48.9805 46.5357 48.983 46.4558C48.954 46.2415 48.9765 46.0234 49.0484 45.8195C49.1203 45.6155 49.2396 45.4316 49.3965 45.2828Z" fill="#0071CE"/>
<path d="M52.9061 46.9427L49.8382 45.1719L49.1689 46.7923L52.2406 48.5631L52.9061 46.9427Z" fill="#0071CE"/>
<path d="M52.432 47.0452C52.4799 46.9812 52.547 46.9341 52.6234 46.9108C52.6999 46.8876 52.7817 46.8892 52.8572 46.9156C52.9326 46.942 52.9977 46.9918 53.0429 47.0577C53.0881 47.1236 53.1112 47.2021 53.1088 47.282C53.1374 47.4963 53.1148 47.7143 53.0429 47.9182C52.971 48.1221 52.8519 48.3061 52.6952 48.455C52.3944 48.7145 52.0936 48.6054 52.0184 48.2182C51.9904 48.0039 52.0133 47.7861 52.0851 47.5823C52.157 47.3785 52.2758 47.1945 52.432 47.0452V47.0452Z" fill="#0071CE"/>
<path d="M52.432 47.0452C52.4799 46.9812 52.547 46.9341 52.6234 46.9108C52.6999 46.8876 52.7817 46.8892 52.8572 46.9156C52.9326 46.942 52.9977 46.9918 53.0429 47.0577C53.0881 47.1236 53.1112 47.2021 53.1088 47.282C53.1374 47.4963 53.1148 47.7143 53.0429 47.9182C52.971 48.1221 52.8519 48.3061 52.6952 48.455C52.3944 48.7145 52.0936 48.6054 52.0184 48.2182C51.9904 48.0039 52.0133 47.7861 52.0851 47.5823C52.157 47.3785 52.2758 47.1945 52.432 47.0452V47.0452Z" fill="black"/>
<path d="M26.2502 73.0791C26.2502 73.1543 26.2502 73.222 26.2502 73.2971C26.2502 73.4475 26.2502 73.6017 26.2502 73.7558C25.6411 73.4964 24.8478 73.5829 23.9944 74.0867C22.0807 75.192 20.5279 77.8802 20.5279 80.1022C20.5279 81.1323 20.8663 81.8768 21.4227 82.264C21.2665 82.3751 21.1046 82.478 20.9377 82.5723L20.761 82.6625L20.2309 84.6589L17.163 82.9483C16.193 82.3881 15.5952 81.1925 15.5952 79.4856C15.5952 76.0756 17.9864 71.9324 20.9377 70.2255C22.3965 69.3833 23.7161 69.2968 24.6974 69.8495L27.7052 71.5339L27.7691 71.5715L26.2502 73.0791Z" fill="#455A64"/>
<path d="M17.0978 67.1133L14.8081 75.05L19.3912 77.6968L21.7635 69.809L17.0978 67.1133Z" fill="#0071CE"/>
<path opacity="0.2" d="M17.0978 67.1133L14.8081 75.05L19.3912 77.6968L21.7635 69.809L17.0978 67.1133Z" fill="black"/>
<path d="M17.0977 67.1102C17.0977 67.1102 19.6956 69.3171 21.7634 69.8059C24.4779 70.4638 28.794 70.5353 30.3242 70.6405C32.6628 70.8022 34.4298 70.7985 35.2569 70.5014C36.3285 70.1255 39.2084 68.4524 40.0054 67.9937C41.5319 67.114 42.1823 63.6513 37.9752 62.7039C35.1306 62.1145 32.233 61.8184 29.3279 61.8203L17.0977 67.1102Z" fill="#0071CE"/>
<path d="M43.0072 66.0954C42.8764 66.4224 42.788 66.7648 42.744 67.1143C42.6228 67.4775 42.5944 67.8652 42.6613 68.2422C42.9479 68.7162 43.3989 69.0681 43.9283 69.231C44.3097 69.3158 44.7045 69.3212 45.088 69.2468C45.4716 69.1724 45.8357 69.0199 46.1578 68.7986C46.936 68.3324 47.5225 67.7685 48.6279 67.4526C49.418 67.2854 50.1621 66.948 50.8085 66.4639C51.4213 65.9713 52.2409 64.6103 51.0679 64.2945C49.8949 63.9787 47.3458 65.0916 45.0224 65.1931L43.0072 66.0954Z" fill="#37474F"/>
<path d="M43.0073 64.6445V66.3815C43.0785 66.5767 43.2021 66.7484 43.3646 66.8778C43.5272 67.0072 43.7223 67.0891 43.9284 67.1146C44.1173 67.1423 44.31 67.1216 44.4886 67.0545C44.7703 66.947 45.0143 66.7594 45.1907 66.5149C45.367 66.2704 45.468 65.9796 45.4812 65.6784L45.5489 64.6445H43.0073Z" fill="#FFA8A7"/>
<path d="M46.3149 53.9023C46.3149 56.0642 45.7058 65.4107 45.7058 65.4107C45.7058 65.4107 44.8223 66.5386 42.9011 65.4107L42.2544 54.9663L46.3149 53.9023Z" fill="#37474F"/>
<path d="M36.2387 63.1148L42.2542 59.6484C42.5007 59.519 42.7071 59.3247 42.8512 59.0865C42.9952 58.8482 43.0713 58.5752 43.0713 58.2968C43.0713 58.0184 42.9952 57.7453 42.8512 57.5071C42.7071 57.2689 42.5007 57.0745 42.2542 56.9452L37.7727 54.3585C37.5204 54.2307 37.2415 54.1641 36.9587 54.1641C36.6759 54.1641 36.397 54.2307 36.1447 54.3585L30.1292 57.8249C29.8838 57.9552 29.6785 58.1498 29.5353 58.388C29.3921 58.6261 29.3164 58.8987 29.3164 59.1765C29.3164 59.4544 29.3921 59.727 29.5353 59.9651C29.6785 60.2033 29.8838 60.3979 30.1292 60.5282L34.6108 63.1148C34.863 63.2427 35.1419 63.3093 35.4247 63.3093C35.7076 63.3093 35.9864 63.2427 36.2387 63.1148Z" fill="#0071CE"/>
<path d="M36.2387 63.1148L42.2542 59.6484C42.5007 59.519 42.7071 59.3247 42.8512 59.0865C42.9952 58.8482 43.0713 58.5752 43.0713 58.2968C43.0713 58.0184 42.9952 57.7453 42.8512 57.5071C42.7071 57.2689 42.5007 57.0745 42.2542 56.9452L37.7727 54.3585C37.5204 54.2307 37.2415 54.1641 36.9587 54.1641C36.6759 54.1641 36.397 54.2307 36.1447 54.3585L30.1292 57.8249C29.8838 57.9552 29.6785 58.1498 29.5353 58.388C29.3921 58.6261 29.3164 58.8987 29.3164 59.1765C29.3164 59.4544 29.3921 59.727 29.5353 59.9651C29.6785 60.2033 29.8838 60.3979 30.1292 60.5282L34.6108 63.1148C34.863 63.2427 35.1419 63.3093 35.4247 63.3093C35.7076 63.3093 35.9864 63.2427 36.2387 63.1148Z" fill="white"/>
<path d="M30.1303 58.7649L34.6118 61.3515C34.8641 61.4794 35.143 61.546 35.4258 61.546C35.7086 61.546 35.9875 61.4794 36.2398 61.3515L42.2553 57.8851C42.3535 57.8518 42.4388 57.7885 42.4992 57.7042C42.5596 57.6199 42.5921 57.5188 42.5921 57.4151C42.5921 57.3114 42.5596 57.2103 42.4992 57.126C42.4388 57.0417 42.3535 56.9785 42.2553 56.9452L37.7737 54.3585C37.5214 54.2307 37.2426 54.1641 36.9597 54.1641C36.6769 54.1641 36.3981 54.2307 36.1458 54.3585L30.1303 57.8249C30.0321 57.8583 29.9468 57.9215 29.8864 58.0058C29.8259 58.0901 29.7935 58.1912 29.7935 58.2949C29.7935 58.3986 29.8259 58.4997 29.8864 58.584C29.9468 58.6683 30.0321 58.7315 30.1303 58.7649Z" fill="#0071CE"/>
<path d="M33.7951 35.7573L33.0319 38.9042L29.7534 39.1034L30.4602 34.7422L33.7951 35.7573Z" fill="#FFA8A7"/>
<path d="M36.9906 33.3867C36.9906 33.3867 37.3665 34.7177 37.2124 34.7928C36.9756 34.829 36.7348 34.829 36.498 34.7928L36.9906 33.3867Z" fill="#F28F8F"/>
<path d="M36.3626 29.1397C36.8889 29.76 37.3702 30.7789 36.998 33.2753C36.5919 36.0049 36.0881 36.3207 35.6821 36.5839C35.1519 36.9297 33.0315 36.7455 32.4337 36.3094C31.7156 35.7868 30.6065 34.1288 30.3433 32.4933C30.035 30.5721 30.6779 28.4404 32.0916 28.0757C34.0804 27.5606 35.9152 28.6133 36.3626 29.1397Z" fill="#FFA8A7"/>
<path d="M30.1302 35.6239C30.6378 36.1502 31.6792 36.2931 32.3334 36.4134C32.9876 36.5337 34.999 36.6653 35.593 35.2329C36.1871 33.8004 35.781 32.7703 36.5104 32.4244C37.2398 32.0785 37.9692 31.8529 38.1609 31.6725C38.3526 31.492 38.3564 29.1347 36.3976 27.9128C34.4388 26.6909 31.4386 26.4089 29.4647 28.8865C27.9684 30.8002 28.5812 34.0072 30.1302 35.6239Z" fill="#455A64"/>
<path d="M32.104 36.4333C32.6116 36.4784 34.2169 36.2265 34.7019 35.5648C35.1869 34.9031 35.3825 33.7188 35.4539 33.0985C35.4605 32.8542 35.55 32.6194 35.7079 32.4328C35.8658 32.2462 36.0825 32.119 36.3224 32.0721C36.8074 31.9179 37.8789 31.3916 37.8789 31.3916V31.0983C38.2244 31.0766 38.571 31.0766 38.9166 31.0983C39.1421 31.1397 39.0181 31.4743 38.4466 31.7638C37.8751 32.0533 36.3073 32.6135 36.0667 32.8052C35.8261 32.997 35.7133 33.8053 35.5216 34.6663C35.3298 35.5272 34.7358 36.813 32.104 36.4333Z" fill="#37474F"/>
<path d="M36.6151 39.9907L38.495 38.9117C38.6754 38.3666 38.3859 38.0921 37.8746 38.1259C37.3633 38.1598 37.5212 37.6635 37.2092 37.5244C36.7994 37.3364 36.5663 37.4417 36.382 37.3552C36.1978 37.2687 36.1189 37.0507 35.8782 37.0244C34.803 36.9228 34.0698 38.4568 34.0698 38.4568L36.6151 39.9907Z" fill="#F28F8F"/>
<path d="M23.8545 53.7968C23.8545 53.7968 32.1596 49.68 33.6071 49.0145C35.0546 48.3491 37.3255 47.3828 38.5323 47.3828C39.0039 47.4218 39.4457 47.6295 39.7765 47.9679C40.1073 48.3063 40.3049 48.7527 40.3332 49.2251C40.3488 49.9503 40.3073 50.6757 40.2091 51.3944C37.9273 52.143 35.5955 52.7297 33.2312 53.1502C29.776 53.7517 23.8545 53.7968 23.8545 53.7968Z" fill="#37474F"/>
<path d="M24.7575 51.4165C24.7575 53.1234 24.5958 54.898 25.3064 56.1462C26.017 57.3944 29.8669 60.2818 33.4913 59.6765C35.8599 59.278 42.8905 56.0409 42.8905 56.0409C42.8905 56.0409 46.3005 54.7889 46.3156 53.8979C46.3381 52.5858 46.2479 50.736 43.274 50.8149C40.5632 50.8864 32.5664 52.5557 32.5664 52.5557L24.7575 51.4165Z" fill="#455A64"/>
<path d="M27.0776 37.8951C28.3634 36.5529 29.2319 36.4401 29.8485 36.6055C31.2655 37.0111 32.6374 37.5604 33.9428 38.2448C33.9428 38.2448 33.4465 43.0496 35.7963 44.4332V51.9225C35.7963 51.9225 35.7249 52.7346 34.7022 53.5429C33.7999 54.2535 31.7584 54.9716 29.3221 54.7686C26.4272 54.528 24.7579 51.4187 24.7579 51.4187C24.7579 51.4187 24.6827 45.2942 25.0925 42.8617C25.5737 40.0231 26.6339 38.3613 27.0776 37.8951Z" fill="#455A64"/>
<path d="M35.7959 44.7973C35.7959 44.7973 34.3747 43.6694 33.9424 42.2031C33.9424 42.2031 34.1116 44.5041 35.7959 45.6696V44.7973Z" fill="#37474F"/>
<path d="M48.9517 48.3325C49.6267 48.3603 50.2907 48.1544 50.8316 47.7497C50.8316 47.7497 51.4858 46.4789 52.2903 46.588C52.2903 46.588 52.4332 46.0466 52.1024 45.8699C51.7715 45.6932 51.6286 45.742 51.4933 45.5541C51.3579 45.3661 51.3429 45.0164 50.7414 45.0164C50.4932 45.0164 50.527 44.8397 49.9255 44.7683C49.3239 44.6969 48.7299 46.0842 48.29 46.0842L48.9517 48.3325Z" fill="#FFA8A7"/>
<path d="M33.9421 38.2461C36.0061 38.5657 36.7543 39.1785 37.5062 39.874C38.2582 40.5696 42.86 45.1865 42.86 45.1865L48.4319 45.9873C48.7247 46.2244 48.9395 46.544 49.0485 46.9047C49.2741 47.5588 49.071 48.2732 48.8567 48.4424C48.8567 48.4424 43.33 48.7732 42.2435 48.5664C41.1569 48.3596 35.7768 44.7879 35.7768 44.7879C35.2626 44.4002 34.8313 43.9132 34.5084 43.3559C34.1855 42.7987 33.9776 42.1823 33.897 41.5433C33.5473 39.2762 33.9421 38.2461 33.9421 38.2461Z" fill="#455A64"/>
<path d="M28.9868 58.1036L20.4486 68.5254C20.3538 68.5374 20.2584 68.5437 20.1628 68.5442C19.8243 68.5496 19.4897 68.4708 19.1891 68.3149L11.978 64.1491L11.4892 63.8672C11.2223 63.713 11.0005 63.0814 11.0005 62.4573V60.7015C11.0002 58.8979 11.4746 57.126 12.3762 55.5639C13.2777 54.0018 14.5745 52.7045 16.1362 51.8023L24.7459 46.832L33.9083 52.1219L28.9868 58.1036Z" fill="#0071CE"/>
<g opacity="0.1">
<path opacity="0.1" d="M28.9863 58.1036L20.4481 68.5254C20.3533 68.5374 20.2579 68.5437 20.1624 68.5442C19.8238 68.5496 19.4892 68.4708 19.1886 68.3149L11.9775 64.1491L11.4888 63.8672C11.2218 63.713 11 63.0814 11 62.4573V60.7015C10.9997 58.8979 11.4742 57.126 12.3757 55.5639C13.2772 54.0018 14.574 52.7045 16.1357 51.8023L24.7454 46.832L33.9078 52.1219L28.9863 58.1036Z" fill="black"/>
</g>
<path d="M26.0436 61.698L33.8976 52.1258L24.7353 46.8359L16.1293 51.8025C15.0161 52.447 14.034 53.2951 13.2344 54.3027L26.0436 61.698Z" fill="#0071CE"/>
<path d="M33.8968 59.8097C33.8968 60.4338 33.6787 61.0654 33.408 61.2195L32.9193 61.5015L21.1289 68.3103C20.9144 68.4259 20.6794 68.4987 20.4371 68.5246C20.3423 68.5366 20.2469 68.5429 20.1514 68.5434V65.9906C20.1511 64.1865 20.6259 62.4142 21.5281 60.852C22.4304 59.2898 23.7281 57.9928 25.2909 57.0914L26.2646 56.5312L33.8968 52.1211V59.8097Z" fill="#0071CE"/>
<g opacity="0.2">
<path opacity="0.2" d="M33.8968 59.8097C33.8968 60.4338 33.6787 61.0654 33.408 61.2195L32.9193 61.5015L21.1289 68.3103C20.9144 68.4259 20.6794 68.4987 20.4371 68.5246C20.3423 68.5366 20.2469 68.5429 20.1514 68.5434V65.9906C20.1511 64.1865 20.6259 62.4142 21.5281 60.852C22.4304 59.2898 23.7281 57.9928 25.2909 57.0914L26.2646 56.5312L33.8968 52.1211V59.8097Z" fill="black"/>
</g>
<path d="M36.4274 72.7063L41.0406 72.6912L47.6426 68.8789L41.1759 73.5522L36.3071 73.6199L36.4274 72.7063Z" fill="#E0E0E0"/>
<path d="M25.2267 79.2688C25.2267 79.2688 33.5431 76.1333 34.2499 75.7648C35.0795 75.2565 35.8666 74.6819 36.6035 74.0466C36.7539 73.8477 36.8245 73.5998 36.8016 73.3515C36.7786 73.1032 36.6637 72.8724 36.4794 72.7044C36.4794 72.7044 33.0957 72.5503 32.2272 72.8172C31.7422 72.9638 23.9146 75.4753 23.9146 75.4753L25.2267 79.2688Z" fill="#E0E0E0"/>
<path d="M24.8558 75.7674C24.1677 75.1772 23.476 75.4215 23.3068 76.3088C23.2422 76.7984 23.2939 77.2963 23.4579 77.7621C23.6219 78.2278 23.8934 78.6484 24.2505 78.9895C24.9385 79.5798 25.6303 79.3391 25.7994 78.4481C25.8638 77.9586 25.8118 77.4608 25.6479 76.995C25.4839 76.5293 25.2126 76.1087 24.8558 75.7674Z" fill="#455A64"/>
</g>
<defs>
<filter id="filter0_d_3682_77809" x="9" y="27" width="57.1113" height="62" filterUnits="userSpaceOnUse" color-interpolation-filters="sRGB">
<feFlood flood-opacity="0" result="BackgroundImageFix"/>
<feColorMatrix in="SourceAlpha" type="matrix" values="0 0 0 0 0 0 0 0 0 0 0 0 0 0 0 0 0 0 127 0" result="hardAlpha"/>
<feOffset dy="2"/>
<feGaussianBlur stdDeviation="1"/>
<feComposite in2="hardAlpha" operator="out"/>
<feColorMatrix type="matrix" values="0 0 0 0 0 0 0 0 0 0 0 0 0 0 0 0 0 0 0.25 0"/>
<feBlend mode="normal" in2="BackgroundImageFix" result="effect1_dropShadow_3682_77809"/>
<feBlend mode="normal" in="SourceGraphic" in2="effect1_dropShadow_3682_77809" result="shape"/>
</filter>
</defs>
</svg>
