<svg width="56" height="92" viewBox="0 0 58 62" fill="none" xmlns="http://www.w3.org/2000/svg">
<g filter="url(#filter0_d_866_22043)">
<path d="M11.1545 55.4563L15.7338 52.8095L14.2073 51.9297L9.62805 54.5727L11.1545 55.4563Z" fill="#0071CE"/>
<path d="M20.3172 50.1633L24.9003 47.5165L23.3701 46.6367L18.7908 49.2798L20.3172 50.1633Z" fill="#0071CE"/>
<path d="M18.4352 49.0845C18.4352 51.2952 16.8862 53.9721 14.9725 55.1C13.9536 55.6902 13.0362 55.709 12.4046 55.2654C12.15 55.0653 11.9408 54.8133 11.7911 54.5261C11.6413 54.239 11.5544 53.9232 11.5361 53.5999C11.6647 53.5398 11.7902 53.4733 11.9121 53.4006C13.8258 52.299 15.3748 49.6108 15.3748 47.3851C15.3766 47.2204 15.3665 47.0558 15.3447 46.8926C15.6315 46.7408 15.9467 46.6504 16.2704 46.6271C16.594 46.6038 16.919 46.6481 17.2245 46.7572C17.9765 47.073 18.4352 47.8889 18.4352 49.0845Z" fill="#263238"/>
<path d="M18.7466 44.5434L18.6827 44.5058C17.7202 43.9945 16.4269 44.0885 14.9719 44.9231C12.0205 46.6263 9.62561 50.7694 9.62561 54.1795C9.62561 55.8939 10.2309 57.0932 11.2084 57.6497C12.186 58.2061 13.5056 58.1121 14.9681 57.2737C17.9195 55.5706 20.3106 51.4236 20.3106 48.0136C20.3144 46.2992 19.7204 45.0998 18.7466 44.5434ZM14.9869 55.0931C13.9643 55.6834 13.0469 55.7022 12.4153 55.2548C11.8589 54.8788 11.5205 54.1268 11.5205 53.0929C11.5205 50.886 13.0732 48.2053 14.9869 47.0774C15.8592 46.5736 16.6525 46.4872 17.2427 46.7466C17.9721 47.0586 18.4308 47.8745 18.4308 49.0776C18.4346 51.3033 16.8856 53.9915 14.9719 55.1006L14.9869 55.0931Z" fill="#37474F"/>
<path d="M17.4183 46.8491L17.3769 46.8265C16.7528 46.4919 15.9069 46.5559 14.9707 47.0935C13.057 48.1988 11.5043 50.887 11.5043 53.109C11.5043 54.2369 11.8802 54.9888 12.5307 55.3648C13.1811 55.7408 14.0345 55.6656 14.9707 55.1167C16.8844 54.0113 18.4334 51.3231 18.4334 49.1012C18.4334 47.9883 18.0461 47.2063 17.4183 46.8491ZM14.9707 54.3121C14.1511 54.7858 13.4142 54.8008 12.9029 54.4399C12.4592 54.1279 12.1848 53.5301 12.1848 52.7029C12.2375 51.7366 12.5171 50.7962 13.0012 49.9581C13.4852 49.12 14.16 48.4078 14.9707 47.8793C15.2341 47.6954 15.5367 47.5755 15.8546 47.5291C16.1725 47.4828 16.4968 47.5113 16.8017 47.6123C17.3882 47.8642 17.7566 48.5184 17.7566 49.4922C17.7043 50.4581 17.4247 51.3981 16.9406 52.2356C16.4565 53.0731 15.7816 53.7846 14.9707 54.3121Z" fill="#0071CE"/>
<path d="M29.4801 44.8703L34.0631 42.2273L32.5367 41.3438L27.9536 43.9906L29.4801 44.8703Z" fill="#0071CE"/>
<path d="M38.6454 39.5813L43.2247 36.9382L41.6983 36.0547L37.1152 38.7015L38.6454 39.5813Z" fill="#0071CE"/>
<path d="M47.8083 34.2922L52.3876 31.6491L50.8611 30.7656L46.2781 33.4124L47.8083 34.2922Z" fill="#0071CE"/>
<path d="M25.0058 9.68968C25.0537 9.62571 25.1207 9.57867 25.1972 9.55538C25.2736 9.53209 25.3555 9.53377 25.4309 9.56017C25.5064 9.58657 25.5714 9.63632 25.6167 9.7022C25.6619 9.76808 25.685 9.84667 25.6825 9.92655C25.7119 10.1405 25.6901 10.3585 25.6189 10.5624C25.5476 10.7663 25.429 10.9504 25.2727 11.0996C24.9719 11.359 24.6674 11.2537 24.596 10.8627C24.5669 10.6487 24.5888 10.4309 24.6601 10.227C24.7313 10.0231 24.8498 9.83901 25.0058 9.68968Z" fill="#0071CE"/>
<path d="M28.5318 11.3528L25.4677 9.58203L24.7947 11.2025L27.8701 12.977L28.5318 11.3528Z" fill="#0071CE"/>
<path d="M28.0621 11.4558C28.3629 11.2001 28.6636 11.3054 28.7388 11.6964C28.7665 11.9101 28.7435 12.1273 28.6717 12.3304C28.5998 12.5335 28.4811 12.7169 28.3253 12.8656C28.0245 13.1251 27.7199 13.0198 27.6485 12.6288C27.6211 12.4146 27.6442 12.1969 27.7161 11.9932C27.7879 11.7895 27.9064 11.6054 28.0621 11.4558Z" fill="#0071CE"/>
<path d="M51.6134 26.2822C51.6134 26.3574 51.6134 26.4251 51.6134 26.5003C51.6134 26.6507 51.6134 26.8048 51.6134 26.959C51.0044 26.6995 50.2111 26.786 49.3388 27.2898C47.4252 28.3952 45.8724 31.0833 45.8724 33.3053C45.8724 34.3355 46.2108 35.0799 46.7672 35.4671C46.611 35.5782 46.4491 35.6811 46.2822 35.7754L46.1055 35.8657L45.5754 37.8621L42.5075 36.1514C41.5375 35.5912 40.9397 34.3956 40.9397 32.6887C40.9397 29.2787 43.3309 25.1355 46.2822 23.4286C47.741 22.5864 49.0606 22.5 50.0419 23.0526L53.0496 24.737L53.1136 24.7746L51.6134 26.2822Z" fill="#455A64"/>
<path d="M53.1098 24.7426L53.0459 24.705C52.0834 24.1937 50.79 24.2877 49.335 25.1224C46.3837 26.8255 43.9888 30.9687 43.9888 34.3787C43.9888 36.0931 44.5941 37.2925 45.5716 37.8489C46.5491 38.4053 47.8688 38.3113 49.3313 37.4729C52.2826 35.7698 54.6738 31.6229 54.6738 28.2128C54.6851 26.4984 54.0798 25.2991 53.1098 24.7426ZM49.3501 35.2923C48.3275 35.8826 47.4101 35.9014 46.7785 35.454C46.222 35.078 45.8837 34.3261 45.8837 33.2922C45.8837 31.0852 47.4364 28.4046 49.3501 27.2767C50.2223 26.7729 51.0156 26.6864 51.6247 26.9458C52.3541 27.2579 52.8128 28.0737 52.8128 29.2768C52.8052 31.5025 51.2487 34.1907 49.335 35.2923H49.3501Z" fill="#37474F"/>
<path d="M52.8054 29.2915C52.8054 31.5022 51.2564 34.1791 49.3427 35.307C48.3239 35.8973 47.4065 35.9161 46.7749 35.4724C46.5202 35.2723 46.3111 35.0203 46.1613 34.7331C46.0116 34.446 45.9247 34.1302 45.9064 33.8069C46.035 33.7468 46.1604 33.6803 46.2823 33.6076C48.196 32.506 49.745 29.8179 49.745 27.5921C49.7468 27.4274 49.7368 27.2628 49.7149 27.0996C50.0017 26.9479 50.317 26.8575 50.6406 26.8342C50.9643 26.8109 51.2892 26.8552 51.5948 26.9643C52.3392 27.2801 52.8054 28.0884 52.8054 29.2915Z" fill="#263238"/>
<path d="M51.7825 27.0463L51.7412 27.02C51.1171 26.6891 50.2674 26.7493 49.335 27.2907C47.4213 28.396 45.8685 31.0805 45.8685 33.3062C45.8685 34.4341 46.2445 35.186 46.8949 35.562C47.5454 35.938 48.3988 35.859 49.335 35.3101C51.2486 34.2085 52.7976 31.5203 52.7976 29.2946C52.8052 28.1855 52.4292 27.4072 51.7825 27.0463ZM49.335 34.5055C48.5116 34.983 47.7747 34.9981 47.2671 34.6371C46.8197 34.3251 46.549 33.7273 46.549 32.9001C46.6017 31.9338 46.8814 30.9934 47.3654 30.1553C47.8495 29.3172 48.5242 28.605 49.335 28.0765C50.0343 27.6704 50.6734 27.599 51.1622 27.8095C51.7487 28.0614 52.1171 28.7156 52.1171 29.6894C52.0649 30.6544 51.7857 31.5935 51.3023 32.4303C50.8189 33.2672 50.1448 33.9782 49.335 34.5055Z" fill="#0071CE"/>
<path d="M46.2771 30.4157L54.9244 25.4228C55.9282 24.8401 52.6685 21.4375 50.2435 21.2082C48.9085 21.0469 47.5544 21.1751 46.2733 21.5842C46.2733 21.5842 48.1193 23.949 47.8035 25.2912C47.4877 26.6334 46.2771 30.4157 46.2771 30.4157Z" fill="#0071CE"/>
<path d="M34.0633 16.3047C34.0633 16.3047 46.5981 22.6285 47.1395 23.0082C47.6809 23.3879 47.1395 27.798 46.2785 30.4148C45.4176 33.0315 44.0942 37.0544 43.5641 38.1823C43.0339 39.3102 42.3421 39.7313 41.0714 40.4644L32.0481 45.6791L19.8329 47.168L14.9829 44.5362L16.2462 36.5995C16.2462 36.5995 29.2284 29.6929 31.0067 28.6665C32.785 27.6401 38.0448 22.824 34.0633 16.3047Z" fill="#0071CE"/>
<path opacity="0.2" d="M34.0633 16.3047C34.0633 16.3047 46.5981 22.6285 47.1395 23.0082C47.6809 23.3879 47.1395 27.798 46.2785 30.4148C45.4176 33.0315 44.0942 37.0544 43.5641 38.1823C43.0339 39.3102 42.3421 39.7313 41.0714 40.4644L32.0481 45.6791L19.8329 47.168L14.9829 44.5362L16.2462 36.5995C16.2462 36.5995 29.2284 29.6929 31.0067 28.6665C32.785 27.6401 38.0448 22.824 34.0633 16.3047Z" fill="black"/>
<path d="M47.3802 28.9061C48.5081 25.8757 49.3503 23.3643 49.2074 21.6687C49.0345 19.6572 48.2825 18.0142 44.9665 17.1871C41.6504 16.36 37.0147 16.375 37.0147 16.375L35.6049 17.1909C35.6049 17.1909 45.1394 22.7176 46.2222 23.3192C46.8839 23.6951 47.5907 25.3532 46.2936 30.4175L46.5155 30.5453C46.6245 30.613 47.0193 29.8798 47.3802 28.9061Z" fill="#0071CE"/>
<path opacity="0.3" d="M47.3802 28.9061C48.5081 25.8757 49.3503 23.3643 49.2074 21.6687C49.0345 19.6572 48.2825 18.0142 44.9665 17.1871C41.6504 16.36 37.0147 16.375 37.0147 16.375L35.6049 17.1909C35.6049 17.1909 45.1394 22.7176 46.2222 23.3192C46.8839 23.6951 47.5907 25.3532 46.2936 30.4175L46.5155 30.5453C46.6245 30.613 47.0193 29.8798 47.3802 28.9061Z" fill="white"/>
<path d="M40.1576 19.8322L41.699 18.9525C41.699 18.9525 41.6088 13.61 39.3605 12.3129C37.1122 11.0158 29.4801 11.8993 29.4801 11.8993L27.9536 12.7791L40.1576 19.8322Z" fill="#0071CE"/>
<path d="M35.1564 13.5344C34.4233 13.9593 34.4233 14.6435 35.1564 15.0646C35.5675 15.2739 36.0223 15.383 36.4836 15.383C36.9449 15.383 37.3997 15.2739 37.8108 15.0646C38.5401 14.6435 38.5401 13.9555 37.8108 13.5344C37.3991 13.3269 36.9446 13.2188 36.4836 13.2188C36.0226 13.2188 35.568 13.3269 35.1564 13.5344Z" fill="#F0F0F0"/>
<path d="M37.5028 16.087C36.9877 16.3877 36.9877 16.8727 37.5028 17.1698C37.7937 17.3186 38.1159 17.3962 38.4427 17.3962C38.7695 17.3962 39.0916 17.3186 39.3826 17.1698C39.9014 16.8727 39.9014 16.3877 39.3826 16.087C39.0911 15.9399 38.7692 15.8633 38.4427 15.8633C38.1162 15.8633 37.7943 15.9399 37.5028 16.087Z" fill="#F0F0F0"/>
<path d="M31.596 12.8553C31.0772 13.1523 31.0772 13.6373 31.596 13.9381C31.8875 14.0852 32.2095 14.1618 32.536 14.1618C32.8625 14.1618 33.1844 14.0852 33.4759 13.9381C33.9947 13.6373 33.9947 13.1523 33.4759 12.8553C33.1849 12.7065 32.8628 12.6289 32.536 12.6289C32.2091 12.6289 31.887 12.7065 31.596 12.8553Z" fill="#F0F0F0"/>
<path d="M40.3967 18.2828C40.6974 18.0234 40.9982 18.1287 41.0734 18.5197C41.1011 18.7339 41.0781 18.9517 41.0063 19.1554C40.9345 19.3592 40.8158 19.5432 40.6598 19.6927C40.6119 19.7567 40.5449 19.8037 40.4685 19.827C40.392 19.8503 40.3101 19.8486 40.2347 19.8222C40.1593 19.7958 40.0942 19.746 40.049 19.6802C40.0037 19.6143 39.9806 19.5357 39.9831 19.4558C39.9542 19.2415 39.9766 19.0234 40.0485 18.8195C40.1204 18.6155 40.2397 18.4316 40.3967 18.2828Z" fill="#0071CE"/>
<path d="M43.9062 19.9427L40.8383 18.1719L40.1691 19.7923L43.2407 21.5631L43.9062 19.9427Z" fill="#0071CE"/>
<path d="M43.4323 20.0452C43.4802 19.9812 43.5472 19.9341 43.6236 19.9108C43.7001 19.8876 43.782 19.8892 43.8574 19.9156C43.9328 19.942 43.9979 19.9918 44.0431 20.0577C44.0884 20.1236 44.1114 20.2021 44.109 20.282C44.1376 20.4963 44.1151 20.7143 44.0432 20.9182C43.9713 21.1221 43.8521 21.3061 43.6954 21.455C43.3947 21.7145 43.0939 21.6054 43.0187 21.2182C42.9907 21.0039 43.0135 20.7861 43.0854 20.5823C43.1572 20.3785 43.2761 20.1945 43.4323 20.0452Z" fill="#0071CE"/>
<path d="M43.4323 20.0452C43.4802 19.9812 43.5472 19.9341 43.6236 19.9108C43.7001 19.8876 43.782 19.8892 43.8574 19.9156C43.9328 19.942 43.9979 19.9918 44.0431 20.0577C44.0884 20.1236 44.1114 20.2021 44.109 20.282C44.1376 20.4963 44.1151 20.7143 44.0432 20.9182C43.9713 21.1221 43.8521 21.3061 43.6954 21.455C43.3947 21.7145 43.0939 21.6054 43.0187 21.2182C42.9907 21.0039 43.0135 20.7861 43.0854 20.5823C43.1572 20.3785 43.2761 20.1945 43.4323 20.0452Z" fill="black"/>
<path d="M17.2503 46.0791C17.2503 46.1543 17.2503 46.222 17.2503 46.2971C17.2503 46.4475 17.2503 46.6017 17.2503 46.7558C16.6412 46.4964 15.8479 46.5829 14.9945 47.0867C13.0808 48.192 11.528 50.8802 11.528 53.1022C11.528 54.1323 11.8664 54.8768 12.4229 55.264C12.2666 55.3751 12.1047 55.478 11.9379 55.5723L11.7611 55.6625L11.231 57.6589L8.16313 55.9483C7.19313 55.3881 6.59534 54.1925 6.59534 52.4856C6.59534 49.0756 8.9865 44.9324 11.9379 43.2255C13.3966 42.3833 14.7163 42.2968 15.6975 42.8495L18.7053 44.5339L18.7692 44.5715L17.2503 46.0791Z" fill="#455A64"/>
<path d="M8.098 40.1133L5.80835 48.05L10.3914 50.6968L12.7638 42.809L8.098 40.1133Z" fill="#0071CE"/>
<path opacity="0.2" d="M8.098 40.1133L5.80835 48.05L10.3914 50.6968L12.7638 42.809L8.098 40.1133Z" fill="black"/>
<path d="M8.09753 40.1102C8.09753 40.1102 10.6955 42.3171 12.7633 42.8059C15.4778 43.4638 19.7939 43.5353 21.3241 43.6405C23.6626 43.8022 25.4297 43.7985 26.2568 43.5014C27.3283 43.1255 30.2083 41.4524 31.0053 40.9937C32.5317 40.114 33.1822 36.6513 28.9751 35.7039C26.1304 35.1145 23.2328 34.8184 20.3278 34.8203L8.09753 40.1102Z" fill="#0071CE"/>
<path d="M34.0072 39.0954C33.8764 39.4224 33.788 39.7648 33.744 40.1143C33.6228 40.4775 33.5944 40.8652 33.6613 41.2422C33.9479 41.7162 34.3989 42.0681 34.9283 42.231C35.3097 42.3158 35.7045 42.3212 36.088 42.2468C36.4716 42.1724 36.8357 42.0199 37.1578 41.7986C37.936 41.3324 38.5225 40.7685 39.6279 40.4526C40.418 40.2854 41.1621 39.948 41.8085 39.4639C42.4213 38.9713 43.2409 37.6103 42.0679 37.2945C40.8949 36.9787 38.3458 38.0916 36.0224 38.1931L34.0072 39.0954Z" fill="#37474F"/>
<path d="M34.0071 37.6445V39.3815C34.0782 39.5767 34.2019 39.7484 34.3644 39.8778C34.5269 40.0072 34.722 40.0891 34.9282 40.1146C35.117 40.1423 35.3098 40.1216 35.4884 40.0545C35.77 39.947 36.0141 39.7594 36.1904 39.5149C36.3668 39.2704 36.4678 38.9796 36.481 38.6784L36.5486 37.6445H34.0071Z" fill="#FFA8A7"/>
<path d="M37.3147 26.9023C37.3147 29.0642 36.7057 38.4107 36.7057 38.4107C36.7057 38.4107 35.8221 39.5386 33.9009 38.4107L33.2543 27.9663L37.3147 26.9023Z" fill="#37474F"/>
<path d="M27.2388 36.1148L33.2543 32.6484C33.5008 32.519 33.7073 32.3247 33.8513 32.0865C33.9953 31.8482 34.0714 31.5752 34.0714 31.2968C34.0714 31.0184 33.9953 30.7453 33.8513 30.5071C33.7073 30.2689 33.5008 30.0745 33.2543 29.9452L28.7728 27.3585C28.5205 27.2307 28.2416 27.1641 27.9588 27.1641C27.676 27.1641 27.3971 27.2307 27.1448 27.3585L21.1293 30.8249C20.8839 30.9552 20.6786 31.1498 20.5354 31.388C20.3922 31.6261 20.3165 31.8987 20.3165 32.1765C20.3165 32.4544 20.3922 32.727 20.5354 32.9651C20.6786 33.2033 20.8839 33.3979 21.1293 33.5282L25.6109 36.1148C25.8632 36.2427 26.142 36.3093 26.4249 36.3093C26.7077 36.3093 26.9865 36.2427 27.2388 36.1148Z" fill="#0071CE"/>
<path d="M27.2388 36.1148L33.2543 32.6484C33.5008 32.519 33.7073 32.3247 33.8513 32.0865C33.9953 31.8482 34.0714 31.5752 34.0714 31.2968C34.0714 31.0184 33.9953 30.7453 33.8513 30.5071C33.7073 30.2689 33.5008 30.0745 33.2543 29.9452L28.7728 27.3585C28.5205 27.2307 28.2416 27.1641 27.9588 27.1641C27.676 27.1641 27.3971 27.2307 27.1448 27.3585L21.1293 30.8249C20.8839 30.9552 20.6786 31.1498 20.5354 31.388C20.3922 31.6261 20.3165 31.8987 20.3165 32.1765C20.3165 32.4544 20.3922 32.727 20.5354 32.9651C20.6786 33.2033 20.8839 33.3979 21.1293 33.5282L25.6109 36.1148C25.8632 36.2427 26.142 36.3093 26.4249 36.3093C26.7077 36.3093 26.9865 36.2427 27.2388 36.1148Z" fill="white"/>
<path d="M21.1301 31.7649L25.6117 34.3515C25.864 34.4794 26.1428 34.546 26.4257 34.546C26.7085 34.546 26.9874 34.4794 27.2396 34.3515L33.2551 30.8851C33.3533 30.8518 33.4386 30.7885 33.4991 30.7042C33.5595 30.6199 33.592 30.5188 33.592 30.4151C33.592 30.3114 33.5595 30.2103 33.4991 30.126C33.4386 30.0417 33.3533 29.9785 33.2551 29.9452L28.7736 27.3585C28.5213 27.2307 28.2424 27.1641 27.9596 27.1641C27.6768 27.1641 27.3979 27.2307 27.1456 27.3585L21.1301 30.8249C21.0319 30.8583 20.9466 30.9215 20.8862 31.0058C20.8258 31.0901 20.7933 31.1912 20.7933 31.2949C20.7933 31.3986 20.8258 31.4997 20.8862 31.584C20.9466 31.6683 21.0319 31.7315 21.1301 31.7649Z" fill="#0071CE"/>
<path d="M24.7948 8.7573L24.0316 11.9042L20.7532 12.1034L21.46 7.74219L24.7948 8.7573Z" fill="#FFA8A7"/>
<path d="M27.9907 6.38672C27.9907 6.38672 28.3667 7.71765 28.2125 7.79284C27.9758 7.82896 27.7349 7.82896 27.4982 7.79284L27.9907 6.38672Z" fill="#F28F8F"/>
<path d="M27.3627 2.13967C27.889 2.76002 28.3703 3.7789 27.9981 6.27533C27.592 9.00486 27.0882 9.32067 26.6822 9.58385C26.1521 9.92974 24.0316 9.74552 23.4338 9.30939C22.7157 8.7868 21.6066 7.12878 21.3434 5.49332C21.0351 3.57211 21.678 1.44037 23.0917 1.07568C25.0806 0.560605 26.9153 1.61332 27.3627 2.13967Z" fill="#FFA8A7"/>
<path d="M21.13 8.62389C21.6375 9.15024 22.679 9.29311 23.3331 9.41342C23.9873 9.53373 25.9988 9.66532 26.5928 8.23287C27.1868 6.80043 26.7808 5.77028 27.5102 5.42439C28.2395 5.0785 28.9689 4.85292 29.1607 4.67245C29.3524 4.49199 29.3562 2.13466 27.3974 0.912763C25.4386 -0.309135 22.4383 -0.591107 20.4645 1.88653C18.9681 3.80021 19.581 7.00722 21.13 8.62389Z" fill="#455A64"/>
<path d="M23.1038 9.43332C23.6113 9.47843 25.2167 9.22654 25.7017 8.56483C26.1867 7.90313 26.3822 6.71882 26.4536 6.09848C26.4602 5.85416 26.5498 5.61937 26.7077 5.43279C26.8655 5.24622 27.0823 5.11899 27.3221 5.07208C27.8071 4.91793 28.8786 4.39158 28.8786 4.39158V4.09832C29.2242 4.0766 29.5708 4.0766 29.9163 4.09832C30.1419 4.13968 30.0178 4.47429 29.4463 4.76379C28.8749 5.05328 27.3071 5.61348 27.0665 5.80522C26.8258 5.99697 26.7131 6.8053 26.5213 7.66627C26.3296 8.52723 25.7355 9.81305 23.1038 9.43332Z" fill="#37474F"/>
<path d="M27.615 12.9907L29.4949 11.9117C29.6753 11.3666 29.3858 11.0921 28.8745 11.1259C28.3632 11.1598 28.5211 10.6635 28.209 10.5244C27.7992 10.3364 27.5661 10.4417 27.3819 10.3552C27.1977 10.2687 27.1187 10.0507 26.8781 10.0244C25.8028 9.92284 25.0697 11.4568 25.0697 11.4568L27.615 12.9907Z" fill="#F28F8F"/>
<path d="M14.8542 26.7968C14.8542 26.7968 23.1594 22.68 24.6069 22.0145C26.0544 21.3491 28.3252 20.3828 29.5321 20.3828C30.0037 20.4218 30.4454 20.6295 30.7762 20.9679C31.107 21.3063 31.3047 21.7527 31.333 22.2251C31.3486 22.9503 31.3071 23.6757 31.2089 24.3944C28.9271 25.143 26.5953 25.7297 24.2309 26.1502C20.7758 26.7517 14.8542 26.7968 14.8542 26.7968Z" fill="#37474F"/>
<path d="M15.7575 24.4165C15.7575 26.1234 15.5958 27.898 16.3064 29.1462C17.017 30.3944 20.8669 33.2818 24.4913 32.6765C26.8599 32.278 33.8905 29.0409 33.8905 29.0409C33.8905 29.0409 37.3005 27.7889 37.3156 26.8979C37.3381 25.5858 37.2479 23.736 34.274 23.8149C31.5632 23.8864 23.5664 25.5557 23.5664 25.5557L15.7575 24.4165Z" fill="#455A64"/>
<path d="M18.0775 10.8951C19.3633 9.55291 20.2318 9.44012 20.8484 9.60555C22.2654 10.0111 23.6373 10.5604 24.9426 11.2448C24.9426 11.2448 24.4464 16.0496 26.7962 17.4332V24.9225C26.7962 24.9225 26.7247 25.7346 25.7021 26.5429C24.7998 27.2535 22.7583 27.9716 20.322 27.7686C17.427 27.528 15.7577 24.4187 15.7577 24.4187C15.7577 24.4187 15.6825 18.2942 16.0924 15.8617C16.5736 13.0231 17.6338 11.3613 18.0775 10.8951Z" fill="#455A64"/>
<path d="M26.7958 17.7973C26.7958 17.7973 25.3746 16.6694 24.9423 15.2031C24.9423 15.2031 25.1114 17.5041 26.7958 18.6696V17.7973Z" fill="#37474F"/>
<path d="M39.9517 21.3325C40.6267 21.3603 41.2907 21.1544 41.8316 20.7497C41.8316 20.7497 42.4858 19.4789 43.2903 19.588C43.2903 19.588 43.4332 19.0466 43.1024 18.8699C42.7715 18.6932 42.6286 18.742 42.4933 18.5541C42.3579 18.3661 42.3429 18.0164 41.7414 18.0164C41.4932 18.0164 41.527 17.8397 40.9255 17.7683C40.3239 17.6969 39.7299 19.0842 39.29 19.0842L39.9517 21.3325Z" fill="#FFA8A7"/>
<path d="M24.9418 11.2461C27.0059 11.5657 27.7541 12.1785 28.506 12.874C29.2579 13.5696 33.8598 18.1865 33.8598 18.1865L39.4317 18.9873C39.7245 19.2244 39.9393 19.544 40.0482 19.9047C40.2738 20.5588 40.0708 21.2732 39.8565 21.4424C39.8565 21.4424 34.3298 21.7732 33.2432 21.5664C32.1567 21.3596 26.7765 17.7879 26.7765 17.7879C26.2623 17.4002 25.831 16.9132 25.5082 16.3559C25.1853 15.7987 24.9774 15.1823 24.8967 14.5433C24.5471 12.2762 24.9418 11.2461 24.9418 11.2461Z" fill="#455A64"/>
<path d="M19.9867 31.1036L11.4485 41.5254C11.3537 41.5374 11.2583 41.5437 11.1627 41.5442C10.8242 41.5496 10.4896 41.4708 10.189 41.3149L2.97789 37.1491L2.48913 36.8672C2.22219 36.713 2.00037 36.0814 2.00037 35.4573V33.7015C2.00008 31.8979 2.47452 30.126 3.37603 28.5639C4.27753 27.0018 5.57433 25.7045 7.1361 24.8023L15.7458 19.832L24.9081 25.1219L19.9867 31.1036Z" fill="#0071CE"/>
<g opacity="0.1">
<path opacity="0.1" d="M19.9863 31.1036L11.4481 41.5254C11.3533 41.5374 11.2579 41.5437 11.1624 41.5442C10.8238 41.5496 10.4892 41.4708 10.1886 41.3149L2.97752 37.1491L2.48876 36.8672C2.22182 36.713 2 36.0814 2 35.4573V33.7015C1.99971 31.8979 2.47416 30.126 3.37566 28.5639C4.27717 27.0018 5.57397 25.7045 7.13573 24.8023L15.7454 19.832L24.9078 25.1219L19.9863 31.1036Z" fill="black"/>
</g>
<path d="M17.0434 34.698L24.8974 25.1258L15.735 19.8359L7.12909 24.8025C6.01586 25.447 5.0338 26.2951 4.23413 27.3027L17.0434 34.698Z" fill="#0071CE"/>
<path d="M24.8968 32.8097C24.8968 33.4338 24.6787 34.0654 24.408 34.2195L23.9193 34.5015L12.1289 41.3103C11.9144 41.4259 11.6794 41.4987 11.4371 41.5246C11.3423 41.5366 11.2469 41.5429 11.1514 41.5434V38.9906C11.1511 37.1865 11.6259 35.4142 12.5281 33.852C13.4304 32.2898 14.7281 30.9928 16.2909 30.0914L17.2646 29.5312L24.8968 25.1211V32.8097Z" fill="#0071CE"/>
<g opacity="0.2">
<path opacity="0.2" d="M24.8968 32.8097C24.8968 33.4338 24.6787 34.0654 24.408 34.2195L23.9193 34.5015L12.1289 41.3103C11.9144 41.4259 11.6794 41.4987 11.4371 41.5246C11.3423 41.5366 11.2469 41.5429 11.1514 41.5434V38.9906C11.1511 37.1865 11.6259 35.4142 12.5281 33.852C13.4304 32.2898 14.7281 30.9928 16.2909 30.0914L17.2646 29.5312L24.8968 25.1211V32.8097Z" fill="black"/>
</g>
<path d="M27.4273 45.7063L32.0405 45.6912L38.6425 41.8789L32.1758 46.5522L27.307 46.6199L27.4273 45.7063Z" fill="#E0E0E0"/>
<path d="M16.2266 52.2688C16.2266 52.2688 24.543 49.1333 25.2498 48.7648C26.0794 48.2565 26.8664 47.6819 27.6034 47.0466C27.7538 46.8477 27.8244 46.5998 27.8014 46.3515C27.7785 46.1032 27.6636 45.8724 27.4793 45.7044C27.4793 45.7044 24.0956 45.5503 23.2271 45.8172C22.7421 45.9638 14.9144 48.4753 14.9144 48.4753L16.2266 52.2688Z" fill="#E0E0E0"/>
<path d="M15.8556 48.7674C15.1676 48.1772 14.4758 48.4215 14.3067 49.3088C14.242 49.7984 14.2938 50.2963 14.4578 50.7621C14.6218 51.2278 14.8933 51.6484 15.2503 51.9895C15.9384 52.5798 16.6301 52.3391 16.7993 51.4481C16.8636 50.9586 16.8117 50.4608 16.6478 49.995C16.4838 49.5293 16.2124 49.1087 15.8556 48.7674Z" fill="#455A64"/>
</g>
<defs>
<filter id="filter0_d_866_22043" x="0" y="0" width="57.111" height="62" filterUnits="userSpaceOnUse" color-interpolation-filters="sRGB">
<feFlood flood-opacity="0" result="BackgroundImageFix"/>
<feColorMatrix in="SourceAlpha" type="matrix" values="0 0 0 0 0 0 0 0 0 0 0 0 0 0 0 0 0 0 127 0" result="hardAlpha"/>
<feOffset dy="2"/>
<feGaussianBlur stdDeviation="1"/>
<feComposite in2="hardAlpha" operator="out"/>
<feColorMatrix type="matrix" values="0 0 0 0 0 0 0 0 0 0 0 0 0 0 0 0 0 0 0.25 0"/>
<feBlend mode="normal" in2="BackgroundImageFix" result="effect1_dropShadow_866_22043"/>
<feBlend mode="normal" in="SourceGraphic" in2="effect1_dropShadow_866_22043" result="shape"/>
</filter>
</defs>
</svg>
