<svg width="47" height="48" viewBox="0 0 47 48" fill="none" xmlns="http://www.w3.org/2000/svg">
<g filter="url(#filter0_d_905_10543)">
<path d="M28.3865 41.9112L29.2152 41.2707L19.2289 27.0595L19.6296 22.6154L9.59003 8.32991L8.76136 8.9704L18.6831 23.0887L18.2815 27.5319L28.3865 41.9112Z" fill="#6A7D8E"/>
<path d="M28.4235 41.8821L29.2136 41.2741L19.0506 26.9395L14.9782 25.9428L4.99738 11.8686L4.20729 12.4766L14.3054 26.7185L18.3783 27.7133L28.4235 41.8821Z" fill="#6A7D8E"/>
<path d="M29.071 43.8651L30.863 42.534L29.0971 40.5444L27.6761 41.6016L29.071 43.8651Z" fill="#25A4D6"/>
<path d="M3.13754 11.5209L8.94004 7.20803C9.50387 6.78895 10.3007 6.90629 10.7198 7.47012C11.1388 8.03394 11.0215 8.83075 10.4577 9.24983L4.65517 13.5627C4.09134 13.9818 3.29454 13.8645 2.87545 13.3006C2.45637 12.7368 2.57371 11.94 3.13754 11.5209Z" fill="#25A4D6"/>
<path d="M37.2797 39.4981L38.228 39.0016L30.7162 22.9167L31.9132 18.5159L24.3609 2.34679L23.4126 2.84337L30.876 18.8232L29.6785 23.2229L37.2797 39.4981Z" fill="#6A7D8E"/>
<path d="M37.3227 39.4731L38.2264 39.0023L30.5587 22.7617L26.6384 21.0314L19.1077 5.08537L18.204 5.55618L25.8228 21.6919L29.7439 23.4203L37.3227 39.4731Z" fill="#6A7D8E"/>
<path d="M37.6199 41.584L39.661 40.5644L38.2392 38.2468L36.6203 39.057L37.6199 41.584Z" fill="#25A4D6"/>
<path d="M17.2983 4.4049L23.9079 1.10085C24.5502 0.779796 25.3311 1.04018 25.6521 1.68242C25.9732 2.32467 25.7128 3.10558 25.0705 3.42663L18.461 6.73069C17.8187 7.05174 17.0378 6.79136 16.7168 6.14911C16.3957 5.50687 16.6561 4.72596 17.2983 4.4049Z" fill="#25A4D6"/>
</g>
<defs>
<filter id="filter0_d_905_10543" x="0.624268" y="0.964844" width="41.0366" height="46.8984" filterUnits="userSpaceOnUse" color-interpolation-filters="sRGB">
<feFlood flood-opacity="0" result="BackgroundImageFix"/>
<feColorMatrix in="SourceAlpha" type="matrix" values="0 0 0 0 0 0 0 0 0 0 0 0 0 0 0 0 0 0 127 0" result="hardAlpha"/>
<feOffset dy="2"/>
<feGaussianBlur stdDeviation="1"/>
<feComposite in2="hardAlpha" operator="out"/>
<feColorMatrix type="matrix" values="0 0 0 0 0 0 0 0 0 0 0 0 0 0 0 0 0 0 0.25 0"/>
<feBlend mode="normal" in2="BackgroundImageFix" result="effect1_dropShadow_905_10543"/>
<feBlend mode="normal" in="SourceGraphic" in2="effect1_dropShadow_905_10543" result="shape"/>
</filter>
</defs>
</svg>
