<svg width="190" height="248" viewBox="0 0 190 248" fill="none" xmlns="http://www.w3.org/2000/svg">
<path d="M123.153 47.452C123.153 28.8949 112.774 12.2304 99.0201 4.29199C92.1047 0.297203 86.0486 -0.51096 81.7265 2.02606L70.1257 8.6755C69.916 8.79315 69.7063 8.91591 69.5017 9.0489L69.6296 8.96194L69.4403 9.07447C65.3791 11.6984 62.9443 17.417 62.9443 26.4039C62.9443 45.1349 73.3277 61.6204 87.0818 69.564C93.9921 73.5536 100.048 74.4027 104.37 71.8862L116.043 65.2111C116.176 65.1395 116.309 65.0628 116.442 64.981L116.646 64.8633C120.718 62.2445 123.153 56.5157 123.153 47.452Z" fill="#0071CE"/>
<path opacity="0.5" d="M103.329 71.3511C113.19 66.1829 113.91 48.1154 104.937 30.9962C95.9648 13.877 80.6975 4.1888 70.8368 9.357C60.9761 14.5252 60.2561 32.5927 69.2287 49.7119C78.2012 66.8311 93.4685 76.5193 103.329 71.3511Z" fill="white"/>
<path d="M92.7947 43.6422C92.7947 33.6015 89.9406 28.9571 87.0813 27.305C84.2221 25.6529 81.373 27.0083 81.373 37.0234C81.373 47.0385 84.2272 51.7085 87.0813 53.3606C89.9355 55.0127 92.7947 53.6828 92.7947 43.6422Z" fill="#0071CE"/>
<path opacity="0.3" d="M92.7947 43.6422C92.7947 33.6015 89.9406 28.9571 87.0813 27.305C84.2221 25.6529 81.373 27.0083 81.373 37.0234C81.373 47.0385 84.2272 51.7085 87.0813 53.3606C89.9355 55.0127 92.7947 53.6828 92.7947 43.6422Z" fill="black"/>
<path d="M190 135.216C190 116.634 179.617 99.9998 165.857 92.0562C158.947 88.0666 152.886 87.2533 148.569 89.7903L136.973 96.4397C136.758 96.5523 136.549 96.675 136.344 96.808L136.472 96.7262L136.283 96.8336C132.221 99.4525 129.787 105.171 129.787 114.158C129.787 132.889 140.17 149.374 153.924 157.318C160.834 161.308 166.891 162.157 171.213 159.645L182.905 152.97L183.304 152.74L183.509 152.622C187.56 150.009 190 144.285 190 135.216Z" fill="#0071CE"/>
<path opacity="0.5" d="M170.167 159.127C180.027 153.958 180.747 135.891 171.775 118.772C162.802 101.652 147.535 91.9642 137.674 97.1324C127.813 102.301 127.094 120.368 136.066 137.487C145.039 154.606 160.306 164.295 170.167 159.127Z" fill="white"/>
<path d="M159.637 131.411C159.637 121.37 156.783 116.726 153.924 115.079C151.064 113.432 148.215 114.777 148.215 124.797C148.215 134.818 151.069 139.488 153.924 141.135C156.778 142.782 159.637 141.457 159.637 131.411Z" fill="#0071CE"/>
<path opacity="0.3" d="M159.637 131.411C159.637 121.37 156.783 116.726 153.924 115.079C151.064 113.432 148.215 114.777 148.215 124.797C148.215 134.818 151.069 139.488 153.924 141.135C156.778 142.782 159.637 141.457 159.637 131.411Z" fill="black"/>
<path d="M152.359 36.584L140.426 43.4176L78.3867 112.505L100.325 125.17L112.253 118.331L174.292 49.2435L152.359 36.584Z" fill="#0071CE"/>
<path opacity="0.3" d="M162.359 56.0809L100.325 125.169L112.253 118.33L174.293 49.2422L162.359 56.0809Z" fill="black"/>
<path opacity="0.5" d="M140.426 43.418L162.359 56.0826L100.325 125.17L78.3867 112.506L140.426 43.418Z" fill="white"/>
<path d="M53.9615 37.7392L55.184 41.3197C55.356 41.8354 55.6763 42.2891 56.1046 42.624L58.8309 44.67C59.8539 45.4167 60.2375 47.0689 59.5112 47.4678L57.5368 48.5471C57.3843 48.6643 57.2695 48.8237 57.2067 49.0056C57.144 49.1875 57.1361 49.3837 57.1839 49.5701L57.6494 52.9766C57.8182 54.2298 56.7747 54.5111 55.8745 53.4421L53.4346 50.5522C53.3035 50.3674 53.1343 50.213 52.9384 50.0992C52.7425 49.9853 52.5245 49.9148 52.2991 49.8923L49.8542 49.9639C48.959 49.9946 47.9105 48.5062 48.0844 47.4525L48.5499 44.583C48.5948 44.0732 48.4708 43.5627 48.1969 43.1304L46.2225 39.7698C45.4962 38.532 45.8952 37.3402 46.8977 37.7545L49.6291 38.8696C49.7832 38.9592 49.9665 38.9842 50.139 38.9391C50.3115 38.8941 50.4592 38.7827 50.5498 38.6292L51.7672 36.4809C52.2173 35.683 53.496 36.4298 53.9615 37.7392Z" fill="#455A64"/>
<path d="M179.959 62.9012L181.181 66.4816C181.355 66.9954 181.673 67.4483 182.097 67.7859L184.828 69.8319C185.851 70.5787 186.23 72.236 185.509 72.6298L183.529 73.7142C183.377 73.8316 183.263 73.9913 183.201 74.1732C183.139 74.3552 183.132 74.5513 183.181 74.7372L183.647 78.1437C183.816 79.3969 182.767 79.6782 181.872 78.6092L179.432 75.7141C179.299 75.5302 179.129 75.3767 178.932 75.2638C178.736 75.1509 178.517 75.0812 178.291 75.0594L175.852 75.131C174.956 75.131 173.908 73.6733 174.077 72.6196L174.547 69.7501C174.6 69.2369 174.481 68.7206 174.21 68.2821L172.235 64.9165C171.509 63.6838 171.908 62.492 172.91 62.9012L175.642 64.0213C175.796 64.1096 175.979 64.1338 176.151 64.0889C176.323 64.044 176.471 63.9334 176.562 63.7809L177.79 61.6327C178.215 60.8449 179.509 61.5917 179.959 62.9012Z" fill="#455A64"/>
<path d="M168.41 75.6597L169.161 77.8591C169.27 78.1772 169.467 78.4576 169.729 78.6673L171.417 79.9256C172.041 80.3859 172.287 81.4089 171.837 81.6544L170.629 82.3245C170.532 82.3986 170.459 82.5 170.42 82.6157C170.381 82.7314 170.377 82.8562 170.409 82.9741L170.696 85.0815C170.803 85.8538 170.154 86.0226 169.601 85.3679L168.067 83.5777C167.986 83.4631 167.88 83.3676 167.758 83.2978C167.637 83.228 167.501 83.1856 167.361 83.1736L165.852 83.2196C165.3 83.2196 164.65 82.3143 164.757 81.6851L165.044 79.9102C165.071 79.5949 164.996 79.2791 164.829 79.01L163.607 76.9333C163.156 76.1661 163.402 75.4295 164.026 75.6853L165.714 76.3758C165.809 76.4302 165.922 76.4452 166.028 76.4175C166.134 76.3897 166.225 76.3215 166.282 76.2275L167.039 74.8976C167.33 74.3861 168.128 74.8515 168.41 75.6597Z" fill="#455A64"/>
<path d="M46.2796 20.9104L47.0315 23.1098C47.1416 23.4283 47.3404 23.7086 47.6044 23.918L49.2923 25.1763C49.9112 25.6366 50.1567 26.6596 49.7117 26.9051L48.4893 27.5752C48.392 27.648 48.319 27.7485 48.2797 27.8635C48.2405 27.9784 48.2368 28.1026 48.2693 28.2197L48.5609 30.327C48.6632 31.1045 48.0187 31.2733 47.4612 30.6135L45.9522 28.8284C45.8711 28.7144 45.7667 28.619 45.6459 28.5484C45.525 28.4779 45.3906 28.4338 45.2515 28.4192L43.717 28.4652C43.1646 28.4652 42.515 27.565 42.6224 26.9307L42.9088 25.1558C42.9417 24.84 42.8659 24.5225 42.694 24.2556L41.4715 22.1738C41.0214 21.4117 41.2721 20.6751 41.891 20.9309L43.5789 21.6214C43.6741 21.6758 43.7869 21.6908 43.893 21.663C43.9992 21.6353 44.0902 21.5671 44.1467 21.473L44.9037 20.138C45.2003 19.6368 46.0034 20.0971 46.2796 20.9104Z" fill="#455A64"/>
<path d="M49.9006 102.561C49.9006 102.561 49.0546 139.545 43.019 149.4C36.9835 159.255 11.888 179.938 11.888 179.938L7.62646 174.211C7.62646 174.211 21.1118 149.318 27.2799 146.256L32.1033 102.359L49.9006 102.561Z" fill="#263238"/>
<path d="M3.03662 193.124L6.34481 191.704L4.91168 188.977L3.03662 193.124Z" fill="#0071CE"/>
<path d="M1.3258 181.424C0.864089 182.3 0.580833 183.259 0.492439 184.246L0 189.757L3.03671 193.122L4.93071 188.975L1.3258 181.424Z" fill="#0071CE"/>
<g style="mix-blend-mode:overlay" opacity="0.5">
<path d="M3.03662 193.124L6.34481 191.704L4.91168 188.977L3.03662 193.124Z" fill="black"/>
</g>
<g style="mix-blend-mode:overlay" opacity="0.2">
<path d="M1.3258 181.424C0.864089 182.3 0.580833 183.259 0.492439 184.246L0 189.757L3.03671 193.122L4.93071 188.975L1.3258 181.424Z" fill="black"/>
</g>
<path d="M11.6163 167.308C11.6163 167.308 12.7401 173.584 18.3905 174.209C18.3905 174.209 19.1734 175.118 17.2731 177.145C15.3728 179.171 11.8878 183.407 11.8878 183.407C11.8878 183.407 12.2477 190.011 14.8109 192.505C16.0735 193.768 17.4057 195.03 18.4032 196.078C18.6002 196.277 18.7471 196.519 18.8318 196.786C18.9165 197.052 18.9366 197.335 18.8903 197.611C18.8441 197.887 18.7328 198.147 18.5657 198.372C18.3987 198.596 18.1807 198.777 17.9297 198.9C16.3795 199.664 14.6379 199.952 12.9245 199.727C11.2111 199.502 9.60261 198.775 8.30183 197.638L7.27276 196.735C6.20176 195.784 5.52599 194.466 5.37876 193.042L4.93683 188.988L1.4708 183.938C1.22362 183.576 1.08156 183.152 1.06039 182.714C1.03921 182.276 1.13975 181.841 1.35085 181.457C3.52895 177.486 10.1643 165.793 11.6163 167.308Z" fill="#0071CE"/>
<path d="M27.8864 100.139C27.8864 100.139 16.4088 112.071 20.5756 126.509C24.7424 140.948 34.0672 160.778 34.0672 160.778C34.0672 160.778 32.6593 165.078 36.5925 174.213C40.5257 183.348 44.1685 193.519 44.1685 193.519C44.1685 193.519 47.9565 195.672 51.4667 191.922L41.4727 116.497C41.4727 116.497 49.0993 111.149 48.1017 102.273L27.8864 100.139Z" fill="#37474F"/>
<path d="M44.8818 203.051L46.2455 209.086L49.6926 210.961L49.56 206.561L44.8818 203.051Z" fill="#0071CE"/>
<path opacity="0.2" d="M44.8818 203.051L46.2455 209.086L49.6926 210.961L49.56 206.561L44.8818 203.051Z" fill="black"/>
<path d="M49.6926 210.959L51.4288 209.816L49.5601 206.559L49.6926 210.959Z" fill="#0071CE"/>
<path opacity="0.5" d="M49.6926 210.959L51.4288 209.816L49.5601 206.559L49.6926 210.959Z" fill="black"/>
<path d="M42.3371 188.588C42.3371 188.588 47.192 190.81 50.8412 187.218L50.677 186.081C50.677 186.081 51.9397 185.709 52.369 187.975C52.7983 190.242 55.09 201.265 55.09 201.265C55.09 201.265 59.2253 206.587 62.243 207.793C65.2608 208.999 65.8732 210.691 63.8908 212.162L63.834 212.206C62.6807 213.062 61.3155 213.587 59.8858 213.724C58.4561 213.86 57.0161 213.604 55.7214 212.983L53.3791 211.865C52.456 211.418 51.7108 210.673 51.2641 209.75L50.98 209.163C50.2703 207.695 49.1467 206.466 47.7476 205.627L46.0178 204.592C45.7417 204.425 45.5014 204.206 45.3107 203.946C45.12 203.686 44.9827 203.39 44.9066 203.077L41.7499 189.869C41.6898 189.623 41.7158 189.363 41.8238 189.133C41.9318 188.904 42.1151 188.718 42.3434 188.607L42.3371 188.588Z" fill="#0071CE"/>
<path d="M46.0303 146.377C45.772 146.377 45.5209 146.292 45.316 146.134C45.1111 145.977 44.9638 145.756 44.897 145.507C44.8301 145.257 44.8474 144.993 44.9461 144.754C45.0449 144.515 45.2196 144.316 45.4432 144.186L83.077 122.418C83.2107 122.336 83.3595 122.281 83.5146 122.258C83.6697 122.234 83.828 122.242 83.9801 122.28C84.1322 122.319 84.2751 122.387 84.4003 122.482C84.5254 122.576 84.6303 122.695 84.7088 122.831C84.7873 122.967 84.8378 123.117 84.8572 123.273C84.8767 123.429 84.8647 123.587 84.8221 123.738C84.7794 123.889 84.7069 124.03 84.6089 124.152C84.5108 124.275 84.3892 124.376 84.2513 124.451L46.6427 146.219C46.456 146.325 46.2448 146.379 46.0303 146.377Z" fill="#37474F"/>
<path d="M47.8477 179.523C47.6423 179.523 47.4405 179.469 47.2629 179.366C47.0854 179.263 46.9385 179.114 46.8375 178.936C46.6814 178.667 46.6383 178.347 46.7176 178.046C46.7968 177.746 46.9921 177.489 47.2605 177.332L84.8691 155.57C85.0021 155.493 85.1491 155.443 85.3015 155.422C85.454 155.402 85.6089 155.412 85.7575 155.452C85.9062 155.491 86.0455 155.56 86.1677 155.653C86.2898 155.746 86.3924 155.863 86.4695 155.996C86.5466 156.129 86.5967 156.276 86.617 156.429C86.6374 156.581 86.6274 156.736 86.5879 156.885C86.5483 157.033 86.4798 157.173 86.3864 157.295C86.293 157.417 86.1764 157.519 86.0433 157.597L48.4348 179.378C48.2555 179.477 48.0528 179.527 47.8477 179.523Z" fill="#37474F"/>
<path d="M45.898 154.277C45.7956 154.278 45.6948 154.251 45.606 154.2C45.5172 154.149 45.4436 154.075 45.393 153.986C45.3536 153.92 45.3279 153.846 45.3174 153.77C45.3069 153.693 45.3118 153.615 45.3318 153.54C45.3518 153.466 45.3865 153.396 45.4338 153.335C45.4812 153.274 45.5403 153.223 45.6076 153.185L83.4876 131.265C83.5545 131.224 83.6289 131.196 83.7064 131.184C83.784 131.173 83.8631 131.176 83.9392 131.196C84.0153 131.215 84.0867 131.249 84.1493 131.297C84.2119 131.344 84.2643 131.403 84.3036 131.471C84.3428 131.539 84.368 131.614 84.3778 131.692C84.3875 131.77 84.3815 131.849 84.3602 131.924C84.3389 132 84.3026 132.07 84.2536 132.132C84.2046 132.193 84.1438 132.244 84.0748 132.281L46.1948 154.201C46.1036 154.25 46.0017 154.276 45.898 154.277Z" fill="#37474F"/>
<path d="M46.9644 162.669C46.8359 162.668 46.7112 162.626 46.6094 162.547C46.5075 162.469 46.4341 162.36 46.4004 162.236C46.3667 162.112 46.3746 161.98 46.4229 161.861C46.4712 161.742 46.5571 161.642 46.6676 161.577L84.5476 139.657C84.6821 139.584 84.8397 139.566 84.9869 139.608C85.134 139.65 85.2592 139.747 85.3357 139.879C85.4122 140.012 85.434 140.169 85.3965 140.317C85.3589 140.465 85.2651 140.593 85.1348 140.673L47.2548 162.593C47.1662 162.643 47.0661 162.669 46.9644 162.669Z" fill="#37474F"/>
<path d="M46.9644 171.108C46.8359 171.108 46.7112 171.065 46.6094 170.987C46.5075 170.909 46.4341 170.799 46.4004 170.675C46.3667 170.551 46.3746 170.42 46.4229 170.301C46.4712 170.182 46.5571 170.082 46.6676 170.016L84.5476 148.096C84.6821 148.023 84.8397 148.006 84.9869 148.047C85.134 148.089 85.2592 148.186 85.3357 148.319C85.4122 148.451 85.434 148.608 85.3965 148.757C85.3589 148.905 85.2651 149.033 85.1348 149.113L47.2548 171.033C47.1662 171.083 47.0661 171.109 46.9644 171.108Z" fill="#37474F"/>
<path d="M81.3606 159.857C81.2102 159.857 81.0654 159.799 80.9562 159.696C80.8469 159.593 80.7815 159.451 80.7734 159.301L78.8794 125.885C78.8702 125.729 78.9233 125.576 79.0269 125.459C79.1305 125.343 79.2761 125.272 79.4319 125.263C79.5876 125.254 79.7406 125.307 79.8572 125.41C79.9738 125.514 80.0445 125.659 80.0537 125.815L81.9477 159.238C81.9529 159.316 81.9425 159.394 81.9174 159.468C81.8922 159.542 81.8527 159.61 81.8011 159.669C81.7494 159.728 81.6868 159.776 81.6166 159.81C81.5464 159.844 81.4701 159.864 81.3921 159.869L81.3606 159.857Z" fill="#37474F"/>
<path d="M76.5115 162.676C76.3621 162.676 76.2183 162.62 76.1092 162.517C76.0001 162.415 75.934 162.276 75.9244 162.127L74.0304 128.704C74.0188 128.623 74.0241 128.541 74.046 128.462C74.0679 128.384 74.106 128.311 74.1576 128.248C74.2093 128.185 74.2736 128.133 74.3462 128.097C74.4189 128.06 74.4985 128.038 74.5799 128.034C74.6612 128.03 74.7426 128.042 74.8189 128.071C74.8951 128.1 74.9645 128.144 75.0227 128.201C75.0809 128.258 75.1265 128.327 75.1568 128.402C75.187 128.478 75.2012 128.559 75.1983 128.641L77.0923 162.057C77.0992 162.135 77.0904 162.213 77.0662 162.288C77.0421 162.362 77.0033 162.431 76.952 162.49C76.9007 162.549 76.8381 162.597 76.7678 162.631C76.6975 162.665 76.6211 162.685 76.5431 162.688L76.5115 162.676Z" fill="#37474F"/>
<path d="M71.6563 165.494C71.5065 165.494 71.3625 165.436 71.2543 165.333C71.146 165.229 71.082 165.088 71.0755 164.938L69.1815 131.522C69.1746 131.444 69.1834 131.366 69.2076 131.291C69.2317 131.217 69.2705 131.148 69.3218 131.089C69.3731 131.03 69.4357 130.982 69.506 130.948C69.5763 130.914 69.6527 130.894 69.7307 130.89C69.8084 130.884 69.8864 130.894 69.9604 130.918C70.0343 130.943 70.1026 130.982 70.1614 131.033C70.2202 131.084 70.2682 131.146 70.3026 131.216C70.3371 131.286 70.3573 131.362 70.3621 131.44L72.2561 164.862C72.2621 164.94 72.2526 165.018 72.2281 165.092C72.2037 165.166 72.1647 165.234 72.1136 165.293C72.0625 165.352 72.0002 165.4 71.9304 165.434C71.8605 165.469 71.7845 165.489 71.7068 165.494H71.6563Z" fill="#37474F"/>
<path d="M66.8074 168.326C66.658 168.327 66.5142 168.27 66.4051 168.168C66.296 168.066 66.2299 167.926 66.2203 167.777L64.3263 134.354C64.3147 134.274 64.32 134.191 64.3419 134.113C64.3638 134.034 64.4018 133.961 64.4535 133.898C64.5052 133.835 64.5695 133.784 64.6421 133.747C64.7148 133.71 64.7944 133.689 64.8758 133.684C64.9571 133.68 65.0385 133.693 65.1148 133.721C65.191 133.75 65.2604 133.795 65.3186 133.852C65.3768 133.909 65.4224 133.977 65.4527 134.053C65.4829 134.128 65.4971 134.21 65.4942 134.291L67.3882 167.708C67.3942 167.786 67.3845 167.864 67.3597 167.939C67.3349 168.013 67.2954 168.082 67.2436 168.14C67.1918 168.199 67.1288 168.247 67.0582 168.281C66.9876 168.315 66.9109 168.335 66.8327 168.339L66.8074 168.326Z" fill="#37474F"/>
<path d="M61.9586 171.174C61.8086 171.173 61.6647 171.115 61.5558 171.012C61.4468 170.909 61.381 170.768 61.3714 170.619L59.4774 137.196C59.4733 137.119 59.4844 137.041 59.51 136.969C59.5357 136.896 59.5755 136.829 59.6271 136.771C59.6787 136.714 59.741 136.667 59.8107 136.634C59.8803 136.6 59.9559 136.581 60.033 136.577C60.1101 136.573 60.1873 136.584 60.2601 136.61C60.3329 136.635 60.4 136.675 60.4574 136.727C60.5149 136.778 60.5616 136.841 60.5949 136.91C60.6283 136.98 60.6475 137.055 60.6517 137.133L62.5457 170.555C62.5508 170.633 62.5405 170.712 62.5154 170.786C62.4902 170.86 62.4507 170.928 62.399 170.986C62.3474 171.045 62.2847 171.093 62.2146 171.127C62.1444 171.162 62.0681 171.182 61.9901 171.187L61.9586 171.174Z" fill="#37474F"/>
<path d="M57.1101 173.986C56.9597 173.986 56.8149 173.928 56.7057 173.825C56.5965 173.722 56.531 173.58 56.523 173.43L54.629 140.014C54.6197 139.858 54.6728 139.705 54.7764 139.588C54.88 139.472 55.0257 139.401 55.1814 139.392C55.3371 139.382 55.4901 139.435 55.6067 139.539C55.7233 139.643 55.794 139.788 55.8032 139.944L57.6972 173.367C57.7032 173.445 57.6937 173.523 57.6693 173.597C57.6448 173.67 57.6059 173.739 57.5548 173.798C57.5037 173.856 57.4414 173.904 57.3716 173.939C57.3017 173.973 57.2257 173.993 57.148 173.998L57.1101 173.986Z" fill="#37474F"/>
<path d="M52.2547 176.811C52.1059 176.808 51.9635 176.75 51.8559 176.647C51.7483 176.544 51.6834 176.404 51.6739 176.255L49.7799 142.833C49.7683 142.752 49.7736 142.67 49.7956 142.591C49.8175 142.513 49.8555 142.44 49.9072 142.377C49.9588 142.314 50.0231 142.262 50.0958 142.225C50.1684 142.189 50.248 142.167 50.3294 142.163C50.4107 142.159 50.4921 142.171 50.5684 142.2C50.6446 142.229 50.714 142.273 50.7722 142.33C50.8304 142.387 50.876 142.456 50.9063 142.531C50.9365 142.607 50.9507 142.688 50.9479 142.77L52.8419 176.192C52.8497 176.27 52.8414 176.349 52.8177 176.424C52.7939 176.499 52.7551 176.568 52.7036 176.627C52.6522 176.686 52.5892 176.734 52.5185 176.768C52.4478 176.802 52.3709 176.821 52.2926 176.824L52.2547 176.811Z" fill="#37474F"/>
<path d="M97.5979 205.169C97.5979 207.877 95.7039 208.957 93.3553 207.618C92.1181 206.814 91.0885 205.728 90.3501 204.45C89.6118 203.172 89.1857 201.737 89.1064 200.263C89.1064 197.555 91.0004 196.475 93.3553 197.814C94.5906 198.62 95.6185 199.706 96.3556 200.984C97.0928 202.262 97.5183 203.696 97.5979 205.169Z" fill="#455A64"/>
<path d="M94.7943 203.547C94.7943 204.469 94.163 204.848 93.3486 204.387C92.9251 204.11 92.5729 203.736 92.3206 203.298C92.0683 202.859 91.923 202.367 91.8965 201.861C91.8965 200.933 92.5278 200.561 93.3486 201.022C93.7716 201.299 94.1231 201.672 94.3743 202.111C94.6256 202.55 94.7695 203.042 94.7943 203.547Z" fill="#263238"/>
<path d="M99.5291 204.049C99.4493 202.575 99.023 201.14 98.2848 199.861C97.5465 198.582 96.5172 197.495 95.2802 196.688C93.6072 195.722 92.1677 196.013 91.4922 197.237C92.1628 197.26 92.8158 197.458 93.3862 197.812C94.6157 198.622 95.6374 199.71 96.3689 200.987C97.1004 202.265 97.5212 203.697 97.5972 205.167C97.5972 206.505 97.13 207.446 96.3787 207.894L98.2285 206.834C99.024 206.404 99.5291 205.438 99.5291 204.049Z" fill="#263238"/>
<path d="M93.5315 195.888C90.5768 194.177 88.1841 195.56 88.1841 198.969L98.8599 205.144C98.8599 201.734 96.4798 197.593 93.5315 195.888Z" fill="#0071CE"/>
<path d="M95.451 194.374C93.2793 193.111 91.4168 193.54 90.5771 195.194C91.6116 195.066 92.6581 195.308 93.5318 195.876C96.4801 197.581 98.8792 201.722 98.8792 205.132L100.773 203.635C100.798 200.207 98.4057 196.078 95.451 194.374Z" fill="#0071CE"/>
<path opacity="0.5" d="M95.451 194.374C93.2793 193.111 91.4168 193.54 90.5771 195.194C91.6116 195.066 92.6581 195.308 93.5318 195.876C96.4801 197.581 98.8792 201.722 98.8792 205.132L100.773 203.635C100.798 200.207 98.4057 196.078 95.451 194.374Z" fill="black"/>
<path d="M128.823 223.212C128.823 225.92 126.929 227 124.575 225.661C123.337 224.856 122.308 223.771 121.569 222.493C120.831 221.215 120.405 219.78 120.326 218.306C120.326 215.598 122.22 214.518 124.575 215.857C125.811 216.663 126.84 217.749 127.578 219.027C128.316 220.305 128.743 221.738 128.823 223.212Z" fill="#455A64"/>
<path d="M126.008 221.598C126.008 222.52 125.376 222.898 124.556 222.437C124.132 222.16 123.78 221.787 123.528 221.348C123.275 220.91 123.13 220.418 123.104 219.912C123.104 218.984 123.735 218.612 124.556 219.072C124.98 219.349 125.333 219.721 125.586 220.16C125.838 220.599 125.983 221.092 126.008 221.598Z" fill="#263238"/>
<path d="M130.756 222.094C130.676 220.621 130.25 219.186 129.513 217.907C128.776 216.629 127.749 215.541 126.514 214.733C124.841 213.767 123.395 214.058 122.726 215.282C123.396 215.305 124.049 215.503 124.62 215.857C125.856 216.663 126.885 217.749 127.623 219.027C128.361 220.305 128.788 221.738 128.868 223.212C128.868 224.55 128.401 225.491 127.65 225.939L129.493 224.879C130.251 224.449 130.756 223.483 130.756 222.094Z" fill="#263238"/>
<path d="M124.745 213.931C121.791 212.22 119.398 213.603 119.398 217.012L130.093 223.187C130.105 219.79 127.713 215.636 124.745 213.931Z" fill="#0071CE"/>
<path d="M126.678 212.424C124.512 211.162 122.643 211.591 121.81 213.245C122.843 213.114 123.888 213.356 124.758 213.927C127.713 215.632 130.106 219.773 130.106 223.182L132 221.686C132.025 218.271 129.632 214.104 126.678 212.424Z" fill="#0071CE"/>
<path opacity="0.5" d="M126.678 212.424C124.512 211.162 122.643 211.591 121.81 213.245C122.843 213.114 123.888 213.356 124.758 213.927C127.713 215.632 130.106 219.773 130.106 223.182L132 221.686C132.025 218.271 129.632 214.104 126.678 212.424Z" fill="black"/>
<path d="M91.3225 244.952C91.3225 247.661 89.4285 248.74 87.0799 247.402C85.8427 246.597 84.8131 245.511 84.0748 244.233C83.3364 242.955 82.9103 241.521 82.8311 240.047C82.8311 237.338 84.7251 236.259 87.0799 237.597C88.3152 238.403 89.3431 239.49 90.0803 240.768C90.8174 242.045 91.2429 243.479 91.3225 244.952Z" fill="#455A64"/>
<path d="M88.5262 243.332C88.5262 244.26 87.8949 244.633 87.0805 244.172C86.657 243.895 86.3048 243.522 86.0525 243.083C85.8002 242.644 85.6549 242.152 85.6284 241.647C85.6284 240.718 86.2598 240.346 87.0805 240.807C87.5021 241.085 87.8525 241.459 88.1036 241.898C88.3547 242.336 88.4994 242.828 88.5262 243.332Z" fill="#263238"/>
<path d="M93.2605 243.829C93.1813 242.355 92.7551 240.92 92.0168 239.642C91.2785 238.364 90.2488 237.279 89.0116 236.474C87.3386 235.508 85.8992 235.792 85.2236 237.017C85.8943 237.039 86.5473 237.238 87.1176 237.591C88.353 238.397 89.3808 239.484 90.118 240.762C90.8551 242.039 91.2807 243.473 91.3602 244.946C91.3602 246.285 90.893 247.225 90.1417 247.68L91.9915 246.613C92.7554 246.184 93.2605 245.218 93.2605 243.829Z" fill="#263238"/>
<path d="M87.2629 235.66C84.3083 233.955 81.9155 235.338 81.9155 238.747L92.6103 244.921C92.6103 241.506 90.2176 237.364 87.2629 235.66Z" fill="#0071CE"/>
<path d="M89.1825 234.157C87.0107 232.894 85.1483 233.323 84.3086 234.984C85.3426 234.847 86.3914 235.086 87.2632 235.659C90.2179 237.364 92.6106 241.505 92.6106 244.921L94.5046 243.418C94.5299 239.984 92.1371 235.861 89.1825 234.157Z" fill="#0071CE"/>
<path opacity="0.5" d="M89.1825 234.157C87.0107 232.894 85.1483 233.323 84.3086 234.984C85.3426 234.847 86.3914 235.086 87.2632 235.659C90.2179 237.364 92.6106 241.505 92.6106 244.921L94.5046 243.418C94.5299 239.984 92.1371 235.861 89.1825 234.157Z" fill="black"/>
<path d="M130.521 222.353C130.262 222.352 130.01 222.266 129.805 222.107C129.6 221.949 129.453 221.727 129.388 221.476C129.322 221.225 129.342 220.959 129.443 220.721C129.544 220.482 129.721 220.283 129.947 220.156C130.22 220.002 130.448 219.778 130.606 219.508C130.764 219.237 130.848 218.929 130.848 218.615C130.848 218.302 130.764 217.994 130.606 217.723C130.448 217.452 130.22 217.229 129.947 217.075L90.4002 194.884C89.1493 194.186 88.0951 193.184 87.3357 191.97C86.5763 190.755 86.1363 189.369 86.0566 187.939L81.7762 111.068C81.7155 110.017 81.3954 108.998 80.8446 108.101C80.2937 107.204 79.5293 106.458 78.6195 105.929L75.8543 104.312C75.484 104.102 75.0651 103.991 74.639 103.991C74.2128 103.991 73.794 104.102 73.4237 104.312L71.1003 105.607C70.8313 105.734 70.524 105.754 70.2407 105.663C69.9573 105.572 69.719 105.377 69.5739 105.117C69.4288 104.858 69.3877 104.553 69.4589 104.264C69.5302 103.975 69.7084 103.724 69.9576 103.561L72.2746 102.299C73.0028 101.889 73.8254 101.678 74.6607 101.686C75.4959 101.694 76.3145 101.92 77.0349 102.343L79.8001 103.959C81.043 104.682 82.0866 105.703 82.8371 106.929C83.5876 108.156 84.0214 109.55 84.0995 110.986L88.3799 187.838C88.4363 188.878 88.7555 189.887 89.3075 190.77C89.8595 191.653 90.6265 192.382 91.5366 192.889L131.083 215.08C131.721 215.437 132.252 215.957 132.621 216.588C132.99 217.218 133.185 217.935 133.185 218.666C133.185 219.396 132.99 220.114 132.621 220.744C132.252 221.374 131.721 221.895 131.083 222.252C130.907 222.331 130.714 222.365 130.521 222.353Z" fill="#263238"/>
<path d="M97.4455 199.252C97.1446 199.25 96.849 199.172 96.5869 199.024L89.4717 195.034C89.0649 194.807 88.7651 194.427 88.6384 193.978C88.5117 193.529 88.5685 193.049 88.7962 192.642C89.0239 192.235 89.4039 191.935 89.8527 191.808C90.3014 191.682 90.7821 191.738 91.189 191.966L98.3041 195.956C98.6426 196.147 98.9085 196.445 99.0602 196.803C99.212 197.16 99.2412 197.558 99.1432 197.934C99.0452 198.311 98.8255 198.644 98.5185 198.882C98.2114 199.12 97.8341 199.25 97.4455 199.252Z" fill="#0071CE"/>
<path d="M100.54 200.398C100.339 200.397 100.141 200.345 99.9656 200.246L97.4845 198.851C97.2353 198.689 97.057 198.438 96.9858 198.149C96.9146 197.86 96.9557 197.555 97.1008 197.295C97.2459 197.035 97.4842 196.84 97.7675 196.749C98.0509 196.659 98.3581 196.679 98.6272 196.806L101.115 198.201C101.34 198.328 101.518 198.527 101.619 198.766C101.72 199.004 101.739 199.27 101.674 199.521C101.608 199.772 101.461 199.994 101.256 200.152C101.051 200.311 100.799 200.397 100.54 200.398Z" fill="#253239"/>
<path d="M129.323 217.15C129.022 217.152 128.726 217.073 128.465 216.923L121.35 212.933C121.148 212.82 120.971 212.669 120.828 212.487C120.685 212.306 120.579 212.099 120.516 211.876C120.454 211.654 120.435 211.422 120.462 211.193C120.489 210.963 120.561 210.742 120.674 210.54C120.902 210.133 121.282 209.833 121.731 209.707C121.953 209.644 122.185 209.626 122.414 209.653C122.644 209.68 122.865 209.752 123.067 209.865L130.188 213.861C130.529 214.05 130.797 214.348 130.95 214.706C131.103 215.065 131.132 215.464 131.033 215.841C130.934 216.219 130.712 216.552 130.403 216.789C130.093 217.026 129.713 217.153 129.323 217.15Z" fill="#0071CE"/>
<path d="M130.523 222.353C130.264 222.353 130.012 222.266 129.807 222.108C129.602 221.949 129.455 221.727 129.389 221.476C129.324 221.225 129.343 220.96 129.444 220.721C129.545 220.482 129.723 220.284 129.948 220.156C130.222 220.002 130.449 219.779 130.607 219.508C130.766 219.237 130.849 218.929 130.849 218.616C130.849 218.302 130.766 217.994 130.607 217.724C130.449 217.453 130.222 217.229 129.948 217.075C129.692 216.915 129.507 216.663 129.432 216.37C129.357 216.077 129.397 215.767 129.545 215.503C129.693 215.24 129.937 215.044 130.226 214.955C130.516 214.867 130.827 214.894 131.097 215.03C131.735 215.387 132.266 215.907 132.635 216.537C133.004 217.168 133.199 217.885 133.199 218.616C133.199 219.346 133.004 220.064 132.635 220.694C132.266 221.324 131.735 221.845 131.097 222.202C130.922 222.3 130.724 222.352 130.523 222.353Z" fill="#455A64"/>
<path d="M58.8474 229.656C60.5052 228.699 60.5051 225.595 58.8471 222.724C57.1892 219.852 54.5012 218.3 52.8435 219.257C51.1857 220.214 51.1858 223.318 52.8438 226.19C54.5017 229.062 57.1897 230.614 58.8474 229.656Z" fill="#455A64"/>
<path d="M57.3002 225.295C57.3002 226.223 56.6688 226.596 55.8481 226.135C55.4254 225.857 55.0742 225.484 54.823 225.045C54.5718 224.606 54.4277 224.114 54.4023 223.609C54.4023 222.681 55.0337 222.309 55.8481 222.77C56.2716 223.047 56.6238 223.42 56.8761 223.859C57.1283 224.298 57.2736 224.79 57.3002 225.295Z" fill="#263238"/>
<path d="M62.0344 225.786C61.9537 224.312 61.5269 222.878 60.7887 221.601C60.0506 220.323 59.0217 219.237 57.7856 218.431C56.1125 217.465 54.6668 217.749 53.9976 218.974C54.6684 218.996 55.3215 219.194 55.8916 219.548C57.1288 220.353 58.1584 221.439 58.8967 222.717C59.6351 223.995 60.0612 225.429 60.1404 226.903C60.1404 228.242 59.6732 229.182 58.922 229.637L60.7655 228.57C61.5294 228.141 62.0344 227.175 62.0344 225.786Z" fill="#263238"/>
<path d="M56.0305 217.617C53.0822 215.912 50.6895 217.295 50.6895 220.704L61.3779 226.878C61.3779 223.463 58.9852 219.321 56.0305 217.617Z" fill="#0071CE"/>
<path d="M57.9496 216.114C55.7841 214.851 53.9217 215.28 53.082 216.941C54.1141 216.803 55.1612 217.043 56.0304 217.616C58.985 219.321 61.3778 223.462 61.3778 226.878L63.2718 225.375C63.297 221.966 60.9042 217.818 57.9496 216.114Z" fill="#0071CE"/>
<path opacity="0.5" d="M57.9496 216.114C55.7841 214.851 53.9217 215.28 53.082 216.941C54.1141 216.803 55.1612 217.043 56.0304 217.616C58.985 219.321 61.3778 223.462 61.3778 226.878L63.2718 225.375C63.297 221.966 60.9042 217.818 57.9496 216.114Z" fill="black"/>
<path d="M96.9674 239.59C94.9347 239.594 92.9349 239.077 91.1591 238.088L52.269 216.262C51.0181 215.565 49.9639 214.563 49.2045 213.348C48.445 212.134 48.005 210.748 47.9254 209.318L43.645 132.466C43.5849 131.416 43.265 130.397 42.7141 129.501C42.1631 128.605 41.3983 127.86 40.4883 127.333L37.622 125.622C37.2749 125.419 36.9875 125.129 36.789 124.779C36.5905 124.429 36.488 124.034 36.4918 123.632C36.4956 123.23 36.6057 122.836 36.8109 122.49C37.016 122.145 37.3089 121.859 37.6599 121.663L69.9842 103.544C70.119 103.456 70.2705 103.397 70.4292 103.37C70.5879 103.343 70.7505 103.349 70.9067 103.388C71.063 103.426 71.2097 103.496 71.3377 103.594C71.4657 103.692 71.5723 103.815 71.6508 103.955C71.7293 104.096 71.7781 104.251 71.7941 104.411C71.8101 104.571 71.793 104.733 71.7439 104.886C71.6948 105.039 71.6146 105.181 71.5085 105.302C71.4024 105.423 71.2725 105.521 71.1269 105.59L38.9289 123.658L41.7131 125.287C42.9553 126.013 43.9983 127.035 44.7486 128.262C45.4989 129.49 45.9332 130.884 46.0125 132.32L50.2487 209.166C50.3045 210.206 50.6234 211.215 51.1755 212.099C51.7276 212.982 52.4948 213.711 53.4054 214.217L92.3018 236.042C93.726 236.834 95.3285 237.249 96.9579 237.249C98.5873 237.249 100.19 236.834 101.614 236.042L129.948 220.158C130.083 220.074 130.233 220.018 130.39 219.994C130.547 219.97 130.707 219.978 130.861 220.017C131.014 220.056 131.159 220.127 131.284 220.223C131.41 220.32 131.515 220.441 131.593 220.579C131.671 220.718 131.72 220.87 131.737 221.028C131.754 221.186 131.739 221.346 131.692 221.497C131.646 221.649 131.569 221.79 131.467 221.911C131.365 222.033 131.239 222.132 131.097 222.203L102.757 238.094C100.987 239.08 98.9934 239.595 96.9674 239.59Z" fill="#455A64"/>
<path d="M59.9508 220.986C59.6475 220.987 59.3491 220.909 59.0858 220.758L51.9707 216.768C51.5859 216.529 51.3084 216.15 51.1958 215.711C51.0832 215.271 51.1443 214.806 51.3663 214.41C51.5884 214.015 51.9542 213.721 52.3878 213.588C52.8214 213.456 53.2893 213.496 53.6943 213.7L60.8094 217.696C61.1497 217.885 61.4175 218.182 61.5706 218.54C61.7237 218.898 61.7534 219.297 61.6551 219.674C61.5567 220.05 61.3359 220.384 61.0274 220.621C60.7188 220.859 60.3401 220.987 59.9508 220.986Z" fill="#0071CE"/>
<path d="M91.8269 238.878C91.5265 238.879 91.2309 238.803 90.9683 238.657L83.8469 234.661C83.6454 234.546 83.4686 234.392 83.3266 234.208C83.1846 234.025 83.0801 233.815 83.0191 233.591C82.9581 233.367 82.9419 233.133 82.9712 232.903C83.0006 232.673 83.075 232.451 83.1903 232.249C83.3055 232.048 83.4593 231.871 83.6429 231.729C83.8265 231.587 84.0362 231.482 84.2601 231.421C84.4841 231.36 84.7179 231.344 84.9481 231.374C85.1783 231.403 85.4005 231.477 85.602 231.593L92.6855 235.57C93.0259 235.759 93.2937 236.056 93.4468 236.414C93.5999 236.772 93.6296 237.171 93.5312 237.547C93.4329 237.924 93.2121 238.258 92.9035 238.495C92.595 238.732 92.2163 238.861 91.8269 238.859V238.878Z" fill="#0071CE"/>
<path d="M96.9664 239.599C95.4523 239.6 93.9522 239.311 92.547 238.747C92.3968 238.695 92.2587 238.613 92.1411 238.506C92.0234 238.4 91.9287 238.27 91.8626 238.125C91.7966 237.981 91.7605 237.824 91.7567 237.666C91.7529 237.507 91.7813 237.349 91.8403 237.201C91.8994 237.053 91.9877 236.919 92.1001 236.807C92.2124 236.695 92.3464 236.606 92.4939 236.547C92.6415 236.488 92.7995 236.459 92.9583 236.463C93.1172 236.467 93.2737 236.503 93.4183 236.569C94.5438 237.023 95.7463 237.257 96.96 237.257C97.1211 237.245 97.2828 237.267 97.4351 237.32C97.5875 237.374 97.7272 237.458 97.8454 237.568C97.9637 237.678 98.058 237.811 98.1226 237.959C98.1871 238.107 98.2204 238.267 98.2204 238.428C98.2204 238.59 98.1871 238.749 98.1226 238.897C98.058 239.045 97.9637 239.179 97.8454 239.288C97.7272 239.398 97.5875 239.483 97.4351 239.536C97.2828 239.59 97.1211 239.611 96.96 239.599H96.9664Z" fill="#455A64"/>
<path d="M56.6495 217.355C56.3416 217.355 56.039 217.275 55.772 217.122C55.505 216.969 55.2829 216.748 55.1282 216.482C54.9734 216.216 54.8913 215.914 54.8901 215.606C54.889 215.298 54.9688 214.995 55.1216 214.728L56.4222 212.43C56.5308 212.219 56.6809 212.032 56.8635 211.881C57.0461 211.729 57.2575 211.616 57.4849 211.548C57.7124 211.48 57.9512 211.459 58.187 211.486C58.4228 211.513 58.6508 211.587 58.8573 211.704C59.0637 211.821 59.2444 211.978 59.3884 212.167C59.5325 212.356 59.6369 212.571 59.6955 212.802C59.754 213.032 59.7655 213.271 59.7292 213.506C59.6929 213.74 59.6095 213.965 59.4842 214.166L58.1773 216.464C58.0242 216.735 57.8021 216.96 57.5337 217.116C57.2653 217.272 56.9601 217.355 56.6495 217.355Z" fill="#0071CE"/>
<path d="M58.3796 213.72C58.1775 213.72 57.979 213.665 57.8051 213.562C57.6708 213.487 57.5528 213.385 57.4578 213.264C57.3629 213.143 57.2928 213.004 57.2518 212.855C57.2107 212.707 57.1994 212.552 57.2185 212.399C57.2376 212.246 57.2868 212.099 57.3632 211.965L63.1714 201.725C63.6015 200.967 64.2249 200.337 64.978 199.899C65.7311 199.461 66.5869 199.23 67.4582 199.231H70.3434C71.4949 199.229 72.5987 198.771 73.4129 197.957C74.2271 197.143 74.6853 196.039 74.687 194.887C74.6751 194.726 74.6966 194.565 74.7501 194.412C74.8036 194.26 74.888 194.12 74.9979 194.002C75.1078 193.884 75.2409 193.789 75.3889 193.725C75.5369 193.66 75.6966 193.627 75.8581 193.627C76.0196 193.627 76.1793 193.66 76.3273 193.725C76.4753 193.789 76.6084 193.884 76.7183 194.002C76.8282 194.12 76.9126 194.26 76.966 194.412C77.0195 194.565 77.041 194.726 77.0292 194.887C77.0275 196.66 76.3226 198.36 75.0691 199.613C73.8157 200.866 72.1161 201.571 70.3434 201.573H67.4582C67.0015 201.573 66.5528 201.693 66.1579 201.923C65.7631 202.153 65.4362 202.483 65.2106 202.88L59.4024 213.12C59.301 213.302 59.1526 213.454 58.9728 213.559C58.7929 213.665 58.5881 213.72 58.3796 213.72Z" fill="#455A64"/>
<path d="M45.2466 141.414C44.9897 141.413 44.7403 141.328 44.5366 141.171C44.3328 141.015 44.1861 140.796 44.1187 140.548C44.0514 140.3 44.0672 140.037 44.1637 139.799C44.2602 139.561 44.4322 139.361 44.6531 139.23L82.5331 117.31C82.6662 117.233 82.8132 117.183 82.9656 117.163C83.1181 117.142 83.273 117.152 83.4216 117.192C83.5702 117.231 83.7096 117.3 83.8318 117.393C83.9539 117.487 84.0565 117.603 84.1336 117.736C84.2107 117.869 84.2608 118.016 84.2811 118.169C84.3014 118.321 84.2915 118.476 84.252 118.625C84.2124 118.773 84.1439 118.913 84.0505 119.035C83.9571 119.157 83.8405 119.26 83.7074 119.337L45.8274 141.257C45.6513 141.36 45.4508 141.414 45.2466 141.414Z" fill="#455A64"/>
<path d="M63.045 222.143C62.8437 222.142 62.646 222.09 62.4705 221.991L59.983 220.596C59.8491 220.521 59.7314 220.42 59.6366 220.299C59.5417 220.178 59.4717 220.039 59.4303 219.891C59.389 219.743 59.3772 219.589 59.3957 219.436C59.4141 219.283 59.4625 219.136 59.5379 219.002C59.6134 218.868 59.7145 218.75 59.8354 218.656C59.9563 218.561 60.0948 218.491 60.2428 218.449C60.3908 218.408 60.5456 218.396 60.6981 218.415C60.8507 218.433 60.9982 218.482 61.1321 218.557L63.6195 219.946C63.8453 220.073 64.0227 220.272 64.1238 220.511C64.2249 220.749 64.2442 221.015 64.1786 221.266C64.113 221.517 63.9662 221.739 63.7612 221.897C63.5561 222.056 63.3043 222.142 63.045 222.143Z" fill="#455A64"/>
<path d="M90.0224 159.807C89.8667 159.807 89.7174 159.745 89.6073 159.635C89.4971 159.525 89.4353 159.375 89.4353 159.22V127.394C89.4268 127.312 89.4355 127.23 89.461 127.151C89.4865 127.073 89.5281 127.001 89.5831 126.94C89.6382 126.879 89.7055 126.83 89.7806 126.797C89.8557 126.763 89.937 126.746 90.0193 126.746C90.1015 126.746 90.1828 126.763 90.2579 126.797C90.3331 126.83 90.4003 126.879 90.4554 126.94C90.5105 127.001 90.5521 127.073 90.5775 127.151C90.603 127.23 90.6118 127.312 90.6032 127.394V159.232C90.6 159.385 90.5375 159.53 90.4291 159.637C90.3207 159.744 90.1749 159.805 90.0224 159.807Z" fill="#263238"/>
<path d="M94.8008 162.551C94.645 162.551 94.4957 162.489 94.3856 162.379C94.2755 162.269 94.2136 162.12 94.2136 161.964V130.132C94.2051 130.051 94.2138 129.968 94.2393 129.89C94.2648 129.811 94.3064 129.74 94.3614 129.678C94.4165 129.617 94.4838 129.569 94.5589 129.535C94.634 129.502 94.7154 129.484 94.7976 129.484C94.8798 129.484 94.9611 129.502 95.0363 129.535C95.1114 129.569 95.1787 129.617 95.2337 129.678C95.2888 129.74 95.3304 129.811 95.3559 129.89C95.3813 129.968 95.3901 130.051 95.3816 130.132V161.97C95.3799 162.124 95.3182 162.271 95.2096 162.379C95.1011 162.488 94.9543 162.55 94.8008 162.551Z" fill="#263238"/>
<path d="M99.5872 165.282C99.5098 165.283 99.4331 165.268 99.3615 165.239C99.2899 165.21 99.2248 165.167 99.1701 165.112C99.1154 165.057 99.0722 164.992 99.043 164.921C99.0138 164.849 98.9992 164.772 99 164.695V132.857C99 132.701 99.0619 132.552 99.172 132.442C99.2821 132.331 99.4315 132.27 99.5872 132.27C99.7429 132.27 99.8922 132.331 100.002 132.442C100.112 132.552 100.174 132.701 100.174 132.857V164.695C100.174 164.851 100.112 165 100.002 165.11C99.8922 165.22 99.7429 165.282 99.5872 165.282Z" fill="#263238"/>
<path d="M104.372 168.014C104.295 168.014 104.219 167.999 104.148 167.97C104.076 167.94 104.012 167.897 103.957 167.842C103.903 167.788 103.859 167.723 103.83 167.652C103.8 167.581 103.785 167.504 103.785 167.427V135.589C103.785 135.433 103.847 135.284 103.957 135.174C104.067 135.064 104.217 135.002 104.372 135.002C104.528 135.002 104.677 135.064 104.787 135.174C104.898 135.284 104.959 135.433 104.959 135.589V167.427C104.959 167.583 104.898 167.732 104.787 167.842C104.677 167.953 104.528 168.014 104.372 168.014Z" fill="#263238"/>
<path d="M109.157 170.739C109.001 170.739 108.852 170.677 108.742 170.567C108.632 170.457 108.57 170.308 108.57 170.152V138.339C108.57 138.183 108.632 138.034 108.742 137.924C108.852 137.814 109.001 137.752 109.157 137.752C109.313 137.752 109.462 137.814 109.572 137.924C109.682 138.034 109.744 138.183 109.744 138.339V170.177C109.738 170.329 109.673 170.471 109.563 170.576C109.454 170.681 109.308 170.739 109.157 170.739Z" fill="#263238"/>
<path d="M113.943 173.475C113.787 173.475 113.638 173.413 113.527 173.303C113.417 173.193 113.355 173.044 113.355 172.888V141.05C113.355 140.894 113.417 140.745 113.527 140.635C113.638 140.525 113.787 140.463 113.943 140.463C114.098 140.463 114.248 140.525 114.358 140.635C114.468 140.745 114.53 140.894 114.53 141.05V172.888C114.53 173.044 114.468 173.193 114.358 173.303C114.248 173.413 114.098 173.475 113.943 173.475Z" fill="#263238"/>
<path d="M118.728 176.225C118.573 176.225 118.423 176.163 118.313 176.053C118.203 175.943 118.141 175.793 118.141 175.638V143.78C118.141 143.625 118.203 143.475 118.313 143.365C118.423 143.255 118.573 143.193 118.728 143.193C118.884 143.193 119.033 143.255 119.143 143.365C119.254 143.475 119.315 143.625 119.315 143.78V175.593C119.321 175.674 119.311 175.755 119.284 175.832C119.257 175.908 119.215 175.978 119.16 176.037C119.105 176.097 119.038 176.144 118.964 176.176C118.889 176.208 118.809 176.225 118.728 176.225Z" fill="#263238"/>
<path d="M123.514 178.934C123.358 178.934 123.209 178.872 123.099 178.762C122.989 178.652 122.927 178.503 122.927 178.347V146.509C122.927 146.353 122.989 146.204 123.099 146.094C123.209 145.984 123.358 145.922 123.514 145.922C123.67 145.922 123.819 145.984 123.929 146.094C124.039 146.204 124.101 146.353 124.101 146.509V178.347C124.101 178.503 124.039 178.652 123.929 178.762C123.819 178.872 123.67 178.934 123.514 178.934Z" fill="#263238"/>
<path d="M128.3 181.667C128.144 181.667 127.994 181.605 127.884 181.495C127.774 181.385 127.712 181.235 127.712 181.08V149.241C127.712 149.086 127.774 148.936 127.884 148.826C127.994 148.716 128.144 148.654 128.3 148.654C128.455 148.654 128.605 148.716 128.715 148.826C128.825 148.936 128.887 149.086 128.887 149.241V181.08C128.887 181.235 128.825 181.385 128.715 181.495C128.605 181.605 128.455 181.667 128.3 181.667Z" fill="#263238"/>
<path d="M133.085 184.429C133.008 184.429 132.932 184.414 132.86 184.384C132.789 184.355 132.725 184.311 132.67 184.257C132.616 184.202 132.572 184.138 132.543 184.066C132.513 183.995 132.498 183.919 132.498 183.842V151.972C132.498 151.816 132.56 151.667 132.67 151.557C132.78 151.447 132.929 151.385 133.085 151.385C133.241 151.385 133.39 151.447 133.5 151.557C133.61 151.667 133.672 151.816 133.672 151.972V183.797C133.678 183.878 133.668 183.959 133.641 184.036C133.614 184.112 133.572 184.182 133.517 184.241C133.462 184.301 133.395 184.348 133.321 184.38C133.246 184.412 133.166 184.429 133.085 184.429Z" fill="#263238"/>
<path d="M137.871 187.13C137.716 187.13 137.566 187.068 137.456 186.958C137.346 186.848 137.284 186.698 137.284 186.542V154.704C137.284 154.549 137.346 154.399 137.456 154.289C137.566 154.179 137.716 154.117 137.871 154.117C138.027 154.117 138.176 154.179 138.286 154.289C138.397 154.399 138.458 154.549 138.458 154.704V186.542C138.459 186.62 138.445 186.697 138.416 186.768C138.386 186.84 138.343 186.905 138.288 186.96C138.234 187.014 138.169 187.057 138.097 187.087C138.025 187.116 137.949 187.13 137.871 187.13Z" fill="#263238"/>
<path d="M142.655 189.864C142.501 189.863 142.353 189.8 142.244 189.69C142.135 189.58 142.074 189.432 142.074 189.277V157.439C142.066 157.357 142.075 157.275 142.1 157.196C142.126 157.118 142.167 157.046 142.222 156.985C142.277 156.924 142.345 156.875 142.42 156.842C142.495 156.808 142.576 156.791 142.658 156.791C142.741 156.791 142.822 156.808 142.897 156.842C142.972 156.875 143.04 156.924 143.095 156.985C143.15 157.046 143.191 157.118 143.217 157.196C143.242 157.275 143.251 157.357 143.242 157.439V189.277C143.242 189.433 143.181 189.582 143.07 189.692C142.96 189.802 142.811 189.864 142.655 189.864Z" fill="#263238"/>
<path d="M147.473 189.86C147.318 189.858 147.17 189.795 147.062 189.685C146.953 189.575 146.892 189.427 146.892 189.272V160.162C146.883 160.08 146.892 159.997 146.918 159.919C146.943 159.841 146.985 159.769 147.04 159.708C147.095 159.647 147.162 159.598 147.237 159.564C147.312 159.531 147.394 159.514 147.476 159.514C147.558 159.514 147.639 159.531 147.714 159.564C147.79 159.598 147.857 159.647 147.912 159.708C147.967 159.769 148.009 159.841 148.034 159.919C148.06 159.997 148.068 160.08 148.06 160.162V189.272C148.06 189.428 147.998 189.577 147.888 189.688C147.778 189.798 147.628 189.86 147.473 189.86Z" fill="#263238"/>
<path d="M152.233 185.753C152.156 185.754 152.08 185.739 152.009 185.71C151.937 185.681 151.873 185.639 151.818 185.585C151.763 185.531 151.72 185.466 151.691 185.396C151.661 185.325 151.646 185.249 151.646 185.172V162.892C151.637 162.81 151.646 162.728 151.671 162.649C151.697 162.571 151.739 162.499 151.794 162.438C151.849 162.377 151.916 162.328 151.991 162.295C152.066 162.261 152.147 162.244 152.23 162.244C152.312 162.244 152.393 162.261 152.468 162.295C152.544 162.328 152.611 162.377 152.666 162.438C152.721 162.499 152.763 162.571 152.788 162.649C152.813 162.728 152.822 162.81 152.814 162.892V185.172C152.814 185.248 152.799 185.324 152.77 185.394C152.74 185.465 152.698 185.529 152.644 185.583C152.59 185.636 152.526 185.679 152.455 185.708C152.385 185.738 152.309 185.753 152.233 185.753Z" fill="#263238"/>
<path d="M157.019 180.997C156.863 180.997 156.714 180.935 156.604 180.825C156.494 180.715 156.432 180.566 156.432 180.41V165.624C156.432 165.469 156.494 165.319 156.604 165.209C156.714 165.099 156.863 165.037 157.019 165.037C157.174 165.037 157.324 165.099 157.434 165.209C157.544 165.319 157.606 165.469 157.606 165.624V180.41C157.606 180.566 157.544 180.715 157.434 180.825C157.324 180.935 157.174 180.997 157.019 180.997Z" fill="#263238"/>
<path d="M161.804 176.682C161.649 176.682 161.499 176.62 161.389 176.51C161.279 176.4 161.217 176.251 161.217 176.095V168.355C161.217 168.199 161.279 168.05 161.389 167.94C161.499 167.829 161.649 167.768 161.804 167.768C161.96 167.768 162.109 167.829 162.22 167.94C162.33 168.05 162.392 168.199 162.392 168.355V176.095C162.392 176.251 162.33 176.4 162.22 176.51C162.109 176.62 161.96 176.682 161.804 176.682Z" fill="#263238"/>
<path d="M161.829 177.225C161.726 177.226 161.625 177.198 161.539 177.143L83.6573 132.526C83.5841 132.492 83.5188 132.442 83.4656 132.381C83.4124 132.32 83.3723 132.249 83.348 132.172C83.3236 132.095 83.3155 132.013 83.3242 131.933C83.3328 131.852 83.358 131.774 83.3982 131.704C83.4383 131.634 83.4926 131.573 83.5576 131.524C83.6226 131.476 83.6968 131.442 83.7757 131.423C83.8546 131.405 83.9364 131.403 84.016 131.418C84.0956 131.433 84.1712 131.464 84.2382 131.51L162.119 176.126C162.254 176.204 162.353 176.332 162.393 176.483C162.433 176.633 162.412 176.793 162.334 176.928C162.284 177.018 162.21 177.093 162.122 177.145C162.033 177.197 161.932 177.224 161.829 177.225Z" fill="#263238"/>
<path d="M156.313 182.036C156.211 182.034 156.112 182.008 156.022 181.96L84.5616 141.018C84.4313 140.942 84.3354 140.819 84.2942 140.674C84.2529 140.529 84.2696 140.374 84.3407 140.241C84.3787 140.174 84.4296 140.115 84.4906 140.068C84.5515 140.02 84.6212 139.985 84.6957 139.964C84.7702 139.944 84.848 139.938 84.9246 139.948C85.0013 139.958 85.0753 139.982 85.1424 140.02L156.597 180.962C156.712 181.024 156.803 181.123 156.855 181.243C156.907 181.363 156.917 181.497 156.883 181.623C156.849 181.75 156.774 181.861 156.67 181.939C156.565 182.017 156.437 182.058 156.306 182.055L156.313 182.036Z" fill="#263238"/>
<path d="M151.198 187.071C151.095 187.07 150.995 187.042 150.907 186.989L85.0212 149.241C84.9539 149.203 84.8948 149.152 84.8473 149.091C84.7998 149.03 84.7648 148.961 84.7442 148.886C84.7237 148.812 84.7181 148.734 84.7277 148.657C84.7373 148.581 84.7619 148.507 84.8002 148.439C84.8793 148.306 85.0075 148.209 85.1573 148.169C85.3072 148.129 85.4668 148.149 85.602 148.225L151.494 185.972C151.628 186.051 151.725 186.179 151.765 186.329C151.805 186.479 151.785 186.639 151.709 186.774C151.658 186.865 151.584 186.94 151.494 186.992C151.404 187.045 151.302 187.072 151.198 187.071Z" fill="#263238"/>
<path d="M146.016 192.355C145.809 192.355 145.607 192.301 145.429 192.197L85.6665 157.96C85.3961 157.805 85.1982 157.549 85.1166 157.248C85.0349 156.947 85.076 156.626 85.2309 156.356C85.3857 156.086 85.6417 155.888 85.9424 155.806C86.2432 155.724 86.564 155.765 86.8344 155.92L145.851 189.735L165.347 171.798L84.246 125.332C83.9955 125.168 83.8171 124.914 83.7475 124.623C83.6779 124.332 83.7222 124.025 83.8714 123.765C84.0206 123.505 84.2635 123.312 84.5502 123.226C84.8369 123.139 85.1459 123.166 85.4139 123.299L167.904 170.536C168.063 170.629 168.198 170.758 168.299 170.913C168.4 171.067 168.463 171.243 168.485 171.426C168.505 171.609 168.481 171.794 168.417 171.966C168.352 172.138 168.248 172.293 168.112 172.417L146.805 192.052C146.589 192.247 146.307 192.355 146.016 192.355Z" fill="#263238"/>
<path d="M52.1417 180.733C52.0393 180.734 51.9384 180.708 51.8496 180.657C51.7608 180.606 51.6873 180.532 51.6366 180.443C51.5973 180.377 51.5716 180.303 51.5611 180.226C51.5505 180.15 51.5554 180.072 51.5754 179.997C51.5954 179.922 51.6301 179.852 51.6775 179.791C51.7249 179.73 51.7839 179.679 51.8513 179.641L88.2855 158.46C88.3524 158.419 88.4268 158.392 88.5043 158.38C88.5819 158.368 88.661 158.372 88.7371 158.391C88.8132 158.41 88.8846 158.445 88.9472 158.492C89.0098 158.539 89.0622 158.599 89.1015 158.667C89.1407 158.734 89.1659 158.81 89.1757 158.887C89.1854 158.965 89.1794 159.044 89.1581 159.12C89.1368 159.195 89.1005 159.266 89.0515 159.327C89.0025 159.388 88.9417 159.439 88.8727 159.476L52.4637 180.645C52.3662 180.703 52.255 180.733 52.1417 180.733Z" fill="#37474F"/>
<path d="M56.9522 183.467C56.8501 183.467 56.7497 183.44 56.6612 183.389C56.5726 183.338 56.4988 183.265 56.4472 183.177C56.4078 183.11 56.3821 183.036 56.3716 182.96C56.3611 182.883 56.366 182.805 56.386 182.731C56.406 182.656 56.4407 182.586 56.488 182.525C56.5354 182.464 56.5945 182.413 56.6618 182.375L93.0961 161.194C93.1626 161.146 93.2384 161.112 93.3186 161.095C93.3989 161.078 93.4819 161.078 93.5622 161.095C93.6424 161.112 93.7183 161.145 93.7848 161.194C93.8512 161.242 93.9069 161.303 93.9481 161.374C93.9894 161.445 94.0153 161.524 94.0242 161.605C94.0331 161.687 94.0248 161.77 93.9998 161.848C93.9749 161.926 93.9338 161.998 93.8793 162.059C93.8247 162.121 93.758 162.17 93.6832 162.204L57.249 183.385C57.1595 183.439 57.0568 183.468 56.9522 183.467Z" fill="#37474F"/>
<path d="M61.7446 186.192C61.6162 186.191 61.4915 186.149 61.3896 186.07C61.2878 185.992 61.2144 185.883 61.1807 185.759C61.147 185.635 61.1549 185.503 61.2032 185.384C61.2514 185.265 61.3374 185.165 61.4479 185.1L97.8822 163.919C98.0166 163.846 98.1742 163.828 98.3214 163.87C98.4686 163.911 98.5937 164.009 98.6702 164.141C98.7467 164.274 98.7685 164.431 98.731 164.579C98.6935 164.727 98.5996 164.855 98.4693 164.935L62.035 186.116C61.9457 186.164 61.8461 186.19 61.7446 186.192Z" fill="#37474F"/>
<path d="M66.5306 188.93C66.4282 188.927 66.3281 188.899 66.239 188.848C66.1499 188.797 66.0745 188.726 66.0192 188.64C65.9431 188.504 65.9229 188.345 65.9631 188.195C66.0032 188.045 66.1004 187.917 66.2339 187.838L102.649 166.657C102.716 166.608 102.791 166.575 102.872 166.558C102.952 166.541 103.035 166.541 103.115 166.558C103.196 166.575 103.271 166.608 103.338 166.656C103.404 166.705 103.46 166.766 103.501 166.837C103.542 166.908 103.568 166.987 103.577 167.068C103.586 167.15 103.578 167.232 103.553 167.311C103.528 167.389 103.487 167.461 103.432 167.522C103.378 167.584 103.311 167.633 103.236 167.667L66.821 188.854C66.7331 188.906 66.6326 188.932 66.5306 188.93Z" fill="#37474F"/>
<path d="M71.3149 191.655C71.1865 191.654 71.0618 191.611 70.9599 191.533C70.8581 191.455 70.7847 191.345 70.751 191.221C70.7173 191.097 70.7252 190.966 70.7735 190.847C70.8218 190.728 70.9077 190.628 71.0182 190.562L107.452 169.381C107.587 169.302 107.748 169.28 107.899 169.32C108.05 169.36 108.179 169.458 108.257 169.593C108.336 169.727 108.358 169.888 108.318 170.039C108.279 170.19 108.181 170.319 108.046 170.397L71.6054 191.579C71.5168 191.629 71.4167 191.655 71.3149 191.655Z" fill="#37474F"/>
<path d="M76.1317 194.387C76.0293 194.384 75.9292 194.356 75.8401 194.305C75.751 194.255 75.6756 194.183 75.6203 194.097C75.5442 193.962 75.524 193.802 75.5641 193.652C75.6043 193.503 75.7015 193.374 75.8349 193.295L112.269 172.114C112.336 172.069 112.411 172.037 112.49 172.022C112.569 172.007 112.65 172.008 112.729 172.026C112.807 172.043 112.881 172.077 112.946 172.124C113.011 172.172 113.066 172.232 113.107 172.301C113.147 172.371 113.173 172.448 113.183 172.528C113.193 172.608 113.186 172.689 113.163 172.766C113.14 172.843 113.102 172.915 113.05 172.976C112.998 173.038 112.935 173.088 112.863 173.124L76.4221 194.305C76.3353 194.36 76.2344 194.389 76.1317 194.387Z" fill="#37474F"/>
<path d="M80.887 197.118C80.7846 197.119 80.6838 197.093 80.595 197.042C80.5062 196.991 80.4326 196.917 80.382 196.828C80.3036 196.694 80.2816 196.534 80.3206 196.384C80.3597 196.234 80.4566 196.105 80.5903 196.026L117.025 174.845C117.091 174.805 117.165 174.78 117.241 174.769C117.318 174.759 117.396 174.763 117.471 174.783C117.545 174.803 117.615 174.838 117.676 174.885C117.737 174.933 117.788 174.992 117.826 175.059C117.905 175.193 117.927 175.353 117.888 175.503C117.849 175.653 117.752 175.782 117.618 175.861L81.1838 197.061C81.0915 197.106 80.9892 197.125 80.887 197.118Z" fill="#37474F"/>
<path d="M85.6719 199.845C85.5434 199.844 85.4187 199.802 85.3169 199.724C85.215 199.645 85.1416 199.536 85.1079 199.412C85.0743 199.288 85.0822 199.156 85.1304 199.037C85.1787 198.918 85.2647 198.818 85.3751 198.753L121.809 177.572C121.943 177.505 122.096 177.492 122.239 177.534C122.381 177.576 122.503 177.671 122.578 177.799C122.653 177.928 122.677 178.08 122.645 178.225C122.612 178.37 122.526 178.498 122.403 178.582L85.9686 199.763C85.8791 199.817 85.7765 199.846 85.6719 199.845Z" fill="#37474F"/>
<path d="M90.4564 202.571C90.3539 202.572 90.2531 202.546 90.1643 202.495C90.0755 202.444 90.002 202.37 89.9513 202.281C89.873 202.147 89.8509 201.987 89.89 201.837C89.929 201.687 90.026 201.558 90.1597 201.479L126.6 180.298C126.667 180.258 126.74 180.233 126.817 180.222C126.894 180.212 126.972 180.217 127.046 180.237C127.121 180.257 127.191 180.291 127.252 180.339C127.313 180.386 127.364 180.445 127.402 180.512C127.478 180.648 127.498 180.807 127.458 180.957C127.418 181.107 127.321 181.235 127.187 181.314L90.7531 202.495C90.6619 202.545 90.56 202.571 90.4564 202.571Z" fill="#37474F"/>
<path d="M95.2437 205.309C95.1152 205.308 94.9905 205.265 94.8886 205.187C94.7868 205.109 94.7134 204.999 94.6797 204.876C94.646 204.752 94.6539 204.62 94.7022 204.501C94.7505 204.382 94.8364 204.282 94.9469 204.217L131.387 183.035C131.522 182.957 131.681 182.935 131.831 182.974C131.982 183.013 132.11 183.11 132.189 183.244C132.265 183.379 132.286 183.538 132.245 183.688C132.205 183.838 132.108 183.966 131.975 184.045L95.5404 205.227C95.4509 205.281 95.3482 205.309 95.2437 205.309Z" fill="#37474F"/>
<path d="M100.029 208.04C99.9265 208.041 99.8256 208.015 99.7368 207.964C99.648 207.913 99.5745 207.839 99.5238 207.75C99.4845 207.683 99.4588 207.609 99.4483 207.533C99.4378 207.456 99.4426 207.378 99.4626 207.304C99.4826 207.229 99.5173 207.159 99.5647 207.098C99.6121 207.037 99.6711 206.986 99.7385 206.948L136.173 185.767C136.24 185.726 136.314 185.698 136.392 185.686C136.469 185.675 136.548 185.678 136.624 185.698C136.7 185.717 136.772 185.751 136.834 185.799C136.897 185.846 136.949 185.905 136.989 185.973C137.028 186.041 137.053 186.116 137.063 186.194C137.073 186.272 137.067 186.351 137.045 186.426C137.024 186.502 136.988 186.572 136.939 186.634C136.89 186.695 136.829 186.746 136.76 186.783L100.326 207.964C100.234 208.014 100.133 208.04 100.029 208.04Z" fill="#37474F"/>
<path d="M104.814 210.767C104.712 210.767 104.612 210.74 104.523 210.689C104.434 210.638 104.361 210.565 104.309 210.477C104.271 210.41 104.248 210.335 104.239 210.259C104.23 210.182 104.237 210.104 104.259 210.03C104.281 209.956 104.317 209.887 104.366 209.827C104.414 209.767 104.475 209.718 104.543 209.682L140.977 188.5C141.043 188.452 141.119 188.418 141.199 188.401C141.28 188.384 141.363 188.384 141.443 188.401C141.523 188.418 141.599 188.452 141.666 188.5C141.732 188.548 141.788 188.61 141.829 188.681C141.87 188.752 141.896 188.831 141.905 188.912C141.914 188.994 141.906 189.076 141.881 189.154C141.856 189.233 141.815 189.305 141.76 189.366C141.706 189.427 141.639 189.476 141.564 189.51L105.111 210.685C105.021 210.739 104.919 210.768 104.814 210.767Z" fill="#37474F"/>
<path d="M128.464 194.113C128.203 194.114 127.95 194.027 127.743 193.868C127.537 193.708 127.389 193.485 127.324 193.232C127.259 192.98 127.28 192.712 127.383 192.473C127.487 192.234 127.667 192.035 127.896 191.91L166.754 170.539C167.024 170.415 167.331 170.398 167.612 170.491C167.894 170.583 168.131 170.779 168.274 171.039C168.417 171.299 168.456 171.604 168.384 171.892C168.312 172.18 168.133 172.429 167.884 172.591L129.026 193.962C128.855 194.06 128.661 194.112 128.464 194.113Z" fill="#37474F"/>
<path d="M107.157 213.745C106.945 213.743 106.737 213.684 106.557 213.572C106.377 213.461 106.23 213.302 106.134 213.113C106.06 212.979 106.012 212.831 105.995 212.678C105.978 212.525 105.991 212.37 106.034 212.222C106.077 212.074 106.148 211.936 106.245 211.816C106.341 211.696 106.46 211.596 106.595 211.522L145.447 190.133C145.72 189.991 146.037 189.961 146.33 190.05C146.624 190.14 146.871 190.34 147.019 190.609C147.167 190.878 147.203 191.194 147.121 191.49C147.038 191.786 146.843 192.037 146.577 192.191L107.7 213.599C107.534 213.692 107.347 213.742 107.157 213.745Z" fill="#37474F"/>
<path d="M135.944 197.52C135.863 197.521 135.783 197.504 135.709 197.471C135.635 197.439 135.569 197.391 135.515 197.331C135.41 197.217 135.354 197.066 135.36 196.911C135.366 196.756 135.433 196.61 135.547 196.504L156.854 176.85C156.968 176.745 157.119 176.69 157.274 176.696C157.429 176.702 157.575 176.769 157.681 176.882C157.787 176.997 157.842 177.149 157.836 177.305C157.83 177.461 157.763 177.609 157.65 177.715L136.342 197.344C136.291 197.398 136.229 197.441 136.161 197.472C136.093 197.502 136.019 197.518 135.944 197.52Z" fill="#37474F"/>
<path d="M117.321 207.71C117.24 207.711 117.16 207.694 117.086 207.661C117.012 207.629 116.946 207.581 116.892 207.521C116.839 207.465 116.798 207.399 116.771 207.327C116.744 207.255 116.731 207.178 116.734 207.101C116.737 207.024 116.755 206.948 116.788 206.878C116.82 206.808 116.866 206.746 116.923 206.694L138.231 187.059C138.288 187.007 138.354 186.967 138.427 186.94C138.499 186.914 138.576 186.902 138.653 186.905C138.73 186.908 138.806 186.926 138.876 186.959C138.946 186.991 139.009 187.037 139.061 187.094C139.113 187.151 139.154 187.217 139.18 187.29C139.207 187.362 139.219 187.439 139.216 187.516C139.212 187.594 139.194 187.669 139.161 187.739C139.129 187.809 139.083 187.872 139.026 187.924L117.719 207.559C117.609 207.657 117.468 207.711 117.321 207.71Z" fill="#37474F"/>
<path d="M126.399 202.584C126.318 202.584 126.238 202.568 126.164 202.535C126.09 202.502 126.023 202.455 125.969 202.395C125.917 202.339 125.875 202.272 125.848 202.2C125.821 202.128 125.809 202.051 125.812 201.974C125.815 201.898 125.833 201.822 125.866 201.752C125.898 201.682 125.944 201.619 126.001 201.568L147.308 181.933C147.365 181.881 147.431 181.841 147.503 181.815C147.575 181.788 147.651 181.777 147.728 181.78C147.804 181.783 147.879 181.801 147.949 181.834C148.018 181.866 148.08 181.911 148.132 181.968C148.184 182.024 148.224 182.09 148.251 182.162C148.277 182.234 148.289 182.31 148.286 182.387C148.282 182.463 148.264 182.539 148.232 182.608C148.2 182.677 148.154 182.74 148.098 182.792L126.796 202.426C126.689 202.529 126.547 202.585 126.399 202.584Z" fill="#37474F"/>
<path d="M107.156 213.748C106.953 213.748 106.753 213.696 106.575 213.597L46.8131 179.385C46.5435 179.231 46.3462 178.976 46.2645 178.676C46.1828 178.377 46.2234 178.057 46.3775 177.787C46.5315 177.518 46.7864 177.32 47.0859 177.239C47.3854 177.157 47.7052 177.198 47.9748 177.352L106.992 211.166L126.494 193.198L45.3926 146.732C45.123 146.578 44.9257 146.323 44.844 146.024C44.7623 145.724 44.8029 145.404 44.957 145.135C45.111 144.865 45.3659 144.668 45.6654 144.586C45.9649 144.504 46.2847 144.545 46.5543 144.699L129.044 191.961C129.207 192.052 129.345 192.18 129.448 192.335C129.551 192.49 129.616 192.668 129.637 192.853C129.658 193.038 129.634 193.225 129.569 193.399C129.503 193.574 129.397 193.73 129.259 193.855L107.951 213.489C107.728 213.672 107.444 213.765 107.156 213.748Z" fill="#455A64"/>
<path d="M51.5796 181.313C51.5028 181.313 51.4267 181.298 51.3558 181.269C51.285 181.239 51.2207 181.196 51.1666 181.141C51.1126 181.087 51.07 181.022 51.0411 180.951C51.0123 180.879 50.9979 180.803 50.9988 180.726V148.888C50.9902 148.806 50.999 148.724 51.0245 148.646C51.0499 148.567 51.0916 148.495 51.1466 148.434C51.2017 148.373 51.2689 148.324 51.3441 148.291C51.4192 148.258 51.5005 148.24 51.5827 148.24C51.665 148.24 51.7463 148.258 51.8214 148.291C51.8966 148.324 51.9638 148.373 52.0189 148.434C52.0739 148.495 52.1155 148.567 52.141 148.646C52.1665 148.724 52.1752 148.806 52.1667 148.888V180.726C52.1676 180.804 52.153 180.88 52.1238 180.952C52.0946 181.024 52.0513 181.089 51.9966 181.143C51.942 181.198 51.8769 181.241 51.8053 181.27C51.7337 181.3 51.6569 181.314 51.5796 181.313Z" fill="#455A64"/>
<path d="M56.372 184.05C56.2949 184.05 56.2186 184.034 56.1473 184.005C56.0761 183.975 56.0114 183.932 55.9569 183.878C55.9023 183.823 55.8591 183.758 55.8296 183.687C55.8001 183.616 55.7849 183.54 55.7849 183.463V151.599C55.7764 151.517 55.7851 151.435 55.8106 151.356C55.8361 151.278 55.8777 151.206 55.9327 151.145C55.9878 151.084 56.0551 151.035 56.1302 151.002C56.2053 150.968 56.2866 150.951 56.3689 150.951C56.4511 150.951 56.5324 150.968 56.6076 151.002C56.6827 151.035 56.75 151.084 56.805 151.145C56.8601 151.206 56.9017 151.278 56.9271 151.356C56.9526 151.435 56.9614 151.517 56.9529 151.599V183.437C56.9562 183.516 56.9438 183.594 56.9162 183.668C56.8886 183.742 56.8465 183.809 56.7923 183.867C56.7381 183.924 56.673 183.969 56.6008 184.001C56.5286 184.032 56.4508 184.049 56.372 184.05Z" fill="#455A64"/>
<path d="M61.158 186.786C61.0806 186.787 61.0039 186.772 60.9323 186.743C60.8607 186.714 60.7956 186.67 60.7409 186.616C60.6862 186.561 60.643 186.496 60.6138 186.424C60.5846 186.353 60.57 186.276 60.5708 186.199V154.361C60.5708 154.205 60.6327 154.056 60.7428 153.945C60.8529 153.835 61.0023 153.773 61.158 153.773C61.3137 153.773 61.463 153.835 61.5731 153.945C61.6833 154.056 61.7451 154.205 61.7451 154.361V186.199C61.7451 186.354 61.6833 186.504 61.5731 186.614C61.463 186.724 61.3137 186.786 61.158 186.786Z" fill="#455A64"/>
<path d="M65.9436 189.507C65.7879 189.507 65.6385 189.445 65.5284 189.335C65.4183 189.224 65.3564 189.075 65.3564 188.919V157.081C65.3564 156.926 65.4183 156.776 65.5284 156.666C65.6385 156.556 65.7879 156.494 65.9436 156.494C66.0993 156.494 66.2487 156.556 66.3588 156.666C66.4689 156.776 66.5307 156.926 66.5307 157.081V188.919C66.5307 189.075 66.4689 189.224 66.3588 189.335C66.2487 189.445 66.0993 189.507 65.9436 189.507Z" fill="#455A64"/>
<path d="M70.7273 192.237C70.5716 192.237 70.4222 192.176 70.3121 192.066C70.202 191.955 70.1401 191.806 70.1401 191.65V159.806C70.1401 159.65 70.202 159.501 70.3121 159.391C70.4222 159.281 70.5716 159.219 70.7273 159.219C70.883 159.219 71.0323 159.281 71.1425 159.391C71.2526 159.501 71.3144 159.65 71.3144 159.806V191.644C71.3153 191.722 71.3007 191.799 71.2715 191.871C71.2424 191.943 71.1993 192.008 71.1447 192.063C71.0901 192.118 71.0251 192.162 70.9534 192.192C70.8818 192.222 70.8049 192.237 70.7273 192.237Z" fill="#455A64"/>
<path d="M75.5007 194.977C75.345 194.977 75.1956 194.915 75.0855 194.805C74.9754 194.695 74.9136 194.546 74.9136 194.39V162.552C74.9136 162.396 74.9754 162.247 75.0855 162.137C75.1956 162.027 75.345 161.965 75.5007 161.965C75.6564 161.965 75.8058 162.027 75.9159 162.137C76.026 162.247 76.0878 162.396 76.0878 162.552V194.39C76.0878 194.546 76.026 194.695 75.9159 194.805C75.8058 194.915 75.6564 194.977 75.5007 194.977Z" fill="#455A64"/>
<path d="M80.2986 197.689C80.1429 197.689 79.9935 197.627 79.8834 197.517C79.7733 197.407 79.7114 197.258 79.7114 197.102V165.277C79.7114 165.121 79.7733 164.972 79.8834 164.861C79.9935 164.751 80.1429 164.689 80.2986 164.689C80.4543 164.689 80.6036 164.751 80.7137 164.861C80.8239 164.972 80.8857 165.121 80.8857 165.277V197.115C80.8824 197.268 80.8191 197.414 80.7093 197.522C80.5996 197.629 80.4521 197.689 80.2986 197.689Z" fill="#455A64"/>
<path d="M85.0847 200.432C84.929 200.432 84.7796 200.37 84.6695 200.26C84.5594 200.15 84.4976 200 84.4976 199.845V168.013C84.4976 167.857 84.5594 167.708 84.6695 167.598C84.7796 167.488 84.929 167.426 85.0847 167.426C85.2404 167.426 85.3898 167.488 85.4999 167.598C85.61 167.708 85.6718 167.857 85.6718 168.013V199.851C85.6702 200.006 85.6076 200.153 85.4977 200.262C85.3877 200.371 85.2393 200.432 85.0847 200.432Z" fill="#455A64"/>
<path d="M89.8703 203.163C89.7146 203.163 89.5653 203.101 89.4552 202.991C89.3451 202.881 89.2832 202.731 89.2832 202.576V170.738C89.2832 170.582 89.3451 170.432 89.4552 170.322C89.5653 170.212 89.7146 170.15 89.8703 170.15C90.0261 170.15 90.1754 170.212 90.2855 170.322C90.3956 170.432 90.4575 170.582 90.4575 170.738V202.576C90.4575 202.731 90.3956 202.881 90.2855 202.991C90.1754 203.101 90.0261 203.163 89.8703 203.163Z" fill="#455A64"/>
<path d="M94.656 205.901C94.5003 205.901 94.3509 205.839 94.2408 205.729C94.1307 205.619 94.0688 205.47 94.0688 205.314V173.476C94.0688 173.32 94.1307 173.171 94.2408 173.061C94.3509 172.951 94.5003 172.889 94.656 172.889C94.8117 172.889 94.961 172.951 95.0712 173.061C95.1813 173.171 95.2431 173.32 95.2431 173.476V205.314C95.2431 205.47 95.1813 205.619 95.0712 205.729C94.961 205.839 94.8117 205.901 94.656 205.901Z" fill="#455A64"/>
<path d="M99.4416 208.62C99.2859 208.62 99.1366 208.558 99.0265 208.448C98.9163 208.338 98.8545 208.189 98.8545 208.033V176.22C98.8545 176.064 98.9163 175.915 99.0265 175.805C99.1366 175.695 99.2859 175.633 99.4416 175.633C99.5973 175.633 99.7467 175.695 99.8568 175.805C99.9669 175.915 100.029 176.064 100.029 176.22V208.058C100.024 208.21 99.9596 208.354 99.8498 208.459C99.7401 208.564 99.5935 208.622 99.4416 208.62Z" fill="#455A64"/>
<path d="M104.226 211.353C104.071 211.351 103.924 211.288 103.815 211.178C103.706 211.068 103.645 210.92 103.645 210.765V178.927C103.637 178.845 103.645 178.763 103.671 178.685C103.696 178.606 103.738 178.534 103.793 178.473C103.848 178.412 103.915 178.363 103.991 178.33C104.066 178.297 104.147 178.279 104.229 178.279C104.311 178.279 104.393 178.297 104.468 178.33C104.543 178.363 104.61 178.412 104.665 178.473C104.72 178.534 104.762 178.606 104.787 178.685C104.813 178.763 104.822 178.845 104.813 178.927V210.765C104.813 210.921 104.751 211.07 104.641 211.181C104.531 211.291 104.382 211.353 104.226 211.353Z" fill="#455A64"/>
<path d="M109.012 211.356C108.857 211.354 108.709 211.291 108.601 211.181C108.492 211.072 108.431 210.923 108.431 210.769V181.658C108.422 181.576 108.431 181.493 108.457 181.415C108.482 181.337 108.524 181.265 108.579 181.204C108.634 181.143 108.701 181.094 108.776 181.06C108.851 181.027 108.933 181.01 109.015 181.01C109.097 181.01 109.178 181.027 109.254 181.06C109.329 181.094 109.396 181.143 109.451 181.204C109.506 181.265 109.548 181.337 109.573 181.415C109.599 181.493 109.607 181.576 109.599 181.658V210.769C109.599 210.924 109.537 211.074 109.427 211.184C109.317 211.294 109.167 211.356 109.012 211.356Z" fill="#455A64"/>
<path d="M113.804 207.249C113.727 207.25 113.651 207.235 113.58 207.206C113.509 207.178 113.444 207.135 113.389 207.081C113.335 207.027 113.291 206.963 113.262 206.892C113.232 206.821 113.217 206.745 113.217 206.668V184.388C113.209 184.306 113.217 184.224 113.243 184.146C113.268 184.067 113.31 183.995 113.365 183.934C113.42 183.873 113.487 183.824 113.562 183.791C113.637 183.758 113.719 183.74 113.801 183.74C113.883 183.74 113.965 183.758 114.04 183.791C114.115 183.824 114.182 183.873 114.237 183.934C114.292 183.995 114.334 184.067 114.359 184.146C114.385 184.224 114.394 184.306 114.385 184.388V206.668C114.385 206.822 114.324 206.97 114.215 207.079C114.106 207.188 113.958 207.249 113.804 207.249Z" fill="#455A64"/>
<path d="M118.59 202.492C118.434 202.492 118.285 202.43 118.175 202.32C118.065 202.21 118.003 202.06 118.003 201.904V187.119C117.994 187.037 118.003 186.954 118.028 186.876C118.054 186.798 118.095 186.726 118.151 186.665C118.206 186.604 118.273 186.555 118.348 186.521C118.423 186.488 118.504 186.471 118.587 186.471C118.669 186.471 118.75 186.488 118.825 186.521C118.9 186.555 118.968 186.604 119.023 186.665C119.078 186.726 119.119 186.798 119.145 186.876C119.17 186.954 119.179 187.037 119.171 187.119V201.904C119.171 202.059 119.11 202.207 119.001 202.317C118.892 202.427 118.744 202.49 118.59 202.492Z" fill="#455A64"/>
<path d="M123.376 198.178C123.22 198.178 123.071 198.116 122.961 198.006C122.85 197.896 122.789 197.747 122.789 197.591V189.851C122.789 189.695 122.85 189.546 122.961 189.436C123.071 189.326 123.22 189.264 123.376 189.264C123.531 189.264 123.681 189.326 123.791 189.436C123.901 189.546 123.963 189.695 123.963 189.851V197.591C123.963 197.747 123.901 197.896 123.791 198.006C123.681 198.116 123.531 198.178 123.376 198.178Z" fill="#455A64"/>
<path d="M123.4 198.721C123.298 198.722 123.197 198.694 123.11 198.639L45.2286 154.022C45.1554 153.988 45.0901 153.939 45.0369 153.878C44.9836 153.817 44.9436 153.745 44.9192 153.668C44.8949 153.591 44.8868 153.509 44.8954 153.429C44.9041 153.348 44.9293 153.27 44.9695 153.2C45.0096 153.13 45.0639 153.069 45.1289 153.02C45.1939 152.972 45.2681 152.938 45.347 152.919C45.4259 152.901 45.5077 152.899 45.5873 152.914C45.6669 152.929 45.7425 152.96 45.8095 153.006L123.691 197.622C123.825 197.7 123.924 197.828 123.964 197.979C124.004 198.129 123.983 198.289 123.905 198.424C123.855 198.514 123.782 198.589 123.693 198.641C123.604 198.693 123.503 198.721 123.4 198.721Z" fill="#455A64"/>
<path d="M117.882 203.53C117.781 203.528 117.681 203.502 117.592 203.454L46.1309 162.512C46.0087 162.429 45.9224 162.303 45.8891 162.159C45.8558 162.015 45.8781 161.864 45.9514 161.735C46.0247 161.607 46.1437 161.511 46.2847 161.467C46.4256 161.422 46.5781 161.433 46.7118 161.496L118.172 202.438C118.288 202.499 118.378 202.598 118.43 202.718C118.482 202.838 118.492 202.972 118.459 203.098C118.425 203.225 118.35 203.336 118.245 203.414C118.141 203.493 118.013 203.533 117.882 203.53Z" fill="#455A64"/>
<path d="M112.749 208.573C112.647 208.573 112.546 208.544 112.459 208.491L46.5916 170.744C46.5245 170.706 46.4656 170.656 46.4181 170.595C46.3707 170.535 46.3357 170.466 46.3151 170.392C46.2946 170.318 46.2889 170.241 46.2984 170.164C46.3079 170.088 46.3325 170.015 46.3706 169.948C46.4486 169.814 46.5764 169.715 46.7263 169.674C46.8763 169.632 47.0364 169.652 47.1724 169.727L113.065 207.475C113.178 207.539 113.267 207.639 113.318 207.759C113.368 207.879 113.377 208.013 113.343 208.139C113.309 208.265 113.234 208.376 113.13 208.455C113.026 208.533 112.898 208.575 112.768 208.573H112.749Z" fill="#455A64"/>
<path d="M41.593 122.557C41.2043 122.556 40.827 122.426 40.52 122.187C40.2129 121.949 39.9933 121.616 39.8953 121.24C39.7973 120.864 39.8264 120.466 39.9782 120.108C40.13 119.75 40.3958 119.453 40.7344 119.262L69.6873 103.03C70.0922 102.826 70.5602 102.786 70.9937 102.919C71.4273 103.051 71.7932 103.345 72.0152 103.741C72.2373 104.136 72.2983 104.601 72.1858 105.041C72.0732 105.48 71.7957 105.859 71.4109 106.098L42.4516 122.33C42.1894 122.477 41.8939 122.556 41.593 122.557Z" fill="#0071CE"/>
<path d="M38.2529 123.86C37.9936 123.86 37.7418 123.774 37.5367 123.615C37.3316 123.456 37.1849 123.234 37.1193 122.983C37.0537 122.732 37.0729 122.467 37.1741 122.228C37.2752 121.989 37.4525 121.791 37.6784 121.663L40.5383 120.06C40.6731 119.972 40.8246 119.913 40.9833 119.886C41.142 119.859 41.3046 119.865 41.4609 119.903C41.6172 119.942 41.7639 120.012 41.8919 120.11C42.0199 120.207 42.1264 120.33 42.2049 120.471C42.2834 120.611 42.3322 120.766 42.3482 120.927C42.3642 121.087 42.3471 121.249 42.298 121.402C42.2489 121.555 42.1688 121.697 42.0626 121.818C41.9565 121.939 41.8266 122.037 41.681 122.105L38.8274 123.709C38.6518 123.807 38.4541 123.859 38.2529 123.86Z" fill="#455A64"/>
<path d="M78.424 103.564C77.6538 101.942 76.53 99.3597 74.9517 98.5137L66.8138 93.5198L49.4395 81.8086L39.2939 86.613C44.6098 92.4024 61.8136 98.6084 61.8136 98.6084C62.0023 99.1301 62.239 99.6331 62.5207 100.111H62.4702C62.5902 100.382 66.4981 109.145 67.7923 109.013C68.3605 108.962 68.4615 108.198 68.4237 107.359L67.7229 103.968C68.5878 104.221 69.377 104.372 69.9515 104.524C70.8101 104.751 71.6561 106.418 72.1043 107.176C72.2175 107.371 72.3687 107.542 72.5491 107.678C72.7295 107.813 72.9353 107.912 73.1543 107.966C73.3734 108.021 73.6012 108.031 73.8243 107.996C74.0474 107.961 74.2611 107.882 74.4529 107.763L77.8495 105.667C78.0949 105.513 78.2943 105.295 78.4265 105.038C78.5587 104.78 78.6189 104.491 78.6008 104.202C78.5902 103.979 78.5298 103.761 78.424 103.564Z" fill="#FFA8A7"/>
<path d="M24.5848 50.8262L17.9622 79.4508C17.5395 81.2961 17.7786 83.2313 18.6377 84.9182C19.1372 85.8919 19.8305 86.7533 20.675 87.4494C21.5196 88.1455 22.4974 88.6616 23.5486 88.9661C24.5998 89.2706 25.7022 89.357 26.788 89.22C27.8738 89.083 28.9201 88.7256 29.8628 88.1695L44.7749 79.3624V50.8262H24.5848Z" fill="#263238"/>
<path d="M27.5205 73.41L42.6725 67.2293C43.7778 66.7717 44.9788 66.5936 46.1693 66.7107C47.3598 66.8279 48.5031 67.2365 49.498 67.9007C50.493 68.5648 51.3089 69.4639 51.8737 70.5184C52.4384 71.573 52.7346 72.7504 52.736 73.9467V81.9646L29.7996 89.1176L27.5205 73.41Z" fill="#FFA8A7"/>
<path d="M41.5488 68.0366C41.5488 68.0366 46.3406 71.0291 46.9909 75.9977C46.9909 75.9977 44.3898 80.1582 36.132 79.9183C36.132 79.9183 34.238 73.3146 30.9929 72.0014L27.5206 73.4093L27.2617 90.0007L29.6229 93.3846C29.9087 93.7914 30.0789 94.268 30.1156 94.7638C30.1523 95.2595 30.054 95.756 29.8313 96.2004L27.8678 100.134C27.8678 100.134 31.4096 106.22 40.6649 106.22C44.0775 106.146 47.3494 104.846 49.8824 102.558L49.6172 92.0462C49.6172 92.0462 61.3411 84.1293 44.3772 66.957L41.5488 68.0366Z" fill="#0071CE"/>
<path d="M28.7821 44.6704C28.7821 44.6704 27.9045 41.3306 27.3111 41.3874C26.7176 41.4443 26.7871 44.3736 26.7871 44.3736C26.7871 44.3736 24.0092 44.1274 24.2996 44.9229C24.59 45.7184 27.8288 46.5391 27.8288 46.5391L28.7821 44.6704Z" fill="#263238"/>
<path d="M24.4639 56.2671C25.7265 65.6992 33.675 65.6992 33.675 65.6992L50.3359 58.3694C51.268 57.3732 51.845 56.0971 51.9774 54.7393C52.1268 53.705 52.1268 52.6547 51.9774 51.6205V51.5889C51.4408 47.6241 48.4798 43.3816 42.0149 42.0495C40.5994 41.7676 39.1589 41.6301 37.7156 41.6391C37.0198 41.6369 36.3244 41.6706 35.6322 41.7401C30.5815 42.2325 27.0902 44.5811 25.4172 48.2239C25.0418 49.0478 24.7621 49.9121 24.5838 50.7997C24.237 52.6025 24.1964 54.4508 24.4639 56.2671Z" fill="#263238"/>
<path d="M35.5504 74.5409C36.1182 74.9827 36.7986 75.2564 37.5143 75.3307C38.2299 75.4051 38.9521 75.2771 39.5986 74.9614C40.2451 74.6457 40.7901 74.1549 41.1715 73.5449C41.553 72.9348 41.7556 72.23 41.7564 71.5105V59.332H33.6753V70.696C33.6753 71.4372 33.8442 72.1687 34.1691 72.8348C34.494 73.501 34.9664 74.0844 35.5504 74.5409Z" fill="#FFA8A7"/>
<path d="M41.7564 69.9763C39.9588 69.3105 38.3154 68.286 36.9262 66.9651C35.537 65.6443 34.4309 64.0547 33.6753 62.293V59.332H41.7564V69.9763Z" fill="#F28F8F"/>
<path d="M40.0074 44.4746C43.0756 44.4746 49.5847 46.1855 50.3423 54.1971C51.0999 62.2088 50.3423 68.4337 46.226 69.0335C42.1097 69.6332 32.4882 66.6344 31.2003 56.2553C29.9123 45.8762 37.0211 44.4746 40.0074 44.4746Z" fill="#FFA8A7"/>
<path d="M44.8306 57.5879V62.3166L47.6021 61.4643L44.8306 57.5879Z" fill="#F28F8F"/>
<path d="M40.7783 58.4167C40.7771 58.608 40.8327 58.7953 40.9381 58.955C41.0434 59.1147 41.1938 59.2395 41.3702 59.3136C41.5466 59.3876 41.741 59.4077 41.9288 59.3711C42.1166 59.3346 42.2893 59.2431 42.425 59.1082C42.5608 58.9734 42.6534 58.8013 42.6912 58.6138C42.729 58.4262 42.7102 58.2317 42.6373 58.0548C42.5644 57.8779 42.4406 57.7267 42.2816 57.6203C42.1226 57.5138 41.9356 57.457 41.7443 57.457C41.4892 57.457 41.2444 57.5579 41.0635 57.7377C40.8825 57.9175 40.78 58.1616 40.7783 58.4167Z" fill="#263238"/>
<path d="M47.1221 57.7355C47.1221 57.9265 47.1787 58.1133 47.2849 58.2721C47.391 58.431 47.5419 58.5548 47.7184 58.6279C47.8949 58.701 48.0891 58.7201 48.2765 58.6828C48.4638 58.6456 48.6359 58.5536 48.771 58.4185C48.9061 58.2834 48.9981 58.1113 49.0354 57.9239C49.0727 57.7365 49.0535 57.5423 48.9804 57.3658C48.9073 57.1893 48.7835 57.0385 48.6247 56.9323C48.4658 56.8262 48.2791 56.7695 48.088 56.7695C47.8318 56.7695 47.5861 56.8713 47.405 57.0524C47.2238 57.2336 47.1221 57.4793 47.1221 57.7355Z" fill="#263238"/>
<path d="M49.2627 55.7292L47.3687 54.6117C47.3687 54.6117 48.0884 53.8604 48.8081 54.3087C49.0183 54.472 49.1742 54.695 49.2553 54.9485C49.3364 55.2021 49.339 55.4742 49.2627 55.7292Z" fill="#263238"/>
<path d="M46.1379 64.2413C45.2196 64.3065 44.306 64.062 43.5431 63.5469C43.5431 63.5469 43.3663 64.9106 44.509 65.1757C44.8465 65.2305 45.1926 65.1676 45.4892 64.9974C45.7857 64.8273 46.0148 64.5603 46.1379 64.2413Z" fill="#F28F8F"/>
<path d="M47.7796 47.2064C47.7796 47.2064 46.6242 58.2737 31.5732 58.6209C31.5732 58.6209 27.0276 47.6231 35.9926 44.0497C44.9575 40.4764 47.7796 47.2064 47.7796 47.2064Z" fill="#263238"/>
<path d="M34.0923 59.0187C35.0583 60.698 34.812 62.7309 33.461 63.438C32.5961 63.8863 30.0329 62.9203 29.0417 61.241C28.0505 59.5616 28.6187 58.1285 29.9318 57.3709C31.245 56.6133 33.1264 57.3457 34.0923 59.0187Z" fill="#FFA8A7"/>
<path d="M29.7493 84.5107L27.2808 89.997C27.9643 90.0008 28.6406 89.8565 29.2631 89.574L30.3554 84.7128C30.3706 84.6359 30.3573 84.5561 30.3179 84.4883C30.2785 84.4205 30.2157 84.3694 30.1414 84.3446C30.067 84.3199 29.9861 84.3231 29.9139 84.3536C29.8418 84.3842 29.7832 84.4401 29.7493 84.5107Z" fill="#F28F8F"/>
<path d="M53.3597 119.519C52.6911 117.858 51.5301 116.442 50.0326 115.46L48.6057 114.526C48.6057 114.526 52.5074 115.422 52.5579 114.109C52.6084 112.796 43.3025 109.38 43.3025 109.38L24.6845 95.2572C24.6845 95.2572 25.9977 93.1107 27.5508 89.9856C30.2087 89.8404 31.7618 87.6812 32.6393 85.5663C33.4202 83.7275 33.6445 81.6999 33.2842 79.7349C32.924 77.7699 31.9951 75.9538 30.6127 74.5116C30.4304 74.319 30.2364 74.1376 30.0319 73.9687C29.625 73.5458 29.1406 73.205 28.6051 72.9648L27.3424 73.4762C24.2257 74.7307 21.6918 77.107 20.2399 80.1368C17.8535 85.1243 14.438 92.7635 13.9266 96.8861C13.1311 103.288 37.0965 113.44 37.0965 113.44C38.5486 118.49 42.9237 120.34 44.843 120.978C45.2583 121.114 45.6427 121.331 45.9741 121.616C46.3056 121.901 46.5777 122.248 46.7749 122.638C46.8751 122.84 47.0148 123.02 47.1859 123.168C47.357 123.315 47.5559 123.426 47.7708 123.495C47.9857 123.564 48.2122 123.589 48.437 123.569C48.6618 123.548 48.8802 123.483 49.0792 123.377L52.6084 121.483C52.95 121.302 53.2144 121.003 53.3526 120.642C53.4908 120.281 53.4933 119.882 53.3597 119.519Z" fill="#FFA8A7"/>
<path d="M29.2632 89.5745L30.3554 84.7132C30.3655 84.6694 30.3661 84.624 30.3572 84.5799C30.3483 84.5358 30.3301 84.4942 30.3038 84.4577C30.2775 84.4213 30.2437 84.3908 30.2047 84.3685C30.1657 84.3461 30.1223 84.3324 30.0776 84.3281C29.2821 86.3736 28.3919 88.3118 27.5522 90.0101C28.145 89.9745 28.7256 89.8267 29.2632 89.5745Z" fill="#F28F8F"/>
</svg>