<svg width="56" height="92" viewBox="0 0 42 56" fill="none" xmlns="http://www.w3.org/2000/svg">
<g filter="url(#filter0_d_976_9032)">
<path d="M37.5354 51.9527L3.98821 51.8303C3.79456 51.8297 3.60293 51.791 3.42427 51.7163C3.2456 51.6416 3.08342 51.5324 2.94697 51.395C2.81053 51.2576 2.70251 51.0946 2.62908 50.9154C2.55566 50.7363 2.51827 50.5443 2.51906 50.3507L2.69673 1.50432C2.69731 1.31068 2.73606 1.11904 2.81075 0.940381C2.88545 0.761719 2.99462 0.59953 3.13204 0.463087C3.26945 0.326643 3.43241 0.218622 3.6116 0.145196C3.79078 0.0717713 3.98269 0.0343827 4.17633 0.0351684L37.731 0.157598C38.1219 0.159179 38.4963 0.315907 38.7718 0.593344C39.0472 0.870781 39.2013 1.24623 39.2001 1.6372L39.021 50.4836C39.0204 50.6777 38.9814 50.8699 38.9064 51.0489C38.8313 51.228 38.7216 51.3904 38.5835 51.527C38.4455 51.6635 38.2818 51.7714 38.1019 51.8444C37.9221 51.9175 37.7295 51.9543 37.5354 51.9527Z" fill="#C1C1C1"/>
<path d="M37.5357 51.9519L37.6492 51.9445C37.9465 51.9225 38.23 51.8099 38.4614 51.622C38.6603 51.4611 38.8146 51.2519 38.9093 51.0143C38.966 50.8713 38.9988 50.72 39.0064 50.5664C39.0153 50.4051 39.0064 50.2334 39.0064 50.0558C39.0064 49.6974 39.0064 49.3063 39.0064 48.8822C39.0064 48.0357 39.0064 47.0577 39.0138 45.9559C39.0273 41.5514 39.0467 35.1806 39.0706 27.3063C39.084 23.3691 39.099 19.0572 39.1139 14.4288C39.1209 12.1126 39.1288 9.72072 39.1378 7.25322C39.1378 6.01996 39.1423 4.76929 39.1512 3.5012C39.1512 2.86815 39.1512 2.23062 39.1512 1.58861C39.1433 1.26957 39.0294 0.962231 38.8275 0.715121C38.6255 0.46801 38.347 0.2952 38.0359 0.223971C37.8782 0.192234 37.7174 0.179205 37.5566 0.185153H37.0669H36.0815L34.0943 0.177687L30.0511 0.164249L21.7125 0.134389L4.17669 0.0716811C3.80705 0.0692607 3.45072 0.209438 3.18181 0.463053C2.9129 0.716669 2.75212 1.06419 2.73291 1.43334C2.72246 2.17986 2.72545 2.92638 2.72097 3.66394C2.715 5.14803 2.70952 6.62166 2.70455 8.08484C2.6926 11.0092 2.68165 13.8898 2.6717 16.7266C2.6508 22.3912 2.6299 27.8557 2.61049 33.0619C2.59108 38.2682 2.57167 43.2146 2.55375 47.8431C2.55375 48.4224 2.55375 48.9957 2.55375 49.5646C2.55375 49.8482 2.55375 50.1334 2.55375 50.4126C2.5644 50.6888 2.65404 50.9562 2.81205 51.183C2.97001 51.4076 3.18777 51.5835 3.44062 51.6906C3.56627 51.7407 3.69768 51.7748 3.83179 51.7922C3.96617 51.8041 4.10353 51.8026 4.24089 51.8026H5.8683L12.048 51.828L30.6976 51.9071L35.7739 51.9325H37.0923H37.5402H35.768L30.6916 51.9221L12.051 51.8832L5.87129 51.8638H4.24387C4.10651 51.8638 3.96915 51.8638 3.82881 51.8534C3.68936 51.8361 3.55281 51.8004 3.4227 51.7474C3.15969 51.6371 2.93305 51.4549 2.76875 51.2218C2.60377 50.9861 2.51045 50.7076 2.5 50.4201C2.5 50.1364 2.5 49.8557 2.5 49.5705C2.5 49.0012 2.5 48.4273 2.5 47.849C2.51642 43.2206 2.53285 38.2727 2.55076 33.0679C2.56868 27.8632 2.58958 22.3971 2.60899 16.731C2.61895 13.8992 2.6294 11.0187 2.64035 8.08932C2.64035 6.62813 2.64532 5.15499 2.65528 3.66991C2.65528 2.92339 2.65528 2.18583 2.66722 1.43035C2.68792 1.04298 2.85681 0.678409 3.13892 0.412142C3.42103 0.145876 3.79474 -0.00168785 4.18266 1.45681e-05L21.7184 0.0657088L30.0571 0.0970626L34.1002 0.111993L36.089 0.123937H37.0744H37.5641C37.7294 0.117303 37.8948 0.130839 38.0568 0.164249C38.3827 0.236949 38.6747 0.416761 38.8864 0.674958C39.098 0.933155 39.217 1.25484 39.2244 1.58861C39.2244 2.23261 39.2244 2.87114 39.2244 3.50419C39.2244 4.77327 39.2199 6.02394 39.2109 7.2562C39.2 9.72271 39.1905 12.1146 39.1826 14.4318C39.1646 19.0602 39.1467 23.3736 39.1318 27.3093C39.0975 35.1836 39.0706 41.5559 39.0527 45.9589C39.0527 47.0607 39.0422 48.0387 39.0377 48.8852C39.0377 49.3092 39.0377 49.7004 39.0377 50.0588C39.0377 50.2379 39.0377 50.4081 39.0377 50.5694C39.0253 50.7752 38.9697 50.976 38.8745 51.1589C38.7793 51.3418 38.6467 51.5026 38.4853 51.6309C38.3401 51.7459 38.1752 51.8334 37.9986 51.8892C37.8905 51.9207 37.7794 51.9408 37.6671 51.9489L37.5357 51.9519Z" fill="#263238"/>
<path d="M37.5357 51.9519L37.6492 51.9445C37.9465 51.9225 38.23 51.8099 38.4614 51.622C38.6603 51.4611 38.8146 51.2519 38.9093 51.0143C38.966 50.8713 38.9988 50.72 39.0064 50.5664C39.0153 50.4051 39.0064 50.2334 39.0064 50.0558C39.0064 49.6974 39.0064 49.3063 39.0064 48.8822C39.0064 48.0357 39.0064 47.0577 39.0138 45.9559C39.0273 41.5514 39.0467 35.1806 39.0706 27.3063C39.084 23.3691 39.099 19.0572 39.1139 14.4288C39.1209 12.1126 39.1288 9.72072 39.1378 7.25322C39.1378 6.01996 39.1423 4.76929 39.1512 3.5012C39.1512 2.86815 39.1512 2.23062 39.1512 1.58861C39.1433 1.26957 39.0294 0.962231 38.8275 0.715121C38.6255 0.46801 38.347 0.2952 38.0359 0.223971C37.8782 0.192234 37.7174 0.179205 37.5566 0.185153H37.0669H36.0815L34.0943 0.177687L30.0511 0.164249L21.7125 0.134389L4.17669 0.0716811C3.80705 0.0692607 3.45072 0.209438 3.18181 0.463053C2.9129 0.716669 2.75212 1.06419 2.73291 1.43334C2.72246 2.17986 2.72545 2.92638 2.72097 3.66394C2.715 5.14803 2.70952 6.62166 2.70455 8.08484C2.6926 11.0092 2.68165 13.8898 2.6717 16.7266C2.6508 22.3912 2.6299 27.8557 2.61049 33.0619C2.59108 38.2682 2.57167 43.2146 2.55375 47.8431C2.55375 48.4224 2.55375 48.9957 2.55375 49.5646C2.55375 49.8482 2.55375 50.1334 2.55375 50.4126C2.5644 50.6888 2.65404 50.9562 2.81205 51.183C2.97001 51.4076 3.18777 51.5835 3.44062 51.6906C3.56627 51.7407 3.69768 51.7748 3.83179 51.7922C3.96617 51.8041 4.10353 51.8026 4.24089 51.8026H5.8683L12.048 51.828L30.6976 51.9071L35.7739 51.9325H37.0923H37.5402H35.768L30.6916 51.9221L12.051 51.8832L5.87129 51.8638H4.24387C4.10651 51.8638 3.96915 51.8638 3.82881 51.8534C3.68936 51.8361 3.55281 51.8004 3.4227 51.7474C3.15969 51.6371 2.93305 51.4549 2.76875 51.2218C2.60377 50.9861 2.51045 50.7076 2.5 50.4201C2.5 50.1364 2.5 49.8557 2.5 49.5705C2.5 49.0012 2.5 48.4273 2.5 47.849C2.51642 43.2206 2.53285 38.2727 2.55076 33.0679C2.56868 27.8632 2.58958 22.3971 2.60899 16.731C2.61895 13.8992 2.6294 11.0187 2.64035 8.08932C2.64035 6.62813 2.64532 5.15499 2.65528 3.66991C2.65528 2.92339 2.65528 2.18583 2.66722 1.43035C2.68792 1.04298 2.85681 0.678409 3.13892 0.412142C3.42103 0.145876 3.79474 -0.00168785 4.18266 1.45681e-05L21.7184 0.0657088L30.0571 0.0970626L34.1002 0.111993L36.089 0.123937H37.0744H37.5641C37.7294 0.117303 37.8948 0.130839 38.0568 0.164249C38.3827 0.236949 38.6747 0.416761 38.8864 0.674958C39.098 0.933155 39.217 1.25484 39.2244 1.58861C39.2244 2.23261 39.2244 2.87114 39.2244 3.50419C39.2244 4.77327 39.2199 6.02394 39.2109 7.2562C39.2 9.72271 39.1905 12.1146 39.1826 14.4318C39.1646 19.0602 39.1467 23.3736 39.1318 27.3093C39.0975 35.1836 39.0706 41.5559 39.0527 45.9589C39.0527 47.0607 39.0422 48.0387 39.0377 48.8852C39.0377 49.3092 39.0377 49.7004 39.0377 50.0588C39.0377 50.2379 39.0377 50.4081 39.0377 50.5694C39.0253 50.7752 38.9697 50.976 38.8745 51.1589C38.7793 51.3418 38.6467 51.5026 38.4853 51.6309C38.3401 51.7459 38.1752 51.8334 37.9986 51.8892C37.8905 51.9207 37.7794 51.9408 37.6671 51.9489L37.5357 51.9519Z" fill="#263238"/>
<g filter="url(#filter1_d_976_9032)">
<path d="M4.54652 2.12328L4.37329 49.3867L37.1707 49.5069L37.344 2.24349L4.54652 2.12328Z" fill="white"/>
</g>
<path d="M37.1724 49.5029C37.1724 49.2312 37.2306 30.1322 37.3143 2.23915L37.3441 2.2705L4.54943 2.15404L4.58228 2.1197C4.51509 19.869 4.45388 36.2671 4.40461 49.3835L4.37624 49.3566L37.1754 49.5059L4.37624 49.4133H4.34937V49.3864C4.39565 36.2701 4.45388 19.872 4.51509 2.12269V2.08984H4.55242L37.3441 2.21227H37.3755V2.24363C37.2545 30.1322 37.1724 49.2312 37.1724 49.5029Z" fill="#263238"/>
<path d="M13.5551 17.1982L6.3811 17.1719L6.37554 18.6903L13.5496 18.7166L13.5551 17.1982Z" fill="#C1C1C1"/>
<path d="M28.8093 13.9433L14.4314 13.8906L14.4258 15.409L28.8037 15.4617L28.8093 13.9433Z" fill="#C1C1C1"/>
<path d="M13.1623 13.8532L6.32275 13.8281L6.31719 15.3465L13.1568 15.3716L13.1623 13.8532Z" fill="#C1C1C1"/>
<path d="M34.836 13.9605L29.6328 13.9414L29.6272 15.4598L34.8305 15.4789L34.836 13.9605Z" fill="#C1C1C1"/>
<path d="M15.5748 25.6667L6.32544 25.6328L6.3191 27.3632L15.5684 27.3971L15.5748 25.6667Z" fill="#C1C1C1"/>
<path d="M23.3417 28.7773H6.5271V30.5078H23.3417V28.7773Z" fill="#C1C1C1"/>
<path d="M34.709 21.0845L6.33545 20.9805L6.32911 22.7109L34.7027 22.8149L34.709 21.0845Z" fill="#C1C1C1"/>
<path d="M34.709 6.59618L6.33545 6.49219L6.31461 12.1768L34.6882 12.2808L34.709 6.59618Z" fill="#0071CE"/>
</g>
<defs>
<filter id="filter0_d_976_9032" x="0.5" y="0" width="40.7244" height="55.9531" filterUnits="userSpaceOnUse" color-interpolation-filters="sRGB">
<feFlood flood-opacity="0" result="BackgroundImageFix"/>
<feColorMatrix in="SourceAlpha" type="matrix" values="0 0 0 0 0 0 0 0 0 0 0 0 0 0 0 0 0 0 127 0" result="hardAlpha"/>
<feOffset dy="2"/>
<feGaussianBlur stdDeviation="1"/>
<feComposite in2="hardAlpha" operator="out"/>
<feColorMatrix type="matrix" values="0 0 0 0 0 0 0 0 0 0 0 0 0 0 0 0 0 0 0.25 0"/>
<feBlend mode="normal" in2="BackgroundImageFix" result="effect1_dropShadow_976_9032"/>
<feBlend mode="normal" in="SourceGraphic" in2="effect1_dropShadow_976_9032" result="shape"/>
</filter>
<filter id="filter1_d_976_9032" x="2.37329" y="2.125" width="36.9707" height="51.3828" filterUnits="userSpaceOnUse" color-interpolation-filters="sRGB">
<feFlood flood-opacity="0" result="BackgroundImageFix"/>
<feColorMatrix in="SourceAlpha" type="matrix" values="0 0 0 0 0 0 0 0 0 0 0 0 0 0 0 0 0 0 127 0" result="hardAlpha"/>
<feOffset dy="2"/>
<feGaussianBlur stdDeviation="1"/>
<feComposite in2="hardAlpha" operator="out"/>
<feColorMatrix type="matrix" values="0 0 0 0 0 0 0 0 0 0 0 0 0 0 0 0 0 0 0.46 0"/>
<feBlend mode="normal" in2="BackgroundImageFix" result="effect1_dropShadow_976_9032"/>
<feBlend mode="normal" in="SourceGraphic" in2="effect1_dropShadow_976_9032" result="shape"/>
</filter>
</defs>
</svg>
