<svg width="270" height="270" viewBox="0 0 270 270" fill="none" xmlns="http://www.w3.org/2000/svg">
<path d="M225.768 133.769C175.311 104.636 93.7709 104.636 43.6373 133.769C-6.49629 162.902 -6.22629 210.135 44.2313 239.268C94.6889 268.401 176.229 268.428 226.362 239.268C276.496 210.108 276.226 162.902 225.768 133.769Z" fill="#F5F5F5"/>
<path d="M215.417 186.397L173.297 162.097L122.121 191.629C121.816 191.806 121.563 192.059 121.387 192.364C121.211 192.67 121.118 193.016 121.118 193.368C121.118 193.72 121.211 194.067 121.387 194.372C121.563 194.677 121.816 194.93 122.121 195.107L135.945 203.077C127.429 202.062 118.239 203.461 111.645 207.289C101.245 213.332 101.299 223.127 111.764 229.17C122.229 235.213 139.147 235.213 149.564 229.17C156.152 225.341 158.539 219.99 156.746 215.071L159.257 216.523C160.782 217.403 162.511 217.866 164.271 217.866C166.031 217.866 167.76 217.403 169.285 216.523L215.428 189.885C215.735 189.708 215.99 189.454 216.166 189.147C216.343 188.84 216.436 188.492 216.435 188.138C216.434 187.784 216.339 187.436 216.16 187.13C215.981 186.824 215.725 186.571 215.417 186.397Z" fill="#E0E0E0"/>
<path d="M219.634 231.357L191.554 215.157C191.364 215.049 191.205 214.892 191.094 214.702C190.984 214.513 190.926 214.297 190.926 214.077C190.926 213.858 190.984 213.642 191.094 213.453C191.205 213.263 191.364 213.106 191.554 212.997L216.297 198.569C216.487 198.46 216.702 198.402 216.921 198.402C217.14 198.402 217.355 198.46 217.545 198.569L246.267 215.152C246.458 215.26 246.617 215.417 246.727 215.607C246.838 215.797 246.896 216.013 246.896 216.232C246.896 216.452 246.838 216.667 246.727 216.857C246.617 217.047 246.458 217.204 246.267 217.312L222.124 231.352C221.746 231.572 221.317 231.688 220.88 231.689C220.443 231.69 220.013 231.576 219.634 231.357Z" fill="#E0E0E0"/>
<g opacity="0.1">
<path d="M29.5115 206.814C28.1669 207.586 28.1615 208.844 29.5115 209.616L34.9925 212.781C35.7445 213.166 36.5774 213.367 37.4225 213.367C38.2675 213.367 39.1004 213.166 39.8525 212.781L99.9491 178.048C101.288 177.276 101.299 176.018 99.9491 175.24L94.5005 172.108C93.7479 171.724 92.9152 171.524 92.0705 171.524C91.2258 171.524 90.393 171.724 89.6405 172.108L29.5115 206.814Z" fill="#E0E0E0"/>
</g>
<g opacity="0.1">
<path d="M46.3757 211.798C45.0311 212.57 45.0257 213.829 46.3757 214.601L51.8405 217.765C52.5923 218.151 53.4253 218.353 54.2705 218.353C55.1157 218.353 55.9487 218.151 56.7005 217.765L108.049 188.108C109.388 187.336 109.399 186.078 108.049 185.3L102.568 182.136C101.815 181.753 100.983 181.554 100.138 181.554C99.2936 181.554 98.461 181.753 97.7081 182.136L46.3757 211.798Z" fill="#E0E0E0"/>
</g>
<path d="M95.8234 36.2393C95.4022 34.7651 92.416 31.9679 89.4406 32.0273C89.1545 32.0339 88.8715 32.0887 88.6036 32.1893L30.8236 65.0699C29.9813 65.5605 29.2808 66.2612 28.7905 67.1036C28.3002 67.946 28.0369 68.9013 28.0264 69.8759V194.886C28.0264 198.072 31.6984 201.107 35.149 199.649C35.2258 199.626 35.3 199.595 35.3704 199.557L93.1504 166.617C93.9972 166.132 94.7009 165.433 95.1902 164.589C95.6795 163.745 95.9371 162.786 95.9368 161.811V36.8387C95.9446 36.6329 95.9059 36.428 95.8234 36.2393Z" fill="#455A64"/>
<path d="M36.083 83.0845C36.082 82.5965 36.2105 82.117 36.4552 81.6949C36.7 81.2728 37.0523 80.9231 37.4762 80.6815L91.1414 50.1499C91.3519 50.0296 91.5904 49.9668 91.8329 49.9678C92.0753 49.9688 92.3133 50.0335 92.5228 50.1555C92.7323 50.2775 92.9061 50.4525 93.0266 50.6629C93.1472 50.8732 93.2103 51.1116 93.2096 51.3541V152.161C93.2078 152.649 93.0777 153.128 92.8322 153.55C92.5867 153.972 92.2345 154.322 91.811 154.564L38.1458 185.144C37.9354 185.263 37.6975 185.325 37.4559 185.323C37.2142 185.322 36.9772 185.257 36.7685 185.135C36.5598 185.013 36.3866 184.839 36.2664 184.629C36.1461 184.419 36.0829 184.182 36.083 183.94V83.0845Z" fill="#0071CE"/>
<path opacity="0.2" d="M36.083 83.0845C36.082 82.5965 36.2105 82.117 36.4552 81.6949C36.7 81.2728 37.0523 80.9231 37.4762 80.6815L91.1414 50.1499C91.3519 50.0296 91.5904 49.9668 91.8329 49.9678C92.0753 49.9688 92.3133 50.0335 92.5228 50.1555C92.7323 50.2775 92.9061 50.4525 93.0266 50.6629C93.1472 50.8732 93.2103 51.1116 93.2096 51.3541V152.161C93.2078 152.649 93.0777 153.128 92.8322 153.55C92.5867 153.972 92.2345 154.322 91.811 154.564L38.1458 185.144C37.9354 185.263 37.6975 185.325 37.4559 185.323C37.2142 185.322 36.9772 185.257 36.7685 185.135C36.5598 185.013 36.3866 184.839 36.2664 184.629C36.1461 184.419 36.0829 184.182 36.083 183.94V83.0845Z" fill="black"/>
<path opacity="0.3" d="M28.0156 69.8709V194.886C28.0156 198.072 31.6876 201.107 35.1382 199.649C34.9308 199.725 34.7083 199.749 34.4894 199.72C34.2706 199.692 34.062 199.61 33.8812 199.484C33.7004 199.357 33.5529 199.189 33.4512 198.993C33.3495 198.797 33.2965 198.579 33.2968 198.359V73.3269C33.3009 72.2392 33.6238 71.1766 34.2256 70.2705L28.6204 67.4463C28.2345 68.197 28.0275 69.0268 28.0156 69.8709Z" fill="black"/>
<path opacity="0.1" d="M89.4457 32.0224C89.1596 32.029 88.8766 32.0838 88.6087 32.1844L30.8287 65.065C29.8703 65.6193 29.1008 66.4491 28.6201 67.4464L34.2739 70.2706C34.7508 69.5508 35.3886 68.9519 36.1369 68.521L93.9061 35.6404C94.0698 35.547 94.251 35.4884 94.4384 35.4681C94.6257 35.4478 94.8153 35.4664 94.9951 35.5227C95.175 35.5789 95.3414 35.6716 95.4838 35.795C95.6263 35.9184 95.7418 36.0698 95.8231 36.2398C95.4073 34.7602 92.4211 31.963 89.4457 32.0224Z" fill="white"/>
<path d="M71.7663 56.2846C72.1713 56.047 72.5115 56.2306 72.5115 56.695C72.4985 56.9517 72.4247 57.2016 72.2961 57.4242C72.1674 57.6467 71.9877 57.8354 71.7717 57.9748L60.4317 64.525C60.0267 64.7572 59.6973 64.5628 59.6973 64.093C59.7115 63.84 59.7849 63.5939 59.9115 63.3745C60.0381 63.155 60.2144 62.9683 60.4263 62.8294L71.7663 56.2846Z" fill="#263238"/>
<path d="M57.5162 64.5085C57.9212 64.2763 58.2506 64.4653 58.2506 64.9297C58.238 65.1845 58.1654 65.4327 58.0387 65.6542C57.912 65.8757 57.7348 66.0641 57.5216 66.2041C57.1166 66.4363 56.7764 66.2473 56.7764 65.7775C56.791 65.5226 56.8656 65.2748 56.9942 65.0543C57.1227 64.8338 57.3016 64.6468 57.5162 64.5085Z" fill="#263238"/>
<path d="M64.8004 55.3286C65.6104 54.8642 66.2638 55.2368 66.2692 56.1656C66.244 56.6753 66.0988 57.1718 65.8455 57.6147C65.5921 58.0576 65.2377 58.4344 64.8112 58.7144C64.0012 59.1842 63.3262 58.8008 63.3262 57.8666C63.3548 57.3574 63.5032 56.8621 63.7594 56.4211C64.0156 55.9801 64.3722 55.6058 64.8004 55.3286Z" fill="#263238"/>
<path d="M64.8008 173.022C66.4532 172.066 67.787 172.827 67.7924 174.728C67.7387 175.765 67.4419 176.774 66.926 177.675C66.41 178.575 65.6894 179.342 64.8224 179.912C63.17 180.868 61.7984 180.085 61.793 178.19C61.8525 177.152 62.1559 176.144 62.6785 175.246C63.2011 174.348 63.9283 173.586 64.8008 173.022Z" fill="#263238"/>
<path d="M106.38 57.683C105.996 56.3438 103.285 53.8004 100.585 53.8544C100.325 53.8624 100.068 53.9135 99.824 54.0056L47.39 83.8514C46.6245 84.2952 45.9882 84.9312 45.544 85.6965C45.0998 86.4617 44.8631 87.3297 44.8574 88.2146V201.685C44.8574 204.579 48.1892 207.339 51.3374 206.005C51.4084 205.985 51.4772 205.958 51.5426 205.924L104.004 176.04C104.773 175.601 105.413 174.966 105.858 174.2C106.302 173.433 106.537 172.563 106.536 171.677V58.277C106.536 58.0688 106.482 57.8643 106.38 57.683Z" fill="#0071CE"/>
<path opacity="0.2" d="M44.8575 88.2149V201.685C44.8575 204.58 48.1893 207.339 51.3375 206.005C51.1491 206.071 50.9477 206.09 50.7503 206.062C50.5528 206.034 50.365 205.959 50.2026 205.843C50.0402 205.727 49.908 205.574 49.817 205.396C49.726 205.219 49.6789 205.022 49.6797 204.823V91.3469C49.6767 90.3565 49.9659 89.3873 50.5113 88.5605L45.3597 86.0117C45.0265 86.6982 44.8547 87.4518 44.8575 88.2149Z" fill="white"/>
<path opacity="0.4" d="M100.613 53.8544C100.352 53.8624 100.095 53.9135 99.8512 54.0056L47.3902 83.8514C46.517 84.3527 45.8151 85.1054 45.376 86.0114L50.5114 88.5602C50.9417 87.905 51.5208 87.361 52.2016 86.9726L104.663 57.1268C104.811 57.0424 104.975 56.9894 105.145 56.971C105.314 56.9527 105.486 56.9693 105.649 57.0199C105.812 57.0705 105.963 57.154 106.092 57.2653C106.222 57.3766 106.327 57.5132 106.401 57.6668C106.023 56.3438 103.313 53.8004 100.613 53.8544Z" fill="white"/>
<path opacity="0.3" d="M106.38 57.6824C105.996 56.3486 103.285 53.8052 100.585 53.8592C100.325 53.8673 100.068 53.9184 99.824 54.0104L47.39 83.8508C46.6245 84.2947 45.9882 84.9307 45.544 85.6959C45.0998 86.4612 44.8631 87.3292 44.8574 88.214V201.684C44.8574 204.579 48.1892 207.338 51.3374 206.004C51.4084 205.984 51.4772 205.957 51.5426 205.923L104.004 176.04C104.773 175.6 105.413 174.965 105.858 174.199C106.302 173.433 106.537 172.562 106.536 171.676V58.2764C106.536 58.0683 106.482 57.8638 106.38 57.6824Z" fill="white"/>
<g opacity="0.4">
<path d="M98.2799 78.5325C100.515 77.2419 102.335 78.2787 102.341 80.8491L102.47 126.722C102.397 128.122 101.993 129.486 101.292 130.7C100.591 131.914 99.6124 132.946 98.4365 133.71L58.4873 156.762C56.2517 158.053 54.4319 157.011 54.4265 154.446L54.2969 108.573C54.3696 107.173 54.7719 105.811 55.471 104.597C56.1702 103.383 57.1463 102.351 58.3199 101.585L98.2799 78.5325Z" fill="white"/>
</g>
<path d="M95.0832 97.459C95.175 97.9342 95.5638 98.0692 95.9958 97.8694L96.1362 97.7938L96.2604 97.7074C96.4474 97.5547 96.608 97.3723 96.7356 97.1674L98.4204 94.5916C99.1396 93.5494 99.5496 92.3251 99.603 91.06L99.5706 78.2998L95.04 80.9134L95.0886 97.2376C95.0809 97.3111 95.0791 97.3852 95.0832 97.459Z" fill="#0071CE"/>
<path opacity="0.3" d="M95.0832 97.459C95.175 97.9342 95.5638 98.0692 95.9958 97.8694L96.1362 97.7938L96.2604 97.7074C96.4474 97.5547 96.608 97.3723 96.7356 97.1674L98.4204 94.5916C99.1396 93.5494 99.5496 92.3251 99.603 91.06L99.5706 78.2998L95.04 80.9134L95.0886 97.2376C95.0809 97.3111 95.0791 97.3852 95.0832 97.459Z" fill="black"/>
<path d="M92.8799 127.402L99.0899 123.93C99.0899 123.881 99.0899 121.509 99.1061 121.5L92.8799 125.01V127.402Z" fill="#37474F"/>
<path d="M58.3193 144.385L98.8193 120.15C98.8193 120.15 98.8193 111.089 98.8193 110.16L58.3193 134.466L58.3193 144.385Z" fill="#37474F"/>
<path d="M99.5812 64.8002C101.601 63.6338 103.242 64.568 103.248 66.8846C103.181 68.149 102.817 69.3799 102.184 70.4768C101.552 71.5738 100.669 72.5059 99.6082 73.1972L57.1642 97.7024C55.1446 98.8688 53.4976 97.9292 53.4922 95.6126C53.5595 94.3484 53.9248 93.118 54.5583 92.0219C55.1918 90.9257 56.0754 89.9949 57.1372 89.3054L99.5812 64.8002Z" fill="white"/>
<path d="M102.767 163.317L91.7939 169.646L91.7993 171.326L102.767 164.991V163.317Z" fill="white"/>
<path d="M88.3872 169.911L102.762 161.611L102.757 159.932L88.3818 168.231L88.3872 169.911Z" fill="white"/>
<path d="M82.9761 169.647L102.751 158.231L102.746 156.552L82.9707 167.973L82.9761 169.647Z" fill="white"/>
<path d="M91.1197 153.878L90.2287 152.323L89.3431 154.904L87.3613 156.384L88.8031 157.162L88.4683 159.629L90.2395 157.529L92.0161 157.577L91.6705 155.504L93.1069 153.068L91.1197 153.878Z" fill="#0071CE"/>
<path d="M93.6193 140.768L55.5547 162.746L55.5601 165.845L93.6301 143.873L93.6193 140.768Z" fill="white"/>
<path d="M79.3633 176.823L79.3687 178.502L89.0995 172.886L89.0941 171.207L79.3633 176.823Z" fill="white"/>
<path d="M70.54 176.823L80.2708 171.207L80.2654 169.527L70.54 175.149V176.823Z" fill="white"/>
<path d="M55.6357 190.528V192.208L76.1719 180.349V178.67L55.6357 190.528Z" fill="white"/>
<path d="M55.6416 193.908L55.647 195.588L67.392 188.805V187.126L55.6416 193.908Z" fill="white"/>
<path d="M85.7894 169.728L55.625 187.143L55.6304 188.822L85.7948 171.407L85.7894 169.728Z" fill="white"/>
<path d="M67.3593 176.985L55.6143 183.762L55.6197 185.442L67.3647 178.659L67.3593 176.985Z" fill="white"/>
<path d="M56.6993 177.973L58.4705 175.873L60.2471 175.921L59.9015 173.848L61.3325 171.412L59.3453 172.222L58.4543 170.667L57.5741 173.248L55.5869 174.728L57.0287 175.505L56.6993 177.973Z" fill="#0071CE"/>
<path d="M82.2952 162.119L84.0718 162.167L83.7316 160.088L85.1626 157.653L83.1754 158.468L82.279 156.913L81.3988 159.489L79.417 160.968L80.8588 161.746L80.524 164.214L82.2952 162.119Z" fill="#0071CE"/>
<path d="M67.2887 167.638L66.3977 166.083L65.5175 168.664L63.5303 170.138L64.9721 170.916L64.6427 173.384L66.4139 171.289L68.1905 171.337L67.8449 169.258L69.2759 166.823L67.2887 167.638Z" fill="#0071CE"/>
<path d="M84.8987 151.2L55.5713 168.135L55.5767 170.068L84.9041 153.133L84.8987 151.2Z" fill="white"/>
<path d="M75.232 163.053L74.341 161.498L73.4554 164.079L71.4736 165.553L72.9154 166.331L72.5806 168.799L74.3572 166.704L76.1338 166.752L75.7828 164.673L77.2192 162.238L75.232 163.053Z" fill="#0071CE"/>
<path opacity="0.2" d="M56.6993 177.973L58.4705 175.873L60.2471 175.921L59.9015 173.848L61.3325 171.412L59.3453 172.222L58.4543 170.667L57.5741 173.248L55.5869 174.728L57.0287 175.505L56.6993 177.973Z" fill="black"/>
<path opacity="0.2" d="M82.2952 162.119L84.0718 162.167L83.7316 160.088L85.1626 157.653L83.1754 158.468L82.279 156.913L81.3988 159.489L79.417 160.968L80.8588 161.746L80.524 164.214L82.2952 162.119Z" fill="black"/>
<path opacity="0.2" d="M67.2887 167.638L66.3977 166.083L65.5175 168.664L63.5303 170.138L64.9721 170.916L64.6427 173.384L66.4139 171.289L68.1905 171.337L67.8449 169.258L69.2759 166.823L67.2887 167.638Z" fill="black"/>
<path opacity="0.2" d="M75.232 163.053L74.341 161.498L73.4554 164.079L71.4736 165.553L72.9154 166.331L72.5806 168.799L74.3572 166.704L76.1338 166.752L75.7828 164.673L77.2192 162.238L75.232 163.053Z" fill="black"/>
<path d="M78.5586 109.982L76.0044 113.26L77.1654 115.777L74.19 117.937L74.1252 121.43L71.247 122.105L69.9672 125.961L67.683 125.032L65.4096 128.591L64.1136 126.226L61.2408 128.866L61.1598 125.464L58.179 126.739L59.3238 122.888L56.7588 122.57L58.9296 118.941L57.2178 117.083L60.0474 114.302L59.4858 111.235L62.4774 109.783L63.1632 106.024L65.8038 106.154L67.6182 102.363L69.4488 104.048L72.0786 100.878L72.786 103.832L75.7776 101.828L75.2322 105.538L78.0672 105.047L76.3716 108.87L78.5586 109.982Z" fill="#0071CE"/>
<g opacity="0.1">
<path d="M78.5586 109.982L76.0044 113.26L77.1654 115.777L74.19 117.937L74.1252 121.43L71.247 122.105L69.9672 125.961L67.683 125.032L65.4096 128.591L64.1136 126.226L61.2408 128.866L61.1598 125.464L58.179 126.739L59.3238 122.888L56.7588 122.57L58.9296 118.941L57.2178 117.083L60.0474 114.302L59.4858 111.235L62.4774 109.783L63.1632 106.024L65.8038 106.154L67.6182 102.363L69.4488 104.048L72.0786 100.878L72.786 103.832L75.7776 101.828L75.2322 105.538L78.0672 105.047L76.3716 108.87L78.5586 109.982Z" fill="black"/>
</g>
<path d="M66.6829 111.544C67.9059 110.89 68.5712 111.307 68.5779 112.653V117.015C68.5996 117.644 68.4359 118.266 68.1043 118.815C67.7727 119.364 67.2859 119.819 66.6963 120.13C65.4732 120.753 64.808 120.367 64.8012 119.021V114.659C64.7825 114.031 64.9475 113.41 65.2787 112.861C65.61 112.313 66.0952 111.858 66.6829 111.544ZM67.3549 117.775V113.226C67.3549 112.603 67.1062 112.522 66.6829 112.734C66.4621 112.851 66.2818 113.024 66.1629 113.233C66.0439 113.441 65.9912 113.677 66.0108 113.912V118.46C66.0108 119.083 66.2662 119.164 66.6829 118.953C66.9036 118.835 67.0839 118.663 67.2028 118.454C67.3218 118.246 67.3745 118.01 67.3549 117.775Z" fill="white"/>
<path d="M64.0865 113.4V114.543L62.1924 115.638L62.1103 117.592C62.2858 117.121 62.617 116.724 63.0486 116.468C63.8461 116.003 64.2507 116.415 64.2566 117.586V119.353C64.2817 119.944 64.1446 120.532 63.8603 121.051C63.5759 121.57 63.1552 122.001 62.6439 122.296C61.5766 122.914 61.0254 122.508 61.0195 121.231V120.571L62.0458 119.983V120.724C62.0458 121.313 62.2686 121.372 62.6322 121.172C62.8229 121.062 62.979 120.9 63.0827 120.706C63.1864 120.511 63.2335 120.291 63.2186 120.071V118.305C63.2186 117.716 63.0017 117.645 62.6322 117.845C62.4405 117.956 62.2838 118.118 62.1801 118.314C62.0763 118.51 62.0298 118.731 62.0458 118.952V119.194L61.0254 119.782L61.2072 115.072L64.0865 113.4Z" fill="white"/>
<path d="M72.8196 107.844L73.4392 107.46L70.8245 117.336L70.1992 117.72L72.8196 107.844Z" fill="white"/>
<path d="M73.4426 111.439C74.1434 111.016 74.518 111.275 74.518 112.153V114.966C74.5322 115.373 74.4395 115.776 74.2498 116.132C74.0602 116.487 73.781 116.782 73.4426 116.983C72.7418 117.406 72.3612 117.141 72.3612 116.268V113.456C72.3448 113.048 72.4373 112.643 72.6283 112.287C72.8193 111.931 73.1012 111.637 73.4426 111.439ZM73.8172 115.453V112.52C73.8172 112.147 73.6722 112.071 73.4487 112.204C73.3251 112.281 73.2252 112.393 73.1609 112.528C73.0966 112.662 73.0707 112.813 73.0862 112.963V115.895C73.0862 116.275 73.2191 116.35 73.4547 116.211C73.5768 116.133 73.6754 116.02 73.7395 115.886C73.8035 115.752 73.8305 115.602 73.8172 115.453Z" fill="white"/>
<path d="M71.2787 111.927C71.2929 112.296 71.2002 112.663 71.0105 112.986C70.8209 113.309 70.5416 113.577 70.2031 113.759C69.5022 114.144 69.1276 113.909 69.1215 113.104V110.554C69.1073 110.184 69.2001 109.817 69.3897 109.494C69.5794 109.171 69.8586 108.904 70.1971 108.721C70.898 108.336 71.2727 108.572 71.2727 109.37L71.2787 111.927ZM69.8345 112.771C69.8345 113.116 69.9675 113.191 70.2031 113.058C70.3252 112.987 70.4239 112.885 70.488 112.763C70.552 112.641 70.579 112.505 70.5657 112.369V109.709C70.5657 109.364 70.4207 109.295 70.1971 109.422C70.073 109.491 69.9726 109.593 69.9083 109.715C69.8439 109.838 69.8183 109.975 69.8345 110.111V112.771Z" fill="white"/>
<path opacity="0.3" d="M101.93 88.2141C101.929 87.6394 102.03 87.0691 102.227 86.5293C102.03 87.0691 101.929 87.6394 101.93 88.2141Z" fill="white"/>
<path d="M189.982 56.3261C189.982 35.9304 178.576 17.6148 163.459 8.88983C155.858 4.49925 149.202 3.61101 144.452 6.3994L131.702 13.7077C131.471 13.837 131.241 13.9719 131.016 14.1181L131.156 14.0225L130.948 14.1462C126.485 17.0301 123.809 23.3152 123.809 33.1926C123.809 53.7795 135.221 71.8984 150.338 80.6289C157.933 85.0139 164.589 85.9471 169.339 83.1812L182.168 75.8448C182.314 75.7661 182.46 75.6818 182.606 75.5918L182.831 75.4625C187.306 72.5842 189.982 66.2878 189.982 56.3261Z" fill="#0071CE"/>
<path opacity="0.5" d="M168.195 82.5966C179.033 76.9163 179.824 57.0587 169.963 38.2433C160.101 19.428 143.321 8.77984 132.484 14.4601C121.646 20.1404 120.855 39.998 130.716 58.8134C140.578 77.6287 157.358 88.2768 168.195 82.5966Z" fill="#99D1F3"/>
<path d="M156.618 52.1439C156.618 41.1084 153.481 36.0039 150.338 34.1881C147.196 32.3722 144.064 33.862 144.064 44.8694C144.064 55.8768 147.201 61.0094 150.338 62.8252C153.475 64.6411 156.618 63.1794 156.618 52.1439Z" fill="#0071CE"/>
<path opacity="0.3" d="M156.618 52.1439C156.618 41.1084 153.481 36.0039 150.338 34.1881C147.196 32.3722 144.064 33.862 144.064 44.8694C144.064 55.8768 147.201 61.0094 150.338 62.8252C153.475 64.6411 156.618 63.1794 156.618 52.1439Z" fill="black"/>
<path d="M263.453 152.789C263.453 132.366 252.04 114.084 236.918 105.353C229.323 100.968 222.661 100.074 217.916 102.863L205.172 110.171C204.936 110.295 204.705 110.43 204.481 110.576L204.621 110.486L204.413 110.604C199.949 113.482 197.273 119.767 197.273 129.645C197.273 150.232 208.686 168.35 223.802 177.081C231.397 181.466 238.054 182.399 242.804 179.639L255.655 172.303L256.094 172.05L256.319 171.92C260.771 169.048 263.453 162.757 263.453 152.789Z" fill="#0071CE"/>
<path opacity="0.5" d="M241.655 179.068C252.493 173.388 253.284 153.53 243.423 134.715C233.561 115.9 216.781 105.252 205.944 110.932C195.106 116.612 194.315 136.47 204.176 155.285C214.038 174.1 230.818 184.749 241.655 179.068Z" fill="#99D1F3"/>
<path d="M230.083 148.607C230.083 137.572 226.946 132.467 223.803 130.657C220.661 128.847 217.529 130.325 217.529 141.338C217.529 152.351 220.666 157.484 223.803 159.294C226.94 161.105 230.083 159.648 230.083 148.607Z" fill="#0071CE"/>
<path opacity="0.3" d="M230.083 148.607C230.083 137.572 226.946 132.467 223.803 130.657C220.661 128.847 217.529 130.325 217.529 141.338C217.529 152.351 220.666 157.484 223.803 159.294C226.94 161.105 230.083 159.648 230.083 148.607Z" fill="black"/>
<path d="M222.083 44.3857L208.967 51.8964L140.781 127.829L164.893 141.749L178.003 134.232L246.189 58.2996L222.083 44.3857Z" fill="#0071CE"/>
<path opacity="0.3" d="M233.073 65.8151L164.893 141.748L178.002 134.232L246.189 58.2988L233.073 65.8151Z" fill="black"/>
<path opacity="0.5" d="M208.967 51.8965L233.073 65.8159L164.893 141.749L140.781 127.829L208.967 51.8965Z" fill="#99D1F3"/>
<path d="M172.152 193.017L203.726 174.549C204.729 173.963 205.485 173.035 205.855 171.935C206.225 170.835 206.185 169.638 205.74 168.565L204.12 164.731L204.979 166.789C205.387 167.772 205.422 168.871 205.076 169.878C204.729 170.884 204.027 171.73 203.1 172.254L168.767 191.694C168.867 192.029 169.042 192.338 169.28 192.596C169.517 192.853 169.81 193.054 170.137 193.181C170.463 193.309 170.814 193.36 171.164 193.332C171.513 193.303 171.851 193.195 172.152 193.017Z" fill="#37474F"/>
<path d="M203.456 154.622L200.637 156.318L204.12 164.731L205.74 168.559C206.185 169.631 206.228 170.827 205.859 171.926C205.491 173.026 204.737 173.956 203.737 174.543L172.163 193.011C171.862 193.186 171.525 193.292 171.178 193.318C170.83 193.345 170.482 193.293 170.157 193.166C169.833 193.038 169.542 192.839 169.306 192.583C169.069 192.327 168.894 192.021 168.793 191.688L166.558 192.951L124.168 168.451L122.796 182.81L125.021 183.139L125.188 182.167C125.253 181.781 125.411 181.417 125.648 181.105C125.885 180.792 126.193 180.542 126.548 180.375C126.902 180.208 127.291 180.129 127.683 180.145C128.074 180.161 128.456 180.271 128.795 180.466L160.029 198.448C161.304 199.183 162.341 200.27 163.016 201.577C163.691 202.885 163.976 204.36 163.836 205.825L163.728 206.937H165.98L166.439 204.21C166.628 203.096 167.061 202.036 167.707 201.108C168.353 200.18 169.196 199.407 170.176 198.843L206.28 178.058C206.623 177.86 207.004 177.735 207.397 177.692C207.791 177.648 208.19 177.686 208.568 177.804C208.946 177.921 209.296 178.116 209.596 178.375C209.895 178.635 210.138 178.953 210.308 179.311L213.727 186.487C213.727 186.487 214.844 187.087 215.282 186.007L203.456 154.622Z" fill="#455A64"/>
<path d="M163.312 119.23L129.384 145.507C128.348 146.308 127.488 147.313 126.856 148.46C126.224 149.607 125.835 150.872 125.712 152.176L121.905 192.049C122.115 192.245 122.384 192.364 122.67 192.39C122.955 192.415 123.241 192.345 123.482 192.19L130.243 152.16C130.358 151.476 130.62 150.826 131.011 150.254C131.401 149.681 131.911 149.2 132.505 148.844L162.492 130.878C166.407 128.551 167.098 120.278 163.312 119.23Z" fill="#455A64"/>
<path opacity="0.3" d="M163.312 119.23L129.384 145.507C128.348 146.308 127.488 147.313 126.856 148.46C126.224 149.607 125.835 150.872 125.712 152.176L121.905 192.049C122.115 192.245 122.384 192.364 122.67 192.39C122.955 192.415 123.241 192.345 123.482 192.19L130.243 152.16C130.358 151.476 130.62 150.826 131.011 150.254C131.401 149.681 131.911 149.2 132.505 148.844L162.492 130.878C166.407 128.551 167.098 120.278 163.312 119.23Z" fill="white"/>
<path d="M202.17 164.596C202.017 164.191 201.727 163.853 201.35 163.641L167.33 143.995C166.609 143.579 165.791 143.359 164.959 143.359C164.127 143.359 163.309 143.579 162.588 143.995L128.822 163.651C128.445 163.87 128.157 164.214 128.007 164.623C127.035 166.411 126.711 170.477 128.061 173.069C128.241 173.406 128.508 173.689 128.833 173.89L162.853 193.53C163.573 193.946 164.389 194.166 165.221 194.166C166.052 194.166 166.869 193.946 167.589 193.53L201.36 173.901C201.695 173.71 201.961 173.419 202.122 173.069C203.466 170.45 203.142 166.384 202.17 164.596Z" fill="#0071CE"/>
<path opacity="0.3" d="M202.17 164.596C202.017 164.191 201.727 163.853 201.35 163.641L167.33 143.995C166.609 143.579 165.791 143.359 164.959 143.359C164.127 143.359 163.309 143.579 162.588 143.995L128.822 163.651C128.445 163.87 128.157 164.214 128.007 164.623C127.035 166.411 126.711 170.477 128.061 173.069C128.241 173.406 128.508 173.689 128.833 173.89L162.853 193.53C163.573 193.946 164.389 194.166 165.221 194.166C166.052 194.166 166.869 193.946 167.589 193.53L201.36 173.901C201.695 173.71 201.961 173.419 202.122 173.069C203.466 170.45 203.142 166.384 202.17 164.596Z" fill="white"/>
<path opacity="0.3" d="M202.17 164.596C202.331 165.015 202.338 165.478 202.188 165.901C202.039 166.325 201.743 166.681 201.355 166.907L167.583 186.536C166.864 186.953 166.047 187.172 165.216 187.172C164.384 187.172 163.567 186.953 162.848 186.536L128.828 166.896C128.439 166.673 128.143 166.319 127.993 165.897C127.842 165.476 127.847 165.014 128.007 164.596C127.035 166.383 126.711 170.449 128.061 173.041C128.241 173.378 128.508 173.662 128.833 173.862L162.853 193.502C163.573 193.919 164.389 194.138 165.221 194.138C166.052 194.138 166.869 193.919 167.589 193.502L201.36 173.873C201.695 173.682 201.961 173.391 202.122 173.041C203.466 170.449 203.142 166.383 202.17 164.596Z" fill="black"/>
<path d="M204.984 127.271L172.8 108.706C172.513 108.543 172.191 108.452 171.861 108.441H171.72C168.783 108.441 166.482 110.223 164.771 112.275C164.744 112.302 164.721 112.331 164.7 112.362C164.527 112.574 164.4 112.821 164.328 113.085L155.094 147.451C154.833 148.423 154.9 149.453 155.285 150.383C155.669 151.312 156.35 152.089 157.221 152.592L189.384 171.211C189.727 171.409 190.123 171.497 190.518 171.465C194.195 171.087 196.366 168.808 197.451 167.609C197.658 167.377 197.808 167.1 197.889 166.799L207.112 132.434C207.376 131.459 207.311 130.424 206.926 129.491C206.541 128.557 205.859 127.777 204.984 127.271Z" fill="#0071CE"/>
<path opacity="0.2" d="M204.984 127.271L172.8 108.706C172.513 108.543 172.191 108.452 171.861 108.441H171.72C168.783 108.441 166.482 110.223 164.771 112.275C164.744 112.302 164.721 112.331 164.7 112.362C164.527 112.574 164.4 112.821 164.328 113.085L155.094 147.451C154.833 148.423 154.9 149.453 155.285 150.383C155.669 151.312 156.35 152.089 157.221 152.592L189.384 171.211C189.727 171.409 190.123 171.497 190.518 171.465C194.195 171.087 196.366 168.808 197.451 167.609C197.658 167.377 197.808 167.1 197.889 166.799L207.112 132.434C207.376 131.459 207.311 130.424 206.926 129.491C206.541 128.557 205.859 127.777 204.984 127.271Z" fill="white"/>
<path opacity="0.1" d="M204.984 127.271L172.8 108.706C172.513 108.543 172.191 108.452 171.861 108.441H171.72C168.783 108.441 166.482 110.223 164.771 112.275C165.072 111.948 165.476 111.733 165.916 111.666C166.355 111.6 166.805 111.685 167.19 111.908L199.352 130.479C200.271 131.007 200.976 131.84 201.345 132.833L206.961 129.593C206.585 128.617 205.888 127.798 204.984 127.271Z" fill="black"/>
<path opacity="0.2" d="M201.344 132.839C201.681 133.731 201.728 134.706 201.479 135.626L192.24 169.997C192.134 170.387 191.91 170.735 191.599 170.993C191.288 171.251 190.904 171.407 190.501 171.438C194.178 171.06 196.349 168.782 197.435 167.583C197.641 167.351 197.791 167.073 197.872 166.773L207.095 132.407C207.347 131.474 207.294 130.484 206.944 129.583L201.344 132.839Z" fill="black"/>
<path d="M147.048 204.81L148.419 207.51C150.363 205.711 150.714 204.27 150.714 204.27C150.088 202.045 149.354 199.782 148.992 198.681C148.803 200.214 147.761 201.532 147.318 203.028C147.154 203.608 147.063 204.207 147.048 204.81Z" fill="#0071CE"/>
<path opacity="0.2" d="M147.048 204.81L148.419 207.51C150.363 205.711 150.714 204.27 150.714 204.27C150.088 202.045 149.354 199.782 148.992 198.681C148.803 200.214 147.761 201.532 147.318 203.028C147.154 203.608 147.063 204.207 147.048 204.81Z" fill="black"/>
<path d="M147.112 207.597L148.419 207.532L147.047 204.832C147.004 205.728 147.08 206.668 147.112 207.597Z" fill="#0071CE"/>
<path d="M148.105 195.478C147.632 194.792 147.089 194.157 146.485 193.583C146.828 194.772 146.828 196.034 146.485 197.223C146.075 198.799 145.335 200.279 144.963 201.872C144.514 203.805 144.617 205.884 143.796 207.693C143.39 208.573 142.783 209.346 142.026 209.95C141.269 210.555 140.381 210.975 139.433 211.176C138.735 211.367 137.99 211.276 137.359 210.922C137.089 210.735 136.888 210.464 136.787 210.15C136.377 211.012 135.878 211.829 135.297 212.586C134.649 213.423 133.844 214.341 134.022 215.383C134.13 215.809 134.361 216.194 134.685 216.49C135.01 216.787 135.414 216.982 135.847 217.051C136.718 217.176 137.606 217.102 138.445 216.835C140.286 216.437 142.044 215.721 143.64 214.719C145.242 213.697 146.414 212.124 146.934 210.296C147.124 209.409 147.193 208.501 147.139 207.596C147.106 206.667 147.031 205.728 147.074 204.81C147.091 204.212 147.182 203.619 147.344 203.044C147.787 201.548 148.829 200.23 149.018 198.697C149.018 198.616 149.018 198.535 149.05 198.454C149.062 197.386 148.731 196.343 148.105 195.478Z" fill="#0071CE"/>
<path opacity="0.1" d="M148.105 195.478C147.632 194.792 147.089 194.157 146.485 193.583C146.828 194.772 146.828 196.034 146.485 197.223C146.075 198.799 145.335 200.279 144.963 201.872C144.514 203.805 144.617 205.884 143.796 207.693C143.39 208.573 142.783 209.346 142.026 209.95C141.269 210.555 140.381 210.975 139.433 211.176C138.735 211.367 137.99 211.276 137.359 210.922C137.089 210.735 136.888 210.464 136.787 210.15C136.377 211.012 135.878 211.829 135.297 212.586C134.649 213.423 133.844 214.341 134.022 215.383C134.13 215.809 134.361 216.194 134.685 216.49C135.01 216.787 135.414 216.982 135.847 217.051C136.718 217.176 137.606 217.102 138.445 216.835C140.286 216.437 142.044 215.721 143.64 214.719C145.242 213.697 146.414 212.124 146.934 210.296C147.124 209.409 147.193 208.501 147.139 207.596C147.106 206.667 147.031 205.728 147.074 204.81C147.091 204.212 147.182 203.619 147.344 203.044C147.787 201.548 148.829 200.23 149.018 198.697C149.018 198.616 149.018 198.535 149.05 198.454C149.062 197.386 148.731 196.343 148.105 195.478Z" fill="black"/>
<path d="M139.406 211.171C140.354 210.969 141.242 210.549 141.999 209.945C142.756 209.34 143.363 208.567 143.769 207.688C144.59 205.879 144.487 203.8 144.936 201.867C145.308 200.274 146.048 198.794 146.458 197.217C146.801 196.028 146.801 194.767 146.458 193.578L145.989 193.113C143.645 194.328 140.977 195.327 138.844 196.893C138.884 199.629 138.703 202.363 138.304 205.069C138.015 206.83 137.48 208.542 136.717 210.156C136.817 210.469 137.019 210.74 137.289 210.928C137.608 211.107 137.96 211.221 138.323 211.262C138.687 211.304 139.055 211.273 139.406 211.171Z" fill="#F28F8F"/>
<path opacity="0.3" d="M147.112 207.597L148.419 207.532L147.047 204.832C147.004 205.728 147.08 206.668 147.112 207.597Z" fill="black"/>
<path d="M131.447 203.957C131.058 206.225 129.33 210.831 129.33 210.831C129.33 210.831 137.43 211.161 137.63 210.788L140.017 207.094L131.447 203.957Z" fill="#FFA8A7"/>
<path d="M155.763 150.151L135.048 161.691C133.17 162.737 131.667 164.346 130.752 166.291C129.838 168.237 129.557 170.421 129.951 172.534L133.968 194.188L130.68 204.637C133.52 208.455 140.054 208.65 140.054 208.65C143.699 201.338 146.372 198.238 148.44 192.115C150.508 185.991 151.885 181.768 151.885 181.768L169.095 177.065C173.029 175.996 176.552 173.771 179.209 170.679C181.865 167.587 183.534 163.77 183.999 159.72C184.296 157.117 184.307 155.341 184.307 155.341L155.763 150.151Z" fill="#263238"/>
<path opacity="0.2" d="M154.354 156.944C154.36 159.256 155.182 161.492 156.676 163.257L143.64 171.411C141.494 172.752 139.904 174.823 139.163 177.243L133.99 194.161L138.656 175.321C139.187 173.157 140.544 171.286 142.436 170.11L154.37 162.766C152.993 159.331 154.354 156.944 154.354 156.944Z" fill="black"/>
<path d="M133.731 221.329L133.926 224.374C136.421 223.489 137.312 222.29 137.312 222.29C137.609 220 137.825 217.63 137.922 216.479C137.15 217.813 135.67 218.613 134.682 219.817C134.303 220.279 133.984 220.787 133.731 221.329Z" fill="#0071CE"/>
<path opacity="0.1" d="M133.731 221.329L133.926 224.374C136.421 223.489 137.312 222.29 137.312 222.29C137.609 220 137.825 217.63 137.922 216.479C137.15 217.813 135.67 218.613 134.682 219.817C134.303 220.279 133.984 220.787 133.731 221.329Z" fill="black"/>
<path d="M132.694 223.92L133.926 224.374L133.731 221.328C133.337 222.16 133.035 223.051 132.694 223.92Z" fill="#0071CE"/>
<path opacity="0.2" d="M132.694 223.92L133.926 224.374L133.731 221.328C133.337 222.16 133.035 223.051 132.694 223.92Z" fill="black"/>
<path d="M138.375 213.169C138.21 212.352 137.961 211.554 137.63 210.788C137.463 212.013 136.961 213.168 136.177 214.125C135.178 215.416 133.915 216.485 132.937 217.803C131.765 219.423 131.042 221.356 129.578 222.695C128.856 223.346 127.992 223.82 127.054 224.078C126.117 224.336 125.132 224.371 124.178 224.18C123.461 224.082 122.811 223.706 122.369 223.132C122.195 222.854 122.117 222.526 122.148 222.198C121.433 222.829 120.652 223.383 119.821 223.851C118.897 224.364 117.796 224.893 117.547 225.924C117.48 226.358 117.541 226.802 117.722 227.202C117.903 227.602 118.197 227.941 118.568 228.176C119.33 228.631 120.184 228.91 121.068 228.991C122.918 229.35 124.817 229.383 126.679 229.089C128.554 228.78 130.25 227.795 131.447 226.318C131.972 225.579 132.392 224.771 132.694 223.915C133.034 223.046 133.337 222.155 133.731 221.323C133.982 220.782 134.299 220.274 134.676 219.811C135.67 218.607 137.149 217.808 137.916 216.474C137.959 216.399 138.008 216.334 138.046 216.258C138.482 215.29 138.598 214.208 138.375 213.169Z" fill="#0071CE"/>
<path d="M124.2 224.179C125.153 224.37 126.138 224.335 127.076 224.077C128.013 223.819 128.878 223.346 129.6 222.694C131.063 221.355 131.787 219.4 132.958 217.802C133.925 216.484 135.189 215.415 136.198 214.125C136.982 213.168 137.484 212.013 137.651 210.787L137.397 210.172C134.767 210.366 131.922 210.242 129.351 210.831C128.317 213.364 127.08 215.809 125.652 218.142C124.697 219.65 123.533 221.015 122.196 222.198C122.165 222.525 122.243 222.853 122.418 223.132C122.853 223.699 123.492 224.075 124.2 224.179Z" fill="#FFA8A7"/>
<path d="M155.709 105.38C169.392 118.583 172.956 118.129 172.956 118.129C177.913 110.85 180.586 102.734 177.573 94.8498C176.32 91.5774 174.56 88.6398 171.482 86.7876C169.072 85.3383 166.263 84.6951 163.463 84.9516C162.208 85.1634 161.022 85.6705 160.002 86.4312C159.748 86.6094 157.302 89.0286 157.453 89.1042C155.655 88.2942 153.219 89.5578 152.182 91.2372C151.146 92.9166 151.102 95.0172 151.459 96.9774C152.01 99.9312 153.549 103.295 155.709 105.38Z" fill="#263238"/>
<path d="M157.794 114.306H157.254C153.722 114.349 149.256 116.752 147.075 122.908L138.607 139.351L148.29 143.671L153.587 128.167L157.794 114.306Z" fill="#0071CE"/>
<path opacity="0.2" d="M150.995 125.209C150.32 127.147 150.277 129.243 150.174 131.295C150.072 133.347 149.829 135.82 148.889 137.645C147.854 136.93 146.616 136.568 145.358 136.614C144.101 136.66 142.893 137.11 141.912 137.899C141.209 138.489 140.668 139.25 140.341 140.107L148.29 143.634L153.587 128.13L156.19 119.582C154.993 120.128 153.918 120.906 153.026 121.872C152.134 122.839 151.443 123.973 150.995 125.209Z" fill="black"/>
<path opacity="0.4" d="M157.794 114.306H157.254C153.722 114.349 149.256 116.752 147.075 122.908L138.607 139.351L148.29 143.671L153.587 128.167L156.19 119.619L157.794 114.306Z" fill="black"/>
<path d="M148.381 140.669C148.013 139.754 147.418 138.949 146.651 138.329C145.885 137.709 144.973 137.295 144.002 137.126C142.063 136.813 139.86 137.828 138.602 139.34C137.522 140.615 137.716 142.343 138.38 143.855C138.938 145.037 139.889 145.989 141.071 146.548C142.253 147.106 143.593 147.237 144.86 146.916C147.344 146.22 149.321 143.088 148.381 140.669Z" fill="#FFA8A7"/>
<path d="M158.69 114.009C154.947 114.598 152.636 124.053 151.421 127.639C150.163 131.343 151.869 134.032 153.77 136.279C154.115 136.685 154.371 137.16 154.522 137.671C154.672 138.182 154.714 138.72 154.645 139.249L150.714 153.829C161.444 161.794 179.426 157.933 184.302 155.33C184.358 150.23 183.281 145.182 181.148 140.55C179.714 137.559 178.906 134.306 178.772 130.992L178.589 125.63L179.885 116.385L170.57 114.171L162.362 113.804C161.135 113.803 159.909 113.871 158.69 114.009Z" fill="#0071CE"/>
<path opacity="0.2" d="M158.69 114.009C154.947 114.598 152.636 124.053 151.421 127.639C150.163 131.343 151.869 134.032 153.77 136.279C154.115 136.685 154.371 137.16 154.522 137.671C154.672 138.182 154.714 138.72 154.645 139.249L150.714 153.829C161.444 161.794 179.426 157.933 184.302 155.33C184.358 150.23 183.281 145.182 181.148 140.55C179.714 137.559 178.906 134.306 178.772 130.992L178.589 125.63L179.885 116.385L170.57 114.171L162.362 113.804C161.135 113.803 159.909 113.871 158.69 114.009Z" fill="#66B4E9"/>
<path d="M158.604 156.183C158.604 156.183 158.604 156.183 158.604 156.15C158.606 156.14 158.606 156.129 158.604 156.118V156.091C158.601 156.08 158.601 156.069 158.604 156.059V156.026V155.988L152.27 144.189V144.157C152.268 144.146 152.268 144.135 152.27 144.125L152.243 144.087V144.049L152.216 144.011L152.189 143.973L152.162 143.936C152.15 143.925 152.14 143.912 152.135 143.898L152.102 143.865V143.833L152.075 143.806V143.779H152.048L151.956 143.698H151.924H151.897H151.859H151.821H151.784L151.74 143.671L144.45 139.572H144.407H144.369H144.326H144.288H144.251H144.213H144.175H144.137H144.094H143.959C143.939 139.572 143.919 139.576 143.901 139.583C143.882 139.591 143.865 139.602 143.851 139.616L142.02 139.589C141.95 139.643 141.945 139.756 142.047 139.95L148.403 151.771C148.755 152.317 149.233 152.77 149.796 153.094L157.086 157.171C157.459 157.382 157.686 157.387 157.718 157.236C157.718 157.236 157.718 157.284 157.718 157.301L158.588 156.307C158.6 156.295 158.609 156.28 158.615 156.264C158.615 156.264 158.615 156.237 158.615 156.221L158.604 156.183ZM142.177 139.562C142.177 139.562 142.177 139.562 142.226 139.562H142.253H142.177ZM150.525 144.265C150.596 144.319 150.666 144.373 150.731 144.432C150.66 144.373 150.596 144.319 150.525 144.265ZM150.984 144.708L151.071 144.8L150.984 144.708ZM157.729 157.171C157.719 157.087 157.692 157.006 157.648 156.933C157.689 156.999 157.717 157.073 157.729 157.149V157.171Z" fill="#455A64"/>
<path opacity="0.15" d="M158.603 156.183C158.603 156.183 158.603 156.183 158.603 156.15C158.605 156.14 158.605 156.129 158.603 156.118V156.091C158.601 156.08 158.601 156.069 158.603 156.059V156.026V155.988L152.269 144.189L151.399 145.188L157.734 156.982C157.775 157.048 157.803 157.121 157.815 157.198C157.825 157.218 157.83 157.24 157.83 157.263C157.83 157.285 157.825 157.308 157.815 157.328L158.684 156.334C158.696 156.322 158.705 156.307 158.711 156.291C158.711 156.291 158.711 156.264 158.711 156.248L158.603 156.183Z" fill="white"/>
<path opacity="0.2" d="M152.166 144.12C152.165 144.109 152.165 144.098 152.166 144.087L152.139 144.05V144.012L152.112 143.974L152.085 143.936L152.058 143.898C152.046 143.888 152.037 143.875 152.031 143.861L151.999 143.828V143.796L151.972 143.769V143.742H151.945L151.853 143.661H151.821H151.794H151.756H151.718H151.68L151.637 143.634L144.347 139.535H144.304H144.266H144.223H144.185H144.147H144.109H144.072H144.034H143.991H143.856C143.836 139.535 143.816 139.539 143.797 139.546C143.779 139.553 143.762 139.564 143.748 139.578L142.02 139.589C142.057 139.541 142.133 139.53 142.236 139.551C142.377 139.585 142.512 139.642 142.635 139.719L149.925 143.817C150.068 143.899 150.206 143.991 150.336 144.093C150.476 144.201 150.611 144.314 150.741 144.433C150.865 144.557 150.984 144.681 151.081 144.8C151.172 144.909 151.254 145.027 151.324 145.151L152.193 144.152L152.166 144.12Z" fill="white"/>
<path d="M183.487 119.49C182.456 117.714 181.1 116.353 179.054 116.196C179.054 116.196 175.695 117.93 175.695 125.803L175.916 145.486L174.469 146.085C170.406 147.836 166.158 149.12 161.806 149.914C159.536 148.117 156.714 147.163 153.819 147.214L154.899 149.217C152.858 150.519 148.263 148.17 148.263 148.17C147.923 151.037 149.786 154.018 152.248 155.524C154.71 157.031 178.244 154.817 183.239 151.588C186.516 149.46 185.744 129.167 185.744 129.167C185.975 125.788 185.189 122.418 183.487 119.49Z" fill="#FFA8A7"/>
<path d="M143.294 142.219C143.135 142.994 143.045 143.782 143.024 144.573C143.207 146.454 144.004 148.223 145.292 149.606C145.562 149.907 145.896 150.143 146.27 150.297C146.458 150.37 146.662 150.391 146.862 150.359C147.061 150.326 147.248 150.242 147.404 150.114C147.682 149.785 147.823 149.361 147.798 148.931C147.859 148.294 147.824 147.652 147.695 147.025C147.563 146.393 147.206 145.831 146.691 145.443C146.29 145.212 145.862 145.03 145.417 144.903C144.98 144.716 144.59 144.434 144.277 144.076L143.294 142.219Z" fill="#FFA8A7"/>
<path d="M179.054 116.196C175.031 118.356 175.441 124.021 175.441 130.188C175.441 136.959 175.916 145.486 175.916 145.486C175.916 145.486 172.676 146.204 171.596 146.852C171.45 147 171.325 147.167 171.224 147.349L171.791 147.144C174.215 148.807 174.415 152.263 173.627 154.353L172.952 154.466C173.148 154.602 173.369 154.697 173.603 154.747C173.837 154.796 174.078 154.798 174.312 154.752C180.188 153.634 181.446 153.354 182.979 152.214C187.24 149.169 186.219 141.916 186.219 135.345C186.241 129.399 186.884 116.477 179.054 116.196Z" fill="#0071CE"/>
<path opacity="0.4" d="M179.054 116.196C175.031 118.356 175.441 124.021 175.441 130.188C175.441 136.959 175.916 145.486 175.916 145.486C175.916 145.486 172.676 146.204 171.596 146.852C171.45 147 171.325 147.167 171.224 147.349L171.791 147.144C174.215 148.807 174.415 152.263 173.627 154.353L172.952 154.466C173.148 154.602 173.369 154.697 173.603 154.747C173.837 154.796 174.078 154.798 174.312 154.752C180.188 153.634 181.446 153.354 182.979 152.214C187.24 149.169 186.219 141.916 186.219 135.345C186.241 129.399 186.884 116.477 179.054 116.196Z" fill="black"/>
<path opacity="0.2" d="M175.916 145.485C179.124 144.843 181.548 148.218 181.548 148.218C180.549 142.915 177.153 144.033 175.916 145.01V145.485Z" fill="black"/>
<path d="M162.362 110.158V117.594C161.633 118.28 160.936 119.068 160.871 120.051C160.857 120.522 160.973 120.989 161.206 121.398C161.44 121.808 161.782 122.145 162.194 122.373C163.035 122.815 164.016 122.91 164.927 122.638C165.829 122.36 166.657 121.88 167.346 121.234C168.327 120.332 169.119 119.244 169.675 118.033C170.231 116.823 170.541 115.513 170.586 114.181V106.648L162.362 110.158Z" fill="#FFA8A7"/>
<path opacity="0.2" d="M170.252 106.648C169.479 110.742 167.881 114.284 162.362 115.558V110.158L170.252 106.648Z" fill="black"/>
<path d="M168.328 102.334C168.245 102.99 168.245 103.654 168.328 104.31C168.411 104.804 168.654 105.258 169.02 105.601C169.197 105.764 169.413 105.88 169.647 105.938C169.881 105.997 170.125 105.996 170.359 105.936C170.17 105.28 170.25 104.577 170.58 103.981C170.91 103.384 171.464 102.943 172.119 102.755C172.774 102.567 173.478 102.646 174.074 102.976C174.671 103.307 175.111 103.86 175.3 104.515C175.43 104.969 175.459 105.446 175.385 105.913C175.311 106.379 175.137 106.824 174.873 107.215C174.338 107.999 173.628 108.648 172.8 109.111C172.323 109.295 171.797 109.304 171.315 109.137C170.833 108.97 170.425 108.637 170.164 108.198C167.794 111.471 163.533 114.025 159.435 113.852C158.313 113.837 157.218 113.502 156.281 112.885C154.688 111.751 154.499 109.953 154.229 108.177C153.85 105.932 153.776 103.647 154.008 101.383C154.233 99.3212 154.888 97.3291 155.93 95.5352C159.084 99.5852 167.027 95.1086 168.328 102.334Z" fill="#FFA8A7"/>
<path d="M159.792 101.918L157.135 105.477L159.775 106.265L159.792 101.918Z" fill="#F28F8F"/>
<path d="M162.226 107.848L160.066 108.625C160.218 108.876 160.447 109.07 160.719 109.179C160.99 109.289 161.29 109.306 161.573 109.23C161.825 109.111 162.028 108.908 162.147 108.656C162.266 108.404 162.294 108.118 162.226 107.848Z" fill="#F28F8F"/>
<path opacity="0.3" d="M162.226 107.848L160.066 108.625C160.218 108.876 160.447 109.07 160.719 109.179C160.99 109.289 161.29 109.306 161.573 109.23C161.825 109.111 162.028 108.908 162.147 108.656C162.266 108.404 162.294 108.118 162.226 107.848Z" fill="black"/>
<path d="M160.866 109.225C161.101 109.292 161.35 109.292 161.584 109.225C161.784 109.141 161.953 108.998 162.071 108.816C162.188 108.634 162.248 108.421 162.243 108.204C161.928 108.166 161.609 108.25 161.353 108.439C161.097 108.627 160.923 108.907 160.866 109.22V109.225Z" fill="#F28F8F"/>
<path d="M163.674 102.475C163.674 102.681 163.592 102.879 163.447 103.025C163.301 103.171 163.103 103.252 162.897 103.252C162.691 103.252 162.493 103.171 162.347 103.025C162.201 102.879 162.119 102.681 162.119 102.475C162.119 102.269 162.201 102.071 162.347 101.925C162.493 101.779 162.691 101.697 162.897 101.697C163.103 101.697 163.301 101.779 163.447 101.925C163.592 102.071 163.674 102.269 163.674 102.475Z" fill="#263238"/>
<path d="M157.14 102.199C157.139 102.353 157.093 102.502 157.006 102.63C156.92 102.757 156.799 102.856 156.656 102.914C156.514 102.972 156.358 102.986 156.208 102.956C156.057 102.925 155.919 102.851 155.811 102.742C155.703 102.633 155.629 102.494 155.6 102.343C155.57 102.193 155.586 102.037 155.645 101.895C155.704 101.753 155.803 101.632 155.931 101.547C156.059 101.461 156.209 101.416 156.363 101.416C156.569 101.417 156.767 101.501 156.913 101.647C157.058 101.794 157.14 101.992 157.14 102.199Z" fill="#263238"/>
<path d="M156.405 99.0992C155.833 99.4988 155.255 99.893 154.677 100.287C154.604 100.073 154.598 99.841 154.659 99.6229C154.721 99.4048 154.848 99.2108 155.023 99.0668C155.234 98.9436 155.475 98.8814 155.719 98.8871C155.963 98.8928 156.201 98.9662 156.405 99.0992Z" fill="#263238"/>
<path d="M163.08 99.0347L164.797 100.234C164.873 100.021 164.883 99.7898 164.824 99.5717C164.765 99.3535 164.641 99.1586 164.468 99.0131C164.257 98.8878 164.016 98.8235 163.771 98.8273C163.526 98.8311 163.287 98.9029 163.08 99.0347Z" fill="#263238"/>
<path d="M176.537 114.781C176.537 115.403 176.352 116.011 176.007 116.528C175.662 117.044 175.171 117.447 174.596 117.685C174.022 117.923 173.39 117.985 172.781 117.864C172.171 117.743 171.611 117.443 171.171 117.004C170.732 116.564 170.433 116.004 170.311 115.395C170.19 114.785 170.252 114.153 170.49 113.579C170.728 113.005 171.131 112.514 171.648 112.168C172.165 111.823 172.772 111.639 173.394 111.639C174.227 111.64 175.025 111.972 175.614 112.561C176.204 113.15 176.535 113.948 176.537 114.781Z" fill="#263238"/>
<path d="M174.598 118.712C174.598 119.275 174.431 119.825 174.118 120.293C173.806 120.761 173.361 121.126 172.841 121.341C172.321 121.557 171.749 121.613 171.197 121.503C170.645 121.393 170.138 121.122 169.74 120.724C169.342 120.326 169.071 119.819 168.961 119.267C168.851 118.715 168.907 118.143 169.123 117.623C169.338 117.103 169.703 116.659 170.171 116.346C170.639 116.033 171.189 115.866 171.752 115.866C172.126 115.866 172.496 115.94 172.841 116.083C173.186 116.226 173.5 116.435 173.764 116.7C174.029 116.964 174.238 117.278 174.381 117.623C174.524 117.968 174.598 118.338 174.598 118.712Z" fill="#263238"/>
<path d="M170.019 124.204C171.436 124.204 172.584 123.056 172.584 121.639C172.584 120.223 171.436 119.074 170.019 119.074C168.602 119.074 167.454 120.223 167.454 121.639C167.454 123.056 168.602 124.204 170.019 124.204Z" fill="#263238"/>
<path d="M170.716 124.198C170.716 124.634 170.587 125.06 170.345 125.422C170.103 125.785 169.758 126.067 169.356 126.234C168.953 126.401 168.51 126.444 168.083 126.359C167.656 126.274 167.263 126.064 166.955 125.756C166.647 125.448 166.437 125.056 166.352 124.628C166.267 124.201 166.311 123.758 166.477 123.355C166.644 122.953 166.926 122.609 167.289 122.366C167.651 122.124 168.077 121.995 168.513 121.995C169.097 121.997 169.656 122.229 170.069 122.642C170.482 123.055 170.715 123.614 170.716 124.198Z" fill="#263238"/>
<path d="M170.002 127.017C170.002 127.404 169.888 127.782 169.673 128.103C169.458 128.425 169.153 128.675 168.796 128.823C168.438 128.971 168.045 129.01 167.666 128.935C167.287 128.859 166.939 128.673 166.665 128.4C166.392 128.126 166.206 127.778 166.13 127.399C166.055 127.019 166.094 126.626 166.242 126.269C166.39 125.912 166.64 125.607 166.962 125.392C167.283 125.177 167.661 125.062 168.048 125.062C168.566 125.062 169.063 125.268 169.43 125.635C169.796 126.002 170.002 126.499 170.002 127.017Z" fill="#263238"/>
<path d="M168.275 127.763C167.793 127.987 167.419 128.39 167.232 128.887C167.045 129.384 167.061 129.934 167.276 130.42C167.503 130.927 167.935 131.332 168.118 131.856C168.223 132.179 168.23 132.525 168.139 132.852C168.048 133.178 167.862 133.471 167.605 133.692C168.354 133.526 169.06 133.202 169.674 132.742C170.285 132.254 170.723 131.582 170.921 130.825C171.018 130.448 171.033 130.055 170.964 129.671C170.895 129.288 170.744 128.925 170.521 128.605C170.062 127.979 168.982 127.439 168.275 127.763Z" fill="#263238"/>
<path d="M204.277 142.975L170.348 169.256C169.315 170.058 168.456 171.063 167.824 172.209C167.193 173.355 166.802 174.618 166.676 175.92L162.896 215.799C163.107 215.993 163.376 216.112 163.662 216.137C163.947 216.161 164.233 216.09 164.473 215.934L171.234 175.904C171.349 175.221 171.61 174.571 172.001 174C172.392 173.428 172.902 172.948 173.497 172.594L203.477 154.622C207.36 152.311 208.067 144.028 204.277 142.975Z" fill="#455A64"/>
<path opacity="0.3" d="M204.277 142.975L170.348 169.256C169.315 170.058 168.456 171.063 167.824 172.209C167.193 173.355 166.802 174.618 166.676 175.92L162.896 215.799C163.107 215.993 163.376 216.112 163.662 216.137C163.947 216.161 164.233 216.09 164.473 215.934L171.234 175.904C171.349 175.221 171.61 174.571 172.001 174C172.392 173.428 172.902 172.948 173.497 172.594L203.477 154.622C207.36 152.311 208.067 144.028 204.277 142.975Z" fill="white"/>
<path d="M197.791 213.088L195.394 214.487L195.399 211.706L197.791 213.088Z" fill="#E6E6E6"/>
<path d="M195.496 184.766L218.851 198.249L195.496 184.766Z" fill="#CFCFCF"/>
<path d="M197.791 213.088L218.797 225.217V227.992L221.297 229.434L221.395 196.807L192.996 180.413L192.904 213.04L195.404 214.487V211.711L197.791 213.088ZM218.819 208.828L195.48 195.328V184.744L218.835 198.244L218.819 208.828ZM218.781 222.328L195.431 208.828V198.282V198.249L218.786 211.749L218.781 222.328Z" fill="#E0E0E0"/>
<path d="M195.426 208.823L195.458 198.277V198.244L218.813 211.728L218.781 222.307L195.426 208.823Z" fill="#E0E0E0"/>
<path d="M195.47 195.35L195.497 184.766L218.852 198.249L218.819 208.833L195.47 195.35Z" fill="#E0E0E0"/>
<path d="M221.379 196.808L246.17 182.4L246.079 215.027L221.287 229.434L221.379 196.808Z" fill="#E0E0E0"/>
<path d="M221.379 196.807L192.985 180.413L217.777 166.006L246.17 182.4L221.379 196.807Z" fill="#E0E0E0"/>
<path opacity="0.2" d="M197.791 213.088L195.394 214.487L195.399 211.706L197.791 213.088Z" fill="white"/>
<path d="M195.496 184.766L218.851 198.249L195.496 184.766Z" fill="#CFCFCF"/>
<path opacity="0.8" d="M195.426 208.823L195.458 198.277V198.244L218.813 211.728L218.781 222.307L195.426 208.823Z" fill="white"/>
<path opacity="0.8" d="M195.47 195.35L195.497 184.766L218.852 198.249L218.819 208.833L195.47 195.35Z" fill="white"/>
<path d="M203.11 193.097L203.121 191.634L211.21 196.305L211.2 197.768L203.11 193.097Z" fill="#E0E0E0"/>
<path d="M203.11 206.387L203.121 204.924L211.21 209.595L211.2 211.058L203.11 206.387Z" fill="#E0E0E0"/>
<path opacity="0.2" d="M221.379 196.808L246.17 182.4L246.079 215.027L221.287 229.434L221.379 196.808Z" fill="white"/>
<path opacity="0.4" d="M221.379 196.807L192.985 180.413L217.777 166.006L246.17 182.4L221.379 196.807Z" fill="white"/>
<path opacity="0.05" d="M226.887 174.424C223.739 172.605 218.641 172.605 215.509 174.424C212.377 176.244 212.393 179.198 215.547 181.018C218.701 182.838 223.793 182.838 226.925 181.018C230.057 179.198 230.041 176.244 226.887 174.424Z" fill="black"/>
<path d="M229.624 162.971L220.984 163.219L212.344 162.971C211.972 168.814 213.111 174.764 214.683 177.67C215.053 178.418 215.653 179.029 216.394 179.414C218.943 180.888 223.069 180.888 225.607 179.414C226.357 179.02 226.958 178.392 227.319 177.626C228.863 174.705 229.992 168.781 229.624 162.971Z" fill="white"/>
<path d="M227.07 159.429C230.456 161.384 230.478 164.559 227.108 166.514C223.739 168.469 218.263 168.469 214.877 166.514C211.491 164.559 211.47 161.384 214.834 159.429C218.198 157.474 223.679 157.469 227.07 159.429Z" fill="#EBEBEB"/>
<path d="M225.72 160.228C228.361 161.756 228.377 164.229 225.747 165.757C223.118 167.285 218.852 167.28 216.206 165.757C213.56 164.234 213.549 161.756 216.173 160.228C218.798 158.699 223.085 158.678 225.72 160.228Z" fill="#E0E0E0"/>
<g opacity="0.15">
<path d="M225.72 160.228C228.361 161.756 228.377 164.229 225.747 165.757C223.118 167.285 218.852 167.28 216.206 165.757C213.56 164.234 213.549 161.756 216.173 160.228C218.798 158.699 223.085 158.678 225.72 160.228Z" fill="black"/>
</g>
<path d="M220.25 163.214C220.944 163.795 221.766 164.203 222.648 164.404C223.531 164.604 224.449 164.593 225.326 164.37C226.17 164.112 226.937 163.649 227.557 163.021C228.178 162.393 228.632 161.621 228.879 160.773C227.855 160.287 226.917 159.635 226.103 158.845C227.401 158.522 228.763 158.571 230.035 158.986C230.386 158.433 230.597 157.802 230.649 157.149C230.701 156.496 230.592 155.84 230.332 155.238C228.854 154.581 227.193 154.465 225.639 154.909C226.285 154.348 227.041 153.926 227.857 153.67C228.674 153.413 229.534 153.328 230.386 153.418C230.507 150.938 230.12 148.459 229.246 146.134C226.006 146.301 222.89 147.689 221.837 148.688C221.789 149.842 221.909 150.997 222.194 152.117C221.777 151.905 221.422 151.59 221.16 151.203C220.898 150.816 220.739 150.369 220.698 149.903C218.678 150.405 217.814 151.415 217.501 152.182C217.791 153.617 218.45 154.951 219.413 156.054C217.517 155.481 216.745 153.354 216.745 153.354C214.882 157.787 215.239 162.782 220.25 163.214Z" fill="#0071CE"/>
<path opacity="0.2" d="M220.25 163.214C220.944 163.795 221.766 164.203 222.648 164.404C223.531 164.604 224.449 164.593 225.326 164.37C226.17 164.112 226.937 163.649 227.557 163.021C228.178 162.393 228.632 161.621 228.879 160.773C227.855 160.287 226.917 159.635 226.103 158.845C227.401 158.522 228.763 158.571 230.035 158.986C230.386 158.433 230.597 157.802 230.649 157.149C230.701 156.496 230.592 155.84 230.332 155.238C228.854 154.581 227.193 154.465 225.639 154.909C226.285 154.348 227.041 153.926 227.857 153.67C228.674 153.413 229.534 153.328 230.386 153.418C230.507 150.938 230.12 148.459 229.246 146.134C226.006 146.301 222.89 147.689 221.837 148.688C221.789 149.842 221.909 150.997 222.194 152.117C221.777 151.905 221.422 151.59 221.16 151.203C220.898 150.816 220.739 150.369 220.698 149.903C218.678 150.405 217.814 151.415 217.501 152.182C217.791 153.617 218.45 154.951 219.413 156.054C217.517 155.481 216.745 153.354 216.745 153.354C214.882 157.787 215.239 162.782 220.25 163.214Z" fill="black"/>
<path opacity="0.3" d="M220.25 163.214C220.944 163.795 221.766 164.203 222.648 164.404C223.531 164.604 224.449 164.593 225.326 164.37C226.17 164.112 226.937 163.649 227.557 163.021C228.178 162.393 228.632 161.621 228.879 160.773C227.855 160.287 226.917 159.635 226.103 158.845C227.401 158.522 228.763 158.571 230.035 158.986C230.386 158.433 230.597 157.802 230.649 157.149C230.701 156.496 230.592 155.84 230.332 155.238C228.854 154.581 227.193 154.465 225.639 154.909C226.285 154.348 227.041 153.926 227.857 153.67C228.674 153.413 229.534 153.328 230.386 153.418C230.507 150.938 230.12 148.459 229.246 146.134C226.006 146.301 222.89 147.689 221.837 148.688C221.789 149.842 221.909 150.997 222.194 152.117C221.777 151.905 221.422 151.59 221.16 151.203C220.898 150.816 220.739 150.369 220.698 149.903C218.678 150.405 217.814 151.415 217.501 152.182C217.791 153.617 218.45 154.951 219.413 156.054C217.517 155.481 216.745 153.354 216.745 153.354C214.882 157.787 215.239 162.782 220.25 163.214Z" fill="white"/>
<path d="M220.136 163.695C220.087 163.691 220.041 163.667 220.009 163.63C219.977 163.593 219.96 163.544 219.963 163.495C220.271 159.418 222.598 152.695 228.155 147.149C228.191 147.122 228.236 147.109 228.282 147.112C228.327 147.115 228.37 147.135 228.402 147.167C228.434 147.199 228.454 147.242 228.457 147.287C228.46 147.332 228.447 147.377 228.42 147.414C222.933 152.889 220.638 159.51 220.32 163.522C220.315 163.568 220.293 163.61 220.26 163.642C220.226 163.674 220.182 163.692 220.136 163.695Z" fill="#F5F5F5"/>
<path d="M221.659 165.395C221.014 165.923 220.252 166.29 219.438 166.468C218.623 166.645 217.778 166.628 216.972 166.418C216.165 166.207 215.419 165.809 214.795 165.256C214.172 164.703 213.687 164.011 213.381 163.235C214.307 162.815 215.154 162.24 215.887 161.534C214.661 161.24 213.378 161.278 212.172 161.642C211.802 161.179 211.558 160.627 211.463 160.042C211.369 159.456 211.427 158.856 211.632 158.3C213.035 157.72 214.592 157.627 216.054 158.035C214.751 157.017 213.111 156.531 211.464 156.674C211.186 154.495 211.399 152.281 212.085 150.194C215.158 150.378 218.203 151.652 219.256 152.554C219.375 153.568 219.333 154.594 219.132 155.594C219.504 155.417 219.82 155.141 220.045 154.796C220.269 154.451 220.395 154.051 220.407 153.64C222.329 154.104 223.198 155.006 223.544 155.686C223.359 156.95 222.82 158.135 221.989 159.104C223.728 158.608 224.316 156.745 224.316 156.745C226.341 160.611 226.314 165.017 221.659 165.395Z" fill="#0071CE"/>
<path opacity="0.3" d="M221.659 165.395C221.014 165.923 220.252 166.29 219.438 166.468C218.623 166.645 217.778 166.628 216.972 166.418C216.165 166.207 215.419 165.809 214.795 165.256C214.172 164.703 213.687 164.011 213.381 163.235C214.307 162.815 215.154 162.24 215.887 161.534C214.661 161.24 213.378 161.278 212.172 161.642C211.802 161.179 211.558 160.627 211.463 160.042C211.369 159.456 211.427 158.856 211.632 158.3C213.035 157.72 214.592 157.627 216.054 158.035C214.751 157.017 213.111 156.531 211.464 156.674C211.186 154.495 211.399 152.281 212.085 150.194C215.158 150.378 218.203 151.652 219.256 152.554C219.375 153.568 219.333 154.594 219.132 155.594C219.504 155.417 219.82 155.141 220.045 154.796C220.269 154.451 220.395 154.051 220.407 153.64C222.329 154.104 223.198 155.006 223.544 155.686C223.359 156.95 222.82 158.135 221.989 159.104C223.728 158.608 224.316 156.745 224.316 156.745C226.341 160.611 226.314 165.017 221.659 165.395Z" fill="white"/>
<path d="M221.784 165.838C221.74 165.837 221.697 165.821 221.664 165.793C221.63 165.764 221.608 165.725 221.6 165.681C221.06 162.134 218.495 156.248 212.96 151.328C212.926 151.293 212.906 151.245 212.906 151.196C212.906 151.147 212.926 151.099 212.96 151.064C212.996 151.03 213.043 151.012 213.093 151.012C213.142 151.012 213.189 151.03 213.225 151.064C218.819 156.053 221.433 162.031 221.973 165.644C221.978 165.693 221.965 165.742 221.936 165.782C221.907 165.822 221.864 165.849 221.816 165.86L221.784 165.838Z" fill="white"/>
<path d="M224.984 9.63996C224.681 11.4901 222.97 12.8954 219.788 12.4388C218.282 12.2486 216.869 11.6487 215.722 10.7133L217.041 9.00547C217.863 9.75779 218.917 10.2457 220.053 10.399C221.347 10.5828 222.225 10.1914 222.364 9.33754C222.503 8.48365 222.01 7.8966 219.99 7.60604L217.142 7.19688L218.67 1.3916L225.464 2.36409L225.148 4.30907L220.501 3.64493L220.002 5.60177L220.912 5.73222C224.207 6.20661 225.287 7.78393 224.984 9.63996Z" fill="#F5F5F5"/>
<path d="M225.569 8.27319C226.129 4.31657 228.472 2.40952 231.223 2.84387C233.975 3.27821 235.658 5.86393 235.099 9.82055C234.54 13.7772 232.21 15.6774 229.445 15.2499C226.681 14.8223 225.017 12.223 225.569 8.27319ZM232.48 9.41335C232.863 6.69869 232.134 5.41601 230.853 5.20562C229.571 4.99524 228.541 5.9793 228.158 8.70075C227.774 11.4222 228.497 12.6913 229.766 12.9017C231.035 13.1121 232.109 12.1348 232.492 9.42013L232.48 9.41335Z" fill="#F5F5F5"/>
<path d="M236.643 7.96368C236.885 6.33724 237.935 5.39084 239.237 5.59485C240.54 5.79887 241.265 7.01162 241.024 8.65506C240.782 10.2985 239.721 11.2279 238.43 11.0239C237.138 10.8199 236.401 9.59579 236.643 7.96368ZM245.124 6.59225L245.943 6.7226L237.814 15.6765L236.995 15.5462L245.124 6.59225ZM240.359 8.54739C240.551 7.24396 240.067 6.38257 239.166 6.2409C238.265 6.09922 237.556 6.8076 237.363 8.07702C237.171 9.34644 237.638 10.2362 238.556 10.3835C239.474 10.5309 240.139 9.84514 240.331 8.54739H240.359ZM241.914 13.6137C242.156 11.9873 243.217 11.0409 244.508 11.2449C245.8 11.4489 246.536 12.6787 246.294 14.3051C246.052 15.9315 245.003 16.8779 243.7 16.6739C242.398 16.4699 241.645 15.2458 241.886 13.6137H241.914ZM245.602 14.1804C245.789 12.894 245.327 12.0156 244.409 11.8739C243.491 11.7323 242.799 12.4066 242.606 13.7044C242.414 15.0022 242.898 15.8749 243.799 16.0166C244.7 16.1582 245.382 15.4612 245.574 14.1974L245.602 14.1804Z" fill="#F5F5F5"/>
<path d="M76.8699 15.824L77.4108 17.885L69.1617 20.0054L68.7398 18.3826L71.9312 13.3249C72.6615 12.1565 72.6885 11.5507 72.5533 11.0206C72.3315 10.1605 71.6121 9.81433 70.4599 10.1118C70.0177 10.2057 69.6056 10.4074 69.2602 10.699C68.9148 10.9906 68.6468 11.3631 68.4801 11.7833L66.3164 11.0693C66.8573 9.61959 68.1664 8.43496 70.1029 7.92649C72.5371 7.30442 74.479 8.13745 74.9712 10.0902C75.2471 11.1721 75.1984 12.1944 74.03 14.0065L72.1314 17.0195L76.8699 15.824Z" fill="#E0E0E0"/>
<path d="M77.0108 12.1668C76.0858 8.55886 77.5517 6.00568 80.2563 5.3187C82.961 4.63172 85.4601 6.15714 86.3851 9.75972C87.31 13.3623 85.8441 15.9155 83.1395 16.6079C80.4348 17.3003 77.9358 15.7694 77.0108 12.1668ZM83.8265 10.4142C83.1882 7.93138 82.0522 7.13081 80.7864 7.45537C79.5207 7.77992 78.9311 9.02946 79.5694 11.5069C80.2077 13.9844 81.3436 14.7903 82.5932 14.4712C83.8427 14.1521 84.4648 12.8917 83.8265 10.4142Z" fill="#E0E0E0"/>
<path d="M86.9849 6.86038C86.5251 5.08073 87.2229 3.61481 88.6888 3.26321C90.1548 2.91161 91.453 3.80414 91.9344 5.59461C92.4158 7.38508 91.6802 8.84018 90.2305 9.19178C88.7808 9.54338 87.4393 8.63463 86.9849 6.86038ZM91.1338 5.77853C90.766 4.35589 89.8789 3.68514 88.8673 3.95019C87.8558 4.21524 87.4014 5.2376 87.7855 6.65483C88.1695 8.07206 89.0188 8.74822 90.052 8.48317C91.0851 8.21811 91.4962 7.21198 91.1338 5.79475V5.77853ZM95.3206 1.6242L96.2402 1.3916L91.5774 14.2386L90.6578 14.4766L95.3206 1.6242ZM94.9961 10.279C94.5417 8.49939 95.2503 7.03348 96.7 6.68188C98.1497 6.33027 99.4695 7.2228 99.9455 9.01327C100.422 10.8037 99.7075 12.2588 98.2416 12.605C96.7757 12.9512 95.4558 12.0641 94.9961 10.2899V10.279ZM99.145 9.19719C98.7826 7.79078 97.9117 7.1038 96.8785 7.36885C95.8453 7.63391 95.4126 8.64004 95.7966 10.0735C96.1807 11.507 97.0516 12.1615 98.0631 11.9018C99.0747 11.6422 99.5074 10.6252 99.1504 9.22424L99.145 9.19719Z" fill="#E0E0E0"/>
<path d="M9.74182 40.1055L6.9772 51.4945L4.273 50.897L6.53908 41.6211L4.1748 41.0892L4.68845 38.9688L9.74182 40.1055Z" fill="#F5F5F5"/>
<path d="M9.9764 46.2676C10.8079 42.7974 13.2678 41.2775 15.9286 41.8827C18.5894 42.488 20.0861 44.9091 19.2546 48.3726C18.4231 51.8361 15.984 53.3628 13.3024 52.7575C10.6208 52.1522 9.13797 49.7378 9.9764 46.2676ZM16.7393 47.801C17.3144 45.4135 16.6839 44.2231 15.4297 43.9407C14.1755 43.6582 13.0876 44.4518 12.5125 46.8393C11.9374 49.2267 12.561 50.4171 13.8013 50.6996C15.0417 50.982 16.1573 50.1884 16.7393 47.801Z" fill="#F5F5F5"/>
<path d="M31.0709 44.992L32.01 45.2278L21.808 55.2149L20.876 54.9791L31.0709 44.992ZM21.1108 45.8211C21.5376 43.8815 22.8395 42.8471 24.3336 43.2198C25.8276 43.5925 26.5604 45.1213 26.1335 47.0762C25.7066 49.031 24.3976 50.0426 22.9178 49.6775C21.438 49.3124 20.7123 47.7531 21.1321 45.8211H21.1108ZM25.3367 46.8784C25.6782 45.3571 25.1944 44.2466 24.1628 43.988C23.1312 43.7294 22.2419 44.49 21.9076 46.0189C21.5732 47.5478 22.0356 48.6507 23.0886 48.9093C24.1415 49.1679 25.0237 48.4605 25.358 46.8784H25.3367ZM26.7027 53.1308C27.1224 51.1912 28.4386 50.1643 29.9184 50.5294C31.3982 50.8945 32.1452 52.4538 31.7254 54.3858C31.3057 56.3178 29.9966 57.3599 28.5026 56.9872C27.0086 56.6145 26.2971 55.0628 26.724 53.1308H26.7027ZM30.9357 54.188C31.2701 52.6668 30.8077 51.5563 29.7618 51.2977C28.716 51.039 27.841 51.7845 27.5066 53.3285C27.1722 54.8726 27.6489 55.9603 28.6805 56.2189C29.712 56.4775 30.6156 55.7169 30.9357 54.188Z" fill="#F5F5F5"/>
<path d="M247.732 85.9308C247.76 87.5343 246.654 89.037 244.139 89.068C242.955 89.1147 241.784 88.7824 240.773 88.1129L241.535 86.4161C242.275 86.9611 243.154 87.2434 244.05 87.2237C245.066 87.2043 245.688 86.7461 245.677 85.9696C245.677 85.2513 245.167 84.8048 244.014 84.8358H243.083L243.062 83.3837L244.833 81.1394L241.09 81.2093L241.064 79.4427L247.214 79.3301L247.24 80.755L245.303 83.2478C246.891 83.4924 247.71 84.533 247.732 85.9308Z" fill="#E0E0E0"/>
<path d="M247.734 84.2725C247.669 81.1474 249.702 79.3732 252.494 79.3308C255.286 79.2885 257.408 81.0242 257.473 84.1301C257.538 87.2359 255.509 89.0332 252.699 89.0717C249.888 89.1102 247.799 87.3783 247.734 84.2725ZM254.844 84.1686C254.798 82.0326 253.867 81.1551 252.55 81.1743C251.233 81.1936 250.358 82.0942 250.405 84.2532C250.451 86.4123 251.377 87.2667 252.676 87.2475C253.974 87.2282 254.886 86.3084 254.844 84.1686Z" fill="#E0E0E0"/>
<path d="M258.867 82.0146C258.841 80.4401 259.653 79.3852 260.872 79.3616C262.092 79.3379 262.937 80.3574 262.963 81.9398C262.989 83.5222 262.162 84.5693 260.957 84.5889C259.753 84.6086 258.893 83.5813 258.867 82.0146ZM262.314 81.9516C262.292 80.6999 261.725 79.9835 260.883 79.9835C260.042 79.9835 259.493 80.7708 259.515 82.0067C259.538 83.2427 260.09 83.9749 260.946 83.9749C261.802 83.9749 262.333 83.2191 262.314 81.9516ZM266.365 79.3301H267.129L261.095 89.0723H260.331L266.365 79.3301ZM264.512 86.4508C264.49 84.8763 265.313 83.8214 266.517 83.8017C267.722 83.782 268.582 84.8094 268.608 86.376C268.634 87.9426 267.822 89.0054 266.603 89.029C265.383 89.0527 264.523 88.0214 264.497 86.4508H264.512ZM267.959 86.3878C267.941 85.1518 267.385 84.4197 266.528 84.4197C265.672 84.4197 265.142 85.1872 265.161 86.439C265.179 87.6907 265.75 88.4071 266.591 88.4071C267.433 88.4071 267.967 87.6277 267.944 86.3878H267.959Z" fill="#E0E0E0"/>
</svg>