<svg width="61" height="92" viewBox="0 0 40 85" fill="none" xmlns="http://www.w3.org/2000/svg">
<g filter="url(#filter0_d_900_25761)">
<path d="M3.14666 79.9133L2.41717 79.4916C2.29575 79.4135 2.19462 79.3076 2.12209 79.1828C2.04957 79.058 2.00772 78.9177 2 78.7735V20.2211C2.00897 20.0772 2.05134 19.9374 2.12376 19.8128C2.19617 19.6881 2.29663 19.5821 2.41717 19.503L36.0167 0.101025C36.1458 0.0346343 36.2888 0 36.4339 0C36.579 0 36.722 0.0346343 36.8511 0.101025L37.5828 0.522757C37.7048 0.60132 37.8064 0.707874 37.8789 0.833563C37.9515 0.959251 37.993 1.10044 38 1.2454V59.8024C37.9917 59.9471 37.9497 60.0878 37.8772 60.2133C37.8048 60.3388 37.704 60.4455 37.5828 60.525L3.981 79.9133C3.85196 79.9797 3.70894 80.0144 3.56383 80.0144C3.41871 80.0144 3.27569 79.9797 3.14666 79.9133Z" fill="#0071CE"/>
<path opacity="0.3" d="M3.14666 79.9133L2.41717 79.4916C2.29575 79.4135 2.19462 79.3076 2.12209 79.1828C2.04957 79.058 2.00772 78.9177 2 78.7735V20.2211C2.00897 20.0772 2.05134 19.9374 2.12376 19.8128C2.19617 19.6881 2.29663 19.5821 2.41717 19.503L36.0167 0.101025C36.1458 0.0346343 36.2888 0 36.4339 0C36.579 0 36.722 0.0346343 36.8511 0.101025L37.5828 0.522757C37.7048 0.60132 37.8064 0.707874 37.8789 0.833563C37.9515 0.959251 37.993 1.10044 38 1.2454V59.8024C37.9917 59.9471 37.9497 60.0878 37.8772 60.2133C37.8048 60.3388 37.704 60.4455 37.5828 60.525L3.981 79.9133C3.85196 79.9797 3.70894 80.0144 3.56383 80.0144C3.41871 80.0144 3.27569 79.9797 3.14666 79.9133Z" fill="black"/>
<path opacity="0.4" d="M37.9934 1.17701C37.9661 0.962727 37.7905 0.88294 37.5831 1.00376L3.98128 20.4149C3.85865 20.4917 3.75748 20.5984 3.6872 20.7249L2.12109 19.813C2.19231 19.6872 2.29328 19.5808 2.41517 19.503L36.0147 0.101025C36.1437 0.0346343 36.2868 0 36.4319 0C36.577 0 36.72 0.0346343 36.8491 0.101025L37.5831 0.522757C37.6947 0.595719 37.7891 0.691979 37.86 0.804919C37.9308 0.917859 37.9763 1.0448 37.9934 1.17701Z" fill="white"/>
<path opacity="0.15" d="M3.90805 79.9584H3.88298L3.84194 79.9744H3.82371C3.79825 79.9825 3.77238 79.9894 3.7462 79.9949C3.57983 80.0252 3.40838 80.0111 3.24924 79.9538C3.21704 79.9418 3.1858 79.9273 3.15577 79.9105L2.42401 79.4888C2.30279 79.4109 2.20137 79.3059 2.12777 79.1821C2.05417 79.0582 2.01043 78.919 2 78.7753V20.2228C2.00465 20.078 2.04624 19.9367 2.12082 19.8125L3.68693 20.7244C3.6104 20.8487 3.56795 20.991 3.56383 21.137V79.6871C3.55728 79.7683 3.57992 79.8491 3.62766 79.9151C3.65437 79.9481 3.6903 79.9725 3.73089 79.9851C3.77148 79.9977 3.8149 79.9979 3.85562 79.9858C3.87406 79.9786 3.89165 79.9694 3.90805 79.9584Z" fill="black"/>
<path d="M27.5048 8.52013L27.4433 8.48366L26.7594 8.08472C26.5072 7.94537 26.2338 7.84834 25.9501 7.79749C25.8316 7.77241 25.7222 7.7405 25.6287 7.71086C25.5246 7.6749 25.4226 7.63304 25.3232 7.58548L25.3757 7.52165L24.5915 7.06572C24.5267 7.02848 24.4568 7.00084 24.384 6.98366C24.09 6.91299 23.6477 7.08396 23.2077 7.03381C23.0476 7.01766 22.8929 6.96689 22.7543 6.88502C22.6158 6.80314 22.4967 6.69212 22.4053 6.55965C22.1386 6.19946 21.9767 5.568 21.7396 5.04597L21.9448 4.7405C21.9238 4.72653 21.9017 4.71433 21.8787 4.70402L21.1606 4.28913C21.0394 4.21657 20.9006 4.17872 20.7594 4.17971C20.4913 4.19381 20.2317 4.27877 20.0071 4.42591C18.286 5.41983 18.229 7.77925 17.6089 9.3294C16.9889 10.8796 16.1112 11.3674 15.6348 12.0376C15.1583 12.7078 15.1241 13.1979 14.0664 14.6569C13.0086 16.1159 12.9653 16.4806 12.9653 16.7473V18.9198L13.7472 19.3758L27.8286 11.2443L27.5048 8.52013ZM14.593 16.8955C14.4083 17.0004 14.2579 16.859 14.2579 16.5764C14.2557 16.4411 14.2847 16.3071 14.3429 16.1849C14.401 16.0627 14.4866 15.9556 14.593 15.872C14.7754 15.7648 14.9235 15.9084 14.9235 16.1934C14.926 16.3279 14.8974 16.4612 14.8401 16.583C14.7828 16.7047 14.6982 16.8116 14.593 16.8955ZM20.7776 10.7975C20.6888 10.8625 20.5861 10.9059 20.4776 10.9243C20.369 10.9427 20.2577 10.9356 20.1525 10.9035C20.0472 10.8714 19.9508 10.8153 19.871 10.7395C19.7911 10.6637 19.7301 10.5704 19.6925 10.4669C19.1477 10.5718 18.7419 10.0452 18.7419 9.14019C18.7419 8.07104 19.305 6.88335 19.998 6.48214C20.0869 6.41766 20.1896 6.37473 20.298 6.35674C20.4064 6.33874 20.5174 6.34618 20.6224 6.37845C20.7274 6.41072 20.8235 6.46696 20.9031 6.54271C20.9826 6.61846 21.0435 6.71167 21.0808 6.81496C21.6279 6.70554 22.0314 7.23214 22.0314 8.14171C22.0314 9.20858 21.4729 10.3986 20.7776 10.7975ZM25.4532 10.6128C25.2708 10.72 25.1226 10.5764 25.1226 10.296C25.1202 10.1611 25.1487 10.0275 25.206 9.90535C25.2634 9.78324 25.3479 9.67589 25.4532 9.59156C25.6401 9.4867 25.7883 9.63031 25.7883 9.91299C25.7909 10.0477 25.7619 10.1811 25.7037 10.3026C25.6455 10.4242 25.5597 10.5304 25.4532 10.6128Z" fill="#455A64"/>
<path opacity="0.5" d="M14.5201 17.2855L13.0064 16.4102C12.9711 16.5191 12.9542 16.6331 12.9562 16.7475V18.92L13.7381 19.376L14.5201 18.92V17.2855Z" fill="#37474F"/>
<path opacity="0.5" d="M16.0866 14.5763L16.8685 12.7685L15.6261 12.0391C15.259 12.5429 15.1542 12.9509 14.6641 13.7533L16.0866 14.5763Z" fill="#37474F"/>
<path opacity="0.5" d="M19.2135 10.9591L19.3161 10.4325C18.9696 10.2867 18.7394 9.81933 18.7394 9.14C18.743 8.24155 19.083 7.37704 19.6923 6.71674L18.6072 6.08984C18.1512 7.14304 17.9734 8.38544 17.5973 9.32921C17.5228 9.51747 17.4383 9.70162 17.3442 9.88088L19.2135 10.9591Z" fill="#37474F"/>
<path d="M27.5045 8.52043L27.443 8.48395C27.2122 8.37906 26.9695 8.30252 26.7203 8.25599C26.31 8.1817 25.9282 7.99552 25.617 7.71799C25.5393 7.6465 25.4545 7.5831 25.3639 7.52879C25.2989 7.48984 25.2281 7.46138 25.1542 7.44444C24.68 7.33046 23.8161 7.84565 23.196 7.04322L23.1755 7.01815C22.7424 6.43456 22.5851 5.13061 21.9354 4.73851C21.9144 4.72455 21.8923 4.71235 21.8692 4.70204C21.6025 4.57666 21.2537 4.59945 20.7773 4.87301C19.0585 5.86693 18.9992 8.22863 18.3791 9.77878C17.7591 11.3289 16.8814 11.8168 16.405 12.487C15.9285 13.1572 15.8966 13.6473 14.8366 15.1063C13.7765 16.5653 13.7378 16.93 13.7378 17.1967V19.3692L27.8191 11.2378V9.06754C27.8296 8.95502 27.805 8.84202 27.7486 8.74405C27.6923 8.64608 27.607 8.56797 27.5045 8.52043ZM15.3723 17.3472C15.1899 17.452 15.0395 17.3107 15.0395 17.028C15.0375 16.8927 15.0664 16.7586 15.1241 16.6362C15.1818 16.5137 15.2667 16.406 15.3723 16.3213C15.5569 16.2165 15.7028 16.3601 15.7028 16.6428C15.7058 16.7777 15.6775 16.9115 15.6201 17.0337C15.5628 17.1559 15.478 17.2632 15.3723 17.3472ZM20.7773 10.7978C20.6885 10.8628 20.5857 10.9062 20.4772 10.9246C20.3687 10.943 20.2574 10.9359 20.1521 10.9038C20.0468 10.8717 19.9505 10.8156 19.8706 10.7398C19.7908 10.664 19.7297 10.5707 19.6922 10.4672C19.5701 10.1912 19.5116 9.89125 19.5212 9.58958C19.5212 8.52271 20.0843 7.33502 20.7773 6.9338C20.8713 6.87826 20.9737 6.83823 21.0805 6.81526C21.6276 6.70584 22.0311 7.23243 22.0311 8.14201C22.0311 9.20888 21.4726 10.3988 20.7773 10.7978ZM26.237 11.0691C26.0501 11.1762 25.9019 11.0326 25.9019 10.7522C25.8993 10.6168 25.9283 10.4827 25.9864 10.3605C26.0446 10.2382 26.1304 10.1312 26.237 10.0478C26.4194 9.94292 26.5676 10.0843 26.5676 10.3692C26.57 10.5034 26.5414 10.6364 26.4841 10.7578C26.4268 10.8791 26.3422 10.9857 26.237 11.0691Z" fill="#37474F"/>
<path d="M22.0313 8.14181C22.0313 9.20868 21.4728 10.3987 20.7775 10.7976C20.6887 10.8626 20.5859 10.906 20.4774 10.9244C20.3689 10.9428 20.2576 10.9357 20.1523 10.9036C20.047 10.8715 19.9506 10.8154 19.8708 10.7396C19.791 10.6638 19.7299 10.5705 19.6924 10.467C19.8004 10.4459 19.9038 10.4058 19.9979 10.3485C20.6817 9.94728 21.2517 8.75276 21.2517 7.69045C21.2611 7.38952 21.2026 7.09033 21.0807 6.81507C21.6278 6.70564 22.0313 7.23224 22.0313 8.14181Z" fill="#263238"/>
<path d="M15.3725 17.3479C15.1901 17.4527 15.0397 17.3114 15.0397 17.0287C15.0374 16.8936 15.0662 16.7598 15.1239 16.6377C15.1816 16.5155 15.2667 16.4083 15.3725 16.3243C15.5572 16.2172 15.7053 16.3631 15.7053 16.6435C15.7078 16.7786 15.6791 16.9124 15.6214 17.0346C15.5636 17.1568 15.4785 17.264 15.3725 17.3479Z" fill="#263238"/>
<path d="M26.2348 11.0705C26.0524 11.1754 25.902 11.034 25.902 10.7513C25.8997 10.6163 25.9285 10.4825 25.9862 10.3603C26.0439 10.2381 26.129 10.1309 26.2348 10.0469C26.4195 9.93979 26.5676 10.0857 26.5676 10.3684C26.57 10.5031 26.5411 10.6366 26.4834 10.7584C26.4257 10.8802 26.3406 10.987 26.2348 11.0705Z" fill="#263238"/>
<path d="M6.16238 23.917L35.3987 7.03627C35.4761 6.99702 35.5616 6.97656 35.6483 6.97656C35.7351 6.97656 35.8206 6.99702 35.8979 7.03627L36.1806 7.2004C36.2533 7.24799 36.3139 7.31195 36.3575 7.38717C36.401 7.46239 36.4263 7.54676 36.4314 7.63353V58.1867C36.4263 58.2735 36.401 58.3579 36.3575 58.4331C36.3139 58.5083 36.2533 58.5723 36.1806 58.6199L6.9443 75.5006C6.86694 75.5398 6.78142 75.5603 6.69468 75.5603C6.60793 75.5603 6.52241 75.5398 6.44505 75.5006L6.16238 75.3387C6.0894 75.2914 6.02864 75.2275 5.98506 75.1522C5.94148 75.0769 5.91631 74.9924 5.91162 74.9056V24.3524C5.91614 24.2652 5.94122 24.1803 5.9848 24.1046C6.02837 24.0289 6.08922 23.9646 6.16238 23.917Z" fill="#F5F5F5"/>
<path d="M36.4243 7.55773C36.3924 7.45515 36.2967 7.42324 36.1827 7.48707L6.9441 24.3678C6.8706 24.4148 6.8096 24.4789 6.76629 24.5547L5.98438 24.0988C6.02642 24.0221 6.0877 23.9577 6.16219 23.9118L35.3985 7.03798C35.4755 6.99764 35.5612 6.97656 35.6481 6.97656C35.7351 6.97656 35.8207 6.99764 35.8978 7.03798L36.1804 7.19983C36.2433 7.23975 36.2974 7.29208 36.3393 7.35362C36.3813 7.41516 36.4102 7.48462 36.4243 7.55773Z" fill="#FAFAFA"/>
<path d="M6.88502 75.5272C6.85465 75.5383 6.82338 75.5466 6.79156 75.5523H6.74369C6.6937 75.558 6.64322 75.558 6.59323 75.5523C6.56141 75.5466 6.53014 75.5383 6.49977 75.5272L6.44278 75.4999L6.16238 75.338C6.0894 75.2907 6.02864 75.2268 5.98506 75.1515C5.94148 75.0762 5.91631 74.9917 5.91162 74.9049V24.3517C5.91363 24.2646 5.93881 24.1796 5.98457 24.1055L6.76648 24.5614C6.72255 24.6372 6.69753 24.7224 6.69354 24.8099V75.354C6.69354 75.493 6.7756 75.5591 6.88502 75.5272Z" fill="#E0E0E0"/>
<path d="M29.8461 13.3466L29.0687 12.8907C28.9461 12.8314 28.8111 12.8026 28.675 12.8065C28.5389 12.8105 28.4058 12.8472 28.2868 12.9135C27.375 13.3147 26.9829 13.4948 26.5133 13.6931L26.1759 13.8299C25.9912 13.9028 25.6242 13.8299 25.7382 13.1984L26.9464 9.94538H26.9282L26.1622 9.48945C26.1238 9.46657 26.0811 9.45183 26.0368 9.44614C26.008 9.44353 25.979 9.44353 25.9502 9.44614C25.4555 9.44614 25.3165 6.25465 25.3119 6.1475L25.2777 6.12699L24.5209 5.69158C24.3887 5.61735 24.2393 5.57959 24.0877 5.58215C23.8364 5.59192 23.591 5.66147 23.3719 5.78504C22.1774 6.41194 20.9829 8.26073 20.6888 9.92714C20.5041 10.9735 19.451 12.5875 18.8423 13.1802C18.2336 13.7729 18.1903 14.2584 18.1903 14.2584L17.7162 16.9461L17.5657 17.8033C17.454 18.4461 16.7952 19.0662 16.7952 19.0662L14.3446 20.9036C12.8081 22.1802 12.375 23.4659 12.0786 25.0594V25.0708C12.0786 25.1277 12.0786 25.1665 12.1037 25.1802C12.1078 25.1828 12.1125 25.1842 12.1174 25.1842C12.1222 25.1842 12.127 25.1828 12.131 25.1802L12.4456 25.0024L29.3149 15.2706C29.3943 15.2176 29.4499 15.1359 29.47 15.0426C29.5657 14.4613 29.8461 13.3717 29.8461 13.3717V13.3466ZM24.9677 8.42258C24.7876 9.44386 24.0558 10.5837 23.3195 10.9667C22.8157 11.2288 22.4464 11.067 22.3233 10.6019C22.2328 10.6376 22.1348 10.6498 22.0384 10.6375C21.9419 10.6251 21.8502 10.5886 21.7716 10.5312C21.5437 10.3466 23.6865 6.65586 23.8598 6.73793C23.9438 6.78154 24.0168 6.84391 24.0729 6.92019C24.129 6.99648 24.1669 7.08466 24.1835 7.1779C24.7876 6.99553 25.1409 7.50617 24.9677 8.42258Z" fill="#455A64"/>
<path opacity="0.5" d="M14.5203 22.7051L13.287 21.9961C12.5735 22.9353 12.2862 23.9224 12.0742 25.0668V25.0782C12.0742 25.1352 12.0742 25.1739 12.0993 25.1876C12.1034 25.1902 12.1081 25.1916 12.113 25.1916C12.1178 25.1916 12.1226 25.1902 12.1267 25.1876L13.0955 24.4193L14.5203 22.7051Z" fill="#37474F"/>
<path opacity="0.5" d="M17.4844 18.0918L19.2169 19.0925L19.9988 14.572L18.4373 13.6602C18.3112 13.839 18.2271 14.0439 18.1911 14.2597L17.7169 16.9474L17.5664 17.8045C17.5486 17.9027 17.5211 17.999 17.4844 18.0918Z" fill="#37474F"/>
<path opacity="0.5" d="M21.512 7.76562C21.1152 8.43399 20.8368 9.16587 20.6891 9.929C20.566 10.4682 20.3599 10.985 20.0781 11.4609L21.5644 12.3181L22.3031 10.6129C22.2151 10.6449 22.1207 10.6548 22.0281 10.6417C21.9354 10.6286 21.8475 10.5928 21.7719 10.5377C21.6488 10.4419 22.1594 9.42064 22.7065 8.46091L21.512 7.76562Z" fill="#37474F"/>
<path d="M29.8573 13.3579H29.8459C29.7238 13.2996 29.5894 13.2714 29.4542 13.2758C29.3189 13.2801 29.1867 13.3169 29.0685 13.383C27.9538 13.8731 27.6164 14.035 26.9553 14.2948C26.7775 14.3678 26.4219 14.3085 26.5131 13.7067C26.512 13.693 26.512 13.6793 26.5131 13.6657L26.6658 12.8062L27.0875 10.465C27.0875 10.465 27.1833 10.098 26.9394 9.95897H26.9211C26.8605 9.93047 26.7944 9.91568 26.7274 9.91566C26.5841 9.89779 26.4467 9.84744 26.3258 9.76842C26.2049 9.68941 26.1037 9.58383 26.0298 9.45973C25.8991 9.26499 25.8086 9.04612 25.7636 8.81595C25.7186 8.58578 25.7199 8.34893 25.7676 8.1193C25.9432 7.11626 25.7494 6.41414 25.3117 6.15198L25.2775 6.12918C24.9903 5.97873 24.605 6.0038 24.1537 6.24089C22.966 6.86323 21.7646 8.71429 21.4728 10.3739C21.2859 11.4225 20.2327 13.0342 19.624 13.6292C19.0154 14.2242 18.972 14.7143 18.972 14.7143L18.4979 17.4043L18.3474 18.2637C18.2357 18.9065 17.5769 19.5266 17.5769 19.5266L15.1263 21.364C14.1471 22.1417 13.4405 23.2107 13.1088 24.4164C13.1088 24.4164 12.197 25.1299 12.1309 25.1869L12.4454 25.0091L29.3672 15.2819C29.3672 15.2819 29.5609 15.1748 29.5951 15.1474C29.6293 15.1201 30.3315 14.4863 30.3315 14.4863C30.3041 13.9233 30.1423 13.5289 29.8573 13.3579ZM24.9675 8.4225C24.7874 9.44377 24.0556 10.5836 23.3193 10.9666C22.8155 11.2287 22.4462 11.0669 22.3231 10.6018C22.2688 10.3409 22.2688 10.0717 22.3231 9.81079C22.5055 8.78952 23.235 7.6497 23.9758 7.269C24.0428 7.23223 24.113 7.20171 24.1856 7.17781C24.7874 6.99544 25.1407 7.50608 24.9675 8.4225Z" fill="#37474F"/>
<path d="M24.9681 8.42198C24.788 9.44326 24.0563 10.5831 23.3199 10.9661C22.8161 11.2282 22.4468 11.0664 22.3237 10.6013C22.3977 10.5783 22.4695 10.5486 22.538 10.5124C23.2698 10.1294 24.0084 8.98961 24.1862 7.96834C24.2428 7.70769 24.2428 7.43795 24.1862 7.1773C24.788 6.99493 25.1414 7.50557 24.9681 8.42198Z" fill="#263238"/>
<path d="M24.2637 7.22203C24.3319 7.21827 24.4 7.232 24.4614 7.26192C24.5229 7.29184 24.5757 7.33696 24.6148 7.393C24.9202 7.82385 24.6284 8.92264 24.5031 9.2737C24.3275 9.76382 23.1946 10.9105 22.88 10.9105C22.777 10.8934 22.6786 10.8555 22.5907 10.7991C22.5029 10.7426 22.4276 10.6688 22.3693 10.5822C22.3177 10.3303 22.3177 10.0705 22.3693 9.81853C22.5471 8.81093 23.2812 7.68707 23.9947 7.31093C24.0588 7.27607 24.126 7.24708 24.1953 7.22431H24.2637M24.2637 7.17643H24.1839C24.1114 7.20033 24.0412 7.23085 23.9742 7.26762C23.2402 7.64832 22.5038 8.78814 22.3215 9.80941C22.2672 10.0703 22.2672 10.3396 22.3215 10.6004C22.3841 10.6948 22.4657 10.7752 22.5611 10.8364C22.6565 10.8976 22.7635 10.9384 22.8754 10.9561C23.2151 10.9561 24.3572 9.80029 24.5395 9.28738C24.7219 8.77446 25.1163 7.17188 24.2546 7.17188L24.2637 7.17643Z" fill="#263238"/>
<path d="M12.1336 25.2L29.3699 15.2927L29.5979 15.1605C29.6412 15.1354 30.3228 14.4766 30.3228 14.4766L13.1002 24.4181C13.1002 24.4181 12.0652 25.225 12.1336 25.2Z" fill="#263238"/>
<path d="M9.67334 64.2814L14.2645 61.5938L14.2622 66.9304L9.67334 69.6181V64.2814Z" fill="#FAFAFA"/>
<path d="M9.86703 64.3919V69.2885L14.0752 66.8242V61.9253L9.86703 64.3919ZM9.67554 69.8083C9.64265 69.8088 9.61026 69.8002 9.58207 69.7832C9.55306 69.7667 9.52892 69.7429 9.5121 69.714C9.49529 69.6852 9.4864 69.6524 9.48633 69.6191V64.2824C9.48639 64.2493 9.49503 64.2168 9.51141 64.1881C9.5278 64.1593 9.55135 64.1353 9.57979 64.1183L14.171 61.4306C14.1999 61.4144 14.2325 61.406 14.2657 61.4063C14.2988 61.4065 14.3313 61.4153 14.36 61.4318C14.3888 61.4483 14.4127 61.4721 14.4295 61.5006C14.4463 61.5292 14.4554 61.5616 14.4559 61.5948V66.9314C14.4559 66.9647 14.447 66.9975 14.4302 67.0263C14.4133 67.0552 14.3892 67.079 14.3602 67.0955L9.769 69.7832C9.73968 69.7994 9.70677 69.8081 9.67326 69.8083H9.67554Z" fill="#455A64"/>
<path d="M16.5737 60.4481V60.8334C16.5737 61.0431 16.7219 61.1298 16.902 61.0249L33.1923 51.6214C33.288 51.559 33.3677 51.4749 33.4248 51.3758C33.4818 51.2768 33.5146 51.1656 33.5205 51.0515V50.6639C33.5205 50.4542 33.3746 50.3699 33.1923 50.4747L16.902 59.8805C16.8067 59.9428 16.7273 60.0266 16.6703 60.1252C16.6132 60.2238 16.5802 60.3344 16.5737 60.4481Z" fill="#E0E0E0"/>
<path d="M16.5737 62.7802V63.1654C16.5737 63.3752 16.7219 63.4595 16.902 63.3546L33.1923 53.9511C33.288 53.8893 33.3677 53.8055 33.4247 53.7068C33.4818 53.6082 33.5146 53.4974 33.5205 53.3835V52.996C33.5205 52.7863 33.3746 52.7019 33.1923 52.8068L16.902 62.2103C16.8066 62.2731 16.7272 62.3573 16.6702 62.4563C16.6132 62.5552 16.5802 62.6662 16.5737 62.7802Z" fill="#E0E0E0"/>
<path d="M16.5737 65.0974V65.4827C16.5737 65.6924 16.7219 65.7767 16.902 65.6719L33.1923 56.2684C33.2877 56.2062 33.3672 56.1224 33.4243 56.0238C33.4813 55.9252 33.5143 55.8145 33.5205 55.7007V55.3132C33.5205 55.1035 33.3746 55.0191 33.1923 55.1217L16.902 64.5275C16.8066 64.5903 16.7272 64.6745 16.6702 64.7735C16.6132 64.8724 16.5802 64.9834 16.5737 65.0974Z" fill="#E0E0E0"/>
<path d="M12.0464 67.0104L10.9795 65.9823L11.4377 65.0089L12.0464 65.5948L14.5745 60.2422L15.0327 60.6844L12.0464 67.0104Z" fill="#0071CE"/>
<path d="M9.67334 55.0432L14.2645 52.3555L14.2622 57.6921L9.67334 60.3798V55.0432Z" fill="#FAFAFA"/>
<path d="M9.86703 55.1536V60.0502L14.0752 57.586V52.687L9.86703 55.1536ZM9.67554 60.57C9.64265 60.5706 9.61026 60.5619 9.58207 60.5449C9.5529 60.5286 9.52863 60.5048 9.51179 60.4759C9.49495 60.4471 9.48616 60.4142 9.48633 60.3808V55.0442C9.48661 55.0111 9.49535 54.9787 9.51171 54.9499C9.52807 54.9212 9.55151 54.8971 9.57979 54.88L14.171 52.1923C14.1999 52.1762 14.2325 52.1678 14.2657 52.168C14.2988 52.1682 14.3313 52.177 14.36 52.1935C14.3888 52.2101 14.4127 52.2338 14.4295 52.2623C14.4463 52.2909 14.4554 52.3233 14.4559 52.3565V57.6931C14.4559 57.7265 14.447 57.7592 14.4302 57.7881C14.4133 57.8169 14.3892 57.8407 14.3602 57.8572L9.769 60.5358C9.7411 60.5563 9.70782 60.5682 9.67326 60.57H9.67554Z" fill="#455A64"/>
<path d="M16.5737 51.2099V51.5974C16.5737 51.8048 16.7219 51.8915 16.902 51.7866L33.1923 42.3831C33.288 42.3207 33.3677 42.2366 33.4248 42.1375C33.4818 42.0385 33.5146 41.9274 33.5205 41.8132V41.4257C33.5205 41.2159 33.3746 41.1316 33.1923 41.2365L16.902 50.6422C16.8067 50.7045 16.7273 50.7884 16.6703 50.887C16.6132 50.9855 16.5802 51.0961 16.5737 51.2099Z" fill="#E0E0E0"/>
<path d="M16.5737 53.5442V53.9272C16.5737 54.1369 16.7219 54.2212 16.902 54.1164L33.1923 44.7129C33.288 44.651 33.3677 44.5672 33.4247 44.4686C33.4818 44.3699 33.5146 44.2591 33.5205 44.1452V43.7577C33.5205 43.548 33.3746 43.4636 33.1923 43.5685L16.902 52.972C16.8063 53.035 16.7267 53.1196 16.6697 53.219C16.6127 53.3184 16.5798 53.4298 16.5737 53.5442Z" fill="#E0E0E0"/>
<path d="M16.5737 55.8622V56.2475C16.5737 56.4572 16.7219 56.5415 16.902 56.4367L33.1923 47.0332C33.288 46.9713 33.3677 46.8876 33.4247 46.7889C33.4818 46.6902 33.5146 46.5794 33.5205 46.4655V46.078C33.5205 45.8683 33.3746 45.7839 33.1923 45.8888L16.902 55.2946C16.8069 55.3571 16.7277 55.441 16.6707 55.5396C16.6137 55.6381 16.5805 55.7486 16.5737 55.8622Z" fill="#E0E0E0"/>
<path d="M12.0464 57.7721L10.9795 56.744L11.4377 55.7706L12.0464 56.3565L14.5745 51.0039L15.0327 51.4484L12.0464 57.7721Z" fill="#0071CE"/>
<path d="M9.67334 45.8088L14.2645 43.1211L14.2622 48.4577L9.67334 51.1454V45.8088Z" fill="#FAFAFA"/>
<path d="M9.86703 45.9183V50.8149L14.0752 48.3506V43.4517L9.86703 45.9183ZM9.67554 51.337C9.64279 51.3364 9.61068 51.3278 9.58207 51.3119C9.55288 51.295 9.52865 51.2708 9.51184 51.2415C9.49503 51.2123 9.48623 51.1792 9.48633 51.1455V45.8088C9.48633 45.776 9.49497 45.7438 9.51138 45.7154C9.52779 45.687 9.55138 45.6634 9.57979 45.647L14.171 42.9593C14.1997 42.9425 14.2323 42.9336 14.2656 42.9336C14.2988 42.9336 14.3315 42.9425 14.3602 42.9593C14.3891 42.976 14.4131 42.9999 14.4299 43.0287C14.4466 43.0574 14.4556 43.0901 14.4559 43.1234V48.4555C14.4557 48.4885 14.4467 48.5209 14.4299 48.5493C14.4131 48.5778 14.389 48.6012 14.3602 48.6174L9.769 51.3096C9.74029 51.3275 9.70711 51.337 9.67326 51.337H9.67554Z" fill="#455A64"/>
<path d="M16.5737 41.9751V42.3626C16.5737 42.5723 16.7219 42.6567 16.902 42.5518L33.1923 33.1483C33.288 33.0859 33.3677 33.0018 33.4248 32.9027C33.4818 32.8037 33.5146 32.6926 33.5205 32.5784V32.1909C33.5205 31.9834 33.3746 31.8968 33.1923 32.0017L16.902 41.4074C16.8068 41.4699 16.7275 41.5537 16.6705 41.6523C16.6135 41.7509 16.5804 41.8614 16.5737 41.9751Z" fill="#E0E0E0"/>
<path d="M16.5737 44.3036V44.6889C16.5737 44.8986 16.7219 44.9829 16.902 44.8781L33.1923 35.4746C33.2881 35.4128 33.3679 35.3291 33.425 35.2304C33.4821 35.1317 33.5148 35.0208 33.5205 34.907V34.5194C33.5205 34.3097 33.3746 34.2253 33.1923 34.3302L16.902 43.7337C16.8066 43.7965 16.7272 43.8807 16.6702 43.9797C16.6132 44.0787 16.5802 44.1896 16.5737 44.3036Z" fill="#E0E0E0"/>
<path d="M16.5737 46.6317V47.017C16.5737 47.2267 16.7219 47.3111 16.902 47.2062L33.1923 37.8027C33.288 37.7408 33.3677 37.6571 33.4247 37.5584C33.4818 37.4597 33.5146 37.3489 33.5205 37.2351V36.8475C33.5205 36.6378 33.3746 36.5535 33.1923 36.6583L16.902 46.0618C16.8066 46.1246 16.7272 46.2089 16.6702 46.3078C16.6132 46.4068 16.5802 46.5177 16.5737 46.6317Z" fill="#E0E0E0"/>
<path d="M12.0464 48.5355L10.9795 47.5074L11.4377 46.5362L12.0464 47.1198L14.5745 41.7695L15.0327 42.2118L12.0464 48.5355Z" fill="#0071CE"/>
<path d="M9.48389 31.2215V40.9327C9.48389 41.5118 9.89194 41.7466 10.3957 41.4571L18.7939 36.6014C19.059 36.4296 19.2798 36.1975 19.4383 35.9242C19.5967 35.6509 19.6884 35.344 19.7058 35.0285V25.3241C19.7058 24.7451 19.3 24.5103 18.7939 24.7998L10.3912 29.6508C10.127 29.8227 9.90706 30.0545 9.74939 30.3275C9.59173 30.6004 9.50076 30.9067 9.48389 31.2215Z" fill="#0071CE"/>
<path opacity="0.7" d="M9.48389 31.2215V40.9327C9.48389 41.5118 9.89194 41.7466 10.3957 41.4571L18.7939 36.6014C19.059 36.4296 19.2798 36.1975 19.4383 35.9242C19.5967 35.6509 19.6884 35.344 19.7058 35.0285V25.3241C19.7058 24.7451 19.3 24.5103 18.7939 24.7998L10.3912 29.6508C10.127 29.8227 9.90706 30.0545 9.74939 30.3275C9.59173 30.6004 9.50076 30.9067 9.48389 31.2215Z" fill="white"/>
<path d="M14.5926 28.6609C15.5614 28.1024 16.3456 28.5561 16.3456 29.6731C16.3123 30.281 16.1362 30.8725 15.8316 31.3996C15.527 31.9268 15.1026 32.3748 14.5926 32.7073C13.626 33.2658 12.8418 32.8144 12.8418 31.6974C12.8745 31.0893 13.0501 30.4975 13.3543 29.9699C13.6585 29.4424 14.0827 28.9939 14.5926 28.6609Z" fill="#FAFAFA"/>
<path d="M17.6334 32.9393C17.4784 32.13 16.6486 32.1072 15.78 32.6087L13.4046 33.9765C12.5361 34.478 11.7063 35.4583 11.5513 36.4476L11.0977 39.5639L18.0893 35.5267L17.6334 32.9393Z" fill="#FAFAFA"/>
<path d="M20.7437 28.2728V24.9742C20.7486 24.8798 20.7758 24.7878 20.8229 24.7058C20.87 24.6239 20.9358 24.5541 21.0149 24.5023L33.2497 17.4355C33.4002 17.3488 33.521 17.4195 33.521 17.5927V20.8959C33.516 20.9904 33.4889 21.0823 33.4418 21.1643C33.3946 21.2463 33.3288 21.316 33.2497 21.3678L21.0218 28.4347C20.8645 28.5168 20.7437 28.4461 20.7437 28.2728Z" fill="#455A64"/>
<path d="M21.0149 29.6213L31.4511 23.5917C31.6016 23.5051 31.7224 23.5757 31.7224 23.749V24.1023C31.7178 24.1969 31.6908 24.2889 31.6436 24.371C31.5964 24.453 31.5305 24.5227 31.4511 24.5742L21.0149 30.6039C20.8645 30.6905 20.7437 30.6198 20.7437 30.4466V30.0932C20.7486 29.9988 20.7758 29.9068 20.8229 29.8249C20.87 29.7429 20.9358 29.6731 21.0149 29.6213Z" fill="#0071CE"/>
<path d="M21.0149 31.5849L30.3272 26.205C30.4777 26.1184 30.5985 26.189 30.5985 26.3623V26.7156C30.5939 26.8101 30.5669 26.9022 30.5198 26.9843C30.4726 27.0663 30.4066 27.136 30.3272 27.1875L21.0149 32.572C20.8645 32.6586 20.7437 32.588 20.7437 32.4147V32.0591C20.7484 31.9643 20.7755 31.872 20.8226 31.7896C20.8698 31.7072 20.9356 31.6371 21.0149 31.5849Z" fill="#0071CE"/>
<path d="M21.0149 33.5545L28.4055 29.287C28.556 29.2004 28.6791 29.2711 28.6791 29.4443V29.7999C28.6735 29.8945 28.6458 29.9864 28.5983 30.0684C28.5508 30.1503 28.4848 30.22 28.4055 30.2718L21.0149 34.5484C20.8645 34.635 20.7437 34.5666 20.7437 34.3911V34.0378C20.7468 33.9414 20.7731 33.8472 20.8203 33.763C20.8676 33.6789 20.9343 33.6074 21.0149 33.5545Z" fill="#0071CE"/>
</g>
<defs>
<filter id="filter0_d_900_25761" x="0" y="0" width="40" height="84.0156" filterUnits="userSpaceOnUse" color-interpolation-filters="sRGB">
<feFlood flood-opacity="0" result="BackgroundImageFix"/>
<feColorMatrix in="SourceAlpha" type="matrix" values="0 0 0 0 0 0 0 0 0 0 0 0 0 0 0 0 0 0 127 0" result="hardAlpha"/>
<feOffset dy="2"/>
<feGaussianBlur stdDeviation="1"/>
<feComposite in2="hardAlpha" operator="out"/>
<feColorMatrix type="matrix" values="0 0 0 0 0 0 0 0 0 0 0 0 0 0 0 0 0 0 0.25 0"/>
<feBlend mode="normal" in2="BackgroundImageFix" result="effect1_dropShadow_900_25761"/>
<feBlend mode="normal" in="SourceGraphic" in2="effect1_dropShadow_900_25761" result="shape"/>
</filter>
</defs>
</svg>
