<svg width="40" height="40" viewBox="0 0 40 40" fill="none" xmlns="http://www.w3.org/2000/svg">
<rect width="40" height="40" rx="20" fill="#0071CE"/>
<path d="M28.125 20.5C28.125 20.8516 27.8125 21.125 27.5 21.125H20.625V28C20.625 28.3516 20.3125 28.6641 20 28.6641C19.6484 28.6641 19.375 28.3516 19.375 28V21.125H12.5C12.1484 21.125 11.875 20.8516 11.875 20.5391C11.875 20.1875 12.1484 19.875 12.5 19.875H19.375V13C19.375 12.6875 19.6484 12.4141 20 12.4141C20.3125 12.4141 20.625 12.6875 20.625 13V19.875H27.5C27.8125 19.875 28.125 20.1875 28.125 20.5Z" fill="white"/>
</svg>
