<svg width="303" height="292" viewBox="0 0 303 292" fill="none" xmlns="http://www.w3.org/2000/svg">
<g filter="url(#filter0_d_2702_62754)">
<path d="M123.093 102.637L282.177 195.366C287 198.203 287 201.419 287 204.304C287 207.19 285.714 211.193 282.177 213.243L192.149 265.74C190.179 266.75 187.997 267.277 185.783 267.277C183.569 267.277 181.387 266.75 179.417 265.74L20.3165 173.012C16.7958 170.962 16 167.522 16 164.636C16 161.75 16.8038 157.184 20.3165 155.135L110.344 102.637C112.25 101.426 114.461 100.782 116.719 100.782C118.977 100.782 121.188 101.426 123.093 102.637Z" fill="#37474F"/>
<path d="M118.447 106.608L25.8468 160.592L185.759 253.771V267.283C183.539 267.327 181.346 266.795 179.393 265.74L20.3165 173.011C16.7958 170.962 16 167.521 16 164.636C16 161.75 16.8038 157.184 20.3165 155.135L110.344 102.637C112.754 101.131 115.618 100.525 118.431 100.925V106.608H118.447Z" fill="#263238"/>
<path d="M280.538 196.129L121.791 103.586C120.223 102.785 118.488 102.368 116.727 102.368C114.967 102.368 113.231 102.785 111.663 103.586L23.7575 154.837C19.9796 157.04 19.9796 160.649 23.7575 162.875L181.306 254.712C182.689 255.418 184.219 255.785 185.772 255.785C187.324 255.785 188.854 255.418 190.237 254.712L280.546 202.062C283.327 200.39 283.327 197.753 280.538 196.129Z" fill="#455A64"/>
<path d="M77.3068 196.837C78.0246 197.293 78.6255 197.91 79.061 198.64C79.4966 199.371 79.7548 200.193 79.8148 201.041C79.8421 201.327 79.7924 201.615 79.6708 201.875C79.5493 202.135 79.3603 202.358 79.1235 202.52C78.818 202.689 77.6766 203.38 77.3631 203.549C77.0699 203.676 76.7483 203.724 76.4307 203.687C76.1132 203.651 75.8109 203.531 75.5545 203.34L60.1694 194.369C59.4493 193.915 58.8462 193.298 58.4091 192.568C57.9719 191.837 57.7131 191.014 57.6534 190.165C57.6258 189.89 57.6697 189.612 57.7809 189.358C57.8922 189.105 58.067 188.884 58.2885 188.718C58.6019 188.525 59.7916 187.834 60.1051 187.657C60.3983 187.53 60.7199 187.482 61.0375 187.519C61.355 187.556 61.6573 187.675 61.9137 187.866L77.3068 196.837Z" fill="#455A64"/>
<path d="M75.5567 197.858L60.1716 188.887C58.781 188.083 57.6556 188.646 57.6556 190.165C57.7153 191.014 57.9741 191.837 58.4113 192.568C58.8484 193.298 59.4515 193.915 60.1716 194.369L75.5567 203.34C76.9393 204.144 78.0646 203.581 78.0646 202.062C78.0046 201.214 77.7465 200.391 77.3109 199.661C76.8753 198.931 76.2745 198.313 75.5567 197.858Z" fill="#37474F"/>
<path d="M50.3707 181.098C51.0882 181.556 51.6887 182.175 52.1242 182.907C52.5596 183.638 52.818 184.461 52.8786 185.31C52.9107 185.595 52.8631 185.884 52.741 186.143C52.619 186.403 52.4273 186.624 52.1873 186.781C51.8899 186.95 50.7485 187.641 50.435 187.818C50.1404 187.945 49.8176 187.993 49.4988 187.956C49.18 187.919 48.8764 187.8 48.6184 187.609L33.2333 178.686C32.5168 178.229 31.917 177.611 31.4816 176.881C31.0462 176.152 30.7872 175.33 30.7253 174.483C30.6977 174.207 30.7416 173.929 30.8528 173.676C30.9641 173.422 31.1389 173.202 31.3604 173.036C31.6658 172.835 32.8555 172.143 33.169 171.967C33.4636 171.839 33.7864 171.792 34.1052 171.828C34.424 171.865 34.7276 171.985 34.9856 172.176L50.3707 181.098Z" fill="#455A64"/>
<path d="M48.6206 182.151L33.2355 173.18C31.8529 172.377 30.7275 172.947 30.7275 174.467C30.7894 175.314 31.0483 176.136 31.4838 176.865C31.9192 177.595 32.519 178.213 33.2355 178.671L48.6206 187.641C50.0112 188.445 51.1365 187.874 51.1365 186.363C51.0762 185.513 50.8172 184.689 50.3802 183.957C49.9432 183.226 49.3405 182.607 48.6206 182.151Z" fill="#37474F"/>
<path d="M125.929 110.04L271.886 195.125C274.547 196.676 274.555 199.208 271.886 200.751L190.186 248.394C188.695 249.162 187.041 249.563 185.363 249.563C183.685 249.563 182.032 249.162 180.54 248.394L33.2885 162.562C31.1262 161.3 30.7082 159.403 32.0667 157.9L32.3963 157.554C32.6757 157.323 32.9742 157.116 33.2885 156.935L56.2697 143.535L57.7648 142.659C58.2288 142.422 58.7426 142.298 59.2639 142.298C59.7853 142.298 60.2991 142.422 60.7631 142.659C61.2479 142.897 61.7825 143.015 62.3222 143.004C62.862 142.993 63.3913 142.852 63.8658 142.595L90.6491 126.985C91.5253 126.47 91.5815 125.658 90.7536 125.176C89.9257 124.694 89.9498 124.011 90.5928 123.52L90.7456 123.424L113.253 110.322L113.727 110.04C115.616 109.078 117.707 108.576 119.828 108.576C121.949 108.576 124.039 109.078 125.929 110.04Z" fill="black"/>
<path d="M60.7656 146.132C60.3023 145.892 59.7882 145.767 59.2665 145.767C58.7448 145.767 58.2308 145.892 57.7674 146.132L56.2723 147L33.2911 160.4C32.9764 160.583 32.6779 160.793 32.3988 161.027L32.0693 161.364C32.0693 161.405 32.013 161.453 31.9808 161.485C32.3527 161.916 32.7959 162.281 33.2911 162.562L180.543 248.394C182.034 249.162 183.688 249.563 185.366 249.563C187.044 249.563 188.697 249.162 190.189 248.394L271.897 200.76C272.39 200.478 272.83 200.113 273.199 199.682C272.832 199.245 272.388 198.877 271.889 198.597L125.931 113.513C124.039 112.546 121.944 112.042 119.818 112.042C117.693 112.042 115.598 112.546 113.705 113.513L113.231 113.794L91.3349 126.551C91.3349 126.551 91.3349 129.179 91.3349 129.493C91.3142 129.7 91.2395 129.898 91.1182 130.068C90.9968 130.237 90.8332 130.371 90.6436 130.457L63.8604 146.068C63.3862 146.322 62.8586 146.46 62.3207 146.471C61.7828 146.483 61.2499 146.366 60.7656 146.132Z" fill="#FEA2C6"/>
<path opacity="0.65" d="M60.7656 146.132C60.3023 145.892 59.7882 145.767 59.2665 145.767C58.7448 145.767 58.2308 145.892 57.7674 146.132L56.2723 147L33.2911 160.4C32.9764 160.583 32.6779 160.793 32.3988 161.027L32.0693 161.364C32.0693 161.405 32.013 161.453 31.9808 161.485C32.3527 161.916 32.7959 162.281 33.2911 162.562L180.543 248.394C182.034 249.162 183.688 249.563 185.366 249.563C187.044 249.563 188.697 249.162 190.189 248.394L271.897 200.76C272.39 200.478 272.83 200.113 273.199 199.682C272.832 199.245 272.388 198.877 271.889 198.597L125.931 113.513C124.039 112.546 121.944 112.042 119.818 112.042C117.693 112.042 115.598 112.546 113.705 113.513L113.231 113.794L91.3349 126.551C91.3349 126.551 91.3349 129.179 91.3349 129.493C91.3142 129.7 91.2395 129.898 91.1182 130.068C90.9968 130.237 90.8332 130.371 90.6436 130.457L63.8604 146.068C63.3862 146.322 62.8586 146.46 62.3207 146.471C61.7828 146.483 61.2499 146.366 60.7656 146.132Z" fill="white"/>
<path d="M56.2651 158.133C56.2243 158.126 56.1858 158.109 56.1525 158.085L55.7587 157.819L54.7378 158.414C54.7144 158.431 54.6863 158.44 54.6574 158.44C54.6285 158.44 54.6004 158.431 54.577 158.414L54.4324 158.318L54.368 158.261C54.3655 158.24 54.3655 158.218 54.368 158.197L54.0465 156.589V156.525L54.1028 156.469L54.2475 156.388C54.289 156.373 54.3346 156.373 54.3761 156.388C54.4204 156.391 54.4626 156.408 54.4967 156.437L55.8632 157.361L56.0882 157.232C56.127 157.218 56.17 157.218 56.2088 157.232C56.2527 157.237 56.2946 157.254 56.3294 157.281L56.4178 157.345C56.4178 157.345 56.4821 157.393 56.4821 157.417C56.4821 157.442 56.4821 157.466 56.4178 157.49L56.1927 157.618L56.5866 157.884C56.6268 157.884 56.6509 157.94 56.6509 157.964C56.6509 157.988 56.6509 158.012 56.5786 158.036L56.4097 158.133C56.3627 158.148 56.3122 158.148 56.2651 158.133ZM55.4612 157.554L54.4886 156.895L54.7217 157.988L55.4612 157.554Z" fill="#455A64"/>
<path d="M57.2383 157.265C56.8066 157.228 56.3929 157.075 56.0406 156.823C55.6548 156.566 55.4538 156.3 55.4377 156.019C55.4217 155.738 55.6065 155.521 55.9682 155.312C56.1114 155.223 56.2654 155.152 56.4264 155.103C56.5722 155.055 56.7234 155.025 56.8766 155.014C56.8999 155.006 56.9256 155.006 56.9489 155.014C56.9527 155.027 56.9527 155.041 56.9489 155.054L57.0293 155.223H56.973C56.7426 155.246 56.5202 155.32 56.3219 155.44C56.0808 155.585 55.9602 155.746 55.9682 155.922C55.9763 156.099 56.129 156.3 56.4264 156.501C56.6839 156.689 56.986 156.805 57.3026 156.839C57.5825 156.867 57.8642 156.805 58.1064 156.662C58.1859 156.615 58.2612 156.561 58.3315 156.501C58.3865 156.456 58.4328 156.402 58.4681 156.34L57.8331 155.914L57.4071 156.164C57.3676 156.175 57.326 156.175 57.2865 156.164L57.1659 156.115L57.0775 156.051C57.0373 156.051 57.0132 155.995 57.0132 155.971C57.0132 155.947 57.0132 155.931 57.0775 155.906L57.7608 155.513C57.8002 155.484 57.8486 155.469 57.8974 155.472C57.9462 155.482 57.9927 155.501 58.0341 155.529L58.9424 156.148C58.967 156.162 58.9888 156.181 59.0067 156.204C59.0126 156.212 59.0158 156.222 59.0158 156.232C59.0158 156.242 59.0126 156.252 59.0067 156.26C58.8865 156.528 58.6719 156.743 58.4038 156.863C58.067 157.116 57.6593 157.256 57.2383 157.265Z" fill="#455A64"/>
<path d="M65.6911 152.161C65.7577 152.196 65.8125 152.251 65.8491 152.317C65.8856 152.383 65.9023 152.458 65.8973 152.534C65.8922 152.609 65.8655 152.682 65.8204 152.742C65.7753 152.803 65.7137 152.849 65.6429 152.876C65.4698 152.973 65.2747 153.024 65.0762 153.024C64.8777 153.024 64.6826 152.973 64.5095 152.876C64.4382 152.847 64.3772 152.798 64.3342 152.734C64.2913 152.67 64.2683 152.595 64.2683 152.518C64.2683 152.441 64.2913 152.366 64.3342 152.303C64.3772 152.239 64.4382 152.189 64.5095 152.161C64.6883 152.054 64.8924 151.998 65.1003 151.998C65.3082 151.998 65.5123 152.054 65.6911 152.161Z" fill="#455A64"/>
<path d="M63.6506 151.526C63.3989 151.625 63.1951 151.817 63.0814 152.062C62.9676 152.308 62.9527 152.588 63.0397 152.844C63.0728 152.9 63.122 152.944 63.1808 152.971C63.2397 152.998 63.3053 153.007 63.3693 152.997C63.5622 152.997 63.6988 152.868 63.6506 152.747C63.5894 152.567 63.5994 152.37 63.6786 152.197C63.7578 152.023 63.9002 151.887 64.0766 151.815C64.5414 151.573 65.0772 151.505 65.5878 151.622C65.7646 151.622 65.9656 151.582 65.9978 151.461C65.9978 151.365 65.9334 151.276 65.7888 151.244C65.0652 151.082 64.3076 151.182 63.6506 151.526Z" fill="#455A64"/>
<path d="M62.7747 150.931C62.4021 151.088 62.0953 151.369 61.9063 151.726C61.7173 152.084 61.6578 152.496 61.7378 152.892C61.7378 152.996 61.9066 153.069 62.0754 153.061C62.2602 153.061 62.3969 152.94 62.3567 152.828C62.2881 152.503 62.3348 152.165 62.4889 151.872C62.643 151.578 62.8948 151.348 63.2007 151.22C63.998 150.794 64.9156 150.65 65.8051 150.81C65.99 150.81 66.1668 150.762 66.199 150.649C66.199 150.545 66.1186 150.448 65.9578 150.424C64.87 150.235 63.7501 150.413 62.7747 150.931Z" fill="#455A64"/>
<path d="M45.3067 164.885L44.5511 164.379L45.6363 163.744L46.3919 164.258L45.3067 164.885Z" fill="#455A64"/>
<path d="M46.9309 163.936L45.4277 162.916L46.5129 162.281L48.0241 163.301L46.9309 163.936Z" fill="#455A64"/>
<path d="M48.5627 162.988L46.304 161.453L47.3891 160.818L49.6478 162.353L48.5627 162.988Z" fill="#455A64"/>
<path d="M50.1954 162.039L47.181 159.99L48.2662 159.355L51.2805 161.404L50.1954 162.039Z" fill="#455A64"/>
<path d="M115.996 120.619C115.785 120.58 115.568 120.611 115.377 120.707L111.31 123.07C111.044 123.223 111.092 123.512 111.422 123.73L112.789 124.662C112.991 124.794 113.223 124.874 113.464 124.895C113.568 124.907 113.673 124.907 113.777 124.895C113.885 124.884 113.988 124.851 114.083 124.799L118.15 122.435C118.415 122.283 118.367 121.993 118.046 121.776L116.671 120.844C116.468 120.715 116.236 120.637 115.996 120.619ZM113.44 124.742C113.335 124.725 113.236 124.683 113.15 124.622L111.776 123.697C111.543 123.537 111.502 123.303 111.695 123.191L115.763 120.828C115.811 120.797 115.866 120.778 115.923 120.771H116.028C116.128 120.791 116.223 120.829 116.309 120.884L117.684 121.816C117.925 121.977 117.957 122.21 117.764 122.323L113.697 124.686C113.62 124.733 113.529 124.752 113.44 124.742Z" fill="#455A64"/>
<path d="M112.705 122.901L114.313 124.003L113.678 124.372C113.611 124.399 113.536 124.399 113.469 124.372L112.263 123.569C112.086 123.448 112.062 123.271 112.199 123.191L112.705 122.901Z" fill="#455A64"/>
<path d="M113.005 122.733L113.769 122.283L115.384 123.384L114.621 123.826L113.005 122.733Z" fill="#455A64"/>
<path d="M114.066 122.114L114.83 121.672L116.454 122.773L115.682 123.215L114.066 122.114Z" fill="#455A64"/>
<path d="M115.998 121.125L117.164 121.929C117.381 122.074 117.317 122.274 117.003 122.459L116.746 122.612L115.138 121.511L115.741 121.157C115.819 121.113 115.912 121.102 115.998 121.125Z" fill="#455A64"/>
<path d="M116.832 120.811C116.945 120.739 117.266 120.811 117.547 121.036L117.797 121.205C118.078 121.398 118.223 121.607 118.118 121.68L117.917 121.808L116.631 120.932L116.832 120.811Z" fill="#455A64"/>
<path d="M105.585 127.556L108.8 124.75L110.239 127.266L108.181 126.599L105.585 127.556Z" fill="#455A64"/>
<path d="M62.8842 137.29L75.1665 130.128C75.5614 129.918 76 129.805 76.4469 129.797C76.8938 129.788 77.3364 129.885 77.7388 130.08C78.422 130.482 78.3899 131.157 77.6504 131.583L65.376 138.737C64.9818 138.948 64.543 139.063 64.0957 139.071C63.6485 139.08 63.2057 138.982 62.8038 138.785C62.1205 138.383 62.1527 137.692 62.8842 137.29Z" fill="#263238"/>
<path d="M80.966 126.165C81.4286 125.927 81.9411 125.803 82.4611 125.803C82.9812 125.803 83.4937 125.927 83.9562 126.165C84.1369 126.228 84.2934 126.346 84.4041 126.503C84.5148 126.659 84.5743 126.846 84.5743 127.037C84.5743 127.229 84.5148 127.415 84.4041 127.572C84.2934 127.728 84.1369 127.846 83.9562 127.909C83.4926 128.143 82.9805 128.265 82.4611 128.265C81.9418 128.265 81.4297 128.143 80.966 127.909C80.7854 127.846 80.6289 127.728 80.5182 127.572C80.4075 127.415 80.348 127.229 80.348 127.037C80.348 126.846 80.4075 126.659 80.5182 126.503C80.6289 126.346 80.7854 126.228 80.966 126.165Z" fill="#263238"/>
<g opacity="0.3">
<path d="M189.092 146.862L166.047 133.423L145.662 228.064L168.707 241.504L189.092 146.862Z" fill="white"/>
<path d="M135.703 222.269L156.08 127.627L125.929 110.039C124.036 109.073 121.941 108.569 119.816 108.569C117.69 108.569 115.595 109.073 113.703 110.039L113.228 110.321L99.6839 118.214L83.7924 192.005L135.703 222.269Z" fill="white"/>
<path d="M212.354 160.431L240.118 176.612L229.612 225.412L193.875 246.247L212.354 160.431Z" fill="white"/>
<path d="M271.884 200.759L259.28 208.113L263.171 190.052L271.876 195.124C274.545 196.683 274.553 199.215 271.884 200.759Z" fill="white"/>
</g>
<path opacity="0.3" d="M142.773 140.77L80.3943 176.928C78.2834 178.15 78.2834 180.124 80.3943 181.345L151.9 222.674C153.085 223.274 154.394 223.587 155.721 223.587C157.049 223.587 158.358 223.274 159.542 222.674L221.921 186.515C224.032 185.294 224.032 183.32 221.921 182.098L150.415 140.789C149.233 140.184 147.924 139.866 146.596 139.863C145.268 139.86 143.958 140.17 142.773 140.77Z" fill="#FF87B6"/>
<path d="M168.238 201.057C165.82 201.245 163.394 200.811 161.192 199.796L98.8133 163.862C95.0508 161.966 90.8193 157.022 90.5555 152.38L88.601 107.944L92.0702 107.748L94.0247 152.174C94.2104 155.35 97.5233 159.328 100.377 160.755L162.755 196.688C164.432 197.387 166.245 197.696 168.058 197.591C169.871 197.486 171.637 196.97 173.222 196.082L214.833 172.12C215.81 171.465 216.397 170.684 216.358 170.029C216.319 169.374 215.693 168.7 214.648 168.172L147.872 129.404C144.109 127.518 139.887 122.563 139.624 117.912L138.695 93.2653L142.164 93.0698L143.142 117.716C143.318 120.892 146.621 124.87 149.464 126.297L216.192 165.035C218.42 166.159 219.71 167.85 219.827 169.794C219.944 171.739 218.85 173.625 216.729 174.993L175.137 198.956C173.057 200.239 170.68 200.963 168.238 201.057Z" fill="#455A64"/>
<path d="M161.201 199.796C161.236 199.82 161.276 199.836 161.318 199.845C157.253 205.122 150.627 206.627 149.142 205.933C147.94 205.386 147.236 203.978 148.164 203.099C148.585 202.708 149.308 202.307 149.992 201.74C151.946 200.089 152.64 197.206 152.826 194.968L161.201 199.796Z" fill="#EF2E79"/>
<path d="M157.018 207.946C156.908 205.634 156.254 203.38 155.11 201.368C153.965 199.356 152.362 197.642 150.431 196.365C148.476 195.242 146.776 195.183 145.545 195.984L141.04 198.525L150.49 214.816L154.956 212.285C156.197 211.601 156.998 210.106 157.018 207.946Z" fill="#37474F"/>
<path d="M145.748 199.024C147.681 200.296 149.286 202.007 150.431 204.018C151.576 206.029 152.228 208.283 152.335 210.595C152.335 214.846 149.315 216.546 145.65 214.396C143.717 213.124 142.112 211.413 140.968 209.402C139.823 207.391 139.17 205.137 139.064 202.825C139.093 198.574 142.083 196.874 145.748 199.024Z" fill="#455A64"/>
<path d="M143.498 205.395C143.498 203.734 144.475 202.982 145.765 203.705C146.449 204.2 147.007 204.849 147.394 205.599C147.781 206.349 147.986 207.18 147.993 208.024C147.993 209.686 146.967 210.448 145.726 209.715C145.042 209.22 144.484 208.571 144.097 207.821C143.71 207.071 143.504 206.24 143.498 205.395Z" fill="#263238"/>
<path d="M149.672 193.16C149.672 193.16 150.102 200.978 146.515 203.998C145.841 204.555 145.108 204.975 144.688 205.356C143.779 206.207 144.492 207.633 145.665 208.19C147.414 209.001 156.327 206.705 159.806 199.004L149.672 193.16Z" fill="#F5F5F5"/>
<path d="M145.861 205.865C146.062 205.98 146.233 206.141 146.36 206.335C146.487 206.528 146.567 206.749 146.594 206.979C146.594 207.399 146.33 207.585 145.949 207.389C145.75 207.275 145.581 207.116 145.455 206.924C145.33 206.732 145.251 206.513 145.226 206.285C145.197 205.865 145.451 205.679 145.861 205.865Z" fill="#263238"/>
<path d="M111.939 171.426L112.047 171.485C107.991 176.762 101.375 178.267 99.8799 177.563C98.6876 177.016 97.9254 175.609 98.9026 174.729C99.3229 174.338 100.046 173.938 100.72 173.371C102.675 171.719 103.369 168.836 103.554 166.599L111.939 171.426Z" fill="#EF2E79"/>
<path d="M107.764 179.576C107.656 177.26 107.004 175.001 105.859 172.984C104.715 170.966 103.11 169.248 101.177 167.967C99.2224 166.843 97.522 166.784 96.2907 167.595L91.7855 170.126L101.226 186.417L105.702 183.886C106.953 183.231 107.744 181.736 107.764 179.576Z" fill="#37474F"/>
<path d="M96.4975 170.654C98.4275 171.929 100.03 173.641 101.174 175.652C102.319 177.662 102.973 179.914 103.084 182.225C103.084 186.476 100.065 188.176 96.3998 186.036C94.4696 184.758 92.8675 183.044 91.7231 181.032C90.5788 179.021 89.9245 176.767 89.8131 174.455C89.8424 170.204 92.8328 168.504 96.4975 170.654Z" fill="#455A64"/>
<path d="M94.203 177.026C94.203 175.364 95.2291 174.612 96.4702 175.335C97.1543 175.83 97.7123 176.479 98.0994 177.229C98.4864 177.979 98.6916 178.81 98.6984 179.655C98.6984 181.316 97.7211 182.078 96.4311 181.345C95.7471 180.85 95.1891 180.201 94.802 179.451C94.415 178.701 94.2098 177.87 94.203 177.026Z" fill="#263238"/>
<path d="M100.419 164.791C100.419 164.791 100.849 172.609 97.2621 175.628C96.578 176.185 95.8548 176.606 95.4346 176.987C94.516 177.837 95.2391 179.264 96.4118 179.821C98.1514 180.632 107.074 178.335 110.553 170.635L100.419 164.791Z" fill="#F5F5F5"/>
<path d="M96.5882 177.495C96.789 177.609 96.9594 177.77 97.0852 177.964C97.2111 178.158 97.2886 178.379 97.3114 178.609C97.3114 179.029 97.0573 179.215 96.6762 179.02C96.4756 178.907 96.3051 178.748 96.1792 178.556C96.0533 178.364 95.9757 178.144 95.953 177.915C95.9432 177.495 96.2364 177.309 96.5882 177.495Z" fill="#263238"/>
<path d="M210.556 165.797C206.49 171.055 199.874 172.569 198.389 171.876C197.187 171.319 196.483 169.921 197.412 169.042C197.832 168.651 198.555 168.25 199.239 167.673C201.194 166.022 201.887 163.149 202.073 160.901L209.96 165.445L210.468 165.738L210.556 165.797Z" fill="#EF2E79"/>
<path d="M206.261 173.879C206.149 171.569 205.495 169.317 204.35 167.307C203.206 165.297 201.604 163.584 199.675 162.308C197.72 161.175 196.02 161.126 194.788 161.927L190.283 164.468L199.724 180.759L204.199 178.218C205.45 177.544 206.242 176.049 206.261 173.879Z" fill="#37474F"/>
<path d="M194.995 164.967C196.929 166.238 198.533 167.95 199.678 169.961C200.823 171.972 201.475 174.226 201.582 176.537C201.582 180.788 198.562 182.489 194.898 180.339C192.964 179.067 191.36 177.355 190.215 175.344C189.07 173.333 188.418 171.08 188.311 168.768C188.34 164.517 191.38 162.817 194.995 164.967Z" fill="#455A64"/>
<path d="M192.697 171.338C192.697 169.677 193.675 168.924 194.965 169.647C195.649 170.142 196.207 170.791 196.594 171.542C196.981 172.292 197.186 173.123 197.193 173.967C197.193 175.628 196.167 176.381 194.926 175.658C194.242 175.163 193.683 174.514 193.296 173.764C192.909 173.013 192.704 172.182 192.697 171.338Z" fill="#263238"/>
<path d="M198.916 159.103C198.916 159.103 199.346 166.921 195.76 169.931C195.076 170.498 194.353 170.908 193.932 171.299C193.014 172.149 193.737 173.576 194.91 174.133C196.649 174.944 205.572 172.648 209.051 164.947L198.916 159.103Z" fill="#F5F5F5"/>
<path d="M195.102 171.807C195.302 171.919 195.473 172.078 195.599 172.27C195.724 172.463 195.802 172.683 195.825 172.911C195.825 173.331 195.571 173.527 195.189 173.331C194.989 173.219 194.818 173.06 194.692 172.868C194.567 172.676 194.489 172.456 194.466 172.227C194.437 171.807 194.73 171.621 195.102 171.807Z" fill="#263238"/>
<path d="M161.323 137.242L161.431 137.3C157.375 142.568 150.749 144.073 149.264 143.379C148.072 142.822 147.31 141.424 148.287 140.545C148.707 140.154 149.43 139.753 150.114 139.186C152.069 137.525 152.763 134.652 152.948 132.404L161.323 137.242Z" fill="#EF2E79"/>
<path d="M157.178 145.382C157.071 143.07 156.419 140.817 155.274 138.806C154.129 136.795 152.525 135.083 150.591 133.811C148.637 132.678 146.946 132.629 145.705 133.43L141.19 135.971L150.64 152.252L155.106 149.721C156.338 149.047 157.178 147.552 157.178 145.382Z" fill="#37474F"/>
<path d="M145.882 136.46C147.812 137.736 149.414 139.451 150.556 141.463C151.699 143.475 152.351 145.729 152.459 148.04C152.459 152.291 149.449 153.992 145.784 151.842C143.853 150.565 142.25 148.852 141.106 146.839C139.961 144.827 139.308 142.573 139.198 140.261C139.217 136.02 142.217 134.32 145.882 136.46Z" fill="#455A64"/>
<path d="M143.584 142.841C143.584 141.18 144.561 140.418 145.851 141.151C146.532 141.648 147.087 142.297 147.473 143.047C147.858 143.797 148.062 144.627 148.069 145.47C148.069 147.132 147.092 147.884 145.812 147.161C145.13 146.664 144.573 146.015 144.186 145.265C143.799 144.515 143.593 143.685 143.584 142.841Z" fill="#263238"/>
<path d="M149.792 130.606C149.792 130.606 150.231 138.424 146.635 141.434C145.961 142.001 145.228 142.411 144.808 142.802C143.899 143.652 144.612 145.079 145.785 145.636C147.524 146.447 156.447 144.151 159.926 136.45L149.792 130.606Z" fill="#F5F5F5"/>
<path d="M145.983 143.31C146.182 143.424 146.351 143.584 146.477 143.776C146.602 143.968 146.681 144.187 146.706 144.415C146.706 144.835 146.442 145.03 146.071 144.835C145.87 144.721 145.7 144.562 145.572 144.37C145.445 144.178 145.365 143.959 145.338 143.73C145.318 143.31 145.602 143.115 145.983 143.31Z" fill="#263238"/>
<path d="M139.041 26.6066L137.184 27.6913L135.747 21.8278C134.489 17.7927 131.871 14.3184 128.34 11.9966L126.639 11.0193C126.134 10.7731 125.579 10.6451 125.017 10.6451C124.455 10.6451 123.9 10.7731 123.395 11.0193L111.843 17.6646C111.727 17.732 111.598 17.7757 111.464 17.7933C111.33 17.8109 111.195 17.8019 111.064 17.767C110.934 17.732 110.812 17.6718 110.705 17.5897C110.598 17.5076 110.508 17.4052 110.441 17.2884C110.374 17.1716 110.33 17.0427 110.312 16.909C110.295 16.7754 110.304 16.6395 110.339 16.5093C110.374 16.3791 110.434 16.257 110.516 16.1501C110.598 16.0431 110.701 15.9534 110.817 15.886L122.369 9.23092C123.189 8.81532 124.097 8.59875 125.017 8.59875C125.937 8.59875 126.844 8.81532 127.665 9.23092L129.366 10.2082C133.386 12.8285 136.352 16.7844 137.741 21.3782L139.041 26.6066Z" fill="#37474F"/>
<path d="M86.9913 35.0594L83.649 29.274L111.56 13.1689C111.833 12.9969 112.153 12.9123 112.476 12.9263C112.799 12.9403 113.11 13.0521 113.367 13.247C114.056 13.6952 114.629 14.2996 115.04 15.0112C115.451 15.7227 115.688 16.5212 115.732 17.3417C115.774 17.6631 115.717 17.9896 115.569 18.2778C115.421 18.5659 115.188 18.8019 114.902 18.9542L86.9913 35.0594Z" fill="#EF2E79"/>
<path opacity="0.25" d="M86.9913 35.0594L83.649 29.274L111.56 13.1689C111.833 12.9969 112.153 12.9123 112.476 12.9263C112.799 12.9403 113.11 13.0521 113.367 13.247C114.056 13.6952 114.629 14.2996 115.04 15.0112C115.451 15.7227 115.688 16.5212 115.732 17.3417C115.774 17.6631 115.717 17.9896 115.569 18.2778C115.421 18.5659 115.188 18.8019 114.902 18.9542L86.9913 35.0594Z" fill="black"/>
<path d="M83.6452 29.3133C84.5247 28.8051 85.9906 29.6846 86.9093 31.2678C87.8279 32.8509 87.8865 34.5709 86.9874 35.0791C86.0884 35.5873 84.6518 34.698 83.7234 33.1246C82.795 31.5512 82.7657 29.8214 83.6452 29.3133Z" fill="#EF2E79"/>
<path d="M85.7681 57.7517L83.9113 58.8169L82.4748 52.9534C81.2109 48.9371 78.6018 45.479 75.0867 43.1613L73.3765 42.184C72.9612 42.0065 72.6071 41.7108 72.3583 41.3338C72.1095 40.9568 71.9768 40.5151 71.9768 40.0634C71.9768 39.6117 72.1095 39.1699 72.3583 38.7929C72.6071 38.4159 72.9612 38.1203 73.3765 37.9427L84.4097 31.571C84.6834 31.4146 85.1329 31.6883 85.387 32.1769C85.6411 32.6655 85.6802 33.203 85.387 33.3594L74.3538 39.7311C74.1992 39.8018 74.0697 39.9176 73.9824 40.0634C73.9824 40.0634 74.0606 40.2393 74.3538 40.4152L76.064 41.3924C80.0717 44.0023 83.0331 47.9393 84.4293 52.5136L85.7681 57.7517Z" fill="#455A64"/>
<path d="M145.144 94.4478L89.4399 126.609L170.855 173.606L226.549 141.444L145.144 94.4478Z" fill="#EF2E79"/>
<path opacity="0.1" d="M145.144 94.4478L89.4399 126.609L170.855 173.606L226.549 141.444L145.144 94.4478Z" fill="black"/>
<path d="M83.9098 58.8167L139.037 26.6063L145.145 94.4475L89.4411 126.609L83.9098 58.8167Z" fill="#CA1B5F"/>
<path d="M139.04 26.6063L145.148 94.4475L226.563 141.444L239.424 84.5479L139.04 26.6063ZM167.507 91.8284C166.924 92.0155 166.31 92.0857 165.699 92.0351C165.089 91.9846 164.494 91.8142 163.95 91.5338C163.405 91.2533 162.921 90.8683 162.526 90.4007C162.13 89.9331 161.83 89.3922 161.644 88.8087L148.187 53.8913C147.897 53.3434 147.727 52.7403 147.688 52.1218C147.648 51.5033 147.74 50.8834 147.957 50.303C148.175 49.7226 148.513 49.1949 148.949 48.7545C149.385 48.3141 149.909 47.971 150.487 47.7479C151.065 47.5248 151.684 47.4268 152.303 47.4602C152.922 47.4936 153.527 47.6577 154.078 47.9418C154.628 48.2258 155.113 48.6233 155.499 49.1081C155.885 49.5928 156.164 50.1539 156.318 50.7543L169.775 85.6717C170.282 86.79 170.328 88.0629 169.904 89.2151C169.479 90.3673 168.619 91.3061 167.507 91.8284ZM192.916 103.79C191.738 104.165 190.459 104.058 189.36 103.492C188.261 102.926 187.431 101.947 187.052 100.77L173.596 65.853C172.618 63.3121 173.644 60.5562 175.892 59.6962C176.475 59.5092 177.09 59.439 177.7 59.4895C178.311 59.5401 178.905 59.7105 179.45 59.9909C179.994 60.2714 180.478 60.6564 180.874 61.124C181.27 61.5915 181.569 62.1325 181.756 62.716L195.222 97.604C195.478 98.1609 195.622 98.7628 195.645 99.3753C195.668 99.9877 195.57 100.599 195.357 101.173C195.144 101.748 194.819 102.275 194.402 102.724C193.985 103.173 193.483 103.535 192.926 103.79H192.916ZM218.325 115.752C217.741 115.938 217.126 116.008 216.515 115.957C215.904 115.906 215.309 115.735 214.764 115.453C214.22 115.172 213.736 114.786 213.341 114.317C212.945 113.849 212.647 113.307 212.461 112.722L199.004 77.8146C198.715 77.2666 198.545 76.6635 198.505 76.045C198.466 75.4265 198.557 74.8067 198.775 74.2263C198.992 73.6459 199.33 73.1181 199.766 72.6777C200.202 72.2373 200.726 71.8943 201.305 71.6712C201.883 71.4481 202.502 71.35 203.121 71.3834C203.739 71.4168 204.344 71.581 204.895 71.865C205.446 72.149 205.93 72.5465 206.316 73.0313C206.702 73.5161 206.981 74.0772 207.135 74.6776L220.592 109.595C221.103 110.71 221.153 111.982 220.733 113.135C220.312 114.288 219.454 115.228 218.344 115.752H218.325Z" fill="#CA1B5F"/>
<path d="M83.8823 58.8165L89.4136 126.609L170.858 173.615L183.709 116.709L83.8823 58.8165ZM116.015 125.544C115.431 125.732 114.817 125.803 114.206 125.753C113.595 125.703 113 125.533 112.455 125.253C111.91 124.972 111.426 124.586 111.031 124.118C110.635 123.65 110.336 123.108 110.151 122.524L96.7039 87.6065C96.4126 87.0581 96.241 86.4541 96.2004 85.8344C96.1599 85.2148 96.2513 84.5936 96.4687 84.0119C96.6861 83.4302 97.0245 82.9012 97.4615 82.46C97.8985 82.0188 98.4242 81.6754 99.0038 81.4525C99.5834 81.2296 100.204 81.1322 100.824 81.1669C101.444 81.2015 102.049 81.3674 102.601 81.6535C103.152 81.9396 103.636 82.3394 104.021 82.8265C104.406 83.3137 104.683 83.877 104.835 84.4793L118.282 119.397C118.793 120.51 118.845 121.779 118.426 122.93C118.007 124.081 117.151 125.02 116.044 125.544H116.015ZM141.423 137.505C139.185 138.375 136.537 137.017 135.56 134.486L122.181 99.5584C121.89 99.01 121.718 98.4059 121.678 97.7863C121.637 97.1666 121.728 96.5454 121.946 95.9637C122.163 95.382 122.502 94.8531 122.939 94.4119C123.376 93.9707 123.901 93.6273 124.481 93.4044C125.06 93.1814 125.681 93.0841 126.301 93.1187C126.921 93.1534 127.526 93.3192 128.078 93.6053C128.629 93.8914 129.113 94.2913 129.498 94.7784C129.883 95.2655 130.161 95.8289 130.312 96.4311L143.759 131.339C144.736 133.889 143.71 136.694 141.462 137.505H141.423ZM166.832 149.467C164.594 150.337 161.946 148.978 160.968 146.447L147.599 111.53C147.31 110.982 147.14 110.379 147.1 109.76C147.061 109.142 147.153 108.522 147.37 107.941C147.587 107.361 147.925 106.833 148.361 106.393C148.797 105.952 149.322 105.609 149.9 105.386C150.478 105.163 151.097 105.065 151.716 105.099C152.335 105.132 152.939 105.296 153.49 105.58C154.041 105.864 154.525 106.262 154.912 106.746C155.298 107.231 155.577 107.792 155.73 108.393L169.187 143.31C169.694 144.433 169.736 145.711 169.304 146.864C168.872 148.018 168.001 148.954 166.881 149.467H166.832Z" fill="#FF8BB8"/>
<path d="M183.705 116.709L239.409 84.5577L226.548 141.454L170.854 173.605L183.705 116.709Z" fill="#EF2E79"/>
</g>
<defs>
<filter id="filter0_d_2702_62754" x="0" y="0.598755" width="303" height="290.687" filterUnits="userSpaceOnUse" color-interpolation-filters="sRGB">
<feFlood flood-opacity="0" result="BackgroundImageFix"/>
<feColorMatrix in="SourceAlpha" type="matrix" values="0 0 0 0 0 0 0 0 0 0 0 0 0 0 0 0 0 0 127 0" result="hardAlpha"/>
<feOffset dy="8"/>
<feGaussianBlur stdDeviation="8"/>
<feColorMatrix type="matrix" values="0 0 0 0 0 0 0 0 0 0 0 0 0 0 0 0 0 0 0.15 0"/>
<feBlend mode="normal" in2="BackgroundImageFix" result="effect1_dropShadow_2702_62754"/>
<feBlend mode="normal" in="SourceGraphic" in2="effect1_dropShadow_2702_62754" result="shape"/>
</filter>
</defs>
</svg>
