<svg width="32" height="32" viewBox="0 0 32 32" fill="none" xmlns="http://www.w3.org/2000/svg">
<path d="M9.35169 31.9326L9.06291 31.7638C9.01408 31.7331 8.97328 31.6912 8.9439 31.6415C8.91453 31.5919 8.89744 31.5359 8.89404 31.4784V8.00525C8.89757 7.94782 8.91472 7.89205 8.94409 7.84257C8.97346 7.79308 9.01419 7.75131 9.06291 7.7207L22.3193 0.0666092C22.3702 0.0407961 22.4265 0.0273437 22.4835 0.0273438C22.5406 0.0273438 22.5969 0.0407961 22.6478 0.0666092L22.9365 0.235481C22.9854 0.265992 23.0263 0.307725 23.0558 0.357214C23.0854 0.406703 23.1026 0.462519 23.1063 0.520029V23.9931C23.1032 24.0502 23.0867 24.1057 23.0581 24.1552C23.0295 24.2046 22.9895 24.2466 22.9416 24.2777L9.68098 31.9326C9.62998 31.9586 9.57356 31.9721 9.51633 31.9721C9.45911 31.9721 9.40269 31.9586 9.35169 31.9326Z" fill="#0071CE"/>
<path opacity="0.3" d="M9.35169 31.9326L9.06291 31.7638C9.01408 31.7331 8.97328 31.6912 8.9439 31.6415C8.91453 31.5919 8.89744 31.5359 8.89404 31.4784V8.00525C8.89757 7.94782 8.91472 7.89205 8.94409 7.84257C8.97346 7.79308 9.01419 7.75131 9.06291 7.7207L22.3193 0.0666092C22.3702 0.0407961 22.4265 0.0273437 22.4835 0.0273438C22.5406 0.0273438 22.5969 0.0407961 22.6478 0.0666092L22.9365 0.235481C22.9854 0.265992 23.0263 0.307725 23.0558 0.357214C23.0854 0.406703 23.1026 0.462519 23.1063 0.520029V23.9931C23.1032 24.0502 23.0867 24.1057 23.0581 24.1552C23.0295 24.2046 22.9895 24.2466 22.9416 24.2777L9.68098 31.9326C9.62998 31.9586 9.57356 31.9721 9.51633 31.9721C9.45911 31.9721 9.40269 31.9586 9.35169 31.9326Z" fill="black"/>
<path opacity="0.4" d="M23.1004 0.493283C23.0885 0.408847 23.0159 0.376762 22.9374 0.42489L9.68101 8.07898C9.63254 8.10913 9.59269 8.15131 9.56534 8.20141L8.94727 7.8451C8.97462 7.79499 9.01447 7.75282 9.06294 7.72266L22.3193 0.0685717C22.3704 0.0427507 22.4268 0.0292969 22.484 0.0292969C22.5412 0.0292969 22.5976 0.0427507 22.6486 0.0685717L22.9374 0.237443C22.9811 0.266184 23.0182 0.303838 23.0463 0.34793C23.0743 0.392023 23.0928 0.441558 23.1004 0.493283Z" fill="#0071CE"/>
<path opacity="0.15" d="M9.65115 31.9462C9.64782 31.947 9.64436 31.947 9.64102 31.9462L9.62498 31.953H9.61738C9.60752 31.9565 9.59734 31.959 9.58698 31.9606C9.52145 31.9732 9.4537 31.9677 9.39109 31.9445C9.37829 31.9402 9.36587 31.9348 9.35394 31.9285L9.06517 31.7596C9.01753 31.7283 8.97789 31.6862 8.94944 31.6368C8.921 31.5874 8.90453 31.532 8.90137 31.4751V8.00196C8.9034 7.94471 8.91996 7.88893 8.94949 7.83984L9.56756 8.19616C9.53746 8.24504 9.52058 8.30091 9.51859 8.35828V31.8314C9.51761 31.8615 9.52651 31.8912 9.54392 31.9158C9.55401 31.9279 9.56726 31.9368 9.58217 31.9418C9.59709 31.9467 9.61309 31.9474 9.62836 31.9437L9.65115 31.9462Z" fill="black"/>
<path d="M18.1385 4.11433L18.1199 4.10251L17.9037 3.97839C17.8246 3.93635 17.739 3.90781 17.6504 3.89396C17.6133 3.88551 17.5795 3.87538 17.5499 3.86609C17.5174 3.855 17.4856 3.84203 17.4545 3.82725L17.4706 3.80699L17.2266 3.66598C17.2067 3.65472 17.1854 3.6462 17.1632 3.64065C17.0712 3.6187 16.9336 3.67189 16.7968 3.65585C16.7463 3.65137 16.6974 3.63581 16.6536 3.61026C16.6098 3.58472 16.5722 3.54983 16.5435 3.50808C16.459 3.39579 16.4101 3.19905 16.3358 3.03693L16.3999 2.94237C16.3935 2.93793 16.3867 2.93398 16.3797 2.93054L16.1559 2.80136C16.1184 2.77897 16.0755 2.76728 16.0318 2.76758C15.9482 2.77193 15.8673 2.79814 15.7971 2.84358C15.2617 3.15345 15.244 3.8872 15.0507 4.37017C14.8573 4.85314 14.5846 5.00428 14.436 5.21453C14.2874 5.42477 14.2772 5.57591 13.9479 6.02933C13.6186 6.48275 13.606 6.59421 13.606 6.68033V7.35582L13.8491 7.49598L18.2313 4.96291L18.1385 4.11433ZM14.121 6.72002C14.0636 6.75295 14.0172 6.70904 14.0172 6.62123C14.0164 6.57911 14.0254 6.53738 14.0434 6.4993C14.0614 6.46122 14.088 6.42782 14.121 6.40169C14.1776 6.36876 14.224 6.41352 14.224 6.50133C14.2248 6.54324 14.2158 6.58475 14.198 6.62267C14.1801 6.66059 14.1538 6.69389 14.121 6.72002ZM16.0461 4.82275C16.0185 4.84303 15.9865 4.85659 15.9527 4.86234C15.9189 4.86809 15.8843 4.86588 15.8515 4.85588C15.8187 4.84588 15.7887 4.82836 15.7638 4.80473C15.739 4.78109 15.72 4.75199 15.7084 4.71974C15.5395 4.75267 15.412 4.58802 15.412 4.30685C15.412 3.97417 15.5868 3.60434 15.803 3.48022C15.8306 3.45976 15.8626 3.44605 15.8964 3.4402C15.9302 3.43435 15.965 3.43653 15.9978 3.44655C16.0307 3.45656 16.0607 3.47415 16.0855 3.49789C16.1103 3.52163 16.1292 3.55086 16.1407 3.58323C16.3096 3.54946 16.4371 3.71326 16.4371 3.99612C16.4354 4.32795 16.2615 4.69778 16.0461 4.82275ZM17.501 4.76449C17.4436 4.79826 17.398 4.75351 17.398 4.6657C17.397 4.62376 17.4059 4.58218 17.4237 4.54423C17.4416 4.50628 17.4681 4.473 17.501 4.44701C17.5584 4.41408 17.6048 4.45883 17.6048 4.54664C17.6056 4.58852 17.5966 4.63 17.5786 4.6678C17.5606 4.70561 17.534 4.73871 17.501 4.76449Z" fill="#455A64"/>
<path opacity="0.5" d="M14.0982 6.84109L13.6271 6.56836C13.6164 6.60251 13.6113 6.63814 13.6119 6.6739V7.34939L13.855 7.48955L14.0982 7.34854V6.84109Z" fill="#37474F"/>
<path opacity="0.5" d="M14.5855 5.99846L14.8295 5.43527L14.442 5.20898C14.3288 5.36603 14.2959 5.49269 14.1431 5.74262L14.5855 5.99846Z" fill="#37474F"/>
<path opacity="0.5" d="M15.5597 4.8722L15.5909 4.70839C15.4837 4.66364 15.4119 4.51841 15.4119 4.30648C15.4133 4.02699 15.519 3.75809 15.7083 3.55247L15.3705 3.35742C15.2261 3.68503 15.1729 4.07175 15.0556 4.36558C15.0302 4.42807 15.0041 4.48464 14.9771 4.53446L15.5597 4.8722Z" fill="#37474F"/>
<path d="M18.1387 4.1137L18.1201 4.10188C18.0481 4.06876 17.9724 4.04438 17.8946 4.02926C17.767 4.00565 17.6484 3.94721 17.5518 3.86039C17.5274 3.83815 17.5008 3.81835 17.4725 3.80129C17.4523 3.78926 17.4303 3.78043 17.4075 3.77511C17.2597 3.73965 16.9912 3.90008 16.7987 3.65015L16.7928 3.64255C16.6577 3.46101 16.6087 3.0515 16.406 2.93667C16.3996 2.93223 16.3928 2.92828 16.3858 2.92485C16.3013 2.88601 16.1941 2.8936 16.048 2.97804C15.5119 3.28792 15.4941 4.02251 15.3016 4.50464C15.1091 4.98676 14.8355 5.13875 14.6869 5.34899C14.5383 5.55924 14.5282 5.71038 14.1989 6.1638C13.8696 6.61722 13.8569 6.72867 13.8569 6.8148V7.49028L18.2391 4.95721V4.28173C18.2419 4.24675 18.2337 4.21178 18.2157 4.18167C18.1977 4.15155 18.1708 4.1278 18.1387 4.1137ZM14.3635 6.86039C14.307 6.89332 14.2605 6.84857 14.2605 6.76076C14.2598 6.71873 14.2687 6.67709 14.2866 6.63904C14.3044 6.60098 14.3308 6.56752 14.3635 6.54122C14.421 6.50829 14.4666 6.55305 14.4666 6.64086C14.4675 6.68292 14.4587 6.72462 14.4408 6.7627C14.4229 6.80079 14.3965 6.83422 14.3635 6.86039ZM16.0463 4.82211C16.0187 4.8424 15.9867 4.85596 15.9529 4.86171C15.9191 4.86746 15.8845 4.86525 15.8517 4.85524C15.8189 4.84524 15.7889 4.82773 15.764 4.80409C15.7392 4.78046 15.7202 4.75136 15.7086 4.7191C15.6704 4.63342 15.6522 4.54015 15.6554 4.44638C15.6554 4.11454 15.8302 3.74387 16.0463 3.61975C16.0753 3.60211 16.107 3.58927 16.1401 3.58175C16.3089 3.54798 16.4364 3.71179 16.4364 3.99465C16.4356 4.32732 16.2617 4.69715 16.0463 4.82211ZM17.7444 4.90655C17.6869 4.93948 17.6405 4.89473 17.6405 4.80692C17.6397 4.76492 17.6487 4.72332 17.6667 4.68537C17.6848 4.64743 17.7113 4.61418 17.7444 4.58823C17.8018 4.5553 17.8474 4.60005 17.8474 4.68786C17.8486 4.73008 17.8399 4.77199 17.822 4.81026C17.8041 4.84852 17.7775 4.88207 17.7444 4.90824V4.90655Z" fill="#37474F"/>
<path d="M16.4354 3.99604C16.4354 4.32787 16.2606 4.6977 16.0453 4.82267C16.0176 4.84295 15.9856 4.85651 15.9518 4.86226C15.918 4.86801 15.8834 4.8658 15.8506 4.8558C15.8178 4.84579 15.7878 4.82828 15.7629 4.80465C15.7381 4.78101 15.7191 4.75191 15.7075 4.71965C15.7409 4.71281 15.7729 4.70024 15.8021 4.6825C16.0182 4.55754 16.1922 4.18771 16.1922 3.85588C16.1959 3.76188 16.178 3.66829 16.1398 3.58231C16.3104 3.54938 16.4354 3.71318 16.4354 3.99604Z" fill="#263238"/>
<path d="M14.3633 6.8604C14.3067 6.89333 14.2603 6.84942 14.2603 6.76161C14.2596 6.71958 14.2685 6.67794 14.2863 6.63989C14.3042 6.60183 14.3305 6.56837 14.3633 6.54208C14.4207 6.50915 14.4672 6.5539 14.4672 6.64171C14.4679 6.68371 14.4589 6.72531 14.4409 6.76325C14.4229 6.80119 14.3963 6.83444 14.3633 6.8604Z" fill="#263238"/>
<path d="M17.744 4.90923C17.6866 4.94216 17.6402 4.89825 17.6402 4.81044C17.6394 4.76832 17.6484 4.72659 17.6664 4.68851C17.6844 4.65043 17.711 4.61703 17.744 4.5909C17.8006 4.55797 17.847 4.60272 17.847 4.69054C17.8478 4.73244 17.8389 4.77396 17.821 4.81188C17.8031 4.84979 17.7768 4.8831 17.744 4.90923Z" fill="#263238"/>
<path d="M10.5402 9.46492L22.0766 2.80463C22.1073 2.78926 22.1411 2.78125 22.1754 2.78125C22.2097 2.78125 22.2436 2.78926 22.2742 2.80463L22.3848 2.8688C22.4134 2.88725 22.4372 2.91214 22.4543 2.94147C22.4715 2.97081 22.4815 3.00376 22.4836 3.03768V23.3563C22.4814 23.3902 22.4713 23.4231 22.4542 23.4524C22.437 23.4817 22.4133 23.5066 22.3848 23.5251L10.8492 30.188C10.8186 30.2033 10.7847 30.2113 10.7504 30.2113C10.7161 30.2113 10.6823 30.2033 10.6517 30.188L10.5402 30.1238C10.5117 30.1052 10.488 30.0803 10.4709 30.051C10.4537 30.0217 10.4436 29.9888 10.4414 29.9549V9.63632C10.4431 9.60197 10.453 9.56851 10.4701 9.53871C10.4873 9.5089 10.5113 9.48361 10.5402 9.46492Z" fill="#F5F5F5"/>
<path d="M10.8256 30.1988C10.8139 30.2033 10.8017 30.2064 10.7893 30.2081H10.7699C10.75 30.2106 10.7298 30.2106 10.7099 30.2081C10.6975 30.2064 10.6853 30.2033 10.6736 30.1988L10.6517 30.1878L10.5402 30.1236C10.5118 30.105 10.4882 30.0801 10.471 30.0508C10.4539 30.0215 10.4438 29.9886 10.4414 29.9548V9.63616C10.4424 9.60173 10.4526 9.56819 10.471 9.53906L10.7791 9.71722C10.7616 9.74665 10.7517 9.78005 10.7504 9.81432V30.1304C10.7504 30.1844 10.7825 30.2114 10.8256 30.1988Z" fill="#E0E0E0"/>
<path d="M22.3848 2.8688L22.2742 2.80463C22.2436 2.78926 22.2097 2.78125 22.1754 2.78125C22.1411 2.78125 22.1073 2.78926 22.0766 2.80463L10.5402 9.46492C10.5117 9.48336 10.4878 9.50826 10.4707 9.53759C10.4535 9.56692 10.4435 9.59987 10.4414 9.63379V12.9268L10.7504 13.1058L22.487 6.33151V3.03852C22.4847 3.00415 22.4742 2.97084 22.4564 2.94132C22.4386 2.91181 22.4141 2.88695 22.3848 2.8688Z" fill="#0071CE"/>
<path opacity="0.4" d="M22.3848 2.8688L22.2742 2.80463C22.2436 2.78926 22.2097 2.78125 22.1754 2.78125C22.1411 2.78125 22.1073 2.78926 22.0766 2.80463L10.5402 9.46492C10.5117 9.48336 10.4878 9.50826 10.4707 9.53759C10.4535 9.56692 10.4435 9.59987 10.4414 9.63379V12.9268L10.7504 13.1058L22.487 6.33151V3.03852C22.4847 3.00415 22.4742 2.97084 22.4564 2.94132C22.4386 2.91181 22.4141 2.88695 22.3848 2.8688Z" fill="white"/>
<path d="M22.481 3.01053C22.4691 2.97 22.4311 2.95734 22.3864 2.98351L10.85 9.6438C10.8207 9.66194 10.7966 9.68722 10.7799 9.71726L10.4717 9.53994C10.4876 9.50937 10.5115 9.4837 10.5409 9.46564L22.0774 2.80535C22.1077 2.78952 22.1415 2.78125 22.1757 2.78125C22.21 2.78125 22.2437 2.78952 22.2741 2.80535L22.3864 2.86952C22.4107 2.88557 22.4316 2.90631 22.4479 2.93052C22.4641 2.95473 22.4754 2.98193 22.481 3.01053Z" fill="#0071CE"/>
<path opacity="0.6" d="M22.481 3.01053C22.4691 2.97 22.4311 2.95734 22.3864 2.98351L10.85 9.6438C10.8207 9.66194 10.7966 9.68722 10.7799 9.71726L10.4717 9.53994C10.4876 9.50937 10.5115 9.4837 10.5409 9.46564L22.0774 2.80535C22.1077 2.78952 22.1415 2.78125 22.1757 2.78125C22.21 2.78125 22.2437 2.78952 22.2741 2.80535L22.3864 2.86952C22.4107 2.88557 22.4316 2.90631 22.4479 2.93052C22.4641 2.95473 22.4754 2.98193 22.481 3.01053Z" fill="white"/>
<path d="M10.4409 9.63727V12.9303L10.75 13.1093V9.81628C10.7512 9.78174 10.7611 9.74807 10.7787 9.71833L10.4705 9.54102C10.4522 9.56989 10.442 9.60313 10.4409 9.63727Z" fill="#0071CE"/>
<path d="M18.9269 5.30613L18.6845 5.16597C18.6465 5.14726 18.6045 5.13809 18.5621 5.13927C18.5198 5.14045 18.4783 5.15193 18.4414 5.17272C18.1585 5.29769 18.0361 5.35426 17.89 5.41505C17.8562 5.42856 17.8225 5.44292 17.7845 5.45727C17.727 5.48007 17.6156 5.46149 17.6485 5.26138L17.9652 4.56141H17.9601L17.722 4.42378C17.7099 4.41635 17.6964 4.41147 17.6823 4.40942C17.6736 4.40893 17.6648 4.40893 17.6561 4.40942C17.5024 4.40942 17.4585 3.41308 17.4569 3.38269L17.4467 3.37678L17.2103 3.24168C17.1695 3.21832 17.1231 3.20636 17.076 3.20706C16.9978 3.21042 16.9215 3.23211 16.8531 3.27039C16.4833 3.46459 16.1101 4.04044 16.0189 4.55719C15.9615 4.88311 15.633 5.38466 15.4439 5.57041C15.2548 5.75617 15.2413 5.90816 15.2413 5.90816L15.1568 6.43166L15.1095 6.69932C15.0749 6.89859 14.8697 7.09194 14.8697 7.09194L14.1098 7.66357C13.6319 8.06042 13.4968 8.46149 13.4048 8.95713C13.4048 8.97486 13.4048 8.98668 13.4132 8.99175C13.4145 8.99258 13.4159 8.99303 13.4174 8.99303C13.419 8.99303 13.4204 8.99258 13.4217 8.99175L13.5196 8.93602L18.7698 5.90731C18.7822 5.89899 18.7929 5.88829 18.8012 5.87582C18.8094 5.86336 18.8151 5.84938 18.818 5.8347C18.8484 5.65316 18.9362 5.31457 18.9362 5.31457L18.9269 5.30613ZM17.3505 4.0835C17.2939 4.40182 17.0651 4.75899 16.8371 4.87551C16.68 4.95994 16.5652 4.90591 16.5272 4.76152C16.4994 4.7721 16.4695 4.77563 16.44 4.7718C16.4105 4.76797 16.3825 4.75689 16.3583 4.73957C16.2857 4.68215 16.9545 3.53383 17.0093 3.55747C17.0354 3.57131 17.058 3.59089 17.0754 3.61473C17.0928 3.63857 17.1046 3.66605 17.1098 3.6951C17.2939 3.63937 17.4011 3.79811 17.3505 4.0835Z" fill="#455A64"/>
<path opacity="0.5" d="M14.1559 8.21647L13.7734 7.99609C13.5514 8.28824 13.4619 8.59559 13.396 8.9519C13.396 8.96964 13.396 8.98146 13.4044 8.98652C13.4057 8.98736 13.4072 8.9878 13.4087 8.9878C13.4102 8.9878 13.4116 8.98736 13.4129 8.98652L13.7143 8.74757L14.1559 8.21647Z" fill="#37474F"/>
<path opacity="0.5" d="M15.0801 6.781L15.6188 7.09172L15.8037 5.99406L15.3173 5.71289C15.2788 5.76857 15.2529 5.83195 15.2414 5.89865L15.1569 6.42215L15.1096 6.68981C15.103 6.72115 15.0931 6.75171 15.0801 6.781Z" fill="#37474F"/>
<path opacity="0.5" d="M16.2747 3.87891C16.1515 4.08755 16.0657 4.31616 16.0214 4.55439C15.983 4.72212 15.9186 4.8828 15.8306 5.03061L16.2933 5.29827L16.5204 4.76379C16.4925 4.77428 16.4625 4.77762 16.433 4.77349C16.4035 4.76936 16.3755 4.75789 16.3515 4.74015C16.3144 4.7106 16.4731 4.39312 16.6428 4.09422L16.2747 3.87891Z" fill="#37474F"/>
<path d="M18.9309 5.3081H18.9266C18.8886 5.28994 18.8467 5.28115 18.8046 5.28247C18.7624 5.2838 18.7212 5.29519 18.6843 5.3157C18.3373 5.46853 18.2326 5.51919 18.0274 5.60025C17.9717 5.62305 17.8585 5.60447 17.8898 5.41703C17.8894 5.41281 17.8894 5.40857 17.8898 5.40436L17.9371 5.1367L18.0097 4.72043C18.0097 4.72043 18.0401 4.60644 17.9632 4.56338H17.9582C17.9391 4.55459 17.9184 4.54998 17.8974 4.54987C17.8531 4.54465 17.8106 4.52948 17.773 4.5055C17.7354 4.48152 17.7038 4.44935 17.6804 4.4114C17.6393 4.35114 17.6106 4.28328 17.5961 4.21179C17.5816 4.1403 17.5816 4.06664 17.5959 3.99513C17.6508 3.68272 17.59 3.46403 17.4516 3.38213L17.4414 3.37537C17.3519 3.32809 17.232 3.33569 17.0919 3.40999C16.7212 3.60419 16.348 4.18004 16.2568 4.69679C16.1994 5.02271 15.8718 5.52426 15.6818 5.71002C15.4918 5.89578 15.4791 6.04776 15.4791 6.04776L15.3947 6.57126L15.3474 6.83892C15.3128 7.03819 15.1076 7.23155 15.1076 7.23155L14.3477 7.80318C14.0431 8.04578 13.8232 8.37861 13.7195 8.75392C13.7195 8.75392 13.4341 8.97514 13.4155 8.99372L13.5135 8.93799L18.7789 5.91097C18.7789 5.91097 18.8397 5.87804 18.8523 5.8696C18.865 5.86116 19.0778 5.6602 19.0778 5.6602C19.0693 5.48373 19.0187 5.36045 18.9309 5.3081ZM17.3502 4.08379C17.2937 4.40211 17.0648 4.75927 16.8369 4.87579C16.6798 4.96023 16.565 4.90619 16.527 4.7618C16.5103 4.68075 16.5103 4.59715 16.527 4.5161C16.5836 4.19777 16.8132 3.84061 17.0412 3.72493C17.0622 3.71346 17.0842 3.70413 17.1071 3.69707C17.2937 3.63965 17.4009 3.79839 17.3502 4.08379Z" fill="#37474F"/>
<path d="M17.3501 4.08392C17.2935 4.40224 17.0647 4.7594 16.8367 4.87593C16.6797 4.96036 16.5649 4.90632 16.5269 4.76194C16.5499 4.75505 16.5722 4.74601 16.5936 4.73492C16.8215 4.61502 17.0512 4.26123 17.1069 3.94291C17.1241 3.86191 17.1241 3.7782 17.1069 3.6972C17.2935 3.63979 17.4008 3.79853 17.3501 4.08392Z" fill="#263238"/>
<path d="M17.1305 3.70998C17.1518 3.70865 17.1731 3.71285 17.1924 3.72217C17.2116 3.73148 17.2281 3.74561 17.2403 3.76318C17.334 3.89658 17.2403 4.23855 17.2048 4.34832C17.1508 4.5003 16.7978 4.85493 16.6982 4.85493C16.666 4.84968 16.6353 4.83791 16.6078 4.82034C16.5804 4.80277 16.5568 4.77977 16.5386 4.75276C16.5229 4.67445 16.5229 4.59381 16.5386 4.5155C16.5943 4.2014 16.8215 3.85183 17.0452 3.73531C17.0651 3.72429 17.086 3.71525 17.1077 3.70829H17.1288M17.1288 3.69309H17.1043C17.0815 3.70015 17.0594 3.70949 17.0385 3.72096C16.8105 3.84001 16.5808 4.1938 16.5242 4.51212C16.5075 4.59317 16.5075 4.67678 16.5242 4.75783C16.5433 4.78686 16.5681 4.81166 16.5972 4.83068C16.6262 4.84971 16.6589 4.86256 16.6931 4.86844C16.7987 4.86844 17.1533 4.50874 17.2107 4.35C17.2681 4.19126 17.3906 3.69141 17.122 3.69141L17.1288 3.69309Z" fill="#263238"/>
<path d="M13.4148 8.98586L18.779 5.90312L18.8525 5.86174C18.866 5.8533 19.0779 5.65234 19.0779 5.65234L13.718 8.74944C13.718 8.74944 13.3963 9.00106 13.4148 8.98586Z" fill="#263238"/>
<path d="M20.0018 15.9303C19.9941 15.9305 19.9864 15.9284 19.9798 15.9244C19.9729 15.9206 19.9671 15.9149 19.9631 15.9081C19.9591 15.9013 19.957 15.8935 19.957 15.8855V14.3961C19.957 14.3882 19.9591 14.3804 19.9631 14.3735C19.9671 14.3667 19.9729 14.3611 19.9798 14.3573L21.2607 13.6176C21.2675 13.6135 21.2752 13.6113 21.2831 13.6113C21.291 13.6113 21.2987 13.6135 21.3055 13.6176C21.3124 13.6214 21.3182 13.627 21.3222 13.6339C21.3262 13.6407 21.3283 13.6485 21.3283 13.6564V15.1493C21.3282 15.1572 21.326 15.1649 21.322 15.1717C21.318 15.1785 21.3123 15.1842 21.3055 15.1881L20.0246 15.9278C20.0173 15.9306 20.0095 15.9315 20.0018 15.9303ZM20.0465 14.4214V15.8079L21.2379 15.1197V13.7341L20.0465 14.4214Z" fill="#455A64"/>
<path d="M11.5107 19.2039V19.307C11.5107 19.3627 11.5504 19.3846 11.5952 19.3568L15.9343 16.8524C15.9592 16.8356 15.9798 16.8131 15.9945 16.7869C16.0092 16.7606 16.0175 16.7313 16.0188 16.7013V16.5974C16.0188 16.5417 15.9799 16.5189 15.9343 16.5476L11.5952 19.052C11.5703 19.069 11.5497 19.0916 11.5351 19.118C11.5204 19.1444 11.5121 19.1738 11.5107 19.2039Z" fill="#E0E0E0"/>
<path d="M11.5107 19.8502V19.9532C11.5107 20.009 11.5504 20.0318 11.5952 20.0039L19.2712 15.5719C19.2961 15.555 19.3167 15.5326 19.3314 15.5063C19.3461 15.4801 19.3544 15.4508 19.3557 15.4207V15.3186C19.3557 15.262 19.3168 15.24 19.2712 15.2679L11.5986 19.6982C11.573 19.7149 11.5517 19.7373 11.5364 19.7637C11.5211 19.7901 11.5124 19.8198 11.5107 19.8502Z" fill="#E0E0E0"/>
<path d="M11.5107 20.4703V20.5733C11.5107 20.6291 11.5504 20.6519 11.5952 20.624L19.2678 16.1937C19.2927 16.1768 19.3133 16.1544 19.328 16.1281C19.3427 16.1019 19.351 16.0726 19.3523 16.0425V15.9395C19.3523 15.8838 19.3134 15.861 19.2678 15.8888L11.5952 20.3192C11.5703 20.3361 11.5498 20.3585 11.5351 20.3848C11.5204 20.411 11.5121 20.4403 11.5107 20.4703Z" fill="#E0E0E0"/>
<path d="M20.6262 15.2345L20.3281 14.9483L20.4278 14.7372L20.5975 14.9002L21.3321 13.3457L21.4604 13.4698L20.6262 15.2345Z" fill="#0071CE"/>
<path d="M20.0018 18.4635C19.9941 18.4637 19.9864 18.4616 19.9798 18.4576C19.9729 18.4538 19.9671 18.4481 19.9631 18.4413C19.9591 18.4345 19.957 18.4267 19.957 18.4187V16.9293C19.9571 16.9213 19.9592 16.9134 19.9632 16.9065C19.9672 16.8995 19.9729 16.8937 19.9798 16.8896L21.2607 16.1508C21.2675 16.1467 21.2752 16.1445 21.2831 16.1445C21.291 16.1445 21.2987 16.1467 21.3055 16.1508C21.3124 16.1546 21.3182 16.1602 21.3222 16.1671C21.3262 16.1739 21.3283 16.1817 21.3283 16.1896V17.6791C21.3282 17.687 21.326 17.6947 21.322 17.7015C21.318 17.7083 21.3123 17.714 21.3055 17.7179L20.0246 18.4576C20.0177 18.4616 20.0098 18.4636 20.0018 18.4635ZM20.0465 16.9546V18.3411L21.2379 17.6529V16.2673L20.0465 16.9546Z" fill="#455A64"/>
<path d="M11.5107 21.7361V21.8382C11.5107 21.8948 11.5504 21.9168 11.5952 21.8889L15.9343 19.3845C15.9593 19.3676 15.98 19.345 15.9947 19.3186C16.0093 19.2922 16.0176 19.2627 16.0188 19.2326V19.127C16.0188 19.0713 15.9799 19.0485 15.9343 19.0763L11.5952 21.5816C11.57 21.5989 11.5492 21.6219 11.5345 21.6487C11.5199 21.6756 11.5117 21.7055 11.5107 21.7361Z" fill="#E0E0E0"/>
<path d="M11.5107 22.3829V22.4859C11.5107 22.5416 11.5504 22.5644 11.5952 22.5365L19.2712 18.1062C19.2961 18.0894 19.3167 18.0669 19.3314 18.0407C19.3461 18.0144 19.3544 17.9851 19.3557 17.9551V17.8529C19.3557 17.7972 19.3168 17.7752 19.2712 17.8031L11.5986 22.2334C11.5733 22.2498 11.5522 22.2718 11.537 22.2978C11.5217 22.3237 11.5127 22.3528 11.5107 22.3829Z" fill="#E0E0E0"/>
<path d="M11.5107 23.003V23.106C11.5107 23.1617 11.5504 23.1845 11.5952 23.1567L19.2678 18.7263C19.2927 18.7095 19.3133 18.687 19.328 18.6608C19.3427 18.6345 19.351 18.6052 19.3523 18.5752V18.4688C19.3523 18.4131 19.3134 18.3903 19.2678 18.4181L11.5952 22.8485C11.5699 22.8657 11.549 22.8887 11.5344 22.9156C11.5197 22.9424 11.5116 22.9724 11.5107 23.003Z" fill="#E0E0E0"/>
<path d="M20.6262 17.7658L20.3281 17.4795L20.4278 17.2685L20.5975 17.4314L21.3321 15.877L21.4604 16.0002L20.6262 17.7658Z" fill="#0071CE"/>
<path d="M11.5107 16.6049V16.7071C11.5107 16.7637 11.5504 16.7856 11.5952 16.7577L21.4302 11.0786C21.4551 11.0617 21.4757 11.0392 21.4903 11.013C21.505 10.9868 21.5133 10.9575 21.5147 10.9275V10.8236C21.5147 10.7679 21.475 10.7459 21.4302 10.7738L11.5986 16.4529C11.5731 16.4696 11.5518 16.4921 11.5366 16.5185C11.5213 16.5449 11.5125 16.5745 11.5107 16.6049Z" fill="#E0E0E0"/>
<path d="M11.5107 17.2612V17.3642C11.5107 17.4199 11.5504 17.4419 11.5952 17.414L21.4302 11.7348C21.4551 11.7179 21.4757 11.6955 21.4903 11.6693C21.505 11.643 21.5133 11.6137 21.5147 11.5837V11.4799C21.5147 11.4241 21.475 11.4022 21.4302 11.43L11.5986 17.1083C11.5729 17.1251 11.5517 17.1477 11.5364 17.1743C11.5211 17.2008 11.5124 17.2306 11.5107 17.2612Z" fill="#E0E0E0"/>
<path d="M11.5107 17.9154V18.021C11.5107 18.0767 11.5504 18.0987 11.5952 18.0708L21.4336 12.3891C21.4585 12.3722 21.479 12.3498 21.4937 12.3235C21.5084 12.2973 21.5167 12.268 21.5181 12.238V12.135C21.5181 12.0784 21.4784 12.0564 21.4336 12.0843L11.5986 17.7677C11.5736 17.784 11.5527 17.8057 11.5375 17.8314C11.5223 17.857 11.5131 17.8857 11.5107 17.9154Z" fill="#E0E0E0"/>
<path d="M11.5107 24.1926V24.2956C11.5107 24.3514 11.5504 24.3742 11.5952 24.3463L21.4302 18.6663C21.4551 18.6494 21.4757 18.627 21.4903 18.6007C21.505 18.5745 21.5133 18.5452 21.5147 18.5152V18.4122C21.5147 18.3564 21.475 18.3336 21.4302 18.3615L11.5986 24.0415C11.5731 24.058 11.5519 24.0803 11.5366 24.1066C11.5213 24.1328 11.5125 24.1623 11.5107 24.1926Z" fill="#E0E0E0"/>
<path d="M11.5107 24.8469V24.9499C11.5107 25.0057 11.5504 25.0285 11.5952 25.0006L21.4302 19.3215C21.4551 19.3044 21.4757 19.2818 21.4903 19.2554C21.505 19.229 21.5133 19.1996 21.5147 19.1695V19.0665C21.5147 19.0107 21.475 18.9879 21.4302 19.0158L11.5986 24.6958C11.5731 24.7123 11.5519 24.7346 11.5366 24.7609C11.5213 24.7871 11.5125 24.8166 11.5107 24.8469Z" fill="#E0E0E0"/>
<path d="M11.5107 25.5032V25.6062C11.5107 25.6619 11.5504 25.6847 11.5952 25.6568L21.4302 19.9777C21.4551 19.9606 21.4757 19.938 21.4903 19.9116C21.505 19.8853 21.5133 19.8559 21.5147 19.8257V19.7227C21.5147 19.667 21.475 19.6442 21.4302 19.672L11.5986 25.352C11.5731 25.3686 11.5519 25.3909 11.5366 25.4171C11.5213 25.4434 11.5125 25.4729 11.5107 25.5032Z" fill="#E0E0E0"/>
<path d="M11.7078 11.0184L15.8257 8.63989C15.8849 8.60527 15.933 8.63313 15.933 8.70153V8.73361C15.9309 8.77081 15.9201 8.80699 15.9015 8.83925C15.8828 8.87151 15.8569 8.89896 15.8257 8.91937L11.7078 11.2988C11.6487 11.3325 11.6006 11.3047 11.6006 11.2363V11.205C11.6027 11.1677 11.6135 11.1314 11.6321 11.099C11.6507 11.0666 11.6766 11.039 11.7078 11.0184Z" fill="#FAFAFA"/>
<path d="M11.7078 11.5813L14.1565 10.1686C14.2156 10.1349 14.2637 10.1627 14.2637 10.2311V10.2624C14.2613 10.2994 14.2504 10.3353 14.2318 10.3674C14.2132 10.3995 14.1874 10.4269 14.1565 10.4473L11.7078 11.8616C11.6487 11.8954 11.6006 11.8675 11.6006 11.7991V11.7679C11.6027 11.7305 11.6135 11.6942 11.6321 11.6618C11.6507 11.6295 11.6766 11.6019 11.7078 11.5813Z" fill="#FAFAFA"/>
<path d="M19.9433 6.22676L21.7747 5.16878C21.8043 5.1519 21.8288 5.16878 21.8288 5.20003V5.2718C21.8277 5.29045 21.8223 5.30859 21.8129 5.32473C21.8035 5.34087 21.7904 5.35456 21.7747 5.36467L19.9433 6.42012C19.9138 6.43785 19.8901 6.42012 19.8901 6.38972V6.31964C19.8912 6.3011 19.8966 6.28306 19.9058 6.26694C19.915 6.25082 19.9279 6.23707 19.9433 6.22676Z" fill="#0071CE"/>
<path d="M19.9433 7.07136L21.7747 6.01253C21.8043 5.99565 21.8288 6.01253 21.8288 6.04378V6.11639C21.8276 6.13489 21.8221 6.15287 21.8127 6.16885C21.8034 6.18484 21.7903 6.1984 21.7747 6.20842L19.9433 7.26471C19.9138 7.2816 19.8901 7.26472 19.8901 7.23347V7.16424C19.891 7.14565 19.8963 7.12753 19.9055 7.11138C19.9148 7.09523 19.9277 7.08151 19.9433 7.07136Z" fill="#0071CE"/>
<path d="M20.3197 6.428L21.7728 5.58871C21.8024 5.57182 21.8268 5.58871 21.8268 5.61995V5.69341C21.8258 5.71206 21.8204 5.7302 21.811 5.74634C21.8016 5.76248 21.7885 5.77617 21.7728 5.78628L20.3197 6.6222C20.2901 6.63909 20.2656 6.6222 20.2656 6.59096V6.52172C20.2666 6.50294 20.272 6.48466 20.2814 6.46837C20.2908 6.45207 20.3039 6.43824 20.3197 6.428Z" fill="#0071CE"/>
<path d="M11.355 15.7412C11.3381 15.7394 11.3221 15.7326 11.3091 15.7215C11.2961 15.7105 11.2867 15.6958 11.2823 15.6794C11.2778 15.6629 11.2784 15.6455 11.284 15.6294C11.2896 15.6133 11.2999 15.5993 11.3137 15.5892L21.8386 9.50982C21.8575 9.49978 21.8796 9.49733 21.9003 9.50298C21.921 9.50862 21.9388 9.52194 21.95 9.54022C21.9599 9.559 21.9623 9.5808 21.9569 9.6013C21.9514 9.62179 21.9384 9.63948 21.9205 9.65083L11.3956 15.7302C11.3833 15.7374 11.3693 15.7412 11.355 15.7412Z" fill="#E0E0E0"/>
</svg>
