<svg width="111" height="105" viewBox="0 0 111 105" fill="none" xmlns="http://www.w3.org/2000/svg">
<g clip-path="url(#clip0_3496_69212)">
<circle cx="37" cy="53" r="74" fill="#E7E9EC"/>
<path d="M53.7551 79.166C53.7551 79.166 60.9809 113.387 61.6039 124.738C62.2269 136.089 59.2639 164.615 59.2639 164.615L50.0318 166.086L48.2707 129.683L44.2237 101.932C44.2237 101.932 39.9854 124.498 38.1605 129.781C36.3357 135.064 27.6285 150.384 20.437 162.623L14.2561 158.095C14.2561 158.095 25.8085 125.062 27.7805 118.611C29.7525 112.16 28.4182 84.8123 34.501 77.0469L53.7551 79.166Z" fill="#0071CE"/>
<path opacity="0.4" d="M53.7551 79.166C53.7551 79.166 60.9809 113.387 61.6039 124.738C62.2269 136.089 59.2639 164.615 59.2639 164.615L50.0318 166.086L48.2707 129.683L44.2237 101.932C44.2237 101.932 39.9854 124.498 38.1605 129.781C36.3357 135.064 27.6285 150.384 20.437 162.623L14.2561 158.095C14.2561 158.095 25.8085 125.062 27.7805 118.611C29.7525 112.16 28.4182 84.8123 34.501 77.0469L53.7551 79.166Z" fill="#F3F4F5"/>
<path d="M43.5067 36.4373C43.2369 36.2852 37.6201 36.0301 32.2241 37.1633C26.8281 38.2965 36.4428 44.9336 36.4428 44.9336L39.4548 56.9913L44.9735 57.0403L45.6406 39.9202L43.5067 36.4373Z" fill="#EBEBEB"/>
<path d="M32.2306 37.179L43.9351 55.6481L42.6401 36.2812C42.6401 36.2812 46.8931 36.3892 48.2127 36.7718C49.5323 37.1544 50.6654 40.2351 51.6122 44.4538C52.559 48.6725 53.9963 58.7876 53.9963 58.7876L60.7217 115.201C60.7217 115.201 37.7297 120.106 26.8983 116.295C26.8983 116.295 30.9699 65.6259 30.2979 62.4962C29.6258 59.3665 27.4527 47.9171 27.4527 47.9171C27.4527 47.9171 24.4407 42.2022 25.7505 40.5196C27.0602 38.837 32.2306 37.179 32.2306 37.179Z" fill="#0071CE"/>
<path d="M46.0264 72.7148L44.3585 117.482" stroke="#F3F4F5" stroke-width="0.904594" stroke-linecap="round" stroke-linejoin="round"/>
<path d="M47.4468 37.7331L88.0239 51.5625L77.8042 81.5484L37.2271 67.7191L47.4468 37.7331Z" fill="#0071CE"/>
<path d="M47.4501 37.7326L77.8102 81.5484L83.5104 78.9633L93.7285 48.9809L53.1503 35.1523L47.4501 37.7326Z" fill="#0071CE"/>
<path opacity="0.7" d="M47.4501 37.7326L88.0283 51.5612L77.8102 81.5484L83.5104 78.9633L93.7285 48.9809L53.1503 35.1523L47.4501 37.7326Z" fill="#F3F4F5"/>
<path opacity="0.46" d="M47.4468 37.7331L88.0239 51.5625L77.8042 81.5484L37.2271 67.7191L47.4468 37.7331Z" fill="#F3F4F5"/>
<path d="M56.1281 68.511C51.2362 64.5086 50.5152 57.2982 54.5177 52.4063C58.5201 47.5144 65.7305 46.7934 70.6224 50.7958C75.5143 54.7983 76.2353 62.0086 72.2329 66.9006C68.2304 71.7925 61.0201 72.5135 56.1281 68.511Z" fill="#F3F4F5"/>
<path d="M30.3797 25.6472C31.8072 27.7026 33.1169 27.418 33.1169 27.418C33.5462 28.1985 34.1053 28.9002 34.7701 29.4931C35.0056 35.9045 33.1169 37.6362 33.1169 37.6362C35.0791 40.6629 37.5024 40.5795 39.9552 39.6965C42.4079 38.8135 42.5355 36.8905 42.5355 36.8905C40.3182 35.8015 40.2888 34.0944 40.6076 32.9269C40.7346 32.475 40.9227 32.0426 41.1668 31.6417C45.3316 30.4987 46.5335 26.5056 46.2489 22.7382C46.0729 20.4532 45.5123 18.2142 44.5909 16.1158L42.1381 12.4023L32.5479 14.3645L32.0328 19.4466L33.995 23.214C30.5367 20.6583 28.9375 23.5672 30.3797 25.6472Z" fill="#FFBE9D"/>
<path d="M41.6635 25.5968C41.8966 25.5981 42.1295 25.5817 42.3601 25.5478C42.3823 25.5439 42.4036 25.5357 42.4226 25.5236C42.4417 25.5115 42.4582 25.4958 42.4712 25.4774C42.4841 25.4589 42.4933 25.4381 42.4983 25.4161C42.5032 25.3941 42.5038 25.3713 42.4999 25.3491C42.496 25.3269 42.4878 25.3056 42.4758 25.2866C42.4637 25.2675 42.448 25.251 42.4295 25.238C42.4111 25.2251 42.3902 25.2158 42.3682 25.2109C42.3462 25.206 42.3235 25.2054 42.3012 25.2093C42.3012 25.2093 39.8485 25.6361 38.7938 23.821C38.7825 23.8014 38.7675 23.7841 38.7496 23.7703C38.7316 23.7565 38.7111 23.7463 38.6893 23.7404C38.6674 23.7345 38.6446 23.7329 38.6221 23.7358C38.5997 23.7387 38.578 23.746 38.5584 23.7573C38.5387 23.7685 38.5215 23.7836 38.5076 23.8015C38.4938 23.8194 38.4836 23.8399 38.4777 23.8618C38.4718 23.8836 38.4702 23.9065 38.4731 23.9289C38.476 23.9514 38.4833 23.9731 38.4946 23.9927C39.304 25.3761 40.8002 25.5968 41.6635 25.5968Z" fill="#0A2240"/>
<path d="M42.3359 23.3563C42.2328 23.3563 41.8159 20.2266 41.8159 20.2266L44.043 22.905C43.8135 23.1083 43.5395 23.2551 43.243 23.3335C42.9466 23.4119 42.6359 23.4197 42.3359 23.3563Z" fill="#EB996E"/>
<path d="M38.8855 20.2885C38.9394 20.676 39.1798 20.9655 39.4202 20.9311C39.6605 20.8968 39.8126 20.5534 39.7587 20.1659C39.7047 19.7783 39.4643 19.484 39.224 19.5184C38.9836 19.5527 38.8315 19.8961 38.8855 20.2885Z" fill="#0A2240"/>
<path d="M43.6257 19.8579C43.6797 20.2454 43.92 20.5349 44.1604 20.5005C44.4008 20.4662 44.5528 20.1277 44.4989 19.7353C44.4449 19.3428 44.2046 19.0583 43.9642 19.0927C43.7238 19.127 43.5472 19.4655 43.6257 19.8579Z" fill="#0A2240"/>
<path d="M36.9643 18.5344C37.0076 18.5339 37.0499 18.5212 37.0863 18.4978C37.1228 18.4744 37.1519 18.4412 37.1703 18.4019C37.7541 17.1609 38.5782 17.3227 38.6125 17.3276C38.6695 17.3361 38.7275 17.3229 38.7753 17.2908C38.823 17.2586 38.857 17.2097 38.8705 17.1538C38.884 17.0978 38.8761 17.0388 38.8484 16.9884C38.8206 16.938 38.775 16.8997 38.7204 16.8812C38.6714 16.8812 37.5039 16.6065 36.7583 18.2057C36.7451 18.2334 36.7376 18.2634 36.7361 18.294C36.7347 18.3246 36.7393 18.3551 36.7498 18.3839C36.7603 18.4127 36.7765 18.4391 36.7973 18.4615C36.8181 18.484 36.8432 18.5021 36.8711 18.5148C36.9004 18.528 36.9322 18.5347 36.9643 18.5344V18.5344Z" fill="#0A2240"/>
<path d="M45.1305 17.7097C45.1596 17.7099 45.1884 17.7044 45.2154 17.6934C45.2423 17.6825 45.2668 17.6663 45.2875 17.6459C45.3092 17.6249 45.3264 17.5997 45.3381 17.5719C45.3499 17.5441 45.356 17.5142 45.356 17.484C45.356 17.4538 45.3499 17.4239 45.3381 17.3961C45.3264 17.3683 45.3092 17.3432 45.2875 17.3221C45.2286 17.2633 43.914 15.9192 42.2559 16.5814C42.2275 16.5923 42.2015 16.6086 42.1795 16.6296C42.1574 16.6505 42.1397 16.6756 42.1274 16.7034C42.1151 16.7313 42.1084 16.7612 42.1077 16.7916C42.1071 16.8221 42.1124 16.8523 42.1235 16.8806C42.1474 16.9375 42.1926 16.9827 42.2495 17.0065C42.3064 17.0304 42.3703 17.031 42.4276 17.0082C43.8061 16.4588 44.9392 17.6263 44.9539 17.641C44.9762 17.6651 45.0037 17.6838 45.0343 17.6957C45.0649 17.7076 45.0978 17.7124 45.1305 17.7097V17.7097Z" fill="#0A2240"/>
<path opacity="0.2" d="M40.0278 31.3828C40.4114 32.0147 40.9501 32.5381 41.5926 32.9035C41.7196 32.4516 41.9078 32.0192 42.1519 31.6183C41.4352 31.6874 40.7119 31.6072 40.0278 31.3828V31.3828Z" fill="#0A2240"/>
<path d="M33.0025 14.795C33.0025 14.795 41.2781 17.0074 44.5745 15.835C47.871 14.6625 46.7182 10.6106 46.2718 10.228C45.6636 9.70801 44.3391 11.8566 44.3391 11.8566C44.3391 11.8566 45.4232 9.55594 44.5745 9.05067C43.7259 8.54541 43.5935 11.994 40.503 11.631C37.4125 11.268 28.8476 8.93784 28.3423 14.3241C28.0391 17.5509 28.5607 20.802 29.8581 23.772C29.8581 23.772 30.3143 20.8287 33.9591 23.1687C33.9591 23.1687 35.1707 22.3053 33.9591 21.1182C31.8497 19.0628 32.5855 16.3598 33.0025 14.795Z" fill="#0A2240"/>
<path d="M33.8835 14.3644C33.8835 14.3644 35.3208 19.0638 32.6767 18.8382C30.0326 18.6125 31.6564 13.707 31.6564 13.707L33.8835 14.3644Z" fill="#0A2240"/>
<path d="M40.8344 11.9108C40.8344 11.9108 42.5612 10.6402 42.1197 9.71801C41.6782 8.79578 40.9914 11.0229 37.5527 10.6157C34.1139 10.2086 30.0325 9.89952 29.2771 12.1806C28.5217 14.4616 36.1448 12.7251 36.1448 12.7251L40.8442 13.7356L40.8344 11.9108Z" fill="#0A2240"/>
<path d="M42.4324 68.0605L45.7535 67.1236C45.7535 67.1236 49.6778 66.8832 50.0065 68.3794C50.3352 69.8756 50.4971 72.4559 48.9371 72.6619C47.3772 72.8679 42.5207 72.5638 42.5207 72.5638L42.4324 68.0605Z" fill="#FFBE9D"/>
<path d="M31.1018 45.2662L25.7499 40.4883C25.7499 40.4883 19.1226 55.2047 18.7498 60.8608C18.377 66.5168 22.7478 69.0578 26.4514 70.0095C30.1551 70.9612 42.4286 73.4973 42.4286 73.4973L43.0908 66.6689C43.0908 66.6689 30.0177 64.4369 24.9847 62.1264C25.0043 62.1411 29.5321 48.9699 31.1018 45.2662Z" fill="#0071CE"/>
<path opacity="0.1" d="M42.4268 73.5152L30.0551 70.8711L30.0208 72.7352L42.4268 73.5152Z" fill="#0A2240"/>
<g clip-path="url(#clip1_3496_69212)">
<path d="M69.9283 57.3391L65.6891 56.2033L63.8678 63.0003C63.5774 64.0842 62.4764 64.7238 61.3984 64.435C60.3203 64.1461 59.6867 63.0417 59.9771 61.9578L61.7984 55.1607L57.5592 54.0248C56.4649 53.7316 55.8484 54.3788 56.1912 55.4665L59.6855 66.483C60.0282 67.5706 61.0009 67.8312 61.8416 67.0607L70.376 59.2673C71.2328 58.5011 71.0226 57.6324 69.9283 57.3391Z" fill="#0071CE"/>
<path d="M63.7438 55.6832C64.8219 55.9721 65.9228 55.3324 66.2133 54.2485C66.4972 53.189 65.8701 52.0601 64.792 51.7713C63.714 51.4824 62.6065 52.1465 62.3226 53.206C62.03 54.2981 62.6658 55.3943 63.7438 55.6832Z" fill="#0A2240"/>
</g>
</g>
<defs>
<clipPath id="clip0_3496_69212">
<path d="M0 8C0 3.58172 3.58172 0 8 0H111V105H8C3.58172 105 0 101.418 0 97V8Z" fill="white"/>
</clipPath>
<clipPath id="clip1_3496_69212">
<rect width="15.6353" height="16.5039" fill="white" transform="translate(57.3506 49.7695) rotate(15)"/>
</clipPath>
</defs>
</svg>
