<svg width="32" height="32" viewBox="0 0 32 32" fill="none" xmlns="http://www.w3.org/2000/svg">
<path d="M17.4472 24.8497L17.8322 23.6447C18.0372 22.6747 14.0772 24.9647 13.8672 25.9348L15.1472 29.3698C15.1903 29.4725 15.2635 29.5596 15.3572 29.6198C15.6372 29.7898 16.6722 30.3748 16.7622 30.4298C16.8339 30.473 16.9144 30.4995 16.9977 30.5072C17.0811 30.515 17.1651 30.5037 17.2435 30.4744C17.3219 30.4451 17.3926 30.3984 17.4504 30.3378C17.5082 30.2773 17.5516 30.2045 17.5772 30.1248L19.2322 24.4547C19.3322 23.9747 18.4222 24.2797 17.4472 24.8497Z" fill="#9EA7B3"/>
<path opacity="0.2" d="M17.4472 24.8497L17.8322 23.6447C18.0372 22.6747 14.0772 24.9647 13.8672 25.9348L15.1472 29.3698C15.1903 29.4725 15.2635 29.5596 15.3572 29.6198C15.6372 29.7898 16.6722 30.3748 16.7622 30.4298C16.8339 30.473 16.9144 30.4995 16.9977 30.5072C17.0811 30.515 17.1651 30.5037 17.2435 30.4744C17.3219 30.4451 17.3926 30.3984 17.4504 30.3378C17.5082 30.2773 17.5516 30.2045 17.5772 30.1248L19.2322 24.4547C19.3322 23.9747 18.4222 24.2797 17.4472 24.8497Z" fill="white"/>
<path d="M22.2726 1.43414L7.21241 10.1192C7.06611 10.2167 6.94468 10.347 6.85785 10.4998C6.77102 10.6527 6.72121 10.8237 6.7124 10.9992V28.8494C6.72158 29.0242 6.7716 29.1944 6.85843 29.3463C6.94526 29.4983 7.06649 29.6278 7.21241 29.7244L8.71242 30.5694C8.86793 30.6462 9.03902 30.6861 9.21243 30.6861C9.38584 30.6861 9.55692 30.6462 9.71243 30.5694L24.7826 21.8794C24.9295 21.7814 25.0514 21.6503 25.1382 21.4965C25.2251 21.3428 25.2746 21.1707 25.2826 20.9943V3.14916C25.2738 2.97429 25.224 2.80395 25.1371 2.65194C25.0502 2.49992 24.9288 2.3705 24.7826 2.27415L23.2826 1.42914C23.1254 1.35157 22.9523 1.31165 22.777 1.31251C22.6017 1.31338 22.429 1.35502 22.2726 1.43414Z" fill="#9EA7B3"/>
<path opacity="0.2" d="M22.2726 1.43414L7.21241 10.1192C7.06611 10.2167 6.94468 10.347 6.85785 10.4998C6.77102 10.6527 6.72121 10.8237 6.7124 10.9992V28.8494C6.72158 29.0242 6.7716 29.1944 6.85843 29.3463C6.94526 29.4983 7.06649 29.6278 7.21241 29.7244L8.71242 30.5694C8.86793 30.6462 9.03902 30.6861 9.21243 30.6861C9.38584 30.6861 9.55692 30.6462 9.71243 30.5694L24.7826 21.8794C24.9295 21.7814 25.0514 21.6503 25.1382 21.4965C25.2251 21.3428 25.2746 21.1707 25.2826 20.9943V3.14916C25.2738 2.97429 25.224 2.80395 25.1371 2.65194C25.0502 2.49992 24.9288 2.3705 24.7826 2.27415L23.2826 1.42914C23.1254 1.35157 22.9523 1.31165 22.777 1.31251C22.6017 1.31338 22.429 1.35502 22.2726 1.43414Z" fill="white"/>
<path d="M24.7823 2.85351L9.72217 11.5436C9.5767 11.6419 9.45588 11.7724 9.36915 11.9251C9.28242 12.0777 9.23212 12.2483 9.22217 12.4236V30.2788C9.22217 30.6038 9.45217 30.7338 9.72217 30.5688L15.4872 27.2388L16.5472 30.1788C16.5918 30.2819 16.6669 30.3689 16.7624 30.428C16.8579 30.4872 16.9692 30.5157 17.0814 30.5097C17.1936 30.5037 17.3012 30.4635 17.3899 30.3945C17.4785 30.3255 17.5439 30.2311 17.5773 30.1238L18.9823 25.2237L24.7823 21.8787C24.9293 21.7808 25.0511 21.6496 25.138 21.4959C25.2248 21.3421 25.2743 21.1701 25.2823 20.9937V3.14851C25.2923 2.82351 25.0673 2.6935 24.7823 2.85351Z" fill="#9EA7B3"/>
<path opacity="0.4" d="M24.7823 2.85351L9.72217 11.5436C9.5767 11.6419 9.45588 11.7724 9.36915 11.9251C9.28242 12.0777 9.23212 12.2483 9.22217 12.4236V30.2788C9.22217 30.6038 9.45217 30.7338 9.72217 30.5688L15.4872 27.2388L16.5472 30.1788C16.5918 30.2819 16.6669 30.3689 16.7624 30.428C16.8579 30.4872 16.9692 30.5157 17.0814 30.5097C17.1936 30.5037 17.3012 30.4635 17.3899 30.3945C17.4785 30.3255 17.5439 30.2311 17.5773 30.1238L18.9823 25.2237L24.7823 21.8787C24.9293 21.7808 25.0511 21.6496 25.138 21.4959C25.2248 21.3421 25.2743 21.1701 25.2823 20.9937V3.14851C25.2923 2.82351 25.0673 2.6935 24.7823 2.85351Z" fill="white"/>
<path opacity="0.7" d="M25.2874 3.05941C25.2474 2.80441 25.0374 2.70941 24.7874 2.85441L9.72222 11.5445C9.57375 11.6392 9.45164 11.7699 9.36721 11.9245L6.86719 10.4795C6.95134 10.3317 7.07181 10.2078 7.21719 10.1195L22.2724 1.4294C22.4282 1.35376 22.5991 1.31445 22.7724 1.31445C22.9456 1.31445 23.1165 1.35376 23.2724 1.4294L24.7724 2.27941C24.9093 2.36466 25.0262 2.4785 25.1151 2.61312C25.204 2.74774 25.2628 2.89998 25.2874 3.05941Z" fill="white"/>
<path d="M21.3476 8.84014C21.2045 8.77931 21.0508 8.74737 20.8954 8.74613C20.7399 8.74489 20.5857 8.77439 20.4417 8.83294C20.2976 8.89148 20.1666 8.97791 20.056 9.08727C19.9455 9.19662 19.8577 9.32675 19.7976 9.47015L15.3326 20.1003L14.2676 19.0653C14.0401 18.8471 13.7354 18.7282 13.4203 18.7348C13.1052 18.7414 12.8057 18.8728 12.5875 19.1003C12.3694 19.3277 12.2505 19.6324 12.2571 19.9475C12.2637 20.2626 12.3951 20.5621 12.6225 20.7803L14.9276 23.0203C15.1467 23.2347 15.441 23.3549 15.7476 23.3553C15.8283 23.3567 15.9089 23.3483 15.9876 23.3303C16.1758 23.2923 16.3518 23.2086 16.5001 23.0865C16.6483 22.9645 16.7642 22.8078 16.8376 22.6303L21.9876 10.3852C22.0474 10.2417 22.0783 10.0879 22.0784 9.93253C22.0786 9.77715 22.048 9.62326 21.9886 9.47971C21.9291 9.33615 21.8419 9.20576 21.7319 9.096C21.6219 8.98625 21.4913 8.8993 21.3476 8.84014Z" fill="white"/>
</svg>
