<svg width="56" height="92" viewBox="0 0 36 62" fill="none" xmlns="http://www.w3.org/2000/svg">
<g filter="url(#filter0_d_976_40365)">
<path d="M32.5956 15.5999C32.5956 13.4425 31.1715 11.2851 28.3232 9.64095C22.6189 6.34885 13.3756 6.34885 7.67519 9.64095C4.82692 11.2851 3.39893 13.4425 3.39893 15.5999V49.482C3.39893 51.6394 4.82692 53.7968 7.67519 55.4448C13.3756 58.7369 22.6189 58.7369 28.3232 55.4448C31.1715 53.7968 32.5995 51.6394 32.5956 49.482V15.5999Z" fill="#E36977"/>
<path opacity="0.4" d="M26.9843 8.96484V56.1195C27.4474 55.9111 27.8951 55.6873 28.3235 55.4441C29.1686 54.9607 29.9471 54.3691 30.6391 53.6842V11.4002C29.948 10.7142 29.1694 10.1225 28.3235 9.64025C27.8886 9.39288 27.4417 9.16747 26.9843 8.96484Z" fill="white"/>
<path opacity="0.4" d="M23.1593 57.3628C23.8685 57.2071 24.5693 57.0152 25.2588 56.7877V8.29771C24.5704 8.06667 23.8694 7.87468 23.1593 7.72266V57.3628Z" fill="white"/>
<path opacity="0.1" d="M32.3447 14.0452C31.4387 12.8278 30.2801 11.8207 28.9484 11.0928C23.3214 7.84699 14.4446 7.61927 8.36603 10.4212V9.2827C8.13446 9.39848 7.89904 9.51426 7.67519 9.64162C4.82692 11.2857 3.39893 13.4432 3.39893 15.6006V49.4827C3.39893 51.6401 4.82692 53.7975 7.67519 55.4455C13.3756 58.7376 22.6189 58.7376 28.3232 55.4455C29.2892 54.903 30.1665 54.2158 30.9245 53.4077C28.2229 55.9433 21.4495 57.3405 16.4284 56.3525C11.4073 55.3644 8.36603 52.1611 8.36603 49.884V48.6644C11.1796 50.2082 14.8615 50.9145 18.4623 50.9145V29.1627C14.8615 29.1627 11.1796 28.6069 8.36603 27.094V24.4117C14.4446 27.2059 23.3214 26.986 28.9484 23.7363C30.429 22.9407 31.6838 21.7828 32.5956 20.3709V15.6006C32.594 15.0722 32.5093 14.5474 32.3447 14.0452Z" fill="#E36977"/>
<path opacity="0.1" d="M5.86511 50.5274V10.9141C4.22485 12.3266 3.39893 13.963 3.39893 13.4883V47.3781C3.39893 51.6466 4.82692 53.8041 7.67519 55.452C9.41121 56.4098 11.2905 57.081 13.2405 57.4396C7.73308 55.9538 5.86511 52.2062 5.86511 50.5274Z" fill="#E36977"/>
<path d="M33.483 8.93418C33.483 6.64553 31.9701 4.35688 28.9482 2.61241C22.8888 -0.864949 13.0974 -0.864952 7.06512 2.60855C4.04317 4.35301 2.53027 6.64166 2.53027 8.93031V15.7924C2.53027 18.0811 4.04317 20.3658 7.06512 22.1142C13.1129 25.5877 22.9158 25.5877 28.9636 22.1142C31.9855 20.3658 33.4984 18.0811 33.4984 15.7924V8.93418H33.483Z" fill="#E0E0E0"/>
<path opacity="0.1" d="M21.7043 24.4661C14.0433 24.5085 9.99859 22.0231 8.77129 19.9891C7.8373 18.4454 7.67521 15.5971 7.67521 12.772C7.67521 12.772 6.81069 6.33444 6.98051 6.31514C7.08471 6.31514 5.14342 5.88288 3.65367 5.56641C2.93121 6.54283 2.53303 7.72119 2.51514 8.9357V15.7978C2.51514 18.0864 4.02804 20.3712 7.04998 22.1195C11.0252 24.4121 16.6175 25.1878 21.7043 24.4661Z" fill="#E36977"/>
<g opacity="0.1">
<path d="M16.4554 24.6483C16.2084 24.6483 15.9614 24.629 15.7144 24.6058V15.6172H16.4554V24.6483Z" fill="#E36977"/>
<path d="M9.87122 23.3814C9.6165 23.2927 9.37335 23.1962 9.12634 23.0997V14.25H9.87122V23.3814Z" fill="#E36977"/>
<path d="M13.0555 24.2222C12.8123 24.172 12.5537 24.1489 12.3145 24.0948V15.1641H13.0555V24.2222Z" fill="#E36977"/>
<path d="M6.24341 21.6007V12.832H6.98442V22.0754C6.72198 21.9056 6.48269 21.7628 6.24341 21.6007Z" fill="#E36977"/>
<path d="M2.88594 17.7101C2.63958 17.0962 2.50873 16.4419 2.5 15.7804V8.93378C2.50626 8.50379 2.56458 8.07613 2.67367 7.66016H2.87051L2.88594 17.7101Z" fill="#E36977"/>
<path d="M3.94727 19.5315V10.8555H4.69214V20.3613C4.42712 20.1002 4.17835 19.8231 3.94727 19.5315Z" fill="#E36977"/>
<path d="M19.9419 24.6253C19.6949 24.6446 19.4479 24.6562 19.197 24.6678V15.6328H19.9419V24.6253Z" fill="#E36977"/>
<path d="M26.6133 23.2172C26.374 23.3098 26.1155 23.3754 25.8723 23.4604V14.3945H26.6133V23.2172Z" fill="#E36977"/>
<path d="M23.3721 24.1572C23.1289 24.2074 22.8742 24.2383 22.6272 24.2846V15.2188H23.3721V24.1572Z" fill="#E36977"/>
<path d="M28.8169 22.1797V13.1641H29.5618V21.7243C29.3572 21.8555 29.1758 21.9906 28.9481 22.1102L28.8169 22.1797Z" fill="#E36977"/>
<path d="M31.403 20.2571V11.1797H32.1517V19.4119C31.9206 19.7095 31.6705 19.9918 31.403 20.2571Z" fill="#E36977"/>
<path d="M33.1098 8.29688H33.4302C33.4616 8.50779 33.4796 8.7205 33.4842 8.93369V15.7958C33.4754 16.4573 33.3445 17.1115 33.0983 17.7255L33.1098 8.29688Z" fill="#E36977"/>
</g>
<path d="M7.06609 15.2525C13.1138 18.7453 22.9168 18.7453 28.9646 15.2525C35.0123 11.7597 35.0123 6.10178 28.9646 2.61285C22.9168 -0.876091 13.0984 -0.864516 7.06609 2.60898C1.03378 6.08248 1.00291 11.7636 7.06609 15.2525Z" fill="#F5F5F5"/>
<path d="M29.7784 14.7238C34.9693 11.2117 34.6992 5.93197 28.9486 2.61285C26 0.910836 22.1598 0.0424539 18.2965 0C16.3154 0.310419 14.4034 0.963411 12.6463 1.92972C7.42063 4.92079 7.42063 10.8836 12.6463 13.8747C17.3124 16.5377 24.5566 16.8156 29.7784 14.7238Z" fill="#FAFAFA"/>
<path opacity="0.1" d="M8.51681 54.7765C13.7541 57.4086 22.2448 57.4086 27.4821 54.7765C32.7194 52.1444 32.7194 47.8797 27.4821 45.2475C22.2448 42.6154 13.7541 42.6154 8.51681 45.2475C3.27955 47.8797 3.27955 52.1444 8.51681 54.7765Z" fill="#E36977"/>
<path d="M3.39893 21.457C3.39893 23.6145 4.82692 25.7719 7.67519 27.416C10.5235 29.0601 14.2633 29.8861 17.9992 29.8861V51.4565C14.2633 51.4565 10.5273 50.6306 7.67519 48.9864C4.82306 47.3423 3.39893 45.1849 3.39893 43.0275V21.457Z" fill="white"/>
<path d="M7.67519 34.344C9.02868 35.1025 10.4771 35.6774 11.9823 36.0537V34.3054C10.4769 33.9278 9.02852 33.3516 7.67519 32.5918C4.82692 30.9477 3.39893 28.7902 3.39893 26.6328V28.3811C3.39893 30.5386 4.82692 32.7114 7.67519 34.344Z" fill="#E0E0E0"/>
<path d="M11.9823 43.8093C10.4771 43.433 9.02868 42.8581 7.67519 42.0996C4.82692 40.4516 3.39893 38.2941 3.39893 36.1367V37.8889C3.39893 40.0463 4.82692 42.2038 7.67519 43.8479C9.02792 44.608 10.4766 45.183 11.9823 45.5576V43.8093Z" fill="#E0E0E0"/>
<path d="M7.67519 39.0978C9.02732 39.862 10.476 40.4409 11.9823 40.8192V39.0708C10.4769 38.6879 9.02867 38.1079 7.67519 37.3457C4.82692 35.6977 3.39893 33.5402 3.39893 31.3828V33.135C3.39893 35.2963 4.82692 37.4499 7.67519 39.0978Z" fill="#E0E0E0"/>
<path d="M3.6958 12.3675C3.6958 12.3675 8.73623 17.4349 18.462 17.1725C28.1878 16.91 32.082 11.5956 32.5953 9.94761C33.1086 8.29963 32.7844 6.15764 31.2831 4.33984C31.9419 4.91714 32.4766 5.62224 32.8548 6.41237C33.2329 7.20251 33.4466 8.06123 33.483 8.93644V15.7985C33.483 16.3774 33.7802 18.3728 30.6424 20.9586C30.6424 20.9586 32.4834 18.8668 32.4834 16.8521V12.1089C32.4834 12.1089 29.0408 17.871 18.462 17.871C7.88329 17.871 4.23226 13.232 3.6958 12.3675Z" fill="white"/>
</g>
<defs>
<filter id="filter0_d_976_40365" x="0.5" y="0" width="35.0004" height="61.9141" filterUnits="userSpaceOnUse" color-interpolation-filters="sRGB">
<feFlood flood-opacity="0" result="BackgroundImageFix"/>
<feColorMatrix in="SourceAlpha" type="matrix" values="0 0 0 0 0 0 0 0 0 0 0 0 0 0 0 0 0 0 127 0" result="hardAlpha"/>
<feOffset dy="2"/>
<feGaussianBlur stdDeviation="1"/>
<feComposite in2="hardAlpha" operator="out"/>
<feColorMatrix type="matrix" values="0 0 0 0 0 0 0 0 0 0 0 0 0 0 0 0 0 0 0.25 0"/>
<feBlend mode="normal" in2="BackgroundImageFix" result="effect1_dropShadow_976_40365"/>
<feBlend mode="normal" in="SourceGraphic" in2="effect1_dropShadow_976_40365" result="shape"/>
</filter>
</defs>
</svg>
