<svg width="56" height="92" viewBox="0 0 26 49" fill="none" xmlns="http://www.w3.org/2000/svg">
<path d="M25.2414 13.0843C25.2414 11.2749 24.047 9.46541 21.6581 8.08646C16.8739 5.32535 9.12143 5.32535 4.34045 8.08646C1.95158 9.46541 0.753906 11.2749 0.753906 13.0843V41.5015C0.753906 43.311 1.95158 45.1204 4.34045 46.5026C9.12143 49.2637 16.8739 49.2637 21.6581 46.5026C24.047 45.1204 25.2447 43.311 25.2414 41.5015V13.0843Z" fill="#E36977"/>
<path opacity="0.4" d="M20.5352 7.51953V47.0686C20.9236 46.8938 21.2991 46.7061 21.6584 46.5021C22.3672 46.0967 23.0201 45.6005 23.6005 45.0261V9.56205C23.0209 8.98677 22.3679 8.49048 21.6584 8.086C21.2937 7.87853 20.9188 7.68947 20.5352 7.51953Z" fill="white"/>
<path opacity="0.4" d="M17.3271 48.1102C17.922 47.9797 18.5097 47.8187 19.0881 47.6279V6.95887C18.5106 6.76509 17.9227 6.60407 17.3271 6.47656V48.1102Z" fill="white"/>
<path opacity="0.1" d="M25.031 11.7799C24.2711 10.7588 23.2994 9.9141 22.1825 9.30362C17.4631 6.58134 10.0181 6.39036 4.91986 8.74038V7.78549C4.72564 7.8826 4.52819 7.9797 4.34045 8.08652C1.95158 9.46546 0.753906 11.2749 0.753906 13.0844V41.5016C0.753906 43.311 1.95158 45.1205 4.34045 46.5027C9.12143 49.2638 16.8739 49.2638 21.6581 46.5027C22.4683 46.0477 23.2041 45.4713 23.8398 44.7936C21.574 46.9202 15.8931 48.092 11.6819 47.2633C7.47058 46.4347 4.91986 43.748 4.91986 41.8382V40.8153C7.2796 42.1101 10.3677 42.7025 13.3877 42.7025V24.459C10.3677 24.459 7.2796 23.9929 4.91986 22.724V20.4743C10.0181 22.8179 17.4631 22.6334 22.1825 19.9079C23.4243 19.2406 24.4767 18.2695 25.2414 17.0852V13.0844C25.2401 12.6412 25.1691 12.201 25.031 11.7799Z" fill="#E36977"/>
<path opacity="0.1" d="M2.82232 42.3764V9.15234C1.44661 10.3371 0.753906 11.7095 0.753906 11.3114V39.7351C0.753906 43.3151 1.95158 45.1246 4.34045 46.5068C5.79647 47.3101 7.37265 47.873 9.00813 48.1738C4.389 46.9276 2.82232 43.7845 2.82232 42.3764Z" fill="#E36977"/>
<path d="M25.986 7.49381C25.986 5.5743 24.7171 3.65478 22.1826 2.19168C17.1006 -0.724811 8.88841 -0.724814 3.82905 2.18844C1.29452 3.65154 0.0256348 5.57106 0.0256348 7.49057V13.2459C0.0256348 15.1654 1.29452 17.0817 3.82905 18.548C8.90136 21.4613 17.1232 21.4613 22.1955 18.548C24.73 17.0817 25.9989 15.1654 25.9989 13.2459V7.49381H25.986Z" fill="#E0E0E0"/>
<path opacity="0.1" d="M16.1068 20.5193C9.68147 20.5549 6.28914 18.4703 5.25979 16.7645C4.47645 15.4697 4.3405 13.0808 4.3405 10.7114C4.3405 10.7114 3.61542 5.31212 3.75785 5.29594C3.84524 5.29594 2.21706 4.9334 0.967595 4.66797C0.361657 5.48691 0.0276987 6.47521 0.0126953 7.49383V13.2491C0.0126953 15.1686 1.28158 17.0849 3.81611 18.5512C7.15017 20.474 11.8405 21.1246 16.1068 20.5193Z" fill="#E36977"/>
<g opacity="0.1">
<path d="M11.7045 20.676C11.4973 20.676 11.2902 20.6598 11.083 20.6404V13.1016H11.7045V20.676Z" fill="#E36977"/>
<path d="M6.18186 19.6118C5.96822 19.5373 5.76429 19.4564 5.55713 19.3755V11.9531H6.18186V19.6118Z" fill="#E36977"/>
<path d="M8.8527 20.3159C8.64877 20.2738 8.43189 20.2544 8.2312 20.2091V12.7188H8.8527V20.3159Z" fill="#E36977"/>
<path d="M3.13989 18.1161V10.7617H3.76139V18.5142C3.54127 18.3718 3.34058 18.252 3.13989 18.1161Z" fill="#E36977"/>
<path d="M0.323695 14.8548C0.117064 14.3398 0.00732481 13.7912 0 13.2363V7.49398C0.0052517 7.13334 0.0541611 6.77466 0.145662 6.42578H0.31075L0.323695 14.8548Z" fill="#E36977"/>
<path d="M1.21387 16.3821V9.10547H1.8386V17.0781C1.61632 16.8591 1.40768 16.6267 1.21387 16.3821Z" fill="#E36977"/>
<path d="M14.6281 20.6554C14.421 20.6716 14.2138 20.6813 14.0034 20.691V13.1133H14.6281V20.6554Z" fill="#E36977"/>
<path d="M20.2243 19.4739C20.0236 19.5516 19.8067 19.6066 19.6028 19.6778V12.0742H20.2243V19.4739Z" fill="#E36977"/>
<path d="M17.5056 20.2624C17.3017 20.3045 17.088 20.3304 16.8809 20.3692V12.7656H17.5056V20.2624Z" fill="#E36977"/>
<path d="M22.0728 18.6045V11.043H22.6975V18.2225C22.5259 18.3326 22.3738 18.4459 22.1828 18.5462L22.0728 18.6045Z" fill="#E36977"/>
<path d="M24.2412 16.9922V9.37891H24.8692V16.2833C24.6754 16.5329 24.4656 16.7697 24.2412 16.9922Z" fill="#E36977"/>
<path d="M25.6728 6.96094H25.9415C25.9678 7.13784 25.9829 7.31623 25.9868 7.49504V13.2503C25.9794 13.8052 25.8696 14.3538 25.6631 14.8688L25.6728 6.96094Z" fill="#E36977"/>
</g>
<path d="M3.82938 12.7924C8.90168 15.7219 17.1235 15.7219 22.1958 12.7924C27.2681 9.863 27.2681 5.11762 22.1958 2.19142C17.1235 -0.734786 8.88874 -0.725078 3.82938 2.18818C-1.22998 5.10144 -1.25587 9.86623 3.82938 12.7924Z" fill="#F5F5F5"/>
<path d="M22.8786 12.349C27.2323 9.40335 27.0057 4.9752 22.1827 2.19142C19.7096 0.763927 16.4889 0.0356065 13.2487 0C11.5871 0.260351 9.9835 0.808022 8.50978 1.61848C4.12695 4.12711 4.12695 9.12821 8.50978 11.6368C12.4233 13.8703 18.499 14.1034 22.8786 12.349Z" fill="#FAFAFA"/>
<path opacity="0.1" d="M5.04612 45.9407C9.43866 48.1483 16.56 48.1483 20.9525 45.9407C25.345 43.7331 25.345 40.1563 20.9525 37.9487C16.56 35.7411 9.43866 35.7411 5.04612 37.9487C0.653573 40.1563 0.653573 43.7331 5.04612 45.9407Z" fill="#E36977"/>
<path d="M0.753906 17.9961C0.753906 19.8055 1.95158 21.615 4.34045 22.9939C6.72932 24.3729 9.86592 25.0656 12.9993 25.0656V43.1569C9.86592 43.1569 6.73256 42.4642 4.34045 41.0853C1.94834 39.7063 0.753906 37.8969 0.753906 36.0874V17.9961Z" fill="white"/>
<path d="M4.34045 28.8073C5.47563 29.4434 6.69045 29.9257 7.95289 30.2412V28.7749C6.69031 28.4582 5.4755 27.9749 4.34045 27.3377C1.95158 25.9588 0.753906 24.1493 0.753906 22.3398V23.8062C0.753906 25.6156 1.95158 27.438 4.34045 28.8073Z" fill="#E0E0E0"/>
<path d="M7.95289 36.7437C6.69045 36.4281 5.47563 35.9459 4.34045 35.3097C1.95158 33.9275 0.753906 32.118 0.753906 30.3086V31.7782C0.753906 33.5876 1.95158 35.3971 4.34045 36.776C5.475 37.4135 6.69 37.8958 7.95289 38.21V36.7437Z" fill="#E0E0E0"/>
<path d="M4.34045 32.791C5.47449 33.4319 6.68951 33.9174 7.95289 34.2347V32.7683C6.69028 32.4472 5.47563 31.9607 4.34045 31.3214C1.95158 29.9392 0.753906 28.1298 0.753906 26.3203V27.7899C0.753906 29.6026 1.95158 31.4088 4.34045 32.791Z" fill="#E0E0E0"/>
<path d="M1.00293 10.3696C1.00293 10.3696 5.23039 14.6197 13.3875 14.3996C21.5446 14.1795 24.8107 9.72219 25.2412 8.34001C25.6717 6.95783 25.3998 5.16132 24.1407 3.63672C24.6932 4.12091 25.1417 4.71227 25.4588 5.37497C25.776 6.03767 25.9552 6.75788 25.9857 7.49193V13.2472C25.9857 13.7328 26.235 15.4063 23.6033 17.575C23.6033 17.575 25.1473 15.8206 25.1473 14.1309V10.1527C25.1473 10.1527 22.26 14.9855 13.3875 14.9855C4.51502 14.9855 1.45287 11.0947 1.00293 10.3696Z" fill="white"/>
</svg>
