<svg width="52" height="59" viewBox="0 0 52 59" fill="none" xmlns="http://www.w3.org/2000/svg">
<path d="M10.938 32.0681L26.4667 34.8159L43.8694 32.0115L27.1061 29.9531L10.938 32.0681Z" fill="#FF76AB"/>
<path opacity="0.3" d="M10.938 32.0681L26.4667 34.8159L43.8694 32.0115L27.1061 29.9531L10.938 32.0681Z" fill="#67032A"/>
<path d="M12.9453 55.7385L10.938 32.0664L26.4667 34.8142L26.9529 58.4986L12.9453 55.7385Z" fill="#FF76AB"/>
<path opacity="0.1" d="M12.9453 55.7385L10.938 32.0664L26.4667 34.8142L26.9529 58.4986L12.9453 55.7385Z" fill="#67032A"/>
<path d="M17.518 56.6409L21.2017 57.3659L20.3246 33.7281L16.0303 32.9688L17.518 56.6409Z" fill="#EF2E79"/>
<path d="M26.4668 34.8161L26.9531 58.5005L42.6272 55.8515L43.8695 32.0117L26.4668 34.8161Z" fill="#FF76AB"/>
<path d="M33.1572 57.4502L37.4049 56.733L37.9234 32.9688L33.125 33.7426L33.1572 57.4502Z" fill="#EF2E79"/>
<path d="M5.73082 24.6193L21.722 21.7574L19.3953 16.4454L3.24854 20.0352L5.73082 24.6193Z" fill="#FF76AB"/>
<path opacity="0.2" d="M5.73082 24.6193L21.722 21.7574L19.3953 16.4454L3.24854 20.0352L5.73082 24.6193Z" fill="#67032A"/>
<path d="M11.0269 23.6705L15.7737 22.8204L13.3083 17.7973L8.53564 18.8555L11.0269 23.6705Z" fill="#EF2E79"/>
<path d="M39.1189 11.9315L37.5426 6.70925L19.3952 16.4475L21.7219 21.7595L39.1189 11.9315Z" fill="#FF76AB"/>
<path opacity="0.1" d="M39.1189 11.9315L37.5426 6.70925L19.3952 16.4475L21.7219 21.7595L39.1189 11.9315Z" fill="#67032A"/>
<path d="M27.9754 18.2242L33.0128 15.379L31.2986 10.0581L25.9556 12.9254L27.9754 18.2242Z" fill="#EF2E79"/>
<path d="M3.2486 20.0375L19.3953 16.4477L37.5427 6.70944L20.0222 12.0397L3.2486 20.0375Z" fill="#FF76AB"/>
<path d="M8.53539 18.8582L25.6487 10.3268L29.5035 9.15484L13.308 17.8L8.53539 18.8582Z" fill="#EF2E79"/>
<path d="M25.9553 12.9273L31.2983 10.0601L14.39 14.7239L10.0465 16.7958L25.9553 12.9273Z" fill="#EF2E79"/>
<path d="M13.5151 15.6745C13.5151 15.6745 9.80801 16.9517 8.79835 19.6394C7.78869 22.3271 8.28344 24.714 7.89111 25.6133C7.49877 26.5127 5.04297 27.9856 5.04297 27.9856L10.0234 31.036C10.0234 31.036 11.6988 30.5756 11.9759 27.8175C12.2529 25.0595 11.2021 22.1975 11.9755 20.0949C12.7488 17.9924 14.7942 16.3731 14.7942 16.3731L13.5151 15.6745Z" fill="#EF2E79"/>
<path d="M11.6887 21.7737C10.6521 21.0645 9.74859 20.1783 9.01943 19.1557C10.2598 16.7969 13.5151 15.6741 13.5151 15.6741L14.7914 16.3666C14.7914 16.3666 12.7471 17.9856 11.9738 20.0881C11.7871 20.6306 11.6908 21.2 11.6887 21.7737Z" fill="#B4064A"/>
<path d="M22.9937 12.3344C22.9937 12.3344 25.8288 9.86215 28.6873 10.1192C31.5457 10.3762 33.4082 11.5449 34.3888 11.5799C35.3694 11.6148 37.7603 10.0455 37.7603 10.0455L38.3439 15.8567C38.3439 15.8567 37.2006 17.1665 34.5972 16.2181C31.9937 15.2698 29.8714 13.08 27.6411 12.8638C25.4109 12.6476 23.064 13.7592 23.064 13.7592L22.9937 12.3344Z" fill="#EF2E79"/>
<path d="M32.0761 14.9405C30.5326 14.0059 29.1108 13.0064 27.6429 12.8641C25.4126 12.648 23.0649 13.7609 23.0649 13.7609L22.9941 12.334C22.9941 12.334 25.8295 9.86279 28.6876 10.1188C29.2576 10.1708 29.8234 10.2615 30.381 10.3903C31.0282 11.5444 31.7892 13.1876 32.0761 14.9405Z" fill="#B4064A"/>
<path d="M32.0762 14.9375C33.1756 15.5532 34.2968 16.1815 35.5311 16.4772C34.2786 16.2553 33.1363 15.6166 32.0762 14.9375Z" fill="#9E0B45"/>
<path d="M31.6483 10.7376C32.5207 10.9521 33.3357 11.3728 34.2181 11.5432C34.7528 11.6126 35.2814 11.3848 35.7629 11.1741C35.2897 11.4159 34.7569 11.6621 34.21 11.5902C33.3259 11.4306 32.5015 10.9963 31.6475 10.7344L31.6483 10.7376Z" fill="#9E0B45"/>
<path d="M11.0458 18.1746C10.7308 17.1832 14.763 14.1339 18.1525 13.9624C18.1525 13.9624 16.8329 17.0033 14.6667 18.0642C12.5005 19.1251 11.1832 18.6056 11.0458 18.1746Z" fill="#9E0B45"/>
<path d="M18.153 13.9626L18.293 14.2837L18.4566 14.6582L18.5179 14.797C18.2169 18.8212 15.6927 21.5871 15.4526 21.6905C15.2125 21.7939 13.4917 21.3045 12.4964 20.4896C11.5011 19.6747 10.8779 17.8809 11.0463 18.1748C11.2147 18.4687 12.4597 18.8983 14.1327 18.0903C15.8058 17.2822 17.9634 14.572 18.153 13.9626Z" fill="#EF2E79"/>
<path d="M18.2929 14.2848L18.4565 14.6593C18.3424 15.4233 18.0718 16.1556 17.6616 16.8102C17.6606 16.8121 17.6591 16.8138 17.6574 16.8152C17.6557 16.8166 17.6537 16.8176 17.6516 16.8183C17.6494 16.8189 17.6472 16.8191 17.645 16.8188C17.6428 16.8186 17.6407 16.8179 17.6387 16.8169C17.6368 16.8158 17.635 16.8144 17.6337 16.8126C17.6323 16.8109 17.6312 16.8089 17.6306 16.8068C17.63 16.8047 17.6298 16.8024 17.63 16.8002C17.6303 16.798 17.6309 16.7959 17.632 16.794C17.7859 16.3688 17.9198 15.9421 18.0375 15.5106C17.578 16.3694 16.9638 17.1569 16.3562 17.8794C16.3301 17.9106 16.2778 17.874 16.3047 17.8415C17.1745 16.7637 17.6975 15.5155 18.2929 14.2848Z" fill="#9E0B45"/>
<path d="M9.83944 10.2227C10.5282 9.20716 15.2992 10.6137 17.9291 13.6296C17.9291 13.6296 15.1441 14.7793 12.58 13.5446C10.0159 12.3098 9.54039 10.6638 9.83944 10.2227Z" fill="#9E0B45"/>
<path d="M17.93 13.6336L18.4175 14.7363C14.4653 17.3895 10.0616 17.0706 9.79121 16.9236C9.52078 16.7765 8.71854 14.8249 8.74905 13.3087C8.77956 11.7925 9.9809 9.90173 9.83602 10.2704C9.69114 10.6391 10.1952 12.1086 12.1644 13.0705C14.1336 14.0325 17.2244 13.8997 17.93 13.6336Z" fill="#EF2E79"/>
<path d="M18.107 14.0312L18.2216 14.2913C16.8676 14.8747 15.3043 15.05 13.8593 14.9808C13.8162 14.9786 13.815 14.9054 13.8583 14.9041C14.6683 14.8799 15.4741 14.7794 16.2652 14.604C16.8912 14.4543 17.5065 14.263 18.107 14.0312Z" fill="#9E0B45"/>
<path d="M8.95781 12.1164C8.83445 12.615 8.76583 13.1255 8.75317 13.639C8.67025 13.1279 8.77981 12.5974 8.95781 12.1164Z" fill="#9E0B45"/>
<path d="M27.7536 10.7881C27.2333 9.89303 22.2619 10.8182 19.8555 13.209C19.8555 13.209 22.9918 14.28 25.2339 13.3908C27.476 12.5015 27.9791 11.1794 27.7536 10.7881Z" fill="#9E0B45"/>
<path d="M28.4892 13.4197C28.4225 14.7019 27.627 16.3058 27.3883 16.4146C27.1497 16.5234 23.409 16.5257 20.2263 14.0418L20.1441 13.8593L19.9473 13.4166L19.8555 13.2113C20.4334 13.4806 23.8968 13.7089 25.6146 13.0164C27.3324 12.324 27.8518 11.1136 27.7534 10.7894C27.655 10.4652 28.5557 12.1364 28.4892 13.4197Z" fill="#EF2E79"/>
<path d="M24.3404 14.983C23.3722 14.9369 22.4161 14.7472 21.5035 14.4202C21.0405 14.2613 20.5871 14.0758 20.1455 13.8645L19.9487 13.4219C20.4558 13.7094 20.9836 13.9587 21.5278 14.1677C22.4452 14.4948 23.3934 14.7279 24.3578 14.8634C24.37 14.8692 24.38 14.8787 24.3864 14.8907C24.3927 14.9026 24.3951 14.9162 24.3932 14.9296C24.3912 14.9429 24.3851 14.9553 24.3756 14.9649C24.3661 14.9745 24.3538 14.9808 24.3404 14.983Z" fill="#9E0B45"/>
<path d="M22.6978 4.54021C21.4844 4.36995 19.2986 8.84516 19.7613 12.8199C19.7613 12.8199 22.4866 11.5333 23.2985 8.80669C24.1104 6.08004 23.227 4.6191 22.6978 4.54021Z" fill="#9E0B45"/>
<path d="M27.6701 9.01146C27.5965 9.31163 24.8692 12.7825 20.2498 13.9192L19.7616 12.8178C20.435 12.4788 22.6126 10.2804 23.2305 8.17697C23.8485 6.07352 23.0993 4.71455 22.7239 4.57032C22.3485 4.42609 24.557 4.81014 25.6978 5.80327C26.8386 6.7964 27.7415 8.71187 27.6701 9.01146Z" fill="#EF2E79"/>
<path d="M23.5822 9.82712C23.3343 10.7119 22.7878 11.379 22.1146 11.9939C21.63 12.4366 21.1052 12.8331 20.547 13.1783C20.9262 13.0335 21.2969 12.8674 21.6573 12.6808C22.3117 12.3261 22.8526 11.8743 23.4123 11.3933C23.4518 11.3609 23.4953 11.4159 23.4706 11.4524C22.7717 12.5029 21.3314 13.1933 20.0937 13.5629L19.9327 13.2107C20.5522 12.8563 21.1447 12.4567 21.7053 12.015C22.4034 11.4372 23.2086 10.6847 23.5135 9.80647C23.528 9.7704 23.5926 9.78871 23.5822 9.82712Z" fill="#9E0B45"/>
<path d="M20.7197 13.5163C20.8127 13.7431 21.1047 14.597 20.8501 14.8606C20.5954 15.1242 19.9714 15.1719 19.8273 15.2346C19.6849 15.2993 19.2295 15.7316 18.8623 15.7381C18.495 15.7445 18.0609 14.9563 17.9553 14.734C17.8498 14.5117 17.4838 13.6305 17.7272 13.4021C17.9706 13.1736 18.7308 13.0642 18.8458 13.0127C18.9607 12.9612 19.5542 12.478 19.8874 12.4474C20.2205 12.4167 20.6268 13.2895 20.7197 13.5163Z" fill="#EF2E79"/>
<path d="M27.2915 16.4319C27.3271 16.4207 27.3617 16.4064 27.395 16.3892C27.4715 16.3031 27.5375 16.2083 27.5916 16.1067C28.1452 15.1699 28.4028 14.1066 28.4819 13.0291C28.5819 13.5796 28.5622 14.1452 28.424 14.6874C28.2859 15.2296 28.0326 15.7356 27.6813 16.1711C27.6051 16.266 27.5148 16.3487 27.4137 16.4164C27.3734 16.4261 27.332 16.4302 27.2906 16.4287L27.2915 16.4319Z" fill="#9E0B45"/>
<path d="M15.2197 21.6923C13.938 21.576 12.5232 20.9586 11.8682 19.8008C12.7759 20.7564 13.9985 21.2655 15.2197 21.6923Z" fill="#9E0B45"/>
<path d="M15.4507 24.6562L16.2896 23.8316C16.7412 24.568 17.3302 25.2108 18.0245 25.7249L18.4888 26.0687L17.6499 26.8934L15.4507 24.6562Z" fill="#5E6BDD"/>
<path d="M45.0737 11.543L44.6821 12.6523C43.953 12.1889 43.1416 11.87 42.2921 11.7131L41.724 11.6081L42.1155 10.4987L45.0737 11.543Z" fill="#8155A3"/>
<path d="M33.4022 20.7567L33.005 21.1795C33.005 20.9196 32.8606 20.6813 32.6303 20.5609L30.3521 19.3703L31.184 18.5385L33.4022 20.7567Z" fill="#5E6BDD"/>
<path d="M27.3236 28.4013L26.9264 28.8241C26.9264 28.5642 26.782 28.3258 26.5517 28.2054L24.2735 27.0148L25.1054 26.183L27.3236 28.4013Z" fill="#5E6BDD"/>
<path d="M40.3513 21.8868L40.8625 22.161C40.6115 22.2283 40.4186 22.4294 40.3619 22.6831L39.8016 25.1918L38.7828 24.6036L40.3513 21.8868Z" fill="#5E6BDD"/>
<circle cx="5.64777" cy="9.12727" r="0.588204" fill="#DE0F5F"/>
<circle cx="14.2742" cy="7.75617" r="0.588204" fill="#DE0F5F"/>
<circle cx="15.451" cy="27.557" r="0.588204" fill="#8155A3"/>
<circle cx="23.8817" cy="31.6741" r="0.588204" fill="#DE0F5F"/>
<circle cx="19.9598" cy="3.8343" r="0.588204" fill="#DE0F5F"/>
<path d="M27.8991 39.5485C27.4692 39.3003 26.6266 40.8538 26.8643 40.4421C27.102 40.0303 28.7528 40.3727 29.1827 40.6209C29.6126 40.8691 29.3073 41.3036 29.0696 41.7153C28.8319 42.127 28.329 39.7967 27.8991 39.5485Z" fill="#FF76AB"/>
<path d="M20.9404 31.4186C20.9404 31.915 22.7071 31.868 22.2317 31.868C21.7563 31.868 21.2274 30.2672 21.2274 29.7708C21.2274 29.2744 21.7563 29.3216 22.2317 29.3216C22.7071 29.3216 20.9404 30.9222 20.9404 31.4186Z" fill="#8155A3"/>
<path d="M31.1362 25.735C31.1362 26.2314 32.9029 26.1844 32.4275 26.1844C31.9521 26.1844 31.4232 24.5836 31.4232 24.0872C31.4232 23.5908 31.9521 23.638 32.4275 23.638C32.9029 23.638 31.1362 25.2386 31.1362 25.735Z" fill="#8155A3"/>
<path d="M32.9009 30.6374C32.9009 31.1338 34.6675 31.0868 34.1921 31.0868C33.7167 31.0868 33.1878 29.486 33.1878 28.9896C33.1878 28.4932 33.7167 28.5403 34.1921 28.5403C34.6675 28.5403 32.9009 30.141 32.9009 30.6374Z" fill="#8155A3"/>
<path d="M35.758 24.7389C35.407 24.3879 34.191 25.6704 34.5272 25.3342C34.8633 24.998 36.3692 25.756 36.7202 26.107C37.0712 26.458 36.6639 26.7986 36.3278 27.1348C35.9916 27.471 36.109 25.0899 35.758 24.7389Z" fill="#DE0F5F"/>
<path d="M12.818 0.817057C12.467 0.466057 11.251 1.74851 11.5872 1.41234C11.9234 1.07616 13.4293 1.83412 13.7803 2.18512C14.1313 2.53612 13.724 2.87677 13.3878 3.21295C13.0517 3.54912 13.169 1.16806 12.818 0.817057Z" fill="#DE0F5F"/>
<path d="M37.5226 29.6413C37.1716 29.2903 35.9556 30.5727 36.2918 30.2366C36.628 29.9004 38.1339 30.6583 38.4849 31.0093C38.8359 31.3603 38.4286 31.701 38.0924 32.0372C37.7562 32.3733 37.8736 29.9923 37.5226 29.6413Z" fill="#DE0F5F"/>
<path d="M42.4245 18.2702C42.0735 17.9192 40.8575 19.2016 41.1937 18.8655C41.5298 18.5293 43.0357 19.2872 43.3867 19.6382C43.7377 19.9892 43.3305 20.3299 42.9943 20.6661C42.6581 21.0022 42.7755 18.6212 42.4245 18.2702Z" fill="#DE0F5F"/>
<path d="M22.0223 24.7272C22.3733 24.3762 21.0908 23.1602 21.427 23.4964C21.7632 23.8326 21.0052 25.3385 20.6542 25.6895C20.3032 26.0405 19.9626 25.6332 19.6264 25.297C19.2902 24.9608 21.6713 25.0782 22.0223 24.7272Z" fill="#DE0F5F"/>
<path d="M39.6683 3.94596C40.0193 3.59496 38.7368 2.37898 39.073 2.71515C39.4092 3.05133 38.6512 4.55723 38.3002 4.90823C37.9492 5.25923 37.6086 4.85194 37.2724 4.51576C36.9362 4.17959 39.3173 4.29696 39.6683 3.94596Z" fill="#DE0F5F"/>
<path d="M28.9841 20.9246C29.2045 20.4799 27.6007 19.7374 28.0267 19.9486C28.4527 20.1597 28.2156 21.8289 27.9952 22.2736C27.7748 22.7184 27.3218 22.4413 26.8959 22.2302C26.4699 22.019 28.7636 21.3694 28.9841 20.9246Z" fill="#5E6BDD"/>
<path d="M45.4538 25.2371C45.6742 24.7924 44.0704 24.0499 44.4964 24.2611C44.9224 24.4722 44.6854 26.1414 44.4649 26.5861C44.2445 27.0309 43.7916 26.7538 43.3656 26.5427C42.9396 26.3315 45.2333 25.6819 45.4538 25.2371Z" fill="#5E6BDD"/>
<circle cx="37.9991" cy="21.8726" r="0.392136" fill="#8155A3"/>
<circle cx="14.0782" cy="29.3218" r="0.392136" fill="#8155A3"/>
<circle cx="41.7237" cy="14.814" r="0.392136" fill="#DE0F5F"/>
<circle cx="13.8819" cy="25.3999" r="0.392136" fill="#5E6BDD"/>
<circle cx="31.7242" cy="28.5367" r="0.392136" fill="#8155A3"/>
<circle cx="28.4892" cy="25.3042" r="0.882305" fill="#5E6BDD"/>
<circle cx="36.1362" cy="19.4214" r="0.882305" fill="#5E6BDD"/>
<circle cx="41.6255" cy="26.0854" r="0.882305" fill="#8155A3"/>
<circle cx="20.0581" cy="28.4409" r="0.882305" fill="#5E6BDD"/>
<path d="M29.6638 36.0173C29.2339 35.7691 28.3913 37.3225 28.629 36.9108C28.8667 36.4991 30.5174 36.8415 30.9473 37.0897C31.3772 37.3378 31.072 37.7723 30.8343 38.184C30.5965 38.5958 30.0937 36.2654 29.6638 36.0173Z" fill="#FF76AB"/>
<path d="M48.591 3.67073C48.8114 3.22597 47.2076 2.48354 47.6336 2.69467C48.0596 2.90579 47.8226 4.57495 47.6021 5.01971C47.3817 5.46446 46.9288 5.18738 46.5028 4.97625C46.0768 4.76513 48.3706 4.11548 48.591 3.67073Z" fill="#5E6BDD"/>
<path d="M50.944 8.17854C51.1645 7.73378 49.5607 6.99136 49.9866 7.20248C50.4126 7.4136 50.1756 9.08276 49.9552 9.52752C49.7347 9.97228 49.2818 9.69519 48.8558 9.48407C48.4298 9.27294 50.7236 8.6233 50.944 8.17854Z" fill="#5E6BDD"/>
<circle cx="32.0185" cy="1.77293" r="0.882305" fill="#5E6BDD"/>
<circle cx="45.9394" cy="8.63621" r="0.882305" fill="#8155A3"/>
<circle cx="1.62742" cy="6.08934" r="0.882305" fill="#5E6BDD"/>
</svg>
