<svg width="135" height="158" viewBox="0 0 135 158" fill="none" xmlns="http://www.w3.org/2000/svg">
<path d="M67.4487 157.154L133.497 116.496V66.5144L134.895 65.6597V44.918L67.4487 86.3919V157.154Z" fill="#EF2E79"/>
<g opacity="0.45">
<path d="M67.4541 157.154L133.503 116.496V66.5144L134.9 65.6597V44.918L67.4541 86.3919V157.154Z" fill="white"/>
</g>
<path opacity="0.15" d="M67.4487 107.125L92.7411 91.5786L133.497 66.5156V69.5021L67.4487 110.102V107.125Z" fill="black"/>
<path d="M67.4463 157.154L1.75829 116.794V66.7352L0 65.6597V44.918L67.4463 86.3919V157.154Z" fill="#EF2E79"/>
<path opacity="0.3" d="M67.4463 157.154L1.75829 116.794V66.7352L0 65.6597V44.918L67.4463 86.3919V157.154Z" fill="white"/>
<path opacity="0.1" d="M1.75342 66.7383L67.4504 107.127V110.104L1.75342 69.7535V66.7383Z" fill="black"/>
<path d="M0 44.9174L67.4463 3.45312L134.892 44.9174L67.4463 86.3913L0 44.9174Z" fill="#EF2E79"/>
<g opacity="0.6">
<path d="M0 44.9174L67.4463 3.45312L134.892 44.9174L67.4463 86.3913L0 44.9174Z" fill="white"/>
</g>
<path d="M40.059 140.323V69.5518L29.1035 62.8203V133.592L40.059 140.323Z" fill="#EBEBEB"/>
<path d="M40.059 140.323V69.5518L29.1035 62.8203V133.592L40.059 140.323Z" fill="#EF2E79"/>
<path opacity="0.4" d="M40.059 140.323V69.5518L29.1035 62.8203V133.592L40.059 140.323Z" fill="black"/>
<path d="M94.8467 140.323V69.5518L105.802 62.8203V133.592L94.8467 140.323Z" fill="#EF2E79"/>
<path opacity="0.15" d="M94.8467 140.323V69.5518L105.802 62.8203V133.592L94.8467 140.323Z" fill="black"/>
<path d="M29.1035 62.8176L96.5498 21.3438L107.505 28.0848L40.059 69.5491L29.1035 62.8176Z" fill="#EF2E79"/>
<path opacity="0.25" d="M66.5585 53.2655L55.603 46.5244L66.5585 39.793L77.514 46.5244L66.5585 53.2655Z" fill="black"/>
<path d="M94.8393 69.5491L27.3931 28.0848L38.3486 21.3438L105.795 62.8176L94.8393 69.5491Z" fill="#EF2E79"/>
<path d="M64.812 51.3155L80.3211 78.491V125.842L89.915 111.399V72.6334L67.0572 46.3125L64.812 51.3155Z" fill="#EF2E79"/>
<path d="M67.4722 48.4642L112.151 49.9334L119.86 38.8711L67.373 43.9029L67.4722 48.4642Z" fill="#EF2E79"/>
<path d="M24.1431 27.0047C24.1431 27.0047 26.8481 38.5279 39.4086 42.9739C51.9691 47.42 66.5224 48.4763 66.5224 48.4763L37.984 12.207L24.1431 27.0047Z" fill="#EF2E79"/>
<path opacity="0.4" d="M24.1431 27.0047C24.1431 27.0047 26.8481 38.5279 39.4086 42.9739C51.9691 47.42 66.5224 48.4763 66.5224 48.4763L37.984 12.207L24.1431 27.0047Z" fill="black"/>
<path d="M66.5224 48.4763C66.5224 48.4763 66.829 37.1163 61.3197 28.5316C55.8104 19.9468 37.984 12.207 37.984 12.207C32.7886 16.4811 28.1361 21.4552 24.1431 27.0047C24.1431 27.0047 47.8394 26.8031 64.1239 48.0826L66.5224 48.4763Z" fill="#EF2E79"/>
<path opacity="0.1" d="M66.5224 48.4763C66.5224 48.4763 66.829 37.1163 61.3197 28.5316C55.8104 19.9468 37.984 12.207 37.984 12.207C32.7886 16.4811 28.1361 21.4552 24.1431 27.0047C24.1431 27.0047 47.8394 26.8031 64.1239 48.0826L66.5224 48.4763Z" fill="white"/>
<path opacity="0.3" d="M39.0156 29.9198C43.437 31.4498 47.66 33.5662 51.5852 36.2192L60.2684 27.087C57.374 23.486 52.586 20.1251 48.1768 17.4844L39.0156 29.9198Z" fill="white"/>
<path d="M66.5291 48.4745C63.8886 53.5941 59.7817 57.6818 54.8071 60.1418C46.2411 64.5686 31.9042 64.3381 31.9042 64.3381L30.5337 45.1328C32.1799 47.795 34.4225 49.979 37.0592 51.4878C39.6959 52.9965 42.6438 53.7826 45.637 53.7752C52.0738 53.823 58.3072 51.3759 63.1748 46.8901L66.5291 48.4745Z" fill="#EF2E79"/>
<path opacity="0.4" d="M66.5291 48.4745C63.8886 53.5941 59.7817 57.6818 54.8071 60.1418C46.2411 64.5686 31.9042 64.3381 31.9042 64.3381L30.5337 45.1328C32.1799 47.795 34.4225 49.979 37.0592 51.4878C39.6959 52.9965 42.6438 53.7826 45.637 53.7752C52.0738 53.823 58.3072 51.3759 63.1748 46.8901L66.5291 48.4745Z" fill="black"/>
<path d="M66.5332 48.4734C57.5614 38.7363 49.1667 37.7952 41.5114 39.6966C33.0355 41.8091 30.5288 45.1029 30.5288 45.1029L31.8994 64.3082C31.8994 64.3082 36.4078 54.9168 48.6527 50.6916C60.8977 46.4664 66.5332 48.4734 66.5332 48.4734Z" fill="#EF2E79"/>
<path opacity="0.1" d="M66.5332 48.4734C57.5614 38.7363 49.1667 37.7952 41.5114 39.6966C33.0355 41.8091 30.5288 45.1029 30.5288 45.1029L31.8994 64.3082C31.8994 64.3082 36.4078 54.9168 48.6527 50.6916C60.8977 46.4664 66.5332 48.4734 66.5332 48.4734Z" fill="white"/>
<path opacity="0.3" d="M34.7246 42.1385C36.8075 45.3265 40.1347 50.5408 42.2176 53.8345C44.249 52.5535 46.4046 51.5104 48.6467 50.7232C50.7707 49.9935 52.9323 49.3939 55.1208 48.9275L47.3302 38.9023C45.3673 38.9439 43.4143 39.2111 41.5053 39.6994C39.1713 40.2581 36.8987 41.0756 34.7246 42.1385Z" fill="white"/>
<path d="M66.0265 46.3328C66.0265 46.3328 78.6502 44.4123 87.3695 34.4447C96.0888 24.4772 97.9824 10.5629 97.9824 10.5629L82.0946 0C83.415 4.31632 83.8448 8.88536 83.3546 13.3948C82.8644 17.9043 81.4658 22.248 79.2543 26.1288C73.6007 36.4037 65.729 38.5067 65.729 38.5067L66.0265 46.3328Z" fill="#EF2E79"/>
<path opacity="0.4" d="M66.0265 46.3328C66.0265 46.3328 78.6502 44.4123 87.3695 34.4447C96.0888 24.4772 97.9824 10.5629 97.9824 10.5629L82.0946 0C83.415 4.31632 83.8448 8.88536 83.3546 13.3948C82.8644 17.9043 81.4658 22.248 79.2543 26.1288C73.6007 36.4037 65.729 38.5067 65.729 38.5067L66.0265 46.3328Z" fill="black"/>
<path d="M66.0245 46.3328L68.3509 45.8239C69.6826 36.1054 74.0691 27.155 80.7942 20.4345C92.3719 9.14173 97.9804 10.5629 97.9804 10.5629C93.3277 5.58875 87.8274 2.5159 82.0926 0C82.0926 0 72.2462 6.1265 67.891 14.7977C62.6703 25.1782 64.3835 40.5616 66.0245 46.3328Z" fill="#EF2E79"/>
<path opacity="0.1" d="M66.0245 46.3328L68.3509 45.8239C69.6826 36.1054 74.0691 27.155 80.7942 20.4345C92.3719 9.14173 97.9804 10.5629 97.9804 10.5629C93.3277 5.58875 87.8274 2.5159 82.0926 0C82.0926 0 72.2462 6.1265 67.891 14.7977C62.6703 25.1782 64.3835 40.5616 66.0245 46.3328Z" fill="white"/>
<g opacity="0.3">
<path d="M89.4712 13.4427L76.0631 4.65625C75.4229 5.22281 74.7827 5.81817 74.1245 6.47115L87.217 14.9695C88.0105 14.4029 88.7679 13.8652 89.4712 13.4427Z" fill="white"/>
<path d="M85.2184 16.4792L72.2521 8.46094C71.0151 9.85129 69.8957 11.3551 68.9069 12.955L68.8167 13.0894C68.4831 13.6368 68.1675 14.2033 67.915 14.7699C67.7527 15.106 67.6445 15.4901 67.4912 15.8358L78.3115 23.105C79.0779 22.2023 79.8984 21.3093 80.7911 20.4355C82.3871 18.8798 83.8478 17.5931 85.2184 16.4792Z" fill="white"/>
</g>
<path d="M66.4209 48.4531C66.4209 48.4531 70.4966 52.7839 80.0635 54.9925C89.6304 57.2011 101.587 55.271 106.573 49.0292L104.986 31.1875C104.986 31.1875 97.3398 42.9027 85.7892 45.2458C76.9887 47.0223 66.3037 43.6518 66.3037 43.6518L66.4209 48.4531Z" fill="#EF2E79"/>
<path opacity="0.4" d="M66.4209 48.4531C66.4209 48.4531 70.4966 52.7839 80.0635 54.9925C89.6304 57.2011 101.587 55.271 106.573 49.0292L104.986 31.1875C104.986 31.1875 97.3398 42.9027 85.7892 45.2458C76.9887 47.0223 66.3037 43.6518 66.3037 43.6518L66.4209 48.4531Z" fill="black"/>
<path d="M65.7383 44.3673C65.7383 44.3673 74.6379 33.8043 84.5114 31.8838C97.8835 29.2623 105.016 31.1924 105.016 31.1924C107.577 37.559 108.027 43.4934 106.603 49.0342C106.603 49.0342 100.607 42.5812 86.9911 42.5043C76.2249 42.4467 66.4506 48.458 66.4506 48.458L65.7383 44.3673Z" fill="#EF2E79"/>
<path opacity="0.1" d="M65.7383 44.3673C65.7383 44.3673 74.6379 33.8043 84.5114 31.8838C97.8835 29.2623 105.016 31.1924 105.016 31.1924C107.577 37.559 108.027 43.4934 106.603 49.0342C106.603 49.0342 100.607 42.5812 86.9911 42.5043C76.2249 42.4467 66.4506 48.458 66.4506 48.458L65.7383 44.3673Z" fill="white"/>
<path opacity="0.3" d="M103.703 46.8492C100.737 45.0929 97.5151 43.8789 94.172 43.2578L92.062 30.7743C95.3897 30.4363 98.7388 30.4106 102.071 30.6975C103.608 35.9146 104.162 41.4034 103.703 46.8492Z" fill="white"/>
<path opacity="0.15" d="M89.9147 72.6367L80.3208 78.4943V125.845L89.9147 111.403V72.6367Z" fill="black"/>
</svg>
