<svg width="154" height="137" viewBox="0 0 154 137" fill="none" xmlns="http://www.w3.org/2000/svg">
<g filter="url(#filter0_d_5591_82526)">
<path d="M92.5767 108.514L52.0136 83.545V52.8491L51.1553 52.3243V39.5859L92.5767 65.0567V108.514Z" fill="#EF2E79"/>
<g opacity="0.45">
<path d="M92.5737 108.514L52.0107 83.545V52.8491L51.1523 52.3243V39.5859L92.5737 65.0567V108.514Z" fill="white"/>
</g>
<path opacity="0.15" d="M92.5767 77.7916L77.0436 68.2437L52.0136 52.8516V54.6856L92.5767 79.6198V77.7916Z" fill="black"/>
<path d="M92.5786 108.514L132.92 83.7278V52.9848L134 52.3243V39.5859L92.5786 65.0567V108.514Z" fill="#EF2E79"/>
<path opacity="0.3" d="M92.5786 108.514L132.92 83.7278V52.9848L134 52.3243V39.5859L92.5786 65.0567V108.514Z" fill="white"/>
<path opacity="0.1" d="M132.923 52.9883L92.5762 77.7926V79.6208L132.923 54.8401V52.9883Z" fill="black"/>
<path d="M134 39.586L92.5786 14.1211L51.1572 39.586L92.5786 65.0567L134 39.586Z" fill="#EF2E79"/>
<g opacity="0.6">
<path d="M134 39.586L92.5786 14.1211L51.1572 39.586L92.5786 65.0567L134 39.586Z" fill="white"/>
</g>
<path d="M109.398 98.1758V54.7122L116.126 50.5781V94.0418L109.398 98.1758Z" fill="#EBEBEB"/>
<path d="M109.398 98.1758V54.7122L116.126 50.5781V94.0418L109.398 98.1758Z" fill="#EF2E79"/>
<path opacity="0.4" d="M109.398 98.1758V54.7122L116.126 50.5781V94.0418L109.398 98.1758Z" fill="black"/>
<path d="M75.751 98.1758V54.7122L69.0228 50.5781V94.0418L75.751 98.1758Z" fill="#EF2E79"/>
<path opacity="0.15" d="M75.751 98.1758V54.7122L69.0228 50.5781V94.0418L75.751 98.1758Z" fill="black"/>
<path d="M116.126 50.5801L74.705 25.1094L67.9768 29.2493L109.398 54.7142L116.126 50.5801Z" fill="#EF2E79"/>
<path opacity="0.25" d="M93.1238 44.7115L99.8521 40.5716L93.1238 36.4375L86.3956 40.5716L93.1238 44.7115Z" fill="black"/>
<path d="M75.7553 54.7142L117.177 29.2493L110.449 25.1094L69.0271 50.5801L75.7553 54.7142Z" fill="#EF2E79"/>
<path d="M94.1963 43.5178L84.6716 60.2074V89.2874L78.7795 80.4177V56.61L92.8174 40.4453L94.1963 43.5178Z" fill="#EF2E79"/>
<path d="M92.5626 41.7626L65.1237 42.6649L60.389 35.8711L92.6235 38.9613L92.5626 41.7626Z" fill="#EF2E79"/>
<path d="M119.173 28.5839C119.173 28.5839 117.512 35.6608 109.798 38.3913C102.084 41.1218 93.146 41.7705 93.146 41.7705L110.673 19.4961L119.173 28.5839Z" fill="#EF2E79"/>
<path opacity="0.4" d="M119.173 28.5839C119.173 28.5839 117.512 35.6608 109.798 38.3913C102.084 41.1218 93.146 41.7705 93.146 41.7705L110.673 19.4961L119.173 28.5839Z" fill="black"/>
<path d="M93.146 41.7705C93.146 41.7705 92.9577 34.7939 96.3412 29.5216C99.7247 24.2494 110.673 19.4961 110.673 19.4961C113.863 22.121 116.721 25.1758 119.173 28.5839C119.173 28.5839 104.62 28.4601 94.619 41.5287L93.146 41.7705Z" fill="#EF2E79"/>
<path opacity="0.1" d="M93.146 41.7705C93.146 41.7705 92.9577 34.7939 96.3412 29.5216C99.7247 24.2494 110.673 19.4961 110.673 19.4961C113.863 22.121 116.721 25.1758 119.173 28.5839C119.173 28.5839 104.62 28.4601 94.619 41.5287L93.146 41.7705Z" fill="white"/>
<path opacity="0.3" d="M110.039 30.3754C107.324 31.315 104.73 32.6148 102.32 34.2441L96.9869 28.6357C98.7645 26.4241 101.705 24.3601 104.413 22.7383L110.039 30.3754Z" fill="white"/>
<path d="M93.1419 41.771C94.7635 44.9152 97.2857 47.4256 100.341 48.9364C105.602 51.655 114.406 51.5135 114.406 51.5135L115.248 39.7188C114.237 41.3537 112.86 42.695 111.24 43.6216C109.621 44.5482 107.811 45.031 105.973 45.0264C102.019 45.0558 98.1912 43.5529 95.2019 40.798L93.1419 41.771Z" fill="#EF2E79"/>
<path opacity="0.4" d="M93.1419 41.771C94.7635 44.9152 97.2857 47.4256 100.341 48.9364C105.602 51.655 114.406 51.5135 114.406 51.5135L115.248 39.7188C114.237 41.3537 112.86 42.695 111.24 43.6216C109.621 44.5482 107.811 45.031 105.973 45.0264C102.019 45.0558 98.1912 43.5529 95.2019 40.798L93.1419 41.771Z" fill="black"/>
<path d="M93.1393 41.7695C98.6492 35.7895 103.805 35.2116 108.506 36.3793C113.712 37.6767 115.251 39.6995 115.251 39.6995L114.409 51.4943C114.409 51.4943 111.64 45.7266 104.12 43.1318C96.6003 40.5369 93.1393 41.7695 93.1393 41.7695Z" fill="#EF2E79"/>
<path opacity="0.1" d="M93.1393 41.7695C98.6492 35.7895 103.805 35.2116 108.506 36.3793C113.712 37.6767 115.251 39.6995 115.251 39.6995L114.409 51.4943C114.409 51.4943 111.64 45.7266 104.12 43.1318C96.6003 40.5369 93.1393 41.7695 93.1393 41.7695Z" fill="white"/>
<path opacity="0.3" d="M112.674 37.878C111.395 39.836 109.352 43.0382 108.073 45.061C106.825 44.2744 105.501 43.6337 104.124 43.1503C102.82 42.7021 101.492 42.3339 100.148 42.0475L104.933 35.8906C106.138 35.9162 107.338 36.0803 108.51 36.3801C109.943 36.7232 111.339 37.2253 112.674 37.878Z" fill="white"/>
<path d="M93.4506 40.4548C93.4506 40.4548 85.6979 39.2754 80.343 33.1539C74.9881 27.0324 73.8252 18.4871 73.8252 18.4871L83.5825 12C82.7716 14.6508 82.5077 17.4569 82.8087 20.2263C83.1098 22.9958 83.9687 25.6634 85.3269 28.0468C88.799 34.357 93.6333 35.6485 93.6333 35.6485L93.4506 40.4548Z" fill="#EF2E79"/>
<path opacity="0.4" d="M93.4506 40.4548C93.4506 40.4548 85.6979 39.2754 80.343 33.1539C74.9881 27.0324 73.8252 18.4871 73.8252 18.4871L83.5825 12C82.7716 14.6508 82.5077 17.4569 82.8087 20.2263C83.1098 22.9958 83.9687 25.6634 85.3269 28.0468C88.799 34.357 93.6333 35.6485 93.6333 35.6485L93.4506 40.4548Z" fill="black"/>
<path d="M93.4521 40.4548L92.0234 40.1423C91.2056 34.1738 88.5116 28.677 84.3815 24.5496C77.2712 17.6143 73.8268 18.4871 73.8268 18.4871C76.6842 15.4323 80.0621 13.5451 83.5841 12C83.5841 12 89.6312 15.7625 92.3058 21.0879C95.5121 27.4629 94.46 36.9105 93.4521 40.4548Z" fill="#EF2E79"/>
<path opacity="0.1" d="M93.4521 40.4548L92.0234 40.1423C91.2056 34.1738 88.5116 28.677 84.3815 24.5496C77.2712 17.6143 73.8268 18.4871 73.8268 18.4871C76.6842 15.4323 80.0621 13.5451 83.5841 12C83.5841 12 89.6312 15.7625 92.3058 21.0879C95.5121 27.4629 94.46 36.9105 93.4521 40.4548Z" fill="white"/>
<g opacity="0.3">
<path d="M79.052 20.2555L87.2865 14.8594C87.6796 15.2073 88.0728 15.573 88.4771 15.974L80.4364 21.1932C79.9491 20.8452 79.484 20.515 79.052 20.2555Z" fill="white"/>
<path d="M81.6638 22.1196L89.6269 17.1953C90.3866 18.0492 91.0741 18.9728 91.6814 19.9553L91.7367 20.0379C91.9416 20.374 92.1355 20.7219 92.2905 21.0699C92.3902 21.2763 92.4566 21.5122 92.5508 21.7245L85.9056 26.1888C85.4349 25.6345 84.931 25.086 84.3828 24.5493C83.4026 23.594 82.5055 22.8037 81.6638 22.1196Z" fill="white"/>
</g>
<path d="M93.2083 41.7597C93.2083 41.7597 90.7053 44.4195 84.8299 45.7759C78.9544 47.1322 71.6116 45.9469 68.5492 42.1136L69.5239 31.1562C69.5239 31.1562 74.2198 38.351 81.3135 39.79C86.7182 40.881 93.2803 38.8111 93.2803 38.8111L93.2083 41.7597Z" fill="#EF2E79"/>
<path opacity="0.4" d="M93.2083 41.7597C93.2083 41.7597 90.7053 44.4195 84.8299 45.7759C78.9544 47.1322 71.6116 45.9469 68.5492 42.1136L69.5239 31.1562C69.5239 31.1562 74.2198 38.351 81.3135 39.79C86.7182 40.881 93.2803 38.8111 93.2803 38.8111L93.2083 41.7597Z" fill="black"/>
<path d="M93.6274 39.246C93.6274 39.246 88.1618 32.7589 82.0981 31.5794C73.8858 29.9694 69.5056 31.1548 69.5056 31.1548C67.9329 35.0648 67.656 38.7094 68.5309 42.1121C68.5309 42.1121 72.2134 38.1491 80.5753 38.1019C87.1872 38.0665 93.19 41.7583 93.19 41.7583L93.6274 39.246Z" fill="#EF2E79"/>
<path opacity="0.1" d="M93.6274 39.246C93.6274 39.246 88.1618 32.7589 82.0981 31.5794C73.8858 29.9694 69.5056 31.1548 69.5056 31.1548C67.9329 35.0648 67.656 38.7094 68.5309 42.1121C68.5309 42.1121 72.2134 38.1491 80.5753 38.1019C87.1872 38.0665 93.19 41.7583 93.19 41.7583L93.6274 39.246Z" fill="white"/>
<path opacity="0.3" d="M70.3119 40.7712C72.1334 39.6925 74.112 38.947 76.1651 38.5655L77.4609 30.899C75.4173 30.6914 73.3604 30.6756 71.3142 30.8518C70.3703 34.0558 70.0297 37.4267 70.3119 40.7712Z" fill="white"/>
<path opacity="0.15" d="M78.7794 56.6094L84.6714 60.2068V89.2867L78.7794 80.4171V56.6094Z" fill="black"/>
</g>
<g filter="url(#filter1_d_5591_82526)">
<path d="M46.1279 108.401L20.5435 92.6522V73.2913L20.0021 72.9603V64.9258L46.1279 80.991V108.401Z" fill="#EF2E79"/>
<g opacity="0.45">
<path d="M46.126 108.401L20.5415 92.6522V73.2913L20.0001 72.9603V64.9258L46.126 80.991V108.401Z" fill="white"/>
</g>
<path opacity="0.15" d="M46.1279 89.0195L36.3307 82.9974L20.5435 73.2891V74.4459L46.1279 90.1726V89.0195Z" fill="black"/>
<path d="M46.129 108.401L71.5738 92.7675V73.3769L72.2549 72.9603V64.9258L46.129 80.991V108.401Z" fill="#EF2E79"/>
<path opacity="0.3" d="M46.129 108.401L71.5738 92.7675V73.3769L72.2549 72.9603V64.9258L46.129 80.991V108.401Z" fill="white"/>
<path opacity="0.1" d="M71.5757 73.375L46.1274 89.0199V90.173L71.5757 74.543V73.375Z" fill="black"/>
<path d="M72.2549 64.9248L46.129 48.8633L20.0032 64.9248L46.129 80.9901L72.2549 64.9248Z" fill="#EF2E79"/>
<g opacity="0.6">
<path d="M72.2549 64.9248L46.129 48.8633L20.0032 64.9248L46.129 80.9901L72.2549 64.9248Z" fill="white"/>
</g>
<path d="M56.7377 101.881V74.4669L60.9814 71.8594V99.2733L56.7377 101.881Z" fill="#EBEBEB"/>
<path d="M56.7377 101.881V74.4669L60.9814 71.8594V99.2733L56.7377 101.881Z" fill="#EF2E79"/>
<path opacity="0.4" d="M56.7377 101.881V74.4669L60.9814 71.8594V99.2733L56.7377 101.881Z" fill="black"/>
<path d="M35.5151 101.881V74.4669L31.2714 71.8594V99.2733L35.5151 101.881Z" fill="#EF2E79"/>
<path opacity="0.15" d="M35.5151 101.881V74.4669L31.2714 71.8594V99.2733L35.5151 101.881Z" fill="black"/>
<path d="M60.9814 71.8582L34.8556 55.793L30.6119 58.4042L56.7377 74.4657L60.9814 71.8582Z" fill="#EF2E79"/>
<path opacity="0.25" d="M46.4726 68.1562L50.7163 65.545L46.4726 62.9375L42.2289 65.545L46.4726 68.1562Z" fill="black"/>
<path d="M35.5182 74.4657L61.644 58.4042L57.4003 55.793L31.2745 71.8582L35.5182 74.4657Z" fill="#EF2E79"/>
<path d="M47.1494 67.4067L41.1419 77.9334V96.275L37.4256 90.6807V75.6644L46.2797 65.4688L47.1494 67.4067Z" fill="#EF2E79"/>
<path d="M46.1193 66.3019L28.8127 66.871L25.8264 62.5859L46.1577 64.535L46.1193 66.3019Z" fill="#EF2E79"/>
<path d="M62.9028 57.9859C62.9028 57.9859 61.855 62.4495 56.9896 64.1717C52.1242 65.8939 46.4869 66.3031 46.4869 66.3031L57.5414 52.2539L62.9028 57.9859Z" fill="#EF2E79"/>
<path opacity="0.4" d="M62.9028 57.9859C62.9028 57.9859 61.855 62.4495 56.9896 64.1717C52.1242 65.8939 46.4869 66.3031 46.4869 66.3031L57.5414 52.2539L62.9028 57.9859Z" fill="black"/>
<path d="M46.4869 66.3031C46.4869 66.3031 46.3681 61.9027 48.5022 58.5773C50.6363 55.252 57.5414 52.2539 57.5414 52.2539C59.5539 53.9095 61.3561 55.8363 62.9028 57.9859C62.9028 57.9859 53.7239 57.9078 47.4159 66.1506L46.4869 66.3031Z" fill="#EF2E79"/>
<path opacity="0.1" d="M46.4869 66.3031C46.4869 66.3031 46.3681 61.9027 48.5022 58.5773C50.6363 55.252 57.5414 52.2539 57.5414 52.2539C59.5539 53.9095 61.3561 55.8363 62.9028 57.9859C62.9028 57.9859 53.7239 57.9078 47.4159 66.1506L46.4869 66.3031Z" fill="white"/>
<path opacity="0.3" d="M57.1421 59.1178C55.4294 59.7104 53.7936 60.5302 52.2732 61.5579L48.9096 58.0204C50.0308 56.6256 51.8855 55.3237 53.5934 54.3008L57.1421 59.1178Z" fill="white"/>
<path d="M46.4841 66.3023C47.507 68.2854 49.0978 69.8688 51.0247 70.8217C54.3429 72.5364 59.8964 72.4471 59.8964 72.4471L60.4272 65.0078C59.7896 66.039 58.9209 66.885 57.8995 67.4695C56.8782 68.0539 55.7363 68.3584 54.5769 68.3555C52.0835 68.374 49.6689 67.4261 47.7835 65.6885L46.4841 66.3023Z" fill="#EF2E79"/>
<path opacity="0.4" d="M46.4841 66.3023C47.507 68.2854 49.0978 69.8688 51.0247 70.8217C54.3429 72.5364 59.8964 72.4471 59.8964 72.4471L60.4272 65.0078C59.7896 66.039 58.9209 66.885 57.8995 67.4695C56.8782 68.0539 55.7363 68.3584 54.5769 68.3555C52.0835 68.374 49.6689 67.4261 47.7835 65.6885L46.4841 66.3023Z" fill="black"/>
<path d="M46.4826 66.3042C49.9579 62.5325 53.2097 62.1679 56.175 62.9044C59.4582 63.7228 60.4292 64.9986 60.4292 64.9986L59.8983 72.4379C59.8983 72.4379 58.1519 68.8001 53.4087 67.1634C48.6656 65.5268 46.4826 66.3042 46.4826 66.3042Z" fill="#EF2E79"/>
<path opacity="0.1" d="M46.4826 66.3042C49.9579 62.5325 53.2097 62.1679 56.175 62.9044C59.4582 63.7228 60.4292 64.9986 60.4292 64.9986L59.8983 72.4379C59.8983 72.4379 58.1519 68.8001 53.4087 67.1634C48.6656 65.5268 46.4826 66.3042 46.4826 66.3042Z" fill="white"/>
<path opacity="0.3" d="M58.8042 63.8512C57.9974 65.0861 56.7085 67.1059 55.9017 68.3817C55.1148 67.8855 54.2799 67.4815 53.4114 67.1766C52.5886 66.8939 51.7513 66.6617 50.9036 66.481L53.9213 62.5977C54.6817 62.6138 55.4382 62.7173 56.1776 62.9064C57.0817 63.1228 57.9621 63.4395 58.8042 63.8512Z" fill="white"/>
<path d="M46.6787 65.4747C46.6787 65.4747 41.7888 64.7308 38.4113 60.8698C35.0338 57.0088 34.3003 51.619 34.3003 51.619L40.4546 47.5273C39.9431 49.1993 39.7766 50.9692 39.9665 52.7159C40.1564 54.4627 40.6982 56.1453 41.5548 57.6486C43.7448 61.6286 46.7939 62.4432 46.7939 62.4432L46.6787 65.4747Z" fill="#EF2E79"/>
<path opacity="0.4" d="M46.6787 65.4747C46.6787 65.4747 41.7888 64.7308 38.4113 60.8698C35.0338 57.0088 34.3003 51.619 34.3003 51.619L40.4546 47.5273C39.9431 49.1993 39.7766 50.9692 39.9665 52.7159C40.1564 54.4627 40.6982 56.1453 41.5548 57.6486C43.7448 61.6286 46.7939 62.4432 46.7939 62.4432L46.6787 65.4747Z" fill="black"/>
<path d="M46.6796 65.4747L45.7784 65.2776C45.2626 61.5131 43.5634 58.0461 40.9584 55.4428C36.4737 51.0685 34.3012 51.619 34.3012 51.619C36.1035 49.6922 38.2341 48.5019 40.4555 47.5273C40.4555 47.5273 44.2696 49.9005 45.9566 53.2594C47.9789 57.2803 47.3153 63.2392 46.6796 65.4747Z" fill="#EF2E79"/>
<path opacity="0.1" d="M46.6796 65.4747L45.7784 65.2776C45.2626 61.5131 43.5634 58.0461 40.9584 55.4428C36.4737 51.0685 34.3012 51.619 34.3012 51.619C36.1035 49.6922 38.2341 48.5019 40.4555 47.5273C40.4555 47.5273 44.2696 49.9005 45.9566 53.2594C47.9789 57.2803 47.3153 63.2392 46.6796 65.4747Z" fill="white"/>
<g opacity="0.3">
<path d="M37.5973 52.7355L42.7911 49.332C43.039 49.5515 43.287 49.7821 43.542 50.035L38.4705 53.327C38.1631 53.1075 37.8698 52.8992 37.5973 52.7355Z" fill="white"/>
<path d="M39.2446 53.9106L44.2672 50.8047C44.7463 51.3433 45.1799 51.9258 45.563 52.5455L45.5979 52.5976C45.7271 52.8096 45.8494 53.0291 45.9472 53.2485C46.01 53.3787 46.052 53.5275 46.1113 53.6614L41.92 56.4772C41.6231 56.1275 41.3053 55.7816 40.9595 55.4431C40.3413 54.8405 39.7755 54.3421 39.2446 53.9106Z" fill="white"/>
</g>
<path d="M46.5259 66.2973C46.5259 66.2973 44.9472 67.9749 41.2413 68.8304C37.5355 69.686 32.9041 68.9383 30.9726 66.5205L31.5873 59.6094C31.5873 59.6094 34.5492 64.1474 39.0234 65.055C42.4324 65.7431 46.5713 64.4375 46.5713 64.4375L46.5259 66.2973Z" fill="#EF2E79"/>
<path opacity="0.4" d="M46.5259 66.2973C46.5259 66.2973 44.9472 67.9749 41.2413 68.8304C37.5355 69.686 32.9041 68.9383 30.9726 66.5205L31.5873 59.6094C31.5873 59.6094 34.5492 64.1474 39.0234 65.055C42.4324 65.7431 46.5713 64.4375 46.5713 64.4375L46.5259 66.2973Z" fill="black"/>
<path d="M46.7905 64.7123C46.7905 64.7123 43.3432 60.6207 39.5186 59.8767C34.3388 58.8613 31.5761 59.6089 31.5761 59.6089C30.5841 62.0751 30.4095 64.3738 30.9613 66.5201C30.9613 66.5201 33.284 64.0205 38.5581 63.9907C42.7284 63.9684 46.5146 66.2969 46.5146 66.2969L46.7905 64.7123Z" fill="#EF2E79"/>
<path opacity="0.1" d="M46.7905 64.7123C46.7905 64.7123 43.3432 60.6207 39.5186 59.8767C34.3388 58.8613 31.5761 59.6089 31.5761 59.6089C30.5841 62.0751 30.4095 64.3738 30.9613 66.5201C30.9613 66.5201 33.284 64.0205 38.5581 63.9907C42.7284 63.9684 46.5146 66.2969 46.5146 66.2969L46.7905 64.7123Z" fill="white"/>
<path opacity="0.3" d="M32.0846 65.6767C33.2335 64.9964 34.4814 64.5262 35.7764 64.2856L36.5938 59.45C35.3047 59.3191 34.0074 59.3091 32.7168 59.4203C32.1215 61.4411 31.9066 63.5673 32.0846 65.6767Z" fill="white"/>
<path opacity="0.15" d="M37.4258 75.6641L41.1421 77.9331V96.2747L37.4258 90.6804V75.6641Z" fill="black"/>
</g>
<defs>
<filter id="filter0_d_5591_82526" x="31.1523" y="0" width="122.848" height="136.516" filterUnits="userSpaceOnUse" color-interpolation-filters="sRGB">
<feFlood flood-opacity="0" result="BackgroundImageFix"/>
<feColorMatrix in="SourceAlpha" type="matrix" values="0 0 0 0 0 0 0 0 0 0 0 0 0 0 0 0 0 0 127 0" result="hardAlpha"/>
<feOffset dy="8"/>
<feGaussianBlur stdDeviation="10"/>
<feColorMatrix type="matrix" values="0 0 0 0 0.020073 0 0 0 0 0.276135 0 0 0 0 0.5125 0 0 0 0.3 0"/>
<feBlend mode="normal" in2="BackgroundImageFix" result="effect1_dropShadow_5591_82526"/>
<feBlend mode="normal" in="SourceGraphic" in2="effect1_dropShadow_5591_82526" result="shape"/>
</filter>
<filter id="filter1_d_5591_82526" x="0" y="35.5273" width="92.2549" height="100.875" filterUnits="userSpaceOnUse" color-interpolation-filters="sRGB">
<feFlood flood-opacity="0" result="BackgroundImageFix"/>
<feColorMatrix in="SourceAlpha" type="matrix" values="0 0 0 0 0 0 0 0 0 0 0 0 0 0 0 0 0 0 127 0" result="hardAlpha"/>
<feOffset dy="8"/>
<feGaussianBlur stdDeviation="10"/>
<feColorMatrix type="matrix" values="0 0 0 0 0.0196078 0 0 0 0 0.27451 0 0 0 0 0.513726 0 0 0 0.3 0"/>
<feBlend mode="normal" in2="BackgroundImageFix" result="effect1_dropShadow_5591_82526"/>
<feBlend mode="normal" in="SourceGraphic" in2="effect1_dropShadow_5591_82526" result="shape"/>
</filter>
</defs>
</svg>
