<svg width="271" height="270" viewBox="0 0 271 270" fill="none" xmlns="http://www.w3.org/2000/svg">
<path d="M254.3 129.547C252.632 131.674 250.164 134.542 247.955 138.154C245.216 142.443 243.53 147.319 243.036 152.383L240.708 151.039L240.195 150.742L239.342 150.25C239.142 147.34 238.851 142.021 239.639 138.068C241.032 131.113 243.867 126.28 248.279 124.136C252.691 121.992 258.048 124.741 254.3 129.547Z" fill="#F0F0F0"/>
<path d="M251.346 125.938C246.443 129.286 242.215 135.307 241.011 146.458C240.854 147.905 240.746 149.433 240.698 151.053L240.185 150.756C240.228 149.428 240.314 148.164 240.433 146.976C241.578 135.291 245.99 128.994 251.044 125.544C251.101 125.515 251.167 125.508 251.229 125.524C251.29 125.54 251.345 125.578 251.381 125.63C251.417 125.683 251.433 125.747 251.426 125.81C251.418 125.874 251.388 125.933 251.341 125.976L251.346 125.938Z" fill="white"/>
<path d="M260.543 138.87C260.467 139.707 259.803 140.361 259.16 140.911C258.518 141.462 257.832 142.056 257.665 142.882C257.335 144.546 259.328 146.052 258.923 147.699C258.815 148.041 258.638 148.357 258.403 148.627C258.168 148.897 257.88 149.116 257.557 149.271C257.03 149.538 256.489 149.778 255.937 149.989C255.669 150.074 255.397 150.144 255.121 150.199C254.289 150.292 253.509 150.654 252.902 151.231C252.011 152.23 252.902 152.959 252.583 155.049C252.475 155.815 251.692 157.63 249.23 158.548L239.332 150.253C239.264 149.148 239.589 148.054 240.25 147.165C240.306 147.089 240.368 147.017 240.433 146.949C240.606 146.763 240.798 146.597 241.006 146.452C242.005 145.734 243.301 145.372 244.024 144.384C244.85 143.212 244.337 141.554 244.84 140.215C245.342 138.876 246.659 138.406 247.939 138.163H248.015C249.354 137.909 250.715 138.433 251.973 137.952C253.231 137.472 254.408 136.699 255.721 136.332C256.359 136.133 257.033 136.082 257.694 136.183C258.355 136.284 258.984 136.535 259.533 136.915C259.849 137.133 260.106 137.426 260.282 137.767C260.458 138.108 260.548 138.487 260.543 138.87Z" fill="#E0E0E0"/>
<path d="M257.702 138.245C255.996 138.65 251.06 140.848 247.777 145.335C249.133 144.857 250.574 144.663 252.008 144.767C253.443 144.87 254.84 145.267 256.115 145.934C256.136 145.948 256.155 145.965 256.169 145.986C256.184 146.006 256.195 146.029 256.2 146.054C256.206 146.079 256.206 146.104 256.202 146.129C256.197 146.154 256.188 146.178 256.174 146.199C256.158 146.225 256.136 146.247 256.11 146.262C256.083 146.277 256.053 146.285 256.023 146.285C255.987 146.296 255.95 146.296 255.915 146.285C254.61 145.603 253.171 145.215 251.7 145.148C250.229 145.081 248.761 145.336 247.399 145.897C246.017 147.949 244.818 151.599 244.564 154.585L244.208 154.38C244.488 151.388 245.709 147.733 247.097 145.675C247.108 145.644 247.127 145.617 247.151 145.594C250.499 140.707 255.791 138.331 257.616 137.905C257.64 137.898 257.665 137.897 257.69 137.9C257.714 137.904 257.738 137.913 257.759 137.926C257.781 137.939 257.799 137.956 257.813 137.977C257.828 137.997 257.837 138.021 257.843 138.045C257.847 138.089 257.835 138.134 257.809 138.171C257.783 138.207 257.745 138.233 257.702 138.245Z" fill="white"/>
<path d="M34.8333 149.813L33.1431 150.785L32.7327 151.023L32.1927 151.347L30.7131 152.2L30.3729 152.395C30.0435 150.731 29.0715 148.615 27.7917 146.455C26.1444 143.694 24.3227 141.04 22.3377 138.511C20.8905 136.643 19.5405 135.044 18.5577 133.991C15.2529 130.39 15.7605 125.805 19.2219 125.692C24.4437 125.519 29.8815 130.854 32.3331 136.713C35.0601 143.182 34.7253 145.483 34.8333 149.813Z" fill="#E0E0E0"/>
<path d="M33.143 150.786L32.7326 151.023C31.2746 139.867 24.4868 130.962 19.0544 128.343C19.0283 128.331 19.0049 128.314 18.9855 128.292C18.9661 128.271 18.9512 128.246 18.9417 128.219C18.9321 128.192 18.9281 128.163 18.9298 128.134C18.9316 128.105 18.939 128.077 18.9518 128.052C18.964 128.025 18.9814 128.001 19.003 127.981C19.0246 127.961 19.05 127.945 19.0776 127.935C19.1053 127.925 19.1347 127.921 19.1641 127.922C19.1935 127.924 19.2223 127.931 19.2488 127.944C24.7352 130.59 31.6148 139.554 33.143 150.786Z" fill="white"/>
<path d="M32.1711 151.349L30.6915 152.203L30.3513 152.397L30.2973 152.429L28.8177 153.283C28.2291 152.084 27.1977 150.75 24.9081 148.779C21.4683 145.831 16.9053 144.162 16.0305 142.056C14.9829 139.529 16.6731 137.434 20.4801 138.033C21.0978 138.131 21.7064 138.279 22.2999 138.476C26.2257 139.777 30.5835 143.476 32.1711 151.349Z" fill="#F0F0F0"/>
<path d="M30.6915 152.198L30.3513 152.392L30.2973 152.425C27.7053 144.643 21.9867 141.322 19.1355 140.642C19.107 140.635 19.0802 140.622 19.0567 140.605C19.0331 140.588 19.0132 140.566 18.9981 140.541C18.983 140.516 18.9731 140.488 18.9689 140.459C18.9646 140.43 18.9662 140.4 18.9735 140.372C18.9798 140.344 18.9917 140.317 19.0086 140.293C19.0254 140.27 19.0468 140.25 19.0715 140.235C19.0961 140.22 19.1236 140.21 19.1522 140.206C19.1809 140.201 19.21 140.203 19.2381 140.21C21.4683 140.75 24.9621 142.581 27.7539 146.415C29.0245 148.18 30.0154 150.131 30.6915 152.198Z" fill="white"/>
<path d="M30.6105 81.0002C31.4123 80.9177 32.221 81.0637 32.9433 81.4214C34.3473 82.1018 35.5083 83.1764 36.7557 84.1214C38.0031 85.0664 39.4179 85.898 40.9785 85.9466C42.5391 85.9952 44.2185 85.0286 44.4993 83.495C44.5184 83.2258 44.5861 82.9624 44.6991 82.7174C44.8529 82.5232 45.0657 82.3844 45.3054 82.3221C45.5451 82.2597 45.7986 82.2772 46.0275 82.3718C46.4772 82.576 46.9059 82.8238 47.3073 83.1116C48.8841 84.0458 50.8605 83.8352 52.6695 83.5706C54.1761 83.3492 56.0769 82.685 56.0715 81.1622C56.0715 80.1686 55.2021 79.4396 54.5163 78.716C53.8305 77.9924 53.2797 76.8368 53.9061 76.07C54.1358 75.8076 54.4385 75.6196 54.7755 75.53C56.6601 74.9144 58.9659 75.7298 60.5535 74.5526C61.1156 74.0754 61.5029 73.4248 61.6545 72.7033C61.806 71.9818 61.7131 71.2303 61.3905 70.5674C61.0476 69.9153 60.5665 69.3461 59.9808 68.8993C59.395 68.4525 58.7188 68.139 57.9993 67.9808C56.7357 67.6622 55.1265 67.511 54.6567 66.296C54.2409 65.216 55.0725 64.0766 56.0067 63.4178C56.9409 62.759 58.0749 62.3054 58.7067 61.3658C59.0307 60.866 59.2108 60.2866 59.227 59.6912C59.2431 59.0958 59.0949 58.5074 58.7985 57.9908C58.4938 57.4817 58.0827 57.0445 57.5934 56.709C57.1041 56.3735 56.5481 56.1476 55.9635 56.0468C55.3744 56.0023 54.7945 55.8751 54.2409 55.6688C53.7009 55.3988 53.3175 54.7346 53.6037 54.2162C53.7711 53.9084 54.1437 53.7464 54.3381 53.4548C54.7377 52.9148 54.3921 52.067 53.8305 51.6674C53.2299 51.3268 52.582 51.0775 51.9081 50.9276C50.5419 50.474 49.2081 49.151 49.6185 47.7686C50.0289 46.3862 52.0053 45.8624 52.5831 44.48C53.1231 43.2596 52.2807 41.834 51.1899 41.0888C50.0991 40.3436 48.7599 40.0088 47.5611 39.4688C46.3623 38.9288 45.2013 37.9028 45.1041 36.5798C45.0069 35.2568 46.0221 34.085 46.8483 33.005C47.6745 31.925 48.3819 30.4238 47.6583 29.2736C46.9347 28.1234 45.4335 28.0802 44.1861 27.7022C43.4294 27.4559 42.733 27.0531 42.1423 26.52C41.5515 25.9869 41.0795 25.3355 40.7571 24.608C40.4223 23.8412 40.2657 22.988 39.8661 22.2698C38.6349 19.991 35.5461 18.992 33.1269 19.2728C31.8687 19.4186 31.4475 19.9046 30.8373 20.828C30.4863 21.368 30.1191 21.6542 29.9949 22.4048C29.8167 23.4848 30.3945 24.9104 29.3577 25.7528C27.7809 27.0272 25.3617 25.31 25.4481 28.1666C25.4514 29.3729 25.6334 30.5721 25.9881 31.7252C26.4201 32.924 27.2787 33.4478 26.5659 34.7924C25.6371 36.5312 25.0323 36.5204 23.1693 36.5204C21.8247 36.5204 20.7015 36.4448 19.7133 37.4654C17.9799 39.2582 19.0113 40.8836 20.5503 42.266C22.3053 43.8374 21.3765 44.5286 21.1443 46.586C21.0363 47.5688 21.2577 47.8712 20.3829 48.5192C18.7251 49.7504 17.7963 49.3346 18.2661 51.7592C18.6927 53.957 18.0339 53.2064 16.1061 54.0272C14.4159 54.7508 13.2981 56.576 11.9265 57.71C11.0463 58.439 9.7017 59.006 9.6207 60.2858C9.4641 62.7428 12.5151 62.2028 13.9407 62.7914C16.3167 63.7472 15.6093 66.8576 13.7571 68.0186C11.7969 69.2552 8.9403 69.7088 8.7837 72.5168C8.6595 74.6768 9.8637 75.152 11.5593 75.8756C12.8931 76.448 12.7257 76.6154 12.7203 78.2084C12.7203 81.4484 13.8003 82.334 16.9701 81.8102C17.8395 81.6698 19.1625 81.3026 20.0265 81.5618C21.2415 81.9236 20.8311 82.226 20.8635 83.2358C20.9499 85.8332 23.9739 85.0988 25.2537 83.9918C26.7603 82.6742 28.6125 81.1892 30.6105 81.0002Z" fill="#0071CE"/>
<path opacity="0.1" d="M30.6105 81.0002C31.4123 80.9177 32.221 81.0637 32.9433 81.4214C34.3473 82.1018 35.5083 83.1764 36.7557 84.1214C38.0031 85.0664 39.4179 85.898 40.9785 85.9466C42.5391 85.9952 44.2185 85.0286 44.4993 83.495C44.5184 83.2258 44.5861 82.9624 44.6991 82.7174C44.8529 82.5232 45.0657 82.3844 45.3054 82.3221C45.5451 82.2597 45.7986 82.2772 46.0275 82.3718C46.4772 82.576 46.9059 82.8238 47.3073 83.1116C48.8841 84.0458 50.8605 83.8352 52.6695 83.5706C54.1761 83.3492 56.0769 82.685 56.0715 81.1622C56.0715 80.1686 55.2021 79.4396 54.5163 78.716C53.8305 77.9924 53.2797 76.8368 53.9061 76.07C54.1358 75.8076 54.4385 75.6196 54.7755 75.53C56.6601 74.9144 58.9659 75.7298 60.5535 74.5526C61.1156 74.0754 61.5029 73.4248 61.6545 72.7033C61.806 71.9818 61.7131 71.2303 61.3905 70.5674C61.0476 69.9153 60.5665 69.3461 59.9808 68.8993C59.395 68.4525 58.7188 68.139 57.9993 67.9808C56.7357 67.6622 55.1265 67.511 54.6567 66.296C54.2409 65.216 55.0725 64.0766 56.0067 63.4178C56.9409 62.759 58.0749 62.3054 58.7067 61.3658C59.0307 60.866 59.2108 60.2866 59.227 59.6912C59.2431 59.0958 59.0949 58.5074 58.7985 57.9908C58.4938 57.4817 58.0827 57.0445 57.5934 56.709C57.1041 56.3735 56.5481 56.1476 55.9635 56.0468C55.3744 56.0023 54.7945 55.8751 54.2409 55.6688C53.7009 55.3988 53.3175 54.7346 53.6037 54.2162C53.7711 53.9084 54.1437 53.7464 54.3381 53.4548C54.7377 52.9148 54.3921 52.067 53.8305 51.6674C53.2299 51.3268 52.582 51.0775 51.9081 50.9276C50.5419 50.474 49.2081 49.151 49.6185 47.7686C50.0289 46.3862 52.0053 45.8624 52.5831 44.48C53.1231 43.2596 52.2807 41.834 51.1899 41.0888C50.0991 40.3436 48.7599 40.0088 47.5611 39.4688C46.3623 38.9288 45.2013 37.9028 45.1041 36.5798C45.0069 35.2568 46.0221 34.085 46.8483 33.005C47.6745 31.925 48.3819 30.4238 47.6583 29.2736C46.9347 28.1234 45.4335 28.0802 44.1861 27.7022C43.4294 27.4559 42.733 27.0531 42.1423 26.52C41.5515 25.9869 41.0795 25.3355 40.7571 24.608C40.4223 23.8412 40.2657 22.988 39.8661 22.2698C38.6349 19.991 35.5461 18.992 33.1269 19.2728C31.8687 19.4186 31.4475 19.9046 30.8373 20.828C30.4863 21.368 30.1191 21.6542 29.9949 22.4048C29.8167 23.4848 30.3945 24.9104 29.3577 25.7528C27.7809 27.0272 25.3617 25.31 25.4481 28.1666C25.4514 29.3729 25.6334 30.5721 25.9881 31.7252C26.4201 32.924 27.2787 33.4478 26.5659 34.7924C25.6371 36.5312 25.0323 36.5204 23.1693 36.5204C21.8247 36.5204 20.7015 36.4448 19.7133 37.4654C17.9799 39.2582 19.0113 40.8836 20.5503 42.266C22.3053 43.8374 21.3765 44.5286 21.1443 46.586C21.0363 47.5688 21.2577 47.8712 20.3829 48.5192C18.7251 49.7504 17.7963 49.3346 18.2661 51.7592C18.6927 53.957 18.0339 53.2064 16.1061 54.0272C14.4159 54.7508 13.2981 56.576 11.9265 57.71C11.0463 58.439 9.7017 59.006 9.6207 60.2858C9.4641 62.7428 12.5151 62.2028 13.9407 62.7914C16.3167 63.7472 15.6093 66.8576 13.7571 68.0186C11.7969 69.2552 8.9403 69.7088 8.7837 72.5168C8.6595 74.6768 9.8637 75.152 11.5593 75.8756C12.8931 76.448 12.7257 76.6154 12.7203 78.2084C12.7203 81.4484 13.8003 82.334 16.9701 81.8102C17.8395 81.6698 19.1625 81.3026 20.0265 81.5618C21.2415 81.9236 20.8311 82.226 20.8635 83.2358C20.9499 85.8332 23.9739 85.0988 25.2537 83.9918C26.7603 82.6742 28.6125 81.1892 30.6105 81.0002Z" fill="white"/>
<path opacity="0.15" d="M54.7754 75.5264C56.2226 75.0512 57.9128 75.4238 59.3438 75.089C58.502 74.89 57.6464 74.7546 56.7842 74.684C55.5266 74.6267 54.2759 74.8984 53.1554 75.4724C52.6681 75.6557 52.23 75.9496 51.8756 76.331C51.7408 76.5815 51.6742 76.8631 51.6828 77.1475C51.6913 77.4319 51.7746 77.709 51.9242 77.951C52.1672 78.491 52.5398 79.3928 51.9566 79.868C51.3734 80.3432 50.1908 80.2136 49.4726 79.9598C48.5816 79.6111 47.714 79.2052 46.8752 78.7448C46.0618 78.2892 45.1995 77.9269 44.3048 77.6648C43.6622 77.5082 42.5336 77.4272 42.1448 78.1238C41.8785 78.5414 41.7276 79.0221 41.7074 79.517C41.7802 79.8842 41.7802 80.2622 41.7074 80.6294C41.6234 81.0134 41.4362 81.3672 41.1659 81.6527C40.8957 81.9382 40.5527 82.1445 40.1738 82.2494C39.1802 82.4708 38.1812 81.8066 37.5656 80.9912C36.95 80.1758 36.572 79.2038 35.9456 78.3992C35.081 77.3434 33.8539 76.6478 32.504 76.4481C31.154 76.2484 29.7781 76.559 28.6448 77.3192C27.7214 77.9888 26.5604 79.004 25.6316 78.3344C24.7028 77.6648 25.2428 75.6614 24.1466 75.0944C23.4176 74.7272 22.3916 75.305 21.7814 74.765C21.5529 74.5168 21.4075 74.2034 21.3656 73.8686C20.9282 72.038 20.5502 69.9158 21.7058 68.4254C22.7318 67.097 24.908 66.2654 24.6758 64.6454C24.476 63.2252 22.667 62.7986 21.2414 62.6312C19.8158 62.4638 18.0014 61.7942 18.0878 60.3578C18.1742 58.9214 20.0642 58.2734 20.345 56.8964C20.4638 56.3078 20.264 55.649 20.534 55.1144C20.939 54.3044 22.1 54.272 22.775 53.6726C23.9954 52.5926 23.0504 50.573 23.396 48.9854C23.639 47.8622 24.5462 46.9766 24.8486 45.8642C25.4534 43.6448 23.4338 41.5442 21.3224 40.6316C20.4668 40.3546 19.6417 39.9909 18.86 39.5462L18.7844 39.4922C18.8384 40.4966 19.5836 41.4254 20.5178 42.2678C22.2728 43.8392 21.344 44.5304 21.1118 46.5878C21.0038 47.5706 21.2252 47.873 20.3504 48.521C18.6926 49.7522 17.7638 49.3364 18.2336 51.761C18.6602 53.9588 18.0014 53.2082 16.0736 54.029C14.3834 54.7526 13.2656 56.5778 11.894 57.7118C11.0138 58.4408 9.66923 59.0078 9.58823 60.2876C9.43163 62.7446 12.4826 62.2046 13.9082 62.7932C16.2842 63.749 15.5768 66.8594 13.7246 68.0204C11.7644 69.257 8.90783 69.7106 8.75123 72.5186C8.62703 74.6786 9.83123 75.1538 11.5268 75.8774C12.8606 76.4498 12.6932 76.6172 12.6878 78.2102C12.6878 81.4502 13.7678 82.3358 16.9376 81.812C17.807 81.6716 19.13 81.3044 19.994 81.5636C21.209 81.9254 20.7986 82.2278 20.831 83.2376C20.9174 85.835 23.9414 85.1006 25.2212 83.9936C26.6954 82.7084 28.5476 81.2234 30.5456 81.029C31.3474 80.9465 32.1561 81.0925 32.8784 81.4502C34.2824 82.1306 35.4434 83.2052 36.6908 84.1502C37.9382 85.0952 39.353 85.9268 40.9136 85.9754C42.4742 86.024 44.1536 85.0574 44.4344 83.5238C44.4536 83.2547 44.5212 82.9912 44.6342 82.7462C44.788 82.552 45.0008 82.4133 45.2405 82.3509C45.4802 82.2885 45.7337 82.306 45.9626 82.4006C46.4124 82.6048 46.841 82.8526 47.2424 83.1404C48.8192 84.0746 50.7956 83.864 52.6046 83.5994C54.1112 83.378 56.012 82.7138 56.0066 81.191C56.0066 80.1974 55.1372 79.4684 54.4514 78.7448C53.7656 78.0212 53.2148 76.8656 53.8412 76.0988C54.0836 75.8132 54.4109 75.6126 54.7754 75.5264Z" fill="black"/>
<path d="M24.3625 51.0553L34.1203 70.409V61.4989L35.1139 38.3438L36.5557 61.4827V67.5037L47.2856 48.7387L36.5557 71.7589V157.209C36.5458 157.316 36.5076 157.418 36.445 157.505C36.3823 157.593 36.2975 157.662 36.1994 157.705C35.9325 157.841 35.6374 157.912 35.338 157.912C35.0387 157.912 34.7436 157.841 34.4767 157.705C34.3786 157.662 34.2938 157.593 34.2311 157.505C34.1685 157.418 34.1303 157.316 34.1203 157.209V75.3446L24.3625 51.0553Z" fill="#37474F"/>
<path d="M243.581 81.0002C242.778 80.9193 241.968 81.0652 241.243 81.4214C239.844 82.1018 238.678 83.1764 237.436 84.1214C236.194 85.0664 234.768 85.898 233.213 85.9466C231.658 85.9952 229.973 85.0286 229.692 83.495C229.673 83.2258 229.605 82.9624 229.492 82.7174C229.339 82.5232 229.126 82.3844 228.886 82.3221C228.646 82.2597 228.393 82.2772 228.164 82.3718C227.713 82.576 227.282 82.8238 226.879 83.1116C225.302 84.0458 223.331 83.8352 221.522 83.5706C220.01 83.3492 218.115 82.685 218.12 81.1622C218.12 80.1686 218.989 79.4396 219.67 78.716C220.35 77.9924 220.912 76.8368 220.285 76.07C220.055 75.8088 219.752 75.6211 219.416 75.53C217.531 74.9144 215.226 75.7298 213.633 74.5526C213.072 74.0742 212.686 73.4233 212.536 72.702C212.385 71.9808 212.479 71.2299 212.801 70.5674C213.143 69.9147 213.624 69.3448 214.21 68.898C214.796 68.4511 215.472 68.138 216.192 67.9808C217.456 67.6622 219.065 67.511 219.535 66.296C219.945 65.216 218.827 64.9514 217.888 64.298C216.948 63.6446 216.117 62.3054 215.463 61.3658C215.14 60.8655 214.961 60.2858 214.946 59.6904C214.93 59.095 215.08 58.5069 215.377 57.9908C215.681 57.481 216.092 57.0433 216.581 56.7076C217.07 56.372 217.627 56.1466 218.212 56.0468C218.801 56.0017 219.381 55.8745 219.934 55.6688C220.474 55.3988 220.858 54.7346 220.572 54.2162C220.399 53.9084 220.032 53.7464 219.837 53.4548C219.438 52.9148 219.783 52.067 220.345 51.6674C220.945 51.3268 221.593 51.0775 222.267 50.9276C223.633 50.474 224.967 49.151 224.551 47.7686C224.136 46.3862 222.17 45.8624 221.587 44.48C221.074 43.2596 221.889 41.834 222.985 41.0888C224.082 40.3436 225.415 40.0088 226.614 39.4688C227.813 38.9288 228.974 37.9028 229.071 36.5798C229.168 35.2568 228.153 34.085 227.322 33.005C226.49 31.925 225.793 30.4238 226.517 29.2736C227.241 28.1234 228.753 28.0802 230 27.7022C230.758 27.4569 231.455 27.0545 232.047 26.5213C232.639 25.9882 233.112 25.3362 233.434 24.608C233.764 23.8412 233.926 22.988 234.32 22.2698C235.557 19.991 238.64 18.992 241.065 19.2728C242.323 19.4186 242.744 19.9046 243.354 20.828C243.705 21.368 244.072 21.6542 244.191 22.4048C244.375 23.4848 243.792 24.9104 244.834 25.7528C246.411 27.0272 248.83 25.31 248.743 28.1666C248.74 29.3729 248.558 30.5721 248.203 31.7252C247.771 32.924 246.907 33.4478 247.626 34.7924C248.554 36.5312 249.159 36.5204 251.017 36.5204C252.367 36.5204 253.49 36.4448 254.473 37.4654C256.212 39.2582 255.18 40.8836 253.636 42.266C251.886 43.8374 252.815 44.5286 253.042 46.586C253.15 47.5688 252.928 47.8712 253.809 48.5192C255.466 49.7504 256.39 49.3346 255.925 51.7592C255.499 53.957 256.158 53.2064 258.085 54.0272C259.776 54.7508 260.893 56.576 262.265 57.71C263.14 58.439 264.484 59.006 264.571 60.2858C264.727 62.7428 261.676 62.2028 260.224 62.7914C257.853 63.7472 258.561 66.8576 260.413 68.0186C262.373 69.2552 265.23 69.7088 265.386 72.5168C265.505 74.6768 264.279 75.152 262.611 75.8756C261.277 76.448 261.444 76.6154 261.444 78.2084C261.444 81.4484 260.364 82.334 257.194 81.8102C256.33 81.6698 255.034 81.3026 254.138 81.5618C252.928 81.9236 253.339 82.226 253.301 83.2358C253.215 85.8332 250.196 85.0988 248.916 83.9918C247.431 82.6742 245.579 81.1892 243.581 81.0002Z" fill="#0071CE"/>
<path opacity="0.1" d="M243.581 81.0002C242.778 80.9193 241.968 81.0652 241.243 81.4214C239.844 82.1018 238.678 83.1764 237.436 84.1214C236.194 85.0664 234.768 85.898 233.213 85.9466C231.658 85.9952 229.973 85.0286 229.692 83.495C229.673 83.2258 229.605 82.9624 229.492 82.7174C229.339 82.5232 229.126 82.3844 228.886 82.3221C228.646 82.2597 228.393 82.2772 228.164 82.3718C227.713 82.576 227.282 82.8238 226.879 83.1116C225.302 84.0458 223.331 83.8352 221.522 83.5706C220.01 83.3492 218.115 82.685 218.12 81.1622C218.12 80.1686 218.989 79.4396 219.67 78.716C220.35 77.9924 220.912 76.8368 220.285 76.07C220.055 75.8088 219.752 75.6211 219.416 75.53C217.531 74.9144 215.226 75.7298 213.633 74.5526C213.072 74.0742 212.686 73.4233 212.536 72.702C212.385 71.9808 212.479 71.2299 212.801 70.5674C213.143 69.9147 213.624 69.3448 214.21 68.898C214.796 68.4511 215.472 68.138 216.192 67.9808C217.456 67.6622 219.065 67.511 219.535 66.296C219.945 65.216 218.827 64.9514 217.888 64.298C216.948 63.6446 216.117 62.3054 215.463 61.3658C215.14 60.8655 214.961 60.2858 214.946 59.6904C214.93 59.095 215.08 58.5069 215.377 57.9908C215.681 57.481 216.092 57.0433 216.581 56.7076C217.07 56.372 217.627 56.1466 218.212 56.0468C218.801 56.0017 219.381 55.8745 219.934 55.6688C220.474 55.3988 220.858 54.7346 220.572 54.2162C220.399 53.9084 220.032 53.7464 219.837 53.4548C219.438 52.9148 219.783 52.067 220.345 51.6674C220.945 51.3268 221.593 51.0775 222.267 50.9276C223.633 50.474 224.967 49.151 224.551 47.7686C224.136 46.3862 222.17 45.8624 221.587 44.48C221.074 43.2596 221.889 41.834 222.985 41.0888C224.082 40.3436 225.415 40.0088 226.614 39.4688C227.813 38.9288 228.974 37.9028 229.071 36.5798C229.168 35.2568 228.153 34.085 227.322 33.005C226.49 31.925 225.793 30.4238 226.517 29.2736C227.241 28.1234 228.753 28.0802 230 27.7022C230.758 27.4569 231.455 27.0545 232.047 26.5213C232.639 25.9882 233.112 25.3362 233.434 24.608C233.764 23.8412 233.926 22.988 234.32 22.2698C235.557 19.991 238.64 18.992 241.065 19.2728C242.323 19.4186 242.744 19.9046 243.354 20.828C243.705 21.368 244.072 21.6542 244.191 22.4048C244.375 23.4848 243.792 24.9104 244.834 25.7528C246.411 27.0272 248.83 25.31 248.743 28.1666C248.74 29.3729 248.558 30.5721 248.203 31.7252C247.771 32.924 246.907 33.4478 247.626 34.7924C248.554 36.5312 249.159 36.5204 251.017 36.5204C252.367 36.5204 253.49 36.4448 254.473 37.4654C256.212 39.2582 255.18 40.8836 253.636 42.266C251.886 43.8374 252.815 44.5286 253.042 46.586C253.15 47.5688 252.928 47.8712 253.809 48.5192C255.466 49.7504 256.39 49.3346 255.925 51.7592C255.499 53.957 256.158 53.2064 258.085 54.0272C259.776 54.7508 260.893 56.576 262.265 57.71C263.14 58.439 264.484 59.006 264.571 60.2858C264.727 62.7428 261.676 62.2028 260.224 62.7914C257.853 63.7472 258.561 66.8576 260.413 68.0186C262.373 69.2552 265.23 69.7088 265.386 72.5168C265.505 74.6768 264.279 75.152 262.611 75.8756C261.277 76.448 261.444 76.6154 261.444 78.2084C261.444 81.4484 260.364 82.334 257.194 81.8102C256.33 81.6698 255.034 81.3026 254.138 81.5618C252.928 81.9236 253.339 82.226 253.301 83.2358C253.215 85.8332 250.196 85.0988 248.916 83.9918C247.431 82.6742 245.579 81.1892 243.581 81.0002Z" fill="white"/>
<path opacity="0.15" d="M219.416 75.5227C217.969 75.0475 216.273 75.4201 214.848 75.0853C215.689 74.8855 216.545 74.7501 217.407 74.6803C218.663 74.6229 219.912 74.8947 221.031 75.4687C221.52 75.652 221.959 75.9459 222.316 76.3273C222.451 76.5778 222.517 76.8594 222.509 77.1438C222.5 77.4282 222.417 77.7053 222.267 77.9473C222.024 78.4873 221.652 79.3891 222.229 79.8643C222.807 80.3395 224.001 80.2099 224.713 79.9561C225.601 79.6043 226.465 79.1948 227.3 78.7303C228.113 78.2747 228.976 77.9124 229.87 77.6503C230.513 77.4937 231.642 77.4127 232.03 78.1093C232.292 78.5291 232.443 79.0085 232.468 79.5025C232.398 79.87 232.398 80.2474 232.468 80.6149C232.552 80.9989 232.739 81.3527 233.009 81.6382C233.28 81.9237 233.623 82.13 234.001 82.2349C235 82.4563 235.994 81.7921 236.615 80.9767C237.236 80.1613 237.609 79.1893 238.235 78.3847C239.1 77.33 240.327 76.6352 241.677 76.4355C243.027 76.2359 244.402 76.5457 245.536 77.3047C246.465 77.9743 247.626 78.9895 248.549 78.3199C249.472 77.6503 248.938 75.6469 250.039 75.0799C250.768 74.7127 251.794 75.2905 252.405 74.7505C252.633 74.5023 252.779 74.1889 252.82 73.8541C253.258 72.0235 253.636 69.9013 252.48 68.4109C251.449 67.0825 249.273 66.2509 249.51 64.6309C249.71 63.2107 251.514 62.7841 252.939 62.6167C254.365 62.4493 256.179 61.7797 256.098 60.3433C256.017 58.9069 254.122 58.2589 253.841 56.8819C253.722 56.2933 253.922 55.6345 253.652 55.0999C253.247 54.2899 252.086 54.2575 251.411 53.6581C250.191 52.5781 251.136 50.5585 250.79 48.9709C250.547 47.8477 249.634 46.9621 249.332 45.8497C248.727 43.6303 250.747 41.5297 252.864 40.6171C253.702 40.3264 254.509 39.9519 255.272 39.4993L255.348 39.4453C255.294 40.4497 254.548 41.3785 253.609 42.2209C251.859 43.7923 252.788 44.4835 253.015 46.5409C253.123 47.5237 252.901 47.8261 253.782 48.4741C255.439 49.7053 256.363 49.2895 255.898 51.7141C255.472 53.9119 256.131 53.1613 258.058 53.9821C259.749 54.7057 260.866 56.5309 262.238 57.6649C263.113 58.3939 264.457 58.9609 264.544 60.2407C264.7 62.6977 261.649 62.1577 260.197 62.7463C257.826 63.7021 258.534 66.8125 260.386 67.9735C262.341 69.2101 265.203 69.6637 265.359 72.4717C265.478 74.6317 264.252 75.1069 262.584 75.8305C261.25 76.4029 261.417 76.5703 261.417 78.1633C261.417 81.4033 260.337 82.2889 257.167 81.7651C256.303 81.6247 255.007 81.2575 254.111 81.5167C252.901 81.8785 253.312 82.1809 253.274 83.1907C253.188 85.7881 250.169 85.0537 248.889 83.9467C247.415 82.6615 245.563 81.1765 243.565 80.9821C242.761 80.9012 241.951 81.0471 241.227 81.4033C239.828 82.0837 238.662 83.1583 237.42 84.1033C236.178 85.0483 234.752 85.8799 233.197 85.9285C231.642 85.9771 229.957 85.0105 229.676 83.4769C229.657 83.2078 229.589 82.9443 229.476 82.6993C229.322 82.5051 229.11 82.3664 228.87 82.304C228.63 82.2417 228.377 82.2591 228.148 82.3537C227.696 82.5579 227.266 82.8057 226.863 83.0935C225.286 84.0277 223.315 83.8171 221.506 83.5525C219.994 83.3311 218.098 82.6669 218.104 81.1441C218.104 80.1505 218.973 79.4215 219.654 78.6979C220.334 77.9743 220.896 76.8187 220.269 76.0519C220.041 75.7974 219.745 75.6137 219.416 75.5227Z" fill="black"/>
<path d="M249.829 51.0512L240.066 70.4048V61.4947L239.077 30.0938L237.63 61.4947V67.4996L228.99 53.2328L237.63 71.7656V157.204C237.64 157.311 237.678 157.414 237.741 157.501C237.804 157.588 237.888 157.657 237.987 157.701C238.253 157.837 238.549 157.908 238.848 157.908C239.147 157.908 239.442 157.837 239.709 157.701C239.807 157.657 239.892 157.588 239.955 157.501C240.017 157.414 240.056 157.311 240.066 157.204V75.3404L249.829 51.0512Z" fill="#37474F"/>
<path d="M135.5 260.901C206.721 260.901 264.457 229.483 264.457 190.728C264.457 151.972 206.721 120.555 135.5 120.555C64.2787 120.555 6.54248 151.972 6.54248 190.728C6.54248 229.483 64.2787 260.901 135.5 260.901Z" fill="#0071CE"/>
<path opacity="0.9" d="M135.5 260.901C206.721 260.901 264.457 229.483 264.457 190.728C264.457 151.972 206.721 120.555 135.5 120.555C64.2787 120.555 6.54248 151.972 6.54248 190.728C6.54248 229.483 64.2787 260.901 135.5 260.901Z" fill="white"/>
<path d="M38.5537 144.459L209.626 248.139C215.478 245.913 221.177 243.303 226.684 240.325C277.045 212.925 277.045 168.505 226.684 141.089C176.324 113.673 94.6759 113.684 44.3155 141.089C42.3121 142.201 40.4005 143.319 38.5537 144.459Z" fill="#0071CE"/>
<path opacity="0.4" d="M38.5537 144.459L209.626 248.139C215.478 245.913 221.177 243.303 226.684 240.325C277.045 212.925 277.045 168.505 226.684 141.089C176.324 113.673 94.6759 113.684 44.3155 141.089C42.3121 142.201 40.4005 143.319 38.5537 144.459Z" fill="white"/>
<path d="M15.1339 192.797L30.1782 201.917L25.8799 204.526L10.8354 195.405L15.1339 192.797Z" fill="white"/>
<path d="M43.0735 209.742L58.1179 218.863L53.8195 221.466L38.7751 212.345L43.0735 209.742Z" fill="white"/>
<path d="M71.013 226.672L86.0574 235.792L81.759 238.401L66.7146 229.28L71.013 226.672Z" fill="white"/>
<path d="M98.9527 243.617L114.002 252.732L109.699 255.341L94.6543 246.22L98.9527 243.617Z" fill="white"/>
<path d="M208.043 247.199L207.147 246.659L206.126 246.038C206.126 245.898 206.126 245.758 206.126 245.612C206.163 244.098 206.003 242.586 205.651 241.114C205.516 240.509 205.343 239.899 205.149 239.299C205.1 239.143 205.052 238.991 204.998 238.846C204.895 238.549 204.787 238.252 204.668 237.965C204.377 237.246 204.045 236.543 203.675 235.859C203.556 235.643 203.432 235.433 203.308 235.228C203.051 234.801 202.771 234.388 202.471 233.991C202.303 233.759 202.125 233.543 201.931 233.327C201.578 232.919 201.195 232.538 200.786 232.188C203.767 233.564 206.045 237.085 207.201 240.525C207.539 241.519 207.787 242.542 207.941 243.581C208.13 244.778 208.165 245.994 208.043 247.199Z" fill="#0071CE"/>
<path opacity="0.15" d="M206.116 246.029L207.136 246.65C207.908 240.499 203.032 233.447 201.11 232.318C201.002 232.264 200.905 232.205 200.797 232.156C201.198 232.503 201.573 232.878 201.92 233.279C202.103 233.495 202.282 233.711 202.46 233.944C202.76 234.341 203.04 234.754 203.297 235.18C203.421 235.385 203.545 235.596 203.664 235.812C204.034 236.495 204.366 237.198 204.658 237.918C204.776 238.204 204.884 238.501 204.987 238.798C205.041 238.944 205.09 239.095 205.138 239.252C205.333 239.851 205.505 240.461 205.64 241.066C205.992 242.539 206.152 244.051 206.116 245.564C206.116 245.705 206.116 245.845 206.116 245.986V246.029Z" fill="black"/>
<path d="M214.567 235.977C209.831 240.523 209.588 247.095 209.577 248.116L208.222 247.317L208.043 247.209L207.147 246.669C207.316 245.612 207.585 244.574 207.952 243.569C209.339 239.67 211.98 236.619 214.567 235.977Z" fill="#0071CE"/>
<path opacity="0.15" d="M214.567 235.977C211.91 236.927 208.583 242.057 208.222 247.317L208.043 247.209L207.147 246.669C207.316 245.612 207.585 244.574 207.952 243.569C209.339 239.67 211.98 236.619 214.567 235.977Z" fill="black"/>
<g opacity="0.1">
<path d="M181.648 212.683C201.201 212.683 217.051 203.532 217.051 192.244C217.051 180.956 201.201 171.805 181.648 171.805C162.096 171.805 146.246 180.956 146.246 192.244C146.246 203.532 162.096 212.683 181.648 212.683Z" fill="black"/>
<path d="M88.9251 226.185C107.848 226.185 123.188 217.33 123.188 206.405C123.188 195.481 107.848 186.625 88.9251 186.625C70.0022 186.625 54.6621 195.481 54.6621 206.405C54.6621 217.33 70.0022 226.185 88.9251 226.185Z" fill="black"/>
<path d="M137.439 223.987C152.842 223.987 165.33 216.777 165.33 207.884C165.33 198.991 152.842 191.781 137.439 191.781C122.035 191.781 109.548 198.991 109.548 207.884C109.548 216.777 122.035 223.987 137.439 223.987Z" fill="black"/>
</g>
<path d="M162.97 179.748C164.406 173.57 164.217 162.382 164.952 156.793C165.81 150.248 170.74 143.789 170.74 143.789C170.74 143.789 169.25 127.049 168.872 119.565C168.084 103.932 170.913 96.1074 172.771 93.4884C173.646 92.2518 173.673 91.917 174.132 90.2106C174.731 87.9804 175.212 85.8906 175.212 85.8906L199.485 86.2632C201.486 90.4816 202.519 95.0941 202.509 99.7632C204.993 108.889 204.42 137.817 203.967 148.282C203.697 154.552 199.501 182.14 199.409 182.993C199.366 183.361 198.259 184.943 195.769 184.511C193.28 184.079 192.616 183.209 192.616 182.945C192.616 182.038 192.502 181.033 192.427 180.126C191.946 174.224 189.727 161.588 189.046 155.567C188.701 152.266 189.42 148.942 191.098 146.079L187.507 129.879C186.423 137.56 184.594 145.118 182.048 152.446C179.24 160.378 169.52 183.82 169.52 183.82C168.634 186.287 163.391 185.013 162.732 180.785L162.97 179.748Z" fill="#F28F8F"/>
<path d="M162.97 179.751C161.658 179.519 161.82 184.071 161.031 186.852C160.183 189.816 158.682 191.809 157.959 194.234C157.132 197.009 157.235 198.251 158.034 200.811C158.661 202.803 162.851 206.173 165.006 203.905C167.16 201.637 168.013 198.743 168.246 195.875C168.446 193.465 168.843 191.076 169.434 188.731C169.974 186.377 171.264 182.251 170.303 181.932L169.763 183.282C168.985 184.227 163.116 182.953 162.743 180.788L162.97 179.751Z" fill="#37474F"/>
<path d="M191.163 183.125C190.823 184.561 191.212 188.487 191.212 188.487C191.212 188.487 191.844 189.837 194.058 190.723L195.013 185.253L191.163 183.125Z" fill="#263238"/>
<path d="M194.058 190.725L198.923 189.094L200.068 184.758L194.641 187.377L194.058 190.725Z" fill="black"/>
<path d="M200.1 178.341L200.289 177.056C200.953 177.374 200.894 182.666 204.415 186.419C207.012 189.184 209.971 190.815 211.138 192.257C212.698 194.19 209.005 197.419 204.166 196.415C201.769 195.923 198.124 194.411 197.146 192.802C196.169 191.193 195.472 188.563 194.662 187.402C193.852 186.241 191.595 185.302 191.066 183.989C190.483 182.542 190.958 180.587 191.363 179.243C191.73 178.006 191.509 176.683 192.076 176.656L192.2 177.661C192.529 178.319 194.468 179.194 196.909 179.308C198.048 179.335 199.576 179.399 200.1 178.341Z" fill="#37474F"/>
<path d="M201.969 95.1595C201.969 95.1595 196.569 96.7363 186.168 95.9803C175.768 95.2243 172.841 93.8203 172.841 93.8203C172.841 93.8203 169.11 98.6803 168.408 104.08C167.83 108.541 168.213 117.64 169.045 128.753C169.774 138.538 170.163 143.473 170.163 143.473C170.163 143.473 167.808 147.529 166.086 151.125C163.877 155.753 163.953 170.922 163.537 176.505C165.519 178.795 169.812 179.745 171.378 179.356C173.759 174.399 181.405 155.218 182.631 151.573C183.857 147.928 186.627 141.043 187.524 129.882L190.396 146.173C189.598 148.057 189.054 150.038 188.776 152.065C188.236 155.596 190.834 169.998 191.784 174.491C193.339 175.701 197.114 176.651 200.651 174.54C201.191 170.376 203.783 154.651 204.15 150.24C204.15 150.24 205.354 139.931 205.063 124.077C204.869 114.366 203.834 104.691 201.969 95.1595Z" fill="#455A64"/>
<path d="M187.524 129.867L188.987 113.553C188.987 113.553 195.597 109.773 197.211 106.258C197.211 106.258 196.936 111.733 192.022 114.698L189.684 131.217L190.396 146.18L187.524 129.867Z" fill="#37474F"/>
<path d="M198.68 79.9668C198.907 80.334 200.84 77.904 200.986 77.7042C201.623 76.7376 202.104 75.852 201.947 74.6424C201.79 73.4328 201.002 72.2178 200.629 71.0028C200.159 69.6308 200.026 68.1658 200.241 66.7314C200.5 65.3166 201.218 63.9936 201.321 62.5626C201.367 61.4208 201.135 60.2848 200.646 59.2524C199.684 57.0924 196.326 55.6074 195.03 51.2172C194.735 49.7625 194.617 48.2776 194.679 46.7946C194.722 44.8182 194.808 42.7932 194.187 40.914C193.792 39.6508 193.003 38.5475 191.935 37.7658C191.417 37.4827 190.875 37.246 190.315 37.0584C189.775 36.8046 189.775 36.5562 189.543 36.0054C188.674 33.8994 186.795 32.8356 184.683 32.2794C182.156 31.6152 178.203 31.7772 176.815 32.0472C174.477 32.5062 172.722 32.9922 170.335 33.1002C169.72 33.1272 168.256 33.1002 167.76 33.4674C167.405 33.7313 167.146 34.1024 167.019 34.5256C166.893 34.9488 166.906 35.4015 167.058 35.8164C167.349 36.8532 168.51 37.6524 168.472 39.0564C167.862 39.7746 167.106 41.0922 168.175 41.7564C168.492 41.9424 168.851 42.0446 169.218 42.0534C168.812 42.439 168.449 42.8682 168.138 43.3332C167.824 43.8021 167.666 44.3572 167.684 44.9208C167.696 45.2017 167.778 45.4751 167.922 45.7164C168.067 45.9577 168.269 46.1594 168.51 46.3032C168.724 46.4064 168.951 46.4809 169.185 46.5246L170.735 46.8918C170.627 47.1024 170.541 47.2536 170.514 47.3076C168.894 49.8456 165.918 52.74 167.976 55.9476C168.44 56.6658 169.126 57.3408 169.104 58.194C169.072 59.3604 167.787 60.0084 166.723 60.489C164.563 61.4718 161.112 63.8748 162.57 66.726C162.99 67.4098 163.18 68.2106 163.11 69.0102C163.075 69.3469 162.938 69.6648 162.718 69.9222C162.499 70.1796 162.206 70.3644 161.879 70.452C161.449 70.6028 160.979 70.5916 160.556 70.4206C160.134 70.2497 159.788 69.9306 159.584 69.5232C159.044 71.3484 160.599 73.3896 163.234 73.4436C164.946 73.4814 166.631 72.5364 166.636 72.1908C165.103 73.9944 166.307 77.499 168.213 77.5638C167.506 78.6438 166.788 81.765 169.509 84.5838C170.348 85.4751 171.437 86.0918 172.633 86.3529C173.829 86.6141 175.076 86.5075 176.211 86.0472C176.869 87.2406 177.831 88.9254 179.116 89.2872C181.049 89.8596 183.322 90.1458 184.937 88.9362C186.076 88.083 186.665 86.6304 187.831 85.8096C188.949 86.6304 190.11 87.4674 191.46 87.759C194.133 88.3368 196.86 86.5602 198.253 84.2004C199.042 82.9152 199.463 81.2412 198.68 79.9668Z" fill="#263238"/>
<path d="M235.044 53.2439C234.514 53.1227 233.96 53.166 233.456 53.3681C232.667 53.7353 231.907 54.1613 231.183 54.6425C230.022 55.2743 228.148 56.3111 226.803 56.2625C226.528 56.2625 225.966 56.1383 226.339 55.7981C226.848 55.3814 227.321 54.9226 227.754 54.4265C227.966 54.1746 228.124 53.8813 228.217 53.5653C228.31 53.2492 228.336 52.9172 228.294 52.5905C228.269 52.3911 228.171 52.2081 228.018 52.0775C227.791 51.9101 227.64 52.0181 227.478 52.1531C227.285 52.2871 227.083 52.4079 226.873 52.5149C226.452 52.7579 226.031 52.9955 225.61 53.2439C223.164 54.6749 220.717 56.3489 219.27 58.8545C219.06 59.2217 217.796 62.0945 216.981 63.7145C216.316 65.1887 211.764 74.4227 211.764 74.4227L203.211 66.4685C201.202 64.4651 200.17 63.5741 198.043 62.5481C196.75 62.0619 195.414 61.7002 194.052 61.4681L197.643 76.1345C197.643 76.1345 206.229 82.4687 207.579 83.4461C209.588 84.8987 213.422 87.5771 215.911 85.1201C218.962 82.1015 220.037 76.9877 221.16 73.2725C222.418 69.0875 222.78 67.0787 223.525 65.8151C224.271 64.5515 225.432 64.4597 226.269 64.1951C227.427 63.8727 228.534 63.3891 229.557 62.7587C230.481 62.2521 231.333 61.6237 232.09 60.8903C232.494 60.572 232.827 60.1729 233.067 59.7185C233.119 59.2983 233.197 58.8817 233.299 58.4711C233.575 58.0557 233.829 57.6268 234.061 57.1859C234.138 56.8022 234.163 56.4099 234.136 56.0195C234.172 55.7428 234.265 55.4766 234.41 55.2384C234.555 55.0001 234.749 54.7953 234.979 54.6371C235.208 54.4691 235.393 54.2488 235.519 53.9945C235.686 53.5517 235.4 53.3411 235.044 53.2439Z" fill="#F28F8F"/>
<path d="M225.27 57.4219C224.647 58.9422 223.603 60.2535 222.262 61.2019C223.12 61.1047 223.914 60.6999 224.497 60.0625C224.805 59.7014 225.032 59.2796 225.165 58.8246C225.298 58.3696 225.334 57.8916 225.27 57.4219Z" fill="#B16668"/>
<path d="M202.525 97.5215L203.016 100.853C203.016 100.853 198.696 103.948 187.761 104.002C176.826 104.056 169.758 99.0659 169.758 99.0659L171.216 95.9609L202.525 97.5215Z" fill="#0071CE"/>
<path opacity="0.3" d="M202.525 97.5215L203.016 100.853C203.016 100.853 198.696 103.948 187.761 104.002C176.826 104.056 169.758 99.0659 169.758 99.0659L171.216 95.9609L202.525 97.5215Z" fill="black"/>
<path d="M171.221 93.5889C172.938 90.1869 173.77 87.5679 173.748 85.3161C173.748 84.2037 173.516 82.1733 172.431 78.9009C171.345 75.6285 171.14 72.1077 171.027 69.3213C170.865 65.1903 173.84 62.0097 175.163 61.2213C175.163 61.2213 178.403 60.6813 183.344 60.2277C188.285 59.7741 194.047 61.4157 194.047 61.4157C196.59 63.4515 197.789 64.1913 200.899 68.6193C202.768 71.2815 204.215 76.1793 200.419 79.6083C200.489 80.4561 200.635 82.2111 200.478 87.9459C200.656 89.0529 202.671 94.6203 202.935 96.2565C203.2 97.8927 202.249 98.4489 202.249 98.4489C202.249 98.4489 197.989 101.457 187.993 101.273C176.729 101.068 172.117 97.9629 170.989 97.1097C170.06 95.8785 170.73 94.5663 171.221 93.5889Z" fill="#0071CE"/>
<path opacity="0.3" d="M191.363 80.1328C191.363 80.1328 188.328 83.5294 184.024 82.8328C182.374 82.6048 180.851 81.8221 179.704 80.6134C179.654 80.5643 179.587 80.5349 179.517 80.5304C179.446 80.5258 179.376 80.5466 179.32 80.5888C179.263 80.6311 179.224 80.6921 179.208 80.7609C179.192 80.8297 179.202 80.9019 179.235 80.9644C179.985 82.2712 181.443 83.7184 184.267 84.0532C185.714 84.2509 187.187 83.9761 188.465 83.2698C189.744 82.5634 190.76 81.4632 191.363 80.1328Z" fill="black"/>
<path d="M172.711 39.1119C171.345 40.1163 170.897 41.1369 171.82 49.3719C172.539 55.7709 174.331 57.3207 176.216 57.7797C177.552 58.076 178.936 58.076 180.271 57.7797L180.509 59.6157C180.509 59.6157 180.379 65.0535 189.921 65.8905C192.67 63.4065 190.353 60.5553 190.353 60.5553L189.273 51.0837C189.739 51.3234 190.272 51.4004 190.786 51.3025C191.301 51.2047 191.768 50.9376 192.114 50.5437C193.231 49.3233 193.642 46.7259 192.243 45.5649C190.845 44.4039 188.89 45.3489 188.371 46.6881C187.853 48.0273 186.751 48.3081 186.411 46.0239C186.071 43.7397 185.839 39.5439 182.691 38.0859C177.48 38.8743 178.252 43.0647 172.711 39.1119Z" fill="#F28F8F"/>
<path d="M172.636 44.855L174.45 43.9694C174.398 43.8484 174.321 43.7392 174.226 43.6486C174.13 43.5581 174.017 43.4879 173.893 43.4424C173.769 43.397 173.637 43.3772 173.506 43.3842C173.374 43.3913 173.245 43.425 173.127 43.4834C172.889 43.6095 172.706 43.8201 172.615 44.0739C172.524 44.3277 172.532 44.6063 172.636 44.855Z" fill="#263238"/>
<path d="M181.038 51.2969L178.489 52.6847C178.571 52.8553 178.688 53.0074 178.831 53.1317C178.973 53.2559 179.14 53.3497 179.321 53.4073C179.501 53.465 179.691 53.4852 179.88 53.4668C180.068 53.4484 180.251 53.3917 180.417 53.3003C180.757 53.1086 181.01 52.7944 181.126 52.4219C181.241 52.0495 181.21 51.647 181.038 51.2969Z" fill="#B16668"/>
<path d="M181.157 43.2972L183.101 43.8372C183.142 43.7121 183.157 43.5799 183.146 43.4488C183.134 43.3176 183.096 43.1902 183.033 43.0744C182.97 42.9586 182.885 42.8569 182.781 42.7754C182.678 42.6939 182.559 42.6344 182.431 42.6006C182.17 42.5375 181.895 42.5739 181.66 42.7026C181.424 42.8314 181.245 43.0434 181.157 43.2972Z" fill="#263238"/>
<path d="M177.976 44.9219L178.506 50.7809L175.487 50.4839L177.976 44.9219Z" fill="#B16668"/>
<path d="M180.271 57.8313C182.329 57.3453 186.092 56.3841 187.739 53.0469C187.739 53.0469 187.378 55.2717 186.092 56.3841C184.294 57.9393 180.395 58.7709 180.395 58.7709L180.271 57.8313Z" fill="#B16668"/>
<path d="M182.518 45.7285C182.604 46.3171 182.043 45.4909 181.438 45.5935C180.833 45.6961 180.444 46.6735 180.358 46.0957C180.319 45.8093 180.393 45.5189 180.564 45.286C180.735 45.0532 180.991 44.8962 181.276 44.8483C181.416 44.8205 181.56 44.8214 181.699 44.8511C181.838 44.8808 181.97 44.9386 182.086 45.021C182.203 45.1034 182.301 45.2086 182.375 45.3303C182.449 45.4519 182.498 45.5875 182.518 45.7285Z" fill="#263238"/>
<path d="M175.692 46.728C175.606 47.3112 175.309 46.3716 174.709 46.296C174.11 46.2204 173.451 47.052 173.537 46.4634C173.584 46.1794 173.739 45.9245 173.97 45.7523C174.2 45.5801 174.489 45.504 174.774 45.54C174.913 45.5552 175.048 45.5983 175.171 45.6668C175.293 45.7354 175.4 45.8279 175.486 45.9388C175.571 46.0497 175.634 46.1767 175.669 46.3123C175.705 46.4479 175.712 46.5893 175.692 46.728Z" fill="#263238"/>
<path d="M179.78 53.4876C179.729 53.1484 179.813 52.8027 180.016 52.5256C180.218 52.2485 180.521 52.0625 180.86 52.008C180.966 51.9973 181.073 51.9973 181.179 52.008C181.179 52.2773 181.108 52.542 180.972 52.7745C180.837 53.0071 180.641 53.1992 180.406 53.331C180.213 53.4325 179.998 53.4862 179.78 53.4876Z" fill="#FFA8A7"/>
<path d="M189.921 65.9438C186.953 64.7029 184.165 63.0683 181.632 61.0838C180.633 60.2468 180.509 59.6852 180.509 59.6852L180.422 59.0156L177.62 60.884C177.62 60.884 179.974 66.6242 183.409 67.904C184.552 68.3881 185.829 68.4571 187.019 68.0992C188.208 67.7412 189.235 66.9788 189.921 65.9438Z" fill="white"/>
<path d="M189.921 65.9396C189.921 65.9396 191.433 67.106 192.621 67.052C194.554 66.9548 194.722 65.7668 193.815 63.9848C192.907 62.2028 192.195 60.923 192.195 60.923L190.121 58.6172L190.353 60.6044C191.05 62.4674 190.656 64.2548 189.921 65.9396Z" fill="white"/>
<path d="M145.522 109.651C147.963 110.401 148.222 110.396 152.143 112.858C154.843 114.57 158.65 117.043 162.306 119.695L169.191 109.078L174.051 112.901C172.493 117.181 170.671 121.359 168.597 125.413C167.646 127.201 165.303 131.013 162.225 129.706C159.228 128.432 148.897 122.551 148.897 122.551L145.522 109.651Z" fill="#FFA8A7"/>
<path d="M170.891 110.434L169.19 109.078L166.901 112.61C167.761 113.442 168.825 114.034 169.985 114.328C171.146 114.622 172.363 114.606 173.516 114.284C173.845 113.42 174.056 112.901 174.056 112.901L170.891 110.434Z" fill="#B16668"/>
<path d="M144.086 109.242C149.745 110.112 149.988 110.862 153.752 113.314C157.246 115.598 161.377 118.795 161.377 118.795C160.265 121.83 158.516 124.592 156.247 126.895L145.522 121.344L144.086 109.242Z" fill="#455A64"/>
<path d="M158.401 83.1554C166.015 66.707 167.738 63.4454 170.821 62.0954C172.211 61.5989 173.667 61.3114 175.141 61.2422C176.221 63.224 178.613 70.487 174.094 74.8826C174.094 74.8826 168.969 82.5668 166.652 86.6654C167.122 90.9098 167.851 97.19 169.212 100.133C169.577 100.801 170.144 101.336 170.832 101.661C172.452 102.477 172.576 103.281 173.905 104.188C174.941 104.912 175.762 104.982 175.676 105.268C175.525 105.628 175.256 105.925 174.913 106.11C174.57 106.296 174.175 106.359 173.791 106.289C173.09 106.184 172.407 105.983 171.761 105.69C172.501 106.822 173.412 107.833 174.461 108.687C176.977 110.771 177.258 112.288 172.803 113.179C170.006 113.719 167.581 112.569 164.784 107.272C163.719 105.335 162.802 103.321 162.041 101.245C160.756 97.3574 158.801 92.4434 157.829 87.9884C157.294 85.283 157.953 84.1166 158.401 83.1554Z" fill="#F28F8F"/>
<path d="M170.2 103.975C169.072 104.235 167.998 104.688 167.025 105.314C166.905 105.38 166.815 105.488 166.771 105.617C166.712 105.887 167.009 106.157 167.468 106.276C167.49 106.281 167.51 106.291 167.528 106.305C167.546 106.319 167.56 106.337 167.57 106.357C167.581 106.381 167.586 106.406 167.586 106.432C167.586 106.458 167.581 106.484 167.57 106.508C167.517 106.741 167.554 106.986 167.674 107.192C167.794 107.399 167.989 107.552 168.218 107.62C168.302 107.643 168.381 107.681 168.451 107.734C168.512 107.799 168.557 107.879 168.58 107.966C168.699 108.245 168.898 108.482 169.152 108.648C169.406 108.815 169.703 108.902 170.006 108.9C170.106 108.887 170.208 108.887 170.308 108.9C170.393 108.933 170.475 108.974 170.551 109.024C170.863 109.171 171.207 109.236 171.55 109.213C172.726 109.292 173.906 109.265 175.076 109.132L175.951 110.088C176.394 109.705 175.816 107.712 174.941 106.448C174.522 105.815 174.017 105.242 173.44 104.747C172.916 104.235 172.247 103.896 171.523 103.775C171.108 103.762 170.694 103.817 170.297 103.937L170.2 103.975Z" fill="#FFA8A7"/>
<path d="M126.32 139.688C125.872 142.841 127.427 146.06 127.222 149.327C126.801 156.098 126.515 161.169 125.71 169.474C124.516 173.093 123.654 176.812 123.134 180.587C122.535 184.772 122.324 191.744 121.104 196.339L120.92 197.095C121.314 200.276 125.445 201.647 126.169 199.795C126.169 199.795 133.34 181.78 135.635 175.911C137.677 170.559 139.358 165.076 140.668 159.5L142.52 172.007C142.52 172.007 141.732 175.246 142.45 181.008C142.99 185.517 145.388 193.542 145.215 198.607C145.215 199.282 146.009 200.805 147.866 201.183C149.724 201.561 151.36 199.628 151.398 199.358C151.49 198.72 153.018 179.08 153.401 174.393C154.287 164.085 152.138 146.945 151.306 139.688H126.32Z" fill="#FFA8A7"/>
<path d="M154.222 164.578C154.222 159.643 152.105 144.965 151.554 139.484H126.104L125.461 169.217C124.707 171.415 124.094 173.658 123.625 175.934C122.799 179.871 122.005 189.305 122.005 189.305C122.005 189.305 122.632 190.925 125.1 191.783C126.593 192.298 128.227 192.211 129.657 191.54C129.657 191.54 132.73 183.678 133.437 182.036C134.425 179.779 135.748 176.48 137.142 172.559C138.535 168.639 140.533 161.5 140.533 161.5L142.234 172.009C141.721 174.768 141.856 179.763 142.531 183.683C143.206 187.604 144.086 192.118 144.086 192.118C144.086 192.118 145.506 192.939 148.476 192.874C151.446 192.809 152.294 191.654 152.294 191.654C152.294 191.654 153.633 177.263 153.914 172.063C154.195 166.862 154.222 164.578 154.222 164.578Z" fill="#455A64"/>
<path d="M140.544 161.5C141.494 157.72 140.933 151.596 140.933 151.596C140.933 151.596 144.826 151.634 146.829 148.961C146.256 150.551 145.229 151.939 143.876 152.952L141.716 162.202L142.256 172.008L140.544 161.5Z" fill="#37474F"/>
<path d="M161.679 208.977C161.78 209.293 161.794 209.63 161.719 209.953C161.644 210.276 161.483 210.573 161.253 210.812C160.486 211.417 158.272 212.373 155.426 211.892C152.58 211.412 151.803 210.786 150.696 209.776C149.589 208.766 148.584 207.713 147.299 207.373C146.106 207.054 144.297 206.492 143.924 206.104C143.551 205.715 143.681 204.062 143.681 204.062L161.679 208.977Z" fill="#263238"/>
<path d="M145.09 196.93C144.978 196.932 144.869 196.97 144.779 197.038C144.689 197.106 144.622 197.2 144.588 197.308C144.48 197.756 144.329 199.079 144.108 199.819C143.769 201.399 143.636 203.016 143.713 204.63C143.832 205.483 146.3 206.115 147.531 206.65C148.8 207.235 149.955 208.039 150.944 209.026C152.397 210.297 154.228 211.056 156.155 211.186C158.364 211.267 160.88 210.646 161.496 209.663C162.257 208.426 162.414 207.211 159.206 205.548C158.596 205.235 156.733 204.031 156.009 203.528C155.215 202.993 154.477 202.38 153.806 201.698C153.335 201.234 152.918 200.717 152.564 200.159C152.4 199.839 152.279 199.5 152.202 199.149C152.098 198.794 152.011 198.433 151.943 198.069C151.938 197.966 151.912 197.865 151.866 197.772C151.821 197.679 151.757 197.596 151.678 197.529C151.546 197.465 151.396 197.446 151.252 197.475C150.501 197.533 149.757 197.665 149.032 197.869C148.737 197.925 148.468 198.079 148.271 198.307C148.158 198.488 148.098 198.698 148.098 198.911C148.097 199.125 148.083 199.337 148.055 199.549C148.043 199.625 148.009 199.696 147.958 199.754C147.844 199.862 147.666 199.754 147.58 199.673C147.27 199.338 146.99 198.976 146.743 198.593C146.592 198.398 145.906 198.242 145.717 198.085C145.529 197.966 145.349 197.836 145.177 197.696C144.982 197.448 145.09 197.194 145.09 196.93Z" fill="#37474F"/>
<path d="M150.944 209.024C150.477 208.585 149.987 208.173 149.475 207.787C149.475 207.787 152.904 209.316 154.508 208.327C155.54 207.685 155.102 206.832 155.086 206.567C155.07 206.302 157.597 205.266 158.574 205.195C158.839 205.357 159.066 205.487 159.206 205.557C162.414 207.22 162.257 208.435 161.496 209.672C160.88 210.671 159.044 211.389 156.188 211.292C154.241 211.12 152.403 210.324 150.944 209.024Z" fill="#455A64"/>
<path d="M154.854 205.771C156.852 206.673 155.966 207.019 155.394 207.073C154.821 207.127 152.019 205.35 149.994 203.606C147.888 201.78 146.062 199.874 145.279 199.205C144.988 198.956 144.68 198.665 144.399 198.368C144.475 197.919 144.534 197.514 144.583 197.288C144.624 197.169 144.696 197.063 144.791 196.979C144.885 196.896 145 196.839 145.123 196.812L145.182 197.552C145.332 197.725 145.516 197.864 145.722 197.963C146.088 198.079 146.425 198.273 146.71 198.53C146.958 198.913 147.238 199.275 147.547 199.61C149.259 201.98 152.85 204.869 154.854 205.771Z" fill="#263238"/>
<path d="M155.264 206.777C155.216 206.772 155.171 206.754 155.135 206.723C155.097 206.684 155.076 206.633 155.076 206.579C155.076 206.526 155.097 206.475 155.135 206.436C155.636 205.963 156.232 205.601 156.884 205.376C157.536 205.151 158.228 205.067 158.915 205.13C158.968 205.137 159.015 205.166 159.047 205.209C159.079 205.252 159.093 205.306 159.085 205.359C159.077 205.412 159.048 205.46 159.005 205.492C158.962 205.524 158.908 205.537 158.855 205.529C158.232 205.477 157.605 205.554 157.014 205.757C156.423 205.96 155.88 206.283 155.421 206.706C155.401 206.728 155.377 206.746 155.35 206.758C155.323 206.77 155.294 206.777 155.264 206.777Z" fill="#F0F0F0"/>
<path d="M153.525 205.692C153.479 205.686 153.434 205.669 153.396 205.643C153.36 205.604 153.34 205.553 153.34 205.5C153.34 205.447 153.36 205.396 153.396 205.357C153.889 204.867 154.482 204.489 155.134 204.247C155.786 204.006 156.482 203.907 157.176 203.958C157.229 203.966 157.277 203.994 157.31 204.036C157.343 204.079 157.359 204.132 157.354 204.185C157.351 204.211 157.342 204.237 157.329 204.26C157.316 204.283 157.298 204.303 157.277 204.319C157.256 204.335 157.232 204.347 157.206 204.354C157.18 204.36 157.153 204.362 157.127 204.358C156.503 204.322 155.878 204.415 155.292 204.631C154.706 204.848 154.17 205.183 153.72 205.616C153.697 205.645 153.667 205.668 153.633 205.681C153.599 205.695 153.562 205.698 153.525 205.692Z" fill="#F0F0F0"/>
<path d="M151.932 204.479C151.884 204.478 151.838 204.458 151.803 204.425C151.766 204.388 151.745 204.337 151.745 204.285C151.745 204.232 151.766 204.182 151.803 204.144C152.304 203.67 152.9 203.308 153.551 203.081C154.203 202.855 154.896 202.77 155.583 202.832C155.636 202.84 155.685 202.869 155.717 202.913C155.749 202.956 155.763 203.011 155.756 203.064C155.746 203.117 155.717 203.164 155.673 203.195C155.63 203.227 155.576 203.24 155.523 203.232C154.9 203.179 154.273 203.257 153.681 203.461C153.09 203.664 152.548 203.989 152.089 204.414C152.047 204.455 151.991 204.479 151.932 204.479Z" fill="#F0F0F0"/>
<path d="M150.523 203.383C150.476 203.382 150.431 203.367 150.393 203.34C150.352 203.305 150.326 203.255 150.321 203.202C150.316 203.148 150.332 203.095 150.366 203.053C150.848 202.556 151.431 202.168 152.076 201.915C152.72 201.662 153.411 201.549 154.103 201.585C154.156 201.59 154.205 201.617 154.238 201.658C154.271 201.7 154.287 201.753 154.281 201.806C154.275 201.859 154.249 201.907 154.207 201.941C154.166 201.974 154.113 201.99 154.06 201.984C153.435 201.958 152.812 202.062 152.23 202.289C151.648 202.517 151.12 202.864 150.679 203.307C150.661 203.331 150.637 203.35 150.61 203.363C150.583 203.376 150.553 203.383 150.523 203.383Z" fill="#F0F0F0"/>
<path d="M149 202.1C148.955 202.101 148.91 202.086 148.876 202.056C148.835 202.023 148.81 201.975 148.804 201.922C148.798 201.87 148.812 201.818 148.843 201.776C149.643 200.777 151.435 200.128 152.931 200.301C152.984 200.307 153.033 200.334 153.066 200.375C153.1 200.417 153.115 200.47 153.109 200.523C153.104 200.576 153.077 200.624 153.036 200.658C152.994 200.691 152.941 200.707 152.888 200.701C151.538 200.55 149.869 201.144 149.162 202.024C149.143 202.048 149.118 202.068 149.09 202.081C149.062 202.094 149.031 202.1 149 202.1Z" fill="#F0F0F0"/>
<path d="M125.575 209.313C125.202 211.257 124.716 212.526 123.825 213.595C122.934 214.665 121.487 214.886 120.105 214.4C118.722 213.914 117.021 212.829 116.827 211.095C116.655 209.516 116.855 207.918 117.41 206.43L125.575 209.313Z" fill="#263238"/>
<path d="M121.417 195.109C120.904 195.207 120.115 197.707 119.44 200.31C118.722 203.091 118.085 203.89 117.469 206.174C116.762 208.777 116.854 209.684 117.642 211.385C118.431 213.086 121.746 215.019 123.766 212.908C125.386 211.185 125.645 209.414 125.85 206.757C125.993 204.645 126.265 202.544 126.666 200.466C127.027 198.501 127.994 196.794 127.513 196.519C127.438 196.81 126.628 198.895 126.266 198.609C126.093 198.56 126.099 198.279 126.201 197.766C126.234 197.658 126.244 197.544 126.231 197.432C126.218 197.319 126.182 197.211 126.126 197.113C125.959 196.937 125.742 196.818 125.505 196.773C124.965 196.611 124.171 196.362 123.593 196.233C123.253 196.168 123.447 196.184 123.107 196.13C122.687 196.013 122.248 195.982 121.816 196.038C121.622 196.108 121.584 196.27 121.514 196.454C121.444 196.638 121.368 196.886 121.282 197.064C121.249 197.134 121.12 197.275 121.039 197.259C120.958 197.242 120.909 196.891 120.942 196.746C120.974 196.6 120.985 196.357 121.017 196.179C121.05 196 121.303 195.568 121.417 195.109Z" fill="#37474F"/>
<path d="M117.68 205.281C117.577 205.659 116.994 208.008 117.68 208.521C118.366 209.034 119.106 207.155 119.106 207.155C119.106 207.155 121.044 206.815 123.625 208.208C123.431 208.602 123.679 209.995 124.462 209.79C125.245 209.585 125.812 207.004 125.818 206.971C125.613 209.515 125.353 211.216 123.755 212.911C121.735 215.023 118.42 213.09 117.631 211.389C116.843 209.688 116.751 208.78 117.459 206.178C117.54 205.913 117.621 205.513 117.68 205.281Z" fill="#455A64"/>
<path d="M119.3 207.354C119.17 208.31 118.296 207.894 118.328 206.528C118.371 204.492 119.149 202.624 119.408 200.302C120.083 197.699 120.796 195.085 121.384 195.102C121.309 195.561 121.033 196.587 121.033 196.587C120.99 196.776 120.85 197.213 120.85 197.213C120.418 199.168 119.575 201.414 119.403 203.455C119.3 205.254 119.44 206.409 119.3 207.354Z" fill="#263238"/>
<path d="M123.323 208.163C123.631 207.245 123.993 207.008 124.403 205.247C124.813 203.487 126.023 200.458 126.655 198.573C126.93 197.849 127.492 196.537 127.497 196.516C127.843 196.721 127.724 197.731 127.287 198.892C126.849 200.053 126.563 200.76 126.234 201.889C125.445 204.113 125.062 206.522 124.565 207.802C124.068 209.081 123.01 209.081 123.323 208.163Z" fill="#263238"/>
<path d="M123.55 208.234C123.521 208.228 123.494 208.217 123.469 208.201C122.118 207.434 120.557 207.118 119.014 207.299C118.958 207.309 118.901 207.296 118.854 207.264C118.808 207.231 118.776 207.182 118.765 207.127C118.759 207.072 118.775 207.016 118.81 206.973C118.844 206.929 118.894 206.901 118.949 206.894C120.602 206.688 122.277 207.03 123.717 207.866C123.741 207.88 123.761 207.898 123.776 207.92C123.792 207.942 123.803 207.967 123.809 207.994C123.814 208.02 123.814 208.047 123.809 208.074C123.803 208.1 123.792 208.125 123.777 208.147C123.75 208.181 123.715 208.207 123.675 208.222C123.635 208.238 123.592 208.242 123.55 208.234Z" fill="#F0F0F0"/>
<path d="M124.376 206.404L124.311 206.377C122.713 205.538 120.911 205.164 119.111 205.297C119.055 205.304 118.998 205.288 118.953 205.254C118.908 205.22 118.877 205.17 118.868 205.114C118.865 205.058 118.883 205.004 118.92 204.961C118.956 204.919 119.007 204.892 119.062 204.887C120.963 204.746 122.864 205.149 124.543 206.048C124.567 206.062 124.588 206.08 124.604 206.102C124.621 206.125 124.632 206.15 124.638 206.177C124.644 206.204 124.645 206.232 124.64 206.259C124.635 206.286 124.624 206.311 124.608 206.334C124.58 206.366 124.543 206.39 124.502 206.402C124.461 206.414 124.417 206.415 124.376 206.404Z" fill="#F0F0F0"/>
<path d="M119.008 203.682C118.955 203.682 118.905 203.661 118.867 203.623C118.83 203.586 118.809 203.535 118.809 203.482C118.809 203.429 118.83 203.378 118.867 203.341C118.905 203.303 118.955 203.282 119.008 203.282C121.741 202.742 125.051 204.227 125.154 204.297C125.176 204.311 125.196 204.33 125.211 204.352C125.227 204.374 125.237 204.399 125.242 204.426C125.247 204.452 125.247 204.479 125.241 204.506C125.235 204.532 125.224 204.556 125.208 204.578C125.172 204.622 125.122 204.652 125.067 204.662C125.011 204.672 124.954 204.661 124.905 204.632C124.905 204.632 121.665 203.158 119.1 203.682C119.07 203.69 119.038 203.69 119.008 203.682Z" fill="#F0F0F0"/>
<path d="M119.651 202.013C119.612 202.006 119.575 201.989 119.545 201.962C119.516 201.935 119.494 201.9 119.484 201.862C119.478 201.835 119.478 201.808 119.483 201.781C119.488 201.755 119.499 201.729 119.514 201.707C119.529 201.684 119.548 201.665 119.571 201.65C119.594 201.635 119.619 201.624 119.646 201.619C122.659 200.949 125.44 202.731 125.537 202.802C125.559 202.817 125.577 202.838 125.591 202.861C125.605 202.884 125.614 202.91 125.617 202.937C125.621 202.963 125.619 202.991 125.612 203.016C125.604 203.042 125.592 203.067 125.575 203.088C125.538 203.132 125.486 203.16 125.429 203.167C125.371 203.175 125.314 203.16 125.267 203.126C125.267 203.126 122.567 201.392 119.748 202.013H119.651Z" fill="#F0F0F0"/>
<path d="M120.094 199.95C120.041 199.95 119.99 199.929 119.953 199.892C119.915 199.854 119.894 199.803 119.894 199.75C119.894 199.697 119.915 199.646 119.953 199.609C119.99 199.572 120.041 199.55 120.094 199.55C122.918 198.886 125.91 200.728 126.034 200.798C126.057 200.813 126.076 200.832 126.091 200.855C126.106 200.878 126.115 200.904 126.119 200.931C126.123 200.958 126.122 200.986 126.114 201.012C126.107 201.039 126.094 201.063 126.077 201.084C126.041 201.129 125.989 201.159 125.932 201.167C125.875 201.175 125.816 201.161 125.769 201.127C125.769 201.127 122.842 199.329 120.218 199.95C120.177 199.959 120.135 199.959 120.094 199.95Z" fill="#EBEBEB"/>
<path d="M128.356 110.29C126.196 110.933 125.197 118.347 125.591 121.42C125.985 124.492 126.671 131.615 126.671 131.615L125.715 142.096C129.161 146.184 143.681 147.842 151.824 142.409C151.824 142.409 151.727 124.287 151.284 120.269C150.55 113.325 147.272 109.82 144.437 109.302C141.602 108.784 138.924 108.049 136.337 108.422C133.639 108.871 130.973 109.495 128.356 110.29Z" fill="#0071CE"/>
<path d="M133.653 107.058C131.936 105.622 129.873 104.607 128.215 102.69C127.589 101.961 126.925 100.163 126.639 99.0339C125.926 96.2205 126.207 92.4891 128.323 90.4371C128.323 90.4371 128.151 87.0081 132.06 84.7455C133.722 83.8485 135.556 83.3191 137.44 83.1933C139.324 83.0675 141.213 83.3483 142.979 84.0165C144.739 84.6744 146.265 85.8395 147.364 87.3645C148.53 89.1416 149.052 91.2647 148.843 93.3801C148.578 94.8016 147.823 96.0854 146.71 97.0089C145.598 97.9129 144.355 98.6413 143.022 99.1689C142.207 99.5253 141.402 99.8547 140.565 100.222C140.13 100.379 139.712 100.58 139.318 100.821C139.073 101.059 138.856 101.324 138.67 101.61L134.944 106.076C134.609 106.512 134.163 106.852 133.653 107.058Z" fill="#263238"/>
<path d="M132.649 99.4231C132.621 99.4628 132.588 99.4991 132.552 99.5311C132.012 99.9847 131.882 98.9371 131.212 98.3053C131.031 98.1457 130.816 98.0301 130.582 97.9673C130.349 97.9046 130.105 97.8964 129.868 97.9435C129.475 97.9744 129.1 98.1205 128.79 98.3635C128.479 98.6065 128.248 98.9357 128.124 99.3097C128.025 99.6914 128.003 100.089 128.061 100.479C128.118 100.869 128.253 101.244 128.457 101.581C128.661 101.918 128.931 102.211 129.25 102.442C129.57 102.674 129.932 102.839 130.316 102.928C130.766 103.052 131.242 103.042 131.686 102.899C132.131 102.756 132.523 102.486 132.816 102.123L133.075 109.683C134.536 111.166 136.504 112.04 138.583 112.129C142.428 112.345 142.212 110.077 141.489 108.997L141.624 106.897C142.943 106.951 144.256 106.681 145.447 106.108C146.391 105.626 147.192 104.906 147.771 104.018C148.35 103.13 148.686 102.107 148.746 101.048C148.854 99.5095 148.239 98.2243 148.071 96.6961C147.974 95.7889 147.877 94.3471 147.785 93.7585C147.708 93.2395 147.562 92.733 147.353 92.2519C142.363 93.3319 136.467 92.1655 134.706 91.1719C134.976 92.2532 134.939 93.3885 134.598 94.4497C134.223 95.5239 133.555 96.4721 132.67 97.1875C132.861 97.7367 132.917 98.324 132.832 98.8993C132.815 99.0862 132.752 99.2661 132.649 99.4231Z" fill="#FFA8A7"/>
<path d="M130.78 98.0926C130.786 98.1375 130.807 98.1788 130.841 98.2087C130.875 98.2386 130.919 98.2549 130.964 98.2546L136.44 97.6228C136.553 98.2654 136.895 98.8452 137.403 99.255C137.911 99.6648 138.55 99.8767 139.202 99.8517C139.854 99.8267 140.475 99.5663 140.95 99.1189C141.425 98.6714 141.722 98.067 141.786 97.4176C141.788 97.1586 141.881 96.9088 142.049 96.7114C142.217 96.5141 142.448 96.3818 142.704 96.3376C142.88 96.2881 143.069 96.3026 143.236 96.3787C143.403 96.4548 143.538 96.5876 143.616 96.7534C143.815 97.3956 144.249 97.9388 144.831 98.2742C145.414 98.6095 146.102 98.712 146.757 98.5612C147.412 98.4104 147.986 98.0174 148.363 97.4611C148.74 96.9048 148.893 96.2264 148.791 95.5621C148.689 94.8977 148.339 94.2967 147.812 93.8795C147.285 93.4623 146.619 93.2599 145.949 93.313C145.279 93.3661 144.654 93.6706 144.199 94.1655C143.744 94.6604 143.494 95.3091 143.497 95.9812C143.495 96.0244 143.495 96.0677 143.497 96.1108C143.232 95.9598 142.92 95.9135 142.623 95.9812C142.233 96.0602 141.887 96.284 141.656 96.6076C141.452 96.0288 141.057 95.5368 140.535 95.2127C140.014 94.8886 139.398 94.7518 138.789 94.8247C138.179 94.8977 137.613 95.1761 137.183 95.614C136.753 96.052 136.485 96.6234 136.423 97.234L130.91 97.8712C130.864 97.8839 130.824 97.9142 130.8 97.9555C130.776 97.9969 130.769 98.0461 130.78 98.0926ZM143.886 96.0028C143.886 95.5446 144.022 95.0967 144.277 94.7158C144.531 94.3348 144.893 94.0379 145.316 93.8626C145.74 93.6872 146.205 93.6413 146.655 93.7307C147.104 93.8201 147.517 94.0408 147.841 94.3647C148.165 94.6887 148.385 95.1015 148.475 95.5509C148.564 96.0002 148.518 96.466 148.343 96.8893C148.168 97.3126 147.871 97.6745 147.49 97.929C147.109 98.1836 146.661 98.3194 146.203 98.3194C145.588 98.3194 144.999 98.0753 144.565 97.6409C144.13 97.2065 143.886 96.6172 143.886 96.0028ZM136.818 97.4176C136.818 96.9592 136.954 96.5111 137.208 96.13C137.463 95.7489 137.825 95.452 138.249 95.2768C138.672 95.1017 139.139 95.0561 139.588 95.1459C140.038 95.2358 140.45 95.4569 140.774 95.7815C141.098 96.106 141.318 96.5193 141.407 96.969C141.496 97.4187 141.449 97.8847 141.273 98.3079C141.097 98.7311 140.799 99.0925 140.417 99.3464C140.036 99.6003 139.587 99.7353 139.129 99.7342C138.825 99.7342 138.524 99.6743 138.243 99.5578C137.962 99.4413 137.707 99.2706 137.493 99.0554C137.278 98.8402 137.108 98.5848 136.992 98.3037C136.876 98.0227 136.817 97.7216 136.818 97.4176Z" fill="#455A64"/>
<path d="M134.042 103.367C134.579 104.419 135.422 105.284 136.461 105.846C138.099 106.527 139.85 106.894 141.624 106.926L141.553 108.049C140.144 107.99 137.482 107.655 135.64 106.051C134.641 105.176 134.042 103.367 134.042 103.367Z" fill="#F28F8F"/>
<path d="M138.535 93.8266L136.531 95.074C136.37 94.7985 136.321 94.4714 136.394 94.1607C136.468 93.85 136.658 93.5795 136.926 93.4054C137.058 93.3238 137.205 93.2699 137.359 93.247C137.513 93.224 137.67 93.2325 137.82 93.2719C137.971 93.3112 138.112 93.3807 138.234 93.476C138.357 93.5714 138.459 93.6906 138.535 93.8266Z" fill="#263238"/>
<path d="M140.425 101.516L143.611 101.796C143.563 102.227 143.35 102.623 143.017 102.9C142.683 103.177 142.256 103.313 141.823 103.281C141.614 103.262 141.41 103.201 141.225 103.1C141.04 103 140.877 102.863 140.746 102.698C140.615 102.533 140.519 102.343 140.464 102.14C140.409 101.937 140.395 101.724 140.425 101.516Z" fill="#B16668"/>
<path d="M140.835 102.094C140.72 102.116 140.609 102.156 140.506 102.212C140.598 102.497 140.772 102.748 141.007 102.935C141.241 103.121 141.525 103.234 141.823 103.26C141.938 103.271 142.054 103.271 142.169 103.26C142.18 103.174 142.18 103.087 142.169 103.001C142.143 102.853 142.088 102.711 142.006 102.585C141.925 102.458 141.819 102.349 141.694 102.265C141.57 102.18 141.43 102.121 141.282 102.092C141.135 102.063 140.983 102.063 140.835 102.094Z" fill="#F28F8F"/>
<path d="M138.314 97.3389C138.349 97.528 138.44 97.7023 138.575 97.8397C138.709 97.9772 138.882 98.0716 139.07 98.1109C139.258 98.1503 139.454 98.1329 139.632 98.0609C139.811 97.9889 139.964 97.8656 140.072 97.7066C140.181 97.5476 140.239 97.36 140.241 97.1676C140.242 96.9752 140.187 96.7866 140.081 96.6258C139.976 96.465 139.825 96.3392 139.647 96.2642C139.47 96.1893 139.275 96.1687 139.086 96.2049C138.96 96.2282 138.841 96.2761 138.734 96.3459C138.627 96.4156 138.535 96.5057 138.464 96.6111C138.392 96.7166 138.342 96.8351 138.316 96.96C138.29 97.0849 138.289 97.2137 138.314 97.3389Z" fill="#263238"/>
<path d="M145.117 96.067C145.153 96.2548 145.243 96.428 145.377 96.5646C145.51 96.7012 145.682 96.7951 145.869 96.8344C146.056 96.8737 146.25 96.8567 146.428 96.7855C146.605 96.7143 146.757 96.5921 146.865 96.4343C146.973 96.2765 147.032 96.0903 147.034 95.8992C147.036 95.7081 146.981 95.5206 146.877 95.3605C146.773 95.2004 146.623 95.0748 146.447 94.9997C146.272 94.9245 146.078 94.9032 145.89 94.9384C145.765 94.9617 145.646 95.0094 145.539 95.0788C145.433 95.1482 145.341 95.2378 145.27 95.3426C145.198 95.4475 145.148 95.5654 145.122 95.6897C145.095 95.8139 145.094 95.9422 145.117 96.067Z" fill="#263238"/>
<path d="M142.563 96.401L143.422 100.154L145.749 99.0362L142.979 96.3362C142.838 96.3334 142.697 96.3553 142.563 96.401Z" fill="#F28F8F"/>
<path d="M116.125 111.966C114.937 109.698 113.754 109.066 112.917 107.571C111.837 105.621 109.925 101.695 109.925 101.695L101.593 103.855C101.593 103.855 104.493 108.175 105.649 110.227C106.232 111.253 105.751 113.003 106.556 114.412C107.085 115.32 115.358 113.613 116.125 111.966Z" fill="#F28F8F"/>
<path d="M110.363 112.318C109.866 111.778 108.408 110.52 109.11 108.484C107.96 109.915 109.121 111.778 110.363 112.318Z" fill="#B16668"/>
<path d="M111.972 105.792C110.514 103.124 104.185 89.0516 104.185 89.0516C104.185 89.0516 103.537 85.0502 102.484 79.3802C101.221 72.5492 101.453 65.3402 93.0128 63.0938C92.1164 68.0294 91.2902 73.5482 91.9328 78.527C92.5754 83.5058 92.9048 85.4228 93.812 90.8552C94.2224 93.3176 94.7624 93.701 96.134 95.7799C96.971 97.0382 103.278 106.504 104.547 108.421" fill="#F28F8F"/>
<path d="M104.445 108.904C104.445 108.904 109.742 108.175 111.583 104.632L106.34 90.6625C106.34 90.6625 105.39 84.0745 104.428 77.3893C103.24 69.0679 102.533 64.4293 97.3814 63.0469C97.3814 63.0469 90.8258 68.4901 91.2956 75.9205C91.6046 80.6997 92.2415 85.4521 93.2018 90.1441C93.596 92.3419 93.6662 93.3841 95.4806 95.8897C97.295 98.3953 104.445 108.904 104.445 108.904Z" fill="#263238"/>
<path d="M119.538 131.445C119.732 133.724 120.078 137.094 118.706 137.531C116.546 138.217 113.419 134.664 110.935 131.051C108.316 127.233 104.995 120.748 104.547 118.404C104.099 116.061 105.298 114.084 107.058 112.07C107.752 111.312 108.486 110.591 109.256 109.91C109.893 109.235 109.99 108.911 110.255 108.884C110.757 108.841 111.157 109.759 110.795 110.758C110.557 111.417 110.034 111.773 109.612 112.529C110.309 112.637 111.681 111.708 112.712 111.66C114.151 111.639 115.587 111.806 116.984 112.157C117.826 112.47 117.48 113.447 117.113 113.652C117.113 113.652 117.896 114.23 117.307 114.884C117.463 115.191 117.499 115.546 117.41 115.879C117.32 116.211 117.111 116.499 116.822 116.687C115.774 117.513 114.516 118.534 112.944 118.755C111.373 118.977 111.638 118.998 112.183 119.835C112.728 120.672 116.503 125.009 117.475 126.045C118.447 127.082 119.338 129.167 119.538 131.445Z" fill="#FFA8A7"/>
<path d="M115.785 117.454C115.115 117.967 113.695 116.46 112.75 115.904C112.555 115.768 112.331 115.682 112.095 115.654C111.86 115.626 111.621 115.656 111.4 115.742C111.178 115.85 111.157 115.818 110.919 115.71C110.579 115.562 110.202 115.524 109.839 115.602C109.413 115.687 109.03 115.921 108.759 116.261C108.728 116.308 108.688 116.348 108.64 116.379C108.596 116.401 108.549 116.414 108.5 116.417C108.166 116.476 107.84 116.574 107.528 116.709C107.386 116.753 107.256 116.829 107.149 116.931C107.041 117.033 106.958 117.158 106.907 117.297C106.831 117.638 107.096 117.951 107.344 118.199C107.69 118.539 108.041 118.863 108.424 119.182C108.729 119.465 109.068 119.708 109.434 119.906C109.716 120.042 110.011 120.149 110.314 120.224C110.95 120.415 111.61 120.514 112.275 120.516C112.888 120.481 113.489 120.331 114.046 120.073C114.789 119.778 115.51 119.431 116.206 119.036C117.723 118.377 117.253 116.277 117.253 116.277C116.815 116.729 116.322 117.125 115.785 117.454Z" fill="#F28F8F"/>
<path d="M115.563 115.017C115.358 115.703 114.019 115.762 113.295 114.893C112.831 114.353 112.626 113.181 111.837 112.911C111.564 112.826 111.297 112.723 111.038 112.603C110.873 112.526 110.712 112.44 110.557 112.344C110.411 112.254 110.274 112.151 110.147 112.036C110.178 111.921 110.202 111.803 110.217 111.685C110.463 111.415 110.661 111.104 110.8 110.767C110.922 110.43 110.961 110.069 110.914 109.714C111.567 109.223 112.264 108.855 112.599 109.174C113.148 109.756 113.577 110.441 113.862 111.188C113.938 111.356 114.013 111.534 114.084 111.728C114.154 111.923 114.283 112.22 114.37 112.473C114.85 113.732 115.65 114.741 115.563 115.017Z" fill="#F28F8F"/>
<path d="M118.706 137.536C119.867 137.028 121.33 136.402 123.701 132.206C125.861 128.388 128.745 122.945 128.745 122.945C130.165 120.85 129.403 111.384 127.751 110.703C124.468 111.67 124.106 111.243 121.303 117.216C119.516 121.039 117.113 125.688 117.113 125.688L118.706 137.536Z" fill="#FFA8A7"/>
<path d="M117.14 125.688C117.966 126.514 120.245 129.117 120.526 131.255C120.526 129.721 119.797 127.302 117.518 124.953L117.14 125.688Z" fill="#F28F8F"/>
<path d="M128.356 110.289C123.669 111.034 123.031 112.768 120.882 117.628C119.3 121.17 118.155 123.654 118.155 123.654C120.677 124.734 124.095 128.87 124.349 131.068L129.02 123.114C130.932 119.874 129.133 111.569 128.356 110.289Z" fill="#455A64"/>
<path d="M100.017 188.459C99.8438 184.279 101.226 159.164 101.226 159.164L88.925 165.433C90.545 180.586 91.7601 187.8 91.7547 189.026C91.6993 189.219 91.672 189.419 91.6736 189.62C91.625 192.39 94.8759 193.978 97.3977 195.895C99.5479 197.584 101.837 199.088 104.239 200.393C106.081 201.333 109.861 201.516 110.358 200.393C107.29 198.039 103.732 195.463 101.313 192.833C100.152 191.532 100.135 191.364 100.017 188.459Z" fill="#FFA8A7"/>
<path d="M115.612 203.516C115.768 203.516 115.974 205.206 115.072 205.892C114.051 206.686 111.07 207.96 107.193 207.371C103.316 206.783 101.253 205.584 99.7034 204.299C98.1536 203.014 96.0314 201.21 94.2764 200.789C92.6564 200.4 90.8906 199.649 90.3776 199.169C89.8646 198.688 89.9888 196.539 89.9888 196.539L115.612 203.516Z" fill="black"/>
<path d="M103.845 193.824C103.602 193.581 103.365 193.327 103.133 193.073C102.537 192.391 102.063 191.614 101.729 190.773C101.551 190.423 101.396 190.062 101.264 189.693C101.118 189.153 101.027 188.645 100.908 188.127C100.861 187.874 100.787 187.628 100.686 187.392C100.624 187.232 100.502 187.102 100.346 187.03C100.25 187.014 100.151 187.014 100.055 187.03C98.6008 187.115 97.1775 187.482 95.8641 188.11C95.5185 188.278 95.2377 188.478 95.2269 188.872C95.274 189.322 95.2224 189.777 95.0757 190.206C95.043 190.284 94.991 190.353 94.9245 190.405C94.8726 190.435 94.814 190.45 94.7544 190.45C94.6948 190.45 94.6362 190.435 94.5843 190.405C94.4781 190.349 94.3873 190.267 94.3197 190.168C93.9201 189.628 93.8121 188.904 93.3585 188.418C93.1073 188.159 92.7801 187.987 92.4243 187.927C92.2515 187.894 91.6683 187.894 91.6251 187.651L91.4901 186.523C91.4901 186.523 91.1337 186.366 90.9501 187.063C90.8049 187.765 90.7325 188.479 90.7341 189.196C90.6801 189.973 90.5937 190.584 90.4749 191.356C90.3345 192.279 90.2049 193.197 90.0807 194.121C89.8951 195.008 89.8351 195.917 89.9025 196.821C89.9575 197.218 90.1622 197.579 90.4749 197.83C90.9457 198.285 91.4945 198.651 92.0949 198.91C92.9157 199.278 93.7689 199.569 94.6059 199.899C96.5799 200.782 98.4138 201.95 100.049 203.365C101.842 204.85 105.66 206.395 108.192 206.503C112.064 206.665 114.824 205.498 115.628 204.197C115.736 203.295 115.828 202.366 115.439 201.708C114.17 199.548 111.184 198.759 108.819 197.501C107.786 196.93 106.794 196.29 105.849 195.584C105.132 195.055 104.462 194.466 103.845 193.824Z" fill="#37474F"/>
<path d="M101.755 199.534C101.825 199.573 101.907 199.587 101.986 199.575C102.066 199.562 102.138 199.523 102.193 199.463C103.84 197.768 106.988 196.699 108.079 197.05C108.079 197.05 107.933 196.542 106.853 196.261C106.853 196.261 104.034 196.061 101.329 198.767C101.29 198.806 101.261 198.854 101.244 198.907C101.227 198.96 101.222 199.015 101.23 199.07C101.238 199.125 101.258 199.177 101.289 199.223C101.32 199.268 101.362 199.306 101.41 199.334L101.755 199.534Z" fill="#FAFAFA"/>
<path d="M105.384 195.21C104.213 194.8 101.437 196.107 100.082 197.495C100.026 197.555 99.9505 197.593 99.8692 197.602C99.7879 197.61 99.706 197.59 99.6387 197.543L99.2877 197.289C99.243 197.261 99.2055 197.223 99.1784 197.178C99.1512 197.133 99.1351 197.082 99.1314 197.029C99.1277 196.976 99.1366 196.924 99.1571 196.875C99.1777 196.826 99.2095 196.783 99.2499 196.749C100.017 196.01 102.22 194.114 104.412 194.357C104.412 194.4 105.287 194.784 105.384 195.21Z" fill="#FAFAFA"/>
<path d="M103.132 193.077C102.295 192.91 100.103 193.434 98.2993 194.919C98.2654 194.947 98.2255 194.968 98.1826 194.98C98.1396 194.992 98.0946 194.994 98.0507 194.986C98.0069 194.978 97.9653 194.961 97.9289 194.935C97.8925 194.91 97.8623 194.876 97.8403 194.838L97.6675 194.524C97.6332 194.462 97.6214 194.39 97.6342 194.32C97.647 194.25 97.6836 194.187 97.7377 194.141C98.3695 193.601 100.465 192.051 102.506 192.262C102.783 192.473 103 192.755 103.132 193.077Z" fill="#FAFAFA"/>
<path d="M110.25 198.18C105.454 199.33 103.672 202.462 102.862 205.016C104.533 205.814 106.332 206.309 108.176 206.479C112.048 206.641 114.807 205.475 115.612 204.174C115.72 203.272 115.812 202.343 115.423 201.684C114.402 199.94 112.28 199.087 110.25 198.18Z" fill="#0071CE"/>
<path d="M110.25 198.18C106.362 198.304 102.825 201.63 102.862 205.016C104.533 205.814 106.332 206.309 108.176 206.479C112.048 206.641 114.807 205.475 115.612 204.174C115.72 203.272 115.812 202.343 115.423 201.684C114.402 199.94 112.28 199.087 110.25 198.18Z" fill="#FAFAFA"/>
<path d="M79.8369 171.181L68.1459 169.836C68.4861 175.943 68.3025 184.103 68.2107 190.972C67.9198 192.477 67.8997 194.022 68.1513 195.535C68.4213 196.847 66.6015 206.335 67.2549 209.035C68.2431 213.144 74.6475 211.686 74.8689 209.191C75.0903 206.696 75.7113 201.674 76.3863 195.076C76.9695 189.465 79.7883 171.58 79.8369 171.181Z" fill="#FFA8A7"/>
<path d="M76.4402 210.736L72.32 202.204C71.24 201.626 69.9116 200.411 68.7236 201.124C68.3059 201.353 67.9194 201.634 67.5734 201.961C66.6986 202.879 66.65 204.17 66.4232 205.336C66.1964 206.503 65.3864 207.593 65.2352 208.798C64.9436 211.076 64.8896 212.513 65.5538 214.586C66.218 216.66 68.2538 217.778 70.3058 218.318C72.0122 218.771 74.1506 218.264 75.0578 216.795C76.2188 214.959 76.424 213.177 76.4402 210.736Z" fill="black"/>
<path d="M76.3862 210.66C74.7662 208.597 67.2062 208.041 65.165 209.979C65.165 209.704 65.2028 209.401 65.2298 209.094C65.4836 206.194 65.7158 205.697 66.38 203.013C66.7495 201.775 67.0292 200.512 67.217 199.233C67.352 197.91 67.4708 195.183 67.5356 194.254C67.5345 193.335 67.5977 192.417 67.7246 191.506C67.784 191.236 67.8542 190.917 68.2106 190.966C68.2106 190.966 68.2106 191.425 68.1728 191.7C68.135 191.976 68.1728 192.24 68.135 192.499C68.0972 193.066 68.135 193.579 68.135 194.119C68.1269 194.337 68.158 194.555 68.2268 194.762C68.2434 194.809 68.2758 194.849 68.3186 194.875C68.486 194.946 68.459 194.568 68.4698 194.492L68.6858 193.088C68.6885 193.016 68.7129 192.946 68.756 192.888C68.7965 192.845 68.8464 192.812 68.9018 192.791C70.0682 192.3 70.9376 191.884 72.1418 192.057C72.8215 192.139 73.4921 192.283 74.1452 192.489C74.6204 192.64 75.4628 192.883 75.7652 193.336C75.8679 193.557 75.8963 193.806 75.8462 194.044C75.7922 194.676 75.722 195.383 75.6518 196.096C75.5708 196.954 76.586 194.06 76.7318 192.435C77.1908 192.532 77.1422 193.029 76.829 194.962C76.4172 197.387 76.1682 199.837 76.0838 202.295C76.0181 204.253 76.0632 206.212 76.2188 208.165C76.2836 209.061 76.3538 209.882 76.3862 210.66Z" fill="#37474F"/>
<path d="M67.7031 207.356C69.8631 206.999 73.2867 207.388 74.8581 208.058C74.8886 208.072 74.9223 208.078 74.9559 208.075C74.9895 208.072 75.0217 208.06 75.0495 208.041C75.0772 208.022 75.0996 207.996 75.1143 207.966C75.129 207.936 75.1356 207.902 75.1335 207.869V207.199C75.1336 207.162 75.1236 207.126 75.1045 207.095C75.0855 207.063 75.0581 207.038 75.0255 207.021C72.7221 206.059 70.1778 205.833 67.7409 206.373C67.6993 206.381 67.6614 206.402 67.6324 206.433C67.6034 206.464 67.5847 206.504 67.5789 206.546L67.4871 207.129C67.4829 207.159 67.4855 207.189 67.4947 207.218C67.5039 207.246 67.5194 207.273 67.5402 207.294C67.561 207.316 67.5864 207.333 67.6146 207.344C67.6428 207.354 67.6731 207.358 67.7031 207.356Z" fill="#FAFAFA"/>
<path d="M68.3889 204.033C70.555 203.712 72.7677 203.996 74.7825 204.853C74.8115 204.867 74.8435 204.873 74.8755 204.871C74.9075 204.869 74.9384 204.859 74.9654 204.842C74.9924 204.825 75.0146 204.801 75.0298 204.772C75.0451 204.744 75.0529 204.713 75.0525 204.681V204.065C75.0493 204.03 75.0372 203.997 75.0173 203.969C74.9974 203.941 74.9705 203.918 74.9391 203.903C74.3613 203.649 72.3201 202.45 68.4159 203.125C68.377 203.132 68.3411 203.151 68.3132 203.179C68.2852 203.207 68.2664 203.243 68.2593 203.282L68.1729 203.822C68.1721 203.85 68.1772 203.879 68.1879 203.905C68.1985 203.931 68.2145 203.955 68.2348 203.975C68.2551 203.994 68.2793 204.01 68.3058 204.02C68.3323 204.03 68.3606 204.034 68.3889 204.033Z" fill="#FAFAFA"/>
<path d="M68.9775 201.007C71.0006 200.682 73.0745 200.948 74.9499 201.773C74.9784 201.785 75.0092 201.789 75.0397 201.786C75.0702 201.783 75.0994 201.772 75.1249 201.755C75.1505 201.738 75.1715 201.715 75.1861 201.688C75.2008 201.661 75.2087 201.631 75.2091 201.601V201.001C75.2103 200.968 75.2011 200.935 75.1827 200.907C75.1643 200.879 75.1377 200.857 75.1065 200.845C74.5665 200.596 72.6657 199.446 69.0099 200.126C68.9717 200.132 68.9364 200.15 68.9091 200.177C68.8818 200.204 68.8641 200.239 68.8587 200.278L68.7777 200.818C68.7768 200.844 68.7815 200.87 68.7914 200.894C68.8013 200.918 68.8161 200.939 68.835 200.957C68.8539 200.975 68.8764 200.989 68.9009 200.997C68.9255 201.006 68.9516 201.009 68.9775 201.007Z" fill="#FAFAFA"/>
<path d="M65.1812 210.005C65.1812 212.052 65.381 213.44 66.4988 214.941C67.919 216.863 73.022 218.564 75.1388 215.605C76.1864 214.136 76.3916 212.446 76.4456 210.745C74.9444 208.612 67.2224 208.034 65.1812 210.005Z" fill="#FAFAFA"/>
<path d="M69.35 107.033C68.0594 120.241 68.6696 136.09 68.378 144.59C68.0864 153.089 67.109 158.894 67.3412 165.353C67.7678 177.065 68.1512 189.302 68.1512 189.302C68.1512 189.302 73.049 191.462 77.234 189.987C77.234 189.987 81.1814 165.266 82.094 158.43C83.4224 148.71 85.5176 132.699 85.5176 132.699L87.8936 150.978C87.3566 155.503 87.3856 160.078 87.98 164.597C88.574 168.863 91.1174 185.041 91.1174 185.041C91.1174 185.041 96.701 187.471 100.357 183.815C100.357 183.815 102.144 153.521 102.268 149.585C102.441 144.007 102.349 101.865 102.528 98.1875L69.35 107.033Z" fill="#0071CE"/>
<g opacity="0.35">
<path d="M69.35 107.033C68.0594 120.241 68.6696 136.09 68.378 144.59C68.0864 153.089 67.109 158.894 67.3412 165.353C67.7678 177.065 68.1512 189.302 68.1512 189.302C68.1512 189.302 73.049 191.462 77.234 189.987C77.234 189.987 81.1814 165.266 82.094 158.43C83.4224 148.71 85.5176 132.699 85.5176 132.699L87.8936 150.978C87.3566 155.503 87.3856 160.078 87.98 164.597C88.574 168.863 91.1174 185.041 91.1174 185.041C91.1174 185.041 96.701 187.471 100.357 183.815C100.357 183.815 102.144 153.521 102.268 149.585C102.441 144.007 102.349 101.865 102.528 98.1875L69.35 107.033Z" fill="black"/>
</g>
<path opacity="0.3" d="M85.5393 132.696L86.7489 122.905C86.7489 122.905 93.2883 120.875 95.9667 116.398C94.2981 121.896 88.2663 124.498 88.2663 124.498L86.4249 134.046L87.9153 150.996L85.5393 132.696Z" fill="black"/>
<path d="M69.6902 63.7774C69.6902 63.7774 67.1089 69.7498 67.1521 74.923C67.1899 79.8424 69.1555 86.9218 69.4093 94.5682C69.5929 100.044 68.8693 110.817 68.8693 110.817C74.4313 115.65 97.0303 117.723 102.857 110.622C102.857 110.622 102.857 98.7964 102.76 89.5138C102.695 83.2984 102.22 75.9868 101.68 72.6712C100.384 64.987 98.8825 64.1824 97.3975 63.0484C94.4977 62.3086 91.3441 61.4284 91.3441 61.4284C91.3441 61.4284 88.0177 60.397 81.8023 61.0558C80.5387 61.1908 78.3841 61.2016 77.1529 61.558C73.7563 62.5138 69.6902 63.7774 69.6902 63.7774Z" fill="#37474F"/>
<path d="M99.2388 44.638C100.654 41.749 99.5736 37.7908 98.121 35.8846C96.0258 33.136 92.6238 31.8346 87.4074 31.9264C83.4384 31.9966 79.4748 33.4654 78.5514 37.4884C75.3114 38.2984 75.4572 43.5364 76.1484 45.8746C77.5416 50.6212 80.517 54.8278 80.4684 57.2146L99.2388 44.638Z" fill="#263238"/>
<path d="M98.3263 55.6191C97.6837 57.8709 96.6361 59.4801 94.5463 59.7123C93.4467 59.7722 92.3439 59.7288 91.2523 59.5827L91.2037 62.4609C92.0947 64.7829 91.9381 67.8339 90.8365 72.8613C88.0285 68.6601 82.7905 65.7441 80.3713 62.5635L80.5117 52.8435C80.5117 52.8435 79.1671 54.2367 77.1259 52.7733C76.306 52.1053 75.7413 51.1751 75.5269 50.1394C75.3125 49.1038 75.4615 48.0258 75.9487 47.0871C77.0881 44.9271 79.1401 45.9369 79.7287 46.6335C80.3173 47.3301 81.0139 48.4857 81.5809 48.4695C82.4503 48.4695 82.6987 47.7351 82.9363 47.2059C83.4832 45.8581 83.7779 44.4213 83.8057 42.9669C84.4363 42.6764 85.009 42.2739 85.4959 41.7789C86.3751 40.9266 86.929 39.794 87.0619 38.5767C91.6357 37.3671 96.7819 38.2689 98.6017 39.8025C99.5953 41.7519 99.4603 46.4013 99.3145 48.9501C99.2671 51.2059 98.9351 53.4466 98.3263 55.6191Z" fill="#FFA8A7"/>
<path d="M91.22 59.5563C88.9142 59.3241 84.3242 58.0335 83.12 56.6889C81.9158 55.3443 81.5378 52.6875 81.5378 52.6875C81.5378 52.6875 81.5702 56.0247 82.4612 57.5475C83.3522 59.0703 85.5716 60.1017 87.0188 60.5283C88.466 60.9549 91.166 61.4301 91.166 61.4301L91.22 59.5563Z" fill="#F28F8F"/>
<path d="M99.1471 51.3035C99.0661 52.4159 97.2193 52.7291 94.8271 52.1675C93.6546 51.9121 92.4462 51.8664 91.2577 52.0325C90.2479 52.1351 89.1463 52.5725 87.4399 52.5725C86.853 52.5878 86.2714 52.4571 85.7474 52.1923C85.2234 51.9275 84.7733 51.5367 84.4375 51.0551C83.4655 49.6889 83.4277 46.7351 83.6113 44.9531L80.2849 47.2859C80.7595 48.1136 81.0968 49.0126 81.2839 49.9481C81.6241 51.5681 81.0571 53.5499 81.9481 55.9421C83.0605 58.9121 88.2337 60.3809 92.3647 60.5321C95.5021 60.6455 97.0789 59.4521 97.9591 58.2695C98.7205 57.2435 99.2119 54.2573 99.1471 51.3035Z" fill="#263238"/>
<path d="M90.7176 53.2891L93.0072 53.7265C92.985 53.8789 92.9324 54.0253 92.8525 54.157C92.7727 54.2887 92.6671 54.4031 92.5422 54.4932C92.4173 54.5834 92.2756 54.6475 92.1254 54.6818C91.9752 54.7162 91.8197 54.72 91.668 54.6931C91.3586 54.6278 91.0865 54.445 90.9092 54.183C90.7319 53.9211 90.6633 53.6006 90.7176 53.2891Z" fill="#9A4A4D"/>
<path d="M90.7879 46.9245C90.7678 47.1139 90.6927 47.2934 90.572 47.4407C90.4512 47.588 90.29 47.6969 90.1082 47.7538C89.9264 47.8108 89.732 47.8134 89.5487 47.7613C89.3655 47.7092 89.2014 47.6047 89.0768 47.4606C88.9522 47.3165 88.8724 47.1391 88.8472 46.9503C88.822 46.7614 88.8526 46.5694 88.9351 46.3977C89.0177 46.226 89.1486 46.0821 89.3118 45.9838C89.475 45.8856 89.6634 45.8371 89.8538 45.8445C89.9868 45.8519 90.1169 45.886 90.2365 45.9448C90.356 46.0035 90.4626 46.0857 90.5497 46.1865C90.6369 46.2873 90.7029 46.4045 90.7438 46.5313C90.7847 46.6581 90.7997 46.7918 90.7879 46.9245Z" fill="#263238"/>
<path d="M89.6863 42.0335L87.3265 42.8813C87.2181 42.5588 87.2391 42.2068 87.3852 41.8995C87.5312 41.5922 87.791 41.3537 88.1095 41.2343C88.2653 41.179 88.4307 41.156 88.5957 41.1666C88.7607 41.1772 88.9218 41.2212 89.0692 41.2959C89.2167 41.3706 89.3474 41.4746 89.4535 41.6013C89.5596 41.7281 89.6388 41.8751 89.6863 42.0335Z" fill="#263238"/>
<path d="M98.6342 43.2025L96.2258 42.4303C96.2671 42.2705 96.3407 42.1209 96.442 41.9906C96.5433 41.8603 96.6702 41.7521 96.8148 41.6727C96.9595 41.5933 97.1189 41.5443 97.2832 41.5288C97.4475 41.5133 97.6133 41.5315 97.7702 41.5825C98.0959 41.6882 98.3679 41.9161 98.529 42.2182C98.6901 42.5203 98.7278 42.8731 98.6342 43.2025Z" fill="#263238"/>
<path d="M98.2399 47.1085C98.2249 47.2997 98.154 47.4822 98.036 47.6334C97.918 47.7846 97.7582 47.8977 97.5764 47.9587C97.3946 48.0197 97.1988 48.0259 97.0136 47.9765C96.8283 47.927 96.6616 47.8242 96.5343 47.6807C96.4071 47.5373 96.3248 47.3596 96.2978 47.1697C96.2708 46.9799 96.3003 46.7863 96.3825 46.613C96.4647 46.4398 96.5961 46.2945 96.7602 46.1954C96.9244 46.0963 97.1141 46.0476 97.3057 46.0555C97.5689 46.0722 97.8148 46.1923 97.9898 46.3895C98.1648 46.5868 98.2547 46.8452 98.2399 47.1085Z" fill="#263238"/>
<path d="M85.8632 43.5391L78.5354 45.8611C79.025 46.052 79.4686 46.3446 79.8368 46.7197L85.7768 44.9647L85.8632 43.5391Z" fill="#455A64"/>
<path d="M100.767 43.9666L100.351 43.9019C98.9469 43.6583 97.5112 43.6583 96.1068 43.9019C94.7298 44.2799 94.2222 44.7281 93.477 44.7119C92.7318 44.6957 92.2026 44.1989 90.777 43.7399C89.6538 43.3727 87.7368 43.3564 86.268 43.4644L85.809 43.5022C85.6465 43.5539 85.506 43.6586 85.41 43.7996C85.3141 43.9406 85.2682 44.1097 85.2798 44.2799C85.3148 44.61 85.4442 44.9231 85.6524 45.1816C85.7192 45.292 85.7616 45.4154 85.7766 45.5434C85.8408 46.375 85.9709 47.2002 86.1654 48.0113C86.2906 48.3399 86.4734 48.6434 86.7054 48.9077C86.7909 49.0057 86.8849 49.0961 86.9863 49.1777L87.1483 49.3019C87.3018 49.4065 87.4666 49.4934 87.6396 49.561L87.7207 49.5934L87.8557 49.6366L87.9798 49.6799C88.1272 49.7185 88.2769 49.7473 88.428 49.7663H88.617H88.8546C89.5067 49.8453 90.1674 49.7219 90.7469 49.4128C91.3265 49.1037 91.797 48.6238 92.0946 48.0383C92.6346 47.1257 92.586 45.8081 93.4446 45.8405H93.5257H93.6013C94.2223 46.0079 94.0656 47.2067 94.4058 48.0869C94.531 48.4367 94.7135 48.7634 94.9458 49.0534C94.989 49.1074 95.0376 49.1561 95.0808 49.2047L95.1564 49.2749C95.179 49.301 95.2043 49.3245 95.232 49.345L95.3022 49.4044L95.3778 49.4639L95.4372 49.5071L95.4804 49.5341C95.7025 49.6771 95.9445 49.7863 96.1986 49.8581H96.2689C96.5618 49.9341 96.8626 49.9757 97.1652 49.9822C97.7335 50.031 98.3028 49.9011 98.7936 49.6107C99.2844 49.3203 99.6723 48.8838 99.903 48.3622C100.198 47.5697 100.431 46.7555 100.6 45.9269C100.633 45.8081 100.694 45.6989 100.778 45.6083C101.011 45.3606 101.168 45.0514 101.231 44.7172C101.248 44.5584 101.211 44.3987 101.127 44.2629C101.043 44.1272 100.916 44.023 100.767 43.9666ZM91.6248 47.1634C91.4939 47.6428 91.2409 48.0801 90.8904 48.4325C90.6134 48.6887 90.2858 48.8841 89.9286 49.0059C89.5715 49.1278 89.1927 49.1734 88.8168 49.1399C88.4435 49.1492 88.0741 49.0615 87.7448 48.8855C87.4154 48.7095 87.1373 48.451 86.9377 48.1355C86.9159 48.1043 86.8961 48.0718 86.8783 48.0383L86.8296 47.9465L86.7864 47.86L86.754 47.7791C86.7519 47.7575 86.7519 47.7358 86.754 47.7143C86.7519 47.6963 86.7519 47.6782 86.754 47.6603L86.7216 47.5684C86.6897 47.4782 86.6627 47.3862 86.6407 47.2931C86.6407 47.2391 86.6136 47.185 86.6028 47.131C86.592 47.077 86.5704 46.9421 86.5542 46.8665C86.5572 46.8504 86.5572 46.8339 86.5542 46.8178V46.7693C86.4516 46.1159 86.3706 44.8307 86.7054 44.5553C87.0402 44.2799 87.9097 44.0153 89.2812 44.1827H89.4324C89.6376 44.2151 89.8482 44.2582 90.0534 44.3122L90.2964 44.3825C90.5003 44.4447 90.7005 44.5186 90.8958 44.6038L91.0795 44.6903L91.2792 44.7928H91.317C91.3423 44.804 91.3659 44.8186 91.3872 44.8361C91.5426 44.923 91.6771 45.0428 91.7814 45.1871C91.9704 45.6029 91.83 46.4398 91.6248 47.1634ZM99.7248 47.131C99.5844 47.6386 99.2767 48.751 98.2777 49.1722C97.9496 49.3156 97.5931 49.3821 97.2354 49.3666C96.8389 49.3958 96.4421 49.3149 96.0886 49.1329C95.7351 48.9509 95.4387 48.6749 95.232 48.3353L95.1996 48.2705C95.1839 48.2489 95.1712 48.2253 95.1618 48.2003V48.1678L95.1133 48.0599L95.0646 47.9411C95.0677 47.9214 95.0677 47.9013 95.0646 47.8816C95.067 47.871 95.067 47.8599 95.0646 47.8493C95.0626 47.8313 95.0626 47.8132 95.0646 47.7953V47.7575C95.0199 47.5982 94.9874 47.4357 94.9674 47.2715C94.8756 46.5479 94.854 45.7001 95.1402 45.3113C95.4264 44.9225 96.4795 44.5175 97.4677 44.4203C97.6999 44.4203 97.9104 44.4203 98.1102 44.4203H98.2668H98.4828H98.5639H98.6664H98.8392L99.1524 44.4905H99.228H99.282H99.3577L99.444 44.5228L99.5898 44.5877H99.6168C99.7371 44.6463 99.8466 44.7248 99.9408 44.8199C100.141 45.2195 99.8868 46.4884 99.7086 47.131H99.7248Z" fill="#455A64"/>
<path d="M96.2365 50.4669L92.7427 51.1797V46.2603C92.7952 46.1361 92.8843 46.0308 92.9981 45.9584C93.112 45.8861 93.2451 45.8501 93.3799 45.8553H93.4663C93.4894 45.8503 93.5133 45.8503 93.5365 45.8553C93.6511 45.8826 93.7514 45.9519 93.8173 46.0497C94.2279 46.5612 94.5998 47.1027 94.9297 47.6697C95.1479 48.0154 95.341 48.3763 95.5075 48.7497C95.6857 49.1115 95.8531 49.4787 95.9935 49.8297C96.1339 50.1807 96.2365 50.4669 96.2365 50.4669Z" fill="#F28F8F"/>
<path d="M90.8257 72.8355C90.3775 72.1821 88.5577 70.1355 86.4085 70.6755C84.4753 71.1399 83.2603 73.1541 83.2603 73.1541C83.2603 73.1541 80.6683 71.1345 78.5785 66.6039C77.8876 64.9932 77.4172 63.2967 77.1799 61.5603C78.2869 60.5451 79.3399 59.2491 79.7449 59.0169C79.8456 58.9476 79.9614 58.9036 80.0827 58.8886C80.2039 58.8736 80.327 58.8879 80.4415 58.9305V60.0105C80.9579 61.9897 82.0033 63.7911 83.4655 65.2215C85.9387 67.7649 90.2371 69.1581 90.8257 72.8355Z" fill="#263238"/>
<path d="M90.8257 72.8339C91.1827 71.2396 91.3405 69.6071 91.2955 67.9739C91.2091 66.6347 91.1713 63.1841 91.1713 63.1841L91.2145 61.0781C91.2145 61.0781 91.9003 61.1591 92.5861 62.3201C93.3714 63.5425 94.0145 64.8506 94.5031 66.2189C95.1326 67.7875 95.5415 69.4358 95.7181 71.1167C94.2655 69.4211 92.9911 70.2257 92.3917 71.0195C91.7923 71.8133 90.8257 72.8339 90.8257 72.8339Z" fill="#263238"/>
<path d="M92.2028 54.6616C92.1754 54.4966 92.1145 54.3389 92.0237 54.1985C91.9329 54.058 91.8141 53.9377 91.6749 53.845C91.5356 53.7524 91.3788 53.6893 91.2142 53.6598C91.0495 53.6303 90.8806 53.6349 90.7178 53.6734C90.7507 53.9211 90.8599 54.1524 91.0302 54.3353C91.2005 54.5182 91.4234 54.6435 91.6682 54.694C91.8463 54.7283 92.0301 54.7171 92.2028 54.6616Z" fill="#F28F8F"/>
<path d="M82.0399 118.712C81.9913 118.485 81.7807 118.436 81.5755 118.388C81.1381 118.285 80.7115 118.199 80.2795 118.085C79.6105 117.875 78.9573 117.616 78.3247 117.313C77.4427 116.984 76.541 116.709 75.6247 116.492C75.1914 116.35 74.7675 116.181 74.3557 115.985C73.6866 115.714 73.1014 115.271 72.6601 114.7C72.2429 114.169 71.881 113.597 71.5801 112.993C71.3496 112.537 71.1493 112.066 70.9807 111.584C68.5183 111.472 66.4195 112.999 64.6843 116.163C64.9651 116.644 65.2243 117.076 65.4511 117.443C67.3411 120.483 67.1413 123.475 70.1383 126.623C72.5136 126.279 74.6617 125.024 76.1269 123.124C76.5718 122.511 76.9349 121.843 77.2069 121.136C77.0017 120.866 76.5373 120.197 77.2771 120.154C77.4912 120.142 77.7057 120.142 77.9197 120.154C78.4111 120.197 78.9025 120.235 79.3885 120.24C80.0231 120.315 80.6657 120.2 81.2353 119.911C81.6403 119.668 82.1695 119.29 82.0399 118.712Z" fill="#FFA8A7"/>
<path d="M70.16 126.629C72.5283 126.279 74.6679 125.022 76.127 123.124C76.5504 122.542 76.8954 121.907 77.153 121.234C76.6116 122.234 75.8775 123.117 74.993 123.832C73.1408 125.452 71.4938 125.517 70.5164 125.252C69.539 124.987 68.459 123.988 67.8164 123C68.3659 124.345 69.1606 125.575 70.16 126.629Z" fill="#F28F8F"/>
<path d="M70.0142 63.6797C64.436 65.2997 62.8484 65.9207 61.3742 70.3487C60.2564 73.6859 56.3522 87.0887 55.4342 90.8147C54.5162 94.5407 54.4568 95.1347 56.309 100.162C58.2908 105.562 64.6952 116.616 64.6952 116.616C66.488 114.456 68.9558 112.712 71.3048 112.388L66.9848 94.7729L72.6548 79.0481C72.6548 79.0481 74.6096 68.4479 70.0142 63.6797Z" fill="#263238"/>
</svg>
