<svg width="20" height="20" viewBox="0 0 20 20" fill="none" xmlns="http://www.w3.org/2000/svg">
<path d="M18.0889 17.1924C18.2822 17.3857 18.2822 17.7402 18.0889 17.9336C17.9922 18.0303 17.8633 18.0625 17.7344 18.0625C17.5732 18.0625 17.4443 18.0303 17.3154 17.9336L12.7715 13.3574C11.5791 14.3887 10.0645 14.9688 8.4209 14.9688C4.74707 14.9688 1.75 11.9717 1.75 8.26562C1.75 4.5918 4.71484 1.5625 8.4209 1.5625C12.0947 1.5625 15.124 4.5918 15.124 8.26562C15.124 9.94141 14.5439 11.4561 13.5127 12.6484L18.0889 17.1924ZM8.45312 13.9375C11.5791 13.9375 14.125 11.4238 14.125 8.26562C14.125 5.13965 11.5791 2.59375 8.45312 2.59375C5.29492 2.59375 2.78125 5.13965 2.78125 8.26562C2.78125 11.3916 5.29492 13.9375 8.45312 13.9375Z" fill="#9EA7B3"/>
</svg>
