<svg width="273" height="268" viewBox="0 0 273 268" fill="none" xmlns="http://www.w3.org/2000/svg">
<path d="M234.143 139.232C183.223 109.834 100.938 109.834 50.347 139.232C-0.244089 168.63 0.0229588 216.295 50.9152 245.693C101.808 275.091 184.126 275.096 234.717 245.693C285.308 216.289 285.07 168.63 234.143 139.232Z" fill="#EBEBEB"/>
<path d="M53.6881 191.091L96.1996 166.562L147.842 196.364C148.15 196.542 148.405 196.798 148.583 197.106C148.761 197.414 148.854 197.764 148.854 198.119C148.854 198.475 148.761 198.825 148.583 199.133C148.405 199.441 148.15 199.697 147.842 199.875L133.893 207.921C142.484 206.892 151.757 208.307 158.399 212.165C168.893 218.262 168.836 228.148 158.279 234.25C147.723 240.353 130.649 240.347 120.154 234.25C113.507 230.387 111.097 225.006 112.91 220.046L110.37 221.506C108.832 222.394 107.087 222.861 105.31 222.861C103.534 222.861 101.789 222.394 100.251 221.506L53.6881 194.602C53.3802 194.424 53.1245 194.168 52.9468 193.86C52.7691 193.552 52.6755 193.202 52.6755 192.847C52.6755 192.491 52.7691 192.142 52.9468 191.833C53.1245 191.525 53.3802 191.269 53.6881 191.091Z" fill="#DBD9D9"/>
<path d="M52.3927 235.5L80.7451 219.131C80.9362 219.021 81.095 218.862 81.2054 218.671C81.3158 218.48 81.374 218.263 81.374 218.043C81.374 217.822 81.3158 217.605 81.2054 217.414C81.095 217.223 80.9362 217.065 80.7451 216.955L55.7449 202.432C55.5544 202.32 55.3378 202.262 55.1171 202.262C54.8965 202.262 54.6798 202.32 54.4893 202.432L25.5005 219.165C25.3093 219.275 25.1505 219.433 25.0401 219.624C24.9297 219.815 24.8716 220.032 24.8716 220.253C24.8716 220.473 24.9297 220.69 25.0401 220.881C25.1505 221.072 25.3093 221.231 25.5005 221.341L49.8586 235.494C50.2427 235.719 50.6797 235.838 51.1248 235.839C51.57 235.84 52.0075 235.723 52.3927 235.5Z" fill="#E6E6E6"/>
<path d="M252.94 211.364C254.292 212.148 254.298 213.415 252.94 214.205L247.411 217.392C246.654 217.779 245.815 217.98 244.965 217.98C244.115 217.98 243.276 217.779 242.519 217.392L181.86 182.341C180.502 181.563 180.496 180.29 181.86 179.5L187.388 176.307C188.146 175.92 188.984 175.719 189.834 175.719C190.685 175.719 191.523 175.92 192.28 176.307L252.94 211.364Z" fill="#DBD9D9"/>
<path d="M235.916 216.376C237.274 217.16 237.28 218.427 235.916 219.216L230.388 222.41C229.63 222.796 228.792 222.998 227.942 222.998C227.091 222.998 226.253 222.796 225.496 222.41L173.677 192.478C172.325 191.699 172.314 190.427 173.677 189.637L179.206 186.444C179.963 186.057 180.801 185.855 181.652 185.855C182.502 185.855 183.34 186.057 184.098 186.444L235.916 216.376Z" fill="#DBD9D9"/>
<path d="M60.0742 55.5724L60.114 70.7032L61.9492 71.7714L61.8981 54.5156L60.0742 55.5724Z" fill="#F0F0F0"/>
<path d="M40.3188 82.135L40.3245 84.2543L61.9496 71.7713L60.1144 70.7031L40.3188 82.135Z" fill="#F5F5F5"/>
<path d="M64.1369 50.6953L38.0515 65.7408L38.114 88.0648L64.1709 73.0193L64.1369 50.6953ZM40.3243 84.2523V82.1329L40.2731 67.0022L60.0743 55.5703L61.8982 54.5419L61.9494 71.7977L40.3243 84.2523Z" fill="#E0E0E0"/>
<path d="M64.109 50.6971L62.2737 49.6289L36.2168 64.6744L38.052 65.7369L64.109 50.6971Z" fill="#F5F5F5"/>
<path d="M36.2168 64.6758L36.2793 87.0168L38.1145 88.085L38.052 65.7383L36.2168 64.6758Z" fill="#F0F0F0"/>
<path d="M60.0576 89.5334L60.1031 104.664L61.9383 105.727L61.8872 88.4766L60.0576 89.5334Z" fill="#F0F0F0"/>
<path d="M40.3071 116.09L40.3128 118.215L61.9379 105.727L60.1027 104.664L40.3071 116.09Z" fill="#F5F5F5"/>
<path d="M64.0977 84.6562L38.0408 99.6961L38.1033 122.037L64.1375 106.992L64.0977 84.6562ZM40.3135 118.213V116.088L40.2737 100.957L60.0693 89.5313L61.8988 88.4744L61.95 105.725L40.3135 118.213Z" fill="#E0E0E0"/>
<path d="M64.0972 84.6524L62.262 83.5898L36.2051 98.6297L38.0403 99.6979L64.0972 84.6524Z" fill="#F5F5F5"/>
<path d="M36.2051 98.6289L36.2676 120.97L38.1028 122.038L38.0403 99.6971L36.2051 98.6289Z" fill="#F0F0F0"/>
<path d="M53.785 61.3164L59.1827 65.5721L59.1941 69.7199L41.2338 80.0892L41.2224 75.9358L44.6486 69.1403L47.7224 71.5267L46.6315 74.9017L48.2111 71.9017L53.785 61.3164Z" fill="#E0E0E0"/>
<path d="M47.8816 63.4134C48.7282 62.9248 49.4157 63.3168 49.4214 64.2884C49.3926 64.818 49.2391 65.3333 48.9735 65.7924C48.7079 66.2515 48.3377 66.6415 47.893 66.9305C47.0464 67.4191 46.3589 67.0271 46.3589 66.0555C46.3866 65.5262 46.539 65.0111 46.8036 64.552C47.0683 64.0928 47.4376 63.7027 47.8816 63.4134Z" fill="#E0E0E0"/>
<path d="M53.7676 95.2773L59.1653 99.5274L59.1824 103.681L41.2221 114.05L41.2107 109.897L44.6312 103.096L47.705 105.482L46.6198 108.857L48.1937 105.863L53.7676 95.2773Z" fill="#E0E0E0"/>
<path d="M47.8699 97.3665C48.7165 96.8779 49.404 97.2699 49.404 98.2415C49.3776 98.7711 49.2258 99.2867 48.961 99.7461C48.6963 100.205 48.3262 100.595 47.8813 100.884C47.0347 101.372 46.3472 100.98 46.3472 100.009C46.3736 99.4791 46.5254 98.9634 46.7901 98.504C47.0549 98.0447 47.425 97.6548 47.8699 97.3665Z" fill="#E0E0E0"/>
<path d="M253.865 74.3643C253.377 73.358 252.597 72.5223 251.626 71.9666L193.296 38.7846C193.027 38.6815 192.743 38.6239 192.455 38.6141C189.455 38.5573 186.438 41.3812 186.012 42.8698C185.916 43.0579 185.865 43.2663 185.865 43.4778V169.586C185.864 170.571 186.125 171.538 186.62 172.39C187.115 173.241 187.827 173.946 188.683 174.433L247.013 207.672C247.084 207.707 247.158 207.737 247.234 207.763C250.717 209.24 254.422 206.172 254.422 202.956V76.8188C254.426 75.9689 254.235 75.1293 253.865 74.3643Z" fill="#263238"/>
<path d="M186.018 42.8737C186.444 41.3851 189.461 38.5612 192.461 38.618C192.749 38.6278 193.033 38.6854 193.302 38.7885L251.638 71.9648C252.491 72.4571 253.201 73.1627 253.699 74.0124C254.197 74.8621 254.466 75.8266 254.479 76.8114V202.948C254.479 206.164 250.774 209.232 247.291 207.755C247.215 207.73 247.141 207.699 247.069 207.664L188.683 174.431C187.828 173.944 187.117 173.238 186.623 172.387C186.129 171.536 185.87 170.569 185.87 169.585V43.4817C185.871 43.2702 185.921 43.0618 186.018 42.8737Z" fill="#455A64"/>
<path d="M246.308 90.1491C246.307 89.6566 246.176 89.1732 245.929 88.7473C245.681 88.3215 245.326 87.9682 244.899 87.7229L190.74 56.916C190.528 56.7957 190.289 56.7331 190.045 56.7344C189.802 56.7357 189.563 56.8008 189.352 56.9233C189.142 57.0458 188.967 57.2213 188.846 57.4324C188.724 57.6435 188.66 57.8827 188.66 58.1262V159.86C188.661 160.351 188.792 160.834 189.039 161.26C189.287 161.685 189.642 162.037 190.07 162.28L244.252 193.144C244.464 193.264 244.704 193.326 244.949 193.325C245.193 193.323 245.432 193.257 245.643 193.134C245.854 193.011 246.029 192.835 246.151 192.624C246.272 192.412 246.337 192.172 246.337 191.928L246.308 90.1491Z" fill="#0071CE"/>
<path opacity="0.2" d="M246.308 90.1491C246.307 89.6566 246.176 89.1732 245.929 88.7473C245.681 88.3215 245.326 87.9682 244.899 87.7229L190.74 56.916C190.528 56.7957 190.289 56.7331 190.045 56.7344C189.802 56.7357 189.563 56.8008 189.352 56.9233C189.142 57.0458 188.967 57.2213 188.846 57.4324C188.724 57.6435 188.66 57.8827 188.66 58.1262V159.86C188.661 160.351 188.792 160.834 189.039 161.26C189.287 161.685 189.642 162.037 190.07 162.28L244.252 193.144C244.464 193.264 244.704 193.326 244.949 193.325C245.193 193.323 245.432 193.257 245.643 193.134C245.854 193.011 246.029 192.835 246.151 192.624C246.272 192.412 246.337 192.172 246.337 191.928L246.308 90.1491Z" fill="black"/>
<path opacity="0.3" d="M254.444 76.8132V202.95C254.444 206.166 250.74 209.234 247.257 207.757C247.466 207.832 247.691 207.857 247.912 207.827C248.132 207.798 248.343 207.716 248.525 207.589C248.708 207.461 248.857 207.292 248.961 207.095C249.064 206.898 249.119 206.678 249.12 206.456V80.3189C249.117 79.2218 248.788 78.1504 248.177 77.2394L253.888 74.3984C254.252 75.1513 254.443 75.9767 254.444 76.8132Z" fill="black"/>
<path opacity="0.1" d="M192.455 38.6384C192.743 38.6482 193.027 38.7058 193.296 38.8088L251.637 71.9681C252.608 72.5238 253.388 73.3595 253.876 74.3658L248.166 77.2067C247.687 76.4781 247.045 75.8711 246.291 75.434L187.955 42.2691C187.79 42.1756 187.606 42.1171 187.417 42.0972C187.228 42.0774 187.037 42.0965 186.855 42.1535C186.673 42.2105 186.505 42.3041 186.361 42.4285C186.217 42.553 186.1 42.7056 186.018 42.877C186.438 41.3827 189.455 38.5588 192.455 38.6384Z" fill="white"/>
<path d="M210.296 63.1009C209.887 62.8622 209.546 63.0441 209.546 63.5157C209.56 63.7749 209.634 64.0272 209.764 64.2523C209.893 64.4773 210.073 64.6688 210.29 64.8111L221.734 71.4134C222.143 71.6521 222.472 71.4532 222.472 70.9816C222.46 70.7265 222.387 70.478 222.26 70.2567C222.132 70.0353 221.954 69.8476 221.739 69.7089L210.296 63.1009Z" fill="#263238"/>
<path d="M224.677 71.4046C224.268 71.1717 223.933 71.3591 223.933 71.8306C223.947 72.0872 224.022 72.3369 224.15 72.5597C224.278 72.7826 224.457 72.9724 224.671 73.1142C225.08 73.3528 225.421 73.154 225.421 72.6882C225.406 72.431 225.331 72.1808 225.201 71.9579C225.072 71.7349 224.892 71.5454 224.677 71.4046Z" fill="#263238"/>
<path d="M217.354 62.1411C216.535 61.6695 215.871 62.0445 215.871 62.982C215.896 63.4966 216.043 63.9979 216.298 64.4452C216.554 64.8924 216.912 65.273 217.342 65.5559C218.16 66.0275 218.837 65.6412 218.842 64.698C218.812 64.1849 218.661 63.6862 218.403 63.2421C218.144 62.7979 217.785 62.4208 217.354 62.1411Z" fill="#263238"/>
<path d="M217.347 180.911C215.682 179.951 214.336 180.712 214.33 182.616C214.383 183.662 214.681 184.681 215.201 185.59C215.722 186.5 216.449 187.273 217.324 187.849C218.995 188.809 220.375 188.025 220.381 186.105C220.318 185.062 220.011 184.048 219.484 183.146C218.957 182.244 218.225 181.478 217.347 180.911Z" fill="#263238"/>
<path d="M237.433 94.74C237.363 94.171 237.198 93.6178 236.944 93.1036C236.833 92.8789 236.706 92.6624 236.564 92.4559C236.136 91.8262 235.57 91.3017 234.91 90.9218L181.967 60.808L181.887 60.7739C181.817 60.7503 181.745 60.7313 181.671 60.7171C181.516 60.6858 181.358 60.6668 181.2 60.6603C180.339 60.6545 179.489 60.849 178.717 61.2285C177.962 61.6007 177.267 62.0833 176.654 62.6603L176.331 62.9842C175.899 63.4092 175.566 63.923 175.353 64.4898C175.312 64.5733 175.279 64.6609 175.257 64.7512C175.229 64.8452 175.215 64.9429 175.217 65.041V179.547C175.219 180.44 175.457 181.317 175.906 182.089C176.355 182.861 176.999 183.501 177.774 183.945L230.717 214.116C230.783 214.147 230.852 214.174 230.922 214.195C234.081 215.536 237.444 212.752 237.444 209.831V95.3252C237.452 95.1301 237.448 94.9347 237.433 94.74Z" fill="#0071CE"/>
<path d="M175.342 64.5151C175.728 63.1686 178.467 60.6004 181.189 60.6572C181.451 60.6633 181.71 60.7133 181.956 60.8049L234.899 90.9187C235.779 91.4276 236.487 92.1872 236.933 93.1005C237.275 93.7912 237.454 94.5513 237.456 95.3221V209.834C237.456 212.754 234.092 215.516 230.933 214.198C230.863 214.176 230.795 214.15 230.729 214.118L177.774 183.93C176.998 183.488 176.353 182.848 175.904 182.076C175.455 181.303 175.218 180.426 175.217 179.533V65.0663C175.216 64.8755 175.259 64.687 175.342 64.5151Z" fill="#0071CE"/>
<path opacity="0.2" d="M237.433 95.3232V209.835C237.433 212.756 234.069 215.517 230.91 214.199C231.101 214.272 231.307 214.297 231.51 214.273C231.712 214.248 231.906 214.174 232.074 214.058C232.242 213.941 232.379 213.786 232.473 213.604C232.568 213.423 232.616 213.221 232.614 213.017V98.4879C232.612 97.4925 232.316 96.52 231.762 95.6925L236.944 93.1016C237.274 93.7951 237.442 94.555 237.433 95.3232Z" fill="white"/>
<path opacity="0.4" d="M181.183 60.6533C181.445 60.6594 181.704 60.7094 181.95 60.801L234.893 90.9148C235.773 91.4237 236.481 92.1833 236.927 93.0966L231.751 95.6932C231.318 95.0305 230.734 94.4795 230.047 94.0852L177.103 63.9715C176.952 63.8865 176.785 63.8337 176.613 63.8164C176.44 63.7992 176.266 63.8178 176.101 63.8712C175.936 63.9246 175.784 64.0115 175.654 64.1266C175.525 64.2416 175.42 64.3823 175.348 64.5397C175.723 63.1646 178.461 60.5965 181.183 60.6533Z" fill="white"/>
<path opacity="0.3" d="M175.342 64.5151C175.728 63.1686 178.467 60.6004 181.189 60.6572C181.451 60.6633 181.71 60.7133 181.956 60.8049L234.899 90.9187C235.779 91.4276 236.487 92.1872 236.933 93.1005C237.275 93.7912 237.454 94.5513 237.456 95.3221V209.834C237.456 212.754 234.092 215.516 230.933 214.198C230.863 214.176 230.795 214.15 230.729 214.118L177.774 183.93C176.998 183.488 176.353 182.848 175.904 182.076C175.455 181.303 175.218 180.426 175.217 179.533V65.0663C175.216 64.8755 175.259 64.687 175.342 64.5151Z" fill="white"/>
<path d="M180.547 71.2868L181.137 71.6333L181.149 69.083L180.552 68.7422L180.547 71.2868Z" fill="white"/>
<path d="M179.53 70.7025L180.121 71.0433L180.126 68.9814L179.535 68.6406L179.53 70.7025Z" fill="white"/>
<path d="M178.507 70.1139L179.098 70.4546L179.103 68.9267L178.513 68.5859L178.507 70.1139Z" fill="white"/>
<path d="M177.49 69.5298L178.081 69.8706V68.8369L177.49 68.4961V69.5298Z" fill="white"/>
<path d="M182.751 72.5678L186.382 74.6644L186.388 72.5224L182.757 70.4258L182.751 72.5678Z" fill="white"/>
<path d="M188.189 75.7028L190.001 76.7482L190.007 74.6119L188.195 73.5664L188.189 75.7028Z" fill="white"/>
<path d="M225.649 97.0609L225.655 95.3398L227.603 96.4645L225.655 95.3398L225.649 97.0609Z" fill="white"/>
<path d="M225.649 97.0609L227.598 98.1855L227.603 96.4645L225.655 95.3398L225.649 97.0609Z" fill="#0071CE"/>
<path d="M228.979 97.5181V96.8477L225.297 94.7227V97.2681L228.979 99.3931V98.7227L229.45 98.9954V97.7908L228.979 97.5181ZM227.598 98.1886L225.649 97.0522V95.3477L227.598 96.484V98.1886Z" fill="white"/>
<path d="M220.023 94.0444L223.654 96.1353L223.66 93.9989L220.029 91.9023L220.023 94.0444Z" fill="white"/>
<path d="M202.7 83.9137L206.331 86.0103L206.337 83.8739L202.706 81.7773L202.7 83.9137Z" fill="white"/>
<path d="M222.933 104.266L169.586 73.4649C169.433 73.3584 169.256 73.2913 169.071 73.2695C168.885 73.2477 168.697 73.2719 168.524 73.3399H168.495L167.359 73.9876L168.058 74.6808L168.018 89.9138V90.2718V94.3797C168.047 94.9145 168.201 95.435 168.469 95.8989C168.736 96.3629 169.109 96.7573 169.558 97.0502L220.825 126.704L222.797 128.647L223.899 128.016C223.939 127.998 223.977 127.975 224.013 127.948H224.064C224.188 127.832 224.285 127.69 224.347 127.531C224.409 127.373 224.434 127.203 224.422 127.033V123.272V122.567L224.467 106.982C224.446 106.44 224.296 105.911 224.029 105.438C223.762 104.966 223.386 104.564 222.933 104.266Z" fill="#0071CE"/>
<path opacity="0.2" d="M222.933 104.266L169.586 73.4649C169.433 73.3584 169.256 73.2913 169.071 73.2695C168.885 73.2477 168.697 73.2719 168.524 73.3399H168.495L167.359 73.9876L168.058 74.6808L168.018 89.9138V90.2718V94.3797C168.047 94.9145 168.201 95.435 168.469 95.8989C168.736 96.3629 169.109 96.7573 169.558 97.0502L220.825 126.704L222.797 128.647L223.899 128.016C223.939 127.998 223.977 127.975 224.013 127.948H224.064C224.188 127.832 224.285 127.69 224.347 127.531C224.409 127.373 224.434 127.203 224.422 127.033V123.272V122.567L224.467 106.982C224.446 106.44 224.296 105.911 224.029 105.438C223.762 104.966 223.386 104.564 222.933 104.266Z" fill="black"/>
<path d="M221.791 104.907C222.24 105.2 222.613 105.595 222.88 106.059C223.148 106.522 223.302 107.043 223.331 107.578L223.286 123.157L166.848 90.5776V91.2879L223.286 123.862V127.618C223.286 128.601 222.587 128.998 221.734 128.504L168.376 97.7254C167.929 97.4331 167.556 97.0396 167.288 96.5767C167.021 96.1137 166.866 95.5944 166.836 95.0606L166.893 75.0094C166.893 74.0321 167.586 73.6344 168.444 74.123L221.791 104.907Z" fill="#0071CE"/>
<path d="M223.286 123.158V123.868L166.848 91.2884V90.5781L223.286 123.158Z" fill="#0071CE"/>
<g opacity="0.2">
<path d="M223.286 123.158V123.868L166.848 91.2884V90.5781L223.286 123.158Z" fill="white"/>
</g>
<g opacity="0.6">
<path d="M195.717 109.738L195.711 111.477L168.626 95.8345L168.632 94.1016L195.717 109.738Z" fill="white"/>
</g>
<path d="M178.677 82.1973C178.946 82.3731 179.169 82.6098 179.329 82.8883C179.489 83.1667 179.581 83.4789 179.597 83.7996V94.2201C179.597 94.7883 179.182 95.044 178.665 94.7485L169.603 89.5098C169.333 89.3359 169.109 89.1006 168.948 88.823C168.787 88.5455 168.694 88.2337 168.677 87.9133L168.705 77.4928C168.705 76.9246 169.126 76.6632 169.637 76.9587L178.677 82.1973Z" fill="white"/>
<g opacity="0.6">
<path d="M211.796 102.424L211.79 104.702L183.091 88.1339L183.097 85.8555L211.796 102.424Z" fill="white"/>
</g>
<g opacity="0.6">
<path d="M199.097 103.102L199.092 105.38L183.069 96.13L183.075 93.8516L199.097 103.102Z" fill="white"/>
</g>
<g opacity="0.6">
<path d="M211.785 106.424L211.78 108.696L183.081 92.1282L183.086 89.8555L211.785 106.424Z" fill="white"/>
</g>
<g opacity="0.5">
<path d="M221.148 106.814L220.285 107.587L221.302 109.695L220.45 109.2L219.836 107.871L219.273 108.524L218.416 108.024L219.455 107.109L218.626 105.359L219.467 105.842L219.91 106.82L220.296 106.325L221.148 106.814Z" fill="white"/>
</g>
<path d="M222.933 132.645L169.586 101.844C169.432 101.739 169.255 101.672 169.07 101.652C168.885 101.631 168.697 101.656 168.524 101.725H168.495L167.359 102.372L168.058 103.066L168.018 118.299V118.657V122.765C168.048 123.298 168.203 123.818 168.47 124.281C168.738 124.744 169.11 125.137 169.558 125.429L220.865 155.055L222.836 156.998L223.939 156.361C223.979 156.345 224.017 156.324 224.052 156.299L224.103 156.27C224.228 156.154 224.324 156.012 224.386 155.854C224.448 155.695 224.474 155.525 224.461 155.356V151.594V150.884L224.507 135.304C224.472 134.769 224.312 134.248 224.039 133.786C223.765 133.324 223.386 132.933 222.933 132.645Z" fill="#0071CE"/>
<path opacity="0.2" d="M222.933 132.645L169.586 101.844C169.432 101.739 169.255 101.672 169.07 101.652C168.885 101.631 168.697 101.656 168.524 101.725H168.495L167.359 102.372L168.058 103.066L168.018 118.299V118.657V122.765C168.048 123.298 168.203 123.818 168.47 124.281C168.738 124.744 169.11 125.137 169.558 125.429L220.865 155.055L222.836 156.998L223.939 156.361C223.979 156.345 224.017 156.324 224.052 156.299L224.103 156.27C224.228 156.154 224.324 156.012 224.386 155.854C224.448 155.695 224.474 155.525 224.461 155.356V151.594V150.884L224.507 135.304C224.472 134.769 224.312 134.248 224.039 133.786C223.765 133.324 223.386 132.933 222.933 132.645Z" fill="black"/>
<path d="M221.792 133.294C222.24 133.586 222.613 133.981 222.881 134.445C223.148 134.909 223.302 135.429 223.331 135.964L223.286 151.544L166.848 118.964V119.669L223.286 152.271V156.027C223.286 157.01 222.587 157.407 221.735 156.913L168.388 126.112C167.94 125.819 167.568 125.426 167.3 124.963C167.033 124.5 166.878 123.981 166.848 123.447L166.905 103.396C166.905 102.413 167.598 102.015 168.456 102.509L221.792 133.294Z" fill="#0071CE"/>
<path d="M223.286 151.545V152.255L166.848 119.669V118.965L223.286 151.545Z" fill="#0071CE"/>
<g opacity="0.2">
<path d="M223.286 151.545V152.255L166.848 119.669V118.965L223.286 151.545Z" fill="white"/>
</g>
<path d="M178.677 110.584C178.946 110.76 179.169 110.997 179.329 111.275C179.489 111.553 179.581 111.866 179.597 112.186V122.601C179.597 123.169 179.182 123.425 178.665 123.135L169.603 117.897C169.332 117.722 169.107 117.486 168.946 117.207C168.785 116.929 168.693 116.616 168.677 116.294L168.705 105.879C168.705 105.311 169.126 105.05 169.637 105.345L178.677 110.584Z" fill="white"/>
<g opacity="0.6">
<path d="M211.796 130.812L211.79 133.091L183.091 116.517L183.097 114.238L211.796 130.812Z" fill="white"/>
</g>
<g opacity="0.5">
<path d="M221.148 135.197L220.285 135.969L221.302 138.072L220.45 137.583L219.836 136.254L219.273 136.901L218.416 136.407L219.455 135.492L218.626 133.742L219.467 134.225L219.91 135.202L220.296 134.708L221.148 135.197Z" fill="white"/>
</g>
<path opacity="0.6" d="M168.632 122.488L168.626 124.221L184.37 133.312V131.574L168.632 122.488Z" fill="white"/>
<path opacity="0.6" d="M183.087 118.238L183.081 120.517L196.769 128.414V126.136L183.087 118.238Z" fill="white"/>
<path d="M222.933 189.813L169.586 159.012C169.433 158.905 169.256 158.838 169.071 158.816C168.885 158.795 168.697 158.819 168.524 158.887H168.495L167.359 159.534L168.058 160.228L168.018 175.461V175.819V179.927C168.047 180.461 168.201 180.982 168.469 181.446C168.736 181.91 169.109 182.304 169.558 182.597L220.865 212.217L222.836 214.16L223.939 213.529L224.052 213.467L224.103 213.432C224.228 213.316 224.324 213.174 224.386 213.016C224.448 212.857 224.474 212.687 224.461 212.518V208.762V208.052L224.507 192.466C224.472 191.932 224.311 191.413 224.037 190.951C223.764 190.49 223.385 190.1 222.933 189.813Z" fill="#0071CE"/>
<path opacity="0.2" d="M222.933 189.813L169.586 159.012C169.433 158.905 169.256 158.838 169.071 158.816C168.885 158.795 168.697 158.819 168.524 158.887H168.495L167.359 159.534L168.058 160.228L168.018 175.461V175.819V179.927C168.047 180.461 168.201 180.982 168.469 181.446C168.736 181.91 169.109 182.304 169.558 182.597L220.865 212.217L222.836 214.16L223.939 213.529L224.052 213.467L224.103 213.432C224.228 213.316 224.324 213.174 224.386 213.016C224.448 212.857 224.474 212.687 224.461 212.518V208.762V208.052L224.507 192.466C224.472 191.932 224.311 191.413 224.037 190.951C223.764 190.49 223.385 190.1 222.933 189.813Z" fill="black"/>
<path d="M221.792 190.459C222.239 190.752 222.612 191.145 222.879 191.608C223.147 192.071 223.302 192.59 223.331 193.124L223.286 208.71L166.848 176.136V176.846L223.286 209.425V213.187C223.286 214.164 222.587 214.562 221.735 214.073L168.388 183.272C167.94 182.979 167.566 182.585 167.299 182.121C167.031 181.657 166.877 181.136 166.848 180.601L166.905 160.556C166.905 159.573 167.598 159.175 168.456 159.67L221.792 190.459Z" fill="#0071CE"/>
<path d="M223.286 208.71V209.415L166.848 176.835V176.125L223.286 208.71Z" fill="#0071CE"/>
<g opacity="0.2">
<path d="M223.286 208.71V209.415L166.848 176.835V176.125L223.286 208.71Z" fill="white"/>
</g>
<path d="M178.677 167.742C178.945 167.919 179.168 168.155 179.328 168.434C179.488 168.712 179.58 169.024 179.597 169.345V179.765C179.597 180.333 179.182 180.589 178.665 180.294L169.603 175.061C169.333 174.886 169.109 174.649 168.948 174.371C168.787 174.092 168.694 173.78 168.677 173.458L168.682 163.066C168.682 162.498 169.103 162.242 169.614 162.538L178.677 167.742Z" fill="white"/>
<g opacity="0.6">
<path d="M211.796 187.971L211.79 190.249L183.091 173.681L183.097 171.402L211.796 187.971Z" fill="white"/>
</g>
<g opacity="0.5">
<path d="M221.148 192.363L220.285 193.135L221.302 195.238L220.45 194.749L219.836 193.419L219.273 194.067L218.416 193.573L219.455 192.652L218.626 190.902L219.467 191.391L219.91 192.368L220.296 191.868L221.148 192.363Z" fill="white"/>
</g>
<path opacity="0.6" d="M168.632 179.648L168.626 181.387L184.37 190.472V188.734L168.632 179.648Z" fill="white"/>
<path opacity="0.6" d="M183.087 175.402L183.081 177.675L189.269 181.243V178.965L183.087 175.402Z" fill="white"/>
<path d="M222.933 161.033L169.586 130.231C169.434 130.123 169.256 130.055 169.07 130.034C168.884 130.013 168.696 130.04 168.524 130.112H168.495L167.359 130.765L168.058 131.453L168.018 146.692V147.05V151.158C168.048 151.691 168.203 152.211 168.47 152.674C168.738 153.137 169.11 153.53 169.558 153.822L220.865 183.447L222.836 185.391L223.939 184.754L224.052 184.692L224.103 184.663C224.229 184.547 224.326 184.403 224.388 184.244C224.45 184.085 224.475 183.913 224.461 183.743V179.987V179.277L224.507 163.697C224.473 163.161 224.313 162.639 224.04 162.176C223.766 161.713 223.387 161.321 222.933 161.033Z" fill="#0071CE"/>
<path opacity="0.2" d="M222.933 161.033L169.586 130.231C169.434 130.123 169.256 130.055 169.07 130.034C168.884 130.013 168.696 130.04 168.524 130.112H168.495L167.359 130.765L168.058 131.453L168.018 146.692V147.05V151.158C168.048 151.691 168.203 152.211 168.47 152.674C168.738 153.137 169.11 153.53 169.558 153.822L220.865 183.447L222.836 185.391L223.939 184.754L224.052 184.692L224.103 184.663C224.229 184.547 224.326 184.403 224.388 184.244C224.45 184.085 224.475 183.913 224.461 183.743V179.987V179.277L224.507 163.697C224.473 163.161 224.313 162.639 224.04 162.176C223.766 161.713 223.387 161.321 222.933 161.033Z" fill="black"/>
<path d="M221.792 161.682C222.239 161.974 222.612 162.368 222.879 162.83C223.147 163.293 223.302 163.813 223.331 164.347L223.286 179.932L166.848 147.346V148.057L223.286 180.642V184.398C223.286 185.381 222.587 185.773 221.735 185.284L168.388 154.483C167.94 154.191 167.568 153.797 167.3 153.334C167.033 152.871 166.878 152.352 166.848 151.818L166.905 131.767C166.905 130.784 167.598 130.386 168.456 130.88L221.792 161.682Z" fill="#0071CE"/>
<path d="M223.286 179.933V180.643L166.848 148.058V147.348L223.286 179.933Z" fill="#0071CE"/>
<g opacity="0.2">
<path d="M223.286 179.933V180.643L166.848 148.058V147.348L223.286 179.933Z" fill="white"/>
</g>
<g opacity="0.6">
<path d="M188.774 162.563L188.768 164.296L168.626 152.608L168.632 150.875L188.774 162.563Z" fill="white"/>
</g>
<path d="M178.677 138.965C178.945 139.141 179.168 139.378 179.328 139.656C179.488 139.935 179.58 140.247 179.597 140.567V150.988C179.597 151.556 179.182 151.812 178.665 151.516L169.603 146.283C169.332 146.109 169.107 145.873 168.946 145.594C168.785 145.315 168.693 145.002 168.677 144.681L168.705 134.266C168.705 133.698 169.126 133.437 169.637 133.732L178.677 138.965Z" fill="white"/>
<g opacity="0.6">
<path d="M211.796 159.193L211.79 161.472L183.091 144.903L183.097 142.625L211.796 159.193Z" fill="white"/>
</g>
<g opacity="0.6">
<path d="M206.734 164.33L206.728 166.608L183.069 152.903L183.075 150.625L206.734 164.33Z" fill="white"/>
</g>
<g opacity="0.6">
<path d="M211.785 163.193L211.78 165.472L183.081 148.903L183.086 146.625L211.785 163.193Z" fill="white"/>
</g>
<g opacity="0.5">
<path d="M221.148 163.583L220.285 164.356L221.302 166.458L220.45 165.97L219.836 164.64L219.273 165.288L218.416 164.794L219.455 163.879L218.626 162.129L219.467 162.612L219.91 163.589L220.296 163.095L221.148 163.583Z" fill="white"/>
</g>
<path d="M97.3472 198.132L65.4834 179.495C64.474 178.904 63.713 177.967 63.3411 176.857C62.9693 175.748 63.0117 174.542 63.4607 173.461L65.0686 169.598L64.205 171.672C63.7936 172.664 63.7595 173.773 64.109 174.789C64.4586 175.806 65.1677 176.659 66.1027 177.189L100.762 196.797C100.661 197.136 100.484 197.447 100.245 197.707C100.006 197.968 99.7101 198.17 99.3808 198.299C99.0515 198.427 98.6971 198.479 98.3447 198.45C97.9923 198.421 97.6511 198.313 97.3472 198.132Z" fill="#37474F"/>
<path d="M65.7558 159.395L68.5967 161.099L65.0626 169.622L63.4547 173.485C63.0057 174.566 62.9633 175.772 63.3351 176.882C63.707 177.991 64.468 178.928 65.4774 179.52L97.3412 198.156C97.645 198.336 97.9856 198.444 98.3373 198.472C98.6891 198.5 99.0426 198.448 99.3712 198.319C99.6997 198.191 99.9947 197.989 100.234 197.729C100.473 197.47 100.649 197.159 100.75 196.821L103.023 198.099L145.785 173.355L147.165 187.844L144.921 188.179L144.756 187.196C144.688 186.807 144.528 186.441 144.288 186.127C144.048 185.814 143.736 185.563 143.379 185.396C143.021 185.228 142.629 185.15 142.235 185.166C141.841 185.183 141.456 185.294 141.114 185.491L109.591 203.628C108.305 204.368 107.259 205.463 106.577 206.782C105.896 208.101 105.609 209.588 105.75 211.065L105.858 212.202H103.586L103.12 209.452C102.931 208.326 102.496 207.256 101.845 206.319C101.193 205.381 100.342 204.6 99.3526 204.031L62.9319 183.054C62.5853 182.853 62.201 182.727 61.8031 182.683C61.4052 182.638 61.0025 182.677 60.6202 182.796C60.238 182.915 59.8846 183.112 59.5823 183.374C59.28 183.637 59.0353 183.959 58.8637 184.321L55.4149 191.559C55.4149 191.559 54.2785 192.167 53.8467 191.077L65.7558 159.395Z" fill="#455A64"/>
<path d="M106.273 123.672L140.512 150.195C141.556 151.004 142.423 152.019 143.06 153.176C143.697 154.332 144.091 155.607 144.217 156.922L148.052 197.161C147.84 197.358 147.569 197.479 147.281 197.505C146.993 197.53 146.704 197.459 146.461 197.303L139.643 156.905C139.527 156.217 139.265 155.562 138.872 154.986C138.48 154.409 137.968 153.924 137.37 153.564L107.109 135.428C103.143 133.07 102.45 124.734 106.273 123.672Z" fill="#455A64"/>
<path opacity="0.3" d="M106.273 123.672L140.512 150.195C141.556 151.004 142.423 152.019 143.06 153.176C143.697 154.332 144.091 155.607 144.217 156.922L148.052 197.161C147.84 197.358 147.569 197.479 147.281 197.505C146.993 197.53 146.704 197.459 146.461 197.303L139.643 156.905C139.527 156.217 139.265 155.562 138.872 154.986C138.48 154.409 137.968 153.924 137.37 153.564L107.109 135.428C103.143 133.07 102.45 124.734 106.273 123.672Z" fill="white"/>
<path d="M67.051 169.455C67.2033 169.046 67.4951 168.704 67.8749 168.489L102.205 148.671C102.93 148.249 103.755 148.027 104.594 148.027C105.433 148.027 106.257 148.249 106.983 148.671L141.074 168.478C141.456 168.696 141.748 169.042 141.898 169.455C142.875 171.262 143.205 175.364 141.841 177.978C141.661 178.32 141.392 178.606 141.063 178.808L106.75 198.626C106.024 199.046 105.2 199.267 104.361 199.267C103.522 199.267 102.698 199.046 101.972 198.626L67.8806 178.819C67.5453 178.623 67.2777 178.33 67.1135 177.978C65.7442 175.364 66.0737 171.262 67.051 169.455Z" fill="#0071CE"/>
<path opacity="0.3" d="M67.051 169.455C67.2033 169.046 67.4951 168.704 67.8749 168.489L102.205 148.671C102.93 148.249 103.755 148.027 104.594 148.027C105.433 148.027 106.257 148.249 106.983 148.671L141.074 168.478C141.456 168.696 141.748 169.042 141.898 169.455C142.875 171.262 143.205 175.364 141.841 177.978C141.661 178.32 141.392 178.606 141.063 178.808L106.75 198.626C106.024 199.046 105.2 199.267 104.361 199.267C103.522 199.267 102.698 199.046 101.972 198.626L67.8806 178.819C67.5453 178.623 67.2777 178.33 67.1135 177.978C65.7442 175.364 66.0737 171.262 67.051 169.455Z" fill="white"/>
<path opacity="0.3" d="M67.051 169.457C66.8879 169.88 66.8807 170.347 67.0306 170.775C67.1805 171.203 67.4778 171.564 67.8692 171.792L101.96 191.599C102.686 192.019 103.511 192.24 104.349 192.24C105.188 192.24 106.012 192.019 106.739 191.599L141.068 171.775C141.46 171.551 141.758 171.194 141.91 170.769C142.062 170.344 142.058 169.879 141.898 169.457C142.875 171.264 143.205 175.366 141.841 177.98C141.661 178.322 141.392 178.608 141.063 178.809L106.75 198.628C106.024 199.048 105.2 199.269 104.361 199.269C103.522 199.269 102.698 199.048 101.972 198.628L67.8806 178.821C67.5453 178.625 67.2777 178.332 67.1135 177.98C65.7442 175.366 66.0737 171.264 67.051 169.457Z" fill="black"/>
<path d="M64.216 131.82L96.6763 113.07C96.9646 112.902 97.2916 112.812 97.6252 112.809H97.7843C100.75 112.837 103.074 114.604 104.796 116.684C104.823 116.707 104.848 116.734 104.87 116.763C105.042 116.977 105.168 117.225 105.239 117.49L114.551 152.15C114.828 153.134 114.77 154.183 114.386 155.131C114.003 156.079 113.315 156.873 112.432 157.388L79.9774 176.138C79.6335 176.338 79.237 176.427 78.841 176.394C75.1251 176.008 72.9376 173.712 71.841 172.502C71.6329 172.27 71.483 171.991 71.4035 171.69L62.091 137.03C61.8219 136.049 61.8843 135.006 62.2686 134.064C62.6528 133.122 63.3374 132.333 64.216 131.82Z" fill="#0071CE"/>
<path opacity="0.2" d="M64.216 131.82L96.6763 113.07C96.9646 112.902 97.2916 112.812 97.6252 112.809H97.7843C100.75 112.837 103.074 114.604 104.796 116.684C104.823 116.707 104.848 116.734 104.87 116.763C105.042 116.977 105.168 117.225 105.239 117.49L114.551 152.15C114.828 153.134 114.77 154.183 114.386 155.131C114.003 156.079 113.315 156.873 112.432 157.388L79.9774 176.138C79.6335 176.338 79.237 176.427 78.841 176.394C75.1251 176.008 72.9376 173.712 71.841 172.502C71.6329 172.27 71.483 171.991 71.4035 171.69L62.091 137.03C61.8219 136.049 61.8843 135.006 62.2686 134.064C62.6528 133.122 63.3374 132.333 64.216 131.82Z" fill="white"/>
<path opacity="0.1" d="M64.2164 131.82L96.6768 113.07C96.9651 112.902 97.292 112.812 97.6256 112.809H97.7847C100.751 112.837 103.075 114.604 104.796 116.684C104.494 116.352 104.087 116.135 103.643 116.066C103.2 115.998 102.747 116.084 102.359 116.309L69.8982 135.059C68.9754 135.595 68.2666 136.434 67.8925 137.434L62.2107 134.161C62.5919 133.174 63.2998 132.348 64.2164 131.82Z" fill="black"/>
<path opacity="0.2" d="M67.8926 137.402C67.5449 138.31 67.4951 139.305 67.7505 140.243L77.0631 174.903C77.1679 175.297 77.3927 175.648 77.7062 175.909C78.0198 176.169 78.4066 176.326 78.8131 176.357C75.0971 175.971 72.9096 173.675 71.813 172.465C71.605 172.233 71.455 171.954 71.3755 171.653L62.063 136.993C61.8128 136.054 61.8665 135.059 62.2164 134.152L67.8926 137.402Z" fill="black"/>
<path d="M136.063 194.535C135.685 196.525 135.471 198.543 135.421 200.569L134.023 200.001C133.346 199.741 132.607 199.688 131.899 199.848C131.191 200.007 130.547 200.373 130.046 200.898L129.978 200.972C129.723 201.241 129.375 201.4 129.005 201.417C128.635 201.434 128.273 201.307 127.995 201.063C127.846 200.934 127.726 200.776 127.642 200.598C127.558 200.42 127.512 200.226 127.506 200.029L127.313 193.961L136.063 194.535Z" fill="#FFA8A7"/>
<path d="M130.563 217.074C133.518 220.239 138.967 223.006 142.921 220.307L142.478 221.313C138.501 224.011 133.074 221.244 130.12 218.085C127.165 214.926 129.08 212.727 126.421 209.92C125.417 208.964 124.632 207.801 124.12 206.511C124.239 206.21 124.347 205.813 124.489 205.375C125.063 206.692 125.867 207.897 126.864 208.932C129.523 211.722 127.603 213.915 130.563 217.074Z" fill="white"/>
<path d="M125.944 202.054C126.401 201.407 126.719 200.671 126.875 199.895C126.902 199.717 126.967 199.546 127.065 199.396C127.163 199.245 127.292 199.116 127.444 199.02L127.478 200.037C127.486 200.32 127.577 200.594 127.741 200.825C127.905 201.056 128.134 201.233 128.398 201.334C128.663 201.435 128.951 201.455 129.228 201.392C129.504 201.329 129.755 201.186 129.949 200.98L130.017 200.906C130.518 200.38 131.162 200.015 131.87 199.855C132.578 199.695 133.317 199.749 133.995 200.008L135.444 200.576C135.657 200.66 135.84 200.806 135.969 200.996C136.098 201.186 136.166 201.41 136.165 201.639C136.069 205.787 138.006 211.298 140.04 214.321C142.131 215.19 143.932 218.037 143.012 220.122L142.921 220.332C138.944 223.031 133.517 220.264 130.563 217.099C127.608 213.934 129.523 211.747 126.864 208.94C125.867 207.905 125.063 206.701 124.489 205.383C124.816 204.211 125.306 203.09 125.944 202.054Z" fill="#0071CE"/>
<path opacity="0.2" d="M125.944 202.054C126.401 201.407 126.719 200.671 126.875 199.895C126.902 199.717 126.967 199.546 127.065 199.396C127.163 199.245 127.292 199.116 127.444 199.02L127.478 200.037C127.486 200.32 127.577 200.594 127.741 200.825C127.905 201.056 128.134 201.233 128.398 201.334C128.663 201.435 128.951 201.455 129.228 201.392C129.504 201.329 129.755 201.186 129.949 200.98L130.017 200.906C130.518 200.38 131.162 200.015 131.87 199.855C132.578 199.695 133.317 199.749 133.995 200.008L135.444 200.576C135.657 200.66 135.84 200.806 135.969 200.996C136.098 201.186 136.166 201.41 136.165 201.639C136.069 205.787 138.006 211.298 140.04 214.321C142.131 215.19 143.932 218.037 143.012 220.122L142.921 220.332C138.944 223.031 133.517 220.264 130.563 217.099C127.608 213.934 129.523 211.747 126.864 208.94C125.867 207.905 125.063 206.701 124.489 205.383C124.816 204.211 125.306 203.09 125.944 202.054Z" fill="white"/>
<path d="M131.751 208.041C131.692 208.07 131.628 208.087 131.562 208.091C131.496 208.096 131.43 208.087 131.368 208.066C131.306 208.045 131.248 208.012 131.199 207.968C131.15 207.925 131.109 207.872 131.08 207.813C131.049 207.756 131.03 207.693 131.024 207.628C131.017 207.563 131.024 207.498 131.043 207.436C131.062 207.373 131.093 207.315 131.135 207.265C131.176 207.215 131.227 207.173 131.285 207.143C132.151 206.652 133.13 206.395 134.126 206.395C135.121 206.395 136.1 206.652 136.967 207.143C137.052 207.467 137.148 207.791 137.245 208.114C136.414 207.627 135.471 207.364 134.508 207.351C133.544 207.338 132.594 207.576 131.751 208.041Z" fill="#0A2240"/>
<path d="M131.006 205.797C130.887 205.858 130.748 205.87 130.62 205.83C130.493 205.789 130.386 205.7 130.324 205.581C130.262 205.462 130.25 205.323 130.291 205.195C130.331 205.067 130.421 204.961 130.54 204.899C131.448 204.403 132.467 204.148 133.501 204.156C134.535 204.165 135.55 204.439 136.449 204.95C136.506 205.285 136.58 205.626 136.654 205.967C134.926 205.058 133.188 204.694 131.006 205.797Z" fill="#0A2240"/>
<path d="M132.529 210.274C132.41 210.331 132.273 210.339 132.147 210.297C132.022 210.254 131.918 210.164 131.858 210.046C131.798 209.929 131.787 209.793 131.826 209.668C131.865 209.542 131.952 209.437 132.069 209.376C132.915 208.899 133.868 208.643 134.84 208.633C135.811 208.623 136.77 208.859 137.625 209.319C137.75 209.671 137.881 210.012 138.018 210.353C137.188 209.866 136.246 209.602 135.284 209.588C134.322 209.574 133.372 209.81 132.529 210.274Z" fill="#0A2240"/>
<path d="M133.403 212.45C133.345 212.479 133.28 212.496 133.215 212.5C133.149 212.505 133.083 212.496 133.021 212.475C132.959 212.454 132.901 212.421 132.852 212.377C132.802 212.334 132.762 212.281 132.733 212.222C132.674 212.106 132.662 211.971 132.7 211.846C132.738 211.721 132.823 211.616 132.938 211.552C133.787 211.075 134.744 210.821 135.719 210.813C136.693 210.805 137.654 211.043 138.511 211.506C138.688 211.893 138.869 212.262 139.08 212.643C137.33 211.711 135.591 211.364 133.403 212.45Z" fill="#0A2240"/>
<path d="M142.279 206.594C142.733 208.559 143.346 210.484 144.114 212.349L142.597 212.435C141.875 212.473 141.18 212.723 140.6 213.155C140.02 213.587 139.58 214.18 139.336 214.861L139.302 214.952C139.177 215.3 138.922 215.586 138.59 215.75C138.258 215.914 137.876 215.944 137.523 215.832C137.335 215.776 137.161 215.68 137.013 215.552C136.864 215.424 136.744 215.266 136.66 215.088L134.023 209.611L142.279 206.594Z" fill="#FFA8A7"/>
<path d="M146.347 229.437C150.324 231.141 156.427 231.471 158.955 227.403V228.505C156.427 232.568 150.33 232.238 146.347 230.539C142.364 228.84 143.234 226.056 139.665 224.562C138.36 224.088 137.172 223.338 136.182 222.363C136.182 222.039 136.114 221.636 136.057 221.164C137.114 222.138 138.336 222.918 139.665 223.465C143.234 224.96 142.364 227.738 146.347 229.437Z" fill="white"/>
<path d="M136.057 217.559C136.221 216.783 136.221 215.982 136.057 215.206C136.011 215.03 136.004 214.846 136.035 214.667C136.067 214.487 136.136 214.317 136.239 214.167L136.682 215.087C136.766 215.265 136.886 215.423 137.035 215.551C137.184 215.679 137.358 215.775 137.546 215.831C137.899 215.943 138.281 215.913 138.612 215.749C138.944 215.585 139.199 215.299 139.324 214.951L139.358 214.86C139.602 214.179 140.042 213.586 140.622 213.154C141.203 212.722 141.897 212.472 142.62 212.434L144.165 212.348C144.394 212.34 144.621 212.401 144.814 212.524C145.008 212.647 145.16 212.825 145.25 213.036C146.841 216.865 150.836 221.121 153.915 223.076C156.188 223.019 158.978 224.9 158.978 227.178V227.405C156.449 231.473 150.353 231.138 146.37 229.439C142.387 227.741 143.256 224.962 139.688 223.468C138.359 222.92 137.137 222.141 136.08 221.167C135.905 219.971 135.898 218.757 136.057 217.559Z" fill="#0071CE"/>
<path opacity="0.2" d="M136.057 217.559C136.221 216.783 136.221 215.982 136.057 215.206C136.011 215.03 136.004 214.846 136.035 214.667C136.067 214.487 136.136 214.317 136.239 214.167L136.682 215.087C136.766 215.265 136.886 215.423 137.035 215.551C137.184 215.679 137.358 215.775 137.546 215.831C137.899 215.943 138.281 215.913 138.612 215.749C138.944 215.585 139.199 215.299 139.324 214.951L139.358 214.86C139.602 214.179 140.042 213.586 140.622 213.154C141.203 212.722 141.897 212.472 142.62 212.434L144.165 212.348C144.394 212.34 144.621 212.401 144.814 212.524C145.008 212.647 145.16 212.825 145.25 213.036C146.841 216.865 150.836 221.121 153.915 223.076C156.188 223.019 158.978 224.9 158.978 227.178V227.405C156.449 231.473 150.353 231.138 146.37 229.439C142.387 227.741 143.256 224.962 139.688 223.468C138.359 222.92 137.137 222.141 136.08 221.167C135.905 219.971 135.898 218.757 136.057 217.559Z" fill="white"/>
<path d="M143.767 220.7C143.683 220.805 143.56 220.872 143.427 220.886C143.293 220.9 143.159 220.861 143.054 220.777C142.949 220.692 142.883 220.57 142.868 220.436C142.854 220.302 142.893 220.168 142.977 220.064C143.577 219.27 144.371 218.644 145.282 218.246C146.194 217.848 147.192 217.691 148.182 217.791C148.392 218.058 148.608 218.314 148.83 218.569C147.874 218.456 146.905 218.593 146.017 218.966C145.13 219.34 144.355 219.937 143.767 220.7Z" fill="#0A2240"/>
<path d="M142.194 218.937C142.106 219.026 141.988 219.08 141.863 219.087C141.737 219.094 141.614 219.055 141.516 218.976C141.419 218.897 141.354 218.785 141.334 218.662C141.314 218.538 141.341 218.411 141.409 218.306C142.039 217.485 142.868 216.839 143.818 216.429C144.768 216.019 145.807 215.86 146.836 215.965C147.029 216.249 147.228 216.533 147.432 216.812C145.489 216.676 143.75 217.045 142.194 218.937Z" fill="#0A2240"/>
<path d="M145.387 222.418C145.299 222.507 145.181 222.56 145.056 222.568C144.931 222.575 144.807 222.535 144.71 222.457C144.612 222.378 144.547 222.266 144.527 222.143C144.508 222.019 144.534 221.892 144.603 221.787C145.188 221.013 145.958 220.4 146.843 220.002C147.728 219.605 148.699 219.437 149.665 219.514C149.921 219.787 150.182 220.048 150.444 220.304C149.49 220.189 148.523 220.324 147.637 220.694C146.75 221.065 145.975 221.658 145.387 222.418Z" fill="#0A2240"/>
<path d="M147.091 224.06C147.006 224.159 146.886 224.221 146.755 224.233C146.625 224.246 146.495 224.207 146.393 224.125C146.29 224.043 146.224 223.925 146.207 223.795C146.19 223.665 146.224 223.534 146.302 223.429C146.888 222.653 147.662 222.037 148.55 221.64C149.438 221.243 150.412 221.076 151.381 221.156C151.699 221.44 152.012 221.724 152.33 221.957C150.37 221.798 148.631 222.162 147.091 224.06Z" fill="#0A2240"/>
<path d="M118.881 154.789L138.819 165.908C140.625 166.915 142.071 168.463 142.95 170.335C143.83 172.206 144.1 174.307 143.722 176.34L139.853 197.159L143.029 207.238C140.273 210.914 134.023 211.102 134.023 211.102C130.517 204.073 127.944 201.085 125.955 195.193C123.966 189.301 122.62 185.227 122.62 185.227L106.063 180.681C102.276 179.652 98.8854 177.512 96.3279 174.536C93.7705 171.56 92.164 167.886 91.7161 163.988C91.4377 161.488 91.4207 159.778 91.4207 159.778L118.881 154.789Z" fill="#455A64"/>
<path d="M118.881 154.789L138.819 165.908C140.625 166.915 142.071 168.463 142.95 170.335C143.83 172.206 144.1 174.307 143.722 176.34L139.853 197.159L143.029 207.238C140.273 210.914 134.023 211.102 134.023 211.102C130.517 204.073 127.944 201.085 125.955 195.193C123.966 189.301 122.62 185.227 122.62 185.227L106.063 180.681C102.276 179.652 98.8854 177.512 96.3279 174.536C93.7705 171.56 92.164 167.886 91.7161 163.988C91.4377 161.488 91.4207 159.778 91.4207 159.778L118.881 154.789Z" fill="#37474F"/>
<path opacity="0.2" d="M118.733 160.395C118.733 162.622 117.944 164.778 116.506 166.48L130.569 175.287C132.634 176.578 134.164 178.571 134.876 180.9L139.853 197.162L135.364 179.031C134.847 176.945 133.534 175.144 131.705 174.014L118.716 165.991C120.046 162.679 118.733 160.395 118.733 160.395Z" fill="black"/>
<path d="M116.728 120.547H117.239C120.682 120.581 125.04 122.928 127.171 128.933L135.444 144.956L126.001 149.144L120.83 134.024L116.728 120.547Z" fill="#0071CE"/>
<g opacity="0.2">
<path d="M116.728 120.547H117.239C120.682 120.581 125.04 122.928 127.171 128.933L135.444 144.956L126.001 149.144L120.83 134.024L116.728 120.547Z" fill="black"/>
</g>
<path opacity="0.2" d="M123.358 131.176C124.017 133.068 124.057 135.108 124.165 137.114C124.273 139.119 124.5 141.528 125.415 143.313C126.425 142.61 127.636 142.253 128.865 142.297C130.095 142.342 131.277 142.783 132.233 143.557C132.918 144.133 133.444 144.874 133.762 145.71L126.012 149.148L120.841 134.028L118.302 125.688C119.466 126.221 120.513 126.981 121.381 127.924C122.25 128.866 122.922 129.972 123.358 131.176Z" fill="black"/>
<path d="M125.91 146.254C126.272 145.364 126.854 144.581 127.601 143.976C128.348 143.372 129.236 142.967 130.183 142.8C131.169 142.701 132.165 142.846 133.083 143.222C134.001 143.599 134.811 144.195 135.444 144.959C136.472 146.203 136.313 147.891 135.66 149.368C135.116 150.517 134.191 151.442 133.042 151.985C131.894 152.529 130.592 152.658 129.359 152.351C126.921 151.669 124.989 148.618 125.91 146.254Z" fill="#0071CE"/>
<g opacity="0.2">
<path d="M125.91 146.254C126.272 145.364 126.854 144.581 127.601 143.976C128.348 143.372 129.237 142.967 130.183 142.8C131.17 142.701 132.166 142.846 133.083 143.222C134.001 143.599 134.812 144.195 135.444 144.959C136.473 146.203 136.314 147.891 135.66 149.368C135.116 150.517 134.191 151.442 133.042 151.985C131.894 152.529 130.592 152.658 129.359 152.351C126.921 151.669 124.99 148.618 125.91 146.254Z" fill="black"/>
</g>
<path d="M91.1025 161.366C94.6423 164.775 111.625 165.383 120.29 157.133C119.461 151.309 119.722 145.07 120.29 138.9C120.858 132.729 124.449 121.939 117.563 120.684C108.364 118.888 103.722 120.542 96.2105 122.496C89.648 133.428 90.5514 149.792 91.1025 161.366Z" fill="#0071CE"/>
<path opacity="0.2" d="M91.1025 161.366C94.6423 164.775 111.625 165.383 120.29 157.133C119.461 151.309 119.722 145.07 120.29 138.9C120.858 132.729 124.449 121.939 117.563 120.684C108.364 118.888 103.722 120.542 96.2105 122.496C89.648 133.428 90.5514 149.792 91.1025 161.366Z" fill="black"/>
<path opacity="0.2" d="M101.154 149.221C100.79 143.152 101.154 132.829 99.1592 129.811L93.6819 127.84C90.3182 137.152 90.5114 148.664 90.9319 157.999C94.6221 160.124 98.6632 161.572 102.864 162.272C104.614 162.596 106.381 162.84 108.154 162.982C112.602 162.062 117.029 160.215 120.279 157.118C120.165 156.34 120.08 155.545 120.006 154.749C115.717 154.509 111.48 153.691 107.409 152.317C106.651 151.382 105.699 150.621 104.619 150.086C103.54 149.552 102.358 149.257 101.154 149.221Z" fill="black"/>
<path opacity="0.15" d="M116.165 160.955C116.165 160.955 116.165 160.955 116.165 160.927C116.165 160.898 116.165 160.927 116.165 160.892V160.864V160.83C116.165 160.83 116.165 160.83 116.165 160.796V160.767L122.347 149.262L123.2 150.233L117.018 161.739C116.978 161.804 116.951 161.875 116.938 161.949C116.932 161.971 116.931 161.994 116.936 162.015C116.941 162.037 116.951 162.058 116.967 162.074L116.114 161.108V161.063C116.114 161.063 116.114 161.034 116.114 161.023L116.165 160.955Z" fill="white"/>
<path opacity="0.2" d="M122.449 149.189V149.155V149.12V149.086V149.047V149.012V148.973L122.478 148.939V148.904V148.87V148.842L122.569 148.762H122.597H122.631H122.671H122.711H122.75L129.858 144.785H129.898H129.938H129.978H130.017H130.052H130.091H130.125H130.165H130.205H130.336C130.356 144.785 130.376 144.789 130.394 144.797C130.413 144.805 130.43 144.816 130.444 144.831L131.29 145.802C131.256 145.757 131.182 145.745 131.08 145.768C130.943 145.804 130.811 145.857 130.688 145.927L123.58 149.904C123.44 149.985 123.305 150.074 123.177 150.172C123.04 150.279 122.909 150.387 122.784 150.507C122.665 150.619 122.553 150.738 122.449 150.865C122.361 150.971 122.283 151.085 122.216 151.206L121.364 150.234L122.449 149.189Z" fill="white"/>
<path d="M126.024 153.562C126.024 153.562 121.535 155.835 119.546 154.585L120.597 152.63C117.773 152.586 115.02 153.522 112.808 155.278C108.563 154.501 104.419 153.249 100.455 151.545L99.0461 150.977L91.9041 156.914C96.7734 160.068 119.745 162.227 122.131 160.755C124.518 159.283 126.347 156.363 126.024 153.562Z" fill="#FFA8A7"/>
<path d="M130.875 147.773C131.026 148.522 131.113 149.283 131.137 150.046C130.953 151.88 130.175 153.604 128.921 154.955C128.66 155.251 128.333 155.481 127.966 155.626C127.783 155.694 127.585 155.713 127.392 155.682C127.199 155.652 127.017 155.571 126.864 155.45C126.596 155.133 126.458 154.727 126.477 154.313C126.417 153.692 126.452 153.066 126.58 152.455C126.707 151.838 127.054 151.289 127.557 150.91C127.948 150.672 128.366 150.481 128.801 150.342C129.227 150.163 129.606 149.889 129.909 149.54L130.875 147.773Z" fill="#FFA8A7"/>
<path d="M99.0455 150.96L99.2614 131.756C99.2906 129.161 98.6528 126.602 97.4092 124.324L96.2103 122.5C95.2542 122.595 94.3373 122.929 93.5433 123.47C92.7493 124.011 92.1034 124.742 91.6648 125.597C90.0039 128.45 89.2342 131.734 89.4546 135.028C89.4546 135.028 88.6989 154.824 91.9034 156.898L99.0455 150.96Z" fill="#0071CE"/>
<path d="M103.842 151.745L99.0461 150.961L91.9041 156.898C94.0007 158.518 99.0234 160.256 102.336 161.069C103.351 161.318 104.414 161.292 105.415 160.995L105.984 160.83L107.08 153.41C106.2 152.531 105.068 151.949 103.842 151.745Z" fill="#0071CE"/>
<g opacity="0.2">
<path d="M99.0455 150.96L99.2614 131.756C99.2906 129.161 98.6528 126.602 97.4092 124.324L96.2103 122.5C95.2542 122.595 94.3373 122.929 93.5433 123.47C92.7493 124.011 92.1034 124.742 91.6648 125.597C90.0039 128.45 89.2342 131.734 89.4546 135.028C89.4546 135.028 88.6989 154.824 91.9034 156.898L99.0455 150.96Z" fill="black"/>
<path d="M103.841 151.745L99.0452 150.961L91.9031 156.898C93.9997 158.518 99.0224 160.256 102.335 161.069C103.35 161.318 104.413 161.292 105.414 160.995L105.983 160.83L107.079 153.41C106.199 152.531 105.067 151.949 103.841 151.745Z" fill="black"/>
</g>
<path d="M111.296 155.001C109.12 156.109 110.233 160.495 110.659 160.831L111.296 160.887C111.191 161.064 111.038 161.208 110.855 161.302C110.672 161.395 110.466 161.435 110.262 161.416C109.097 161.297 106.784 161.041 105.955 160.848C103.722 157.49 106.216 153.893 107.057 153.41C108.421 153.814 109.756 154.109 110.466 154.251C110.618 154.282 110.762 154.346 110.886 154.438C111.011 154.53 111.114 154.649 111.188 154.785L111.296 155.001Z" fill="#0071CE"/>
<path opacity="0.3" d="M111.296 155.001C109.12 156.109 110.233 160.495 110.659 160.831L111.296 160.887C111.191 161.064 111.038 161.208 110.855 161.302C110.672 161.395 110.466 161.435 110.262 161.416C109.097 161.297 106.784 161.041 105.955 160.848C103.722 157.49 106.216 153.893 107.057 153.41C108.421 153.814 109.756 154.109 110.466 154.251C110.618 154.282 110.762 154.346 110.886 154.438C111.011 154.53 111.114 154.649 111.188 154.785L111.296 155.001Z" fill="black"/>
<path d="M103.08 121.385C102.923 121.689 102.836 122.023 102.827 122.365C102.817 122.706 102.884 123.045 103.023 123.357C103.312 123.978 103.735 124.527 104.262 124.965C105.83 126.351 107.806 127.191 109.893 127.357C111.017 127.486 112.155 127.288 113.171 126.789C113.674 126.529 114.103 126.148 114.42 125.679C114.736 125.211 114.93 124.67 114.984 124.107C114.966 123.447 114.765 122.805 114.401 122.253C114.038 121.702 113.527 121.263 112.927 120.988C111.714 120.467 110.386 120.271 109.074 120.419C107.847 120.584 106.608 120.652 105.37 120.624C104.518 120.499 103.574 120.539 103.08 121.385Z" fill="#0071CE"/>
<path opacity="0.3" d="M103.08 121.385C102.923 121.689 102.836 122.023 102.827 122.365C102.817 122.706 102.884 123.045 103.023 123.357C103.312 123.978 103.735 124.527 104.262 124.965C105.83 126.351 107.806 127.191 109.893 127.357C111.017 127.486 112.155 127.288 113.171 126.789C113.674 126.529 114.103 126.148 114.42 125.679C114.736 125.211 114.93 124.67 114.984 124.107C114.966 123.447 114.765 122.805 114.401 122.253C114.038 121.702 113.527 121.263 112.927 120.988C111.714 120.467 110.386 120.271 109.074 120.419C107.847 120.584 106.608 120.652 105.37 120.624C104.518 120.499 103.574 120.539 103.08 121.385Z" fill="black"/>
<path d="M104.983 118.927C103.801 116.771 102.88 114.482 102.239 112.108C101.671 109.711 100.04 104.387 101.199 102.216C102.074 100.586 104.483 98.938 106.103 98.0459C107.722 97.1539 109.841 97.4266 111.648 97.0345C113.235 96.6415 114.877 96.5148 116.506 96.6595C118.125 96.8584 120.165 99.7846 121.245 101.012C122.949 102.944 123.006 105.995 121.779 108.268C120.552 110.54 118.273 112.097 115.841 112.978C113.409 113.858 110.813 114.114 108.245 114.393C107.182 115.813 106.046 117.495 104.983 118.927Z" fill="#3F1515"/>
<path d="M113.137 118.183L112.807 121.854C112.794 122.14 112.867 122.423 113.017 122.666C113.22 123.049 113.297 123.485 113.239 123.914C113.181 124.343 112.99 124.743 112.694 125.058C112.222 125.421 111.646 125.62 111.052 125.626C109.934 125.687 108.816 125.51 107.772 125.109C106.727 124.707 105.779 124.09 104.989 123.297C104.83 123.13 104.706 122.933 104.624 122.717C104.542 122.501 104.504 122.272 104.512 122.041L104.75 112.734L113.137 118.183Z" fill="#FFA8A7"/>
<path d="M113.137 118.183L112.807 121.854C112.794 122.14 112.867 122.423 113.017 122.666C113.22 123.049 113.297 123.485 113.239 123.914C113.181 124.343 112.99 124.743 112.694 125.058C112.222 125.421 111.646 125.62 111.052 125.626C109.934 125.687 108.816 125.51 107.772 125.109C106.727 124.707 105.779 124.09 104.989 123.297C104.83 123.13 104.706 122.933 104.624 122.717C104.542 122.501 104.504 122.272 104.512 122.041L104.75 112.734L113.137 118.183Z" fill="#FFA8A7"/>
<path opacity="0.2" d="M107.483 120.007C108.409 120.804 109.535 121.335 110.739 121.541C111.452 121.64 112.179 121.568 112.859 121.331L113.137 118.189L104.751 112.723L104.665 116.132C105.262 117.641 106.231 118.974 107.483 120.007Z" fill="black"/>
<path d="M116.256 106.82C117.047 106.448 117.713 105.856 118.176 105.115C116.524 105.87 114.757 106.342 112.949 106.513C113.642 105.911 114.301 105.229 114.995 104.627C113.755 105.046 112.481 105.356 111.188 105.553C111.909 105.182 112.552 104.675 113.08 104.059C111.051 105.006 108.876 105.6 106.648 105.814C106.549 105.948 106.484 106.104 106.46 106.269L106.12 108.911C106.123 109.099 106.085 109.285 106.007 109.456C105.93 109.627 105.815 109.779 105.671 109.9C105.515 109.973 105.34 109.997 105.17 109.97C104.999 109.943 104.841 109.865 104.716 109.746C104.471 109.501 104.278 109.209 104.148 108.888C103.872 108.222 103.503 107.598 103.051 107.036C102.822 106.756 102.536 106.529 102.211 106.369C101.887 106.209 101.532 106.121 101.171 106.11C99.9945 106.138 99.0968 107.314 98.9718 108.485C98.9142 109.09 99.0083 109.699 99.2453 110.259C99.4824 110.818 99.8551 111.31 100.33 111.689C100.819 112.036 101.387 112.255 101.982 112.327C102.578 112.398 103.182 112.32 103.739 112.098C103.205 114.138 104.273 116.326 105.858 117.712C107.443 119.098 109.477 119.848 111.46 120.553C112.546 120.945 113.693 121.343 114.824 121.121C115.746 120.914 116.572 120.404 117.171 119.672C117.766 118.944 118.254 118.135 118.62 117.269C120.409 113.406 121.428 109.232 121.62 104.979C120.107 106.21 118.206 106.863 116.256 106.82Z" fill="#FFA8A7"/>
<path d="M114.779 110.977L116.438 115.363L113.534 115.397L114.779 110.977Z" fill="#F28F8F"/>
<path d="M110.319 116.246L113.364 117.502C113.131 117.853 112.79 118.119 112.392 118.26C111.994 118.4 111.562 118.407 111.16 118.28C110.415 117.996 110.16 117.047 110.319 116.246Z" fill="#F28F8F"/>
<path opacity="0.3" d="M110.319 116.246L113.364 117.502C113.131 117.853 112.79 118.119 112.392 118.26C111.994 118.4 111.562 118.407 111.16 118.28C110.415 117.996 110.16 117.047 110.319 116.246Z" fill="black"/>
<path d="M112.193 118.312C111.852 118.404 111.493 118.392 111.159 118.278C110.879 118.141 110.646 117.925 110.488 117.656C110.331 117.388 110.256 117.078 110.273 116.767C110.73 116.731 111.183 116.871 111.54 117.158C111.897 117.446 112.13 117.858 112.193 118.312Z" fill="#F28F8F"/>
<path d="M110.676 110.177C110.617 110.386 110.644 110.61 110.751 110.8C110.857 110.989 111.035 111.129 111.244 111.188C111.454 111.246 111.678 111.22 111.867 111.113C112.057 111.007 112.197 110.829 112.255 110.62C112.284 110.516 112.293 110.408 112.28 110.301C112.267 110.194 112.233 110.09 112.181 109.996C112.128 109.903 112.057 109.82 111.973 109.753C111.888 109.687 111.791 109.638 111.687 109.609C111.584 109.58 111.475 109.571 111.368 109.584C111.261 109.597 111.158 109.63 111.064 109.683C110.97 109.736 110.888 109.807 110.821 109.891C110.755 109.976 110.705 110.073 110.676 110.177Z" fill="#263238"/>
<path d="M117.222 111.544C117.164 111.753 117.19 111.977 117.297 112.167C117.404 112.357 117.581 112.496 117.79 112.555C118 112.614 118.224 112.587 118.414 112.48C118.603 112.374 118.743 112.196 118.801 111.987C118.831 111.883 118.839 111.775 118.826 111.668C118.813 111.561 118.78 111.458 118.727 111.364C118.674 111.27 118.603 111.187 118.519 111.121C118.434 111.054 118.337 111.005 118.233 110.976C118.13 110.947 118.021 110.938 117.914 110.951C117.807 110.964 117.704 110.998 117.61 111.05C117.516 111.103 117.434 111.174 117.367 111.259C117.301 111.343 117.251 111.44 117.222 111.544Z" fill="#263238"/>
<path d="M119.006 107.507L120.414 109.211C120.555 109.017 120.631 108.784 120.631 108.544C120.631 108.304 120.555 108.071 120.414 107.877C120.238 107.689 120.012 107.555 119.763 107.49C119.514 107.425 119.252 107.431 119.006 107.507Z" fill="#263238"/>
<path d="M111.75 106.153L109.66 106.874C109.641 106.636 109.697 106.399 109.82 106.195C109.943 105.991 110.128 105.831 110.347 105.738C110.596 105.669 110.86 105.671 111.108 105.744C111.356 105.817 111.578 105.959 111.75 106.153Z" fill="#263238"/>
<path d="M64.9323 147.637L99.1654 174.16C100.21 174.968 101.078 175.982 101.715 177.139C102.352 178.296 102.745 179.572 102.87 180.887L106.711 221.126C106.499 221.323 106.228 221.444 105.94 221.47C105.652 221.495 105.363 221.424 105.12 221.268L98.3018 180.87C98.1874 180.181 97.925 179.525 97.5327 178.947C97.1403 178.369 96.6273 177.884 96.029 177.523L65.7675 159.392C61.8016 157.034 61.1027 148.699 64.9323 147.637Z" fill="#455A64"/>
<path opacity="0.3" d="M64.9323 147.637L99.1654 174.16C100.21 174.968 101.078 175.982 101.715 177.139C102.352 178.296 102.745 179.572 102.87 180.887L106.711 221.126C106.499 221.323 106.228 221.444 105.94 221.47C105.652 221.495 105.363 221.424 105.12 221.268L98.3018 180.87C98.1874 180.181 97.925 179.525 97.5327 178.947C97.1403 178.369 96.6273 177.884 96.029 177.523L65.7675 159.392C61.8016 157.034 61.1027 148.699 64.9323 147.637Z" fill="white"/>
<path opacity="0.2" d="M136.059 215.259C136.223 216.034 136.223 216.835 136.059 217.611C135.9 218.809 135.907 220.023 136.082 221.219L136.945 221.903C136.545 221.503 136.84 217.536 137.037 215.603C136.888 215.475 136.768 215.317 136.684 215.139L136.241 214.219C136.138 214.369 136.068 214.54 136.037 214.719C136.006 214.898 136.013 215.082 136.059 215.259Z" fill="#0055AA"/>
<path d="M116.165 160.99C116.165 160.99 116.165 161.019 116.165 161.03V161.076L117.017 162.042C117.017 162.042 117.017 162.002 117.017 161.979C117.051 162.127 117.267 162.121 117.637 161.917L124.745 157.939C125.294 157.62 125.761 157.177 126.108 156.644L132.319 145.121C132.415 144.928 132.415 144.814 132.319 144.763H132.347L131.5 143.792C131.486 143.777 131.47 143.765 131.451 143.758C131.432 143.75 131.413 143.746 131.392 143.746H131.262H131.222H131.182H131.148H131.108H131.074H131.034H130.995H130.955H130.915L123.807 147.723H123.767H123.728H123.688H123.654H123.625L123.534 147.803V147.831V147.865V147.9L123.506 147.934V147.973V148.007V148.047V148.081V148.115V148.15V148.184L117.324 159.689V159.718C117.324 159.718 117.324 159.718 117.324 159.752V159.786V159.814C117.324 159.814 117.324 159.814 117.324 159.848C117.324 159.883 117.324 159.848 117.324 159.877V159.922L116.165 160.99ZM132.114 144.746H132.142C132.142 144.746 132.171 144.746 132.194 144.746C132.167 144.741 132.14 144.741 132.114 144.746ZM123.847 149.496L124.046 149.331L123.847 149.496ZM123.512 149.854L123.597 149.763L123.512 149.854ZM117.017 161.934C117.031 161.859 117.058 161.788 117.097 161.723C117.055 161.795 117.028 161.874 117.017 161.956C117.017 161.956 117.017 161.934 117.017 161.934Z" fill="#455A64"/>
<path d="M74.4321 217.063L76.8575 218.472L76.8461 215.672L74.4321 217.063Z" fill="#E6E6E6"/>
<path d="M76.7511 188.484L53.1829 202.087L76.7511 188.484Z" fill="#CFCFCF"/>
<path d="M76.8474 215.673V218.475L79.3701 217.02L79.2849 184.094L50.6313 200.639L50.7223 233.56L53.245 232.105V229.304L74.4326 217.048L76.8474 215.673ZM53.1825 202.088L76.7508 188.486L76.7792 199.162L53.2166 212.798L53.1825 202.088ZM53.2223 215.69L76.7906 202.082V202.117V212.764L53.2507 226.367L53.2223 215.69Z" fill="#E0E0E0"/>
<path d="M76.8186 212.762L76.7902 202.114V202.086L53.2219 215.688L53.2503 226.364L76.8186 212.762Z" fill="#E0E0E0"/>
<path d="M76.7796 199.161L76.7511 188.484L53.1829 202.087L53.217 212.769L76.7796 199.161Z" fill="#E0E0E0"/>
<path d="M50.6314 200.637L25.6143 186.098L25.7052 219.024L50.7223 233.558L50.6314 200.637Z" fill="#E0E0E0"/>
<path d="M50.6314 200.64L79.285 184.095L54.2678 169.555L25.6143 186.1L50.6314 200.64Z" fill="#E0E0E0"/>
<path opacity="0.2" d="M74.4321 217.063L76.8575 218.472L76.8461 215.672L74.4321 217.063Z" fill="white"/>
<path d="M76.7511 188.484L53.1829 202.087L76.7511 188.484Z" fill="#CFCFCF"/>
<path opacity="0.8" d="M76.8186 212.762L76.7902 202.114V202.086L53.2219 215.688L53.2503 226.364L76.8186 212.762Z" fill="white"/>
<path opacity="0.8" d="M76.7796 199.161L76.7511 188.484L53.1829 202.087L53.217 212.769L76.7796 199.161Z" fill="white"/>
<path d="M69.0689 196.89L69.0576 195.418L60.8984 200.128L60.9041 201.606L69.0689 196.89Z" fill="#E0E0E0"/>
<path d="M69.0689 210.302L69.0576 208.824L60.8984 213.534L60.9041 215.012L69.0689 210.302Z" fill="#E0E0E0"/>
<path opacity="0.2" d="M50.6314 200.637L25.6143 186.098L25.7052 219.024L50.7223 233.558L50.6314 200.637Z" fill="white"/>
<path opacity="0.4" d="M50.6314 200.64L79.285 184.095L54.2678 169.555L25.6143 186.1L50.6314 200.64Z" fill="white"/>
<path opacity="0.05" d="M45.0743 178.049C48.2561 176.208 53.3982 176.208 56.5573 178.049C59.7164 179.89 59.6994 182.861 56.5175 184.702C53.3357 186.543 48.1936 186.537 45.0345 184.702C41.8754 182.867 41.8925 179.884 45.0743 178.049Z" fill="black"/>
<path d="M42.3133 166.48L51.0406 166.736L59.7736 166.48C60.1486 172.378 58.9952 178.384 57.41 181.321C57.0414 182.073 56.4449 182.69 55.7054 183.083C53.1315 184.571 48.9668 184.571 46.4099 183.083C45.6568 182.687 45.057 182.051 44.7054 181.276C43.0804 178.327 41.9383 172.355 42.3133 166.48Z" fill="white"/>
<path d="M44.8925 162.911C41.4834 164.888 41.4493 168.087 44.8471 170.064C48.2448 172.041 53.7732 172.036 57.1937 170.064C60.6142 168.092 60.6028 164.888 57.2335 162.911C53.8642 160.933 48.313 160.939 44.8925 162.911Z" fill="#EBEBEB"/>
<path d="M46.2451 163.696C43.5746 165.241 43.5632 167.736 46.211 169.276C48.8587 170.815 53.1769 170.815 55.8701 169.276C58.5633 167.736 58.5519 165.241 55.9042 163.696C53.2564 162.151 48.9098 162.156 46.2451 163.696Z" fill="#E0E0E0"/>
<g opacity="0.15">
<path d="M46.2451 163.696C43.5746 165.241 43.5632 167.736 46.211 169.276C48.8587 170.815 53.1769 170.815 55.8701 169.276C58.5633 167.736 58.5519 165.241 55.9042 163.696C53.2564 162.151 48.9098 162.156 46.2451 163.696Z" fill="black"/>
</g>
<path d="M51.773 166.735C51.0729 167.319 50.2446 167.728 49.3559 167.931C48.4671 168.133 47.5431 168.123 46.6593 167.9C45.8074 167.639 45.0337 167.171 44.4078 166.537C43.782 165.904 43.3236 165.124 43.0741 164.269C44.1073 163.778 45.0535 163.122 45.8752 162.326C44.5627 161.996 43.1835 162.045 41.8979 162.468C41.5425 161.91 41.3292 161.273 41.2767 160.613C41.2242 159.954 41.3341 159.291 41.5968 158.684C43.0866 158.021 44.7624 157.904 46.3298 158.354C45.6795 157.786 44.9187 157.359 44.0954 157.1C43.272 156.841 42.4038 156.755 41.5456 156.848C41.418 154.346 41.8048 151.843 42.682 149.496C45.9377 149.667 49.0911 151.064 50.1593 152.076C50.206 153.241 50.0835 154.406 49.7957 155.536C50.2159 155.32 50.5748 155.002 50.839 154.611C51.1032 154.219 51.2642 153.768 51.307 153.297C53.3468 153.809 54.2161 154.826 54.5343 155.598C54.2419 157.046 53.5781 158.393 52.6082 159.508C54.5173 158.939 55.2957 156.797 55.2957 156.797C57.1878 161.252 56.8298 166.297 51.773 166.735Z" fill="#0071CE"/>
<path opacity="0.2" d="M51.773 166.735C51.0729 167.319 50.2446 167.728 49.3559 167.931C48.4671 168.133 47.5431 168.123 46.6593 167.9C45.8074 167.639 45.0337 167.171 44.4078 166.537C43.782 165.904 43.3236 165.124 43.0741 164.269C44.1073 163.778 45.0535 163.122 45.8752 162.326C44.5627 161.996 43.1835 162.045 41.8979 162.468C41.5425 161.91 41.3292 161.273 41.2767 160.613C41.2242 159.954 41.3341 159.291 41.5968 158.684C43.0866 158.021 44.7624 157.904 46.3298 158.354C45.6795 157.786 44.9187 157.359 44.0954 157.1C43.272 156.841 42.4038 156.755 41.5456 156.848C41.418 154.346 41.8048 151.843 42.682 149.496C45.9377 149.667 49.0911 151.064 50.1593 152.076C50.206 153.241 50.0835 154.406 49.7957 155.536C50.2159 155.32 50.5748 155.002 50.839 154.611C51.1032 154.219 51.2642 153.768 51.307 153.297C53.3468 153.809 54.2161 154.826 54.5343 155.598C54.2419 157.046 53.5781 158.393 52.6082 159.508C54.5173 158.939 55.2957 156.797 55.2957 156.797C57.1878 161.252 56.8298 166.297 51.773 166.735Z" fill="black"/>
<path opacity="0.3" d="M51.773 166.735C51.0729 167.319 50.2446 167.728 49.3559 167.931C48.4671 168.133 47.5431 168.123 46.6593 167.9C45.8074 167.639 45.0337 167.171 44.4078 166.537C43.782 165.904 43.3236 165.124 43.0741 164.269C44.1073 163.778 45.0535 163.122 45.8752 162.326C44.5627 161.996 43.1835 162.045 41.8979 162.468C41.5425 161.91 41.3292 161.273 41.2767 160.613C41.2242 159.954 41.3341 159.291 41.5968 158.684C43.0866 158.021 44.7624 157.904 46.3298 158.354C45.6795 157.786 44.9187 157.359 44.0954 157.1C43.272 156.841 42.4038 156.755 41.5456 156.848C41.418 154.346 41.8048 151.843 42.682 149.496C45.9377 149.667 49.0911 151.064 50.1593 152.076C50.206 153.241 50.0835 154.406 49.7957 155.536C50.2159 155.32 50.5748 155.002 50.839 154.611C51.1032 154.219 51.2642 153.768 51.307 153.297C53.3468 153.809 54.2161 154.826 54.5343 155.598C54.2419 157.046 53.5781 158.393 52.6082 159.508C54.5173 158.939 55.2957 156.797 55.2957 156.797C57.1878 161.252 56.8298 166.297 51.773 166.735Z" fill="white"/>
<path d="M51.8875 167.218C51.9372 167.212 51.9829 167.188 52.0156 167.15C52.0482 167.112 52.0654 167.063 52.0636 167.013C51.7511 162.905 49.3988 156.121 43.7909 150.536C43.7739 150.518 43.7536 150.504 43.7312 150.495C43.7087 150.485 43.6846 150.48 43.6602 150.48C43.6358 150.48 43.6117 150.485 43.5892 150.495C43.5668 150.504 43.5465 150.518 43.5295 150.536C43.5118 150.553 43.4978 150.574 43.4882 150.597C43.4786 150.62 43.4736 150.645 43.4736 150.669C43.4736 150.694 43.4786 150.719 43.4882 150.742C43.4978 150.765 43.5118 150.785 43.5295 150.803C49.0636 156.326 51.3818 163.008 51.6886 167.053C51.6908 167.077 51.6976 167.1 51.7088 167.121C51.72 167.143 51.7352 167.161 51.7537 167.177C51.7722 167.192 51.7935 167.204 51.8165 167.211C51.8395 167.218 51.8636 167.22 51.8875 167.218Z" fill="#F5F5F5"/>
<path d="M50.3476 168.932C51.0003 169.465 51.7699 169.837 52.5936 170.016C53.4173 170.195 54.2717 170.176 55.0869 169.962C55.9021 169.748 56.655 169.343 57.2839 168.782C57.9129 168.221 58.4001 167.519 58.7056 166.733C57.7718 166.313 56.9167 165.737 56.1772 165.028C57.4152 164.733 58.7094 164.773 59.9272 165.142C60.2954 164.671 60.5367 164.113 60.6282 163.523C60.7197 162.932 60.6583 162.327 60.45 161.767C59.0325 161.184 57.4609 161.09 55.984 161.5C57.2985 160.473 58.9529 159.982 60.6147 160.125C60.8991 157.918 60.6855 155.676 59.9897 153.562C56.8874 153.75 53.8193 155.034 52.7511 155.943C52.6316 156.968 52.6738 158.005 52.8761 159.017C52.5017 158.836 52.184 158.557 51.9576 158.208C51.7312 157.859 51.6047 157.455 51.592 157.04C49.6488 157.511 48.751 158.42 48.4272 159.108C48.6109 160.383 49.1549 161.58 49.9954 162.557C49.4506 162.359 48.9577 162.04 48.5533 161.625C48.1489 161.21 47.8436 160.709 47.6601 160.159C45.6204 164.108 45.6544 168.551 50.3476 168.932Z" fill="#0071CE"/>
<path opacity="0.3" d="M50.3476 168.932C51.0003 169.465 51.7699 169.837 52.5936 170.016C53.4173 170.195 54.2717 170.176 55.0869 169.962C55.9021 169.748 56.655 169.343 57.2839 168.782C57.9129 168.221 58.4001 167.519 58.7056 166.733C57.7718 166.313 56.9167 165.737 56.1772 165.028C57.4152 164.733 58.7094 164.773 59.9272 165.142C60.2954 164.671 60.5367 164.113 60.6282 163.523C60.7197 162.932 60.6583 162.327 60.45 161.767C59.0325 161.184 57.4609 161.09 55.984 161.5C57.2985 160.473 58.9529 159.982 60.6147 160.125C60.8991 157.918 60.6855 155.676 59.9897 153.562C56.8874 153.75 53.8193 155.034 52.7511 155.943C52.6316 156.968 52.6738 158.005 52.8761 159.017C52.5017 158.836 52.184 158.557 51.9576 158.208C51.7312 157.859 51.6047 157.455 51.592 157.04C49.6488 157.511 48.751 158.42 48.4272 159.108C48.6109 160.383 49.1549 161.58 49.9954 162.557C49.4506 162.359 48.9577 162.04 48.5533 161.625C48.1489 161.21 47.8436 160.709 47.6601 160.159C45.6204 164.108 45.6544 168.551 50.3476 168.932Z" fill="white"/>
<path d="M50.2222 169.383C50.2671 169.382 50.3103 169.366 50.3446 169.337C50.3788 169.308 50.4018 169.268 50.4097 169.223C50.9438 165.644 53.5404 159.701 59.1143 154.74C59.132 154.723 59.146 154.702 59.1556 154.679C59.1652 154.656 59.1702 154.632 59.1702 154.607C59.1702 154.582 59.1652 154.557 59.1556 154.535C59.146 154.512 59.132 154.491 59.1143 154.473C59.0974 154.456 59.077 154.442 59.0546 154.432C59.0321 154.423 59.008 154.418 58.9836 154.418C58.9592 154.418 58.9351 154.423 58.9127 154.432C58.8902 154.442 58.8699 154.456 58.8529 154.473C53.2052 159.507 50.5688 165.542 50.0234 169.184C50.0169 169.233 50.0299 169.282 50.0597 169.321C50.0895 169.361 50.1336 169.387 50.1824 169.394L50.2222 169.383Z" fill="white"/>
</svg>
