<svg width="32" height="32" viewBox="0 0 32 32" fill="none" xmlns="http://www.w3.org/2000/svg">
<path d="M24.125 9C24.4375 9 24.75 9.3125 24.75 9.625C24.75 9.97656 24.4375 10.25 24.125 10.25H7.875C7.52344 10.25 7.25 9.97656 7.25 9.625C7.25 9.3125 7.52344 9 7.875 9H11.625L12.9141 7.28125C13.2656 6.8125 13.8125 6.5 14.4375 6.5H17.5625C18.1484 6.5 18.6953 6.8125 19.0469 7.28125L20.375 9H24.125ZM13.1875 9H18.8125L18.0312 8.02344C17.9141 7.86719 17.7578 7.75 17.5625 7.75H14.4375C14.2422 7.75 14.0469 7.86719 13.9297 8.02344L13.1875 9ZM22.875 11.5C23.1875 11.5 23.5 11.8125 23.5 12.125V23.375C23.5 25.1328 22.0938 26.5 20.375 26.5H11.625C9.86719 26.5 8.5 25.1328 8.5 23.375V12.125C8.5 11.8125 8.77344 11.5 9.125 11.5C9.4375 11.5 9.75 11.8125 9.75 12.125V23.375C9.75 24.4297 10.5703 25.25 11.625 25.25H20.375C21.3906 25.25 22.25 24.4297 22.25 23.375V12.125C22.25 11.8125 22.5234 11.5 22.875 11.5ZM12.875 22.75C12.875 23.1016 12.5625 23.375 12.25 23.375C11.8984 23.375 11.625 23.1016 11.625 22.75V14C11.625 13.6875 11.8984 13.375 12.25 13.375C12.5625 13.375 12.875 13.6875 12.875 14V22.75ZM16.625 22.75C16.625 23.1016 16.3125 23.375 16 23.375C15.6484 23.375 15.375 23.1016 15.375 22.75V14C15.375 13.6875 15.6484 13.375 16 13.375C16.3125 13.375 16.625 13.6875 16.625 14V22.75ZM20.375 22.75C20.375 23.1016 20.0625 23.375 19.75 23.375C19.3984 23.375 19.125 23.1016 19.125 22.75V14C19.125 13.6875 19.3984 13.375 19.75 13.375C20.0625 13.375 20.375 13.6875 20.375 14V22.75Z" fill="#D84315"/>
</svg>
