<svg width="24" height="24" viewBox="0 0 18 21" fill="none" xmlns="http://www.w3.org/2000/svg">
<path d="M17.125 3C17.4375 3 17.75 3.3125 17.75 3.625C17.75 3.97656 17.4375 4.25 17.125 4.25H0.875C0.523438 4.25 0.25 3.97656 0.25 3.625C0.25 3.3125 0.523438 3 0.875 3H4.625L5.91406 1.28125C6.26562 0.8125 6.8125 0.5 7.4375 0.5H10.5625C11.1484 0.5 11.6953 0.8125 12.0469 1.28125L13.375 3H17.125ZM6.1875 3H11.8125L11.0312 2.02344C10.9141 1.86719 10.7578 1.75 10.5625 1.75H7.4375C7.24219 1.75 7.04688 1.86719 6.92969 2.02344L6.1875 3ZM15.875 5.5C16.1875 5.5 16.5 5.8125 16.5 6.125V17.375C16.5 19.1328 15.0938 20.5 13.375 20.5H4.625C2.86719 20.5 1.5 19.1328 1.5 17.375V6.125C1.5 5.8125 1.77344 5.5 2.125 5.5C2.4375 5.5 2.75 5.8125 2.75 6.125V17.375C2.75 18.4297 3.57031 19.25 4.625 19.25H13.375C14.3906 19.25 15.25 18.4297 15.25 17.375V6.125C15.25 5.8125 15.5234 5.5 15.875 5.5ZM5.875 16.75C5.875 17.1016 5.5625 17.375 5.25 17.375C4.89844 17.375 4.625 17.1016 4.625 16.75V8C4.625 7.6875 4.89844 7.375 5.25 7.375C5.5625 7.375 5.875 7.6875 5.875 8V16.75ZM9.625 16.75C9.625 17.1016 9.3125 17.375 9 17.375C8.64844 17.375 8.375 17.1016 8.375 16.75V8C8.375 7.6875 8.64844 7.375 9 7.375C9.3125 7.375 9.625 7.6875 9.625 8V16.75ZM13.375 16.75C13.375 17.1016 13.0625 17.375 12.75 17.375C12.3984 17.375 12.125 17.1016 12.125 16.75V8C12.125 7.6875 12.3984 7.375 12.75 7.375C13.0625 7.375 13.375 7.6875 13.375 8V16.75Z" fill="#D84315"/>
</svg>
