<svg width="97" height="96" viewBox="0 0 97 96" fill="none" xmlns="http://www.w3.org/2000/svg">
<path d="M27.5 28C27.5 16.9547 36.4531 8 47.5 8C58.5469 8 67.5 16.9547 67.5 28C67.5 39.0469 58.5469 48 47.5 48C36.4531 48 27.5 39.0469 27.5 28ZM62.5 28C62.5 19.7156 55.7812 13 47.5 13C39.0781 13 32.5 19.7156 32.5 28C32.5 36.2812 39.0781 43 47.5 43C55.7812 43 62.5 36.2812 62.5 28ZM12.5 83.1875C12.5 67.8906 24.8953 55.5 40.1875 55.5H54.8125C70.1094 55.5 82.5 67.8906 82.5 83.1875C82.5 85.8438 80.3438 88 77.6875 88H17.3156C14.6562 88 12.5001 85.8438 12.5001 83.1875H12.5ZM37.5 70.5C36.125 70.5 35 71.625 35 73C35 74.375 36.125 75.5 37.5 75.5C38.875 75.5 40 74.375 40 73C40 71.625 38.875 70.5 37.5 70.5ZM40 60.5V65.9219C42.9062 66.9531 45 69.7344 45 73C45 77.1406 41.6406 80.5 37.5 80.5C33.3594 80.5 30 77.1406 30 73C30 69.7344 32.0938 66.9531 35 65.9219V61.0938C25.0281 63.4219 17.5859 72.3438 17.5 83H77.3594C77.4219 73.25 71.1875 64.9688 62.5 61.8281V65.9219C65.4062 66.9531 67.5 69.7344 67.5 73V78C67.5 79.375 66.375 80.5 65 80.5C63.625 80.5 62.5 79.375 62.5 78V73C62.5 71.625 61.375 70.5 60 70.5C58.625 70.5 57.5 71.625 57.5 73V78C57.5 79.375 56.375 80.5 55 80.5C53.625 80.5 52.5 79.375 52.5 78V73C52.5 69.7344 54.5938 66.9531 57.5 65.9219V60.6562C56.625 60.5469 55.7188 60.5 54.8125 60.5H40.1875C40.125 60.5 40.0625 60.5 39.8594 60.5H40Z" fill="#3A5068"/>
</svg>