<svg width="60" height="60" viewBox="0 0 60 60" fill="none" xmlns="http://www.w3.org/2000/svg">
<g clip-path="url(#clip0_236_58463)">
<path d="M48.1031 17.9141H35.4718V38.1667C35.4718 41.3964 32.8875 43.9948 29.6753 43.9948C26.4632 43.9948 23.8789 41.3964 23.8789 38.1667V17.9141H11.2476C7.98708 17.9141 6.75534 20.1725 8.51842 22.9408L26.439 50.9642C28.2021 53.7326 31.1003 53.7326 32.8634 50.9642L50.784 22.9408C52.5953 20.1725 51.3636 17.9141 48.1031 17.9141Z" fill="#0071CE"/>
<path d="M29.6753 17.914C32.8875 17.914 35.4717 15.3156 35.4717 12.0859C35.4717 8.92902 32.8875 6.25781 29.6753 6.25781C26.4631 6.25781 23.8789 8.92902 23.8789 12.0859C23.8789 15.3399 26.4631 17.914 29.6753 17.914Z" fill="#0A2240"/>
</g>
<defs>
<clipPath id="clip0_236_58463">
<rect width="45" height="47.5" fill="white" transform="translate(7.5 6.25)"/>
</clipPath>
</defs>
</svg>
