<svg xmlns="http://www.w3.org/2000/svg" width="25" height="20" viewBox="0 0 25 20" fill="#011340">
  <mask id="mask0_2864_98963" style="mask-type:luminance" maskUnits="userSpaceOnUse" x="0" y="6" width="25" height="8">
    <path d="M0 13.8479V6H24.5V13.8479H0Z" fill="#011340"/>
  </mask>
  <g mask="url(#mask0_2864_98963)">
    <path fill-rule="evenodd" clip-rule="evenodd" d="M12.131 6.13869L10.4939 13.7293H8.51419L10.1518 6.13869H12.131ZM20.4601 11.04L21.5022 8.18969L22.1021 11.04H20.4601ZM22.6691 13.7293H24.5L22.9023 6.13869H21.2118C20.832 6.13869 20.5117 6.35788 20.3691 6.69563L17.3989 13.7293H19.4779L19.8905 12.5957H22.4306L22.6691 13.7293ZM17.5022 11.2509C17.5109 9.24756 14.7088 9.13731 14.7284 8.24219C14.7341 7.96962 14.9957 7.68044 15.568 7.6065C15.8519 7.56975 16.6333 7.54131 17.5201 7.946L17.8675 6.33687C17.3906 6.16494 16.7781 6 16.0156 6C14.0591 6 12.6818 7.03206 12.67 8.5095C12.6577 9.60194 13.6531 10.2114 14.4034 10.5745C15.1743 10.9468 15.4337 11.1853 15.4302 11.5178C15.4254 12.0274 14.8151 12.2519 14.2459 12.2611C13.2501 12.2764 12.6726 11.9942 12.2124 11.7816L11.8536 13.4445C12.3161 13.6554 13.1696 13.8382 14.0556 13.8479C16.135 13.8479 17.4956 12.8285 17.5022 11.2509ZM9.30212 6.13869L6.09481 13.7293H4.00181L2.42375 7.67125C2.3275 7.29806 2.24437 7.16156 1.953 7.0045C1.47744 6.74813 0.69125 6.50837 0 6.35875L0.04725 6.13869H3.416C3.84475 6.13869 4.23106 6.42219 4.32863 6.91262L5.1625 11.3051L7.22269 6.13869H9.30212Z" fill="#011340"/>
  </g>
</svg>