<svg width="64" height="64" viewBox="0 0 64 64" fill="none" xmlns="http://www.w3.org/2000/svg">
<circle cx="32" cy="32" r="32" fill="#0071CE"/>
<path d="M47.0332 22.9062C47.0332 23.5039 46.7676 24.0352 46.3691 24.4336L29.3691 41.4336C28.9707 41.832 28.4395 42.0312 27.9082 42.0312C27.3105 42.0312 26.7793 41.832 26.3809 41.4336L17.8809 32.9336C17.4824 32.5352 17.2832 32.0039 17.2832 31.4062C17.2832 30.2109 18.2129 29.2812 19.4082 29.2812C19.9395 29.2812 20.4707 29.5469 20.8691 29.9453L27.9082 36.918L43.3809 21.4453C43.7793 21.0469 44.3105 20.7812 44.9082 20.7812C46.0371 20.7812 47.0332 21.7109 47.0332 22.9062Z" fill="white"/>
</svg>
