<svg xmlns="http://www.w3.org/2000/svg" viewBox="0 0 500 500"><defs><style>.cls-1{fill:#8eadd5;}.cls-2{fill:#cbdeee;}.cls-16,.cls-3{fill:#2e344b;}.cls-4{fill:#b9cfe6;}.cls-12,.cls-13,.cls-14,.cls-5{fill:#fff;}.cls-6{fill:#ebab6f;}.cls-7{fill:#6779b7;}.cls-8{fill:#d8877b;}.cls-9{fill:#b44e50;}.cls-10{fill:#c85f64;}.cls-11{fill:#d3723f;}.cls-12{font-size:71.41px;}.cls-12,.cls-13,.cls-14,.cls-16{font-family:Quicksand-Bold, Quicksand;font-weight:700;}.cls-13{font-size:60.67px;}.cls-14{font-size:60.67px;}.cls-15{fill:#4f6e59;}.cls-16{font-size:14.99px;}.cls-17{letter-spacing:0em;}.cls-18{letter-spacing:-0.05em;}</style></defs><g id="BACKGROUND"><path class="cls-1" d="M37.62,427.05s26.17-96,57.5-96,27.81,39.19,69.79,39.19S216.46,254.11,262,254.11s25.11,94.15,58.71,94.15,44.48-27,72.72-27S461.36,427,461.36,427Z"/><circle class="cls-2" cx="361.94" cy="148.22" r="73.51"/></g><g id="OBJECTS"><rect class="cls-3" x="262" y="285.95" width="179.74" height="114.77" rx="5.01"/><rect class="cls-4" x="267.05" y="291.29" width="169.64" height="104.09" rx="2.88"/><rect class="cls-5" x="302.06" y="308.24" width="99.61" height="70.19"/><rect class="cls-6" x="302.06" y="308.24" width="99.61" height="5.85"/><rect class="cls-3" x="396.32" y="309.67" width="3.43" height="3.43" rx="1.07"/><rect class="cls-3" x="391.71" y="309.67" width="3.43" height="3.43" rx="1.07"/><rect class="cls-3" x="387.11" y="309.67" width="3.43" height="3.43" rx="1.07"/><rect class="cls-7" x="330.46" y="400.72" width="42.82" height="19.57"/><rect class="cls-3" x="299.68" y="420.29" width="104.38" height="6.76" rx="3.3"/><path class="cls-5" d="M251.3,208.88l1.49.48a.74.74,0,0,1,0,1.41l-1.49.48a6.1,6.1,0,0,0-3.92,3.92l-.48,1.48a.74.74,0,0,1-1.4,0l-.48-1.48a6.1,6.1,0,0,0-3.92-3.92l-1.49-.48a.74.74,0,0,1,0-1.41l1.49-.48A6.1,6.1,0,0,0,245,205l.48-1.48a.74.74,0,0,1,1.4,0l.48,1.48A6.1,6.1,0,0,0,251.3,208.88Z"/><path class="cls-5" d="M261.32,221.48l1.1.35a.55.55,0,0,1,0,1l-1.1.36a4.47,4.47,0,0,0-2.9,2.9l-.36,1.1a.55.55,0,0,1-1,0l-.35-1.1a4.51,4.51,0,0,0-2.9-2.9l-1.1-.36a.54.54,0,0,1,0-1l1.1-.35a4.55,4.55,0,0,0,2.9-2.9l.35-1.1a.54.54,0,0,1,1,0l.36,1.1A4.51,4.51,0,0,0,261.32,221.48Z"/><path class="cls-5" d="M115.5,149.67l1.1.35a.55.55,0,0,1,0,1l-1.1.36a4.49,4.49,0,0,0-2.9,2.9l-.36,1.1a.54.54,0,0,1-1,0l-.36-1.1a4.49,4.49,0,0,0-2.9-2.9l-1.1-.36a.55.55,0,0,1,0-1l1.1-.35a4.53,4.53,0,0,0,2.9-2.9l.36-1.1a.54.54,0,0,1,1,0l.36,1.1A4.53,4.53,0,0,0,115.5,149.67Z"/><path class="cls-5" d="M97,357l1.1.35a.55.55,0,0,1,0,1l-1.1.36a4.47,4.47,0,0,0-2.9,2.9l-.36,1.1a.55.55,0,0,1-1,0l-.35-1.1a4.51,4.51,0,0,0-2.9-2.9l-1.1-.36a.55.55,0,0,1,0-1l1.1-.35a4.55,4.55,0,0,0,2.9-2.9l.35-1.1a.54.54,0,0,1,1,0l.36,1.1A4.51,4.51,0,0,0,97,357Z"/><path class="cls-5" d="M451,277.55l1.1.36a.54.54,0,0,1,0,1l-1.1.36a4.48,4.48,0,0,0-2.89,2.89l-.36,1.11a.55.55,0,0,1-1,0l-.36-1.11a4.48,4.48,0,0,0-2.89-2.89l-1.11-.36a.55.55,0,0,1,0-1l1.11-.36a4.48,4.48,0,0,0,2.89-2.89l.36-1.1a.54.54,0,0,1,1,0l.36,1.1A4.48,4.48,0,0,0,451,277.55Z"/><path class="cls-3" d="M95.37,181.75c10.72,4.17,20.69,24.56,19.5,31.11l-17-5.66-6.84-14Z"/><path class="cls-8" d="M94.63,187.29c4.7-2.77,14.94-8,20.19-12.18s25.73-13,25.73-13l8,42.61a50.38,50.38,0,0,1-13.84,1.1c-6.91-.55-10-1.93-13-1.1s-13,9.4-13,9.4Z"/><path class="cls-9" d="M108.74,214.12s4.94-4.25,8.92-7.06c-7.53-5.11-18.08-18.55-20.25-21.36-1,.59-2,1.12-2.78,1.59Z"/><path class="cls-3" d="M309.53,281.61c4.69-.89,15,5.58,18.53,8.71s8.11,15.4,8.11,15.4l-24-10.27Z"/><path class="cls-8" d="M304.85,290.49s14-14.13,18.4-20.22,7.92-25.56,12.59-32.71,13.07-13.52,16.07-16.07,5.11.78,4.78,2.26-8.21,13.74-8.21,13.74,4.28-.19,5.36,5.06c0,0,4.72.13,3.91,4.8,0,0,5.28,2.77,2.68,5.69-4.58,5.13-4.62,8.41-8,13.51s-7.81,11.16-7.81,11.16-13.5,30.36-14.06,32Z"/><path class="cls-9" d="M335.21,298.89l-23.3-15.69,0,0-.53.56,0,.05-2.62,9.5,12.38,9.29,4.39,3.29,5.77,2.14C332,306.12,333.52,302.73,335.21,298.89Z"/><path class="cls-3" d="M169.74,133.13c-53.89,8.9-46.65,57.23-44,73.52s-17,30.38-6.73,43.58,34.54,26,62.8,21.57,50.1-11.71,57-23.33c8.08-13.65-6.73-31.26-8.07-55.47S215.05,125.65,169.74,133.13Z"/><path class="cls-7" d="M143.14,256.91c-16.37,1.49-21.58,2.38-28.72-.6s-19.79-13.84-22.77-19.79,22-22.17,23.22-23.66c-5.36-4.77-15.63-13.25-19.5-31.11C90.91,181.46,54,202.29,43,221.34S59.8,275.07,72,283.7s48.66,33.19,48.66,33.19,4,87.35-2.83,113.25H240.77s-12.72-37.09-6.55-50.3c14.36-30.72,6.85-44.65,7.15-50,0,0,25,29.77,44.35,27.68s50.45-51.79,50.45-51.79l-26.64-24.11s-20.24,22.33-25.3,27.69-29.77-33.49-34.83-38.55-22-12.65-32.28-12.71C205.5,257.06,143.14,256.91,143.14,256.91Z"/><path class="cls-8" d="M160.41,228.33s1.17,14.73-3,22.63c-3,5.65-14.29,6-14.29,6s12.21,28.28,38.1,28S217.12,258,217.12,258a19.11,19.11,0,0,1-11.28-3.88C200.19,250,201.48,234,201.48,234Z"/><path class="cls-9" d="M194.76,233.06l-34.35-4.73s1.13,14.22-2.77,22.2c31.64,10.55,45-7,45-7Z"/><path class="cls-8" d="M143.14,205.72S133,207.5,136.3,216.43s13.09,6.25,13.09,6.25,14.39,34.13,50.9,24.11c33.64-9.23,19.65-55.66,16.08-68.46,0,0-41.38,5.66-55.07-8.33C161.3,170,159.51,196.19,143.14,205.72Z"/><path class="cls-9" d="M348.66,238.7a4,4,0,0,0-3.49-1,11.35,11.35,0,0,0-3.91,1.38c-1.29.66-2.57,1.36-3.79,2.13a18.72,18.72,0,0,0-5.85,5.42,10.74,10.74,0,0,0-1.59,3.92,21.45,21.45,0,0,1-1,4.71c-.11.25.23.46.37.22a11.16,11.16,0,0,0,1.17-3.26,17.59,17.59,0,0,1,.95-3.5,13.46,13.46,0,0,1,4.54-5.41,39,39,0,0,1,6.51-3.83,6.75,6.75,0,0,1,3.83-.8,2.16,2.16,0,0,1,1.56.79c.3.55,0,1.31-.26,1.82-1.07,2.43-3.14,4.22-5.13,5.89a.61.61,0,0,0-.15.58,13.36,13.36,0,0,1-.11,7.62,13.74,13.74,0,0,1-1.67,3.5c-.71,1.07-1.69,1.89-2.43,2.93-.25.37.23.7.56.56a7.81,7.81,0,0,0,2.89-2.9,15.06,15.06,0,0,0,1.81-3.77,14.07,14.07,0,0,0,.19-7.9c1.86-1.61,3.82-3.33,4.84-5.62C349,241.12,349.47,239.71,348.66,238.7Z"/><path class="cls-9" d="M361.07,249.8A5.17,5.17,0,0,0,360,248c-.42-.48-1.12-1.17-1.79-1.15a.41.41,0,0,0-.18,0,4.79,4.79,0,0,0-.39-2.31,4.26,4.26,0,0,0-3.94-2.55,3.67,3.67,0,0,0-.32-1.86,5.26,5.26,0,0,0-4.45-2.88.42.42,0,0,0-.11.82c1.63.34,3.24,1.07,3.77,2.79s-.66,3.38-1.48,4.82a30,30,0,0,1-2.7,4.4,5.55,5.55,0,0,1-1.78,1.45,3.9,3.9,0,0,1-1.09.37,3.5,3.5,0,0,0-1,.22.11.11,0,0,0,0,.17,1.73,1.73,0,0,0,1.71.28,3,3,0,0,0,1.1,1.64,3.47,3.47,0,0,0,2,.9,4.18,4.18,0,0,0,1.58-.15.24.24,0,0,0,0,.09,3.59,3.59,0,0,0,2.05,3c1.39.55,2.93-.17,4.05-1a15.79,15.79,0,0,0,3.3-3.33A4.29,4.29,0,0,0,361.07,249.8Zm-13.05,4a5.48,5.48,0,0,1-1-.87,2.56,2.56,0,0,0-.51-.48,2.11,2.11,0,0,0,.3-.1,5.47,5.47,0,0,0,2.14-1.51,30.79,30.79,0,0,0,3.33-5.29,11.52,11.52,0,0,0,1.29-2.73h.06A3.34,3.34,0,0,1,357,246a6.42,6.42,0,0,1-2,4.61,21.63,21.63,0,0,1-1.9,1.81,7.93,7.93,0,0,1-2.37,1.56A3.11,3.11,0,0,1,348,253.84Zm10.26.58c-1,1.12-2.29,2.45-3.82,2.83a2.14,2.14,0,0,1-2-.47,5.22,5.22,0,0,1-1-1.88c0-.05-.06-.06-.09-.08a9.47,9.47,0,0,0,2.65-1.66c1.72-1.45,3.57-3.45,4-5.7a3.54,3.54,0,0,0,.64.5,4.32,4.32,0,0,1,.75.73,3.85,3.85,0,0,1,.79,1.73C360.43,252,359.29,253.33,358.28,254.42Z"/><path class="cls-9" d="M348.54,260.89c0-.51,0-1-.09-1.52a12.45,12.45,0,0,0-.58-2.89,8.66,8.66,0,0,0-3.52-4.59c-.21-.13-.52.14-.36.35.56.75,1.29,1.35,1.85,2.09a7.72,7.72,0,0,1,1.25,2.54,15.08,15.08,0,0,1,.47,2.67c0,.48.06,1,.09,1.43a1.66,1.66,0,0,0,.28,1.12.28.28,0,0,0,.39,0A1.6,1.6,0,0,0,348.54,260.89Z"/><path class="cls-9" d="M216.62,179.24c-.09-.32-.18-.63-.25-.91,0,0-41.38,5.66-55.07-8.33,0,0-1.79,26.19-18.16,35.72,17.56-5.22,21.43-23.22,20.69-29C163.83,176.69,181.33,188.45,216.62,179.24Z"/><path class="cls-9" d="M145.58,218.49h-.11l-.09,0c-.33.1-.07.05-.31.11l-.29.07h-.14l-.17-.05c.15.05-.1-.1,0,0a.7.7,0,0,1-.19-.28c-.07-.18,0,0,0-.16a1.41,1.41,0,0,0,0-.21c0-.07.09-.22,0-.12.09-.18,0,0,.11-.14s0,0,.13-.12l.19-.1a2,2,0,0,1,.35-.11h.21a1.2,1.2,0,0,0,.84-2,2.71,2.71,0,0,1-.42-.7l-.38-.7c-.25-.47-.5-.94-.76-1.4a4.64,4.64,0,0,0-2.41-2.21,2.88,2.88,0,0,0-2.93.72,4.71,4.71,0,0,0-.82,1.1,2.18,2.18,0,0,0-.39,1.57.78.78,0,0,0,1.14.46,2.3,2.3,0,0,0,.77-.94,3.78,3.78,0,0,1,.51-.68,1.13,1.13,0,0,1,.27-.22.62.62,0,0,1,.29-.13h.06a.74.74,0,0,1,.21,0,1.2,1.2,0,0,1,.48.2,4.18,4.18,0,0,1,1.15,1.56l.59,1.15.19.37a3.53,3.53,0,0,0-1,.94,2.93,2.93,0,0,0-.24,2.82,2.4,2.4,0,0,0,2.16,1.43,1.71,1.71,0,0,0,1.9-1.66A.63.63,0,0,0,145.58,218.49Z"/><path class="cls-3" d="M330.62,307.23c-3.34-2.37-6.61-4.87-9.77-7.47s-6.15-5.26-9.11-8c-1.55-1.45-3.08-2.91-4.56-4.43-.49-.49-.95-1-1.41-1.55l-.9,1,1.08,1.18c1.43,1.57,2.92,3.09,4.42,4.59,3,3,6.16,5.85,9.4,8.61s6.38,5.22,9.69,7.67c1.06.78,2.13,1.53,3.2,2.28.41-.61.78-1.17,1.13-1.68C332.73,308.68,331.66,308,330.62,307.23Z"/><path class="cls-3" d="M91.63,198.22a61.2,61.2,0,0,0,12,16.73c1.24,1.23,2.55,2.38,3.9,3.49l1.34-1c-1-.82-2-1.66-2.92-2.55A60.86,60.86,0,0,1,99,207.28a62,62,0,0,1-9.48-17.84c-.55-1.62-1-3.26-1.48-4.91l-1,.5c.26,1.2.54,2.39.87,3.57A57.58,57.58,0,0,0,91.63,198.22Z"/><path class="cls-3" d="M222.83,258.67a57.75,57.75,0,0,1-25,27.66,38.65,38.65,0,0,1-11.27,4.54c-4.4.83-9.32-.18-13.59-1.29a51.55,51.55,0,0,1-31.2-23.1,64.19,64.19,0,0,1-4.36-9l-1.12.1a44.37,44.37,0,0,0,3.84,8.6,52,52,0,0,0,29.43,24.12,48.26,48.26,0,0,0,13.25,2.48c4.56.16,8.78-1.47,12.84-3.38a59.31,59.31,0,0,0,18.68-14,60,60,0,0,0,10.45-16.29C224.14,258.94,223.48,258.8,222.83,258.67Z"/><path class="cls-3" d="M207.15,389.59c-1.84.45-3.54,1.64-5.27,2.4s-3.66,1.49-5.54,2.1a59.95,59.95,0,0,1-34.94.42c-4.25-1.25-8.12-3.19-12.18-4.9-.29-.13-.56.34-.31.54a36.58,36.58,0,0,0,10.48,5.45,56.81,56.81,0,0,0,11.92,3,59.56,59.56,0,0,0,24.27-1.69,53.25,53.25,0,0,0,6.53-2.31c2-.86,4.47-1.74,6-3.31A1,1,0,0,0,207.15,389.59Z"/><path class="cls-3" d="M216.27,393.63a12.86,12.86,0,0,0-3.43,2.46,25.65,25.65,0,0,1-3.66,2.36,42,42,0,0,1-4,1.89c-.41.18-3.37,1.26-2.83,2,.35.48,1.12.23,1.61.12a15.14,15.14,0,0,0,2.08-.64,45,45,0,0,0,4.36-1.82,22.18,22.18,0,0,0,3.86-2.39A10.59,10.59,0,0,0,216,396a3.57,3.57,0,0,0,.86-2A.43.43,0,0,0,216.27,393.63Z"/><path class="cls-3" d="M122.1,318.26a.29.29,0,0,0,0-.09s0-.05,0-.07c0-1,0-2.08-.08-3.12a45.4,45.4,0,0,0-.66-4.8,12.16,12.16,0,0,0-1.43-4.46.06.06,0,0,0-.11,0,25.72,25.72,0,0,0,.45,4.94c.2,1.66.28,3.33.35,5,0,.21,0,.43,0,.65l-.55-.55c-.37-.35-.72-.72-1.09-1.06a3.82,3.82,0,0,0-1.2-.91c-.14-.05-.24.1-.22.22a3.24,3.24,0,0,0,.73,1.32c.31.42.66.81,1,1.2s.7.74,1.07,1.09l.28.26q0,1.4-.06,2.79a7.52,7.52,0,0,0,.62,4.3c.26.43,1.09.3,1-.27A46.71,46.71,0,0,1,122.1,318.26Z"/><path class="cls-3" d="M241.2,324.18c-.34-1.29-.69-2.58-1.14-3.84-.23-.66-.47-1.31-.72-2s-.67-1.24-.94-1.89c0,0-.09,0-.07,0,.17.66.18,1.38.36,2.05s.33,1.35.49,2c.29,1.26.6,2.51.87,3.77.55,2.6,1,5.23,1.66,7.82a.38.38,0,0,0,.75-.1A35.28,35.28,0,0,0,241.2,324.18Z"/><path class="cls-3" d="M177.1,190c.27-.57.12-.27,0-.09A.94.94,0,0,1,177.1,190Z"/><path class="cls-3" d="M176.83,188a2.75,2.75,0,0,0-1-.62,3,3,0,0,0-1.39,0,7.47,7.47,0,0,0-1,.28,9.08,9.08,0,0,0-2.28,1.21c-1.4,1-2.92,2.31-3.34,4a1.58,1.58,0,0,0,2.31,1.77,8.32,8.32,0,0,0,1.26-1l.34-.28c-.2.16.25-.21.39-.31l0,0,0,0h0a.82.82,0,0,1,.17-.11,9.17,9.17,0,0,1,.83-.55,10.87,10.87,0,0,1,1.13-.57l1-.42-.51.21c.41-.17.86-.29,1.25-.5a2.83,2.83,0,0,0,.51-.34,1.84,1.84,0,0,0,.61-.79l0-.06A1.71,1.71,0,0,0,176.83,188Z"/><path class="cls-3" d="M172.09,193.08l.19-.13-.18.12Z"/><path class="cls-3" d="M207.42,186.66a2.82,2.82,0,0,0-.95-.93,8.75,8.75,0,0,0-2.41-1.09,9.75,9.75,0,0,0-2.51-.46c-.37,0-.74,0-1.11,0a2,2,0,0,0-1.25.36,1.56,1.56,0,0,0-.6,1.66,1.9,1.9,0,0,0,.76,1,2.52,2.52,0,0,0,.76.25c.3.08.6.18.9.28.51.18,1,.36,1.53.56s.72.34,1.08.53c.2.11.4.19.61.29l.3.15a3.08,3.08,0,0,0,1,.3,1.92,1.92,0,0,0,1.27-.24,1.83,1.83,0,0,0,.83-1.08A2.06,2.06,0,0,0,207.42,186.66Z"/><path class="cls-3" d="M205.73,189.6l-.16,0-.36,0Z"/><path class="cls-3" d="M181.13,202.77c-.39-2.65-1.82-5.14-4.24-5a3.12,3.12,0,0,0-2.48,1.59,5,5,0,0,0-.52,1.36,7.15,7.15,0,0,0-.21,1.45c-.2,2.88,3,10.18,6.61,5.68C181.15,206.8,181.43,204.74,181.13,202.77Z"/><path class="cls-3" d="M205.68,200.25c-.36-2.44-1.67-4.73-3.9-4.56a2.88,2.88,0,0,0-2.28,1.47,4.62,4.62,0,0,0-.48,1.25,6.68,6.68,0,0,0-.2,1.33c-.17,2.65,2.8,9.37,6.08,5.23A6.55,6.55,0,0,0,205.68,200.25Z"/><path class="cls-9" d="M195.76,210.19c-.59-.45-1.23-.81-1.78-1.32a7.27,7.27,0,0,1-1.43-1.79,12.92,12.92,0,0,1-.92-2.13c-.06-.18-.36-1.23-.76-1-1.06.52-.31,2.66,0,3.45a8.36,8.36,0,0,0,2.43,3.24c.88.71,2.17,1.26,2.15,2.56a3.33,3.33,0,0,1-.46,1.53c-.14.25-.3.5-.43.75a8,8,0,0,1-.44.88.46.46,0,0,0,.52.68,3.22,3.22,0,0,0,1.76-1.08,4.5,4.5,0,0,0,.84-1.94A3.8,3.8,0,0,0,195.76,210.19Z"/><path class="cls-9" d="M199.85,222.38l-.14-.1a4.48,4.48,0,0,0-3.21-1.08,7.71,7.71,0,0,0-3.38.7,7,7,0,0,0-2.35,1.74c-.59.68-1.47,1.83-1.16,2.79a.63.63,0,0,0,.91.37,3.37,3.37,0,0,0,.83-1,5.23,5.23,0,0,1,2.65-2,7.06,7.06,0,0,1,2.58-.34,13,13,0,0,1,1.39.12,6.68,6.68,0,0,0,.77.07c.26,0,.51,0,.77,0C200.25,223.7,200.32,222.73,199.85,222.38Z"/><path class="cls-5" d="M180.32,198.48a1.56,1.56,0,0,0-.43-.72l-.33-.26a1.58,1.58,0,0,0-.82-.22,1.76,1.76,0,0,0-1.16.48,1.16,1.16,0,0,0-.34.53,1.22,1.22,0,0,0-.14.63l.06.43a1.47,1.47,0,0,0,.42.72l.33.26a1.59,1.59,0,0,0,.83.22,1.17,1.17,0,0,0,.63-.14,1.52,1.52,0,0,0,.86-.86,1.17,1.17,0,0,0,.14-.63Z"/><path class="cls-5" d="M205.33,196.5a1.49,1.49,0,0,0-.39-.66l-.3-.24a1.57,1.57,0,0,0-.76-.2,1.06,1.06,0,0,0-.58.13,1.11,1.11,0,0,0-.49.31,1.66,1.66,0,0,0-.44,1.06c0,.14,0,.27,0,.4a1.67,1.67,0,0,0,.39.67l.31.23a1.45,1.45,0,0,0,.76.21,1.06,1.06,0,0,0,.58-.13,1,1,0,0,0,.48-.31,1.23,1.23,0,0,0,.32-.49,1.27,1.27,0,0,0,.13-.58Z"/><path class="cls-10" d="M176.27,213.53c.31,2.32-2.6,4.63-6.51,5.17s-7.33-.92-7.65-3.24,2.59-4.63,6.5-5.17S176,211.21,176.27,213.53Z"/><path class="cls-10" d="M218.46,208.3c.25,1.88-2.1,3.75-5.26,4.18s-5.93-.74-6.18-2.61,2.09-3.75,5.25-4.18S218.2,206.43,218.46,208.3Z"/><path class="cls-10" d="M173.62,198.36a1.14,1.14,0,0,0-.34-.59l-.32-.29c-.11-.1-.22-.18-.32-.28l-.16-.15a1.08,1.08,0,0,0-.41-.25.7.7,0,0,0-.35,0h0a.7.7,0,0,0-.45.21.77.77,0,0,0-.23.56v0a.66.66,0,0,0,.08.34.7.7,0,0,0,.23.31l.31.25c.12.09.24.18.37.26l.38.21a1,1,0,0,0,.34.11l.17,0a.91.91,0,0,0,.33,0A.57.57,0,0,0,173.62,198.36Z"/><path class="cls-10" d="M173,200.19a.79.79,0,0,0-.3-.35,1.18,1.18,0,0,0-.77-.2h-.48l-.49,0a2.26,2.26,0,0,0-.44.08l-.28.11a1.09,1.09,0,0,0-.35.36.8.8,0,0,0-.12.43.85.85,0,0,0,.12.43,1,1,0,0,0,.63.49,1.52,1.52,0,0,0,.48.1,2.55,2.55,0,0,0,.73-.06,2.43,2.43,0,0,0,.48-.14,1.39,1.39,0,0,0,.56-.33,1.56,1.56,0,0,0,.27-.47l0-.2A.55.55,0,0,0,173,200.19Z"/><path class="cls-10" d="M206.78,193c-.53-.22-.94.36-1.13.77-.06.13-.12.27-.19.39a2,2,0,0,1-.1.21c0,.07-.07.15-.1.24a2.58,2.58,0,0,0,0,.29.72.72,0,0,0,.45.65.59.59,0,0,0,.37,0,.91.91,0,0,0,.65-.49c0-.07.07-.13.1-.2l.23-.54C207.21,193.94,207.32,193.23,206.78,193Z"/><path class="cls-10" d="M208.85,195.78a.86.86,0,0,0-.93-.15l-.35.13a1.84,1.84,0,0,0-.56.28,1.64,1.64,0,0,0-.3.35.46.46,0,0,0,.27.66l.32,0,.11,0a1.09,1.09,0,0,0,.25,0l.4-.07h.16a1.66,1.66,0,0,0,.22,0,1.89,1.89,0,0,0,.21-.09.63.63,0,0,0,.3-.28l.07-.16a.46.46,0,0,0,0-.26A.68.68,0,0,0,208.85,195.78Z"/><rect class="cls-3" x="27.11" y="427.05" width="445.77" height="8.56" rx="3.74"/><polygon class="cls-11" points="307.15 191.15 313.84 194.13 315.41 188.34 307.15 191.15"/><path class="cls-11" d="M341.21,121.9l-3.36-4.8a4,4,0,0,0-3.25-1.69H309.15a4,4,0,0,0-4,4v68.35a4,4,0,0,0,4,4h91.36a4,4,0,0,0,4-4V127.56a4,4,0,0,0-4-4H344.46A4,4,0,0,1,341.21,121.9Z"/><rect class="cls-6" x="311.59" y="126.39" width="99.29" height="68.1" rx="3.68"/><circle class="cls-5" cx="402.5" cy="124.99" r="24.07" transform="translate(214.65 502.27) rotate(-80.78)"/><path class="cls-10" d="M407.5,125l7.2-7.19a3.54,3.54,0,1,0-5-5L402.5,120l-7.2-7.19a3.54,3.54,0,0,0-5,5l7.2,7.19-7.2,7.2a3.54,3.54,0,0,0,5,5l7.2-7.19,7.19,7.19a3.54,3.54,0,1,0,5-5Z"/><text class="cls-12" transform="translate(162.85 112.55)">?</text><text class="cls-13" transform="matrix(0.93, 0.37, -0.37, 0.93, 206.71, 126.96)">?</text><text class="cls-14" transform="translate(117.88 136.45) rotate(-21.25)">?</text><path class="cls-15" d="M59.3,401.76s-6.76-37.13,14.36-37.13,14.77,35.9,14.77,35.9Z"/><polygon class="cls-10" points="90.49 398.64 56.84 398.64 58.54 427.03 88.79 427.03 90.49 398.64"/><path class="cls-5" d="M72.1,366a3,3,0,0,0-.09-.41,4.19,4.19,0,0,0-.34-.89,4.3,4.3,0,0,0-.41-.72q-.14-.19-.3-.39a.93.93,0,0,0-.34-.28.36.36,0,0,0-.54.31,2.77,2.77,0,0,0,.16.8c.06.26.14.51.2.77s.11.51.18.76l.09.38a.94.94,0,0,0,.11.32.67.67,0,0,0,.25.25l.11,0a.57.57,0,0,0,.74-.15h0l0,0,0,0a.66.66,0,0,0,.17-.29A1,1,0,0,0,72.1,366Z"/><path class="cls-5" d="M63,371.43h0S63.12,371.46,63,371.43Z"/><path class="cls-5" d="M64.18,372.13a1.69,1.69,0,0,0-.41-.34,1.34,1.34,0,0,0-.27-.13h0l-.09,0-.32-.14-.09,0h0l-.39-.19c-.52-.27-1-.61-1.49-.9a.5.5,0,0,0-.68.68,3.42,3.42,0,0,0,.64.78,8.62,8.62,0,0,0,.83.63,4.65,4.65,0,0,0,.78.45,2.3,2.3,0,0,0,.57.21,1.39,1.39,0,0,0,.35,0,2,2,0,0,0,.35-.05A.57.57,0,0,0,64.18,372.13Z"/><path class="cls-5" d="M71.59,372.87a4,4,0,0,0-.69-.88,4.64,4.64,0,0,0-.38-.39l-.22-.18c-.06,0-.11-.09-.18-.13s-.2-.09-.1-.05,0,0,0,0a.44.44,0,0,0-.49,0,.44.44,0,0,0-.16.47.43.43,0,0,1,0,0h0c0-.09,0-.09,0,0a1,1,0,0,0,.07.24l.13.24a4.5,4.5,0,0,0,.25.41,5.81,5.81,0,0,0,.69.88,1.93,1.93,0,0,0,.28.22.67.67,0,0,0,.55.1.58.58,0,0,0,.39-.41A.81.81,0,0,0,71.59,372.87Z"/><path class="cls-5" d="M61,380.78a1.72,1.72,0,0,0-.64-.34,1.78,1.78,0,0,0-.46,0h-.35c-.21,0-.43,0-.65,0h-.32l-.23,0a.42.42,0,0,0-.14.06h0a.34.34,0,0,0-.15.56s0,0,0,0a.58.58,0,0,0,.1.12,1,1,0,0,0,.2.14,2.46,2.46,0,0,0,.38.14,3.49,3.49,0,0,0,.7.2,2.55,2.55,0,0,0,.87,0,1.35,1.35,0,0,0,.69-.4A.37.37,0,0,0,61,380.78Z"/><path class="cls-5" d="M69,380.7a1.32,1.32,0,0,0-.41-.37l-.46-.3c-.15-.1-.31-.19-.47-.28a4,4,0,0,0-.6-.26.49.49,0,0,0-.53.18.48.48,0,0,0,0,.55,2.29,2.29,0,0,0,.41.52,3.91,3.91,0,0,0,.54.45c.16.1.31.21.48.3a1.2,1.2,0,0,0,.52.18.89.89,0,0,0,.45-.09.51.51,0,0,0,.26-.45A.92.92,0,0,0,69,380.7Z"/><path class="cls-5" d="M65.27,388.33h0l0,0Z"/><path class="cls-5" d="M65.26,388.35v0S65.23,388.37,65.26,388.35Z"/><path class="cls-5" d="M65.27,387.71l0,0-.09-.12a.75.75,0,0,0-.3-.17,1,1,0,0,0-.35-.09,2.92,2.92,0,0,0-.59,0l-.41.09-.1,0a.48.48,0,0,0-.25.14l.06-.05-.09.05a.41.41,0,0,0-.11.12h0a.3.3,0,0,0-.07.44.51.51,0,0,0,.27.25s0,0,0,0a.42.42,0,0,0,.18.11.53.53,0,0,0,.15.05l.43.09a3.76,3.76,0,0,0,.58,0,.81.81,0,0,0,.34-.08.82.82,0,0,0,.26-.14.29.29,0,0,0,.13-.14A.46.46,0,0,0,65.27,387.71Z"/><path class="cls-5" d="M61.12,393.64a.53.53,0,0,0-.35-.32.9.9,0,0,0-.54,0l-.31.12c-.12,0-.23.1-.35.15l-.09,0-.21.09c-.11,0-.22.1-.33.15h0l-.07,0-.13.05a5.54,5.54,0,0,0-.68.25.42.42,0,0,0,.1.75,2.47,2.47,0,0,0,.72,0,4.15,4.15,0,0,0,.79-.07,3.36,3.36,0,0,0,.76-.24,1.26,1.26,0,0,0,.67-.55A.53.53,0,0,0,61.12,393.64Z"/><path class="cls-5" d="M72.38,393a.55.55,0,0,0,0-.18c0-.08,0-.14-.13-.13a.29.29,0,0,0-.1,0h-.07l.12,0h0a.62.62,0,0,0-.38,0,1,1,0,0,0-.33.13l-.45.29-.46.25a1.16,1.16,0,0,0-.24.14,1.91,1.91,0,0,0-.34.24.65.65,0,0,0,.64,1.09,2,2,0,0,0,.71-.42c.14-.11.28-.24.41-.36l.38-.39a.79.79,0,0,0,.18-.29.42.42,0,0,0,0-.1A.88.88,0,0,0,72.38,393Z"/><path class="cls-5" d="M75.76,385.6l-.09-.07h0a.52.52,0,0,0-.5,0l-.11.08a.65.65,0,0,0-.16.09l-.15.13-.15.13c-.14.1-.29.19-.42.3l.13-.11a5.63,5.63,0,0,0-.91.67.58.58,0,0,0-.12.61.62.62,0,0,0,.17.22.54.54,0,0,0,.34.12H74a1.33,1.33,0,0,0,.52-.17,3.29,3.29,0,0,0,.44-.28,2.51,2.51,0,0,0,.47-.45l.24-.31a.86.86,0,0,0,.07-.1.45.45,0,0,0,.07-.25.5.5,0,0,0,0-.13A.48.48,0,0,0,75.76,385.6Z"/><path class="cls-5" d="M82.59,365.54c0-.09,0-.18,0-.27a.85.85,0,0,0-.09-.22c0-.09-.18-.13-.19-.23s0,0-.06,0l0,0a.56.56,0,0,0-.45.19,1.92,1.92,0,0,0-.3.34,7.38,7.38,0,0,0-.41.72l-.39.71c-.07.12-.13.24-.19.36a1.09,1.09,0,0,0-.12.46.55.55,0,0,0,0,.22c.07.18.08.22,0,.1a.55.55,0,0,0,.48.38H81a.69.69,0,0,0,.34-.09,1,1,0,0,0,.26-.2,2.89,2.89,0,0,0,.33-.45,6.3,6.3,0,0,0,.45-.9,3.54,3.54,0,0,0,.23-.83.55.55,0,0,0,0-.22Z"/><path class="cls-5" d="M80.89,368.34h0C80.77,368.32,80.78,368.32,80.89,368.34Z"/><path class="cls-5" d="M88.88,375.92a.49.49,0,0,0-.52,0l-.17.08a1,1,0,0,0-.16.12h0c-.09.08-.19.14-.28.21a6.55,6.55,0,0,1-.66.41c-.22.12-.45.24-.68.34l-.06,0h0l-.28.12a.89.89,0,0,0-.45.36.55.55,0,0,0,.19.73,1.33,1.33,0,0,0,1.1-.06,4,4,0,0,0,.85-.42,4.34,4.34,0,0,0,.72-.56,2.13,2.13,0,0,0,.29-.31,1.2,1.2,0,0,0,.19-.27l.1-.24A.5.5,0,0,0,88.88,375.92Z"/><path class="cls-5" d="M77.56,375.25a.12.12,0,0,0-.16-.16h0a.65.65,0,0,0-.2,0,1.21,1.21,0,0,0-.61.35,2.19,2.19,0,0,0-.41.55,3.87,3.87,0,0,0-.29.62,1.75,1.75,0,0,0,0,.82.52.52,0,0,0,.42.37.52.52,0,0,0,.51-.25,1.37,1.37,0,0,0,.16-.32v0A2.44,2.44,0,0,0,77,377c.06-.17.11-.35.18-.52l0,0,0-.1a1.51,1.51,0,0,0,.14-.35l.09-.22s.06-.16.06-.14a.41.41,0,0,0,0-.19v-.06A.17.17,0,0,0,77.56,375.25Z"/><path class="cls-5" d="M89.3,388.6l.13,0h0Z"/><path class="cls-5" d="M89.86,388.68l-.14,0h0l-.27,0a1.65,1.65,0,0,0-.32,0h-.26l-.49,0c-.38,0-.94,0-1.17.36l.14-.14-.09,0a.3.3,0,0,0-.1.4l0,.06a.54.54,0,0,0,.1.18l.08.09a1.33,1.33,0,0,0,.46.27,3.36,3.36,0,0,0,.78.14,3,3,0,0,0,.79,0,4.08,4.08,0,0,0,.62-.2.56.56,0,0,0-.15-1.09Z"/><path class="cls-5" d="M90.58,395.28l0,0s0-.06,0-.09l0-.05a.41.41,0,0,0-.19-.13c-.23-.06-.46-.09-.69-.14l-.48-.09H89.1l-.17,0c-.27,0-.55-.07-.82-.09h-.35c-.16,0-.31.08-.46.1a.42.42,0,0,0-.3.35.43.43,0,0,0,.2.41l.1.06s.06,0,0,0l0,0a.5.5,0,0,0,.14.1,2.28,2.28,0,0,0,.44.15,4.05,4.05,0,0,0,.85.12,4.29,4.29,0,0,0,1.55-.23.4.4,0,0,0,.29-.37A.39.39,0,0,0,90.58,395.28Z"/><path class="cls-5" d="M82.4,390.79l-.07,0a.45.45,0,0,0-.23,0l-.21.07a4,4,0,0,0-.51.24l-.19.1a3.5,3.5,0,0,0-.3.24,2.07,2.07,0,0,0-.44.4l-.1.17a.69.69,0,0,0-.11.54.58.58,0,0,0,.55.41.94.94,0,0,0,.33-.08l.1,0a.94.94,0,0,0,.28-.15l.24-.19a3.17,3.17,0,0,0,.35-.29,3.77,3.77,0,0,0,.4-.48l.13-.2a.85.85,0,0,0,.11-.26l0-.06A.32.32,0,0,0,82.4,390.79Z"/><path class="cls-5" d="M83.1,383.38s0-.05,0,0,0,0,0,0a.2.2,0,0,0-.25-.19h0s0,0,0,0l-.16,0-.18.07a2.14,2.14,0,0,0-.58.35l-.36.29a2.09,2.09,0,0,0-.41.48.72.72,0,0,0-.07.52.72.72,0,0,0,.25.36.69.69,0,0,0,.9-.06,1.91,1.91,0,0,0,.39-.46c.08-.14.17-.27.25-.4l.09-.21a2.85,2.85,0,0,0,.12-.31,1.29,1.29,0,0,0,0-.19.55.55,0,0,0,0-.17Z"/><path class="cls-5" d="M57.29,406.23a4,4,0,0,1,.56-.35,2.83,2.83,0,0,1,2.83,0c1,.59,2,1.35,3.25,1.18,2.56-.35,3.69-3.63,6.59-2.69,2.18.72,4.26,2.78,6.67,1.54,1.42-.73,2.25-2,4-1.46,1.35.41,2.49,1.31,3.81,1.78,1.69.59,3.22.08,4.87-.37l.16,0,.07-1.24c-.42.09-.84.21-1.26.33a6.25,6.25,0,0,1-3.11.35,10.35,10.35,0,0,1-2.38-1,5.9,5.9,0,0,0-3.79-1c-1.53.3-2.47,2-4.08,2-1.44,0-2.75-1.06-4-1.61a4.41,4.41,0,0,0-3.5-.22c-1.3.54-2.16,1.73-3.38,2.38-1.88,1-3.18-1.08-5-1.27a4.21,4.21,0,0,0-2.41.57Z"/><path class="cls-5" d="M89.92,408.2a8.81,8.81,0,0,0-2,.26,10.41,10.41,0,0,1-2.75.55,5.64,5.64,0,0,1-2.42-.8,4.53,4.53,0,0,0-3.67-.62c-1.41.54-2.3,2.2-4,1.82-1.38-.31-2.47-1.35-3.88-1.6-2.73-.49-4.24,2.13-6.63,2.76-1.7.44-3.15-1.16-4.89-1.12a4.42,4.42,0,0,0-2.13.61l.06,1a3.8,3.8,0,0,1,3.12-.49c1.24.39,2.19,1.25,3.57,1.12,2.25-.23,3.67-2.5,5.88-2.75,2.4-.27,4.17,2.57,6.68,1.51,1.2-.5,2.09-1.93,3.5-1.79s2.36,1.11,3.59,1.46c1.65.48,3.26-.13,4.87-.48a6.14,6.14,0,0,1,1-.12Z"/></g><g id="TEXT"><text class="cls-16" transform="translate(319.59 349.1)">NO <tspan class="cls-17" x="26.59" y="0">D</tspan><tspan class="cls-18" x="37.24" y="0">AT</tspan><tspan x="54.7" y="0">A</tspan></text></g></svg>