<svg id="Capa_1" data-name="Capa 1" xmlns="http://www.w3.org/2000/svg" viewBox="0 0 128.61 98.32"><defs><style>.cls-1{fill:none;}.cls-2{fill:#ebebeb;}.cls-3{fill:#37474f;}.cls-4{fill:#263238;}.cls-5{fill:#455a64;}.cls-16,.cls-6{fill:#ff8bb8;}.cls-12,.cls-14,.cls-7,.cls-9{fill:#fff;}.cls-27,.cls-7{opacity:0.65;}.cls-10,.cls-12,.cls-14,.cls-16,.cls-20,.cls-7{isolation:isolate;}.cls-12,.cls-16,.cls-8{opacity:0.3;}.cls-10,.cls-25{opacity:0.2;}.cls-11{fill:#e0e0e0;}.cls-13{fill:#fafafa;}.cls-14{opacity:0.6;}.cls-15{opacity:0.4;}.cls-17{fill:#f5f5f5;}.cls-18{fill:#3394dd;}.cls-19{fill:#05a;}.cls-20{fill:#fa5c99;opacity:0.8;}.cls-21{fill:#f45f99;}.cls-22{fill:#f8478c;}.cls-23{fill:#f63b84;}.cls-24{fill:#ef2e79;}.cls-26{fill:#ffc107;}</style></defs><rect class="cls-1" x="-1.68" y="-26.6" width="133" height="133"/><path class="cls-2" d="M95.64,89.16,88.09,84.8c-.57-.33-.57-.86,0-1.18l28.29-16.34a2.23,2.23,0,0,1,2.05,0L126,71.64a.62.62,0,0,1,0,1.18l-12.75,7.36-15.54,9a2.31,2.31,0,0,1-2,0Z"/><path class="cls-2" d="M36.82,86.05l16.92,9.79a1.39,1.39,0,0,0,.63.15,1.32,1.32,0,0,0,.62-.15l10.74-6.17,6-3.44c.35-.2.35-.53,0-.72L54.75,75.73a1.32,1.32,0,0,0-.62-.15,1.39,1.39,0,0,0-.63.15l-16.68,9.6C36.47,85.53,36.47,85.85,36.82,86.05Z"/><path class="cls-2" d="M110.77,61.69,55.4,29.41a3.52,3.52,0,0,0-3.22,0L22,47a1.34,1.34,0,0,0,0,2.54L77,81.55a3.19,3.19,0,0,0,1.42.34,3.16,3.16,0,0,0,1.42-.34l30.92-18A1,1,0,0,0,110.77,61.69Z"/><path class="cls-2" d="M31.15,83.58a3.18,3.18,0,0,1-1.59-.4l-27.43-16h0a1.7,1.7,0,0,1-.61-.58,1.52,1.52,0,0,1-.23-.8A1.56,1.56,0,0,1,1.53,65a1.53,1.53,0,0,1,.63-.58L20.25,53.87a3.38,3.38,0,0,1,3.19,0l27.4,16a1.53,1.53,0,0,1,.63.58,1.56,1.56,0,0,1,.26.81,1.57,1.57,0,0,1-.79,1.33l-.12.08-13.68,8-4.4,2.56a3.12,3.12,0,0,1-1.59.39Z"/><path class="cls-3" d="M57.75,25.11l52.64,30.68a2.87,2.87,0,0,1,1.6,3,3.46,3.46,0,0,1-1.6,3L80.6,79.08a4.6,4.6,0,0,1-4.21,0L23.74,48.39a3,3,0,0,1-1.43-2.77,3.58,3.58,0,0,1,1.43-3.14L53.53,25.11a3.9,3.9,0,0,1,4.22,0Z"/><path class="cls-4" d="M56.21,26.42,25.57,44.28,78.49,75.12v4.47a4.28,4.28,0,0,1-2.11-.51L23.74,48.39a3,3,0,0,1-1.43-2.77,3.58,3.58,0,0,1,1.43-3.14L53.53,25.11a4,4,0,0,1,2.68-.57v1.88Z"/><path class="cls-5" d="M109.85,56,57.32,25.42a3.78,3.78,0,0,0-1.68-.4,3.7,3.7,0,0,0-1.67.4l-29.09,17a1.41,1.41,0,0,0,0,2.66L77,75.43a3.22,3.22,0,0,0,3,0L109.85,58A1,1,0,0,0,109.85,56Z"/><path class="cls-5" d="M42.6,56.28a1.82,1.82,0,0,1,.83,1.39.56.56,0,0,1,0,.28.52.52,0,0,1-.18.21l-.59.34a.61.61,0,0,1-.3,0,.69.69,0,0,1-.29-.12l-5.09-3a1.85,1.85,0,0,1-.59-.59,1.92,1.92,0,0,1-.25-.8.63.63,0,0,1,0-.27.68.68,0,0,1,.17-.21l.6-.35a.67.67,0,0,1,.31-.05.69.69,0,0,1,.29.12Z"/><path class="cls-3" d="M42,56.62l-5.09-3c-.46-.27-.84-.08-.84.42a1.92,1.92,0,0,0,.25.8,1.85,1.85,0,0,0,.59.59l5.09,3c.45.27.83.08.83-.42a1.88,1.88,0,0,0-.25-.8A1.92,1.92,0,0,0,42,56.62Z"/><path class="cls-5" d="M33.68,51.07a1.75,1.75,0,0,1,.58.6,1.71,1.71,0,0,1,.25.79.53.53,0,0,1,0,.28.55.55,0,0,1-.19.21l-.58.34a.63.63,0,0,1-.31.05.56.56,0,0,1-.29-.12L28,50.27a1.75,1.75,0,0,1-.58-.6,1.83,1.83,0,0,1-.25-.79.63.63,0,0,1,0-.27.68.68,0,0,1,.17-.21c.1-.07.5-.29.6-.35a.65.65,0,0,1,.31,0,.5.5,0,0,1,.29.12Z"/><path class="cls-3" d="M33.1,51.42l-5.09-3c-.46-.27-.83-.08-.83.43A1.82,1.82,0,0,0,28,50.27l5.09,3c.46.26.84.07.84-.43a1.83,1.83,0,0,0-.25-.79A1.78,1.78,0,0,0,33.1,51.42Z"/><path d="M58.69,27.55,107,55.71a1,1,0,0,1,0,1.86L80,73.34a3.46,3.46,0,0,1-3.19,0L28,44.93c-.71-.41-.85-1-.4-1.54l.11-.11a1.94,1.94,0,0,1,.29-.21l7.61-4.43.49-.29a1.06,1.06,0,0,1,.5-.12,1,1,0,0,1,.49.12,1,1,0,0,0,.52.11,1.14,1.14,0,0,0,.51-.13L47,33.16c.29-.17.31-.44,0-.6s-.27-.38-.06-.54l0,0,7.45-4.33.16-.1a4.49,4.49,0,0,1,4,0Z"/><path class="cls-6" d="M37.12,39.5a1,1,0,0,0-.49-.12,1.06,1.06,0,0,0-.5.12l-.49.29L28,44.22a1.94,1.94,0,0,0-.29.21l-.11.11,0,0a1.87,1.87,0,0,0,.43.36l48.73,28.4a3.46,3.46,0,0,0,3.19,0l27-15.76a1.87,1.87,0,0,0,.43-.36,1.65,1.65,0,0,0-.43-.36L58.69,28.7a4.51,4.51,0,0,0-4,0l-.16.1L47.24,33v1a.4.4,0,0,1-.07.19.4.4,0,0,1-.16.13l-8.86,5.17a1.17,1.17,0,0,1-.51.13A1,1,0,0,1,37.12,39.5Z"/><path class="cls-7" d="M37.12,39.5a1,1,0,0,0-.49-.12,1.06,1.06,0,0,0-.5.12l-.49.29L28,44.22a1.94,1.94,0,0,0-.29.21l-.11.11,0,0a1.87,1.87,0,0,0,.43.36l48.73,28.4a3.46,3.46,0,0,0,3.19,0l27-15.76a1.87,1.87,0,0,0,.43-.36,1.65,1.65,0,0,0-.43-.36L58.69,28.7a4.51,4.51,0,0,0-4,0l-.16.1L47.24,33v1a.4.4,0,0,1-.07.19.4.4,0,0,1-.16.13l-8.86,5.17a1.17,1.17,0,0,1-.51.13A1,1,0,0,1,37.12,39.5Z"/><path class="cls-5" d="M35.63,43.47l0,0-.13-.08-.34.19h-.06l0,0,0,0v0L34.9,43v0l0,0,0,0h0l0,0,.45.3.07,0h0l0,0,0,0,0,0s0,0,0,0l-.07,0,.13.09,0,0s0,0,0,0l-.06,0Zm-.26-.19L35,43.06l.08.36Z"/><path class="cls-5" d="M36,43.18a.77.77,0,0,1-.39-.14c-.13-.09-.2-.18-.2-.27s0-.17.17-.23a.46.46,0,0,1,.16-.07.32.32,0,0,1,.14,0h0l0,.06h0a.44.44,0,0,0-.22.07c-.08.05-.12.1-.12.16s.06.12.16.19A.57.57,0,0,0,36,43a.4.4,0,0,0,.26-.06l.08,0,0,0-.21-.14-.14.08h0l0,0,0,0s0,0,0,0l0,0,.23-.13h0l0,0,.3.2,0,0h0a.39.39,0,0,1-.2.2A.68.68,0,0,1,36,43.18Z"/><path class="cls-5" d="M38.75,41.49s0,0,0,.06a.08.08,0,0,1,0,.07.19.19,0,0,1,0,.07l-.06,0a.45.45,0,0,1-.19.05.41.41,0,0,1-.19-.05.13.13,0,0,1-.06,0,.14.14,0,0,1,0-.07.19.19,0,0,1,0-.07l.06,0a.46.46,0,0,1,.2-.05A.41.41,0,0,1,38.75,41.49Z"/><path class="cls-5" d="M38.08,41.28a.37.37,0,0,0-.19.18.34.34,0,0,0,0,.26.08.08,0,0,0,0,0H38c.07,0,.11,0,.1-.08a.22.22,0,0,1,0-.18.21.21,0,0,1,.13-.13.72.72,0,0,1,.5-.06c.06,0,.12,0,.13-.06s0-.06-.07-.07A1.06,1.06,0,0,0,38.08,41.28Z"/><path class="cls-5" d="M37.79,41.09a.53.53,0,0,0-.29.26.63.63,0,0,0-.06.38s.06.06.12.06.1,0,.09-.08a.47.47,0,0,1,0-.31.47.47,0,0,1,.24-.22,1.28,1.28,0,0,1,.86-.13c.06,0,.12,0,.13-.06s0-.06-.08-.07A1.6,1.6,0,0,0,37.79,41.09Z"/><path class="cls-5" d="M32,45.71l-.25-.17.36-.21.25.17Z"/><path class="cls-5" d="M32.54,45.39l-.49-.34.36-.21.5.34Z"/><path class="cls-5" d="M33.08,45.08l-.74-.51.36-.21.74.51Z"/><path class="cls-5" d="M33.62,44.76l-1-.68.36-.21,1,.68Z"/><path class="cls-5" d="M55.4,31.06a.31.31,0,0,0-.21,0l-1.34.79c-.09.05-.07.14,0,.21l.45.31a.42.42,0,0,0,.22.08h.1a.23.23,0,0,0,.11,0l1.34-.78c.09-.05.07-.15,0-.22l-.46-.31A.41.41,0,0,0,55.4,31.06Zm-.85,1.36-.09,0L54,32.07c-.07,0-.09-.13,0-.16l1.34-.79h.09a.32.32,0,0,1,.09,0l.46.31c.08.06.09.13,0,.17l-1.34.78A.15.15,0,0,1,54.55,32.42Z"/><path class="cls-5" d="M54.31,31.81l.53.37-.21.12a.08.08,0,0,1-.07,0l-.4-.27s-.06-.1,0-.12Z"/><path class="cls-5" d="M54.41,31.76l.25-.15.54.36-.26.15Z"/><path class="cls-5" d="M54.76,31.55,55,31.4l.54.37-.26.14Z"/><path class="cls-5" d="M55.4,31.22l.38.27c.08.05.06.11-.05.18l-.08,0-.54-.37.2-.12Z"/><path class="cls-5" d="M55.68,31.12a.28.28,0,0,1,.23.07l.08.06c.1.06.15.13.11.16l-.07,0-.42-.29Z"/><path class="cls-5" d="M52,33.35,53,32.42l.47.84L52.81,33Z"/><path class="cls-4" d="M37.82,36.57l4.07-2.37a1,1,0,0,1,.42-.11.91.91,0,0,1,.43.1c.23.13.22.35,0,.49l-4.06,2.37a1,1,0,0,1-.85,0C37.57,36.93,37.58,36.71,37.82,36.57Z"/><path class="cls-4" d="M43.81,32.89a1,1,0,0,1,.49-.12,1.11,1.11,0,0,1,.5.12.26.26,0,0,1,.14.11.3.3,0,0,1,.06.18.32.32,0,0,1-.06.18.26.26,0,0,1-.14.11,1.11,1.11,0,0,1-.5.12,1,1,0,0,1-.49-.12.33.33,0,0,1-.15-.11.32.32,0,0,1-.06-.18.3.3,0,0,1,.06-.18A.33.33,0,0,1,43.81,32.89Z"/><g class="cls-8"><path class="cls-9" d="M79.59,39.74,72,35.29,65.22,66.61l7.62,4.45Z"/><path class="cls-9" d="M61.92,64.69l6.74-31.32-10-5.82a4.51,4.51,0,0,0-4,0l-.16.1L50,30.26,44.74,54.68Z"/><path class="cls-9" d="M87.29,44.23l9.18,5.35L93,65.73l-11.83,6.9Z"/><path class="cls-9" d="M107,57.58,102.82,60l1.28-6L107,55.71A1,1,0,0,1,107,57.58Z"/></g><path class="cls-6" d="M32.33,81.86,50.42,71.32a1,1,0,0,0,.35-.31.91.91,0,0,0,.14-.45v-1.3s-.49.7-.49.71l-13.7,8-4.4,2.56a2.61,2.61,0,0,1-2.39,0l-27.4-16S2.07,64,2.06,64a10.35,10.35,0,0,0,0,1.27.76.76,0,0,0,.16.38.87.87,0,0,0,.32.25l27.4,16a2.61,2.61,0,0,0,2.39,0Z"/><path class="cls-10" d="M32.33,81.86,50.42,71.32a1,1,0,0,0,.35-.31.91.91,0,0,0,.14-.45v-1.3s-.49.7-.49.71l-13.7,8-4.4,2.56a2.61,2.61,0,0,1-2.39,0l-27.4-16S2.07,64,2.06,64a10.35,10.35,0,0,0,0,1.27.76.76,0,0,0,.16.38.87.87,0,0,0,.32.25l27.4,16a2.61,2.61,0,0,0,2.39,0Z"/><path class="cls-10" d="M31.46,82.13V80.78a2.26,2.26,0,0,0,.87-.27L36.72,78l13.7-8s.49-.69.49-.7,0,1,0,1.29a.8.8,0,0,1-.14.45.81.81,0,0,1-.35.31L32.33,81.86A2.21,2.21,0,0,1,31.46,82.13Z"/><path class="cls-11" d="M45.21,73v1.34l5.21-3a1,1,0,0,0,.35-.31,1,1,0,0,0,.14-.45V69.27l-.5.7Z"/><path class="cls-6" d="M50.42,70l0,0a.73.73,0,0,0,0-1.37L23,52.61a2.61,2.61,0,0,0-2.39,0L2.54,63.15c-.65.38-.66,1,0,1.37l0,0,27.4,16a2.61,2.61,0,0,0,2.39,0l4.39-2.56Z"/><path class="cls-12" d="M3.7,64.76,3,64.34c-.33-.2-.53-.27-.52-.53s.24-.3.38-.38c6-3.53,11.94-7.11,17.83-10.82L2.57,63.16c-.65.38-.66,1,0,1.37l0,0,27.4,16q-5.79-3.65-11.62-7.12C13.86,70.69,8.26,67.4,3.7,64.76Z"/><path class="cls-13" d="M15.43,55.65l5.21-3,0,0a2.64,2.64,0,0,1,1.17-.27,2.7,2.7,0,0,1,1.18.29l27.39,16a.74.74,0,0,1,0,1.39l-5.21,3Z"/><path class="cls-13" d="M11.1,62.4l-.53-.31,0,0v0a0,0,0,0,1,0,0h0a.11.11,0,0,1,.08,0l.08,0,.18.1.76-.44a.1.1,0,0,0,.05,0,.13.13,0,0,0,0-.06s0,0,0-.05a.1.1,0,0,0,0,0l0,0,0,0s0,0,0-.05l.08,0a.11.11,0,0,1,.08,0,.21.21,0,0,1,.11.08.22.22,0,0,1,0,.11.17.17,0,0,1,0,.12.16.16,0,0,1-.09.07l-.75.45.17.1,0,0a0,0,0,0,1,0,0v0h0a.13.13,0,0,1-.08,0A.16.16,0,0,1,11.1,62.4Z"/><path class="cls-13" d="M12.71,62.8l-.35-.21a.58.58,0,0,0-.18,0,.25.25,0,0,0-.15,0l-.12.07h0v0h0l.75.43,0,0v0a0,0,0,0,1,0,0l0,0-.08,0a.16.16,0,0,1-.09,0l-.89-.51s0,0,0,0,0,0,0,0,0,0,0,0l.23-.13a.6.6,0,0,1,.32-.07.83.83,0,0,1,.34.1l.35.2a.34.34,0,0,0,.17,0,.41.41,0,0,0,.16,0l.15-.09a.1.1,0,0,0,.05,0,.13.13,0,0,0,0-.06.12.12,0,0,0-.08-.09L13,62.24a.35.35,0,0,0-.17,0,.22.22,0,0,0-.16,0l-.08,0a.16.16,0,0,1-.09,0l0,0s0,0,0,0,0,0,0,0l0,0a.6.6,0,0,1,.32-.07.79.79,0,0,1,.34.1l.35.2.11.08a.61.61,0,0,1,.05.12.14.14,0,0,1,0,.11.24.24,0,0,1-.09.08l-.15.08a.52.52,0,0,1-.32.07A.79.79,0,0,1,12.71,62.8Z"/><path class="cls-13" d="M14.4,63.87l-.08.05A.71.71,0,0,1,14,64a.83.83,0,0,1-.34-.1l-.35-.21a.21.21,0,0,1-.11-.08.37.37,0,0,1,0-.11.14.14,0,0,1,0-.11.32.32,0,0,1,.09-.08.11.11,0,0,1,.08,0,.11.11,0,0,1,.08,0,.05.05,0,0,1,0,0s0,0,0,0l0,0a.09.09,0,0,0,0,0,.13.13,0,0,0,0,.06l0,.06.05,0,.36.2a.3.3,0,0,0,.16.05.23.23,0,0,0,.16,0l.08,0a.1.1,0,0,0,.06-.09l0-.06-.05,0-.09,0,0,0s0,0,0,0v0l0,0a.12.12,0,0,1,.08,0s.07,0,.09,0l.09.05a.34.34,0,0,0,.17,0,.29.29,0,0,0,.16,0l.07,0a.1.1,0,0,0,.05,0,.11.11,0,0,0,0-.05s0-.07-.08-.1l-.35-.21a.48.48,0,0,0-.17-.05.29.29,0,0,0-.16,0,.11.11,0,0,1-.08,0l-.09,0,0,0,0,0s0,0,0,0a.52.52,0,0,1,.32-.07.67.67,0,0,1,.34.09l.35.21a.28.28,0,0,1,.11.08.22.22,0,0,1,0,.12.15.15,0,0,1,0,.11.16.16,0,0,1-.09.07l-.07,0-.16,0a.6.6,0,0,1-.19,0,.2.2,0,0,1,0,.11A.22.22,0,0,1,14.4,63.87Z"/><path class="cls-13" d="M15.42,64.9l-.08,0,0,0a0,0,0,0,1,0,0v0l0,0,.42-.24a.83.83,0,0,1-.22-.08l-.35-.21a.2.2,0,0,1-.1-.08.23.23,0,0,1-.06-.12.15.15,0,0,1,0-.11.28.28,0,0,1,.09-.07l.39-.23h.07l.09,0s0,0,0,0l0,0a0,0,0,0,1,0,0s0,0,0,0l-.38.22a.1.1,0,0,0-.05,0,.11.11,0,0,0,0,0,.16.16,0,0,0,0,.06.1.1,0,0,0,.05,0l.36.21a.48.48,0,0,0,.17,0,.32.32,0,0,0,.16,0l.38-.22.08,0a.13.13,0,0,1,.08,0l0,0s0,0,0,0,0,0,0,0a0,0,0,0,1,0,0l-1.06.63A.14.14,0,0,1,15.42,64.9Z"/><path class="cls-13" d="M18.17,65.58a0,0,0,0,1,0,0v0s0,0,0,0l.48.29a.26.26,0,0,1,.11.07.61.61,0,0,1,.05.12.2.2,0,0,1,0,.11.16.16,0,0,1-.08.08l-.15.09a.59.59,0,0,1-.32.06.67.67,0,0,1-.34-.09l-.36-.2a.39.39,0,0,1-.1-.08.21.21,0,0,1-.05-.12.17.17,0,0,1,0-.12.16.16,0,0,1,.09-.07l.08,0s.06,0,.08,0l0,0s0,0,0,0a0,0,0,0,1,0,0l0,0a.13.13,0,0,0,0,.06.14.14,0,0,0,0,.06s0,0,.06,0l.35.21a.34.34,0,0,0,.17,0,.41.41,0,0,0,.16,0l.15-.09,0,0a.13.13,0,0,0,0-.06s0-.07-.08-.1L18,65.7l-.06,0a.08.08,0,0,1,0-.05.07.07,0,0,1,0-.06s0,0,0,0l.38-.22.08,0a.16.16,0,0,1,.09,0l.88.51,0,0a0,0,0,0,1,0,0,.06.06,0,0,1,0,.05.14.14,0,0,1-.09,0l-.08,0-.75-.44H18.4Z"/><path class="cls-13" d="M19.72,66.53l.35.21a.18.18,0,0,1,.11.08.17.17,0,0,1,.05.12.14.14,0,0,1,0,.11.16.16,0,0,1-.09.07l-.15.09a.6.6,0,0,1-.32.07.79.79,0,0,1-.34-.1L19,67l-.11-.08a.21.21,0,0,1-.05-.12.14.14,0,0,1,0-.11.24.24,0,0,1,.09-.08l.61-.36a.59.59,0,0,1,.32-.06.67.67,0,0,1,.34.09l.35.2.11.08a.61.61,0,0,1,.05.12.14.14,0,0,1,0,.11.18.18,0,0,1-.09.08l-.08,0a.11.11,0,0,1-.08,0l0,0a0,0,0,0,1,0,0h0l0,0s0,0,0,0a.07.07,0,0,0,0-.06.14.14,0,0,0,0-.06l-.05,0-.36-.2a.34.34,0,0,0-.17-.05.3.3,0,0,0-.16,0l-.19.12A.79.79,0,0,1,19.72,66.53Zm-.63.17a.09.09,0,0,0-.05,0,.13.13,0,0,0,0,.06.09.09,0,0,0,0,.06.1.1,0,0,0,.05,0l.35.2a.34.34,0,0,0,.17,0,.22.22,0,0,0,.16,0L20,67s0,0,0,0a.09.09,0,0,0,0,0,.06.06,0,0,0,0-.06.07.07,0,0,0,0,0l-.35-.21a.33.33,0,0,0-.17,0,.22.22,0,0,0-.16,0Z"/><path class="cls-13" d="M21.76,67.76l-1.05.15h-.16a.12.12,0,0,1-.05,0,.05.05,0,0,1,0,0h.12l1-.15.1,0,.07,0,0,0q.07,0,.06-.09a.09.09,0,0,0,0-.06.1.1,0,0,0-.05,0l-.18-.1-.08-.06-.36-.2,0,0,0,0s0,0,0,0h.08l.09,0,.35.21.09,0,.17.1a.23.23,0,0,1,.11.08.17.17,0,0,1,.05.12.14.14,0,0,1,0,.11.16.16,0,0,1-.09.07l-.12.06Z"/><path class="cls-13" d="M22.87,68.81l-.08,0a.59.59,0,0,1-.32.06.69.69,0,0,1-.34-.09l-.35-.2a.27.27,0,0,1-.1-.08.34.34,0,0,1-.06-.12.2.2,0,0,1,0-.11.2.2,0,0,1,.08-.08l.08,0a.44.44,0,0,1,.16-.06.6.6,0,0,1,.19,0,.14.14,0,0,1,0-.11.28.28,0,0,1,.1-.09l.07,0a.59.59,0,0,1,.32-.06.67.67,0,0,1,.34.09l.36.21a.19.19,0,0,1,.1.08.23.23,0,0,1,.06.12.26.26,0,0,1,0,.11.16.16,0,0,1-.09.07l-.07,0-.16,0a.6.6,0,0,1-.19,0,.2.2,0,0,1,0,.11A.31.31,0,0,1,22.87,68.81Zm.36-.41,0,0a.13.13,0,0,0,0-.06.05.05,0,0,0,0,0,.07.07,0,0,0-.05,0L22.85,68a.34.34,0,0,0-.17,0,.45.45,0,0,0-.16,0l-.08,0,0,0a.07.07,0,0,0,0,.05.07.07,0,0,0,0,.06.1.1,0,0,0,0,0l.35.21a.33.33,0,0,0,.17,0,.23.23,0,0,0,.16,0Zm-.54.31a.1.1,0,0,0,0,0,.11.11,0,0,0,0,0,.06.06,0,0,0,0-.06.1.1,0,0,0,0,0l-.35-.21a.48.48,0,0,0-.17,0,.29.29,0,0,0-.16,0l-.08,0s-.06.06-.05.09a.08.08,0,0,0,0,.06l.06,0,.35.21a.48.48,0,0,0,.17.05.32.32,0,0,0,.16,0Z"/><path class="cls-13" d="M25,70.49l-.36-.21a.23.23,0,0,1-.1-.07.34.34,0,0,1-.06-.12.2.2,0,0,1,0-.11.18.18,0,0,1,.09-.08l.08,0a.13.13,0,0,1,.08,0l0,0v0s0,0,0,0l0,0s-.06.06-.05.1a.08.08,0,0,0,0,.05l.06,0,.35.21a.34.34,0,0,0,.17,0,.29.29,0,0,0,.16,0l.19-.11a.54.54,0,0,1-.21-.08l-.36-.2a.27.27,0,0,1-.1-.08.34.34,0,0,1-.06-.12.2.2,0,0,1,0-.11.2.2,0,0,1,.08-.08l.16-.09a.59.59,0,0,1,.32-.06.69.69,0,0,1,.34.09l.35.21a.19.19,0,0,1,.1.08.23.23,0,0,1,.06.12.26.26,0,0,1,0,.11.18.18,0,0,1-.08.07l-.61.36a.59.59,0,0,1-.32.06A.67.67,0,0,1,25,70.49Zm1.09-.43a.08.08,0,0,0,0,0,.14.14,0,0,0,0-.06s0-.06-.08-.09l-.36-.21a.48.48,0,0,0-.17,0,.32.32,0,0,0-.16,0l-.15.09s0,0,0,0a.14.14,0,0,0,0,.06l0,.06.06,0,.35.2a.34.34,0,0,0,.17.05.3.3,0,0,0,.16,0Z"/><path class="cls-13" d="M26.28,71.25l-.53-.31,0,0s0,0,0,0v0l0,0,.08,0,.08,0,.18.1.76-.44.05,0a.09.09,0,0,0,0,0,.33.33,0,0,0,0-.06.1.1,0,0,0-.05,0l0,0s0,0,0,0a0,0,0,0,1,0,0s0,0,0,0l.08,0a.11.11,0,0,1,.08,0,.21.21,0,0,1,.11.08.37.37,0,0,1,.05.11.17.17,0,0,1,0,.12.16.16,0,0,1-.09.07l-.77.45.18.11a0,0,0,0,1,0,0l0,0s0,0,0,0h0a.12.12,0,0,1-.08,0Z"/><path class="cls-13" d="M27.43,71.92l-.35-.21a.28.28,0,0,1-.11-.08.17.17,0,0,1,0-.12.14.14,0,0,1,0-.11.16.16,0,0,1,.09-.07l.61-.36a.59.59,0,0,1,.32-.06.69.69,0,0,1,.34.09l.35.2a.27.27,0,0,1,.1.08.34.34,0,0,1,.06.12.2.2,0,0,1,0,.11.32.32,0,0,1-.09.08l-.61.35a.52.52,0,0,1-.32.07A.67.67,0,0,1,27.43,71.92Zm-.2-.3.35.2.1,0,.12-.79-.6.35,0,0a.13.13,0,0,0,0,.06.14.14,0,0,0,0,.06Zm1.27-.33-.36-.2-.1,0-.12.78.6-.34a.08.08,0,0,0,0,0,.14.14,0,0,0,0-.06s0,0,0-.06a.1.1,0,0,0-.05,0Z"/><path class="cls-13" d="M28.75,72.69l-.53-.31,0,0a0,0,0,0,1,0,0v0l0,0a.11.11,0,0,1,.08,0,.12.12,0,0,1,.08,0l.18.1.76-.45s0,0,0,0a.14.14,0,0,0,0-.06l0,0a.1.1,0,0,0-.05,0l0,0s0,0,0,0a0,0,0,0,1,0,0,0,0,0,0,1,0,0l.08,0a.11.11,0,0,1,.08,0,.28.28,0,0,1,.11.08.22.22,0,0,1,.05.12.15.15,0,0,1,0,.11.16.16,0,0,1-.09.07l-.76.45.17.1,0,0a0,0,0,0,1,0,0v0l0,0h-.08Z"/><path class="cls-13" d="M31.22,74.13l-.53-.31,0,0s0,0,0,0v0l0,0,.08,0,.08,0,.18.1.76-.44a.08.08,0,0,0,0,0s0,0,0,0,0,0,0-.06a.1.1,0,0,0,0,0s0,0,0,0l0,0a0,0,0,0,1,0,0s0,0,0,0l.08,0,.09,0a.19.19,0,0,1,.1.08.17.17,0,0,1,0,.23.16.16,0,0,1-.09.07L31.2,74l.17.1,0,0a0,0,0,0,1,0,0v0l0,0a.11.11,0,0,1-.08,0S31.25,74.14,31.22,74.13Z"/><path class="cls-13" d="M32.83,74.53l-.35-.21a.38.38,0,0,0-.17,0,.27.27,0,0,0-.16,0l-.12.07h0v0h0l.75.43s0,0,0,0a0,0,0,0,1,0,0,0,0,0,0,1,0,0l-.08,0a.11.11,0,0,1-.08,0l-.89-.51,0,0a0,0,0,0,1,0,0s0,0,0,0l0,0,.23-.13a.6.6,0,0,1,.32-.07.67.67,0,0,1,.34.1l.35.2a.37.37,0,0,0,.17,0,.27.27,0,0,0,.16,0l.16-.08a.08.08,0,0,0,0,0,.07.07,0,0,0,0-.06.09.09,0,0,0,0-.06l0,0L33.1,74a.34.34,0,0,0-.17,0,.41.41,0,0,0-.16,0,.11.11,0,0,1-.08,0l-.08,0,0,0a0,0,0,0,1,0,0s0,0,0,0,0,0,0,0a.59.59,0,0,1,.32-.06.67.67,0,0,1,.34.09l.36.2a.39.39,0,0,1,.1.08.34.34,0,0,1,.06.12.27.27,0,0,1,0,.12.16.16,0,0,1-.09.07l-.15.09a.59.59,0,0,1-.32.06A.73.73,0,0,1,32.83,74.53Z"/><path class="cls-13" d="M33.7,75.57l-.53-.31,0,0a0,0,0,0,1,0,0v0l0,0a.14.14,0,0,1,.09,0,.12.12,0,0,1,.08,0l.18.1.76-.44a.08.08,0,0,0,0,0,.17.17,0,0,0,0-.05.16.16,0,0,0,0-.06.1.1,0,0,0,0,0l0,0s0,0,0,0a0,0,0,0,1,0,0s0,0,0,0a.11.11,0,0,1,.08,0,.08.08,0,0,1,.08,0,.28.28,0,0,1,.11.08.33.33,0,0,1,0,.12.15.15,0,0,1,0,.11.16.16,0,0,1-.09.07l-.77.45.18.1,0,0a0,0,0,0,1,0,0v0l0,0a.11.11,0,0,1-.08,0Z"/><path class="cls-13" d="M35.57,76.22l-.07,0a.59.59,0,0,1-.32.06.67.67,0,0,1-.34-.09L34.49,76a.28.28,0,0,1-.11-.08.37.37,0,0,1-.05-.11.17.17,0,0,1,0-.12.16.16,0,0,1,.09-.07.11.11,0,0,1,.08,0l.08,0,0,0s0,0,0,0v0s0,0,0,0a.1.1,0,0,0-.06.09.06.06,0,0,0,0,.06.07.07,0,0,0,0,0l.35.21a.33.33,0,0,0,.17,0,.22.22,0,0,0,.16,0l.08,0a.08.08,0,0,0,0,0,.07.07,0,0,0,0-.06.08.08,0,0,0,0,0l-.06,0-.08-.05,0,0s0,0,0,0a0,0,0,0,1,0,0l.08,0,.09,0,.09.06a.33.33,0,0,0,.17,0,.23.23,0,0,0,.16,0l.07,0a.1.1,0,0,0,0,0,.13.13,0,0,0,0-.06s0,0,0-.06l-.05,0-.35-.2a.34.34,0,0,0-.17,0,.45.45,0,0,0-.16,0,.11.11,0,0,1-.08,0l-.08,0,0,0a0,0,0,0,1,0,0v0l0,0a.54.54,0,0,1,.31-.06.73.73,0,0,1,.35.09l.35.21a.25.25,0,0,1,.1.08.24.24,0,0,1,.06.11.2.2,0,0,1,0,.11.18.18,0,0,1-.09.08L36,76a.44.44,0,0,1-.16.06h-.19a.22.22,0,0,1,0,.11A.27.27,0,0,1,35.57,76.22Z"/><path class="cls-13" d="M27.21,75.18,26.9,75s0,0,0,0H27l.1.06.45-.26s0,0,0,0a0,0,0,0,0,0,0,.05.05,0,0,0,0,0s0,0,0,0h0a0,0,0,0,0,0,0h.12l.06,0,0,.07a.19.19,0,0,1,0,.07.1.1,0,0,1-.05,0l-.44.27.1.06s0,0,0,0,0,0,0,0a0,0,0,0,1,0,0Z"/><path class="cls-13" d="M28.15,75.42l-.21-.12a.15.15,0,0,0-.09,0,.12.12,0,0,0-.1,0l-.06,0h0l.44.27,0,0a0,0,0,0,1,0,0h0l-.05,0-.52-.3s0,0,0,0h0s0,0,0,0l.14-.07a.28.28,0,0,1,.18,0,.46.46,0,0,1,.2,0l.21.12a.17.17,0,0,0,.1,0,.15.15,0,0,0,.09,0l.09,0s0,0,0-.06a0,0,0,0,0,0,0l0,0-.21-.12a.17.17,0,0,0-.1,0,.15.15,0,0,0-.09,0h-.05l0,0a0,0,0,0,1,0,0v0a0,0,0,0,0,0,0,.33.33,0,0,1,.19,0,.46.46,0,0,1,.2,0l.2.12a.18.18,0,0,1,.07,0l0,.07a.1.1,0,0,1,0,.07.1.1,0,0,1-.05,0l-.08.05a.33.33,0,0,1-.19,0A.46.46,0,0,1,28.15,75.42Z"/><path class="cls-13" d="M29.38,76.13l-.2-.12-.1,0A.1.1,0,0,0,29,76l-.07,0v0h0l.44.27h0s0,0,0,0a0,0,0,0,1,0,0h-.09l-.52-.33h0s0,0,0,0,0,0,0,0l.13-.08a.41.41,0,0,1,.19,0,.36.36,0,0,1,.2.06l.2.12.1,0a.19.19,0,0,0,.1,0l.08,0s0,0,0,0a0,0,0,0,0,0,0,.08.08,0,0,0,0,0l0,0-.21-.12a.17.17,0,0,0-.1,0l-.09,0h-.09s0,0,0,0a0,0,0,0,1,0,0,.24.24,0,0,1,.18,0,.46.46,0,0,1,.2,0l.21.12.06,0a.09.09,0,0,1,0,.07.07.07,0,0,1,0,.06.12.12,0,0,1-.05,0l-.09.05a.41.41,0,0,1-.19,0A.51.51,0,0,1,29.38,76.13Z"/><path class="cls-13" d="M30.37,76.76l-.05,0a.37.37,0,0,1-.18,0,.47.47,0,0,1-.2-.06l-.21-.12-.06,0,0-.07a.15.15,0,0,1,0-.07.13.13,0,0,1,.06,0,0,0,0,0,1,0,0,0,0,0,0,1,.05,0l0,0h0a0,0,0,0,1,0,0l0,0s0,0,0,0a0,0,0,0,0,0,0l0,0,.21.12.1,0a.14.14,0,0,0,.09,0l0,0s0,0,0-.06,0,0,0,0l0,0-.05,0s0,0,0,0a0,0,0,0,1,0,0h.1l.05,0a.19.19,0,0,0,.1,0l.09,0,0,0a0,0,0,0,0,0,0,0,0,0,0,0,0,0l0,0a0,0,0,0,0,0,0l-.21-.12a.19.19,0,0,0-.1,0l-.09,0a0,0,0,0,1-.05,0h-.05s0,0,0,0v0h0a.41.41,0,0,1,.19,0,.36.36,0,0,1,.2.06l.2.12a.09.09,0,0,1,.06,0,.25.25,0,0,1,0,.07.19.19,0,0,1,0,.07.1.1,0,0,1-.05,0l0,0-.1,0h-.11a.06.06,0,0,1,0,.06.08.08,0,0,1,0,0Z"/><path class="cls-13" d="M28.21,75.89h0l.9-.38h0v0h0l-.89.37s0,0,0,0S28.22,75.9,28.21,75.89Z"/><path class="cls-6" d="M20.3,60.67a.34.34,0,0,0,.12-.09.28.28,0,0,0,0-.15.23.23,0,0,0,0-.14.28.28,0,0,0-.12-.1l-3.66-2.1a.93.93,0,0,0-.4-.09.9.9,0,0,0-.4.09l-.64.37,4.46,2.59Zm-3.67-1.16-1.35.78L16.5,61l1.33-.78Zm.05,1.59,1.44.83,1.33-.79L18,60.3Zm.62,1.31.63-.37-4.45-2.58-.65.39a.19.19,0,0,0-.1.1.23.23,0,0,0,0,.14.25.25,0,0,0,0,.14.22.22,0,0,0,.1.09l3.66,2.11a1,1,0,0,0,.41.09.92.92,0,0,0,.4-.11Zm-.86-3L15,58.57l-1.35.78,1.44.84Z"/><path class="cls-14" d="M20.3,60.67a.34.34,0,0,0,.12-.09.28.28,0,0,0,0-.15.23.23,0,0,0,0-.14.28.28,0,0,0-.12-.1l-3.66-2.1a.93.93,0,0,0-.4-.09.9.9,0,0,0-.4.09l-.64.37,4.46,2.59Zm-3.67-1.16-1.35.78L16.5,61l1.33-.78Zm.05,1.59,1.44.83,1.33-.79L18,60.3Zm.62,1.31.63-.37-4.45-2.58-.65.39a.19.19,0,0,0-.1.1.23.23,0,0,0,0,.14.25.25,0,0,0,0,.14.22.22,0,0,0,.1.09l3.66,2.11a1,1,0,0,0,.41.09.92.92,0,0,0,.4-.11Zm-.86-3L15,58.57l-1.35.78,1.44.84Z"/><path class="cls-6" d="M37.94,71.87,23.62,63.53a1,1,0,0,0-.45-.11,1,1,0,0,0-.45.11l-.06,0a.26.26,0,0,0-.19.07.27.27,0,0,0,.19.46L37,72.44a1,1,0,0,0,.45.11,1,1,0,0,0,.45-.11l.07,0,.1,0,.08-.06a.24.24,0,0,0,.06-.09.18.18,0,0,0,0-.1.16.16,0,0,0,0-.1.24.24,0,0,0-.06-.09L38,71.89Z"/><g class="cls-15"><path class="cls-9" d="M37.94,71.87,23.62,63.53a1,1,0,0,0-.45-.11,1,1,0,0,0-.45.11l-.06,0a.26.26,0,0,0-.19.07.27.27,0,0,0,.19.46L37,72.44a1,1,0,0,0,.45.11,1,1,0,0,0,.45-.11l.07,0,.1,0,.08-.06a.24.24,0,0,0,.06-.09.18.18,0,0,0,0-.1.16.16,0,0,0,0-.1.24.24,0,0,0-.06-.09L38,71.89Z"/></g><path class="cls-5" d="M21.57,56l.08,0,.07,0,.23.13,0,0a0,0,0,0,1,0,0s0,0,0,0a1,1,0,0,1-.29.1,1.34,1.34,0,0,1-.35,0,2.7,2.7,0,0,1-.41-.06,1.82,1.82,0,0,1-.43-.19.77.77,0,0,1-.28-.23.36.36,0,0,1-.09-.24.38.38,0,0,1,.08-.23,1,1,0,0,1,.24-.22l.23-.14.24-.14a2.46,2.46,0,0,1,.38-.14,1.83,1.83,0,0,1,.4,0,1.84,1.84,0,0,1,.41.06,1.4,1.4,0,0,1,.4.16,1.26,1.26,0,0,1,.31.25.44.44,0,0,1,.11.24.39.39,0,0,1-.06.21.85.85,0,0,1-.17.16.08.08,0,0,1-.08,0,.1.1,0,0,1-.07,0l-.23-.13,0,0a.17.17,0,0,1,0-.05.18.18,0,0,0,.07-.08.21.21,0,0,0,0-.11.24.24,0,0,0-.06-.11.52.52,0,0,0-.17-.13A.85.85,0,0,0,21.9,55a.83.83,0,0,0-.22,0,.78.78,0,0,0-.22,0l-.2.07-.24.14-.23.14a.49.49,0,0,0-.13.12.19.19,0,0,0-.05.13.21.21,0,0,0,.05.13.4.4,0,0,0,.16.13A1.36,1.36,0,0,0,21,56l.2,0a.54.54,0,0,0,.18,0Z"/><path class="cls-5" d="M24.4,56.06c.24.13.36.26.37.4a.39.39,0,0,1-.26.37,1.2,1.2,0,0,1-.45.15,1.3,1.3,0,0,1-.48,0l-.31.63,0,0h-.12l-.24-.14s-.05,0-.05-.06a0,0,0,0,1,0,0l.28-.6-.37-.21-.64.39-.08,0-.07,0-.23-.13,0,0s0,0,0,0,0,0,0,0l1.81-1.05.07,0,.08,0Zm-1.29.26.4.24a.72.72,0,0,0,.31.11.47.47,0,0,0,.31-.06c.1-.07.14-.12.11-.18a.49.49,0,0,0-.2-.18l-.4-.24Z"/><path class="cls-5" d="M25.19,58.38h0s0,0,0,0,0,0,0,0l-.2.11-.07,0-.08,0-1.25-.71,0,0a0,0,0,0,1,0,0s0,0,0,0l0,0,1.8-1.06a.12.12,0,0,1,.08,0,.1.1,0,0,1,.07,0l1.21.7h0v.06h0l-.2.12-.08,0-.07,0-.9-.53-.45.26.84.49s0,0,0,0,0,0,0,0a0,0,0,0,1,0,0l-.2.12-.07,0-.08,0-.84-.49-.46.26Z"/><path class="cls-5" d="M28,58.13a1,1,0,0,1,.31.24.43.43,0,0,1,.1.24.32.32,0,0,1-.09.23,1.09,1.09,0,0,1-.25.23l-.41.24a1.82,1.82,0,0,1-.39.14,1.34,1.34,0,0,1-.4.06,1.84,1.84,0,0,1-.4-.06,2.09,2.09,0,0,1-.41-.17l-.7-.41a.05.05,0,0,1,0,0v0l0,0,1.8-1.05.08,0,.08,0Zm-.31.72a.49.49,0,0,0,.13-.12.21.21,0,0,0,0-.13.19.19,0,0,0,0-.13.49.49,0,0,0-.18-.14l-.37-.22L26,58.84l.39.23a.92.92,0,0,0,.23.09.91.91,0,0,0,.23,0,.83.83,0,0,0,.22,0,.68.68,0,0,0,.2-.07A3.26,3.26,0,0,0,27.65,58.85Z"/><path class="cls-5" d="M27.29,60h0v-.06h0l1.8-1.07a.09.09,0,0,1,.07,0,.11.11,0,0,1,.08,0l.22.13,0,0v.05l0,0-1.8,1.05-.07,0-.08,0Z"/><path class="cls-5" d="M31.27,60.06s0,0,0,0v0l0,0-.19.12-.08,0-.08,0-.5-.3-1.53.9h-.15l-.22-.14,0,0s0,0,0,0,0,0,0,0l1.53-.89-.51-.29,0,0v0a0,0,0,0,0,0,0s0,0,0,0l.2-.11.08,0,.07,0Z"/><path class="cls-5" d="M32.06,62.07h.08l.07,0,.23.13,0,0a0,0,0,0,1,0,0,0,0,0,0,1,0,0,1.42,1.42,0,0,1-.29.1,1,1,0,0,1-.35,0,1.45,1.45,0,0,1-.41-.06,1.78,1.78,0,0,1-.43-.18,1.23,1.23,0,0,1-.28-.23.42.42,0,0,1-.09-.24.41.41,0,0,1,.08-.24,1.26,1.26,0,0,1,.24-.22l.23-.14.24-.13a1.74,1.74,0,0,1,.38-.14,1.67,1.67,0,0,1,.81,0A1.78,1.78,0,0,1,33,61a1.13,1.13,0,0,1,.31.26.44.44,0,0,1,.11.24.39.39,0,0,1-.06.21.65.65,0,0,1-.17.16.11.11,0,0,1-.08,0,.1.1,0,0,1-.07,0l-.23-.13,0,0s0,0,0,0v0l0,0a.16.16,0,0,0,.07-.09.17.17,0,0,0,0-.1.27.27,0,0,0-.06-.12.66.66,0,0,0-.17-.12.91.91,0,0,0-.45-.12l-.21,0-.2.07-.24.14-.23.14a.47.47,0,0,0-.13.11.19.19,0,0,0,0,.26.47.47,0,0,0,.15.13l.22.1.2,0h.18Z"/><path class="cls-5" d="M35,62.24s0,0,0,0a.09.09,0,0,1,0,.07l-1.08,1.42,0,0-.07,0-.07,0-.21-.12s-.05,0-.05-.06a.06.06,0,0,1,0,0l.19-.25-.88-.52-.43.11h-.07a.17.17,0,0,1-.1,0L32,62.77s0,0,0,0a0,0,0,0,1,0,0v0h0l2.44-.63.11,0,.09,0Zm-1.06.8.48-.64-1.1.28Z"/><path class="cls-5" d="M36.84,63.31c.23.13.35.26.37.4s-.08.27-.27.37a1.1,1.1,0,0,1-.44.15,1.36,1.36,0,0,1-.49,0l-.3.63,0,0-.06,0-.06,0-.24-.14s-.06,0-.06-.06v0l.29-.59-.38-.22-.65.38-.07,0-.08,0L34.16,64s0,0,0-.05,0,0,0,0a0,0,0,0,1,0,0l1.8-1,.07,0,.08,0Zm-1.3.26.41.24a.68.68,0,0,0,.31.11.46.46,0,0,0,.3-.06q.16-.09.12-.18a.49.49,0,0,0-.2-.18l-.41-.24Z"/><path class="cls-5" d="M38.71,64.4a1.17,1.17,0,0,1,.3.24.37.37,0,0,1,.1.24.32.32,0,0,1-.09.23,1,1,0,0,1-.26.23l-.41.24a2.62,2.62,0,0,1-.39.15,1.75,1.75,0,0,1-.4,0,1.39,1.39,0,0,1-.4-.06,2.09,2.09,0,0,1-.41-.17l-.7-.41s0,0,0,0,0,0,0,0,0,0,0,0l0,0,1.8-1,.08,0L38,64Zm-.31.72a.49.49,0,0,0,.13-.12.17.17,0,0,0,0-.12.22.22,0,0,0,0-.14.55.55,0,0,0-.17-.14L38,64.38l-1.25.73.38.23a.94.94,0,0,0,.46.13.78.78,0,0,0,.22,0l.2-.08A4.49,4.49,0,0,0,38.4,65.12Z"/><path class="cls-16" d="M60.1,38.35l-17,9.84a.63.63,0,0,0,0,1.2L62.59,60.64a2.34,2.34,0,0,0,1,.25,2.38,2.38,0,0,0,1-.25l17-9.84a.64.64,0,0,0,0-1.21L62.18,38.35a2.34,2.34,0,0,0-1-.25A2.22,2.22,0,0,0,60.1,38.35Z"/><path class="cls-5" d="M67,54.76a3.83,3.83,0,0,1-1.91-.35l-17-9.78a4.28,4.28,0,0,1-2.25-3.12l-.53-12.1.94-.05.53,12.09a3.45,3.45,0,0,0,1.73,2.34l17,9.78a3.29,3.29,0,0,0,2.85-.17l11.33-6.52c.26-.18.42-.39.41-.57S80,46,79.67,45.8L61.49,35.25a4.29,4.29,0,0,1-2.24-3.13L59,25.42l.95-.06.26,6.71a3.41,3.41,0,0,0,1.72,2.34L80.09,45a1.64,1.64,0,0,1,1,1.3,1.6,1.6,0,0,1-.85,1.41L68.91,54.18A3.88,3.88,0,0,1,67,54.76Z"/><path class="cls-11" d="M65.12,54.41l0,0a4,4,0,0,1-3.31,1.65c-.33-.15-.52-.53-.27-.77s.31-.21.5-.37a2.72,2.72,0,0,0,.77-1.84Z"/><path class="cls-3" d="M64,56.63a4,4,0,0,0-1.79-3.15,1.23,1.23,0,0,0-1.33-.1l-1.23.69L62.2,58.5l1.22-.69A1.25,1.25,0,0,0,64,56.63Z"/><path class="cls-5" d="M60.91,54.2a4,4,0,0,1,1.28,1.36,4,4,0,0,1,.52,1.79c0,1.16-.83,1.62-1.82,1a4,4,0,0,1-1.8-3.15C59.1,54.08,59.92,53.62,60.91,54.2Z"/><path class="cls-4" d="M60.3,55.94c0-.46.26-.66.62-.46a1.55,1.55,0,0,1,.44.51,1.53,1.53,0,0,1,.16.66c0,.45-.28.66-.61.46a1.47,1.47,0,0,1-.45-.51A1.53,1.53,0,0,1,60.3,55.94Z"/><path class="cls-17" d="M62,52.61s.12,2.12-.86,3c-.18.15-.38.26-.5.37s0,.62.27.77c.48.22,2.9-.41,3.85-2.5Z"/><path class="cls-4" d="M60.94,56.06a.58.58,0,0,1,.14.13.48.48,0,0,1,.06.18c0,.11-.07.16-.17.11a.44.44,0,0,1-.14-.13.49.49,0,0,1-.06-.17C60.76,56.06,60.83,56,60.94,56.06Z"/><path class="cls-11" d="M51.71,46.69l0,0a4,4,0,0,1-3.31,1.65c-.33-.15-.53-.53-.27-.77s.31-.22.5-.37a2.72,2.72,0,0,0,.77-1.84Z"/><path class="cls-3" d="M50.57,48.91a4,4,0,0,0-.51-1.79,4.1,4.1,0,0,0-1.28-1.37,1.23,1.23,0,0,0-1.33-.1l-1.22.69,2.56,4.43L50,50.08A1.23,1.23,0,0,0,50.57,48.91Z"/><path class="cls-5" d="M47.51,46.48a4,4,0,0,1,1.79,3.15c0,1.16-.82,1.62-1.82,1a4.13,4.13,0,0,1-1.27-1.36,4,4,0,0,1-.52-1.79C45.7,46.36,46.51,45.9,47.51,46.48Z"/><path class="cls-4" d="M46.88,48.22c0-.46.28-.66.62-.46a1.35,1.35,0,0,1,.44.51,1.54,1.54,0,0,1,.17.66c0,.45-.27.66-.62.46a1.47,1.47,0,0,1-.45-.51A1.53,1.53,0,0,1,46.88,48.22Z"/><path class="cls-17" d="M48.57,44.88s.12,2.13-.86,2.95c-.18.16-.38.27-.49.37s-.06.62.26.78c.48.22,2.91-.41,3.85-2.51Z"/><path class="cls-4" d="M47.53,48.34a.44.44,0,0,1,.14.13.48.48,0,0,1,.06.18c0,.11-.07.16-.18.11a.4.4,0,0,1-.13-.13.35.35,0,0,1-.06-.17C47.36,48.34,47.44,48.29,47.53,48.34Z"/><path class="cls-11" d="M78.55,45.16a4,4,0,0,1-3.31,1.65c-.33-.15-.52-.53-.27-.77s.32-.21.5-.37a2.72,2.72,0,0,0,.77-1.84l2.15,1.23.14.08Z"/><path class="cls-3" d="M77.38,47.36a4,4,0,0,0-1.79-3.15,1.23,1.23,0,0,0-1.33-.1L73,44.8l2.56,4.43,1.22-.69A1.25,1.25,0,0,0,77.38,47.36Z"/><path class="cls-5" d="M74.32,44.93a4,4,0,0,1,1.79,3.15c0,1.16-.82,1.62-1.82,1A4,4,0,0,1,73,47.76,3.91,3.91,0,0,1,72.5,46C72.51,44.81,73.33,44.35,74.32,44.93Z"/><path class="cls-4" d="M73.69,46.67c0-.45.27-.66.62-.46a1.35,1.35,0,0,1,.44.51,1.54,1.54,0,0,1,.17.66c0,.45-.28.66-.62.46a1.35,1.35,0,0,1-.44-.51A1.41,1.41,0,0,1,73.69,46.67Z"/><path class="cls-17" d="M75.38,43.34s.12,2.13-.85,2.94c-.19.16-.39.27-.5.38s-.06.62.26.77c.48.22,2.91-.41,3.85-2.5Z"/><path class="cls-4" d="M74.35,46.79a.4.4,0,0,1,.13.13.27.27,0,0,1,.06.17c0,.12-.07.17-.17.12a.33.33,0,0,1-.13-.13.36.36,0,0,1-.07-.17C74.17,46.79,74.25,46.74,74.35,46.79Z"/><path class="cls-11" d="M65.15,37.39h0a3.94,3.94,0,0,1-3.31,1.66c-.33-.15-.53-.54-.27-.77s.31-.22.5-.37a2.77,2.77,0,0,0,.77-1.85Z"/><path class="cls-3" d="M64,39.6a4,4,0,0,0-.51-1.79,4.06,4.06,0,0,0-1.28-1.36,1.23,1.23,0,0,0-1.33-.1L59.67,37l2.57,4.43,1.22-.69A1.27,1.27,0,0,0,64,39.6Z"/><path class="cls-5" d="M61,37.17a4.13,4.13,0,0,1,1.27,1.36,4.07,4.07,0,0,1,.52,1.8c0,1.15-.82,1.62-1.82,1a4,4,0,0,1-1.79-3.15C59.13,37.05,60,36.59,61,37.17Z"/><path class="cls-4" d="M60.32,38.91c0-.45.27-.66.62-.46a1.48,1.48,0,0,1,.6,1.18c0,.45-.26.65-.61.46a1.46,1.46,0,0,1-.44-.52A1.5,1.5,0,0,1,60.32,38.91Z"/><path class="cls-17" d="M62,35.58s.12,2.13-.86,3c-.18.15-.38.26-.49.37s-.06.62.26.77,2.9-.4,3.85-2.5Z"/><path class="cls-4" d="M61,39a.37.37,0,0,1,.13.12.32.32,0,0,1,.06.18c0,.11-.07.17-.17.11a.37.37,0,0,1-.13-.12.45.45,0,0,1-.07-.18C60.8,39,60.87,39,61,39Z"/><path class="cls-18" d="M59.09,7.27l-.51.3L58.19,6a5,5,0,0,0-2-2.67L55.71,3a1,1,0,0,0-.88,0L51.68,4.84a.17.17,0,0,1-.1,0h-.11l-.1,0a.27.27,0,0,1-.07-.08.23.23,0,0,1,0-.11.2.2,0,0,1,0-.11.41.41,0,0,1,0-.09.3.3,0,0,1,.08-.08l3.15-1.81a1.61,1.61,0,0,1,1.44,0l.46.27a5.52,5.52,0,0,1,2.28,3Z"/><path class="cls-6" d="M44.92,9.57,44,8l7.6-4.39a.42.42,0,0,1,.25-.06.38.38,0,0,1,.24.09,1.3,1.3,0,0,1,.45.48,1.29,1.29,0,0,1,.19.63.46.46,0,0,1,0,.26.52.52,0,0,1-.18.18Z"/><path class="cls-6" d="M44.92,9.57,44,8l7.6-4.39a.42.42,0,0,1,.25-.06.38.38,0,0,1,.24.09,1.3,1.3,0,0,1,.45.48,1.29,1.29,0,0,1,.19.63.46.46,0,0,1,0,.26.52.52,0,0,1-.18.18Z"/><path class="cls-19" d="M44,8c.24-.14.64.1.89.53s.26.9,0,1-.64-.11-.89-.53S43.77,8.15,44,8Z"/><path class="cls-5" d="M44.59,15.75l-.51.29-.39-1.6a4.94,4.94,0,0,0-2-2.66l-.47-.27a.55.55,0,0,1-.27-.23.6.6,0,0,1-.11-.34.65.65,0,0,1,.38-.58l3-1.74c.07,0,.19,0,.26.17s.08.28,0,.32l-3,1.74a.22.22,0,0,0-.1.09.28.28,0,0,0,.1.09l.47.27a5.52,5.52,0,0,1,2.27,3Z"/><path class="cls-11" d="M60.75,25.74,45.59,34.49,67.75,47.28l15.16-8.75Z"/><path class="cls-20" d="M60.75,25.74,45.59,34.49,67.75,47.28l15.16-8.75Z"/><path class="cls-21" d="M44.08,16l15-8.77,1.66,18.47L45.59,34.49Z"/><path class="cls-22" d="M59.09,7.27l1.66,18.47L82.91,38.53,86.41,23ZM66.83,25a1.14,1.14,0,0,1-.49,0,1.27,1.27,0,0,1-.47-.13,1.48,1.48,0,0,1-.39-.31,1.26,1.26,0,0,1-.24-.44l-3.66-9.5a1.16,1.16,0,0,1-.14-.48,1.21,1.21,0,0,1,.07-.5A1.18,1.18,0,0,1,62.2,13a1.22,1.22,0,0,1,.5-.08,1.19,1.19,0,0,1,.48.13,1.34,1.34,0,0,1,.39.32,1.18,1.18,0,0,1,.22.45l3.66,9.5a1.28,1.28,0,0,1,0,1A1.3,1.3,0,0,1,66.83,25Zm6.92,3.25a1.31,1.31,0,0,1-1-.08,1.28,1.28,0,0,1-.63-.74L68.49,18a1.28,1.28,0,0,1,.63-1.68,1.35,1.35,0,0,1,.49-.06,1.33,1.33,0,0,1,.48.14,1.26,1.26,0,0,1,.38.31,1.22,1.22,0,0,1,.24.43l3.67,9.5a1.13,1.13,0,0,1,.11.48,1.35,1.35,0,0,1-.07.49,1.29,1.29,0,0,1-.26.42,1.46,1.46,0,0,1-.41.29Zm6.92,3.26a1.2,1.2,0,0,1-.5.05,1.32,1.32,0,0,1-.47-.13,1.48,1.48,0,0,1-.39-.31,1.26,1.26,0,0,1-.24-.44l-3.66-9.5a1.16,1.16,0,0,1-.14-.48,1.22,1.22,0,0,1,.08-.5,1.2,1.2,0,0,1,.68-.69,1.22,1.22,0,0,1,.5-.08,1.15,1.15,0,0,1,.48.13,1.34,1.34,0,0,1,.39.32,1.18,1.18,0,0,1,.22.45l3.66,9.5a1.26,1.26,0,0,1,0,1,1.29,1.29,0,0,1-.65.71Z"/><path class="cls-23" d="M44.07,16l1.51,18.45,22.17,12.8,3.5-15.49ZM52.82,34.2a1.38,1.38,0,0,1-.49.06,1.3,1.3,0,0,1-.87-.45,1.29,1.29,0,0,1-.24-.43l-3.66-9.5a1.26,1.26,0,0,1-.06-1,1.17,1.17,0,0,1,.27-.42,1.16,1.16,0,0,1,1.4-.22,1,1,0,0,1,.38.32,1.07,1.07,0,0,1,.23.45l3.66,9.5a1.28,1.28,0,0,1,0,1,1.29,1.29,0,0,1-.65.71Zm6.92,3.26a1.28,1.28,0,0,1-1.6-.82L54.5,27.13a1.16,1.16,0,0,1-.14-.48,1.21,1.21,0,0,1,.07-.5,1.32,1.32,0,0,1,.27-.42,1.47,1.47,0,0,1,.42-.28,1.21,1.21,0,0,1,.5-.07,1.15,1.15,0,0,1,.48.13,1.34,1.34,0,0,1,.39.32,1.18,1.18,0,0,1,.22.45l3.66,9.5a1.26,1.26,0,0,1-.62,1.68Zm6.91,3.25a1.26,1.26,0,0,1-1.59-.82l-3.64-9.5a1.16,1.16,0,0,1-.14-.48,1.21,1.21,0,0,1,.07-.5,1.32,1.32,0,0,1,.27-.42,1.26,1.26,0,0,1,.42-.27,1.22,1.22,0,0,1,.5-.08,1.15,1.15,0,0,1,.48.13,1.2,1.2,0,0,1,.39.32,1.22,1.22,0,0,1,.22.44L67.29,39a1.25,1.25,0,0,1,0,1,1.23,1.23,0,0,1-.66.7Z"/><path class="cls-24" d="M71.25,31.8l15.16-8.75-3.5,15.48L67.75,47.28Z"/><path class="cls-6" d="M38.65,85.72l15.16,8.77a1.22,1.22,0,0,0,.56.14,1.19,1.19,0,0,0,.56-.14l14.95-8.6a1.24,1.24,0,0,0,.4-.42,1.34,1.34,0,0,0,.16-.56V83.69a1.27,1.27,0,0,0-.17-.55,1.24,1.24,0,0,0-.4-.42L54.71,73.94a1.24,1.24,0,0,0-.56-.13,1.18,1.18,0,0,0-.56.13l-15,8.61a1.15,1.15,0,0,0-.4.42,1.26,1.26,0,0,0-.16.55v1.22a1.35,1.35,0,0,0,.17.56A1.34,1.34,0,0,0,38.65,85.72Z"/><path class="cls-10" d="M69.87,82.71a1.24,1.24,0,0,1,.4.42,1.18,1.18,0,0,1,.17.55v1.23a1.24,1.24,0,0,1-.55,1l-15,8.6a1.09,1.09,0,0,1-.59.13V92.1a1.08,1.08,0,0,0,.56-.14l15-8.61C70.14,83.19,70.2,82.9,69.87,82.71Z"/><path class="cls-6" d="M38.63,83.19,53.79,92a1.19,1.19,0,0,0,1.12,0l9.62-5.52,5.35-3.1a.31.31,0,0,0,.16-.12.32.32,0,0,0,0-.4.31.31,0,0,0-.16-.12L54.71,73.93a1.18,1.18,0,0,0-.56-.13,1.24,1.24,0,0,0-.56.13l-15,8.61a.32.32,0,0,0-.18.12.3.3,0,0,0-.08.2.38.38,0,0,0,.07.21A.32.32,0,0,0,38.63,83.19Z"/><g class="cls-25"><path class="cls-9" d="M38.63,83.19,53.79,92a1.19,1.19,0,0,0,1.12,0l9.62-5.52,5.35-3.1a.31.31,0,0,0,.16-.12.32.32,0,0,0,0-.4.31.31,0,0,0-.16-.12L54.71,73.93a1.18,1.18,0,0,0-.56-.13,1.24,1.24,0,0,0-.56.13l-15,8.61a.32.32,0,0,0-.18.12.3.3,0,0,0-.08.2.38.38,0,0,0,.07.21A.32.32,0,0,0,38.63,83.19Z"/></g><path class="cls-9" d="M47.3,83.55a.2.2,0,0,1-.11,0,.2.2,0,0,1-.08-.08.25.25,0,0,1,0-.17.26.26,0,0,1,.11-.14l2-1.15a.23.23,0,0,1,.18,0,.21.21,0,0,1,.13.1.21.21,0,0,1-.08.31l-2,1.15A.27.27,0,0,1,47.3,83.55Z"/><path class="cls-9" d="M53.63,85.81h-.08L45.71,83l-1.64.19H44l-.08,0a.28.28,0,0,1-.08-.15.22.22,0,0,1,0-.17.22.22,0,0,1,.15-.08l1.69-.2h.1l7.79,2.79L59,82.21l-3.57-3.39-1.8,1.07-.08,0h-.09a.2.2,0,0,1-.08,0l-.06-.07,0-.08a.28.28,0,0,1,0-.09.3.3,0,0,1,0-.08.18.18,0,0,1,.07,0l1.94-1.14a.22.22,0,0,1,.14,0,.31.31,0,0,1,.13.06l3.9,3.71a.15.15,0,0,1,.06.09.16.16,0,0,1,0,.1.19.19,0,0,1,0,.1.27.27,0,0,1-.08.07l-5.76,3.32A.19.19,0,0,1,53.63,85.81Z"/><path class="cls-9" d="M54.69,86.79a2,2,0,0,1-.94-.24.84.84,0,0,1-.32-.27.76.76,0,0,1-.15-.41.62.62,0,0,1,.37-.56l2.51-1.45.08,0h.09l.08,0,.06.06a.23.23,0,0,1-.09.31L53.87,85.7s-.14.1-.14.17.07.18.25.29a1.47,1.47,0,0,0,.61.17,1.5,1.5,0,0,0,.63-.11L60.78,83a.23.23,0,0,1,.23.39l-5.56,3.21A1.64,1.64,0,0,1,54.69,86.79Z"/><path class="cls-9" d="M57.7,87.79a2,2,0,0,1-1-.24.81.81,0,0,1-.33-.28.88.88,0,0,1-.15-.4.8.8,0,0,1,.11-.34.71.71,0,0,1,.26-.23,1.86,1.86,0,0,1,.87-.18,1.9,1.9,0,0,1,.84.24.85.85,0,0,1,.48.68.6.6,0,0,1-.11.34.58.58,0,0,1-.26.23A1.43,1.43,0,0,1,57.7,87.79Zm-.3-1.22a1.21,1.21,0,0,0-.53.12c-.06,0-.15.1-.15.18s.07.18.25.29a1.56,1.56,0,0,0,.63.17,1.26,1.26,0,0,0,.63-.11c.06,0,.15-.09.15-.18s-.07-.18-.25-.28A1.59,1.59,0,0,0,57.4,86.57Z"/><path class="cls-9" d="M61.64,85.51a1.87,1.87,0,0,1-1-.24.79.79,0,0,1-.33-.27,1,1,0,0,1-.15-.41.76.76,0,0,1,.11-.33.71.71,0,0,1,.26-.23,1.86,1.86,0,0,1,.87-.18,1.81,1.81,0,0,1,.84.24.91.91,0,0,1,.34.27.84.84,0,0,1,.14.41.64.64,0,0,1-.1.33.78.78,0,0,1-.27.24A1.52,1.52,0,0,1,61.64,85.51Zm-.3-1.21a1.08,1.08,0,0,0-.53.12c-.05,0-.14.09-.14.17s.06.19.25.29a1.35,1.35,0,0,0,.62.18,1.5,1.5,0,0,0,.63-.11c.06,0,.15-.1.15-.18s-.07-.18-.25-.29A1.58,1.58,0,0,0,61.34,84.3Z"/><path class="cls-9" d="M51.87,83.05a5.78,5.78,0,0,1-2.73-.68,2.11,2.11,0,0,1-1.24-1.71,1.59,1.59,0,0,1,.91-1.35,5.39,5.39,0,0,1,4.84.19,2.12,2.12,0,0,1,1.25,1.7A1.6,1.6,0,0,1,54,82.56,4.31,4.31,0,0,1,51.87,83.05Zm-.94-3.78A3.86,3.86,0,0,0,49,79.7a1.17,1.17,0,0,0-.69,1,1.69,1.69,0,0,0,1,1.31,4.88,4.88,0,0,0,4.39.19,1.16,1.16,0,0,0,.68-1,1.7,1.7,0,0,0-1-1.31A5.09,5.09,0,0,0,50.93,79.27Z"/><path class="cls-9" d="M52.13,81.9l-1.82-.07a.21.21,0,0,1-.16-.08.23.23,0,0,1-.06-.16.29.29,0,0,1,0-.09l0-.07a.2.2,0,0,1,.08,0,.14.14,0,0,1,.09,0l1.48.05-.62-1.63a.28.28,0,0,1,0-.09.19.19,0,0,1,0-.08.22.22,0,0,1,0-.08l.08,0,.08,0,.09,0a.2.2,0,0,1,.07.06.18.18,0,0,1,0,.07l.72,2a.41.41,0,0,1,0,.11.3.3,0,0,1,0,.1.18.18,0,0,1-.08.07A.19.19,0,0,1,52.13,81.9Z"/><path class="cls-9" d="M58.89,86.41a.2.2,0,0,1-.11,0,.24.24,0,0,1-.09-.08.29.29,0,0,1,0-.09.27.27,0,0,1,0-.09.3.3,0,0,1,0-.08.18.18,0,0,1,.07-.05L60,85.26a.2.2,0,0,1,.17,0,.21.21,0,0,1,.14.1.2.2,0,0,1,0,.17.21.21,0,0,1-.1.14L59,86.38A.27.27,0,0,1,58.89,86.41Z"/><path class="cls-6" d="M69.88,67.13l7.47,4.33a1.39,1.39,0,0,0,.56.13,1.32,1.32,0,0,0,.56-.13l22.94-13.21a1.13,1.13,0,0,0,.39-.42,1.1,1.1,0,0,0,.16-.55V56.05a1.22,1.22,0,0,0-.17-.55,1.31,1.31,0,0,0-.39-.42l-7.48-4.32a1.22,1.22,0,0,0-.56-.14,1.19,1.19,0,0,0-.56.14L69.86,64a1.21,1.21,0,0,0-.39.42,1.1,1.1,0,0,0-.16.55v1.23a1.21,1.21,0,0,0,.16.56A1.27,1.27,0,0,0,69.88,67.13Z"/><path class="cls-10" d="M101.39,55.09a1.21,1.21,0,0,1,.39.42,1.22,1.22,0,0,1,.17.55v1.23a1.19,1.19,0,0,1-.15.55,1.24,1.24,0,0,1-.4.42L78.46,71.45a1.18,1.18,0,0,1-.58.14V69.07a1.11,1.11,0,0,0,.56-.14l22.93-13.19A.34.34,0,0,0,101.39,55.09Z"/><path class="cls-6" d="M69.85,64.61l7.47,4.32a1.21,1.21,0,0,0,1.13,0l9.61-5.52,13.32-7.67a.35.35,0,0,0,.17-.12.37.37,0,0,0,.07-.2.32.32,0,0,0-.07-.2.37.37,0,0,0-.17-.13l-7.47-4.32a1.25,1.25,0,0,0-.56-.14,1.19,1.19,0,0,0-.56.14L69.85,64a.31.31,0,0,0-.17.13.37.37,0,0,0-.07.2.48.48,0,0,0,.07.2A.35.35,0,0,0,69.85,64.61Z"/><g class="cls-25"><path class="cls-9" d="M69.85,64.61l7.47,4.32a1.21,1.21,0,0,0,1.13,0l9.61-5.52,13.32-7.67a.35.35,0,0,0,.17-.12.37.37,0,0,0,.07-.2.32.32,0,0,0-.07-.2.37.37,0,0,0-.17-.13l-7.47-4.32a1.25,1.25,0,0,0-.56-.14,1.19,1.19,0,0,0-.56.14L69.85,64a.31.31,0,0,0-.17.13.37.37,0,0,0-.07.2.48.48,0,0,0,.07.2A.35.35,0,0,0,69.85,64.61Z"/></g><path class="cls-9" d="M77.12,66.73a.45.45,0,0,1-.23-.08L73.3,64.58c-.08,0-.11-.08-.12-.13s0-.08.11-.12l1-.6a2.08,2.08,0,0,1,2.19-.13c.43.24.58.53.43.85h0a2,2,0,0,1,.8-.08,2.13,2.13,0,0,1,.78.27c.35.2.51.42.5.67s-.24.5-.67.74l-1.06.61A.48.48,0,0,1,77.12,66.73Zm-1.15-2c.13-.07.18-.15.16-.23s-.11-.17-.28-.26a1.07,1.07,0,0,0-.44-.16.63.63,0,0,0-.38.09l-.41.24,1,.55Zm1.74,1c.14-.08.21-.17.2-.26s-.12-.18-.3-.28a1.05,1.05,0,0,0-.48-.16.73.73,0,0,0-.43.11l-.44.27,1,.58Z"/><path class="cls-9" d="M80.29,64.64A2.31,2.31,0,0,1,79,64.32l-2.68-1.55q-.19-.1.15-.3l.23-.13c.22-.13.39-.16.52-.09l2.62,1.52a1.07,1.07,0,0,0,.52.14.86.86,0,0,0,.5-.12c.15-.08.22-.18.21-.29s-.09-.21-.25-.3l-2.62-1.51c-.13-.07-.08-.18.15-.3l.22-.13c.23-.13.4-.16.52-.09l2.69,1.55c.38.22.57.47.53.73s-.27.54-.7.78A3,3,0,0,1,80.29,64.64Z"/><path class="cls-9" d="M84,62.59l-1.57-.9L79.54,61a.76.76,0,0,1-.2-.06s0-.05,0-.1a1.19,1.19,0,0,1,.23-.16l.29-.17a.57.57,0,0,1,.43-.12l1.86.55-1-1.07s0-.07,0-.11a1.33,1.33,0,0,1,.19-.14l.25-.14c.24-.14.4-.18.48-.14a.94.94,0,0,1,.1.1l1.18,1.71,1.55.9c.06,0,.08.08,0,.13a.51.51,0,0,1-.21.17l-.22.13C84.33,62.63,84.16,62.66,84,62.59Z"/><path class="cls-9" d="M87,60.9l-3.7-2.13q-.18-.1.15-.3l.15-.09a.85.85,0,0,1,.22-.09H84l2.93.49.65.15v0a4.59,4.59,0,0,1-.5-.24l-1.84-1.06c-.13-.08-.08-.18.15-.31l.13-.07a.54.54,0,0,1,.54-.09l3.69,2.13q.18.1-.15.3l-.11.06a1,1,0,0,1-.22.09.53.53,0,0,1-.25,0L86,59.22a5,5,0,0,1-.53-.12v0a3.49,3.49,0,0,1,.44.2l1.9,1.09c.12.07.07.18-.15.3l-.14.08C87.28,60.94,87.1,61,87,60.9Z"/><path class="cls-9" d="M88.45,57.91c-1.38-.8-1.56-1.48-.55-2.07a2.7,2.7,0,0,1,1.62-.35,4.51,4.51,0,0,1,2,.68c.71.41,1.1.78,1.18,1.12s-.13.65-.62.94A3.46,3.46,0,0,1,88.45,57.91Zm3-.38a.48.48,0,0,0-.21-.34,4.49,4.49,0,0,0-.73-.5,5.54,5.54,0,0,0-.85-.41,1.74,1.74,0,0,0-.59-.13,1,1,0,0,0-.45.13.42.42,0,0,0-.23.27c0,.09.06.21.21.34a4,4,0,0,0,.72.49,4.56,4.56,0,0,0,.86.42,1.53,1.53,0,0,0,.6.12.9.9,0,0,0,.45-.13A.36.36,0,0,0,91.5,57.53Z"/><path class="cls-9" d="M94.47,56.75a.25.25,0,0,1-.17,0L89.84,55l0,0,0,0c-.1-.06,0-.16.19-.29l.17-.09a.68.68,0,0,1,.26-.12.71.71,0,0,1,.29,0l2.39,1.07.47.21L94,56l-.59-.47-.14-.11L91.45,54h0a0,0,0,0,1,0,0v-.05a.52.52,0,0,1,.17-.13l.29-.17a.94.94,0,0,1,.23-.1.22.22,0,0,1,.16,0l2.54,1.07,1,.43-.53-.4-.23-.17L93.2,53c-.1-.08,0-.19.19-.32l.14-.07c.22-.14.39-.17.49-.12l.08.06L97,55.14c.07.06,0,.13-.15.23l-.38.22a.37.37,0,0,1-.18.08h-.2l-2.43-1L93,54.4l.55.39,1.64,1.41c.06.06,0,.13-.14.22l-.38.22A.78.78,0,0,1,94.47,56.75Z"/><path class="cls-4" d="M125.49,70.66a2,2,0,0,1-.27.86,2,2,0,0,1-.63.64L97.66,87.71a2,2,0,0,1-1.8,0l-6.65-3.84a1.74,1.74,0,0,1-.66-.63,1.7,1.7,0,0,1,0-1.74,1.71,1.71,0,0,1,.66-.62l26.92-15.55a2,2,0,0,1,1.81,0l6.65,3.84a2,2,0,0,1,.63.64A2,2,0,0,1,125.49,70.66Z"/><path class="cls-5" d="M124.72,69.26c.36.29.31.69-.13.95l-11.23,6.48L97.67,85.75a1.79,1.79,0,0,1-.9.22v2a1.83,1.83,0,0,0,.89-.21l26.93-15.55a1.73,1.73,0,0,0,.64-.59,1.59,1.59,0,0,0,.26-.82,1.76,1.76,0,0,0-.18-.85,1.79,1.79,0,0,0-.58-.64Z"/><path class="cls-3" d="M95.86,85.76l-6.65-3.84c-.5-.29-.5-.76,0-1l26.92-15.55a2,2,0,0,1,1.81,0l6.65,3.84a.55.55,0,0,1,0,1l-11.23,6.48L97.67,85.76a2.06,2.06,0,0,1-1.81,0Z"/><path class="cls-26" d="M114.59,68.76l.59.85a.05.05,0,0,1,0,0v0a.06.06,0,0,1,0,0l0,0-.82.66c-.13.11,0,.27.26.28l1.52,0a.46.46,0,0,1,.25.08l1,.75c.15.12.45.11.51,0l.34-.82a.27.27,0,0,1,.08-.07.19.19,0,0,1,.1,0l1.41-.2c.23,0,.26-.21,0-.29l-1.3-.56c-.08,0-.14-.09-.14-.14l-.09-.88c0-.13-.3-.23-.49-.15l-1.13.47a.5.5,0,0,1-.27,0l-1.47-.34C114.7,68.51,114.5,68.63,114.59,68.76Z"/><path class="cls-26" d="M109.63,71.65l.59.84a.2.2,0,0,1,0,.08l0,0,0,0-.82.66c-.13.1,0,.27.27.27l1.51,0a.46.46,0,0,1,.25.08l1,.75c.15.12.46.1.51,0l.34-.81a.3.3,0,0,1,.08-.08l.1,0,1.42-.2c.22,0,.25-.21,0-.3l-1.3-.56a.2.2,0,0,1-.14-.14l-.09-.87c0-.14-.3-.23-.48-.16l-1.15.47a.39.39,0,0,1-.26,0L110,71.44C109.74,71.4,109.54,71.51,109.63,71.65Z"/><path class="cls-26" d="M104.68,74.53l.59.85s0,0,0,0v0a.05.05,0,0,1,0,0l0,0-.81.67c-.13.1,0,.26.26.26l1.51.05a.54.54,0,0,1,.25.09l1,.75c.15.12.45.1.5,0l.35-.82a.19.19,0,0,1,.08-.07.17.17,0,0,1,.1,0l1.41-.2c.23,0,.25-.2,0-.29l-1.29-.56c-.09,0-.14-.09-.14-.14l-.09-.87c0-.14-.3-.24-.48-.16l-1.15.47a.42.42,0,0,1-.27,0L105,74.32C104.78,74.28,104.58,74.4,104.68,74.53Z"/><path class="cls-26" d="M99.72,77.42l.59.85,0,0v0a.08.08,0,0,1,0,0s0,0,0,0l-.81.66c-.13.11,0,.27.26.27l1.52.05a.41.41,0,0,1,.24.08l1,.75c.15.12.45.11.51,0l.34-.82a.27.27,0,0,1,.08-.07.17.17,0,0,1,.1,0l1.41-.2c.23,0,.25-.21,0-.29l-1.29-.55c-.09,0-.14-.09-.14-.15l-.09-.87c0-.14-.3-.23-.48-.15l-1.16.47a.39.39,0,0,1-.26,0l-1.47-.34C99.83,77.17,99.62,77.29,99.72,77.42Z"/><path class="cls-26" d="M94.76,80.31l.59.84a.08.08,0,0,1,0,0v0s0,0,0,0l0,0-.82.66c-.13.1,0,.26.27.26l1.51.06a.46.46,0,0,1,.25.08l1,.75c.15.12.45.1.51,0l.35-.82a.16.16,0,0,1,.07-.07.19.19,0,0,1,.1,0L100,82c.22,0,.25-.2,0-.29l-1.3-.55a.24.24,0,0,1-.09-.06.19.19,0,0,1,0-.09l-.09-.87c0-.14-.29-.23-.48-.16l-1.15.48a.46.46,0,0,1-.26,0L95.1,80.1C94.88,80.06,94.67,80.17,94.76,80.31Z"/><g class="cls-27"><path class="cls-9" d="M114.59,68.76l.59.85a.05.05,0,0,1,0,0v0a.06.06,0,0,1,0,0l0,0-.82.66c-.13.11,0,.27.26.28l1.52,0a.46.46,0,0,1,.25.08l1,.75c.15.12.45.11.51,0l.34-.82a.27.27,0,0,1,.08-.07.19.19,0,0,1,.1,0l1.41-.2c.23,0,.26-.21,0-.29l-1.3-.56c-.08,0-.14-.09-.14-.14l-.09-.88c0-.13-.3-.23-.49-.15l-1.13.47a.5.5,0,0,1-.27,0l-1.47-.34C114.7,68.51,114.5,68.63,114.59,68.76Z"/><path class="cls-9" d="M109.63,71.65l.59.84a.2.2,0,0,1,0,.08l0,0,0,0-.82.66c-.13.1,0,.27.27.27l1.51,0a.46.46,0,0,1,.25.08l1,.75c.15.12.46.1.51,0l.34-.81a.3.3,0,0,1,.08-.08l.1,0,1.42-.2c.22,0,.25-.21,0-.3l-1.3-.56a.2.2,0,0,1-.14-.14l-.09-.87c0-.14-.3-.23-.48-.16l-1.15.47a.39.39,0,0,1-.26,0L110,71.44C109.74,71.4,109.54,71.51,109.63,71.65Z"/><path class="cls-9" d="M104.68,74.53l.59.85s0,0,0,0v0a.05.05,0,0,1,0,0l0,0-.81.67c-.13.1,0,.26.26.26l1.51.05a.54.54,0,0,1,.25.09l1,.75c.15.12.45.1.5,0l.35-.82a.19.19,0,0,1,.08-.07.17.17,0,0,1,.1,0l1.41-.2c.23,0,.25-.2,0-.29l-1.29-.56c-.09,0-.14-.09-.14-.14l-.09-.87c0-.14-.3-.24-.48-.16l-1.15.47a.42.42,0,0,1-.27,0L105,74.32C104.78,74.28,104.58,74.4,104.68,74.53Z"/><path class="cls-9" d="M99.72,77.42l.59.85,0,0v0a.08.08,0,0,1,0,0s0,0,0,0l-.81.66c-.13.11,0,.27.26.27l1.52.05a.41.41,0,0,1,.24.08l1,.75c.15.12.45.11.51,0l.34-.82a.27.27,0,0,1,.08-.07.17.17,0,0,1,.1,0l1.41-.2c.23,0,.25-.21,0-.29l-1.29-.55c-.09,0-.14-.09-.14-.15l-.09-.87c0-.14-.3-.23-.48-.15l-1.16.47a.39.39,0,0,1-.26,0l-1.47-.34C99.83,77.17,99.62,77.29,99.72,77.42Z"/><path class="cls-9" d="M94.76,80.31l.59.84a.08.08,0,0,1,0,0v0s0,0,0,0l0,0-.82.66c-.13.1,0,.26.27.26l1.51.06a.46.46,0,0,1,.25.08l1,.75c.15.12.45.1.51,0l.35-.82a.16.16,0,0,1,.07-.07.19.19,0,0,1,.1,0L100,82c.22,0,.25-.2,0-.29l-1.3-.55a.24.24,0,0,1-.09-.06.19.19,0,0,1,0-.09l-.09-.87c0-.14-.29-.23-.48-.16l-1.15.48a.46.46,0,0,1-.26,0L95.1,80.1C94.88,80.06,94.67,80.17,94.76,80.31Z"/></g></svg>