<svg width="15" height="20" viewBox="0 0 15 20" fill="none" xmlns="http://www.w3.org/2000/svg">
<path d="M14.7188 4.90625H9.8125V0L14.7188 4.90625ZM9.8125 6.13281H14.7188V17.7852C14.7188 18.8201 13.8755 19.625 12.8789 19.625H1.83984C0.804932 19.625 0 18.8201 0 17.7852V1.83984C0 0.843262 0.804932 0 1.83984 0H8.58594V4.90625C8.58594 5.59619 9.12256 6.13281 9.8125 6.13281ZM2.45312 3.37305C2.45312 3.5647 2.56812 3.67969 2.75977 3.67969H5.82617C5.97949 3.67969 6.13281 3.5647 6.13281 3.37305V2.75977C6.13281 2.60645 5.97949 2.45312 5.82617 2.45312H2.75977C2.56812 2.45312 2.45312 2.60645 2.45312 2.75977V3.37305ZM2.75977 6.13281H5.82617C5.97949 6.13281 6.13281 6.01782 6.13281 5.82617V5.21289C6.13281 5.05957 5.97949 4.90625 5.82617 4.90625H2.75977C2.56812 4.90625 2.45312 5.05957 2.45312 5.21289V5.82617C2.45312 6.01782 2.56812 6.13281 2.75977 6.13281ZM7.55103 12.1506L7.32104 12.1123C6.43945 11.844 6.43945 11.6907 6.47778 11.5374C6.51611 11.2307 7.12939 11.1541 7.62769 11.2307C7.85767 11.269 8.08765 11.3457 8.31763 11.4224C8.70093 11.5757 9.16089 11.3457 9.27588 10.9624C9.4292 10.5408 9.23755 10.1191 8.81592 9.96582C8.54761 9.88916 8.31763 9.8125 8.12598 9.77417V9.50586C8.12598 9.08423 7.78101 8.73926 7.35938 8.73926C6.89941 8.73926 6.59277 9.08423 6.59277 9.50586V9.73584C5.71118 9.92749 5.0979 10.4641 4.98291 11.269C4.67627 12.9172 6.2478 13.3772 6.89941 13.5688L7.12939 13.6455C8.24097 13.9521 8.24097 14.0671 8.20264 14.2588C8.16431 14.5654 7.55103 14.6421 7.05273 14.5654C6.78442 14.5271 6.43945 14.3738 6.13281 14.2971L5.97949 14.2205C5.55786 14.0671 5.13623 14.2971 4.98291 14.6804C4.82959 15.1021 5.05957 15.5237 5.44287 15.677L5.59619 15.7153C5.90283 15.8303 6.2478 15.9453 6.59277 16.022V16.252C6.59277 16.7119 6.89941 17.0186 7.35938 17.0186C7.78101 17.0186 8.12598 16.7119 8.12598 16.252V16.022C8.96924 15.8303 9.58252 15.332 9.69751 14.5271C10.0042 12.8406 8.39429 12.4189 7.55103 12.1506Z" fill="#8B97A3"/>
</svg>