<svg id="Layer_1" data-name="Layer 1" xmlns="http://www.w3.org/2000/svg" viewBox="0 0 237.07 151.61"><defs><style>.cls-1{fill:#fff;stroke:#415f79;stroke-miterlimit:10;}.cls-2{fill:#536e86;}</style></defs><path class="cls-1" d="M233.59,135.76a11.89,11.89,0,0,1-11.86,11.92H15A11.88,11.88,0,0,1,3.18,135.76V16.87A11.89,11.89,0,0,1,15,4.94h206.7a11.89,11.89,0,0,1,11.86,11.93Z"/><path class="cls-2" d="M24.15,70.47a5.36,5.36,0,0,0,5.36,5.36h5.68v-6h-11Z"/><rect class="cls-2" x="24.15" y="61.8" width="11.04" height="6.12"/><path class="cls-2" d="M24.15,51.23v.64h11v-6H29.51A5.36,5.36,0,0,0,24.15,51.23Z"/><path class="cls-2" d="M52.08,45.87h-15v30h7.62v-24H57.44v-.64A5.36,5.36,0,0,0,52.08,45.87Z"/><rect class="cls-2" x="24.15" y="53.78" width="11.04" height="6.12"/><rect class="cls-2" x="46.62" y="53.78" width="10.82" height="6.12"/><rect class="cls-2" x="46.62" y="61.8" width="10.82" height="6.12"/><path class="cls-2" d="M46.62,75.83h5.46a5.36,5.36,0,0,0,5.36-5.36v-.64H46.62Z"/><polygon class="cls-2" points="18.23 55.88 13.27 60.85 18.23 65.82 18.23 55.88"/><path class="cls-2" d="M26.35,92.12a.68.68,0,0,1,0-1.36H31a1.32,1.32,0,0,1,1.35,1.36v2.59A1.59,1.59,0,0,1,31.82,96a1.57,1.57,0,0,1,.52,1.3v2.6A1.32,1.32,0,0,1,31,101.27H26.35a.68.68,0,1,1,0-1.35H31V97.68c0-.76-.29-1-.67-1H27.67a.68.68,0,0,1,0-1.35h2.65c.38,0,.67-.23.67-1V92.12Z"/><path class="cls-2" d="M40.71,99.92V97.19a.61.61,0,0,1,.68-.68.6.6,0,0,1,.67.68v3.4a.62.62,0,0,1-.67.68H36.07a.68.68,0,1,1,0-1.35h2v-7.8h-2a.68.68,0,0,1,0-1.36H39.4v9.16Z"/><path class="cls-2" d="M49.76,96.49V92.58a.68.68,0,0,1,1.35,0v3.91a.68.68,0,0,1,0,1.35v2.75a.68.68,0,1,1-1.35,0V97.84h-4v-6.4a.68.68,0,1,1,1.35,0v5Z"/><path class="cls-2" d="M60.15,99.92V97.19a.61.61,0,0,1,.68-.68.6.6,0,0,1,.67.68v3.4a.62.62,0,0,1-.67.68H55.51a.68.68,0,1,1,0-1.35h2v-7.8h-2a.68.68,0,1,1,0-1.36h3.33v9.16Z"/><path class="cls-2" d="M77,95.34h2.48a1.39,1.39,0,0,1,1.08.38,1.31,1.31,0,0,1,.42,1.14v2.9a1.45,1.45,0,0,1-.32,1,1.33,1.33,0,0,1-1.18.46h-3a2,2,0,0,1-.89-.25L75,100.8c-.36-.17-.77-.29-.77-.76a.69.69,0,0,1,.65-.68,1,1,0,0,1,.43.11l.41.18a2.27,2.27,0,0,0,.71.27h3.12V96.69h-4V90.76h4.66a.68.68,0,0,1,0,1.36H77Z"/><path class="cls-2" d="M89.31,95.57H84.67A.69.69,0,0,1,84,94.9V91.44a.69.69,0,0,1,.68-.68H90a.69.69,0,0,1,.67.68v9.15a.66.66,0,0,1-.67.68h-.68a.66.66,0,0,1-.68-.68.65.65,0,0,1,.68-.67Zm0-1.35v-2.1h-4v2.1Z"/><path class="cls-2" d="M95.06,99.92H99.7a.68.68,0,1,1,0,1.35h-6V96.86a1.35,1.35,0,0,1,1.52-1.52H99V92.12H94.38a.68.68,0,0,1,0-1.36h4.49a1.4,1.4,0,0,1,1.51,1.58v2.77a1.41,1.41,0,0,1-.42,1.2,1.43,1.43,0,0,1-1.09.38H95.06Z"/><path class="cls-2" d="M104.78,96.49h4.51c.67,0,.81.28.81.9v3c0,.63-.27.85-.88.85H104.3c-.63,0-.87-.23-.87-.85v-9c0-.31.1-.68.58-.68h.81a.67.67,0,0,1,.63.68.64.64,0,0,1-.67.68Zm0,1.35v2.08h4V97.84Z"/><path class="cls-2" d="M125.55,95.34H128a1.4,1.4,0,0,1,1.08.38,1.34,1.34,0,0,1,.42,1.14v2.9a1.46,1.46,0,0,1-.33,1,1.31,1.31,0,0,1-1.17.46h-3a2,2,0,0,1-.89-.25l-.51-.22c-.37-.17-.77-.29-.77-.76a.68.68,0,0,1,.64-.68,1,1,0,0,1,.44.11l.4.18a2.32,2.32,0,0,0,.72.27h3.12V96.69h-4V90.76h4.66a.68.68,0,1,1,0,1.36h-3.31Z"/><path class="cls-2" d="M133.26,92.12a.68.68,0,0,1,0-1.36h4.65a1.32,1.32,0,0,1,1.35,1.36v2.59a1.57,1.57,0,0,1-.53,1.31,1.55,1.55,0,0,1,.53,1.3v2.6a1.32,1.32,0,0,1-1.35,1.35h-4.65a.68.68,0,0,1,0-1.35h4.65V97.68c0-.76-.3-1-.68-1h-2.65a.68.68,0,0,1,0-1.35h2.65c.38,0,.68-.23.68-1V92.12Z"/><path class="cls-2" d="M145,95.34h2.49a1.4,1.4,0,0,1,1.08.38,1.34,1.34,0,0,1,.42,1.14v2.9a1.46,1.46,0,0,1-.33,1,1.31,1.31,0,0,1-1.17.46h-3a2,2,0,0,1-.89-.25l-.52-.22c-.36-.17-.76-.29-.76-.76a.68.68,0,0,1,.64-.68,1,1,0,0,1,.44.11l.4.18a2.32,2.32,0,0,0,.72.27h3.12V96.69h-4V90.76h4.66a.68.68,0,1,1,0,1.36H145Z"/><path class="cls-2" d="M156.67,90.76a.64.64,0,0,1,.68.68v3.9a1.38,1.38,0,0,1,1,.38,1.33,1.33,0,0,1,.37,1v3.21a1.26,1.26,0,0,1-1.35,1.35h-4A1.26,1.26,0,0,1,152,99.92V96.71a1.32,1.32,0,0,1,.36-1,1.39,1.39,0,0,1,1-.38v-3.9a.64.64,0,0,1,.67-.68Zm.68,9.16V96.69h-4v3.23ZM156,95.34V92.12h-1.27v3.22Z"/><path class="cls-2" d="M176.79,95.57h-4.65a.69.69,0,0,1-.68-.67V91.44a.69.69,0,0,1,.68-.68h5.32a.69.69,0,0,1,.67.68v9.15a.66.66,0,0,1-.67.68h-.67a.66.66,0,0,1-.68-.68.64.64,0,0,1,.68-.67Zm0-1.35v-2.1h-4v2.1Z"/><path class="cls-2" d="M182.53,92.12a.68.68,0,0,1-.67.67.69.69,0,0,1-.68-.67v-.68a.69.69,0,0,1,.68-.68h6v3.92c0,.47,0,.52-.36.85l-1.89,1.63c-.35.31-.38.34-.38.81v2.62a.68.68,0,1,1-1.35,0V97.34c0-.45,0-.49.35-.78L186.08,95c.45-.39.42-.38.42-1V92.12Z"/><path class="cls-2" d="M196.22,95.57h-4.64a.69.69,0,0,1-.68-.67V91.44a.69.69,0,0,1,.68-.68h5.32a.69.69,0,0,1,.67.68v9.15a.66.66,0,0,1-.67.68h-.68a.66.66,0,0,1-.67-.68.64.64,0,0,1,.67-.67Zm0-1.35v-2.1h-4v2.1Z"/><path class="cls-2" d="M201.3,92.12a.68.68,0,0,1,0-1.36h4.64a1.32,1.32,0,0,1,1.35,1.36v2.59a1.56,1.56,0,0,1-.52,1.31,1.54,1.54,0,0,1,.52,1.3v2.6a1.32,1.32,0,0,1-1.35,1.35H201.3a.68.68,0,1,1,0-1.35h4.64V97.68c0-.76-.29-1-.67-1h-2.65a.68.68,0,1,1,0-1.35h2.65c.38,0,.67-.23.67-1V92.12Z"/><path class="cls-2" d="M33.79,30.69a7.44,7.44,0,0,1-3,.5c-4,0-6.07-2.49-6.07-5.79,0-4,2.82-6.16,6.33-6.16a6.86,6.86,0,0,1,2.85.52l-.53,2.08a5.78,5.78,0,0,0-2.2-.43,3.49,3.49,0,0,0-3.7,3.83A3.47,3.47,0,0,0,31.21,29a6.78,6.78,0,0,0,2.19-.38Z"/><path class="cls-2" d="M35.35,25.38c0-1.24,0-2-.07-2.77h2.25l.09,1.55h.07A2.47,2.47,0,0,1,40,22.42a2.33,2.33,0,0,1,.55,0v2.46a3.39,3.39,0,0,0-.71-.07A1.69,1.69,0,0,0,38,26.17a3.51,3.51,0,0,0,0,.59V31H35.35Z"/><path class="cls-2" d="M43.75,27.65c.09,1.08,1.15,1.6,2.37,1.6a7.57,7.57,0,0,0,2.33-.34l.34,1.77a8.38,8.38,0,0,1-3,.51c-2.86,0-4.49-1.65-4.49-4.28a4.21,4.21,0,0,1,4.25-4.49c2.71,0,3.74,2.12,3.74,4.2a6.87,6.87,0,0,1-.08,1Zm3.08-1.79a1.52,1.52,0,0,0-1.48-1.7,1.71,1.71,0,0,0-1.61,1.7Z"/><path class="cls-2" d="M59,18.81v9.7c0,.95,0,1.94.07,2.51H56.71l-.12-1.24h0a2.94,2.94,0,0,1-2.64,1.43c-2,0-3.59-1.7-3.59-4.32,0-2.83,1.75-4.47,3.77-4.47a2.55,2.55,0,0,1,2.21.95h0V18.81Zm-2.61,7.36a3.57,3.57,0,0,0,0-.46,1.56,1.56,0,0,0-1.53-1.29c-1.18,0-1.8,1.06-1.8,2.39s.7,2.32,1.79,2.32a1.54,1.54,0,0,0,1.51-1.26,2.2,2.2,0,0,0,.07-.6Z"/><path class="cls-2" d="M63.75,20.28a1.31,1.31,0,0,1-1.41,1.3,1.32,1.32,0,1,1,0-2.63A1.31,1.31,0,0,1,63.75,20.28ZM61.05,31V22.61h2.62V31Z"/><path class="cls-2" d="M68.68,20.21v2.4h1.88v1.93H68.68v3c0,1,.24,1.48,1,1.48a3.85,3.85,0,0,0,.78-.07l0,2a5.15,5.15,0,0,1-1.71.22,2.73,2.73,0,0,1-2-.72,3.51,3.51,0,0,1-.72-2.5V24.54H65V22.61h1.12V20.79Z"/><path class="cls-2" d="M79.56,30.64a7.64,7.64,0,0,1-3,.55c-2.92,0-4.69-1.84-4.69-4.79a7.23,7.23,0,0,1,2.47-5.59,6.56,6.56,0,0,1,4.37-1.57,4.65,4.65,0,0,1,2.51.57L80.75,21a5.15,5.15,0,0,0-5.61.83,6.08,6.08,0,0,0-1.77,4.4c0,2.08.95,3.78,3.53,3.78a5.76,5.76,0,0,0,2.47-.5Z"/><path class="cls-2" d="M86.41,31c0-.5.09-1.29.19-2.15h0c-.91,1.72-2,2.34-3.23,2.34A2.47,2.47,0,0,1,81,28.46a5.81,5.81,0,0,1,5.76-5.95,8.08,8.08,0,0,1,2.23.32l-.84,4.34A18.23,18.23,0,0,0,87.74,31Zm.93-7.25a3.43,3.43,0,0,0-1-.12c-2.15,0-3.91,2.25-3.92,4.55,0,.93.32,1.84,1.42,1.84s2.6-1.55,3-3.76Z"/><path class="cls-2" d="M89.86,31l1-5.36c.2-1.09.34-2.19.43-3h1.25c-.07.58-.14,1.17-.22,1.8h0a3,3,0,0,1,2.55-2,2.34,2.34,0,0,1,.39,0L95.06,24a3.26,3.26,0,0,0-.38,0c-1.24,0-2.34,1.5-2.7,3.44L91.29,31Z"/><path class="cls-2" d="M104.08,18.81l-1.82,9.58a21,21,0,0,0-.37,2.63h-1.3l.22-1.65h0a3.55,3.55,0,0,1-3,1.84c-1.62,0-2.5-1.33-2.5-3,0-2.95,2.2-5.67,5.14-5.67a3.78,3.78,0,0,1,1.48.29l.74-4ZM101.69,24a2.51,2.51,0,0,0-1.38-.35c-2,0-3.54,2.12-3.54,4.33,0,1,.35,2.05,1.57,2.05s2.42-1.25,2.78-3.13Z"/><path class="cls-2" d="M177.6,23.36A16.23,16.23,0,0,1,180,23.2a4.75,4.75,0,0,1,2.44.44,1.69,1.69,0,0,1,1,1.52,1.78,1.78,0,0,1-1.37,1.66v0a2,2,0,0,1,1.65,1.91,2,2,0,0,1-.86,1.65,5.48,5.48,0,0,1-3.25.7,14.92,14.92,0,0,1-2-.12Zm1.85,3h.62c1,0,1.51-.38,1.51-.95s-.48-.9-1.33-.9a6.36,6.36,0,0,0-.8,0Zm0,3.44a5,5,0,0,0,.73,0c.85,0,1.59-.3,1.59-1.12s-.74-1.09-1.68-1.09h-.64Z"/><path class="cls-2" d="M186.89,29l-.59,2h-1.94l2.53-7.76h2.45L191.91,31h-2l-.64-2Zm2.1-1.32-.52-1.64c-.14-.46-.29-1-.41-1.5h0c-.12.46-.24,1.05-.38,1.5l-.49,1.64Z"/><path class="cls-2" d="M193,31V23.26h2.18l1.72,2.84a22.9,22.9,0,0,1,1.35,2.66h0a27.56,27.56,0,0,1-.16-3.24V23.26h1.72V31h-2l-1.77-3a27.12,27.12,0,0,1-1.43-2.73h0c.05,1,.07,2.11.07,3.38V31Z"/><path class="cls-2" d="M201.48,23.26h1.86v3.43h0c.19-.3.38-.58.57-.85l1.88-2.58h2.29l-2.74,3.3L208.26,31h-2.19l-2-3.35-.71.82V31h-1.86Z"/><path class="cls-2" d="M30.11,128.79c0,1.31.22,4.19-2.28,4.19s-2.28-2.79-2.28-4.19c0-1.93-.1-4.21,2.28-4.21C30.43,124.58,30.11,127.86,30.11,128.79Zm-3.71,0c0,3.21.59,3.42,1.43,3.42s1.42-.38,1.42-3.42-.55-3.44-1.42-3.44C26.28,125.35,26.4,127.15,26.4,128.79Z"/><path class="cls-2" d="M36.69,126a2,2,0,0,0-1.32-.61c-1.48,0-1.58,1.89-1.61,3a2.38,2.38,0,0,1,1.63-.66c1.54,0,2.11,1.27,2.11,2.62A2.39,2.39,0,0,1,35.14,133c-2.11,0-2.24-2.55-2.24-4.11s.21-4.29,2.44-4.29a2.64,2.64,0,0,1,1.81.71Zm-1.49,6.25c1,0,1.44-.89,1.44-1.88s-.28-1.89-1.37-1.89a2.31,2.31,0,0,0-1.51.8C33.77,131.8,34.45,132.21,35.2,132.21Z"/><path class="cls-2" d="M40.46,133.2l3.63-9.49h.56L41,133.2Z"/><path class="cls-2" d="M49.66,125.68l-1.5.58-.25-.75,2.57-1v7.6h1.76v.74H47.6v-.74h2.06Z"/><path class="cls-2" d="M55.28,124.69h4.2v.73H56.1v2.52a3.47,3.47,0,0,1,1.22-.26,2.11,2.11,0,0,1,2.22,2.17,3,3,0,0,1-1.45,2.52A5.51,5.51,0,0,1,55,133v-.77a5.51,5.51,0,0,0,2.4-.36,2.31,2.31,0,0,0,1.26-2,1.34,1.34,0,0,0-1.45-1.4,2.87,2.87,0,0,0-1.36.43h-.59Z"/></svg>