<svg id="Capa_1" data-name="Capa 1" xmlns="http://www.w3.org/2000/svg" viewBox="0 0 1500 700"><defs><style>.cls-1{fill:#0a2240;}.cls-2{fill:#fff;}</style></defs><rect class="cls-1" width="1500" height="700"/><path class="cls-2" d="M133.31,287.18c-8.46-20.84-13.54-38.92-33.87-41.73l-11.28-1.69c-3.37-4.54-2.79-12.4,1.7-14.08,14.12,1.09,33.85,1.68,53,1.68,15.21,0,26.52-.59,45.67-1.68,4,2.25,4.51,11.29.52,14.08l-6.75,1.14c-17.47,2.79-18,5.61-12.39,22.54,13,38.92,29.35,78.4,42.28,107.72,5.08,11.3,7.34,16.39,9,18,2.28-1.64,6.23-9.57,10.75-21.43,7.31-19.15,26.52-68.22,32.11-82.91,7.91-19.7,10.17-31.57,10.17-35,0-5.07-3.37-7.32-10.17-8.44l-12.92-1.69c-3.37-4-2.85-11.83,1.09-14.08,17.53,1.09,31.61,1.68,42.28,1.68,14.13,0,23.69-.59,39.51-1.68,3.89,2.25,4.51,10.68,1.13,14.08l-8.45,1.14c-19.78,2.79-24.81,17.47-41.2,49.08-7.87,15.2-42.85,97-51.85,120.11-5.69,14.12-11.31,27-18.65,46.23-1.09,1.66-3.35,2.27-5.62,2.27-2.81,0-5.66-.61-7.29-2.27-4.58-15.76-13-37.78-21.47-58.63Z"/><path class="cls-2" d="M369.67,309.18c-14.63,0-15.19,1.09-15.19,15.21,0,57,33.25,105.48,93.6,105.48,18.59,0,34.4-5.63,51.89-27.62,5.64-1.71,9.56,1.67,10.16,6.77-18.62,38.32-59.22,52.41-88.57,52.41-36.64,0-65.38-15.76-81.75-37.19-16.95-22-23.69-48.51-23.69-73.33,0-69.35,45.68-127.46,113.34-127.46,48.5,0,80.07,33.3,80.07,67.15,0,7.87-1.11,12.36-2.25,14.63-1.67,3.37-9.55,3.95-33.25,3.95Zm35-16.93c41.73,0,54.17-2.26,58.68-5.63,1.67-1.12,3.34-3.36,3.34-10.71,0-15.81-10.66-35.55-43.38-35.55-33.28,0-62.06,30.46-62.64,49.08,0,1.16,0,2.81,4,2.81Z"/><path class="cls-2" d="M558.15,291.7c0-22,0-24.8-15.21-34.95l-5.08-3.41c-2.28-2.26-2.28-8.44.58-10.14,13-4.52,42.83-19.2,56.91-27.64,2.81.57,4.56,1.7,4.56,3.95v32.74c0,2.75.53,4.5,1.67,5,19.74-16.31,41.15-33.83,62.06-33.83,14.06,0,25.32,9,25.32,22.55,0,18.6-15.2,26-24.2,26-5.69,0-8.44-1.69-12.43-4-8.42-5.63-16.9-9-24.8-9-9,0-15.8,5.06-20.32,11.28-5.63,7.89-7.3,24.21-7.3,43.43v76.71c0,40.58,1.09,47.34,22.56,49.06l20.26,1.65c4,2.87,2.85,12.44-1.09,14.11-26.52-1.12-42.82-1.67-62.58-1.67-20.3,0-37.26.55-51.94,1.67C523.21,453.56,522,444,526,441.12l10.79-1.65c20.84-3.38,21.38-8.48,21.38-49.06Z"/><path class="cls-2" d="M732.6,291.7c0-22,0-24.83-15.21-34.95l-5.09-3.41c-2.28-2.26-2.28-8.44.57-10.14,13-4.52,45.09-19.2,58.1-27.64,2.81,0,5,1.11,5.59,3.37-1.1,19.75-2.26,46.81-2.26,69.92V390.41c0,40.58,1.16,46.22,21.47,49.06l11.8,1.65c4,2.87,2.85,12.44-1.06,14.11-17-1.12-33.3-1.67-53.06-1.67-20.28,0-37.21.55-53,1.67-3.91-1.67-5-11.24-1.1-14.11l11.84-1.65C732,436.63,732.6,431,732.6,390.41Zm46.26-127c0,19.74-14.1,28.78-29.36,28.78-17.48,0-28.75-12.43-28.75-27.66,0-18.6,14.11-29.9,30.46-29.9,16.93,0,27.65,13,27.65,28.78"/><path class="cls-2" d="M962.78,233.61a131.46,131.46,0,0,1,9,45.67c-2.27,4-10.72,5.12-13.58,1.72-9.55-24.84-26.46-41.2-49.57-41.2-22,0-36.1,14.09-36.1,34.42,0,23.09,23.67,35.55,43.43,46.8,29.84,16.9,57.46,36.07,57.46,76.16,0,42.84-39.42,64.25-81.16,64.25-26.52,0-46.21-5.62-60.36-16.87-4.53-10.75-7.87-38.37-6.76-57,2.82-3.37,10.15-3.94,13-.57,9.55,31,27.6,58.09,59.72,58.09,20.38,0,37.81-11.79,37.81-36.06,0-26-22.56-40-43.41-51.93-32.71-18.59-55.84-38.35-55.84-69.36,0-41.16,33.86-64.28,76.69-64.28,23.66,0,44.57,5.65,49.65,10.16"/><path class="cls-2" d="M1384,178.67h-106.9V349.09a49,49,0,1,1-98,0V178.67h-106.9c-27.68,0-38.06,19-23.09,42.32L1200.9,457c15,23.31,39.48,23.31,54.47,0l151.78-236c15-23.29,4.58-42.32-23.11-42.32"/><path class="cls-2" d="M1228.15,165.13a48.87,48.87,0,0,0,49-49c0-26.57-21.83-49-49-49a49,49,0,1,0,0,98"/><path class="cls-2" d="M333.23,606.38c-.72,3.87-4.73,20.35-6,24.36H252.83v-5.16c13-1.29,13.9-2,13.9-14V556.8c0-12.19-1.72-13-11.46-13.91v-5.3h46.57c15.05,0,20.07-.14,22.07-.29.15,2.58.86,14.33,1.44,23.22l-5.59.72c-1.29-4.87-3.73-10.75-6.17-13.33-2.58-2.87-4.44-3.73-11.75-3.73h-9.31c-5.45,0-6,.29-6,5.16v30h14c8,0,9.46-2.16,11.61-12.33h5.59v31.95h-5.59c-2.29-10.6-3.44-12.32-11.75-12.32h-13.9v24.65c0,9.89.29,12.9,9.17,13h10.18c8,0,10.17-1,13.32-4.87a64.16,64.16,0,0,0,8.75-14.33Z"/><path class="cls-2" d="M419.78,630.74v-5.3c10.89-1.15,11.61-2.15,11.61-15.05l-.15-55.89c-10.31,24.65-21.64,51.88-31.95,76.24h-4.73c-9.32-23.36-19.49-50-29.81-75.1-1.86,45-1.86,53.89-1.86,59.05.14,7.74,3,9.74,13.75,10.75v5.3H341.1v-5.3c8.17-.72,11.9-2.29,13-10.9.58-4.29,1.15-12.46,4.45-59.75.43-6.88-.58-10.75-12.9-11.9v-5.3h30.95l27.66,63.2,27.8-63.2h30.24v5.3c-11.46,1.15-12.75,2.3-12.46,13.76L451,610.39c.14,12.9.72,13.47,12.33,15.05v5.3Z"/><path class="cls-2" d="M514.64,537.59c11.32,0,20.35,1.58,26.23,5.73,6.73,4.73,10.74,11.75,10.74,21.64,0,20.78-17.62,29.52-33,29.66a36.6,36.6,0,0,1-4.3-.28L506,592.19v19.49c0,12,1,12.61,13.47,13.76v5.3H473.94v-5.3c10.75-1.29,12.18-1.72,12.18-13.76V556.94c0-12-1.43-13.33-12.18-14.05v-5.3ZM506,586.17a18.38,18.38,0,0,0,7.6,1.44c6.59,0,17.34-3.87,17.34-22.79,0-16.05-8.74-21.36-18.06-21.36-3,0-4.73.72-5.59,1.44s-1.29,2.29-1.29,4.44Z"/><path class="cls-2" d="M653.21,631.6c-.85,0-2.57,0-4.29-.14-18.2-.86-23.51-4.73-27.81-10.75-5.73-7.88-9.88-16.62-14.76-25.22-2.15-3.87-4.15-4.73-8.74-4.73l-2.87-.15v20.93c0,11.61,1.44,12.61,12.19,13.9v5.3H563.07v-5.3c10.9-1.15,12.18-2.29,12.18-13.9V556.65c0-11.32-1.43-12.9-12.18-13.76v-5.3h41.56c12.76,0,20.07,1.43,25.94,5.45,5.74,3.86,9.6,10.17,9.6,19.06,0,12.75-8.45,19.49-17.91,23.21,2.15,4.3,7.74,13.61,12,20.21a115.37,115.37,0,0,0,10.89,14.9c3.3,3.73,4.87,4.87,9,6.31Zm-54.6-46.86c6.17,0,10.9-1,14-3.73,4.73-4,6.73-9.45,6.73-16.76,0-15.19-8.74-20.64-16.76-20.64-3.87,0-5.74.57-6.59,1.43-1,.86-1.3,2.58-1.3,5.45v34.25Z"/><path class="cls-2" d="M737.9,606.38c-.71,3.87-4.72,20.35-6,24.36H657.51v-5.16c13-1.29,13.9-2,13.9-14V556.8c0-12.19-1.72-13-11.47-13.91v-5.3h46.58c15.05,0,20.06-.14,22.07-.29.14,2.58.86,14.33,1.43,23.22l-5.59.72c-1.29-4.87-3.72-10.75-6.16-13.33-2.58-2.87-4.44-3.73-11.75-3.73H697.2c-5.44,0-6,.29-6,5.16v30h14c8,0,9.46-2.16,11.61-12.33h5.59v31.95h-5.59c-2.29-10.6-3.44-12.32-11.75-12.32h-13.9v24.65c0,9.89.28,12.9,9.17,13h10.17c8,0,10.18-1,13.33-4.87a64.12,64.12,0,0,0,8.74-14.33Z"/><path class="cls-2" d="M802.82,561.24c-2.87-9.17-6.88-19.64-20.07-19.64-8.31,0-13.75,5.88-13.75,13.9s5.3,12.62,17.91,18.92C802.24,582,812,589.47,812,603.66c0,16.91-14,29.23-34.54,29.23-9.17,0-17.34-2.43-24.07-4.44-.86-3.3-3.3-18.2-4.3-24.94l5.59-1.29c2.86,9,10.89,24.65,24.93,24.65,8.74,0,14-5.45,14-14.62,0-8.31-5.16-13.18-17.2-19.63-14.9-8-24.65-15.19-24.65-30.1,0-15.62,11.75-26.94,33.25-26.94,9.89,0,17.34,2.15,20.49,2.58.57,5.3,1.58,12.76,2.72,21.79Z"/><path class="cls-2" d="M874,630.74v-5.3c9-1.29,9-2.87,7-9-1.44-4.3-3.73-10.75-5.88-16.48H847.24c-1.58,4.44-3.59,9.89-5,14.33-3,9,.43,10.17,11.75,11.18v5.3h-35.4v-5.3c9-1.15,11.33-2.44,16.2-14.47l29.81-74.09,6.88-1.3c9.17,24.94,18.91,50.45,28.23,74.38,5.3,13.33,6.59,14.33,15.91,15.48v5.3Zm-12.61-68.5c-4.15,10.32-8.16,19.92-11.75,30.38h22.79Z"/><path class="cls-2" d="M1011.61,631.6c-.86,0-2.58,0-4.3-.14-18.2-.86-23.5-4.73-27.8-10.75-5.74-7.88-9.89-16.62-14.76-25.22-2.15-3.87-4.16-4.73-8.75-4.73l-2.86-.15v20.93c0,11.61,1.43,12.61,12.18,13.9v5.3H921.47v-5.3c10.89-1.15,12.18-2.29,12.18-13.9V556.65c0-11.32-1.43-12.9-12.18-13.76v-5.3H963c12.75,0,20.06,1.43,25.94,5.45,5.73,3.86,9.6,10.17,9.6,19.06,0,12.75-8.46,19.49-17.92,23.21,2.15,4.3,7.74,13.61,12,20.21a116.35,116.35,0,0,0,10.89,14.9c3.3,3.73,4.88,4.87,9,6.31ZM957,584.74c6.16,0,10.89-1,14-3.73,4.73-4,6.74-9.45,6.74-16.76,0-15.19-8.74-20.64-16.77-20.64-3.87,0-5.73.57-6.59,1.43s-1.29,2.58-1.29,5.45v34.25Z"/><path class="cls-2" d="M1017.62,630.74v-5.3c10.89-1,12.18-1.86,12.18-13.9v-54.6c0-12-1.43-13.19-12.18-14.05v-5.3h44.28v5.3c-10.74,1-12.18,2-12.18,14.05v54.6c0,11.89,1.29,12.75,12.18,13.9v5.3Z"/><path class="cls-2" d="M1127.53,630.74v-5.3c9-1.29,9-2.87,7-9-1.44-4.3-3.73-10.75-5.88-16.48h-28c-1.57,4.44-3.58,9.89-5,14.33-3,9,.43,10.17,11.75,11.18v5.3h-35.4v-5.3c9-1.15,11.33-2.44,16.2-14.47l29.81-74.09,6.87-1.3c9.18,24.94,18.92,50.45,28.23,74.38,5.31,13.33,6.6,14.33,15.91,15.48v5.3Zm-12.61-68.5c-4.15,10.32-8.17,19.92-11.75,30.38H1126Z"/><path class="cls-2" d="M1250.91,605.52c-1.14,6.16-5.15,21.35-6.44,25.22h-71.08v-5.3c12.61-.86,13.75-1.86,13.75-13.9v-54.6c0-12-1.43-13.19-12.18-14.05v-5.3h44.71v5.3c-11.17,1-12.61,2-12.61,14.05v55.6c0,7.88.29,11.47,8.17,11.61.29.14,6.88.14,7.45.14,8.17,0,10.32-1.72,13.76-5.58,2.72-2.87,6.45-9,9-14.91Z"/></svg>