<svg width="140" height="134" viewBox="0 0 140 134" fill="none" xmlns="http://www.w3.org/2000/svg">
<g clip-path="url(#clip0_489_74117)">
<path fill-rule="evenodd" clip-rule="evenodd" d="M92.6393 91.2281C92.6393 88.7657 92.6393 88.45 90.9438 87.282L90.3787 86.9031C90.1275 86.6506 90.1275 85.9561 90.4415 85.7667C91.8858 85.2616 95.4964 83.62 96.9407 82.6729C97.2547 82.6729 97.5059 82.7992 97.5687 83.0517C97.4431 85.2615 97.3175 88.3237 97.3175 90.9124V102.34C97.3175 106.918 97.4431 107.549 99.7037 107.865L101.022 108.054C101.462 108.37 101.336 109.443 100.897 109.633C99.0129 109.506 97.1605 109.443 94.9627 109.443C92.7021 109.443 90.7869 109.506 89.0286 109.633C88.5891 109.443 88.4635 108.37 88.903 108.054L90.2217 107.865C92.5451 107.549 92.6079 106.918 92.6079 102.34V91.2281H92.6393ZM97.8198 76.9274C97.8198 79.1372 96.25 80.179 94.5231 80.179C92.5765 80.179 91.3206 78.7899 91.3206 77.0536C91.3206 74.9701 92.8905 73.6758 94.7429 73.6758C96.6267 73.7073 97.8198 75.1595 97.8198 76.9274ZM71.4149 87.2818C73.1103 88.4499 73.1103 88.7656 73.1103 91.228V102.309C73.1103 106.886 73.0475 107.454 70.7241 107.833L69.531 108.023C69.0915 108.338 69.2171 109.412 69.6566 109.601C71.2893 109.475 73.2045 109.412 75.4651 109.412C77.6629 109.412 79.5154 109.475 82.4667 109.601C82.9063 109.412 83.0319 108.338 82.5923 108.023L80.3317 107.833C77.9455 107.644 77.8199 106.886 77.8199 102.309V93.6903C77.8199 91.5121 78.0083 89.6811 78.6363 88.7972C79.1386 88.1026 79.8921 87.5344 80.8969 87.5344C81.776 87.5344 82.7179 87.9132 83.6598 88.5446L83.6912 88.5626C84.1146 88.8061 84.4284 88.9866 85.0413 88.9866C86.046 88.9866 87.7415 88.1658 87.7415 86.0822C87.7415 84.5669 86.4856 83.5567 84.9157 83.5567C82.5923 83.5567 80.1747 85.5456 77.9769 87.3766C77.8513 87.3134 77.7885 87.124 77.7885 86.8083V83.1147C77.7885 82.8622 77.6001 82.7359 77.2862 82.6728C75.7163 83.6199 72.3568 85.2614 70.9125 85.7665C70.5985 85.9559 70.5985 86.6505 70.8497 86.903L71.4149 87.2818ZM52.0428 93.1851C50.4101 93.1851 50.3473 93.3113 50.3473 94.8898C50.3473 101.298 54.0522 106.76 60.834 106.76C62.9062 106.76 64.6958 106.128 66.6425 103.666C67.2704 103.477 67.71 103.855 67.7728 104.424C65.7006 108.749 61.148 110.327 57.8512 110.327C53.7382 110.327 50.5357 108.559 48.7146 106.128C46.8308 103.666 46.0773 100.667 46.0773 97.8888C46.0773 90.0913 51.195 83.5566 58.7618 83.5566C64.1935 83.5566 67.71 87.3133 67.71 91.1015C67.71 91.9854 67.5844 92.4906 67.4588 92.7431C67.2704 93.1219 66.3913 93.1851 63.7539 93.1851H52.0428ZM55.9674 91.2909C60.6456 91.2909 62.0271 91.0384 62.5294 90.6596C62.7178 90.5333 62.9062 90.2807 62.9062 89.4599C62.9062 87.6921 61.7131 85.4507 58.0396 85.4507C54.3034 85.4507 51.1008 88.8917 51.038 90.9752C51.038 91.1015 51.038 91.2909 51.4776 91.2909H55.9674ZM25.6062 90.7232C25.5127 90.4912 25.4229 90.262 25.3347 90.0371C24.5351 87.9967 23.8716 86.3038 21.8072 86.0194L20.5513 85.83C20.1745 85.3249 20.2373 84.441 20.7397 84.2516C22.3095 84.3778 24.5387 84.441 26.6738 84.441C28.3692 84.441 29.6251 84.3778 31.7915 84.2516C32.2311 84.5041 32.2939 85.5143 31.8543 85.83L31.1008 85.9563C29.1541 86.272 29.0913 86.5877 29.7193 88.4818C31.1636 92.8699 33.016 97.2895 34.4603 100.604L34.5086 100.712L34.5087 100.712L34.5087 100.712L34.5087 100.712C35.0399 101.9 35.2821 102.441 35.465 102.625C35.7162 102.435 36.1557 101.551 36.6581 100.225C37.1542 98.9209 38.1372 96.3689 38.9731 94.199C39.5127 92.7982 39.991 91.5566 40.2374 90.9126C41.1165 88.7028 41.3677 87.3769 41.3677 86.9665C41.3677 86.3983 40.9909 86.1457 40.2374 86.0194L38.7931 85.83C38.4163 85.388 38.4791 84.5041 38.9187 84.2516C40.8653 84.3778 42.4666 84.441 43.6597 84.441C45.2295 84.441 46.297 84.3778 48.0867 84.2516C48.5262 84.5041 48.589 85.4512 48.2123 85.83L47.2703 85.9563C45.3304 86.2349 44.6625 87.5466 43.2585 90.3039L43.2584 90.304C43.0719 90.6704 42.8723 91.0624 42.655 91.4808C41.7758 93.1856 37.8512 102.404 36.8465 104.992C36.6438 105.502 36.4411 105.998 36.232 106.51L36.2318 106.511C35.7933 107.584 35.327 108.726 34.7742 110.201C34.6487 110.391 34.3975 110.454 34.1463 110.454C33.8323 110.454 33.5184 110.391 33.33 110.201C32.8276 108.433 31.8857 105.939 30.9438 103.603L25.6062 90.7232ZM119.39 89.839C119.39 88.1027 118.95 86.0823 118.385 84.6933C117.82 84.1882 115.497 83.5568 112.828 83.5883C108.055 83.5883 104.256 86.177 104.256 90.8176C104.256 94.2902 106.831 96.5316 110.504 98.6151C112.859 99.941 115.371 101.551 115.371 104.455C115.371 107.17 113.424 108.496 111.132 108.496C107.522 108.496 105.512 105.466 104.445 101.961C104.131 101.583 103.314 101.646 103 102.025C102.875 104.108 103.252 107.233 103.754 108.433C105.324 109.696 107.553 110.327 110.504 110.327C115.183 110.327 119.578 107.928 119.578 103.098C119.578 98.6151 116.47 96.4369 113.142 94.5427C113.082 94.509 113.022 94.4751 112.962 94.4412C110.774 93.2032 108.275 91.7902 108.275 89.2707C108.275 86.9662 109.876 85.3878 112.325 85.3878C114.931 85.3878 116.815 87.2188 117.883 90.0284C118.197 90.4072 119.139 90.2809 119.39 89.839Z" fill="#0A2240"/>
<path d="M93.8949 21.6816H77.4741V48.0101C77.4741 52.2087 74.1146 55.5866 69.9387 55.5866C65.7629 55.5866 62.4034 52.2087 62.4034 48.0101V21.6816H45.9826C41.744 21.6816 40.1427 24.6175 42.4347 28.2164L65.7315 64.6469C68.0235 68.2457 71.7912 68.2457 74.0832 64.6469L97.38 28.2164C99.7347 24.6175 98.1335 21.6816 93.8949 21.6816Z" fill="#0071CE"/>
<path d="M69.9387 19.5671C74.1145 19.5671 77.474 16.1892 77.474 11.9906C77.474 7.88664 74.1145 4.41406 69.9387 4.41406C65.7628 4.41406 62.4033 7.88664 62.4033 11.9906C62.4033 16.2208 65.7628 19.5671 69.9387 19.5671Z" fill="#0A2240"/>
<path fill-rule="evenodd" clip-rule="evenodd" d="M111.415 127.944L114.021 122.072C114.146 121.756 114.429 121.567 114.774 121.567H114.837C115.182 121.567 115.433 121.756 115.559 122.072L118.165 127.944C118.228 128.038 118.228 128.133 118.228 128.196C118.228 128.543 117.977 128.796 117.631 128.796C117.349 128.796 117.129 128.638 117.035 128.354L116.47 127.028H113.079L112.482 128.385C112.388 128.638 112.168 128.796 111.917 128.796C111.603 128.796 111.352 128.543 111.352 128.228C111.32 128.133 111.352 128.038 111.415 127.944ZM116.03 125.955L114.806 123.082L113.581 125.955H116.03ZM114.46 120.809C114.46 120.746 114.492 120.651 114.554 120.588L115.12 119.704C115.245 119.515 115.402 119.42 115.59 119.42C115.904 119.42 116.313 119.609 116.313 119.83C116.313 119.957 116.25 120.051 116.156 120.146L115.496 120.809C115.245 121.03 115.057 121.093 114.774 121.093C114.586 121.03 114.46 120.967 114.46 120.809ZM8.08642 121.535C5.9514 121.535 4.44434 123.208 4.44434 125.228C4.44434 127.28 5.9828 128.89 8.05502 128.89C9.18532 128.89 9.93885 128.543 10.5982 127.943C10.6924 127.849 10.7866 127.691 10.7866 127.501C10.7866 127.186 10.504 126.933 10.19 126.933C10.033 126.933 9.90746 126.965 9.81327 127.059C9.31091 127.47 8.80855 127.722 8.05502 127.722C6.70494 127.722 5.73162 126.586 5.73162 125.197V125.165C5.73162 123.776 6.70494 122.671 8.05502 122.671C8.74576 122.671 9.27951 122.892 9.75047 123.303C9.84466 123.366 9.97025 123.429 10.1272 123.429C10.4726 123.429 10.7552 123.176 10.7552 122.829C10.7552 122.608 10.6296 122.419 10.504 122.324C9.87606 121.851 9.18532 121.535 8.08642 121.535ZM12.2623 122.261V125.766C12.2623 127.818 13.4554 128.859 15.3078 128.922C17.1288 128.922 18.3219 127.849 18.3219 125.734V122.293C18.3219 121.946 18.0394 121.662 17.694 121.662C17.3486 121.662 17.0661 121.946 17.0661 122.293V125.797C17.0661 127.091 16.4067 127.754 15.3078 127.754C14.1775 127.754 13.5182 127.06 13.5182 125.734V122.261C13.5182 121.914 13.2356 121.63 12.8902 121.63C12.5449 121.63 12.2623 121.914 12.2623 122.261ZM20.2686 122.229C20.2686 121.882 20.5512 121.598 20.8966 121.598C21.2419 121.598 21.5245 121.882 21.5245 122.229V128.196C21.5245 128.543 21.2419 128.827 20.8966 128.827C20.5512 128.827 20.2686 128.543 20.2686 128.196V122.229ZM24.2247 121.662C23.8793 121.662 23.5967 121.946 23.5967 122.293V128.133C23.5967 128.48 23.8793 128.765 24.2247 128.765H26.2341C28.4319 128.765 29.9704 127.218 29.9704 125.229V125.197C29.9704 123.177 28.4633 121.662 26.2341 121.662H24.2247ZM28.6831 125.229C28.6831 126.618 27.7098 127.628 26.2341 127.628H24.8526V122.798H26.2341C27.7098 122.798 28.6831 123.808 28.6831 125.197V125.229ZM30.9123 127.943L33.5182 122.072C33.6438 121.756 33.9264 121.566 34.2718 121.566H34.3346C34.6799 121.566 34.9311 121.756 35.0567 122.072L37.6627 127.943C37.7255 128.038 37.7255 128.133 37.7255 128.196C37.7255 128.543 37.4743 128.796 37.1289 128.796C36.8463 128.796 36.6266 128.638 36.5324 128.354L35.9672 127.028H32.5763L31.9798 128.385C31.8856 128.638 31.6658 128.796 31.4146 128.796C31.1006 128.796 30.8495 128.543 30.8495 128.227C30.8181 128.133 30.8495 128.038 30.9123 127.943ZM35.5277 125.954L34.3032 123.082L33.0787 125.954H35.5277ZM39.9231 121.662C39.5778 121.662 39.2952 121.946 39.2952 122.293H39.2638V128.133C39.2638 128.48 39.5464 128.765 39.8917 128.765C40.2371 128.765 40.5197 128.48 40.5197 128.133V126.239H42.0895L43.8164 128.449C43.942 128.638 44.1303 128.765 44.4129 128.765C44.7269 128.765 45.0095 128.544 45.0095 128.196C45.0095 128.007 44.9467 127.881 44.8211 127.723L43.471 126.018C44.4129 125.734 45.0723 125.039 45.0723 123.903V123.871C45.0723 123.272 44.8525 122.735 44.4757 122.356C44.0048 121.914 43.314 121.662 42.4349 121.662H39.9231ZM43.785 123.998C43.785 124.724 43.2198 125.197 42.3407 125.197V125.166H40.5511V122.798H42.3407C43.2512 122.798 43.785 123.208 43.785 123.966V123.998ZM48.4319 122.829H46.7364C46.4224 122.829 46.1713 122.577 46.1713 122.261C46.1713 121.945 46.4224 121.693 46.7364 121.693H51.4146C51.7286 121.693 51.9798 121.945 51.9798 122.261C51.9798 122.577 51.7286 122.829 51.4146 122.829H49.6878V128.196C49.6878 128.543 49.4052 128.827 49.0598 128.827C48.7144 128.827 48.4319 128.543 48.4319 128.196V122.829ZM53.4554 122.293V128.133C53.4554 128.48 53.7379 128.765 54.0833 128.765H58.2277C58.5417 128.765 58.7929 128.512 58.7929 128.196C58.7929 127.881 58.5417 127.628 58.2277 127.628H54.6798V125.734H57.7254C58.0393 125.734 58.2905 125.513 58.2905 125.197C58.2905 124.882 58.0393 124.629 57.7254 124.629H54.6798V122.798H58.1649C58.4789 122.798 58.7301 122.546 58.7301 122.23C58.7301 121.914 58.4789 121.662 58.1649 121.662H54.0833C53.7379 121.662 53.4554 121.946 53.4554 122.293ZM63.6283 128.133V122.293C63.6283 121.946 63.9108 121.662 64.2562 121.662H68.3378C68.6518 121.662 68.903 121.914 68.903 122.23C68.903 122.546 68.6518 122.798 68.3378 122.798H64.8527V124.629H67.8983C68.2122 124.629 68.4634 124.882 68.4634 125.197C68.4634 125.513 68.2122 125.734 67.8983 125.734H64.8527V127.628H68.4006C68.7146 127.628 68.9658 127.881 68.9658 128.196C68.9658 128.512 68.7146 128.765 68.4006 128.765H64.2562C63.9108 128.765 63.6283 128.48 63.6283 128.133ZM70.1588 127.501C70.1588 127.691 70.2844 127.88 70.41 127.975C71.1949 128.543 72.074 128.859 73.0787 128.922C74.5544 128.922 75.5905 128.133 75.5905 126.807V126.775C75.5905 125.607 74.8056 125.071 73.3299 124.692C71.9484 124.376 71.6345 124.123 71.6345 123.587V123.555C71.6345 123.082 72.074 122.703 72.7961 122.703C73.3613 122.703 73.8951 122.892 74.4288 123.24C74.523 123.303 74.6172 123.334 74.7428 123.334C75.0881 123.334 75.3393 123.082 75.3393 122.766C75.3393 122.513 75.1823 122.356 75.0567 122.261C74.4288 121.819 73.7067 121.598 72.8275 121.598C71.4147 121.598 70.41 122.45 70.41 123.65V123.682C70.41 124.976 71.2577 125.418 72.7648 125.797C74.0834 126.081 74.366 126.365 74.366 126.87V126.902C74.366 127.407 73.8951 127.785 73.1101 127.785C72.3252 127.785 71.7286 127.533 71.1321 127.059C71.0379 126.996 70.9123 126.933 70.7553 126.933C70.41 126.933 70.1588 127.186 70.1588 127.501ZM82.1525 122.829H80.4571C80.1431 122.829 79.8919 122.577 79.8919 122.261C79.8919 121.945 80.1431 121.693 80.4571 121.693H85.1353C85.4492 121.693 85.7004 121.945 85.7004 122.261C85.7004 122.577 85.4492 122.829 85.1353 122.829H83.4084V128.196C83.4084 128.543 83.1259 128.827 82.7805 128.827C82.4351 128.827 82.1525 128.543 82.1525 128.196V122.829ZM88.5577 122.072L85.9517 127.943L85.8575 128.227C85.8575 128.543 86.1087 128.796 86.4227 128.796C86.6738 128.796 86.8936 128.638 86.9878 128.385L87.5844 127.028H91.0067L91.5718 128.354C91.666 128.638 91.8858 128.796 92.1684 128.796C92.5137 128.796 92.7649 128.543 92.7649 128.196C92.7649 128.133 92.7649 128.038 92.7021 127.943L90.0961 122.072C89.9705 121.756 89.7194 121.566 89.374 121.566H89.3112C88.9658 121.566 88.6833 121.756 88.5577 122.072ZM89.3426 123.082L90.5671 125.954H88.1181L89.3426 123.082ZM94.3346 122.261C94.3346 121.914 94.6172 121.63 94.9626 121.63H95.0882C95.4021 121.63 95.5591 121.788 95.7475 122.009L99.264 126.586V122.23C99.264 121.883 99.5466 121.63 99.8605 121.63C100.206 121.63 100.488 121.914 100.488 122.23V128.196C100.488 128.544 100.237 128.828 99.8919 128.828H99.8291C99.5466 128.828 99.3582 128.67 99.1698 128.449L95.5591 123.745V128.196C95.5591 128.544 95.2765 128.796 94.9626 128.796C94.6172 128.796 94.3346 128.512 94.3346 128.196V122.261ZM106.328 121.662C105.983 121.662 105.7 121.946 105.7 122.293V128.165C105.7 128.512 105.983 128.796 106.328 128.796C106.674 128.796 106.956 128.512 106.956 128.165V125.86H110.002C110.316 125.86 110.567 125.608 110.567 125.292C110.567 124.976 110.316 124.724 110.002 124.724H106.956V122.798H110.441C110.755 122.798 111.006 122.546 111.006 122.23C111.006 121.914 110.755 121.662 110.441 121.662H106.328ZM122.812 121.535C120.677 121.535 119.17 123.208 119.17 125.228C119.17 127.28 120.708 128.89 122.781 128.89C123.911 128.89 124.664 128.543 125.324 127.943C125.418 127.849 125.512 127.691 125.512 127.501C125.512 127.186 125.23 126.933 124.916 126.933C124.759 126.933 124.633 126.965 124.539 127.059C124.036 127.47 123.534 127.722 122.781 127.722C121.43 127.722 120.457 126.586 120.457 125.197V125.165C120.457 123.776 121.43 122.671 122.781 122.671C123.471 122.671 124.005 122.892 124.476 123.303C124.57 123.366 124.696 123.429 124.853 123.429C125.198 123.429 125.481 123.176 125.481 122.829C125.481 122.608 125.355 122.419 125.23 122.324C124.602 121.851 123.911 121.535 122.812 121.535ZM127.176 122.229C127.176 121.882 127.459 121.598 127.804 121.598C128.15 121.598 128.432 121.882 128.432 122.229V128.196C128.432 128.543 128.15 128.827 127.804 128.827C127.459 128.827 127.176 128.543 127.176 128.196V122.229ZM131.132 121.598C130.787 121.598 130.504 121.882 130.504 122.229H130.536V128.133C130.536 128.48 130.818 128.764 131.164 128.764H134.963C135.277 128.764 135.528 128.512 135.528 128.196C135.528 127.88 135.277 127.628 134.963 127.628H131.76V122.229C131.76 121.882 131.478 121.598 131.132 121.598Z" fill="#0A2240"/>
</g>
<defs>
<clipPath id="clip0_489_74117">
<rect width="131.052" height="124.444" fill="white" transform="translate(4.44434 4.44531)"/>
</clipPath>
</defs>
</svg>