<svg width="16" height="16" viewBox="0 0 16 16" fill="none" xmlns="http://www.w3.org/2000/svg">
<path d="M9.875 1.5C10.4844 1.5 11 2.01562 11 2.625V3.21094C10.1328 2.60156 9.10156 2.25 8 2.25C6.875 2.25 5.84375 2.60156 5 3.21094V2.625C5 2.01562 5.49219 1.5 6.125 1.5H9.875ZM5 12.375V11.8125C5.84375 12.4219 6.875 12.75 8 12.75C9.10156 12.75 10.1328 12.4219 11 11.8125V12.375C11 13.0078 10.4844 13.5 9.875 13.5H6.125C5.49219 13.5 5 13.0078 5 12.375ZM12.5 7.5C12.5 9.98438 10.4844 12 8 12C5.49219 12 3.5 9.98438 3.5 7.5C3.5 5.01562 5.49219 3 8 3C10.4844 3 12.5 5.01562 12.5 7.5ZM7.4375 5.625V7.5C7.4375 7.6875 7.53125 7.875 7.67188 7.96875L8.79688 8.71875C9.05469 8.90625 9.40625 8.83594 9.57031 8.57812C9.75781 8.32031 9.6875 7.96875 9.42969 7.78125L8.5625 7.21875V5.625C8.5625 5.32031 8.30469 5.0625 7.97656 5.0625C7.67188 5.0625 7.41406 5.32031 7.41406 5.625H7.4375Z" fill="#13243F"/>
</svg>
