<svg width="21" height="22" viewBox="0 0 21 22" fill="none" xmlns="http://www.w3.org/2000/svg">
<path d="M18.22 5H11.66C11.3948 5 11.1404 5.10536 10.9529 5.2929C10.7654 5.48043 10.66 5.73479 10.66 6C10.66 6.26522 10.7654 6.51957 10.9529 6.70711C11.1404 6.89465 11.3948 7 11.66 7H18.22C18.4269 7 18.6253 7.08218 18.7715 7.22846C18.9178 7.37474 19 7.57313 19 7.78V8.56H15.22C14.9548 8.56 14.7004 8.66536 14.5129 8.8529C14.3254 9.04043 14.22 9.29479 14.22 9.56C14.22 9.82522 14.3254 10.0796 14.5129 10.2671C14.7004 10.4546 14.9548 10.56 15.22 10.56H17.59L16.89 11.25C16.7963 11.343 16.7219 11.4536 16.6711 11.5754C16.6203 11.6973 16.5942 11.828 16.5942 11.96C16.5942 12.092 16.6203 12.2227 16.6711 12.3446C16.7219 12.4664 16.7963 12.577 16.89 12.67C16.983 12.7637 17.0936 12.8381 17.2154 12.8889C17.3373 12.9397 17.468 12.9658 17.6 12.9658C17.732 12.9658 17.8627 12.9397 17.9846 12.8889C18.1064 12.8381 18.217 12.7637 18.31 12.67L20.19 10.79C20.4201 10.5608 20.6035 10.2891 20.73 9.99V9.89C20.8958 9.55687 20.9879 9.19192 21 8.82V7.82C21.004 7.45194 20.9351 7.08673 20.7972 6.74541C20.6594 6.4041 20.4554 6.09343 20.197 5.8313C19.9386 5.56917 19.6309 5.36077 19.2916 5.21809C18.9523 5.07542 18.5881 5.0013 18.22 5ZM2.71 1.29C2.61676 1.19676 2.50607 1.1228 2.38425 1.07234C2.26243 1.02188 2.13186 0.995911 2 0.995911C1.86814 0.995911 1.73758 1.02188 1.61575 1.07234C1.49393 1.1228 1.38324 1.19676 1.29 1.29C1.1017 1.47831 0.995911 1.7337 0.995911 2C0.995911 2.2663 1.1017 2.5217 1.29 2.71L4.14 5.55C3.78582 5.80376 3.49752 6.13861 3.29919 6.52656C3.10087 6.91451 2.99828 7.3443 3 7.78V8.78C3.00029 9.15963 3.08214 9.53476 3.24 9.88V9.94C3.36761 10.2415 3.5508 10.5163 3.78 10.75L9.19 16.15V20C9.18966 20.1699 9.23264 20.3372 9.31487 20.4859C9.39711 20.6346 9.51589 20.7599 9.66 20.85C9.81914 20.9486 10.0028 21.0006 10.19 21C10.3465 20.9991 10.5007 20.9614 10.64 20.89L14.2 19.11C14.3649 19.0269 14.5036 18.8998 14.6007 18.7427C14.6978 18.5856 14.7494 18.4047 14.75 18.22V16.22L19.26 20.74C19.353 20.8337 19.4636 20.9081 19.5854 20.9589C19.7073 21.0097 19.838 21.0358 19.97 21.0358C20.102 21.0358 20.2327 21.0097 20.3546 20.9589C20.4764 20.9081 20.587 20.8337 20.68 20.74C20.7737 20.647 20.8481 20.5364 20.8989 20.4146C20.9497 20.2927 20.9758 20.162 20.9758 20.03C20.9758 19.898 20.9497 19.7673 20.8989 19.6454C20.8481 19.5236 20.7737 19.413 20.68 19.32L2.71 1.29ZM5 7.78C4.99879 7.62305 5.04621 7.46957 5.13574 7.34065C5.22527 7.21173 5.35251 7.11369 5.5 7.06L5.59 7L7.15 8.56H5V7.78ZM13.07 15.07C12.9773 15.1634 12.904 15.2743 12.8542 15.3961C12.8045 15.5179 12.7792 15.6484 12.78 15.78V17.6L11.22 18.38V15.78C11.2208 15.6484 11.1955 15.5179 11.1458 15.3961C11.096 15.2743 11.0227 15.1634 10.93 15.07L6.41 10.56H9.15L13.37 14.78L13.07 15.07Z" fill="#FF9E19"/>
</svg>