<svg width="45" height="48" viewBox="0 0 45 48" fill="none" xmlns="http://www.w3.org/2000/svg">
<path d="M41.1031 11.9141H28.4718V32.1667C28.4718 35.3964 25.8875 37.9948 22.6753 37.9948C19.4632 37.9948 16.8789 35.3964 16.8789 32.1667V11.9141H4.24756C0.987078 11.9141 -0.244662 14.1725 1.51842 16.9408L19.439 44.9642C21.2021 47.7326 24.1003 47.7326 25.8634 44.9642L43.784 16.9408C45.5953 14.1725 44.3636 11.9141 41.1031 11.9141Z" fill="#0071CE"/>
<path d="M22.6753 11.914C25.8875 11.914 28.4717 9.31565 28.4717 6.08591C28.4717 2.92902 25.8875 0.257812 22.6753 0.257812C19.4631 0.257812 16.8789 2.92902 16.8789 6.08591C16.8789 9.33993 19.4631 11.914 22.6753 11.914Z" fill="#0A2240"/>
</svg>
