<svg width="343" height="199" viewBox="0 0 343 199" fill="none" xmlns="http://www.w3.org/2000/svg">
<path d="M0 8C0 3.58172 3.58172 0 8 0H335C339.418 0 343 3.58172 343 8V199H0V8Z" fill="#E9F7FF"/>
<g clip-path="url(#clip0_24_25139)">
<path d="M204.793 77.3906H181.214V115.172C181.214 121.197 176.39 126.044 170.394 126.044C164.398 126.044 159.574 121.197 159.574 115.172V77.3906H135.996C129.909 77.3906 127.61 81.6036 130.901 86.768L164.353 139.046C167.644 144.21 173.054 144.21 176.345 139.046L209.797 86.768C213.178 81.6036 210.879 77.3906 204.793 77.3906Z" fill="#66B4E9" fill-opacity="0.35"/>
<path d="M170.394 77.3911C176.39 77.3911 181.214 72.5438 181.214 66.5188C181.214 60.6296 176.39 55.6465 170.394 55.6465C164.398 55.6465 159.574 60.6296 159.574 66.5188C159.574 72.5891 164.398 77.3911 170.394 77.3911Z" fill="#66B4E9" fill-opacity="0.35"/>
</g>
<defs>
<clipPath id="clip0_24_25139">
<rect width="84" height="88.611" fill="white" transform="translate(129 55.6318)"/>
</clipPath>
</defs>
</svg>