<svg width="69" height="111" viewBox="0 0 69 111" fill="none" xmlns="http://www.w3.org/2000/svg">
<path d="M0.5 55.5C0.5 25.1243 25.1243 0.5 55.5 0.5H61C65.1421 0.5 68.5 3.85786 68.5 8V103C68.5 107.142 65.1421 110.5 61 110.5H55.5C25.1243 110.5 0.5 85.8757 0.5 55.5Z" fill="white"/>
<path d="M0.5 55.5C0.5 25.1243 25.1243 0.5 55.5 0.5H61C65.1421 0.5 68.5 3.85786 68.5 8V103C68.5 107.142 65.1421 110.5 61 110.5H55.5C25.1243 110.5 0.5 85.8757 0.5 55.5Z" stroke="#E7E9EC"/>
<g filter="url(#filter0_d_217_59500)">
<path d="M27.909 67.9863L25.7943 71.6587C25.6554 71.8882 25.6133 72.1635 25.6773 72.424C25.7413 72.6846 25.9062 72.909 26.1358 73.048C26.3653 73.1869 26.6406 73.229 26.9011 73.165C27.1617 73.101 27.3861 72.9361 27.5251 72.7066L29.6524 69.0122C29.8569 68.6597 29.6366 68.1468 29.1583 67.8699C28.68 67.5929 28.1136 67.6433 27.909 67.9863Z" fill="#455A64"/>
<path d="M44.7385 61.518L48.4109 63.6326C48.5238 63.7025 48.6494 63.7492 48.7805 63.7701C48.9117 63.7909 49.0456 63.7855 49.1746 63.754C49.3036 63.7226 49.425 63.6658 49.5318 63.5869C49.6387 63.5081 49.7287 63.4088 49.7968 63.2948C49.8648 63.1808 49.9095 63.0544 49.9283 62.923C49.947 62.7915 49.9394 62.6577 49.9059 62.5292C49.8724 62.4007 49.8136 62.2802 49.7331 62.1747C49.6526 62.0691 49.5518 61.9807 49.4367 61.9145L45.7424 59.8029C45.3899 59.5984 44.877 59.8187 44.6 60.297C44.3231 60.7753 44.3861 61.3134 44.7385 61.518Z" fill="#455A64"/>
<path d="M48.8073 44.9637H48.7884L39.8419 39.7997H39.8168C37.8531 38.6826 35.1468 38.8557 32.1605 40.5739C26.1595 44.0354 21.2944 52.4658 21.2944 59.3952C21.2944 62.8567 22.506 65.2766 24.4602 66.4158H24.4759L33.4224 71.5829H33.4444C35.408 72.7063 38.1175 72.5269 41.107 70.8119C47.1049 67.3504 51.9699 58.92 51.9699 51.9938C51.9699 48.5322 50.7615 46.1029 48.8073 44.9637Z" fill="#0071CE"/>
<path opacity="0.1" d="M33.2777 71.4779L24.4665 66.3989H24.4476C22.4934 65.2566 21.285 62.8272 21.285 59.3783C21.285 56.2881 22.2543 52.9021 23.856 49.793L32.8025 54.9569C31.1976 58.066 30.2315 61.452 30.2315 64.5422C30.2378 67.9094 31.3958 70.3073 33.2777 71.4779Z" fill="black"/>
<path opacity="0.4" d="M48.7889 62.6925C53.0322 55.343 53.0324 47.3993 48.7895 44.9496C44.5466 42.5 37.6672 46.4721 33.424 53.8215C29.1808 61.171 29.1805 69.1147 33.4234 71.5644C37.6664 74.014 44.5457 70.0419 48.7889 62.6925Z" fill="white"/>
<path d="M36.2512 70.0853C32.8148 70.0853 32.4435 66.2021 32.4435 64.5311C32.4435 58.4199 36.9151 50.685 42.1987 47.62C43.5456 46.8427 44.842 46.4336 45.9497 46.4336C49.3861 46.4336 49.7574 50.3168 49.7574 51.9878C49.7574 58.099 45.2858 65.8339 40.0022 68.8989C38.6522 69.6762 37.3557 70.0853 36.2512 70.0853Z" fill="#FAFAFA"/>
<path d="M38.6967 65.3398C38.6801 65.3428 38.663 65.3428 38.6464 65.3398C38.6071 65.3256 38.5749 65.2965 38.5567 65.2589C38.5385 65.2213 38.5357 65.1781 38.5488 65.1384L40.9562 58.2626C40.9699 58.2229 40.9989 58.1904 41.0366 58.1721C41.0744 58.1538 41.1179 58.1512 41.1576 58.165C41.1972 58.1788 41.2297 58.2077 41.248 58.2455C41.2663 58.2833 41.2689 58.3268 41.2551 58.3664L38.8541 65.2328C38.8436 65.2657 38.8224 65.2941 38.7939 65.3135C38.7653 65.3329 38.7311 65.3422 38.6967 65.3398Z" fill="#0071CE"/>
<path d="M44.7134 60.3369C44.6495 60.338 44.5862 60.3251 44.5278 60.2991L40.6351 58.6156V51.5541C40.6351 51.4289 40.6849 51.3088 40.7734 51.2203C40.8619 51.1318 40.982 51.082 41.1072 51.082C41.2323 51.082 41.3524 51.1318 41.4409 51.2203C41.5295 51.3088 41.5792 51.4289 41.5792 51.5541V57.9957L44.9023 59.4338C45.0007 59.4777 45.0812 59.554 45.1303 59.65C45.1794 59.746 45.1942 59.8559 45.1721 59.9615C45.15 60.067 45.0925 60.1618 45.009 60.2302C44.9256 60.2985 44.8213 60.3361 44.7134 60.3369Z" fill="#37474F"/>
<path d="M41.1071 56.7849C41.812 56.3758 42.3847 56.7063 42.3847 57.5213C42.3585 57.9627 42.2293 58.3919 42.0074 58.7744C41.7855 59.1569 41.4772 59.4821 41.1071 59.7241C40.399 60.1332 39.8263 59.8028 39.8263 58.9846C39.8533 58.5434 39.9833 58.1147 40.2056 57.7328C40.428 57.3508 40.7367 57.0262 41.1071 56.7849Z" fill="#0071CE"/>
<path d="M30.7099 51.7162C29.1679 54.3815 26.2634 55.5899 24.0795 54.3281C22.7983 53.5874 21.864 52.3681 21.4818 50.9384C21.0997 49.5088 21.3012 47.9859 22.0419 46.7048C22.7826 45.4237 24.0019 44.4893 25.4315 44.1072C26.8611 43.7251 28.384 43.9265 29.6651 44.6672C31.8427 45.9574 32.2455 49.0476 30.7099 51.7162Z" fill="#455A64"/>
<path d="M24.0791 54.3279C26.263 55.5867 29.1675 54.3814 30.7095 51.716C31.0539 51.1185 31.3094 50.474 31.4679 49.8028C31.3797 49.9192 28.8119 53.1919 25.621 52.2699C22.3735 51.3258 21.763 48.8304 22.043 46.7031C21.6759 47.3374 21.4374 48.0378 21.341 48.7644C21.2447 49.4909 21.2924 50.2292 21.4815 50.9373C21.6705 51.6454 21.9973 52.3093 22.443 52.891C22.8887 53.4728 23.4446 53.9611 24.0791 54.3279Z" fill="#37474F"/>
<path d="M23.1825 46.1642L21.5273 45.2201C21.4144 45.1503 21.2887 45.1035 21.1576 45.0827C21.0265 45.0619 20.8926 45.0673 20.7636 45.0988C20.6346 45.1302 20.5131 45.187 20.4063 45.2659C20.2995 45.3447 20.2094 45.444 20.1414 45.558C20.0733 45.672 20.0286 45.7984 20.0099 45.9298C19.9912 46.0613 19.9988 46.1951 20.0323 46.3236C20.0658 46.452 20.1245 46.5726 20.2051 46.6781C20.2856 46.7836 20.3863 46.8721 20.5014 46.9383L22.1755 47.9076C22.5311 48.1121 23.0441 47.8918 23.321 47.4135C23.5979 46.9352 23.535 46.3687 23.1825 46.1642Z" fill="#0071CE"/>
<path d="M47.8726 38.1795L48.8166 36.5274C48.8865 36.4145 48.9332 36.2889 48.9541 36.1577C48.9749 36.0266 48.9694 35.8927 48.938 35.7637C48.9065 35.6347 48.8497 35.5133 48.7709 35.4064C48.6921 35.2996 48.5928 35.2096 48.4788 35.1415C48.3648 35.0734 48.2384 35.0287 48.1069 35.01C47.9755 34.9913 47.8417 34.9989 47.7132 35.0324C47.5847 35.0659 47.4642 35.1246 47.3587 35.2052C47.2531 35.2857 47.1647 35.3865 47.0985 35.5015L46.1292 37.1757C45.9247 37.5281 46.1292 38.041 46.6233 38.318C47.1173 38.5949 47.6649 38.5351 47.8726 38.1795Z" fill="#0071CE"/>
<path d="M39.8766 38.864C40.2433 38.2286 40.7317 37.6717 41.3137 37.225C41.8956 36.7784 42.5599 36.4507 43.2685 36.2608C43.9771 36.0709 44.7162 36.0223 45.4436 36.118C46.1709 36.2137 46.8723 36.4518 47.5077 36.8185C48.1431 37.1853 48.7 37.6736 49.1466 38.2556C49.5933 38.8376 49.9209 39.5018 50.1109 40.2104C50.3008 40.9191 50.3493 41.6581 50.2536 42.3855C50.1579 43.1129 49.9199 43.8142 49.5531 44.4496L39.8766 38.864Z" fill="#455A64"/>
<path d="M48.3259 37.4102C48.6406 38.0678 49.4966 40.8528 48.3259 41.5451C47.1553 42.2374 41.749 39.9402 41.749 39.9402L49.5532 44.4465C50.2032 43.3151 50.4363 41.9918 50.2121 40.7064C49.9879 39.421 49.3206 38.2547 48.3259 37.4102Z" fill="#37474F"/>
</g>
<defs>
<filter id="filter0_d_217_59500" x="17.9999" y="35" width="35.9717" height="42.1953" filterUnits="userSpaceOnUse" color-interpolation-filters="sRGB">
<feFlood flood-opacity="0" result="BackgroundImageFix"/>
<feColorMatrix in="SourceAlpha" type="matrix" values="0 0 0 0 0 0 0 0 0 0 0 0 0 0 0 0 0 0 127 0" result="hardAlpha"/>
<feOffset dy="2"/>
<feGaussianBlur stdDeviation="1"/>
<feComposite in2="hardAlpha" operator="out"/>
<feColorMatrix type="matrix" values="0 0 0 0 0 0 0 0 0 0 0 0 0 0 0 0 0 0 0.25 0"/>
<feBlend mode="normal" in2="BackgroundImageFix" result="effect1_dropShadow_217_59500"/>
<feBlend mode="normal" in="SourceGraphic" in2="effect1_dropShadow_217_59500" result="shape"/>
</filter>
</defs>
</svg>
