<svg width="69" height="111" viewBox="0 0 69 111" fill="none" xmlns="http://www.w3.org/2000/svg">
<g clip-path="url(#clip0_0_16563)">
<path d="M0 55.5C0 24.8482 24.8482 0 55.5 0H61C65.4183 0 69 3.58172 69 8V103C69 107.418 65.4183 111 61 111H55.5C24.8482 111 0 86.1518 0 55.5Z" fill="white"/>
<g filter="url(#filter0_d_0_16563)">
<path d="M49.2508 14.5266L20.2712 31.2517C19.9842 31.439 19.7457 31.6917 19.5753 31.989C19.4048 32.2863 19.3072 32.6198 19.2905 32.9621V101.207C19.2905 101.832 19.7309 102.085 20.2712 101.77L49.2508 85.0398C49.5359 84.8529 49.7731 84.6017 49.9434 84.3064C50.1137 84.0111 50.2124 83.68 50.2315 83.3397V15.0847C50.2315 14.46 49.7911 14.2039 49.2508 14.5266ZM48.8206 78.2827C48.8206 78.8178 48.4442 79.1584 47.9808 79.4247L21.4439 94.7518C20.983 95.0078 20.6041 94.803 20.6041 94.2653V37.5121C20.6042 37.2186 20.6816 36.9304 20.8286 36.6764C20.9756 36.4224 21.1869 36.2117 21.4413 36.0654L47.9782 20.7357C48.0634 20.6863 48.1601 20.6601 48.2585 20.6599C48.357 20.6596 48.4538 20.6853 48.5392 20.7344C48.6246 20.7834 48.6956 20.8541 48.745 20.9393C48.7944 21.0245 48.8205 21.1212 48.8206 21.2197V78.2827Z" fill="#455A64"/>
<path d="M48.8206 78.283C48.8206 78.8181 48.4442 79.1587 47.9807 79.425L21.4438 94.7521C20.983 95.0081 20.604 94.8033 20.604 94.2656V37.5123C20.6041 37.2189 20.6816 36.9307 20.8286 36.6767C20.9755 36.4227 21.1869 36.2119 21.4413 36.0657L47.9782 20.736C48.0633 20.6866 48.16 20.6604 48.2585 20.6602C48.357 20.6599 48.4538 20.6856 48.5392 20.7347C48.6245 20.7837 48.6955 20.8544 48.7449 20.9396C48.7943 21.0248 48.8204 21.1215 48.8206 21.22V78.283Z" fill="#263238"/>
<path d="M21.4438 94.7518L47.9807 79.4298C48.167 79.3292 48.3392 79.2043 48.4928 79.0586L20.604 63.3525V94.2653C20.604 94.803 20.983 95.0181 21.4438 94.7518Z" fill="#37474F"/>
<path d="M46.6723 77.2868V21.4912L21.4413 36.0655C21.1869 36.2118 20.9755 36.4225 20.8286 36.6765C20.6816 36.9305 20.6041 37.2187 20.604 37.5122V92.9954L45.8325 78.4288C46.2959 78.1625 46.6723 77.822 46.6723 77.2868Z" fill="#0071CE"/>
<path d="M20.1485 101.839C19.8558 101.963 19.5399 102.021 19.2225 102.011C18.9051 102 18.5938 101.921 18.31 101.778L17.1886 101.13C16.9024 100.945 16.6641 100.694 16.4932 100.399C16.3223 100.104 16.2237 99.7731 16.2053 99.4326V31.17C16.2118 30.917 16.2693 30.6679 16.3743 30.4377C16.4102 30.3583 16.4486 30.2815 16.4921 30.2021L19.5647 31.9945C19.5001 32.1099 19.4436 32.2297 19.3957 32.353C19.3211 32.5468 19.2804 32.7521 19.2753 32.9598V101.207C19.2907 101.783 19.6645 102.044 20.1485 101.839Z" fill="#263238"/>
<path d="M35.626 88.0894C36.2533 88.0894 36.3198 88.7935 36.3198 89.0956C36.2824 89.701 36.1049 90.2894 35.8014 90.8146C35.498 91.3398 35.0768 91.7873 34.571 92.1221C34.3681 92.2511 34.1352 92.3252 33.8951 92.3372C33.2677 92.3372 33.2012 91.6331 33.2012 91.3309C33.239 90.7256 33.4163 90.1372 33.7192 89.6117C34.0221 89.0862 34.4425 88.6379 34.9474 88.3019C35.1521 88.175 35.3855 88.1019 35.626 88.0894Z" fill="#0071CE"/>
<path d="M34.7402 23.9773C34.9962 23.8236 35.219 23.9465 35.219 24.2538C35.2097 24.4199 35.1615 24.5815 35.0783 24.7256C34.9952 24.8697 34.8793 24.9923 34.7402 25.0834C34.4841 25.2345 34.2588 25.1116 34.2588 24.8069C34.2676 24.6403 34.3158 24.4783 34.3995 24.334C34.4832 24.1898 34.5999 24.0675 34.7402 23.9773Z" fill="#263238"/>
<path d="M31.647 28.0203C31.8825 27.8846 32.072 27.9947 32.072 28.2763C32.0642 28.4237 32.0216 28.5671 31.9477 28.6948C31.8739 28.8225 31.7708 28.9309 31.647 29.0112C31.4114 29.1469 31.2219 29.0368 31.2219 28.7551C31.2301 28.6079 31.2729 28.4646 31.3467 28.337C31.4206 28.2093 31.5234 28.1008 31.647 28.0203Z" fill="#263238"/>
<path d="M33.0683 27.1806L37.8282 24.4332C38.0843 24.2821 38.2994 24.3897 38.2994 24.6713C38.2869 24.8295 38.2378 24.9826 38.1561 25.1186C38.0743 25.2545 37.9621 25.3697 37.8282 25.4548L33.0683 28.2022C32.8122 28.3533 32.5972 28.2458 32.5972 27.9641C32.6096 27.806 32.6587 27.6528 32.7405 27.5169C32.8222 27.3809 32.9344 27.2658 33.0683 27.1806Z" fill="#263238"/>
<path d="M50.2207 14.9287C50.149 14.4166 49.7418 14.2348 49.2528 14.519L20.2681 31.2518C19.978 31.4319 19.7398 31.6842 19.5767 31.9841L16.5042 30.1918C16.6698 29.8943 16.9086 29.644 17.198 29.4646L46.1648 12.7344C46.4688 12.5803 46.8047 12.5 47.1455 12.5C47.4863 12.5 47.8222 12.5803 48.1262 12.7344L49.2528 13.3796C49.5153 13.5538 49.7376 13.7822 49.9045 14.0494C50.0714 14.3166 50.1792 14.6164 50.2207 14.9287Z" fill="#37474F"/>
<path d="M42.6205 17.0006C42.4701 17.0809 42.3028 17.1244 42.1323 17.1276C41.9618 17.1307 41.793 17.0933 41.6398 17.0185C41.5885 16.9966 41.544 16.9613 41.5111 16.9162C41.4782 16.8711 41.4581 16.818 41.4529 16.7625C41.4529 16.6908 41.4529 16.4245 41.4529 16.3502C41.4611 16.2863 41.4857 16.2257 41.5243 16.1741C41.5629 16.1225 41.6141 16.0817 41.6731 16.0558L44.779 14.2634C44.93 14.1837 45.0977 14.1405 45.2684 14.1374C45.4392 14.1343 45.6083 14.1713 45.7622 14.2455C45.8126 14.2684 45.8561 14.3041 45.8884 14.349C45.9208 14.3939 45.9408 14.4465 45.9465 14.5016C45.9465 14.5758 45.9465 14.8524 45.9465 14.924C45.9385 14.9883 45.914 15.0494 45.8754 15.1015C45.8368 15.1535 45.7855 15.1947 45.7263 15.2211L42.6205 17.0006Z" fill="#0071CE"/>
<path opacity="0.25" d="M42.6205 17.0006C42.4701 17.0809 42.3028 17.1244 42.1323 17.1276C41.9618 17.1307 41.793 17.0933 41.6398 17.0185C41.5885 16.9966 41.544 16.9613 41.5111 16.9162C41.4782 16.8711 41.4581 16.818 41.4529 16.7625C41.4529 16.6908 41.4529 16.4245 41.4529 16.3502C41.4611 16.2863 41.4857 16.2257 41.5243 16.1741C41.5629 16.1225 41.6141 16.0817 41.6731 16.0558L44.779 14.2634C44.93 14.1837 45.0977 14.1405 45.2684 14.1374C45.4392 14.1343 45.6083 14.1713 45.7622 14.2455C45.8126 14.2684 45.8561 14.3041 45.8884 14.349C45.9208 14.3939 45.9408 14.4465 45.9465 14.5016C45.9465 14.5758 45.9465 14.8524 45.9465 14.924C45.9385 14.9883 45.914 15.0494 45.8754 15.1015C45.8368 15.1535 45.7855 15.1947 45.7263 15.2211L42.6205 17.0006Z" fill="black"/>
<path d="M42.6197 16.5931L45.7255 14.8008C46.0072 14.6369 46.02 14.3834 45.7588 14.2323C45.605 14.1581 45.4359 14.1211 45.2651 14.1242C45.0943 14.1273 44.9266 14.1705 44.7756 14.2503L41.6697 16.0426C41.3906 16.2039 41.3753 16.4574 41.639 16.6085C41.7922 16.683 41.9608 16.7205 42.1312 16.7178C42.3015 16.7152 42.4689 16.6724 42.6197 16.5931Z" fill="#0071CE"/>
<path opacity="0.3" d="M42.6197 16.5931L45.7255 14.8008C46.0072 14.6369 46.02 14.3834 45.7588 14.2323C45.605 14.1581 45.4359 14.1211 45.2651 14.1242C45.0943 14.1273 44.9266 14.1705 44.7756 14.2503L41.6697 16.0426C41.3906 16.2039 41.3753 16.4574 41.639 16.6085C41.7922 16.683 41.9608 16.7205 42.1312 16.7178C42.3015 16.7152 42.4689 16.6724 42.6197 16.5931Z" fill="black"/>
<path d="M18.1475 41.4555C18.1414 41.2851 18.0951 41.1185 18.0123 40.9694C17.9295 40.8203 17.8127 40.693 17.6712 40.5977C17.6249 40.5635 17.57 40.5428 17.5126 40.5378C17.4552 40.5328 17.3976 40.5438 17.346 40.5696C17.2872 40.6054 17.0516 40.736 16.9901 40.7744C16.9387 40.8133 16.8982 40.8649 16.8727 40.9242C16.8471 40.9834 16.8373 41.0482 16.8442 41.1124V48.7221C16.8504 48.8922 16.8965 49.0585 16.9788 49.2075C17.061 49.3565 17.1772 49.4841 17.3179 49.5799C17.3642 49.6111 17.4177 49.6298 17.4733 49.6343C17.5289 49.6387 17.5847 49.6288 17.6354 49.6055C17.702 49.5722 17.9401 49.434 18.0041 49.3956C18.0555 49.3566 18.096 49.305 18.1216 49.2458C18.1471 49.1865 18.1569 49.1217 18.15 49.0576L18.1475 41.4555Z" fill="#0071CE"/>
<path opacity="0.3" d="M18.1475 41.4555C18.1414 41.2851 18.0951 41.1185 18.0123 40.9694C17.9295 40.8203 17.8127 40.693 17.6712 40.5977C17.6249 40.5635 17.57 40.5428 17.5126 40.5378C17.4552 40.5328 17.3976 40.5438 17.346 40.5696C17.2872 40.6054 17.0516 40.736 16.9901 40.7744C16.9387 40.8133 16.8982 40.8649 16.8727 40.9242C16.8471 40.9834 16.8373 41.0482 16.8442 41.1124V48.7221C16.8504 48.8922 16.8965 49.0585 16.9788 49.2075C17.061 49.3565 17.1772 49.4841 17.3179 49.5799C17.3642 49.6111 17.4177 49.6298 17.4733 49.6343C17.5289 49.6387 17.5847 49.6288 17.6354 49.6055C17.702 49.5722 17.9401 49.434 18.0041 49.3956C18.0555 49.3566 18.096 49.305 18.1216 49.2458C18.1471 49.1865 18.1569 49.1217 18.15 49.0576L18.1475 41.4555Z" fill="black"/>
<path d="M17.7944 41.6679V49.2777C17.7944 49.6003 17.5819 49.7386 17.3182 49.5875C17.1775 49.4916 17.0613 49.3641 16.979 49.2151C16.8968 49.0661 16.8507 48.8998 16.8445 48.7297V41.1123C16.8445 40.7871 17.057 40.6488 17.3182 40.7999C17.4607 40.8964 17.5782 41.0255 17.661 41.1764C17.7438 41.3274 17.7895 41.4958 17.7944 41.6679Z" fill="#0071CE"/>
<path opacity="0.4" d="M17.7944 41.6679V49.2777C17.7944 49.6003 17.5819 49.7386 17.3182 49.5875C17.1775 49.4916 17.0613 49.3641 16.979 49.2151C16.8968 49.0661 16.8507 48.8998 16.8445 48.7297V41.1123C16.8445 40.7871 17.057 40.6488 17.3182 40.7999C17.4607 40.8964 17.5782 41.0255 17.661 41.1764C17.7438 41.3274 17.7895 41.4958 17.7944 41.6679Z" fill="black"/>
<path d="M18.1475 51.6537C18.1414 51.4833 18.0951 51.3168 18.0123 51.1677C17.9295 51.0186 17.8127 50.8912 17.6712 50.796C17.6249 50.7617 17.57 50.741 17.5126 50.736C17.4552 50.7311 17.3976 50.742 17.346 50.7678C17.2872 50.8036 17.0516 50.9342 16.9901 50.9726C16.9387 51.0116 16.8982 51.0632 16.8727 51.1224C16.8471 51.1816 16.8373 51.2465 16.8442 51.3106V54.8953C16.8508 55.065 16.8971 55.2307 16.9793 55.3792C17.0616 55.5278 17.1775 55.6549 17.3179 55.7505C17.3626 55.7836 17.4154 55.8042 17.4708 55.81C17.5262 55.8159 17.5821 55.8068 17.6328 55.7838C17.6994 55.7505 17.9375 55.6122 18.0015 55.5738C18.0527 55.5353 18.0931 55.4841 18.1187 55.4253C18.1443 55.3666 18.1542 55.3022 18.1475 55.2384V51.6537Z" fill="#0071CE"/>
<path opacity="0.3" d="M18.1475 51.6537C18.1414 51.4833 18.0951 51.3168 18.0123 51.1677C17.9295 51.0186 17.8127 50.8912 17.6712 50.796C17.6249 50.7617 17.57 50.741 17.5126 50.736C17.4552 50.7311 17.3976 50.742 17.346 50.7678C17.2872 50.8036 17.0516 50.9342 16.9901 50.9726C16.9387 51.0116 16.8982 51.0632 16.8727 51.1224C16.8471 51.1816 16.8373 51.2465 16.8442 51.3106V54.8953C16.8508 55.065 16.8971 55.2307 16.9793 55.3792C17.0616 55.5278 17.1775 55.6549 17.3179 55.7505C17.3626 55.7836 17.4154 55.8042 17.4708 55.81C17.5262 55.8159 17.5821 55.8068 17.6328 55.7838C17.6994 55.7505 17.9375 55.6122 18.0015 55.5738C18.0527 55.5353 18.0931 55.4841 18.1187 55.4253C18.1443 55.3666 18.1542 55.3022 18.1475 55.2384V51.6537Z" fill="black"/>
<path d="M17.7944 51.8458V55.4305C17.7944 55.7531 17.5819 55.894 17.3182 55.7403C17.1775 55.6445 17.0613 55.5169 16.979 55.3679C16.8968 55.2189 16.8507 55.0527 16.8445 54.8826V51.2979C16.8445 50.9753 17.057 50.8344 17.3182 50.9855C17.4594 51.0816 17.576 51.2095 17.6587 51.359C17.7415 51.5084 17.7879 51.6752 17.7944 51.8458Z" fill="#0071CE"/>
<path opacity="0.4" d="M17.7944 51.8458V55.4305C17.7944 55.7531 17.5819 55.894 17.3182 55.7403C17.1775 55.6445 17.0613 55.5169 16.979 55.3679C16.8968 55.2189 16.8507 55.0527 16.8445 54.8826V51.2979C16.8445 50.9753 17.057 50.8344 17.3182 50.9855C17.4594 51.0816 17.576 51.2095 17.6587 51.359C17.7415 51.5084 17.7879 51.6752 17.7944 51.8458Z" fill="black"/>
<path d="M26.6324 45.3015C26.6578 45.4258 26.692 45.5482 26.7348 45.6677C26.9012 46.1183 27.2008 46.5434 27.1752 47.0247C27.147 47.5676 26.7194 47.9875 26.3917 48.4202C25.9657 48.9923 25.6819 49.6575 25.5634 50.3609C25.445 51.0643 25.4955 51.7857 25.7106 52.4658C26.0254 53.2941 26.4621 54.0708 27.0062 54.7702L28.2429 56.5242C28.6168 57.0152 29.0941 57.4182 29.6409 57.7045C30.7036 58.3052 31.8893 58.6555 33.1078 58.7287C35.1107 58.8639 37.103 58.3416 38.7819 57.2411C40.5614 56.0633 39.7779 53.0419 41.5984 51.9383C43.8004 50.6069 44.8502 45.9826 42.1515 44.052C42.1515 44.052 42.5868 41.2201 41.7879 40.4981C40.9918 39.8319 40.0066 39.4324 38.9713 39.3561C37.5426 39.2076 36.1113 39.4867 34.6851 39.4815C33.2169 39.4768 31.75 39.5683 30.2939 39.7555C29.7818 39.8246 29.0597 40.0116 28.7832 40.5109C28.7051 40.7067 28.6838 40.9206 28.7217 41.1279C28.7178 41.4569 28.6002 41.7745 28.3888 42.0267C28.0713 42.4107 27.6207 42.6694 27.2827 43.0304C27.0038 43.3314 26.7996 43.6939 26.6867 44.0884C26.5737 44.4829 26.5551 44.8985 26.6324 45.3015Z" fill="#263238"/>
<path d="M40.8438 49.3882C43.1482 49.4522 43.4478 49.9438 45.5115 51.9871C47.227 53.6847 52.9113 58.9311 52.9113 58.9311L59.7222 60.744L58.1142 64.8996C58.1142 64.8996 56.5779 64.8356 53.5054 64.8331C51.6183 64.8331 50.9628 64.4106 49.0629 63.1431C48.0951 62.4953 42.6335 58.9209 42.6335 58.9209L40.8438 49.3882Z" fill="#E6E6E6"/>
<path d="M67.2562 52.3403L54.7738 56.7393L51.3325 71.5901L51.6116 71.8871L63.4795 67.46L67.5327 52.6373L67.2562 52.3403Z" fill="#0071CE"/>
<path opacity="0.35" d="M55.0503 57.0363L51.6116 71.8871L51.3325 71.5901L54.7738 56.7393L55.0503 57.0363Z" fill="black"/>
<path opacity="0.25" d="M67.5339 52.6372L55.0515 57.0361L51.6128 71.887L63.4807 67.4599L67.5339 52.6372Z" fill="black"/>
<g opacity="0.2">
<path d="M61.623 64.4387C61.7383 64.7306 62.6959 65.3733 64.0811 65.258L64.3141 64.4028L61.623 64.4387Z" fill="black"/>
</g>
<g opacity="0.1">
<path d="M63.7746 55.6793L63.877 55.18C63.9333 54.906 63.201 55.0494 62.2408 55.5026L59.9876 56.1837C59.0274 56.6369 58.121 56.9749 58.0621 57.2488L57.9597 57.7456L63.7746 55.6793Z" fill="black"/>
</g>
<path d="M64.5178 53.4258C64.5536 53.2542 64.2617 53.2901 63.87 53.3951L63.1505 53.6383C63.1505 53.6383 63.4449 52.9162 61.7422 53.3823C59.8705 53.8944 59.8295 54.8238 59.8295 54.8238C59.5367 54.9508 59.2366 55.0602 58.9308 55.1516C58.3086 55.3538 58.242 55.4742 58.1908 55.6483L58.0986 55.9632L64.4614 53.7254C64.4614 53.7254 64.4922 53.5973 64.5178 53.4258Z" fill="#37474F"/>
<path d="M63.8478 54.3809C63.2589 54.6369 63.0157 54.7777 62.926 55.2028C62.8262 55.6867 62.8057 55.889 62.8057 55.889L59.4924 57.1948C59.4924 57.1948 59.6717 56.4805 59.7152 56.2423C59.7587 56.0042 59.3209 56.0042 58.7473 56.268L58.883 55.6739L64.0373 53.7612L63.8478 54.3809Z" fill="#37474F"/>
<path d="M63.9444 55.6867C63.9444 55.6867 63.993 55.464 64.0494 55.1875C64.1057 54.9109 63.3734 55.0569 62.4132 55.5101L60.16 56.1912C59.1998 56.6444 58.2908 56.9824 58.2345 57.2563L58.1321 57.7684L63.9444 55.6867Z" fill="#37474F"/>
<path d="M66.1454 57.7173C66.1454 57.7173 65.7024 59.3457 65.5846 59.7656C65.4668 60.1856 63.4236 61.1201 62.4019 61.2482C60.4457 61.4914 60.2229 61.9139 60.6915 63.2966C61.1268 64.5768 62.3994 65.0633 64.1661 64.8559C64.9957 64.7586 66.1402 64.0237 66.5909 62.7409C67.1644 61.1022 66.8469 59.3534 67.0851 58.3881C67.3232 57.4228 66.6421 57.1463 66.1454 57.7173Z" fill="#FFA8A7"/>
<path d="M46.8037 80.1112L45.4799 80.8793L44.9243 81.1994L37.6423 85.4011L36.6488 85.9644L34.9717 86.9323L35.4838 81.7063L36.4619 71.5873V71.4823L36.508 71.0291L37.7882 57.7991L38.349 52.0098L38.5461 49.9332L38.6127 49.2624H38.6485C39.2416 49.0974 39.8683 49.0974 40.4614 49.2624C40.5936 49.3025 40.7221 49.3539 40.8454 49.416C41.6136 49.7975 42.1257 50.5401 42.5507 51.321C42.6552 51.5112 42.7492 51.7069 42.8324 51.9074C43.1481 52.6663 43.3915 53.4533 43.5596 54.2579C43.895 55.743 44.3277 57.2613 44.4993 59.6554C44.5263 60.2716 44.4937 60.889 44.402 61.499C44.2866 63.1129 44.2669 64.7323 44.3431 66.3485C44.5581 70.01 45.4799 71.6692 46.8037 80.1112Z" fill="#E0E0E0"/>
<path d="M44.9234 81.1942L37.6414 85.3959L36.6479 85.9644L34.9708 86.9322L33.816 87.598L26.8054 91.6435C26.8797 88.827 26.913 85.7723 26.8464 82.8867C26.8259 81.9214 26.8182 80.9356 26.8592 79.9267C26.9923 76.424 27.6581 72.6678 30.0444 68.7144L30.1545 68.5146C30.4362 70.1866 32.9967 71.2723 35.3011 71.5283L35.5572 71.5514C35.8465 71.5795 36.1461 71.5924 36.4559 71.5924H36.6505C38.599 71.5744 40.906 71.1161 43.5638 70.2174C43.8199 71.7025 44.0759 73.651 44.3499 75.9298C44.4728 76.954 44.5974 78.0456 44.7237 79.2047C44.7749 79.8525 44.8543 80.5157 44.9234 81.1942Z" fill="#FFA8A7"/>
<path d="M45.4796 80.8745L44.924 81.1945L37.642 85.3963L36.6485 85.9647L34.9714 86.9326L33.8166 87.5983L26.806 91.6439L26.0378 92.0868C26.0762 89.0552 26.1019 86.0851 26.0993 84.221C26.0993 82.4876 26.1377 80.9462 26.2324 79.5789C26.4194 76.8801 26.8085 74.8496 27.4589 73.3133C28.222 71.6319 29.1248 70.0174 30.1577 68.4868C30.1577 68.4868 30.7978 70.6479 35.5859 70.9884H35.6166C35.8983 71.0089 36.1953 71.0217 36.5077 71.0268H36.8713C42.8321 71.0268 43.4901 69.5238 43.4901 69.5238C44.0724 71.7339 44.5332 73.9743 44.8702 76.2349C44.9965 77.0337 45.1186 77.8872 45.2364 78.7953C45.3234 79.4611 45.4054 80.1524 45.4796 80.8745Z" fill="#0071CE"/>
<path opacity="0.4" d="M45.4796 80.8745L44.924 81.1945L37.642 85.3963L36.6485 85.9647L34.9714 86.9326L33.8166 87.5983L26.806 91.6439L26.0378 92.0868C26.0762 89.0552 26.1019 86.0851 26.0993 84.221C26.0993 82.4876 26.1377 80.9462 26.2324 79.5789C26.4194 76.8801 26.8085 74.8496 27.4589 73.3133C28.222 71.6319 29.1248 70.0174 30.1577 68.4868C30.1577 68.4868 30.7978 70.6479 35.5859 70.9884H35.6166C35.8983 71.0089 36.1953 71.0217 36.5077 71.0268H36.8713C42.8321 71.0268 43.4901 69.5238 43.4901 69.5238C44.0724 71.7339 44.5332 73.9743 44.8702 76.2349C44.9965 77.0337 45.1186 77.8872 45.2364 78.7953C45.3234 79.4611 45.4054 80.1524 45.4796 80.8745Z" fill="black"/>
<path opacity="0.2" d="M42.0625 77.4766C42.0625 77.4766 41.3968 79.5915 38.5956 80.777L38.4625 81.4248L37.6431 85.3962L36.6497 85.9646L37.2437 81.5836L37.4997 79.6786C39.2309 79.499 40.8449 78.7201 42.0625 77.4766Z" fill="black"/>
<path d="M33.5424 49.8745L30.7258 50.1715C28.8618 50.6273 28.0194 51.4518 27.8274 53.0982C27.7377 53.8663 27.2743 55.9147 27.9247 58.4752C28.5136 60.8001 30.0857 66.4895 30.0857 66.4895C30.0857 66.4895 26.4677 71.2111 25.8123 79.3073C32.4337 83.6294 42.5911 81.3071 45.3385 78.6954C45.1081 76.2219 43.5283 69.4341 43.3311 67.2295C43.3311 67.2295 43.4771 63.7856 43.751 62.2929C45.8455 60.0064 45.5792 57.8197 44.6395 56.0555C42.9035 52.7986 40.2867 49.936 39.4392 49.9385L33.5424 49.8745Z" fill="#0071CE"/>
<path opacity="0.7" d="M33.5424 49.8745L30.7258 50.1715C28.8618 50.6273 28.0194 51.4518 27.8274 53.0982C27.7377 53.8663 27.2743 55.9147 27.9247 58.4752C28.5136 60.8001 30.0857 66.4895 30.0857 66.4895C30.0857 66.4895 26.4677 71.2111 25.8123 79.3073C32.4337 83.6294 42.5911 81.3071 45.3385 78.6954C45.1081 76.2219 43.5283 69.4341 43.3311 67.2295C43.3311 67.2295 43.4771 63.7856 43.751 62.2929C45.8455 60.0064 45.5792 57.8197 44.6395 56.0555C42.9035 52.7986 40.2867 49.936 39.4392 49.9385L33.5424 49.8745Z" fill="white"/>
<path d="M35.9836 67.5032C35.9836 67.5544 35.9836 67.6005 35.9836 67.6389V67.7055C35.9852 67.7268 35.9852 67.7482 35.9836 67.7695C35.8863 68.7937 35.7711 69.8819 35.6482 70.9906C35.6482 70.9906 35.6482 70.9906 35.6482 71.006C35.6302 71.1852 35.6097 71.3644 35.5893 71.5462C35.2129 74.8877 34.7648 78.4595 34.4191 81.7114C34.3346 82.5 34.2578 83.2681 34.1887 84.0158C34.0811 85.1347 33.9659 86.3612 33.8481 87.6005L26.8375 91.6461L26.0694 92.089L24.1106 93.2182C24.5049 89.3391 25.4241 80.3517 25.9362 76.2959C25.9951 75.8376 26.0719 75.3793 26.159 74.9235L26.2281 74.5906L26.2588 74.4549C26.2921 74.3013 26.3254 74.1528 26.3613 74.0017C26.3971 73.8507 26.4304 73.7226 26.4637 73.5869C26.5431 73.2771 26.6276 72.9724 26.7197 72.6754C26.7633 72.532 26.8042 72.3886 26.8503 72.2478C26.8964 72.107 26.9348 71.9661 26.9809 71.8279C27.0731 71.5513 27.1627 71.2799 27.2574 71.0162C27.2563 71.0111 27.2563 71.0059 27.2574 71.0008C27.301 70.8754 27.3471 70.7448 27.3931 70.627C27.4546 70.4529 27.5186 70.2839 27.5826 70.1149L27.6594 69.9126C27.6978 69.8205 27.7311 69.7308 27.767 69.6412C27.8924 69.3263 28.023 69.0267 28.1382 68.7476C28.1638 68.6862 28.192 68.6247 28.2176 68.5658C28.2432 68.5069 28.2842 68.4199 28.3149 68.3482C28.3917 68.1689 28.4685 68.0025 28.5428 67.8361C28.5735 67.7644 28.6068 67.6952 28.6375 67.6287C28.6683 67.5621 28.7118 67.475 28.7451 67.4034L28.7937 67.3009L28.8449 67.2011C28.8483 67.188 28.8544 67.1758 28.8629 67.1652C28.8698 67.1466 28.8784 67.1286 28.8885 67.1115C28.8947 67.1 28.8998 67.088 28.9038 67.0756C28.9251 67.0394 28.944 67.0017 28.9602 66.9629L29.1317 66.6301C29.1317 66.6122 29.1496 66.5994 29.1548 66.584L29.2213 66.4611L27.091 57.6274L26.031 53.2387V53.167C26.0796 52.7778 26.4048 50.942 28.2791 50.3838C29.3372 50.1106 30.4211 49.9493 31.513 49.9024C31.9329 49.8768 32.3118 49.8666 32.6217 49.8589H33.1107H33.4052C33.4058 49.8648 33.4058 49.8709 33.4052 49.8768C33.4205 49.9152 33.4641 50.0304 33.5306 50.2097C33.5378 50.2397 33.5481 50.2689 33.5614 50.2967C33.5616 50.301 33.5616 50.3053 33.5614 50.3095C34.0222 51.5744 35.3153 55.2564 35.958 58.4544C36.0706 59.0075 36.1628 59.5478 36.2294 60.0599C36.4214 61.6602 36.2806 64.3384 35.9836 67.5032Z" fill="#FAFAFA"/>
<path d="M29.2909 62.2315C29.2909 62.2315 29.5469 60.9692 29.9233 58.2423C30.3611 55.098 30.2049 53.5438 29.7313 52.5503L27.0607 57.6431L29.191 66.4768C29.191 66.4768 27.0018 70.4865 26.1184 74.9264C28.2129 69.0091 30.5045 67.2449 30.5045 67.2449L29.2909 62.2315Z" fill="#E6E6E6"/>
<path d="M38.6462 47.9028C39.4758 47.9028 39.5731 48.0411 40.2875 48.9987C40.7126 49.5697 43.4036 54.0122 43.4036 54.0122C43.4036 54.0122 41.2631 51.1956 39.6474 50.3404C39.3364 50.1581 38.9998 50.0235 38.6488 49.941L38.6462 47.9028Z" fill="#EBEBEB"/>
<path d="M32.5106 57.3432C32.5106 57.0871 32.485 56.534 32.4415 55.8376C32.229 52.4219 32.1266 49.3493 33.2788 49.0933L33.3786 49.5644C32.5388 49.7462 32.8153 54.1425 32.9203 55.7966C32.9664 56.5084 33.0023 57.0769 32.9895 57.3534L32.5106 57.3432Z" fill="#0071CE"/>
<path d="M28.6707 34.98L30.463 36.4472C30.5604 36.3357 30.6341 36.2054 30.6794 36.0645C30.7248 35.9235 30.7409 35.7747 30.7267 35.6273C30.7126 35.4799 30.6685 35.3369 30.5972 35.2071C30.5259 35.0773 30.4288 34.9635 30.3119 34.8725C30.0763 34.6776 29.7751 34.5802 29.4699 34.6002C29.1648 34.6202 28.8789 34.7561 28.6707 34.98Z" fill="#263238"/>
<path d="M33.3521 48.1205C33.3521 46.9964 30.7327 45.304 29.3807 42.9406C28.0288 40.5773 28.7048 36.6905 30.5586 36.0939C30.5739 36.0939 30.6251 35.5946 30.6328 35.5588C30.7353 35.1078 30.9081 34.6758 31.1449 34.2785C31.9003 32.9778 33.5006 31.9741 34.9856 31.7641C40.8568 30.9089 43.5556 33.1903 44.6336 35.6996C44.983 36.5437 45.1387 37.4554 45.0893 38.3676C45.0591 39.0376 44.8105 39.6793 44.3815 40.1948C43.9525 40.7103 43.3666 41.0712 42.7132 41.2225L33.3521 48.1205Z" fill="#263238"/>
<path d="M41.4966 34.8599C42.6463 35.372 43.7396 37.1208 43.7217 42.042C43.7063 46.2156 42.4261 47.2705 41.7808 47.5804C41.1356 47.8902 39.8733 47.7314 38.6468 47.5445V49.9411C38.6468 49.9411 39.566 50.845 39.2434 51.4134C38.9208 51.9818 37.7301 52.4632 35.8789 51.882C33.7819 51.2239 33.3031 49.8336 33.3031 49.8336L33.2544 44.5744C33.2544 44.5744 32.5503 45.3143 31.3084 44.2287C30.2842 43.33 29.9155 41.7911 30.6862 40.9461C31.4569 40.1012 32.4453 40.0346 33.3363 40.9794L33.9765 40.6414C35.1184 40.5083 36.793 40.3163 38.0272 39.6941C41.1919 38.0835 41.5197 36.3373 41.4966 34.8599Z" fill="#FFA8A7"/>
<path d="M33.3545 40.2983L33.3699 42.6028C33.5178 42.6067 33.6651 42.5803 33.8025 42.5252C33.9399 42.4702 34.0646 42.3876 34.1689 42.2825C34.2732 42.1775 34.355 42.0522 34.4091 41.9144C34.4632 41.7767 34.4886 41.6292 34.4837 41.4813C34.4809 41.1776 34.3626 40.8863 34.1529 40.6666C33.9432 40.4469 33.6577 40.3152 33.3545 40.2983Z" fill="#263238"/>
<path d="M41.6038 40.6262C41.6048 40.7345 41.6377 40.8401 41.6982 40.9298C41.7587 41.0196 41.8443 41.0897 41.9442 41.1313C42.0442 41.1729 42.1542 41.1843 42.2605 41.164C42.3669 41.1437 42.4649 41.0926 42.5425 41.017C42.6201 40.9415 42.6738 40.8449 42.697 40.7391C42.7202 40.6334 42.7118 40.5231 42.673 40.4221C42.6341 40.321 42.5664 40.2336 42.4783 40.1707C42.3902 40.1077 42.2855 40.072 42.1773 40.068C42.1028 40.0663 42.0287 40.0795 41.9594 40.1067C41.89 40.134 41.8268 40.1748 41.7734 40.2268C41.72 40.2787 41.6775 40.3408 41.6484 40.4094C41.6192 40.478 41.6041 40.5517 41.6038 40.6262Z" fill="black"/>
<path d="M37.1875 40.872C37.183 40.9514 37.1942 41.0309 37.2205 41.1059C37.2468 41.181 37.2876 41.2501 37.3407 41.3093C37.3937 41.3685 37.4579 41.4167 37.5296 41.4511C37.6013 41.4854 37.6791 41.5053 37.7585 41.5096C37.8391 41.5102 37.919 41.495 37.9936 41.4647C38.0683 41.4344 38.1363 41.3897 38.1936 41.333C38.2509 41.2764 38.2965 41.209 38.3278 41.1348C38.359 41.0605 38.3752 40.9807 38.3756 40.9002C38.3781 40.8222 38.3652 40.7444 38.3377 40.6714C38.3102 40.5983 38.2685 40.5314 38.2151 40.4745C38.1618 40.4176 38.0977 40.3717 38.0266 40.3395C37.9555 40.3073 37.8787 40.2895 37.8007 40.2869C37.7227 40.2844 37.645 40.2973 37.5719 40.3248C37.4989 40.3523 37.432 40.394 37.3751 40.4473C37.3181 40.5007 37.2722 40.5648 37.2401 40.6359C37.2079 40.707 37.19 40.7838 37.1875 40.8618V40.872Z" fill="black"/>
<path d="M43.0673 39.5938L41.6411 39.028C41.6741 38.932 41.7265 38.8439 41.7951 38.7691C41.8637 38.6944 41.947 38.6346 42.0398 38.5935C42.1326 38.5524 42.2328 38.5309 42.3343 38.5303C42.4357 38.5297 42.5362 38.5501 42.6295 38.5901C42.8174 38.6692 42.9677 38.8175 43.0492 39.0044C43.1307 39.1912 43.1372 39.4023 43.0673 39.5938Z" fill="black"/>
<path d="M40.2519 40.1753L40.1802 43.591L42.016 43.1839L40.2519 40.1753Z" fill="#F28F8F"/>
<path d="M38.0882 44.2876L39.8806 44.8432C39.8545 44.9654 39.8036 45.0809 39.731 45.1826C39.6584 45.2843 39.5657 45.37 39.4586 45.4343C39.3515 45.4987 39.2323 45.5403 39.1085 45.5567C38.9846 45.573 38.8587 45.5638 38.7386 45.5294C38.4926 45.4439 38.2885 45.2679 38.1677 45.0372C38.0469 44.8065 38.0185 44.5385 38.0882 44.2876Z" fill="#B16668"/>
<path d="M39.0799 45.5602C39.0778 45.3109 38.9774 45.0726 38.8004 44.897C38.6235 44.7215 38.3843 44.623 38.135 44.623C38.1103 44.6218 38.0855 44.6218 38.0608 44.623C38.07 44.8231 38.1391 45.0157 38.2592 45.176C38.3793 45.3363 38.5448 45.4567 38.7342 45.5217C38.8455 45.5585 38.9632 45.5715 39.0799 45.5602Z" fill="#F28F8F"/>
<path d="M38.6461 47.5574C37.3531 47.4038 34.6876 46.6612 34.2549 45.5781C34.4283 46.1218 34.761 46.6008 35.2099 46.9531C36.0139 47.6444 38.6461 48.3639 38.6461 48.3639V47.5574Z" fill="#F28F8F"/>
<path d="M33.2892 47.9155C32.9513 47.8464 32.6517 47.9949 32.3752 48.4609C32.0986 48.9269 31.4918 49.9204 31.4918 49.9204C31.4918 49.9204 31.1768 53.1952 31.4918 54.0171C31.7632 54.7238 34.7564 57.3739 34.7564 57.3739C34.7564 57.3739 33.9755 60.316 33.9473 61.2813C33.9191 62.2466 35.7396 65.9106 35.9598 67.7849C35.9598 67.7849 36.6076 61.8958 36.3285 59.7731C35.8472 56.0937 34.1214 51.3414 33.3072 49.8308L33.2892 47.9155Z" fill="#EBEBEB"/>
<path d="M35.1202 60.1037C34.9205 59.6283 34.6851 59.1687 34.4161 58.7287C33.991 58.0246 33.4661 57.3486 32.9924 57.1745C32.9206 57.146 32.8444 57.1304 32.7671 57.1284H32.7415C32.6635 57.1328 32.5871 57.1519 32.5162 57.1847C32.1424 57.3512 31.7481 57.8607 31.428 58.4471C31.1002 59.0359 30.8301 59.655 30.6214 60.2957C30.4985 60.6926 30.5523 61.535 30.6983 62.4978C30.985 64.3669 31.6226 66.7021 31.9785 67.163C32.2394 67.485 32.5476 67.7656 32.8926 67.9951C32.6813 68.1349 32.4534 68.2476 32.2141 68.3306C32.0787 68.3799 31.9357 68.4051 31.7916 68.4048V68.7402H31.8325C31.9848 68.7378 32.1358 68.7128 32.2806 68.666C32.6163 68.5571 32.9332 68.3973 33.2203 68.1923C33.5235 68.3728 33.8525 68.5058 34.1959 68.5866C34.3576 68.6254 34.5248 68.6358 34.6901 68.6173L34.6491 68.2845C34.5057 68.2966 34.3613 68.2854 34.2215 68.2512C33.9752 68.1869 33.7378 68.0923 33.5148 67.9695C33.8397 67.7109 34.1245 67.4054 34.3598 67.0631C34.5595 66.7584 34.8053 65.7086 34.9896 64.5026C35.1023 63.7831 35.1945 63.0099 35.2457 62.3057C35.302 61.3225 35.2764 60.4801 35.1202 60.1037ZM34.0627 66.8788C33.8225 67.2253 33.5276 67.5305 33.1896 67.7826C32.8305 67.5608 32.5104 67.2814 32.2422 66.9556C31.9094 66.5228 31.2948 64.244 31.0183 62.4465C30.8775 61.5376 30.8263 60.7515 30.9389 60.3982C31.1477 59.7497 31.4241 59.1249 31.7634 58.5341C32.1168 57.9247 32.4932 57.4766 32.7543 57.4664C33.0641 57.4664 33.566 58.0271 34.0346 58.7466C34.1293 58.8875 34.2189 59.0411 34.306 59.1947C34.497 59.5256 34.668 59.8676 34.8181 60.2189C34.9589 60.5672 34.9743 61.3532 34.9103 62.2673C34.8744 62.7794 34.8181 63.3146 34.7464 63.8471C34.5518 65.2375 34.2778 66.5408 34.0627 66.8711V66.8788Z" fill="#455A64"/>
<path d="M35.1486 68.4198C35.1526 68.5176 35.1275 68.6143 35.0764 68.6977C35.0254 68.7812 34.9508 68.8476 34.862 68.8886C34.7732 68.9296 34.6742 68.9434 34.5776 68.9281C34.481 68.9128 34.3911 68.8692 34.3193 68.8028C34.2474 68.7363 34.197 68.6501 34.1742 68.555C34.1514 68.4598 34.1574 68.3601 34.1914 68.2684C34.2254 68.1766 34.2858 68.097 34.365 68.0397C34.4443 67.9823 34.5387 67.9498 34.6365 67.9461C34.7671 67.9413 34.8944 67.9884 34.9904 68.0772C35.0864 68.166 35.1433 68.2892 35.1486 68.4198Z" fill="#263238"/>
<path d="M32.2788 68.5531C32.2833 68.6509 32.2587 68.7479 32.208 68.8317C32.1573 68.9154 32.0828 68.9823 31.9941 69.0237C31.9054 69.0651 31.8063 69.0792 31.7096 69.0642C31.6128 69.0492 31.5227 69.0058 31.4506 68.9395C31.3785 68.8732 31.3278 68.787 31.3048 68.6918C31.2818 68.5966 31.2877 68.4968 31.3215 68.4049C31.3554 68.313 31.4158 68.2333 31.4951 68.1758C31.5743 68.1183 31.6689 68.0856 31.7667 68.082C31.8313 68.0792 31.8958 68.0893 31.9565 68.1115C32.0172 68.1337 32.0729 68.1676 32.1205 68.2114C32.1681 68.2551 32.2065 68.3078 32.2337 68.3665C32.2609 68.4251 32.2762 68.4885 32.2788 68.5531Z" fill="#263238"/>
<path d="M35.2043 62.3005L34.9201 62.28C34.8911 62.2774 34.8643 62.2637 34.8452 62.2418C34.8261 62.2198 34.8162 62.1913 34.8177 62.1623C34.8766 61.2226 34.8459 60.5312 34.7306 60.2547C34.2339 59.041 33.1943 57.5201 32.7565 57.538C32.3186 57.5559 31.4122 59.1614 31.0179 60.4109C30.9283 60.6977 30.9565 61.389 31.0922 62.321C31.0966 62.3495 31.0898 62.3786 31.073 62.402C31.0562 62.4255 31.0309 62.4415 31.0026 62.4465L30.7209 62.49C30.6914 62.4936 30.6616 62.4854 30.6381 62.4672C30.6146 62.449 30.5993 62.4222 30.5954 62.3927C30.4392 61.348 30.4213 60.6311 30.5391 60.2598C30.7491 59.589 31.74 57.0771 32.736 57.0362C33.732 56.9952 34.9329 59.4123 35.1992 60.0652C35.3451 60.4237 35.3887 61.1406 35.3221 62.193C35.3201 62.2226 35.3068 62.2504 35.2848 62.2704C35.2629 62.2905 35.234 62.3012 35.2043 62.3005Z" fill="#0071CE"/>
<path d="M27.7629 51.123C26.0329 51.8447 25.4928 52.7706 25.0402 54.7032C24.6817 56.2371 24.0507 63.9555 23.7331 66.2678L16.249 65.6742C14.6518 65.3629 13.6713 64.1985 12.5534 63.7562C11.4355 63.3139 10.562 63.508 9.42612 63.2356C8.29023 62.9633 7.72369 62.6127 7.74059 63.3234C7.75749 64.034 9.13406 64.5953 9.42027 64.7581C9.70648 64.9209 10.8938 65.0423 9.66535 65.601C8.43689 66.1597 5.43002 65.947 4.73461 65.9796C4.0392 66.0122 4.38482 66.7079 4.8769 67.035C5.36898 67.3622 5.91632 68.6543 6.73622 69.182C7.60374 69.742 8.03961 69.9596 9.4292 69.962C10.7182 69.958 13.0764 69.1519 14.5431 69.3693C16.0098 69.5867 19.9741 70.8789 22.3755 71.6437C25.4288 72.6156 27.1065 72.305 27.829 70.6066C28.4773 68.8344 29.0478 66.8391 29.3144 65.8371C30.0318 63.1351 30.5594 57.4707 30.5594 57.4707C30.5594 57.4707 30.626 54.6477 27.7629 51.123Z" fill="#FFA8A7"/>
<path d="M27.9257 50.8484C25.3961 51.9529 25.0401 53.1979 24.6678 55.8777C24.2956 58.5575 23.615 66.0601 23.615 66.0601L17.7361 65.6429C17.7361 65.6429 17.7027 67.9149 17.641 70.2692C17.641 70.2692 21.3734 71.4335 23.1393 71.9841C24.9051 72.5346 26.9841 72.6635 27.9655 70.6174C29.0148 68.4326 31.181 58.5157 31.181 58.5157C31.4498 55.5989 29.6049 52.1604 27.9257 50.8484Z" fill="#F0F0F0"/>
<path d="M23.6151 66.06C24.7982 66.6387 26.1957 67.2607 26.5089 68.0934C26.5089 68.0934 26.7284 67.1371 23.686 65.2943L23.6151 66.06Z" fill="#E0E0E0"/>
</g>
</g>
<path d="M0.5 55.5C0.5 25.1243 25.1243 0.5 55.5 0.5H61C65.1421 0.5 68.5 3.85786 68.5 8V103C68.5 107.142 65.1421 110.5 61 110.5H55.5C25.1243 110.5 0.5 85.8757 0.5 55.5Z" stroke="#E7E9EC"/>
<defs>
<filter id="filter0_d_0_16563" x="2.34253" y="12.5" width="67.1914" height="93.5117" filterUnits="userSpaceOnUse" color-interpolation-filters="sRGB">
<feFlood flood-opacity="0" result="BackgroundImageFix"/>
<feColorMatrix in="SourceAlpha" type="matrix" values="0 0 0 0 0 0 0 0 0 0 0 0 0 0 0 0 0 0 127 0" result="hardAlpha"/>
<feOffset dy="2"/>
<feGaussianBlur stdDeviation="1"/>
<feComposite in2="hardAlpha" operator="out"/>
<feColorMatrix type="matrix" values="0 0 0 0 0 0 0 0 0 0 0 0 0 0 0 0 0 0 0.25 0"/>
<feBlend mode="normal" in2="BackgroundImageFix" result="effect1_dropShadow_0_16563"/>
<feBlend mode="normal" in="SourceGraphic" in2="effect1_dropShadow_0_16563" result="shape"/>
</filter>
<clipPath id="clip0_0_16563">
<path d="M0 55.5C0 24.8482 24.8482 0 55.5 0H61C65.4183 0 69 3.58172 69 8V103C69 107.418 65.4183 111 61 111H55.5C24.8482 111 0 86.1518 0 55.5Z" fill="white"/>
</clipPath>
</defs>
</svg>
