<svg width="69" height="111" viewBox="0 0 69 111" fill="none" xmlns="http://www.w3.org/2000/svg">
<path d="M0.5 55.5C0.5 25.1243 25.1243 0.5 55.5 0.5H68.5V110.5H55.5C25.1243 110.5 0.5 85.8757 0.5 55.5Z" fill="white"/>
<path d="M0.5 55.5C0.5 25.1243 25.1243 0.5 55.5 0.5H68.5V110.5H55.5C25.1243 110.5 0.5 85.8757 0.5 55.5Z" stroke="#E7E9EC"/>
<path d="M26.0924 25.2262V22.3213C26.1001 22.1625 26.1452 22.0078 26.224 21.8696C26.3028 21.7314 26.4131 21.6135 26.546 21.5255L39.5776 14.0434C39.8228 13.8994 40.0361 14.0166 40.0361 14.3071V17.2144C40.0361 17.5049 40.2421 17.6221 40.4946 17.4781L48.0219 13.1451C48.2671 12.9986 48.4804 13.1158 48.4804 13.4087V66.364C48.4717 66.5228 48.4256 66.6773 48.346 66.8151C48.2664 66.9529 48.1554 67.0701 48.0219 67.1574L8.4585 89.8989C8.21331 90.0454 8 89.9282 8 89.6353V36.68C8.00777 36.5228 8.05462 36.3701 8.13637 36.2354C8.21811 36.1008 8.33217 35.9885 8.46831 35.9086L25.6314 27.0082C25.8815 26.8618 26.0924 25.5167 26.0924 25.2262Z" fill="#455A64"/>
<path d="M11.4892 91.8071V43.5485C11.5049 42.9621 11.6739 42.39 11.9796 41.8885L9.84158 40.668C9.53003 41.1724 9.35438 41.7484 9.33159 42.3401V90.5768C9.32961 90.7905 9.38933 91.0003 9.50365 91.1812C9.61797 91.362 9.78207 91.5064 9.97643 91.5972C9.77538 91.4849 10.0132 91.6216 10.0353 91.6338C10.0573 91.646 11.6927 92.5883 12.036 92.7835C11.8665 92.6833 11.7266 92.5401 11.6306 92.3686C11.5345 92.1971 11.4858 92.0034 11.4892 91.8071Z" fill="#E0E0E0"/>
<path d="M53.6175 17.5275L13.1616 40.6498C12.6694 40.9589 12.263 41.3862 11.9798 41.8924L9.84668 40.6718C10.1244 40.1722 10.5263 39.752 11.0138 39.4512L51.4696 16.3265C51.96 16.0482 52.3768 16.0433 52.6956 16.2288C53.0143 16.4143 54.3923 17.2053 54.7453 17.3908C54.4462 17.2394 54.0441 17.2809 53.6175 17.5275Z" fill="#F0F0F0"/>
<path d="M19.7645 36.9183L18.232 35.1168C18.1846 35.0146 18.1067 34.9294 18.0089 34.8727C17.7147 34.6994 15.9273 33.6814 15.8317 33.6277C15.7575 33.5846 15.6745 33.5588 15.5888 33.5524C15.5032 33.5459 15.4172 33.559 15.3373 33.5905C15.2575 33.622 15.1859 33.6712 15.128 33.7343C15.07 33.7974 15.0273 33.8728 15.0029 33.9548L13.2866 38.1633L15.459 39.4059L19.7645 36.9183Z" fill="#E0E0E0"/>
<path d="M12.6392 92.8322C12.365 92.8322 12.1019 92.7241 11.9076 92.5315C11.7132 92.3389 11.6033 92.0775 11.6021 91.8045V43.5459C11.6334 42.9853 11.7969 42.4399 12.0793 41.9539C12.3617 41.4679 12.7551 41.0549 13.2276 40.7484L15.5275 39.4326C15.5479 39.4196 15.5641 39.4009 15.5741 39.3789L17.2904 35.229C17.3164 35.1332 17.3736 35.0486 17.453 34.9885C17.5324 34.9285 17.6296 34.8963 17.7293 34.897C17.8159 34.8967 17.9007 34.9214 17.9734 34.9682C18.0461 35.015 18.1035 35.0819 18.1387 35.1607C18.143 35.1705 18.1488 35.1795 18.1559 35.1875L19.6736 36.9573C19.684 36.9699 19.6971 36.9799 19.712 36.9867C19.7269 36.9935 19.7431 36.9968 19.7594 36.9964C19.7792 36.9965 19.7986 36.9915 19.8158 36.9817L53.6786 17.6187C53.8852 17.4901 54.1217 17.4169 54.3651 17.4064C54.4787 17.4044 54.5911 17.4286 54.6937 17.4772C54.7405 17.4964 54.7849 17.521 54.8261 17.5504C55.162 17.7701 55.189 18.1485 55.189 18.4853V66.7391C55.1567 67.3006 54.9918 67.8466 54.7076 68.3327C54.4234 68.8188 54.028 69.2313 53.5536 69.5366L15.856 91.1088L13.1124 92.7175C12.9663 92.7932 12.8039 92.8325 12.6392 92.8322Z" fill="#FAFAFA"/>
<path d="M54.3652 17.5239C54.4634 17.5227 54.5606 17.5435 54.6496 17.5849C54.6876 17.6015 54.7237 17.622 54.7575 17.646C55.0027 17.8144 55.064 18.0903 55.064 18.4833V66.7394C55.0338 67.2806 54.876 67.807 54.6034 68.2761C54.3308 68.7451 53.951 69.1437 53.4948 69.4393L15.7948 91.0115L13.0659 92.6129C12.9351 92.6816 12.7895 92.7176 12.6417 92.7179C12.3976 92.7172 12.1636 92.6208 11.9905 92.4493C11.8174 92.278 11.7193 92.0455 11.7173 91.8025V43.5463C11.7515 43.0064 11.9108 42.4818 12.1826 42.0134C12.4544 41.545 12.8314 41.1456 13.2841 40.8464L15.5839 39.5307C15.6263 39.5046 15.6596 39.4662 15.6795 39.4208L17.3959 35.2709C17.398 35.2637 17.398 35.2561 17.3959 35.2489C17.4151 35.1774 17.458 35.1144 17.5176 35.0701C17.5772 35.0258 17.6501 35.0028 17.7244 35.0048C17.7894 35.0039 17.8532 35.0222 17.9078 35.0574C17.9623 35.0926 18.0052 35.1431 18.0309 35.2025C18.0391 35.2216 18.0507 35.2389 18.0652 35.2538L19.5829 37.0236C19.604 37.0485 19.6303 37.0686 19.6599 37.0825C19.6895 37.0964 19.7218 37.1038 19.7546 37.1042C19.7944 37.1047 19.8336 37.0937 19.8673 37.0724L53.7326 17.7216C53.923 17.603 54.1408 17.5349 54.3652 17.5239ZM54.3652 17.2969C54.1043 17.3093 53.851 17.3883 53.6296 17.5264L19.7497 36.8869L18.2319 35.1171C18.1838 35.0131 18.1051 34.9262 18.0062 34.8678C17.9073 34.8095 17.7929 34.7825 17.6782 34.7904C17.5635 34.7984 17.4539 34.8409 17.3641 34.9123C17.2742 34.9838 17.2084 35.0807 17.1752 35.1903L15.4589 39.3402L13.1615 40.6536C12.6725 40.9713 12.2654 41.3992 11.9732 41.9026C11.681 42.4059 11.5119 42.9707 11.4795 43.5512V91.8049C11.4805 92.001 11.532 92.1936 11.6292 92.3642C11.7264 92.5348 11.866 92.6777 12.0346 92.7791C12.2032 92.8806 12.3951 92.9372 12.592 92.9436C12.7889 92.95 12.9842 92.9059 13.159 92.8155L15.9027 91.2068L53.6124 69.637C54.101 69.319 54.5076 68.891 54.7993 68.3877C55.0911 67.8843 55.2599 67.3197 55.292 66.7394V18.4906C55.292 18.1366 55.2626 17.7143 54.885 17.4653C54.8371 17.4322 54.7862 17.4036 54.7329 17.3799C54.6148 17.3246 54.4859 17.2963 54.3554 17.2969H54.3652Z" fill="#E0E0E0"/>
<path d="M16.7359 58.7349C17.6922 58.1856 18.4694 58.6324 18.4694 59.7333C18.4365 60.3323 18.2625 60.9151 17.9613 61.4346C17.6602 61.9541 17.2404 62.3957 16.7359 62.7237C15.7772 63.273 15 62.8262 15 61.7253C15.0329 61.1261 15.2073 60.543 15.5089 60.0235C15.8105 59.5039 16.2309 59.0624 16.7359 58.7349Z" fill="#66B4E9"/>
<path opacity="0.2" d="M36.2943 52.5255L17.7335 63.5123C17.229 63.8403 16.8092 64.2819 16.5081 64.8014C16.2069 65.3209 16.0329 65.9037 16 66.5027C16 67.6036 16.7772 68.0504 17.7335 67.4987L36.2919 56.5119C36.7972 56.1846 37.2178 55.7432 37.5194 55.2236C37.8211 54.704 37.9953 54.1208 38.0278 53.5215C38.0303 52.4206 37.253 51.9738 36.2943 52.5255Z" fill="#66B4E9"/>
<path opacity="0.2" d="M54.7838 37.0044L16.7432 58.7242C16.2412 59.0534 15.8242 59.4956 15.5261 60.0152C15.2279 60.5347 15.0568 61.1169 15.0269 61.7146C15.0269 62.8155 15.8016 63.2598 16.7603 62.7106L28.5121 55.9487C29.0134 55.6188 55.7015 40.2209 55.9996 39.7015C56.2977 39.1821 56.4691 38.6002 56.5001 38.0028C56.5001 36.9019 55.7326 36.4551 54.7838 37.0044Z" fill="#66B4E9"/>
<path d="M36.2945 52.5284C37.2532 51.9791 38.0304 52.4234 38.0304 53.5243C37.9979 54.1236 37.8237 54.7068 37.5221 55.2264C37.2204 55.7461 36.7998 56.1875 36.2945 56.5147C35.3383 57.0664 34.561 56.6197 34.561 55.5187C34.5939 54.9198 34.768 54.337 35.0691 53.8175C35.3703 53.2979 35.7901 52.8563 36.2945 52.5284Z" fill="#66B4E9"/>
<path d="M51.4789 47.0196C51.4642 47.0196 51.4544 47.0196 51.4446 47.0196C51.4393 47.0136 51.4352 47.0067 51.4327 46.9991C51.4302 46.9916 51.4292 46.9836 51.4299 46.9756V46.5948L50.8684 46.9122C50.8537 46.9122 50.8439 46.9122 50.8341 46.9122C50.8288 46.9062 50.8247 46.8993 50.8222 46.8917C50.8197 46.8842 50.8187 46.8762 50.8194 46.8682V46.7706C50.8174 46.7544 50.8174 46.738 50.8194 46.7218C50.8292 46.7023 50.8416 46.6843 50.8562 46.6681L51.4225 45.2034C51.4302 45.1801 51.4409 45.1579 51.4544 45.1375C51.4635 45.1204 51.4771 45.106 51.4937 45.096L51.5648 45.0569C51.5696 45.053 51.5757 45.0508 51.5819 45.0508C51.5882 45.0508 51.5943 45.053 51.5991 45.0569C51.6096 45.0691 51.6149 45.0849 51.6138 45.1009V46.2458L51.7658 46.1579C51.7708 46.1543 51.7768 46.1524 51.783 46.1524C51.7891 46.1524 51.7951 46.1543 51.8001 46.1579C51.8055 46.1638 51.8095 46.1708 51.812 46.1783C51.8146 46.1859 51.8155 46.1939 51.8148 46.2018V46.3019C51.8147 46.3223 51.8096 46.3424 51.8001 46.3605C51.7942 46.378 51.782 46.3928 51.7658 46.402L51.6138 46.4923V46.8707C51.6121 46.8917 51.6072 46.9123 51.5991 46.9317C51.5917 46.9484 51.5798 46.9627 51.5648 46.9732L51.4789 47.0196ZM51.4299 46.3483V45.5744L51.0425 46.5704L51.4299 46.3483Z" fill="#455A64"/>
<path d="M51.0082 58.9364C51.0085 58.8394 51.0242 58.743 51.0548 58.6508C51.0847 58.5544 51.1276 58.4624 51.1823 58.3774C51.136 58.3506 51.0999 58.3095 51.0793 58.2603C51.0529 58.1943 51.0404 58.1237 51.0425 58.0528C51.0426 57.976 51.0534 57.8996 51.0744 57.8257C51.1126 57.6727 51.1875 57.5311 51.2926 57.4132C51.3395 57.3589 51.395 57.3127 51.4569 57.2765C51.507 57.2447 51.5644 57.2262 51.6236 57.2228C51.6709 57.2212 51.7173 57.2349 51.756 57.2618C51.7962 57.2937 51.8267 57.3359 51.8443 57.3839C51.866 57.445 51.8768 57.5095 51.8762 57.5743C51.8745 57.6571 51.8613 57.7392 51.837 57.8184C51.8116 57.9033 51.7771 57.9851 51.734 58.0625C51.79 58.0889 51.835 58.1337 51.8615 58.1895C51.8941 58.2624 51.91 58.3416 51.9081 58.4214C51.9075 58.5039 51.896 58.586 51.8737 58.6655C51.8531 58.7504 51.8218 58.8325 51.7806 58.9096C51.7426 58.984 51.6948 59.053 51.6384 59.1147C51.5868 59.1742 51.5255 59.2246 51.4569 59.2636C51.4037 59.299 51.3418 59.3192 51.2779 59.3221C51.2271 59.3257 51.1766 59.311 51.1357 59.2806C51.0919 59.2482 51.0593 59.203 51.0425 59.1513C51.0171 59.0826 51.0054 59.0096 51.0082 58.9364ZM51.1799 58.8388C51.1779 58.878 51.1846 58.9172 51.1995 58.9535C51.2098 58.9827 51.2297 59.0076 51.2559 59.0243C51.2825 59.0399 51.3134 59.0467 51.3441 59.0439C51.3843 59.0397 51.4229 59.0264 51.4569 59.0048C51.4988 58.9804 51.5368 58.95 51.5697 58.9145C51.605 58.8777 51.6354 58.8367 51.6604 58.7924C51.6842 58.7491 51.7031 58.7032 51.7168 58.6557C51.7305 58.6106 51.7371 58.5637 51.7364 58.5166C51.7382 58.4774 51.7315 58.4383 51.7168 58.4018C51.705 58.3735 51.6854 58.349 51.6604 58.3311C51.633 58.3153 51.6012 58.3085 51.5697 58.3115C51.5301 58.3179 51.492 58.3311 51.4569 58.3506C51.415 58.3759 51.377 58.4072 51.3441 58.4433C51.3099 58.4794 51.2802 58.5196 51.2559 58.563C51.231 58.6058 51.2121 58.6518 51.1995 58.6997C51.1858 58.7448 51.1791 58.7917 51.1799 58.8388ZM51.2117 57.9551C51.2113 57.9903 51.218 58.0251 51.2313 58.0576C51.2408 58.0834 51.259 58.1049 51.2828 58.1187C51.3062 58.1332 51.3339 58.1392 51.3613 58.1358C51.3954 58.1334 51.4283 58.1225 51.4569 58.104C51.4938 58.0837 51.527 58.0573 51.555 58.0259C51.5849 57.9929 51.6112 57.9569 51.6335 57.9185C51.6549 57.8794 51.673 57.8386 51.6874 57.7964C51.6988 57.7559 51.7046 57.714 51.7045 57.6719C51.7063 57.6369 51.7004 57.602 51.6874 57.5694C51.6762 57.5434 51.6574 57.5213 51.6335 57.5059C51.6093 57.4935 51.5822 57.4876 51.555 57.4889C51.5203 57.4936 51.487 57.5053 51.4569 57.523C51.4212 57.5441 51.389 57.5704 51.3613 57.6012C51.3311 57.6338 51.3047 57.6699 51.2828 57.7086C51.2607 57.747 51.2434 57.788 51.2313 57.8306C51.2189 57.871 51.2123 57.9129 51.2117 57.9551Z" fill="#455A64"/>
<path d="M51.1014 65.521C51.0965 65.525 51.0905 65.5272 51.0842 65.5272C51.078 65.5272 51.0719 65.525 51.0671 65.521C51.0616 65.5152 51.0575 65.5082 51.0549 65.5007C51.0524 65.4931 51.0515 65.4851 51.0523 65.4771V65.0987L50.4909 65.4234C50.4859 65.427 50.4799 65.4289 50.4737 65.4289C50.4675 65.4289 50.4615 65.427 50.4565 65.4234C50.451 65.4171 50.4469 65.4097 50.4443 65.4017C50.4418 65.3938 50.441 65.3853 50.4418 65.377V65.2794C50.44 65.2632 50.44 65.2468 50.4418 65.2306C50.4461 65.2104 50.4527 65.1907 50.4614 65.172L51.0254 63.7073C51.0254 63.6829 51.0474 63.6609 51.0572 63.6414C51.0671 63.6255 51.0805 63.6121 51.0965 63.6023L51.1676 63.5608C51.1724 63.5569 51.1785 63.5547 51.1847 63.5547C51.191 63.5547 51.1971 63.5569 51.2019 63.5608C51.2072 63.5668 51.2113 63.5737 51.2138 63.5813C51.2163 63.5888 51.2173 63.5968 51.2166 63.6048V64.7521L51.3711 64.6642C51.3731 64.6621 51.3756 64.6604 51.3784 64.6592C51.3811 64.658 51.384 64.6574 51.387 64.6574C51.39 64.6574 51.393 64.658 51.3957 64.6592C51.3984 64.6604 51.4009 64.6621 51.403 64.6642C51.4086 64.67 51.4128 64.6769 51.4153 64.6845C51.4179 64.6921 51.4187 64.7002 51.4177 64.7082V64.8058C51.4175 64.827 51.4125 64.8479 51.403 64.8668C51.3971 64.8837 51.3859 64.8983 51.3711 64.9083L51.2166 64.9962V65.3746C51.2164 65.3958 51.2114 65.4166 51.2019 65.4356C51.1945 65.4523 51.1826 65.4666 51.1676 65.4771L51.1014 65.521ZM51.0523 64.8497V64.0759L50.6649 65.0719L51.0523 64.8497Z" fill="#E0E0E0"/>
<path d="M14.5513 54.6896L14.8897 53.5886C14.8897 53.5886 14.9044 53.5569 14.9142 53.53C14.9253 53.5046 14.9441 53.4832 14.9681 53.469L15.0883 53.4007C15.0931 53.3967 15.0992 53.3945 15.1054 53.3945C15.1117 53.3945 15.1178 53.3967 15.1226 53.4007C15.1281 53.407 15.1323 53.4144 15.1348 53.4223C15.1373 53.4303 15.1382 53.4387 15.1373 53.4471V55.212C15.1368 55.2331 15.1318 55.2539 15.1226 55.273C15.116 55.2895 15.1039 55.3033 15.0883 55.3121L14.9436 55.3975C14.9386 55.4011 14.9326 55.403 14.9265 55.403C14.9203 55.403 14.9143 55.4011 14.9093 55.3975C14.9036 55.3834 14.9036 55.3677 14.9093 55.3536V54.2795L14.6641 55.0313C14.6562 55.0514 14.6472 55.0709 14.6371 55.0899C14.6288 55.1095 14.6153 55.1264 14.5979 55.1387L14.5047 55.1925C14.4984 55.1961 14.4912 55.198 14.4839 55.198C14.4766 55.198 14.4694 55.1961 14.4631 55.1925C14.4522 55.1843 14.4437 55.1733 14.4385 55.1607L14.1933 54.6725V55.7441C14.1934 55.7654 14.1884 55.7863 14.1786 55.8052C14.1712 55.8219 14.1593 55.8362 14.1443 55.8467L13.9996 55.9297C13.9849 55.9297 13.9751 55.9297 13.9653 55.9297C13.9597 55.9239 13.9555 55.917 13.953 55.9094C13.9504 55.9018 13.9496 55.8937 13.9506 55.8857V54.1135C13.9511 54.0923 13.9561 54.0715 13.9653 54.0524C13.972 54.0353 13.984 54.0207 13.9996 54.011L14.1198 53.9426C14.1443 53.928 14.1615 53.928 14.1737 53.9426L14.1982 53.9719L14.5513 54.6896Z" fill="#455A64"/>
<path d="M15.3726 53.9545C15.377 53.8494 15.3901 53.7449 15.4118 53.642C15.4326 53.5416 15.4655 53.444 15.5099 53.3515C15.554 53.2641 15.6083 53.1821 15.6717 53.1074C15.736 53.0312 15.8132 52.9668 15.8997 52.917C15.9685 52.8742 16.0468 52.849 16.1277 52.8438C16.1883 52.8458 16.246 52.8702 16.2896 52.9121C16.3366 52.9625 16.3703 53.0237 16.3876 53.0903C16.4121 53.1778 16.4252 53.268 16.4269 53.3588C16.4269 53.393 16.4269 53.4321 16.4269 53.4736V53.7323C16.4269 53.7763 16.4269 53.8153 16.4269 53.8495C16.4236 53.9546 16.4105 54.0593 16.3876 54.162C16.3665 54.2631 16.3335 54.3614 16.2896 54.4549C16.2475 54.5435 16.193 54.6257 16.1277 54.699C16.0634 54.7752 15.9862 54.8396 15.8997 54.8894C15.832 54.9344 15.753 54.9598 15.6717 54.9626C15.6416 54.9632 15.6118 54.9577 15.5839 54.9463C15.5561 54.935 15.5309 54.9181 15.5099 54.8967C15.4615 54.8474 15.4275 54.7857 15.4118 54.7185C15.3887 54.6308 15.3756 54.5407 15.3726 54.45C15.3726 54.4158 15.3726 54.3792 15.3726 54.3377V54.0765C15.3726 54.0277 15.3726 53.9935 15.3726 53.9545ZM16.1841 53.5029C16.1883 53.4564 16.1831 53.4095 16.1688 53.3651C16.1545 53.3206 16.1313 53.2795 16.1008 53.2441C16.0517 53.2002 15.9831 53.2026 15.8997 53.2441C15.8113 53.2969 15.7412 53.3752 15.6987 53.4687C15.6452 53.5792 15.6168 53.7 15.6153 53.8226C15.6153 53.8934 15.6153 53.9716 15.6153 54.0545C15.6153 54.1375 15.6153 54.2181 15.6153 54.2865C15.611 54.3326 15.6162 54.3791 15.6305 54.4231C15.6449 54.4672 15.668 54.5079 15.6987 54.5428C15.7501 54.5843 15.8163 54.5818 15.8997 54.5428C15.9884 54.4915 16.0587 54.4138 16.1008 54.3206C16.1542 54.211 16.1827 54.091 16.1841 53.9691C16.1841 53.8959 16.1841 53.8202 16.1841 53.725C16.1841 53.6298 16.1866 53.5712 16.1841 53.5053V53.5029Z" fill="#455A64"/>
<path d="M17.4763 53.9512C17.4567 53.9512 17.4395 53.9512 17.4297 53.9512L17.4052 53.9268L16.9148 53.0724V54.2051C16.9146 54.2255 16.9096 54.2456 16.9001 54.2637C16.8942 54.2812 16.8819 54.296 16.8658 54.3052L16.7211 54.3882C16.7163 54.3922 16.7102 54.3943 16.704 54.3943C16.6977 54.3943 16.6916 54.3922 16.6868 54.3882C16.6815 54.3822 16.6774 54.3753 16.6749 54.3677C16.6724 54.3602 16.6714 54.3522 16.6721 54.3442V52.5695C16.6726 52.5484 16.6776 52.5276 16.6868 52.5085C16.6943 52.4925 16.7062 52.479 16.7211 52.4695L16.8462 52.3962C16.8658 52.384 16.8829 52.384 16.8928 52.3962L16.9173 52.4206L17.4076 53.275V52.1448C17.4078 52.1236 17.4128 52.1027 17.4224 52.0838C17.429 52.0666 17.4411 52.0521 17.4567 52.0423L17.6013 51.9593C17.6062 51.9553 17.6122 51.9531 17.6185 51.9531C17.6248 51.9531 17.6308 51.9553 17.6357 51.9593C17.641 51.9652 17.645 51.9722 17.6476 51.9797C17.6501 51.9873 17.6511 51.9953 17.6504 52.0032V53.7755C17.6502 53.7967 17.6452 53.8175 17.6357 53.8365C17.6282 53.8532 17.6164 53.8675 17.6013 53.878L17.4763 53.9512Z" fill="#455A64"/>
<path d="M20.9089 50.053C20.9137 50.049 20.9198 50.0469 20.9261 50.0469C20.9323 50.0469 20.9384 50.049 20.9432 50.053C20.9485 50.059 20.9526 50.0659 20.9551 50.0735C20.9577 50.081 20.9586 50.089 20.9579 50.097V50.2922C20.9574 50.3134 20.9524 50.3342 20.9432 50.3533C20.9351 50.3695 20.9234 50.3837 20.9089 50.3948L20.5852 50.5803V52.084C20.5887 52.1034 20.5887 52.1232 20.5852 52.1426C20.5786 52.1598 20.5665 52.1743 20.5509 52.1841L20.4063 52.2671C20.4017 52.2716 20.3955 52.2741 20.3891 52.2741C20.3827 52.2741 20.3765 52.2716 20.3719 52.2671C20.3666 52.2612 20.3626 52.2542 20.36 52.2467C20.3575 52.2391 20.3565 52.2311 20.3572 52.2232V50.7194L20.0336 50.905C20.0287 50.9089 20.0227 50.9111 20.0164 50.9111C20.0102 50.9111 20.0041 50.9089 19.9992 50.905C19.9944 50.8907 19.9944 50.8753 19.9992 50.861V50.6657C19.9958 50.6464 19.9958 50.6265 19.9992 50.6072C20.0059 50.59 20.0179 50.5754 20.0336 50.5657L20.9089 50.053Z" fill="#455A64"/>
<path d="M22.1056 49.3649C22.1106 49.3613 22.1166 49.3594 22.1227 49.3594C22.1289 49.3594 22.1349 49.3613 22.1399 49.3649C22.1486 49.3779 22.1528 49.3932 22.1521 49.4088V50.5342C22.1529 50.644 22.1423 50.7536 22.1203 50.8613C22.0992 50.9613 22.0671 51.0587 22.0246 51.1518C21.9815 51.2398 21.9271 51.3218 21.8628 51.3959C21.7982 51.4672 21.7229 51.5281 21.6397 51.5765C21.5726 51.6213 21.4947 51.6474 21.4141 51.6522C21.3849 51.6538 21.3557 51.6495 21.3283 51.6394C21.3009 51.6293 21.2759 51.6137 21.2548 51.5936C21.2058 51.5431 21.1726 51.4795 21.1591 51.4105C21.1357 51.3164 21.125 51.2195 21.1273 51.1225V49.9971C21.1274 49.9759 21.1325 49.9551 21.142 49.9361C21.1486 49.9189 21.1607 49.9044 21.1763 49.8946L21.321 49.8116C21.3258 49.8076 21.3319 49.8055 21.3381 49.8055C21.3444 49.8055 21.3504 49.8076 21.3553 49.8116C21.3606 49.8175 21.3647 49.8245 21.3672 49.8321C21.3697 49.8396 21.3707 49.8476 21.37 49.8555V50.9663C21.3681 51.0278 21.3739 51.0892 21.3872 51.1493C21.3965 51.1864 21.4161 51.2202 21.4435 51.247C21.4678 51.266 21.4986 51.2748 21.5294 51.2714C21.5683 51.2653 21.6057 51.2521 21.6397 51.2323C21.6808 51.2089 21.718 51.1792 21.75 51.1445C21.7852 51.1078 21.8142 51.0658 21.8358 51.02C21.8612 50.9688 21.8802 50.9147 21.8922 50.8588C21.9068 50.7915 21.9133 50.7227 21.9119 50.6538V49.5431C21.912 49.5219 21.9171 49.501 21.9266 49.482C21.934 49.4654 21.9459 49.451 21.9609 49.4406L22.1056 49.3649Z" fill="#455A64"/>
<path d="M23.258 50.2806C23.263 50.277 23.269 50.2751 23.2752 50.2751C23.2814 50.2751 23.2874 50.277 23.2924 50.2806C23.2977 50.2865 23.3017 50.2935 23.3043 50.301C23.3068 50.3086 23.3077 50.3166 23.3071 50.3245V50.5198C23.3069 50.541 23.3019 50.5619 23.2924 50.5808C23.2849 50.5975 23.2731 50.6119 23.258 50.6223L22.471 51.0739C22.4661 51.0779 22.4601 51.0801 22.4538 51.0801C22.4476 51.0801 22.4415 51.0779 22.4367 51.0739C22.428 51.061 22.4237 51.0456 22.4244 51.03V49.2578C22.4247 49.2368 22.4288 49.2161 22.4367 49.1967C22.4441 49.18 22.456 49.1657 22.471 49.1552L23.2433 48.7109C23.258 48.7109 23.2678 48.7109 23.2776 48.7109C23.283 48.7169 23.287 48.7238 23.2895 48.7314C23.2921 48.739 23.293 48.7469 23.2924 48.7549V48.9502C23.2922 48.9714 23.2872 48.9922 23.2776 49.0112C23.271 49.0283 23.2589 49.0429 23.2433 49.0527L22.6598 49.3871V49.8241L23.1992 49.5141C23.204 49.5101 23.2101 49.5079 23.2164 49.5079C23.2226 49.5079 23.2287 49.5101 23.2335 49.5141C23.2388 49.52 23.2429 49.527 23.2454 49.5345C23.2479 49.5421 23.2489 49.5501 23.2482 49.558V49.7533C23.248 49.7737 23.243 49.7938 23.2335 49.8119C23.2269 49.829 23.2148 49.8436 23.1992 49.8534L22.6598 50.1634V50.6199L23.258 50.2806Z" fill="#455A64"/>
<path d="M26.3378 47.9445L26.1833 48.855C26.1833 48.8843 26.1759 48.9111 26.1612 48.9356C26.1529 48.9558 26.1383 48.973 26.1195 48.9844L25.9749 49.0674C25.9577 49.0674 25.943 49.0674 25.9332 49.0674C25.9212 49.0508 25.9137 49.0315 25.9111 49.0112L25.6831 47.4123C25.6831 47.4123 25.6831 47.3976 25.6831 47.3903C25.6833 47.3699 25.6883 47.3498 25.6978 47.3317C25.7045 47.3146 25.7165 47.3 25.7321 47.2902L25.8645 47.2121C25.8699 47.2097 25.8758 47.2084 25.8817 47.2084C25.8876 47.2084 25.8935 47.2097 25.8989 47.2121C25.8989 47.2121 25.916 47.2317 25.9209 47.2585L26.0705 48.335L26.2029 47.527C26.2067 47.5062 26.2125 47.4858 26.2201 47.466C26.2284 47.4423 26.2449 47.4224 26.2667 47.4099L26.4113 47.3269C26.4334 47.3269 26.4505 47.3269 26.4579 47.3269C26.4663 47.3394 26.4721 47.3535 26.4751 47.3684L26.6075 48.025L26.757 46.7727C26.7603 46.7488 26.7678 46.7257 26.7791 46.7044C26.7879 46.69 26.7996 46.6775 26.8134 46.6678L26.9458 46.5921C26.9506 46.5881 26.9567 46.5859 26.963 46.5859C26.9692 46.5859 26.9753 46.5881 26.9801 46.5921C26.9857 46.5978 26.99 46.6048 26.9925 46.6124C26.995 46.62 26.9959 46.6281 26.9949 46.636C26.9958 46.6433 26.9958 46.6507 26.9949 46.658L26.7668 48.523C26.7624 48.5498 26.755 48.576 26.7448 48.6011C26.7358 48.6216 26.7214 48.6393 26.7031 48.6524L26.5584 48.7354C26.5526 48.7404 26.5452 48.7431 26.5376 48.7431C26.5299 48.7431 26.5225 48.7404 26.5167 48.7354C26.5073 48.7176 26.4999 48.6987 26.4947 48.6792L26.3378 47.9445Z" fill="#455A64"/>
<path d="M28.0269 47.5445C28.029 47.5424 28.0315 47.5407 28.0342 47.5395C28.0369 47.5384 28.0399 47.5378 28.0429 47.5378C28.0458 47.5378 28.0488 47.5384 28.0515 47.5395C28.0543 47.5407 28.0567 47.5424 28.0588 47.5445C28.0644 47.5503 28.0686 47.5572 28.0712 47.5648C28.0737 47.5724 28.0745 47.5805 28.0735 47.5885V47.7838C28.0733 47.8042 28.0683 47.8243 28.0588 47.8424C28.0537 47.8596 28.0423 47.8744 28.0269 47.8839L27.2399 48.3355C27.235 48.3394 27.229 48.3416 27.2227 48.3416C27.2165 48.3416 27.2104 48.3394 27.2056 48.3355C27.2 48.3297 27.1957 48.3228 27.1932 48.3151C27.1907 48.3075 27.1898 48.2995 27.1908 48.2915V46.5193C27.1913 46.4981 27.1964 46.4773 27.2056 46.4582C27.213 46.4415 27.2249 46.4272 27.2399 46.4167L28.0122 45.9749C28.0171 45.9709 28.0231 45.9688 28.0294 45.9688C28.0356 45.9688 28.0417 45.9709 28.0465 45.9749C28.0465 45.9749 28.0588 45.9969 28.0588 46.0188V46.2117C28.0598 46.2327 28.0556 46.2537 28.0465 46.2727C28.0391 46.2894 28.0273 46.3037 28.0122 46.3142L27.4336 46.6462V47.0832L27.973 46.7731C27.978 46.7696 27.984 46.7676 27.9902 46.7676C27.9963 46.7676 28.0023 46.7696 28.0073 46.7731C28.016 46.7861 28.0203 46.8015 28.0196 46.8171V47.0124C28.0191 47.0333 28.0149 47.0539 28.0073 47.0734C27.9999 47.0901 27.988 47.1044 27.973 47.1149L27.4336 47.4249V47.8912L28.0269 47.5445Z" fill="#455A64"/>
<path d="M28.7896 45.5278C28.8583 45.4823 28.9377 45.4554 29.02 45.4497C29.0496 45.4477 29.0793 45.4519 29.1072 45.462C29.135 45.4721 29.1605 45.4879 29.1819 45.5083C29.2316 45.558 29.2664 45.6206 29.2824 45.6889C29.3082 45.7829 29.3222 45.8796 29.3241 45.977C29.3241 46.1112 29.3241 46.2455 29.3241 46.3846C29.3205 46.498 29.3065 46.6107 29.2824 46.7215C29.2612 46.8234 29.2283 46.9225 29.1843 47.0169C29.1414 47.105 29.087 47.1871 29.0225 47.261C28.9592 47.3343 28.8837 47.3962 28.7994 47.4441L28.3482 47.7028C28.3335 47.7028 28.3237 47.7028 28.3139 47.7028C28.3066 47.6957 28.3013 47.6867 28.2987 47.6768C28.2961 47.6669 28.2963 47.6565 28.2992 47.6467V45.8744C28.2994 45.8533 28.3044 45.8324 28.3139 45.8134C28.3206 45.7963 28.3326 45.7817 28.3482 45.7719L28.7896 45.5278ZM29.0838 46.1161C29.0824 46.0658 29.0749 46.0158 29.0617 45.9672C29.0528 45.9292 29.0332 45.8945 29.0053 45.8671C28.9931 45.8551 28.9785 45.8456 28.9625 45.8393C28.9465 45.833 28.9294 45.83 28.9122 45.8305C28.8651 45.836 28.8199 45.8518 28.7798 45.8769L28.5346 46.0136V47.2488L28.7798 47.1072C28.8275 47.0791 28.8705 47.0436 28.9073 47.0022C28.9431 46.9603 28.9729 46.9134 28.9955 46.8631C29.0213 46.8112 29.0402 46.7562 29.0519 46.6995C29.0641 46.6417 29.0715 46.5829 29.074 46.5238C29.0862 46.3846 29.0862 46.2504 29.0813 46.1161H29.0838Z" fill="#455A64"/>
<path d="M32.5188 43.3789C32.5336 43.3789 32.5434 43.3789 32.5532 43.3789C32.5586 43.3848 32.5628 43.3917 32.5653 43.3993C32.5678 43.4069 32.5687 43.4149 32.5679 43.4228V43.6181C32.5677 43.6385 32.5627 43.6586 32.5532 43.6767C32.5472 43.6943 32.535 43.709 32.5188 43.7182L32.1977 43.9037V45.4075C32.1978 45.4287 32.1927 45.4496 32.1829 45.4685C32.1755 45.4852 32.1636 45.4995 32.1486 45.51L32.004 45.593C31.9991 45.597 31.9931 45.5991 31.9868 45.5991C31.9805 45.5991 31.9745 45.597 31.9696 45.593C31.964 45.5872 31.9598 45.5803 31.9573 45.5727C31.9547 45.5651 31.9539 45.557 31.9549 45.5491V44.0453L31.6337 44.2309C31.619 44.2309 31.6092 44.2309 31.5994 44.2309C31.5941 44.2249 31.59 44.218 31.5875 44.2104C31.585 44.2028 31.584 44.1949 31.5847 44.1869V43.9819C31.5849 43.9615 31.5899 43.9414 31.5994 43.9233C31.6054 43.9057 31.6176 43.891 31.6337 43.8818L32.5188 43.3789Z" fill="#455A64"/>
<path d="M33.7224 42.6891C33.7274 42.6855 33.7334 42.6836 33.7395 42.6836C33.7457 42.6836 33.7517 42.6855 33.7567 42.6891C33.762 42.695 33.7661 42.702 33.7686 42.7096C33.7711 42.7171 33.7721 42.7251 33.7714 42.733V44.5077C33.7709 44.5289 33.7659 44.5497 33.7567 44.5688C33.7493 44.5854 33.7374 44.5998 33.7224 44.6103L33.5777 44.6933C33.5729 44.6972 33.5668 44.6994 33.5605 44.6994C33.5543 44.6994 33.5482 44.6972 33.5434 44.6933C33.538 44.6873 33.534 44.6804 33.5315 44.6728C33.5289 44.6652 33.528 44.6572 33.5287 44.6493V43.917L32.9892 44.227V44.9593C32.9891 44.9805 32.984 45.0014 32.9745 45.0204C32.9671 45.0371 32.9552 45.0514 32.9402 45.0619L32.7955 45.1449C32.7808 45.1449 32.771 45.1449 32.7612 45.1449C32.7556 45.1391 32.7514 45.1322 32.7489 45.1246C32.7463 45.117 32.7455 45.1089 32.7465 45.1009V43.3238C32.7464 43.3026 32.7515 43.2816 32.7612 43.2628C32.7679 43.2456 32.7799 43.2311 32.7955 43.2213L32.9402 43.1383C32.945 43.1343 32.9511 43.1321 32.9574 43.1321C32.9636 43.1321 32.9697 43.1343 32.9745 43.1383C32.9799 43.1442 32.9839 43.1512 32.9864 43.1587C32.989 43.1663 32.9899 43.1743 32.9892 43.1822V43.8877L33.5287 43.5752V42.8697C33.5288 42.8493 33.5339 42.8292 33.5434 42.8111C33.55 42.794 33.5621 42.7794 33.5777 42.7696L33.7224 42.6891Z" fill="#455A64"/>
<path d="M35.0196 41.9436C35.0244 41.9397 35.0305 41.9375 35.0368 41.9375C35.043 41.9375 35.0491 41.9397 35.0539 41.9436C35.0635 41.9563 35.0687 41.9717 35.0687 41.9876V43.1129C35.0687 43.2229 35.0572 43.3325 35.0343 43.44C35.0143 43.5404 34.9822 43.6379 34.9387 43.7305C34.8956 43.8185 34.8412 43.9006 34.7769 43.9747C34.7123 44.0459 34.637 44.1068 34.5538 44.1553C34.486 44.1986 34.4085 44.2246 34.3282 44.231C34.299 44.2326 34.2698 44.2282 34.2424 44.2182C34.215 44.2081 34.1899 44.1925 34.1688 44.1724C34.1199 44.1218 34.0866 44.0582 34.0732 43.9893C34.0498 43.8951 34.039 43.7982 34.0413 43.7012V42.5759C34.0415 42.5547 34.0465 42.5338 34.056 42.5149C34.0627 42.4977 34.0747 42.4832 34.0904 42.4734L34.235 42.3904C34.2398 42.3864 34.2459 42.3842 34.2522 42.3842C34.2584 42.3842 34.2645 42.3864 34.2693 42.3904C34.2747 42.3963 34.2787 42.4033 34.2812 42.4108C34.2838 42.4184 34.2847 42.4264 34.2841 42.4343V43.545C34.2814 43.6059 34.288 43.6668 34.3037 43.7257C34.3123 43.7632 34.3309 43.7978 34.3576 43.8257C34.3819 43.8448 34.4127 43.8536 34.4434 43.8502C34.4823 43.8441 34.5197 43.8308 34.5538 43.8111C34.5963 43.7921 34.6366 43.7683 34.6739 43.7403C34.7091 43.7037 34.7381 43.6617 34.7597 43.6158C34.7862 43.5651 34.8052 43.5108 34.8161 43.4547C34.8315 43.3874 34.8389 43.3186 34.8382 43.2496V42.1292C34.8372 42.1081 34.8414 42.0872 34.8504 42.0681C34.8579 42.0514 34.8697 42.0371 34.8848 42.0266L35.0196 41.9436Z" fill="#455A64"/>
<path d="M38.7855 39.7793C38.7899 39.7755 38.7956 39.7734 38.8014 39.7734C38.8073 39.7734 38.8129 39.7755 38.8174 39.7793C38.8227 39.7852 38.8267 39.7922 38.8293 39.7998C38.8318 39.8073 38.8328 39.8153 38.8321 39.8232V40.0185C38.8319 40.0397 38.8269 40.0606 38.8174 40.0796C38.8115 40.0964 38.8003 40.111 38.7855 40.1211L38.2142 40.4482V40.9828L38.7487 40.6727C38.7535 40.6688 38.7596 40.6666 38.7659 40.6666C38.7721 40.6666 38.7782 40.6688 38.783 40.6727C38.7886 40.6785 38.7929 40.6855 38.7954 40.6931C38.7979 40.7007 38.7988 40.7087 38.7978 40.7167V40.9095C38.7979 40.9308 38.7928 40.9517 38.783 40.9706C38.7756 40.9873 38.7637 41.0016 38.7487 41.0121L38.2142 41.3196V41.9495C38.214 41.9699 38.209 41.9899 38.1995 42.008C38.1928 42.0252 38.1808 42.0397 38.1652 42.0495L38.0205 42.1325C38.0159 42.137 38.0098 42.1395 38.0033 42.1395C37.9969 42.1395 37.9908 42.137 37.9862 42.1325C37.9808 42.1271 37.9767 42.1206 37.9741 42.1134C37.9716 42.1063 37.9707 42.0986 37.9715 42.091V40.3212C37.972 40.3001 37.977 40.2793 37.9862 40.2602C37.9935 40.2434 38.0054 40.2291 38.0205 40.2187L38.7855 39.7793Z" fill="#455A64"/>
<path d="M39.5507 39.3443C39.7003 39.2589 39.8131 39.2466 39.8915 39.3077C39.9372 39.3581 39.9712 39.4179 39.9911 39.4829C40.0111 39.5478 40.0164 39.6164 40.0068 39.6836C40.0076 39.8113 39.9877 39.9382 39.9479 40.0595C39.9103 40.1735 39.8503 40.2789 39.7714 40.3696L40.0166 40.9066C40.0177 40.9155 40.0177 40.9245 40.0166 40.9335C40.02 40.9496 40.02 40.9662 40.0166 40.9823C40.0109 40.9959 40.0016 41.0077 39.9896 41.0165L39.8376 41.1043C39.8131 41.1165 39.7959 41.119 39.7837 41.1043C39.7745 41.0937 39.7663 41.0823 39.7591 41.0702L39.5262 40.5649L39.281 40.7016V41.3411C39.2805 41.3623 39.2755 41.3831 39.2663 41.4022C39.2589 41.4188 39.247 41.4332 39.232 41.4437L39.0873 41.5267C39.0726 41.5267 39.0628 41.5267 39.053 41.5267C39.0477 41.5207 39.0436 41.5138 39.0411 41.5062C39.0386 41.4986 39.0376 41.4906 39.0383 41.4827V39.708C39.0385 39.6876 39.0435 39.6675 39.053 39.6494C39.0597 39.6323 39.0717 39.6177 39.0873 39.6079L39.5507 39.3443ZM39.2835 40.3622L39.5287 40.2133C39.5941 40.1769 39.6504 40.1259 39.6929 40.0644C39.7373 39.9909 39.7586 39.9059 39.7542 39.8203C39.7542 39.7178 39.7322 39.6592 39.6929 39.6494C39.6348 39.6412 39.5758 39.6561 39.5287 39.6909L39.2835 39.8398V40.3622Z" fill="#455A64"/>
<path d="M40.2886 40.836C40.2838 40.84 40.2777 40.8421 40.2714 40.8421C40.2652 40.8421 40.2591 40.84 40.2543 40.836C40.2488 40.8301 40.2447 40.8232 40.2422 40.8156C40.2396 40.808 40.2387 40.8 40.2396 40.792V39.0198C40.2397 38.9986 40.2448 38.9777 40.2543 38.9588C40.2617 38.9421 40.2736 38.9277 40.2886 38.9173L40.4333 38.8343C40.4381 38.8303 40.4442 38.8281 40.4504 38.8281C40.4567 38.8281 40.4628 38.8303 40.4676 38.8343C40.4729 38.8402 40.477 38.8472 40.4795 38.8547C40.482 38.8623 40.483 38.8703 40.4823 38.8782V40.6505C40.4824 40.6717 40.4774 40.6926 40.4676 40.7115C40.4602 40.7282 40.4483 40.7425 40.4333 40.753L40.2886 40.836Z" fill="#455A64"/>
<path d="M44.0056 36.7514C44.0695 36.712 44.1417 36.6878 44.2165 36.6806C44.2698 36.676 44.3232 36.6888 44.3685 36.7172C44.4088 36.7449 44.441 36.7828 44.4617 36.8271C44.4817 36.8744 44.4933 36.9247 44.496 36.976C44.4961 36.9972 44.4911 37.0182 44.4813 37.037C44.4739 37.0537 44.462 37.0681 44.447 37.0785L44.3219 37.1493C44.3147 37.153 44.3067 37.1549 44.2986 37.1549C44.2905 37.1549 44.2826 37.153 44.2753 37.1493C44.2639 37.141 44.2547 37.1302 44.2484 37.1176C44.2409 37.1003 44.2298 37.0849 44.2159 37.0723C44.2019 37.0596 44.1854 37.0501 44.1675 37.0443C44.1391 37.0401 44.1101 37.0415 44.0823 37.0487C44.0545 37.0558 44.0284 37.0684 44.0056 37.0858C43.9731 37.1034 43.9434 37.1256 43.9174 37.1518C43.8889 37.1775 43.8641 37.2071 43.8438 37.2396C43.8027 37.2987 43.779 37.368 43.7752 37.4398C43.7726 37.4717 43.7786 37.5037 43.7923 37.5326C43.7985 37.5429 43.8071 37.5516 43.8173 37.558C43.8275 37.5643 43.8391 37.5682 43.8512 37.5692C43.8861 37.5748 43.9217 37.5748 43.9566 37.5692L44.1209 37.5326C44.1813 37.5149 44.2442 37.5066 44.3072 37.5082C44.3533 37.5089 44.398 37.5243 44.4347 37.5521C44.4693 37.582 44.4948 37.6209 44.5083 37.6644C44.5245 37.7249 44.5319 37.7873 44.5303 37.8499C44.5305 37.9325 44.519 38.0147 44.496 38.094C44.4721 38.1794 44.4375 38.2614 44.393 38.3381C44.3479 38.4152 44.2935 38.4865 44.2312 38.5505C44.1663 38.6161 44.0929 38.6727 44.013 38.719C43.9544 38.7551 43.8896 38.78 43.8217 38.7922C43.7675 38.8027 43.7114 38.7976 43.6599 38.7775C43.6116 38.7573 43.5718 38.7211 43.5471 38.675C43.5147 38.6159 43.4979 38.5495 43.4981 38.4822C43.4935 38.4621 43.4935 38.4412 43.4981 38.4211C43.5063 38.4049 43.5191 38.3913 43.5349 38.3821L43.6599 38.3088C43.6671 38.3052 43.6751 38.3033 43.6832 38.3033C43.6913 38.3033 43.6993 38.3052 43.7065 38.3088C43.7196 38.3164 43.7292 38.3286 43.7335 38.343C43.7414 38.3619 43.7512 38.3799 43.7629 38.3967C43.7746 38.4136 43.792 38.4257 43.8119 38.4309C43.8369 38.4372 43.863 38.4372 43.8879 38.4309C43.9281 38.4214 43.9663 38.4049 44.0007 38.3821C44.0379 38.3616 44.0731 38.3379 44.1062 38.3113C44.1385 38.284 44.1673 38.2528 44.192 38.2185C44.2179 38.187 44.2386 38.1516 44.2533 38.1136C44.2701 38.0759 44.2784 38.0351 44.2778 37.9939C44.2798 37.9635 44.2711 37.9333 44.2533 37.9085C44.2312 37.8927 44.2044 37.8849 44.1773 37.8865C44.1342 37.8905 44.0916 37.8978 44.0498 37.9085L43.8757 37.9451C43.8236 37.9519 43.7708 37.9519 43.7188 37.9451C43.6777 37.9411 43.6389 37.924 43.6084 37.8963C43.5758 37.8642 43.5528 37.8236 43.5422 37.7791C43.528 37.7134 43.5214 37.6462 43.5226 37.579C43.5236 37.4965 43.5352 37.4144 43.5569 37.3348C43.6024 37.1718 43.6865 37.0219 43.8021 36.8979C43.8622 36.8392 43.9308 36.7898 44.0056 36.7514Z" fill="#455A64"/>
<path d="M45.3078 36.0312C45.3249 36.0312 45.3397 36.0312 45.3495 36.0312C45.3623 36.0476 45.3707 36.0669 45.374 36.0874L45.8129 37.5692C45.8142 37.5748 45.8142 37.5806 45.8129 37.5862C45.8127 37.6074 45.8077 37.6283 45.7982 37.6473C45.7915 37.6644 45.7795 37.679 45.7638 37.6888L45.6363 37.762C45.6118 37.7767 45.5946 37.7767 45.5848 37.762C45.5765 37.7517 45.5699 37.7402 45.5652 37.7278L45.4892 37.4666L44.9228 37.7913L44.8468 38.1404C44.8468 38.1575 44.8346 38.177 44.8272 38.1965C44.8162 38.2194 44.7982 38.2382 44.7757 38.2502L44.6482 38.3235C44.6335 38.3235 44.6237 38.3235 44.6139 38.3235C44.6086 38.3175 44.6045 38.3106 44.602 38.303C44.5995 38.2955 44.5985 38.2875 44.5992 38.2795C44.5978 38.2731 44.5978 38.2664 44.5992 38.26L45.0381 36.2729C45.0419 36.2434 45.0502 36.2146 45.0626 36.1875C45.0717 36.1683 45.0862 36.1522 45.1043 36.1411L45.3078 36.0312ZM45.4059 37.181L45.2073 36.5122L45.0111 37.4056L45.4059 37.181Z" fill="#455A64"/>
<path d="M46.6883 35.2405C46.6931 35.2365 46.6992 35.2344 46.7054 35.2344C46.7117 35.2344 46.7178 35.2365 46.7226 35.2405C46.7282 35.2463 46.7324 35.2532 46.735 35.2608C46.7375 35.2684 46.7383 35.2765 46.7373 35.2845V35.4773C46.7374 35.4985 46.7324 35.5195 46.7226 35.5383C46.7152 35.555 46.7033 35.5694 46.6883 35.5798L46.3646 35.7654V37.2691C46.3653 37.2901 46.3611 37.311 46.3524 37.3301C46.3449 37.3468 46.3331 37.3612 46.318 37.3716L46.1734 37.4546C46.1587 37.4546 46.1489 37.4546 46.1391 37.4546C46.1337 37.4487 46.1297 37.4417 46.1272 37.4342C46.1246 37.4266 46.1237 37.4186 46.1243 37.4107V35.9069L45.8007 36.0925C45.7986 36.0946 45.7962 36.0963 45.7934 36.0975C45.7907 36.0986 45.7877 36.0992 45.7848 36.0992C45.7818 36.0992 45.7788 36.0986 45.7761 36.0975C45.7734 36.0963 45.7709 36.0946 45.7688 36.0925C45.7635 36.0865 45.7595 36.0796 45.7569 36.072C45.7544 36.0645 45.7534 36.0565 45.7541 36.0485V35.8532C45.7546 35.8321 45.7596 35.8113 45.7688 35.7922C45.7747 35.7753 45.7859 35.7608 45.8007 35.7507L46.6883 35.2405Z" fill="#455A64"/>
<path d="M49.6501 33.5052C49.7131 33.4638 49.7857 33.4394 49.861 33.4344C49.9139 33.4303 49.9669 33.4422 50.013 33.4685C50.0544 33.495 50.0869 33.5333 50.1062 33.5784C50.1259 33.6258 50.1375 33.6761 50.1405 33.7273C50.1417 33.7483 50.1374 33.7693 50.1282 33.7883C50.1206 33.8057 50.1078 33.8202 50.0915 33.8298L49.9664 33.9031C49.9468 33.9031 49.9321 33.9177 49.9223 33.9031C49.9125 33.8884 49.9027 33.886 49.8929 33.8713C49.8761 33.8376 49.8472 33.8115 49.8119 33.7981C49.7834 33.7944 49.7544 33.7964 49.7266 33.804C49.6988 33.8115 49.6728 33.8244 49.6501 33.842C49.6176 33.8596 49.5879 33.8818 49.5618 33.9079C49.5328 33.9323 49.508 33.9611 49.4883 33.9934C49.4676 34.0236 49.4511 34.0564 49.4393 34.091C49.4266 34.1246 49.42 34.1601 49.4196 34.196C49.4184 34.2278 49.4242 34.2595 49.4368 34.2888C49.4434 34.2987 49.4521 34.3071 49.4622 34.3135C49.4724 34.3198 49.4838 34.3238 49.4956 34.3254C49.5306 34.3307 49.5661 34.3307 49.6011 34.3254C49.6452 34.3254 49.7016 34.3058 49.7653 34.2888C49.8262 34.273 49.8889 34.2656 49.9517 34.2668C49.9976 34.2666 50.0423 34.2812 50.0792 34.3083C50.1138 34.3382 50.1392 34.3771 50.1527 34.4206C50.1699 34.4817 50.1782 34.545 50.1773 34.6085C50.1763 34.6912 50.1639 34.7733 50.1405 34.8527C50.1163 34.9379 50.0817 35.0199 50.0375 35.0968C49.9918 35.1742 49.9375 35.2462 49.8757 35.3116C49.8116 35.3771 49.7391 35.4337 49.6599 35.48C49.5997 35.5141 49.5343 35.5381 49.4662 35.5508C49.4135 35.567 49.3571 35.567 49.3044 35.5508C49.2564 35.5288 49.2169 35.492 49.1916 35.4459C49.1604 35.3871 49.1436 35.3219 49.1426 35.2554C49.1425 35.2342 49.1475 35.2133 49.1573 35.1944C49.1647 35.1777 49.1766 35.1634 49.1916 35.1529L49.3167 35.0821C49.3363 35.0821 49.3534 35.065 49.3632 35.0821C49.3759 35.0902 49.3854 35.1022 49.3902 35.1163C49.3985 35.135 49.4084 35.1529 49.4196 35.17C49.432 35.1868 49.449 35.1995 49.4687 35.2066C49.4935 35.214 49.5199 35.214 49.5447 35.2066C49.5856 35.1983 49.6247 35.1826 49.6599 35.1602C49.6965 35.1391 49.731 35.1146 49.7629 35.087C49.7959 35.0606 49.8256 35.0303 49.8512 34.9967C49.8754 34.9632 49.8959 34.9271 49.9125 34.8893C49.9273 34.852 49.9348 34.8122 49.9345 34.7721C49.9364 34.757 49.9351 34.7416 49.9309 34.7269C49.9267 34.7123 49.9196 34.6986 49.91 34.6867C49.8995 34.6781 49.8873 34.6717 49.8743 34.6679C49.8612 34.6641 49.8475 34.663 49.834 34.6647C49.791 34.6677 49.7484 34.6742 49.7065 34.6842L49.5324 34.7208C49.4813 34.729 49.4291 34.729 49.378 34.7208C49.3362 34.7182 49.2966 34.7019 49.2652 34.6745C49.2326 34.6426 49.2104 34.6018 49.2014 34.5573C49.1851 34.4918 49.1777 34.4245 49.1794 34.3571C49.1804 34.2746 49.1919 34.1926 49.2137 34.113C49.2373 34.0279 49.2711 33.946 49.3142 33.8689C49.3554 33.7954 49.4056 33.7273 49.4638 33.6663C49.5168 33.6029 49.5797 33.5485 49.6501 33.5052Z" fill="#455A64"/>
<path d="M51.3468 32.5563C51.3518 32.5527 51.3578 32.5508 51.3639 32.5508C51.3701 32.5508 51.3761 32.5527 51.3811 32.5563C51.3864 32.5622 51.3905 32.5692 51.393 32.5767C51.3955 32.5843 51.3965 32.5923 51.3958 32.6002V33.7305C51.3954 33.8402 51.3847 33.9498 51.3639 34.0576C51.3431 34.158 51.3102 34.2555 51.2659 34.3481C51.2253 34.4375 51.1707 34.5199 51.104 34.5922C51.0407 34.6654 50.9652 34.7274 50.8809 34.7753C50.8131 34.8186 50.7356 34.8445 50.6553 34.8509C50.626 34.8524 50.5966 34.8477 50.5692 34.8372C50.5417 34.8267 50.5168 34.8106 50.496 34.7899C50.4483 34.7394 50.4152 34.677 50.4003 34.6093C50.3769 34.5151 50.3662 34.4182 50.3685 34.3212V33.1934C50.3686 33.1722 50.3737 33.1514 50.3832 33.1324C50.3906 33.1157 50.4025 33.1013 50.4175 33.0909L50.5622 33.0079C50.567 33.0039 50.5731 33.0018 50.5793 33.0018C50.5856 33.0018 50.5917 33.0039 50.5965 33.0079C50.6018 33.0138 50.6059 33.0208 50.6084 33.0284C50.6109 33.0359 50.6119 33.0439 50.6112 33.0518V34.1625C50.6098 34.2233 50.6164 34.2841 50.6308 34.3432C50.6394 34.3808 50.6581 34.4153 50.6848 34.4433C50.7099 34.4625 50.7415 34.4712 50.773 34.4677C50.811 34.4612 50.8476 34.4479 50.8809 34.4286C50.9209 34.4036 50.9579 34.3741 50.9912 34.3407C51.0272 34.3048 51.0563 34.2626 51.0771 34.2162C51.1035 34.1655 51.1225 34.1113 51.1334 34.0551C51.1488 33.9879 51.1562 33.9191 51.1555 33.8501V32.754C51.1554 32.7328 51.1605 32.7119 51.1702 32.693C51.1769 32.6758 51.1889 32.6613 51.2046 32.6515L51.3468 32.5563Z" fill="#455A64"/>
<path d="M52.4792 33.8269C52.4596 33.8269 52.4449 33.8269 52.4326 33.8269L52.4106 33.8L51.9202 32.9481V34.0783C51.9197 34.0994 51.9147 34.1202 51.9055 34.1393C51.8981 34.156 51.8862 34.1704 51.8712 34.1808L51.7265 34.2638C51.7118 34.2638 51.702 34.2638 51.6922 34.2638C51.6868 34.2579 51.6828 34.2509 51.6803 34.2434C51.6777 34.2358 51.6768 34.2278 51.6775 34.2199V32.4476C51.6774 32.4264 51.6824 32.4055 51.6922 32.3866C51.6988 32.3694 51.7109 32.3549 51.7265 32.3451L51.8368 32.2645C51.8564 32.2645 51.8712 32.2645 51.8834 32.2645L51.9055 32.2914L52.4081 33.1433V32.0204C52.4086 31.9993 52.4136 31.9785 52.4228 31.9594C52.4294 31.9429 52.4404 31.9285 52.4547 31.9179L52.6018 31.8349C52.6039 31.8328 52.6063 31.8311 52.6091 31.8299C52.6118 31.8287 52.6148 31.8281 52.6177 31.8281C52.6207 31.8281 52.6237 31.8287 52.6264 31.8299C52.6292 31.8311 52.6316 31.8328 52.6337 31.8349C52.639 31.8408 52.6431 31.8478 52.6456 31.8554C52.6481 31.8629 52.6491 31.8709 52.6484 31.8788V33.6535C52.6482 33.6739 52.6432 33.694 52.6337 33.7121C52.6285 33.7294 52.6172 33.7442 52.6018 33.7536L52.4792 33.8269Z" fill="#455A64"/>
<path d="M13.5314 50.3116C13.5083 50.3117 13.4858 50.3041 13.4674 50.2902C13.449 50.2763 13.4357 50.2567 13.4296 50.2345C13.4234 50.2123 13.4248 50.1887 13.4335 50.1673C13.4421 50.146 13.4576 50.1281 13.4775 50.1163L53.1978 27.2796C53.2222 27.2657 53.2511 27.262 53.2783 27.2693C53.3054 27.2766 53.3285 27.2944 53.3425 27.3187C53.3564 27.3429 53.3602 27.3718 53.3528 27.3988C53.3455 27.4258 53.3276 27.4488 53.3032 27.4627L13.5878 50.2994C13.5708 50.3093 13.5511 50.3136 13.5314 50.3116Z" fill="#66B4E9"/>
<path d="M28.4659 38.2922C28.4471 38.2755 28.4313 38.2557 28.4193 38.2336L28.1079 37.5721V39.2613C28.1075 39.3003 28.0982 39.3387 28.081 39.3736C28.0677 39.4052 28.0456 39.4323 28.0172 39.4517L27.5808 39.6959C27.5719 39.7034 27.5606 39.7076 27.5489 39.7076C27.5372 39.7076 27.5259 39.7034 27.517 39.6959C27.5074 39.6849 27.5 39.6721 27.4954 39.6583C27.4908 39.6444 27.489 39.6298 27.4901 39.6153V36.3173C27.4905 36.2784 27.4997 36.24 27.517 36.205C27.5295 36.173 27.5518 36.1456 27.5808 36.1269L27.9657 35.9048C28.0123 35.8779 28.0442 35.8779 28.0662 35.9048C28.0833 35.9224 28.0981 35.9421 28.1104 35.9634L28.6498 37.0668L29.1892 35.3409C29.1892 35.3214 29.2113 35.2847 29.2333 35.2359C29.2537 35.188 29.2889 35.1478 29.3339 35.1212L29.7213 34.899C29.7295 34.8911 29.7405 34.8867 29.7519 34.8867C29.7633 34.8867 29.7743 34.8911 29.7826 34.899C29.7927 34.9097 29.8004 34.9224 29.805 34.9363C29.8097 34.9503 29.8112 34.965 29.8095 34.9796V38.28C29.8097 38.319 29.8004 38.3575 29.7826 38.3923C29.7701 38.4236 29.7488 38.4508 29.7213 38.4704L29.2824 38.7145C29.2741 38.7224 29.2632 38.7268 29.2517 38.7268C29.2403 38.7268 29.2293 38.7224 29.2211 38.7145C29.2109 38.7039 29.2032 38.6912 29.1986 38.6772C29.1939 38.6633 29.1924 38.6485 29.1941 38.634V36.9423L28.8803 37.9651C28.8672 37.9993 28.8525 38.0359 28.8361 38.0749C28.8188 38.111 28.7916 38.1415 28.7577 38.1628L28.5444 38.2873C28.51 38.3093 28.4831 38.3117 28.4659 38.2922Z" fill="#455A64"/>
<path d="M31.5084 33.8678C31.5549 33.8409 31.5868 33.8409 31.6113 33.8678C31.6336 33.8915 31.6504 33.9199 31.6604 33.9508L32.3959 36.7532C32.4038 36.7752 32.4079 36.7983 32.4082 36.8216C32.4078 36.8535 32.4011 36.885 32.3886 36.9143C32.3781 36.9402 32.3591 36.9617 32.3346 36.9753L31.9154 37.2195C31.8712 37.2463 31.8394 37.2488 31.8197 37.2195C31.8027 37.2018 31.7908 37.1799 31.7854 37.156L31.6922 36.7849L30.8071 37.2951L30.714 37.7834C30.7069 37.8199 30.6945 37.8553 30.6772 37.8883C30.6568 37.9304 30.6232 37.9646 30.5816 37.986L30.1623 38.2301C30.1551 38.2363 30.146 38.2397 30.1365 38.2397C30.1271 38.2397 30.1179 38.2363 30.1108 38.2301C30.1027 38.2207 30.0966 38.2099 30.0928 38.1981C30.0891 38.1864 30.0877 38.174 30.0887 38.1617C30.0906 38.1336 30.0956 38.1058 30.1034 38.0787L30.839 34.4415C30.8503 34.3935 30.8667 34.3468 30.888 34.3023C30.9084 34.2544 30.9436 34.2142 30.9886 34.1876L31.5084 33.8678ZM30.9689 36.4163L31.5084 36.1063L31.2387 35.0347L30.9689 36.4163Z" fill="#455A64"/>
<path d="M33.6639 32.6294C33.7841 32.5542 33.917 32.5012 34.0562 32.4731C34.1566 32.4531 34.261 32.4696 34.3504 32.5195C34.4417 32.5807 34.5078 32.6726 34.5367 32.7783C34.5863 32.9361 34.6087 33.1012 34.6029 33.2665C34.6056 33.5024 34.5709 33.7372 34.4999 33.9622C34.4347 34.1625 34.3352 34.3499 34.2057 34.5164L34.6201 35.4928C34.6224 35.5098 34.6224 35.5271 34.6201 35.5441C34.62 35.5755 34.6125 35.6065 34.598 35.6344C34.5883 35.6606 34.5702 35.6829 34.5465 35.6979L34.0929 35.9591C34.0488 35.9859 34.0169 35.9884 33.9973 35.9591C33.9789 35.9389 33.9639 35.9158 33.9532 35.8907L33.5829 35.0119L33.2765 35.1877V36.2813C33.2757 36.3202 33.2665 36.3585 33.2495 36.3936C33.2363 36.4253 33.2142 36.4524 33.1857 36.4717L32.7493 36.7158C32.7404 36.7234 32.7291 36.7275 32.7174 36.7275C32.7057 36.7275 32.6944 36.7234 32.6856 36.7158C32.6758 36.7049 32.6684 36.6922 32.6637 36.6783C32.6591 36.6645 32.6573 36.6498 32.6586 36.6353V33.3373C32.6594 33.2984 32.6686 33.2601 32.6856 33.225C32.6995 33.1938 32.7215 33.1669 32.7493 33.1469L33.6639 32.6294ZM33.2863 34.3943L33.6639 34.1771C33.7563 34.1241 33.8352 34.0506 33.8943 33.9622C33.9591 33.8576 33.9907 33.7359 33.9851 33.6132C33.9851 33.4691 33.9556 33.3886 33.8943 33.369C33.8545 33.3611 33.8133 33.3616 33.7737 33.3704C33.734 33.3792 33.6966 33.3962 33.6639 33.4203L33.2863 33.6376V34.3943Z" fill="#455A64"/>
<path d="M35.5222 32.9201C35.5222 32.9665 35.5222 33.0299 35.5222 33.1081C35.5222 33.1862 35.5222 33.2692 35.5222 33.3522C35.5222 33.4352 35.5222 33.5157 35.5222 33.5963C35.5222 33.6768 35.5222 33.7354 35.5222 33.7794C35.5263 33.8492 35.5361 33.9186 35.5516 33.9869C35.5639 34.0409 35.5891 34.0911 35.6251 34.1333C35.6413 34.1511 35.661 34.1655 35.6829 34.1756C35.7048 34.1857 35.7285 34.1912 35.7526 34.1919C35.8202 34.1901 35.8857 34.1689 35.9414 34.1309C36.0118 34.0925 36.0749 34.0421 36.1278 33.982C36.1753 33.9315 36.2157 33.8749 36.2479 33.8135C36.2786 33.7594 36.3032 33.7021 36.3215 33.6427C36.3362 33.5841 36.3509 33.5328 36.3582 33.4864C36.3667 33.4407 36.379 33.3958 36.395 33.3522C36.4123 33.3194 36.4387 33.2923 36.471 33.2741L36.9099 33.0299C36.9173 33.0242 36.9263 33.0211 36.9357 33.0211C36.945 33.0211 36.9541 33.0242 36.9614 33.0299C36.9758 33.0488 36.9827 33.0722 36.981 33.0959C36.9778 33.2786 36.9498 33.4601 36.8977 33.6353C36.846 33.8183 36.7728 33.9944 36.6794 34.1602C36.5872 34.324 36.477 34.477 36.3509 34.6167C36.2329 34.7489 36.0948 34.8618 35.9414 34.9511C35.8133 35.0323 35.6664 35.0793 35.5148 35.0878C35.3966 35.0897 35.2816 35.0489 35.1912 34.9731C35.0946 34.8856 35.0241 34.7732 34.9877 34.6484C34.9357 34.4908 34.9084 34.3261 34.9067 34.1602C34.9067 34.0235 34.9067 33.8746 34.9067 33.7135C34.9067 33.5523 34.9067 33.3985 34.9067 33.2496C34.9102 33.0544 34.9366 32.8603 34.9852 32.6711C35.0332 32.4771 35.1022 32.2888 35.1912 32.1096C35.277 31.934 35.385 31.77 35.5124 31.6214C35.6346 31.4798 35.7796 31.3593 35.9414 31.265C36.0648 31.1876 36.2054 31.1415 36.3509 31.1307C36.466 31.1213 36.5811 31.1486 36.6794 31.2089C36.7793 31.2748 36.8557 31.3705 36.8977 31.4823C36.9548 31.6225 36.9832 31.7728 36.981 31.9241C36.9803 31.9552 36.9737 31.9858 36.9614 32.0144C36.9517 32.0407 36.9336 32.063 36.9099 32.0779L36.471 32.322C36.4343 32.344 36.4097 32.3464 36.395 32.322C36.3773 32.2927 36.3648 32.2604 36.3582 32.2268C36.3493 32.1892 36.337 32.1524 36.3215 32.117C36.3061 32.0805 36.2806 32.0492 36.2479 32.0266C36.2125 32.0034 36.17 31.993 36.1278 31.9973C36.0612 32.0037 35.9972 32.0264 35.9414 32.0633C35.8702 32.1044 35.8063 32.1572 35.7526 32.2195C35.7014 32.282 35.6585 32.351 35.6251 32.4245C35.5929 32.4984 35.5683 32.5753 35.5516 32.654C35.5359 32.742 35.5261 32.8308 35.5222 32.9201Z" fill="#455A64"/>
<path d="M39.2072 29.4414C39.2161 29.4338 39.2274 29.4297 39.2391 29.4297C39.2508 29.4297 39.2621 29.4338 39.271 29.4414C39.2811 29.452 39.2888 29.4648 39.2935 29.4787C39.2981 29.4926 39.2997 29.5074 39.298 29.522V32.8272C39.2981 32.8663 39.2889 32.9048 39.271 32.9395C39.2578 32.9712 39.2357 32.9984 39.2072 33.0177L38.7708 33.2618C38.7623 33.2692 38.7514 33.2732 38.7402 33.2732C38.7289 33.2732 38.718 33.2692 38.7095 33.2618C38.6992 33.2508 38.6914 33.2376 38.6867 33.2233C38.6821 33.2089 38.6806 33.1937 38.6825 33.1788V31.9289L37.947 32.3561V33.606C37.9463 33.6457 37.9371 33.6848 37.92 33.7207C37.907 33.7518 37.8847 33.7782 37.8563 33.7964L37.4198 34.0405C37.4108 34.0476 37.3995 34.0515 37.388 34.0515C37.3764 34.0515 37.3652 34.0476 37.3561 34.0405C37.3461 34.0292 37.3386 34.016 37.334 34.0018C37.3293 33.9875 37.3277 33.9724 37.3291 33.9575V30.662C37.3296 30.623 37.3388 30.5846 37.3561 30.5497C37.3694 30.5181 37.3915 30.491 37.4198 30.4716L37.8563 30.2275C37.8651 30.2199 37.8765 30.2157 37.8881 30.2157C37.8998 30.2157 37.9111 30.2199 37.92 30.2275C37.9298 30.2388 37.9373 30.252 37.9419 30.2662C37.9466 30.2805 37.9483 30.2955 37.947 30.3104V31.531L38.6825 31.1063V29.8857C38.6824 29.8467 38.6916 29.8081 38.7095 29.7734C38.721 29.7422 38.7426 29.7156 38.7708 29.6977L39.2072 29.4414Z" fill="#455A64"/>
<path d="M14.7502 45.7507L15.4024 46.0485C15.4239 46.0605 15.4437 46.0753 15.4613 46.0924C15.4731 46.1056 15.4821 46.1211 15.4876 46.1379C15.4931 46.1547 15.495 46.1725 15.4931 46.1901V46.566C15.4933 46.5922 15.4875 46.6181 15.476 46.6417C15.4676 46.6626 15.453 46.6804 15.4343 46.693H15.4196H15.4024L14.3923 46.2291C14.3685 46.221 14.3473 46.2066 14.331 46.1876C14.3132 46.1592 14.3055 46.1257 14.3089 46.0924V45.9069C14.308 45.8652 14.3155 45.8237 14.331 45.7849C14.3487 45.746 14.3692 45.7085 14.3923 45.6726L15.4024 44.0492L15.4196 44.0273H15.4343C15.4401 44.0223 15.4475 44.0195 15.4551 44.0195C15.4628 44.0195 15.4702 44.0223 15.476 44.0273C15.4826 44.0349 15.4875 44.0439 15.4905 44.0535C15.4934 44.0632 15.4943 44.0734 15.4931 44.0834V44.4593C15.4931 44.5052 15.4822 44.5503 15.4613 44.5912C15.4437 44.6304 15.4241 44.6687 15.4024 44.7059L14.7502 45.7507Z" fill="#455A64"/>
<path d="M50.7019 24.4062C50.6797 24.3942 50.6591 24.3795 50.6406 24.3622C50.6177 24.335 50.6062 24.3 50.6087 24.2646V23.8887C50.6097 23.8626 50.6156 23.8369 50.6259 23.813C50.6352 23.792 50.6506 23.7741 50.67 23.7617H50.6823H50.7019L51.7096 24.2255C51.7344 24.2331 51.7565 24.2475 51.7734 24.267C51.7911 24.2955 51.7989 24.3289 51.7954 24.3622V24.5478C51.7967 24.5887 51.7891 24.6295 51.7734 24.6674C51.7558 24.7075 51.7344 24.7459 51.7096 24.7821L50.7019 26.4079C50.6965 26.4169 50.6899 26.4251 50.6823 26.4323C50.6823 26.4323 50.6823 26.4323 50.67 26.4323C50.6639 26.4375 50.656 26.4403 50.648 26.4403C50.6399 26.4403 50.6321 26.4375 50.6259 26.4323C50.6137 26.4162 50.6076 26.3963 50.6087 26.3762V25.9978C50.6102 25.9514 50.6211 25.9057 50.6406 25.8635C50.6627 25.8196 50.6823 25.783 50.7019 25.7488L51.3468 24.6991L50.7019 24.4062Z" fill="#455A64"/>
<path d="M24.8812 24.0723C24.8936 23.9652 24.8774 23.8567 24.8344 23.7577C24.7914 23.6588 24.723 23.5728 24.636 23.5084L23.2679 22.7248C23.1689 22.6788 23.0593 22.6602 22.9505 22.6709C22.8418 22.6817 22.738 22.7214 22.65 22.7859L10.2141 29.931C9.95991 30.0961 9.74839 30.3185 9.59673 30.5802C9.44506 30.8419 9.35753 31.1355 9.34125 31.4372V35.7067C9.32838 35.8139 9.34429 35.9226 9.38736 36.0217C9.43044 36.1207 9.49913 36.2066 9.58644 36.2707L10.9521 37.0543C11.0509 37.0996 11.16 37.1178 11.2682 37.1071C11.3764 37.0963 11.4797 37.057 11.5676 36.9932L23.9985 29.8481C24.2527 29.683 24.4643 29.4606 24.6159 29.1989C24.7676 28.9372 24.8551 28.6436 24.8714 28.3419L24.8812 24.0723Z" fill="#66B4E9"/>
<path opacity="0.2" d="M10.9789 37.0598C10.9762 37.061 10.9733 37.0615 10.9704 37.0615C10.9674 37.0615 10.9645 37.061 10.9618 37.0598L9.59609 36.2738C9.50898 36.2102 9.44039 36.1247 9.39731 36.026C9.35423 35.9274 9.33822 35.8191 9.3509 35.7123V31.4355C9.35726 31.1874 9.41925 30.9438 9.53234 30.7227L10.8907 31.5063C10.7808 31.7292 10.7205 31.9732 10.7141 32.2215V36.491C10.7005 36.601 10.7181 36.7126 10.7649 36.8131C10.8117 36.9136 10.8859 36.9991 10.9789 37.0598Z" fill="black"/>
<path opacity="0.2" d="M24.5872 23.4782C24.4913 23.4463 24.3893 23.4372 24.2892 23.4516C24.1891 23.466 24.0939 23.5036 24.011 23.5612L11.58 30.7088C11.2778 30.9031 11.0385 31.1804 10.8911 31.5071L9.53271 30.7235C9.67969 30.3985 9.91816 30.1229 10.2192 29.9301L22.6502 22.7825C22.739 22.7196 22.8428 22.681 22.9513 22.6708C23.0597 22.6605 23.169 22.6788 23.2681 22.7239C23.4079 22.8069 24.342 23.3415 24.5872 23.4782Z" fill="white"/>
<path d="M49.0193 82.8855C49.1122 81.0913 49.4183 72.5977 49.4183 72.5977L53.0625 74.9088C52.8967 78.635 51.9128 83.5277 51.9128 83.5277C51.9128 83.5277 50.466 84.8411 49.6989 85.5958C49.0544 86.2557 48.3532 86.8585 47.6035 87.3972C47.0259 87.7872 45.7814 87.9813 45.5664 87.6058C46.4975 86.6806 47.5835 85.6629 48.2868 84.6543C48.6239 84.1717 48.9737 83.9068 49.0193 82.8855Z" fill="#FFA8A7"/>
<path d="M43.706 88.4181C43.6514 88.4181 43.6186 89.0149 43.9283 89.2399C44.2927 89.5011 45.3076 89.8947 46.5922 89.6244C47.8768 89.3541 48.5492 88.8988 49.0357 88.4235C49.5222 87.9482 50.2 87.2806 50.7776 87.1046C51.3133 86.9414 51.8854 86.6475 52.0531 86.4661C52.2207 86.2847 52.1296 85.5391 52.1296 85.5391L43.706 88.4181Z" fill="#263238"/>
<path d="M52.0094 83.078C52.0559 83.1779 52.0783 83.2872 52.075 83.3973C52.0641 83.673 51.9311 83.9415 52.0131 84.4059C52.1079 84.8645 52.1441 85.3333 52.1206 85.801C52.0805 86.1892 51.2095 86.5266 50.6629 86.786C50.0172 87.1314 49.4274 87.5717 48.9137 88.0922C48.3433 88.6364 47.1007 89.246 46.2552 89.3258C44.9633 89.4473 44.0978 89.1643 43.8027 88.7235C43.4382 88.1793 43.9758 87.4899 44.9925 86.9221C45.2622 86.7697 46.3044 86.1402 46.6233 85.9025C47.4888 85.2603 48.183 84.4621 48.5201 83.419C48.5456 83.2916 48.6136 83.1765 48.7132 83.0925C48.8504 83.0469 48.9956 83.0302 49.1396 83.0435C49.3892 83.0588 49.635 83.112 49.8684 83.2013C50.0762 83.2793 50.488 83.3628 50.5044 83.6168C50.4969 83.735 50.473 83.8516 50.4333 83.9633C50.4205 84.0177 50.3823 84.2045 50.4333 84.2317C50.4843 84.259 50.5882 84.1265 50.6155 84.0848C50.7686 83.8907 50.8159 83.7746 51.0218 83.722C51.2277 83.6694 51.8181 83.5823 51.9529 83.3592L52.0094 83.078Z" fill="#37474F"/>
<path d="M44.9887 86.9221C46.8691 86.9004 47.4212 88.2356 47.5578 88.9412C47.145 89.1359 46.7042 89.2657 46.2514 89.3258C44.9595 89.4474 44.0412 89.1698 43.746 88.7272C43.4016 88.212 43.613 87.421 44.9887 86.9221Z" fill="#FAFAFA"/>
<path d="M47.6145 86.8548C47.6356 86.8525 47.6553 86.8436 47.671 86.8294C47.6795 86.821 47.6863 86.811 47.6909 86.7999C47.6956 86.7889 47.6979 86.777 47.6979 86.765C47.6979 86.7531 47.6956 86.7412 47.6909 86.7302C47.6863 86.7191 47.6795 86.7091 47.671 86.7006C47.4348 86.4936 47.1568 86.3392 46.8557 86.2479C46.5547 86.1565 46.2375 86.1303 45.9254 86.1709C45.9016 86.1757 45.8807 86.1896 45.8671 86.2096C45.8535 86.2297 45.8482 86.2542 45.8525 86.2779C45.8547 86.2898 45.8593 86.3011 45.8659 86.3112C45.8725 86.3212 45.881 86.3299 45.891 86.3367C45.901 86.3434 45.9123 86.3481 45.9241 86.3505C45.936 86.3529 45.9482 86.3529 45.96 86.3505C46.2422 86.3164 46.5284 86.3413 46.8004 86.4234C47.0724 86.5056 47.3242 86.6432 47.5398 86.8276C47.5493 86.8376 47.561 86.8452 47.574 86.85C47.5869 86.8547 47.6008 86.8564 47.6145 86.8548Z" fill="#F0F0F0"/>
<path d="M48.3958 86.3197C48.4168 86.3189 48.4369 86.3105 48.4523 86.2961C48.4692 86.2785 48.4786 86.2551 48.4786 86.2308C48.4786 86.2064 48.4692 86.1831 48.4523 86.1655C48.216 85.9584 47.938 85.8041 47.637 85.7127C47.3359 85.6214 47.0187 85.5951 46.7067 85.6358C46.6829 85.6406 46.662 85.6545 46.6483 85.6745C46.6347 85.6945 46.6295 85.719 46.6338 85.7428C46.6357 85.7547 46.6401 85.7662 46.6467 85.7764C46.6532 85.7866 46.6618 85.7954 46.6718 85.8022C46.6819 85.809 46.6932 85.8136 46.7052 85.8159C46.7171 85.8182 46.7294 85.818 46.7413 85.8154C47.0232 85.7811 47.3092 85.8058 47.5809 85.888C47.8526 85.9702 48.1041 86.1079 48.3192 86.2925C48.3286 86.3031 48.3406 86.3112 48.354 86.3159C48.3674 86.3207 48.3817 86.322 48.3958 86.3197Z" fill="#F0F0F0"/>
<path d="M49.0737 85.7181C49.0947 85.7158 49.1145 85.7069 49.1302 85.6927C49.1387 85.6843 49.1455 85.6743 49.1501 85.6632C49.1547 85.6521 49.1571 85.6403 49.1571 85.6283C49.1571 85.6163 49.1547 85.6045 49.1501 85.5934C49.1455 85.5824 49.1387 85.5724 49.1302 85.5639C48.893 85.3569 48.6139 85.203 48.3118 85.1125C48.0097 85.0221 47.6917 84.9972 47.3791 85.0396C47.355 85.0442 47.3336 85.0582 47.3198 85.0784C47.3059 85.0986 47.3007 85.1235 47.3053 85.1476C47.3099 85.1716 47.3239 85.1929 47.3443 85.2067C47.3646 85.2204 47.3896 85.2256 47.4138 85.2211C47.6955 85.187 47.9813 85.2117 48.2529 85.2935C48.5246 85.3753 48.7762 85.5125 48.9917 85.6963C49.0026 85.7063 49.0157 85.7135 49.03 85.7173C49.0443 85.7211 49.0593 85.7214 49.0737 85.7181Z" fill="#F0F0F0"/>
<path d="M49.7483 85.09C49.7692 85.0884 49.789 85.0801 49.8047 85.0664C49.8133 85.0579 49.8201 85.0479 49.8247 85.0369C49.8293 85.0258 49.8317 85.014 49.8317 85.002C49.8317 84.99 49.8293 84.9781 49.8247 84.9671C49.8201 84.956 49.8133 84.946 49.8047 84.9376C49.4112 84.5149 48.5766 84.2827 47.9043 84.4097C47.8923 84.4118 47.8809 84.4163 47.8707 84.4228C47.8604 84.4294 47.8516 84.4378 47.8447 84.4478C47.8377 84.4577 47.8328 84.4689 47.8302 84.4807C47.8277 84.4926 47.8274 84.5048 47.8296 84.5167C47.8317 84.5286 47.8362 84.54 47.8428 84.5502C47.8494 84.5604 47.8579 84.5692 47.8679 84.5761C47.8779 84.583 47.8891 84.5878 47.901 84.5904C47.9129 84.593 47.9251 84.5932 47.9371 84.5911C48.5439 84.4768 49.3201 84.689 49.6717 85.0627C49.6813 85.0731 49.6933 85.081 49.7066 85.0857C49.72 85.0905 49.7342 85.0919 49.7483 85.09Z" fill="#F0F0F0"/>
<path d="M58.7217 76.9954L62.6939 76.5781C62.8651 79.2267 62.6939 82.2019 62.8469 84.6836C62.8742 85.1516 63.1749 88.3118 63.082 89.286C62.9435 90.7518 61.2052 90.7046 61.0376 89.8502C60.8699 88.9957 60.4909 85.2623 60.4509 84.8831C60.3288 83.2903 59.6054 80.6943 58.964 77.8734C58.933 77.7355 58.7527 77.1296 58.7217 76.9954Z" fill="#FFA8A7"/>
<path d="M60.4419 90.5069C60.4802 91.3577 60.6059 91.9237 60.9029 92.4263C61.1999 92.9288 61.7684 93.0939 62.3496 92.956C62.9309 92.8181 63.6779 92.4371 63.8529 91.7061C64.0278 90.975 64.0023 90.4706 63.882 89.6797L60.4419 90.5069Z" fill="#263238"/>
<path d="M62.8305 84.3789C63.0692 84.4007 63.1239 85.5436 63.246 86.6901C63.3772 87.9164 63.738 88.428 63.8546 89.4348C63.9894 90.585 63.922 91.0966 63.5102 91.7932C63.0984 92.4898 61.6571 93.1447 60.9593 92.1397C60.3962 91.3215 60.3835 90.4235 60.4527 89.277C60.4948 88.3095 60.4821 87.3405 60.4144 86.3744C60.3798 85.5145 60.2013 84.6456 60.4144 84.5603C60.429 84.6855 60.4418 84.8469 60.4582 84.9703C60.4746 85.0937 60.4873 85.5327 60.6203 85.5381C60.6304 85.4301 60.6304 85.3214 60.6203 85.2134C60.6062 85.116 60.6311 85.017 60.6896 84.9377C60.7629 84.8709 60.8566 84.8307 60.9556 84.8234C61.1907 84.7798 61.6844 84.7671 61.9286 84.749C62.0498 84.7387 62.1714 84.7351 62.293 84.7381C62.3952 84.7374 62.4967 84.7533 62.5937 84.7853C62.6221 84.7948 62.6482 84.8102 62.6702 84.8305C62.6922 84.8509 62.7096 84.8756 62.7212 84.9032C62.734 84.9455 62.7377 84.99 62.7322 85.0338C62.7321 85.1138 62.7413 85.1935 62.7595 85.2714C62.7595 85.3041 62.7905 85.3458 62.8251 85.3386C62.8597 85.3313 62.8633 85.2987 62.8652 85.2696C62.8652 85.1318 62.8506 85.0302 62.847 84.8687C62.847 84.7943 62.8342 84.6873 62.8342 84.6184C62.8342 84.5494 62.8342 84.4533 62.8305 84.3789Z" fill="#37474F"/>
<path d="M63.9131 90.0969C63.9441 90.8117 63.8967 91.2997 63.5724 91.8385C63.1606 92.526 61.6045 93.19 60.9139 92.185C60.5696 91.6861 60.4839 91.0965 60.4438 90.5033C60.8757 89.7414 63.2553 89.4366 63.9131 90.0969Z" fill="#FAFAFA"/>
<path d="M61.0723 89.2641C61.082 89.2657 61.0918 89.2657 61.1015 89.2641C61.7538 88.9959 62.4728 88.9326 63.1623 89.0827C63.1845 89.0864 63.2074 89.0815 63.2262 89.0691C63.245 89.0568 63.2584 89.0377 63.2637 89.0159C63.2691 88.9941 63.2659 88.971 63.2548 88.9515C63.2438 88.9319 63.2257 88.9172 63.2042 88.9103C62.4726 88.7479 61.7084 88.8164 61.0177 89.1063C60.9978 89.1142 60.9816 89.1292 60.972 89.1483C60.9625 89.1674 60.9603 89.1893 60.9659 89.2099C60.9716 89.2304 60.9846 89.2482 61.0025 89.2599C61.0204 89.2716 61.042 89.2763 61.0632 89.2731L61.0723 89.2641Z" fill="#F0F0F0"/>
<path d="M63.117 88.2142C63.1339 88.2132 63.1501 88.2071 63.1634 88.1967C63.1767 88.1864 63.1866 88.1722 63.1917 88.1562C63.1994 88.1343 63.1982 88.1103 63.1883 88.0893C63.1784 88.0682 63.1607 88.0519 63.1389 88.0437C62.0729 87.67 61.0088 88.1961 60.9651 88.2251C60.9546 88.2302 60.9452 88.2372 60.9375 88.2459C60.9298 88.2546 60.9239 88.2647 60.9201 88.2757C60.9164 88.2867 60.9149 88.2983 60.9158 88.3099C60.9166 88.3214 60.9197 88.3327 60.925 88.343C60.9362 88.3636 60.955 88.3791 60.9774 88.3862C60.9999 88.3933 61.0242 88.3915 61.0453 88.3811C61.0544 88.3811 62.0893 87.8659 63.0787 88.2161C63.0915 88.2182 63.1045 88.2175 63.117 88.2142Z" fill="#F0F0F0"/>
<path d="M63.0656 87.4069C63.0823 87.406 63.0983 87.4002 63.1116 87.3902C63.1249 87.3801 63.1349 87.3664 63.1403 87.3507C63.1486 87.3288 63.1479 87.3045 63.1384 87.2831C63.1288 87.2617 63.1112 87.2449 63.0893 87.2364C62.7284 87.1082 62.3445 87.057 61.9625 87.086C61.5805 87.1151 61.2089 87.2238 60.8718 87.4051C60.8618 87.4109 60.8532 87.4187 60.8462 87.4278C60.8393 87.437 60.8343 87.4475 60.8314 87.4586C60.8285 87.4697 60.8279 87.4813 60.8295 87.4926C60.8311 87.504 60.8349 87.5149 60.8408 87.5248C60.8467 87.5347 60.8544 87.5434 60.8636 87.5503C60.8729 87.5572 60.8834 87.5622 60.8945 87.5651C60.9057 87.5679 60.9173 87.5686 60.9287 87.567C60.9401 87.5653 60.9511 87.5615 60.9611 87.5557C61.2768 87.3913 61.6229 87.2928 61.9782 87.2663C62.3335 87.2397 62.6905 87.2858 63.0273 87.4015C63.0393 87.4068 63.0526 87.4087 63.0656 87.4069Z" fill="#F0F0F0"/>
<path d="M63.0054 86.5031C63.022 86.502 63.0379 86.4961 63.0512 86.4861C63.0644 86.4761 63.0745 86.4625 63.0801 86.4469C63.0885 86.425 63.0878 86.4007 63.0782 86.3793C63.0687 86.3579 63.051 86.3411 63.0291 86.3326C61.9358 85.9081 60.8426 86.4995 60.797 86.5249C60.7868 86.5304 60.7777 86.5379 60.7704 86.5469C60.763 86.5559 60.7576 86.5663 60.7544 86.5775C60.7512 86.5887 60.7502 86.6003 60.7516 86.6119C60.753 86.6234 60.7566 86.6345 60.7624 86.6446C60.7677 86.655 60.7752 86.6642 60.7842 86.6717C60.7933 86.6791 60.8037 86.6846 60.815 86.6878C60.8263 86.6911 60.8381 86.692 60.8498 86.6905C60.8614 86.689 60.8726 86.6851 60.8827 86.6791C60.8936 86.6791 61.9468 86.1022 62.9653 86.4977C62.978 86.503 62.9918 86.5049 63.0054 86.5031Z" fill="#EBEBEB"/>
<path d="M59.5292 49.6641C60.7299 51.3893 62.5338 53.764 62.4791 58.1904C62.3935 65.1566 62.2022 68.5309 62.2022 68.5309C62.4974 69.2928 63.0258 69.8316 63.0495 73.3292C63.0659 76.1211 62.9365 80.0269 62.9365 80.0269C62.9365 80.0269 61.0051 80.9503 59.3652 80.2609C58.7384 77.9878 57.7854 72.043 57.1094 69.0025C56.4954 66.2414 56.0162 62.8237 56.0162 62.8237L54.1394 69.3962C54.29 70.8614 54.2397 72.3401 53.99 73.7918C53.6675 75.6386 52.5487 80.2301 52.5487 80.2301C52.5487 80.2301 50.5936 81.0501 49.0703 80.2101C49.0703 80.2101 49.1323 70.7912 49.2088 68.5381C49.3236 65.1584 49.2489 59.5056 49.8046 54.8869C50.0178 53.1218 50.63 51.3076 50.927 50.123L59.5292 49.6641Z" fill="#37474F"/>
<path d="M63.033 79.3555C62.3552 79.7655 60.0375 80.0612 59.1265 79.7092L59.3706 80.7832C59.3706 80.7832 59.9646 81.0317 61.2255 80.9773C62.4864 80.9229 62.9857 80.4077 62.9857 80.4077L63.033 79.3555Z" fill="#455A64"/>
<path d="M52.8638 79.2347C51.7013 79.7082 49.9084 79.7245 49.0757 79.0859V80.1889C49.0757 80.1889 49.4201 80.6624 50.6828 80.6969C52.1878 80.7368 52.5905 80.4048 52.5905 80.4048L52.8638 79.2347Z" fill="#455A64"/>
<path d="M56.0196 62.8091L55.2142 57.2597C55.2142 57.2597 52.2715 56.8715 51.2056 55.832C51.2056 55.832 52.5321 57.7496 54.5291 58.0852L55.318 62.1814L54.1519 69.3309L56.0196 62.8091Z" fill="#263238"/>
<path d="M50.465 50.4474C51.0566 49.8105 53.2759 46.829 53.9252 45.965C54.738 44.8783 55.5101 43.7632 55.5101 43.7632C55.5101 43.7632 54.976 39.5041 53.9796 40.0637C53.1532 40.4828 52.4511 41.1093 51.9426 41.8815C51.063 43.2746 49.9095 45.3178 49.4301 46.0572C48.8819 46.9158 48.4616 47.7861 47.8621 48.6234C47.8621 48.6234 42.6877 51.4155 41.6536 51.4429C40.6195 51.4702 42.3863 53.6044 42.3863 53.6044C42.6543 53.326 43.5056 53.0995 43.9696 52.9692L46.2415 52.3277C47.2217 52.0454 47.8895 51.8589 48.533 51.6724C49.6641 51.3378 49.8733 51.0844 50.465 50.4474Z" fill="#FFA8A7"/>
<path d="M38.6087 54.9236C38.7199 55.0458 38.8524 55.147 38.9998 55.2224C39.139 55.2811 39.347 55.2046 39.4865 55.1701C39.7278 55.1115 40.1478 54.9706 40.19 54.7532C40.1923 54.7368 40.1904 54.7201 40.1844 54.7046C40.1785 54.6891 40.1687 54.6754 40.156 54.6647L40.2816 54.6026C40.3245 54.5833 40.3621 54.5543 40.3917 54.5179C40.4212 54.4815 40.4418 54.4387 40.4517 54.3929C40.4517 54.3929 40.6807 54.387 40.7719 54.3743C40.9912 54.3407 41.4945 54.4645 41.8783 54.1451C42.0934 53.9778 42.274 53.7709 42.4104 53.5355L41.6278 53.3575L40.2075 53.035L39.5609 52.8848C39.4704 52.8505 39.3756 52.8292 39.2791 52.8216C39.1829 52.833 39.088 52.8528 38.9953 52.8809C38.8574 52.9198 38.7279 52.9838 38.6135 53.0698C38.4387 53.2089 38.3696 53.4781 38.2974 53.6839C38.2185 53.881 38.1677 54.0882 38.1466 54.2993C38.138 54.4859 38.3381 54.6381 38.4518 54.7561C38.4973 54.8065 38.551 54.865 38.6087 54.9236Z" fill="#F28F8F"/>
<path d="M42.6102 51.3157C41.8656 51.4461 41.1088 51.495 40.3535 51.4616C39.5631 51.4474 39.2983 51.4183 38.9765 51.7031C38.7805 51.877 38.617 52.0835 38.4364 52.272C38.2828 52.4371 38.1072 52.5787 37.9455 52.7356C37.8328 52.8441 37.7249 52.9622 37.6203 53.0828C37.4715 53.2536 37.3431 53.4488 37.1976 53.6221C37.0006 53.8552 36.7817 54.0648 36.5903 54.3093C36.4162 54.4911 36.2659 54.694 36.143 54.9134C36.0659 55.1014 36.3071 55.128 36.4481 55.117C36.9159 55.0882 37.2088 54.6233 37.5306 54.3426C37.6907 54.2026 37.8654 54.0838 38.0222 53.9374C38.1374 53.8298 38.2722 53.6841 38.3711 53.5927C38.4657 53.5458 38.5587 53.4998 38.6534 53.453C38.7998 53.3545 38.9397 53.2467 39.0722 53.1304L39.0812 53.1483C39.1006 53.1731 39.1131 53.2026 39.1176 53.2338C39.1221 53.2649 39.1184 53.2967 39.1068 53.326C39.0339 53.5182 38.9291 53.6967 38.7966 53.8542C38.5931 54.0824 38.5203 54.1934 38.3013 54.4151C38.0963 54.5974 37.9114 54.8009 37.7497 55.0222C37.6539 55.1972 37.6768 55.4633 38.0451 55.4838C38.2039 55.4862 38.3614 55.4552 38.5073 55.3928C38.6532 55.3304 38.7843 55.238 38.8919 55.1217C39.1124 54.9194 39.4845 54.4052 39.6217 54.2847C39.6943 54.2151 39.7833 54.165 39.8805 54.1388C39.9777 54.1127 40.08 54.1115 40.1779 54.1352C40.4597 54.1781 40.9848 54.3782 41.639 54.0992C42.2933 53.8202 42.4092 53.4327 43.0134 53.2574L42.6102 51.3157Z" fill="#FFA8A7"/>
<path d="M33.5315 44.9193C33.4893 44.6716 33.493 44.4183 33.5425 44.1719C33.4161 44.413 33.3831 44.6918 33.4495 44.9556L33.5315 44.9193Z" fill="#F28F8F"/>
<path d="M54.5565 39.6602C54.5565 39.6602 56.5608 39.7382 58.1461 39.9813L58.9296 40.0447C59.3997 40.2461 60.8501 41.6901 60.7772 44.5945C60.7298 46.4087 61.209 50.6192 61.209 50.6192C58.7528 52.5567 51.714 52.524 49.912 50.7843C49.912 50.7843 50.4003 48.1248 50.4823 46.8041C50.4823 46.8041 49.6533 45.6612 49.697 44.8322C49.7608 43.6149 49.8592 43.2702 50.9506 41.8897C51.9874 40.5745 52.7144 39.8107 52.7144 39.8107L54.5565 39.6602Z" fill="#66B4E9"/>
<path d="M53.6764 36.3004L54.8444 36.9516L57.3024 38.3231C57.3443 37.2999 58.9623 36.9879 59.5345 34.5806C59.8315 33.3343 59.4598 31.1338 58.1041 31.0158C57.7598 29.9147 56.6465 29.3287 55.5732 29.1165C54.5355 28.8925 53.4537 28.9932 52.4757 29.4049C51.6703 29.7677 50.7028 30.312 50.3693 31.161C50.2801 31.4053 50.2801 31.6731 50.3693 31.9175C50.4349 32.1243 50.6463 32.2803 50.6736 32.4907C50.7009 32.7012 50.3839 32.8644 50.2236 32.995C49.9393 33.2254 49.6368 33.5048 49.7279 33.913C49.799 34.2304 50.1762 34.4572 50.4568 34.3574C50.3942 34.358 50.3337 34.3346 50.2879 34.2921C50.2422 34.2495 50.2145 34.1911 50.2108 34.1289C50.1816 33.9021 50.3839 33.766 50.5752 33.7298C50.8923 33.6771 51.3861 33.8223 51.6011 33.5048C51.7414 33.5538 51.9145 33.5048 52.0748 33.6209C52.2242 33.7512 52.3431 33.9123 52.4234 34.0931C52.5036 34.2739 52.5433 34.47 52.5394 34.6677C52.5446 34.9441 52.5944 35.2179 52.687 35.4786C52.8601 35.9031 53.3065 36.0935 53.6764 36.3004Z" fill="#455A64"/>
<path d="M57.2646 39.2846L57.3558 37.0623C57.5548 37.1607 57.7816 37.1885 57.9987 37.141C58.2158 37.0935 58.41 36.9735 58.5492 36.8011C59.2015 36.1008 59.2526 35.3498 58.879 34.8745C58.5055 34.3992 57.6928 34.5443 57.2865 35.1049C57.2525 35.1542 57.2046 35.1924 57.1489 35.2147C57.0931 35.237 57.0319 35.2423 56.9731 35.23C56.5722 35.1284 56.4447 34.4264 56.8055 33.6989C56.8055 33.6989 55.6102 33.0386 55.8088 31.7959C54.8212 32.4399 52.4999 32.781 51.9222 31.7578C51.6088 32.2476 51.177 32.8227 51.2353 35.4332C51.29 37.8188 52.0443 38.4084 52.693 38.6823C53.1254 38.8284 53.5873 38.8658 54.0377 38.7911L54.0086 39.3844C54.0086 39.6927 53.943 39.7109 53.6733 39.7308L53.5403 39.7417C53.5403 39.7417 52.6074 41.0116 54.2035 41.1567C57.0861 41.4234 58.1374 39.9812 58.1374 39.9812C58.1374 39.9812 57.9279 39.9504 57.804 39.9358C57.3193 39.8687 57.3138 39.7 57.2646 39.2846Z" fill="#FFA8A7"/>
<path d="M54.6262 36.6211L53.5967 36.9839C53.6172 37.0525 53.6513 37.1163 53.6971 37.1714C53.7428 37.2266 53.7992 37.272 53.863 37.305C53.9267 37.338 53.9965 37.3579 54.0681 37.3635C54.1398 37.3691 54.2118 37.3603 54.28 37.3377C54.4204 37.2871 54.5353 37.1838 54.6001 37.0498C54.6648 36.9158 54.6742 36.7619 54.6262 36.6211Z" fill="#B16668"/>
<path d="M54.5661 36.8594C54.4276 36.8595 54.2934 36.9072 54.1862 36.9945C54.0789 37.0818 54.0052 37.2032 53.9775 37.3383C54.0772 37.3645 54.1825 37.3608 54.28 37.3274C54.3776 37.2923 54.4635 37.2307 54.5279 37.1496C54.5923 37.0685 54.6326 36.9711 54.6444 36.8684C54.6185 36.8637 54.5924 36.8607 54.5661 36.8594Z" fill="#F28F8F"/>
<path d="M51.5703 34.1279L52.3264 33.7651C52.306 33.7143 52.2752 33.6683 52.2361 33.6299C52.1969 33.5915 52.1502 33.5615 52.0989 33.5419C52.0476 33.5224 51.9927 33.5135 51.9378 33.516C51.8829 33.5185 51.8291 33.5323 51.7798 33.5565C51.6772 33.606 51.598 33.6933 51.5589 33.8C51.5198 33.9066 51.5238 34.0242 51.5703 34.1279Z" fill="#263238"/>
<path d="M55.2511 34.137L54.4985 33.7487C54.5225 33.6995 54.5562 33.6556 54.5976 33.6197C54.639 33.5837 54.6872 33.5565 54.7394 33.5395C54.7917 33.5226 54.8468 33.5163 54.9015 33.5211C54.9563 33.5259 55.0094 33.5416 55.0579 33.5673C55.1559 33.6209 55.2301 33.7092 55.2659 33.8147C55.3017 33.9202 55.2964 34.0352 55.2511 34.137Z" fill="#263238"/>
<path d="M53.4472 34.2031L53.3853 36.3946L52.2446 35.9574L53.4472 34.2031Z" fill="#F28F8F"/>
<path d="M52.4907 34.6052C52.4971 34.6967 52.4686 34.7872 52.4108 34.8585C52.353 34.9299 52.2702 34.9768 52.1791 34.9898C52.1343 34.9962 52.0887 34.9934 52.045 34.9818C52.0014 34.9701 51.9605 34.9498 51.9249 34.922C51.8893 34.8942 51.8598 34.8595 51.838 34.82C51.8163 34.7806 51.8027 34.7371 51.7983 34.6923C51.7939 34.601 51.8243 34.5114 51.8834 34.4414C51.9425 34.3715 52.026 34.3263 52.1171 34.315C52.2053 34.3042 52.2942 34.3287 52.3642 34.3832C52.4343 34.4376 52.4797 34.5175 52.4907 34.6052Z" fill="#263238"/>
<path d="M55.0175 34.6133C55.024 34.7048 54.9954 34.7953 54.9376 34.8666C54.8798 34.9379 54.7971 34.9849 54.7059 34.9979C54.6612 35.0043 54.6156 35.0015 54.5719 34.9899C54.5282 34.9782 54.4874 34.9579 54.4518 34.9301C54.4162 34.9023 54.3866 34.8676 54.3649 34.8281C54.3431 34.7887 54.3296 34.7452 54.3251 34.7004C54.3187 34.609 54.3472 34.5185 54.405 34.4472C54.4628 34.3758 54.5456 34.3289 54.6367 34.3158C54.6815 34.3095 54.7271 34.3122 54.7707 34.3239C54.8144 34.3356 54.8553 34.3559 54.8909 34.3837C54.9264 34.4115 54.956 34.4462 54.9778 34.4856C54.9995 34.5251 55.0131 34.5685 55.0175 34.6133Z" fill="#263238"/>
<path d="M54.0465 38.7883C55.3675 38.6233 56.5355 38.099 56.8999 37.3516C56.8999 37.3516 56.7177 38.1643 56.1893 38.4908C55.4459 38.9498 54.021 39.231 54.021 39.231L54.0465 38.7883Z" fill="#F28F8F"/>
<path d="M58.9298 40.0469C59.5894 40.0904 61.4043 40.114 62.472 41.4546C63.6309 42.9059 65.3054 45.7813 66.333 47.7659C66.9489 48.9578 67.102 49.6835 66.5152 50.5579C65.9941 51.3234 63.5398 54.1208 62.8401 54.9226C62.3754 55.456 61.7596 56.4701 61.2676 56.8946C61.2676 56.8946 60.1889 56.7621 59.4455 54.9226C59.4455 54.9226 59.3744 54.6432 58.7167 54.948C58.2611 55.1603 57.6653 55.2564 57.3519 55.0133C57.0385 54.7702 57.6872 54.5562 58.0042 54.3131C58.4573 53.9216 58.9918 53.6347 59.5694 53.4731C60.393 53.2464 60.6845 53.5294 61.4115 52.6187C62.1386 51.708 63.2646 49.1955 63.2646 49.1955L60.3165 44.7835C59.3635 43.2433 58.3941 41.5907 58.9298 40.0469Z" fill="#FFA8A7"/>
<path d="M63.261 49.1931C63.7183 48.4475 64.8444 48.2861 64.8444 48.2861C64.5226 48.2512 64.1971 48.2887 63.8918 48.3958C63.5866 48.5028 63.3093 48.6767 63.0806 48.9047L63.261 49.1931Z" fill="#F28F8F"/>
</svg>
