<svg width="69" height="111" viewBox="0 0 69 111" fill="none" xmlns="http://www.w3.org/2000/svg">
<path d="M0.5 55.5C0.5 25.1243 25.1243 0.5 55.5 0.5H61C65.1421 0.5 68.5 3.85786 68.5 8V103C68.5 107.142 65.1421 110.5 61 110.5H55.5C25.1243 110.5 0.5 85.8757 0.5 55.5Z" fill="white"/>
<path d="M0.5 55.5C0.5 25.1243 25.1243 0.5 55.5 0.5H61C65.1421 0.5 68.5 3.85786 68.5 8V103C68.5 107.142 65.1421 110.5 61 110.5H55.5C25.1243 110.5 0.5 85.8757 0.5 55.5Z" stroke="#E7E9EC"/>
<g filter="url(#filter0_d_217_59503)">
<path d="M20.1899 70.0684C20.1193 70.0211 20.0644 69.9538 20.0321 69.8751C19.9999 69.7965 19.9918 69.71 20.0088 69.6267L24.3476 50.4242C24.3998 50.2385 24.5176 50.0781 24.6792 49.9727L50.4962 35.0698C50.5752 35.028 50.6629 35.0055 50.7522 35.004C50.8414 35.0025 50.9298 35.0221 51.0101 35.0612C51.0796 35.1088 51.1335 35.1759 51.1651 35.254C51.1967 35.3322 51.2045 35.4179 51.1875 35.5004L46.8476 54.703C46.7953 54.8889 46.6769 55.0495 46.5148 55.1545L20.7038 70.0574C20.6251 70.0995 20.5375 70.1225 20.4482 70.1244C20.3589 70.1263 20.2704 70.1071 20.1899 70.0684Z" fill="#F0F0F0"/>
<path d="M24.8442 50.7066L20.5055 69.9165C20.4688 70.0804 20.5569 70.1465 20.7037 70.0621L46.5208 55.1591C46.683 55.0541 46.8013 54.8936 46.8536 54.7076L51.1875 35.499C51.2242 35.3338 51.1361 35.269 50.9892 35.3534L25.1722 50.2563C25.0123 50.3622 24.8959 50.522 24.8442 50.7066Z" fill="#E6E6E6"/>
<path d="M51.5017 35.3419C51.4213 35.3029 51.3329 35.2836 51.2436 35.2853C51.1543 35.287 51.0667 35.3097 50.9878 35.3516L25.1707 50.2546C25.0958 50.3031 25.0356 50.3711 24.9966 50.4513C24.9576 50.5315 24.9412 50.6209 24.9493 50.7097L28.3471 74.4945C28.3637 74.5846 28.3981 74.6706 28.4483 74.7473C28.4985 74.8239 28.5635 74.8898 28.6395 74.9411C28.7196 74.9803 28.8079 74.9998 28.897 74.9981C28.9862 74.9964 29.0737 74.9735 29.1522 74.9313L54.9644 60.032C55.0395 59.9834 55.0998 59.9152 55.1388 59.8348C55.1779 59.7543 55.1941 59.6647 55.1858 59.5756L51.799 35.7884C51.7819 35.6979 51.7468 35.6117 51.6957 35.535C51.6446 35.4582 51.5787 35.3926 51.5017 35.3419Z" fill="#F0F0F0"/>
<path d="M25.4513 51.0001L28.8442 74.7848C28.8449 74.8203 28.8553 74.8548 28.8745 74.8847C28.8936 74.9146 28.9206 74.9386 28.9525 74.9541C28.9845 74.9695 29.0201 74.9758 29.0554 74.9723C29.0907 74.9688 29.1243 74.9555 29.1525 74.9341L54.9647 60.0348C55.0398 59.9862 55.1001 59.918 55.1392 59.8375C55.1782 59.7571 55.1945 59.6675 55.1862 59.5784L51.7994 35.7912C51.7989 35.7557 51.7886 35.7209 51.7696 35.6909C51.7505 35.6608 51.7235 35.6366 51.6915 35.621C51.6596 35.6054 51.6239 35.599 51.5885 35.6025C51.5531 35.606 51.5193 35.6192 51.491 35.6407L25.674 50.5437C25.5986 50.5921 25.5381 50.6602 25.4988 50.7407C25.4595 50.8212 25.4431 50.9109 25.4513 51.0001Z" fill="#FAFAFA"/>
<path d="M20.5286 69.8085L27.1358 65.9922L27.3279 67.3748L24.2983 69.1245C24.2983 69.1245 23.4908 69.4108 23.1702 69.4916C22.8497 69.5723 20.5286 69.8085 20.5286 69.8085Z" fill="#E0E0E0"/>
<path d="M27.3314 67.375L28.3225 74.3248L24.3019 69.1247L27.3314 67.375Z" fill="#E6E6E6"/>
<path d="M28.2043 74.5594L24.6009 69.8793C24.5411 69.8095 24.4654 69.755 24.3803 69.7203C24.2952 69.6856 24.203 69.6717 24.1114 69.6798L20.7418 70.1693C20.552 70.1896 20.3604 70.1547 20.1899 70.0689C20.0529 69.9906 20.0762 69.9001 20.2413 69.8683L24.1139 69.1231C24.2047 69.1095 24.2975 69.1195 24.3832 69.1523C24.469 69.1851 24.5448 69.2395 24.6033 69.3103L28.7059 74.8408C28.8062 74.9766 28.7769 75.0219 28.6398 74.9424C28.4747 74.8394 28.3275 74.71 28.2043 74.5594Z" fill="#E0E0E0"/>
<path d="M51.1936 35.4036C51.1931 35.3347 51.1757 35.2669 51.1429 35.2063C51.11 35.1457 51.0627 35.0941 51.0052 35.0561C50.9247 35.0176 50.8363 34.9984 50.7471 35.0001C50.6578 35.0018 50.5702 35.0243 50.4913 35.0659L24.6742 49.9688C24.5955 50.0182 24.5269 50.0821 24.4723 50.1573C24.4117 50.2354 24.3672 50.3248 24.3414 50.4203L23.7296 53.133L24.2264 53.418L50.5757 38.2092L51.1875 35.4978C51.1933 35.4668 51.1958 35.4352 51.1948 35.4036H51.1936Z" fill="#0071CE"/>
<path opacity="0.2" d="M51.1875 35.499C51.2242 35.3338 51.1361 35.269 50.9893 35.3534L25.1722 50.2563C25.011 50.3615 24.8932 50.5214 24.8407 50.7066L24.2289 53.4192L50.5758 38.2104L51.1875 35.499Z" fill="black"/>
<path opacity="0.1" d="M24.9737 50.4438C24.913 50.5212 24.8688 50.6104 24.844 50.7056L24.2322 53.4183L23.7355 53.1319L24.3473 50.4193C24.373 50.3238 24.4175 50.2344 24.4782 50.1562L24.9737 50.4438Z" fill="black"/>
<path opacity="0.4" d="M51.1934 35.4036C51.1812 35.3118 51.1017 35.2812 50.9879 35.3534L25.1708 50.2551C25.0915 50.3043 25.0229 50.3687 24.9689 50.4448L24.4722 50.1573C24.5268 50.0821 24.5953 50.0182 24.6741 49.9688L50.4911 35.0659C50.5701 35.0243 50.6577 35.0018 50.7469 35.0001C50.8361 34.9984 50.9245 35.0176 51.005 35.0561C51.0626 35.0941 51.1098 35.1457 51.1427 35.2063C51.1756 35.2669 51.193 35.3347 51.1934 35.4036Z" fill="white"/>
<path d="M51.8249 36.016L51.7992 35.7884C51.7974 35.7773 51.7949 35.7663 51.7919 35.7554C51.7924 35.7522 51.7924 35.7489 51.7919 35.7456C51.7503 35.581 51.6497 35.4373 51.5093 35.3419C51.4289 35.3029 51.3404 35.2836 51.2511 35.2853C51.1618 35.287 51.0742 35.3097 50.9954 35.3516L25.1783 50.2546C25.1001 50.303 25.0383 50.3737 25.0009 50.4577C24.9626 50.5358 24.9474 50.6232 24.9568 50.7097L25.4462 54.1173L25.943 54.4049L52.2801 39.1973L51.8249 36.016Z" fill="#0071CE"/>
<path opacity="0.1" d="M25.9379 54.4042L25.4411 54.1167L24.9517 50.7091C24.9422 50.6226 24.9575 50.5352 24.9957 50.457L25.4937 50.7433C25.4546 50.8212 25.4389 50.9088 25.4485 50.9954L25.9379 54.4042Z" fill="black"/>
<path opacity="0.4" d="M51.7845 35.7456C51.7775 35.7148 51.7629 35.6862 51.7419 35.6626C51.721 35.6389 51.6944 35.6208 51.6647 35.6101C51.635 35.5994 51.603 35.5963 51.5718 35.6012C51.5406 35.606 51.5111 35.6187 51.486 35.638L25.6689 50.5409C25.5905 50.5889 25.5286 50.6598 25.4915 50.744L25.0033 50.4577C25.0411 50.3736 25.1028 50.3025 25.1807 50.2534L50.9978 35.3516C51.0766 35.3097 51.1643 35.287 51.2536 35.2853C51.3429 35.2836 51.4313 35.3029 51.5117 35.3419C51.6488 35.4387 51.7458 35.5823 51.7845 35.7456Z" fill="white"/>
<path d="M32.791 70.8421L32.4827 68.6752C32.4823 68.647 32.4741 68.6194 32.4591 68.5955C32.444 68.5716 32.4228 68.5523 32.3975 68.5397C32.3723 68.5271 32.344 68.5216 32.3159 68.524C32.2878 68.5263 32.2608 68.5363 32.238 68.5528L29.9879 69.8523C29.9273 69.891 29.8786 69.9459 29.8472 70.0107C29.8159 70.0755 29.8032 70.1477 29.8105 70.2193L30.1176 72.3911C30.1176 72.4195 30.1255 72.4474 30.1404 72.4715C30.1554 72.4957 30.1767 72.5152 30.2021 72.5279C30.2275 72.5406 30.256 72.546 30.2843 72.5435C30.3125 72.5409 30.3396 72.5305 30.3623 72.5135L32.6124 71.2141C32.6742 71.1752 32.7237 71.1196 32.7553 71.0538C32.7869 70.988 32.7993 70.9146 32.791 70.8421Z" fill="#0071CE"/>
<path d="M36.2708 68.8343L35.9613 66.6686C35.9613 66.6402 35.9534 66.6123 35.9384 66.5882C35.9235 66.564 35.9021 66.5445 35.8767 66.5318C35.8513 66.5191 35.8229 66.5137 35.7946 66.5162C35.7663 66.5188 35.7393 66.5292 35.7166 66.5462L33.4664 67.8444C33.4059 67.8833 33.3573 67.9382 33.326 68.0029C33.2947 68.0677 33.2819 68.1399 33.289 68.2115L33.5986 70.3784C33.5986 70.4068 33.6065 70.4346 33.6214 70.4588C33.6364 70.483 33.6577 70.5025 33.6831 70.5152C33.7085 70.5279 33.737 70.5333 33.7653 70.5307C33.7936 70.5282 33.8206 70.5178 33.8433 70.5008L36.0934 69.2013C36.1542 69.1626 36.2029 69.1078 36.2343 69.043C36.2656 68.9782 36.2783 68.9059 36.2708 68.8343Z" fill="#EBEBEB"/>
<path d="M39.7508 66.8304L39.4413 64.6647C39.4413 64.6363 39.4334 64.6084 39.4184 64.5843C39.4035 64.5601 39.3821 64.5406 39.3567 64.5279C39.3313 64.5152 39.3029 64.5098 39.2746 64.5123C39.2463 64.5149 39.2193 64.5253 39.1966 64.5423L36.9452 65.8429C36.8847 65.8818 36.8361 65.9367 36.8048 66.0015C36.7735 66.0663 36.7607 66.1384 36.7678 66.21L37.0774 68.3769C37.0774 68.4053 37.0853 68.4332 37.1002 68.4573C37.1151 68.4815 37.1365 68.501 37.1619 68.5137C37.1873 68.5264 37.2157 68.5318 37.244 68.5293C37.2723 68.5267 37.2993 68.5163 37.3221 68.4993L39.5722 67.1999C39.6335 67.1612 39.6828 67.106 39.7144 67.0407C39.746 66.9754 39.7586 66.9025 39.7508 66.8304Z" fill="#EBEBEB"/>
<path d="M43.2344 64.8238L42.9248 62.6569C42.9248 62.6284 42.9169 62.6006 42.902 62.5764C42.8871 62.5523 42.8657 62.5328 42.8403 62.5201C42.8149 62.5074 42.7864 62.502 42.7581 62.5045C42.7299 62.5071 42.7028 62.5175 42.6801 62.5345L40.4202 63.8364C40.3595 63.875 40.3107 63.9299 40.2794 63.9947C40.248 64.0595 40.2354 64.1318 40.2428 64.2034L40.5523 66.3691C40.5523 66.3975 40.5603 66.4254 40.5752 66.4495C40.5901 66.4737 40.6115 66.4932 40.6369 66.5059C40.6623 66.5186 40.6907 66.524 40.719 66.5215C40.7473 66.5189 40.7743 66.5085 40.7971 66.4915L43.0472 65.1933C43.1099 65.1555 43.1607 65.1008 43.1938 65.0354C43.2269 64.9701 43.241 64.8967 43.2344 64.8238Z" fill="#EBEBEB"/>
<path d="M46.7104 62.8169L46.4009 60.6451C46.4009 60.6167 46.393 60.5889 46.378 60.5647C46.3631 60.5406 46.3417 60.521 46.3163 60.5083C46.2909 60.4956 46.2625 60.4903 46.2342 60.4928C46.2059 60.4954 46.1789 60.5057 46.1562 60.5228L43.906 61.8222C43.8453 61.8609 43.7965 61.9157 43.7652 61.9805C43.7339 62.0454 43.7212 62.1176 43.7286 62.1893L44.0382 64.355C44.0382 64.3834 44.0461 64.4112 44.061 64.4354C44.076 64.4595 44.0973 64.4791 44.1227 64.4918C44.1481 64.5045 44.1766 64.5098 44.2049 64.5073C44.2332 64.5047 44.2602 64.4944 44.2829 64.4773L46.5379 63.1816C46.5971 63.1423 46.6445 63.0875 46.6749 63.0233C46.7053 62.959 46.7176 62.8877 46.7104 62.8169Z" fill="#EBEBEB"/>
<path d="M50.19 60.8121L49.8805 58.6451C49.8805 58.6167 49.8726 58.5889 49.8576 58.5647C49.8427 58.5406 49.8213 58.521 49.7959 58.5083C49.7705 58.4956 49.7421 58.4903 49.7138 58.4928C49.6855 58.4954 49.6585 58.5057 49.6358 58.5228L47.3857 59.8222C47.3249 59.8609 47.2762 59.9157 47.2448 59.9805C47.2135 60.0454 47.2008 60.1176 47.2082 60.1893L47.5166 62.3599C47.5166 62.3883 47.5245 62.4161 47.5394 62.4403C47.5543 62.4644 47.5757 62.484 47.6011 62.4967C47.6265 62.5094 47.655 62.5147 47.6833 62.5122C47.7115 62.5096 47.7386 62.4993 47.7613 62.4822L50.0114 61.1828C50.0729 61.1439 50.1222 61.0885 50.1538 61.023C50.1853 60.9574 50.1979 60.8844 50.19 60.8121Z" fill="#EBEBEB"/>
<path d="M53.6698 58.8121L53.3603 56.6451C53.3603 56.6167 53.3524 56.5889 53.3374 56.5647C53.3225 56.5406 53.3011 56.521 53.2757 56.5083C53.2503 56.4956 53.2219 56.4903 53.1936 56.4928C53.1653 56.4954 53.1383 56.5057 53.1156 56.5228L50.8654 57.8222C50.8048 57.861 50.7561 57.9158 50.7248 57.9806C50.6935 58.0454 50.6808 58.1177 50.688 58.1893L50.9964 60.3562C50.9968 60.3844 51.005 60.412 51.02 60.4358C51.035 60.4597 51.0563 60.479 51.0816 60.4917C51.1068 60.5043 51.135 60.5097 51.1632 60.5074C51.1913 60.5051 51.2182 60.4951 51.2411 60.4785L53.4912 59.1791C53.552 59.1405 53.601 59.0857 53.6325 59.0209C53.6641 58.9561 53.677 58.8838 53.6698 58.8121Z" fill="#EBEBEB"/>
<path d="M32.1868 66.6014L31.8772 64.4369C31.8768 64.4087 31.8686 64.3811 31.8536 64.3572C31.8386 64.3334 31.8173 64.3141 31.792 64.3014C31.7668 64.2888 31.7386 64.2834 31.7104 64.2857C31.6823 64.288 31.6554 64.298 31.6325 64.3146L29.3824 65.614C29.3218 65.6528 29.2731 65.7076 29.2418 65.7724C29.2105 65.8372 29.1977 65.9094 29.205 65.981L29.5133 68.148C29.5138 68.1762 29.522 68.2037 29.537 68.2276C29.552 68.2515 29.5733 68.2708 29.5985 68.2834C29.6238 68.2961 29.652 68.3015 29.6801 68.2992C29.7083 68.2969 29.7352 68.2869 29.758 68.2703L32.0082 66.9709C32.069 66.9317 32.1179 66.8764 32.1494 66.8112C32.1809 66.7461 32.1939 66.6734 32.1868 66.6014Z" fill="#0071CE"/>
<path d="M35.6663 64.596L35.3567 62.4291C35.3563 62.4009 35.3481 62.3733 35.3331 62.3494C35.3181 62.3256 35.2968 62.3062 35.2715 62.2936C35.2463 62.281 35.2181 62.2755 35.1899 62.2779C35.1618 62.2802 35.1349 62.2902 35.112 62.3067L32.8619 63.6062C32.8013 63.645 32.7526 63.6998 32.7213 63.7646C32.6899 63.8294 32.6772 63.9016 32.6845 63.9732L32.9928 66.1402C32.9933 66.1684 33.0014 66.1959 33.0165 66.2198C33.0315 66.2437 33.0528 66.263 33.078 66.2756C33.1033 66.2883 33.1315 66.2937 33.1596 66.2914C33.1877 66.2891 33.2147 66.2791 33.2375 66.2625L35.4877 64.9631C35.5481 64.9241 35.5967 64.8692 35.6282 64.8045C35.6597 64.7398 35.6729 64.6677 35.6663 64.596Z" fill="#EBEBEB"/>
<path d="M39.1463 62.5882L38.8367 60.4213C38.8363 60.3931 38.8281 60.3655 38.8131 60.3416C38.798 60.3177 38.7768 60.2984 38.7515 60.2858C38.7263 60.2732 38.698 60.2677 38.6699 60.2701C38.6418 60.2724 38.6148 60.2824 38.592 60.2989L36.3419 61.5984C36.2813 61.6371 36.2326 61.692 36.2012 61.7568C36.1699 61.8216 36.1572 61.8938 36.1645 61.9654L36.4728 64.1323C36.4732 64.1606 36.4814 64.1881 36.4964 64.212C36.5115 64.2359 36.5328 64.2552 36.558 64.2678C36.5832 64.2804 36.6115 64.2859 36.6396 64.2836C36.6677 64.2813 36.6947 64.2713 36.7175 64.2547L38.9676 62.9553C39.0281 62.9162 39.0767 62.8614 39.1082 62.7967C39.1397 62.732 39.1529 62.6599 39.1463 62.5882Z" fill="#EBEBEB"/>
<path d="M42.6224 60.5843L42.3128 58.4174C42.3124 58.3892 42.3042 58.3616 42.2892 58.3377C42.2742 58.3138 42.2529 58.2945 42.2276 58.2819C42.2024 58.2693 42.1742 58.2638 42.146 58.2661C42.1179 58.2685 42.091 58.2785 42.0681 58.295L39.8205 59.5969C39.7599 59.6358 39.7113 59.6906 39.68 59.7554C39.6487 59.8202 39.6359 59.8924 39.643 59.964L39.9514 62.1309C39.9518 62.1591 39.96 62.1867 39.975 62.2105C39.99 62.2344 40.0113 62.2537 40.0366 62.2664C40.0618 62.279 40.09 62.2844 40.1182 62.2821C40.1463 62.2798 40.1732 62.2698 40.1961 62.2532L42.4462 60.9538C42.5067 60.9144 42.5552 60.859 42.5863 60.7938C42.6173 60.7286 42.6298 60.6561 42.6224 60.5843Z" fill="#EBEBEB"/>
<path d="M46.1061 58.5765L45.7965 56.4108C45.7965 56.3824 45.7886 56.3545 45.7736 56.3303C45.7587 56.3062 45.7374 56.2867 45.7119 56.274C45.6865 56.2613 45.6581 56.2559 45.6298 56.2584C45.6015 56.261 45.5745 56.2714 45.5518 56.2884L43.3004 57.5866C43.2399 57.6255 43.1913 57.6803 43.16 57.7451C43.1287 57.8099 43.1159 57.8821 43.123 57.9537L43.4314 60.1206C43.4318 60.1488 43.44 60.1764 43.455 60.2002C43.47 60.2241 43.4913 60.2434 43.5166 60.2561C43.5418 60.2687 43.57 60.2741 43.5981 60.2718C43.6263 60.2695 43.6532 60.2595 43.6761 60.2429L45.9262 58.9411C45.9866 58.9025 46.0353 58.8481 46.067 58.7838C46.0987 58.7196 46.1122 58.6479 46.1061 58.5765Z" fill="#EBEBEB"/>
<path d="M49.5859 56.5713L49.2764 54.4069C49.2764 54.3784 49.2685 54.3506 49.2535 54.3264C49.2386 54.3023 49.2172 54.2828 49.1918 54.2701C49.1664 54.2574 49.138 54.252 49.1097 54.2545C49.0814 54.2571 49.0544 54.2675 49.0317 54.2845L46.7828 55.5851C46.722 55.6238 46.6733 55.6787 46.6419 55.7435C46.6106 55.8083 46.5979 55.8806 46.6053 55.9522L46.9137 58.1179C46.9141 58.1461 46.9223 58.1737 46.9373 58.1976C46.9523 58.2215 46.9736 58.2408 46.9989 58.2534C47.0241 58.266 47.0523 58.2715 47.0805 58.2691C47.1086 58.2668 47.1355 58.2568 47.1584 58.2403L49.4085 56.9408C49.4692 56.9016 49.5179 56.8463 49.5492 56.7811C49.5805 56.7159 49.5932 56.6433 49.5859 56.5713Z" fill="#EBEBEB"/>
<path d="M53.0653 54.566L52.7557 52.399C52.7557 52.3706 52.7478 52.3428 52.7329 52.3186C52.718 52.2945 52.6966 52.2749 52.6712 52.2622C52.6458 52.2495 52.6173 52.2442 52.5891 52.2467C52.5608 52.2493 52.5337 52.2596 52.511 52.2767L50.2597 53.5761C50.1993 53.615 50.1508 53.67 50.1197 53.7347C50.0886 53.7995 50.0761 53.8717 50.0835 53.9432L50.3918 56.1089C50.3923 56.1371 50.4004 56.1646 50.4155 56.1885C50.4305 56.2124 50.4518 56.2317 50.477 56.2443C50.5023 56.257 50.5305 56.2624 50.5586 56.2601C50.5867 56.2578 50.6137 56.2478 50.6365 56.2312L52.8867 54.933C52.947 54.8939 52.9956 54.839 53.027 54.7743C53.0585 54.7097 53.0717 54.6376 53.0653 54.566Z" fill="#EBEBEB"/>
<path d="M31.581 62.3577L31.2727 60.1908C31.2722 60.1626 31.2641 60.135 31.249 60.1112C31.234 60.0873 31.2127 60.068 31.1875 60.0553C31.1622 60.0427 31.134 60.0373 31.1059 60.0396C31.0778 60.0419 31.0508 60.0519 31.028 60.0685L28.7754 61.3789C28.7151 61.418 28.6666 61.4729 28.6353 61.5376C28.604 61.6023 28.5911 61.6744 28.598 61.746L28.9075 63.9117C28.9075 63.9401 28.9154 63.9679 28.9304 63.9921C28.9453 64.0162 28.9667 64.0358 28.9921 64.0485C29.0175 64.0612 29.0459 64.0665 29.0742 64.064C29.1025 64.0614 29.1295 64.0511 29.1523 64.034L31.4036 62.7248C31.4641 62.6859 31.5127 62.6311 31.544 62.5663C31.5753 62.5015 31.5881 62.4293 31.581 62.3577Z" fill="#0071CE"/>
<path d="M35.0607 60.3577L34.7524 58.1908C34.752 58.1626 34.7438 58.135 34.7288 58.1112C34.7137 58.0873 34.6924 58.068 34.6672 58.0553C34.642 58.0427 34.6137 58.0373 34.5856 58.0396C34.5575 58.0419 34.5305 58.0519 34.5077 58.0685L32.2576 59.3679C32.1972 59.407 32.1488 59.4619 32.1175 59.5266C32.0862 59.5913 32.0733 59.6634 32.0802 59.735L32.3897 61.9019C32.3902 61.9301 32.3983 61.9576 32.4134 61.9815C32.4284 62.0054 32.4497 62.0247 32.4749 62.0374C32.5002 62.05 32.5284 62.0554 32.5565 62.0531C32.5846 62.0508 32.6116 62.0408 32.6344 62.0242L34.8846 60.7248C34.945 60.6859 34.9934 60.631 35.0245 60.5662C35.0556 60.5014 35.0681 60.4292 35.0607 60.3577Z" fill="#EBEBEB"/>
<path d="M38.5407 58.3499L38.2323 56.183C38.2319 56.1548 38.2237 56.1272 38.2087 56.1033C38.1937 56.0795 38.1724 56.0601 38.1471 56.0475C38.1219 56.0349 38.0937 56.0295 38.0655 56.0318C38.0374 56.0341 38.0105 56.0441 37.9876 56.0607L35.7375 57.3601C35.6773 57.3993 35.6289 57.4542 35.5976 57.5189C35.5663 57.5836 35.5534 57.6556 35.5601 57.7271L35.8696 59.8941C35.8701 59.9223 35.8783 59.9498 35.8933 59.9737C35.9083 59.9976 35.9296 60.0169 35.9548 60.0295C35.9801 60.0422 36.0083 60.0476 36.0364 60.0453C36.0646 60.043 36.0915 60.033 36.1143 60.0164L38.3645 58.717C38.4249 58.6781 38.4733 58.6231 38.5044 58.5584C38.5355 58.4936 38.5481 58.4214 38.5407 58.3499Z" fill="#EBEBEB"/>
<path d="M42.0205 56.3421L41.7122 54.1752C41.7117 54.147 41.7036 54.1194 41.6885 54.0955C41.6735 54.0716 41.6522 54.0523 41.627 54.0397C41.6017 54.0271 41.5735 54.0216 41.5454 54.024C41.5173 54.0263 41.4903 54.0363 41.4675 54.0528L39.2173 55.3523C39.1571 55.3914 39.1087 55.4464 39.0775 55.5111C39.0462 55.5758 39.0332 55.6478 39.0399 55.7193L39.3495 57.8862C39.3499 57.9145 39.3581 57.942 39.3731 57.9659C39.3882 57.9898 39.4095 58.0091 39.4347 58.0217C39.4599 58.0344 39.4882 58.0398 39.5163 58.0375C39.5444 58.0352 39.5714 58.0252 39.5942 58.0086L41.8443 56.7092C41.9047 56.6702 41.9532 56.6153 41.9843 56.5505C42.0154 56.4857 42.0279 56.4136 42.0205 56.3421Z" fill="#EBEBEB"/>
<path d="M45.5001 54.3382L45.1918 52.1713C45.1914 52.1431 45.1832 52.1155 45.1682 52.0916C45.1531 52.0677 45.1318 52.0484 45.1066 52.0358C45.0814 52.0232 45.0531 52.0177 45.025 52.0201C44.9969 52.0224 44.9699 52.0324 44.9471 52.0489L42.697 53.3484C42.6367 53.3875 42.5884 53.4425 42.5571 53.5072C42.5258 53.5719 42.5128 53.6439 42.5195 53.7154L42.8291 55.8823C42.8295 55.9106 42.8377 55.9381 42.8528 55.962C42.8678 55.9859 42.8891 56.0052 42.9143 56.0178C42.9396 56.0304 42.9678 56.0359 42.9959 56.0336C43.024 56.0313 43.051 56.0213 43.0738 56.0047L45.3239 54.7053C45.3843 54.6663 45.4328 54.6114 45.4639 54.5466C45.495 54.4818 45.5075 54.4097 45.5001 54.3382Z" fill="#EBEBEB"/>
<path d="M48.9851 52.3265L48.6768 50.1596C48.6764 50.1314 48.6682 50.1038 48.6532 50.0799C48.6381 50.056 48.6168 50.0367 48.5916 50.0241C48.5664 50.0115 48.5381 50.006 48.51 50.0083C48.4819 50.0106 48.4549 50.0206 48.4321 50.0372L46.171 51.3476C46.1107 51.3868 46.0624 51.4417 46.0311 51.5064C45.9998 51.5711 45.9868 51.6432 45.9935 51.7147L46.3031 53.8816C46.3035 53.9099 46.3117 53.9374 46.3267 53.9613C46.3418 53.9852 46.3631 54.0045 46.3883 54.0171C46.4136 54.0297 46.4418 54.0352 46.4699 54.0329C46.498 54.0306 46.525 54.0206 46.5478 54.004L48.8028 52.6936C48.8645 52.6555 48.9142 52.6009 48.9464 52.5361C48.9787 52.4712 48.9921 52.3986 48.9851 52.3265Z" fill="#EBEBEB"/>
<path d="M52.4597 50.3253L52.1513 48.1596C52.1509 48.1314 52.1427 48.1038 52.1277 48.0799C52.1127 48.056 52.0914 48.0367 52.0661 48.0241C52.0409 48.0115 52.0127 48.006 51.9845 48.0083C51.9564 48.0106 51.9295 48.0206 51.9066 48.0372L49.6565 49.3354C49.5962 49.3745 49.5477 49.4294 49.5164 49.4941C49.4852 49.5588 49.4722 49.6309 49.4791 49.7025L49.7886 51.8694C49.7891 51.8976 49.7973 51.9252 49.8123 51.9491C49.8273 51.973 49.8486 51.9923 49.8738 52.0049C49.8991 52.0175 49.9273 52.023 49.9554 52.0206C49.9836 52.0183 50.0105 52.0083 50.0334 51.9918L52.2884 50.6899C52.3476 50.6506 52.3949 50.5959 52.4251 50.5316C52.4553 50.4673 52.4672 50.3959 52.4597 50.3253Z" fill="#EBEBEB"/>
<path d="M30.9767 58.1233L30.6671 55.9576C30.6671 55.9292 30.6592 55.9014 30.6443 55.8772C30.6293 55.8531 30.608 55.8335 30.5825 55.8208C30.5571 55.8081 30.5287 55.8028 30.5004 55.8053C30.4721 55.8079 30.4451 55.8182 30.4224 55.8353L28.1723 57.1335C28.1117 57.1724 28.0631 57.2272 28.0318 57.292C28.0005 57.3568 27.9877 57.4289 27.9948 57.5005L28.3068 59.6675C28.3068 59.6959 28.3148 59.7237 28.3297 59.7479C28.3446 59.772 28.366 59.7916 28.3914 59.8043C28.4168 59.817 28.4452 59.8223 28.4735 59.8198C28.5018 59.8172 28.5288 59.8069 28.5516 59.7898L30.8017 58.4904C30.862 58.4514 30.9102 58.3964 30.9411 58.3316C30.972 58.2668 30.9843 58.1947 30.9767 58.1233Z" fill="#0071CE"/>
<path d="M34.4563 56.1194L34.1467 53.9537C34.1467 53.9253 34.1388 53.8975 34.1239 53.8733C34.109 53.8492 34.0876 53.8296 34.0622 53.8169C34.0368 53.8042 34.0083 53.7988 33.98 53.8014C33.9518 53.804 33.9247 53.8143 33.902 53.8314L31.6519 55.1308C31.5912 55.1695 31.5424 55.2243 31.5111 55.2891C31.4797 55.354 31.4671 55.4262 31.4745 55.4979L31.784 57.6636C31.784 57.692 31.7919 57.7198 31.8069 57.744C31.8218 57.7681 31.8432 57.7876 31.8686 57.8004C31.894 57.8131 31.9224 57.8184 31.9507 57.8159C31.979 57.8133 32.006 57.803 32.0287 57.7859L34.2789 56.4865C34.3396 56.4478 34.3884 56.393 34.4197 56.3281C34.451 56.2633 34.4637 56.191 34.4563 56.1194Z" fill="#EBEBEB"/>
<path d="M37.9363 54.1089L37.6267 51.942C37.6267 51.9136 37.6188 51.8858 37.6039 51.8616C37.5889 51.8374 37.5676 51.8179 37.5422 51.8052C37.5168 51.7925 37.4883 51.7871 37.46 51.7897C37.4317 51.7922 37.4047 51.8026 37.382 51.8197L35.1319 53.1191C35.0711 53.1578 35.0224 53.2126 34.991 53.2774C34.9597 53.3422 34.947 53.4145 34.9545 53.4861L35.264 55.6518C35.264 55.6802 35.2719 55.7081 35.2869 55.7322C35.3018 55.7564 35.3232 55.7759 35.3486 55.7886C35.374 55.8013 35.4024 55.8067 35.4307 55.8042C35.459 55.8016 35.486 55.7912 35.5087 55.7742L37.7588 54.476C37.8194 54.4371 37.868 54.3822 37.8993 54.3175C37.9306 54.2527 37.9434 54.1805 37.9363 54.1089Z" fill="#EBEBEB"/>
<path d="M41.4162 52.105L41.1067 49.9381C41.1067 49.9097 41.0988 49.8819 41.0838 49.8577C41.0689 49.8335 41.0475 49.814 41.0221 49.8013C40.9967 49.7886 40.9683 49.7832 40.94 49.7858C40.9117 49.7883 40.8847 49.7987 40.862 49.8157L38.6119 51.1152C38.5511 51.1539 38.5024 51.2087 38.471 51.2735C38.4397 51.3383 38.427 51.4106 38.4344 51.4822L38.7428 53.6492C38.7432 53.6774 38.7514 53.7049 38.7664 53.7288C38.7814 53.7527 38.8027 53.772 38.828 53.7846C38.8532 53.7973 38.8814 53.8027 38.9096 53.8004C38.9377 53.7981 38.9646 53.7881 38.9875 53.7715L41.2376 52.4721C41.2984 52.4334 41.3472 52.3786 41.3787 52.3138C41.4103 52.249 41.4233 52.1767 41.4162 52.105Z" fill="#EBEBEB"/>
<path d="M44.8957 50.0972L44.5862 47.9303C44.5862 47.9019 44.5783 47.874 44.5633 47.8499C44.5484 47.8257 44.527 47.8062 44.5016 47.7935C44.4762 47.7808 44.4478 47.7754 44.4195 47.778C44.3912 47.7805 44.3642 47.7909 44.3415 47.8079L42.0913 49.1074C42.0306 49.146 41.9819 49.2009 41.9505 49.2657C41.9192 49.3305 41.9065 49.4028 41.9139 49.4744L42.2223 51.6413C42.2227 51.6696 42.2309 51.6971 42.2459 51.721C42.2609 51.7449 42.2822 51.7642 42.3075 51.7768C42.3327 51.7894 42.3609 51.7949 42.3891 51.7926C42.4172 51.7903 42.4441 51.7803 42.467 51.7637L44.7171 50.4643C44.778 50.4256 44.8269 50.3709 44.8584 50.3061C44.89 50.2412 44.9029 50.1689 44.8957 50.0972Z" fill="#EBEBEB"/>
<path d="M48.3731 48.0894L48.0635 45.9225C48.0635 45.8941 48.0556 45.8662 48.0407 45.8421C48.0257 45.8179 48.0044 45.7984 47.979 45.7857C47.9536 45.773 47.9251 45.7676 47.8968 45.7701C47.8686 45.7727 47.8415 45.7831 47.8188 45.8001L45.5687 47.0995C45.5081 47.1383 45.4594 47.1932 45.4281 47.258C45.3967 47.3228 45.384 47.395 45.3913 47.4666L45.7008 49.6323C45.7013 49.6605 45.7095 49.6881 45.7245 49.712C45.7395 49.7359 45.7608 49.7552 45.786 49.7678C45.8113 49.7804 45.8395 49.7859 45.8676 49.7835C45.8958 49.7812 45.9227 49.7712 45.9455 49.7547L48.1957 48.4552C48.2561 48.4166 48.3047 48.3619 48.336 48.2973C48.3673 48.2328 48.3801 48.1608 48.3731 48.0894Z" fill="#EBEBEB"/>
<path d="M51.8556 46.0855L51.5461 43.9186C51.5461 43.8902 51.5382 43.8623 51.5232 43.8382C51.5083 43.814 51.4869 43.7945 51.4615 43.7818C51.4361 43.7691 51.4077 43.7637 51.3794 43.7662C51.3511 43.7688 51.3241 43.7792 51.3014 43.7962L49.0512 45.0956C48.9906 45.1344 48.9419 45.1893 48.9106 45.2541C48.8793 45.3189 48.8665 45.3911 48.8738 45.4627L49.1822 47.6296C49.1826 47.6578 49.1908 47.6854 49.2058 47.7093C49.2208 47.7332 49.2421 47.7525 49.2674 47.7651C49.2926 47.7777 49.3208 47.7832 49.349 47.7809C49.3771 47.7785 49.404 47.7686 49.4269 47.752L51.677 46.4526C51.7378 46.4139 51.7868 46.3591 51.8183 46.2943C51.8499 46.2295 51.8628 46.1572 51.8556 46.0855Z" fill="#EBEBEB"/>
<path d="M30.4418 54.2919L30.3635 53.7389C30.3635 53.7105 30.3555 53.6826 30.3406 53.6585C30.3257 53.6343 30.3043 53.6148 30.2789 53.6021C30.2535 53.5894 30.2251 53.584 30.1968 53.5866C30.1685 53.5891 30.1415 53.5995 30.1187 53.6165L27.8674 54.9184C27.8068 54.9572 27.7581 55.012 27.7268 55.0768C27.6954 55.1416 27.6827 55.2139 27.69 55.2855L27.7671 55.8385C27.7675 55.8667 27.7757 55.8943 27.7907 55.9182C27.8057 55.9421 27.827 55.9614 27.8523 55.974C27.8775 55.9866 27.9057 55.9921 27.9339 55.9897C27.962 55.9874 27.9889 55.9774 28.0118 55.9609L30.2643 54.6566C30.3243 54.6177 30.3725 54.5632 30.4037 54.4989C30.435 54.4347 30.4482 54.3631 30.4418 54.2919Z" fill="#E6E6E6"/>
<path d="M33.9217 52.288L33.8434 51.735C33.8434 51.7066 33.8355 51.6787 33.8206 51.6546C33.8057 51.6304 33.7843 51.6109 33.7589 51.5982C33.7335 51.5855 33.705 51.5801 33.6768 51.5826C33.6485 51.5852 33.6214 51.5956 33.5987 51.6126L31.3474 52.9145C31.2867 52.9533 31.2381 53.0081 31.2067 53.0729C31.1754 53.1377 31.1627 53.2099 31.17 53.2816L31.247 53.8346C31.2475 53.8628 31.2557 53.8904 31.2707 53.9143C31.2857 53.9382 31.307 53.9575 31.3322 53.9701C31.3575 53.9827 31.3857 53.9882 31.4138 53.9858C31.442 53.9835 31.4689 53.9735 31.4918 53.957L33.7431 52.6575C33.8041 52.6184 33.853 52.5632 33.8845 52.498C33.9161 52.4328 33.9289 52.3601 33.9217 52.288Z" fill="#E6E6E6"/>
<path d="M37.4017 50.279L37.3234 49.726C37.323 49.6978 37.3148 49.6702 37.2998 49.6463C37.2847 49.6224 37.2635 49.6031 37.2382 49.5905C37.213 49.5779 37.1847 49.5724 37.1566 49.5747C37.1285 49.5771 37.1015 49.587 37.0787 49.6036L34.8274 50.9055C34.7667 50.9443 34.718 50.9991 34.6867 51.0639C34.6554 51.1287 34.6427 51.2009 34.6499 51.2726L34.727 51.8256C34.727 51.854 34.7349 51.8818 34.7499 51.906C34.7648 51.9302 34.7862 51.9497 34.8116 51.9624C34.837 51.9751 34.8654 51.9805 34.8937 51.9779C34.922 51.9754 34.949 51.965 34.9717 51.948L37.2231 50.6485C37.284 50.6094 37.333 50.5542 37.3645 50.489C37.396 50.4238 37.4089 50.3511 37.4017 50.279Z" fill="#E6E6E6"/>
<path d="M40.8812 48.2724L40.8029 47.7182C40.8025 47.6899 40.7943 47.6624 40.7793 47.6385C40.7642 47.6146 40.7429 47.5953 40.7177 47.5827C40.6925 47.5701 40.6642 47.5646 40.6361 47.5669C40.608 47.5692 40.581 47.5792 40.5582 47.5958L38.3068 48.8977C38.2462 48.9365 38.1975 48.9913 38.1662 49.0561C38.1349 49.1209 38.1222 49.1931 38.1294 49.2647L38.2065 49.8178C38.2065 49.8462 38.2144 49.874 38.2294 49.8982C38.2443 49.9224 38.2657 49.9419 38.2911 49.9546C38.3165 49.9673 38.3449 49.9727 38.3732 49.9701C38.4015 49.9676 38.4285 49.9572 38.4512 49.9401L40.7026 48.642C40.7633 48.6026 40.8121 48.5474 40.8436 48.4822C40.8751 48.417 40.8881 48.3445 40.8812 48.2724Z" fill="#E6E6E6"/>
<path d="M44.3611 46.2685L44.2828 45.7143C44.2824 45.686 44.2742 45.6585 44.2592 45.6346C44.2442 45.6107 44.2229 45.5914 44.1976 45.5788C44.1724 45.5662 44.1442 45.5607 44.116 45.563C44.0879 45.5653 44.0609 45.5753 44.0381 45.5919L41.7868 46.8938C41.7262 46.9327 41.6776 46.9875 41.6463 47.0523C41.615 47.1171 41.6022 47.1892 41.6093 47.2608L41.6864 47.8139C41.6864 47.8423 41.6943 47.8701 41.7093 47.8943C41.7242 47.9185 41.7456 47.938 41.771 47.9507C41.7964 47.9634 41.8248 47.9688 41.8531 47.9662C41.8814 47.9637 41.9084 47.9533 41.9311 47.9362L44.1825 46.638C44.2432 46.5987 44.292 46.5435 44.3235 46.4783C44.355 46.4131 44.368 46.3406 44.3611 46.2685Z" fill="#E6E6E6"/>
<path d="M47.8411 44.2607L47.7628 43.7076C47.7628 43.6792 47.7549 43.6514 47.74 43.6272C47.725 43.6031 47.7037 43.5835 47.6783 43.5708C47.6528 43.5581 47.6244 43.5528 47.5961 43.5553C47.5678 43.5579 47.5408 43.5682 47.5181 43.5853L45.2667 44.8859C45.2062 44.9248 45.1576 44.9797 45.1263 45.0444C45.095 45.1092 45.0822 45.1814 45.0893 45.253L45.1664 45.8073C45.1669 45.8355 45.175 45.863 45.1901 45.8869C45.2051 45.9108 45.2264 45.9301 45.2516 45.9427C45.2769 45.9554 45.3051 45.9608 45.3332 45.9585C45.3613 45.9562 45.3883 45.9462 45.4111 45.9296L47.6625 44.6302C47.7233 44.591 47.7722 44.5357 47.8037 44.4705C47.8352 44.4054 47.8482 44.3327 47.8411 44.2607Z" fill="#E6E6E6"/>
<path d="M51.3196 42.2529L51.2426 41.6998C51.2426 41.6714 51.2346 41.6436 51.2197 41.6194C51.2048 41.5953 51.1834 41.5757 51.158 41.563C51.1326 41.5503 51.1042 41.5449 51.0759 41.5475C51.0476 41.55 51.0206 41.5604 50.9978 41.5775L48.7477 42.8769C48.687 42.9156 48.6382 42.9704 48.6069 43.0352C48.5756 43.1001 48.5629 43.1723 48.5703 43.244L48.6474 43.797C48.6478 43.8252 48.656 43.8528 48.671 43.8767C48.6861 43.9006 48.7073 43.9199 48.7326 43.9325C48.7578 43.9451 48.7861 43.9506 48.8142 43.9482C48.8423 43.9459 48.8693 43.9359 48.8921 43.9194L51.1434 42.6199C51.2037 42.5809 51.2521 42.526 51.2832 42.4612C51.3143 42.3964 51.3269 42.3243 51.3196 42.2529Z" fill="#E6E6E6"/>
<path opacity="0.2" d="M27.8175 51.0264C27.8064 50.8647 27.8398 50.7031 27.914 50.559C27.9882 50.415 28.1004 50.2939 28.2384 50.2091C28.5125 50.0512 28.7682 50.1601 28.811 50.4538C28.8224 50.6156 28.789 50.7775 28.7146 50.9216C28.6401 51.0658 28.5275 51.1867 28.3889 51.2711C28.1161 51.4289 27.8603 51.32 27.8175 51.0264Z" fill="black"/>
<path opacity="0.2" d="M31.301 49.0233C31.2897 48.8616 31.3229 48.6998 31.3971 48.5557C31.4713 48.4116 31.5837 48.2906 31.7219 48.2059C31.996 48.0469 32.2517 48.1558 32.2945 48.4506C32.3058 48.6123 32.2724 48.774 32.1979 48.9179C32.1235 49.0618 32.0108 49.1825 31.8724 49.2668C31.5983 49.4197 31.3426 49.3108 31.301 49.0233Z" fill="black"/>
<path opacity="0.2" d="M34.7771 47.0076C34.7657 46.8459 34.799 46.6842 34.8732 46.5401C34.9474 46.396 35.0598 46.275 35.198 46.1903C35.4721 46.0312 35.729 46.1401 35.7706 46.435C35.7818 46.5965 35.7486 46.7581 35.6743 46.902C35.6001 47.0459 35.4878 47.1666 35.3497 47.2511C35.0756 47.409 34.8187 47.3001 34.7771 47.0076Z" fill="black"/>
<path opacity="0.2" d="M41.734 42.9912C41.7226 42.8295 41.7559 42.6678 41.8301 42.5237C41.9043 42.3796 42.0167 42.2586 42.1549 42.1739C42.429 42.0161 42.6847 42.125 42.7263 42.4186C42.7382 42.5804 42.7052 42.7423 42.6309 42.8865C42.5566 43.0308 42.444 43.1517 42.3054 43.2359C42.0313 43.3926 41.7756 43.2849 41.734 42.9912Z" fill="black"/>
<path opacity="0.2" d="M45.2163 40.9842C45.2046 40.8225 45.2378 40.6606 45.312 40.5165C45.3863 40.3723 45.4987 40.2514 45.6372 40.1669C45.9112 40.0078 46.167 40.1167 46.2098 40.4116C46.2211 40.5734 46.1878 40.7353 46.1133 40.8794C46.0389 41.0236 45.9262 41.1445 45.7877 41.2289C45.5136 41.3855 45.2579 41.2766 45.2163 40.9842Z" fill="black"/>
<path opacity="0.2" d="M48.6927 38.9764C48.6814 38.8147 48.7146 38.653 48.7888 38.5089C48.8631 38.3647 48.9754 38.2437 49.1136 38.1591C49.3877 38 49.6447 38.1089 49.6863 38.4038C49.6975 38.5653 49.6642 38.7268 49.59 38.8707C49.5158 39.0146 49.4035 39.1354 49.2654 39.2199C48.9852 39.3777 48.7404 39.2688 48.6927 38.9764Z" fill="black"/>
<path d="M27.4576 47.7216C27.0905 47.5074 26.7308 47.4768 26.4567 47.6347C26.1826 47.7925 26.0309 48.1155 26.0309 48.545C26.0333 48.7459 26.0629 48.9455 26.119 49.1384L26.3368 49.0161C26.2977 48.8629 26.2771 48.7056 26.2756 48.5475C26.2756 48.2098 26.3833 47.9614 26.579 47.8488C26.6594 47.8039 26.7501 47.7812 26.8421 47.7827C27.0156 47.791 27.1842 47.8437 27.3315 47.9357C27.9825 48.3125 28.5123 49.2302 28.5123 49.9815C28.5126 50.035 28.5098 50.0885 28.5037 50.1418C28.5007 50.2483 28.4725 50.3526 28.4215 50.4462C28.3705 50.5398 28.298 50.6199 28.21 50.6801C28.0979 50.7407 27.9685 50.7614 27.843 50.7388C27.8183 50.8179 27.8079 50.9008 27.8124 50.9836C27.8581 50.9908 27.9043 50.9945 27.9506 50.9946C28.0854 50.9962 28.2181 50.9616 28.3348 50.8942C28.4441 50.8257 28.5367 50.7337 28.6059 50.6249C28.6751 50.5162 28.7192 50.3933 28.7349 50.2653C28.7514 50.1724 28.7596 50.0783 28.7594 49.9839C28.7606 49.1458 28.1758 48.1363 27.4576 47.7216Z" fill="#F5F5F5"/>
<path d="M30.9401 45.7098C30.573 45.4957 30.2133 45.4651 29.9392 45.623C29.6651 45.7808 29.5134 46.1038 29.5134 46.5333C29.5158 46.7342 29.5455 46.9338 29.6015 47.1267L29.8193 47.0044C29.7802 46.8512 29.7597 46.6938 29.7581 46.5357C29.7581 46.198 29.8658 45.9497 30.0616 45.8371C30.1419 45.7922 30.2327 45.7694 30.3246 45.771C30.4982 45.7793 30.6667 45.832 30.8141 45.924C31.465 46.3008 31.9948 47.2185 31.9948 47.9697C31.9952 48.0233 31.9923 48.0768 31.9862 48.13C31.9832 48.2366 31.9551 48.3409 31.904 48.4345C31.853 48.528 31.7805 48.6082 31.6926 48.6684C31.5804 48.729 31.451 48.7497 31.3255 48.7271C31.3008 48.8062 31.2905 48.8891 31.2949 48.9718C31.3407 48.9791 31.3869 48.9828 31.4332 48.9829C31.5679 48.9845 31.7007 48.9499 31.8174 48.8825C31.9266 48.814 32.0192 48.722 32.0884 48.6132C32.1576 48.5044 32.2017 48.3816 32.2175 48.2536C32.234 48.1607 32.2422 48.0665 32.242 47.9722C32.2432 47.1377 31.6583 46.1246 30.9401 45.7098Z" fill="#F5F5F5"/>
<path d="M34.4162 43.702C34.0491 43.4879 33.6894 43.4573 33.4153 43.6151C33.1412 43.773 32.9895 44.096 32.9895 44.5255C32.9919 44.7264 33.0215 44.926 33.0776 45.1189L33.2954 44.9965C33.2563 44.8434 33.2358 44.686 33.2342 44.5279C33.2342 44.1902 33.3419 43.9418 33.5377 43.8293C33.618 43.7844 33.7087 43.7616 33.8007 43.7632C33.9743 43.7715 34.1428 43.8241 34.2901 43.9161C34.9411 44.293 35.4709 45.2107 35.4709 45.9619C35.4712 46.0155 35.4684 46.069 35.4623 46.1222C35.4593 46.2288 35.4311 46.3331 35.3801 46.4267C35.3291 46.5202 35.2566 46.6004 35.1687 46.6606C35.0565 46.7212 34.9271 46.7419 34.8016 46.7193C34.7769 46.7984 34.7665 46.8813 34.771 46.964C34.8167 46.9713 34.863 46.975 34.9093 46.975C35.044 46.9767 35.1767 46.9421 35.2935 46.8747C35.4027 46.8062 35.4953 46.7142 35.5645 46.6054C35.6337 46.4966 35.6778 46.3738 35.6936 46.2458C35.7101 46.1529 35.7182 46.0587 35.718 45.9644C35.7193 45.1299 35.1344 44.1168 34.4162 43.702Z" fill="#F5F5F5"/>
<path d="M41.3744 39.6903C41.0074 39.4762 40.6476 39.4456 40.3736 39.6034C40.0995 39.7613 39.9478 40.0843 39.9478 40.5138C39.9501 40.7146 39.9798 40.9143 40.0359 41.1072L40.2536 40.9848C40.2145 40.8316 40.194 40.6743 40.1925 40.5162C40.1925 40.1785 40.3001 39.9301 40.4959 39.8176C40.5762 39.7727 40.667 39.7499 40.759 39.7515C40.9325 39.7598 41.101 39.8124 41.2484 39.9044C41.8993 40.2813 42.4291 41.199 42.4291 41.9502C42.4295 42.0038 42.4266 42.0573 42.4206 42.1105C42.4176 42.217 42.3894 42.3214 42.3384 42.4149C42.2873 42.5085 42.2149 42.5887 42.1269 42.6489C42.0147 42.7095 41.8853 42.7302 41.7598 42.7076C41.7351 42.7867 41.7248 42.8696 41.7293 42.9523C41.775 42.9596 41.8212 42.9633 41.8675 42.9633C42.0023 42.965 42.135 42.9303 42.2517 42.863C42.361 42.7945 42.4535 42.7025 42.5228 42.5937C42.592 42.4849 42.6361 42.3621 42.6518 42.2341C42.6683 42.1412 42.6765 42.047 42.6763 41.9527C42.6775 41.1182 42.0926 40.1051 41.3744 39.6903Z" fill="#F5F5F5"/>
<path d="M44.8565 37.6825C44.4894 37.4684 44.1297 37.4378 43.8556 37.5956C43.5815 37.7535 43.4298 38.0765 43.4298 38.5059C43.4322 38.7068 43.4618 38.9065 43.5179 39.0994L43.7357 38.977C43.6966 38.8238 43.6761 38.6665 43.6745 38.5084C43.6745 38.1707 43.7822 37.9223 43.978 37.8097C44.0583 37.7649 44.149 37.7421 44.241 37.7437C44.4146 37.7519 44.5831 37.8046 44.7305 37.8966C45.3814 38.2735 45.9112 39.1911 45.9112 39.9424C45.9115 39.996 45.9087 40.0495 45.9026 40.1027C45.8996 40.2092 45.8715 40.3136 45.8204 40.4071C45.7694 40.5007 45.6969 40.5809 45.609 40.6411C45.4968 40.7016 45.3674 40.7223 45.2419 40.6998C45.2172 40.7789 45.2068 40.8618 45.2113 40.9445C45.257 40.9518 45.3033 40.9554 45.3496 40.9555C45.4843 40.9572 45.617 40.9225 45.7338 40.8552C45.843 40.7867 45.9356 40.6947 46.0048 40.5859C46.074 40.4771 46.1181 40.3542 46.1339 40.2263C46.1504 40.1334 46.1585 40.0392 46.1583 39.9448C46.1596 39.1116 45.5747 38.0973 44.8565 37.6825Z" fill="#F5F5F5"/>
<path d="M48.333 35.6747C47.966 35.4606 47.6062 35.43 47.3322 35.5878C47.0581 35.7456 46.9052 36.0687 46.9052 36.4981C46.9075 36.699 46.9372 36.8986 46.9932 37.0916L47.211 36.9692C47.1719 36.816 47.1514 36.6587 47.1499 36.5006C47.1499 36.1629 47.2575 35.9145 47.4533 35.8019C47.5336 35.7571 47.6244 35.7343 47.7164 35.7359C47.8899 35.7441 48.0584 35.7968 48.2058 35.8888C48.8567 36.2657 49.3865 37.1833 49.3865 37.9346C49.3869 37.9881 49.384 38.0417 49.378 38.0949C49.375 38.2014 49.3468 38.3057 49.2958 38.3993C49.2447 38.4929 49.1723 38.573 49.0843 38.6332C48.9721 38.6938 48.8427 38.7145 48.7172 38.692C48.6925 38.7711 48.6822 38.8539 48.6867 38.9367C48.7324 38.9439 48.7786 38.9476 48.8249 38.9477C48.9597 38.9494 49.0924 38.9147 49.2091 38.8474C49.3183 38.7789 49.4109 38.6869 49.4802 38.5781C49.5494 38.4693 49.5935 38.3464 49.6092 38.2185C49.6257 38.1256 49.6339 38.0314 49.6337 37.937C49.6361 37.1026 49.0513 36.0895 48.333 35.6747Z" fill="#F5F5F5"/>
</g>
<defs>
<filter id="filter0_d_217_59503" x="18.0001" y="35" width="39.1881" height="44" filterUnits="userSpaceOnUse" color-interpolation-filters="sRGB">
<feFlood flood-opacity="0" result="BackgroundImageFix"/>
<feColorMatrix in="SourceAlpha" type="matrix" values="0 0 0 0 0 0 0 0 0 0 0 0 0 0 0 0 0 0 127 0" result="hardAlpha"/>
<feOffset dy="2"/>
<feGaussianBlur stdDeviation="1"/>
<feComposite in2="hardAlpha" operator="out"/>
<feColorMatrix type="matrix" values="0 0 0 0 0 0 0 0 0 0 0 0 0 0 0 0 0 0 0.25 0"/>
<feBlend mode="normal" in2="BackgroundImageFix" result="effect1_dropShadow_217_59503"/>
<feBlend mode="normal" in="SourceGraphic" in2="effect1_dropShadow_217_59503" result="shape"/>
</filter>
</defs>
</svg>
