<svg width="69" height="111" viewBox="0 0 69 111" fill="none" xmlns="http://www.w3.org/2000/svg">
<path d="M0.5 55.5C0.5 25.1243 25.1243 0.5 55.5 0.5H61C65.1421 0.5 68.5 3.85786 68.5 8V103C68.5 107.142 65.1421 110.5 61 110.5H55.5C25.1243 110.5 0.5 85.8757 0.5 55.5Z" fill="white"/>
<path d="M0.5 55.5C0.5 25.1243 25.1243 0.5 55.5 0.5H61C65.1421 0.5 68.5 3.85786 68.5 8V103C68.5 107.142 65.1421 110.5 61 110.5H55.5C25.1243 110.5 0.5 85.8757 0.5 55.5Z" stroke="#E7E9EC"/>
<path d="M45.3531 34.2366C45.3531 29.0601 42.4581 24.4116 38.6215 22.1972C36.6924 21.0829 35.0031 20.8574 33.7974 21.5651L30.5615 23.42C30.503 23.4528 30.4445 23.487 30.3874 23.5241L30.4231 23.4999L30.3703 23.5313C29.2374 24.2632 28.5582 25.8584 28.5582 28.3653C28.5582 33.5902 31.4546 38.1888 35.2913 40.4046C37.2189 41.5175 38.9082 41.7544 40.1139 41.0524L43.3699 39.1904C43.407 39.1705 43.4441 39.1491 43.4812 39.1262L43.5382 39.0934C44.674 38.3629 45.3531 36.7649 45.3531 34.2366Z" fill="#0071CE"/>
<path opacity="0.5" d="M39.8235 40.9015C42.5741 39.4598 42.775 34.42 40.2721 29.6446C37.7692 24.8692 33.5104 22.1668 30.7598 23.6084C28.0092 25.0501 27.8084 30.0899 30.3113 34.8653C32.8141 39.6406 37.0729 42.3431 39.8235 40.9015Z" fill="white"/>
<path d="M36.885 33.176C36.885 30.3752 36.0889 29.0797 35.2913 28.6188C34.4937 28.158 33.699 28.5361 33.699 31.3298C33.699 34.1234 34.4951 35.4261 35.2913 35.887C36.0874 36.3478 36.885 35.9769 36.885 33.176Z" fill="#0071CE"/>
<path opacity="0.3" d="M36.885 33.176C36.885 30.3752 36.0889 29.0797 35.2913 28.6188C34.4937 28.158 33.699 28.5361 33.699 31.3298C33.699 34.1234 34.4951 35.4261 35.2913 35.887C36.0874 36.3478 36.885 35.9769 36.885 33.176Z" fill="black"/>
<path d="M63.9999 58.7167C63.9999 53.5331 61.1035 48.8931 57.2654 46.6773C55.3378 45.5644 53.6471 45.3375 52.4428 46.0452L49.2083 47.9001C49.1483 47.9315 49.0898 47.9657 49.0328 48.0028L49.0684 47.98L49.0157 48.0099C47.8828 48.7405 47.2036 50.3356 47.2036 52.8425C47.2036 58.0675 50.1 62.666 53.9367 64.8819C55.8643 65.9948 57.5536 66.2316 58.7593 65.5311L62.021 63.6691L62.1322 63.6049L62.1893 63.5721C63.3193 62.843 63.9999 61.2464 63.9999 58.7167Z" fill="#0071CE"/>
<path opacity="0.5" d="M58.4678 65.3898C61.2184 63.9481 61.4192 58.9082 58.9164 54.1329C56.4135 49.3575 52.1547 46.655 49.4041 48.0967C46.6535 49.5383 46.4527 54.5782 48.9555 59.3536C51.4584 64.1289 55.7172 66.8314 58.4678 65.3898Z" fill="white"/>
<path d="M55.5304 57.6586C55.5304 54.8578 54.7343 53.5622 53.9367 53.1028C53.1391 52.6434 52.3444 53.0186 52.3444 55.8137C52.3444 58.6088 53.1405 59.9115 53.9367 60.3709C54.7328 60.8304 55.5304 60.4608 55.5304 57.6586Z" fill="#0071CE"/>
<path opacity="0.3" d="M55.5304 57.6586C55.5304 54.8578 54.7343 53.5622 53.9367 53.1028C53.1391 52.6434 52.3444 53.0186 52.3444 55.8137C52.3444 58.6088 53.1405 59.9115 53.9367 60.3709C54.7328 60.8304 55.5304 60.4608 55.5304 57.6586Z" fill="black"/>
<path d="M53.5001 31.207L50.1714 33.1132L32.8657 52.3851L38.9853 55.9178L42.3126 54.0102L59.6183 34.7384L53.5001 31.207Z" fill="#0071CE"/>
<path opacity="0.3" d="M56.2895 36.6459L38.9852 55.9177L42.3125 54.0101L59.6182 34.7383L56.2895 36.6459Z" fill="black"/>
<path opacity="0.5" d="M50.1714 33.1133L56.2895 36.646L38.9853 55.9179L32.8657 52.3851L50.1714 33.1133Z" fill="white"/>
<path d="M26.0528 31.5247L26.3938 32.5234C26.4418 32.6673 26.5311 32.7939 26.6506 32.8873L27.4111 33.458C27.6965 33.6663 27.8035 34.1272 27.6009 34.2385L27.0501 34.5395C27.0076 34.5722 26.9755 34.6167 26.958 34.6674C26.9405 34.7181 26.9383 34.7729 26.9517 34.8249L27.0815 35.7751C27.1286 36.1247 26.8375 36.2032 26.5864 35.905L25.9058 35.0988C25.8692 35.0473 25.822 35.0042 25.7674 34.9725C25.7128 34.9407 25.6519 34.921 25.5891 34.9148L24.9071 34.9347C24.6574 34.9433 24.3649 34.5281 24.4134 34.2342L24.5432 33.4337C24.5558 33.2915 24.5212 33.1491 24.4448 33.0285L23.894 32.0911C23.6914 31.7458 23.8027 31.4134 24.0824 31.529L24.8443 31.84C24.8873 31.865 24.9384 31.872 24.9865 31.8594C25.0346 31.8468 25.0758 31.8158 25.1011 31.7729L25.4407 31.1737C25.5662 30.9511 25.9229 31.1594 26.0528 31.5247Z" fill="#455A64"/>
<path d="M61.1991 38.5453L61.5401 39.544C61.5885 39.6873 61.6772 39.8137 61.7955 39.9079L62.5574 40.4786C62.8428 40.6869 62.9484 41.1492 62.7472 41.259L62.195 41.5615C62.1526 41.5943 62.1207 41.6388 62.1035 41.6896C62.0862 41.7403 62.0843 41.795 62.098 41.8469L62.2279 42.7971C62.2749 43.1467 61.9824 43.2252 61.7328 42.927L61.0522 42.1194C61.0152 42.0681 60.9676 42.0253 60.9128 41.9938C60.8579 41.9623 60.797 41.9429 60.734 41.9368L60.0534 41.9567C59.8037 41.9567 59.5112 41.5501 59.5583 41.2562L59.6896 40.4557C59.7043 40.3126 59.6712 40.1686 59.5954 40.0463L59.0447 39.1074C58.8421 38.7636 58.9533 38.4311 59.233 38.5453L59.9949 38.8577C60.038 38.8823 60.089 38.8891 60.137 38.8766C60.185 38.864 60.2262 38.8332 60.2517 38.7907L60.5942 38.1914C60.7126 37.9717 61.0736 38.18 61.1991 38.5453Z" fill="#455A64"/>
<path d="M57.9775 42.1043L58.1872 42.7178C58.2174 42.8066 58.2723 42.8848 58.3456 42.9433L58.8164 43.2943C58.9905 43.4227 59.059 43.708 58.9334 43.7765L58.5967 43.9634C58.5696 43.9841 58.5493 44.0124 58.5383 44.0447C58.5274 44.077 58.5264 44.1118 58.5353 44.1446L58.6152 44.7325C58.6452 44.9479 58.464 44.995 58.3099 44.8124L57.8819 44.313C57.8592 44.281 57.8298 44.2544 57.7958 44.2349C57.7618 44.2155 57.724 44.2036 57.685 44.2003L57.2641 44.2131C57.11 44.2131 56.9288 43.9606 56.9587 43.7851L57.0386 43.29C57.0462 43.202 57.0252 43.1139 56.9787 43.0389L56.6377 42.4596C56.5121 42.2456 56.5806 42.0401 56.7547 42.1114L57.2255 42.3041C57.2521 42.3193 57.2835 42.3234 57.3132 42.3157C57.3428 42.308 57.3682 42.2889 57.3839 42.2627L57.5951 41.8917C57.6764 41.749 57.899 41.8789 57.9775 42.1043Z" fill="#455A64"/>
<path d="M23.9097 26.8322L24.1194 27.4457C24.1501 27.5345 24.2056 27.6127 24.2792 27.6711L24.7501 28.0221C24.9227 28.1505 24.9912 28.4359 24.8671 28.5044L24.5261 28.6913C24.4989 28.7116 24.4786 28.7396 24.4676 28.7717C24.4567 28.8038 24.4557 28.8384 24.4647 28.8711L24.546 29.4589C24.5746 29.6758 24.3948 29.7229 24.2393 29.5388L23.8184 29.0409C23.7957 29.0091 23.7666 28.9824 23.7329 28.9628C23.6992 28.9431 23.6617 28.9308 23.6229 28.9267L23.1949 28.9395C23.0408 28.9395 22.8596 28.6884 22.8895 28.5115L22.9694 28.0164C22.9786 27.9283 22.9574 27.8398 22.9095 27.7653L22.5685 27.1846C22.4429 26.972 22.5128 26.7665 22.6855 26.8379L23.1563 27.0305C23.1829 27.0457 23.2144 27.0498 23.244 27.0421C23.2736 27.0344 23.299 27.0153 23.3147 26.9891L23.5259 26.6167C23.6086 26.4769 23.8326 26.6053 23.9097 26.8322Z" fill="#455A64"/>
<path d="M24.9197 49.611C24.9197 49.611 24.6837 59.9275 23.0001 62.6765C21.3165 65.4256 14.3162 71.1949 14.3162 71.1949L13.1274 69.5976C13.1274 69.5976 16.8891 62.6536 18.6097 61.7995L19.9552 49.5547L24.9197 49.611Z" fill="#263238"/>
<path d="M11.847 74.8719L12.7699 74.4756L12.3701 73.7148L11.847 74.8719Z" fill="#0071CE"/>
<path d="M11.3698 71.6094C11.241 71.8538 11.162 72.1214 11.1374 72.3966L11 73.934L11.8471 74.8727L12.3754 73.7156L11.3698 71.6094Z" fill="#0071CE"/>
<g style="mix-blend-mode:overlay" opacity="0.5">
<path d="M11.847 74.8719L12.7699 74.4756L12.3701 73.7148L11.847 74.8719Z" fill="black"/>
</g>
<g style="mix-blend-mode:overlay" opacity="0.2">
<path d="M11.3698 71.6094C11.241 71.8538 11.162 72.1214 11.1374 72.3966L11 73.934L11.8471 74.8727L12.3754 73.7156L11.3698 71.6094Z" fill="black"/>
</g>
<path d="M14.2404 67.6743C14.2404 67.6743 14.5538 69.4248 16.13 69.5991C16.13 69.5991 16.3484 69.8527 15.8183 70.418C15.2882 70.9833 14.3161 72.165 14.3161 72.165C14.3161 72.165 14.4165 74.0071 15.1315 74.7028C15.4837 75.055 15.8553 75.4072 16.1335 75.6995C16.1885 75.7549 16.2295 75.8225 16.2531 75.8969C16.2767 75.9712 16.2823 76.0501 16.2694 76.127C16.2565 76.2039 16.2255 76.2767 16.1789 76.3392C16.1323 76.4018 16.0715 76.4524 16.0015 76.4867C15.569 76.6998 15.0832 76.78 14.6053 76.7173C14.1273 76.6547 13.6786 76.4519 13.3158 76.1345L13.0287 75.8827C12.73 75.6174 12.5415 75.2499 12.5004 74.8525L12.3771 73.7218L11.4103 72.313C11.3413 72.2119 11.3017 72.0938 11.2958 71.9716C11.2899 71.8495 11.318 71.7281 11.3768 71.6209C11.9844 70.5131 13.8353 67.2516 14.2404 67.6743Z" fill="#0071CE"/>
<path d="M18.7787 48.9336C18.7787 48.9336 15.577 52.262 16.7394 56.2896C17.9017 60.3173 20.5028 65.8488 20.5028 65.8488C20.5028 65.8488 20.1101 67.0481 21.2072 69.5964C22.3044 72.1447 23.3205 74.9818 23.3205 74.9818C23.3205 74.9818 24.3772 75.5823 25.3564 74.5363L22.5686 53.4966C22.5686 53.4966 24.696 52.0049 24.4177 49.5288L18.7787 48.9336Z" fill="#37474F"/>
<path d="M23.5195 77.6406L23.8999 79.3242L24.8615 79.8473L24.8245 78.6198L23.5195 77.6406Z" fill="#0071CE"/>
<path opacity="0.2" d="M23.5195 77.6406L23.8999 79.3242L24.8615 79.8473L24.8245 78.6198L23.5195 77.6406Z" fill="black"/>
<path d="M24.8616 79.8486L25.3459 79.5298L24.8246 78.6211L24.8616 79.8486Z" fill="#0071CE"/>
<path opacity="0.5" d="M24.8616 79.8486L25.3459 79.5298L24.8246 78.6211L24.8616 79.8486Z" fill="black"/>
<path d="M22.8098 73.6079C22.8098 73.6079 24.1641 74.2278 25.182 73.2257L25.1362 72.9087C25.1362 72.9087 25.4884 72.8048 25.6082 73.437C25.7279 74.0693 26.3672 77.1441 26.3672 77.1441C26.3672 77.1441 27.5207 78.6287 28.3625 78.9651C29.2043 79.3014 29.3752 79.7734 28.8222 80.1838L28.8063 80.1961C28.4846 80.4349 28.1038 80.5812 27.705 80.6194C27.3062 80.6576 26.9045 80.5861 26.5433 80.4127L25.89 80.101C25.6325 79.9764 25.4246 79.7685 25.3 79.511L25.2208 79.3472C25.0228 78.9376 24.7093 78.5948 24.3191 78.361L23.8365 78.0722C23.7595 78.0257 23.6925 77.9644 23.6393 77.8919C23.5861 77.8193 23.5478 77.737 23.5266 77.6495L22.646 73.9654C22.6293 73.8966 22.6365 73.8241 22.6666 73.76C22.6968 73.6959 22.7479 73.6441 22.8116 73.6131L22.8098 73.6079Z" fill="#0071CE"/>
<path d="M23.8401 61.8334C23.7681 61.8333 23.698 61.8095 23.6409 61.7656C23.5837 61.7218 23.5426 61.6602 23.524 61.5906C23.5053 61.521 23.5101 61.4472 23.5377 61.3806C23.5652 61.314 23.614 61.2584 23.6764 61.2223L34.1742 55.1501C34.2115 55.1272 34.253 55.1119 34.2963 55.1053C34.3395 55.0987 34.3837 55.1008 34.4261 55.1116C34.4685 55.1223 34.5084 55.1414 34.5433 55.1678C34.5782 55.1942 34.6075 55.2274 34.6294 55.2653C34.6513 55.3032 34.6654 55.3451 34.6708 55.3885C34.6762 55.432 34.6729 55.476 34.661 55.5182C34.6491 55.5603 34.6289 55.5996 34.6015 55.6338C34.5742 55.668 34.5402 55.6963 34.5017 55.7172L24.011 61.7894C23.9589 61.8188 23.9 61.834 23.8401 61.8334Z" fill="#37474F"/>
<path d="M24.3473 71.0811C24.29 71.0813 24.2337 71.0662 24.1842 71.0374C24.1347 71.0086 24.0937 70.9671 24.0655 70.9173C24.022 70.8423 24.01 70.7531 24.0321 70.6692C24.0542 70.5854 24.1087 70.5137 24.1835 70.47L34.6743 64.3995C34.7114 64.378 34.7524 64.364 34.795 64.3583C34.8375 64.3527 34.8807 64.3554 34.9222 64.3665C34.9636 64.3775 35.0025 64.3966 35.0366 64.4227C35.0706 64.4487 35.0993 64.4812 35.1208 64.5184C35.1423 64.5555 35.1563 64.5965 35.1619 64.639C35.1676 64.6815 35.1648 64.7247 35.1538 64.7662C35.1427 64.8077 35.1236 64.8465 35.0976 64.8806C35.0715 64.9147 35.039 64.9433 35.0019 64.9648L24.5111 71.0405C24.4611 71.0684 24.4045 71.0823 24.3473 71.0811Z" fill="#37474F"/>
<path d="M23.8031 64.0372C23.7745 64.0374 23.7464 64.0301 23.7216 64.0158C23.6969 64.0016 23.6764 63.981 23.6622 63.9562C23.6513 63.9376 23.6441 63.917 23.6412 63.8957C23.6382 63.8743 23.6396 63.8526 23.6452 63.8317C23.6507 63.8109 23.6604 63.7914 23.6736 63.7744C23.6868 63.7573 23.7033 63.7431 23.7221 63.7325L34.2886 57.618C34.3073 57.6065 34.328 57.5989 34.3497 57.5956C34.3713 57.5923 34.3934 57.5934 34.4146 57.5988C34.4358 57.6041 34.4557 57.6137 34.4732 57.6269C34.4906 57.6401 34.5053 57.6567 34.5162 57.6756C34.5272 57.6946 34.5342 57.7155 34.5369 57.7372C34.5396 57.7589 34.538 57.781 34.532 57.8021C34.5261 57.8231 34.516 57.8428 34.5023 57.8599C34.4886 57.8769 34.4717 57.8911 34.4524 57.9015L23.8859 64.016C23.8605 64.0298 23.832 64.037 23.8031 64.0372Z" fill="#37474F"/>
<path d="M24.1008 66.3764C24.065 66.3763 24.0302 66.3644 24.0018 66.3425C23.9733 66.3207 23.9529 66.2902 23.9435 66.2556C23.9341 66.221 23.9363 66.1843 23.9497 66.1511C23.9632 66.1179 23.9872 66.09 24.018 66.0718L34.5845 59.9573C34.622 59.937 34.666 59.9321 34.707 59.9437C34.7481 59.9553 34.783 59.9824 34.8044 60.0194C34.8257 60.0563 34.8318 60.1001 34.8213 60.1415C34.8108 60.1828 34.7846 60.2185 34.7483 60.2408L24.1818 66.3553C24.1571 66.3692 24.1292 66.3765 24.1008 66.3764Z" fill="#37474F"/>
<path d="M24.1008 68.7319C24.065 68.7317 24.0302 68.7198 24.0018 68.698C23.9733 68.6762 23.9529 68.6456 23.9435 68.6111C23.9341 68.5765 23.9363 68.5398 23.9497 68.5066C23.9632 68.4734 23.9872 68.4455 24.018 68.4272L34.5845 62.3127C34.622 62.2924 34.666 62.2875 34.707 62.2991C34.7481 62.3107 34.783 62.3379 34.8044 62.3748C34.8257 62.4118 34.8318 62.4556 34.8213 62.4969C34.8108 62.5383 34.7846 62.5739 34.7483 62.5963L24.1818 68.7108C24.1571 68.7247 24.1292 68.732 24.1008 68.7319Z" fill="#37474F"/>
<path d="M33.6951 65.5916C33.6531 65.5916 33.6127 65.5756 33.5823 65.5467C33.5518 65.5179 33.5336 65.4785 33.5313 65.4366L33.003 56.1152C33.0004 56.0717 33.0152 56.029 33.0441 55.9965C33.073 55.964 33.1136 55.9443 33.1571 55.9417C33.2005 55.9391 33.2432 55.9539 33.2757 55.9828C33.3082 56.0117 33.328 56.0524 33.3305 56.0958L33.8589 65.419C33.8603 65.4407 33.8574 65.4625 33.8504 65.4832C33.8434 65.5038 33.8323 65.5229 33.8179 65.5392C33.8036 65.5556 33.7861 65.5689 33.7665 65.5785C33.7469 65.5881 33.7256 65.5937 33.7039 65.5951L33.6951 65.5916Z" fill="#37474F"/>
<path d="M32.3426 66.3783C32.3009 66.3784 32.2608 66.3626 32.2303 66.3341C32.1999 66.3057 32.1815 66.2667 32.1788 66.2251L31.6505 56.9019C31.6472 56.8794 31.6487 56.8565 31.6548 56.8346C31.6609 56.8127 31.6715 56.7923 31.686 56.7747C31.7004 56.7572 31.7183 56.7428 31.7386 56.7325C31.7589 56.7222 31.781 56.7163 31.8037 56.7151C31.8264 56.7139 31.8491 56.7174 31.8704 56.7254C31.8917 56.7334 31.911 56.7458 31.9273 56.7617C31.9435 56.7776 31.9562 56.7967 31.9647 56.8178C31.9731 56.8389 31.9771 56.8616 31.9763 56.8843L32.5046 66.2057C32.5065 66.2274 32.504 66.2493 32.4973 66.27C32.4906 66.2908 32.4797 66.3099 32.4654 66.3264C32.4511 66.3428 32.4337 66.3562 32.4141 66.3657C32.3945 66.3752 32.3731 66.3807 32.3514 66.3818L32.3426 66.3783Z" fill="#37474F"/>
<path d="M30.9883 67.1647C30.9466 67.1648 30.9064 67.1487 30.8762 67.1198C30.846 67.0909 30.8281 67.0515 30.8263 67.0097L30.298 57.6883C30.2961 57.6666 30.2985 57.6447 30.3053 57.624C30.312 57.6033 30.3228 57.5841 30.3371 57.5677C30.3515 57.5512 30.3689 57.5378 30.3885 57.5283C30.4081 57.5188 30.4294 57.5133 30.4512 57.5122C30.4729 57.5105 30.4946 57.5132 30.5153 57.52C30.5359 57.5268 30.555 57.5377 30.5713 57.5519C30.5877 57.5662 30.6011 57.5836 30.6107 57.6031C30.6203 57.6225 30.626 57.6437 30.6273 57.6654L31.1556 66.9886C31.1573 67.0103 31.1547 67.032 31.1479 67.0527C31.141 67.0733 31.1302 67.0924 31.1159 67.1088C31.1017 67.1251 31.0843 67.1385 31.0648 67.1481C31.0453 67.1577 31.0241 67.1634 31.0024 67.1647H30.9883Z" fill="#37474F"/>
<path d="M29.6358 67.9564C29.5941 67.9565 29.554 67.9407 29.5236 67.9123C29.4931 67.8838 29.4747 67.8448 29.472 67.8032L28.9437 58.48C28.9404 58.4575 28.9419 58.4346 28.948 58.4127C28.9542 58.3908 28.9648 58.3704 28.9792 58.3529C28.9936 58.3353 29.0115 58.3209 29.0318 58.3106C29.0521 58.3004 29.0743 58.2944 29.097 58.2932C29.1197 58.292 29.1424 58.2955 29.1636 58.3035C29.1849 58.3115 29.2043 58.3239 29.2205 58.3398C29.2367 58.3557 29.2494 58.3749 29.2579 58.396C29.2663 58.4171 29.2703 58.4397 29.2695 58.4624L29.7978 67.7838C29.7995 67.8056 29.7968 67.8276 29.7898 67.8483C29.7829 67.869 29.7719 67.8882 29.7575 67.9046C29.743 67.921 29.7254 67.9344 29.7057 67.9439C29.6861 67.9534 29.6647 67.9588 29.6428 67.96L29.6358 67.9564Z" fill="#37474F"/>
<path d="M28.2833 68.7486C28.2415 68.7483 28.2013 68.7321 28.1709 68.7034C28.1405 68.6746 28.1222 68.6354 28.1195 68.5937L27.5912 59.2705C27.59 59.249 27.5931 59.2274 27.6003 59.2071C27.6074 59.1868 27.6185 59.1681 27.6329 59.1521C27.6473 59.1361 27.6647 59.123 27.6841 59.1137C27.7036 59.1044 27.7246 59.099 27.7462 59.0979C27.7677 59.0967 27.7892 59.0998 27.8095 59.107C27.8298 59.1141 27.8485 59.1252 27.8645 59.1396C27.8806 59.154 27.8936 59.1714 27.9029 59.1909C27.9122 59.2103 27.9176 59.2314 27.9187 59.2529L28.4471 68.5761C28.4485 68.5978 28.4456 68.6196 28.4386 68.6403C28.4316 68.6609 28.4206 68.6799 28.4062 68.6963C28.3918 68.7127 28.3743 68.726 28.3547 68.7356C28.3351 68.7452 28.3138 68.7508 28.2921 68.7522L28.2833 68.7486Z" fill="#37474F"/>
<path d="M26.9308 69.5369C26.8888 69.5369 26.8485 69.5209 26.818 69.4921C26.7875 69.4632 26.7693 69.4238 26.767 69.3819L26.2387 60.0605C26.2361 60.017 26.2509 59.9744 26.2798 59.9418C26.3087 59.9093 26.3493 59.8896 26.3928 59.887C26.4362 59.8844 26.4789 59.8992 26.5114 59.9281C26.544 59.957 26.5637 59.9977 26.5663 60.0411L27.0946 69.3643C27.0963 69.3859 27.0936 69.4077 27.0868 69.4284C27.08 69.449 27.0691 69.468 27.0548 69.4844C27.0406 69.5008 27.0232 69.5142 27.0037 69.5238C26.9842 69.5334 26.963 69.5391 26.9414 69.5404L26.9308 69.5369Z" fill="#37474F"/>
<path d="M25.5765 70.3254C25.535 70.3246 25.4953 70.3082 25.4653 70.2795C25.4353 70.2508 25.4172 70.2118 25.4145 70.1704L24.8862 60.8472C24.883 60.8247 24.8844 60.8018 24.8906 60.7799C24.8967 60.758 24.9073 60.7376 24.9217 60.7201C24.9361 60.7025 24.954 60.6881 24.9743 60.6778C24.9946 60.6676 25.0168 60.6616 25.0395 60.6604C25.0622 60.6592 25.0849 60.6627 25.1061 60.6707C25.1274 60.6787 25.1468 60.6911 25.163 60.707C25.1792 60.7229 25.1919 60.742 25.2004 60.7632C25.2088 60.7843 25.2128 60.8069 25.212 60.8296L25.7403 70.1528C25.7425 70.1746 25.7402 70.1965 25.7336 70.2174C25.7269 70.2382 25.7161 70.2575 25.7018 70.274C25.6874 70.2904 25.6698 70.3038 25.6501 70.3133C25.6304 70.3227 25.6089 70.3281 25.5871 70.3289L25.5765 70.3254Z" fill="#37474F"/>
<path d="M39.8659 45.3266L32.7371 41.2109V46.0187L39.8659 50.1344L41.546 49.6958V47.697L39.8659 45.3266ZM40.4735 48.5635C40.3554 48.4862 40.2571 48.3821 40.1868 48.2597C40.1164 48.1373 40.0759 48 40.0685 47.859C40.0685 47.6002 40.2446 47.4963 40.4735 47.6248C40.5919 47.7018 40.6904 47.8058 40.7608 47.9283C40.8312 48.0507 40.8716 48.1882 40.8786 48.3292C40.8786 48.5811 40.6901 48.685 40.4735 48.5564V48.5635Z" fill="#0071CE"/>
<path opacity="0.5" d="M39.8659 45.3266L32.7371 41.2109V46.0187L39.8659 50.1344L41.546 49.6958V47.697L39.8659 45.3266ZM40.4735 48.5635C40.3554 48.4862 40.2571 48.3821 40.1868 48.2597C40.1164 48.1373 40.0759 48 40.0685 47.859C40.0685 47.6002 40.2446 47.4963 40.4735 47.6248C40.5919 47.7018 40.6904 47.8058 40.7608 47.9283C40.8312 48.0507 40.8716 48.1882 40.8786 48.3292C40.8786 48.5811 40.6901 48.685 40.4735 48.5564V48.5635Z" fill="#3394DD"/>
<path d="M40.5493 56.829C40.5132 56.8263 40.4788 56.8126 40.4507 56.7898C40.4227 56.7669 40.4024 56.7359 40.3926 56.7011C40.3828 56.6662 40.3839 56.6292 40.3959 56.5951C40.4079 56.5609 40.4301 56.5313 40.4595 56.5102L41.7468 55.7177C42.1636 55.4598 42.5078 55.1001 42.7472 54.6725C42.9866 54.2449 43.1132 53.7634 43.1152 53.2733V50.8659C43.1142 50.571 43.0379 50.2811 42.8937 50.0238C42.7495 49.7665 42.5421 49.5502 42.291 49.3954L40.5141 48.3018C40.4884 48.294 40.4648 48.2805 40.4451 48.2623C40.4254 48.244 40.4102 48.2215 40.4005 48.1965C40.3909 48.1715 40.3871 48.1446 40.3894 48.1178C40.3917 48.0911 40.4001 48.0653 40.414 48.0423C40.4278 48.0193 40.4467 47.9998 40.4693 47.9852C40.4918 47.9706 40.5174 47.9614 40.544 47.9583C40.5707 47.9551 40.5977 47.9581 40.623 47.9669C40.6484 47.9758 40.6713 47.9903 40.6902 48.0094L42.4794 49.1031C42.7801 49.2885 43.0286 49.5475 43.2015 49.8557C43.3743 50.1638 43.4659 50.5109 43.4674 50.8642V53.2716C43.4652 53.8203 43.3234 54.3594 43.0554 54.8381C42.7873 55.3169 42.4019 55.7196 41.9353 56.0083L40.6426 56.8008C40.6148 56.8188 40.5824 56.8285 40.5493 56.829Z" fill="#0071CE"/>
<path opacity="0.9" d="M40.5493 56.829C40.5132 56.8263 40.4788 56.8126 40.4507 56.7898C40.4227 56.7669 40.4024 56.7359 40.3926 56.7011C40.3828 56.6662 40.3839 56.6292 40.3959 56.5951C40.4079 56.5609 40.4301 56.5313 40.4595 56.5102L41.7468 55.7177C42.1636 55.4598 42.5078 55.1001 42.7472 54.6725C42.9866 54.2449 43.1132 53.7634 43.1152 53.2733V50.8659C43.1142 50.571 43.0379 50.2811 42.8937 50.0238C42.7495 49.7665 42.5421 49.5502 42.291 49.3954L40.5141 48.3018C40.4884 48.294 40.4648 48.2805 40.4451 48.2623C40.4254 48.244 40.4102 48.2215 40.4005 48.1965C40.3909 48.1715 40.3871 48.1446 40.3894 48.1178C40.3917 48.0911 40.4001 48.0653 40.414 48.0423C40.4278 48.0193 40.4467 47.9998 40.4693 47.9852C40.4918 47.9706 40.5174 47.9614 40.544 47.9583C40.5707 47.9551 40.5977 47.9581 40.623 47.9669C40.6484 47.9758 40.6713 47.9903 40.6902 48.0094L42.4794 49.1031C42.7801 49.2885 43.0286 49.5475 43.2015 49.8557C43.3743 50.1638 43.4659 50.5109 43.4674 50.8642V53.2716C43.4652 53.8203 43.3234 54.3594 43.0554 54.8381C42.7873 55.3169 42.4019 55.7196 41.9353 56.0083L40.6426 56.8008C40.6148 56.8188 40.5824 56.8285 40.5493 56.829Z" fill="black"/>
<path d="M38.2246 78.2351C38.2246 78.9906 37.6963 79.2918 37.0412 78.9184C36.6961 78.6939 36.4088 78.391 36.2029 78.0345C35.9969 77.678 35.8781 77.2779 35.856 76.8667C35.856 76.1112 36.3843 75.8101 37.0412 76.1834C37.3858 76.4084 37.6725 76.7114 37.8781 77.0678C38.0837 77.4243 38.2024 77.8242 38.2246 78.2351Z" fill="#455A64"/>
<path d="M37.4427 77.783C37.4427 78.0401 37.2666 78.1457 37.0394 78.0172C36.9213 77.9399 36.8231 77.8358 36.7527 77.7134C36.6823 77.591 36.6418 77.4537 36.6344 77.3127C36.6344 77.0539 36.8105 76.95 37.0394 77.0785C37.1574 77.1558 37.2555 77.2599 37.3256 77.3824C37.3957 77.5048 37.4358 77.6421 37.4427 77.783Z" fill="#263238"/>
<path d="M38.7635 77.9213C38.7412 77.51 38.6223 77.1097 38.4164 76.7529C38.2104 76.3962 37.9233 76.093 37.5783 75.8679C37.1116 75.5985 36.71 75.6795 36.5216 76.0211C36.7087 76.0275 36.8908 76.0828 37.0499 76.1814C37.3929 76.4073 37.6779 76.7107 37.882 77.0671C38.086 77.4235 38.2034 77.8229 38.2246 78.2331C38.2246 78.6064 38.0943 78.8688 37.8847 78.9939L38.4007 78.698C38.6226 78.5782 38.7635 78.3088 38.7635 77.9213Z" fill="#263238"/>
<path d="M37.0905 75.6423C36.2663 75.165 35.5989 75.5507 35.5989 76.5017L38.5769 78.224C38.5769 77.273 37.9129 76.1177 37.0905 75.6423Z" fill="#0071CE"/>
<path d="M37.6258 75.224C37.02 74.8718 36.5005 74.9916 36.2662 75.453C36.5548 75.4172 36.8467 75.4845 37.0904 75.6432C37.9128 76.1187 38.5821 77.2739 38.5821 78.2249L39.1104 77.8075C39.1174 76.8513 38.45 75.6995 37.6258 75.224Z" fill="#0071CE"/>
<path opacity="0.5" d="M37.6258 75.224C37.02 74.8718 36.5005 74.9916 36.2662 75.453C36.5548 75.4172 36.8467 75.4845 37.0904 75.6432C37.9128 76.1187 38.5821 77.2739 38.5821 78.2249L39.1104 77.8075C39.1174 76.8513 38.45 75.6995 37.6258 75.224Z" fill="black"/>
<path d="M46.935 83.2664C46.935 84.0219 46.4067 84.323 45.7498 83.9497C45.4047 83.7251 45.1175 83.4223 44.9115 83.0658C44.7055 82.7092 44.5867 82.3091 44.5646 81.898C44.5646 81.1425 45.0929 80.8413 45.7498 81.2147C46.0946 81.4395 46.3816 81.7425 46.5875 82.0989C46.7934 82.4554 46.9125 82.8553 46.935 83.2664Z" fill="#455A64"/>
<path d="M46.1495 82.8142C46.1495 83.0713 45.9733 83.177 45.7444 83.0484C45.6263 82.9711 45.528 82.867 45.4577 82.7446C45.3873 82.6222 45.3468 82.485 45.3394 82.344C45.3394 82.0851 45.5155 81.9812 45.7444 82.1098C45.8628 82.1868 45.9613 82.2908 46.0317 82.4132C46.1021 82.5357 46.1425 82.6731 46.1495 82.8142Z" fill="#263238"/>
<path d="M47.4739 82.9526C47.4515 82.5415 47.3328 82.1414 47.1272 81.7847C46.9216 81.4279 46.6349 81.1246 46.2904 80.8992C45.8237 80.6297 45.4204 80.7107 45.2338 81.0524C45.4208 81.0588 45.603 81.114 45.7621 81.2126C46.1069 81.4375 46.3939 81.7404 46.5998 82.0969C46.8057 82.4533 46.9248 82.8533 46.9473 83.2643C46.9473 83.6377 46.817 83.9001 46.6074 84.0251L47.1216 83.7292C47.333 83.6095 47.4739 83.34 47.4739 82.9526Z" fill="#263238"/>
<path d="M45.7973 80.6774C44.9731 80.2002 44.3057 80.5858 44.3057 81.5368L47.2889 83.2592C47.2925 82.3117 46.625 81.1529 45.7973 80.6774Z" fill="#0071CE"/>
<path d="M46.3362 80.2553C45.7321 79.9031 45.2109 80.0228 44.9784 80.4842C45.2664 80.4476 45.5581 80.5151 45.8008 80.6744C46.625 81.1499 47.2925 82.3052 47.2925 83.2562L47.8208 82.8388C47.8278 81.886 47.1604 80.7237 46.3362 80.2553Z" fill="#0071CE"/>
<path opacity="0.5" d="M46.3362 80.2553C45.7321 79.9031 45.2109 80.0228 44.9784 80.4842C45.2664 80.4476 45.5581 80.5151 45.8008 80.6744C46.625 81.1499 47.2925 82.3052 47.2925 83.2562L47.8208 82.8388C47.8278 81.886 47.1604 80.7237 46.3362 80.2553Z" fill="black"/>
<path d="M36.4741 89.3289C36.4741 90.0844 35.9458 90.3855 35.2907 90.0122C34.9456 89.7876 34.6583 89.4848 34.4524 89.1283C34.2464 88.7717 34.1276 88.3716 34.1055 87.9605C34.1055 87.205 34.6338 86.9038 35.2907 87.2772C35.6353 87.5021 35.922 87.8051 36.1276 88.1616C36.3332 88.518 36.4519 88.9179 36.4741 89.3289Z" fill="#455A64"/>
<path d="M35.694 88.8806C35.694 89.1395 35.5179 89.2434 35.2907 89.1148C35.1725 89.0375 35.0743 88.9334 35.0039 88.811C34.9336 88.6887 34.893 88.5514 34.8856 88.4104C34.8856 88.1515 35.0617 88.0476 35.2907 88.1762C35.4083 88.2539 35.506 88.3581 35.5761 88.4805C35.6461 88.6028 35.6865 88.7398 35.694 88.8806Z" fill="#263238"/>
<path d="M37.0148 89.0179C36.9927 88.6067 36.8738 88.2066 36.6679 87.8501C36.4619 87.4936 36.1747 87.1908 35.8296 86.9662C35.3629 86.6968 34.9614 86.776 34.7729 87.1177C34.96 87.1241 35.1422 87.1793 35.3013 87.2779C35.6459 87.5029 35.9326 87.8059 36.1382 88.1623C36.3438 88.5188 36.4625 88.9187 36.4847 89.3296C36.4847 89.7029 36.3544 89.9653 36.1448 90.0921L36.6608 89.7945C36.8739 89.6748 37.0148 89.4053 37.0148 89.0179Z" fill="#263238"/>
<path d="M35.3417 86.7388C34.5175 86.2633 33.8501 86.649 33.8501 87.6L36.8334 89.3223C36.8334 88.3695 36.1659 87.2143 35.3417 86.7388Z" fill="#0071CE"/>
<path d="M35.8771 86.3216C35.2713 85.9694 34.7518 86.0891 34.5176 86.5523C34.806 86.5141 35.0986 86.581 35.3418 86.7407C36.166 87.2162 36.8334 88.3715 36.8334 89.3242L37.3617 88.9051C37.3688 87.9471 36.7013 86.7971 35.8771 86.3216Z" fill="#0071CE"/>
<path opacity="0.5" d="M35.8771 86.3216C35.2713 85.9694 34.7518 86.0891 34.5176 86.5523C34.806 86.5141 35.0986 86.581 35.3418 86.7407C36.166 87.2162 36.8334 88.3715 36.8334 89.3242L37.3617 88.9051C37.3688 87.9471 36.7013 86.7971 35.8771 86.3216Z" fill="black"/>
<path d="M47.4087 83.027C47.3364 83.0268 47.2661 83.0027 47.2089 82.9585C47.1517 82.9142 47.1108 82.8523 47.0925 82.7823C47.0742 82.7123 47.0795 82.6383 47.1078 82.5717C47.136 82.5051 47.1854 82.4497 47.2484 82.4141C47.3247 82.3712 47.3881 82.3088 47.4322 82.2333C47.4764 82.1578 47.4997 82.0719 47.4997 81.9844C47.4997 81.8969 47.4764 81.8111 47.4322 81.7355C47.3881 81.66 47.3247 81.5976 47.2484 81.5547L36.217 75.3645C35.8681 75.17 35.574 74.8904 35.3622 74.5517C35.1503 74.213 35.0276 73.8262 35.0054 73.4273L33.8114 51.9843C33.7944 51.6912 33.7051 51.4069 33.5515 51.1568C33.3978 50.9066 33.1846 50.6984 32.9308 50.5508L32.1595 50.1C32.0561 50.0411 31.9393 50.0102 31.8204 50.0102C31.7016 50.0102 31.5847 50.0411 31.4814 50.1L30.8334 50.461C30.7583 50.4964 30.6726 50.502 30.5936 50.4767C30.5145 50.4514 30.448 50.397 30.4076 50.3245C30.3671 50.2521 30.3556 50.1669 30.3755 50.0864C30.3954 50.0058 30.4451 49.9357 30.5146 49.8904L31.1609 49.5382C31.364 49.424 31.5935 49.3651 31.8265 49.3672C32.0595 49.3694 32.2878 49.4326 32.4888 49.5505L33.2601 50.0013C33.6068 50.2031 33.8979 50.4878 34.1073 50.8299C34.3166 51.1721 34.4376 51.5609 34.4594 51.9614L35.6534 73.3991C35.6692 73.6892 35.7582 73.9706 35.9122 74.217C36.0662 74.4634 36.2801 74.6667 36.534 74.808L47.5654 80.9982C47.7432 81.0978 47.8913 81.243 47.9944 81.4188C48.0974 81.5946 48.1517 81.7947 48.1517 81.9985C48.1517 82.2023 48.0974 82.4024 47.9944 82.5782C47.8913 82.7541 47.7432 82.8992 47.5654 82.9988C47.5163 83.0208 47.4625 83.0305 47.4087 83.027Z" fill="#263238"/>
<path d="M38.1823 76.583C38.0984 76.5826 38.0159 76.5608 37.9428 76.5196L35.9581 75.4066C35.8446 75.3431 35.7609 75.2371 35.7256 75.1119C35.6903 74.9868 35.7061 74.8527 35.7696 74.7392C35.8331 74.6257 35.9391 74.5421 36.0643 74.5067C36.1895 74.4714 36.3236 74.4872 36.4371 74.5507L38.4218 75.6638C38.5162 75.717 38.5904 75.8 38.6327 75.8998C38.6751 75.9997 38.6832 76.1107 38.6559 76.2156C38.6285 76.3205 38.5673 76.4134 38.4816 76.4799C38.396 76.5464 38.2907 76.5826 38.1823 76.583Z" fill="#0071CE"/>
<path d="M39.0453 76.9045C38.9892 76.9042 38.934 76.8897 38.885 76.8622L38.1929 76.473C38.1234 76.4277 38.0737 76.3577 38.0538 76.2771C38.034 76.1965 38.0454 76.1114 38.0859 76.0389C38.1264 75.9664 38.1929 75.9121 38.2719 75.8867C38.3509 75.8614 38.4366 75.867 38.5117 75.9024L39.2056 76.2916C39.2686 76.3272 39.318 76.3826 39.3462 76.4492C39.3745 76.5158 39.3798 76.5898 39.3615 76.6598C39.3432 76.7298 39.3023 76.7917 39.2451 76.836C39.1879 76.8803 39.1176 76.9043 39.0453 76.9045Z" fill="#253239"/>
<path d="M47.074 81.5752C46.99 81.5757 46.9073 81.5538 46.8345 81.5118L44.8498 80.3988C44.7936 80.3674 44.7441 80.3252 44.7042 80.2746C44.6644 80.224 44.6348 80.1661 44.6173 80.1041C44.5998 80.0421 44.5947 79.9773 44.6023 79.9134C44.6098 79.8494 44.6299 79.7876 44.6613 79.7314C44.7249 79.6179 44.8309 79.5343 44.956 79.4989C45.018 79.4814 45.0828 79.4763 45.1468 79.4839C45.2108 79.4914 45.2726 79.5115 45.3288 79.5429L47.3153 80.6577C47.4104 80.7105 47.4851 80.7935 47.5278 80.8935C47.5705 80.9936 47.5787 81.105 47.551 81.2102C47.5233 81.3154 47.4614 81.4083 47.3751 81.4744C47.2887 81.5405 47.1828 81.576 47.074 81.5752Z" fill="#0071CE"/>
<path d="M47.4087 83.0271C47.3363 83.0269 47.2661 83.0028 47.2089 82.9586C47.1517 82.9143 47.1107 82.8524 47.0924 82.7824C47.0741 82.7124 47.0795 82.6383 47.1077 82.5717C47.1359 82.5051 47.1854 82.4498 47.2484 82.4142C47.3246 82.3713 47.3881 82.3089 47.4322 82.2334C47.4764 82.1579 47.4996 82.072 47.4996 81.9845C47.4996 81.897 47.4764 81.8111 47.4322 81.7356C47.3881 81.6601 47.3246 81.5977 47.2484 81.5548C47.1768 81.5102 47.1252 81.4398 47.1043 81.3581C47.0834 81.2765 47.0947 81.1899 47.136 81.1164C47.1773 81.0429 47.2453 80.9881 47.326 80.9635C47.4066 80.9389 47.4936 80.9463 47.5689 80.9842C47.7467 81.0838 47.8948 81.229 47.9978 81.4048C48.1009 81.5806 48.1552 81.7807 48.1552 81.9845C48.1552 82.1883 48.1009 82.3884 47.9978 82.5642C47.8948 82.7401 47.7467 82.8852 47.5689 82.9848C47.52 83.0123 47.4648 83.0268 47.4087 83.0271Z" fill="#455A64"/>
<path d="M27.4153 85.0658C27.8777 84.7989 27.8777 83.9331 27.4152 83.132C26.9527 82.331 26.2029 81.898 25.7405 82.165C25.2781 82.432 25.2781 83.2978 25.7406 84.0989C26.2031 84.8999 26.9529 85.3328 27.4153 85.0658Z" fill="#455A64"/>
<path d="M26.9836 83.8494C26.9836 84.1082 26.8075 84.2121 26.5786 84.0836C26.4607 84.0062 26.3627 83.902 26.2926 83.7796C26.2226 83.6572 26.1824 83.52 26.1753 83.3792C26.1753 83.1203 26.3514 83.0164 26.5786 83.1449C26.6967 83.2222 26.795 83.3263 26.8653 83.4487C26.9357 83.5711 26.9762 83.7084 26.9836 83.8494Z" fill="#263238"/>
<path d="M28.3045 83.9827C28.282 83.5717 28.1629 83.1717 27.957 82.8153C27.7511 82.4588 27.4641 82.1559 27.1193 81.9311C26.6526 81.6616 26.2493 81.7409 26.0626 82.0825C26.2497 82.0887 26.4319 82.1439 26.5909 82.2428C26.9361 82.4673 27.2233 82.7702 27.4292 83.1267C27.6352 83.4832 27.7541 83.8833 27.7762 84.2944C27.7762 84.6678 27.6458 84.9302 27.4363 85.057L27.9505 84.7594C28.1636 84.6396 28.3045 84.3702 28.3045 83.9827Z" fill="#263238"/>
<path d="M26.6297 81.7075C25.8072 81.232 25.1398 81.6177 25.1398 82.5687L28.1213 84.291C28.1213 83.3383 27.4538 82.183 26.6297 81.7075Z" fill="#0071CE"/>
<path d="M27.165 81.2864C26.561 80.9342 26.0415 81.054 25.8073 81.5171C26.0951 81.4787 26.3872 81.5456 26.6297 81.7056C27.4539 82.181 28.1213 83.3363 28.1213 84.2891L28.6496 83.8699C28.6567 82.9189 27.9892 81.7619 27.165 81.2864Z" fill="#0071CE"/>
<path opacity="0.5" d="M27.165 81.2864C26.561 80.9342 26.0415 81.054 25.8073 81.5171C26.0951 81.4787 26.3872 81.5456 26.6297 81.7056C27.4539 82.181 28.1213 83.3363 28.1213 84.2891L28.6496 83.8699C28.6567 82.9189 27.9892 81.7619 27.165 81.2864Z" fill="black"/>
<path d="M38.0485 87.8349C37.4814 87.836 36.9236 87.6917 36.4283 87.4157L25.58 81.3277C25.231 81.1331 24.937 80.8535 24.7251 80.5148C24.5133 80.1761 24.3906 79.7893 24.3684 79.3905L23.1743 57.9528C23.1576 57.6599 23.0684 57.3757 22.9147 57.1258C22.761 56.8759 22.5476 56.6681 22.2938 56.521L21.4943 56.0437C21.3974 55.9872 21.3173 55.9061 21.2619 55.8086C21.2065 55.7111 21.1779 55.6007 21.179 55.4886C21.1801 55.3765 21.2108 55.2666 21.268 55.1702C21.3252 55.0738 21.4069 54.9942 21.5048 54.9395L30.5216 49.8852C30.5592 49.8607 30.6014 49.8442 30.6457 49.8366C30.69 49.8291 30.7353 49.8308 30.7789 49.8416C30.8225 49.8523 30.8634 49.8719 30.8992 49.8991C30.9349 49.9264 30.9646 49.9606 30.9865 49.9998C31.0084 50.039 31.022 50.0823 31.0265 50.127C31.0309 50.1717 31.0262 50.2168 31.0125 50.2596C30.9987 50.3023 30.9764 50.3418 30.9468 50.3756C30.9172 50.4093 30.8809 50.4366 30.8403 50.4558L21.8588 55.496L22.6354 55.9504C22.982 56.1528 23.2729 56.4379 23.4822 56.7803C23.6915 57.1226 23.8126 57.5116 23.8347 57.9122L25.0164 79.3482C25.032 79.6383 25.121 79.9198 25.275 80.1662C25.429 80.4126 25.643 80.6159 25.897 80.7571L36.747 86.8451C37.1443 87.066 37.5913 87.1818 38.0458 87.1818C38.5003 87.1818 38.9474 87.066 39.3446 86.8451L47.2484 82.4142C47.2859 82.3908 47.3279 82.3753 47.3716 82.3685C47.4154 82.3618 47.46 82.364 47.5029 82.375C47.5458 82.386 47.586 82.4055 47.6211 82.4325C47.6562 82.4595 47.6855 82.4933 47.7072 82.5318C47.7288 82.5704 47.7425 82.613 47.7472 82.657C47.752 82.701 47.7478 82.7456 47.7349 82.7879C47.7219 82.8302 47.7006 82.8695 47.672 82.9034C47.6435 82.9372 47.6084 82.9649 47.5689 82.9848L39.6634 87.4175C39.1696 87.6924 38.6136 87.8361 38.0485 87.8349Z" fill="#455A64"/>
<path d="M27.7233 82.6473C27.6387 82.6478 27.5555 82.6259 27.482 82.5839L25.4973 81.4709C25.39 81.404 25.3125 81.2983 25.2811 81.1758C25.2497 81.0534 25.2668 80.9235 25.3287 80.8132C25.3906 80.703 25.4927 80.6208 25.6136 80.5839C25.7346 80.547 25.8651 80.5581 25.9781 80.615L27.9628 81.7298C28.0577 81.7825 28.1324 81.8653 28.1752 81.9652C28.2179 82.0651 28.2261 82.1763 28.1987 82.2814C28.1713 82.3865 28.1097 82.4794 28.0236 82.5457C27.9376 82.6119 27.8319 82.6477 27.7233 82.6473Z" fill="#0071CE"/>
<path d="M36.615 87.6364C36.5312 87.6367 36.4487 87.6155 36.3755 87.5748L34.389 86.46C34.3328 86.4279 34.2835 86.385 34.2438 86.3338C34.2042 86.2826 34.1751 86.224 34.1581 86.1616C34.1411 86.0991 34.1365 86.0339 34.1447 85.9697C34.1529 85.9055 34.1737 85.8435 34.2058 85.7873C34.238 85.7311 34.2809 85.6818 34.3321 85.6421C34.3833 85.6025 34.4418 85.5734 34.5042 85.5564C34.5667 85.5394 34.6319 85.5348 34.6961 85.543C34.7604 85.5512 34.8223 85.572 34.8785 85.6041L36.8545 86.7136C36.9494 86.7664 37.0241 86.8492 37.0668 86.949C37.1095 87.0489 37.1178 87.1601 37.0904 87.2652C37.063 87.3703 37.0014 87.4633 36.9153 87.5295C36.8292 87.5958 36.7236 87.6315 36.615 87.6311V87.6364Z" fill="#0071CE"/>
<path d="M38.0485 87.8397C37.6262 87.8399 37.2077 87.7592 36.8158 87.602C36.7739 87.5875 36.7353 87.5647 36.7025 87.5349C36.6697 87.5051 36.6433 87.4689 36.6249 87.4286C36.6064 87.3883 36.5964 87.3446 36.5953 87.3003C36.5942 87.256 36.6022 87.2119 36.6186 87.1708C36.6351 87.1296 36.6598 87.0922 36.6911 87.0608C36.7224 87.0295 36.7598 87.0048 36.801 86.9883C36.8421 86.9719 36.8862 86.9639 36.9305 86.9649C36.9748 86.966 37.0185 86.976 37.0588 86.9944C37.3728 87.1211 37.7082 87.1863 38.0468 87.1864C38.0917 87.1831 38.1368 87.1891 38.1793 87.204C38.2218 87.2189 38.2608 87.2425 38.2937 87.2731C38.3267 87.3038 38.3531 87.3409 38.371 87.3822C38.389 87.4235 38.3983 87.468 38.3983 87.5131C38.3983 87.5581 38.389 87.6027 38.371 87.6439C38.3531 87.6852 38.3267 87.7224 38.2937 87.753C38.2608 87.7837 38.2218 87.8072 38.1793 87.8221C38.1368 87.837 38.0917 87.843 38.0468 87.8397H38.0485Z" fill="#455A64"/>
<path d="M26.8022 81.6324C26.7163 81.6326 26.6319 81.6102 26.5574 81.5675C26.4829 81.5248 26.421 81.4632 26.3778 81.389C26.3346 81.3148 26.3117 81.2305 26.3114 81.1446C26.3111 81.0588 26.3334 80.9743 26.376 80.8998L26.7388 80.2587C26.7691 80.1999 26.8109 80.1477 26.8619 80.1055C26.9128 80.0632 26.9718 80.0316 27.0352 80.0127C27.0987 79.9938 27.1653 79.9879 27.2311 79.9953C27.2968 80.0028 27.3604 80.0235 27.418 80.0561C27.4756 80.0888 27.526 80.1327 27.5662 80.1853C27.6064 80.238 27.6355 80.2982 27.6518 80.3623C27.6682 80.4265 27.6714 80.4933 27.6612 80.5587C27.6511 80.6241 27.6279 80.6868 27.5929 80.743L27.2283 81.3841C27.1856 81.4595 27.1237 81.5222 27.0488 81.5658C26.9739 81.6095 26.8888 81.6324 26.8022 81.6324Z" fill="#0071CE"/>
<path d="M27.2848 80.6166C27.2284 80.6165 27.173 80.6013 27.1245 80.5726C27.0871 80.5515 27.0541 80.5233 27.0277 80.4894C27.0012 80.4556 26.9816 80.4169 26.9702 80.3754C26.9587 80.334 26.9556 80.2908 26.9609 80.2481C26.9662 80.2055 26.9799 80.1643 27.0012 80.127L28.6214 77.2705C28.7414 77.0592 28.9153 76.8834 29.1254 76.7612C29.3354 76.639 29.5742 76.5747 29.8172 76.5749H30.622C30.9432 76.5744 31.2512 76.4466 31.4783 76.2195C31.7054 75.9924 31.8332 75.6845 31.8337 75.3633C31.8304 75.3184 31.8364 75.2732 31.8513 75.2308C31.8662 75.1883 31.8897 75.1493 31.9204 75.1163C31.9511 75.0833 31.9882 75.057 32.0295 75.039C32.0708 75.021 32.1153 75.0117 32.1604 75.0117C32.2054 75.0117 32.2499 75.021 32.2912 75.039C32.3325 75.057 32.3696 75.0833 32.4003 75.1163C32.431 75.1493 32.4545 75.1883 32.4694 75.2308C32.4843 75.2732 32.4903 75.3184 32.487 75.3633C32.4866 75.8578 32.2899 76.3319 31.9403 76.6815C31.5906 77.0312 31.1165 77.2278 30.622 77.2283H29.8172C29.6898 77.2282 29.5647 77.2618 29.4545 77.3259C29.3444 77.3899 29.2532 77.482 29.1903 77.5928L27.5701 80.4493C27.5418 80.5001 27.5004 80.5424 27.4502 80.5718C27.4001 80.6013 27.3429 80.6167 27.2848 80.6166Z" fill="#455A64"/>
<path d="M23.6217 60.4514C23.5501 60.4511 23.4805 60.4273 23.4237 60.3837C23.3668 60.34 23.3259 60.2789 23.3071 60.2098C23.2883 60.1406 23.2927 60.0672 23.3197 60.0008C23.3466 59.9344 23.3945 59.8786 23.4562 59.8421L34.0227 53.7276C34.0598 53.7061 34.1008 53.6921 34.1433 53.6865C34.1859 53.6808 34.2291 53.6836 34.2705 53.6946C34.312 53.7056 34.3509 53.7247 34.3849 53.7508C34.419 53.7769 34.4476 53.8094 34.4691 53.8465C34.4906 53.8836 34.5046 53.9246 34.5103 53.9671C34.516 54.0096 34.5132 54.0529 34.5022 54.0943C34.4911 54.1358 34.472 54.1747 34.446 54.2087C34.4199 54.2428 34.3874 54.2714 34.3503 54.2929L23.7837 60.4074C23.7346 60.4362 23.6787 60.4514 23.6217 60.4514Z" fill="#455A64"/>
<path d="M28.5862 82.9681C28.5301 82.9678 28.475 82.9533 28.426 82.9259L27.7321 82.5367C27.6948 82.5156 27.6619 82.4874 27.6355 82.4537C27.609 82.4199 27.5895 82.3813 27.5779 82.34C27.5664 82.2987 27.5631 82.2556 27.5683 82.213C27.5734 82.1705 27.5869 82.1293 27.608 82.092C27.629 82.0546 27.6572 82.0218 27.6909 81.9953C27.7247 81.9689 27.7633 81.9493 27.8046 81.9378C27.8459 81.9263 27.889 81.923 27.9316 81.9281C27.9742 81.9333 28.0153 81.9468 28.0526 81.9678L28.7465 82.3553C28.8095 82.3908 28.859 82.4462 28.8872 82.5128C28.9154 82.5794 28.9208 82.6535 28.9025 82.7234C28.8842 82.7934 28.8432 82.8554 28.786 82.8996C28.7288 82.9439 28.6586 82.968 28.5862 82.9681Z" fill="#455A64"/>
<path d="M36.1113 65.5776C36.0679 65.5776 36.0262 65.5604 35.9955 65.5297C35.9648 65.4989 35.9475 65.4573 35.9475 65.4138V56.5362C35.9452 56.5134 35.9476 56.4903 35.9547 56.4685C35.9618 56.4467 35.9734 56.4266 35.9888 56.4096C36.0041 56.3926 36.0229 56.3789 36.0439 56.3696C36.0648 56.3603 36.0875 56.3555 36.1104 56.3555C36.1334 56.3555 36.1561 56.3603 36.177 56.3696C36.198 56.3789 36.2167 56.3926 36.2321 56.4096C36.2475 56.4266 36.2591 56.4467 36.2662 56.4685C36.2733 56.4903 36.2757 56.5134 36.2733 56.5362V65.4174C36.2724 65.4599 36.255 65.5004 36.2248 65.5303C36.1945 65.5602 36.1538 65.5772 36.1113 65.5776Z" fill="#263238"/>
<path d="M37.4444 66.345C37.401 66.345 37.3593 66.3278 37.3286 66.297C37.2979 66.2663 37.2807 66.2247 37.2807 66.1812V57.3018C37.2783 57.279 37.2807 57.256 37.2878 57.2341C37.2949 57.2123 37.3065 57.1923 37.3219 57.1752C37.3373 57.1582 37.356 57.1446 37.377 57.1352C37.3979 57.1259 37.4206 57.1211 37.4436 57.1211C37.4665 57.1211 37.4892 57.1259 37.5101 57.1352C37.5311 57.1446 37.5499 57.1582 37.5652 57.1752C37.5806 57.1923 37.5922 57.2123 37.5993 57.2341C37.6064 57.256 37.6088 57.279 37.6065 57.3018V66.183C37.606 66.2258 37.5888 66.2668 37.5585 66.2971C37.5282 66.3273 37.4873 66.3446 37.4444 66.345Z" fill="#263238"/>
<path d="M38.7794 67.1072C38.7578 67.1074 38.7364 67.1033 38.7164 67.0952C38.6965 67.087 38.6783 67.075 38.6631 67.0597C38.6478 67.0445 38.6357 67.0263 38.6276 67.0063C38.6195 66.9864 38.6154 66.9649 38.6156 66.9434V58.0622C38.6156 58.0188 38.6329 57.9771 38.6636 57.9464C38.6943 57.9157 38.736 57.8984 38.7794 57.8984C38.8228 57.8984 38.8645 57.9157 38.8952 57.9464C38.9259 57.9771 38.9432 58.0188 38.9432 58.0622V66.9434C38.9432 66.9868 38.9259 67.0285 38.8952 67.0592C38.8645 67.0899 38.8228 67.1072 38.7794 67.1072Z" fill="#263238"/>
<path d="M40.1142 67.8689C40.0927 67.8689 40.0714 67.8646 40.0515 67.8564C40.0317 67.8482 40.0136 67.8361 39.9984 67.8209C39.9832 67.8057 39.9711 67.7876 39.9629 67.7678C39.9547 67.7479 39.9504 67.7266 39.9504 67.7051V58.8239C39.9504 58.7805 39.9677 58.7388 39.9984 58.7081C40.0291 58.6774 40.0708 58.6602 40.1142 58.6602C40.1577 58.6602 40.1993 58.6774 40.23 58.7081C40.2607 58.7388 40.278 58.7805 40.278 58.8239V67.7051C40.278 67.7485 40.2607 67.7902 40.23 67.8209C40.1993 67.8516 40.1577 67.8689 40.1142 67.8689Z" fill="#263238"/>
<path d="M41.4492 68.6314C41.4057 68.6314 41.3641 68.6141 41.3334 68.5834C41.3027 68.5527 41.2854 68.511 41.2854 68.4676V59.5935C41.2854 59.55 41.3027 59.5084 41.3334 59.4777C41.3641 59.4469 41.4057 59.4297 41.4492 59.4297C41.4926 59.4297 41.5343 59.4469 41.565 59.4777C41.5957 59.5084 41.613 59.55 41.613 59.5935V68.4746C41.6111 68.5168 41.5931 68.5567 41.5626 68.5859C41.532 68.6151 41.4914 68.6314 41.4492 68.6314Z" fill="#263238"/>
<path d="M42.784 69.3923C42.7406 69.3923 42.6989 69.3751 42.6682 69.3443C42.6375 69.3136 42.6202 69.272 42.6202 69.2285V60.3474C42.6202 60.3039 42.6375 60.2623 42.6682 60.2316C42.6989 60.2009 42.7406 60.1836 42.784 60.1836C42.8275 60.1836 42.8691 60.2009 42.8998 60.2316C42.9305 60.2623 42.9478 60.3039 42.9478 60.3474V69.2285C42.9478 69.272 42.9305 69.3136 42.8998 69.3443C42.8691 69.3751 42.8275 69.3923 42.784 69.3923Z" fill="#263238"/>
<path d="M44.119 70.1593C44.0755 70.1593 44.0339 70.1421 44.0032 70.1113C43.9725 70.0806 43.9552 70.039 43.9552 69.9955V61.1091C43.9552 61.0657 43.9725 61.024 44.0032 60.9933C44.0339 60.9626 44.0755 60.9453 44.119 60.9453C44.1624 60.9453 44.2041 60.9626 44.2348 60.9933C44.2655 61.024 44.2828 61.0657 44.2828 61.1091V69.9832C44.2845 70.0057 44.2815 70.0284 44.274 70.0497C44.2666 70.071 44.2548 70.0905 44.2394 70.1071C44.224 70.1236 44.2054 70.1368 44.1846 70.1458C44.1639 70.1548 44.1416 70.1594 44.119 70.1593Z" fill="#263238"/>
<path d="M45.4538 70.9157C45.4104 70.9157 45.3687 70.8985 45.338 70.8678C45.3073 70.8371 45.29 70.7954 45.29 70.752V61.8708C45.29 61.8274 45.3073 61.7857 45.338 61.755C45.3687 61.7243 45.4104 61.707 45.4538 61.707C45.4973 61.707 45.5389 61.7243 45.5696 61.755C45.6003 61.7857 45.6176 61.8274 45.6176 61.8708V70.752C45.6176 70.7954 45.6003 70.8371 45.5696 70.8678C45.5389 70.8985 45.4973 70.9157 45.4538 70.9157Z" fill="#263238"/>
<path d="M46.7888 71.6775C46.7453 71.6775 46.7037 71.6602 46.673 71.6295C46.6423 71.5988 46.625 71.5571 46.625 71.5137V62.6325C46.625 62.5891 46.6423 62.5474 46.673 62.5167C46.7037 62.486 46.7453 62.4688 46.7888 62.4688C46.8322 62.4688 46.8739 62.486 46.9046 62.5167C46.9353 62.5474 46.9526 62.5891 46.9526 62.6325V71.5137C46.9526 71.5571 46.9353 71.5988 46.9046 71.6295C46.8739 71.6602 46.8322 71.6775 46.7888 71.6775Z" fill="#263238"/>
<path d="M48.1237 72.448C48.1022 72.448 48.0809 72.4438 48.0611 72.4355C48.0412 72.4273 48.0231 72.4152 48.0079 72.4C47.9927 72.3848 47.9807 72.3668 47.9724 72.3469C47.9642 72.327 47.96 72.3057 47.96 72.2842V63.3942C47.96 63.3508 47.9772 63.3092 48.0079 63.2784C48.0386 63.2477 48.0803 63.2305 48.1237 63.2305C48.1672 63.2305 48.2088 63.2477 48.2396 63.2784C48.2703 63.3092 48.2875 63.3508 48.2875 63.3942V72.2719C48.2892 72.2944 48.2862 72.317 48.2788 72.3384C48.2713 72.3597 48.2595 72.3792 48.2441 72.3957C48.2288 72.4123 48.2101 72.4255 48.1894 72.4345C48.1687 72.4434 48.1463 72.4481 48.1237 72.448Z" fill="#263238"/>
<path d="M49.4586 73.2009C49.4151 73.2009 49.3735 73.1837 49.3428 73.1529C49.3121 73.1222 49.2948 73.0806 49.2948 73.0371V64.156C49.2948 64.1125 49.3121 64.0709 49.3428 64.0402C49.3735 64.0094 49.4151 63.9922 49.4586 63.9922C49.502 63.9922 49.5437 64.0094 49.5744 64.0402C49.6051 64.0709 49.6224 64.1125 49.6224 64.156V73.0371C49.6226 73.0587 49.6185 73.0801 49.6104 73.1001C49.6022 73.1201 49.5902 73.1382 49.5749 73.1535C49.5597 73.1687 49.5415 73.1808 49.5215 73.1889C49.5016 73.1971 49.4802 73.2011 49.4586 73.2009Z" fill="#263238"/>
<path d="M50.7935 73.964C50.7504 73.9635 50.7092 73.946 50.6788 73.9154C50.6485 73.8847 50.6315 73.8433 50.6315 73.8002V64.919C50.6291 64.8962 50.6316 64.8731 50.6387 64.8513C50.6458 64.8295 50.6574 64.8095 50.6727 64.7924C50.6881 64.7754 50.7069 64.7618 50.7278 64.7524C50.7488 64.7431 50.7715 64.7383 50.7944 64.7383C50.8173 64.7383 50.84 64.7431 50.861 64.7524C50.8819 64.7618 50.9007 64.7754 50.9161 64.7924C50.9314 64.8095 50.943 64.8295 50.9501 64.8513C50.9572 64.8731 50.9597 64.8962 50.9573 64.919V73.8002C50.9573 73.8436 50.94 73.8853 50.9093 73.916C50.8786 73.9467 50.837 73.964 50.7935 73.964Z" fill="#263238"/>
<path d="M52.1371 73.9649C52.094 73.9644 52.0528 73.947 52.0225 73.9163C51.9921 73.8856 51.9751 73.8442 51.9751 73.8011V65.6807C51.9727 65.6579 51.9752 65.6349 51.9823 65.6131C51.9894 65.5912 52.001 65.5712 52.0164 65.5541C52.0317 65.5371 52.0505 65.5235 52.0714 65.5141C52.0924 65.5048 52.1151 65.5 52.138 65.5C52.161 65.5 52.1836 65.5048 52.2046 65.5141C52.2256 65.5235 52.2443 65.5371 52.2597 65.5541C52.275 65.5712 52.2867 65.5912 52.2938 65.6131C52.3009 65.6349 52.3033 65.6579 52.3009 65.6807V73.8011C52.3009 73.8445 52.2837 73.8862 52.253 73.9169C52.2222 73.9476 52.1806 73.9649 52.1371 73.9649Z" fill="#263238"/>
<path d="M53.4651 72.8194C53.4437 72.8196 53.4224 72.8156 53.4025 72.8075C53.3827 72.7995 53.3646 72.7876 53.3494 72.7725C53.3341 72.7575 53.322 72.7395 53.3138 72.7197C53.3055 72.7 53.3013 72.6788 53.3013 72.6573V66.4425C53.2989 66.4197 53.3014 66.3966 53.3085 66.3748C53.3156 66.353 53.3272 66.3329 53.3425 66.3158C53.3579 66.2988 53.3767 66.2852 53.3976 66.2759C53.4186 66.2665 53.4413 66.2617 53.4642 66.2617C53.4871 66.2617 53.5098 66.2665 53.5308 66.2759C53.5517 66.2852 53.5705 66.2988 53.5859 66.3158C53.6012 66.3329 53.6128 66.353 53.6199 66.3748C53.627 66.3966 53.6295 66.4197 53.6271 66.4425V72.6573C53.6271 72.6786 53.6229 72.6997 53.6148 72.7193C53.6066 72.739 53.5947 72.7569 53.5796 72.7719C53.5646 72.7869 53.5467 72.7989 53.5271 72.807C53.5074 72.8152 53.4864 72.8194 53.4651 72.8194Z" fill="#263238"/>
<path d="M54.8 71.4911C54.7566 71.4911 54.7149 71.4738 54.6842 71.4431C54.6535 71.4124 54.6362 71.3707 54.6362 71.3273V67.2028C54.6362 67.1594 54.6535 67.1177 54.6842 67.087C54.7149 67.0563 54.7566 67.0391 54.8 67.0391C54.8434 67.0391 54.8851 67.0563 54.9158 67.087C54.9465 67.1177 54.9638 67.1594 54.9638 67.2028V71.3273C54.9638 71.3707 54.9465 71.4124 54.9158 71.4431C54.8851 71.4738 54.8434 71.4911 54.8 71.4911Z" fill="#263238"/>
<path d="M56.1349 70.2874C56.0914 70.2874 56.0498 70.2702 56.019 70.2395C55.9883 70.2088 55.9711 70.1671 55.9711 70.1237V67.9646C55.9711 67.9211 55.9883 67.8795 56.019 67.8488C56.0498 67.818 56.0914 67.8008 56.1349 67.8008C56.1783 67.8008 56.2199 67.818 56.2507 67.8488C56.2814 67.8795 56.2986 67.9211 56.2986 67.9646V70.1237C56.2986 70.1671 56.2814 70.2088 56.2507 70.2395C56.2199 70.2702 56.1783 70.2874 56.1349 70.2874Z" fill="#263238"/>
<path d="M56.1419 70.4405C56.1133 70.4409 56.0852 70.433 56.0609 70.4176L34.3362 57.9721C34.3158 57.9624 34.2976 57.9487 34.2827 57.9316C34.2678 57.9146 34.2567 57.8947 34.2499 57.8732C34.2431 57.8516 34.2408 57.8289 34.2432 57.8065C34.2457 57.784 34.2527 57.7623 34.2639 57.7427C34.2751 57.7231 34.2902 57.706 34.3084 57.6925C34.3265 57.679 34.3472 57.6695 34.3692 57.6644C34.3912 57.6593 34.414 57.6588 34.4362 57.663C34.4584 57.6671 34.4795 57.6758 34.4982 57.6885L56.223 70.1341C56.2605 70.1558 56.288 70.1916 56.2992 70.2335C56.3104 70.2755 56.3045 70.3202 56.2828 70.3578C56.2688 70.3828 56.2483 70.4037 56.2236 70.4182C56.1988 70.4328 56.1707 70.4405 56.1419 70.4405Z" fill="#263238"/>
<path d="M54.6027 71.7806C54.5744 71.7802 54.5466 71.7729 54.5217 71.7594L34.588 60.3388C34.5516 60.3177 34.5249 60.2834 34.5134 60.243C34.5019 60.2025 34.5065 60.1592 34.5264 60.1222C34.537 60.1034 34.5512 60.087 34.5682 60.0737C34.5852 60.0604 34.6046 60.0507 34.6254 60.0449C34.6462 60.0392 34.6679 60.0377 34.6893 60.0403C34.7106 60.043 34.7313 60.0499 34.75 60.0606L54.682 71.4812C54.7141 71.4985 54.7394 71.526 54.7539 71.5595C54.7684 71.5929 54.7712 71.6303 54.7618 71.6655C54.7525 71.7008 54.7315 71.7318 54.7023 71.7536C54.6731 71.7755 54.6374 71.7868 54.601 71.7859L54.6027 71.7806Z" fill="#263238"/>
<path d="M53.1763 73.1854C53.1477 73.1853 53.1197 73.1774 53.0952 73.1625L34.7166 62.633C34.6978 62.6223 34.6813 62.6081 34.6681 62.5911C34.6548 62.5741 34.645 62.5547 34.6393 62.5339C34.6336 62.5131 34.632 62.4914 34.6347 62.4701C34.6374 62.4487 34.6442 62.428 34.6549 62.4093C34.677 62.3721 34.7127 62.3449 34.7545 62.3338C34.7963 62.3226 34.8409 62.3282 34.8786 62.3494L53.259 72.879C53.2963 72.901 53.3234 72.9368 53.3346 72.9786C53.3458 73.0204 53.3401 73.0649 53.3189 73.1026C53.3047 73.1279 53.284 73.1489 53.2589 73.1635C53.2338 73.1781 53.2053 73.1856 53.1763 73.1854Z" fill="#263238"/>
<path d="M51.7304 74.6605C51.6729 74.6607 51.6163 74.6455 51.5666 74.6165L34.8962 65.0661C34.8208 65.0229 34.7656 64.9515 34.7428 64.8676C34.72 64.7837 34.7315 64.6942 34.7747 64.6188C34.8179 64.5434 34.8893 64.4882 34.9732 64.4654C35.0571 64.4426 35.1466 64.4541 35.222 64.4973L51.6846 73.9297L57.1229 68.9264L34.5 55.9648C34.4301 55.919 34.3803 55.8483 34.3609 55.767C34.3415 55.6857 34.3538 55.6001 34.3955 55.5277C34.4371 55.4552 34.5048 55.4014 34.5848 55.3773C34.6648 55.3531 34.751 55.3604 34.8258 55.3977L57.8361 68.5742C57.8805 68.6002 57.9182 68.6362 57.9463 68.6793C57.9744 68.7224 57.9921 68.7714 57.9981 68.8225C58.0037 68.8735 57.9971 68.9251 57.9791 68.9731C57.9611 69.0212 57.932 69.0643 57.8942 69.099L51.9506 74.576C51.8902 74.6305 51.8117 74.6606 51.7304 74.6605Z" fill="#263238"/>
<path d="M25.5448 71.4171C25.5162 71.4173 25.4881 71.41 25.4633 71.3957C25.4386 71.3815 25.4181 71.3609 25.4039 71.336C25.393 71.3175 25.3858 71.2969 25.3829 71.2756C25.3799 71.2542 25.3813 71.2325 25.3869 71.2116C25.3924 71.1908 25.4021 71.1713 25.4153 71.1543C25.4285 71.1372 25.445 71.123 25.4638 71.1124L35.627 65.2039C35.6457 65.1925 35.6664 65.1849 35.6881 65.1816C35.7097 65.1783 35.7318 65.1793 35.753 65.1847C35.7742 65.1901 35.7941 65.1996 35.8116 65.2128C35.8291 65.226 35.8437 65.2426 35.8546 65.2615C35.8656 65.2805 35.8726 65.3015 35.8753 65.3232C35.878 65.3449 35.8764 65.3669 35.8704 65.388C35.8645 65.4091 35.8544 65.4287 35.8407 65.4458C35.827 65.4629 35.8101 65.4771 35.7908 65.4875L25.6346 71.3924C25.6075 71.4085 25.5764 71.4171 25.5448 71.4171Z" fill="#37474F"/>
<path d="M26.8867 72.1778C26.8582 72.1778 26.8302 72.1702 26.8055 72.156C26.7808 72.1418 26.7603 72.1214 26.7459 72.0968C26.7349 72.0783 26.7277 72.0577 26.7248 72.0363C26.7218 72.015 26.7232 71.9932 26.7288 71.9724C26.7344 71.9516 26.744 71.9321 26.7572 71.915C26.7705 71.898 26.7869 71.8838 26.8057 71.8732L36.969 65.9647C36.9875 65.9513 37.0086 65.9419 37.031 65.9372C37.0534 65.9324 37.0766 65.9324 37.099 65.9371C37.1214 65.9419 37.1425 65.9513 37.1611 65.9647C37.1796 65.9781 37.1951 65.9953 37.2066 66.0151C37.2181 66.0349 37.2254 66.0568 37.2278 66.0796C37.2303 66.1024 37.228 66.1254 37.2211 66.1472C37.2141 66.169 37.2026 66.1891 37.1874 66.2062C37.1722 66.2233 37.1536 66.237 37.1327 66.2465L26.9695 72.1549C26.9446 72.17 26.9159 72.178 26.8867 72.1778Z" fill="#37474F"/>
<path d="M28.2235 72.9399C28.1876 72.9397 28.1528 72.9278 28.1244 72.906C28.096 72.8842 28.0755 72.8536 28.0662 72.8191C28.0568 72.7845 28.059 72.7478 28.0724 72.7146C28.0859 72.6814 28.1099 72.6535 28.1407 72.6352L38.3039 66.7268C38.3414 66.7065 38.3854 66.7016 38.4264 66.7132C38.4675 66.7248 38.5024 66.752 38.5237 66.7889C38.5451 66.8258 38.5512 66.8696 38.5407 66.911C38.5302 66.9523 38.504 66.988 38.4677 67.0103L28.3045 72.9188C28.2796 72.9322 28.2518 72.9395 28.2235 72.9399Z" fill="#37474F"/>
<path d="M29.5584 73.7052C29.5298 73.7043 29.5019 73.6964 29.477 73.6823C29.4522 73.6682 29.4311 73.6482 29.4157 73.6242C29.3945 73.5865 29.3888 73.5419 29.4 73.5001C29.4112 73.4583 29.4384 73.4226 29.4756 73.4005L39.6335 67.4921C39.6521 67.4786 39.6732 67.4693 39.6956 67.4645C39.718 67.4598 39.7411 67.4597 39.7635 67.4645C39.7859 67.4692 39.8071 67.4786 39.8256 67.492C39.8442 67.5055 39.8597 67.5226 39.8712 67.5424C39.8827 67.5622 39.8899 67.5842 39.8924 67.6069C39.8949 67.6297 39.8926 67.6527 39.8856 67.6745C39.8787 67.6963 39.8672 67.7164 39.852 67.7336C39.8368 67.7507 39.8182 67.7644 39.7973 67.7738L29.6394 73.6841C29.6148 73.6985 29.5868 73.7058 29.5584 73.7052Z" fill="#37474F"/>
<path d="M30.8933 74.4621C30.8574 74.4619 30.8226 74.45 30.7942 74.4282C30.7658 74.4063 30.7453 74.3758 30.736 74.3412C30.7266 74.3067 30.7288 74.2699 30.7422 74.2367C30.7557 74.2035 30.7797 74.1757 30.8105 74.1574L40.9737 68.249C41.0113 68.227 41.0561 68.2209 41.0982 68.232C41.1403 68.243 41.1763 68.2704 41.1983 68.308C41.2202 68.3456 41.2263 68.3903 41.2153 68.4324C41.2042 68.4745 41.1769 68.5105 41.1393 68.5325L30.9743 74.4409C30.9496 74.4549 30.9216 74.4622 30.8933 74.4621Z" fill="#37474F"/>
<path d="M32.2369 75.226C32.2084 75.2251 32.1805 75.2173 32.1556 75.2031C32.1308 75.189 32.1097 75.1691 32.0943 75.145C32.0731 75.1073 32.0674 75.0628 32.0786 75.021C32.0898 74.9792 32.1169 74.9434 32.1542 74.9214L42.3174 69.0129C42.3359 69.0003 42.3569 68.9915 42.3789 68.9873C42.401 68.9831 42.4236 68.9834 42.4455 68.9883C42.4674 68.9932 42.4881 69.0026 42.5063 69.0158C42.5244 69.029 42.5396 69.0458 42.551 69.0652C42.5624 69.0845 42.5696 69.106 42.5723 69.1283C42.5751 69.1506 42.5732 69.1732 42.5668 69.1947C42.5604 69.2162 42.5497 69.2362 42.5353 69.2534C42.5208 69.2706 42.503 69.2847 42.4829 69.2947L32.318 75.2031C32.2937 75.2184 32.2656 75.2264 32.2369 75.226Z" fill="#37474F"/>
<path d="M33.563 75.9896C33.5345 75.9899 33.5063 75.9825 33.4816 75.9683C33.4568 75.954 33.4363 75.9334 33.4222 75.9086C33.4003 75.8712 33.3942 75.8267 33.405 75.7848C33.4159 75.7429 33.443 75.707 33.4803 75.6849L43.6435 69.7765C43.6621 69.7655 43.6826 69.7583 43.704 69.7554C43.7254 69.7525 43.7471 69.7538 43.7679 69.7594C43.7887 69.765 43.8083 69.7747 43.8253 69.7879C43.8423 69.8011 43.8566 69.8176 43.8672 69.8364C43.889 69.8738 43.8952 69.9183 43.8843 69.9602C43.8734 70.0021 43.8463 70.038 43.809 70.06L33.6458 75.9738C33.6201 75.9862 33.5915 75.9916 33.563 75.9896Z" fill="#37474F"/>
<path d="M34.8979 76.7499C34.8621 76.7497 34.8273 76.7378 34.7989 76.716C34.7705 76.6942 34.75 76.6636 34.7406 76.6291C34.7312 76.5945 34.7334 76.5578 34.7469 76.5246C34.7603 76.4914 34.7843 76.4635 34.8151 76.4452L44.9784 70.5368C45.0155 70.5182 45.0583 70.5145 45.0981 70.5263C45.1379 70.5381 45.1717 70.5646 45.1927 70.6003C45.2138 70.6361 45.2204 70.6786 45.2113 70.7191C45.2023 70.7596 45.1782 70.7951 45.1439 70.8186L34.9807 76.727C34.9557 76.7421 34.9271 76.75 34.8979 76.7499Z" fill="#37474F"/>
<path d="M36.2328 77.5091C36.2043 77.5094 36.1761 77.5021 36.1514 77.4878C36.1266 77.4736 36.1061 77.453 36.092 77.4281C36.0701 77.3907 36.064 77.3462 36.0748 77.3043C36.0857 77.2624 36.1128 77.2265 36.1501 77.2045L46.3151 71.296C46.3336 71.285 46.3542 71.2779 46.3755 71.2749C46.3969 71.272 46.4186 71.2734 46.4395 71.2789C46.4603 71.2845 46.4798 71.2942 46.4969 71.3074C46.5139 71.3206 46.5281 71.3371 46.5387 71.3559C46.5599 71.3936 46.5656 71.4381 46.5544 71.4799C46.5432 71.5217 46.5161 71.5575 46.4788 71.5796L36.3156 77.488C36.2902 77.5017 36.2618 77.509 36.2328 77.5091Z" fill="#37474F"/>
<path d="M37.5677 78.2745C37.5319 78.2744 37.4971 78.2625 37.4687 78.2407C37.4403 78.2188 37.4198 78.1883 37.4104 78.1537C37.401 78.1191 37.4032 78.0824 37.4167 78.0492C37.4301 78.016 37.4541 77.9881 37.4849 77.9699L47.6499 72.0614C47.6873 72.0396 47.7318 72.0334 47.7737 72.0443C47.8157 72.0552 47.8516 72.0823 47.8736 72.1196C47.8948 72.1573 47.9004 72.2018 47.8892 72.2436C47.8781 72.2854 47.8509 72.3212 47.8137 72.3432L37.6505 78.2517C37.6255 78.2668 37.5969 78.2747 37.5677 78.2745Z" fill="#37474F"/>
<path d="M38.9026 79.0342C38.874 79.0345 38.8459 79.0272 38.8211 79.0129C38.7964 78.9987 38.7759 78.9781 38.7617 78.9532C38.7507 78.9347 38.7436 78.9141 38.7406 78.8928C38.7377 78.8714 38.7391 78.8497 38.7446 78.8288C38.7502 78.808 38.7599 78.7885 38.7731 78.7714C38.7863 78.7544 38.8028 78.7402 38.8216 78.7296L48.9848 72.8211C49.0035 72.8097 49.0242 72.8021 49.0459 72.7988C49.0675 72.7954 49.0896 72.7965 49.1108 72.8019C49.132 72.8073 49.1519 72.8168 49.1694 72.83C49.1868 72.8432 49.2015 72.8598 49.2124 72.8787C49.2234 72.8977 49.2304 72.9186 49.2331 72.9404C49.2358 72.9621 49.2342 72.9841 49.2282 73.0052C49.2223 73.0262 49.2122 73.0459 49.1985 73.063C49.1848 73.0801 49.1678 73.0942 49.1486 73.1047L38.9854 79.0131C38.9599 79.0268 38.9315 79.0341 38.9026 79.0342Z" fill="#37474F"/>
<path d="M40.2376 79.7972C40.2091 79.7971 40.1811 79.7896 40.1564 79.7754C40.1317 79.7612 40.1111 79.7408 40.0967 79.7162C40.0862 79.6974 40.0796 79.6767 40.0772 79.6553C40.0748 79.6339 40.0767 79.6122 40.0827 79.5915C40.0888 79.5709 40.0989 79.5516 40.1125 79.5349C40.1261 79.5182 40.1429 79.5044 40.1619 79.4943L50.3251 73.5858C50.3436 73.5724 50.3648 73.563 50.3872 73.5583C50.4096 73.5535 50.4327 73.5535 50.4551 73.5582C50.4775 73.563 50.4987 73.5724 50.5172 73.5858C50.5357 73.5992 50.5513 73.6164 50.5628 73.6362C50.5743 73.656 50.5815 73.6779 50.584 73.7007C50.5865 73.7234 50.5842 73.7465 50.5772 73.7683C50.5702 73.7901 50.5588 73.8102 50.5436 73.8273C50.5284 73.8444 50.5097 73.8581 50.4889 73.8676L40.3204 79.7743C40.2954 79.7894 40.2668 79.7973 40.2376 79.7972Z" fill="#37474F"/>
<path d="M36.2857 75.6529L28.16 70.9631V59.8242L36.2857 64.5157V75.6529Z" fill="#0071CE"/>
<path d="M36.2856 75.6529V64.5157L44.4095 59.8242V70.9631L36.2856 75.6529Z" fill="#0071CE"/>
<path opacity="0.5" d="M36.2857 75.6529L28.16 70.9631V59.8242L36.2857 64.5157V75.6529Z" fill="black"/>
<path opacity="0.7" d="M36.2856 75.6529V64.5157L44.4095 59.8242V70.9631L36.2856 75.6529Z" fill="black"/>
<path d="M36.2857 64.0596L27.5295 59.0053L36.2857 53.9492L45.04 59.0053L36.2857 64.0596Z" fill="#0071CE"/>
<path d="M31.337 56.8092L40.0932 61.8653L41.2326 61.2067L32.4782 56.1523L31.337 56.8092Z" fill="#0071CE"/>
<path opacity="0.8" d="M31.337 56.8092L40.0932 61.8653L41.2326 61.2067L32.4782 56.1523L31.337 56.8092Z" fill="white"/>
<path d="M41.2326 56.8092L32.4782 61.8653L31.337 61.2067L40.0932 56.1523L41.2326 56.8092Z" fill="#0071CE"/>
<path opacity="0.8" d="M41.2326 56.8092L32.4782 61.8653L31.337 61.2067L40.0932 56.1523L41.2326 56.8092Z" fill="white"/>
<path d="M36.2857 65.8109L27.5295 60.7548V59.0078L36.2857 64.0621V65.8109Z" fill="#0071CE"/>
<path d="M36.2856 65.8109V64.0621L45.04 59.0078V60.7566L36.2856 65.8109Z" fill="#0071CE"/>
<path opacity="0.3" d="M36.2857 65.8109L27.5295 60.7548V59.0078L36.2857 64.0621V65.8109Z" fill="black"/>
<path opacity="0.5" d="M36.2856 65.8109V64.0621L45.04 59.0078V60.7566L36.2856 65.8109Z" fill="black"/>
<path d="M32.4782 73.4642L31.337 72.8108V61.207L32.4782 61.8657V73.4642Z" fill="#0071CE"/>
<path d="M40.0931 73.4642L41.2326 72.8108V61.207L40.0931 61.8657V73.4642Z" fill="#0071CE"/>
<path d="M40.463 63.598C40.4568 63.7209 40.4217 63.8407 40.3605 63.9475C40.2993 64.0543 40.2137 64.1451 40.1108 64.2126C39.9153 64.3271 39.7585 64.2337 39.7585 64.0083C39.7651 63.8852 39.8004 63.7654 39.8616 63.6584C39.9227 63.5514 40.0081 63.4601 40.1108 63.3919C40.3045 63.2792 40.463 63.3708 40.463 63.598Z" fill="#0071CE"/>
<path d="M44.1595 61.4613C44.1531 61.5841 44.1178 61.7038 44.0566 61.8105C43.9954 61.9173 43.91 62.0082 43.8073 62.0759C43.6101 62.1886 43.4551 62.097 43.4551 61.8716C43.4613 61.7484 43.4964 61.6284 43.5576 61.5213C43.6188 61.4143 43.7043 61.3231 43.8073 61.2552C44.001 61.1425 44.1595 61.2341 44.1595 61.4613Z" fill="#0071CE"/>
<path d="M40.1073 63.8949C40.0606 63.8949 40.0158 63.8763 39.9827 63.8433C39.9497 63.8103 39.9312 63.7655 39.9312 63.7188V61.2673C39.9327 60.7588 40.065 60.2592 40.3155 59.8166C40.5659 59.3741 40.926 59.0034 41.3612 58.7402L42.2276 58.2119C42.4022 58.1067 42.6015 58.0498 42.8053 58.047C43.0091 58.0442 43.2099 58.0956 43.3873 58.1959C43.5647 58.2962 43.7122 58.4419 43.8148 58.618C43.9173 58.7941 43.9713 58.9943 43.9711 59.1981V61.579C43.9711 61.6258 43.9525 61.6706 43.9195 61.7036C43.8865 61.7366 43.8417 61.7552 43.795 61.7552C43.7483 61.7552 43.7035 61.7366 43.6704 61.7036C43.6374 61.6706 43.6189 61.6258 43.6189 61.579V59.2069C43.619 59.064 43.5812 58.9237 43.5093 58.8002C43.4374 58.6767 43.3341 58.5746 43.2097 58.5042C43.0854 58.4338 42.9446 58.3976 42.8018 58.3995C42.6589 58.4014 42.5191 58.4411 42.3967 58.5148L41.5302 59.0343C41.1453 59.2666 40.8267 59.5941 40.6049 59.9851C40.3832 60.3762 40.2658 60.8178 40.264 61.2673V63.7241C40.263 63.7667 40.2465 63.8075 40.2177 63.8389C40.1889 63.8703 40.1496 63.8902 40.1073 63.8949Z" fill="#0071CE"/>
<path opacity="0.9" d="M40.1073 63.8949C40.0606 63.8949 40.0158 63.8763 39.9827 63.8433C39.9497 63.8103 39.9312 63.7655 39.9312 63.7188V61.2673C39.9327 60.7588 40.065 60.2592 40.3155 59.8166C40.5659 59.3741 40.926 59.0034 41.3612 58.7402L42.2276 58.2119C42.4022 58.1067 42.6015 58.0498 42.8053 58.047C43.0091 58.0442 43.2099 58.0956 43.3873 58.1959C43.5647 58.2962 43.7122 58.4419 43.8148 58.618C43.9173 58.7941 43.9713 58.9943 43.9711 59.1981V61.579C43.9711 61.6258 43.9525 61.6706 43.9195 61.7036C43.8865 61.7366 43.8417 61.7552 43.795 61.7552C43.7483 61.7552 43.7035 61.7366 43.6704 61.7036C43.6374 61.6706 43.6189 61.6258 43.6189 61.579V59.2069C43.619 59.064 43.5812 58.9237 43.5093 58.8002C43.4374 58.6767 43.3341 58.5746 43.2097 58.5042C43.0854 58.4338 42.9446 58.3976 42.8018 58.3995C42.6589 58.4014 42.5191 58.4411 42.3967 58.5148L41.5302 59.0343C41.1453 59.2666 40.8267 59.5941 40.6049 59.9851C40.3832 60.3762 40.2658 60.8178 40.264 61.2673V63.7241C40.263 63.7667 40.2465 63.8075 40.2177 63.8389C40.1889 63.8703 40.1496 63.8902 40.1073 63.8949Z" fill="black"/>
<path d="M45.6934 59.3906L49.9076 62.0287V73.9724L45.6934 71.3343V59.3906Z" fill="#0071CE"/>
<path d="M37.3475 76.1526V64.209L45.6933 59.3906V71.3343L37.3475 76.1526Z" fill="#0071CE"/>
<path opacity="0.3" d="M37.3475 76.1526V64.209L45.6933 59.3906V71.3343L37.3475 76.1526Z" fill="black"/>
<path d="M37.9516 72.6233L39.1175 65.7938C39.2236 65.1761 39.4643 64.5892 39.8225 64.0749C40.1807 63.5606 40.6477 63.1313 41.1903 62.8176L45.563 60.2957C45.8103 60.1531 46.0887 60.0734 46.3739 60.0635C46.6591 60.0537 46.9424 60.114 47.1989 60.2392C47.4554 60.3644 47.6772 60.5506 47.8449 60.7815C48.0125 61.0125 48.121 61.281 48.1606 61.5637L49.3194 69.7879C49.477 70.9096 49.1923 72.0485 48.5255 72.9641C47.8587 73.8796 46.8621 74.5001 45.7462 74.6943L40.8662 75.5396C40.4682 75.6073 40.0597 75.5786 39.6751 75.4559C39.2904 75.3333 38.9407 75.1202 38.6553 74.8346C38.3699 74.5491 38.1571 74.1992 38.0346 73.8145C37.9122 73.4298 37.8837 73.0213 37.9516 72.6233Z" fill="#0071CE"/>
<path opacity="0.8" d="M37.9516 72.6233L39.1175 65.7938C39.2236 65.1761 39.4643 64.5892 39.8225 64.0749C40.1807 63.5606 40.6477 63.1313 41.1903 62.8176L45.563 60.2957C45.8103 60.1531 46.0887 60.0734 46.3739 60.0635C46.6591 60.0537 46.9424 60.114 47.1989 60.2392C47.4554 60.3644 47.6772 60.5506 47.8449 60.7815C48.0125 61.0125 48.121 61.281 48.1606 61.5637L49.3194 69.7879C49.477 70.9096 49.1923 72.0485 48.5255 72.9641C47.8587 73.8796 46.8621 74.5001 45.7462 74.6943L40.8662 75.5396C40.4682 75.6073 40.0597 75.5786 39.6751 75.4559C39.2904 75.3333 38.9407 75.1202 38.6553 74.8346C38.3699 74.5491 38.1571 74.1992 38.0346 73.8145C37.9122 73.4298 37.8837 73.0213 37.9516 72.6233Z" fill="white"/>
<path d="M41.5636 78.7894V66.8457L49.9076 62.0273V73.971L41.5636 78.7894Z" fill="#0071CE"/>
<path opacity="0.5" d="M41.5636 78.7894V66.8457L49.9076 62.0273V73.971L41.5636 78.7894Z" fill="black"/>
<path d="M37.3475 64.2109L41.5636 66.849V78.7927L37.3475 76.1546V64.2109Z" fill="#0071CE"/>
<path opacity="0.3" d="M39.4556 75.3348V65.5273L41.5636 66.8446V78.7883L39.4556 75.3348Z" fill="black"/>
<path d="M44.2423 66.4229C44.2361 66.546 44.201 66.666 44.1398 66.7731C44.0786 66.8802 43.993 66.9714 43.8901 67.0392C43.6946 67.1519 43.5378 67.0604 43.5378 66.8332C43.544 66.7102 43.5791 66.5905 43.6404 66.4837C43.7016 66.3769 43.7871 66.2861 43.8901 66.2186C44.0838 66.1094 44.2423 66.1974 44.2423 66.4229Z" fill="#0071CE"/>
<path d="M47.9405 64.2845C47.9342 64.4075 47.899 64.5271 47.8378 64.6339C47.7766 64.7407 47.6911 64.8316 47.5883 64.8992C47.3911 65.0136 47.2361 64.9221 47.2361 64.6949C47.2421 64.5719 47.2772 64.4521 47.3384 64.3453C47.3996 64.2385 47.4853 64.1476 47.5883 64.0803C47.7803 63.9658 47.9405 64.0591 47.9405 64.2845Z" fill="#0071CE"/>
<path d="M43.8866 66.721C43.8399 66.721 43.7951 66.7024 43.762 66.6694C43.729 66.6363 43.7104 66.5915 43.7104 66.5448V64.0952C43.7117 63.5861 43.8441 63.086 44.0949 62.6431C44.3457 62.2001 44.7064 61.8292 45.1422 61.5663L46.0087 61.0467C46.1832 60.942 46.3824 60.8855 46.5859 60.8829C46.7894 60.8803 46.9899 60.9318 47.167 61.0321C47.3441 61.1324 47.4914 61.2779 47.5939 61.4537C47.6964 61.6295 47.7504 61.8294 47.7504 62.0329V64.4157C47.7569 64.4417 47.7574 64.4688 47.7518 64.495C47.7463 64.5211 47.7349 64.5457 47.7184 64.5668C47.7019 64.5879 47.6809 64.605 47.6568 64.6168C47.6327 64.6285 47.6063 64.6346 47.5796 64.6346C47.5528 64.6346 47.5264 64.6285 47.5023 64.6168C47.4783 64.605 47.4572 64.5879 47.4407 64.5668C47.4242 64.5457 47.4128 64.5211 47.4073 64.495C47.4017 64.4688 47.4022 64.4417 47.4087 64.4157V62.0329C47.4085 61.89 47.3704 61.7497 47.2983 61.6263C47.2262 61.5029 47.1227 61.4009 46.9983 61.3305C46.8739 61.2602 46.733 61.2241 46.5901 61.2259C46.4472 61.2277 46.3074 61.2674 46.1848 61.3408L45.3183 61.8604C44.9334 62.0929 44.6149 62.4207 44.3934 62.8121C44.1719 63.2036 44.055 63.6454 44.0539 64.0952V66.5501C44.0526 66.5944 44.0347 66.6366 44.0036 66.6683C43.9726 66.6999 43.9308 66.7188 43.8866 66.721Z" fill="#0071CE"/>
<path opacity="0.9" d="M43.8866 66.721C43.8399 66.721 43.7951 66.7024 43.762 66.6694C43.729 66.6363 43.7104 66.5915 43.7104 66.5448V64.0952C43.7117 63.5861 43.8441 63.086 44.0949 62.6431C44.3457 62.2001 44.7064 61.8292 45.1422 61.5663L46.0087 61.0467C46.1832 60.942 46.3824 60.8855 46.5859 60.8829C46.7894 60.8803 46.9899 60.9318 47.167 61.0321C47.3441 61.1324 47.4914 61.2779 47.5939 61.4537C47.6964 61.6295 47.7504 61.8294 47.7504 62.0329V64.4157C47.7569 64.4417 47.7574 64.4688 47.7518 64.495C47.7463 64.5211 47.7349 64.5457 47.7184 64.5668C47.7019 64.5879 47.6809 64.605 47.6568 64.6168C47.6327 64.6285 47.6063 64.6346 47.5796 64.6346C47.5528 64.6346 47.5264 64.6285 47.5023 64.6168C47.4783 64.605 47.4572 64.5879 47.4407 64.5668C47.4242 64.5457 47.4128 64.5211 47.4073 64.495C47.4017 64.4688 47.4022 64.4417 47.4087 64.4157V62.0329C47.4085 61.89 47.3704 61.7497 47.2983 61.6263C47.2262 61.5029 47.1227 61.4009 46.9983 61.3305C46.8739 61.2602 46.733 61.2241 46.5901 61.2259C46.4472 61.2277 46.3074 61.2674 46.1848 61.3408L45.3183 61.8604C44.9334 62.0929 44.6149 62.4207 44.3934 62.8121C44.1719 63.2036 44.055 63.6454 44.0539 64.0952V66.5501C44.0526 66.5944 44.0347 66.6366 44.0036 66.6683C43.9726 66.6999 43.9308 66.7188 43.8866 66.721Z" fill="black"/>
<path d="M46.8345 75.1489C46.7617 75.149 46.691 75.125 46.6334 75.0805C46.5759 75.036 46.5348 74.9736 46.5166 74.9031C46.4984 74.8326 46.5042 74.7581 46.5331 74.6914C46.562 74.6246 46.6122 74.5693 46.676 74.5342L57.5155 68.573C57.5907 68.5384 57.6762 68.5335 57.7549 68.5594C57.8335 68.5853 57.8994 68.64 57.9394 68.7125C57.9793 68.785 57.9903 68.87 57.9701 68.9503C57.95 69.0306 57.9002 69.1003 57.8307 69.1453L46.9912 75.1066C46.9436 75.1341 46.8895 75.1486 46.8345 75.1489Z" fill="#37474F"/>
<path d="M40.8909 80.6274C40.8317 80.627 40.7738 80.6104 40.7235 80.5794C40.6732 80.5483 40.6324 80.504 40.6056 80.4513C40.5847 80.4137 40.5715 80.3724 40.5667 80.3298C40.5619 80.2871 40.5656 80.2439 40.5776 80.2027C40.5895 80.1614 40.6095 80.1229 40.6364 80.0895C40.6632 80.056 40.6965 80.0281 40.7341 80.0075L51.5718 74.0409C51.6478 74.0014 51.7362 73.9932 51.8181 74.018C51.9001 74.0428 51.9691 74.0988 52.0103 74.1738C52.0515 74.2489 52.0617 74.3371 52.0386 74.4196C52.0156 74.502 51.9612 74.5722 51.8871 74.6151L41.0423 80.5869C40.9959 80.6127 40.9439 80.6266 40.8909 80.6274Z" fill="#37474F"/>
<path d="M48.9215 76.102C48.8989 76.1022 48.8766 76.0975 48.8559 76.0884C48.8353 76.0793 48.8168 76.0659 48.8017 76.0492C48.7724 76.0174 48.7569 75.9753 48.7585 75.932C48.7602 75.8888 48.7789 75.848 48.8105 75.8185L54.7542 70.3362C54.786 70.307 54.8281 70.2914 54.8713 70.2931C54.9146 70.2947 54.9554 70.3134 54.9849 70.345C55.0143 70.3772 55.0298 70.4196 55.0282 70.4631C55.0265 70.5066 55.0078 70.5477 54.9761 70.5775L49.0324 76.0527C49.0181 76.0678 49.0009 76.08 48.9818 76.0884C48.9628 76.0969 48.9423 76.1015 48.9215 76.102Z" fill="#37474F"/>
<path d="M43.7263 78.9405C43.7037 78.9406 43.6814 78.936 43.6607 78.9269C43.6401 78.9178 43.6216 78.9044 43.6065 78.8877C43.5918 78.872 43.5803 78.8536 43.5728 78.8335C43.5653 78.8134 43.5618 78.7919 43.5626 78.7705C43.5634 78.749 43.5685 78.7279 43.5776 78.7084C43.5866 78.6889 43.5994 78.6714 43.6153 78.657L49.559 73.18C49.5748 73.1654 49.5934 73.1541 49.6136 73.1467C49.6338 73.1393 49.6553 73.136 49.6768 73.1369C49.6983 73.1378 49.7194 73.1429 49.7389 73.1519C49.7584 73.161 49.776 73.1738 49.7906 73.1897C49.8051 73.2055 49.8164 73.2241 49.8238 73.2443C49.8312 73.2645 49.8346 73.286 49.8337 73.3075C49.8328 73.329 49.8277 73.3501 49.8186 73.3696C49.8095 73.3891 49.7967 73.4067 49.7809 73.4213L43.8372 78.8982C43.8067 78.9256 43.7672 78.9406 43.7263 78.9405Z" fill="#37474F"/>
<path d="M46.2587 77.5144C46.2362 77.5145 46.2139 77.5098 46.1932 77.5007C46.1726 77.4916 46.1541 77.4783 46.139 77.4615C46.1243 77.4459 46.1128 77.4275 46.1053 77.4073C46.0977 77.3872 46.0943 77.3658 46.0951 77.3443C46.0959 77.3229 46.101 77.3018 46.11 77.2823C46.1191 77.2628 46.1319 77.2453 46.1478 77.2308L52.0914 71.7538C52.1072 71.7394 52.1256 71.7282 52.1457 71.7208C52.1657 71.7135 52.187 71.7102 52.2084 71.7111C52.2297 71.712 52.2507 71.7171 52.27 71.7261C52.2894 71.7351 52.3068 71.7478 52.3213 71.7635C52.3357 71.7793 52.3469 71.7977 52.3543 71.8177C52.3616 71.8378 52.3649 71.8591 52.364 71.8804C52.3631 71.9018 52.358 71.9227 52.349 71.9421C52.34 71.9615 52.3273 71.9789 52.3116 71.9933L46.3697 77.4703C46.3399 77.4989 46.3 77.5147 46.2587 77.5144Z" fill="#37474F"/>
<path d="M40.8909 80.6243C40.8342 80.6243 40.7784 80.6097 40.7289 80.5821L24.0585 71.0387C23.9833 70.9958 23.9282 70.9247 23.9054 70.8411C23.8826 70.7576 23.894 70.6684 23.937 70.5932C23.9799 70.518 24.051 70.4629 24.1346 70.4402C24.2181 70.4174 24.3073 70.4287 24.3825 70.4717L40.8451 79.9041L46.2851 74.892L23.6622 61.9304C23.587 61.8874 23.532 61.8164 23.5092 61.7328C23.4864 61.6492 23.4977 61.5601 23.5407 61.4849C23.5837 61.4097 23.6548 61.3546 23.7383 61.3318C23.8219 61.309 23.9111 61.3204 23.9863 61.3633L46.9966 74.5468C47.0419 74.5722 47.0805 74.608 47.1093 74.6513C47.138 74.6946 47.156 74.744 47.1619 74.7957C47.1677 74.8473 47.1612 74.8995 47.1429 74.9481C47.1246 74.9967 47.095 75.0403 47.0565 75.0752L41.1128 80.5521C41.0506 80.6032 40.9713 80.629 40.8909 80.6243Z" fill="#455A64"/>
<path d="M25.3881 71.5772C25.3667 71.5772 25.3455 71.573 25.3257 71.5647C25.3059 71.5565 25.288 71.5444 25.2729 71.5292C25.2579 71.5139 25.246 71.4959 25.2379 71.476C25.2299 71.4561 25.2259 71.4349 25.2261 71.4135V62.5323C25.2237 62.5095 25.2262 62.4864 25.2333 62.4646C25.2404 62.4428 25.252 62.4227 25.2673 62.4057C25.2827 62.3887 25.3015 62.375 25.3224 62.3657C25.3434 62.3564 25.3661 62.3516 25.389 62.3516C25.4119 62.3516 25.4346 62.3564 25.4556 62.3657C25.4765 62.375 25.4953 62.3887 25.5107 62.4057C25.526 62.4227 25.5376 62.4428 25.5447 62.4646C25.5518 62.4864 25.5543 62.5095 25.5519 62.5323V71.4135C25.5521 71.435 25.5481 71.4564 25.5399 71.4764C25.5318 71.4964 25.5197 71.5145 25.5045 71.5298C25.4892 71.5451 25.4711 71.5571 25.4511 71.5653C25.4311 71.5734 25.4097 71.5775 25.3881 71.5772Z" fill="#455A64"/>
<path d="M26.7247 72.3421C26.7032 72.3421 26.6819 72.3379 26.662 72.3296C26.6422 72.3214 26.6241 72.3093 26.6089 72.2941C26.5937 72.2789 26.5816 72.2609 26.5734 72.241C26.5652 72.2211 26.5609 72.1998 26.5609 72.1783V63.2901C26.5586 63.2673 26.561 63.2442 26.5681 63.2224C26.5752 63.2006 26.5868 63.1805 26.6022 63.1635C26.6175 63.1465 26.6363 63.1328 26.6573 63.1235C26.6782 63.1142 26.7009 63.1094 26.7238 63.1094C26.7468 63.1094 26.7695 63.1142 26.7904 63.1235C26.8114 63.1328 26.8301 63.1465 26.8455 63.1635C26.8609 63.1805 26.8725 63.2006 26.8796 63.2224C26.8867 63.2442 26.8891 63.2673 26.8867 63.2901V72.1713C26.8877 72.1932 26.8842 72.2151 26.8765 72.2357C26.8688 72.2563 26.8571 72.2751 26.8419 72.291C26.8268 72.307 26.8087 72.3197 26.7885 72.3285C26.7684 72.3373 26.7467 72.3419 26.7247 72.3421Z" fill="#455A64"/>
<path d="M28.0597 73.1033C28.0381 73.1035 28.0167 73.0994 27.9967 73.0913C27.9767 73.0831 27.9586 73.0711 27.9433 73.0558C27.9281 73.0405 27.916 73.0224 27.9079 73.0024C27.8997 72.9824 27.8956 72.961 27.8959 72.9395V64.0583C27.8959 64.0149 27.9131 63.9732 27.9439 63.9425C27.9746 63.9118 28.0162 63.8945 28.0597 63.8945C28.1031 63.8945 28.1448 63.9118 28.1755 63.9425C28.2062 63.9732 28.2234 64.0149 28.2234 64.0583V72.9395C28.2234 72.9829 28.2062 73.0246 28.1755 73.0553C28.1448 73.086 28.1031 73.1033 28.0597 73.1033Z" fill="#455A64"/>
<path d="M29.3945 73.865C29.3511 73.865 29.3094 73.8477 29.2787 73.817C29.248 73.7863 29.2307 73.7446 29.2307 73.7012V64.82C29.2307 64.7766 29.248 64.7349 29.2787 64.7042C29.3094 64.6735 29.3511 64.6562 29.3945 64.6562C29.4379 64.6562 29.4796 64.6735 29.5103 64.7042C29.541 64.7349 29.5583 64.7766 29.5583 64.82V73.7012C29.5583 73.7446 29.541 73.7863 29.5103 73.817C29.4796 73.8477 29.4379 73.865 29.3945 73.865Z" fill="#455A64"/>
<path d="M30.7295 74.6284C30.686 74.6284 30.6444 74.6112 30.6136 74.5805C30.5829 74.5498 30.5657 74.5081 30.5657 74.4647V65.5817C30.5657 65.5383 30.5829 65.4967 30.6136 65.4659C30.6444 65.4352 30.686 65.418 30.7295 65.418C30.7729 65.418 30.8146 65.4352 30.8453 65.4659C30.876 65.4967 30.8932 65.5383 30.8932 65.5817V74.4629C30.8935 74.4846 30.8894 74.506 30.8813 74.5261C30.8732 74.5462 30.8611 74.5645 30.8459 74.5799C30.8307 74.5953 30.8125 74.6075 30.7925 74.6158C30.7726 74.6242 30.7511 74.6284 30.7295 74.6284Z" fill="#455A64"/>
<path d="M32.0609 75.3884C32.0174 75.3884 31.9758 75.3712 31.9451 75.3404C31.9143 75.3097 31.8971 75.2681 31.8971 75.2246V66.3435C31.8971 66.3 31.9143 66.2584 31.9451 66.2277C31.9758 66.1969 32.0174 66.1797 32.0609 66.1797C32.1043 66.1797 32.146 66.1969 32.1767 66.2277C32.2074 66.2584 32.2247 66.3 32.2247 66.3435V75.2246C32.2247 75.2681 32.2074 75.3097 32.1767 75.3404C32.146 75.3712 32.1043 75.3884 32.0609 75.3884Z" fill="#455A64"/>
<path d="M33.3993 76.1466C33.3558 76.1466 33.3142 76.1293 33.2834 76.0986C33.2527 76.0679 33.2355 76.0263 33.2355 75.9828V67.1052C33.2355 67.0617 33.2527 67.0201 33.2834 66.9894C33.3142 66.9587 33.3558 66.9414 33.3993 66.9414C33.4427 66.9414 33.4844 66.9587 33.5151 66.9894C33.5458 67.0201 33.563 67.0617 33.563 67.1052V75.9863C33.5621 76.0292 33.5445 76.0699 33.5138 76.0999C33.4832 76.1298 33.4421 76.1466 33.3993 76.1466Z" fill="#455A64"/>
<path d="M34.7341 76.9101C34.6907 76.9101 34.649 76.8928 34.6183 76.8621C34.5876 76.8314 34.5703 76.7897 34.5703 76.7463V67.8669C34.5703 67.8235 34.5876 67.7818 34.6183 67.7511C34.649 67.7204 34.6907 67.7031 34.7341 67.7031C34.7775 67.7031 34.8192 67.7204 34.8499 67.7511C34.8806 67.7818 34.8979 67.8235 34.8979 67.8669V76.7481C34.8974 76.7912 34.88 76.8324 34.8493 76.8627C34.8186 76.8931 34.7772 76.9101 34.7341 76.9101Z" fill="#455A64"/>
<path d="M36.0691 77.6736C36.0256 77.6736 35.984 77.6563 35.9532 77.6256C35.9225 77.5949 35.9053 77.5532 35.9053 77.5098V68.6286C35.9053 68.5852 35.9225 68.5435 35.9532 68.5128C35.984 68.4821 36.0256 68.4648 36.0691 68.4648C36.1125 68.4648 36.1541 68.4821 36.1849 68.5128C36.2156 68.5435 36.2328 68.5852 36.2328 68.6286V77.5098C36.2328 77.5532 36.2156 77.5949 36.1849 77.6256C36.1541 77.6563 36.1125 77.6736 36.0691 77.6736Z" fill="#455A64"/>
<path d="M37.4039 78.4392C37.3605 78.4392 37.3188 78.4219 37.2881 78.3912C37.2574 78.3605 37.2401 78.3188 37.2401 78.2754V69.3943C37.2401 69.3508 37.2574 69.3092 37.2881 69.2784C37.3188 69.2477 37.3605 69.2305 37.4039 69.2305C37.4473 69.2305 37.489 69.2477 37.5197 69.2784C37.5504 69.3092 37.5677 69.3508 37.5677 69.3943V78.2754C37.5677 78.3188 37.5504 78.3605 37.5197 78.3912C37.489 78.4219 37.4473 78.4392 37.4039 78.4392Z" fill="#455A64"/>
<path d="M38.7389 79.1978C38.6954 79.1978 38.6538 79.1805 38.623 79.1498C38.5923 79.1191 38.5751 79.0774 38.5751 79.034V70.1599C38.5751 70.1164 38.5923 70.0748 38.623 70.0441C38.6538 70.0133 38.6954 69.9961 38.7389 69.9961C38.7823 69.9961 38.8239 70.0133 38.8547 70.0441C38.8854 70.0748 38.9026 70.1164 38.9026 70.1599V79.041C38.9013 79.0834 38.8833 79.1235 38.8527 79.1528C38.8221 79.1821 38.7812 79.1983 38.7389 79.1978Z" fill="#455A64"/>
<path d="M40.0738 79.9561C40.0307 79.9557 39.9895 79.9382 39.9591 79.9076C39.9288 79.8769 39.9118 79.8355 39.9118 79.7924V70.9112C39.9094 70.8884 39.9118 70.8653 39.9189 70.8435C39.926 70.8217 39.9377 70.8016 39.953 70.7846C39.9684 70.7676 39.9871 70.7539 40.0081 70.7446C40.029 70.7353 40.0517 70.7305 40.0747 70.7305C40.0976 70.7305 40.1203 70.7353 40.1412 70.7446C40.1622 70.7539 40.181 70.7676 40.1963 70.7846C40.2117 70.8016 40.2233 70.8217 40.2304 70.8435C40.2375 70.8653 40.2399 70.8884 40.2376 70.9112V79.7924C40.2376 79.8358 40.2203 79.8775 40.1896 79.9082C40.1589 79.9389 40.1172 79.9561 40.0738 79.9561Z" fill="#455A64"/>
<path d="M41.4086 79.961C41.3655 79.9605 41.3243 79.9431 41.294 79.9124C41.2636 79.8817 41.2466 79.8403 41.2466 79.7972V71.6768C41.2442 71.654 41.2467 71.631 41.2538 71.6091C41.2609 71.5873 41.2725 71.5673 41.2878 71.5502C41.3032 71.5332 41.322 71.5196 41.3429 71.5102C41.3639 71.5009 41.3866 71.4961 41.4095 71.4961C41.4324 71.4961 41.4551 71.5009 41.4761 71.5102C41.497 71.5196 41.5158 71.5332 41.5312 71.5502C41.5465 71.5673 41.5581 71.5873 41.5652 71.6091C41.5723 71.631 41.5748 71.654 41.5724 71.6768V79.7972C41.5724 79.8406 41.5552 79.8823 41.5244 79.913C41.4937 79.9437 41.4521 79.961 41.4086 79.961Z" fill="#455A64"/>
<path d="M42.7453 78.8154C42.7239 78.8157 42.7027 78.8117 42.6828 78.8036C42.6629 78.7956 42.6449 78.7837 42.6296 78.7686C42.6144 78.7535 42.6023 78.7356 42.5941 78.7158C42.5858 78.6961 42.5816 78.6749 42.5816 78.6534V72.4386C42.5792 72.4157 42.5816 72.3927 42.5887 72.3709C42.5958 72.3491 42.6075 72.329 42.6228 72.3119C42.6382 72.2949 42.6569 72.2813 42.6779 72.272C42.6988 72.2626 42.7215 72.2578 42.7445 72.2578C42.7674 72.2578 42.7901 72.2626 42.811 72.272C42.832 72.2813 42.8508 72.2949 42.8661 72.3119C42.8815 72.329 42.8931 72.3491 42.9002 72.3709C42.9073 72.3927 42.9097 72.4157 42.9074 72.4386V78.6534C42.9074 78.6964 42.8903 78.7376 42.8599 78.768C42.8295 78.7984 42.7883 78.8154 42.7453 78.8154Z" fill="#455A64"/>
<path d="M44.0802 77.4846C44.0368 77.4846 43.9951 77.4674 43.9644 77.4366C43.9337 77.4059 43.9164 77.3643 43.9164 77.3208V73.1964C43.914 73.1736 43.9165 73.1505 43.9236 73.1287C43.9307 73.1069 43.9423 73.0868 43.9576 73.0698C43.973 73.0527 43.9918 73.0391 44.0127 73.0298C44.0337 73.0204 44.0564 73.0156 44.0793 73.0156C44.1022 73.0156 44.1249 73.0204 44.1459 73.0298C44.1668 73.0391 44.1856 73.0527 44.201 73.0698C44.2163 73.0868 44.2279 73.1069 44.235 73.1287C44.2421 73.1505 44.2446 73.1736 44.2422 73.1964V77.3208C44.2422 77.364 44.2252 77.4054 44.1949 77.436C44.1645 77.4667 44.1233 77.4841 44.0802 77.4846Z" fill="#455A64"/>
<path d="M45.4151 76.2835C45.3717 76.2835 45.33 76.2663 45.2993 76.2356C45.2686 76.2048 45.2513 76.1632 45.2513 76.1197V73.9607C45.2513 73.9172 45.2686 73.8756 45.2993 73.8448C45.33 73.8141 45.3717 73.7969 45.4151 73.7969C45.4586 73.7969 45.5002 73.8141 45.5309 73.8448C45.5617 73.8756 45.5789 73.9172 45.5789 73.9607V76.1197C45.5789 76.1632 45.5617 76.2048 45.5309 76.2356C45.5002 76.2663 45.4586 76.2835 45.4151 76.2835Z" fill="#455A64"/>
<path d="M45.4222 76.4366C45.3936 76.437 45.3654 76.4291 45.3412 76.4137L23.6165 63.9681C23.596 63.9585 23.5778 63.9447 23.563 63.9277C23.5481 63.9107 23.5369 63.8908 23.5302 63.8693C23.5234 63.8477 23.5211 63.825 23.5235 63.8026C23.5259 63.7801 23.533 63.7584 23.5442 63.7388C23.5554 63.7192 23.5705 63.7021 23.5886 63.6886C23.6068 63.6751 23.6275 63.6655 23.6495 63.6605C23.6715 63.6554 23.6943 63.6549 23.7165 63.659C23.7387 63.6632 23.7598 63.6719 23.7785 63.6846L45.5032 76.1302C45.5408 76.1519 45.5682 76.1877 45.5795 76.2296C45.5907 76.2716 45.5848 76.3163 45.5631 76.3539C45.5491 76.3789 45.5286 76.3998 45.5039 76.4143C45.4791 76.4289 45.4509 76.4366 45.4222 76.4366Z" fill="#455A64"/>
<path d="M43.883 77.7761C43.8547 77.7757 43.8269 77.7685 43.802 77.755L23.8683 66.3344C23.8342 66.3112 23.8101 66.276 23.8008 66.2358C23.7916 66.1957 23.7978 66.1535 23.8182 66.1177C23.8387 66.0819 23.8719 66.0551 23.9112 66.0427C23.9505 66.0303 23.993 66.0332 24.0303 66.0508L43.964 77.4715C43.9962 77.4887 44.0215 77.5163 44.036 77.5498C44.0505 77.5832 44.0533 77.6206 44.0439 77.6558C44.0345 77.691 44.0136 77.7221 43.9844 77.7439C43.9552 77.7657 43.9195 77.7771 43.883 77.7761Z" fill="#455A64"/>
<path d="M42.4513 79.181C42.4227 79.1809 42.3947 79.173 42.3702 79.1581L23.9968 68.6286C23.9781 68.6182 23.9617 68.6041 23.9485 68.5873C23.9352 68.5705 23.9255 68.5512 23.9197 68.5305C23.914 68.5099 23.9124 68.4883 23.9151 68.4671C23.9177 68.4458 23.9246 68.4253 23.9352 68.4067C23.957 68.3692 23.9926 68.3417 24.0344 68.3302C24.0763 68.3186 24.1209 68.324 24.1589 68.3451L42.5393 78.8746C42.571 78.8925 42.5959 78.9204 42.6099 78.954C42.624 78.9876 42.6265 79.0249 42.617 79.06C42.6075 79.0951 42.5866 79.1261 42.5575 79.148C42.5285 79.1699 42.4929 79.1816 42.4565 79.181H42.4513Z" fill="#455A64"/>
<path d="M22.602 55.1909C22.4936 55.1905 22.3883 55.1543 22.3027 55.0878C22.217 55.0213 22.1558 54.9284 22.1284 54.8235C22.1011 54.7186 22.1092 54.6076 22.1516 54.5077C22.1939 54.4079 22.2681 54.3249 22.3625 54.2717L30.4388 49.7439C30.5518 49.687 30.6823 49.6759 30.8032 49.7128C30.9242 49.7497 31.0263 49.8319 31.0882 49.9421C31.1501 50.0524 31.1672 50.1823 31.1358 50.3048C31.1044 50.4273 31.0269 50.5329 30.9196 50.5998L22.8415 55.1275C22.7684 55.1687 22.6859 55.1905 22.602 55.1909Z" fill="#0071CE"/>
<path d="M21.6704 55.5509C21.5981 55.5507 21.5278 55.5266 21.4706 55.4824C21.4134 55.4381 21.3725 55.3761 21.3542 55.3062C21.3359 55.2362 21.3412 55.1621 21.3695 55.0955C21.3977 55.0289 21.4471 54.9735 21.5101 54.938L22.3079 54.4907C22.3455 54.4662 22.3878 54.4496 22.432 54.4421C22.4763 54.4346 22.5216 54.4363 22.5652 54.447C22.6088 54.4578 22.6498 54.4774 22.6855 54.5046C22.7212 54.5318 22.7509 54.5661 22.7728 54.6053C22.7947 54.6445 22.8083 54.6878 22.8128 54.7325C22.8172 54.7772 22.8125 54.8223 22.7988 54.865C22.7851 54.9078 22.7627 54.9473 22.7331 54.981C22.7035 55.0148 22.6673 55.0421 22.6267 55.0613L21.8306 55.5086C21.7817 55.536 21.7265 55.5506 21.6704 55.5509Z" fill="#455A64"/>
<path d="M32.8761 49.889C32.6613 49.4364 32.3478 48.7161 31.9076 48.4801L29.6375 47.0871L24.791 43.8203L21.9609 45.1605C23.4438 46.7754 28.2427 48.5066 28.2427 48.5066C28.2954 48.6521 28.3614 48.7924 28.44 48.9257H28.4259C28.4593 49.0014 29.5495 51.4458 29.9105 51.4088C30.069 51.3947 30.0972 51.1817 30.0866 50.9474L29.8911 50.0017C30.1324 50.0722 30.3525 50.1144 30.5128 50.1567C30.7523 50.2201 30.9883 50.685 31.1133 50.8964C31.1449 50.9509 31.187 50.9985 31.2374 51.0364C31.2877 51.0743 31.3451 51.1017 31.4062 51.1169C31.4673 51.1322 31.5308 51.1351 31.5931 51.1253C31.6553 51.1155 31.7149 51.0934 31.7684 51.0601L32.7159 50.4755C32.7844 50.4325 32.84 50.3719 32.8768 50.3C32.9137 50.2281 32.9305 50.1475 32.9255 50.0669C32.9225 50.0047 32.9057 49.9439 32.8761 49.889Z" fill="#FFA8A7"/>
<path d="M17.8576 35.1797L16.0102 43.1645C15.8923 43.6792 15.959 44.219 16.1987 44.6896C16.338 44.9612 16.5314 45.2015 16.767 45.3956C17.0026 45.5898 17.2753 45.7338 17.5686 45.8187C17.8618 45.9036 18.1693 45.9277 18.4722 45.8895C18.7751 45.8513 19.0669 45.7516 19.3299 45.5965L23.4896 43.1398V35.1797H17.8576Z" fill="#263238"/>
<path d="M18.6765 41.4801L22.9031 39.756C23.2114 39.6283 23.5465 39.5787 23.8785 39.6113C24.2106 39.644 24.5295 39.758 24.8071 39.9432C25.0846 40.1285 25.3122 40.3793 25.4698 40.6735C25.6273 40.9676 25.7099 41.2961 25.7103 41.6298V43.8663L19.3123 45.8616L18.6765 41.4801Z" fill="#FFA8A7"/>
<path d="M22.5897 39.9808C22.5897 39.9808 23.9264 40.8156 24.1078 42.2016C24.1078 42.2016 23.3822 43.3621 21.0787 43.2952C21.0787 43.2952 20.5504 41.4531 19.6452 41.0868L18.6766 41.4795L18.6044 46.1077L19.263 47.0516C19.3427 47.1651 19.3902 47.298 19.4005 47.4363C19.4107 47.5746 19.3833 47.7131 19.3211 47.837L18.7734 48.9342C18.7734 48.9342 19.7614 50.6319 22.3432 50.6319C23.2951 50.6112 24.2078 50.2487 24.9143 49.6105L24.8404 46.6782C24.8404 46.6782 28.1107 44.4698 23.3787 39.6797L22.5897 39.9808Z" fill="#0071CE"/>
<path d="M19.0288 33.4628C19.0288 33.4628 18.784 32.5312 18.6184 32.5471C18.4529 32.5629 18.4723 33.3801 18.4723 33.3801C18.4723 33.3801 17.6974 33.3114 17.7784 33.5333C17.8594 33.7552 18.7628 33.9841 18.7628 33.9841L19.0288 33.4628Z" fill="#263238"/>
<path d="M17.8243 36.6977C18.1765 39.3288 20.3937 39.3288 20.3937 39.3288L25.0412 37.2842C25.3012 37.0063 25.4621 36.6503 25.4991 36.2716C25.5407 35.9831 25.5407 35.6901 25.4991 35.4016V35.3928C25.3494 34.2868 24.5234 33.1034 22.7201 32.7318C22.3252 32.6532 21.9234 32.6148 21.5208 32.6173C21.3267 32.6167 21.1327 32.6261 20.9396 32.6455C19.5308 32.7828 18.5569 33.438 18.0902 34.4541C17.9855 34.6839 17.9075 34.925 17.8577 35.1726C17.761 35.6755 17.7497 36.1911 17.8243 36.6977Z" fill="#263238"/>
<path d="M20.9167 41.7932C21.0751 41.9165 21.2649 41.9928 21.4645 42.0136C21.6642 42.0343 21.8656 41.9986 22.046 41.9105C22.2263 41.8225 22.3783 41.6856 22.4847 41.5154C22.5911 41.3452 22.6477 41.1486 22.6479 40.9479V37.5508H20.3937V40.7207C20.3937 40.9275 20.4408 41.1315 20.5314 41.3173C20.6221 41.5032 20.7538 41.6659 20.9167 41.7932Z" fill="#FFA8A7"/>
<path d="M22.6479 40.52C22.1464 40.3342 21.688 40.0485 21.3005 39.68C20.913 39.3116 20.6045 38.8682 20.3937 38.3767V37.5508H22.6479V40.52Z" fill="#F28F8F"/>
<path d="M22.16 33.4062C23.0159 33.4062 24.8316 33.8835 25.0429 36.1183C25.2543 38.3531 25.0429 40.0896 23.8947 40.2569C22.7465 40.4242 20.0626 39.5877 19.7033 36.6924C19.3441 33.7972 21.3271 33.4062 22.16 33.4062Z" fill="#FFA8A7"/>
<path d="M23.5055 37.0664V38.3855L24.2786 38.1477L23.5055 37.0664Z" fill="#F28F8F"/>
<path d="M22.3749 37.295C22.3745 37.3484 22.39 37.4007 22.4194 37.4452C22.4488 37.4897 22.4908 37.5246 22.54 37.5452C22.5892 37.5659 22.6434 37.5715 22.6958 37.5613C22.7482 37.5511 22.7964 37.5256 22.8342 37.4879C22.8721 37.4503 22.8979 37.4023 22.9085 37.35C22.919 37.2977 22.9138 37.2434 22.8934 37.1941C22.8731 37.1448 22.8386 37.1026 22.7942 37.0729C22.7499 37.0432 22.6977 37.0273 22.6443 37.0273C22.5732 37.0273 22.5049 37.0555 22.4544 37.1056C22.4039 37.1558 22.3753 37.2239 22.3749 37.295Z" fill="#263238"/>
<path d="M24.1448 37.1054C24.1448 37.1587 24.1606 37.2108 24.1902 37.2551C24.2198 37.2994 24.2619 37.3339 24.3111 37.3543C24.3603 37.3747 24.4145 37.38 24.4668 37.3697C24.5191 37.3593 24.5671 37.3336 24.6047 37.2959C24.6424 37.2582 24.6681 37.2102 24.6785 37.158C24.6889 37.1057 24.6835 37.0515 24.6632 37.0023C24.6428 36.953 24.6082 36.911 24.5639 36.8813C24.5196 36.8517 24.4675 36.8359 24.4142 36.8359C24.3428 36.8359 24.2742 36.8643 24.2237 36.9149C24.1732 36.9654 24.1448 37.0339 24.1448 37.1054Z" fill="#263238"/>
<path d="M24.7417 36.5493L24.2134 36.2376C24.2134 36.2376 24.4141 36.028 24.6149 36.1531C24.6735 36.1986 24.717 36.2608 24.7397 36.3316C24.7623 36.4023 24.763 36.4782 24.7417 36.5493Z" fill="#263238"/>
<path d="M23.87 38.9203C23.6138 38.9385 23.359 38.8703 23.1462 38.7266C23.1462 38.7266 23.0969 39.107 23.4156 39.1809C23.5098 39.1962 23.6063 39.1786 23.689 39.1312C23.7718 39.0837 23.8357 39.0093 23.87 38.9203Z" fill="#F28F8F"/>
<path d="M24.3279 34.1684C24.3279 34.1684 24.0056 37.2555 19.8072 37.3524C19.8072 37.3524 18.5392 34.2846 21.0399 33.2878C23.5407 32.291 24.3279 34.1684 24.3279 34.1684Z" fill="#263238"/>
<path d="M20.5099 37.4648C20.7793 37.9333 20.7106 38.5003 20.3338 38.6976C20.0925 38.8226 19.3775 38.5532 19.101 38.0847C18.8245 37.6163 18.983 37.2165 19.3493 37.0052C19.7156 36.7939 20.2404 36.9981 20.5099 37.4648Z" fill="#FFA8A7"/>
<path d="M19.2982 44.5744L18.6096 46.1048C18.8003 46.1058 18.989 46.0656 19.1626 45.9868L19.4673 44.6307C19.4715 44.6093 19.4678 44.587 19.4568 44.5681C19.4458 44.5492 19.4283 44.535 19.4076 44.528C19.3868 44.5211 19.3643 44.522 19.3441 44.5306C19.324 44.5391 19.3077 44.5547 19.2982 44.5744Z" fill="#F28F8F"/>
<path d="M25.8847 54.3417C25.6982 53.8784 25.3743 53.4832 24.9566 53.2093L24.5586 52.9487C24.5586 52.9487 25.6469 53.1988 25.661 52.8325C25.6751 52.4662 23.0793 51.5134 23.0793 51.5134L17.8858 47.5739C17.8858 47.5739 18.2521 46.9751 18.6853 46.1034C19.4268 46.0628 19.86 45.4606 20.1048 44.8706C20.3226 44.3577 20.3852 43.7921 20.2847 43.244C20.1842 42.6958 19.9251 42.1892 19.5395 41.7869C19.4886 41.7332 19.4345 41.6826 19.3775 41.6355C19.2639 41.5175 19.1288 41.4225 18.9794 41.3555L18.6272 41.4981C17.7578 41.8481 17.051 42.5109 16.646 43.3561C15.9803 44.7473 15.0276 46.8782 14.8849 48.0282C14.663 49.814 21.3481 52.6458 21.3481 52.6458C21.7532 54.0547 22.9736 54.5707 23.509 54.7485C23.6248 54.7865 23.732 54.847 23.8245 54.9265C23.917 55.006 23.9929 55.1029 24.0478 55.2117C24.0758 55.2681 24.1148 55.3183 24.1625 55.3594C24.2102 55.4004 24.2657 55.4315 24.3257 55.4507C24.3856 55.4699 24.4488 55.4769 24.5115 55.4713C24.5742 55.4656 24.6351 55.4474 24.6906 55.4177L25.6751 54.8894C25.7704 54.8389 25.8441 54.7556 25.8827 54.6549C25.9212 54.5542 25.9219 54.4429 25.8847 54.3417Z" fill="#FFA8A7"/>
<path d="M19.1627 45.9869L19.4673 44.6309C19.4702 44.6186 19.4703 44.606 19.4679 44.5937C19.4654 44.5814 19.4603 44.5698 19.453 44.5596C19.4456 44.5494 19.4362 44.5409 19.4253 44.5347C19.4144 44.5285 19.4023 44.5246 19.3899 44.5234C19.168 45.094 18.9196 45.6347 18.6854 46.1084C18.8508 46.0985 19.0127 46.0572 19.1627 45.9869Z" fill="#F28F8F"/>
</svg>
