<svg width="69" height="111" viewBox="0 0 69 111" fill="none" xmlns="http://www.w3.org/2000/svg">
<g clip-path="url(#clip0_436_38552)">
<path d="M0 55.5C0 24.8482 24.8482 0 55.5 0H61C65.4183 0 69 3.58172 69 8V103C69 107.418 65.4183 111 61 111H55.5C24.8482 111 0 86.1518 0 55.5Z" fill="#D0EBFA"/>
<g filter="url(#filter0_d_436_38552)">
<path d="M28.8575 126.743C42.3097 126.743 53.2149 120.705 53.2149 113.257C53.2149 105.808 42.3097 99.7695 28.8575 99.7695C15.4052 99.7695 4.5 105.808 4.5 113.257C4.5 120.705 15.4052 126.743 28.8575 126.743Z" fill="#E0E0E0" fill-opacity="0.48"/>
<path d="M13.9645 135.51L52.1352 157.541C52.3306 157.64 52.5462 157.691 52.7649 157.691C52.9835 157.691 53.1991 157.64 53.3945 157.541L120.895 118.568C120.97 118.542 121.036 118.493 121.082 118.428C121.129 118.363 121.154 118.284 121.154 118.204C121.154 118.124 121.129 118.046 121.082 117.981C121.036 117.916 120.97 117.867 120.895 117.841L82.7239 95.8094C82.5291 95.7113 82.314 95.6602 82.0959 95.6602C81.8778 95.6602 81.6627 95.7113 81.4679 95.8094L13.9645 134.783C13.8889 134.809 13.8233 134.858 13.7769 134.923C13.7305 134.988 13.7056 135.066 13.7056 135.146C13.7056 135.226 13.7305 135.304 13.7769 135.37C13.8233 135.435 13.8889 135.484 13.9645 135.51Z" fill="#E0E0E0" fill-opacity="0.48"/>
<path d="M38.7042 125.068C38.6328 125.068 38.5621 125.054 38.4962 125.026C38.4303 124.999 38.3704 124.959 38.3201 124.908C38.2697 124.858 38.2299 124.798 38.2029 124.731C38.1759 124.665 38.1622 124.595 38.1626 124.523V89.69C38.1626 89.5464 38.2197 89.4086 38.3212 89.3071C38.4228 89.2055 38.5605 89.1484 38.7042 89.1484C38.8478 89.1484 38.9856 89.2055 39.0871 89.3071C39.1887 89.4086 39.2457 89.5464 39.2457 89.69V124.523C39.2457 124.667 39.1888 124.805 39.0873 124.907C38.9858 125.009 38.8481 125.067 38.7042 125.068Z" fill="#455A64"/>
<path d="M60.2565 112.388C60.1496 112.389 60.0448 112.359 59.9549 112.301C59.8651 112.243 59.7941 112.16 59.7509 112.062L49.0696 85.0261C49.0168 84.8924 49.0193 84.7432 49.0765 84.6114C49.1337 84.4795 49.241 84.3758 49.3746 84.323C49.5083 84.2702 49.6575 84.2727 49.7893 84.3299C49.9212 84.3871 50.0249 84.4944 50.0777 84.6281L60.759 111.648C60.7914 111.73 60.8033 111.818 60.7936 111.906C60.7839 111.994 60.753 112.078 60.7035 112.151C60.6539 112.224 60.5873 112.284 60.5095 112.325C60.4316 112.366 60.3448 112.388 60.2565 112.388Z" fill="#455A64"/>
<path d="M58.9715 109.143C58.8981 109.143 58.8255 109.128 58.7582 109.099C58.6909 109.07 58.6302 109.027 58.58 108.973L38.7019 87.9405L18.8629 108.882C18.8149 108.937 18.7563 108.981 18.6907 109.013C18.625 109.045 18.5537 109.063 18.4809 109.066C18.4081 109.07 18.3354 109.058 18.2671 109.033C18.1988 109.007 18.1364 108.969 18.0834 108.919C18.0305 108.868 17.9882 108.808 17.9591 108.741C17.93 108.675 17.9147 108.603 17.9141 108.53C17.9134 108.457 17.9275 108.385 17.9554 108.318C17.9834 108.25 18.0246 108.189 18.0766 108.138L38.3038 86.779C38.3546 86.7253 38.4158 86.6826 38.4837 86.6534C38.5516 86.6242 38.6247 86.6092 38.6986 86.6094C38.7719 86.6097 38.8445 86.6249 38.9118 86.654C38.979 86.6832 39.0397 86.7257 39.0901 86.779L59.3597 108.23C59.4085 108.281 59.4467 108.342 59.472 108.408C59.4973 108.474 59.5092 108.545 59.5071 108.616C59.505 108.687 59.4889 108.757 59.4596 108.822C59.4304 108.886 59.3887 108.945 59.3369 108.993C59.2388 109.088 59.108 109.142 58.9715 109.143Z" fill="#455A64"/>
<path d="M17.1537 112.389C17.0855 112.389 17.0179 112.376 16.9547 112.35C16.8883 112.324 16.8276 112.286 16.7761 112.236C16.7246 112.187 16.6835 112.128 16.6549 112.063C16.6264 111.998 16.6111 111.928 16.6099 111.856C16.6088 111.785 16.6217 111.715 16.648 111.648L27.3293 84.6124C27.3821 84.4788 27.4858 84.3715 27.6177 84.3143C27.7495 84.2571 27.8987 84.2546 28.0324 84.3074C28.166 84.3602 28.2733 84.4639 28.3305 84.5957C28.3877 84.7276 28.3902 84.8768 28.3374 85.0105L17.6561 112.046C17.6163 112.147 17.5471 112.234 17.4575 112.295C17.368 112.356 17.2621 112.389 17.1537 112.389Z" fill="#455A64"/>
<path d="M59.5207 108.305L60.9334 112.03C60.9363 112.062 60.9363 112.094 60.9334 112.125V112.194C60.8927 112.294 60.8176 112.378 60.7213 112.428C60.5879 112.496 60.4403 112.531 60.2907 112.531C60.141 112.531 59.9935 112.496 59.86 112.428C59.7857 112.391 59.7268 112.329 59.6937 112.252V112.203L58.3887 108.709L59.5207 108.305Z" fill="#0071CE"/>
<path d="M17.8873 108.305L16.4746 112.03C16.4716 112.062 16.4716 112.094 16.4746 112.125C16.4714 112.148 16.4714 112.171 16.4746 112.194C16.5129 112.296 16.5887 112.38 16.6867 112.428C16.8196 112.496 16.9666 112.531 17.1157 112.531C17.2648 112.531 17.4118 112.496 17.5447 112.428C17.6207 112.393 17.6803 112.33 17.7111 112.252V112.203L19.0356 108.709L17.8873 108.305Z" fill="#0071CE"/>
<path d="M59.0985 86.2786C59.0985 85.4597 58.3807 84.5919 56.867 83.6099C54.0711 81.7959 47.8267 78.1551 43.915 75.9855C43.9136 75.9777 43.9096 75.9706 43.9037 75.9653C43.8978 75.96 43.8903 75.9568 43.8824 75.9562C40.8712 74.1292 38.0622 65.4282 35.9808 58.8185C35.2695 56.5642 34.4017 55.2885 33.3708 54.6882C33.1261 54.548 32.2224 54.0521 32.0201 53.9313C29.9779 52.7047 27.2929 54.176 23.9521 56.0063C20.8724 57.6897 18.4679 59.8462 17.9851 65.5718C17.6882 69.0561 17.9688 75.7147 18.6767 80.7617C19.7011 89.1952 20.9604 89.2082 22.7841 90.6176C25.9291 93.0514 33.0087 96.4574 36.0003 97.6188C41.4095 99.7459 45.8334 96.4639 49.1284 94.836C52.1494 93.3103 55.0658 91.5861 57.8588 89.6748C58.6842 89.0777 59.1115 88.4709 59.1017 87.8315C59.092 87.5803 59.0985 86.5428 59.0985 86.2786Z" fill="#0071CE"/>
<path opacity="0.25" d="M59.0985 86.2786C59.0985 85.4597 58.3807 84.5919 56.867 83.6099C54.0711 81.7959 47.8267 78.1551 43.915 75.9855C43.9136 75.9777 43.9096 75.9706 43.9037 75.9653C43.8978 75.96 43.8903 75.9568 43.8824 75.9562C40.8712 74.1292 38.0622 65.4282 35.9808 58.8185C35.2695 56.5642 34.4017 55.2885 33.3708 54.6882C33.1261 54.548 32.2224 54.0521 32.0201 53.9313C29.9779 52.7047 27.2929 54.176 23.9521 56.0063C20.8724 57.6897 18.4679 59.8462 17.9851 65.5718C17.6882 69.0561 17.9688 75.7147 18.6767 80.7617C19.7011 89.1952 20.9604 89.2082 22.7841 90.6176C25.9291 93.0514 33.0087 96.4574 36.0003 97.6188C41.4095 99.7459 45.8334 96.4639 49.1284 94.836C52.1494 93.3103 55.0658 91.5861 57.8588 89.6748C58.6842 89.0777 59.1115 88.4709 59.1017 87.8315C59.092 87.5803 59.0985 86.5428 59.0985 86.2786Z" fill="black"/>
<path d="M33.2489 54.6197C31.2229 53.5562 28.5901 55.0014 25.3342 56.786C23.2495 57.9311 21.4715 59.285 20.3916 61.82L19.0344 61.0239C20.1143 58.4988 21.8891 57.1449 23.9673 56.0063C27.3113 54.176 29.993 52.7047 32.0386 53.9313L33.2489 54.6197Z" fill="#0071CE"/>
<path d="M56.8802 83.6093C55.0663 82.4316 55.0271 82.1314 43.8304 75.9295C43.849 75.934 43.8667 75.9417 43.8826 75.9524C40.8746 74.1189 38.0689 65.4244 35.9875 58.818C33.8701 52.1039 30.3434 54.0483 25.3421 56.7887C22.2558 58.4689 19.8514 60.6286 19.362 66.3542C18.8727 72.0798 19.933 86.2552 21.8872 87.9843C24.0175 90.3398 32.5684 94.718 35.9842 96.0621C41.3934 98.1892 45.8172 94.9072 49.1123 93.2792C52.139 91.7509 55.061 90.0234 57.859 88.1083C59.7283 86.7446 59.5554 85.3515 56.8802 83.6093Z" fill="#0071CE"/>
<g opacity="0.1">
<path d="M25.3353 56.7887C30.3367 54.0483 33.8634 52.1039 35.9807 58.818C38.0622 65.4277 40.8744 74.1287 43.8824 75.9556C43.8824 75.9556 38.7179 75.9556 31.2371 79.9913C23.4594 84.1901 22.2719 88.2975 21.9163 88.0039C19.9588 86.3726 18.8822 72.0766 19.3683 66.3542C19.8544 60.6319 22.2556 58.4689 25.3353 56.7887Z" fill="black"/>
</g>
<path d="M34.1116 37.2617C36.7215 37.3335 37.4621 38.3775 39.0346 40.6253C40.6071 42.8731 45.9575 51.3914 45.9575 51.3914L53.5362 54.3015L52.5379 58.7221C52.5379 58.7221 42.408 57.0061 41.7457 56.6178C41.0834 56.2296 36.1506 48.1028 36.1506 48.1028L34.1116 37.2617Z" fill="#E6E6E6"/>
<path d="M32.1146 37.3343C34.581 36.7177 35.6707 38.0945 36.4928 39.6181C40.2283 46.4692 41.7454 87.5761 41.7454 87.5761C41.7454 87.5761 33.4131 90.9005 27.2307 86.9986L32.1146 37.3343Z" fill="#F0F0F0"/>
<path d="M40.0581 107.986L38.4987 113.92C38.4987 113.92 36.7011 114.981 35.1514 113.937C33.9215 113.108 33.9965 112.126 33.9965 112.126L34.0683 111.232L34.2444 104.332L40.0581 107.986Z" fill="#B16668"/>
<path d="M38.8194 65.0938C41.3674 73.9741 45.6706 89.0662 44.4635 93.7642C43.55 97.2844 39.5698 110.138 39.5698 110.138C38.0332 110.354 34.8915 110.696 33.668 108.005C33.3581 103.636 32.2815 73.9741 32.2815 73.9741L38.8194 65.0938Z" fill="#0071CE"/>
<path opacity="0.4" d="M38.8194 65.0938C41.3674 73.9741 45.6706 89.0662 44.4635 93.7642C43.55 97.2844 39.5698 110.138 39.5698 110.138C38.0332 110.354 34.8915 110.696 33.668 108.005C33.3581 103.636 32.2815 73.9741 32.2815 73.9741L38.8194 65.0938Z" fill="white"/>
<path opacity="0.25" d="M32.2961 73.9588C33.9134 72.4305 35.4171 70.7862 36.7951 69.0391C36.7951 69.0391 36.4688 71.1433 33.5685 74.0437C33.5685 74.0437 38.4295 92.7669 38.4002 95.7553C38.3708 98.7437 36.769 109.458 36.769 109.458L32.2961 73.9588Z" fill="black"/>
<path d="M38.8179 65.0921C36.7397 69.4018 35.9241 71.1243 32.293 73.9725C32.293 73.9725 36.7332 92.4249 36.9289 96.0071C37.2552 101.961 36.4885 115.288 36.2144 119.337C35.5261 120.237 32.1723 120.391 31.1152 119.624C30.6324 117.751 29.011 111.161 28.2508 105.25C27.6897 100.881 28.4074 96.9727 28.4987 95.8276C26.1465 89.828 20.8646 81.0716 18.9332 74.7979C18.6164 73.7119 18.4162 72.5953 18.3362 71.4669C17.9056 67.49 19.5335 64.4526 20.4894 62.332L38.8179 65.0921Z" fill="#0071CE"/>
<g opacity="0.5">
<path d="M38.8201 65.0921C36.7419 69.4018 35.9263 71.1243 32.2952 73.9725C32.2952 73.9725 36.7354 92.4249 36.9311 96.0071C37.2574 101.961 36.4907 115.288 36.2166 119.337C35.5283 120.237 32.1745 120.391 31.1174 119.624C30.6346 117.751 29.0131 111.161 28.253 105.25C27.6919 100.881 28.4096 96.9727 28.5009 95.8276C26.1487 89.828 20.8668 81.0716 18.9354 74.7979C18.6186 73.7119 18.4184 72.5953 18.3384 71.4669C17.9078 67.49 19.5357 64.4526 20.4916 62.332L38.8201 65.0921Z" fill="white"/>
</g>
<path d="M30.1916 29.9025L28.4789 35.6934C23.7157 35.6934 20.7729 31.0542 20.7729 26.291C20.7729 21.5082 23.8201 17.5117 28.6028 17.5117H30.1558C34.9385 17.5117 38.8176 20.6861 38.8176 25.4721C38.8176 28.5877 34.9548 29.9025 30.1916 29.9025Z" fill="#263238"/>
<path d="M39.7121 21.0496C40.0777 20.4525 40.254 19.7587 40.2178 19.0595C40.195 18.7097 40.093 18.3696 39.9195 18.065C39.746 17.7603 39.5055 17.4991 39.2162 17.3011C38.3255 16.7334 37.0923 17.0009 36.28 17.6567C36.2139 17.0337 35.9079 16.4609 35.4269 16.0596C34.9458 15.6583 34.3274 15.46 33.7026 15.5067C32.9099 15.5687 32.2052 16.0091 31.5201 16.4072C30.3537 16.9984 29.0947 17.3857 27.7976 17.5523L29.2559 18.1134C29.0577 18.4186 28.9317 18.7651 28.8876 19.1263C28.8435 19.4876 28.8824 19.8542 29.0015 20.1981C29.064 20.3392 29.1405 20.4736 29.2298 20.5994C30.198 22.0475 31.535 23.211 33.103 23.9697C34.671 24.7285 36.413 25.055 38.1494 24.9156C38.6363 24.9051 39.1124 24.7704 39.5326 24.5241C39.7777 24.3498 39.9852 24.1279 40.1427 23.8716C40.4473 23.4263 40.5974 22.8934 40.5701 22.3546C40.5509 22.0818 40.462 21.8185 40.3117 21.5899C40.1614 21.3614 39.955 21.1754 39.7121 21.0496Z" fill="#263238"/>
<path d="M26.4747 38.0156L23.3525 38.3419C21.2809 38.8475 20.3446 39.761 20.1325 41.6043C20.0346 42.4591 19.5159 44.7363 20.2402 47.5909C20.8927 50.1748 22.6479 56.5007 22.6479 56.5007C22.6479 56.5007 20.3805 62.1871 19.3169 65.094C26.6835 69.8996 35.776 68.0008 38.8296 65.094C38.5719 62.347 37.5997 59.786 37.3811 57.3359C37.3811 57.3359 37.5377 53.5057 37.8411 51.8452C40.1737 49.3037 39.8736 46.8699 38.8198 44.9092C36.8885 41.2846 33.9751 38.1037 33.0355 38.107L26.4747 38.0156Z" fill="#455A64"/>
<path d="M32.0725 35.957C33.0056 36.1854 33.7331 36.5638 34.1115 37.262C34.49 37.9602 37.4425 42.6092 37.4425 42.6092C37.4425 42.6092 35.0609 39.474 33.2666 38.5246C32.9003 38.3108 32.4938 38.1752 32.0725 38.1266V35.957Z" fill="#E0E0E0"/>
<path d="M26.4742 38.0146C26.4742 38.0146 29.7366 44.8168 30.3173 49.407C30.898 53.9973 29.6648 69.6571 29.6648 74.6258C29.6648 80.6157 29.6844 90.5009 29.6844 90.5009C29.6844 90.5009 25.962 90.5009 23.4042 89.7701C21.5348 89.2383 19.3196 88.2824 17.9787 86.6806C17.9787 86.6806 17.6133 74.4203 18.3833 68.5805C19.1108 63.0343 22.0633 56.2027 22.0633 56.2027L18.2789 41.7762C18.2789 41.7762 18.4551 39.2967 20.7877 38.6018C22.9964 37.9363 26.4742 38.0146 26.4742 38.0146Z" fill="#FAFAFA"/>
<path d="M23.4049 40.9844L19.5421 46.6382L22.0509 56.1972C22.0509 56.1972 19.7216 61.1137 18.8635 65.8736C21.1897 59.2932 23.2907 57.3195 23.2907 57.3195L21.927 51.7537C21.927 51.7537 22.4065 50.0018 23.0754 47.0134C23.7442 44.025 23.6332 42.2926 23.4049 40.9844Z" fill="#EBEBEB"/>
<path d="M25.5147 46.314C25.5147 46.0302 25.4886 45.4168 25.4397 44.6404C25.1982 40.8527 25.0873 37.4271 26.3662 37.1367L26.4804 37.6587C25.5441 37.861 25.854 42.7514 25.9714 44.5914C26.0236 45.3842 26.0628 46.0073 26.0497 46.3205L25.5147 46.314Z" fill="#0071CE"/>
<path d="M26.4732 35.957C26.2353 35.9583 26.0022 36.0247 25.7992 36.1489C25.5962 36.2731 25.4311 36.4504 25.3216 36.6617C25.0149 37.1837 24.369 38.0613 24.369 38.0613C24.369 38.0613 24.3461 41.5391 24.6952 42.4428C24.9953 43.2258 28.6819 46.1261 28.6819 46.1261C28.6819 46.1261 28.323 49.1961 28.2937 50.2694C28.2643 51.3427 30.1565 55.2349 30.3882 57.3196C30.3882 57.3196 30.7797 52.2562 30.473 49.904C29.9347 45.8096 27.3802 39.686 26.4732 38.0091V35.957Z" fill="#EBEBEB"/>
<path d="M24.7406 58.9831H24.6949V58.6112C25.1379 58.5741 25.5622 58.4161 25.9216 58.1544C25.5382 57.8991 25.1951 57.5879 24.9037 57.2312C24.3001 56.4514 22.9821 50.889 23.3899 49.5938C23.7161 48.5074 24.796 46.1095 25.7486 46.0703H25.7715C26.7209 46.0703 27.9671 48.3345 28.3978 49.3784C28.9132 50.6377 28.0715 56.2916 27.5365 57.117C27.2773 57.4986 26.9616 57.8385 26.6001 58.1251C26.9784 58.3587 27.4149 58.4808 27.8595 58.4774L27.9051 58.8461C27.3262 58.8559 26.7577 58.691 26.2739 58.373C25.8304 58.7167 25.2989 58.9282 24.7406 58.9831ZM25.7878 46.439C25.2299 46.4618 24.2283 48.2398 23.7716 49.7014C23.3964 50.8922 24.6655 56.2753 25.2234 56.9995C25.5199 57.358 25.8711 57.6674 26.2641 57.9163C26.6424 57.6349 26.9728 57.2946 27.2428 56.9082C27.7387 56.1415 28.5478 50.6704 28.0682 49.5155C27.4875 48.1289 26.3489 46.439 25.7878 46.439Z" fill="#455A64"/>
<path d="M28.4497 58.635C28.4541 58.7433 28.4264 58.8504 28.3699 58.9429C28.3135 59.0354 28.2308 59.1091 28.1325 59.1546C28.0342 59.2002 27.9246 59.2156 27.8175 59.1989C27.7105 59.1821 27.6107 59.1341 27.531 59.0607C27.4513 58.9873 27.395 58.892 27.3695 58.7867C27.3439 58.6814 27.3501 58.5709 27.3874 58.4691C27.4246 58.3673 27.4911 58.2789 27.5786 58.2149C27.6661 58.1509 27.7705 58.1143 27.8788 58.1097C28.024 58.1044 28.1654 58.1566 28.2723 58.255C28.3792 58.3533 28.443 58.4899 28.4497 58.635Z" fill="#263238"/>
<path d="M25.2493 58.7718C25.2537 58.8801 25.2259 58.9873 25.1695 59.0798C25.113 59.1723 25.0304 59.2459 24.9321 59.2915C24.8338 59.337 24.7241 59.3524 24.6171 59.3357C24.51 59.319 24.4103 59.2709 24.3306 59.1975C24.2508 59.1242 24.1946 59.0288 24.169 58.9235C24.1435 58.8182 24.1497 58.7077 24.1869 58.6059C24.2241 58.5042 24.2907 58.4157 24.3782 58.3517C24.4656 58.2878 24.5701 58.2512 24.6784 58.2466C24.7504 58.2435 24.8222 58.2547 24.8899 58.2794C24.9576 58.3042 25.0197 58.342 25.0727 58.3908C25.1258 58.4396 25.1687 58.4984 25.199 58.5638C25.2292 58.6291 25.2464 58.6998 25.2493 58.7718Z" fill="#263238"/>
<path d="M28.5038 51.8294L28.1776 51.8066C28.1616 51.8058 28.1459 51.8017 28.1315 51.7946C28.1171 51.7875 28.1043 51.7776 28.0939 51.7653C28.0835 51.7531 28.0757 51.7389 28.071 51.7235C28.0663 51.7082 28.0649 51.692 28.0667 51.6761C28.1286 50.6321 28.096 49.8622 27.9688 49.5555C27.4142 48.2048 26.2723 46.5149 25.7732 46.5345C25.274 46.554 24.2757 48.3386 23.8385 49.7317C23.7406 50.0579 23.77 50.8181 23.9233 51.8523C23.9281 51.8842 23.9202 51.9167 23.9013 51.9429C23.8824 51.9691 23.854 51.9869 23.8222 51.9925L23.496 52.0415C23.4797 52.0438 23.4631 52.0428 23.4472 52.0386C23.4312 52.0344 23.4163 52.0271 23.4033 52.0171C23.3902 52.007 23.3793 51.9945 23.3711 51.9802C23.3629 51.9659 23.3577 51.9502 23.3557 51.9338C23.1828 50.7724 23.1632 49.9763 23.2904 49.562C23.5253 48.8182 24.6248 46.0223 25.734 45.9733C26.8432 45.9244 28.1776 48.6192 28.4745 49.3434C28.6376 49.7414 28.6865 50.5375 28.6115 51.712C28.6102 51.7411 28.5987 51.7688 28.579 51.7903C28.5593 51.8118 28.5327 51.8256 28.5038 51.8294Z" fill="#0071CE"/>
<path d="M15.6441 80.2614C16.2118 80.7932 16.5217 81.5077 17.1057 82.5647C17.6897 83.6217 20.5704 83.7229 20.7988 80.7508C20.9717 78.5127 20.1887 77.7558 18.6195 76.0137C16.972 74.1802 16.3358 73.88 16.4108 72.1803C16.4532 71.3419 17.7158 59.2055 17.7158 59.2055L21.8689 47.7641C21.8689 47.7641 23.3696 42.417 22.616 38.6912C22.616 38.6912 19.9245 38.4727 18.0225 40.3714C15.8007 42.5899 13.2854 53.5582 12.7308 55.7734C11.9317 58.5804 11.5827 61.4962 11.6966 64.4124C11.8271 67.9717 11.8401 75.4101 12.3132 77.0511C12.7862 78.6922 14.114 78.8292 15.6441 80.2614Z" fill="#B16668"/>
<path d="M22.8011 38.1991C22.8011 38.1991 19.94 38.0197 18.2663 39.3899C16.5927 40.7602 15.552 44.5903 14.322 48.4171C13.0921 52.244 11.9959 55.973 11.5913 58.6547C11.2651 60.8993 11.9176 72.7485 11.9176 72.7485C11.9176 72.7485 13.8229 73.4401 16.41 72.1808L18.0118 59.2191L22.8077 46.2085C23.6917 43.6115 23.6894 40.7947 22.8011 38.1991Z" fill="#F0F0F0"/>
<path d="M33.9481 21.8867C36.1274 22.1118 37.9478 24.4282 37.8271 29.684C37.7227 34.1405 36.2775 35.2301 35.5434 35.5564C34.8094 35.8826 33.4196 35.925 32.0624 35.6967V38.1272C32.0624 38.1272 33.6284 41.5789 32.9628 42.8121C29.2469 41.2787 26.4738 38.0163 26.4738 38.0163V32.5093C26.4738 32.5093 25.5571 33.5957 24.0563 32.6006C22.5556 31.6056 22.4969 29.1359 23.3712 28.2485C24.2455 27.3611 26.1247 27.6449 26.4738 28.8684C26.4738 28.8684 27.7788 28.8357 30.1832 27.123C32.0127 25.8723 33.3451 24.0192 33.9481 21.8867Z" fill="#B16668"/>
<path d="M31.7764 27.9729C31.7836 28.0528 31.7746 28.1333 31.7501 28.2097C31.7256 28.2861 31.686 28.3568 31.6337 28.4176C31.5814 28.4784 31.5174 28.5281 31.4455 28.5638C31.3737 28.5995 31.2954 28.6204 31.2153 28.6253C31.0931 28.6361 30.9705 28.6103 30.8632 28.551C30.7558 28.4918 30.6685 28.4019 30.6125 28.2928C30.5565 28.1837 30.5343 28.0603 30.5487 27.9386C30.5632 27.8168 30.6136 27.7021 30.6935 27.6091C30.7735 27.5161 30.8794 27.4491 30.9976 27.4166C31.1159 27.3841 31.2411 27.3876 31.3574 27.4266C31.4736 27.4657 31.5756 27.5385 31.6502 27.6358C31.7249 27.7331 31.7688 27.8505 31.7764 27.9729Z" fill="#263238"/>
<path d="M32.4032 32.1406L34.1714 32.705C34.1396 32.8232 34.0843 32.9338 34.0088 33.0302C33.9332 33.1265 33.839 33.2066 33.7318 33.2657C33.6246 33.3248 33.5066 33.3616 33.3848 33.374C33.263 33.3865 33.14 33.3742 33.0231 33.3379C32.786 33.2559 32.5894 33.0859 32.4741 32.863C32.3587 32.6402 32.3333 32.3816 32.4032 32.1406Z" fill="#9A4A4D"/>
<path d="M37.0311 26.5954L35.8306 25.7635C35.8811 25.6826 35.9475 25.6129 36.0258 25.5586C36.1042 25.5043 36.1928 25.4665 36.2862 25.4476C36.3796 25.4286 36.4759 25.4289 36.5692 25.4485C36.6626 25.468 36.7509 25.5064 36.8289 25.5612C36.9897 25.674 37.1006 25.8447 37.1383 26.0375C37.176 26.2304 37.1376 26.4303 37.0311 26.5954Z" fill="#263238"/>
<path d="M36.6079 27.8571C36.6091 27.9735 36.5759 28.0877 36.5127 28.1855C36.4494 28.2832 36.3588 28.3602 36.2522 28.4069C36.1455 28.4535 36.0275 28.4678 35.9127 28.4479C35.798 28.428 35.6917 28.3749 35.6069 28.295C35.5222 28.2152 35.4628 28.1122 35.4362 27.9988C35.4095 27.8855 35.4168 27.7668 35.457 27.6576C35.4973 27.5483 35.5688 27.4533 35.6626 27.3844C35.7565 27.3154 35.8685 27.2756 35.9848 27.2699C36.0643 27.2672 36.1436 27.2804 36.218 27.3085C36.2925 27.3367 36.3606 27.3793 36.4185 27.4338C36.4764 27.4884 36.523 27.5539 36.5555 27.6266C36.588 27.6992 36.6058 27.7775 36.6079 27.8571Z" fill="#263238"/>
<path d="M33.5962 27.5195L33.6908 31.0887L35.57 30.5079L33.5962 27.5195Z" fill="#9A4A4D"/>
<path d="M32.0724 35.6936C30.637 35.5076 27.691 34.418 27.231 33.25C27.415 33.8402 27.776 34.3596 28.2651 34.7377C29.146 35.4946 32.0724 36.3428 32.0724 36.3428V35.6936Z" fill="#9A4A4D"/>
<path opacity="0.35" d="M42.1703 57.0034L38.2652 73.88L37.9487 73.544L41.8506 56.6641L42.1703 57.0034Z" fill="black"/>
<g opacity="0.2">
<path d="M49.657 63.6668C49.7875 63.993 50.8739 64.7303 52.4496 64.5998L52.7139 63.6211L49.657 63.6668Z" fill="black"/>
</g>
<path d="M54.7726 56.0276C54.7726 56.0276 54.2702 57.8806 54.1397 58.3472C54.0092 58.8137 51.6863 59.887 50.5216 60.0339C48.2966 60.3112 48.0454 60.794 48.5805 62.373C49.0731 63.8281 50.5216 64.3794 52.5313 64.1413C53.4709 64.0304 54.7726 63.1952 55.2848 61.7369C55.9373 59.8773 55.585 57.8872 55.8427 56.8008C56.1004 55.7144 55.3403 55.3816 54.7726 56.0276Z" fill="#B16668"/>
<path d="M31.7623 107.303L-2.5 87.5225L54.7267 54.5L88.9856 74.2802L31.7623 107.303Z" fill="#455A64"/>
<path d="M-2.49976 87.5234V127.084L-0.695619 128.125V101.056L29.9584 118.755V145.823L31.7625 146.864V107.304L-2.49976 87.5234Z" fill="#263238"/>
<path d="M-0.696045 128.123L1.10809 127.083V102.095L-0.696045 101.055V128.123Z" fill="black"/>
<path d="M31.7634 146.864L33.5676 145.824V118.755L87.186 87.8172V114.886L88.9868 113.845V74.2812L31.7634 107.304V146.864Z" fill="#37474F"/>
<g opacity="0.2">
<path d="M28.6499 99.4995C26.898 100.508 26.898 102.145 28.6499 103.157C30.4018 104.168 33.2173 104.165 34.9823 103.157C36.7473 102.149 36.731 100.508 34.9823 99.4995C33.2336 98.4914 30.4051 98.4881 28.6499 99.4995Z" fill="black"/>
</g>
<g opacity="0.2">
<path d="M3.35296 87.5014L15.9264 94.7669C16.0359 94.8233 16.1573 94.8527 16.2804 94.8527C16.4036 94.8527 16.5249 94.8233 16.6344 94.7669L25.8965 89.4197C25.9391 89.4053 25.9761 89.3778 26.0023 89.3413C26.0285 89.3047 26.0426 89.2608 26.0426 89.2158C26.0426 89.1708 26.0285 89.127 26.0023 89.0904C25.9761 89.0538 25.9391 89.0264 25.8965 89.0119L13.3165 81.7432C13.2065 81.6886 13.0853 81.6602 12.9625 81.6602C12.8397 81.6602 12.7185 81.6886 12.6085 81.7432L3.34643 87.0936C3.15721 87.2045 3.15721 87.3872 3.35296 87.5014Z" fill="black"/>
</g>
<g opacity="0.2">
<path d="M3.35122 88.7983L15.9247 96.0638C16.0342 96.1201 16.1555 96.1495 16.2787 96.1495C16.4018 96.1495 16.5232 96.1201 16.6327 96.0638L25.8948 90.7166C26.0905 90.6024 26.0905 90.4197 25.8948 90.3088L13.3147 83.0401C13.2047 82.9854 13.0836 82.957 12.9608 82.957C12.838 82.957 12.7168 82.9854 12.6068 83.0401L3.35122 88.3872C3.30898 88.4025 3.27247 88.4304 3.24667 88.4672C3.22087 88.504 3.20703 88.5478 3.20703 88.5928C3.20703 88.6377 3.22087 88.6815 3.24667 88.7183C3.27247 88.7551 3.30898 88.783 3.35122 88.7983Z" fill="black"/>
</g>
<path d="M3.35488 88.3725L15.9284 95.638C16.0378 95.6944 16.1592 95.7238 16.2823 95.7238C16.4055 95.7238 16.5268 95.6944 16.6363 95.638L25.9115 90.3039C26.1072 90.1897 26.1072 90.007 25.9115 89.8961L13.3184 82.6143C13.2084 82.5597 13.0872 82.5312 12.9644 82.5312C12.8416 82.5312 12.7205 82.5597 12.6105 82.6143L3.35488 87.9614C3.31264 87.9767 3.27613 88.0047 3.25033 88.0414C3.22453 88.0782 3.21069 88.1221 3.21069 88.167C3.21069 88.2119 3.22453 88.2557 3.25033 88.2925C3.27613 88.3293 3.31264 88.3572 3.35488 88.3725Z" fill="#EBEBEB"/>
<path d="M12.6147 82.6166L3.81909 87.6962L15.926 94.6942C16.0361 94.7488 16.1572 94.7772 16.28 94.7772C16.4028 94.7772 16.524 94.7488 16.634 94.6942L25.4426 89.6145L13.3161 82.6166C13.2069 82.563 13.087 82.5352 12.9654 82.5352C12.8438 82.5352 12.7238 82.563 12.6147 82.6166Z" fill="#E0E0E0"/>
<path d="M3.35488 87.094L15.9284 94.3595C16.0378 94.4159 16.1592 94.4453 16.2823 94.4453C16.4055 94.4453 16.5268 94.4159 16.6363 94.3595L25.9115 88.9993C25.9537 88.984 25.9902 88.9561 26.016 88.9193C26.0418 88.8825 26.0557 88.8387 26.0557 88.7937C26.0557 88.7488 26.0418 88.705 26.016 88.6682C25.9902 88.6314 25.9537 88.6035 25.9115 88.5882L13.3184 81.3358C13.2089 81.2794 13.0876 81.25 12.9644 81.25C12.8413 81.25 12.7199 81.2794 12.6105 81.3358L3.35488 86.6829C3.31264 86.6982 3.27613 86.7262 3.25033 86.7629C3.22453 86.7997 3.21069 86.8436 3.21069 86.8885C3.21069 86.9334 3.22453 86.9772 3.25033 87.014C3.27613 87.0508 3.31264 87.0787 3.35488 87.094Z" fill="#FAFAFA"/>
<g opacity="0.2">
<path d="M25.6751 77.2755L38.1929 86.8994C38.3231 86.9653 38.467 86.9996 38.613 86.9996C38.7591 86.9996 38.903 86.9653 39.0331 86.8994L59.4904 74.3281C59.5414 74.3112 59.5858 74.2788 59.6172 74.2354C59.6486 74.1921 59.6655 74.14 59.6655 74.0866C59.6655 74.0332 59.6486 73.9812 59.6172 73.9378C59.5858 73.8945 59.5414 73.8621 59.4904 73.8452L46.9759 64.2214C46.8452 64.1554 46.7007 64.1211 46.5541 64.1211C46.4076 64.1211 46.2631 64.1554 46.1324 64.2214L25.6751 76.7927C25.6241 76.8096 25.5797 76.842 25.5483 76.8853C25.5169 76.9286 25.5 76.9807 25.5 77.0341C25.5 77.0875 25.5169 77.1396 25.5483 77.1829C25.5797 77.2262 25.6241 77.2586 25.6751 77.2755Z" fill="black"/>
</g>
<path d="M26.666 76.0573V75.9039C26.6747 75.7727 26.7141 75.6453 26.7809 75.5319C26.8478 75.4186 26.9403 75.3226 27.051 75.2515L47.2064 63.6045C47.3256 63.5435 47.4575 63.5117 47.5914 63.5117C47.7252 63.5117 47.8572 63.5435 47.9763 63.6045L59.0557 72.2361C59.1657 72.308 59.2576 72.4042 59.3244 72.5174C59.3912 72.6306 59.4309 72.7576 59.4406 72.8886V73.042C59.4314 73.1731 59.3919 73.3003 59.3251 73.4136C59.2582 73.5268 59.166 73.623 59.0557 73.6944L38.9002 85.3414C38.7811 85.4024 38.6491 85.4342 38.5153 85.4342C38.3814 85.4342 38.2495 85.4024 38.1303 85.3414L27.051 76.7228C26.9393 76.6497 26.8463 76.5514 26.7794 76.4358C26.7126 76.3202 26.6737 76.1906 26.666 76.0573Z" fill="#E0E0E0"/>
<path d="M27.0512 75.6834L38.1488 83.9405C38.2685 84 38.4002 84.031 38.5338 84.031C38.6674 84.031 38.7992 84 38.9188 83.9405L59.0872 72.2936C59.1333 72.2775 59.1732 72.2476 59.2015 72.2078C59.2298 72.1681 59.2449 72.1205 59.2449 72.0717C59.2449 72.0229 59.2298 71.9754 59.2015 71.9356C59.1732 71.8959 59.1333 71.8659 59.0872 71.8499L47.9636 63.5928C47.8444 63.5318 47.7125 63.5 47.5786 63.5C47.4447 63.5 47.3128 63.5318 47.1936 63.5928L27.0382 75.2397C26.9926 75.2571 26.9535 75.2882 26.9263 75.3288C26.8992 75.3694 26.8854 75.4174 26.8868 75.4662C26.8883 75.515 26.9049 75.5622 26.9343 75.6011C26.9638 75.64 27.0047 75.6688 27.0512 75.6834Z" fill="#FAFAFA"/>
<path d="M34.7121 101.587C36.2552 100.012 37.1622 96.0737 35.6549 94.8242H27.998C26.4907 96.0737 27.3977 100.008 28.9408 101.584L28.9832 101.63L29.0354 101.682L29.1757 101.806L29.2116 101.835L29.3291 101.923C29.3943 101.969 29.4628 102.011 29.5281 102.051C30.2413 102.412 31.0299 102.601 31.8297 102.601C32.6296 102.601 33.4181 102.412 34.1314 102.051C34.2004 102.011 34.2669 101.968 34.3304 101.92L34.4413 101.838L34.487 101.803C34.5327 101.763 34.5783 101.724 34.6207 101.682L34.6827 101.623L34.7121 101.587Z" fill="#EBEBEB"/>
<path d="M28.6499 94.3198C26.898 95.3279 26.898 96.9656 28.6499 97.977C30.4018 98.9884 33.2173 98.9851 34.9823 97.977C36.7473 96.9689 36.731 95.3279 34.9823 94.3198C33.2336 93.3117 30.4051 93.3084 28.6499 94.3198Z" fill="#FAFAFA"/>
<path d="M29.8961 95.0342C28.8325 95.6508 28.8325 96.6459 29.8961 97.2592C30.4927 97.5634 31.1528 97.722 31.8225 97.722C32.4922 97.722 33.1524 97.5634 33.749 97.2592C34.8126 96.6459 34.8126 95.6508 33.749 95.0342C33.1519 94.7318 32.4919 94.5742 31.8225 94.5742C31.1532 94.5742 30.4932 94.7318 29.8961 95.0342Z" fill="#EBEBEB"/>
<path d="M33.7479 96.0928C33.1507 95.7904 32.4908 95.6328 31.8214 95.6328C31.152 95.6328 30.4921 95.7904 29.8949 96.0928C29.6323 96.2303 29.4081 96.431 29.2424 96.6768C29.4081 96.9226 29.6323 97.1233 29.8949 97.2608C30.4915 97.565 31.1517 97.7235 31.8214 97.7235C32.4911 97.7235 33.1513 97.565 33.7479 97.2608C34.0115 97.1247 34.236 96.9237 34.4004 96.6768C34.236 96.4298 34.0115 96.2289 33.7479 96.0928Z" fill="#E0E0E0"/>
<path d="M30.1305 96.6773C29.5857 96.1245 29.1172 95.5013 28.7375 94.8242C28.085 93.6856 27.9741 92.1621 28.3068 91.9729C28.6396 91.7836 29.9935 93.3072 29.9935 93.3072C29.8686 92.6627 29.8204 92.0056 29.85 91.3497C29.9087 90.3351 30.1534 89.4151 30.4437 89.2291C30.7341 89.0432 31.3866 90.3221 31.6639 91.2486C31.9412 92.1751 32.1076 92.9385 32.1076 92.9385C32.2207 92.2159 32.3876 91.5027 32.6067 90.8049C32.933 89.8425 33.2592 89.6239 33.4909 89.7218C33.7225 89.8196 33.8856 90.2633 33.9541 91.5455C33.9794 92.1572 33.9597 92.7701 33.8954 93.379C33.8954 93.379 34.375 92.8537 34.9035 92.3448C35.4875 91.7869 35.7354 91.6923 35.9018 91.8163C36.0682 91.9402 36.1139 92.795 35.2134 94.4262C34.765 95.2568 34.1905 96.0129 33.5104 96.6675C33.5104 96.6675 32.2609 97.4831 30.1305 96.6773Z" fill="#0071CE"/>
<path opacity="0.2" d="M37.5 76.0743L38.4918 76.6452L46.3151 72.0648L47.1797 71.0469L45.3788 71.5232L37.5 76.0743Z" fill="black"/>
<path d="M45.45 70.827L47.1171 70.5007C47.1276 70.4989 47.1384 70.5004 47.1481 70.505C47.1577 70.5095 47.1657 70.5169 47.1711 70.5261C47.1764 70.5354 47.1788 70.546 47.1779 70.5566C47.177 70.5673 47.1728 70.5774 47.166 70.5856L46.0307 71.8645L45.45 70.827Z" fill="#FFA8A7"/>
<path d="M47.1645 70.5856C47.1713 70.5774 47.1755 70.5673 47.1764 70.5566C47.1773 70.546 47.1749 70.5354 47.1696 70.5261C47.1642 70.5169 47.1562 70.5095 47.1465 70.505C47.1369 70.5004 47.1261 70.4989 47.1156 70.5007L46.7893 70.5627C46.8343 70.5905 46.8707 70.6302 46.8943 70.6774C46.9179 70.7247 46.9279 70.7776 46.9231 70.8303V70.8596L47.1645 70.5856Z" fill="#263238"/>
<path d="M39.8323 75.4282L39.9693 75.3499L40.1357 75.2585L46.0309 71.8656C46.0861 71.6827 46.0698 71.4856 45.9852 71.3142C45.9414 71.1958 45.8695 71.0897 45.7758 71.0051C45.682 70.9204 45.5692 70.8597 45.4469 70.8281L39.5386 74.2178L39.2124 74.3972C39.4375 74.3059 40.028 75.3205 39.8323 75.4282Z" fill="#0071CE"/>
<path d="M40.341 75.1334L40.6444 74.9573C40.7325 74.9083 40.6836 74.6897 40.5759 74.4614C40.4389 74.158 40.1648 73.8643 40.0441 73.9263L39.8223 74.0568L39.7407 74.1025C39.8614 74.0405 40.1355 74.3341 40.2725 74.6375C40.3736 74.8561 40.4258 75.0682 40.3475 75.1269L40.341 75.1334Z" fill="#EBEBEB"/>
<path d="M40.4166 75.0861C40.6254 74.9752 40.0284 73.9443 39.8163 74.0552L39.5129 74.2314C39.7217 74.1205 40.3188 75.1514 40.11 75.2623L40.4166 75.0861Z" fill="#0071CE"/>
<path d="M39.8319 75.4283L40.1353 75.2586C40.3409 75.151 39.7699 74.1527 39.5546 74.2179L39.2512 74.3941C39.4372 74.306 40.0277 75.3206 39.8319 75.4283Z" fill="#EBEBEB"/>
<path opacity="0.15" d="M47.1728 70.5261L47.1173 70.5L45.9069 71.1525L39.6528 74.7412C39.6528 74.7216 39.6332 74.7216 39.6267 74.7412C39.8029 75.0185 39.9366 75.3676 39.8192 75.4263L39.9562 75.348L40.1226 75.2567L46.0309 71.8637L47.163 70.5848C47.17 70.577 47.1747 70.5673 47.1764 70.5569C47.1781 70.5465 47.1769 70.5358 47.1728 70.5261Z" fill="black"/>
<path d="M38.5445 76.1593L39.8201 75.4252C39.9115 75.3795 39.8626 75.1609 39.7582 74.9358C39.6211 74.6292 39.3471 74.3355 39.2264 74.3943L37.9442 75.1283C37.6898 75.2751 37.9247 75.8297 38.2085 76.0744C38.2491 76.1212 38.3031 76.1544 38.3632 76.1695C38.4233 76.1847 38.4866 76.1811 38.5445 76.1593Z" fill="#F28F8F"/>
<path opacity="0.1" d="M38.6192 75.7642C38.5871 75.6259 38.5232 75.497 38.4326 75.3877C38.342 75.2784 38.2272 75.1917 38.0972 75.1345C38.0661 75.1224 38.0323 75.1184 37.9992 75.1229C37.9661 75.1275 37.9347 75.1405 37.908 75.1606C37.7155 75.3368 37.9374 75.8457 38.2081 76.0774C38.248 76.1222 38.3003 76.1542 38.3584 76.1693C38.4165 76.1844 38.4777 76.1819 38.5344 76.1622C38.6323 76.1067 38.6681 75.9599 38.6192 75.7642Z" fill="black"/>
</g>
</g>
<defs>
<filter id="filter0_d_436_38552" x="-4.5" y="15.5" width="127.654" height="146.191" filterUnits="userSpaceOnUse" color-interpolation-filters="sRGB">
<feFlood flood-opacity="0" result="BackgroundImageFix"/>
<feColorMatrix in="SourceAlpha" type="matrix" values="0 0 0 0 0 0 0 0 0 0 0 0 0 0 0 0 0 0 127 0" result="hardAlpha"/>
<feOffset dy="2"/>
<feGaussianBlur stdDeviation="1"/>
<feComposite in2="hardAlpha" operator="out"/>
<feColorMatrix type="matrix" values="0 0 0 0 0 0 0 0 0 0 0 0 0 0 0 0 0 0 0.25 0"/>
<feBlend mode="normal" in2="BackgroundImageFix" result="effect1_dropShadow_436_38552"/>
<feBlend mode="normal" in="SourceGraphic" in2="effect1_dropShadow_436_38552" result="shape"/>
</filter>
<clipPath id="clip0_436_38552">
<path d="M0 55.5C0 24.8482 24.8482 0 55.5 0H61C65.4183 0 69 3.58172 69 8V103C69 107.418 65.4183 111 61 111H55.5C24.8482 111 0 86.1518 0 55.5Z" fill="white"/>
</clipPath>
</defs>
</svg>
