<svg width="69" height="111" viewBox="0 0 69 111" fill="none" xmlns="http://www.w3.org/2000/svg">
<g clip-path="url(#clip0_436_38555)">
<path d="M0 55.5C0 24.8482 24.8482 0 55.5 0H61C65.4183 0 69 3.58172 69 8V103C69 107.418 65.4183 111 61 111H55.5C24.8482 111 0 86.1518 0 55.5Z" fill="#D0EBFA"/>
<g filter="url(#filter0_d_436_38555)">
<path d="M49.2508 14.5266L20.2712 31.2517C19.9842 31.439 19.7457 31.6917 19.5753 31.989C19.4048 32.2863 19.3072 32.6198 19.2905 32.9621V101.207C19.2905 101.832 19.7309 102.085 20.2712 101.77L49.2508 85.0398C49.5359 84.8529 49.7731 84.6017 49.9434 84.3064C50.1137 84.0111 50.2124 83.68 50.2315 83.3397V15.0847C50.2315 14.46 49.7911 14.2039 49.2508 14.5266ZM48.8206 78.2827C48.8206 78.8178 48.4442 79.1584 47.9808 79.4247L21.4439 94.7518C20.983 95.0078 20.6041 94.803 20.6041 94.2653V37.5121C20.6042 37.2186 20.6816 36.9304 20.8286 36.6764C20.9756 36.4224 21.1869 36.2117 21.4413 36.0654L47.9782 20.7357C48.0634 20.6863 48.1601 20.6601 48.2585 20.6599C48.357 20.6596 48.4538 20.6853 48.5392 20.7344C48.6246 20.7834 48.6956 20.8541 48.745 20.9393C48.7944 21.0245 48.8205 21.1212 48.8206 21.2197V78.2827Z" fill="#455A64"/>
<path d="M48.8206 78.283C48.8206 78.8181 48.4442 79.1587 47.9807 79.425L21.4438 94.7521C20.983 95.0081 20.604 94.8033 20.604 94.2656V37.5123C20.6041 37.2189 20.6816 36.9307 20.8286 36.6767C20.9755 36.4227 21.1869 36.2119 21.4413 36.0657L47.9782 20.736C48.0633 20.6866 48.16 20.6604 48.2585 20.6602C48.357 20.6599 48.4538 20.6856 48.5392 20.7347C48.6245 20.7837 48.6955 20.8544 48.7449 20.9396C48.7943 21.0248 48.8204 21.1215 48.8206 21.22V78.283Z" fill="#263238"/>
<path d="M21.4438 94.7508L47.9807 79.4289C48.167 79.3282 48.3392 79.2033 48.4928 79.0576L20.604 63.3516V94.2643C20.604 94.802 20.983 95.0171 21.4438 94.7508Z" fill="#37474F"/>
<path d="M46.6723 77.2878V21.4922L21.4413 36.0665C21.1869 36.2128 20.9755 36.4235 20.8286 36.6775C20.6816 36.9315 20.6041 37.2197 20.604 37.5132V92.9964L45.8325 78.4298C46.2959 78.1635 46.6723 77.8229 46.6723 77.2878Z" fill="#0071CE"/>
<path d="M20.1485 101.84C19.8558 101.964 19.5399 102.022 19.2225 102.012C18.9051 102.001 18.5938 101.922 18.31 101.779L17.1886 101.131C16.9024 100.946 16.6641 100.695 16.4932 100.4C16.3223 100.105 16.2237 99.7741 16.2053 99.4336V31.171C16.2118 30.918 16.2693 30.6689 16.3743 30.4387C16.4102 30.3593 16.4486 30.2825 16.4921 30.2031L19.5647 31.9955C19.5001 32.1109 19.4436 32.2307 19.3957 32.3539C19.3211 32.5478 19.2804 32.7531 19.2753 32.9608V101.208C19.2907 101.784 19.6645 102.045 20.1485 101.84Z" fill="#263238"/>
<path d="M35.626 88.0898C36.2533 88.0898 36.3198 88.794 36.3198 89.0961C36.2824 89.7015 36.1049 90.2899 35.8014 90.8151C35.498 91.3402 35.0768 91.7878 34.571 92.1226C34.3681 92.2515 34.1352 92.3257 33.8951 92.3377C33.2677 92.3377 33.2012 91.6336 33.2012 91.3314C33.239 90.7261 33.4163 90.1376 33.7192 89.6122C34.0221 89.0867 34.4425 88.6384 34.9474 88.3024C35.1521 88.1755 35.3855 88.1024 35.626 88.0898Z" fill="#0071CE"/>
<path d="M34.7402 23.9763C34.9962 23.8227 35.219 23.9456 35.219 24.2528C35.2097 24.4189 35.1615 24.5805 35.0783 24.7246C34.9952 24.8687 34.8793 24.9913 34.7402 25.0824C34.4841 25.2335 34.2588 25.1106 34.2588 24.8059C34.2676 24.6394 34.3158 24.4773 34.3995 24.3331C34.4832 24.1888 34.5999 24.0665 34.7402 23.9763Z" fill="#263238"/>
<path d="M31.647 28.0188C31.8825 27.8831 32.072 27.9932 32.072 28.2748C32.0642 28.4222 32.0216 28.5656 31.9477 28.6933C31.8739 28.821 31.7708 28.9295 31.647 29.0097C31.4114 29.1454 31.2219 29.0353 31.2219 28.7537C31.2301 28.6064 31.2729 28.4632 31.3467 28.3355C31.4206 28.2078 31.5234 28.0993 31.647 28.0188Z" fill="#263238"/>
<path d="M33.0683 27.1791L37.8282 24.4317C38.0843 24.2807 38.2994 24.3882 38.2994 24.6699C38.2869 24.828 38.2378 24.9811 38.1561 25.1171C38.0743 25.2531 37.9621 25.3682 37.8282 25.4534L33.0683 28.2008C32.8122 28.3518 32.5972 28.2443 32.5972 27.9627C32.6096 27.8045 32.6587 27.6514 32.7405 27.5154C32.8222 27.3794 32.9344 27.2643 33.0683 27.1791Z" fill="#263238"/>
<path d="M50.2207 14.9287C50.149 14.4166 49.7418 14.2348 49.2528 14.519L20.2681 31.2518C19.978 31.4319 19.7398 31.6842 19.5767 31.9841L16.5042 30.1918C16.6698 29.8943 16.9086 29.644 17.198 29.4646L46.1648 12.7344C46.4688 12.5803 46.8047 12.5 47.1455 12.5C47.4863 12.5 47.8222 12.5803 48.1262 12.7344L49.2528 13.3796C49.5153 13.5538 49.7376 13.7822 49.9045 14.0494C50.0714 14.3166 50.1792 14.6164 50.2207 14.9287Z" fill="#37474F"/>
<path d="M42.6205 17.0001C42.4701 17.0804 42.3028 17.124 42.1323 17.1271C41.9618 17.1302 41.793 17.0928 41.6398 17.018C41.5885 16.9961 41.544 16.9608 41.5111 16.9157C41.4782 16.8707 41.4581 16.8175 41.4529 16.762C41.4529 16.6903 41.4529 16.424 41.4529 16.3498C41.4611 16.2859 41.4857 16.2252 41.5243 16.1736C41.5629 16.122 41.6141 16.0812 41.6731 16.0553L44.779 14.263C44.93 14.1832 45.0977 14.14 45.2684 14.1369C45.4392 14.1338 45.6083 14.1708 45.7622 14.245C45.8126 14.2679 45.8561 14.3036 45.8884 14.3485C45.9208 14.3934 45.9408 14.446 45.9465 14.5011C45.9465 14.5753 45.9465 14.8519 45.9465 14.9236C45.9385 14.9878 45.914 15.0489 45.8754 15.101C45.8368 15.153 45.7855 15.1942 45.7263 15.2206L42.6205 17.0001Z" fill="#0071CE"/>
<path opacity="0.25" d="M42.6205 17.0001C42.4701 17.0804 42.3028 17.124 42.1323 17.1271C41.9618 17.1302 41.793 17.0928 41.6398 17.018C41.5885 16.9961 41.544 16.9608 41.5111 16.9157C41.4782 16.8707 41.4581 16.8175 41.4529 16.762C41.4529 16.6903 41.4529 16.424 41.4529 16.3498C41.4611 16.2859 41.4857 16.2252 41.5243 16.1736C41.5629 16.122 41.6141 16.0812 41.6731 16.0553L44.779 14.263C44.93 14.1832 45.0977 14.14 45.2684 14.1369C45.4392 14.1338 45.6083 14.1708 45.7622 14.245C45.8126 14.2679 45.8561 14.3036 45.8884 14.3485C45.9208 14.3934 45.9408 14.446 45.9465 14.5011C45.9465 14.5753 45.9465 14.8519 45.9465 14.9236C45.9385 14.9878 45.914 15.0489 45.8754 15.101C45.8368 15.153 45.7855 15.1942 45.7263 15.2206L42.6205 17.0001Z" fill="black"/>
<path d="M42.6197 16.5941L45.7255 14.8017C46.0072 14.6379 46.02 14.3844 45.7588 14.2333C45.605 14.1591 45.4359 14.1221 45.2651 14.1252C45.0943 14.1283 44.9266 14.1715 44.7756 14.2512L41.6697 16.0436C41.3906 16.2049 41.3753 16.4584 41.639 16.6094C41.7922 16.684 41.9608 16.7215 42.1312 16.7188C42.3015 16.7161 42.4689 16.6734 42.6197 16.5941Z" fill="#0071CE"/>
<path opacity="0.3" d="M42.6197 16.5941L45.7255 14.8017C46.0072 14.6379 46.02 14.3844 45.7588 14.2333C45.605 14.1591 45.4359 14.1221 45.2651 14.1252C45.0943 14.1283 44.9266 14.1715 44.7756 14.2512L41.6697 16.0436C41.3906 16.2049 41.3753 16.4584 41.639 16.6094C41.7922 16.684 41.9608 16.7215 42.1312 16.7188C42.3015 16.7161 42.4689 16.6734 42.6197 16.5941Z" fill="black"/>
<path d="M18.1475 41.454C18.1414 41.2836 18.0951 41.117 18.0123 40.968C17.9295 40.8189 17.8127 40.6915 17.6712 40.5963C17.6249 40.562 17.57 40.5413 17.5126 40.5363C17.4552 40.5314 17.3976 40.5423 17.346 40.5681C17.2872 40.6039 17.0516 40.7345 16.9901 40.7729C16.9387 40.8119 16.8982 40.8635 16.8727 40.9227C16.8471 40.9819 16.8373 41.0468 16.8442 41.1109V48.7207C16.8504 48.8908 16.8965 49.057 16.9788 49.206C17.061 49.355 17.1772 49.4826 17.3179 49.5784C17.3642 49.6096 17.4177 49.6283 17.4733 49.6328C17.5289 49.6373 17.5847 49.6274 17.6354 49.6041C17.702 49.5708 17.9401 49.4325 18.0041 49.3941C18.0555 49.3551 18.096 49.3035 18.1216 49.2443C18.1471 49.1851 18.1569 49.1202 18.15 49.0561L18.1475 41.454Z" fill="#0071CE"/>
<path opacity="0.3" d="M18.1475 41.454C18.1414 41.2836 18.0951 41.117 18.0123 40.968C17.9295 40.8189 17.8127 40.6915 17.6712 40.5963C17.6249 40.562 17.57 40.5413 17.5126 40.5363C17.4552 40.5314 17.3976 40.5423 17.346 40.5681C17.2872 40.6039 17.0516 40.7345 16.9901 40.7729C16.9387 40.8119 16.8982 40.8635 16.8727 40.9227C16.8471 40.9819 16.8373 41.0468 16.8442 41.1109V48.7207C16.8504 48.8908 16.8965 49.057 16.9788 49.206C17.061 49.355 17.1772 49.4826 17.3179 49.5784C17.3642 49.6096 17.4177 49.6283 17.4733 49.6328C17.5289 49.6373 17.5847 49.6274 17.6354 49.6041C17.702 49.5708 17.9401 49.4325 18.0041 49.3941C18.0555 49.3551 18.096 49.3035 18.1216 49.2443C18.1471 49.1851 18.1569 49.1202 18.15 49.0561L18.1475 41.454Z" fill="black"/>
<path d="M17.7944 41.6674V49.2772C17.7944 49.5998 17.5819 49.7381 17.3182 49.587C17.1775 49.4912 17.0613 49.3636 16.979 49.2146C16.8968 49.0656 16.8507 48.8993 16.8445 48.7292V41.1118C16.8445 40.7866 17.057 40.6483 17.3182 40.7994C17.4607 40.896 17.5782 41.025 17.661 41.176C17.7438 41.3269 17.7895 41.4953 17.7944 41.6674Z" fill="#0071CE"/>
<path opacity="0.4" d="M17.7944 41.6674V49.2772C17.7944 49.5998 17.5819 49.7381 17.3182 49.587C17.1775 49.4912 17.0613 49.3636 16.979 49.2146C16.8968 49.0656 16.8507 48.8993 16.8445 48.7292V41.1118C16.8445 40.7866 17.057 40.6483 17.3182 40.7994C17.4607 40.896 17.5782 41.025 17.661 41.176C17.7438 41.3269 17.7895 41.4953 17.7944 41.6674Z" fill="black"/>
<path d="M18.1475 51.6532C18.1414 51.4828 18.0951 51.3163 18.0123 51.1672C17.9295 51.0181 17.8127 50.8907 17.6712 50.7955C17.6249 50.7612 17.57 50.7405 17.5126 50.7355C17.4552 50.7306 17.3976 50.7416 17.346 50.7673C17.2872 50.8032 17.0516 50.9337 16.9901 50.9721C16.9387 51.0111 16.8982 51.0627 16.8727 51.1219C16.8471 51.1812 16.8373 51.246 16.8442 51.3101V54.8948C16.8508 55.0645 16.8971 55.2302 16.9793 55.3787C17.0616 55.5273 17.1775 55.6544 17.3179 55.75C17.3626 55.7831 17.4154 55.8037 17.4708 55.8095C17.5262 55.8154 17.5821 55.8063 17.6328 55.7833C17.6994 55.75 17.9375 55.6117 18.0015 55.5733C18.0527 55.5348 18.0931 55.4836 18.1187 55.4249C18.1443 55.3661 18.1542 55.3017 18.1475 55.2379V51.6532Z" fill="#0071CE"/>
<path opacity="0.3" d="M18.1475 51.6532C18.1414 51.4828 18.0951 51.3163 18.0123 51.1672C17.9295 51.0181 17.8127 50.8907 17.6712 50.7955C17.6249 50.7612 17.57 50.7405 17.5126 50.7355C17.4552 50.7306 17.3976 50.7416 17.346 50.7673C17.2872 50.8032 17.0516 50.9337 16.9901 50.9721C16.9387 51.0111 16.8982 51.0627 16.8727 51.1219C16.8471 51.1812 16.8373 51.246 16.8442 51.3101V54.8948C16.8508 55.0645 16.8971 55.2302 16.9793 55.3787C17.0616 55.5273 17.1775 55.6544 17.3179 55.75C17.3626 55.7831 17.4154 55.8037 17.4708 55.8095C17.5262 55.8154 17.5821 55.8063 17.6328 55.7833C17.6994 55.75 17.9375 55.6117 18.0015 55.5733C18.0527 55.5348 18.0931 55.4836 18.1187 55.4249C18.1443 55.3661 18.1542 55.3017 18.1475 55.2379V51.6532Z" fill="black"/>
<path d="M17.7944 51.8429V55.4276C17.7944 55.7502 17.5819 55.891 17.3182 55.7374C17.1775 55.6416 17.0613 55.514 16.979 55.365C16.8968 55.216 16.8507 55.0497 16.8445 54.8796V51.295C16.8445 50.9723 17.057 50.8315 17.3182 50.9826C17.4594 51.0787 17.576 51.2066 17.6587 51.356C17.7415 51.5055 17.7879 51.6722 17.7944 51.8429Z" fill="#0071CE"/>
<path opacity="0.4" d="M17.7944 51.8429V55.4276C17.7944 55.7502 17.5819 55.891 17.3182 55.7374C17.1775 55.6416 17.0613 55.514 16.979 55.365C16.8968 55.216 16.8507 55.0497 16.8445 54.8796V51.295C16.8445 50.9723 17.057 50.8315 17.3182 50.9826C17.4594 51.0787 17.576 51.2066 17.6587 51.356C17.7415 51.5055 17.7879 51.6722 17.7944 51.8429Z" fill="black"/>
<path d="M26.6324 45.3015C26.6578 45.4258 26.692 45.5482 26.7348 45.6677C26.9012 46.1183 27.2008 46.5434 27.1752 47.0247C27.147 47.5676 26.7194 47.9875 26.3917 48.4202C25.9657 48.9923 25.6819 49.6575 25.5634 50.3609C25.445 51.0643 25.4955 51.7857 25.7106 52.4658C26.0254 53.2941 26.4621 54.0708 27.0062 54.7702L28.2429 56.5242C28.6168 57.0152 29.0941 57.4182 29.6409 57.7045C30.7036 58.3052 31.8893 58.6555 33.1078 58.7287C35.1107 58.8639 37.103 58.3416 38.7819 57.2411C40.5614 56.0633 39.7779 53.0419 41.5984 51.9383C43.8004 50.6069 44.8502 45.9826 42.1515 44.052C42.1515 44.052 42.5868 41.2201 41.7879 40.4981C40.9918 39.8319 40.0066 39.4324 38.9713 39.3561C37.5426 39.2076 36.1113 39.4867 34.6851 39.4815C33.2169 39.4768 31.75 39.5683 30.2939 39.7555C29.7818 39.8246 29.0597 40.0116 28.7832 40.5109C28.7051 40.7067 28.6838 40.9206 28.7217 41.1279C28.7178 41.4569 28.6002 41.7745 28.3888 42.0267C28.0713 42.4107 27.6207 42.6694 27.2827 43.0304C27.0038 43.3314 26.7996 43.6939 26.6867 44.0884C26.5737 44.4829 26.5551 44.8985 26.6324 45.3015Z" fill="#263238"/>
<path d="M40.8438 49.3906C43.1482 49.4546 43.4478 49.9463 45.5115 51.9895C47.227 53.6871 52.9113 58.9336 52.9113 58.9336L59.7222 60.7464L58.1142 64.9021C58.1142 64.9021 56.5779 64.8381 53.5054 64.8355C51.6183 64.8355 50.9628 64.413 49.0629 63.1456C48.0951 62.4978 42.6335 58.9233 42.6335 58.9233L40.8438 49.3906Z" fill="#E6E6E6"/>
<path d="M67.2562 52.3398L54.7738 56.7388L51.3325 71.5896L51.6116 71.8866L63.4795 67.4595L67.5327 52.6369L67.2562 52.3398Z" fill="#0071CE"/>
<path opacity="0.35" d="M55.0503 57.0353L51.6116 71.8861L51.3325 71.5891L54.7738 56.7383L55.0503 57.0353Z" fill="black"/>
<path opacity="0.25" d="M67.5339 52.6367L55.0515 57.0356L51.6128 71.8865L63.4807 67.4594L67.5339 52.6367Z" fill="black"/>
<g opacity="0.2">
<path d="M61.623 64.4382C61.7383 64.7301 62.6959 65.3728 64.0811 65.2575L64.3141 64.4023L61.623 64.4382Z" fill="black"/>
</g>
<g opacity="0.1">
<path d="M63.7746 55.6812L63.877 55.1819C63.9333 54.9079 63.201 55.0513 62.2408 55.5045L59.9876 56.1856C59.0274 56.6388 58.121 56.9768 58.0621 57.2508L57.9597 57.7475L63.7746 55.6812Z" fill="black"/>
</g>
<path d="M64.5178 53.4268C64.5536 53.2552 64.2617 53.2911 63.87 53.396L63.1505 53.6393C63.1505 53.6393 63.4449 52.9172 61.7422 53.3832C59.8705 53.8953 59.8295 54.8248 59.8295 54.8248C59.5367 54.9518 59.2366 55.0612 58.9308 55.1525C58.3086 55.3548 58.242 55.4752 58.1908 55.6493L58.0986 55.9642L64.4614 53.7263C64.4614 53.7263 64.4922 53.5983 64.5178 53.4268Z" fill="#37474F"/>
<path d="M63.8478 54.3814C63.2589 54.6374 63.0157 54.7782 62.926 55.2033C62.8262 55.6872 62.8057 55.8895 62.8057 55.8895L59.4924 57.1953C59.4924 57.1953 59.6717 56.481 59.7152 56.2428C59.7587 56.0047 59.3209 56.0047 58.7473 56.2684L58.883 55.6744L64.0373 53.7617L63.8478 54.3814Z" fill="#37474F"/>
<path d="M63.9444 55.6863C63.9444 55.6863 63.993 55.4635 64.0494 55.187C64.1057 54.9104 63.3734 55.0564 62.4132 55.5096L60.16 56.1907C59.1998 56.6439 58.2908 56.9819 58.2345 57.2558L58.1321 57.7679L63.9444 55.6863Z" fill="#37474F"/>
<path d="M66.1454 57.7168C66.1454 57.7168 65.7024 59.3452 65.5846 59.7652C65.4668 60.1851 63.4236 61.1197 62.4019 61.2477C60.4457 61.4909 60.2229 61.9134 60.6915 63.2961C61.1268 64.5763 62.3994 65.0628 64.1661 64.8554C64.9957 64.7581 66.1402 64.0232 66.5909 62.7404C67.1644 61.1017 66.8469 59.3529 67.0851 58.3876C67.3232 57.4223 66.6421 57.1458 66.1454 57.7168Z" fill="#FFA8A7"/>
<path d="M46.8037 80.1131L45.4799 80.8813L44.9243 81.2013L37.6423 85.4031L36.6488 85.9664L34.9717 86.9342L35.4838 81.7083L36.4619 71.5892V71.4843L36.508 71.0311L37.7882 57.801L38.349 52.0117L38.5461 49.9352L38.6127 49.2643H38.6485C39.2416 49.0994 39.8683 49.0994 40.4614 49.2643C40.5936 49.3044 40.7221 49.3558 40.8454 49.418C41.6136 49.7995 42.1257 50.542 42.5507 51.323C42.6552 51.5131 42.7492 51.7089 42.8324 51.9093C43.1481 52.6682 43.3915 53.4552 43.5596 54.2598C43.895 55.7449 44.3277 57.2633 44.4993 59.6574C44.5263 60.2736 44.4937 60.891 44.402 61.5009C44.2866 63.1148 44.2669 64.7342 44.3431 66.3505C44.5581 70.012 45.4799 71.6712 46.8037 80.1131Z" fill="#E0E0E0"/>
<path d="M44.9234 81.1952L37.6414 85.3969L36.6479 85.9654L34.9708 86.9332L33.816 87.5989L26.8054 91.6445C26.8797 88.828 26.913 85.7733 26.8464 82.8876C26.8259 81.9223 26.8182 80.9366 26.8592 79.9277C26.9923 76.425 27.6581 72.6687 30.0444 68.7153L30.1545 68.5156C30.4362 70.1876 32.9967 71.2733 35.3011 71.5293L35.5572 71.5524C35.8465 71.5805 36.1461 71.5933 36.4559 71.5933H36.6505C38.599 71.5754 40.906 71.1171 43.5638 70.2183C43.8199 71.7034 44.0759 73.652 44.3499 75.9308C44.4728 76.955 44.5974 78.0466 44.7237 79.2057C44.7749 79.8535 44.8543 80.5166 44.9234 81.1952Z" fill="#FFA8A7"/>
<path d="M45.4796 80.8759L44.924 81.196L37.642 85.3977L36.6485 85.9662L34.9714 86.934L33.8166 87.5998L26.806 91.6453L26.0378 92.0883C26.0762 89.0567 26.1019 86.0865 26.0993 84.2225C26.0993 82.489 26.1377 80.9476 26.2324 79.5803C26.4194 76.8816 26.8085 74.8511 27.4589 73.3148C28.222 71.6334 29.1248 70.0189 30.1577 68.4883C30.1577 68.4883 30.7978 70.6493 35.5859 70.9899H35.6166C35.8983 71.0104 36.1953 71.0232 36.5077 71.0283H36.8713C42.8321 71.0283 43.4901 69.5253 43.4901 69.5253C44.0724 71.7354 44.5332 73.9758 44.8702 76.2363C44.9965 77.0352 45.1186 77.8887 45.2364 78.7968C45.3234 79.4625 45.4054 80.1539 45.4796 80.8759Z" fill="#0071CE"/>
<path opacity="0.4" d="M45.4796 80.8759L44.924 81.196L37.642 85.3977L36.6485 85.9662L34.9714 86.934L33.8166 87.5998L26.806 91.6453L26.0378 92.0883C26.0762 89.0567 26.1019 86.0865 26.0993 84.2225C26.0993 82.489 26.1377 80.9476 26.2324 79.5803C26.4194 76.8816 26.8085 74.8511 27.4589 73.3148C28.222 71.6334 29.1248 70.0189 30.1577 68.4883C30.1577 68.4883 30.7978 70.6493 35.5859 70.9899H35.6166C35.8983 71.0104 36.1953 71.0232 36.5077 71.0283H36.8713C42.8321 71.0283 43.4901 69.5253 43.4901 69.5253C44.0724 71.7354 44.5332 73.9758 44.8702 76.2363C44.9965 77.0352 45.1186 77.8887 45.2364 78.7968C45.3234 79.4625 45.4054 80.1539 45.4796 80.8759Z" fill="black"/>
<path opacity="0.2" d="M42.0625 77.4766C42.0625 77.4766 41.3968 79.5915 38.5956 80.777L38.4625 81.4248L37.6431 85.3962L36.6497 85.9646L37.2437 81.5836L37.4997 79.6786C39.2309 79.499 40.8449 78.7201 42.0625 77.4766Z" fill="black"/>
<path d="M33.5424 49.875L30.7258 50.172C28.8618 50.6278 28.0194 51.4523 27.8274 53.0987C27.7377 53.8668 27.2743 55.9152 27.9247 58.4757C28.5136 60.8006 30.0857 66.49 30.0857 66.49C30.0857 66.49 26.4677 71.2115 25.8123 79.3078C32.4337 83.6299 42.5911 81.3076 45.3385 78.6959C45.1081 76.2224 43.5283 69.4346 43.3311 67.23C43.3311 67.23 43.4771 63.7861 43.751 62.2934C45.8455 60.0069 45.5792 57.8202 44.6395 56.056C42.9035 52.7991 40.2867 49.9365 39.4392 49.939L33.5424 49.875Z" fill="#0071CE"/>
<path opacity="0.7" d="M33.5424 49.875L30.7258 50.172C28.8618 50.6278 28.0194 51.4523 27.8274 53.0987C27.7377 53.8668 27.2743 55.9152 27.9247 58.4757C28.5136 60.8006 30.0857 66.49 30.0857 66.49C30.0857 66.49 26.4677 71.2115 25.8123 79.3078C32.4337 83.6299 42.5911 81.3076 45.3385 78.6959C45.1081 76.2224 43.5283 69.4346 43.3311 67.23C43.3311 67.23 43.4771 63.7861 43.751 62.2934C45.8455 60.0069 45.5792 57.8202 44.6395 56.056C42.9035 52.7991 40.2867 49.9365 39.4392 49.939L33.5424 49.875Z" fill="white"/>
<path d="M35.9836 67.5037C35.9836 67.5549 35.9836 67.601 35.9836 67.6394V67.706C35.9852 67.7273 35.9852 67.7487 35.9836 67.77C35.8863 68.7942 35.7711 69.8824 35.6482 70.9911C35.6482 70.9911 35.6482 70.9911 35.6482 71.0064C35.6302 71.1857 35.6097 71.3649 35.5893 71.5467C35.2129 74.8881 34.7648 78.46 34.4191 81.7119C34.3346 82.5005 34.2578 83.2686 34.1887 84.0163C34.0811 85.1352 33.9659 86.3617 33.8481 87.601L26.8375 91.6465L26.0694 92.0895L24.1106 93.2187C24.5049 89.3395 25.4241 80.3522 25.9362 76.2964C25.9951 75.8381 26.0719 75.3798 26.159 74.924L26.2281 74.5911L26.2588 74.4554C26.2921 74.3018 26.3254 74.1533 26.3613 74.0022C26.3971 73.8511 26.4304 73.7231 26.4637 73.5874C26.5431 73.2776 26.6276 72.9729 26.7197 72.6759C26.7633 72.5325 26.8042 72.3891 26.8503 72.2483C26.8964 72.1075 26.9348 71.9666 26.9809 71.8284C27.0731 71.5518 27.1627 71.2804 27.2574 71.0167C27.2563 71.0116 27.2563 71.0064 27.2574 71.0013C27.301 70.8759 27.3471 70.7453 27.3931 70.6275C27.4546 70.4534 27.5186 70.2844 27.5826 70.1154L27.6594 69.9131C27.6978 69.8209 27.7311 69.7313 27.767 69.6417C27.8924 69.3268 28.023 69.0272 28.1382 68.7481C28.1638 68.6866 28.192 68.6252 28.2176 68.5663C28.2432 68.5074 28.2842 68.4204 28.3149 68.3487C28.3917 68.1694 28.4685 68.003 28.5428 67.8366C28.5735 67.7649 28.6068 67.6957 28.6375 67.6292C28.6683 67.5626 28.7118 67.4755 28.7451 67.4038L28.7937 67.3014L28.8449 67.2016C28.8483 67.1885 28.8544 67.1762 28.8629 67.1657C28.8698 67.1471 28.8784 67.1291 28.8885 67.1119C28.8947 67.1005 28.8998 67.0885 28.9038 67.0761C28.9251 67.0399 28.944 67.0022 28.9602 66.9634L29.1317 66.6306C29.1317 66.6126 29.1496 66.5998 29.1548 66.5845L29.2213 66.4616L27.091 57.6279L26.031 53.2392V53.1675C26.0796 52.7783 26.4048 50.9425 28.2791 50.3843C29.3372 50.1111 30.4211 49.9498 31.513 49.9029C31.9329 49.8773 32.3118 49.8671 32.6217 49.8594H33.1107H33.4052C33.4058 49.8653 33.4058 49.8713 33.4052 49.8773C33.4205 49.9157 33.4641 50.0309 33.5306 50.2102C33.5378 50.2402 33.5481 50.2693 33.5614 50.2972C33.5616 50.3015 33.5616 50.3058 33.5614 50.31C34.0222 51.5749 35.3153 55.2569 35.958 58.4549C36.0706 59.008 36.1628 59.5483 36.2294 60.0604C36.4214 61.6607 36.2806 64.3389 35.9836 67.5037Z" fill="#FAFAFA"/>
<path d="M29.2909 62.232C29.2909 62.232 29.5469 60.9697 29.9233 58.2427C30.3611 55.0985 30.2049 53.5443 29.7313 52.5508L27.0607 57.6436L29.191 66.4773C29.191 66.4773 27.0018 70.487 26.1184 74.9269C28.2129 69.0096 30.5045 67.2454 30.5045 67.2454L29.2909 62.232Z" fill="#E6E6E6"/>
<path d="M38.6462 47.9023C39.4758 47.9023 39.5731 48.0406 40.2875 48.9982C40.7126 49.5692 43.4036 54.0117 43.4036 54.0117C43.4036 54.0117 41.2631 51.1951 39.6474 50.3399C39.3364 50.1576 38.9998 50.023 38.6488 49.9405L38.6462 47.9023Z" fill="#EBEBEB"/>
<path d="M32.5106 57.3436C32.5106 57.0876 32.485 56.5345 32.4415 55.8381C32.229 52.4224 32.1266 49.3498 33.2788 49.0938L33.3786 49.5649C32.5388 49.7467 32.8153 54.143 32.9203 55.7971C32.9664 56.5089 33.0023 57.0774 32.9895 57.3539L32.5106 57.3436Z" fill="#0071CE"/>
<path d="M28.6707 34.98L30.463 36.4472C30.5604 36.3357 30.6341 36.2054 30.6794 36.0645C30.7248 35.9235 30.7409 35.7747 30.7267 35.6273C30.7126 35.4799 30.6685 35.3369 30.5972 35.2071C30.5259 35.0773 30.4288 34.9635 30.3119 34.8725C30.0763 34.6776 29.7751 34.5802 29.4699 34.6002C29.1648 34.6202 28.8789 34.7561 28.6707 34.98Z" fill="#263238"/>
<path d="M33.3521 48.1215C33.3521 46.9974 30.7327 45.3049 29.3807 42.9416C28.0288 40.5783 28.7048 36.6915 30.5586 36.0949C30.5739 36.0949 30.6251 35.5956 30.6328 35.5597C30.7353 35.1088 30.9081 34.6767 31.1449 34.2795C31.9003 32.9788 33.5006 31.975 34.9856 31.7651C40.8568 30.9099 43.5556 33.1913 44.6336 35.7006C44.983 36.5447 45.1387 37.4564 45.0893 38.3686C45.0591 39.0386 44.8105 39.6803 44.3815 40.1958C43.9525 40.7112 43.3666 41.0722 42.7132 41.2235L33.3521 48.1215Z" fill="#263238"/>
<path d="M41.4966 34.8594C42.6463 35.3715 43.7396 37.1203 43.7217 42.0415C43.7063 46.2151 42.4261 47.2701 41.7808 47.5799C41.1356 47.8897 39.8733 47.7309 38.6468 47.544V49.9406C38.6468 49.9406 39.566 50.8445 39.2434 51.4129C38.9208 51.9814 37.7301 52.4627 35.8789 51.8815C33.7819 51.2235 33.3031 49.8331 33.3031 49.8331L33.2544 44.5739C33.2544 44.5739 32.5503 45.3138 31.3084 44.2282C30.2842 43.3295 29.9155 41.7906 30.6862 40.9457C31.4569 40.1007 32.4453 40.0341 33.3363 40.9789L33.9765 40.641C35.1184 40.5078 36.793 40.3158 38.0272 39.6936C41.1919 38.083 41.5197 36.3368 41.4966 34.8594Z" fill="#FFA8A7"/>
<path d="M33.3545 40.3008L33.3699 42.6052C33.5178 42.6091 33.6651 42.5828 33.8025 42.5277C33.9399 42.4726 34.0646 42.39 34.1689 42.285C34.2732 42.1799 34.355 42.0547 34.4091 41.9169C34.4632 41.7791 34.4886 41.6317 34.4837 41.4837C34.4809 41.18 34.3626 40.8887 34.1529 40.669C33.9432 40.4493 33.6577 40.3177 33.3545 40.3008Z" fill="#263238"/>
<path d="M41.6038 40.6286C41.6048 40.7369 41.6377 40.8425 41.6982 40.9323C41.7587 41.0221 41.8443 41.0921 41.9442 41.1337C42.0442 41.1753 42.1542 41.1867 42.2605 41.1664C42.3669 41.1461 42.4649 41.095 42.5425 41.0195C42.6201 40.944 42.6738 40.8473 42.697 40.7416C42.7202 40.6358 42.7118 40.5256 42.673 40.4245C42.6341 40.3235 42.5664 40.236 42.4783 40.1731C42.3902 40.1102 42.2855 40.0745 42.1773 40.0705C42.1028 40.0688 42.0287 40.0819 41.9594 40.1092C41.89 40.1364 41.8268 40.1772 41.7734 40.2292C41.72 40.2812 41.6775 40.3433 41.6484 40.4118C41.6192 40.4804 41.6041 40.5541 41.6038 40.6286Z" fill="black"/>
<path d="M37.1875 40.8744C37.183 40.9538 37.1942 41.0333 37.2205 41.1084C37.2468 41.1834 37.2876 41.2525 37.3407 41.3117C37.3937 41.371 37.4579 41.4191 37.5296 41.4535C37.6013 41.4879 37.6791 41.5078 37.7585 41.512C37.8391 41.5127 37.919 41.4974 37.9936 41.4671C38.0683 41.4369 38.1363 41.3921 38.1936 41.3355C38.2509 41.2789 38.2965 41.2115 38.3278 41.1372C38.359 41.0629 38.3752 40.9832 38.3756 40.9026C38.3781 40.8246 38.3652 40.7469 38.3377 40.6738C38.3102 40.6008 38.2685 40.5339 38.2151 40.4769C38.1618 40.42 38.0977 40.3741 38.0266 40.3419C37.9555 40.3098 37.8787 40.2919 37.8007 40.2894C37.7227 40.2869 37.645 40.2997 37.5719 40.3272C37.4989 40.3548 37.432 40.3964 37.3751 40.4498C37.3181 40.5032 37.2722 40.5672 37.2401 40.6383C37.2079 40.7094 37.19 40.7862 37.1875 40.8642V40.8744Z" fill="black"/>
<path d="M43.0673 39.5948L41.6411 39.0289C41.6741 38.933 41.7265 38.8449 41.7951 38.7701C41.8637 38.6953 41.947 38.6355 42.0398 38.5944C42.1326 38.5534 42.2328 38.5318 42.3343 38.5313C42.4357 38.5307 42.5362 38.5511 42.6295 38.5911C42.8174 38.6702 42.9677 38.8185 43.0492 39.0054C43.1307 39.1922 43.1372 39.4033 43.0673 39.5948Z" fill="black"/>
<path d="M40.2519 40.1758L40.1802 43.5915L42.016 43.1844L40.2519 40.1758Z" fill="#F28F8F"/>
<path d="M38.0882 44.2891L39.8806 44.8447C39.8545 44.9669 39.8036 45.0824 39.731 45.1841C39.6584 45.2858 39.5657 45.3714 39.4586 45.4358C39.3515 45.5001 39.2323 45.5418 39.1085 45.5581C38.9846 45.5745 38.8587 45.5652 38.7386 45.5309C38.4926 45.4454 38.2885 45.2694 38.1677 45.0387C38.0469 44.808 38.0185 44.5399 38.0882 44.2891Z" fill="#B16668"/>
<path d="M39.0799 45.5592C39.0778 45.3099 38.9774 45.0716 38.8004 44.8961C38.6235 44.7205 38.3843 44.622 38.135 44.622C38.1103 44.6208 38.0855 44.6208 38.0608 44.622C38.07 44.8221 38.1391 45.0148 38.2592 45.175C38.3793 45.3353 38.5448 45.4558 38.7342 45.5208C38.8455 45.5575 38.9632 45.5706 39.0799 45.5592Z" fill="#F28F8F"/>
<path d="M38.6461 47.5574C37.3531 47.4038 34.6876 46.6612 34.2549 45.5781C34.4283 46.1218 34.761 46.6008 35.2099 46.9531C36.0139 47.6444 38.6461 48.3639 38.6461 48.3639V47.5574Z" fill="#F28F8F"/>
<path d="M33.2892 47.9184C32.9513 47.8493 32.6517 47.9978 32.3752 48.4638C32.0986 48.9298 31.4918 49.9233 31.4918 49.9233C31.4918 49.9233 31.1768 53.1982 31.4918 54.0201C31.7632 54.7268 34.7564 57.3769 34.7564 57.3769C34.7564 57.3769 33.9755 60.3189 33.9473 61.2842C33.9191 62.2495 35.7396 65.9135 35.9598 67.7878C35.9598 67.7878 36.6076 61.8987 36.3285 59.7761C35.8472 56.0966 34.1214 51.3444 33.3072 49.8337L33.2892 47.9184Z" fill="#EBEBEB"/>
<path d="M35.1202 60.1042C34.9205 59.6288 34.6851 59.1692 34.4161 58.7292C33.991 58.0251 33.4661 57.3491 32.9924 57.175C32.9206 57.1465 32.8444 57.1309 32.7671 57.1289H32.7415C32.6635 57.1333 32.5871 57.1524 32.5162 57.1852C32.1424 57.3517 31.7481 57.8612 31.428 58.4476C31.1002 59.0364 30.8301 59.6555 30.6214 60.2962C30.4985 60.6931 30.5523 61.5355 30.6983 62.4982C30.985 64.3674 31.6226 66.7026 31.9785 67.1635C32.2394 67.4855 32.5476 67.7661 32.8926 67.9956C32.6813 68.1354 32.4534 68.248 32.2141 68.331C32.0787 68.3804 31.9357 68.4056 31.7916 68.4053V68.7407H31.8325C31.9848 68.7383 32.1358 68.7133 32.2806 68.6665C32.6163 68.5576 32.9332 68.3978 33.2203 68.1928C33.5235 68.3733 33.8525 68.5062 34.1959 68.5871C34.3576 68.6259 34.5248 68.6363 34.6901 68.6178L34.6491 68.285C34.5057 68.2971 34.3613 68.2858 34.2215 68.2517C33.9752 68.1874 33.7378 68.0928 33.5148 67.97C33.8397 67.7113 34.1245 67.4059 34.3598 67.0636C34.5595 66.7589 34.8053 65.7091 34.9896 64.5031C35.1023 63.7836 35.1945 63.0103 35.2457 62.3062C35.302 61.323 35.2764 60.4806 35.1202 60.1042ZM34.0627 66.8792C33.8225 67.2258 33.5276 67.531 33.1896 67.7831C32.8305 67.5613 32.5104 67.2819 32.2422 66.9561C31.9094 66.5233 31.2948 64.2445 31.0183 62.447C30.8775 61.5381 30.8263 60.752 30.9389 60.3986C31.1477 59.7501 31.4241 59.1254 31.7634 58.5346C32.1168 57.9252 32.4932 57.4771 32.7543 57.4669C33.0641 57.4669 33.566 58.0276 34.0346 58.7471C34.1293 58.888 34.2189 59.0416 34.306 59.1952C34.497 59.5261 34.668 59.8681 34.8181 60.2194C34.9589 60.5676 34.9743 61.3537 34.9103 62.2678C34.8744 62.7799 34.8181 63.315 34.7464 63.8476C34.5518 65.238 34.2778 66.5413 34.0627 66.8716V66.8792Z" fill="#455A64"/>
<path d="M35.1486 68.4193C35.1526 68.5171 35.1275 68.6138 35.0764 68.6972C35.0254 68.7807 34.9508 68.8471 34.862 68.8881C34.7732 68.9291 34.6742 68.9429 34.5776 68.9276C34.481 68.9123 34.3911 68.8687 34.3193 68.8023C34.2474 68.7358 34.197 68.6496 34.1742 68.5545C34.1514 68.4593 34.1574 68.3596 34.1914 68.2679C34.2254 68.1761 34.2858 68.0966 34.365 68.0392C34.4443 67.9818 34.5387 67.9493 34.6365 67.9457C34.7671 67.9408 34.8944 67.9879 34.9904 68.0767C35.0864 68.1655 35.1433 68.2887 35.1486 68.4193Z" fill="#263238"/>
<path d="M32.2788 68.5536C32.2833 68.6514 32.2587 68.7484 32.208 68.8321C32.1573 68.9159 32.0828 68.9827 31.9941 69.0241C31.9054 69.0655 31.8063 69.0796 31.7096 69.0647C31.6128 69.0497 31.5227 69.0063 31.4506 68.94C31.3785 68.8737 31.3278 68.7875 31.3048 68.6923C31.2818 68.5971 31.2877 68.4972 31.3215 68.4054C31.3554 68.3135 31.4158 68.2337 31.4951 68.1763C31.5743 68.1188 31.6689 68.0861 31.7667 68.0825C31.8313 68.0797 31.8958 68.0897 31.9565 68.1119C32.0172 68.1341 32.0729 68.1681 32.1205 68.2119C32.1681 68.2556 32.2065 68.3083 32.2337 68.367C32.2609 68.4256 32.2762 68.489 32.2788 68.5536Z" fill="#263238"/>
<path d="M35.2043 62.3L34.9201 62.2795C34.8911 62.2769 34.8643 62.2632 34.8452 62.2413C34.8261 62.2193 34.8162 62.1908 34.8177 62.1618C34.8766 61.2221 34.8459 60.5307 34.7306 60.2542C34.2339 59.0405 33.1943 57.5196 32.7565 57.5375C32.3186 57.5554 31.4122 59.1609 31.0179 60.4104C30.9283 60.6972 30.9565 61.3885 31.0922 62.3205C31.0966 62.349 31.0898 62.3781 31.073 62.4016C31.0562 62.425 31.0309 62.441 31.0026 62.446L30.7209 62.4895C30.6914 62.4931 30.6616 62.4849 30.6381 62.4667C30.6146 62.4485 30.5993 62.4217 30.5954 62.3922C30.4392 61.3475 30.4213 60.6306 30.5391 60.2593C30.7491 59.5885 31.74 57.0766 32.736 57.0357C33.732 56.9947 34.9329 59.4118 35.1992 60.0647C35.3451 60.4232 35.3887 61.1401 35.3221 62.1925C35.3201 62.2221 35.3068 62.2499 35.2848 62.2699C35.2629 62.29 35.234 62.3008 35.2043 62.3Z" fill="#0071CE"/>
<path d="M27.7629 51.1239C26.0329 51.8457 25.4928 52.7716 25.0402 54.7042C24.6817 56.2381 24.0507 63.9565 23.7331 66.2688L16.249 65.6752C14.6518 65.3639 13.6713 64.1994 12.5534 63.7571C11.4355 63.3148 10.562 63.509 9.42612 63.2366C8.29023 62.9642 7.72369 62.6137 7.74059 63.3243C7.75749 64.035 9.13406 64.5962 9.42027 64.7591C9.70648 64.9219 10.8938 65.0433 9.66535 65.602C8.43689 66.1607 5.43002 65.948 4.73461 65.9806C4.0392 66.0132 4.38482 66.7088 4.8769 67.036C5.36898 67.3632 5.91632 68.6553 6.73622 69.183C7.60374 69.743 8.03961 69.9606 9.4292 69.9629C10.7182 69.9589 13.0764 69.1529 14.5431 69.3703C16.0098 69.5876 19.9741 70.8798 22.3755 71.6447C25.4288 72.6165 27.1065 72.306 27.829 70.6076C28.4773 68.8354 29.0478 66.8401 29.3144 65.838C30.0318 63.1361 30.5594 57.4716 30.5594 57.4716C30.5594 57.4716 30.626 54.6487 27.7629 51.1239Z" fill="#FFA8A7"/>
<path d="M27.9257 50.8499C25.3961 51.9543 25.0401 53.1994 24.6678 55.8792C24.2956 58.559 23.615 66.0616 23.615 66.0616L17.7361 65.6444C17.7361 65.6444 17.7027 67.9164 17.641 70.2707C17.641 70.2707 21.3734 71.435 23.1393 71.9855C24.9051 72.5361 26.9841 72.6649 27.9655 70.6188C29.0148 68.4341 31.181 58.5172 31.181 58.5172C31.4498 55.6004 29.6049 52.1619 27.9257 50.8499Z" fill="#F0F0F0"/>
<path d="M23.6151 66.0625C24.7982 66.6412 26.1957 67.2631 26.5089 68.0959C26.5089 68.0959 26.7284 67.1395 23.686 65.2968L23.6151 66.0625Z" fill="#E0E0E0"/>
</g>
</g>
<defs>
<filter id="filter0_d_436_38555" x="2.34253" y="12.5" width="67.1914" height="93.5117" filterUnits="userSpaceOnUse" color-interpolation-filters="sRGB">
<feFlood flood-opacity="0" result="BackgroundImageFix"/>
<feColorMatrix in="SourceAlpha" type="matrix" values="0 0 0 0 0 0 0 0 0 0 0 0 0 0 0 0 0 0 127 0" result="hardAlpha"/>
<feOffset dy="2"/>
<feGaussianBlur stdDeviation="1"/>
<feComposite in2="hardAlpha" operator="out"/>
<feColorMatrix type="matrix" values="0 0 0 0 0 0 0 0 0 0 0 0 0 0 0 0 0 0 0.25 0"/>
<feBlend mode="normal" in2="BackgroundImageFix" result="effect1_dropShadow_436_38555"/>
<feBlend mode="normal" in="SourceGraphic" in2="effect1_dropShadow_436_38555" result="shape"/>
</filter>
<clipPath id="clip0_436_38555">
<path d="M0 55.5C0 24.8482 24.8482 0 55.5 0H61C65.4183 0 69 3.58172 69 8V103C69 107.418 65.4183 111 61 111H55.5C24.8482 111 0 86.1518 0 55.5Z" fill="white"/>
</clipPath>
</defs>
</svg>
