<svg width="69" height="111" viewBox="0 0 69 111" fill="none" xmlns="http://www.w3.org/2000/svg">
<g clip-path="url(#clip0_3295_18519)">
<path d="M0 55.5C0 24.8482 24.8482 0 55.5 0H61C65.4183 0 69 3.58172 69 8V103C69 107.418 65.4183 111 61 111H55.5C24.8482 111 0 86.1518 0 55.5Z" fill="white"/>
<g filter="url(#filter0_d_3295_18519)">
<path d="M31.5754 57.9801C34.0477 55.4316 38.155 49.4891 38.155 49.4891L40.6875 40.7296C40.7476 40.7536 39.3972 40.7576 38.9885 40.7296C36.2516 40.9139 35.4462 41.1303 33.7432 43.0096C32.3928 44.4882 27.396 52.258 25.6008 54.6302L20.6881 47.8422C19.5501 46.1191 19.7344 44.1917 19.1413 42.7812C18.5483 41.3707 17.5946 40.7536 16.8293 39.4834C16.0639 38.2131 15.8796 37.3796 15.2505 38.0288C14.6213 38.6779 15.3466 40.4331 15.4428 40.8338C15.539 41.2345 16.4927 42.4366 14.8938 41.8035C13.295 41.1704 10.8186 38.2532 10.1775 37.6561C9.53634 37.0591 9.20375 37.9847 9.348 38.718C9.49226 39.4513 8.80305 41.1223 9.05549 42.3244C9.31996 43.6107 9.5083 44.1997 10.7465 45.4459C11.9045 46.612 14.7295 48.0385 15.8355 49.5652C16.9415 51.0919 19.3016 55.8363 20.7442 58.6974C22.5794 62.3318 24.591 64.3995 26.9632 62.3679C28.7824 60.7851 30.6577 58.9258 31.5754 57.9801Z" fill="#FFBDA7"/>
<path d="M37.8979 40.6641C35.8022 40.8564 34.6923 41.3332 32.6006 44.0741C30.5089 46.815 25.6523 54.0317 25.6523 54.0317L21.4568 48.8986C21.4568 48.8986 18.5677 51.0985 17.049 53.6711C17.049 53.6711 21.1082 60.4832 22.7351 62.2022C24.362 63.9212 25.6202 64.0575 27.8321 62.2022C30.044 60.3469 36.4233 53.3105 36.4233 53.3105L37.8979 40.6641Z" fill="#F0F0F0"/>
<path d="M25.6528 54.0301C26.6025 55.4045 27.2156 57.6365 27.0473 58.7625C27.0473 58.7625 28.3696 57.2398 26.1457 53.3008L25.6528 54.0301Z" fill="#E0E0E0"/>
<path d="M56.3354 75.0709C56.4276 79.6951 57.4093 110.297 57.4093 110.297C57.7487 112.798 57.9507 115.316 58.0144 117.839C58.1427 123.953 56.8604 138.467 56.8604 138.467C56.5759 139.785 51.6512 140.322 50.998 139.132C50.998 139.132 48.3052 118.079 47.5399 112.028C46.8747 106.747 44.6748 89.4764 44.6748 89.4764L42.9758 106.446C43.0408 108.424 42.9939 110.404 42.8355 112.377C42.6392 115.182 41.2327 131.687 41.2327 131.687C41.2087 132.717 36.0876 133.566 35.2221 132.052C35.2221 132.052 33.6192 107.945 33.5511 105.377C33.495 102.447 33.9037 74.7383 33.9037 74.7383L56.3354 75.0709Z" fill="#37474F"/>
<path d="M44.1536 83.0021C42.2102 82.2495 40.4385 81.1129 38.9444 79.6602C38.9444 79.6602 39.7738 82.0644 43.1759 84.068L42.9515 105.185L44.6665 89.4695L44.1536 83.0021Z" fill="#263238"/>
<path d="M48.6568 40.144C49.5183 40.3483 52.2631 41.0896 54.4911 41.875C55.6145 42.3039 56.589 43.0501 57.2961 44.0228C58.8989 46.383 57.4563 51.6363 56.2662 61.5098C56.3544 67.8891 56.5387 75.8231 56.5387 75.8231C53.6055 77.9589 39.9213 79.4095 33.7464 74.9015C33.7464 74.9015 33.542 50.9591 33.9507 47.8456C34.7521 41.883 37.0642 40.2922 41.8808 40.0117L48.6568 40.144Z" fill="#0071CE"/>
<path opacity="0.6" d="M48.6568 40.144C49.5183 40.3483 52.2631 41.0896 54.4911 41.875C55.6145 42.3039 56.589 43.0501 57.2961 44.0228C58.8989 46.383 57.4563 51.6363 56.2662 61.5098C56.3544 67.8891 56.5387 75.8231 56.5387 75.8231C53.6055 77.9589 39.9213 79.4095 33.7464 74.9015C33.7464 74.9015 33.542 50.9591 33.9507 47.8456C34.7521 41.883 37.0642 40.2922 41.8808 40.0117L48.6568 40.144Z" fill="white"/>
<path d="M40.246 47.1423C39.8132 48.633 37.2527 59.1075 37.6133 62.794C37.8881 64.6858 38.3997 66.5356 39.136 68.2998C40.246 70.9244 40.9873 68.5763 41.6044 67.0255C42.1264 65.5797 42.4761 64.0773 42.6462 62.5496C42.8506 60.5701 42.0532 54.5554 42.3617 47.503C42.1288 47.1748 41.7751 46.9525 41.3784 46.8849C40.9818 46.8173 40.5744 46.9099 40.246 47.1423Z" fill="#0071CE"/>
<path opacity="0.2" d="M40.246 47.1423C39.8132 48.633 37.2527 59.1075 37.6133 62.794C37.8881 64.6858 38.3997 66.5356 39.136 68.2998C40.246 70.9244 40.9873 68.5763 41.6044 67.0255C42.1264 65.5797 42.4761 64.0773 42.6462 62.5496C42.8506 60.5701 42.0532 54.5554 42.3617 47.503C42.1288 47.1748 41.7751 46.9525 41.3784 46.8849C40.9818 46.8173 40.5744 46.9099 40.246 47.1423Z" fill="black"/>
<path d="M40.1493 43.7745C39.1355 44.64 40.2454 47.1365 40.2454 47.1365C40.9708 46.9801 41.7286 47.1093 42.3612 47.4971C42.3612 47.4971 44.3647 46.6356 44.3848 45.1369C44.3848 43.7745 42.9382 44.2113 41.9084 44.031C40.8305 43.8426 40.2695 43.0452 40.1493 43.7745Z" fill="#0071CE"/>
<path opacity="0.2" d="M40.1493 43.7745C39.1355 44.64 40.2454 47.1365 40.2454 47.1365C40.9708 46.9801 41.7286 47.1093 42.3612 47.4971C42.3612 47.4971 44.3647 46.6356 44.3848 45.1369C44.3848 43.7745 42.9382 44.2113 41.9084 44.031C40.8305 43.8426 40.2695 43.0452 40.1493 43.7745Z" fill="black"/>
<path opacity="0.2" d="M40.2458 47.1437C40.4101 46.5586 41.2075 46.6147 41.8487 46.4144C42.2081 46.2718 42.5089 46.012 42.7022 45.6771C43.0307 45.1121 42.7022 44.1744 42.2454 44.0742C43.2271 44.1423 44.3932 43.9179 44.3891 45.1401C44.3891 46.6388 42.3656 47.5003 42.3656 47.5003C41.7313 47.1128 40.972 46.985 40.2458 47.1437Z" fill="black"/>
<path d="M47.2143 26.3037C47.1791 27.535 46.78 28.7283 46.0673 29.733C45.3547 30.7377 44.3604 31.5088 43.2099 31.949C42.0595 32.3892 40.8044 32.4787 39.6031 32.2064C38.4018 31.934 37.3081 31.3119 36.4599 30.4186C35.6118 29.5252 35.0473 28.4007 34.8377 27.1869C34.628 25.973 34.7826 24.7243 35.2819 23.5983C35.7813 22.4722 36.6029 21.5193 37.6433 20.8597C38.6836 20.2002 39.896 19.8635 41.1275 19.8923C41.9488 19.9115 42.7582 20.0928 43.5092 20.4258C44.2602 20.7589 44.9379 21.237 45.5036 21.8328C46.0692 22.4286 46.5115 23.1302 46.8051 23.8975C47.0987 24.6648 47.2377 25.4825 47.2143 26.3037Z" fill="#455A64"/>
<path d="M51.6509 30.832C51.6509 30.832 50.5249 35.5524 50.1041 36.3218C49.8252 36.7957 49.3747 37.1443 48.8459 37.2955L48.9942 33.9576L51.6509 30.832Z" fill="#455A64"/>
<path d="M50.5452 24.001C50.8976 23.9703 51.2523 24.0199 51.5827 24.1463C51.9132 24.2726 52.2106 24.4723 52.4525 24.7303C53.254 25.5999 52.737 28.2486 51.6511 30.8331L49.7437 31.0055L50.5452 24.001Z" fill="#455A64"/>
<path d="M49.1697 30.9945C49.5464 31.2309 50.1073 30.5096 50.5922 30.0288C51.0771 29.5479 52.6238 28.9148 53.3531 30.5457C54.0824 32.1766 52.5837 34.3484 51.3496 34.701C49.2498 35.3061 48.9693 33.9597 48.9693 33.9597L48.6127 42.4708C47.1261 44.286 43.6279 44.3862 41.8928 44.0336C40.5063 43.7531 40.4863 42.7713 41.8527 41.2647L41.9168 38.8243C40.9874 38.9515 40.047 38.9784 39.1119 38.9045C37.5852 38.628 36.6435 37.3978 36.2228 35.7269C35.5816 33.1743 35.4213 30.3253 36.0665 25.661C36.8679 19.9269 43.5798 20.0511 47.1341 22.3872C50.6884 24.7234 49.1697 30.9945 49.1697 30.9945Z" fill="#FFBDA7"/>
<path d="M49.1539 31.6344C49.3463 31.6344 50.1076 30.4322 50.5925 30.0315C51.2617 29.4505 50.5444 24.0209 50.5444 24.0209C50.7803 23.5477 50.8682 23.0144 50.7968 22.4905C50.7253 21.9666 50.4977 21.4764 50.1437 21.0837C49.2661 20.0699 48.04 18.8277 43.9367 19.2124C41.0115 19.4889 37.8139 20.3223 35.2814 19C35.0234 19.8309 35.0195 20.7199 35.2701 21.5531C35.5207 22.3862 36.0144 23.1255 36.6879 23.6763C36.6879 23.6763 37.6055 24.2974 40.0378 24.65C42.4701 25.0026 46.2849 24.7422 46.8058 24.6861C47.515 24.6059 47.6513 25.2951 47.9879 27.1785C48.3004 28.8134 48.5088 31.6063 49.1539 31.6344Z" fill="#455A64"/>
<path d="M50.5285 24.4252L52.8687 23.2231C52.7987 23.0657 52.6974 22.9241 52.5711 22.8071C52.4447 22.69 52.2958 22.5999 52.1335 22.5422C51.9712 22.4845 51.7989 22.4604 51.627 22.4713C51.4551 22.4823 51.2872 22.5281 51.1336 22.606C50.8164 22.7714 50.5759 23.0537 50.463 23.3932C50.3501 23.7327 50.3736 24.1027 50.5285 24.4252Z" fill="#455A64"/>
<path d="M41.9323 38.8245C41.9323 38.8245 45.3703 38.2194 46.5805 37.6224C47.2933 37.2715 47.8829 36.7126 48.2715 36.0195C48.074 36.715 47.7388 37.3636 47.2857 37.9269C46.3841 39.0249 41.9082 39.8102 41.9082 39.8102L41.9323 38.8245Z" fill="#F0997A"/>
<path d="M43.0838 30.1564C43.0965 30.2899 43.1482 30.4168 43.2323 30.5213C43.3165 30.6258 43.4295 30.7033 43.5572 30.7441C43.685 30.785 43.822 30.7874 43.9512 30.7512C44.0803 30.7149 44.196 30.6415 44.2839 30.5401C44.3717 30.4387 44.4278 30.3138 44.4453 30.1808C44.4628 30.0477 44.4409 29.9125 44.3822 29.7919C44.3235 29.6712 44.2307 29.5704 44.1153 29.502C43.9999 29.4336 43.867 29.4006 43.733 29.407C43.5475 29.4204 43.375 29.5068 43.2533 29.6473C43.1315 29.7878 43.0706 29.9709 43.0838 30.1564Z" fill="#263238"/>
<path d="M43.5286 27.5735L45.0352 28.3068C45.1303 28.1005 45.1416 27.8654 45.0669 27.651C44.9921 27.4365 44.8372 27.2594 44.6345 27.1568C44.5354 27.1066 44.4269 27.0775 44.3159 27.0715C44.2049 27.0655 44.0939 27.0826 43.9899 27.1218C43.8859 27.161 43.7911 27.2214 43.7117 27.2991C43.6323 27.3769 43.5699 27.4703 43.5286 27.5735Z" fill="#263238"/>
<path d="M42.6912 34.7734L40.5514 35.3585C40.5851 35.4999 40.6467 35.6331 40.7326 35.7504C40.8185 35.8676 40.9271 35.9665 41.0518 36.0411C41.1765 36.1158 41.3149 36.1648 41.4588 36.1852C41.6027 36.2056 41.7492 36.197 41.8898 36.1599C42.1751 36.0748 42.4171 35.8838 42.5661 35.626C42.7151 35.3682 42.7599 35.0632 42.6912 34.7734Z" fill="#F0997A"/>
<path d="M36.424 28.2137L38.0269 27.6648C37.9992 27.5572 37.9496 27.4565 37.881 27.3691C37.8124 27.2817 37.7264 27.2095 37.6284 27.1572C37.5305 27.1048 37.4227 27.0734 37.3119 27.0649C37.2011 27.0563 37.0898 27.071 36.985 27.1078C36.7653 27.182 36.5835 27.3394 36.4786 27.5462C36.3737 27.753 36.3541 27.9927 36.424 28.2137Z" fill="#263238"/>
<path d="M37.2252 29.9617C37.2152 30.0527 37.2232 30.1448 37.2488 30.2328C37.2744 30.3207 37.317 30.4028 37.3743 30.4742C37.4316 30.5457 37.5025 30.6051 37.5827 30.6492C37.663 30.6932 37.7512 30.7211 37.8423 30.731C38.0275 30.7432 38.21 30.6819 38.3502 30.5604C38.4905 30.4388 38.5772 30.2669 38.5916 30.0819C38.5995 29.9922 38.5896 29.9018 38.5626 29.8159C38.5356 29.73 38.4919 29.6502 38.434 29.5812C38.3761 29.5122 38.3052 29.4552 38.2254 29.4136C38.1455 29.372 38.0582 29.3465 37.9685 29.3386C37.8788 29.3307 37.7884 29.3405 37.7025 29.3676C37.6166 29.3946 37.5368 29.4383 37.4678 29.4962C37.3988 29.554 37.3418 29.6249 37.3002 29.7048C37.2586 29.7847 37.2331 29.872 37.2252 29.9617Z" fill="#263238"/>
<path d="M40.9229 29.5742L40.6744 33.6975L38.5266 32.9522L40.9229 29.5742Z" fill="#F0997A"/>
<path d="M41.9082 44.0306C43.8116 43.6299 48.3195 41.8708 48.7443 39.6709L48.8004 38.4688C49.5417 38.4688 49.8783 39.2902 50.2429 40.4723C50.3952 43.5818 47.1134 46.4228 43.8316 47.1882C43.7214 46.4672 43.4753 45.7737 43.1063 45.1446C42.8265 44.6624 42.4094 44.2746 41.9082 44.0306Z" fill="#0071CE"/>
<path d="M41.9253 39.1289C41.4229 39.283 40.966 39.5582 40.5949 39.9303C38.1306 42.4828 39.5371 45.8288 39.5371 45.8288C39.6644 45.2724 39.9818 44.7778 40.4347 44.4303C40.8678 44.1361 41.3868 43.995 41.9093 44.0296C41.3042 43.3844 41.5406 42.2584 41.8692 41.2607L41.9253 39.1289Z" fill="#0071CE"/>
<path d="M34.761 28.101L35.0936 28.0689C36.2064 27.9336 37.3333 27.9687 38.4355 28.1731C39.5094 28.4656 39.8981 28.7902 40.4871 28.7982C41.0762 28.8062 41.5049 28.4737 42.6269 28.1851C43.8043 27.9875 45.0038 27.9592 46.1892 28.101L46.5498 28.1411L51.6509 29.5115C51.2124 29.5807 50.8093 29.7935 50.5049 30.1166L46.7863 29.1108C46.7342 29.1829 46.6821 29.247 46.646 29.2911C46.5947 29.3664 46.558 29.4507 46.5378 29.5395C46.4668 30.1163 46.3421 30.6851 46.1652 31.2385C46.0604 31.4669 45.9136 31.6735 45.7324 31.8476C45.663 31.9142 45.588 31.9745 45.508 32.0279L45.3758 32.1081C45.248 32.1771 45.1138 32.2335 44.9751 32.2764L44.9069 32.2964L44.8028 32.3245L44.6906 32.3485C44.5741 32.3718 44.4563 32.3878 44.3379 32.3966H44.1897H44.0013C42.5347 32.3966 41.9016 31.7715 41.5129 31.1264C41.1242 30.4812 41.1844 29.5716 40.5112 29.5716H40.447H40.3869C39.8901 29.6718 39.9862 30.5093 39.6897 31.1063C39.5779 31.3578 39.4218 31.5872 39.2289 31.7835L39.1207 31.8837L39.0606 31.9318L38.9965 31.9799L38.9404 32.0159L38.8803 32.056L38.8322 32.084H38.7961C38.6147 32.1806 38.4204 32.2507 38.2191 32.2924H38.167C37.9334 32.3382 37.6957 32.3597 37.4577 32.3565C36.0873 32.3565 35.5864 31.6232 35.346 31.1544C35.1358 30.602 34.9749 30.0321 34.8652 29.4514C34.8396 29.3662 34.7927 29.2889 34.7289 29.227C34.5578 29.0567 34.4419 28.8389 34.3963 28.6019C34.3928 28.4897 34.4268 28.3796 34.4928 28.2889C34.5588 28.1982 34.6532 28.1321 34.761 28.101ZM41.8776 30.5293C41.9764 30.8744 42.1693 31.1851 42.4346 31.4269C42.8825 31.7989 43.4565 31.984 44.0374 31.9438C44.3228 31.9644 44.6089 31.9162 44.8718 31.8033C45.1347 31.6903 45.3666 31.5159 45.5481 31.2946L45.5962 31.2305C45.6109 31.2101 45.6243 31.1887 45.6362 31.1664C45.6511 31.1483 45.6633 31.128 45.6723 31.1063L45.7044 31.0542L45.7244 31.0101C45.7244 31.0101 45.7244 30.9821 45.7444 30.9701C45.7645 30.9581 45.7645 30.93 45.7725 30.906C45.8005 30.8418 45.8206 30.7777 45.8406 30.7176C45.8406 30.6776 45.8646 30.6415 45.8726 30.6054C45.8807 30.5694 45.9047 30.4772 45.9167 30.4211C45.9287 30.365 45.9167 30.4011 45.9167 30.389V30.353C46.0129 29.9042 46.1131 29.0226 45.8526 28.8223C45.5922 28.6219 44.919 28.4216 43.8491 28.5017H43.7329C43.5672 28.517 43.4026 28.5424 43.24 28.5778L43.0476 28.6179C42.8851 28.6564 42.7246 28.7032 42.5668 28.7582L42.4225 28.8143L42.2623 28.8824H42.2302L42.1741 28.9144C42.0533 28.9686 41.9454 29.0478 41.8575 29.1468C41.6331 29.4434 41.7373 30.0284 41.8776 30.5293ZM35.5103 30.3129C35.5676 30.6214 35.6954 30.9125 35.8838 31.1634C36.0721 31.4144 36.316 31.6184 36.5962 31.7595C36.8502 31.8652 37.1225 31.9197 37.3976 31.9198C37.6996 31.9533 38.0052 31.9095 38.2856 31.7924C38.566 31.6754 38.812 31.4889 39.0005 31.2506C39.0111 31.2382 39.0205 31.2248 39.0285 31.2105C39.0406 31.1954 39.0513 31.1793 39.0606 31.1624V31.1384L39.1007 31.0662L39.1407 30.9821C39.1414 30.9687 39.1414 30.9554 39.1407 30.942V30.906C39.1431 30.8968 39.1431 30.8871 39.1407 30.8779C39.1833 30.7707 39.2142 30.6592 39.2329 30.5453C39.3291 30.0444 39.3651 29.4594 39.1487 29.1829C38.9324 28.9064 38.1189 28.6019 37.3415 28.5137C37.1612 28.5137 36.9929 28.4817 36.8407 28.4777H36.3959H36.2636C36.1789 28.4849 36.0946 28.4969 36.0112 28.5137H35.9551H35.915H35.8549L35.7828 28.5338L35.6666 28.5778C35.5713 28.6133 35.4821 28.6633 35.4021 28.7261C35.2218 28.9826 35.3901 29.8681 35.5103 30.3129Z" fill="#37474F"/>
<path d="M48.7382 39.8047C48.7382 39.8047 47.2876 47.0856 46.6625 52.0103C46.0374 56.935 46.1536 70.8436 46.4902 79.6593C46.7306 86.0706 47.6923 97.9637 47.6923 97.9637C47.6923 97.9637 49.2951 98.2842 53.1059 97.6511C56.3677 97.1142 58.0186 96.1485 58.7158 95.7277C58.7158 95.7277 58.1107 77.6677 57.6499 71.3606C57.2292 65.5463 57.2492 62.3486 57.2492 62.3486L58.6197 49.0731C58.6197 49.0731 58.5155 40.7303 55.9269 40.3777C53.2542 40.0131 48.7382 39.8047 48.7382 39.8047Z" fill="#FAFAFA"/>
<path d="M51.2134 51.7444C51.2134 51.4399 51.2454 50.7827 51.2975 49.9493C51.554 45.8821 51.1813 39.9956 49.8109 39.7031L49.6867 40.2641C50.6924 40.4805 50.8487 47.9377 50.7245 49.9132C50.6684 50.7627 50.6283 51.4319 50.6404 51.7685L51.2134 51.7444Z" fill="#0071CE"/>
<path d="M56.419 83.1526C57.0802 82.0266 57.1162 81.1851 58.114 80.1793C58.5412 79.7662 58.8521 79.248 59.0156 78.6767C59.3201 77.7751 59.3041 76.8334 59.3762 75.8477L65.1665 76.1161C65.1179 78.2701 64.8793 80.4155 64.4532 82.5275C63.3553 87.364 62.2934 89.3997 60.2137 89.8685C56.8959 90.6178 56.0784 89.1873 57.2445 86.795C57.7452 85.7973 58.104 84.7345 58.3104 83.6375C57.9511 84.0608 57.5343 84.4317 57.0722 84.7394C56.8366 84.9152 56.5431 84.9952 56.2509 84.9632C55.9586 84.9312 55.6894 84.7897 55.4974 84.5671C55.3531 84.3547 55.8981 84.0382 56.419 83.1526Z" fill="#FFBDA7"/>
<path d="M54.8561 40.379C54.8561 40.379 57.9375 40.335 59.6646 41.8897C61.3917 43.4445 62.3093 47.6038 63.4273 51.7752C64.5452 55.9466 65.539 59.9938 65.8315 62.8949C66.08 65.2992 65.2705 78.0658 65.2705 78.0658C65.2705 78.0658 61.7483 78.8071 59.0395 77.3204L58.9233 63.1554L54.4554 48.9542C53.6395 46.1299 53.7804 43.115 54.8561 40.379Z" fill="#F0F0F0"/>
<path d="M48.8446 37.4318C49.2453 37.3477 49.6179 37.5601 49.9465 38.121C50.2751 38.682 51.0004 39.8601 51.0004 39.8601C51.0004 39.8601 51.373 43.7711 51.0004 44.7448C50.6758 45.5863 48.524 49.5533 48.524 49.5533C48.524 49.5533 48.6643 53.4161 48.7003 54.5702C48.7364 55.7242 46.5004 60.5408 46.248 62.7767C46.248 62.7767 46.1358 53.6846 46.4684 51.1561C47.0454 46.7483 47.7667 41.499 48.7404 39.6958L48.8446 37.4318Z" fill="#EBEBEB"/>
<path d="M52.0515 65.2396H52.0995V64.8388C51.6243 64.802 51.169 64.6326 50.7852 64.35C51.1968 64.076 51.5655 63.7424 51.8792 63.3602C52.5243 62.5227 53.9388 56.5482 53.506 55.1577C53.1374 53.9916 51.9914 51.4191 50.9736 51.375H50.9455C49.9277 51.375 48.5853 53.8073 48.1405 54.9293C47.5876 56.2797 48.4892 62.3504 49.0622 63.24C49.3414 63.6478 49.6804 64.0112 50.0679 64.3179C49.663 64.5699 49.1944 64.7006 48.7176 64.6946L48.6655 65.0953C49.2887 65.1046 49.9004 64.9258 50.4206 64.5824C50.8923 64.9492 51.4572 65.1768 52.0515 65.2396ZM50.9255 51.7717C51.5265 51.7957 52.6004 53.7071 53.0933 55.2699C53.494 56.5482 52.1316 62.3304 51.5345 63.1038C51.2121 63.4908 50.8307 63.8248 50.4045 64.0935C50.0003 63.7912 49.6472 63.4259 49.3587 63.0116C48.8298 62.1902 47.9642 56.3157 48.4731 55.0735C49.0902 53.5549 50.3084 51.7717 50.9134 51.7717H50.9255Z" fill="#455A64"/>
<path d="M48.0431 64.8663C48.0393 64.9435 48.0509 65.0206 48.0771 65.0933C48.1033 65.166 48.1436 65.2327 48.1958 65.2897C48.248 65.3467 48.3109 65.3929 48.381 65.4254C48.451 65.4579 48.5269 65.4763 48.6041 65.4794C48.6814 65.4828 48.7587 65.4709 48.8315 65.4445C48.9042 65.4181 48.9711 65.3775 49.0282 65.3253C49.0853 65.273 49.1316 65.21 49.1643 65.1398C49.1971 65.0697 49.2157 64.9937 49.2192 64.9164C49.2226 64.839 49.2107 64.7618 49.1843 64.689C49.1578 64.6162 49.1173 64.5493 49.065 64.4922C49.0128 64.4351 48.9497 64.3889 48.8796 64.3561C48.8094 64.3233 48.7335 64.3047 48.6562 64.3013C48.5788 64.2981 48.5015 64.3101 48.4288 64.3368C48.3561 64.3635 48.2894 64.4042 48.2325 64.4567C48.1755 64.5091 48.1295 64.5723 48.097 64.6426C48.0645 64.7129 48.0462 64.7889 48.0431 64.8663Z" fill="#263238"/>
<path d="M51.4908 65.0089C51.4875 65.0863 51.4996 65.1635 51.5263 65.2362C51.5529 65.3089 51.5937 65.3756 51.6461 65.4326C51.6986 65.4895 51.7618 65.5356 51.8321 65.5681C51.9024 65.6006 51.9784 65.6189 52.0558 65.622C52.1329 65.6257 52.2101 65.6142 52.2828 65.588C52.3555 65.5618 52.4222 65.5214 52.4792 65.4692C52.5362 65.4171 52.5823 65.3542 52.6149 65.2841C52.6474 65.214 52.6658 65.1382 52.6689 65.061C52.6723 64.9836 52.6604 64.9064 52.634 64.8336C52.6075 64.7608 52.567 64.6939 52.5147 64.6368C52.4625 64.5797 52.3994 64.5335 52.3293 64.5007C52.2591 64.4679 52.1832 64.4493 52.1059 64.4459C52.0285 64.4425 51.9512 64.4543 51.8785 64.4808C51.8057 64.5072 51.7388 64.5477 51.6817 64.6C51.6246 64.6523 51.5783 64.7153 51.5456 64.7855C51.5128 64.8556 51.4942 64.9315 51.4908 65.0089Z" fill="#263238"/>
<path d="M47.9997 57.5613L48.3363 57.5372C48.3537 57.5362 48.3707 57.5318 48.3863 57.5242C48.402 57.5165 48.416 57.5059 48.4275 57.4929C48.4391 57.4799 48.4479 57.4647 48.4536 57.4482C48.4592 57.4318 48.4616 57.4143 48.4605 57.397C48.3924 56.275 48.4285 55.4495 48.5647 55.1209C49.1577 53.6704 50.3879 51.8552 50.9209 51.8792C51.4538 51.9032 52.5237 53.8146 52.9965 55.3093C53.097 56.0674 53.0672 56.8372 52.9084 57.5853C52.9026 57.6198 52.9107 57.6553 52.931 57.6838C52.9513 57.7124 52.9821 57.7317 53.0166 57.7376L53.3532 57.7897C53.3706 57.7919 53.3882 57.7907 53.4051 57.786C53.422 57.7814 53.4378 57.7734 53.4516 57.7626C53.4654 57.7518 53.4769 57.7383 53.4855 57.723C53.494 57.7077 53.4995 57.6909 53.5014 57.6735C53.6858 56.4273 53.7098 55.5697 53.5696 55.129C53.3211 54.3275 52.139 51.3262 50.9489 51.2741C49.7588 51.222 48.3243 54.1152 48.0077 54.8805C47.8314 55.3093 47.7793 56.1628 47.8595 57.421C47.8583 57.4397 47.8611 57.4585 47.8677 57.476C47.8744 57.4936 47.8847 57.5095 47.8979 57.5228C47.9112 57.5361 47.9271 57.5463 47.9447 57.553C47.9622 57.5596 47.981 57.5624 47.9997 57.5613Z" fill="#0071CE"/>
<path d="M41.9337 38.8242C41.4047 38.8723 40.9439 39.6537 39.7258 40.0263C37.4497 40.6995 35.3821 41.7334 34.7449 43.1318C33.6871 45.4479 33.5148 45.9048 33.1421 56.219C32.7694 66.5333 32.6372 95.8893 32.6372 95.8893C33.73 96.3832 34.9206 96.6229 36.1194 96.5905C36.1194 96.5905 36.0272 64.1731 36.2436 56.8842C36.46 49.5953 37.5659 46.037 39.1447 43.6327C39.5895 41.6292 41.008 40.2908 41.9497 39.3131L41.9337 38.8242Z" fill="#FAFAFA"/>
<path d="M39.1363 43.6411C37.5575 46.0453 36.4556 49.5996 36.2352 56.8925C36.2112 57.758 36.1871 58.9762 36.1671 60.4388C36.1671 60.4388 34.8688 53.8351 35.0972 52.4246C35.3256 51.0141 36.8483 48.113 36.8483 48.113C36.6519 45.7087 37.2129 42.9598 38.1386 41.3009C38.3539 40.9143 38.6238 40.5607 38.94 40.251C39.2476 40.0016 39.5761 39.7791 39.9217 39.5859C40.5143 39.1644 41.2032 38.8985 41.9253 38.8125V39.3094C40.9997 40.2991 39.5811 41.6295 39.1363 43.6411Z" fill="#EBEBEB"/>
</g>
</g>
<path d="M0.5 55.5C0.5 25.1243 25.1243 0.5 55.5 0.5H61C65.1421 0.5 68.5 3.85786 68.5 8V103C68.5 107.142 65.1421 110.5 61 110.5H55.5C25.1243 110.5 0.5 85.8757 0.5 55.5Z" stroke="#E7E9EC"/>
<defs>
<filter id="filter0_d_3295_18519" x="6.99951" y="19" width="60.8794" height="139.066" filterUnits="userSpaceOnUse" color-interpolation-filters="sRGB">
<feFlood flood-opacity="0" result="BackgroundImageFix"/>
<feColorMatrix in="SourceAlpha" type="matrix" values="0 0 0 0 0 0 0 0 0 0 0 0 0 0 0 0 0 0 127 0" result="hardAlpha"/>
<feOffset dy="2"/>
<feGaussianBlur stdDeviation="1"/>
<feComposite in2="hardAlpha" operator="out"/>
<feColorMatrix type="matrix" values="0 0 0 0 0 0 0 0 0 0 0 0 0 0 0 0 0 0 0.25 0"/>
<feBlend mode="normal" in2="BackgroundImageFix" result="effect1_dropShadow_3295_18519"/>
<feBlend mode="normal" in="SourceGraphic" in2="effect1_dropShadow_3295_18519" result="shape"/>
</filter>
<clipPath id="clip0_3295_18519">
<path d="M0 55.5C0 24.8482 24.8482 0 55.5 0H61C65.4183 0 69 3.58172 69 8V103C69 107.418 65.4183 111 61 111H55.5C24.8482 111 0 86.1518 0 55.5Z" fill="white"/>
</clipPath>
</defs>
</svg>
