<svg width="69" height="111" viewBox="0 0 69 111" fill="none" xmlns="http://www.w3.org/2000/svg">
<g clip-path="url(#clip0_3682_77742)">
<mask id="path-1-inside-1_3682_77742" fill="white">
<path d="M0 55.5C0 24.8482 24.8482 0 55.5 0H61C65.4183 0 69 3.58172 69 8V103C69 107.418 65.4183 111 61 111H55.5C24.8482 111 0 86.1518 0 55.5V55.5Z"/>
</mask>
<path d="M0 55.5C0 24.8482 24.8482 0 55.5 0H61C65.4183 0 69 3.58172 69 8V103C69 107.418 65.4183 111 61 111H55.5C24.8482 111 0 86.1518 0 55.5V55.5Z" fill="white"/>
<g filter="url(#filter0_d_3682_77742)">
<path d="M35.6348 43.0117C31.9251 43.7604 30.5762 44.8362 28.4954 48.3131C26.9576 50.8829 26.0269 52.5488 23.5212 56.1707L15.6871 57.0206L17.2722 62.6794C17.2722 62.6794 22.098 62.8312 24.8297 63.047C26.8733 63.2089 27.3421 63.047 28.6135 61.516C31.2439 58.356 34.4038 53.8573 34.4038 53.8573L35.6348 43.0117Z" fill="#E0E0E0"/>
<path opacity="0.02" d="M35.6348 43.0117C31.9251 43.7604 30.5762 44.8362 28.4954 48.3131C26.9576 50.8829 26.0269 52.5488 23.5212 56.1707L15.6871 57.0206L17.2722 62.6794C17.2722 62.6794 22.098 62.8312 24.8297 63.047C26.8733 63.2089 27.3421 63.047 28.6135 61.516C31.2439 58.356 34.4038 53.8573 34.4038 53.8573L35.6348 43.0117Z" fill="black"/>
<path d="M28.2576 66.3355L27.1852 97.6987C27.1852 97.6987 36.7897 95.338 45.396 96.7915C54.0023 98.245 56.0527 100.268 56.0527 100.268L50.5018 51.75L30.6418 52.3503C30.6418 52.3503 28.2576 55.608 28.2576 66.3355Z" fill="#EBEBEB"/>
<path d="M59.4937 117.106C58.3774 111.694 57.133 109.272 56.9003 108.042C56.9003 108.042 55.2613 95.2568 54.5194 84.3775C54.1619 79.1402 54.2901 75.6093 50.8671 69.5391L30.9701 74.429C30.7273 77.218 28.8556 96.2011 29.7763 112.571C30.5317 126.006 31.5164 130.39 31.6176 132.633C31.6749 133.908 31.6479 134.751 31.594 136.521C31.5704 137.236 31.5097 137.823 31.0949 138.275C30.4149 138.956 29.6577 139.556 28.8387 140.062C27.2908 141.074 26.5792 141.637 24.8087 142.268C24.4629 142.371 24.1319 142.518 23.824 142.706C23.6741 142.797 23.5479 142.922 23.4558 143.071C23.3637 143.22 23.3084 143.388 23.2945 143.563C23.2945 144.042 23.7329 144.419 24.1781 144.655C25.78 145.505 27.7832 145.33 29.5334 144.824C31.2837 144.318 32.9058 143.475 34.6763 142.966C35.8971 142.629 37.1887 142.457 38.3084 141.887C38.6776 141.731 38.9847 141.457 39.1818 141.108C39.2924 140.804 39.3215 140.476 39.2661 140.157C39.1312 138.754 38.9829 138.312 39.0199 136.899C39.0537 135.55 39.2594 133.078 39.3572 131.736C39.4482 130.606 40.8815 122.512 40.6657 117.508C40.6055 115.977 40.6585 114.444 40.8242 112.921L42.5947 95.1388C43.404 98.1099 46.4021 106.716 47.3362 110.652C48.4828 115.454 49.1 121.265 51.4843 130.056C52.1587 132.532 53.3998 135.516 53.7067 137.014C53.8382 138.912 54.5363 143.887 55.4502 145.981C56.8362 149.158 61.0753 149.056 61.4328 146.298C61.7329 143.954 60.1547 137.82 60.0838 136.282C60.013 134.744 60.7752 123.413 59.4937 117.106Z" fill="#C8856A"/>
<path d="M31.0044 68.5547L30.7953 70.5782C28.8764 81.7644 28.6977 96.5893 28.9034 101.095C29.5037 114.375 31.2168 137.796 31.2168 137.796C31.2168 137.796 31.7463 139.098 35.5233 139.398C38.4303 139.631 40.1199 138.643 40.1199 138.643C40.1199 138.643 41.4689 122.766 41.6813 118.931C41.7528 117.291 41.7179 115.647 41.5768 114.011C41.4042 111.969 41.429 109.914 41.651 107.877L42.6627 96.5354C42.6627 96.5354 46.4263 112.244 46.7905 114.156C48.6082 123.747 53.0193 141.526 53.0193 141.526C53.0193 141.526 56.0915 142.336 58.8569 141.847C61.6222 141.358 62.2461 140.383 62.2461 140.383C62.2461 140.383 60.5363 120.388 60.1046 116.513C59.5246 111.333 58.9884 108.922 58.5972 106.801C58.1352 104.305 57.9227 94.8964 57.5855 89.423C57.3696 85.6898 57.2212 82.8536 56.766 80.1119C55.8217 74.3788 53.0361 70.9323 51.9806 68.8212L51.8153 67.6914C48.6925 70.2038 36.8521 71.7551 31.0044 68.5547Z" fill="#455A64"/>
<path d="M42.666 96.5376L39.7186 85.8337C39.7186 85.8337 35.8909 85.1019 34.0091 83.0312C34.0091 83.0312 34.434 85.6448 38.3932 86.9803L41.1788 96.3319L41.7015 107.326L42.666 96.5376Z" fill="#37474F"/>
<path d="M49.8824 23.8895C49.96 20.4328 43.2287 16.6523 36.9123 20.8543C30.5958 25.0563 32.889 29.1133 33.3274 30.3476L32.8991 46.8722L54.2969 47.3747C54.2969 47.3747 53.2852 32.4789 53.3425 30.0474C53.3998 27.616 53.2346 23.967 49.8824 23.8895Z" fill="#263238"/>
<path d="M47.1062 42.0212L52.2963 43.4039C53.3317 43.7411 52.1648 49.8552 52.4548 56.836C52.7482 64.0024 54.7852 75.6 54.7852 75.6C54.7852 75.6 49.9256 77.6234 41.2113 77.4851C32.6084 77.3435 30.0386 74.6591 30.0386 74.6591L31.1953 66.1944L31.772 59.534C31.772 59.534 28.6796 55.2038 30.3995 50.9479C32.1194 46.6919 38.0581 41.168 38.0581 41.168L40.7257 41.2995L47.1062 42.0212Z" fill="#0071CE"/>
<path opacity="0.7" d="M47.1062 42.0212L52.2963 43.4039C53.3317 43.7411 52.1648 49.8552 52.4548 56.836C52.7482 64.0024 54.7852 75.6 54.7852 75.6C54.7852 75.6 49.9256 77.6234 41.2113 77.4851C32.6084 77.3435 30.0386 74.6591 30.0386 74.6591L31.1953 66.1944L31.772 59.534C31.772 59.534 28.6796 55.2038 30.3995 50.9479C32.1194 46.6919 38.0581 41.168 38.0581 41.168L40.7257 41.2995L47.1062 42.0212Z" fill="white"/>
<path opacity="0.3" d="M47.6211 59.0148C47.06 59.8349 46.2968 60.4963 45.4053 60.9353C44.5139 61.3742 43.5243 61.5758 42.5322 61.5205C41.6017 61.4632 40.6992 61.1799 39.903 60.6951C39.1067 60.2103 38.4407 59.5386 37.9626 58.7383C37.9626 58.7383 38.5595 62.3299 42.866 62.4108C47.1726 62.4917 47.6211 59.0148 47.6211 59.0148Z" fill="#0071CE"/>
<path d="M40.9355 41.5118C38.7907 43.3025 35.4521 45.7104 33.4725 48.297C29.4728 53.531 28.6028 58.3467 28.2857 64.4305C28.2217 55.3251 27.1088 50.2159 38.0657 40.8238C40.0216 39.1377 40.7973 38.7734 40.7973 38.7734L40.9355 41.5118Z" fill="#E0E0E0"/>
<path d="M48.1485 40.3086C47.99 42.558 45.6192 48.1932 45.4 54.331C45.1808 60.4687 48.5734 100.337 48.5734 100.337C48.5734 100.337 55.072 101.16 59.8574 98.4349C59.8574 98.4349 58.1712 83.9708 54.4616 67.898C53.5072 63.7298 55.2508 58.5599 55.6015 52.9415C55.7968 49.8883 55.3995 46.8261 54.4313 43.9238C54.4313 43.9238 50.951 42.7603 49.8887 42.1432C49.1764 41.6722 48.5812 41.0447 48.1485 40.3086Z" fill="#F0F0F0"/>
<path d="M48.4084 41.3979C48.2566 42.1229 48.0138 42.9998 47.7339 44.0148C46.9886 46.7364 45.9634 50.4595 45.8251 54.3478C45.6228 60.0809 48.6309 95.99 48.9648 99.9492C49.3493 99.9829 50.0305 100.03 50.8972 100.03C53.2579 100.03 56.5999 99.6929 59.4023 98.1989C59.1427 96.0979 57.416 82.6353 54.0605 67.9925C53.4366 65.2676 53.929 62.1414 54.4517 58.8331C54.7518 56.9243 55.0655 54.9515 55.1902 52.9179C55.3658 49.9905 55 47.0558 54.1111 44.261C53.3489 44.0014 50.6375 43.0638 49.6865 42.5108C49.2011 42.214 48.7691 41.8378 48.4084 41.3979ZM48.1487 40.3086C48.5853 41.0462 49.1852 41.6738 49.9023 42.1432C50.9646 42.7603 54.4449 43.9238 54.4449 43.9238C55.4131 46.8261 55.8105 49.8883 55.6151 52.9415C55.2779 58.5599 53.5209 63.7332 54.4753 67.898C58.1579 83.9708 59.8711 98.4349 59.8711 98.4349C56.8865 100.121 53.2376 100.458 50.9107 100.458C50.1345 100.464 49.3587 100.424 48.5871 100.34C48.5871 100.34 45.2147 60.4754 45.4137 54.3343C45.6127 48.1932 48.0037 42.5613 48.1622 40.312L48.1487 40.3086Z" fill="#EBEBEB"/>
<path d="M36.7061 24.9599C36.0721 25.4354 35.2358 26.9193 35.3572 29.4182C35.4213 30.1736 34.9356 30.9628 34.9053 32.3724C34.7839 37.7042 35.7147 38.6653 37.1446 39.3263C38.1555 39.7849 39.2551 40.0152 40.3652 40.0007L40.1966 42.5772C39.2793 44.0914 39.3096 44.9379 39.4614 46.8973C44.2367 45.5281 47.9395 42.2569 47.9429 42.2468L48.1217 36.2304C48.1217 36.2304 48.5736 36.1056 48.5736 36.109C48.9098 36.3743 49.3256 36.5186 49.7539 36.5186C50.1822 36.5186 50.598 36.3743 50.9342 36.109C52.0201 35.3131 52.7587 33.3133 51.8279 32.1667C50.8971 31.0201 49.1941 31.4619 48.5702 32.4466C47.9463 33.4313 46.4591 33.1211 46.9413 31.6136C46.2668 31.2764 45.4305 30.5648 46.1151 27.7927C46.2702 27.0812 46.0375 25.8469 45.3732 25.2331C44.267 24.2214 42.0682 24.3866 40.8002 25.6074C39.1005 24.1775 38.018 23.9786 36.7061 24.9599Z" fill="#C8856A"/>
<path d="M36.8323 27.8989L38.5859 27.5616C38.5698 27.4465 38.5303 27.3359 38.47 27.2365C38.4097 27.1371 38.3298 27.051 38.2351 26.9835C38.1405 26.9159 38.0331 26.8684 37.9194 26.8437C37.8058 26.8191 37.6884 26.8178 37.5742 26.84C37.3387 26.8882 37.1305 27.0249 36.9926 27.2218C36.8546 27.4187 36.7972 27.661 36.8323 27.8989Z" fill="#263238"/>
<path d="M44.686 28.7241L42.9998 28.0934C43.0356 27.9826 43.0936 27.8802 43.1703 27.7925C43.247 27.7049 43.3408 27.6338 43.4459 27.5836C43.551 27.5334 43.6652 27.5052 43.7816 27.5006C43.898 27.4961 44.0141 27.5154 44.1228 27.5572C44.3493 27.6412 44.5345 27.8096 44.6396 28.0271C44.7446 28.2447 44.7612 28.4945 44.686 28.7241Z" fill="#263238"/>
<path d="M42.392 34.7695L39.8964 35.5452C39.9385 35.7104 40.0138 35.8653 40.1179 36.0003C40.222 36.1353 40.3526 36.2477 40.5016 36.3304C40.6507 36.4131 40.8151 36.4645 40.9847 36.4814C41.1544 36.4984 41.3257 36.4804 41.4882 36.4287C41.8221 36.3198 42.1018 36.0873 42.2699 35.7788C42.4379 35.4703 42.4816 35.1092 42.392 34.7695Z" fill="#AF6152"/>
<path d="M40.9151 36.4803C40.9283 36.1725 41.0626 35.8825 41.2888 35.6734C41.5149 35.4643 41.8146 35.3531 42.1224 35.364C42.2176 35.3657 42.3119 35.3816 42.4023 35.4112C42.3569 35.6495 42.248 35.8711 42.0872 36.0528C41.9263 36.2344 41.7195 36.3692 41.4884 36.4432C41.3029 36.5005 41.1065 36.5132 40.9151 36.4803Z" fill="#FFA8A7"/>
<path d="M40.8379 29.2734L40.3287 34.0184L37.9781 33.3034L40.8379 29.2734Z" fill="#AF6152"/>
<path d="M40.3484 39.9909C42.0615 39.9335 45.9263 39.0028 46.8672 36.75C46.8672 36.75 46.6986 38.3687 44.5706 39.5761C42.8844 40.5304 40.2978 40.7362 40.2978 40.7362L40.3484 39.9909Z" fill="#AF6152"/>
<path d="M42.2679 30.4917C42.2767 30.6406 42.3294 30.7835 42.4194 30.9025C42.5094 31.0215 42.6326 31.1111 42.7734 31.1602C42.9143 31.2093 43.0665 31.2155 43.211 31.1782C43.3554 31.1409 43.4855 31.0616 43.585 30.9505C43.6844 30.8393 43.7487 30.7012 43.7698 30.5535C43.7908 30.4058 43.7677 30.2552 43.7033 30.1207C43.6389 29.9861 43.5361 29.8737 43.4079 29.7975C43.2797 29.7212 43.1318 29.6847 42.9828 29.6924C42.782 29.7037 42.594 29.7943 42.46 29.9441C42.3259 30.094 42.2568 30.2909 42.2679 30.4917Z" fill="#263238"/>
<path d="M36.6658 30.1392C36.6939 30.2868 36.7652 30.4226 36.8706 30.5296C36.976 30.6366 37.1108 30.7099 37.258 30.7402C37.4051 30.7706 37.5579 30.7565 37.697 30.6999C37.8361 30.6434 37.9553 30.5468 38.0395 30.4224C38.1237 30.298 38.1691 30.1514 38.1699 30.0012C38.1707 29.851 38.127 29.7039 38.0441 29.5786C37.9613 29.4533 37.8431 29.3554 37.7046 29.2973C37.5661 29.2392 37.4135 29.2236 37.2661 29.2523C37.1683 29.2709 37.0752 29.3086 36.992 29.3633C36.9089 29.418 36.8374 29.4886 36.7816 29.571C36.7258 29.6534 36.6869 29.746 36.667 29.8435C36.6471 29.9411 36.6467 30.0415 36.6658 30.1392Z" fill="#263238"/>
<path d="M51.332 42.7731C50.4754 42.392 49.5042 41.3196 49.0017 40.7227C48.4992 40.1257 48.3272 39.7109 47.99 39.7109V40.7867C47.99 40.7867 45.2651 46.9683 45.2921 52.381C45.2314 56.0906 45.6293 60.4511 45.6293 60.4511C46.7456 57.8274 49.339 53.5107 49.339 53.5107L47.9226 50.1147C48.7724 46.7558 50.7115 44.5739 51.332 42.7731Z" fill="#E0E0E0"/>
<path d="M47.4873 61.3511C47.5543 61.3127 47.634 61.3024 47.7086 61.3227C47.7832 61.3429 47.8467 61.392 47.8852 61.459C47.9237 61.5261 47.9339 61.6057 47.9137 61.6804C47.8934 61.755 47.8444 61.8185 47.7773 61.857L47.5244 62.002C47.5027 62.0158 47.4775 62.0231 47.4519 62.0231C47.4262 62.0231 47.401 62.0158 47.3793 62.002C47.3193 61.9628 47.2694 61.91 47.2337 61.8479C47.1979 61.7858 47.1774 61.7161 47.1736 61.6445C47.1714 61.6187 47.1758 61.5928 47.1864 61.5692C47.1971 61.5456 47.2136 61.5251 47.2343 61.5096L47.4873 61.3646V61.3511Z" fill="#455A64"/>
<path d="M47.1746 61.6304C47.1723 61.6046 47.1767 61.5786 47.1874 61.555C47.198 61.5314 47.2145 61.5109 47.2353 61.4955L47.4882 61.3505C47.5313 61.3256 47.5801 61.3125 47.6298 61.3125C47.6796 61.3125 47.7284 61.3256 47.7715 61.3505C47.6939 61.3201 47.5725 61.3909 47.4342 61.4719C47.296 61.5528 47.2252 61.6573 47.3364 61.8698C47.4174 62.0249 47.5118 62.0081 47.5557 61.9878L47.5287 62.0047C47.507 62.0185 47.4819 62.0258 47.4562 62.0258C47.4305 62.0258 47.4053 62.0185 47.3837 62.0047C47.3207 61.9643 47.2688 61.909 47.2323 61.8437C47.1958 61.7784 47.176 61.7051 47.1746 61.6304Z" fill="#37474F"/>
<path d="M46.2723 61.3353C46.3755 61.2679 46.4913 61.2222 46.6128 61.201C46.7343 61.1798 46.8588 61.1836 46.9787 61.2122C47.0986 61.2407 47.2115 61.2934 47.3104 61.367C47.4093 61.4407 47.4921 61.5337 47.5539 61.6404C47.6156 61.7471 47.6549 61.8653 47.6695 61.9877C47.684 62.1102 47.6734 62.2343 47.6384 62.3525C47.6033 62.4707 47.5446 62.5805 47.4657 62.6753C47.3868 62.77 47.2894 62.8476 47.1794 62.9035C47.1067 62.9366 47.0265 62.9496 46.9471 62.9413C46.8676 62.933 46.7918 62.9037 46.7275 62.8563C46.5409 62.7356 46.3856 62.5725 46.2742 62.3802C46.1628 62.1879 46.0986 61.972 46.0868 61.7501C46.0783 61.6708 46.091 61.5906 46.1236 61.5177C46.1562 61.4449 46.2075 61.3819 46.2723 61.3353Z" fill="#0071CE"/>
<path d="M46.7416 61.3794C46.9283 61.5008 47.0837 61.6645 47.195 61.8573C47.3064 62.0502 47.3706 62.2666 47.3824 62.4889C47.3905 62.5682 47.3777 62.6483 47.3451 62.7211C47.3126 62.7939 47.2615 62.8569 47.1969 62.9037L41.6021 66.1344C41.5297 66.168 41.4497 66.1816 41.3702 66.1739C41.2908 66.1662 41.2148 66.1375 41.1502 66.0906C40.9636 65.9692 40.8082 65.8055 40.6969 65.6126C40.5855 65.4198 40.5213 65.2034 40.5095 64.9811C40.5014 64.9018 40.5142 64.8217 40.5468 64.7489C40.5793 64.6761 40.6304 64.6131 40.695 64.5663L46.2729 61.3355C46.3474 61.2987 46.4307 61.2833 46.5135 61.291C46.5963 61.2988 46.6753 61.3293 46.7416 61.3794Z" fill="#0071CE"/>
<path opacity="0.2" d="M46.7416 61.3794C46.9283 61.5008 47.0837 61.6645 47.195 61.8573C47.3064 62.0502 47.3706 62.2666 47.3824 62.4889C47.3905 62.5682 47.3777 62.6483 47.3451 62.7211C47.3126 62.7939 47.2615 62.8569 47.1969 62.9037L41.6021 66.1344C41.5297 66.168 41.4497 66.1816 41.3702 66.1739C41.2908 66.1662 41.2148 66.1375 41.1502 66.0906C40.9636 65.9692 40.8082 65.8055 40.6969 65.6126C40.5855 65.4198 40.5213 65.2034 40.5095 64.9811C40.5014 64.9018 40.5142 64.8217 40.5468 64.7489C40.5793 64.6761 40.6304 64.6131 40.695 64.5663L46.2729 61.3355C46.3474 61.2987 46.4307 61.2833 46.5135 61.291C46.5963 61.2988 46.6753 61.3293 46.7416 61.3794Z" fill="white"/>
<path d="M40.1588 65.1647C40.1705 65.3931 40.2362 65.6156 40.3505 65.8137C40.4648 66.0119 40.6245 66.1801 40.8164 66.3045C40.8831 66.3525 40.9611 66.3821 41.0428 66.3904C41.1245 66.3986 41.2069 66.3853 41.2818 66.3518L41.7135 66.1022C41.7803 66.0548 41.8334 65.9905 41.8671 65.9158C41.9009 65.8411 41.9142 65.7588 41.9057 65.6773C41.8913 65.4475 41.8227 65.2244 41.7055 65.0263C41.5882 64.8281 41.4257 64.6606 41.2312 64.5374C41.1646 64.4895 41.0865 64.4599 41.0048 64.4516C40.9232 64.4433 40.8407 64.4566 40.7658 64.4902L40.3342 64.7398C40.2704 64.7891 40.2207 64.8543 40.1899 64.9289C40.1591 65.0034 40.1484 65.0847 40.1588 65.1647Z" fill="#0071CE"/>
<path opacity="0.35" d="M40.1588 65.1647C40.1705 65.3931 40.2362 65.6156 40.3505 65.8137C40.4648 66.0119 40.6245 66.1801 40.8164 66.3045C40.8831 66.3525 40.9611 66.3821 41.0428 66.3904C41.1245 66.3986 41.2069 66.3853 41.2818 66.3518L41.7135 66.1022C41.7803 66.0548 41.8334 65.9905 41.8671 65.9158C41.9009 65.8411 41.9142 65.7588 41.9057 65.6773C41.8913 65.4475 41.8227 65.2244 41.7055 65.0263C41.5882 64.8281 41.4257 64.6606 41.2312 64.5374C41.1646 64.4895 41.0865 64.4599 41.0048 64.4516C40.9232 64.4433 40.8407 64.4566 40.7658 64.4902L40.3342 64.7398C40.2704 64.7891 40.2207 64.8543 40.1899 64.9289C40.1591 65.0034 40.1484 65.0847 40.1588 65.1647Z" fill="white"/>
<path d="M41.4728 65.9226C41.4585 65.6929 41.3899 65.4698 41.2726 65.2716C41.1554 65.0735 40.9928 64.906 40.7984 64.7828C40.7352 64.7276 40.6564 64.6936 40.5729 64.6855C40.4895 64.6774 40.4056 64.6956 40.333 64.7377C40.2604 64.7797 40.2029 64.8434 40.1684 64.9199C40.1339 64.9963 40.1242 65.0816 40.1407 65.1639C40.1524 65.3923 40.2181 65.6147 40.3324 65.8129C40.4468 66.011 40.6064 66.1792 40.7984 66.3037C40.865 66.3517 40.9431 66.3812 41.0247 66.3895C41.1064 66.3978 41.1888 66.3845 41.2637 66.3509C41.3342 66.3053 41.3909 66.2413 41.4278 66.1658C41.4646 66.0904 41.4802 66.0063 41.4728 65.9226Z" fill="#0071CE"/>
<path opacity="0.15" d="M41.4728 65.9226C41.4585 65.6929 41.3899 65.4698 41.2726 65.2716C41.1554 65.0735 40.9928 64.906 40.7984 64.7828C40.7352 64.7276 40.6564 64.6936 40.5729 64.6855C40.4895 64.6774 40.4056 64.6956 40.333 64.7377C40.2604 64.7797 40.2029 64.8434 40.1684 64.9199C40.1339 64.9963 40.1242 65.0816 40.1407 65.1639C40.1524 65.3923 40.2181 65.6147 40.3324 65.8129C40.4468 66.011 40.6064 66.1792 40.7984 66.3037C40.865 66.3517 40.9431 66.3812 41.0247 66.3895C41.1064 66.3978 41.1888 66.3845 41.2637 66.3509C41.3342 66.3053 41.3909 66.2413 41.4278 66.1658C41.4646 66.0904 41.4802 66.0063 41.4728 65.9226Z" fill="black"/>
<path d="M36.0752 69.2132C36.1338 69.1729 36.1805 69.1174 36.2102 69.0527C36.2398 68.988 36.2515 68.9164 36.2438 68.8456C36.2328 68.6478 36.1756 68.4553 36.0766 68.2837C35.9776 68.112 35.8396 67.9661 35.6739 67.8575C35.6158 67.816 35.5479 67.7904 35.4769 67.7833C35.4059 67.7762 35.3343 67.7878 35.2692 67.8171L35.0601 68.0194C35.0222 68.0605 34.9931 68.109 34.9745 68.1617C34.956 68.2145 34.9484 68.2705 34.9522 68.3263C34.9625 68.5086 35.0155 68.686 35.1068 68.8442C35.1982 69.0023 35.3254 69.1368 35.4783 69.2368C35.5245 69.2674 35.5764 69.2882 35.6309 69.2981C35.6854 69.308 35.7413 69.3066 35.7953 69.2942L36.0752 69.2132Z" fill="#0071CE"/>
<g opacity="0.15">
<path d="M36.0752 69.2132C36.1338 69.1729 36.1805 69.1174 36.2102 69.0527C36.2398 68.988 36.2515 68.9164 36.2438 68.8456C36.2328 68.6478 36.1756 68.4553 36.0766 68.2837C35.9776 68.112 35.8396 67.9661 35.6739 67.8575C35.6158 67.816 35.5479 67.7904 35.4769 67.7833C35.4059 67.7762 35.3343 67.7878 35.2692 67.8171L35.0601 68.0194C35.0222 68.0605 34.9931 68.109 34.9745 68.1617C34.956 68.2145 34.9484 68.2705 34.9522 68.3263C34.9625 68.5086 35.0155 68.686 35.1068 68.8442C35.1982 69.0023 35.3254 69.1368 35.4783 69.2368C35.5245 69.2674 35.5764 69.2882 35.6309 69.2981C35.6854 69.308 35.7413 69.3066 35.7953 69.2942L36.0752 69.2132Z" fill="black"/>
</g>
<path d="M36.244 68.856C36.233 68.6581 36.1758 68.4657 36.0768 68.294C35.9778 68.1224 35.8398 67.9764 35.6741 67.8679C35.616 67.8263 35.5481 67.8007 35.4771 67.7936C35.4061 67.7865 35.3345 67.7982 35.2694 67.8274L40.328 64.9137C40.3925 64.8829 40.4642 64.8701 40.5354 64.8767C40.6066 64.8832 40.6747 64.9088 40.7326 64.9508C40.8984 65.0593 41.0363 65.2053 41.1353 65.3769C41.2343 65.5485 41.2916 65.741 41.3026 65.9389C41.3098 66.0098 41.2984 66.0813 41.2694 66.1464C41.2404 66.2114 41.1949 66.2678 41.1373 66.3098L36.0788 69.2236C36.1368 69.1828 36.1828 69.1272 36.2118 69.0625C36.2409 68.9978 36.252 68.9264 36.244 68.856Z" fill="#0071CE"/>
<path d="M35.0397 68.047C35.0977 68.019 35.1623 68.0073 35.2265 68.0132C35.2907 68.0192 35.352 68.0425 35.4039 68.0808C35.5526 68.1781 35.6762 68.3092 35.7646 68.4633C35.8531 68.6174 35.904 68.7902 35.9131 68.9677C35.9214 69.0321 35.9119 69.0975 35.8857 69.1569C35.8596 69.2163 35.8178 69.2675 35.7648 69.3049C35.4275 69.4904 34.4664 69.8445 33.9875 69.7872C33.9613 69.7851 33.9359 69.777 33.9133 69.7636C33.8572 69.7265 33.8108 69.6765 33.778 69.6179C33.7451 69.5592 33.7268 69.4935 33.7245 69.4263C33.719 69.403 33.719 69.3788 33.7245 69.3555C33.9201 68.9002 34.7227 68.2325 35.0397 68.047Z" fill="#0071CE"/>
<path opacity="0.2" d="M40.7184 64.9421C40.7767 64.9765 40.8309 65.0172 40.8803 65.0635L35.8217 67.9806C35.7711 67.9359 35.717 67.8953 35.6598 67.8592H35.6295L40.6881 64.9455L40.7184 64.9421ZM41.0557 64.4565H41.1062L46.0839 61.5798C46.7347 61.2021 47.0045 61.2122 47.2676 61.364C47.0079 61.2696 46.4144 61.6169 46.3368 61.6608L41.3153 64.561L41.2546 64.5239L40.823 64.7701C40.7602 64.7359 40.6933 64.7098 40.624 64.6925L41.0557 64.4565ZM33.7578 69.5656L33.8354 69.4105C33.8354 69.4105 33.8354 69.2925 34.1456 68.9586C34.5225 68.6066 34.9485 68.3112 35.4103 68.0818C35.4789 68.1221 35.5413 68.1721 35.5958 68.2302C35.1151 68.4703 34.6626 68.7633 34.2468 69.1036C34.0757 69.2485 33.9218 69.4125 33.7882 69.5926C33.7882 69.5926 33.7544 69.5757 33.7511 69.5656H33.7578Z" fill="white"/>
<path d="M33.9683 69.653L33.7592 69.7744C33.6681 69.825 33.4219 69.9093 33.3714 69.8351C33.3208 69.7609 33.5299 69.5821 33.6209 69.5282L33.83 69.4102C33.83 69.4102 33.8806 69.4102 33.9379 69.508C33.9952 69.6058 33.9683 69.653 33.9683 69.653Z" fill="#455A64"/>
<path d="M33.3926 69.7422C33.4048 69.7451 33.4163 69.7503 33.4264 69.7576C33.4366 69.765 33.4452 69.7742 33.4517 69.7849C33.4614 69.8091 33.4614 69.8361 33.4517 69.8604C33.409 69.8604 33.3762 69.8604 33.3631 69.8308C33.3499 69.8013 33.3696 69.7783 33.3926 69.7422Z" fill="#263238"/>
<path d="M61.2875 67.6814C61.3988 65.6276 60.9503 59.8743 60.4883 54.4752C59.8475 47.0559 58.4986 46.0037 54.6507 44.5469C51.4671 46.2769 50.8534 49.5852 52.0404 57.0247L53.0522 65.6782C50.9849 66.1166 48.1757 66.6899 45.8049 66.0155C45.3212 65.878 44.8734 65.6363 44.4931 65.3072C44.2638 65.129 44.0046 64.993 43.7275 64.9059L43.2183 65.2061C42.8811 65.2364 42.5202 65.2904 42.1863 65.3039C41.4174 65.3342 40.3383 65.3039 39.566 65.3477C37.8798 65.4489 36.6152 65.5501 35.0774 66.2212C34.7873 66.3493 34.4231 66.5753 34.0657 66.7844C33.7891 66.9395 34.0657 67.2531 34.2376 67.361C34.4537 67.4953 34.6945 67.5848 34.9458 67.6241C35.2828 67.6589 35.6229 67.6498 35.9576 67.5971C36.0478 67.5823 36.1403 67.594 36.224 67.6308C36.2967 67.6818 36.3464 67.7593 36.3622 67.8467C36.374 67.9316 36.3808 68.0172 36.3825 68.103C36.3989 68.3179 36.4647 68.5261 36.5746 68.7115C36.6846 68.8969 36.8358 69.0545 37.0165 69.172C37.1682 69.2664 37.3335 69.3305 37.4886 69.4216C37.6734 69.5472 37.8297 69.7104 37.9473 69.9004C38.1159 70.1196 38.2845 70.349 38.4531 70.5749C39.05 71.3101 39.3164 71.3506 40.5609 71.6574C41.8053 71.9643 42.7057 71.5327 44.4728 71.6574C46.24 71.7822 52.6036 72.8142 55.4769 72.8951C60.8255 73.0131 61.0885 71.3708 61.2875 67.6814Z" fill="#C8856A"/>
<path d="M53.0655 65.6715C55.2204 65.2702 57.5271 65.3613 58.8828 66.346C56.6604 63.9651 52.9778 64.9465 52.9778 64.9465L53.0655 65.6715Z" fill="#F28F8F"/>
<path d="M54.4452 43.9258C57.2072 44.6846 59.578 46.246 60.1783 48.9405C60.7786 51.635 61.4497 59.5433 61.5711 63.5395C61.6925 67.5358 61.5711 70.7935 60.7617 71.7783C59.9523 72.763 59.0924 73.1475 56.8295 73.1441C54.5667 73.1407 49.8757 72.6686 49.8757 72.6686C49.8757 72.6686 50.7356 68.5206 49.2821 66.2813L52.6275 65.5461C52.6275 65.5461 51.4405 55.5706 51.1707 53.1998C50.9009 50.829 50.9953 46.6169 54.4452 43.9258Z" fill="#E0E0E0"/>
<path d="M12.334 51.8672L29.921 55.9511L36.8242 75.5683L36.4904 76.0101L19.733 71.798L12.0001 52.3123L12.334 51.8672Z" fill="#0071CE"/>
<path opacity="0.35" d="M29.5871 56.3944L36.4904 76.0081L36.8242 75.5664L29.921 55.9492L29.5871 56.3944Z" fill="black"/>
<path opacity="0.25" d="M12 52.3125L29.587 56.3965L36.4902 76.0102L19.7329 71.7981L12 52.3125Z" fill="black"/>
<g opacity="0.1">
<path d="M17.559 55.8714C17.559 55.8714 17.4646 55.5746 17.3432 55.1969C17.2218 54.8192 18.2402 54.917 19.6128 55.3857L22.7694 55.9725C24.1385 56.4413 25.42 56.7617 25.5381 57.1259L25.7539 57.8004L17.559 55.8714Z" fill="black"/>
</g>
<path d="M16.2117 52.9273C16.1375 52.7014 16.5287 52.7047 17.0851 52.789L18.0968 53.0116C18.0968 53.0116 17.591 52.0775 19.9651 52.4451C22.5787 52.8497 22.7743 54.111 22.7743 54.111C23.1921 54.2367 23.6166 54.3391 24.0457 54.4179C24.9158 54.6 25.0305 54.7551 25.1249 54.9811L25.2969 55.3959L16.3331 53.3185C16.3331 53.3185 16.2859 53.1566 16.2117 52.9273Z" fill="#37474F"/>
<path d="M17.2629 54.1213C18.0992 54.3945 18.4533 54.5361 18.6354 55.096C18.8445 55.7401 18.9052 56.0099 18.9052 56.0099L23.5928 57.2813C23.5928 57.2813 23.2556 56.3404 23.1477 56.0267C23.0397 55.7131 23.6434 55.6389 24.4629 55.9121L24.1864 55.1297L16.9155 53.3086L17.2629 54.1213Z" fill="#37474F"/>
<path d="M17.3285 55.9086L17.1127 55.2341C16.9947 54.8699 18.0098 54.9542 19.379 55.423L22.5355 56.0401C23.9081 56.5089 25.1896 56.8293 25.3076 57.1935L25.5234 57.8511L17.3285 55.9086Z" fill="#37474F"/>
<path d="M14.4721 61.3334C13.8718 60.6589 13.9089 60.5712 14.1349 60.1699C14.3112 59.852 14.5607 59.5807 14.8627 59.3784C15.1648 59.1761 15.5106 59.0486 15.8717 59.0064C16.5057 58.9525 17.1464 58.8648 17.4938 59.0064C17.8411 59.1481 17.6422 59.8596 16.8193 60.1429C15.5547 60.5847 15.6019 60.9388 15.6019 60.9388C16.1502 60.7381 16.7085 60.5659 17.2746 60.4228C17.7534 60.3385 18.6606 60.4667 19.2204 60.4869C19.7802 60.5071 19.9725 61.2052 19.0687 61.5593L20.0804 61.6031C20.7987 61.6335 21.0921 61.9775 20.5795 62.48C20.4174 62.6507 20.2022 62.7612 19.9691 62.7936C19.9691 62.7936 20.7211 62.7059 20.765 62.9521C20.8931 63.6637 20.4513 63.9065 18.9877 64.5236C17.8344 65.0093 17.4128 65.6804 17.4971 66.1828L17.6118 66.4729C17.6118 66.4729 17.1127 66.1592 16.5529 65.8625C16.1414 65.6433 15.784 65.387 15.8784 64.7732C15.8784 64.7732 15.0555 64.8845 14.9443 64.382C14.8874 64.008 14.9115 63.6262 15.0151 63.2624C14.8573 63.1961 14.7216 63.0865 14.6237 62.9462C14.5258 62.8059 14.4697 62.6408 14.462 62.4699C14.4207 62.1454 14.4896 61.8164 14.6576 61.5357L14.4721 61.3334Z" fill="#C8856A"/>
<path d="M19.0684 61.5695C18.7611 61.5393 18.4516 61.5393 18.1443 61.5695C17.842 61.6535 17.5543 61.7831 17.2911 61.954C16.7654 62.2597 16.2657 62.6083 15.7972 62.9961C16.3626 62.7741 16.9076 62.5033 17.426 62.1867C17.6695 62.0259 17.9268 61.8871 18.1949 61.7719C18.4613 61.7044 18.7783 61.6606 19.0684 61.5695Z" fill="#AF6152"/>
<path d="M19.9824 62.8042C19.6498 62.749 19.3087 62.7792 18.9909 62.8919C18.676 62.9981 18.3722 63.1348 18.0838 63.3C17.5082 63.6161 16.9678 63.9926 16.4718 64.423C17.0788 64.1633 17.6454 63.8463 18.2153 63.5327C18.754 63.1823 19.3533 62.9353 19.9824 62.8042Z" fill="#AF6152"/>
</g>
</g>
<path d="M-1 55.5C-1 24.2959 24.2959 -1 55.5 -1H60C64.9706 -1 69 3.02944 69 8C69 4.13401 65.4183 1 61 1H55.5C25.4005 1 1 25.4005 1 55.5H-1ZM69 103C69 107.971 64.9706 112 60 112H55.5C24.2959 112 -1 86.7041 -1 55.5H1C1 85.5995 25.4005 110 55.5 110H61C65.4183 110 69 106.866 69 103ZM55.5 112C24.2959 112 -1 86.7041 -1 55.5C-1 24.2959 24.2959 -1 55.5 -1V1C25.4005 1 1 25.4005 1 55.5C1 85.5995 25.4005 110 55.5 110V112ZM69 0V111V0Z" fill="#E7E9EC" mask="url(#path-1-inside-1_3682_77742)"/>
<defs>
<filter id="filter0_d_3682_77742" x="10" y="19" width="55.373" height="139.996" filterUnits="userSpaceOnUse" color-interpolation-filters="sRGB">
<feFlood flood-opacity="0" result="BackgroundImageFix"/>
<feColorMatrix in="SourceAlpha" type="matrix" values="0 0 0 0 0 0 0 0 0 0 0 0 0 0 0 0 0 0 127 0" result="hardAlpha"/>
<feOffset dy="2"/>
<feGaussianBlur stdDeviation="1"/>
<feComposite in2="hardAlpha" operator="out"/>
<feColorMatrix type="matrix" values="0 0 0 0 0 0 0 0 0 0 0 0 0 0 0 0 0 0 0.25 0"/>
<feBlend mode="normal" in2="BackgroundImageFix" result="effect1_dropShadow_3682_77742"/>
<feBlend mode="normal" in="SourceGraphic" in2="effect1_dropShadow_3682_77742" result="shape"/>
</filter>
<clipPath id="clip0_3682_77742">
<path d="M0 55.5C0 24.8482 24.8482 0 55.5 0H61C65.4183 0 69 3.58172 69 8V103C69 107.418 65.4183 111 61 111H55.5C24.8482 111 0 86.1518 0 55.5V55.5Z" fill="white"/>
</clipPath>
</defs>
</svg>
