<svg width="68" height="111" viewBox="0 0 68 111" fill="none" xmlns="http://www.w3.org/2000/svg">
<g clip-path="url(#clip0_207_31039)">
<path d="M0 55.5C0 24.8482 24.8482 0 55.5 0H61C65.4183 0 69 3.58172 69 8V103C69 107.418 65.4183 111 61 111H55.5C24.8482 111 0 86.1518 0 55.5Z" fill="white"/>
<g filter="url(#filter0_d_207_31039)">
<path d="M35.635 43.0117C31.9254 43.7604 30.5764 44.8362 28.4957 48.3131C26.9579 50.8829 26.0271 52.5488 23.5214 56.1707L15.6874 57.0206L17.2724 62.6794C17.2724 62.6794 22.0983 62.8312 24.8299 63.047C26.8736 63.2089 27.3423 63.047 28.6137 61.516C31.2442 58.356 34.4041 53.8573 34.4041 53.8573L35.635 43.0117Z" fill="#E0E0E0"/>
<path opacity="0.02" d="M35.635 43.0117C31.9254 43.7604 30.5764 44.8362 28.4957 48.3131C26.9579 50.8829 26.0271 52.5488 23.5214 56.1707L15.6874 57.0206L17.2724 62.6794C17.2724 62.6794 22.0983 62.8312 24.8299 63.047C26.8736 63.2089 27.3423 63.047 28.6137 61.516C31.2442 58.356 34.4041 53.8573 34.4041 53.8573L35.635 43.0117Z" fill="black"/>
<path d="M28.2578 66.3355L27.1854 97.6987C27.1854 97.6987 36.7899 95.338 45.3963 96.7915C54.0026 98.245 56.053 100.268 56.053 100.268L50.502 51.75L30.6421 52.3503C30.6421 52.3503 28.2578 55.608 28.2578 66.3355Z" fill="#EBEBEB"/>
<path d="M59.4942 117.106C58.3779 111.694 57.1335 109.272 56.9008 108.042C56.9008 108.042 55.2618 95.2568 54.5199 84.3775C54.1624 79.1402 54.2906 75.6093 50.8676 69.5391L30.9706 74.429C30.7277 77.218 28.8561 96.2011 29.7767 112.571C30.5322 126.006 31.5169 130.39 31.6181 132.633C31.6754 133.908 31.6484 134.751 31.5945 136.521C31.5708 137.236 31.5101 137.823 31.0953 138.275C30.4154 138.956 29.6582 139.556 28.8392 140.062C27.2913 141.074 26.5797 141.637 24.8092 142.268C24.4634 142.371 24.1324 142.518 23.8245 142.706C23.6746 142.797 23.5483 142.922 23.4563 143.071C23.3642 143.22 23.3089 143.388 23.295 143.563C23.295 144.042 23.7334 144.419 24.1786 144.655C25.7805 145.505 27.7837 145.33 29.5339 144.824C31.2842 144.318 32.9063 143.475 34.6768 142.966C35.8976 142.629 37.1892 142.457 38.3089 141.887C38.6781 141.731 38.9852 141.457 39.1823 141.108C39.2929 140.804 39.322 140.476 39.2666 140.157C39.1317 138.754 38.9833 138.312 39.0204 136.899C39.0542 135.55 39.2599 133.078 39.3577 131.736C39.4487 130.606 40.882 122.512 40.6662 117.508C40.606 115.977 40.6589 114.444 40.8247 112.921L42.5952 95.1388C43.4045 98.1099 46.4026 106.716 47.3367 110.652C48.4833 115.454 49.1005 121.265 51.4848 130.056C52.1592 132.532 53.4003 135.516 53.7072 137.014C53.8387 138.912 54.5368 143.887 55.4507 145.981C56.8367 149.158 61.0758 149.056 61.4333 146.298C61.7334 143.954 60.1551 137.82 60.0843 136.282C60.0135 134.744 60.7757 123.413 59.4942 117.106Z" fill="#C8856A"/>
<path d="M31.0048 68.5547L30.7958 70.5782C28.8769 81.7644 28.6981 96.5893 28.9039 101.095C29.5041 114.375 31.2173 137.796 31.2173 137.796C31.2173 137.796 31.7468 139.098 35.5238 139.398C38.4308 139.631 40.1204 138.643 40.1204 138.643C40.1204 138.643 41.4693 122.766 41.6818 118.931C41.7533 117.291 41.7184 115.647 41.5773 114.011C41.4046 111.969 41.4295 109.914 41.6515 107.877L42.6632 96.5354C42.6632 96.5354 46.4267 112.244 46.791 114.156C48.6087 123.747 53.0197 141.526 53.0197 141.526C53.0197 141.526 56.092 142.336 58.8573 141.847C61.6227 141.358 62.2466 140.383 62.2466 140.383C62.2466 140.383 60.5368 120.388 60.1051 116.513C59.5251 111.333 58.9889 108.922 58.5977 106.801C58.1357 104.305 57.9232 94.8964 57.586 89.423C57.3701 85.6898 57.2217 82.8536 56.7665 80.1119C55.8222 74.3788 53.0366 70.9323 51.9811 68.8212L51.8158 67.6914C48.693 70.2038 36.8526 71.7551 31.0048 68.5547Z" fill="#455A64"/>
<path d="M42.6665 96.5376L39.719 85.8337C39.719 85.8337 35.8914 85.1019 34.0096 83.0312C34.0096 83.0312 34.4345 85.6448 38.3937 86.9803L41.1793 96.3319L41.702 107.326L42.6665 96.5376Z" fill="#37474F"/>
<path d="M49.8829 23.8895C49.9605 20.4328 43.2292 16.6523 36.9127 20.8543C30.5963 25.0563 32.8895 29.1133 33.3279 30.3476L32.8996 46.8722L54.2974 47.3747C54.2974 47.3747 53.2856 32.4789 53.343 30.0474C53.4003 27.616 53.2351 23.967 49.8829 23.8895Z" fill="#263238"/>
<path d="M47.1067 42.0212L52.2968 43.4039C53.3321 43.7411 52.1653 49.8552 52.4553 56.836C52.7487 64.0024 54.7856 75.6 54.7856 75.6C54.7856 75.6 49.926 77.6234 41.2118 77.4851C32.6089 77.3435 30.0391 74.6591 30.0391 74.6591L31.1958 66.1944L31.7725 59.534C31.7725 59.534 28.68 55.2038 30.4 50.9479C32.1199 46.6919 38.0586 41.168 38.0586 41.168L40.7262 41.2995L47.1067 42.0212Z" fill="#0071CE"/>
<path opacity="0.7" d="M47.1067 42.0212L52.2968 43.4039C53.3321 43.7411 52.1653 49.8552 52.4553 56.836C52.7487 64.0024 54.7856 75.6 54.7856 75.6C54.7856 75.6 49.926 77.6234 41.2118 77.4851C32.6089 77.3435 30.0391 74.6591 30.0391 74.6591L31.1958 66.1944L31.7725 59.534C31.7725 59.534 28.68 55.2038 30.4 50.9479C32.1199 46.6919 38.0586 41.168 38.0586 41.168L40.7262 41.2995L47.1067 42.0212Z" fill="white"/>
<path opacity="0.3" d="M47.6218 59.0148C47.0607 59.8349 46.2975 60.4963 45.4061 60.9353C44.5146 61.3742 43.525 61.5758 42.5329 61.5205C41.6024 61.4632 40.6999 61.1799 39.9037 60.6951C39.1074 60.2103 38.4414 59.5386 37.9633 58.7383C37.9633 58.7383 38.5602 62.3299 42.8668 62.4108C47.1733 62.4917 47.6218 59.0148 47.6218 59.0148Z" fill="#0071CE"/>
<path d="M40.936 41.5118C38.7912 43.3025 35.4525 45.7104 33.473 48.297C29.4733 53.531 28.6032 58.3467 28.2862 64.4305C28.2222 55.3251 27.1093 50.2159 38.0661 40.8238C40.0221 39.1377 40.7978 38.7734 40.7978 38.7734L40.936 41.5118Z" fill="#E0E0E0"/>
<path d="M48.149 40.3086C47.9905 42.558 45.6197 48.1932 45.4005 54.331C45.1813 60.4687 48.5739 100.337 48.5739 100.337C48.5739 100.337 55.0725 101.16 59.8579 98.4349C59.8579 98.4349 58.1717 83.9708 54.4621 67.898C53.5077 63.7298 55.2512 58.5599 55.602 52.9415C55.7973 49.8883 55.4 46.8261 54.4318 43.9238C54.4318 43.9238 50.9515 42.7603 49.8892 42.1432C49.1769 41.6722 48.5817 41.0447 48.149 40.3086Z" fill="#F0F0F0"/>
<path d="M48.4089 41.3979C48.2571 42.1229 48.0143 42.9998 47.7344 44.0148C46.9891 46.7364 45.9639 50.4595 45.8256 54.3478C45.6233 60.0809 48.6314 95.99 48.9653 99.9492C49.3498 99.9829 50.031 100.03 50.8977 100.03C53.2583 100.03 56.6004 99.6929 59.4028 98.1989C59.1431 96.0979 57.4165 82.6353 54.061 67.9925C53.4371 65.2676 53.9294 62.1414 54.4522 58.8331C54.7523 56.9243 55.0659 54.9515 55.1907 52.9179C55.3663 49.9905 55.0005 47.0558 54.1116 44.261C53.3494 44.0014 50.638 43.0638 49.687 42.5108C49.2016 42.214 48.7696 41.8378 48.4089 41.3979ZM48.1492 40.3086C48.5858 41.0462 49.1857 41.6738 49.9028 42.1432C50.9651 42.7603 54.4454 43.9238 54.4454 43.9238C55.4136 46.8261 55.811 49.8883 55.6156 52.9415C55.2784 58.5599 53.5214 63.7332 54.4758 67.898C58.1584 83.9708 59.8716 98.4349 59.8716 98.4349C56.887 100.121 53.2381 100.458 50.9112 100.458C50.135 100.464 49.3592 100.424 48.5876 100.34C48.5876 100.34 45.2152 60.4754 45.4142 54.3343C45.6132 48.1932 48.0042 42.5613 48.1627 40.312L48.1492 40.3086Z" fill="#EBEBEB"/>
<path d="M36.7066 24.9599C36.0726 25.4354 35.2363 26.9193 35.3577 29.4182C35.4218 30.1736 34.9361 30.9628 34.9058 32.3724C34.7844 37.7042 35.7152 38.6653 37.145 39.3263C38.156 39.7849 39.2556 40.0152 40.3657 40.0007L40.1971 42.5772C39.2798 44.0914 39.3101 44.9379 39.4619 46.8973C44.2372 45.5281 47.94 42.2569 47.9434 42.2468L48.1221 36.2304C48.1221 36.2304 48.574 36.1056 48.574 36.109C48.9103 36.3743 49.3261 36.5186 49.7544 36.5186C50.1827 36.5186 50.5985 36.3743 50.9347 36.109C52.0206 35.3131 52.7592 33.3133 51.8284 32.1667C50.8976 31.0201 49.1946 31.4619 48.5707 32.4466C47.9468 33.4313 46.4596 33.1211 46.9418 31.6136C46.2673 31.2764 45.431 30.5648 46.1156 27.7927C46.2707 27.0812 46.038 25.8469 45.3737 25.2331C44.2675 24.2214 42.0687 24.3866 40.8007 25.6074C39.101 24.1775 38.0185 23.9786 36.7066 24.9599Z" fill="#C8856A"/>
<path d="M36.8328 27.8989L38.5864 27.5616C38.5703 27.4465 38.5308 27.3359 38.4705 27.2365C38.4102 27.1371 38.3303 27.051 38.2356 26.9835C38.141 26.9159 38.0335 26.8684 37.9199 26.8437C37.8063 26.8191 37.6888 26.8178 37.5747 26.84C37.3392 26.8882 37.131 27.0249 36.993 27.2218C36.8551 27.4187 36.7977 27.661 36.8328 27.8989Z" fill="#263238"/>
<path d="M44.6865 28.7241L43.0003 28.0934C43.0361 27.9826 43.0941 27.8802 43.1708 27.7925C43.2475 27.7049 43.3412 27.6338 43.4464 27.5836C43.5515 27.5334 43.6657 27.5052 43.7821 27.5006C43.8985 27.4961 44.0146 27.5154 44.1233 27.5572C44.3498 27.6412 44.535 27.8096 44.64 28.0271C44.7451 28.2447 44.7617 28.4945 44.6865 28.7241Z" fill="#263238"/>
<path d="M42.3924 34.7695L39.8969 35.5452C39.9389 35.7104 40.0143 35.8653 40.1184 36.0003C40.2225 36.1353 40.3531 36.2477 40.5021 36.3304C40.6512 36.4131 40.8156 36.4645 40.9852 36.4814C41.1549 36.4984 41.3262 36.4804 41.4886 36.4287C41.8226 36.3198 42.1023 36.0873 42.2704 35.7788C42.4384 35.4703 42.4821 35.1092 42.3924 34.7695Z" fill="#AF6152"/>
<path d="M40.9156 36.4803C40.9288 36.1725 41.0631 35.8825 41.2893 35.6734C41.5154 35.4643 41.8151 35.3531 42.1229 35.364C42.2181 35.3657 42.3124 35.3816 42.4028 35.4112C42.3574 35.6495 42.2485 35.8711 42.0876 36.0528C41.9268 36.2344 41.72 36.3692 41.4889 36.4432C41.3034 36.5005 41.107 36.5132 40.9156 36.4803Z" fill="#FFA8A7"/>
<path d="M40.8384 29.2734L40.3292 34.0184L37.9786 33.3034L40.8384 29.2734Z" fill="#AF6152"/>
<path d="M40.3489 39.9909C42.062 39.9335 45.9268 39.0028 46.8677 36.75C46.8677 36.75 46.6991 38.3687 44.5711 39.5761C42.8849 40.5304 40.2983 40.7362 40.2983 40.7362L40.3489 39.9909Z" fill="#AF6152"/>
<path d="M42.2683 30.4917C42.2772 30.6406 42.3299 30.7835 42.4199 30.9025C42.5099 31.0215 42.6331 31.1111 42.7739 31.1602C42.9148 31.2093 43.067 31.2155 43.2114 31.1782C43.3559 31.1409 43.486 31.0616 43.5854 30.9505C43.6849 30.8393 43.7492 30.7012 43.7703 30.5535C43.7913 30.4058 43.7682 30.2552 43.7038 30.1207C43.6394 29.9861 43.5366 29.8737 43.4084 29.7975C43.2802 29.7212 43.1322 29.6847 42.9833 29.6924C42.7825 29.7037 42.5945 29.7943 42.4604 29.9441C42.3264 30.094 42.2573 30.2909 42.2683 30.4917Z" fill="#263238"/>
<path d="M36.6663 30.1392C36.6944 30.2868 36.7657 30.4226 36.8711 30.5296C36.9765 30.6366 37.1113 30.7099 37.2584 30.7402C37.4055 30.7706 37.5584 30.7565 37.6975 30.6999C37.8366 30.6434 37.9558 30.5468 38.04 30.4224C38.1242 30.298 38.1696 30.1514 38.1704 30.0012C38.1712 29.851 38.1274 29.7039 38.0446 29.5786C37.9618 29.4533 37.8436 29.3554 37.7051 29.2973C37.5666 29.2392 37.414 29.2236 37.2666 29.2523C37.1688 29.2709 37.0757 29.3086 36.9925 29.3633C36.9094 29.418 36.8379 29.4886 36.7821 29.571C36.7263 29.6534 36.6873 29.746 36.6675 29.8435C36.6476 29.9411 36.6472 30.0415 36.6663 30.1392Z" fill="#263238"/>
<path d="M51.3325 42.7731C50.4759 42.392 49.5047 41.3196 49.0022 40.7227C48.4997 40.1257 48.3277 39.7109 47.9905 39.7109V40.7867C47.9905 40.7867 45.2656 46.9683 45.2926 52.381C45.2319 56.0906 45.6298 60.4511 45.6298 60.4511C46.7461 57.8274 49.3394 53.5107 49.3394 53.5107L47.923 50.1147C48.7729 46.7558 50.712 44.5739 51.3325 42.7731Z" fill="#E0E0E0"/>
<path d="M47.488 61.3511C47.5551 61.3127 47.6347 61.3024 47.7093 61.3227C47.7839 61.3429 47.8475 61.392 47.8859 61.459C47.9244 61.5261 47.9346 61.6057 47.9144 61.6804C47.8942 61.755 47.8451 61.8185 47.778 61.857L47.5251 62.002C47.5034 62.0158 47.4783 62.0231 47.4526 62.0231C47.4269 62.0231 47.4017 62.0158 47.3801 62.002C47.3201 61.9628 47.2702 61.91 47.2344 61.8479C47.1987 61.7858 47.1781 61.7161 47.1744 61.6445C47.1721 61.6187 47.1765 61.5928 47.1872 61.5692C47.1978 61.5456 47.2143 61.5251 47.2351 61.5096L47.488 61.3646V61.3511Z" fill="#455A64"/>
<path d="M47.1753 61.6304C47.1731 61.6046 47.1775 61.5786 47.1881 61.555C47.1987 61.5314 47.2152 61.5109 47.236 61.4955L47.4889 61.3505C47.532 61.3256 47.5808 61.3125 47.6306 61.3125C47.6803 61.3125 47.7292 61.3256 47.7722 61.3505C47.6947 61.3201 47.5732 61.3909 47.435 61.4719C47.2967 61.5528 47.2259 61.6573 47.3372 61.8698C47.4181 62.0249 47.5125 62.0081 47.5564 61.9878L47.5294 62.0047C47.5077 62.0185 47.4826 62.0258 47.4569 62.0258C47.4312 62.0258 47.4061 62.0185 47.3844 62.0047C47.3215 61.9643 47.2695 61.909 47.233 61.8437C47.1966 61.7784 47.1767 61.7051 47.1753 61.6304Z" fill="#37474F"/>
<path d="M46.273 61.3353C46.3762 61.2679 46.4921 61.2222 46.6135 61.201C46.735 61.1798 46.8595 61.1836 46.9794 61.2122C47.0994 61.2407 47.2122 61.2934 47.3111 61.367C47.41 61.4407 47.4928 61.5337 47.5546 61.6404C47.6163 61.7471 47.6557 61.8653 47.6702 61.9877C47.6847 62.1102 47.6741 62.2343 47.6391 62.3525C47.6041 62.4707 47.5453 62.5805 47.4664 62.6753C47.3875 62.77 47.2901 62.8476 47.1802 62.9035C47.1075 62.9366 47.0273 62.9496 46.9478 62.9413C46.8684 62.933 46.7926 62.9037 46.7283 62.8563C46.5417 62.7356 46.3863 62.5725 46.275 62.3802C46.1636 62.1879 46.0993 61.972 46.0875 61.7501C46.0791 61.6708 46.0918 61.5906 46.1243 61.5177C46.1569 61.4449 46.2082 61.3819 46.273 61.3353Z" fill="#0071CE"/>
<path d="M46.7424 61.3794C46.929 61.5008 47.0844 61.6645 47.1957 61.8573C47.3071 62.0502 47.3713 62.2666 47.3831 62.4889C47.3913 62.5682 47.3784 62.6483 47.3458 62.7211C47.3133 62.7939 47.2622 62.8569 47.1977 62.9037L41.6029 66.1344C41.5305 66.168 41.4504 66.1816 41.371 66.1739C41.2915 66.1662 41.2156 66.1375 41.151 66.0906C40.9643 65.9692 40.809 65.8055 40.6976 65.6126C40.5863 65.4198 40.5221 65.2034 40.5102 64.9811C40.5021 64.9018 40.515 64.8217 40.5475 64.7489C40.5801 64.6761 40.6312 64.6131 40.6957 64.5663L46.2736 61.3355C46.3481 61.2987 46.4314 61.2833 46.5142 61.291C46.597 61.2988 46.676 61.3293 46.7424 61.3794Z" fill="#0071CE"/>
<path opacity="0.2" d="M46.7424 61.3794C46.929 61.5008 47.0844 61.6645 47.1957 61.8573C47.3071 62.0502 47.3713 62.2666 47.3831 62.4889C47.3913 62.5682 47.3784 62.6483 47.3458 62.7211C47.3133 62.7939 47.2622 62.8569 47.1977 62.9037L41.6029 66.1344C41.5305 66.168 41.4504 66.1816 41.371 66.1739C41.2915 66.1662 41.2156 66.1375 41.151 66.0906C40.9643 65.9692 40.809 65.8055 40.6976 65.6126C40.5863 65.4198 40.5221 65.2034 40.5102 64.9811C40.5021 64.9018 40.515 64.8217 40.5475 64.7489C40.5801 64.6761 40.6312 64.6131 40.6957 64.5663L46.2736 61.3355C46.3481 61.2987 46.4314 61.2833 46.5142 61.291C46.597 61.2988 46.676 61.3293 46.7424 61.3794Z" fill="white"/>
<path d="M40.1595 65.1647C40.1712 65.3931 40.2369 65.6156 40.3512 65.8137C40.4656 66.0119 40.6252 66.1801 40.8171 66.3045C40.8838 66.3525 40.9619 66.3821 41.0435 66.3904C41.1252 66.3986 41.2076 66.3853 41.2825 66.3518L41.7142 66.1022C41.7811 66.0548 41.8341 65.9905 41.8679 65.9158C41.9016 65.8411 41.915 65.7588 41.9064 65.6773C41.8921 65.4475 41.8235 65.2244 41.7062 65.0263C41.589 64.8281 41.4264 64.6606 41.232 64.5374C41.1653 64.4895 41.0872 64.4599 41.0056 64.4516C40.9239 64.4433 40.8415 64.4566 40.7666 64.4902L40.3349 64.7398C40.2711 64.7891 40.2214 64.8543 40.1906 64.9289C40.1599 65.0034 40.1491 65.0847 40.1595 65.1647Z" fill="#0071CE"/>
<path opacity="0.35" d="M40.1595 65.1647C40.1712 65.3931 40.2369 65.6156 40.3512 65.8137C40.4656 66.0119 40.6252 66.1801 40.8171 66.3045C40.8838 66.3525 40.9619 66.3821 41.0435 66.3904C41.1252 66.3986 41.2076 66.3853 41.2825 66.3518L41.7142 66.1022C41.7811 66.0548 41.8341 65.9905 41.8679 65.9158C41.9016 65.8411 41.915 65.7588 41.9064 65.6773C41.8921 65.4475 41.8235 65.2244 41.7062 65.0263C41.589 64.8281 41.4264 64.6606 41.232 64.5374C41.1653 64.4895 41.0872 64.4599 41.0056 64.4516C40.9239 64.4433 40.8415 64.4566 40.7666 64.4902L40.3349 64.7398C40.2711 64.7891 40.2214 64.8543 40.1906 64.9289C40.1599 65.0034 40.1491 65.0847 40.1595 65.1647Z" fill="white"/>
<path d="M41.4736 65.9226C41.4592 65.6929 41.3906 65.4698 41.2733 65.2716C41.1561 65.0735 40.9936 64.906 40.7991 64.7828C40.736 64.7276 40.6571 64.6936 40.5737 64.6855C40.4902 64.6774 40.4063 64.6956 40.3337 64.7377C40.2612 64.7797 40.2036 64.8434 40.1691 64.9199C40.1346 64.9963 40.125 65.0816 40.1415 65.1639C40.1532 65.3923 40.2189 65.6147 40.3332 65.8129C40.4475 66.011 40.6072 66.1792 40.7991 66.3037C40.8657 66.3517 40.9438 66.3812 41.0255 66.3895C41.1071 66.3978 41.1896 66.3845 41.2645 66.3509C41.335 66.3053 41.3917 66.2413 41.4285 66.1658C41.4653 66.0904 41.4809 66.0063 41.4736 65.9226Z" fill="#0071CE"/>
<path opacity="0.15" d="M41.4736 65.9226C41.4592 65.6929 41.3906 65.4698 41.2733 65.2716C41.1561 65.0735 40.9936 64.906 40.7991 64.7828C40.736 64.7276 40.6571 64.6936 40.5737 64.6855C40.4902 64.6774 40.4063 64.6956 40.3337 64.7377C40.2612 64.7797 40.2036 64.8434 40.1691 64.9199C40.1346 64.9963 40.125 65.0816 40.1415 65.1639C40.1532 65.3923 40.2189 65.6147 40.3332 65.8129C40.4475 66.011 40.6072 66.1792 40.7991 66.3037C40.8657 66.3517 40.9438 66.3812 41.0255 66.3895C41.1071 66.3978 41.1896 66.3845 41.2645 66.3509C41.335 66.3053 41.3917 66.2413 41.4285 66.1658C41.4653 66.0904 41.4809 66.0063 41.4736 65.9226Z" fill="black"/>
<path d="M36.0759 69.2132C36.1346 69.1729 36.1812 69.1174 36.2109 69.0527C36.2406 68.988 36.2522 68.9164 36.2445 68.8456C36.2336 68.6478 36.1763 68.4553 36.0773 68.2837C35.9783 68.112 35.8404 67.9661 35.6746 67.8575C35.6166 67.816 35.5487 67.7904 35.4777 67.7833C35.4066 67.7762 35.335 67.7878 35.2699 67.8171L35.0608 68.0194C35.0229 68.0605 34.9938 68.109 34.9752 68.1617C34.9567 68.2145 34.9491 68.2705 34.9529 68.3263C34.9632 68.5086 35.0162 68.686 35.1076 68.8442C35.1989 69.0023 35.3262 69.1368 35.479 69.2368C35.5252 69.2674 35.5771 69.2882 35.6316 69.2981C35.6861 69.308 35.742 69.3066 35.796 69.2942L36.0759 69.2132Z" fill="#0071CE"/>
<g opacity="0.15">
<path d="M36.0759 69.2132C36.1346 69.1729 36.1812 69.1174 36.2109 69.0527C36.2406 68.988 36.2522 68.9164 36.2445 68.8456C36.2336 68.6478 36.1763 68.4553 36.0773 68.2837C35.9783 68.112 35.8404 67.9661 35.6746 67.8575C35.6166 67.816 35.5487 67.7904 35.4777 67.7833C35.4066 67.7762 35.335 67.7878 35.2699 67.8171L35.0608 68.0194C35.0229 68.0605 34.9938 68.109 34.9752 68.1617C34.9567 68.2145 34.9491 68.2705 34.9529 68.3263C34.9632 68.5086 35.0162 68.686 35.1076 68.8442C35.1989 69.0023 35.3262 69.1368 35.479 69.2368C35.5252 69.2674 35.5771 69.2882 35.6316 69.2981C35.6861 69.308 35.742 69.3066 35.796 69.2942L36.0759 69.2132Z" fill="black"/>
</g>
<path d="M36.2447 68.856C36.2338 68.6581 36.1765 68.4657 36.0775 68.294C35.9785 68.1224 35.8406 67.9764 35.6748 67.8679C35.6168 67.8263 35.5489 67.8007 35.4779 67.7936C35.4069 67.7865 35.3352 67.7982 35.2701 67.8274L40.3287 64.9137C40.3933 64.8829 40.4649 64.8701 40.5361 64.8767C40.6073 64.8832 40.6755 64.9088 40.7334 64.9508C40.8991 65.0593 41.0371 65.2053 41.1361 65.3769C41.2351 65.5485 41.2924 65.741 41.3033 65.9389C41.3105 66.0098 41.2991 66.0813 41.2701 66.1464C41.2411 66.2114 41.1956 66.2678 41.1381 66.3098L36.0795 69.2236C36.1375 69.1828 36.1835 69.1272 36.2126 69.0625C36.2417 68.9978 36.2528 68.9264 36.2447 68.856Z" fill="#0071CE"/>
<path d="M35.0404 68.047C35.0985 68.019 35.163 68.0073 35.2272 68.0132C35.2914 68.0192 35.3528 68.0425 35.4046 68.0808C35.5533 68.1781 35.6769 68.3092 35.7654 68.4633C35.8539 68.6174 35.9047 68.7902 35.9139 68.9677C35.9221 69.0321 35.9126 69.0975 35.8865 69.1569C35.8603 69.2163 35.8185 69.2675 35.7655 69.3049C35.4282 69.4904 34.4671 69.8445 33.9882 69.7872C33.962 69.7851 33.9367 69.777 33.9141 69.7636C33.858 69.7265 33.8116 69.6765 33.7787 69.6179C33.7458 69.5592 33.7275 69.4935 33.7252 69.4263C33.7197 69.403 33.7197 69.3788 33.7252 69.3555C33.9208 68.9002 34.7234 68.2325 35.0404 68.047Z" fill="#0071CE"/>
<path opacity="0.2" d="M40.7191 64.9421C40.7774 64.9765 40.8317 65.0172 40.881 65.0635L35.8224 67.9806C35.7718 67.9359 35.7177 67.8953 35.6606 67.8592H35.6302L40.6888 64.9455L40.7191 64.9421ZM41.0564 64.4565H41.107L46.0846 61.5798C46.7355 61.2021 47.0053 61.2122 47.2683 61.364C47.0086 61.2696 46.4151 61.6169 46.3375 61.6608L41.3161 64.561L41.2554 64.5239L40.8237 64.7701C40.7609 64.7359 40.6941 64.7098 40.6247 64.6925L41.0564 64.4565ZM33.7586 69.5656L33.8361 69.4105C33.8361 69.4105 33.8361 69.2925 34.1464 68.9586C34.5232 68.6066 34.9492 68.3112 35.411 68.0818C35.4796 68.1221 35.5421 68.1721 35.5965 68.2302C35.1158 68.4703 34.6634 68.7633 34.2475 69.1036C34.0764 69.2485 33.9225 69.4125 33.7889 69.5926C33.7889 69.5926 33.7552 69.5757 33.7518 69.5656H33.7586Z" fill="white"/>
<path d="M33.969 69.653L33.7599 69.7744C33.6689 69.825 33.4227 69.9093 33.3721 69.8351C33.3215 69.7609 33.5306 69.5821 33.6216 69.5282L33.8307 69.4102C33.8307 69.4102 33.8813 69.4102 33.9386 69.508C33.996 69.6058 33.969 69.653 33.969 69.653Z" fill="#455A64"/>
<path d="M33.3934 69.7422C33.4055 69.7451 33.417 69.7503 33.4272 69.7576C33.4373 69.765 33.4459 69.7742 33.4525 69.7849C33.4621 69.8091 33.4621 69.8361 33.4525 69.8604C33.4098 69.8604 33.3769 69.8604 33.3638 69.8308C33.3507 69.8013 33.3704 69.7783 33.3934 69.7422Z" fill="#263238"/>
<path d="M61.288 67.6814C61.3993 65.6276 60.9508 59.8743 60.4887 54.4752C59.848 47.0559 58.499 46.0037 54.6512 44.5469C51.4676 46.2769 50.8539 49.5852 52.0409 57.0247L53.0526 65.6782C50.9854 66.1166 48.1762 66.6899 45.8054 66.0155C45.3216 65.878 44.8739 65.6363 44.4935 65.3072C44.2643 65.129 44.0051 64.993 43.728 64.9059L43.2188 65.2061C42.8815 65.2364 42.5207 65.2904 42.1868 65.3039C41.4179 65.3342 40.3388 65.3039 39.5665 65.3477C37.8803 65.4489 36.6157 65.5501 35.0779 66.2212C34.7878 66.3493 34.4236 66.5753 34.0661 66.7844C33.7896 66.9395 34.0661 67.2531 34.2381 67.361C34.4542 67.4953 34.695 67.5848 34.9463 67.6241C35.2833 67.6588 35.6234 67.6498 35.958 67.5971C36.0482 67.5823 36.1408 67.594 36.2245 67.6308C36.2972 67.6818 36.3468 67.7593 36.3627 67.8467C36.3745 67.9316 36.3813 68.0172 36.383 68.103C36.3994 68.3179 36.4652 68.5261 36.5751 68.7115C36.6851 68.8969 36.8363 69.0545 37.017 69.172C37.1687 69.2664 37.334 69.3305 37.4891 69.4216C37.6739 69.5472 37.8302 69.7104 37.9478 69.9004C38.1164 70.1196 38.285 70.349 38.4536 70.5749C39.0505 71.3101 39.3169 71.3506 40.5613 71.6574C41.8058 71.9643 42.7062 71.5327 44.4733 71.6574C46.2404 71.7822 52.6041 72.8142 55.4774 72.8951C60.826 73.0131 61.089 71.3708 61.288 67.6814Z" fill="#C8856A"/>
<path d="M53.0659 65.6715C55.2209 65.2702 57.5276 65.3613 58.8833 66.346C56.6609 63.9651 52.9783 64.9465 52.9783 64.9465L53.0659 65.6715Z" fill="#F28F8F"/>
<path d="M54.4457 43.9258C57.2077 44.6846 59.5785 46.246 60.1788 48.9405C60.7791 51.635 61.4502 59.5433 61.5716 63.5395C61.693 67.5358 61.5716 70.7935 60.7622 71.7783C59.9528 72.763 59.0929 73.1475 56.83 73.1441C54.5671 73.1407 49.8762 72.6686 49.8762 72.6686C49.8762 72.6686 50.7361 68.5206 49.2826 66.2813L52.628 65.5461C52.628 65.5461 51.4409 55.5706 51.1712 53.1998C50.9014 50.829 50.9958 46.6169 54.4457 43.9258Z" fill="#E0E0E0"/>
<path d="M12.3345 51.8672L29.9214 55.9511L36.8247 75.5683L36.4908 76.0101L19.7335 71.798L12.0006 52.3123L12.3345 51.8672Z" fill="#0071CE"/>
<path opacity="0.35" d="M29.5878 56.3944L36.4911 76.0081L36.825 75.5664L29.9217 55.9492L29.5878 56.3944Z" fill="black"/>
<path opacity="0.25" d="M12.0007 52.3125L29.5877 56.3965L36.491 76.0102L19.7336 71.7981L12.0007 52.3125Z" fill="black"/>
<g opacity="0.1">
<path d="M17.5598 55.8714C17.5598 55.8714 17.4653 55.5746 17.3439 55.1969C17.2225 54.8192 18.241 54.917 19.6135 55.3857L22.7701 55.9725C24.1393 56.4413 25.4208 56.7617 25.5388 57.1259L25.7546 57.8004L17.5598 55.8714Z" fill="black"/>
</g>
<path d="M16.2124 52.9273C16.1382 52.7014 16.5294 52.7047 17.0859 52.789L18.0976 53.0116C18.0976 53.0116 17.5917 52.0775 19.9659 52.4451C22.5795 52.8497 22.7751 54.111 22.7751 54.111C23.1929 54.2367 23.6173 54.3391 24.0465 54.4179C24.9165 54.6 25.0312 54.7551 25.1256 54.9811L25.2976 55.3959L16.3338 53.3185C16.3338 53.3185 16.2866 53.1566 16.2124 52.9273Z" fill="#37474F"/>
<path d="M17.2636 54.1213C18.0999 54.3945 18.454 54.5361 18.6361 55.096C18.8452 55.7401 18.9059 56.0099 18.9059 56.0099L23.5935 57.2813C23.5935 57.2813 23.2563 56.3404 23.1484 56.0267C23.0405 55.7131 23.6441 55.6389 24.4636 55.9121L24.1871 55.1297L16.9162 53.3086L17.2636 54.1213Z" fill="#37474F"/>
<path d="M17.3293 55.9086L17.1135 55.2341C16.9954 54.8699 18.0105 54.9542 19.3797 55.423L22.5362 56.0401C23.9088 56.5089 25.1903 56.8293 25.3083 57.1935L25.5242 57.8511L17.3293 55.9086Z" fill="#37474F"/>
<path d="M14.4728 61.3334C13.8726 60.6589 13.9097 60.5712 14.1356 60.1699C14.312 59.852 14.5615 59.5807 14.8635 59.3784C15.1655 59.1761 15.5113 59.0486 15.8724 59.0064C16.5064 58.9525 17.1471 58.8648 17.4945 59.0064C17.8419 59.1481 17.6429 59.8596 16.82 60.1429C15.5554 60.5847 15.6026 60.9388 15.6026 60.9388C16.1509 60.7381 16.7092 60.5659 17.2753 60.4228C17.7542 60.3385 18.6613 60.4667 19.2212 60.4869C19.781 60.5071 19.9732 61.2052 19.0694 61.5593L20.0811 61.6031C20.7994 61.6335 21.0928 61.9775 20.5802 62.48C20.4182 62.6507 20.203 62.7612 19.9698 62.7936C19.9698 62.7936 20.7219 62.7059 20.7657 62.9521C20.8939 63.6637 20.4521 63.9065 18.9885 64.5236C17.8351 65.0093 17.4136 65.6804 17.4979 66.1828L17.6125 66.4729C17.6125 66.4729 17.1134 66.1592 16.5536 65.8625C16.1422 65.6433 15.7847 65.387 15.8791 64.7732C15.8791 64.7732 15.0563 64.8845 14.945 64.382C14.8881 64.008 14.9123 63.6262 15.0158 63.2624C14.8581 63.1961 14.7223 63.0865 14.6244 62.9462C14.5265 62.8059 14.4705 62.6408 14.4627 62.4699C14.4215 62.1454 14.4903 61.8164 14.6583 61.5357L14.4728 61.3334Z" fill="#C8856A"/>
<path d="M19.0691 61.5695C18.7618 61.5393 18.4523 61.5393 18.1451 61.5695C17.8427 61.6535 17.555 61.7831 17.2918 61.954C16.7661 62.2597 16.2664 62.6083 15.7979 62.9961C16.3633 62.7741 16.9083 62.5033 17.4267 62.1867C17.6702 62.0259 17.9275 61.8871 18.1956 61.7719C18.4621 61.7044 18.7791 61.6606 19.0691 61.5695Z" fill="#AF6152"/>
<path d="M19.9832 62.8042C19.6506 62.749 19.3094 62.7792 18.9917 62.8919C18.6767 62.9981 18.3729 63.1348 18.0845 63.3C17.5089 63.6161 16.9685 63.9926 16.4725 64.423C17.0795 64.1633 17.6461 63.8463 18.216 63.5327C18.7548 63.1823 19.354 62.9353 19.9832 62.8042Z" fill="#AF6152"/>
</g>
</g>
<path d="M0.5 55.5C0.5 25.1243 25.1243 0.5 55.5 0.5H61C65.1421 0.5 68.5 3.85786 68.5 8V103C68.5 107.142 65.1421 110.5 61 110.5H55.5C25.1243 110.5 0.5 85.8757 0.5 55.5Z" stroke="#E7E9EC"/>
<defs>
<filter id="filter0_d_207_31039" x="10.0005" y="19" width="55.373" height="139.996" filterUnits="userSpaceOnUse" color-interpolation-filters="sRGB">
<feFlood flood-opacity="0" result="BackgroundImageFix"/>
<feColorMatrix in="SourceAlpha" type="matrix" values="0 0 0 0 0 0 0 0 0 0 0 0 0 0 0 0 0 0 127 0" result="hardAlpha"/>
<feOffset dy="2"/>
<feGaussianBlur stdDeviation="1"/>
<feComposite in2="hardAlpha" operator="out"/>
<feColorMatrix type="matrix" values="0 0 0 0 0 0 0 0 0 0 0 0 0 0 0 0 0 0 0.25 0"/>
<feBlend mode="normal" in2="BackgroundImageFix" result="effect1_dropShadow_207_31039"/>
<feBlend mode="normal" in="SourceGraphic" in2="effect1_dropShadow_207_31039" result="shape"/>
</filter>
<clipPath id="clip0_207_31039">
<path d="M0 55.5C0 24.8482 24.8482 0 55.5 0H61C65.4183 0 69 3.58172 69 8V103C69 107.418 65.4183 111 61 111H55.5C24.8482 111 0 86.1518 0 55.5Z" fill="white"/>
</clipPath>
</defs>
</svg>
