<svg width="52" height="111" viewBox="0 0 52 111" fill="none" xmlns="http://www.w3.org/2000/svg">
<path d="M0 52C0 23.2812 23.2812 0 52 0V111C23.2812 111 0 87.7188 0 59V52Z" fill="#F0FAFF"/>
<g filter="url(#filter0_d_217_59477)">
<path d="M13.1681 28.3975C14.2356 27.2058 17.1086 27.3107 19.2871 27.7134L19.9619 27.8355L19.61 28.4527C19.61 28.4527 18.7618 28.2476 18.6145 28.2255C18.1467 28.1552 17.6744 28.1056 17.2022 28.0773C16.2091 28.02 15.0122 28.0931 14.4046 28.525C14.0347 28.821 13.8549 29.1868 13.8903 29.5717C13.8857 29.6158 13.8813 29.6578 13.8967 29.7041C13.912 29.7503 13.892 29.7482 13.8895 29.7725L13.8874 29.7924C13.9071 29.9128 13.9283 30.0199 13.9553 30.1478C14.103 30.7839 14.3398 31.4182 14.5891 32.0494C15.2703 33.7684 16.1061 35.4791 16.9627 37.1852C17.8192 38.8914 18.6909 40.5299 19.6001 42.197C19.917 42.7749 20.2353 43.3523 20.555 43.9291C20.7117 44.209 20.9006 44.49 21.0286 44.7735C21.035 44.7865 21.0431 44.7993 21.0529 44.8118C21.0839 44.8947 21.0561 44.9768 20.9755 45.0402C20.8949 45.1035 20.7681 45.1429 20.6231 45.1496C20.4781 45.1563 20.3268 45.1298 20.2023 45.0759C20.0779 45.022 19.9906 44.9452 19.9596 44.8623C19.5397 44.1217 19.1321 43.3802 18.7245 42.6387C17.8207 40.9722 16.9362 39.3011 16.0711 37.6253C15.1691 35.8518 14.2959 34.0725 13.5732 32.2866C13.3067 31.6268 13.0524 30.9661 12.8915 30.3018C12.7306 29.6375 12.6596 28.9648 13.1681 28.3975Z" fill="#6A7D8E"/>
<path d="M46.7072 34.1536C46.3151 32.4821 43.6915 31.3026 41.5493 30.732L40.8869 30.5527L40.91 31.3285C40.91 31.3285 41.7669 31.5022 41.9094 31.5459C42.3618 31.6847 42.8084 31.8462 43.2448 32.029C44.1616 32.4156 45.1993 33.024 45.5391 33.7284C45.7304 34.1904 45.7183 34.6374 45.5043 35.0072C45.4876 35.0535 45.4717 35.0975 45.436 35.137C45.4003 35.1765 45.4192 35.1833 45.41 35.2088L45.4025 35.2297C45.3278 35.3415 45.2582 35.4394 45.1734 35.5554C44.74 36.1268 44.2276 36.6565 43.7054 37.1775C42.2813 38.5955 40.7227 39.9359 39.1477 41.2626C37.5726 42.5893 36.016 43.8414 34.4123 45.1053C33.8548 45.5428 33.2963 45.979 32.7369 46.414C32.464 46.6244 32.1617 46.8215 31.9128 47.0484C31.9009 47.0585 31.8876 47.0677 31.8729 47.0759C31.8059 47.1451 31.7919 47.2398 31.8342 47.3394C31.8764 47.4389 31.9713 47.535 32.098 47.6065C32.2247 47.6781 32.3729 47.7192 32.5099 47.7208C32.6469 47.7225 32.7615 47.6846 32.8285 47.6154C33.5552 47.061 34.2714 46.5002 34.9876 45.9394C36.5862 44.6737 38.1697 43.3946 39.7381 42.1022C41.3857 40.7284 43.0103 39.3358 44.5032 37.8695C45.0543 37.3275 45.5949 36.7792 46.0535 36.1855C46.5121 35.5917 46.8942 34.9494 46.7072 34.1536Z" fill="#6A7D8E"/>
<path d="M13.8525 64.7277C17.1692 62.3875 21.422 63.6923 25.17 63.2606L25.3438 63.2379L25.628 63.186C25.8232 63.1468 26.0163 63.0981 26.2064 63.0399L26.4572 62.949L26.5742 62.8939C26.7409 62.8145 26.9008 62.7222 27.0523 62.618L27.1125 62.5725C27.2028 62.4979 27.2964 62.4265 27.3833 62.3518C27.5533 62.2136 27.7151 62.0662 27.8681 61.9104C28.1218 61.652 28.3317 61.3562 28.49 61.034C28.6935 60.618 28.7385 60.1453 28.617 59.7001C28.4653 59.2171 28.2036 58.7733 27.8514 58.4018C27.3911 57.9522 26.9067 57.5264 26.4003 57.1262C25.232 56.0731 24.4937 54.6465 24.3207 53.108C24.2706 52.6668 24.2706 52.2216 24.3207 51.7804C23.4999 51.5268 22.7443 51.1061 22.1043 50.5464C21.4643 49.9867 20.9547 49.3009 20.6096 48.5347L17.6005 41.2837L19.4427 40.5664L22.4183 47.772C22.6782 48.3431 23.0746 48.8459 23.5748 49.2384C24.0749 49.6309 24.6644 49.9019 25.2941 50.0289C25.9238 50.1559 26.5757 50.1351 27.1955 49.9684C27.8153 49.8017 28.3851 49.4937 28.8577 49.0702L35.5245 43.1176L36.8619 44.5359L30.2118 50.4854C29.1015 51.4812 27.6446 52.0331 26.1329 52.0304H26.0225C25.8587 52.0304 25.6882 52.0304 25.5377 52.0012C25.4483 53.1257 25.7356 54.2483 26.3569 55.2014C26.7543 55.7711 27.2457 56.2733 27.8113 56.688C28.3144 57.0798 28.7638 57.5325 29.1486 58.035C29.5239 58.4953 29.7711 59.0415 29.8665 59.6212C29.962 60.2009 29.9024 60.7947 29.6936 61.3456C29.1821 62.5143 28.2455 63.4593 27.0623 64.0007C25.4608 64.692 23.5986 64.5654 21.8867 64.5102C19.9409 64.4453 18.0585 64.3577 16.2665 64.903C15.4254 65.153 14.653 65.5834 14.0063 66.1623C13.2168 66.9191 12.6233 67.8468 12.2744 68.8693C11.6888 70.4305 11.598 72.1261 12.0137 73.7379C12.3968 75.171 13.0633 76.5181 13.9762 77.7042C17.1491 81.8912 23.0034 83.5141 28.0186 81.9236C29.3559 81.5017 30.6231 80.9142 31.9069 80.3949L36.5576 78.5124L36.8518 78.3955C36.9302 78.3743 37.0121 78.3683 37.0929 78.3779C37.1736 78.3875 37.2517 78.4124 37.3225 78.4513C37.3933 78.4902 37.4555 78.5423 37.5055 78.6046C37.5556 78.6668 37.5925 78.7381 37.6141 78.8142C37.6547 78.9678 37.6324 79.1306 37.552 79.2685C37.4716 79.4065 37.3393 79.5089 37.1828 79.5542C34.575 80.6102 31.9682 81.6651 29.3626 82.7188C26.8691 83.7086 24.1349 83.9813 21.4862 83.5042C18.8375 83.0271 16.386 81.8204 14.4243 80.0281C12.1641 77.9184 10.5459 74.9031 10.5024 71.8229C10.4489 69.1744 11.6158 66.3084 13.8525 64.7277Z" fill="#0071CE"/>
<path d="M31.3208 78.2572C30.1298 75.465 31.4279 72.2359 34.2201 71.045C37.0123 69.854 40.2413 71.152 41.4323 73.9443C42.6233 76.7365 41.3252 79.9655 38.533 81.1565C35.7408 82.3474 32.5118 81.0494 31.3208 78.2572Z" fill="#9BA9B5"/>
<g opacity="0.3">
<path d="M40.0544 77.0184C39.916 77.7372 39.5675 78.3988 39.0531 78.9196C38.5387 79.4404 37.8814 79.7969 37.1644 79.9442C36.4474 80.0914 35.7028 80.0227 35.0248 79.7468C34.3467 79.4709 33.7658 79.0002 33.3553 78.3941C32.9448 77.788 32.7233 77.0739 32.7186 76.3419C32.714 75.6099 32.9265 74.893 33.3293 74.2818C33.7321 73.6706 34.3071 73.1925 34.9816 72.9081C35.6561 72.6236 36.3997 72.5456 37.1186 72.6837C37.5962 72.7751 38.0511 72.9598 38.4572 73.2273C38.8634 73.4947 39.2128 73.8396 39.4855 74.2422C39.7582 74.6448 39.9488 75.0973 40.0464 75.5737C40.144 76.0501 40.1468 76.541 40.0544 77.0184Z" fill="black"/>
</g>
<path d="M40.0105 76.5497C39.8721 77.2685 39.5236 77.9301 39.0092 78.4509C38.4948 78.9716 37.8375 79.3282 37.1205 79.4754C36.4035 79.6227 35.6589 79.554 34.9808 79.2781C34.3028 79.0022 33.7219 78.5314 33.3114 77.9253C32.9009 77.3193 32.6793 76.6051 32.6747 75.8731C32.6701 75.1411 32.8826 74.4242 33.2854 73.813C33.6882 73.2018 34.2632 72.7238 34.9377 72.4393C35.6122 72.1549 36.3558 72.0768 37.0747 72.215C38.0385 72.4011 38.889 72.9621 39.4395 73.7749C39.99 74.5876 40.1953 75.5856 40.0105 76.5497Z" fill="#F3F4F5"/>
</g>
<defs>
<filter id="filter0_d_217_59477" x="8.50073" y="27.4375" width="40.255" height="60.2969" filterUnits="userSpaceOnUse" color-interpolation-filters="sRGB">
<feFlood flood-opacity="0" result="BackgroundImageFix"/>
<feColorMatrix in="SourceAlpha" type="matrix" values="0 0 0 0 0 0 0 0 0 0 0 0 0 0 0 0 0 0 127 0" result="hardAlpha"/>
<feOffset dy="2"/>
<feGaussianBlur stdDeviation="1"/>
<feComposite in2="hardAlpha" operator="out"/>
<feColorMatrix type="matrix" values="0 0 0 0 0 0 0 0 0 0 0 0 0 0 0 0 0 0 0.25 0"/>
<feBlend mode="normal" in2="BackgroundImageFix" result="effect1_dropShadow_217_59477"/>
<feBlend mode="normal" in="SourceGraphic" in2="effect1_dropShadow_217_59477" result="shape"/>
</filter>
</defs>
</svg>
