<svg width="52" height="111" viewBox="0 0 52 111" fill="none" xmlns="http://www.w3.org/2000/svg">
<path d="M0 52C0 23.2812 23.2812 0 52 0V111C23.2812 111 0 87.7188 0 59V52Z" fill="#DEDAF0"/>
<g filter="url(#filter0_d_217_59483)">
<path d="M44.0418 27.5078C44.0634 27.3123 44.0323 27.1147 43.9519 26.9352C43.8714 26.7558 43.7444 26.6012 43.584 26.4873L41.1681 25.1029C40.9909 25.0223 40.7954 24.99 40.6017 25.0094C40.4079 25.0288 40.2227 25.0991 40.0649 25.2132L15.0838 39.6315C14.6221 39.9344 14.2385 40.3421 13.9643 40.8213C13.6902 41.3006 13.5332 41.838 13.5063 42.3895V81.4966C13.4853 81.6926 13.5172 81.8906 13.5987 82.0701C13.6802 82.2495 13.8083 82.4039 13.9696 82.5171L16.3855 83.9015C16.5628 83.9822 16.7582 84.0144 16.952 83.995C17.1457 83.9757 17.3309 83.9053 17.4887 83.7912L42.4698 69.3673C42.9325 69.0655 43.3168 68.6581 43.5911 68.1786C43.8653 67.6991 44.0217 67.1612 44.0474 66.6094L44.0418 27.5078Z" fill="#263238"/>
<path d="M15.905 82.8705V43.7633C15.9307 43.2115 16.0871 42.6737 16.3613 42.1942C16.6356 41.7147 17.0199 41.3073 17.4826 41.0054L42.4637 26.6091C43.3352 26.1072 44.0412 26.5154 44.0412 27.5248V66.6264C44.0156 67.1782 43.8592 67.716 43.5849 68.1956C43.3107 68.6751 42.9264 69.0825 42.4637 69.3843L17.4826 83.8082C16.6386 84.2715 15.905 83.8634 15.905 82.8705Z" fill="#455A64"/>
<path d="M43.5839 26.4868C43.4071 26.4054 43.2119 26.3723 43.0182 26.3907C42.8244 26.4091 42.639 26.4784 42.4807 26.5916L17.4996 41.0155C17.0382 41.3096 16.6587 41.7157 16.3964 42.1959L13.9805 40.8114C14.2433 40.3331 14.6228 39.9289 15.0836 39.6366L40.0648 25.2127C40.2221 25.0977 40.407 25.0264 40.6008 25.006C40.7945 24.9857 40.9902 25.017 41.168 25.0969L43.5839 26.4868Z" fill="#37474F"/>
<path d="M40.1307 42.2128C39.7942 40.3098 38.2884 38.9033 36.1317 41.8763C33.975 44.8493 32.4582 50.1501 30.3732 51.5511C29.0549 52.4502 27.1795 50.0508 25.5358 49.4495C23.8921 48.8483 21.7685 49.5433 20.4226 55.0977C19.0768 60.6522 19.2754 62.7813 20.2517 63.6307C21.6085 64.8111 23.5115 63.8514 25.0339 63.5866C26.5562 63.3218 25.249 66.008 25.8723 67.5414C26.4956 69.0748 28.0234 68.8046 28.9391 66.8078C29.1211 66.4052 29.2921 66.008 29.441 65.633C29.9319 64.425 30.8365 63.8183 31.3826 64.3588C31.5094 64.4885 31.6458 64.6083 31.7908 64.7173C32.9325 65.5833 34.6424 63.0626 34.5487 61.0273C34.4549 58.9919 34.3832 57.5468 35.1995 56.6146C36.0159 55.6824 38.2443 55.0757 39.4081 52.5329C40.5719 49.9901 40.4727 44.1213 40.1307 42.2128ZM26.308 56.5539C26.2026 57.1113 26.003 57.6466 25.7178 58.137C25.4972 58.5765 25.2408 58.9971 24.9511 59.3946C24.4877 59.9948 23.8376 60.4237 23.1033 60.6136C22.8464 60.7044 22.566 60.7044 22.3091 60.6136C21.3107 60.1447 21.9726 56.7966 22.3863 55.2687C22.548 54.6414 22.7929 54.0385 23.1144 53.4761C23.1985 53.3382 23.3005 53.2121 23.4177 53.101C23.579 52.9555 23.7732 52.8514 23.9836 52.7976C24.194 52.7438 24.4144 52.7419 24.6257 52.7921C24.9375 52.8271 25.2229 52.9837 25.42 53.2279C25.563 53.4647 25.6708 53.7211 25.7399 53.9891L26.1205 55.1639C26.2956 55.6127 26.36 56.0971 26.308 56.576V56.5539ZM28.5144 65.0152C28.3677 65.3714 28.0919 65.659 27.7421 65.8205C27.6025 65.8337 27.4616 65.8174 27.3286 65.7727C27.1955 65.7281 27.0734 65.656 26.9699 65.5613C26.8604 65.3996 26.8151 65.2029 26.8431 65.0097C26.8961 64.7366 27.005 64.4775 27.163 64.2485C27.4719 63.7521 27.7697 63.2998 28.0455 62.7537C28.2661 62.3345 28.4592 62.0201 28.724 62.158C29.3252 62.4614 28.9391 64.2099 28.5088 65.0373L28.5144 65.0152ZM33.3628 62.4007C33.098 62.7372 32.8112 63.0957 32.5244 63.0957C32.2375 63.0957 32.1713 62.8695 32.0721 62.6213C31.9725 62.3786 31.9021 62.125 31.8625 61.8657C31.7872 61.5018 31.7872 61.1264 31.8625 60.7625C32.1879 59.4718 32.927 60.1061 33.3297 60.2881C33.7323 60.4702 33.9143 61.7112 33.3572 62.4228L33.3628 62.4007ZM38.9062 46.7964C38.8536 47.8697 38.719 48.9374 38.5035 49.9901C38.4473 50.3635 38.3298 50.725 38.156 51.0602C38.0875 51.211 37.9807 51.3414 37.8462 51.4381C37.7117 51.5349 37.5541 51.5948 37.3893 51.6117C36.7976 51.6245 36.2174 51.4466 35.7346 51.1043C35.4409 50.9311 35.1924 50.6908 35.0093 50.4033C34.8263 50.1157 34.7138 49.7889 34.681 49.4495C34.723 48.9137 34.8632 48.3902 35.0947 47.9051C35.3319 47.2984 35.5139 46.653 35.7897 46.0573C35.9811 45.6009 36.2756 45.195 36.6502 44.8714C36.7714 44.7736 36.9149 44.7073 37.0679 44.6784C37.2209 44.6495 37.3787 44.659 37.5272 44.7059C37.7068 44.7623 37.8805 44.8362 38.0457 44.9266C38.2417 45.0001 38.4171 45.1197 38.5572 45.2752C38.6974 45.4307 38.7981 45.6176 38.851 45.8201C38.9124 46.1492 38.9291 46.485 38.9006 46.8185L38.9062 46.7964Z" fill="#F5F5F5"/>
<path d="M24.6207 65.9875C23.8595 65.5462 23.694 66.1419 22.5854 66.2688C21.4767 66.3957 21.234 65.5683 20.379 65.7172C19.5241 65.8662 18.5643 68.6351 19.7226 69.2363C20.881 69.8376 21.2395 69.8155 21.2505 70.8525C21.2616 71.8894 21.1126 77.9734 21.1126 77.9734L24.2236 76.1752C24.2236 76.1752 24.2236 70.5712 24.2236 69.8596C24.2236 69.1481 24.4938 68.6351 24.7089 67.725C24.8082 67.1514 25.0178 66.2137 24.6207 65.9875Z" fill="#F5F5F5"/>
<path d="M35.531 58.9404C36.2921 57.6166 36.2149 58.295 37.5111 57.3629C38.2613 56.8113 38.3109 56.028 39.1659 55.1565C40.0208 54.285 41.4936 55.7081 40.3352 57.6497C39.1769 59.5912 38.9122 60.733 38.8956 61.7921C38.8791 62.8511 39.028 67.5892 39.028 67.5892L35.9446 69.3818C35.9446 69.3818 35.9446 63.7667 35.9446 63.0386C35.9651 62.309 35.8683 61.5809 35.6578 60.882C35.5254 60.4738 35.1338 59.6243 35.531 58.9404Z" fill="#F5F5F5"/>
<path d="M30.0034 46.3117C28.3983 47.2383 27.4937 47.0232 27.2841 47.5582C27.0745 48.0933 27.2014 48.5015 27.4496 48.6614C28.0012 49.0034 29.2809 48.5511 29.9924 48.2367C30.8134 47.8524 31.5218 47.2636 32.0498 46.5268C32.4469 45.8594 32.4249 44.9879 32.2042 44.7617C31.763 44.7672 31.4927 45.4512 30.0034 46.3117Z" fill="#F5F5F5"/>
<path d="M30.0034 42.7023C28.3983 43.6289 27.4937 43.4138 27.2841 43.9489C27.0745 44.4839 27.2014 44.8866 27.4496 45.052C28.0012 45.3995 29.2809 44.9417 29.9924 44.6328C30.8122 44.2467 31.5202 43.6582 32.0498 42.9229C32.4469 42.25 32.4249 41.3785 32.2042 41.1523C31.763 41.1523 31.4927 41.8418 30.0034 42.7023Z" fill="#F5F5F5"/>
<path d="M30.0034 39.089C28.3983 40.0157 27.4937 39.8006 27.2841 40.3356C27.0745 40.8706 27.2014 41.2788 27.4496 41.4388C28.0012 41.7807 29.2809 41.3284 29.9924 41.014C30.8134 40.6298 31.5218 40.041 32.0498 39.3041C32.4469 38.6367 32.4249 37.7652 32.2042 37.5391C31.763 37.5446 31.4927 38.2285 30.0034 39.089Z" fill="#F5F5F5"/>
<path d="M40.3573 57.6474C41.5156 55.7113 40.0705 54.2772 39.1879 55.1542C38.3054 56.0312 38.2558 56.809 37.5332 57.3605C36.237 58.2927 36.3142 57.6143 35.553 58.9381C35.1559 59.622 35.553 60.4715 35.6799 60.8796C35.8903 61.5785 35.9871 62.3067 35.9667 63.0363C35.9667 63.1687 35.9667 63.4555 35.9667 63.8361C36.5183 63.974 37.1526 63.5658 37.6214 63.1577C38.0903 62.7495 38.515 62.3634 38.9507 61.9442V61.7842C38.9397 60.7307 39.2045 59.5834 40.3573 57.6474Z" fill="#4D4084"/>
<path opacity="0.5" d="M40.3573 57.6474C41.5156 55.7113 40.0705 54.2772 39.1879 55.1542C38.3054 56.0312 38.2558 56.809 37.5332 57.3605C36.237 58.2927 36.3142 57.6143 35.553 58.9381C35.1559 59.622 35.553 60.4715 35.6799 60.8796C35.8903 61.5785 35.9871 62.3067 35.9667 63.0363C35.9667 63.1687 35.9667 63.4555 35.9667 63.8361C36.5183 63.974 37.1526 63.5658 37.6214 63.1577C38.0903 62.7495 38.515 62.3634 38.9507 61.9442V61.7842C38.9397 60.7307 39.2045 59.5834 40.3573 57.6474Z" fill="white"/>
</g>
<defs>
<filter id="filter0_d_217_59483" x="11.5" y="25" width="34.5486" height="63" filterUnits="userSpaceOnUse" color-interpolation-filters="sRGB">
<feFlood flood-opacity="0" result="BackgroundImageFix"/>
<feColorMatrix in="SourceAlpha" type="matrix" values="0 0 0 0 0 0 0 0 0 0 0 0 0 0 0 0 0 0 127 0" result="hardAlpha"/>
<feOffset dy="2"/>
<feGaussianBlur stdDeviation="1"/>
<feComposite in2="hardAlpha" operator="out"/>
<feColorMatrix type="matrix" values="0 0 0 0 0 0 0 0 0 0 0 0 0 0 0 0 0 0 0.25 0"/>
<feBlend mode="normal" in2="BackgroundImageFix" result="effect1_dropShadow_217_59483"/>
<feBlend mode="normal" in="SourceGraphic" in2="effect1_dropShadow_217_59483" result="shape"/>
</filter>
</defs>
</svg>
