<svg width="52" height="111" viewBox="0 0 52 111" fill="none" xmlns="http://www.w3.org/2000/svg">
<path d="M0 52C0 23.2812 23.2812 0 52 0V111C23.2812 111 0 87.7188 0 59V52Z" fill="#F1F8E2"/>
<g filter="url(#filter0_d_217_59480)">
<path d="M7.50292 70.787V72.5619L32.5787 87.0415V85.2614C32.5787 84.2839 31.5986 82.9223 30.3906 82.2256L9.69103 70.2705C8.96254 69.8519 8.31883 69.7672 7.92147 69.9791C7.78278 70.0608 7.66993 70.1799 7.59589 70.3228C7.52185 70.4657 7.48963 70.6266 7.50292 70.787Z" fill="#263238"/>
<path d="M22.2268 61.724L22.2586 61.7081C22.6533 61.4802 23.3182 61.5571 24.0493 61.973L44.7515 73.9254C45.9568 74.6221 46.937 75.9837 46.937 76.9639V78.7414L32.5766 87.0329V85.2527C32.5766 84.2752 31.5964 82.9136 30.3885 82.2169L9.68887 70.2618C8.96039 69.8433 8.31667 69.7585 7.91931 69.9704L22.2268 61.724Z" fill="#455A64"/>
<path d="M38.4358 71.7418C36.6954 70.7378 34.3298 70.3193 32.0622 70.4782L23.376 65.4609L16.6819 69.3259L25.3654 74.3458C25.0873 75.6544 25.8184 77.0213 27.5588 78.0253C30.5628 79.7605 35.4318 79.7605 38.4358 78.0253C41.4398 76.2902 41.4398 73.4769 38.4358 71.7418Z" fill="#37474F"/>
<path d="M15.0734 65.434V68.3956L20.2019 71.3573V68.3956C20.2019 66.7612 19.0549 64.7718 17.6376 63.9532C16.9197 63.5373 16.2734 63.5029 15.8098 63.7837C15.3462 64.0645 15.0734 64.6261 15.0734 65.434Z" fill="#B3D766"/>
<path opacity="0.6" d="M15.0734 65.434V68.3956L20.2019 71.3573V68.3956C20.2019 66.7612 19.0549 64.7718 17.6376 63.9532C16.9197 63.5373 16.2734 63.5029 15.8098 63.7837C15.3462 64.0645 15.0734 64.6261 15.0734 65.434Z" fill="white"/>
<path d="M21.9448 60.2415L21.9845 60.2177C22.4481 59.9528 23.0865 59.9951 23.7912 60.4031C25.2084 61.219 26.3554 63.2084 26.3554 64.8429V67.8071L20.2017 71.3595V68.3979C20.2017 66.7634 19.0547 64.774 17.6375 63.9554C16.9566 63.5634 16.3421 63.5104 15.8838 63.7435L21.9448 60.2415Z" fill="#B3D766"/>
<path opacity="0.7" d="M21.9448 60.2415L21.9845 60.2177C22.4481 59.9528 23.0865 59.9951 23.7912 60.4031C25.2084 61.219 26.3554 63.2084 26.3554 64.8429V67.8071L20.2017 71.3595V68.3979C20.2017 66.7634 19.0547 64.774 17.6375 63.9554C16.9566 63.5634 16.3421 63.5104 15.8838 63.7435L21.9448 60.2415Z" fill="white"/>
<path d="M17.6378 66.5553C17.2616 66.3355 16.9543 66.5129 16.9543 66.95C16.9675 67.1875 17.0362 67.4186 17.1549 67.6247C17.2736 67.8308 17.439 68.0062 17.6378 68.1368C18.0166 68.354 18.3239 68.1765 18.3239 67.7395C18.3107 67.502 18.2416 67.2711 18.1224 67.0654C18.0032 66.8596 17.8372 66.6849 17.6378 66.5553Z" fill="#455A64"/>
<path d="M13.7599 54.041C15.1347 58.5231 16.1043 60.4145 18.6738 63.8424L23.4421 61.09C21.0871 57.3814 19.7891 54.592 19.1878 50.9151C18.144 44.515 20.499 38.8964 22.9918 36.5838L21.1375 34.0195C20.0249 34.6871 16.3692 36.7745 16.3692 36.7745L17.9268 39.3812C13.4711 41.8051 12.3877 49.5561 13.7599 54.041Z" fill="#37474F"/>
<path d="M16.3714 36.7617C13.8496 38.269 9.98726 42.6903 10.5648 51.0533C10.8455 55.1328 12.4985 60.0812 15.4151 64.1554C15.5144 64.0014 15.6499 63.874 15.8098 63.7846C15.99 63.6786 16.2681 63.5196 16.4642 63.4057C16.9277 63.1408 17.5741 63.162 18.2893 63.5753C18.4234 63.6558 18.5526 63.7442 18.6761 63.8402C16.6099 60.0256 14.4376 56.6878 13.9078 52.9924C12.7529 44.9658 16.2761 40.3591 17.9264 39.3763L16.3714 36.7617Z" fill="#263238"/>
<path d="M16.3718 36.7621C17.6641 36.0218 19.1213 35.6175 20.6103 35.5859L21.0951 38.3886C21.0951 38.3886 19.8474 38.1846 17.9348 39.3688L16.3718 36.7621Z" fill="#263238"/>
<path d="M28.396 71.5379V69.1696L35.0875 65.3047V67.6729L28.396 71.5379Z" fill="#B3D766"/>
<path opacity="0.15" d="M28.396 71.5379V69.1696L35.0875 65.3047V67.6729L28.396 71.5379Z" fill="black"/>
<path d="M28.3959 71.5375L16.6819 64.7745V62.4062L28.3959 69.1692V71.5375Z" fill="#B3D766"/>
<path opacity="0.25" d="M28.3959 71.5375L16.6819 64.7745V62.4062L28.3959 69.1692V71.5375Z" fill="black"/>
<path d="M35.0874 65.306L23.3734 58.543L16.6819 62.4079L28.3959 69.1709L35.0874 65.306Z" fill="#B3D766"/>
<path d="M40.6851 70.1329V67.9606C40.6851 66.8242 39.9381 65.6878 38.4361 64.8189C35.4321 63.0864 30.5631 63.0864 27.5591 64.8189C26.0571 65.6878 25.3074 66.8242 25.3074 67.9606V70.1329C25.2863 71.2852 26.0359 72.4402 27.5565 73.3117C30.5605 75.0468 35.4294 75.0468 38.4334 73.3117C39.954 72.4349 40.701 71.2799 40.6798 70.1329H40.6851Z" fill="#B3D766"/>
<path opacity="0.25" d="M40.6851 70.1329V67.9606C40.6851 66.8242 39.9381 65.6878 38.4361 64.8189C35.4321 63.0864 30.5631 63.0864 27.5591 64.8189C26.0571 65.6878 25.3074 66.8242 25.3074 67.9606V70.1329C25.2863 71.2852 26.0359 72.4402 27.5565 73.3117C30.5605 75.0468 35.4294 75.0468 38.4334 73.3117C39.954 72.4349 40.701 71.2799 40.6798 70.1329H40.6851Z" fill="black"/>
<path d="M27.5587 64.8189C30.5627 63.0864 35.4316 63.0864 38.4356 64.8189C41.4396 66.5514 41.4396 69.3646 38.4356 71.0998C35.4316 72.8349 30.5627 72.8349 27.5587 71.0998C24.5547 69.3646 24.5547 66.554 27.5587 64.8189Z" fill="#B3D766"/>
<path d="M38.7613 67.8425V66.2133C38.7613 65.3603 38.2024 64.5073 37.0739 63.8583C34.8222 62.5576 31.1692 62.5576 28.9175 63.8583C27.7917 64.5073 27.2301 65.3603 27.2301 66.2133V67.8425C27.2142 68.7061 27.7758 69.5723 28.9148 70.2266C31.1665 71.5273 34.8196 71.5273 37.0712 70.2266C38.213 69.5696 38.7719 68.7034 38.7587 67.8425H38.7613Z" fill="#E0E0E0"/>
<path d="M28.9172 63.8583C31.1688 62.5576 34.8219 62.5576 37.0735 63.8583C39.3252 65.159 39.3252 67.2676 37.0735 68.5657C34.8219 69.8637 31.1688 69.8663 28.9172 68.5657C26.6655 67.265 26.6655 65.159 28.9172 63.8583Z" fill="#FAFAFA"/>
<path d="M29.1501 63.9941C31.2694 62.7676 34.7131 62.7676 36.8323 63.9941C38.9516 65.2206 38.9516 67.2074 36.8323 68.4339C34.7131 69.6604 31.2694 69.6604 29.1501 68.4339C27.0309 67.2074 27.0256 65.218 29.1501 63.9941Z" fill="#E6E6E6"/>
<path d="M36.8412 65.4999C34.7219 64.2761 31.2782 64.2761 29.159 65.4999C28.5357 65.8221 28.0331 66.3368 27.7258 66.9675C28.0331 67.5982 28.5357 68.1129 29.159 68.4351C31.2782 69.6616 34.7219 69.6616 36.8412 68.4351C37.4651 68.1129 37.9685 67.5983 38.2769 66.9675C37.9685 66.3367 37.4651 65.8221 36.8412 65.4999Z" fill="#F0F0F0"/>
<path d="M32.0204 66.3964C32.3231 66.2436 32.6575 66.1641 32.9966 66.1641C33.3356 66.1641 33.67 66.2436 33.9727 66.3964C34.5025 66.709 34.5025 67.2123 33.9727 67.5249C33.67 67.6776 33.3356 67.7572 32.9966 67.7572C32.6575 67.7572 32.3231 67.6776 32.0204 67.5249C31.4826 67.2176 31.4826 66.7143 32.0204 66.3964Z" fill="#B3D766"/>
<path d="M34.4942 67.5462C34.5875 67.4979 34.6911 67.4727 34.7962 67.4727C34.9013 67.4727 35.0048 67.4979 35.0982 67.5462C35.1347 67.5583 35.1664 67.5815 35.1889 67.6127C35.2114 67.6438 35.2235 67.6813 35.2235 67.7197C35.2235 67.7581 35.2114 67.7956 35.1889 67.8267C35.1664 67.8579 35.1347 67.8811 35.0982 67.8932C35.0048 67.9415 34.9013 67.9667 34.7962 67.9667C34.6911 67.9667 34.5875 67.9415 34.4942 67.8932C34.4577 67.8811 34.426 67.8579 34.4035 67.8267C34.381 67.7956 34.3689 67.7581 34.3689 67.7197C34.3689 67.6813 34.381 67.6438 34.4035 67.6127C34.426 67.5815 34.4577 67.5583 34.4942 67.5462Z" fill="#B3D766"/>
<path opacity="0.6" d="M33.9516 66.6946C33.9516 66.8456 33.7396 66.9595 33.4774 66.9595C33.2151 66.9595 33.0059 66.8403 33.0059 66.6946C33.0059 66.5489 33.2178 66.4297 33.4774 66.4297C33.737 66.4297 33.9516 66.5462 33.9516 66.6946Z" fill="white"/>
<path opacity="0.6" d="M35.0445 67.6329C35.0445 67.6806 34.9783 67.7177 34.8988 67.7177C34.8194 67.7177 34.7505 67.6806 34.7505 67.6329C34.7505 67.5852 34.8167 67.5508 34.8988 67.5508C34.981 67.5508 35.0445 67.5879 35.0445 67.6329Z" fill="white"/>
<path d="M35.5029 54.5263V48.5156L39.6884 48.5289V54.5395C39.6884 54.8495 39.4818 55.1568 39.0738 55.3925C38.6153 55.625 38.1084 55.7462 37.5944 55.7462C37.0803 55.7462 36.5734 55.625 36.1149 55.3925C35.9439 55.3172 35.7967 55.1968 35.6889 55.0442C35.5811 54.8916 35.5168 54.7126 35.5029 54.5263Z" fill="#263238"/>
<path d="M39.6858 53.2878C39.6858 53.5977 39.4791 53.905 39.0712 54.1408C38.6127 54.3733 38.1058 54.4944 37.5917 54.4944C37.0776 54.4944 36.5707 54.3733 36.1122 54.1408C35.9433 54.0659 35.7976 53.947 35.6904 53.7964C35.5832 53.6459 35.5184 53.4693 35.5029 53.2852V54.5382C35.5184 54.7223 35.5832 54.8989 35.6904 55.0494C35.7976 55.2 35.9433 55.3189 36.1122 55.3938C36.5707 55.6263 37.0776 55.7474 37.5917 55.7474C38.1058 55.7474 38.6127 55.6263 39.0712 55.3938C39.4791 55.158 39.6858 54.864 39.6858 54.5408V53.2878Z" fill="#B3D766"/>
<path opacity="0.6" d="M39.6858 53.2878C39.6858 53.5977 39.4791 53.905 39.0712 54.1408C38.6127 54.3733 38.1058 54.4944 37.5917 54.4944C37.0776 54.4944 36.5707 54.3733 36.1122 54.1408C35.9433 54.0659 35.7976 53.947 35.6904 53.7964C35.5832 53.6459 35.5184 53.4693 35.5029 53.2852V54.5382C35.5184 54.7223 35.5832 54.8989 35.6904 55.0494C35.7976 55.2 35.9433 55.3189 36.1122 55.3938C36.5707 55.6263 37.0776 55.7474 37.5917 55.7474C38.1058 55.7474 38.6127 55.6263 39.0712 55.3938C39.4791 55.158 39.6858 54.864 39.6858 54.5408V53.2878Z" fill="white"/>
<path d="M30.5077 54.5263V48.5156L26.3223 48.5289V54.5395C26.3223 54.8495 26.5289 55.1568 26.9368 55.3925C27.3954 55.625 27.9022 55.7462 28.4163 55.7462C28.9304 55.7462 29.4373 55.625 29.8958 55.3925C30.0664 55.3167 30.2133 55.1962 30.3211 55.0437C30.4288 54.8912 30.4933 54.7124 30.5077 54.5263Z" fill="#263238"/>
<path d="M26.3169 53.2878C26.3169 53.5977 26.5235 53.905 26.9315 54.1408C27.39 54.3733 27.8969 54.4944 28.411 54.4944C28.9251 54.4944 29.4319 54.3733 29.8905 54.1408C30.0591 54.0654 30.2045 53.9464 30.3116 53.7959C30.4187 53.6455 30.4837 53.4691 30.4997 53.2852V54.5382C30.4837 54.7221 30.4187 54.8985 30.3116 55.0489C30.2045 55.1994 30.0591 55.3184 29.8905 55.3938C29.4319 55.6263 28.9251 55.7474 28.411 55.7474C27.8969 55.7474 27.39 55.6263 26.9315 55.3938C26.5235 55.158 26.3169 54.864 26.3169 54.5408V53.2878Z" fill="#B3D766"/>
<path opacity="0.25" d="M26.3169 53.2878C26.3169 53.5977 26.5235 53.905 26.9315 54.1408C27.39 54.3733 27.8969 54.4944 28.411 54.4944C28.9251 54.4944 29.4319 54.3733 29.8905 54.1408C30.0591 54.0654 30.2045 53.9464 30.3116 53.7959C30.4187 53.6455 30.4837 53.4691 30.4997 53.2852V54.5382C30.4837 54.7221 30.4187 54.8985 30.3116 55.0489C30.2045 55.1994 30.0591 55.3184 29.8905 55.3938C29.4319 55.6263 28.9251 55.7474 28.411 55.7474C27.8969 55.7474 27.39 55.6263 26.9315 55.3938C26.5235 55.158 26.3169 54.864 26.3169 54.5408V53.2878Z" fill="black"/>
<path d="M30.9052 57.1774V51.1641L35.088 51.1773V57.1906C35.0703 57.3742 35.004 57.5497 34.896 57.6991C34.788 57.8486 34.6421 57.9666 34.4734 58.041C34.0149 58.2735 33.508 58.3946 32.9939 58.3946C32.4798 58.3946 31.973 58.2735 31.5145 58.041C31.1065 57.7946 30.9025 57.4847 30.9052 57.1774Z" fill="#37474F"/>
<path d="M35.088 55.935C35.088 56.2449 34.8814 56.5522 34.4734 56.788C34.0147 57.0199 33.5079 57.1407 32.9939 57.1407C32.48 57.1407 31.9732 57.0199 31.5145 56.788C31.1065 56.5496 30.9025 56.2396 30.9052 55.9297V57.1853C30.9052 57.4926 31.1065 57.8026 31.5145 58.041C31.973 58.2735 32.4798 58.3946 32.9939 58.3946C33.508 58.3946 34.0149 58.2735 34.4734 58.041C34.6421 57.9666 34.788 57.8486 34.896 57.6991C35.004 57.5497 35.0703 57.3742 35.088 57.1906V55.935Z" fill="#B3D766"/>
<path d="M40.1076 43.2827C40.1076 42.4351 39.652 41.59 38.7222 40.8801C38.177 40.4535 37.6828 39.9655 37.2493 39.4258L35.2493 36.9939C34.0736 35.5444 32.4967 34.4735 30.7157 33.9152C28.9348 33.3569 27.0288 33.3359 25.2359 33.8548C24.6565 34.0249 24.0984 34.2604 23.5723 34.5568C22.0968 35.4019 21.4293 36.5436 21.5776 37.6562V44.6391C21.4928 45.6987 22.1577 46.7954 23.5697 47.6166L28.3883 50.4113C31.0585 51.9663 35.4003 51.9795 38.0838 50.4431C39.4083 49.6749 40.0917 48.6682 40.0997 47.659C40.1076 46.6497 40.1023 44.292 40.1076 43.2827Z" fill="#37474F"/>
<path d="M23.3735 45.5802L25.0477 46.5444V45.5802L23.3735 44.6133V45.5802Z" fill="#B3D766"/>
<path d="M26.4148 43.6298C27.59 45.0801 29.1667 46.1517 30.9478 46.7105C32.7288 47.2693 34.6351 47.2905 36.4282 46.7715C37.0076 46.6015 37.5657 46.366 38.0918 46.0695C40.5501 44.6603 40.762 42.4377 38.7222 40.8774C38.1773 40.4534 37.6839 39.9671 37.252 39.4284L35.2494 36.9939C34.0736 35.5444 32.4967 34.4735 30.7158 33.9152C28.9348 33.3569 27.0288 33.3359 25.236 33.8548C24.6566 34.0249 24.0985 34.2604 23.5724 34.5568C21.1141 35.9661 20.9022 38.1887 22.9446 39.7463C23.489 40.1719 23.9823 40.659 24.4148 41.198L26.4148 43.6298Z" fill="#455A64"/>
<path d="M38.0913 49.6019C35.4079 51.141 31.0661 51.1277 28.3959 49.5727L23.5561 46.778C22.2315 46.0018 21.5534 44.9846 21.556 43.9727V44.8098C21.556 45.8217 22.2183 46.8389 23.5561 47.6151L28.3879 50.4098C31.0581 51.9648 35.3999 51.978 38.0834 50.4416C39.4079 49.6734 40.0914 48.6668 40.0993 47.6575V46.8204C40.0993 47.8297 39.4264 48.8363 38.0913 49.6019Z" fill="#B3D766"/>
<path d="M21.5534 37.3464V32.5781L35.2674 32.6205V37.3888C35.2674 38.4007 34.5919 39.4126 33.2515 40.1809C30.568 41.72 26.2289 41.7067 23.556 40.1517C22.2156 39.3756 21.5507 38.3583 21.5534 37.3464Z" fill="#37474F"/>
<path d="M35.2755 32.6322L21.5614 32.5898C21.5614 32.5898 21.5614 32.6349 21.5614 33.6495C21.5614 34.664 22.2237 35.676 23.5614 36.4548C26.2317 38.0071 30.5734 38.023 33.2569 36.4839C34.5973 35.7157 35.2702 34.7038 35.2728 33.6918C35.2755 32.6799 35.2755 32.6322 35.2755 32.6322Z" fill="#B3D766"/>
<path d="M33.2694 29.8419C30.5965 28.2895 26.2548 28.2737 23.5713 29.8127C20.8878 31.3518 20.8825 33.8578 23.5554 35.4102C26.2283 36.9625 30.57 36.9784 33.2509 35.442C35.9317 33.9055 35.9423 31.3836 33.2694 29.8419Z" fill="#B3D766"/>
<path opacity="0.5" d="M33.2694 29.8419C30.5965 28.2895 26.2548 28.2737 23.5713 29.8127C20.8878 31.3518 20.8825 33.8578 23.5554 35.4102C26.2283 36.9625 30.57 36.9784 33.2509 35.442C35.9317 33.9055 35.9423 31.3836 33.2694 29.8419Z" fill="white"/>
<path d="M25.4446 32.2252V23.6953L31.3705 23.7139V32.2252C31.3705 32.6623 31.0764 33.0994 30.4963 33.4332C29.8456 33.7596 29.1273 33.9285 28.3993 33.9262C27.6714 33.9239 26.9541 33.7505 26.3055 33.4199C25.7386 33.0888 25.4446 32.6491 25.4446 32.2252Z" fill="#37474F"/>
<path d="M31.3732 23.7139L25.4473 23.6953C25.4473 23.6953 25.4473 24.5059 25.4473 24.943C25.4473 25.3801 25.736 25.8198 26.3135 26.1563C26.963 26.4854 27.6808 26.6569 28.4089 26.6569C29.137 26.6569 29.8548 26.4854 30.5043 26.1563C31.0818 25.8225 31.3732 25.3854 31.3758 24.9483C31.3785 24.5112 31.3732 23.7139 31.3732 23.7139Z" fill="#B3D766"/>
<path d="M30.5066 22.4996C29.8569 22.1711 29.1391 22 28.4112 22C27.6832 22 26.9654 22.1711 26.3158 22.4996C25.1555 23.1645 25.1529 24.248 26.3158 24.9208C26.9642 25.252 27.6815 25.4258 28.4096 25.4281C29.1377 25.4304 29.8561 25.2611 30.5066 24.9341C31.6615 24.2559 31.6642 23.1725 30.5066 22.4996Z" fill="#B3D766"/>
<path opacity="0.25" d="M30.5066 22.4996C29.8569 22.1711 29.1391 22 28.4112 22C27.6832 22 26.9654 22.1711 26.3158 22.4996C25.1555 23.1645 25.1529 24.248 26.3158 24.9208C26.9642 25.252 27.6815 25.4258 28.4096 25.4281C29.1377 25.4304 29.8561 25.2611 30.5066 24.9341C31.6615 24.2559 31.6642 23.1725 30.5066 22.4996Z" fill="black"/>
<path d="M29.9193 22.8372C29.4527 22.6001 28.9367 22.4766 28.4133 22.4766C27.8899 22.4766 27.374 22.6001 26.9073 22.8372C26.0729 23.3167 26.0703 24.0955 26.9073 24.5776C27.374 24.8147 27.8899 24.9383 28.4133 24.9383C28.9367 24.9383 29.4527 24.8147 29.9193 24.5776C30.7485 24.0982 30.7511 23.3193 29.9193 22.8372Z" fill="#263238"/>
<path d="M26.9067 24.0599C26.7818 24.1318 26.6676 24.221 26.5676 24.3248C26.6655 24.4288 26.7779 24.518 26.9014 24.5897C27.368 24.8268 27.884 24.9503 28.4074 24.9503C28.9308 24.9503 29.4468 24.8268 29.9134 24.5897C30.0383 24.5177 30.1524 24.4285 30.2524 24.3248C30.1531 24.2224 30.0409 24.1333 29.9187 24.0599C29.4521 23.8228 28.9361 23.6992 28.4127 23.6992C27.8893 23.6992 27.3733 23.8228 26.9067 24.0599Z" fill="#455A64"/>
<path d="M27.7417 24.177C27.7655 24.2936 27.6569 24.4128 27.4979 24.442C27.339 24.4711 27.188 24.4102 27.1642 24.2963C27.1403 24.1824 27.2489 24.0605 27.4079 24.0314C27.4716 24.0084 27.5417 24.0106 27.6038 24.0377C27.6659 24.0648 27.7152 24.1147 27.7417 24.177Z" fill="#FAFAFA"/>
<path d="M28.1221 24.0509C28.1243 24.0789 28.1163 24.1066 28.0996 24.1292C28.0829 24.1517 28.0587 24.1675 28.0313 24.1736C28.004 24.1797 27.9753 24.1757 27.9507 24.1625C27.926 24.1492 27.9069 24.1274 27.897 24.1012C27.8906 24.0714 27.8962 24.0403 27.9126 24.0145C27.9289 23.9888 27.9547 23.9704 27.9844 23.9635C28.0142 23.9571 28.0454 23.9627 28.0711 23.9791C28.0969 23.9954 28.1152 24.0212 28.1221 24.0509Z" fill="#FAFAFA"/>
<path d="M19.8762 33.8125C20.2841 33.5476 20.859 33.5847 21.4947 33.9529C21.859 34.1687 22.1856 34.4425 22.4616 34.7635C22.5332 34.843 22.602 34.9251 22.6656 35.0099V35.0231C23.0338 35.5026 23.3202 36.0397 23.5133 36.6126C23.6518 37.0124 23.7252 37.4319 23.7305 37.855C23.7305 38.5543 23.4921 39.0523 23.1027 39.2934L22.353 39.7278C22.4702 39.6537 22.5726 39.5585 22.655 39.447C22.8863 39.1067 23.0007 38.7004 22.9809 38.2894C22.9809 36.8563 21.9742 35.1105 20.7318 34.3953C20.384 34.1722 19.9729 34.0689 19.5609 34.1013C19.4078 34.118 19.2603 34.1687 19.1292 34.2496L19.8762 33.8125Z" fill="#B3D766"/>
<path opacity="0.7" d="M19.8762 33.8125C20.2841 33.5476 20.859 33.5847 21.4947 33.9529C21.859 34.1687 22.1856 34.4425 22.4616 34.7635C22.5332 34.843 22.602 34.9251 22.6656 35.0099V35.0231C23.0338 35.5026 23.3202 36.0397 23.5133 36.6126C23.6518 37.0124 23.7252 37.4319 23.7305 37.855C23.7305 38.5543 23.4921 39.0523 23.1027 39.2934L22.353 39.7278C22.4702 39.6537 22.5726 39.5585 22.655 39.447C22.8863 39.1067 23.0007 38.7004 22.9809 38.2894C22.9809 36.8563 21.9742 35.1105 20.7318 34.3953C20.384 34.1722 19.9729 34.0689 19.5609 34.1013C19.4078 34.118 19.2603 34.1687 19.1292 34.2496L19.8762 33.8125Z" fill="white"/>
<path d="M19.1431 34.2362C19.2742 34.1552 19.4217 34.1046 19.5749 34.0878C19.9868 34.0555 20.398 34.1588 20.7458 34.3819C21.9882 35.0998 22.9948 36.8428 22.9948 38.276C23.0146 38.687 22.9003 39.0933 22.669 39.4336C22.5866 39.5451 22.4842 39.6403 22.367 39.7144L22.3299 39.7329C22.1421 39.839 21.9281 39.8895 21.7127 39.8786C21.3703 39.858 21.0382 39.7534 20.7458 39.574C19.506 38.8561 18.4994 37.113 18.4994 35.6799C18.4994 34.9726 18.7431 34.4746 19.1431 34.2362Z" fill="#B3D766"/>
<path opacity="0.6" d="M19.1431 34.2362C19.2742 34.1552 19.4217 34.1046 19.5749 34.0878C19.9868 34.0555 20.398 34.1588 20.7458 34.3819C21.9882 35.0998 22.9948 36.8428 22.9948 38.276C23.0146 38.687 22.9003 39.0933 22.669 39.4336C22.5866 39.5451 22.4842 39.6403 22.367 39.7144L22.3299 39.7329C22.1421 39.839 21.9281 39.8895 21.7127 39.8786C21.3703 39.858 21.0382 39.7534 20.7458 39.574C19.506 38.8561 18.4994 37.113 18.4994 35.6799C18.4994 34.9726 18.7431 34.4746 19.1431 34.2362Z" fill="white"/>
<path d="M20.7457 35.9318C20.2477 35.6431 19.8424 35.8788 19.8424 36.4616C19.8595 36.7755 19.9502 37.081 20.1071 37.3534C20.264 37.6258 20.4828 37.8575 20.7457 38.0298C21.2464 38.3186 21.6517 38.0855 21.6517 37.5C21.6343 37.1859 21.5432 36.8802 21.3858 36.6078C21.2285 36.3354 21.0092 36.1038 20.7457 35.9318Z" fill="#455A64"/>
</g>
<defs>
<filter id="filter0_d_217_59480" x="5.5" y="22" width="43.437" height="69.043" filterUnits="userSpaceOnUse" color-interpolation-filters="sRGB">
<feFlood flood-opacity="0" result="BackgroundImageFix"/>
<feColorMatrix in="SourceAlpha" type="matrix" values="0 0 0 0 0 0 0 0 0 0 0 0 0 0 0 0 0 0 127 0" result="hardAlpha"/>
<feOffset dy="2"/>
<feGaussianBlur stdDeviation="1"/>
<feComposite in2="hardAlpha" operator="out"/>
<feColorMatrix type="matrix" values="0 0 0 0 0 0 0 0 0 0 0 0 0 0 0 0 0 0 0.25 0"/>
<feBlend mode="normal" in2="BackgroundImageFix" result="effect1_dropShadow_217_59480"/>
<feBlend mode="normal" in="SourceGraphic" in2="effect1_dropShadow_217_59480" result="shape"/>
</filter>
</defs>
</svg>
