<svg width="69" height="111" viewBox="0 0 69 111" fill="none" xmlns="http://www.w3.org/2000/svg">
<path d="M0.5 55.5C0.5 25.1243 25.1243 0.5 55.5 0.5H61C65.1421 0.5 68.5 3.85786 68.5 8V103C68.5 107.142 65.1421 110.5 61 110.5H55.5C25.1243 110.5 0.5 85.8757 0.5 55.5Z" fill="white"/>
<path d="M0.5 55.5C0.5 25.1243 25.1243 0.5 55.5 0.5H61C65.1421 0.5 68.5 3.85786 68.5 8V103C68.5 107.142 65.1421 110.5 61 110.5H55.5C25.1243 110.5 0.5 85.8757 0.5 55.5Z" stroke="#E7E9EC"/>
<g filter="url(#filter0_d_207_31304)">
<path d="M20.1545 82.4563L24.7338 79.8095L23.2073 78.9297L18.6281 81.5727L20.1545 82.4563Z" fill="#0071CE"/>
<path d="M29.3172 77.1633L33.9003 74.5165L32.3701 73.6367L27.7908 76.2798L29.3172 77.1633Z" fill="#0071CE"/>
<path d="M27.4352 76.0845C27.4352 78.2952 25.8862 80.9721 23.9725 82.1C22.9536 82.6902 22.0362 82.709 21.4046 82.2654C21.15 82.0653 20.9408 81.8133 20.7911 81.5261C20.6413 81.239 20.5544 80.9232 20.5361 80.5999C20.6647 80.5398 20.7902 80.4733 20.9121 80.4006C22.8258 79.299 24.3748 76.6108 24.3748 74.3851C24.3766 74.2204 24.3665 74.0558 24.3447 73.8926C24.6315 73.7408 24.9467 73.6504 25.2704 73.6271C25.594 73.6038 25.919 73.6481 26.2245 73.7572C26.9765 74.073 27.4352 74.8889 27.4352 76.0845Z" fill="#263238"/>
<path d="M27.7466 71.5434L27.6827 71.5058C26.7202 70.9945 25.4269 71.0885 23.9719 71.9231C21.0205 73.6263 18.6256 77.7694 18.6256 81.1795C18.6256 82.8939 19.2309 84.0932 20.2084 84.6497C21.186 85.2061 22.5056 85.1121 23.9681 84.2737C26.9195 82.5706 29.3106 78.4236 29.3106 75.0136C29.3144 73.2992 28.7204 72.0998 27.7466 71.5434ZM23.9869 82.0931C22.9643 82.6834 22.0469 82.7022 21.4153 82.2548C20.8589 81.8788 20.5205 81.1268 20.5205 80.0929C20.5205 77.886 22.0732 75.2053 23.9869 74.0774C24.8592 73.5736 25.6525 73.4872 26.2427 73.7466C26.9721 74.0586 27.4308 74.8745 27.4308 76.0776C27.4346 78.3033 25.8856 80.9915 23.9719 82.1006L23.9869 82.0931Z" fill="#37474F"/>
<path d="M26.4183 73.8491L26.3769 73.8265C25.7528 73.4919 24.9069 73.5559 23.9707 74.0935C22.057 75.1988 20.5043 77.887 20.5043 80.109C20.5043 81.2369 20.8802 81.9888 21.5307 82.3648C22.1811 82.7408 23.0345 82.6656 23.9707 82.1167C25.8844 81.0113 27.4334 78.3231 27.4334 76.1012C27.4334 74.9883 27.0461 74.2063 26.4183 73.8491ZM23.9707 81.3121C23.1511 81.7858 22.4142 81.8008 21.9029 81.4399C21.4592 81.1279 21.1848 80.5301 21.1848 79.7029C21.2375 78.7366 21.5171 77.7962 22.0012 76.9581C22.4852 76.12 23.16 75.4078 23.9707 74.8793C24.2341 74.6954 24.5367 74.5755 24.8546 74.5291C25.1725 74.4828 25.4968 74.5113 25.8017 74.6123C26.3882 74.8642 26.7566 75.5184 26.7566 76.4922C26.7043 77.4581 26.4247 78.3981 25.9406 79.2356C25.4565 80.0731 24.7816 80.7846 23.9707 81.3121Z" fill="#0071CE"/>
<path d="M38.4801 71.8703L43.0631 69.2273L41.5367 68.3438L36.9536 70.9906L38.4801 71.8703Z" fill="#0071CE"/>
<path d="M47.6454 66.5813L52.2247 63.9382L50.6983 63.0547L46.1152 65.7015L47.6454 66.5813Z" fill="#0071CE"/>
<path d="M56.8083 61.2922L61.3876 58.6491L59.8611 57.7656L55.2781 60.4124L56.8083 61.2922Z" fill="#0071CE"/>
<path d="M34.0058 36.6897C34.0537 36.6257 34.1207 36.5787 34.1972 36.5554C34.2736 36.5321 34.3555 36.5338 34.4309 36.5602C34.5064 36.5866 34.5714 36.6363 34.6167 36.7022C34.6619 36.7681 34.685 36.8467 34.6825 36.9265C34.7119 37.1405 34.6901 37.3585 34.6189 37.5624C34.5476 37.7663 34.429 37.9504 34.2727 38.0996C33.9719 38.359 33.6674 38.2537 33.596 37.8627C33.5669 37.6487 33.5888 37.4309 33.6601 37.227C33.7313 37.0231 33.8498 36.839 34.0058 36.6897Z" fill="#0071CE"/>
<path d="M37.5318 38.3528L34.4677 36.582L33.7947 38.2025L36.8701 39.977L37.5318 38.3528Z" fill="#0071CE"/>
<path d="M37.0621 38.4558C37.3629 38.2001 37.6636 38.3054 37.7388 38.6964C37.7665 38.9101 37.7435 39.1273 37.6717 39.3304C37.5998 39.5335 37.4811 39.7169 37.3253 39.8656C37.0245 40.1251 36.7199 40.0198 36.6485 39.6288C36.6211 39.4146 36.6442 39.1969 36.7161 38.9932C36.7879 38.7895 36.9064 38.6054 37.0621 38.4558Z" fill="#0071CE"/>
<path d="M60.6134 53.2822C60.6134 53.3574 60.6134 53.4251 60.6134 53.5003C60.6134 53.6507 60.6134 53.8048 60.6134 53.959C60.0044 53.6995 59.2111 53.786 58.3388 54.2898C56.4252 55.3952 54.8724 58.0833 54.8724 60.3053C54.8724 61.3355 55.2108 62.0799 55.7672 62.4671C55.611 62.5782 55.4491 62.6811 55.2822 62.7754L55.1055 62.8657L54.5754 64.8621L51.5075 63.1514C50.5375 62.5912 49.9397 61.3956 49.9397 59.6887C49.9397 56.2787 52.3309 52.1355 55.2822 50.4286C56.741 49.5864 58.0606 49.5 59.0419 50.0526L62.0496 51.737L62.1136 51.7746L60.6134 53.2822Z" fill="#455A64"/>
<path d="M62.1098 51.7426L62.0459 51.705C61.0834 51.1937 59.79 51.2877 58.335 52.1224C55.3837 53.8255 52.9888 57.9687 52.9888 61.3787C52.9888 63.0931 53.5941 64.2925 54.5716 64.8489C55.5491 65.4053 56.8688 65.3113 58.3313 64.4729C61.2826 62.7698 63.6738 58.6229 63.6738 55.2128C63.6851 53.4984 63.0798 52.2991 62.1098 51.7426ZM58.3501 62.2923C57.3275 62.8826 56.4101 62.9014 55.7785 62.454C55.222 62.078 54.8837 61.3261 54.8837 60.2922C54.8837 58.0852 56.4364 55.4046 58.3501 54.2767C59.2223 53.7729 60.0156 53.6864 60.6247 53.9458C61.3541 54.2579 61.8128 55.0737 61.8128 56.2768C61.8052 58.5025 60.2487 61.1907 58.335 62.2923H58.3501Z" fill="#37474F"/>
<path d="M61.8054 56.2915C61.8054 58.5022 60.2564 61.1791 58.3427 62.307C57.3239 62.8973 56.4065 62.9161 55.7749 62.4724C55.5202 62.2723 55.3111 62.0203 55.1613 61.7331C55.0116 61.446 54.9247 61.1302 54.9064 60.8069C55.035 60.7468 55.1604 60.6803 55.2823 60.6076C57.196 59.506 58.745 56.8179 58.745 54.5921C58.7468 54.4274 58.7368 54.2628 58.7149 54.0996C59.0017 53.9479 59.317 53.8575 59.6406 53.8342C59.9643 53.8109 60.2892 53.8552 60.5948 53.9643C61.3392 54.2801 61.8054 55.0884 61.8054 56.2915Z" fill="#263238"/>
<path d="M60.7825 54.0463L60.7412 54.02C60.1171 53.6891 59.2674 53.7493 58.335 54.2907C56.4213 55.396 54.8685 58.0805 54.8685 60.3062C54.8685 61.4341 55.2445 62.186 55.8949 62.562C56.5454 62.938 57.3988 62.859 58.335 62.3101C60.2486 61.2085 61.7976 58.5203 61.7976 56.2946C61.8052 55.1855 61.4292 54.4072 60.7825 54.0463ZM58.335 61.5055C57.5116 61.983 56.7747 61.9981 56.2671 61.6371C55.8197 61.3251 55.549 60.7273 55.549 59.9001C55.6017 58.9338 55.8814 57.9934 56.3654 57.1553C56.8495 56.3172 57.5242 55.605 58.335 55.0765C59.0343 54.6704 59.6734 54.599 60.1622 54.8095C60.7487 55.0614 61.1171 55.7156 61.1171 56.6894C61.0649 57.6544 60.7857 58.5935 60.3023 59.4303C59.8189 60.2672 59.1448 60.9782 58.335 61.5055Z" fill="#0071CE"/>
<path d="M55.2771 57.4157L63.9244 52.4228C64.9282 51.8401 61.6685 48.4375 59.2435 48.2082C57.9085 48.0469 56.5544 48.1751 55.2733 48.5842C55.2733 48.5842 57.1193 50.949 56.8035 52.2912C56.4877 53.6334 55.2771 57.4157 55.2771 57.4157Z" fill="#0071CE"/>
<path d="M43.0633 43.3047C43.0633 43.3047 55.5981 49.6285 56.1395 50.0082C56.6809 50.3879 56.1395 54.798 55.2785 57.4148C54.4176 60.0315 53.0942 64.0544 52.5641 65.1823C52.0339 66.3102 51.3421 66.7313 50.0714 67.4644L41.0481 72.6791L28.8329 74.168L23.9829 71.5362L25.2462 63.5995C25.2462 63.5995 38.2284 56.6929 40.0067 55.6665C41.785 54.6401 47.0448 49.824 43.0633 43.3047Z" fill="#0071CE"/>
<path opacity="0.2" d="M43.0633 43.3047C43.0633 43.3047 55.5981 49.6285 56.1395 50.0082C56.6809 50.3879 56.1395 54.798 55.2785 57.4148C54.4176 60.0315 53.0942 64.0544 52.5641 65.1823C52.0339 66.3102 51.3421 66.7313 50.0714 67.4644L41.0481 72.6791L28.8329 74.168L23.9829 71.5362L25.2462 63.5995C25.2462 63.5995 38.2284 56.6929 40.0067 55.6665C41.785 54.6401 47.0448 49.824 43.0633 43.3047Z" fill="black"/>
<path d="M56.3802 55.9061C57.5081 52.8757 58.3503 50.3643 58.2074 48.6687C58.0345 46.6572 57.2825 45.0142 53.9665 44.1871C50.6504 43.36 46.0147 43.375 46.0147 43.375L44.6049 44.1909C44.6049 44.1909 54.1394 49.7176 55.2222 50.3192C55.8839 50.6951 56.5907 52.3532 55.2936 57.4175L55.5155 57.5453C55.6245 57.613 56.0193 56.8798 56.3802 55.9061Z" fill="#0071CE"/>
<path opacity="0.3" d="M56.3802 55.9061C57.5081 52.8757 58.3503 50.3643 58.2074 48.6687C58.0345 46.6572 57.2825 45.0142 53.9665 44.1871C50.6504 43.36 46.0147 43.375 46.0147 43.375L44.6049 44.1909C44.6049 44.1909 54.1394 49.7176 55.2222 50.3192C55.8839 50.6951 56.5907 52.3532 55.2936 57.4175L55.5155 57.5453C55.6245 57.613 56.0193 56.8798 56.3802 55.9061Z" fill="white"/>
<path d="M49.1576 46.8322L50.699 45.9525C50.699 45.9525 50.6088 40.61 48.3605 39.3129C46.1122 38.0158 38.4801 38.8993 38.4801 38.8993L36.9536 39.7791L49.1576 46.8322Z" fill="#0071CE"/>
<path d="M44.1564 40.5344C43.4233 40.9593 43.4233 41.6435 44.1564 42.0646C44.5675 42.2739 45.0223 42.383 45.4836 42.383C45.9449 42.383 46.3997 42.2739 46.8108 42.0646C47.5401 41.6435 47.5401 40.9555 46.8108 40.5344C46.3991 40.3269 45.9446 40.2188 45.4836 40.2188C45.0226 40.2188 44.568 40.3269 44.1564 40.5344Z" fill="#F0F0F0"/>
<path d="M46.5028 43.087C45.9877 43.3877 45.9877 43.8727 46.5028 44.1698C46.7937 44.3186 47.1159 44.3962 47.4427 44.3962C47.7695 44.3962 48.0916 44.3186 48.3826 44.1698C48.9014 43.8727 48.9014 43.3877 48.3826 43.087C48.0911 42.9399 47.7692 42.8633 47.4427 42.8633C47.1162 42.8633 46.7943 42.9399 46.5028 43.087Z" fill="#F0F0F0"/>
<path d="M40.596 39.8553C40.0772 40.1523 40.0772 40.6373 40.596 40.9381C40.8875 41.0852 41.2095 41.1618 41.536 41.1618C41.8625 41.1618 42.1844 41.0852 42.4759 40.9381C42.9947 40.6373 42.9947 40.1523 42.4759 39.8553C42.1849 39.7065 41.8628 39.6289 41.536 39.6289C41.2091 39.6289 40.887 39.7065 40.596 39.8553Z" fill="#F0F0F0"/>
<path d="M49.3967 45.2828C49.6974 45.0234 49.9982 45.1287 50.0734 45.5197C50.1011 45.7339 50.0781 45.9517 50.0063 46.1554C49.9345 46.3592 49.8158 46.5432 49.6598 46.6927C49.6119 46.7567 49.5449 46.8037 49.4685 46.827C49.392 46.8503 49.3101 46.8486 49.2347 46.8222C49.1593 46.7958 49.0942 46.746 49.049 46.6802C49.0037 46.6143 48.9806 46.5357 48.9831 46.4558C48.9542 46.2415 48.9766 46.0234 49.0485 45.8195C49.1204 45.6155 49.2397 45.4316 49.3967 45.2828Z" fill="#0071CE"/>
<path d="M52.9062 46.9427L49.8383 45.1719L49.1691 46.7923L52.2407 48.5631L52.9062 46.9427Z" fill="#0071CE"/>
<path d="M52.4323 47.0452C52.4802 46.9812 52.5472 46.9341 52.6236 46.9108C52.7001 46.8876 52.782 46.8892 52.8574 46.9156C52.9328 46.942 52.9979 46.9918 53.0431 47.0577C53.0884 47.1236 53.1114 47.2021 53.109 47.282C53.1376 47.4963 53.1151 47.7143 53.0432 47.9182C52.9713 48.1221 52.8521 48.3061 52.6954 48.455C52.3947 48.7145 52.0939 48.6054 52.0187 48.2182C51.9907 48.0039 52.0135 47.7861 52.0854 47.5823C52.1572 47.3785 52.2761 47.1945 52.4323 47.0452Z" fill="#0071CE"/>
<path d="M52.4323 47.0452C52.4802 46.9812 52.5472 46.9341 52.6236 46.9108C52.7001 46.8876 52.782 46.8892 52.8574 46.9156C52.9328 46.942 52.9979 46.9918 53.0431 47.0577C53.0884 47.1236 53.1114 47.2021 53.109 47.282C53.1376 47.4963 53.1151 47.7143 53.0432 47.9182C52.9713 48.1221 52.8521 48.3061 52.6954 48.455C52.3947 48.7145 52.0939 48.6054 52.0187 48.2182C51.9907 48.0039 52.0135 47.7861 52.0854 47.5823C52.1572 47.3785 52.2761 47.1945 52.4323 47.0452Z" fill="black"/>
<path d="M26.2503 73.0791C26.2503 73.1543 26.2503 73.222 26.2503 73.2971C26.2503 73.4475 26.2503 73.6017 26.2503 73.7558C25.6412 73.4964 24.8479 73.5829 23.9945 74.0867C22.0808 75.192 20.528 77.8802 20.528 80.1022C20.528 81.1323 20.8664 81.8768 21.4229 82.264C21.2666 82.3751 21.1047 82.478 20.9379 82.5723L20.7611 82.6625L20.231 84.6589L17.1631 82.9483C16.1931 82.3881 15.5953 81.1925 15.5953 79.4856C15.5953 76.0756 17.9865 71.9324 20.9379 70.2255C22.3966 69.3833 23.7163 69.2968 24.6975 69.8495L27.7053 71.5339L27.7692 71.5715L26.2503 73.0791Z" fill="#455A64"/>
<path d="M17.098 67.1133L14.8083 75.05L19.3914 77.6968L21.7638 69.809L17.098 67.1133Z" fill="#0071CE"/>
<path opacity="0.2" d="M17.098 67.1133L14.8083 75.05L19.3914 77.6968L21.7638 69.809L17.098 67.1133Z" fill="black"/>
<path d="M17.0975 67.1102C17.0975 67.1102 19.6955 69.3171 21.7633 69.8059C24.4778 70.4638 28.7939 70.5353 30.3241 70.6405C32.6626 70.8022 34.4297 70.7985 35.2568 70.5014C36.3283 70.1255 39.2083 68.4524 40.0053 67.9937C41.5317 67.114 42.1822 63.6513 37.9751 62.7039C35.1304 62.1145 32.2328 61.8184 29.3278 61.8203L17.0975 67.1102Z" fill="#0071CE"/>
<path d="M43.0072 66.0954C42.8764 66.4224 42.788 66.7648 42.744 67.1143C42.6228 67.4775 42.5944 67.8652 42.6613 68.2422C42.9479 68.7162 43.3989 69.0681 43.9283 69.231C44.3097 69.3158 44.7045 69.3212 45.088 69.2468C45.4716 69.1724 45.8357 69.0199 46.1578 68.7986C46.936 68.3324 47.5225 67.7685 48.6279 67.4526C49.418 67.2854 50.1621 66.948 50.8085 66.4639C51.4213 65.9713 52.2409 64.6103 51.0679 64.2945C49.8949 63.9787 47.3458 65.0916 45.0224 65.1931L43.0072 66.0954Z" fill="#37474F"/>
<path d="M43.0071 64.6445V66.3815C43.0782 66.5767 43.2019 66.7484 43.3644 66.8778C43.5269 67.0072 43.722 67.0891 43.9282 67.1146C44.117 67.1423 44.3098 67.1216 44.4884 67.0545C44.77 66.947 45.0141 66.7594 45.1904 66.5149C45.3668 66.2704 45.4678 65.9796 45.481 65.6784L45.5486 64.6445H43.0071Z" fill="#FFA8A7"/>
<path d="M46.3147 53.9023C46.3147 56.0642 45.7057 65.4107 45.7057 65.4107C45.7057 65.4107 44.8221 66.5386 42.9009 65.4107L42.2543 54.9663L46.3147 53.9023Z" fill="#37474F"/>
<path d="M36.2388 63.1148L42.2543 59.6484C42.5008 59.519 42.7073 59.3247 42.8513 59.0865C42.9953 58.8482 43.0714 58.5752 43.0714 58.2968C43.0714 58.0184 42.9953 57.7453 42.8513 57.5071C42.7073 57.2689 42.5008 57.0745 42.2543 56.9452L37.7728 54.3585C37.5205 54.2307 37.2416 54.1641 36.9588 54.1641C36.676 54.1641 36.3971 54.2307 36.1448 54.3585L30.1293 57.8249C29.8839 57.9552 29.6786 58.1498 29.5354 58.388C29.3922 58.6261 29.3165 58.8987 29.3165 59.1765C29.3165 59.4544 29.3922 59.727 29.5354 59.9651C29.6786 60.2033 29.8839 60.3979 30.1293 60.5282L34.6109 63.1148C34.8632 63.2427 35.142 63.3093 35.4249 63.3093C35.7077 63.3093 35.9865 63.2427 36.2388 63.1148Z" fill="#0071CE"/>
<path d="M36.2388 63.1148L42.2543 59.6484C42.5008 59.519 42.7073 59.3247 42.8513 59.0865C42.9953 58.8482 43.0714 58.5752 43.0714 58.2968C43.0714 58.0184 42.9953 57.7453 42.8513 57.5071C42.7073 57.2689 42.5008 57.0745 42.2543 56.9452L37.7728 54.3585C37.5205 54.2307 37.2416 54.1641 36.9588 54.1641C36.676 54.1641 36.3971 54.2307 36.1448 54.3585L30.1293 57.8249C29.8839 57.9552 29.6786 58.1498 29.5354 58.388C29.3922 58.6261 29.3165 58.8987 29.3165 59.1765C29.3165 59.4544 29.3922 59.727 29.5354 59.9651C29.6786 60.2033 29.8839 60.3979 30.1293 60.5282L34.6109 63.1148C34.8632 63.2427 35.142 63.3093 35.4249 63.3093C35.7077 63.3093 35.9865 63.2427 36.2388 63.1148Z" fill="white"/>
<path d="M30.1301 58.7649L34.6117 61.3515C34.864 61.4794 35.1428 61.546 35.4257 61.546C35.7085 61.546 35.9874 61.4794 36.2396 61.3515L42.2551 57.8851C42.3533 57.8518 42.4386 57.7885 42.4991 57.7042C42.5595 57.6199 42.592 57.5188 42.592 57.4151C42.592 57.3114 42.5595 57.2103 42.4991 57.126C42.4386 57.0417 42.3533 56.9785 42.2551 56.9452L37.7736 54.3585C37.5213 54.2307 37.2424 54.1641 36.9596 54.1641C36.6768 54.1641 36.3979 54.2307 36.1456 54.3585L30.1301 57.8249C30.0319 57.8583 29.9466 57.9215 29.8862 58.0058C29.8258 58.0901 29.7933 58.1912 29.7933 58.2949C29.7933 58.3986 29.8258 58.4997 29.8862 58.584C29.9466 58.6683 30.0319 58.7315 30.1301 58.7649Z" fill="#0071CE"/>
<path d="M33.7948 35.7573L33.0316 38.9042L29.7532 39.1034L30.46 34.7422L33.7948 35.7573Z" fill="#FFA8A7"/>
<path d="M36.9907 33.3867C36.9907 33.3867 37.3667 34.7177 37.2125 34.7928C36.9758 34.829 36.7349 34.829 36.4982 34.7928L36.9907 33.3867Z" fill="#F28F8F"/>
<path d="M36.3627 29.1397C36.889 29.76 37.3703 30.7789 36.9981 33.2753C36.592 36.0049 36.0882 36.3207 35.6822 36.5839C35.1521 36.9297 33.0316 36.7455 32.4338 36.3094C31.7157 35.7868 30.6066 34.1288 30.3434 32.4933C30.0351 30.5721 30.678 28.4404 32.0917 28.0757C34.0806 27.5606 35.9153 28.6133 36.3627 29.1397Z" fill="#FFA8A7"/>
<path d="M30.13 35.6239C30.6375 36.1502 31.679 36.2931 32.3331 36.4134C32.9873 36.5337 34.9988 36.6653 35.5928 35.2329C36.1868 33.8004 35.7808 32.7703 36.5102 32.4244C37.2395 32.0785 37.9689 31.8529 38.1607 31.6725C38.3524 31.492 38.3562 29.1347 36.3974 27.9128C34.4386 26.6909 31.4383 26.4089 29.4645 28.8865C27.9681 30.8002 28.581 34.0072 30.13 35.6239Z" fill="#455A64"/>
<path d="M32.1038 36.4333C32.6113 36.4784 34.2167 36.2265 34.7017 35.5648C35.1867 34.9031 35.3822 33.7188 35.4536 33.0985C35.4602 32.8542 35.5498 32.6194 35.7077 32.4328C35.8655 32.2462 36.0823 32.119 36.3221 32.0721C36.8071 31.9179 37.8786 31.3916 37.8786 31.3916V31.0983C38.2242 31.0766 38.5708 31.0766 38.9163 31.0983C39.1419 31.1397 39.0178 31.4743 38.4463 31.7638C37.8749 32.0533 36.3071 32.6135 36.0665 32.8052C35.8258 32.997 35.7131 33.8053 35.5213 34.6663C35.3296 35.5272 34.7355 36.813 32.1038 36.4333Z" fill="#37474F"/>
<path d="M36.615 39.9907L38.4949 38.9117C38.6753 38.3666 38.3858 38.0921 37.8745 38.1259C37.3632 38.1598 37.5211 37.6635 37.209 37.5244C36.7992 37.3364 36.5661 37.4417 36.3819 37.3552C36.1977 37.2687 36.1187 37.0507 35.8781 37.0244C34.8028 36.9228 34.0697 38.4568 34.0697 38.4568L36.615 39.9907Z" fill="#F28F8F"/>
<path d="M23.8542 53.7968C23.8542 53.7968 32.1594 49.68 33.6069 49.0145C35.0544 48.3491 37.3252 47.3828 38.5321 47.3828C39.0037 47.4218 39.4454 47.6295 39.7762 47.9679C40.107 48.3063 40.3047 48.7527 40.333 49.2251C40.3486 49.9503 40.3071 50.6757 40.2089 51.3944C37.9271 52.143 35.5953 52.7297 33.2309 53.1502C29.7758 53.7517 23.8542 53.7968 23.8542 53.7968Z" fill="#37474F"/>
<path d="M24.7575 51.4165C24.7575 53.1234 24.5958 54.898 25.3064 56.1462C26.017 57.3944 29.8669 60.2818 33.4913 59.6765C35.8599 59.278 42.8905 56.0409 42.8905 56.0409C42.8905 56.0409 46.3005 54.7889 46.3156 53.8979C46.3381 52.5858 46.2479 50.736 43.274 50.8149C40.5632 50.8864 32.5664 52.5557 32.5664 52.5557L24.7575 51.4165Z" fill="#455A64"/>
<path d="M27.0775 37.8951C28.3633 36.5529 29.2318 36.4401 29.8484 36.6055C31.2654 37.0111 32.6373 37.5604 33.9426 38.2448C33.9426 38.2448 33.4464 43.0496 35.7962 44.4332V51.9225C35.7962 51.9225 35.7247 52.7346 34.7021 53.5429C33.7998 54.2535 31.7583 54.9716 29.322 54.7686C26.427 54.528 24.7577 51.4187 24.7577 51.4187C24.7577 51.4187 24.6825 45.2942 25.0924 42.8617C25.5736 40.0231 26.6338 38.3613 27.0775 37.8951Z" fill="#455A64"/>
<path d="M35.7958 44.7973C35.7958 44.7973 34.3746 43.6694 33.9423 42.2031C33.9423 42.2031 34.1114 44.5041 35.7958 45.6696V44.7973Z" fill="#37474F"/>
<path d="M48.9517 48.3325C49.6267 48.3603 50.2907 48.1544 50.8316 47.7497C50.8316 47.7497 51.4858 46.4789 52.2903 46.588C52.2903 46.588 52.4332 46.0466 52.1024 45.8699C51.7715 45.6932 51.6286 45.742 51.4933 45.5541C51.3579 45.3661 51.3429 45.0164 50.7414 45.0164C50.4932 45.0164 50.527 44.8397 49.9255 44.7683C49.3239 44.6969 48.7299 46.0842 48.29 46.0842L48.9517 48.3325Z" fill="#FFA8A7"/>
<path d="M33.9418 38.2461C36.0059 38.5657 36.7541 39.1785 37.506 39.874C38.2579 40.5696 42.8598 45.1865 42.8598 45.1865L48.4317 45.9873C48.7245 46.2244 48.9393 46.544 49.0482 46.9047C49.2738 47.5588 49.0708 48.2732 48.8565 48.4424C48.8565 48.4424 43.3298 48.7732 42.2432 48.5664C41.1567 48.3596 35.7765 44.7879 35.7765 44.7879C35.2623 44.4002 34.831 43.9132 34.5082 43.3559C34.1853 42.7987 33.9774 42.1823 33.8967 41.5433C33.5471 39.2762 33.9418 38.2461 33.9418 38.2461Z" fill="#455A64"/>
<path d="M28.9867 58.1036L20.4485 68.5254C20.3537 68.5374 20.2583 68.5437 20.1627 68.5442C19.8242 68.5496 19.4896 68.4708 19.189 68.3149L11.9779 64.1491L11.4891 63.8672C11.2222 63.713 11.0004 63.0814 11.0004 62.4573V60.7015C11.0001 58.8979 11.4745 57.126 12.376 55.5639C13.2775 54.0018 14.5743 52.7045 16.1361 51.8023L24.7458 46.832L33.9081 52.1219L28.9867 58.1036Z" fill="#0071CE"/>
<g opacity="0.1">
<path opacity="0.1" d="M28.9863 58.1036L20.4481 68.5254C20.3533 68.5374 20.2579 68.5437 20.1624 68.5442C19.8238 68.5496 19.4892 68.4708 19.1886 68.3149L11.9775 64.1491L11.4888 63.8672C11.2218 63.713 11 63.0814 11 62.4573V60.7015C10.9997 58.8979 11.4742 57.126 12.3757 55.5639C13.2772 54.0018 14.574 52.7045 16.1357 51.8023L24.7454 46.832L33.9078 52.1219L28.9863 58.1036Z" fill="black"/>
</g>
<path d="M26.0434 61.698L33.8974 52.1258L24.735 46.8359L16.1291 51.8025C15.0159 52.447 14.0338 53.2951 13.2341 54.3027L26.0434 61.698Z" fill="#0071CE"/>
<path d="M33.8968 59.8097C33.8968 60.4338 33.6787 61.0654 33.408 61.2195L32.9193 61.5015L21.1289 68.3103C20.9144 68.4259 20.6794 68.4987 20.4371 68.5246C20.3423 68.5366 20.2469 68.5429 20.1514 68.5434V65.9906C20.1511 64.1865 20.6259 62.4142 21.5281 60.852C22.4304 59.2898 23.7281 57.9928 25.2909 57.0914L26.2646 56.5312L33.8968 52.1211V59.8097Z" fill="#0071CE"/>
<g opacity="0.2">
<path opacity="0.2" d="M33.8968 59.8097C33.8968 60.4338 33.6787 61.0654 33.408 61.2195L32.9193 61.5015L21.1289 68.3103C20.9144 68.4259 20.6794 68.4987 20.4371 68.5246C20.3423 68.5366 20.2469 68.5429 20.1514 68.5434V65.9906C20.1511 64.1865 20.6259 62.4142 21.5281 60.852C22.4304 59.2898 23.7281 57.9928 25.2909 57.0914L26.2646 56.5312L33.8968 52.1211V59.8097Z" fill="black"/>
</g>
<path d="M36.4273 72.7063L41.0405 72.6912L47.6425 68.8789L41.1758 73.5522L36.307 73.6199L36.4273 72.7063Z" fill="#E0E0E0"/>
<path d="M25.2266 79.2688C25.2266 79.2688 33.543 76.1333 34.2498 75.7648C35.0794 75.2565 35.8664 74.6819 36.6034 74.0466C36.7538 73.8477 36.8244 73.5998 36.8014 73.3515C36.7785 73.1032 36.6636 72.8724 36.4793 72.7044C36.4793 72.7044 33.0956 72.5503 32.2271 72.8172C31.7421 72.9638 23.9144 75.4753 23.9144 75.4753L25.2266 79.2688Z" fill="#E0E0E0"/>
<path d="M24.8556 75.7674C24.1676 75.1772 23.4758 75.4215 23.3067 76.3088C23.242 76.7984 23.2938 77.2963 23.4578 77.7621C23.6218 78.2278 23.8933 78.6484 24.2503 78.9895C24.9384 79.5798 25.6301 79.3391 25.7993 78.4481C25.8636 77.9586 25.8117 77.4608 25.6478 76.995C25.4838 76.5293 25.2124 76.1087 24.8556 75.7674Z" fill="#455A64"/>
</g>
<defs>
<filter id="filter0_d_207_31304" x="9" y="27" width="57.111" height="62" filterUnits="userSpaceOnUse" color-interpolation-filters="sRGB">
<feFlood flood-opacity="0" result="BackgroundImageFix"/>
<feColorMatrix in="SourceAlpha" type="matrix" values="0 0 0 0 0 0 0 0 0 0 0 0 0 0 0 0 0 0 127 0" result="hardAlpha"/>
<feOffset dy="2"/>
<feGaussianBlur stdDeviation="1"/>
<feComposite in2="hardAlpha" operator="out"/>
<feColorMatrix type="matrix" values="0 0 0 0 0 0 0 0 0 0 0 0 0 0 0 0 0 0 0.25 0"/>
<feBlend mode="normal" in2="BackgroundImageFix" result="effect1_dropShadow_207_31304"/>
<feBlend mode="normal" in="SourceGraphic" in2="effect1_dropShadow_207_31304" result="shape"/>
</filter>
</defs>
</svg>
