<svg width="52" height="111" viewBox="0 0 52 111" fill="none" xmlns="http://www.w3.org/2000/svg">
<path d="M0 52C0 23.2812 23.2812 0 52 0V111C23.2812 111 0 87.7188 0 59V52Z" fill="#F0F0F0"/>
<g filter="url(#filter0_d_217_59496)">
<path d="M45.5354 80.9527L11.9882 80.8303C11.7946 80.8297 11.6029 80.791 11.4243 80.7163C11.2456 80.6416 11.0834 80.5324 10.947 80.395C10.8105 80.2576 10.7025 80.0946 10.6291 79.9154C10.5557 79.7363 10.5183 79.5443 10.5191 79.3507L10.6967 30.5043C10.6973 30.3107 10.7361 30.119 10.8108 29.9404C10.8854 29.7617 10.9946 29.5995 11.132 29.4631C11.2695 29.3266 11.4324 29.2186 11.6116 29.1452C11.7908 29.0718 11.9827 29.0344 12.1763 29.0352L45.731 29.1576C46.1219 29.1592 46.4963 29.3159 46.7718 29.5933C47.0472 29.8708 47.2013 30.2462 47.2001 30.6372L47.021 79.4836C47.0204 79.6777 46.9814 79.8699 46.9064 80.0489C46.8313 80.228 46.7216 80.3904 46.5835 80.527C46.4455 80.6635 46.2818 80.7714 46.1019 80.8444C45.9221 80.9175 45.7295 80.9543 45.5354 80.9527Z" fill="#C1C1C1"/>
<path d="M45.5357 80.9519L45.6492 80.9445C45.9465 80.9225 46.23 80.8099 46.4614 80.622C46.6603 80.4611 46.8146 80.2519 46.9093 80.0143C46.966 79.8713 46.9988 79.72 47.0064 79.5664C47.0153 79.4051 47.0064 79.2334 47.0064 79.0558C47.0064 78.6974 47.0064 78.3063 47.0064 77.8822C47.0064 77.0357 47.0064 76.0577 47.0138 74.9559C47.0273 70.5514 47.0467 64.1806 47.0706 56.3063C47.084 52.3691 47.099 48.0572 47.1139 43.4288C47.1209 41.1126 47.1288 38.7207 47.1378 36.2532C47.1378 35.02 47.1423 33.7693 47.1512 32.5012C47.1512 31.8681 47.1512 31.2306 47.1512 30.5886C47.1433 30.2696 47.0294 29.9622 46.8275 29.7151C46.6255 29.468 46.347 29.2952 46.0359 29.224C45.8782 29.1922 45.7174 29.1792 45.5566 29.1852H45.0669H44.0815L42.0943 29.1777L38.0511 29.1642L29.7125 29.1344L12.1767 29.0717C11.8071 29.0693 11.4507 29.2094 11.1818 29.4631C10.9129 29.7167 10.7521 30.0642 10.7329 30.4333C10.7225 31.1799 10.7254 31.9264 10.721 32.6639C10.715 34.148 10.7095 35.6217 10.7045 37.0848C10.6926 40.0092 10.6817 42.8898 10.6717 45.7266C10.6508 51.3912 10.6299 56.8557 10.6105 62.0619C10.5911 67.2682 10.5717 72.2146 10.5537 76.8431C10.5537 77.4224 10.5537 77.9957 10.5537 78.5646C10.5537 78.8482 10.5537 79.1334 10.5537 79.4126C10.5644 79.6888 10.654 79.9562 10.812 80.183C10.97 80.4076 11.1878 80.5835 11.4406 80.6906C11.5663 80.7407 11.6977 80.7748 11.8318 80.7922C11.9662 80.8041 12.1035 80.8026 12.2409 80.8026H13.8683L20.048 80.828L38.6976 80.9071L43.7739 80.9325H45.0923H45.5402H43.768L38.6916 80.9221L20.051 80.8832L13.8713 80.8638H12.2439C12.1065 80.8638 11.9692 80.8638 11.8288 80.8534C11.6894 80.8361 11.5528 80.8004 11.4227 80.7474C11.1597 80.6371 10.933 80.4549 10.7687 80.2218C10.6038 79.9861 10.5104 79.7076 10.5 79.4201C10.5 79.1364 10.5 78.8557 10.5 78.5705C10.5 78.0012 10.5 77.4273 10.5 76.849C10.5164 72.2206 10.5328 67.2727 10.5508 62.0679C10.5687 56.8632 10.5896 51.3971 10.609 45.731C10.6189 42.8992 10.6294 40.0187 10.6403 37.0893C10.6403 35.6281 10.6453 34.155 10.6553 32.6699C10.6553 31.9234 10.6553 31.1858 10.6672 30.4303C10.6879 30.043 10.8568 29.6784 11.1389 29.4121C11.421 29.1459 11.7947 28.9983 12.1827 29L29.7184 29.0657L38.0571 29.0971L42.1002 29.112L44.089 29.1239H45.0744H45.5641C45.7294 29.1173 45.8948 29.1308 46.0568 29.1642C46.3827 29.2369 46.6747 29.4168 46.8864 29.675C47.098 29.9332 47.217 30.2548 47.2244 30.5886C47.2244 31.2326 47.2244 31.8711 47.2244 32.5042C47.2244 33.7733 47.2199 35.0239 47.2109 36.2562C47.2 38.7227 47.1905 41.1146 47.1826 43.4318C47.1646 48.0602 47.1467 52.3736 47.1318 56.3093C47.0975 64.1836 47.0706 70.5559 47.0527 74.9589C47.0527 76.0607 47.0422 77.0387 47.0377 77.8852C47.0377 78.3092 47.0377 78.7004 47.0377 79.0588C47.0377 79.2379 47.0377 79.4081 47.0377 79.5694C47.0253 79.7752 46.9697 79.976 46.8745 80.1589C46.7793 80.3418 46.6467 80.5026 46.4853 80.6309C46.3401 80.7459 46.1752 80.8334 45.9986 80.8892C45.8905 80.9207 45.7794 80.9408 45.6671 80.9489L45.5357 80.9519Z" fill="#263238"/>
<path d="M45.5357 80.9519L45.6492 80.9445C45.9465 80.9225 46.23 80.8099 46.4614 80.622C46.6603 80.4611 46.8146 80.2519 46.9093 80.0143C46.966 79.8713 46.9988 79.72 47.0064 79.5664C47.0153 79.4051 47.0064 79.2334 47.0064 79.0558C47.0064 78.6974 47.0064 78.3063 47.0064 77.8822C47.0064 77.0357 47.0064 76.0577 47.0138 74.9559C47.0273 70.5514 47.0467 64.1806 47.0706 56.3063C47.084 52.3691 47.099 48.0572 47.1139 43.4288C47.1209 41.1126 47.1288 38.7207 47.1378 36.2532C47.1378 35.02 47.1423 33.7693 47.1512 32.5012C47.1512 31.8681 47.1512 31.2306 47.1512 30.5886C47.1433 30.2696 47.0294 29.9622 46.8275 29.7151C46.6255 29.468 46.347 29.2952 46.0359 29.224C45.8782 29.1922 45.7174 29.1792 45.5566 29.1852H45.0669H44.0815L42.0943 29.1777L38.0511 29.1642L29.7125 29.1344L12.1767 29.0717C11.8071 29.0693 11.4507 29.2094 11.1818 29.4631C10.9129 29.7167 10.7521 30.0642 10.7329 30.4333C10.7225 31.1799 10.7254 31.9264 10.721 32.6639C10.715 34.148 10.7095 35.6217 10.7045 37.0848C10.6926 40.0092 10.6817 42.8898 10.6717 45.7266C10.6508 51.3912 10.6299 56.8557 10.6105 62.0619C10.5911 67.2682 10.5717 72.2146 10.5537 76.8431C10.5537 77.4224 10.5537 77.9957 10.5537 78.5646C10.5537 78.8482 10.5537 79.1334 10.5537 79.4126C10.5644 79.6888 10.654 79.9562 10.812 80.183C10.97 80.4076 11.1878 80.5835 11.4406 80.6906C11.5663 80.7407 11.6977 80.7748 11.8318 80.7922C11.9662 80.8041 12.1035 80.8026 12.2409 80.8026H13.8683L20.048 80.828L38.6976 80.9071L43.7739 80.9325H45.0923H45.5402H43.768L38.6916 80.9221L20.051 80.8832L13.8713 80.8638H12.2439C12.1065 80.8638 11.9692 80.8638 11.8288 80.8534C11.6894 80.8361 11.5528 80.8004 11.4227 80.7474C11.1597 80.6371 10.933 80.4549 10.7687 80.2218C10.6038 79.9861 10.5104 79.7076 10.5 79.4201C10.5 79.1364 10.5 78.8557 10.5 78.5705C10.5 78.0012 10.5 77.4273 10.5 76.849C10.5164 72.2206 10.5328 67.2727 10.5508 62.0679C10.5687 56.8632 10.5896 51.3971 10.609 45.731C10.6189 42.8992 10.6294 40.0187 10.6403 37.0893C10.6403 35.6281 10.6453 34.155 10.6553 32.6699C10.6553 31.9234 10.6553 31.1858 10.6672 30.4303C10.6879 30.043 10.8568 29.6784 11.1389 29.4121C11.421 29.1459 11.7947 28.9983 12.1827 29L29.7184 29.0657L38.0571 29.0971L42.1002 29.112L44.089 29.1239H45.0744H45.5641C45.7294 29.1173 45.8948 29.1308 46.0568 29.1642C46.3827 29.2369 46.6747 29.4168 46.8864 29.675C47.098 29.9332 47.217 30.2548 47.2244 30.5886C47.2244 31.2326 47.2244 31.8711 47.2244 32.5042C47.2244 33.7733 47.2199 35.0239 47.2109 36.2562C47.2 38.7227 47.1905 41.1146 47.1826 43.4318C47.1646 48.0602 47.1467 52.3736 47.1318 56.3093C47.0975 64.1836 47.0706 70.5559 47.0527 74.9589C47.0527 76.0607 47.0422 77.0387 47.0377 77.8852C47.0377 78.3092 47.0377 78.7004 47.0377 79.0588C47.0377 79.2379 47.0377 79.4081 47.0377 79.5694C47.0253 79.7752 46.9697 79.976 46.8745 80.1589C46.7793 80.3418 46.6467 80.5026 46.4853 80.6309C46.3401 80.7459 46.1752 80.8334 45.9986 80.8892C45.8905 80.9207 45.7794 80.9408 45.6671 80.9489L45.5357 80.9519Z" fill="#263238"/>
<g filter="url(#filter1_d_217_59496)">
<path d="M12.5465 31.1233L12.3733 78.3867L45.1707 78.5069L45.344 31.2435L12.5465 31.1233Z" fill="white"/>
</g>
<path d="M45.1724 78.5029C45.1724 78.2312 45.2306 59.1322 45.3143 31.2391L45.3441 31.2705L12.5494 31.154L12.5823 31.1197C12.5151 48.869 12.4539 65.2671 12.4046 78.3835L12.3762 78.3566L45.1754 78.5059L12.3762 78.4133H12.3494V78.3864C12.3956 65.2701 12.4539 48.872 12.5151 31.1227V31.0898H12.5524L45.3441 31.2123H45.3755V31.2436C45.2545 59.1322 45.1724 78.2312 45.1724 78.5029Z" fill="#263238"/>
<path d="M21.5551 46.1982L14.3811 46.1719L14.3755 47.6903L21.5496 47.7166L21.5551 46.1982Z" fill="#C1C1C1"/>
<path d="M36.8093 42.9433L22.4314 42.8906L22.4258 44.409L36.8037 44.4617L36.8093 42.9433Z" fill="#C1C1C1"/>
<path d="M21.1623 42.8532L14.3228 42.8281L14.3172 44.3465L21.1568 44.3716L21.1623 42.8532Z" fill="#C1C1C1"/>
<path d="M42.836 42.9605L37.6328 42.9414L37.6272 44.4598L42.8305 44.4789L42.836 42.9605Z" fill="#C1C1C1"/>
<path d="M23.5748 54.6667L14.3254 54.6328L14.3191 56.3632L23.5684 56.3971L23.5748 54.6667Z" fill="#C1C1C1"/>
<path d="M31.3417 57.7773H14.5271V59.5078H31.3417V57.7773Z" fill="#C1C1C1"/>
<path d="M42.709 50.0845L14.3354 49.9805L14.3291 51.7109L42.7027 51.8149L42.709 50.0845Z" fill="#C1C1C1"/>
<path d="M42.709 35.5962L14.3354 35.4922L14.3146 41.1768L42.6882 41.2808L42.709 35.5962Z" fill="#0071CE"/>
</g>
<defs>
<filter id="filter0_d_217_59496" x="8.5" y="29" width="40.7244" height="55.9531" filterUnits="userSpaceOnUse" color-interpolation-filters="sRGB">
<feFlood flood-opacity="0" result="BackgroundImageFix"/>
<feColorMatrix in="SourceAlpha" type="matrix" values="0 0 0 0 0 0 0 0 0 0 0 0 0 0 0 0 0 0 127 0" result="hardAlpha"/>
<feOffset dy="2"/>
<feGaussianBlur stdDeviation="1"/>
<feComposite in2="hardAlpha" operator="out"/>
<feColorMatrix type="matrix" values="0 0 0 0 0 0 0 0 0 0 0 0 0 0 0 0 0 0 0.25 0"/>
<feBlend mode="normal" in2="BackgroundImageFix" result="effect1_dropShadow_217_59496"/>
<feBlend mode="normal" in="SourceGraphic" in2="effect1_dropShadow_217_59496" result="shape"/>
</filter>
<filter id="filter1_d_217_59496" x="10.3733" y="31.125" width="36.9707" height="51.3828" filterUnits="userSpaceOnUse" color-interpolation-filters="sRGB">
<feFlood flood-opacity="0" result="BackgroundImageFix"/>
<feColorMatrix in="SourceAlpha" type="matrix" values="0 0 0 0 0 0 0 0 0 0 0 0 0 0 0 0 0 0 127 0" result="hardAlpha"/>
<feOffset dy="2"/>
<feGaussianBlur stdDeviation="1"/>
<feComposite in2="hardAlpha" operator="out"/>
<feColorMatrix type="matrix" values="0 0 0 0 0 0 0 0 0 0 0 0 0 0 0 0 0 0 0.46 0"/>
<feBlend mode="normal" in2="BackgroundImageFix" result="effect1_dropShadow_217_59496"/>
<feBlend mode="normal" in="SourceGraphic" in2="effect1_dropShadow_217_59496" result="shape"/>
</filter>
</defs>
</svg>
