<svg width="69" height="111" viewBox="0 0 69 111" fill="none" xmlns="http://www.w3.org/2000/svg">
<path d="M0.5 55.5C0.5 25.1243 25.1243 0.5 55.5 0.5H61C65.1421 0.5 68.5 3.85786 68.5 8V103C68.5 107.142 65.1421 110.5 61 110.5H55.5C25.1243 110.5 0.5 85.8757 0.5 55.5Z" fill="white"/>
<path d="M0.5 55.5C0.5 25.1243 25.1243 0.5 55.5 0.5H61C65.1421 0.5 68.5 3.85786 68.5 8V103C68.5 107.142 65.1421 110.5 61 110.5H55.5C25.1243 110.5 0.5 85.8757 0.5 55.5Z" stroke="#E7E9EC"/>
<g filter="url(#filter0_d_3295_21738)">
<path d="M24.1467 94.9133L23.4172 94.4916C23.2958 94.4135 23.1946 94.3076 23.1221 94.1828C23.0496 94.058 23.0077 93.9177 23 93.7735V35.2211C23.009 35.0772 23.0513 34.9374 23.1238 34.8128C23.1962 34.6881 23.2966 34.5821 23.4172 34.503L57.0167 15.101C57.1458 15.0346 57.2888 15 57.4339 15C57.579 15 57.722 15.0346 57.8511 15.101L58.5828 15.5228C58.7048 15.6013 58.8064 15.7079 58.8789 15.8336C58.9515 15.9593 58.993 16.1004 59 16.2454V74.8024C58.9917 74.9471 58.9497 75.0878 58.8772 75.2133C58.8048 75.3388 58.704 75.4455 58.5828 75.525L24.981 94.9133C24.852 94.9797 24.7089 95.0144 24.5638 95.0144C24.4187 95.0144 24.2757 94.9797 24.1467 94.9133Z" fill="#0071CE"/>
<path opacity="0.3" d="M24.1467 94.9133L23.4172 94.4916C23.2958 94.4135 23.1946 94.3076 23.1221 94.1828C23.0496 94.058 23.0077 93.9177 23 93.7735V35.2211C23.009 35.0772 23.0513 34.9374 23.1238 34.8128C23.1962 34.6881 23.2966 34.5821 23.4172 34.503L57.0167 15.101C57.1458 15.0346 57.2888 15 57.4339 15C57.579 15 57.722 15.0346 57.8511 15.101L58.5828 15.5228C58.7048 15.6013 58.8064 15.7079 58.8789 15.8336C58.9515 15.9593 58.993 16.1004 59 16.2454V74.8024C58.9917 74.9471 58.9497 75.0878 58.8772 75.2133C58.8048 75.3388 58.704 75.4455 58.5828 75.525L24.981 94.9133C24.852 94.9797 24.7089 95.0144 24.5638 95.0144C24.4187 95.0144 24.2757 94.9797 24.1467 94.9133Z" fill="black"/>
<path opacity="0.4" d="M58.9934 16.177C58.9661 15.9627 58.7905 15.8829 58.5831 16.0038L24.9813 35.4149C24.8587 35.4917 24.7575 35.5984 24.6872 35.7249L23.1211 34.813C23.1923 34.6872 23.2933 34.5808 23.4152 34.503L57.0147 15.101C57.1437 15.0346 57.2868 15 57.4319 15C57.577 15 57.72 15.0346 57.8491 15.101L58.5831 15.5228C58.6947 15.5957 58.7891 15.692 58.86 15.8049C58.9308 15.9179 58.9763 16.0448 58.9934 16.177Z" fill="white"/>
<path opacity="0.15" d="M24.9081 94.9584H24.883L24.8419 94.9744H24.8237C24.7982 94.9825 24.7724 94.9894 24.7462 94.9949C24.5798 95.0252 24.4084 95.0111 24.2492 94.9538C24.217 94.9418 24.1858 94.9273 24.1558 94.9105L23.424 94.4888C23.3028 94.4109 23.2014 94.3059 23.1278 94.1821C23.0542 94.0582 23.0104 93.919 23 93.7753V35.2228C23.0046 35.078 23.0462 34.9367 23.1208 34.8125L24.6869 35.7244C24.6104 35.8487 24.5679 35.991 24.5638 36.137V94.6871C24.5573 94.7683 24.5799 94.8491 24.6277 94.9151C24.6544 94.9481 24.6903 94.9725 24.7309 94.9851C24.7715 94.9977 24.8149 94.9979 24.8556 94.9858C24.8741 94.9786 24.8916 94.9694 24.9081 94.9584Z" fill="black"/>
<path d="M48.5048 23.5201L48.4433 23.4837L47.7594 23.0847C47.5072 22.9454 47.2338 22.8483 46.9501 22.7975C46.8316 22.7724 46.7222 22.7405 46.6287 22.7109C46.5246 22.6749 46.4226 22.633 46.3232 22.5855L46.3757 22.5217L45.5915 22.0657C45.5267 22.0285 45.4568 22.0008 45.384 21.9837C45.09 21.913 44.6477 22.084 44.2077 22.0338C44.0476 22.0177 43.8929 21.9669 43.7543 21.885C43.6158 21.8031 43.4967 21.6921 43.4053 21.5596C43.1386 21.1995 42.9767 20.568 42.7396 20.046L42.9448 19.7405C42.9238 19.7265 42.9017 19.7143 42.8787 19.704L42.1606 19.2891C42.0394 19.2166 41.9006 19.1787 41.7594 19.1797C41.4913 19.1938 41.2317 19.2788 41.0071 19.4259C39.286 20.4198 39.229 22.7792 38.6089 24.3294C37.9889 25.8796 37.1112 26.3674 36.6348 27.0376C36.1583 27.7078 36.1241 28.1979 35.0664 29.6569C34.0086 31.1159 33.9653 31.4806 33.9653 31.7473V33.9198L34.7472 34.3758L48.8286 26.2443L48.5048 23.5201ZM35.593 31.8955C35.4083 32.0004 35.2579 31.859 35.2579 31.5764C35.2557 31.4411 35.2847 31.3071 35.3429 31.1849C35.401 31.0627 35.4866 30.9556 35.593 30.872C35.7754 30.7648 35.9235 30.9084 35.9235 31.1934C35.926 31.3279 35.8974 31.4612 35.8401 31.583C35.7828 31.7047 35.6982 31.8116 35.593 31.8955ZM41.7776 25.7975C41.6888 25.8625 41.5861 25.9059 41.4776 25.9243C41.369 25.9427 41.2577 25.9356 41.1525 25.9035C41.0472 25.8714 40.9508 25.8153 40.871 25.7395C40.7911 25.6637 40.7301 25.5704 40.6925 25.4669C40.1477 25.5718 39.7419 25.0452 39.7419 24.1402C39.7419 23.071 40.305 21.8834 40.998 21.4821C41.0869 21.4177 41.1896 21.3747 41.298 21.3567C41.4064 21.3387 41.5174 21.3462 41.6224 21.3785C41.7274 21.4107 41.8235 21.467 41.9031 21.5427C41.9826 21.6185 42.0435 21.7117 42.0808 21.815C42.6279 21.7055 43.0314 22.2321 43.0314 23.1417C43.0314 24.2086 42.4729 25.3986 41.7776 25.7975ZM46.4532 25.6128C46.2708 25.72 46.1226 25.5764 46.1226 25.296C46.1202 25.1611 46.1487 25.0275 46.206 24.9054C46.2634 24.7832 46.3479 24.6759 46.4532 24.5916C46.6401 24.4867 46.7883 24.6303 46.7883 24.913C46.7909 25.0477 46.7619 25.1811 46.7037 25.3026C46.6455 25.4242 46.5597 25.5304 46.4532 25.6128Z" fill="#455A64"/>
<path opacity="0.5" d="M35.5201 32.2855L34.0064 31.4102C33.9711 31.5191 33.9542 31.6331 33.9562 31.7475V33.92L34.7381 34.376L35.5201 33.92V32.2855Z" fill="#37474F"/>
<path opacity="0.5" d="M37.0866 29.5763L37.8685 27.7685L36.6261 27.0391C36.259 27.5429 36.1542 27.9509 35.6641 28.7533L37.0866 29.5763Z" fill="#37474F"/>
<path opacity="0.5" d="M40.2135 25.9591L40.3161 25.4325C39.9696 25.2867 39.7394 24.8193 39.7394 24.14C39.743 23.2416 40.083 22.377 40.6923 21.7167L39.6072 21.0898C39.1512 22.143 38.9734 23.3854 38.5973 24.3292C38.5228 24.5175 38.4383 24.7016 38.3442 24.8809L40.2135 25.9591Z" fill="#37474F"/>
<path d="M48.5045 23.5204L48.443 23.484C48.2122 23.3791 47.9695 23.3025 47.7203 23.256C47.31 23.1817 46.9282 22.9955 46.617 22.718C46.5393 22.6465 46.4545 22.5831 46.3639 22.5288C46.2989 22.4898 46.2281 22.4614 46.1542 22.4444C45.68 22.3305 44.8161 22.8457 44.196 22.0432L44.1755 22.0181C43.7424 21.4346 43.5851 20.1306 42.9354 19.7385C42.9144 19.7245 42.8923 19.7123 42.8692 19.702C42.6025 19.5767 42.2537 19.5995 41.7773 19.873C40.0585 20.8669 39.9992 23.2286 39.3791 24.7788C38.7591 26.3289 37.8814 26.8168 37.405 27.487C36.9285 28.1572 36.8966 28.6473 35.8366 30.1063C34.7765 31.5653 34.7378 31.93 34.7378 32.1967V34.3692L48.8191 26.2378V24.0675C48.8296 23.955 48.805 23.842 48.7486 23.7441C48.6923 23.6461 48.607 23.568 48.5045 23.5204ZM36.3723 32.3472C36.1899 32.452 36.0395 32.3107 36.0395 32.028C36.0375 31.8927 36.0664 31.7586 36.1241 31.6362C36.1818 31.5137 36.2667 31.406 36.3723 31.3213C36.5569 31.2165 36.7028 31.3601 36.7028 31.6428C36.7058 31.7777 36.6775 31.9115 36.6201 32.0337C36.5628 32.1559 36.478 32.2632 36.3723 32.3472ZM41.7773 25.7978C41.6885 25.8628 41.5857 25.9062 41.4772 25.9246C41.3687 25.943 41.2574 25.9359 41.1521 25.9038C41.0468 25.8717 40.9505 25.8156 40.8706 25.7398C40.7908 25.664 40.7297 25.5707 40.6922 25.4672C40.5701 25.1912 40.5116 24.8913 40.5212 24.5896C40.5212 23.5227 41.0843 22.335 41.7773 21.9338C41.8713 21.8783 41.9737 21.8382 42.0805 21.8153C42.6276 21.7058 43.0311 22.2324 43.0311 23.142C43.0311 24.2089 42.4726 25.3988 41.7773 25.7978ZM47.237 26.0691C47.0501 26.1762 46.9019 26.0326 46.9019 25.7522C46.8993 25.6168 46.9283 25.4827 46.9864 25.3605C47.0446 25.2382 47.1304 25.1312 47.237 25.0478C47.4194 24.9429 47.5676 25.0843 47.5676 25.3692C47.57 25.5034 47.5414 25.6364 47.4841 25.7578C47.4268 25.8791 47.3422 25.9857 47.237 26.0691Z" fill="#37474F"/>
<path d="M43.0313 23.1418C43.0313 24.2087 42.4728 25.3987 41.7775 25.7976C41.6887 25.8626 41.5859 25.906 41.4774 25.9244C41.3689 25.9428 41.2576 25.9357 41.1523 25.9036C41.047 25.8715 40.9506 25.8154 40.8708 25.7396C40.791 25.6638 40.7299 25.5705 40.6924 25.467C40.8004 25.4459 40.9038 25.4058 40.9979 25.3485C41.6817 24.9473 42.2517 23.7528 42.2517 22.6904C42.2611 22.3895 42.2026 22.0903 42.0807 21.8151C42.6278 21.7056 43.0313 22.2322 43.0313 23.1418Z" fill="#263238"/>
<path d="M36.3725 32.3479C36.1901 32.4527 36.0397 32.3114 36.0397 32.0287C36.0374 31.8936 36.0662 31.7598 36.1239 31.6377C36.1816 31.5155 36.2667 31.4083 36.3725 31.3243C36.5572 31.2172 36.7053 31.3631 36.7053 31.6435C36.7078 31.7786 36.6791 31.9124 36.6214 32.0346C36.5636 32.1568 36.4785 32.264 36.3725 32.3479Z" fill="#263238"/>
<path d="M47.2348 26.0705C47.0524 26.1754 46.902 26.034 46.902 25.7513C46.8997 25.6163 46.9285 25.4825 46.9862 25.3603C47.0439 25.2381 47.129 25.1309 47.2348 25.0469C47.4195 24.9398 47.5676 25.0857 47.5676 25.3684C47.57 25.5031 47.5411 25.6366 47.4834 25.7584C47.4257 25.8802 47.3406 25.987 47.2348 26.0705Z" fill="#263238"/>
<path d="M27.1624 38.917L56.3987 22.0363C56.4761 21.997 56.5616 21.9766 56.6483 21.9766C56.7351 21.9766 56.8206 21.997 56.8979 22.0363L57.1806 22.2004C57.2533 22.248 57.3139 22.312 57.3575 22.3872C57.401 22.4624 57.4263 22.5468 57.4314 22.6335V73.1867C57.4263 73.2735 57.401 73.3579 57.3575 73.4331C57.3139 73.5083 57.2533 73.5723 57.1806 73.6199L27.9443 90.5006C27.8669 90.5398 27.7814 90.5603 27.6947 90.5603C27.6079 90.5603 27.5224 90.5398 27.4451 90.5006L27.1624 90.3387C27.0894 90.2914 27.0286 90.2275 26.9851 90.1522C26.9415 90.0769 26.9163 89.9924 26.9116 89.9056V39.3524C26.9161 39.2652 26.9412 39.1803 26.9848 39.1046C27.0284 39.0289 27.0892 38.9646 27.1624 38.917Z" fill="#F5F5F5"/>
<path d="M57.4243 22.5577C57.3924 22.4552 57.2967 22.4232 57.1827 22.4871L27.9441 39.3678C27.8706 39.4148 27.8096 39.4789 27.7663 39.5547L26.9844 39.0988C27.0264 39.0221 27.0877 38.9577 27.1622 38.9118L56.3985 22.038C56.4755 21.9976 56.5612 21.9766 56.6481 21.9766C56.7351 21.9766 56.8207 21.9976 56.8978 22.038L57.1804 22.1998C57.2433 22.2397 57.2974 22.2921 57.3393 22.3536C57.3813 22.4152 57.4102 22.4846 57.4243 22.5577Z" fill="#FAFAFA"/>
<path d="M27.885 90.5272C27.8547 90.5383 27.8234 90.5466 27.7916 90.5523H27.7437C27.6937 90.558 27.6432 90.558 27.5932 90.5523C27.5614 90.5466 27.5301 90.5383 27.4998 90.5272L27.4428 90.4999L27.1624 90.338C27.0894 90.2907 27.0286 90.2268 26.9851 90.1515C26.9415 90.0762 26.9163 89.9917 26.9116 89.9049V39.3517C26.9136 39.2646 26.9388 39.1796 26.9846 39.1055L27.7665 39.5614C27.7226 39.6372 27.6975 39.7224 27.6935 39.8099V90.354C27.6935 90.493 27.7756 90.5591 27.885 90.5272Z" fill="#E0E0E0"/>
<path d="M50.8461 28.3466L50.0687 27.8907C49.9461 27.8314 49.8111 27.8026 49.675 27.8065C49.5389 27.8105 49.4058 27.8472 49.2868 27.9135C48.375 28.3147 47.9829 28.4948 47.5133 28.6931L47.1759 28.8299C46.9912 28.9028 46.6242 28.8299 46.7382 28.1984L47.9464 24.9454H47.9282L47.1622 24.4894C47.1238 24.4666 47.0811 24.4518 47.0368 24.4461C47.008 24.4435 46.979 24.4435 46.9502 24.4461C46.4555 24.4461 46.3165 21.2546 46.3119 21.1475L46.2777 21.127L45.5209 20.6916C45.3887 20.6174 45.2393 20.5796 45.0877 20.5822C44.8364 20.5919 44.591 20.6615 44.3719 20.785C43.1774 21.4119 41.9829 23.2607 41.6888 24.9271C41.5041 25.9735 40.451 27.5875 39.8423 28.1802C39.2336 28.7729 39.1903 29.2584 39.1903 29.2584L38.7162 31.9461L38.5657 32.8033C38.454 33.4461 37.7952 34.0662 37.7952 34.0662L35.3446 35.9036C33.8081 37.1802 33.375 38.4659 33.0786 40.0594V40.0708C33.0786 40.1277 33.0786 40.1665 33.1037 40.1802C33.1078 40.1828 33.1125 40.1842 33.1174 40.1842C33.1222 40.1842 33.127 40.1828 33.131 40.1802L33.4456 40.0024L50.3149 30.2706C50.3943 30.2176 50.4499 30.1359 50.47 30.0426C50.5657 29.4613 50.8461 28.3717 50.8461 28.3717V28.3466ZM45.9677 23.4226C45.7876 24.4439 45.0558 25.5837 44.3195 25.9667C43.8157 26.2288 43.4464 26.067 43.3233 25.6019C43.2328 25.6376 43.1348 25.6498 43.0384 25.6375C42.9419 25.6251 42.8502 25.5886 42.7716 25.5312C42.5437 25.3466 44.6865 21.6559 44.8598 21.7379C44.9438 21.7815 45.0168 21.8439 45.0729 21.9202C45.129 21.9965 45.1669 22.0847 45.1835 22.1779C45.7876 21.9955 46.1409 22.5062 45.9677 23.4226Z" fill="#455A64"/>
<path opacity="0.5" d="M35.5203 37.7051L34.287 36.9961C33.5735 37.9353 33.2862 38.9224 33.0742 40.0668V40.0782C33.0742 40.1352 33.0742 40.1739 33.0993 40.1876C33.1034 40.1902 33.1081 40.1916 33.113 40.1916C33.1178 40.1916 33.1226 40.1902 33.1267 40.1876L34.0955 39.4193L35.5203 37.7051Z" fill="#37474F"/>
<path opacity="0.5" d="M38.4844 33.0918L40.2169 34.0925L40.9988 29.572L39.4373 28.6602C39.3112 28.839 39.2271 29.0439 39.1911 29.2597L38.7169 31.9474L38.5664 32.8045C38.5486 32.9027 38.5211 32.999 38.4844 33.0918Z" fill="#37474F"/>
<path opacity="0.5" d="M42.512 22.7656C42.1152 23.434 41.8368 24.1659 41.6891 24.929C41.566 25.4682 41.3599 25.985 41.0781 26.4609L42.5644 27.3181L43.3031 25.6129C43.2151 25.6449 43.1207 25.6548 43.0281 25.6417C42.9354 25.6286 42.8475 25.5928 42.7719 25.5377C42.6488 25.4419 43.1594 24.4206 43.7065 23.4609L42.512 22.7656Z" fill="#37474F"/>
<path d="M50.8573 28.3579H50.8459C50.7238 28.2996 50.5894 28.2714 50.4542 28.2758C50.3189 28.2801 50.1867 28.3169 50.0685 28.383C48.9538 28.8731 48.6164 29.035 47.9553 29.2948C47.7775 29.3678 47.4219 29.3085 47.5131 28.7067C47.512 28.693 47.512 28.6793 47.5131 28.6657L47.6658 27.8062L48.0875 25.465C48.0875 25.465 48.1833 25.098 47.9394 24.959H47.9211C47.8605 24.9305 47.7944 24.9157 47.7274 24.9157C47.5841 24.8978 47.4467 24.8474 47.3258 24.7684C47.2049 24.6894 47.1037 24.5838 47.0298 24.4597C46.8991 24.265 46.8086 24.0461 46.7636 23.8159C46.7186 23.5858 46.7199 23.3489 46.7676 23.1193C46.9432 22.1163 46.7494 21.4141 46.3117 21.152L46.2775 21.1292C45.9903 20.9787 45.605 21.0038 45.1537 21.2409C43.966 21.8632 42.7646 23.7143 42.4728 25.3739C42.2859 26.4225 41.2327 28.0342 40.624 28.6292C40.0154 29.2242 39.972 29.7143 39.972 29.7143L39.4979 32.4043L39.3474 33.2637C39.2357 33.9065 38.5769 34.5266 38.5769 34.5266L36.1263 36.364C35.1471 37.1417 34.4405 38.2107 34.1088 39.4164C34.1088 39.4164 33.197 40.1299 33.1309 40.1869L33.4454 40.0091L50.3672 30.2819C50.3672 30.2819 50.5609 30.1748 50.5951 30.1474C50.6293 30.1201 51.3315 29.4863 51.3315 29.4863C51.3041 28.9233 51.1423 28.5289 50.8573 28.3579ZM45.9675 23.4225C45.7874 24.4438 45.0556 25.5836 44.3193 25.9666C43.8155 26.2287 43.4462 26.0669 43.3231 25.6018C43.2688 25.3409 43.2688 25.0717 43.3231 24.8108C43.5055 23.7895 44.235 22.6497 44.9758 22.269C45.0428 22.2322 45.113 22.2017 45.1856 22.1778C45.7874 21.9954 46.1407 22.5061 45.9675 23.4225Z" fill="#37474F"/>
<path d="M45.9681 23.422C45.788 24.4433 45.0563 25.5831 44.3199 25.9661C43.8161 26.2282 43.4468 26.0664 43.3237 25.6013C43.3977 25.5783 43.4695 25.5486 43.538 25.5124C44.2698 25.1294 45.0084 23.9896 45.1862 22.9683C45.2428 22.7077 45.2428 22.4379 45.1862 22.1773C45.788 21.9949 46.1414 22.5056 45.9681 23.422Z" fill="#263238"/>
<path d="M45.2637 22.222C45.3319 22.2183 45.4 22.232 45.4614 22.2619C45.5229 22.2918 45.5757 22.337 45.6148 22.393C45.9202 22.8239 45.6284 23.9226 45.5031 24.2737C45.3275 24.7638 44.1946 25.9105 43.88 25.9105C43.777 25.8934 43.6786 25.8555 43.5907 25.7991C43.5029 25.7426 43.4276 25.6688 43.3693 25.5822C43.3177 25.3303 43.3177 25.0705 43.3693 24.8185C43.5471 23.8109 44.2812 22.6871 44.9947 22.3109C45.0588 22.2761 45.126 22.2471 45.1953 22.2243H45.2637M45.2637 22.1764H45.1839C45.1114 22.2003 45.0412 22.2309 44.9742 22.2676C44.2402 22.6483 43.5038 23.7881 43.3215 24.8094C43.2672 25.0703 43.2672 25.3396 43.3215 25.6004C43.3841 25.6948 43.4657 25.7752 43.5611 25.8364C43.6565 25.8976 43.7635 25.9384 43.8754 25.9561C44.2151 25.9561 45.3572 24.8003 45.5395 24.2874C45.7219 23.7745 46.1163 22.1719 45.2546 22.1719L45.2637 22.1764Z" fill="#263238"/>
<path d="M33.1336 40.2L50.3699 30.2927L50.5979 30.1605C50.6412 30.1354 51.3228 29.4766 51.3228 29.4766L34.1002 39.4181C34.1002 39.4181 33.0652 40.225 33.1336 40.2Z" fill="#263238"/>
<path d="M30.6733 79.2814L35.2645 76.5938L35.2622 81.9304L30.6733 84.6181V79.2814Z" fill="#FAFAFA"/>
<path d="M30.867 79.3919V84.2885L35.0752 81.8242V76.9253L30.867 79.3919ZM30.6755 84.8083C30.6426 84.8088 30.6103 84.8002 30.5821 84.7832C30.5531 84.7667 30.5289 84.7429 30.5121 84.714C30.4953 84.6852 30.4864 84.6524 30.4863 84.6191V79.2824C30.4864 79.2493 30.495 79.2168 30.5114 79.1881C30.5278 79.1593 30.5514 79.1353 30.5798 79.1183L35.171 76.4306C35.1999 76.4144 35.2325 76.406 35.2657 76.4063C35.2988 76.4065 35.3313 76.4153 35.36 76.4318C35.3888 76.4483 35.4127 76.4721 35.4295 76.5006C35.4463 76.5292 35.4554 76.5616 35.4559 76.5948V81.9314C35.4559 81.9647 35.447 81.9975 35.4302 82.0263C35.4133 82.0552 35.3892 82.079 35.3602 82.0955L30.769 84.7832C30.7397 84.7994 30.7068 84.8081 30.6733 84.8083H30.6755Z" fill="#455A64"/>
<path d="M37.5737 75.4481V75.8334C37.5737 76.0431 37.7219 76.1298 37.902 76.0249L54.1923 66.6214C54.288 66.559 54.3677 66.4749 54.4248 66.3758C54.4818 66.2768 54.5146 66.1656 54.5205 66.0515V65.6639C54.5205 65.4542 54.3746 65.3699 54.1923 65.4747L37.902 74.8805C37.8067 74.9428 37.7273 75.0266 37.6703 75.1252C37.6132 75.2238 37.5802 75.3344 37.5737 75.4481Z" fill="#E0E0E0"/>
<path d="M37.5737 77.7802V78.1654C37.5737 78.3752 37.7219 78.4595 37.902 78.3546L54.1923 68.9511C54.288 68.8893 54.3677 68.8055 54.4247 68.7068C54.4818 68.6082 54.5146 68.4974 54.5205 68.3835V67.996C54.5205 67.7863 54.3746 67.7019 54.1923 67.8068L37.902 77.2103C37.8066 77.2731 37.7272 77.3573 37.6702 77.4563C37.6132 77.5552 37.5802 77.6662 37.5737 77.7802Z" fill="#E0E0E0"/>
<path d="M37.5737 80.0974V80.4827C37.5737 80.6924 37.7219 80.7767 37.902 80.6719L54.1923 71.2684C54.2877 71.2062 54.3672 71.1224 54.4243 71.0238C54.4813 70.9252 54.5143 70.8145 54.5205 70.7007V70.3132C54.5205 70.1035 54.3746 70.0191 54.1923 70.1217L37.902 79.5275C37.8066 79.5903 37.7272 79.6745 37.6702 79.7735C37.6132 79.8724 37.5802 79.9834 37.5737 80.0974Z" fill="#E0E0E0"/>
<path d="M33.0464 82.0104L31.9795 80.9823L32.4377 80.0089L33.0464 80.5948L35.5745 75.2422L36.0327 75.6844L33.0464 82.0104Z" fill="#0071CE"/>
<path d="M30.6733 70.0432L35.2645 67.3555L35.2622 72.6921L30.6733 75.3798V70.0432Z" fill="#FAFAFA"/>
<path d="M30.867 70.1536V75.0502L35.0752 72.586V67.687L30.867 70.1536ZM30.6755 75.57C30.6427 75.5706 30.6103 75.5619 30.5821 75.5449C30.5529 75.5286 30.5286 75.5048 30.5118 75.4759C30.495 75.4471 30.4862 75.4142 30.4863 75.3808V70.0442C30.4866 70.0111 30.4953 69.9787 30.5117 69.9499C30.5281 69.9212 30.5515 69.8971 30.5798 69.88L35.171 67.1923C35.1999 67.1762 35.2325 67.1678 35.2657 67.168C35.2988 67.1682 35.3313 67.177 35.36 67.1935C35.3888 67.2101 35.4127 67.2338 35.4295 67.2623C35.4463 67.2909 35.4554 67.3233 35.4559 67.3565V72.6931C35.4559 72.7265 35.447 72.7592 35.4302 72.7881C35.4133 72.8169 35.3892 72.8407 35.3602 72.8572L30.769 75.5358C30.7411 75.5563 30.7078 75.5682 30.6733 75.57H30.6755Z" fill="#455A64"/>
<path d="M37.5737 66.2099V66.5974C37.5737 66.8048 37.7219 66.8915 37.902 66.7866L54.1923 57.3831C54.288 57.3207 54.3677 57.2366 54.4248 57.1375C54.4818 57.0385 54.5146 56.9274 54.5205 56.8132V56.4257C54.5205 56.2159 54.3746 56.1316 54.1923 56.2365L37.902 65.6422C37.8067 65.7045 37.7273 65.7884 37.6703 65.887C37.6132 65.9855 37.5802 66.0961 37.5737 66.2099Z" fill="#E0E0E0"/>
<path d="M37.5737 68.5442V68.9272C37.5737 69.1369 37.7219 69.2212 37.902 69.1164L54.1923 59.7129C54.288 59.651 54.3677 59.5672 54.4247 59.4686C54.4818 59.3699 54.5146 59.2591 54.5205 59.1452V58.7577C54.5205 58.548 54.3746 58.4636 54.1923 58.5685L37.902 67.972C37.8063 68.035 37.7267 68.1196 37.6697 68.219C37.6127 68.3184 37.5798 68.4298 37.5737 68.5442Z" fill="#E0E0E0"/>
<path d="M37.5737 70.8622V71.2475C37.5737 71.4572 37.7219 71.5415 37.902 71.4367L54.1923 62.0332C54.288 61.9713 54.3677 61.8876 54.4247 61.7889C54.4818 61.6902 54.5146 61.5794 54.5205 61.4655V61.078C54.5205 60.8683 54.3746 60.7839 54.1923 60.8888L37.902 70.2946C37.8069 70.3571 37.7277 70.441 37.6707 70.5396C37.6137 70.6381 37.5805 70.7486 37.5737 70.8622Z" fill="#E0E0E0"/>
<path d="M33.0464 72.7721L31.9795 71.744L32.4377 70.7706L33.0464 71.3565L35.5745 66.0039L36.0327 66.4484L33.0464 72.7721Z" fill="#0071CE"/>
<path d="M30.6733 60.8088L35.2645 58.1211L35.2622 63.4577L30.6733 66.1454V60.8088Z" fill="#FAFAFA"/>
<path d="M30.867 60.9183V65.8149L35.0752 63.3506V58.4517L30.867 60.9183ZM30.6755 66.337C30.6428 66.3364 30.6107 66.3278 30.5821 66.3119C30.5529 66.295 30.5286 66.2708 30.5118 66.2415C30.495 66.2123 30.4862 66.1792 30.4863 66.1455V60.8088C30.4863 60.776 30.495 60.7438 30.5114 60.7154C30.5278 60.687 30.5514 60.6634 30.5798 60.647L35.171 57.9593C35.1997 57.9425 35.2323 57.9336 35.2656 57.9336C35.2988 57.9336 35.3315 57.9425 35.3602 57.9593C35.3891 57.976 35.4131 57.9999 35.4299 58.0287C35.4466 58.0574 35.4556 58.0901 35.4559 58.1234V63.4555C35.4557 63.4885 35.4467 63.5209 35.4299 63.5493C35.4131 63.5778 35.389 63.6012 35.3602 63.6174L30.769 66.3096C30.7403 66.3275 30.7071 66.337 30.6733 66.337H30.6755Z" fill="#455A64"/>
<path d="M37.5737 56.9751V57.3626C37.5737 57.5723 37.7219 57.6567 37.902 57.5518L54.1923 48.1483C54.288 48.0859 54.3677 48.0018 54.4248 47.9027C54.4818 47.8037 54.5146 47.6926 54.5205 47.5784V47.1909C54.5205 46.9834 54.3746 46.8968 54.1923 47.0017L37.902 56.4074C37.8068 56.4699 37.7275 56.5537 37.6705 56.6523C37.6135 56.7509 37.5804 56.8614 37.5737 56.9751Z" fill="#E0E0E0"/>
<path d="M37.5737 59.3036V59.6889C37.5737 59.8986 37.7219 59.9829 37.902 59.8781L54.1923 50.4746C54.2881 50.4128 54.3679 50.3291 54.425 50.2304C54.4821 50.1317 54.5148 50.0208 54.5205 49.907V49.5194C54.5205 49.3097 54.3746 49.2253 54.1923 49.3302L37.902 58.7337C37.8066 58.7965 37.7272 58.8807 37.6702 58.9797C37.6132 59.0787 37.5802 59.1896 37.5737 59.3036Z" fill="#E0E0E0"/>
<path d="M37.5737 61.6317V62.017C37.5737 62.2267 37.7219 62.3111 37.902 62.2062L54.1923 52.8027C54.288 52.7408 54.3677 52.6571 54.4247 52.5584C54.4818 52.4597 54.5146 52.3489 54.5205 52.2351V51.8475C54.5205 51.6378 54.3746 51.5535 54.1923 51.6583L37.902 61.0618C37.8066 61.1246 37.7272 61.2089 37.6702 61.3078C37.6132 61.4068 37.5802 61.5177 37.5737 61.6317Z" fill="#E0E0E0"/>
<path d="M33.0464 63.5355L31.9795 62.5074L32.4377 61.5362L33.0464 62.1198L35.5745 56.7695L36.0327 57.2118L33.0464 63.5355Z" fill="#0071CE"/>
<path d="M30.4839 46.2215V55.9327C30.4839 56.5118 30.8919 56.7466 31.3957 56.4571L39.7939 51.6014C40.059 51.4296 40.2798 51.1975 40.4383 50.9242C40.5967 50.6509 40.6884 50.344 40.7058 50.0285V40.3241C40.7058 39.7451 40.3 39.5103 39.7939 39.7998L31.3912 44.6508C31.127 44.8227 30.9071 45.0545 30.7494 45.3275C30.5917 45.6004 30.5008 45.9067 30.4839 46.2215Z" fill="#0071CE"/>
<path opacity="0.7" d="M30.4839 46.2215V55.9327C30.4839 56.5118 30.8919 56.7466 31.3957 56.4571L39.7939 51.6014C40.059 51.4296 40.2798 51.1975 40.4383 50.9242C40.5967 50.6509 40.6884 50.344 40.7058 50.0285V40.3241C40.7058 39.7451 40.3 39.5103 39.7939 39.7998L31.3912 44.6508C31.127 44.8227 30.9071 45.0545 30.7494 45.3275C30.5917 45.6004 30.5008 45.9067 30.4839 46.2215Z" fill="white"/>
<path d="M35.5926 43.6609C36.5614 43.1024 37.3456 43.5561 37.3456 44.6731C37.3123 45.281 37.1362 45.8725 36.8316 46.3996C36.527 46.9268 36.1026 47.3748 35.5926 47.7073C34.626 48.2658 33.8418 47.8144 33.8418 46.6974C33.8745 46.0893 34.0501 45.4975 34.3543 44.9699C34.6585 44.4424 35.0827 43.9939 35.5926 43.6609Z" fill="#FAFAFA"/>
<path d="M38.6334 47.9393C38.4784 47.13 37.6486 47.1072 36.78 47.6087L34.4046 48.9765C33.5361 49.478 32.7063 50.4583 32.5513 51.4476L32.0977 54.5639L39.0893 50.5267L38.6334 47.9393Z" fill="#FAFAFA"/>
<path d="M41.7437 43.2728V39.9742C41.7486 39.8798 41.7758 39.7878 41.8229 39.7058C41.87 39.6239 41.9358 39.5541 42.0149 39.5023L54.2497 32.4355C54.4002 32.3488 54.521 32.4195 54.521 32.5927V35.8959C54.516 35.9904 54.4889 36.0823 54.4418 36.1643C54.3946 36.2463 54.3288 36.316 54.2497 36.3678L42.0218 43.4347C41.8645 43.5168 41.7437 43.4461 41.7437 43.2728Z" fill="#455A64"/>
<path d="M42.0149 44.6213L52.4511 38.5917C52.6016 38.5051 52.7224 38.5757 52.7224 38.749V39.1023C52.7178 39.1969 52.6908 39.2889 52.6436 39.371C52.5964 39.453 52.5305 39.5227 52.4511 39.5742L42.0149 45.6039C41.8645 45.6905 41.7437 45.6198 41.7437 45.4466V45.0932C41.7486 44.9988 41.7758 44.9068 41.8229 44.8249C41.87 44.7429 41.9358 44.6731 42.0149 44.6213Z" fill="#0071CE"/>
<path d="M42.0149 46.5849L51.3272 41.205C51.4777 41.1184 51.5985 41.189 51.5985 41.3623V41.7156C51.5939 41.8101 51.5669 41.9022 51.5198 41.9843C51.4726 42.0663 51.4066 42.136 51.3272 42.1875L42.0149 47.572C41.8645 47.6586 41.7437 47.588 41.7437 47.4147V47.0591C41.7484 46.9643 41.7755 46.872 41.8226 46.7896C41.8698 46.7072 41.9356 46.6371 42.0149 46.5849Z" fill="#0071CE"/>
<path d="M42.0149 48.5545L49.4055 44.287C49.556 44.2004 49.6791 44.2711 49.6791 44.4443V44.7999C49.6735 44.8945 49.6458 44.9864 49.5983 45.0684C49.5508 45.1503 49.4848 45.22 49.4055 45.2718L42.0149 49.5484C41.8645 49.635 41.7437 49.5666 41.7437 49.3911V49.0378C41.7468 48.9414 41.7731 48.8472 41.8203 48.763C41.8676 48.6789 41.9343 48.6074 42.0149 48.5545Z" fill="#0071CE"/>
</g>
<defs>
<filter id="filter0_d_3295_21738" x="21" y="15" width="40" height="84.0156" filterUnits="userSpaceOnUse" color-interpolation-filters="sRGB">
<feFlood flood-opacity="0" result="BackgroundImageFix"/>
<feColorMatrix in="SourceAlpha" type="matrix" values="0 0 0 0 0 0 0 0 0 0 0 0 0 0 0 0 0 0 127 0" result="hardAlpha"/>
<feOffset dy="2"/>
<feGaussianBlur stdDeviation="1"/>
<feComposite in2="hardAlpha" operator="out"/>
<feColorMatrix type="matrix" values="0 0 0 0 0 0 0 0 0 0 0 0 0 0 0 0 0 0 0.25 0"/>
<feBlend mode="normal" in2="BackgroundImageFix" result="effect1_dropShadow_3295_21738"/>
<feBlend mode="normal" in="SourceGraphic" in2="effect1_dropShadow_3295_21738" result="shape"/>
</filter>
</defs>
</svg>
