<svg width="120" height="111" viewBox="0 0 120 111" fill="none" xmlns="http://www.w3.org/2000/svg">
<g clip-path="url(#clip0_24_24763)">
<path d="M0 55.5C0 24.8482 24.8482 0 55.5 0H112C116.418 0 120 3.58172 120 8V103C120 107.418 116.418 111 112 111H55.5C24.8482 111 0 86.1518 0 55.5Z" fill="#E9F7FF"/>
<path d="M130.156 70.0134C105.048 55.5294 64.4725 55.5294 39.5259 70.0134C14.5794 84.4974 14.7242 108.013 39.844 122.508C64.9638 137.003 105.528 137.006 130.474 122.508C155.421 108.01 155.276 84.5087 130.156 70.0134Z" fill="#F5F5F5"/>
<path d="M95.3148 107.584C89.4843 104.216 80.0583 104.216 74.2647 107.584C68.4711 110.952 68.5024 116.411 74.3329 119.776C80.1634 123.141 89.5894 123.144 95.3858 119.776C101.182 116.408 101.148 110.952 95.3148 107.584Z" fill="#E0E0E0"/>
<path d="M74.2619 91.1831L71.7059 89.7063L72.7056 89.1383C72.8689 89.0437 73.0045 88.9079 73.0988 88.7444C73.1931 88.5809 73.2427 88.3955 73.2427 88.2067C73.2427 88.018 73.1931 87.8326 73.0988 87.6691C73.0045 87.5056 72.8689 87.3698 72.7056 87.2752L69.4936 85.4179C69.0029 85.1339 68.446 84.9844 67.879 84.9844C67.3121 84.9844 66.7552 85.1339 66.2645 85.4179L33.9339 104.045C33.7713 104.141 33.6364 104.277 33.5427 104.44C33.449 104.603 33.3997 104.789 33.3997 104.977C33.3997 105.165 33.449 105.35 33.5427 105.514C33.6364 105.677 33.7713 105.813 33.9339 105.908L37.1403 107.789C37.6334 108.076 38.194 108.227 38.7648 108.227C39.3356 108.227 39.8961 108.076 40.3893 107.789L43.4593 106.016L45.9869 107.502C46.3801 107.729 46.8263 107.849 47.2805 107.849C47.7347 107.849 48.1809 107.729 48.5741 107.502L74.2705 92.6485C74.3972 92.5723 74.5019 92.4645 74.5743 92.3356C74.6467 92.2067 74.6843 92.0612 74.6834 91.9134C74.6826 91.7655 74.6433 91.6205 74.5694 91.4924C74.4955 91.3644 74.3895 91.2578 74.2619 91.1831Z" fill="#E0E0E0"/>
<path d="M91.9438 64.4214C94.673 65.9976 94.6872 68.5508 91.975 70.127C89.2628 71.7032 84.8523 71.7032 82.1202 70.127C79.3882 68.5508 79.3768 65.9976 82.089 64.4214C84.8012 62.8452 89.2117 62.8452 91.9438 64.4214Z" fill="#E0E0E0"/>
<path d="M69.664 11.0196C69.4425 10.2414 67.8635 8.74757 66.293 8.79301C66.1414 8.79762 65.9917 8.82737 65.8499 8.88105L35.3313 26.2505C34.886 26.5092 34.5157 26.8793 34.2568 27.3245C33.9978 27.7696 33.8592 28.2745 33.8545 28.7894V94.8251C33.8545 96.5064 35.7942 98.111 37.6175 97.3385C37.6574 97.3263 37.6963 97.3111 37.7339 97.2931L68.2668 79.8952C68.7148 79.6399 69.0872 79.2705 69.3461 78.8245C69.605 78.3785 69.7412 77.872 69.7407 77.3563V11.3376C69.7409 11.227 69.7146 11.118 69.664 11.0196Z" fill="#455A64"/>
<path d="M38.1145 35.7654C38.1146 35.5079 38.183 35.2549 38.3128 35.0324C38.4425 34.8099 38.6288 34.6258 38.8529 34.4988L67.1989 18.3704C67.31 18.3066 67.4358 18.2732 67.5638 18.2734C67.6918 18.2737 67.8175 18.3076 67.9283 18.3717C68.0391 18.4359 68.131 18.5281 68.1949 18.639C68.2588 18.7499 68.2924 18.8757 68.2923 19.0037V72.2594C68.2916 72.5168 68.223 72.7695 68.0933 72.9919C67.9637 73.2143 67.7776 73.3986 67.5539 73.526L39.2051 89.6771C39.0941 89.7402 38.9686 89.7731 38.841 89.7725C38.7134 89.7719 38.5882 89.7378 38.4778 89.6738C38.3675 89.6097 38.2759 89.5178 38.2121 89.4073C38.1484 89.2967 38.1147 89.1714 38.1145 89.0438V35.7654Z" fill="#0071CE"/>
<path opacity="0.2" d="M38.1145 35.7654C38.1146 35.5079 38.183 35.2549 38.3128 35.0324C38.4425 34.8099 38.6288 34.6258 38.8529 34.4988L67.1989 18.3704C67.31 18.3066 67.4358 18.2732 67.5638 18.2734C67.6918 18.2737 67.8175 18.3076 67.9283 18.3717C68.0391 18.4359 68.131 18.5281 68.1949 18.639C68.2588 18.7499 68.2924 18.8757 68.2923 19.0037V72.2594C68.2916 72.5168 68.223 72.7695 68.0933 72.9919C67.9637 73.2143 67.7776 73.3986 67.5539 73.526L39.2051 89.6771C39.0941 89.7402 38.9686 89.7731 38.841 89.7725C38.7134 89.7719 38.5882 89.7378 38.4778 89.6738C38.3675 89.6097 38.2759 89.5178 38.2121 89.4073C38.1484 89.2967 38.1147 89.1714 38.1145 89.0438V35.7654Z" fill="black"/>
<path opacity="0.3" d="M33.8545 28.7877V94.8262C33.8545 96.5075 35.7942 98.1121 37.6175 97.3396C37.5079 97.3799 37.3902 97.3931 37.2743 97.3781C37.1585 97.363 37.0481 97.3202 36.9524 97.2533C36.8567 97.1863 36.7786 97.0972 36.7248 96.9936C36.671 96.8899 36.6431 96.7748 36.6434 96.658V30.611C36.6447 30.0366 36.8157 29.4754 37.1347 28.9978L34.1641 27.5068C33.9637 27.9043 33.8578 28.3426 33.8545 28.7877Z" fill="black"/>
<path opacity="0.1" d="M66.3043 8.7915C66.1528 8.79611 66.0031 8.82586 65.8613 8.87954L35.3313 26.2518C34.8245 26.5429 34.4176 26.9805 34.1641 27.5071L37.1517 28.9981C37.4046 28.6175 37.7431 28.3014 38.1401 28.0751L68.6701 10.7057C68.7556 10.6589 68.8496 10.6299 68.9466 10.6205C69.0436 10.6111 69.1415 10.6214 69.2344 10.6509C69.3273 10.6803 69.4133 10.7283 69.4871 10.7919C69.561 10.8555 69.6212 10.9334 69.6641 11.0209C69.4539 10.2399 67.8749 8.76026 66.3043 8.7915Z" fill="white"/>
<path d="M56.9664 21.6085C57.1794 21.4864 57.3583 21.5829 57.3583 21.8272C57.3508 21.9624 57.3117 22.094 57.2441 22.2114C57.1766 22.3288 57.0824 22.4287 56.9692 22.5031L50.9768 25.9679C50.7638 26.0928 50.5906 25.9878 50.5906 25.7407C50.5979 25.6069 50.6368 25.4767 50.7039 25.3608C50.771 25.2448 50.8645 25.1463 50.9768 25.0733L56.9664 21.6085Z" fill="#263238"/>
<path d="M49.4377 25.968C49.6507 25.8431 49.8239 25.9425 49.8267 26.1896C49.8189 26.324 49.78 26.4548 49.7129 26.5716C49.6459 26.6884 49.5526 26.7881 49.4405 26.8626C49.2247 26.9848 49.0486 26.8854 49.0486 26.6383C49.0558 26.5038 49.0949 26.3729 49.1625 26.2564C49.2301 26.1399 49.3244 26.041 49.4377 25.968Z" fill="#263238"/>
<path d="M53.2715 21.1057C53.7003 20.8587 54.0468 21.0546 54.0468 21.5488C54.0337 21.8176 53.9571 22.0794 53.8233 22.3129C53.6896 22.5464 53.5024 22.7449 53.2772 22.8921C52.8483 23.142 52.4933 22.9375 52.4905 22.4462C52.5064 22.1772 52.5854 21.9157 52.7211 21.6828C52.8567 21.45 53.0453 21.2523 53.2715 21.1057Z" fill="#263238"/>
<path d="M53.2743 83.2764C54.1462 82.7737 54.8505 83.1742 54.8534 84.1767C54.8257 84.7249 54.6691 85.2588 54.3962 85.735C54.1233 86.2112 53.7418 86.6163 53.2829 86.9173C52.411 87.42 51.6896 87.0082 51.6868 86.0056C51.7181 85.4579 51.8782 84.9253 52.154 84.4511C52.4299 83.9769 52.8137 83.5744 53.2743 83.2764Z" fill="#263238"/>
<path d="M75.2611 22.3501C75.0594 21.6429 73.6394 20.2882 72.2024 20.328C72.0657 20.3323 71.9305 20.3581 71.8019 20.4047L44.1034 36.1724C43.6993 36.4069 43.3633 36.7427 43.1282 37.1465C42.8932 37.5503 42.7673 38.0084 42.7629 38.4756V98.4195C42.7629 99.9474 44.5237 101.404 46.1709 100.691C46.2083 100.681 46.2444 100.667 46.2789 100.649L73.9916 84.8556C74.398 84.624 74.7359 84.2889 74.9708 83.8843C75.2058 83.4798 75.3294 83.0202 75.3292 82.5524V22.6284C75.3278 22.5317 75.3045 22.4365 75.2611 22.3501Z" fill="#0071CE"/>
<path opacity="0.2" d="M42.7493 38.4641V98.4194C42.7493 99.9473 44.5101 101.404 46.1573 100.691C46.0578 100.727 45.9511 100.739 45.8462 100.725C45.7413 100.711 45.6414 100.672 45.5547 100.611C45.4681 100.551 45.3973 100.47 45.3485 100.376C45.2996 100.282 45.2741 100.178 45.274 100.072V40.134C45.2751 39.6123 45.4303 39.1025 45.7199 38.6686L43.0247 37.3281C42.8495 37.6816 42.7554 38.0697 42.7493 38.4641Z" fill="white"/>
<path opacity="0.4" d="M72.203 20.328C72.0663 20.3323 71.9312 20.3581 71.8026 20.4047L44.1041 36.1724C43.6425 36.4348 43.2712 36.8309 43.0391 37.3084L45.7513 38.663C45.9789 38.3131 46.2853 38.0214 46.6459 37.811L74.3557 22.0462C74.4341 22.0013 74.5209 21.973 74.6106 21.9631C74.7004 21.9531 74.7912 21.9618 74.8775 21.9884C74.9638 22.015 75.0437 22.0591 75.1122 22.1179C75.1807 22.1767 75.2365 22.249 75.2759 22.3302C75.0601 21.6429 73.6401 20.2882 72.203 20.328Z" fill="white"/>
<path opacity="0.3" d="M75.2611 22.3501C75.0594 21.6429 73.6394 20.2882 72.2024 20.328C72.0657 20.3323 71.9305 20.3581 71.8019 20.4047L44.1034 36.1724C43.6993 36.4069 43.3633 36.7427 43.1282 37.1465C42.8932 37.5503 42.7673 38.0084 42.7629 38.4756V98.4195C42.7629 99.9474 44.5237 101.404 46.1709 100.691C46.2083 100.681 46.2444 100.667 46.2789 100.649L73.9916 84.8556C74.398 84.624 74.7359 84.2889 74.9708 83.8843C75.2058 83.4798 75.3294 83.0202 75.3292 82.5524V22.6284C75.3278 22.5317 75.3045 22.4365 75.2611 22.3501Z" fill="white"/>
<path d="M65.6141 29.1948C65.8782 29.0415 66.0941 29.1636 66.0969 29.4788V32.3984C66.0877 32.565 66.0395 32.7271 65.9561 32.8716C65.8727 33.0161 65.7566 33.1391 65.617 33.2305L47.5773 43.6334C47.3103 43.7868 47.0973 43.6646 47.0945 43.3494V40.427C47.1035 40.2604 47.1516 40.0982 47.235 39.9536C47.3184 39.809 47.4347 39.6862 47.5744 39.5949L65.6141 29.1948Z" fill="#0071CE"/>
<g opacity="0.7">
<path d="M65.7477 29.1587C66.0118 29.0053 66.2276 29.1275 66.2305 29.4427V32.3622C66.2212 32.5288 66.173 32.6909 66.0896 32.8355C66.0063 32.98 65.8901 33.1029 65.7505 33.1943L47.7108 43.5973C47.4439 43.7506 47.2309 43.6285 47.228 43.3133V40.3909C47.237 40.2242 47.2852 40.0621 47.3686 39.9175C47.452 39.7729 47.5682 39.65 47.708 39.5588L65.7477 29.1587Z" fill="white"/>
</g>
<g opacity="0.9">
<path d="M65.7505 35.102C66.0146 34.9487 66.2532 35.1664 66.256 35.4816L66.2305 37.4734C66.2212 37.64 66.173 37.8021 66.0896 37.9467C66.0063 38.0912 65.8901 38.2141 65.7505 38.3055L47.7108 48.7085C47.4439 48.8618 47.2309 48.7397 47.228 48.4245V46.274C47.237 46.1073 47.2866 45.9925 47.37 45.848C47.4534 45.7034 47.5711 45.5934 47.7108 45.5021L65.7505 35.102Z" fill="white"/>
</g>
<g opacity="0.5">
<path d="M71.3133 26.739C71.9324 26.3812 72.4351 26.668 72.4493 27.378C72.4432 27.6603 72.3804 27.9385 72.2647 28.196L72.4521 28.6646L71.9721 28.71C71.8037 28.9543 71.5848 29.1596 71.3303 29.3121C70.714 29.6699 70.2113 29.3831 70.2085 28.6731C70.227 28.2864 70.3368 27.9096 70.5288 27.5735C70.7208 27.2374 70.9896 26.9514 71.3133 26.739Z" fill="white"/>
</g>
<path d="M47.211 67.1487C47.2114 66.9221 47.2714 66.6997 47.3851 66.5038C47.4988 66.3078 47.6621 66.1453 47.8585 66.0325L72.788 51.8354C72.8864 51.7792 72.9979 51.7501 73.1112 51.751C73.2245 51.7519 73.3356 51.7827 73.4331 51.8404C73.5306 51.8981 73.6111 51.9806 73.6664 52.0795C73.7217 52.1784 73.7498 52.2901 73.748 52.4034V64.4308C73.747 64.6575 73.6864 64.88 73.5723 65.0759C73.4581 65.2719 73.2944 65.4343 73.0976 65.5469L48.1624 79.7469C48.064 79.8031 47.9525 79.8322 47.8392 79.8313C47.7259 79.8304 47.6149 79.7995 47.5174 79.7419C47.4199 79.6842 47.3394 79.6017 47.2841 79.5028C47.2288 79.4039 47.2006 79.2922 47.2025 79.1789L47.211 67.1487Z" fill="#0071CE"/>
<path opacity="0.5" d="M47.211 67.1487C47.2114 66.9221 47.2714 66.6997 47.3851 66.5038C47.4988 66.3078 47.6621 66.1453 47.8585 66.0325L72.788 51.8354C72.8864 51.7792 72.9979 51.7501 73.1112 51.751C73.2245 51.7519 73.3356 51.7827 73.4331 51.8404C73.5306 51.8981 73.6111 51.9806 73.6664 52.0795C73.7217 52.1784 73.7498 52.2901 73.748 52.4034V64.4308C73.747 64.6575 73.6864 64.88 73.5723 65.0759C73.4581 65.2719 73.2944 65.4343 73.0976 65.5469L48.1624 79.7469C48.064 79.8031 47.9525 79.8322 47.8392 79.8313C47.7259 79.8304 47.6149 79.7995 47.5174 79.7419C47.4199 79.6842 47.3394 79.6017 47.2841 79.5028C47.2288 79.4039 47.2006 79.2922 47.2025 79.1789L47.211 67.1487Z" fill="white"/>
<path d="M58.0569 61.7607L58.0881 72.8311L48.4548 78.3918L48.4236 67.3243L58.0569 61.7607Z" fill="#0071CE"/>
<g opacity="0.2">
<path d="M58.0569 61.7607L58.0881 72.8311L48.4548 78.3918L48.4236 67.3243L58.0569 61.7607Z" fill="white"/>
</g>
<g opacity="0.6">
<path d="M64.3903 62.7002L64.3931 63.4017L59.1647 66.4121L59.1619 65.7106L64.3903 62.7002Z" fill="white"/>
<path d="M70.8001 57.8242L70.8029 58.5229L59.1618 65.2451L59.1589 64.5437L70.8001 57.8242Z" fill="white"/>
<path d="M66.3982 67.3408L66.401 68.0423L59.1647 72.1944L59.1619 71.4957L66.3982 67.3408Z" fill="white"/>
<path d="M68.1901 65.0811L68.193 65.7797L59.1618 71.028L59.1589 70.3265L68.1901 65.0811Z" fill="white"/>
<path d="M70.7962 56.6543L70.799 57.3529L59.155 64.0752V63.3766L70.7962 56.6543Z" fill="white"/>
<path d="M65.4154 57.793L65.4183 58.8012L59.1532 62.4193L59.1504 61.414L65.4154 57.793Z" fill="white"/>
</g>
<path d="M47.211 51.1617C47.2114 50.9352 47.2714 50.7128 47.3851 50.5168C47.4988 50.3209 47.6621 50.1584 47.8585 50.0456L72.788 35.8598C72.8864 35.8036 72.9979 35.7745 73.1112 35.7754C73.2245 35.7763 73.3356 35.8072 73.4331 35.8648C73.5306 35.9225 73.6111 36.005 73.6664 36.1039C73.7217 36.2028 73.7498 36.3145 73.748 36.4278V48.4552C73.747 48.6819 73.6864 48.9044 73.5723 49.1004C73.4581 49.2963 73.2944 49.4587 73.0976 49.5713L48.1624 63.7713C48.064 63.8275 47.9525 63.8566 47.8392 63.8557C47.7259 63.8548 47.6149 63.824 47.5174 63.7663C47.4199 63.7086 47.3394 63.6261 47.2841 63.5272C47.2288 63.4283 47.2006 63.3166 47.2025 63.2033L47.211 51.1617Z" fill="#0071CE"/>
<path opacity="0.1" d="M47.211 51.1617C47.2114 50.9352 47.2714 50.7128 47.3851 50.5168C47.4988 50.3209 47.6621 50.1584 47.8585 50.0456L72.788 35.8598C72.8864 35.8036 72.9979 35.7745 73.1112 35.7754C73.2245 35.7763 73.3356 35.8072 73.4331 35.8648C73.5306 35.9225 73.6111 36.005 73.6664 36.1039C73.7217 36.2028 73.7498 36.3145 73.748 36.4278V48.4552C73.747 48.6819 73.6864 48.9044 73.5723 49.1004C73.4581 49.2963 73.2944 49.4587 73.0976 49.5713L48.1624 63.7713C48.064 63.8275 47.9525 63.8566 47.8392 63.8557C47.7259 63.8548 47.6149 63.824 47.5174 63.7663C47.4199 63.7086 47.3394 63.6261 47.2841 63.5272C47.2288 63.4283 47.2006 63.3166 47.2025 63.2033L47.211 51.1617Z" fill="black"/>
<path d="M47.211 82.7453C47.2105 82.5187 47.2702 82.2959 47.3839 82.0998C47.4977 81.9037 47.6615 81.7413 47.8585 81.6292L72.788 67.4321C72.8864 67.3759 72.9979 67.3468 73.1112 67.3477C73.2245 67.3486 73.3356 67.3794 73.4331 67.4371C73.5306 67.4948 73.6111 67.5773 73.6664 67.6762C73.7217 67.775 73.7498 67.8868 73.748 68.0001V80.0246C73.7476 80.2515 73.6872 80.4742 73.573 80.6702C73.4588 80.8662 73.2948 81.0286 73.0976 81.1407L48.1624 95.3407C48.064 95.3969 47.9525 95.426 47.8392 95.4251C47.7259 95.4242 47.6149 95.3934 47.5174 95.3357C47.4199 95.278 47.3394 95.1955 47.2841 95.0967C47.2288 94.9978 47.2006 94.886 47.2025 94.7727L47.211 82.7453Z" fill="#0071CE"/>
<path opacity="0.5" d="M47.211 82.7453C47.2105 82.5187 47.2702 82.2959 47.3839 82.0998C47.4977 81.9037 47.6615 81.7413 47.8585 81.6292L72.788 67.4321C72.8864 67.3759 72.9979 67.3468 73.1112 67.3477C73.2245 67.3486 73.3356 67.3794 73.4331 67.4371C73.5306 67.4948 73.6111 67.5773 73.6664 67.6762C73.7217 67.775 73.7498 67.8868 73.748 68.0001V80.0246C73.7476 80.2515 73.6872 80.4742 73.573 80.6702C73.4588 80.8662 73.2948 81.0286 73.0976 81.1407L48.1624 95.3407C48.064 95.3969 47.9525 95.426 47.8392 95.4251C47.7259 95.4242 47.6149 95.3934 47.5174 95.3357C47.4199 95.278 47.3394 95.1955 47.2841 95.0967C47.2288 94.9978 47.2006 94.886 47.2025 94.7727L47.211 82.7453Z" fill="white"/>
<path d="M58.0569 77.3691L58.0881 88.4395L48.4548 94.0002L48.4236 82.9299L58.0569 77.3691Z" fill="#0071CE"/>
<g opacity="0.2">
<path d="M58.0569 77.3691L58.0881 88.4395L48.4548 94.0002L48.4236 82.9299L58.0569 77.3691Z" fill="white"/>
</g>
<g opacity="0.6">
<path d="M64.3903 78.3086L64.3931 79.0072L59.1647 82.0176L59.1619 81.319L64.3903 78.3086Z" fill="white"/>
<path d="M70.8001 73.4297L70.8029 74.1283L59.1618 80.8506L59.1589 80.152L70.8001 73.4297Z" fill="white"/>
<path d="M66.3982 82.9492L66.401 83.6479L59.1647 87.8028L59.1619 87.1013L66.3982 82.9492Z" fill="white"/>
<path d="M68.1901 80.6885L68.193 81.3871L59.1618 86.6326L59.1589 85.934L68.1901 80.6885Z" fill="white"/>
<path d="M70.7962 72.2598L70.799 72.9612L59.155 79.6807V78.982L70.7962 72.2598Z" fill="white"/>
<path d="M65.4154 73.4014L65.4183 74.4096L59.1532 78.0277L59.1504 77.0195L65.4154 73.4014Z" fill="white"/>
</g>
<path d="M49.429 53.1475C49.4289 52.8895 49.4972 52.6361 49.6269 52.4131C49.7566 52.1901 49.9431 52.0055 50.1674 51.878L78.5162 35.7496C78.6274 35.6865 78.7532 35.6536 78.881 35.6543C79.0088 35.655 79.1343 35.6893 79.2447 35.7537C79.3551 35.8181 79.4467 35.9104 79.5102 36.0214C79.5738 36.1323 79.6071 36.258 79.6068 36.3858V50.0576C79.6061 50.315 79.5374 50.5677 79.4078 50.7901C79.2781 51.0125 79.0921 51.1967 78.8684 51.3242L50.5224 67.4781C50.4113 67.5419 50.2855 67.5753 50.1575 67.5751C50.0295 67.5749 49.9038 67.541 49.793 67.4768C49.6822 67.4126 49.5903 67.3205 49.5264 67.2095C49.4625 67.0986 49.4289 66.9728 49.429 66.8448V53.1475Z" fill="#0071CE"/>
<path opacity="0.6" d="M49.429 53.1475C49.4289 52.8895 49.4972 52.6361 49.6269 52.4131C49.7566 52.1901 49.9431 52.0055 50.1674 51.878L78.5162 35.7496C78.6274 35.6865 78.7532 35.6536 78.881 35.6543C79.0088 35.655 79.1343 35.6893 79.2447 35.7537C79.3551 35.8181 79.4467 35.9104 79.5102 36.0214C79.5738 36.1323 79.6071 36.258 79.6068 36.3858V50.0576C79.6061 50.315 79.5374 50.5677 79.4078 50.7901C79.2781 51.0125 79.0921 51.1967 78.8684 51.3242L50.5224 67.4781C50.4113 67.5419 50.2855 67.5753 50.1575 67.5751C50.0295 67.5749 49.9038 67.541 49.793 67.4768C49.6822 67.4126 49.5903 67.3205 49.5264 67.2095C49.4625 67.0986 49.4289 66.9728 49.429 66.8448V53.1475Z" fill="white"/>
<path d="M61.7601 47.0381L61.7942 59.6193L50.846 65.9411L50.8091 53.3599L61.7601 47.0381Z" fill="#0071CE"/>
<g opacity="0.2">
<path d="M61.7601 47.0381L61.7942 59.6193L50.846 65.9411L50.8091 53.3599L61.7601 47.0381Z" fill="white"/>
</g>
<g opacity="0.6">
<path d="M68.9595 48.1035L68.9623 48.9016L63.0182 52.3238L63.0154 51.5286L68.9595 48.1035Z" fill="white"/>
<path d="M76.2471 42.5596L76.2499 43.3548L63.0155 50.9944L63.0127 50.1992L76.2471 42.5596Z" fill="white"/>
<path d="M71.2429 53.3799V54.1751L63.0182 58.8952L63.0154 58.1L71.2429 53.3799Z" fill="white"/>
<path d="M73.2793 50.8096L73.2821 51.6048L63.0155 57.5688L63.0127 56.7736L73.2793 50.8096Z" fill="white"/>
<path d="M76.2434 41.2305V42.0257L63.009 49.6653V48.8701L76.2434 41.2305Z" fill="white"/>
<path d="M70.1268 42.5254L70.1296 43.6727L63.0069 47.7851L63.0012 46.6405L70.1268 42.5254Z" fill="white"/>
</g>
<g opacity="0.8">
<path d="M74.0802 30.7598L74.0831 31.9071L66.9604 36.0194L66.9575 34.8749L74.0802 30.7598Z" fill="white"/>
<path d="M72.22 33.3896L72.2229 34.5342L66.9604 37.573L66.9575 36.4284L72.22 33.3896Z" fill="white"/>
</g>
<path d="M95.9964 112.968C95.9049 113.164 95.7636 113.332 95.5867 113.456C95.4098 113.581 95.2034 113.656 94.9882 113.675C94.5405 113.708 94.0941 113.597 93.713 113.36C93.145 112.994 92.9122 112.42 92.5202 111.9C92.1092 111.399 91.6434 110.944 91.1315 110.546C90.58 110.138 90.1268 109.612 89.8052 109.006C89.7256 108.826 89.673 108.634 89.649 108.438C89.5989 108.807 89.653 109.182 89.8052 109.521C90.1269 110.125 90.5801 110.65 91.1315 111.057C91.6435 111.456 92.1093 111.912 92.5202 112.414C92.9122 112.931 93.1365 113.508 93.713 113.874C94.0949 114.109 94.5409 114.219 94.9882 114.187C95.2032 114.168 95.4095 114.093 95.5864 113.969C95.7634 113.846 95.9047 113.678 95.9964 113.482C96.064 113.19 96.0841 112.889 96.056 112.591C96.0576 112.719 96.0375 112.847 95.9964 112.968Z" fill="#263238"/>
<path d="M92.225 109.464C92.1631 109.545 92.1338 109.646 92.1427 109.748C92.1533 109.794 92.1755 109.837 92.2073 109.873C92.2391 109.909 92.2794 109.936 92.3244 109.952C92.3895 109.97 92.458 109.97 92.5232 109.953C92.5884 109.936 92.6481 109.902 92.6965 109.855C92.794 109.763 92.8816 109.66 92.9578 109.549C93.1787 109.266 93.4736 109.05 93.8098 108.924C93.9745 108.865 94.1464 108.827 94.321 108.813L93.9063 108.433C93.5614 108.451 93.2266 108.556 92.9328 108.737C92.639 108.919 92.3956 109.172 92.225 109.472V109.464Z" fill="white"/>
<path d="M92.3131 108.141C91.9241 108.323 91.6007 108.62 91.3872 108.993C91.3251 109.074 91.2957 109.175 91.3049 109.277C91.3151 109.324 91.3371 109.368 91.3689 109.404C91.4007 109.44 91.4412 109.468 91.4866 109.484C91.5522 109.501 91.6211 109.502 91.6867 109.485C91.7524 109.468 91.8126 109.434 91.8615 109.387C91.9581 109.294 92.0448 109.192 92.12 109.081C92.319 108.824 92.5796 108.623 92.8775 108.494C93.1754 108.365 93.501 108.314 93.824 108.345L93.4122 107.97C93.0371 107.926 92.6572 107.985 92.3131 108.141Z" fill="white"/>
<path d="M93.1393 107.723C92.762 107.355 92.3201 107.061 91.8358 106.854C91.2422 106.627 90.5038 106.661 90.0465 107.101C89.8785 107.277 89.7549 107.491 89.6857 107.725C89.6166 107.958 89.604 108.205 89.6489 108.444C89.673 108.64 89.7256 108.832 89.8052 109.012C89.9136 109.247 90.052 109.466 90.2169 109.665C90.376 108.231 91.6171 107.561 93.1393 107.723Z" fill="white"/>
<path d="M96.0278 111.568C96.0357 111.082 95.9246 110.601 95.704 110.168L94.8975 109.316L94.3295 108.793C94.1549 108.808 93.983 108.845 93.8183 108.904C93.4821 109.03 93.1872 109.246 92.9663 109.529C92.8901 109.64 92.8025 109.743 92.705 109.836C92.6566 109.883 92.5969 109.916 92.5317 109.933C92.4665 109.95 92.398 109.95 92.333 109.932C92.2879 109.916 92.2476 109.889 92.2158 109.853C92.1841 109.818 92.1618 109.774 92.1512 109.728C92.1423 109.626 92.1716 109.525 92.2335 109.444C92.4041 109.143 92.6475 108.891 92.9413 108.709C93.2351 108.527 93.5699 108.423 93.9148 108.404L93.8041 108.328C93.4811 108.297 93.1555 108.348 92.8576 108.477C92.5597 108.605 92.2991 108.807 92.1001 109.063C92.0249 109.174 91.9382 109.277 91.8416 109.37C91.7927 109.417 91.7325 109.45 91.6668 109.467C91.6012 109.484 91.5323 109.484 91.4667 109.466C91.4213 109.45 91.3808 109.423 91.349 109.386C91.3172 109.35 91.2952 109.306 91.285 109.259C91.2758 109.158 91.3052 109.056 91.3674 108.975C91.5664 108.626 91.8628 108.342 92.2204 108.159C92.5779 107.975 92.9812 107.9 93.3809 107.941H93.3667L93.1196 107.717C91.5974 107.555 90.3563 108.225 90.1973 109.654C90.4742 109.977 90.7803 110.273 91.1117 110.54C91.6237 110.938 92.0895 111.393 92.5005 111.895C92.8924 112.414 93.1168 112.988 93.6933 113.354C94.0744 113.592 94.5208 113.702 94.9685 113.67C95.1837 113.65 95.39 113.575 95.567 113.451C95.7439 113.327 95.8851 113.158 95.9767 112.963C96.0171 112.843 96.0373 112.717 96.0363 112.59C96.0511 112.25 96.0483 111.909 96.0278 111.568Z" fill="#455A64"/>
<path d="M93.1167 109.038L93.2104 110.756C94.2953 111.381 95.4341 111.04 95.8119 110.646L95.8829 109.038H93.1167Z" fill="#9C5A5A"/>
<path d="M95.2494 71.9387C95.1565 71.7544 95.1006 71.5538 95.0847 71.348L94.9938 69.874L84.4858 70.5499C84.3467 71.2855 84.2018 72.1886 84.0684 73.2082C87.8237 74.1888 91.8096 73.7363 95.2494 71.9387Z" fill="#9C5A5A"/>
<path d="M95.0452 65.9951L97.2802 70.3147L95.2496 73.7227L97.4961 77.2727L100.887 72.0102C101.115 71.6534 101.265 71.2517 101.324 70.8323C101.384 70.4129 101.353 69.9855 101.234 69.5791C100.654 67.526 99.9176 65.5207 99.0297 63.5811L95.0452 65.9951Z" fill="#9C5A5A"/>
<path d="M93.2673 57.6505C95.8404 57.1733 97.3115 58.031 99.4869 63.8502C98.598 65.8382 94.8293 66.5766 94.8293 66.5766L93.2673 57.6505Z" fill="#0071CE"/>
<path opacity="0.3" d="M93.2673 57.6505C95.8404 57.1733 97.3115 58.031 99.4869 63.8502C98.598 65.8382 94.8293 66.5766 94.8293 66.5766L93.2673 57.6505Z" fill="black"/>
<path d="M88.4507 58.3435L85.6419 58.8973C85.02 60.0333 84.3866 61.1012 83.7675 62.2372C83.2989 63.0892 82.819 64.0008 82.853 64.9749C82.8796 65.4953 83.0511 65.9979 83.3481 66.426C83.6452 66.854 84.0561 67.1905 84.5343 67.3974L84.2106 71.2314C88.6211 72.5804 94.0142 71.3961 95.1985 70.3794C95.545 68.772 95.8546 67.0623 96.2039 65.4549C96.4619 64.4177 96.6207 63.3583 96.6781 62.2911C96.7368 61.2092 96.4793 60.1335 95.9369 59.1955L95.9199 59.1671C95.5504 58.6129 95.0279 58.1779 94.4157 57.9152C93.8036 57.6525 93.1284 57.5734 92.4721 57.6875L88.4507 58.3435Z" fill="#0071CE"/>
<path d="M95.4143 72.2083C95.3514 72.1235 95.2962 72.0332 95.2496 71.9385C91.8129 73.7332 87.8316 74.1857 84.0798 73.208C83.2903 79.0981 82.6087 89.0694 83.0262 95.644C83.3727 103.312 84.7842 114.147 84.7842 114.147C86.6216 114.698 87.999 114.36 88.5188 113.962C89.1322 106.365 90.4812 101.159 89.4389 96.1353C90.1347 92.6222 90.5749 88.2117 90.5749 88.2117L91.106 95.9706L92.9009 109.603C93.4057 109.862 93.9702 109.984 94.5372 109.956C95.1042 109.927 95.6537 109.75 96.13 109.441C97.4364 101.639 97.9248 96.354 96.7832 92.483C98.5354 79.6917 98.632 76.4172 95.4143 72.2083Z" fill="#455A64"/>
<path opacity="0.3" d="M91.356 86.6813L92.3187 82.64C93.4547 82.4554 95.1985 81.7199 96.1215 80.1777C94.7902 81.2218 93.1528 81.7995 91.4611 81.8221L90.5835 88.2149L90.7709 90.9442L90.8448 89.9502C90.9296 88.8489 91.1005 87.7559 91.356 86.6813Z" fill="black"/>
<path d="M67.5567 53.7113L70.3825 61.0243C70.5638 61.4941 70.8636 61.9089 71.2528 62.2284C71.642 62.5479 72.1073 62.7613 72.6034 62.8476L77.4314 63.6996C77.9932 63.1031 78.3722 62.3579 78.5232 61.5524C78.6742 60.747 78.591 59.9152 78.2834 59.1556C76.8203 59.1343 75.3626 58.9745 73.9297 58.6785C73.9297 58.6785 70.8767 54.9638 69.6015 53.0468L70.5103 50.0335C70.5521 49.8983 70.5657 49.7558 70.55 49.6151C70.5344 49.4744 70.4899 49.3384 70.4194 49.2156L69.9309 48.3636C69.8042 48.1447 69.6024 47.9793 69.3629 47.8978L68.6586 47.6564C68.4995 47.6025 68.3311 47.5815 68.1637 47.5946C67.9962 47.6078 67.8332 47.6549 67.6845 47.7331L66.611 48.3011C66.5432 48.3365 66.4865 48.39 66.4474 48.4557C66.4082 48.5214 66.3882 48.5967 66.3895 48.6732C66.3906 48.7476 66.4118 48.8204 66.4507 48.8839C66.4897 48.9474 66.5451 48.9992 66.611 49.0338L67.0143 49.2412L67.5823 50.1841C67.2021 50.6923 66.9946 51.3088 66.99 51.9435C66.9854 52.5782 67.184 53.1976 67.5567 53.7113Z" fill="#9C5A5A"/>
<path d="M85.2017 58.8376C83.4636 58.9199 80.8536 59.2068 78.2919 59.1557C78.5995 59.9152 78.6828 60.7471 78.5318 61.5525C78.3807 62.3579 78.0018 63.1031 77.4399 63.6997L83.4721 64.7533C84.1088 64.8537 84.7601 64.7136 85.2992 64.3603C85.8383 64.0071 86.2267 63.4658 86.3888 62.842C86.5762 62.078 86.7779 61.4362 86.8915 60.6921C86.9273 60.4544 86.9097 60.2118 86.84 59.9818C86.7702 59.7517 86.65 59.5402 86.4881 59.3625C86.3262 59.1849 86.1267 59.0456 85.9042 58.9547C85.6816 58.8639 85.4416 58.8239 85.2017 58.8376Z" fill="#0071CE"/>
<path opacity="0.3" d="M85.2017 58.8376C83.4636 58.9199 80.8536 59.2068 78.2919 59.1557C78.5995 59.9152 78.6828 60.7471 78.5318 61.5525C78.3807 62.3579 78.0018 63.1031 77.4399 63.6997L83.4721 64.7533C84.1088 64.8537 84.7601 64.7136 85.2992 64.3603C85.8383 64.0071 86.2267 63.4658 86.3888 62.842C86.5762 62.078 86.7779 61.4362 86.8915 60.6921C86.9273 60.4544 86.9097 60.2118 86.84 59.9818C86.7702 59.7517 86.65 59.5402 86.4881 59.3625C86.3262 59.1849 86.1267 59.0456 85.9042 58.9547C85.6816 58.8639 85.4416 58.8239 85.2017 58.8376Z" fill="black"/>
<path d="M85.0285 50.7866C84.6101 49.9913 84.4194 49.096 84.4775 48.1993C84.511 47.7525 84.6519 47.3203 84.8883 46.9396C85.1246 46.5588 85.4494 46.2408 85.835 46.0125C86.6217 45.5922 87.7151 45.7285 88.2632 46.4385C89.7116 45.7172 91.5264 45.7058 92.8725 46.6032C93.5456 47.0593 94.0896 47.6813 94.4518 48.4092C94.814 49.1371 94.9822 49.9462 94.9401 50.7582C94.8804 51.6868 94.5396 52.6013 94.6561 53.5272C94.7157 54.0724 94.9401 54.6234 94.7895 55.1516C94.7186 55.3699 94.6036 55.5712 94.4517 55.7432C94.2998 55.9151 94.1141 56.054 93.9063 56.1513C93.5002 56.3643 92.5516 56.3075 92.1029 56.4012C90.734 57.6452 89.013 57.1794 87.9196 56.069C86.8262 54.9585 85.0285 50.7866 85.0285 50.7866Z" fill="#37474F"/>
<path d="M84.7445 52.0215L83.8896 53.5068L84.824 53.8533L84.7445 52.0215Z" fill="#804040"/>
<path d="M84.6479 51.3602C84.7842 50.0567 85.1648 48.8269 86.014 48.2021C85.7865 49.8235 86.1309 51.4734 86.9881 52.8683C87.072 52.4378 87.2932 52.0462 87.6186 51.7521C87.7767 51.5996 87.9743 51.4944 88.1891 51.4482C88.4038 51.402 88.6273 51.4168 88.8341 51.4909C89.1166 51.6255 89.3356 51.8649 89.4447 52.1583C89.5597 52.4404 89.5909 52.7497 89.5344 53.049C89.4779 53.3484 89.3361 53.6251 89.1262 53.8459C88.9162 54.0666 88.647 54.222 88.3508 54.2935C88.0547 54.3649 87.7442 54.3493 87.4567 54.2485C87.5744 54.8275 87.8581 55.3598 88.2731 55.7804C88.6881 56.201 89.2166 56.4917 89.794 56.6171C90.556 56.7725 91.3469 56.6973 92.066 56.4012L92.4182 58.1592C90.9982 59.6843 88.5444 58.659 88.5444 58.659L88.232 56.9238C85.4176 57.0913 85.1563 57.0431 84.8467 55.5038C84.5911 54.1382 84.5242 52.744 84.6479 51.3602Z" fill="#9C5A5A"/>
<path opacity="0.3" d="M90.8787 49.4663C91.2751 48.3324 92.0706 47.3815 93.1166 46.791C93.7158 47.2593 94.1931 47.8652 94.5081 48.5574C94.823 49.2496 94.9663 50.0076 94.9257 50.767C94.866 51.6957 94.5252 52.6102 94.6417 53.536C94.7013 54.0813 94.9257 54.6323 94.7752 55.1605C94.7042 55.3787 94.5892 55.5801 94.4373 55.752C94.2854 55.924 94.0997 56.0629 93.8919 56.1602C93.4858 56.3732 92.5372 56.3164 92.0885 56.4101C92.0289 56.4641 91.9692 56.5095 91.9068 56.5578C91.4314 55.6494 91.058 54.6912 90.7935 53.7007C90.4048 52.3116 90.4344 50.8387 90.8787 49.4663Z" fill="black"/>
<path d="M91.6597 48.489C91.8801 47.7593 92.3274 47.1189 92.9367 46.6609C93.5459 46.2028 94.2853 45.9508 95.0474 45.9417C95.8096 45.9325 96.5548 46.1665 97.1749 46.6098C97.795 47.0531 98.2576 47.6825 98.4956 48.4066C99.3476 50.9626 97.1693 53.706 97.6436 56.3586C97.814 57.3185 98.3223 58.1932 98.4956 59.1503C98.5999 59.7057 98.5895 60.2767 98.4649 60.8279C98.3403 61.3791 98.1042 61.899 97.7711 62.3556C97.438 62.8121 97.015 63.1957 96.5281 63.4826C96.0412 63.7695 95.5007 63.9536 94.9399 64.0238C95.5505 63.3507 95.5618 62.3198 95.2239 61.4678C94.8859 60.6158 94.2554 59.937 93.7187 59.1958C91.5319 56.2251 90.5947 51.9992 91.6597 48.489Z" fill="#37474F"/>
</g>
<path d="M0.5 55.5C0.5 25.1243 25.1243 0.5 55.5 0.5H112C116.142 0.5 119.5 3.85786 119.5 8V103C119.5 107.142 116.142 110.5 112 110.5H55.5C25.1243 110.5 0.5 85.8757 0.5 55.5Z" stroke="#E7E9EC"/>
<defs>
<clipPath id="clip0_24_24763">
<path d="M0 55.5C0 24.8482 24.8482 0 55.5 0H112C116.418 0 120 3.58172 120 8V103C120 107.418 116.418 111 112 111H55.5C24.8482 111 0 86.1518 0 55.5Z" fill="white"/>
</clipPath>
</defs>
</svg>
