<svg width="52" height="111" viewBox="0 0 52 111" fill="none" xmlns="http://www.w3.org/2000/svg">
<path d="M0 52C0 23.2812 23.2812 0 52 0V111C23.2812 111 0 87.7188 0 59V52Z" fill="#FFE0E4"/>
<g filter="url(#filter0_d_217_59493)">
<path d="M43.5956 41.5999C43.5956 39.4425 42.1715 37.2851 39.3232 35.641C33.6189 32.3488 24.3756 32.3488 18.6752 35.641C15.8269 37.2851 14.3989 39.4425 14.3989 41.5999V75.482C14.3989 77.6394 15.8269 79.7968 18.6752 81.4448C24.3756 84.7369 33.6189 84.7369 39.3232 81.4448C42.1715 79.7968 43.5995 77.6394 43.5956 75.482V41.5999Z" fill="#E36977"/>
<path opacity="0.4" d="M37.9843 34.9648V82.1195C38.4474 81.9111 38.8951 81.6873 39.3235 81.4441C40.1686 80.9607 40.9471 80.3691 41.6391 79.6842V37.4002C40.948 36.7142 40.1694 36.1225 39.3235 35.6402C38.8886 35.3929 38.4417 35.1675 37.9843 34.9648Z" fill="white"/>
<path opacity="0.4" d="M34.1593 83.3628C34.8685 83.2071 35.5693 83.0152 36.2588 82.7877V34.2977C35.5704 34.0667 34.8694 33.8747 34.1593 33.7227V83.3628Z" fill="white"/>
<path opacity="0.1" d="M43.3447 40.0452C42.4387 38.8278 41.2801 37.8207 39.9484 37.0928C34.3214 33.847 25.4446 33.6193 19.366 36.4212V35.2827C19.1345 35.3985 18.899 35.5143 18.6752 35.6416C15.8269 37.2857 14.3989 39.4432 14.3989 41.6006V75.4827C14.3989 77.6401 15.8269 79.7975 18.6752 81.4455C24.3756 84.7376 33.6189 84.7376 39.3232 81.4455C40.2892 80.903 41.1665 80.2158 41.9245 79.4077C39.2229 81.9433 32.4495 83.3405 27.4284 82.3525C22.4073 81.3644 19.366 78.1611 19.366 75.884V74.6644C22.1796 76.2082 25.8615 76.9145 29.4623 76.9145V55.1627C25.8615 55.1627 22.1796 54.6069 19.366 53.094V50.4117C25.4446 53.2059 34.3214 52.986 39.9484 49.7363C41.429 48.9407 42.6838 47.7828 43.5956 46.3709V41.6006C43.594 41.0722 43.5093 40.5474 43.3447 40.0452Z" fill="#E36977"/>
<path opacity="0.1" d="M16.8651 76.5274V36.9141C15.2248 38.3266 14.3989 39.963 14.3989 39.4883V73.3781C14.3989 77.6466 15.8269 79.8041 18.6752 81.452C20.4112 82.4098 22.2905 83.081 24.2405 83.4396C18.7331 81.9538 16.8651 78.2062 16.8651 76.5274Z" fill="#E36977"/>
<path d="M44.483 34.9342C44.483 32.6455 42.9701 30.3569 39.9482 28.6124C33.8888 25.1351 24.0974 25.135 18.0651 28.6085C15.0432 30.353 13.5303 32.6417 13.5303 34.9303V41.7924C13.5303 44.0811 15.0432 46.3658 18.0651 48.1142C24.1129 51.5877 33.9158 51.5877 39.9636 48.1142C42.9855 46.3658 44.4984 44.0811 44.4984 41.7924V34.9342H44.483Z" fill="#E0E0E0"/>
<path opacity="0.1" d="M32.7043 50.4661C25.0433 50.5085 20.9986 48.0231 19.7713 45.9891C18.8373 44.4454 18.6752 41.5971 18.6752 38.772C18.6752 38.772 17.8107 32.3344 17.9805 32.3151C18.0847 32.3151 16.1434 31.8829 14.6537 31.5664C13.9312 32.5428 13.533 33.7212 13.5151 34.9357V41.7978C13.5151 44.0864 15.028 46.3712 18.05 48.1195C22.0252 50.4121 27.6175 51.1878 32.7043 50.4661Z" fill="#E36977"/>
<g opacity="0.1">
<path d="M27.4554 50.6483C27.2084 50.6483 26.9614 50.629 26.7144 50.6058V41.6172H27.4554V50.6483Z" fill="#E36977"/>
<path d="M20.8712 49.3814C20.6165 49.2927 20.3733 49.1962 20.1263 49.0997V40.25H20.8712V49.3814Z" fill="#E36977"/>
<path d="M24.0555 50.2222C23.8123 50.172 23.5537 50.1489 23.3145 50.0948V41.1641H24.0555V50.2222Z" fill="#E36977"/>
<path d="M17.2434 47.6007V38.832H17.9844V48.0754C17.722 47.9056 17.4827 47.7628 17.2434 47.6007Z" fill="#E36977"/>
<path d="M13.8859 43.7101C13.6396 43.0962 13.5087 42.4419 13.5 41.7804V34.9338C13.5063 34.5038 13.5646 34.0761 13.6737 33.6602H13.8705L13.8859 43.7101Z" fill="#E36977"/>
<path d="M14.9473 45.5315V36.8555H15.6921V46.3613C15.4271 46.1002 15.1784 45.8231 14.9473 45.5315Z" fill="#E36977"/>
<path d="M30.9419 50.6253C30.6949 50.6446 30.4479 50.6562 30.197 50.6678V41.6328H30.9419V50.6253Z" fill="#E36977"/>
<path d="M37.6133 49.2172C37.374 49.3098 37.1155 49.3754 36.8723 49.4604V40.3945H37.6133V49.2172Z" fill="#E36977"/>
<path d="M34.3721 50.1572C34.1289 50.2074 33.8742 50.2383 33.6272 50.2846V41.2188H34.3721V50.1572Z" fill="#E36977"/>
<path d="M39.8169 48.1797V39.1641H40.5618V47.7243C40.3572 47.8555 40.1758 47.9906 39.9481 48.1102L39.8169 48.1797Z" fill="#E36977"/>
<path d="M42.403 46.2571V37.1797H43.1517V45.4119C42.9206 45.7095 42.6705 45.9918 42.403 46.2571Z" fill="#E36977"/>
<path d="M44.1098 34.2969H44.4302C44.4616 34.5078 44.4796 34.7205 44.4842 34.9337V41.7958C44.4754 42.4573 44.3445 43.1115 44.0983 43.7255L44.1098 34.2969Z" fill="#E36977"/>
</g>
<path d="M18.0661 41.2525C24.1138 44.7453 33.9168 44.7453 39.9646 41.2525C46.0123 37.7597 46.0123 32.1018 39.9646 28.6128C33.9168 25.1239 24.0984 25.1355 18.0661 28.609C12.0338 32.0825 12.0029 37.7636 18.0661 41.2525Z" fill="#F5F5F5"/>
<path d="M40.7784 40.7238C45.9693 37.2117 45.6992 31.932 39.9486 28.6129C37 26.9108 33.1598 26.0425 29.2965 26C27.3154 26.3104 25.4034 26.9634 23.6463 27.9297C18.4206 30.9208 18.4206 36.8836 23.6463 39.8747C28.3124 42.5377 35.5566 42.8156 40.7784 40.7238Z" fill="#FAFAFA"/>
<path opacity="0.1" d="M19.5168 80.7765C24.7541 83.4086 33.2448 83.4086 38.4821 80.7765C43.7194 78.1444 43.7194 73.8797 38.4821 71.2475C33.2448 68.6154 24.7541 68.6154 19.5168 71.2475C14.2796 73.8797 14.2796 78.1444 19.5168 80.7765Z" fill="#E36977"/>
<path d="M14.3989 47.457C14.3989 49.6145 15.8269 51.7719 18.6752 53.416C21.5235 55.0601 25.2633 55.8861 28.9992 55.8861V77.4565C25.2633 77.4565 21.5273 76.6306 18.6752 74.9864C15.8231 73.3423 14.3989 71.1849 14.3989 69.0275V47.457Z" fill="white"/>
<path d="M18.6752 60.344C20.0287 61.1025 21.4771 61.6774 22.9823 62.0537V60.3054C21.4769 59.9278 20.0285 59.3516 18.6752 58.5918C15.8269 56.9477 14.3989 54.7902 14.3989 52.6328V54.3811C14.3989 56.5386 15.8269 58.7114 18.6752 60.344Z" fill="#E0E0E0"/>
<path d="M22.9823 69.8093C21.4771 69.433 20.0287 68.8581 18.6752 68.0996C15.8269 66.4516 14.3989 64.2941 14.3989 62.1367V63.8889C14.3989 66.0463 15.8269 68.2038 18.6752 69.8479C20.0279 70.608 21.4766 71.183 22.9823 71.5576V69.8093Z" fill="#E0E0E0"/>
<path d="M18.6752 65.0978C20.0273 65.862 21.476 66.4409 22.9823 66.8192V65.0708C21.4769 64.6879 20.0287 64.1079 18.6752 63.3457C15.8269 61.6977 14.3989 59.5402 14.3989 57.3828V59.135C14.3989 61.2963 15.8269 63.4499 18.6752 65.0978Z" fill="#E0E0E0"/>
<path d="M14.6958 38.3675C14.6958 38.3675 19.7362 43.4349 29.462 43.1725C39.1878 42.91 43.082 37.5956 43.5953 35.9476C44.1086 34.2996 43.7844 32.1576 42.2831 30.3398C42.9419 30.9171 43.4766 31.6222 43.8548 32.4124C44.2329 33.2025 44.4466 34.0612 44.483 34.9364V41.7985C44.483 42.3774 44.7802 44.3728 41.6424 46.9586C41.6424 46.9586 43.4834 44.8668 43.4834 42.8521V38.1089C43.4834 38.1089 40.0408 43.871 29.462 43.871C18.8833 43.871 15.2323 39.232 14.6958 38.3675Z" fill="white"/>
</g>
<defs>
<filter id="filter0_d_217_59493" x="11.5" y="26" width="35.0004" height="61.9141" filterUnits="userSpaceOnUse" color-interpolation-filters="sRGB">
<feFlood flood-opacity="0" result="BackgroundImageFix"/>
<feColorMatrix in="SourceAlpha" type="matrix" values="0 0 0 0 0 0 0 0 0 0 0 0 0 0 0 0 0 0 127 0" result="hardAlpha"/>
<feOffset dy="2"/>
<feGaussianBlur stdDeviation="1"/>
<feComposite in2="hardAlpha" operator="out"/>
<feColorMatrix type="matrix" values="0 0 0 0 0 0 0 0 0 0 0 0 0 0 0 0 0 0 0.25 0"/>
<feBlend mode="normal" in2="BackgroundImageFix" result="effect1_dropShadow_217_59493"/>
<feBlend mode="normal" in="SourceGraphic" in2="effect1_dropShadow_217_59493" result="shape"/>
</filter>
</defs>
</svg>
