<svg width="32" height="32" viewBox="0 0 32 32" fill="none" xmlns="http://www.w3.org/2000/svg">
<path d="M9.75 15.8125C9.75 14.9531 10.4141 14.25 11.3125 14.25H14.4375C15.2969 14.25 16 14.9531 16 15.8125V18.9375C16 19.8359 15.2969 20.5 14.4375 20.5H11.3125C10.4141 20.5 9.75 19.8359 9.75 18.9375V15.8125ZM11 15.8125V18.9375C11 19.1328 11.1172 19.25 11.3125 19.25H14.4375C14.5938 19.25 14.75 19.1328 14.75 18.9375V15.8125C14.75 15.6562 14.5938 15.5 14.4375 15.5H11.3125C11.1172 15.5 11 15.6562 11 15.8125ZM12.25 8H19.75V6.125C19.75 5.8125 20.0234 5.5 20.375 5.5C20.6875 5.5 21 5.8125 21 6.125V8H22.25C23.6172 8 24.75 9.13281 24.75 10.5V23C24.75 24.4062 23.6172 25.5 22.25 25.5H9.75C8.34375 25.5 7.25 24.4062 7.25 23V10.5C7.25 9.13281 8.34375 8 9.75 8H11V6.125C11 5.8125 11.2734 5.5 11.625 5.5C11.9375 5.5 12.25 5.8125 12.25 6.125V8ZM8.5 23C8.5 23.7031 9.04688 24.25 9.75 24.25H22.25C22.9141 24.25 23.5 23.7031 23.5 23V13H8.5V23ZM8.5 10.5V11.75H23.5V10.5C23.5 9.83594 22.9141 9.25 22.25 9.25H9.75C9.04688 9.25 8.5 9.83594 8.5 10.5Z" fill="white"/>
</svg>
