<svg width="32" height="32" viewBox="0 0 32 32" fill="none" xmlns="http://www.w3.org/2000/svg">
<path d="M24.0469 7.96094C26.5078 10.0703 26.625 13.8203 24.4375 16.0859L16.8594 23.8984C16.625 24.1328 16.3125 24.25 15.9609 24.25C15.6484 24.25 15.3359 24.1328 15.1016 23.8984L7.52344 16.0859C5.33594 13.8203 5.45312 10.0703 7.91406 7.96094C10.4141 5.85156 13.6172 6.82812 15.2188 8.46875L16 9.28906L16.7422 8.46875C18.7344 6.4375 21.8984 6.16406 24.0469 7.96094ZM23.5391 15.2266C25.0234 13.6641 25.3359 10.7344 23.2266 8.9375C21.0781 7.10156 18.5391 8.42969 17.6406 9.36719L16 11.0859L14.3203 9.36719C13.3828 8.42969 10.8828 7.10156 8.73438 8.9375C6.625 10.7344 6.9375 13.6641 8.42188 15.2266L16 23.0391L23.5391 15.2266Z" fill="white"/>
</svg>
