<svg width="32" height="32" viewBox="0 0 32 32" fill="none" xmlns="http://www.w3.org/2000/svg">
<path d="M16.625 7.375C16.625 7.0625 16.8984 6.75 17.25 6.75H18.8125C19.6328 6.75 20.3359 7.29688 20.6094 8.03906L20.8047 8.66406L23.0312 7.53125C23.2266 7.45312 23.4609 7.375 23.6953 7.375C24.2422 7.375 24.75 7.88281 24.75 8.42969V11.3594C24.75 11.9062 24.2422 12.375 23.6953 12.375C23.4609 12.375 23.2266 12.3359 23.0312 12.2188L21.7812 11.6328L22.7969 14.6016C23.0312 14.6016 23.2656 14.5625 23.5 14.5625C25.1016 14.5625 26.5859 15.2266 27.6406 16.2812C27.875 16.5156 27.875 16.9062 27.6406 17.1797C27.4062 17.4141 27.0156 17.4141 26.7812 17.1797C25.9219 16.3594 24.75 15.8125 23.5 15.8125C21.2734 15.8125 19.4375 17.375 18.9297 19.4062C18.8516 19.7578 18.8125 20.1484 18.8125 20.5H13.5C13.5 22.5703 11.8203 24.25 9.75 24.25C7.64062 24.25 6 22.5703 6 20.5H4.75C4.04688 20.5 3.5 19.9531 3.5 19.25V18C3.5 15.2656 5.72656 13 8.5 13H12.25C12.9141 13 13.5 13.5859 13.5 14.25V18C13.5 18.7031 14.0469 19.25 14.75 19.25H17.6797C17.6797 19.2109 17.6797 19.1719 17.7188 19.1328C18.1875 17.1406 19.6719 15.5391 21.5859 14.875L19.4375 8.42969C19.3203 8.19531 19.0859 8 18.8125 8H17.25C16.8984 8 16.625 7.72656 16.625 7.375ZM21.2344 9.95312C21.2344 9.95312 21.2344 9.95312 21.2734 9.95312L23.5 11.0859V8.70312L21.2734 9.83594C21.2344 9.83594 21.2344 9.83594 21.1953 9.83594L21.2344 9.95312ZM12.25 14.25H8.5C6.39062 14.25 4.75 15.9297 4.75 18V19.25H12.5625C12.3672 18.8984 12.25 18.4688 12.25 18V14.25ZM12.25 20.5H7.25C7.25 21.9062 8.34375 23 9.75 23C11.1172 23 12.25 21.9062 12.25 20.5ZM12.875 10.5C13.1875 10.5 13.5 10.8125 13.5 11.125C13.5 11.4766 13.1875 11.75 12.875 11.75H7.875C7.52344 11.75 7.25 11.4766 7.25 11.125C7.25 10.8125 7.52344 10.5 7.875 10.5H12.875ZM19.75 20.5C19.75 18.4297 21.3906 16.75 23.5 16.75C25.5703 16.75 27.25 18.4297 27.25 20.5C27.25 22.5703 25.5703 24.25 23.5 24.25C21.3906 24.25 19.75 22.5703 19.75 20.5ZM23.5 23C24.8672 23 26 21.9062 26 20.5C26 19.1328 24.8672 18 23.5 18C22.0938 18 21 19.1328 21 20.5C21 21.9062 22.0938 23 23.5 23Z" fill="white"/>
</svg>
