<svg width="32" height="32" viewBox="0 0 32 32" fill="none" xmlns="http://www.w3.org/2000/svg">
<path d="M19.75 12.375C19.75 16.2031 16.0781 19.25 11.625 19.25C10.8047 19.25 10.0625 19.1719 9.32031 18.9766C8.22656 19.7188 6.50781 20.5 4.39844 20.5C4.04688 20.5 3.69531 20.3047 3.53906 19.9531C3.42188 19.6016 3.46094 19.2109 3.73438 18.9375C3.73438 18.9375 4.67188 17.9219 5.25781 16.6719C4.16406 15.5 3.5 14.0156 3.5 12.375C3.5 8.58594 7.13281 5.5 11.625 5.5C16.0781 5.5 19.75 8.58594 19.75 12.375ZM11.625 18C15.4141 18 18.5 15.5 18.5 12.375C18.5 9.28906 15.4141 6.75 11.625 6.75C7.79688 6.75 4.75 9.28906 4.75 12.375C4.75 13.625 5.21875 14.8359 6.15625 15.8125L6.74219 16.4375L6.39062 17.2188C6 18.0391 5.49219 18.7422 5.14062 19.25C6.625 19.0938 7.83594 18.4688 8.65625 17.9609L9.08594 17.6484L9.63281 17.7656C10.2578 17.9219 10.9609 18 11.625 18ZM27.1719 22.5312C27.6797 23.3516 28.2266 23.9375 28.2266 23.9766C28.4609 24.2109 28.5391 24.6016 28.4219 24.9531C28.2656 25.3047 27.9141 25.5 27.5625 25.5C26.2734 25.5 25.1797 25.2266 24.2422 24.8359C23.2266 25.2656 22.1328 25.5 21 25.5C17.4453 25.5 14.5156 23.3125 13.6953 20.3047C14.125 20.2266 14.5547 20.1094 14.9453 19.9922C15.6094 22.4531 18.0312 24.25 21 24.25C21.9375 24.25 22.8359 24.0547 23.7344 23.7031L24.2031 23.4688L24.7109 23.6641C25.4141 23.9766 26.1172 24.1719 26.8203 24.25C26.625 23.9766 26.3516 23.5859 26.1172 23.1953L25.6484 22.4531L26.1562 21.7891C26.8594 20.8516 27.25 19.7578 27.25 18.625C27.25 15.5391 24.4375 13 21 13C20.9609 13 20.9609 13.0391 20.9609 13.0391C20.9609 12.8047 21 12.6094 21 12.375C21 12.1797 20.9609 11.9844 20.9609 11.7891C20.9609 11.7891 20.9609 11.75 21 11.75C25.1406 11.75 28.5 14.8359 28.5 18.625C28.5 20.0703 27.9922 21.4375 27.1719 22.5312Z" fill="white"/>
</svg>
