<svg width="32" height="32" viewBox="0 0 32 32" fill="none" xmlns="http://www.w3.org/2000/svg">
<path d="M26.8203 18.7031C27.7578 18.7031 28.5 19.4453 28.5 20.3438V21.9062C28.5 22.8438 27.7578 23.5469 26.7812 23.5469H26.4688V23.8594C26.4688 24.7969 25.7656 25.5 24.8672 25.5H23.3047C22.3672 25.5 21.6641 24.7969 21.6641 23.8594V23.5469H21.3516C20.4531 23.5469 19.75 22.8438 19.75 21.9062V20.3438C19.75 19.4453 20.4531 18.7031 21.3906 18.7031H21.7031V18.3906C21.7031 17.4922 22.4062 16.75 23.3438 16.75H24.9062C25.8047 16.75 26.5078 17.4922 26.5078 18.3906V18.7031H26.8203ZM27.25 21.9062V20.3438C27.25 20.1484 27.0547 19.9531 26.7812 19.9531H25.2188V18.3906C25.2188 18.1953 25.0625 18 24.8672 18H23.3047C23.0703 18 22.9141 18.1953 22.9141 18.3906V19.9531H21.3516C21.1562 19.9531 21 20.1484 21 20.3438V21.9062C21 22.1406 21.1562 22.2969 21.3906 22.2969H22.9531V23.8594C22.9531 24.0938 23.1484 24.25 23.3438 24.25H24.9062C25.1016 24.25 25.2969 24.0938 25.2969 23.8594V22.2969H26.8594C27.0547 22.2969 27.25 22.1406 27.25 21.9062ZM22.875 13H25.4141C26.5078 13 27.4844 13.625 28.0312 14.5625C28.2656 14.9922 27.9922 15.5 27.4844 15.5C27.25 15.5 27.0547 15.3828 26.9375 15.1875C26.625 14.6406 26.0391 14.25 25.4141 14.25H22.875C22.6016 14.25 22.3672 14.3281 22.1328 14.4453C21.7812 14.6016 21.3906 14.4453 21.2734 14.0938C21.1562 13.7812 21.3125 13.4297 21.625 13.2734C22.0156 13.1172 22.4453 13 22.875 13ZM23.5 11.75C21.7422 11.75 20.375 10.3828 20.375 8.625C20.375 6.90625 21.7422 5.5 23.5 5.5C25.2188 5.5 26.625 6.90625 26.625 8.625C26.625 10.3828 25.2188 11.75 23.5 11.75ZM23.5 6.75C22.4453 6.75 21.625 7.60938 21.625 8.625C21.625 9.67969 22.4453 10.5 23.5 10.5C24.5156 10.5 25.375 9.67969 25.375 8.625C25.375 7.60938 24.5156 6.75 23.5 6.75ZM19.125 24.25C19.4375 24.25 19.75 24.5625 19.75 24.875C19.75 25.2266 19.4375 25.5 19.125 25.5H9.59375C8.96875 25.5 8.5 25.0703 8.5 24.4844C8.5 21.5938 10.9609 19.25 14.0469 19.25H17.875C18.1875 19.25 18.5 19.5625 18.5 19.875C18.5 20.2266 18.1875 20.5 17.875 20.5H14.0078C11.7422 20.5 9.86719 22.1797 9.75 24.25H19.125ZM9.82812 14.4453C9.59375 14.3281 9.35938 14.25 9.125 14.25H6.54688C5.57031 14.25 4.75 15.1484 4.75 16.2422V16.75C4.75 17.1016 4.4375 17.375 4.125 17.375C3.77344 17.375 3.5 17.1016 3.5 16.75V16.2422C3.5 14.4844 4.86719 13 6.54688 13H9.125C9.55469 13 9.98438 13.1172 10.375 13.3125C10.6875 13.4688 10.8047 13.8203 10.6875 14.1328C10.5312 14.4453 10.1406 14.6016 9.82812 14.4453ZM8.5 11.75C6.74219 11.75 5.375 10.3828 5.375 8.625C5.375 6.90625 6.74219 5.5 8.5 5.5C10.2188 5.5 11.625 6.90625 11.625 8.625C11.625 10.3828 10.2188 11.75 8.5 11.75ZM8.5 6.75C7.44531 6.75 6.625 7.60938 6.625 8.625C6.625 9.67969 7.44531 10.5 8.5 10.5C9.51562 10.5 10.375 9.67969 10.375 8.625C10.375 7.60938 9.51562 6.75 8.5 6.75ZM15.9609 18C13.7344 18 11.8984 16.2031 11.9375 13.9375C11.9375 11.7109 13.7344 9.875 15.9609 9.875C18.1875 9.875 20.0234 11.7109 20.0234 13.9375C20.0234 16.2031 18.2266 18 15.9609 18ZM15.9609 11.125C14.4375 11.125 13.1484 12.4141 13.1484 13.9375C13.1484 15.5 14.4375 16.75 15.9609 16.75C17.5234 16.75 18.7734 15.5 18.7734 13.9375C18.7734 12.4141 17.5234 11.125 15.9609 11.125Z" fill="white"/>
</svg>
