<svg width="32" height="32" viewBox="0 0 32 32" fill="none" xmlns="http://www.w3.org/2000/svg">
<path d="M22.7578 10.4219C23.2266 10.8906 23.5 11.5156 23.5 12.1797V23C23.5 24.4062 22.3672 25.5 21 25.5H11C9.59375 25.5 8.5 24.4062 8.5 23V8C8.5 6.63281 9.59375 5.5 11 5.5H16.8203C17.4844 5.5 18.1094 5.77344 18.5781 6.24219L22.7578 10.4219ZM17.25 6.86719V11.125C17.25 11.4766 17.5234 11.75 17.875 11.75H22.1328C22.0938 11.5938 22.0156 11.4375 21.8594 11.2812L17.7188 7.14062C17.5625 6.98438 17.4062 6.90625 17.25 6.86719ZM22.25 23V13H17.875C16.8203 13 16 12.1797 16 11.125V6.75H11C10.2969 6.75 9.75 7.33594 9.75 8V23C9.75 23.7031 10.2969 24.25 11 24.25H21C21.6641 24.25 22.25 23.7031 22.25 23ZM17.25 14.875V16.75H19.125C19.4375 16.75 19.75 17.0625 19.75 17.375V18.7031C19.75 19.0156 19.4375 19.2891 19.125 19.2891H17.25V21.125C17.25 21.4766 16.9375 21.75 16.625 21.75H15.375C15.0234 21.75 14.75 21.4766 14.75 21.0859V19.25H12.875C12.5234 19.25 12.25 18.9766 12.25 18.625V17.375C12.25 17.0625 12.5234 16.75 12.875 16.75H14.75V14.875C14.75 14.5625 15.0234 14.25 15.375 14.25H16.625C16.9375 14.25 17.25 14.5625 17.25 14.875Z" fill="white"/>
</svg>
