<svg width="32" height="32" viewBox="0 0 32 32" fill="none" xmlns="http://www.w3.org/2000/svg">
<path d="M27.0156 15.0312C27.2891 15.2656 27.2891 15.6562 27.0547 15.9297C26.8594 16.2031 26.4688 16.2031 26.1953 15.9688L24.75 14.6797V22.375C24.75 24.1328 23.3438 25.5 21.625 25.5H10.375C8.61719 25.5 7.25 24.1328 7.25 22.375V14.6797L5.76562 15.9688C5.49219 16.2031 5.10156 16.2031 4.90625 15.9297C4.67188 15.6562 4.67188 15.2656 4.94531 15.0312L15.5703 5.69531C15.8047 5.46094 16.1562 5.46094 16.3906 5.69531L27.0156 15.0312ZM10.375 24.25H12.875V18C12.875 17.3359 13.4219 16.75 14.125 16.75H17.875C18.5391 16.75 19.125 17.3359 19.125 18V24.25H21.625C22.6406 24.25 23.5 23.4297 23.5 22.375V13.5859L16 6.98438L8.5 13.5859V22.375C8.5 23.4297 9.32031 24.25 10.375 24.25ZM14.125 24.25H17.875V18H14.125V24.25Z" fill="white"/>
</svg>
