<svg width="32" height="32" viewBox="0 0 32 32" fill="none" xmlns="http://www.w3.org/2000/svg">
<path d="M24.0859 14.3281C24.9453 15.1875 24.9453 16.5547 24.0859 17.4141L17.875 23.625C17.4453 24.0547 16.8984 24.25 16.3516 24.25C15.7656 24.25 15.2188 24.0547 14.7891 23.625L7.875 16.7109C7.52344 16.3594 7.25 15.6562 7.25 15.1484V7.84375C7.25 7.25781 7.71875 6.75 8.34375 6.75H15.6094C16.1172 6.75 16.8203 7.0625 17.1719 7.41406L24.0859 14.3281ZM23.1875 16.5547C23.3828 16.3594 23.5 16.125 23.5 15.8906C23.5 15.6172 23.3828 15.3828 23.1875 15.2266L16.2734 8.3125C16.1562 8.19531 15.8047 8 15.6094 8H8.5V15.1484C8.5 15.3438 8.65625 15.6953 8.77344 15.8125L15.6875 22.7266C15.8438 22.9219 16.0781 23 16.3516 23C16.5859 23 16.8203 22.9219 16.9766 22.7266L23.1875 16.5547ZM11.5859 10.1875C12.1328 10.1875 12.5234 10.6172 12.5234 11.125C12.5234 11.6719 12.0938 12.0625 11.5859 12.0625C11.0391 12.0625 10.6484 11.6719 10.6484 11.125C10.6484 10.6172 11.0391 10.1875 11.5859 10.1875Z" fill="white"/>
</svg>
