<svg width="32" height="32" viewBox="0 0 32 32" fill="none" xmlns="http://www.w3.org/2000/svg">
<path d="M20.375 18.625C20.6875 18.625 21 18.9375 21 19.25C21 19.6016 20.6875 19.875 20.375 19.875H15.375C15.0234 19.875 14.75 19.6016 14.75 19.25C14.75 18.9375 15.0234 18.625 15.375 18.625H20.375ZM20.375 14.875C20.6875 14.875 21 15.1875 21 15.5C21 15.8516 20.6875 16.125 20.375 16.125H16.625C16.2734 16.125 16 15.8516 16 15.5C16 15.1875 16.2734 14.875 16.625 14.875H20.375ZM12.25 18.3125C12.7578 18.3125 13.1875 18.7422 13.1875 19.25C13.1875 19.7969 12.7578 20.1875 12.25 20.1875C11.7031 20.1875 11.3125 19.7969 11.3125 19.25C11.3125 18.7422 11.7031 18.3125 12.25 18.3125ZM21 8C22.3672 8 23.5 9.13281 23.5 10.5V23C23.5 24.4062 22.3672 25.5 21 25.5H11C9.59375 25.5 8.5 24.4062 8.5 23V10.5C8.5 9.13281 9.59375 8 11 8C11.3125 8 11.625 8.3125 11.625 8.625C11.625 8.97656 11.3125 9.25 11 9.25C10.2969 9.25 9.75 9.83594 9.75 10.5V23C9.75 23.7031 10.2969 24.25 11 24.25H21C21.6641 24.25 22.25 23.7031 22.25 23V10.5C22.25 9.83594 21.6641 9.25 21 9.25C20.6484 9.25 20.375 8.97656 20.375 8.625C20.375 8.3125 20.6484 8 21 8ZM12.875 10.5C12.5234 10.5 12.25 10.2266 12.25 9.875C12.25 9.5625 12.5234 9.25 12.875 9.25H13.8125C13.6172 8.89844 13.5 8.46875 13.5 8C13.5 6.63281 14.5938 5.5 16 5.5C17.3672 5.5 18.5 6.63281 18.5 8C18.5 8.46875 18.3438 8.89844 18.1484 9.25H19.125C19.4375 9.25 19.75 9.5625 19.75 9.875C19.75 10.2266 19.4375 10.5 19.125 10.5H12.875ZM16 6.75C15.2969 6.75 14.75 7.33594 14.75 8C14.75 8.70312 15.2969 9.25 16 9.25C16.6641 9.25 17.25 8.70312 17.25 8C17.25 7.33594 16.6641 6.75 16 6.75ZM11.1562 14.4844C11.3906 14.2109 11.7812 14.2109 12.0156 14.4453L12.9141 15.2656L14.9062 13.1953C15.1406 12.9609 15.5312 12.9609 15.8047 13.1953C16.0391 13.4297 16.0391 13.8203 15.8047 14.0938L13.4219 16.5938C13.3047 16.7109 13.1094 16.75 12.9531 16.75C12.7969 16.75 12.6406 16.7109 12.5234 16.5938L11.1953 15.3438C10.9219 15.1094 10.9219 14.7188 11.1562 14.4844Z" fill="white"/>
</svg>
