<svg width="69" height="68" viewBox="0 0 69 68" fill="none" xmlns="http://www.w3.org/2000/svg">
<path d="M32.75 1.58771C33.8329 0.962498 35.1671 0.962498 36.25 1.58771L61.6949 16.2783C62.7778 16.9035 63.4449 18.059 63.4449 19.3094V48.6906C63.4449 49.941 62.7778 51.0965 61.6949 51.7217L36.25 66.4123C35.1671 67.0375 33.8329 67.0375 32.75 66.4123L7.30514 51.7217C6.22223 51.0965 5.55514 49.941 5.55514 48.6906V19.3094C5.55514 18.059 6.22223 16.9035 7.30514 16.2783L32.75 1.58771Z" stroke="#0071CE"/>
<path fill-rule="evenodd" clip-rule="evenodd" d="M39.3973 25.8194C41.7506 24.154 42.9091 21.8732 43.1263 19.0493V18.9045C43.1263 18.5063 42.9453 18.2891 42.6557 18.2891C42.366 18.2529 42.185 18.4701 42.185 18.8683C42.185 19.0855 42.185 19.3028 42.1488 19.52C41.8592 21.837 40.8093 23.7196 38.8543 25.0953C38.5647 25.2764 38.4923 25.566 38.6733 25.7832C38.8543 26.0004 39.1077 26.0366 39.3973 25.8194ZM24.1919 40.6629L24.1919 40.6629C24.2372 40.6991 24.2824 40.7353 24.3367 40.7715C23.1782 41.2422 22.4541 42.1835 21.8025 43.161C21.6576 43.4144 21.6939 43.6678 21.9111 43.8126C22.1283 43.9574 22.3817 43.885 22.5627 43.6678C22.617 43.6135 22.6532 43.5592 22.6894 43.5049C22.7257 43.4506 22.7619 43.3963 22.8162 43.342C22.9464 43.1999 23.0727 43.0501 23.2003 42.8989C23.4628 42.5877 23.7303 42.2705 24.0471 42.0024C24.6263 41.4956 25.3142 41.4594 26.0021 41.8576C26.2193 41.9843 26.4275 42.1201 26.6356 42.2559C26.8438 42.3916 27.052 42.5274 27.2692 42.6541C27.3444 42.6992 27.4197 42.7451 27.4951 42.791L27.4951 42.791C27.9641 43.0768 28.4406 43.3671 28.9708 43.523C30.3827 43.9936 31.5774 43.3782 32.0481 41.9662C32.1915 41.5074 32.244 41.0031 32.2956 40.5073C32.3092 40.3773 32.3226 40.2478 32.3377 40.1199C32.3739 39.9026 32.4101 39.8302 32.6273 39.8302H32.6274C32.9532 39.8302 33.3152 39.8302 33.641 39.7578C33.8582 39.6854 34.1117 39.5768 34.2203 39.3958C34.3651 39.1786 34.1841 38.9613 34.0031 38.7803C33.6068 38.366 33.2015 37.9428 32.7962 37.5194L32.7933 37.5164L32.7902 37.5132C32.383 37.0878 31.9757 36.6624 31.5774 36.2461C31.3602 35.9926 31.2878 35.7392 31.4326 35.4496C31.5774 35.1962 31.8308 35.0876 32.1205 35.1238C32.392 35.1419 32.6545 35.169 32.917 35.1962C33.1794 35.2233 33.4419 35.2505 33.7134 35.2686C34.5461 35.341 35.415 35.4134 36.2477 35.4134C37.189 35.4496 37.5872 34.8341 37.2252 33.9653C37.1446 33.8042 37.1039 33.6231 37.0587 33.4222C37.043 33.3522 37.0267 33.2798 37.008 33.205C37.1111 33.1878 37.2062 33.1788 37.2969 33.1701L37.2969 33.1701C37.3972 33.1606 37.4922 33.1516 37.5872 33.1326C37.7417 33.0914 37.902 33.0531 38.0641 33.0144C38.4716 32.9172 38.8899 32.8173 39.2526 32.6619C40.0491 32.3361 40.3387 31.6482 40.0853 30.8155C39.8318 30.0915 39.5422 29.3674 39.2164 28.6795C39.1229 28.4739 39.0273 28.2694 38.9318 28.065C38.4722 27.0818 38.0142 26.102 37.8044 25.023C37.6234 24.0455 37.6958 23.2128 38.4923 22.4887C39.325 21.6922 40.0129 20.7509 40.5559 19.701C40.7369 19.3752 40.7007 19.1218 40.4473 18.977C40.1939 18.8322 39.9404 18.9408 39.7594 19.2666C38.3113 21.8371 36.2115 23.6834 33.5324 24.8419C31.324 25.7832 29.007 26.0729 26.6175 25.9643C26.5451 25.9643 26.4365 25.9643 26.3279 25.9281C26.4178 25.6884 26.5139 25.4549 26.6084 25.2251L26.6084 25.2251C26.7424 24.8994 26.8735 24.5811 26.9796 24.2627C27.5226 22.5973 26.6899 20.8234 25.097 20.1717C23.504 19.52 21.6214 20.2441 20.8974 21.8371L20.8974 21.8371C20.7163 22.2353 20.5353 22.6335 20.3905 23.068C20.1009 23.8645 20.1733 24.6609 20.5715 25.385C20.8612 25.8556 20.9336 26.3625 20.825 26.9056C20.6802 27.702 21.1146 28.5347 21.8749 28.8968C22.5989 29.2588 23.504 29.0778 24.0471 28.4623C24.2643 28.2089 24.4453 27.9555 24.6263 27.6658C24.7712 27.4124 24.735 27.159 24.5177 27.0142C24.3005 26.8693 24.0471 26.9055 23.8661 27.1228C23.7937 27.2133 23.7303 27.3038 23.667 27.3943L23.6669 27.3943L23.6669 27.3943C23.6036 27.4848 23.5402 27.5753 23.4678 27.6658C23.142 28.1365 22.7076 28.2813 22.2731 28.1003C21.8387 27.9193 21.5852 27.521 21.6939 26.978C21.8025 26.2177 21.6939 25.5298 21.2956 24.8782C21.006 24.4075 21.006 23.9369 21.187 23.43L21.6214 22.3439C22.1645 21.113 23.504 20.5337 24.735 21.0406C25.9659 21.5474 26.5451 22.887 26.0383 24.1541C25.9116 24.4798 25.7759 24.8056 25.6401 25.1314L25.6401 25.1314L25.6401 25.1314L25.6401 25.1314L25.6401 25.1315L25.6401 25.1315L25.6401 25.1315L25.6401 25.1315L25.6401 25.1315L25.64 25.1316L25.64 25.1316L25.64 25.1316C25.5043 25.4574 25.3685 25.7833 25.2418 26.1091C25.0608 26.5435 25.2418 26.8331 25.7124 26.8694C27.052 26.978 28.3553 26.978 29.6586 26.8331C32.1567 26.5435 34.4375 25.7108 36.5011 24.2627C36.5735 24.2265 36.6821 24.1541 36.7907 24.0817C36.8269 24.1903 36.8269 24.2627 36.8269 24.3351C36.8623 24.5236 36.89 24.712 36.9174 24.8993C36.9744 25.2875 37.0307 25.6703 37.1528 26.0367C37.4892 26.9898 37.8907 27.9212 38.2901 28.8477C38.4065 29.1178 38.5227 29.3874 38.6371 29.657C38.8542 30.1636 39.0352 30.6703 39.2161 31.1769L39.2161 31.1769L39.2161 31.177L39.2162 31.177L39.2162 31.1771L39.2162 31.1772L39.2162 31.1772L39.2163 31.1773L39.2163 31.1773L39.2163 31.1774L39.2163 31.1774L39.2164 31.1776C39.325 31.5034 39.1802 31.7206 38.9268 31.9016C38.8989 31.9156 38.8696 31.9309 38.8393 31.9467C38.7122 32.0132 38.5661 32.0896 38.4199 32.1189L38.4199 32.1189C37.8768 32.1913 37.3338 32.2637 36.7907 32.2999C36.2115 32.3361 36.0667 32.4447 36.1029 33.024C36.1253 33.3376 36.1754 33.6375 36.2275 33.9492L36.2276 33.9492L36.2276 33.9492L36.2276 33.9492L36.2276 33.9492C36.2597 34.1411 36.2925 34.3376 36.3201 34.5445H35.7408C34.5461 34.4359 33.3152 34.3273 32.1205 34.2549C31.3602 34.1825 30.8172 34.5083 30.5275 35.1238C30.2379 35.703 30.3465 36.3547 30.8534 36.8977C31.1249 37.1874 31.4055 37.477 31.6861 37.7666C31.9666 38.0563 32.2472 38.3459 32.5187 38.6355C32.5513 38.6681 32.5765 38.7006 32.6043 38.7364L32.6043 38.7364C32.6383 38.7803 32.6761 38.8291 32.7359 38.8889C32.685 38.8974 32.638 38.9059 32.5937 38.9139C32.4488 38.9401 32.3315 38.9613 32.1929 38.9613C31.3602 38.9975 31.2878 39.3234 31.324 39.9026C31.3602 40.5905 31.2878 41.2784 30.9982 41.8938C30.7085 42.5093 30.2379 42.7627 29.55 42.7265C28.9346 42.6903 28.4639 42.4369 27.9933 42.1111C27.0158 41.4594 26.0292 40.7987 25.0427 40.138C24.0561 39.4772 23.0696 38.8165 22.0921 38.1649C22.0673 38.1525 22.0425 38.1316 22.0163 38.1095C21.9659 38.067 21.9101 38.02 21.8387 38.02C21.6576 37.9838 21.4404 37.9838 21.3318 38.0925C21.2232 38.1649 21.187 38.3821 21.2232 38.5269C21.2594 38.6355 21.4042 38.7803 21.5128 38.8527C21.9291 39.1423 22.3544 39.4228 22.7796 39.7033L22.7797 39.7033L22.7798 39.7034L22.7799 39.7035C23.2053 39.9841 23.6307 40.2647 24.0471 40.5543C24.1014 40.5905 24.1466 40.6267 24.1919 40.6629ZM39.1439 39.3234C39.2131 39.351 39.2664 39.3681 39.3119 39.3827C39.3855 39.4063 39.4388 39.4234 39.5059 39.4682L45.1537 43.0523C45.4071 43.1971 45.4433 43.4868 45.2985 43.704C45.1537 43.9212 44.9003 43.9936 44.6469 43.8488H44.6107C43.6694 43.2515 42.7372 42.6632 41.805 42.0749C40.8727 41.4866 39.9404 40.8982 38.9991 40.3009C38.8181 40.1922 38.6733 40.0112 38.7819 39.7578C38.8372 39.5919 38.9559 39.4893 39.0573 39.4017C39.0886 39.3746 39.1183 39.349 39.1439 39.3234ZM39.6789 47.4796C39.7046 47.4396 39.7308 47.3988 39.7595 47.3605C39.6871 47.1795 39.6147 47.0347 39.4699 46.8536C38.8552 45.9858 38.2495 45.127 37.6438 44.2683L37.6429 44.2669L37.6425 44.2663L37.6419 44.2656L37.6417 44.2652C37.0352 43.4053 36.4288 42.5455 35.8133 41.6765C35.7771 41.6403 35.75 41.6041 35.7228 41.5679C35.6957 41.5317 35.6685 41.4955 35.6323 41.4593C35.4513 41.3145 35.2341 41.3145 35.053 41.4593C34.872 41.6041 34.8358 41.7851 34.9082 42.0024C34.9444 42.0748 35.0168 42.1834 35.0892 42.2558C35.545 42.8992 35.9958 43.5427 36.4453 44.1843C37.2099 45.2755 37.9707 46.3614 38.7458 47.4329C38.776 47.4631 38.7999 47.4997 38.8228 47.5346C38.8547 47.5834 38.8846 47.629 38.9268 47.6501C39.1078 47.7225 39.2889 47.7587 39.4337 47.7225C39.5402 47.6959 39.6075 47.5909 39.6789 47.4796ZM43.0539 35.9926H39.8318C39.4335 35.9926 39.2525 35.8478 39.2525 35.5582C39.2525 35.2324 39.4335 35.0876 39.8318 35.0876H46.3122C46.6742 35.0876 46.8915 35.2324 46.8915 35.5582C46.8915 35.8478 46.7105 35.9926 46.3484 36.0288C45.2261 35.9926 44.14 35.9926 43.0539 35.9926ZM25.278 24.9505V24.3351C25.2939 24.2874 25.3028 24.2468 25.3108 24.21C25.3212 24.163 25.3301 24.1223 25.3504 24.0816C25.3504 23.3214 24.8798 22.7059 24.2281 22.5973C23.4678 22.4887 22.7438 22.9593 22.5627 23.7196C22.4903 23.9368 22.5627 24.154 22.8162 24.2627C23.0334 24.3713 23.2506 24.2989 23.3954 24.0454C23.4135 24.0092 23.4226 23.973 23.4316 23.9368C23.4407 23.9006 23.4497 23.8644 23.4678 23.8282C23.5402 23.5748 23.7212 23.3938 24.0109 23.4662C24.3367 23.5386 24.4091 23.7558 24.4091 24.0454C24.4091 24.1902 24.4001 24.326 24.391 24.4618L24.391 24.4618C24.382 24.5975 24.3729 24.7333 24.3729 24.8781C24.3729 25.204 24.5539 25.385 24.8074 25.385C25.0608 25.4212 25.2418 25.2401 25.278 24.9505ZM43.7418 39.7578C43.3797 39.7578 43.0539 39.4681 43.0539 39.1061C43.0539 38.7441 43.3797 38.4182 43.7418 38.4544C44.1038 38.4544 44.3934 38.7441 44.3934 39.1061C44.3934 39.4681 44.14 39.7578 43.7418 39.7578ZM42.5471 44.9349C42.1489 44.9349 41.8592 45.2245 41.8592 45.5866C41.8592 45.9486 42.1489 46.2382 42.5471 46.2744C42.8729 46.2744 43.1988 45.9848 43.1988 45.6228C43.1988 45.2607 42.9091 44.9349 42.5471 44.9349ZM47.0002 48.157C47.3984 48.157 47.6518 48.4104 47.6518 48.8087C47.6518 49.1707 47.3622 49.4965 47.0002 49.4965C46.6743 49.4965 46.3485 49.2069 46.3485 48.8449C46.3123 48.4466 46.6019 48.157 47.0002 48.157ZM40.3749 49.7137C40.7369 49.7137 41.0266 49.4603 41.0266 49.0621C41.0266 48.7 40.7369 48.4104 40.3387 48.4104C39.9767 48.4104 39.687 48.7 39.687 49.0621C39.687 49.4241 40.0129 49.7137 40.3749 49.7137ZM47.6519 44.5729C47.6519 44.9711 47.3985 45.2246 47.0002 45.2246C46.6382 45.2246 46.3124 44.9349 46.3486 44.5729C46.3486 44.2109 46.6382 43.9212 47.0002 43.9212C47.3261 43.885 47.6519 44.1747 47.6519 44.5729ZM48.738 38.9613C49.1 38.9613 49.4259 38.6717 49.4259 38.3097C49.4621 37.9114 49.1724 37.6218 48.7742 37.658C48.376 37.658 48.0863 37.9476 48.0863 38.3097C48.0863 38.6355 48.3759 38.9613 48.738 38.9613Z" fill="#0071CE"/>
</svg>
