<svg width="69" height="68" viewBox="0 0 69 68" fill="none" xmlns="http://www.w3.org/2000/svg">
<path d="M32.75 1.58771C33.8329 0.962498 35.1671 0.962498 36.25 1.58771L61.6949 16.2783C62.7778 16.9035 63.4449 18.059 63.4449 19.3094V48.6906C63.4449 49.941 62.7778 51.0965 61.6949 51.7217L36.25 66.4123C35.1671 67.0375 33.8329 67.0375 32.75 66.4123L7.30514 51.7217C6.22223 51.0965 5.55514 49.941 5.55514 48.6906V19.3094C5.55514 18.059 6.22223 16.9035 7.30514 16.2783L32.75 1.58771Z" stroke="#0071CE"/>
<path fill-rule="evenodd" clip-rule="evenodd" d="M29.5385 22.2183C29.7189 22.8678 29.6467 23.3729 29.3581 23.8781C28.9611 24.5637 28.6725 25.3936 28.4921 26.3318C28.3838 26.8369 28.6003 27.2338 29.0333 27.306C29.5024 27.3782 29.8271 27.1256 29.9354 26.6204C30.5488 23.7698 32.2808 21.7131 35.0232 20.4862C36.0696 20.0172 37.2242 19.8007 38.5593 19.7646C38.8119 19.7646 39.0645 19.6563 39.2088 19.512C39.3171 19.3677 39.3892 19.2233 39.3892 19.0068C39.3892 18.6821 39.2088 18.4295 38.848 18.2852H37.8737C37.6933 18.3212 37.4768 18.3573 37.2603 18.3934L37.1157 18.4174C36.7246 18.482 36.3144 18.5497 35.9613 18.646C34.2654 19.0429 32.7499 19.8728 31.4509 21.0997C31.44 21.1106 31.4257 21.1215 31.4102 21.1334C31.3744 21.1609 31.3317 21.1937 31.3066 21.244L30.9096 21.5687L30.7653 21.2079C30.4045 20.3419 29.9715 19.6563 29.4663 19.1512C29.2498 18.9347 29.0333 18.7542 28.7807 18.5738C28.7446 18.5377 28.6995 18.5017 28.6544 18.4656L28.6544 18.4656L28.6544 18.4656C28.6093 18.4295 28.5642 18.3934 28.5281 18.3573H28.2034H28.1673C28.148 18.367 28.1312 18.3767 28.1157 18.3856L28.1157 18.3856L28.1157 18.3856C28.0732 18.4102 28.0397 18.4295 27.9869 18.4295C27.7704 18.5377 27.6621 18.7542 27.6261 18.9707C27.59 19.2233 27.6982 19.4398 27.9147 19.6202C28.7807 20.378 29.322 21.244 29.5385 22.2183ZM20.6981 27.9916C20.4816 28.0277 20.3011 28.0638 20.0486 28.1359C19.3991 28.3163 19.1826 28.2081 18.7856 27.6668V27.306C18.93 26.9813 19.2186 26.8008 19.6516 26.6926C20.8424 26.4039 22.1775 26.4039 23.693 26.6926C23.9456 26.7287 24.2342 26.7287 24.4147 26.3678C24.8116 25.6101 25.2085 24.708 25.3528 23.7337C25.5332 22.6152 25.1724 21.6409 24.2703 20.811C24.2342 20.7749 24.1891 20.7388 24.144 20.7027L24.144 20.7027L24.144 20.7027L24.144 20.7027L24.144 20.7027L24.144 20.7027L24.144 20.7027C24.0989 20.6667 24.0538 20.6306 24.0177 20.5945L23.9095 20.4862C23.5487 20.1976 23.5126 19.7646 23.7652 19.4398C24.0538 19.1151 24.4868 19.079 24.8477 19.3676C26.6879 20.7749 27.3013 22.6873 26.6518 24.9245C26.5075 25.3575 26.3271 25.8266 26.1467 26.2957C26.1106 26.4039 26.0655 26.5122 26.0204 26.6204C25.9753 26.7287 25.9302 26.8369 25.8941 26.9452L25.7858 27.1978L26.0745 27.3421L26.291 27.4503C26.326 27.4678 26.3631 27.4853 26.4013 27.5033L26.4014 27.5034L26.4014 27.5034L26.4014 27.5034C26.5208 27.5597 26.6508 27.6209 26.7601 27.7029L27.0487 27.8833C27.6622 28.2803 28.3117 28.7133 28.9251 29.1463C29.0694 29.2906 29.1777 29.471 29.2138 29.6514C29.2498 29.8318 29.1777 30.0483 29.0333 30.1927C28.7447 30.5174 28.3478 30.5174 27.9508 30.1927C26.1106 28.7133 24.0177 27.9555 21.7084 27.9555H21.7084C21.3836 27.9555 21.0589 27.9555 20.6981 27.9916ZM50.1601 41.0537C50.1691 41.0898 50.1781 41.1259 50.1781 41.162L50.2142 43.6518L50.142 44.2291C50.0699 44.626 49.9977 45.059 49.9616 45.4559C49.7812 46.6106 49.24 47.4405 48.1935 48.0179C47.0028 48.7034 45.6316 49.1364 44.0439 49.389C43.5749 49.4612 43.0697 49.5334 42.6006 49.5694C42.4848 49.586 42.3765 49.5949 42.2759 49.6033H42.2759C42.157 49.6131 42.0488 49.6221 41.9511 49.6416H39.6778L39.1366 49.6055L37.9458 49.4973C35.0952 49.1725 32.5694 48.3787 30.224 47.1158C30.1879 47.0797 30.1157 47.0436 30.0436 47.0075L29.5745 46.791L29.358 47.657C29.3186 47.8739 29.2684 48.0692 29.2191 48.2606C29.1783 48.4196 29.1381 48.5758 29.1054 48.7395C29.0332 48.9921 28.8889 49.2086 28.6724 49.3169C28.492 49.389 28.2755 49.389 28.059 49.2808C27.7342 49.1004 27.626 48.8117 27.6981 48.4148C27.8064 47.9457 27.9507 47.4766 28.0951 47.0075C28.1097 46.949 28.1302 46.8846 28.1519 46.8167C28.1837 46.717 28.2179 46.6097 28.2394 46.5023C28.2574 46.4843 28.2665 46.4572 28.2755 46.4302C28.2845 46.4031 28.2935 46.3761 28.3116 46.358L28.4559 46.0693L28.2755 45.925C28.2033 45.8709 28.1311 45.8077 28.059 45.7446L28.0589 45.7445C27.9868 45.6814 27.9146 45.6183 27.8425 45.5642C27.5179 45.2756 27.2293 45.0231 26.9408 44.7707L26.9407 44.7706L26.9404 44.7703C24.6311 42.5693 23.2238 40.0434 22.7908 37.1928C22.6825 36.3629 22.6465 35.4608 22.6465 34.6309V34.1618C22.6465 33.9814 22.7186 33.8371 22.863 33.6927C23.0434 33.5484 23.2238 33.4762 23.4403 33.4762C23.8733 33.5123 24.162 33.8371 24.1259 34.2701C24.0537 35.533 24.162 36.5794 24.3785 37.5537C25.1001 40.6568 26.9404 43.2188 29.8271 45.1312C32.2807 46.7188 35.0952 47.6931 38.4871 48.0539C41.0851 48.3065 43.3584 48.1622 45.4873 47.5849C46.3533 47.3684 47.0749 47.0436 47.7605 46.6106C48.1574 46.358 48.41 45.9972 48.5183 45.492C48.7348 44.4456 48.8069 43.327 48.7709 41.9919C48.6626 37.5897 47.6884 33.8731 45.812 30.6256C44.4409 28.3163 42.6367 26.5843 40.4356 25.5018C40.2191 25.3935 40.0748 25.2492 40.0026 25.0688C39.9304 24.8884 39.9304 24.708 40.0387 24.5275C40.2191 24.1306 40.6521 24.0224 41.0851 24.2389C43.5749 25.4657 45.5594 27.3781 47.111 30.0483C48.4461 32.3576 49.3482 34.9917 49.8173 38.0227C49.8534 38.3474 49.8894 38.6811 49.9255 39.0148L49.9255 39.015L49.9258 39.0172C49.9618 39.3503 49.9978 39.6833 50.0338 40.0073C50.0699 40.296 50.106 40.6208 50.142 40.9455C50.142 40.9816 50.1511 41.0177 50.1601 41.0537ZM21.8887 31.9968C21.3114 31.9968 20.698 32.069 20.0485 32.2133C19.3629 32.3576 19.1464 32.2855 18.8938 31.672V31.3112C19.0742 30.8782 19.5072 30.77 20.1567 30.6617C21.997 30.337 23.6208 30.5174 25.0641 31.239C25.3528 31.3834 25.6414 31.5638 25.9301 31.7803C26.2188 32.0329 26.2909 32.4659 26.0383 32.7906C25.7858 33.1154 25.3528 33.1875 25.0641 32.971C24.1259 32.3215 23.0795 31.9968 21.8887 31.9968ZM43.4667 34.9557C43.6111 35.2443 43.7193 35.3887 43.9358 35.4608C44.2245 35.5691 44.4771 35.533 44.7297 35.2804C44.8739 35.1362 44.9541 34.9599 44.9488 34.7623C44.9518 34.6527 44.9281 34.5361 44.874 34.4144C44.1884 32.7185 42.5647 31.7803 40.6883 32.0329C40.0388 32.1411 39.7141 31.8885 39.4254 31.4916C38.379 30.0844 37.1521 29.1462 35.7088 28.7132C35.6006 28.6771 35.5284 28.6771 35.4201 28.6771H35.4201C35.0954 28.6771 34.8428 28.8575 34.7346 29.1462C34.7092 29.2324 34.6988 29.3122 34.7002 29.3859C34.6915 29.8365 35.1539 30.0934 35.3119 30.1566C35.9253 30.4092 36.5026 30.6617 36.9717 31.0947C37.7612 31.7449 38.3979 32.5079 38.8733 33.3753C39.4782 34.4948 39.817 35.7806 39.8897 37.2327C39.8916 37.2794 39.8932 37.3262 39.8945 37.3733C39.8969 37.4515 39.8981 37.5298 39.8983 37.6084C39.8959 38.715 39.6731 39.864 39.1728 41.1981C39.1367 41.2974 39.1209 41.3966 39.1232 41.492C39.116 41.7927 39.2878 42.0596 39.5697 42.1724C39.9666 42.3167 40.3636 42.1363 40.5079 41.7754C41.1132 40.2087 41.4023 38.642 41.3058 37.0753L41.3031 37.0073L41.3017 36.9763C41.2296 35.9299 41.0491 34.9195 40.6522 33.8731L40.5203 33.4772L40.977 33.5123C41.0852 33.5123 41.1574 33.5123 41.2657 33.5484C41.4461 33.5484 41.6626 33.5845 41.843 33.6206C42.5647 33.7288 43.1059 34.1979 43.4667 34.9557ZM32.0644 31.9247C32.3891 31.9607 32.75 31.7082 32.8221 31.3834C32.8221 31.3473 32.8312 31.3112 32.8402 31.2752C32.8492 31.2391 32.8582 31.203 32.8582 31.1669C32.8582 31.1308 32.8582 31.0587 32.8943 31.0226L32.8943 31.0225C32.9304 30.8061 32.9665 30.5896 32.9665 30.3731L32.9665 30.373C33.0387 29.8679 33.1108 29.3627 33.2191 28.8937C33.7242 26.8008 34.7346 25.3214 36.3222 24.3111C37.5852 23.5533 39.0646 23.1564 40.977 23.1564H41.2657H41.8791C42.3482 23.1564 42.6729 22.8677 42.6729 22.4347C42.6729 22.239 42.614 22.0728 42.506 21.9461C42.378 21.7583 42.1611 21.6408 41.8791 21.6408H41.1213C40.2553 21.6408 39.4615 21.713 38.7398 21.8573C36.7191 22.2182 35.1315 23.012 33.9407 24.2749C32.353 25.9709 31.5231 28.208 31.3788 31.203C31.3505 31.4855 31.5214 31.7238 31.7874 31.8312C31.8705 31.8743 31.964 31.9064 32.0644 31.9247Z" fill="#0071CE"/>
</svg>
