<svg width="69" height="68" viewBox="0 0 69 68" fill="none" xmlns="http://www.w3.org/2000/svg">
<path d="M32.75 1.58771C33.8329 0.962498 35.1671 0.962498 36.25 1.58771L61.6949 16.2783C62.7778 16.9035 63.4449 18.059 63.4449 19.3094V48.6906C63.4449 49.941 62.7778 51.0965 61.6949 51.7217L36.25 66.4123C35.1671 67.0375 33.8329 67.0375 32.75 66.4123L7.30514 51.7217C6.22223 51.0965 5.55514 49.941 5.55514 48.6906V19.3094C5.55514 18.059 6.22223 16.9035 7.30514 16.2783L32.75 1.58771Z" stroke="#0071CE"/>
<path fill-rule="evenodd" clip-rule="evenodd" d="M50.1529 39.1781C50.1529 39.0862 50.061 36.9414 48.4678 34.7354C48.6823 34.3983 48.9886 33.8162 48.8661 33.3872C48.7742 33.0196 48.4984 32.8051 48.2533 32.6519L48.2227 32.6213C47.1809 31.8553 46.5069 30.8135 46.1085 29.2509C45.3732 26.4934 43.9331 24.1035 41.9416 22.3264C41.3288 21.7749 40.6854 21.3153 40.0419 20.917C33.9753 17.2096 24.8448 19.0786 20.8923 24.8082C18.5024 28.2705 18.1041 33.3566 19.9119 37.1865C21.0455 39.5458 23.0677 41.4454 25.4576 42.4565C26.9283 43.0693 28.4602 43.2531 30.0229 43.2531C31.1565 43.2531 32.3208 43.1612 33.4545 43.0693C33.5617 43.054 33.6613 43.0463 33.7609 43.0387L33.7609 43.0387C33.8605 43.031 33.96 43.0233 34.0673 43.008L34.0982 43.1154C35.4465 47.7896 35.4827 47.9149 36.2733 48.5231C37.1618 49.2278 38.081 49.1359 39.3679 48.9827C40.8692 48.7989 42.9527 48.5538 46.3843 49.4423C46.6294 49.5036 46.8439 49.5342 47.089 49.5342C47.6712 49.5342 48.2533 49.3504 48.6516 48.9827C49.1725 48.5231 49.4176 47.849 49.3257 47.0831C49.2338 46.3784 48.7129 45.3366 48.4984 44.9383C48.7742 44.3562 49.5708 42.671 49.4789 41.7212C49.4482 41.5373 49.295 41.3841 49.1112 41.3841H47.2728C47.0584 41.3841 46.9052 41.5373 46.9052 41.7518V42.7323C46.9052 42.9467 47.0584 43.0999 47.2728 43.0999C47.4873 43.0999 47.6405 42.9467 47.6405 42.7323V42.1195H48.7435C48.621 42.9467 48.0082 44.2642 47.7631 44.7545C47.7018 44.877 47.7018 44.9996 47.7631 45.0915C47.9775 45.4592 48.5291 46.5622 48.621 47.1443C48.6823 47.6652 48.5291 48.0942 48.192 48.4006C47.7937 48.7376 47.1809 48.8601 46.5681 48.707C42.9833 47.7878 40.7466 48.0635 39.276 48.2474C38.0504 48.4006 37.407 48.4618 36.7329 47.941C36.1201 47.4507 36.1201 47.4507 34.7107 42.5791L34.7107 42.5791C34.4564 41.675 34.15 40.6146 33.7916 39.3739L33.6996 39.0555C33.7302 38.9943 33.8221 38.933 33.8834 38.9023C34.0366 38.8104 34.2511 38.8104 34.4349 38.8717C34.8332 39.0249 35.109 39.3619 35.4154 39.7602C35.7218 40.1586 36.0588 40.5875 36.549 40.8326C37.1925 41.139 37.9891 41.0777 38.7551 40.6488C38.8776 40.5875 39.0308 40.4956 39.1534 40.4037C39.3066 40.3118 39.4904 40.3118 39.6436 40.373C39.7968 40.465 39.8887 40.5875 39.9194 40.7713C39.95 41.2003 40.0419 41.568 40.1339 41.905C40.4403 42.9774 41.0837 43.8046 41.9109 44.203C42.6157 44.54 43.4123 44.5706 44.0863 44.54C44.3008 44.54 44.454 44.3562 44.454 44.1723C44.454 43.9885 44.2702 43.8046 44.0863 43.8046C43.5042 43.8353 42.8301 43.8046 42.2786 43.5289C41.6352 43.2225 41.1143 42.5484 40.8692 41.6905C40.7773 41.3841 40.716 41.0777 40.6854 40.7101C40.6547 40.2811 40.379 39.9134 40.0113 39.7296C39.6436 39.5458 39.184 39.5458 38.8164 39.7602C38.7551 39.8062 38.6861 39.8445 38.6172 39.8828C38.5483 39.9211 38.4793 39.9594 38.4181 40.0054C38.0197 40.2198 37.407 40.4037 36.9167 40.1586C36.5797 40.0054 36.3039 39.6683 36.0282 39.3007C35.6911 38.8411 35.3235 38.3815 34.7107 38.167C34.343 38.0444 33.9141 38.0751 33.577 38.2283C33.3013 38.3815 33.0868 38.5959 32.9949 38.8717V38.933V38.9943V39.1475C33.1413 39.6664 33.2819 40.1565 33.4142 40.6177L33.4143 40.6182C33.5866 41.2187 33.7448 41.7702 33.8834 42.2727C33.8068 42.2727 33.7302 42.2803 33.6536 42.288C33.577 42.2957 33.5004 42.3033 33.4238 42.3033C30.8195 42.5178 28.1539 42.7323 25.764 41.7518C23.5273 40.8326 21.6583 39.0555 20.5859 36.8495C18.8701 33.2647 19.2378 28.4543 21.5051 25.2065C25.2737 19.7834 33.9447 18.0369 39.6743 21.5298C40.2871 21.8975 40.8998 22.3571 41.482 22.8779C43.351 24.5631 44.7298 26.8304 45.4345 29.4348C45.8941 31.1506 46.6294 32.3149 47.8244 33.2034L47.855 33.2341C47.8854 33.2584 47.9158 33.2815 47.9452 33.3038C48.0641 33.3943 48.1675 33.4728 48.192 33.5711C48.2227 33.6936 48.0082 34.2145 47.7631 34.4903V34.5209L47.7324 34.5515V34.5822V34.6128V34.6435V34.6741V34.7047V34.7354V34.766V34.7967V34.8273V34.8579C47.7324 34.8579 47.7324 34.8886 47.7631 34.8886C47.7631 34.8886 47.7631 34.9192 47.7937 34.9192C49.387 37.0333 49.4789 39.1475 49.4789 39.1475V39.8828H47.6405C47.426 39.8828 47.2728 40.036 47.2728 40.2505C47.2728 40.465 47.426 40.6181 47.6405 40.6181H49.8465C50.061 40.6181 50.2142 40.465 50.2142 40.2505L50.1529 39.1781ZM46.9359 40.2812V39.1782C46.9359 38.9637 46.7827 38.8105 46.5682 38.8105C46.3537 38.8105 46.2005 38.9637 46.2005 39.1782V39.9135H45.2507C45.0362 39.9135 44.883 40.0667 44.883 40.2812C44.883 40.4957 45.0362 40.6489 45.2507 40.6489H46.5682C46.7827 40.6489 46.9359 40.4957 46.9359 40.2812ZM42.2784 41.5986C42.2784 41.3842 42.4316 41.231 42.6461 41.231H43.9636C44.1781 41.231 44.3313 41.3842 44.3313 41.5986C44.3313 41.8131 44.1781 41.9663 43.9636 41.9663H43.0138V42.7017C43.0138 42.9161 42.8606 43.0693 42.6461 43.0693C42.4316 43.0693 42.2784 42.9161 42.2784 42.7017V41.5986ZM45.3425 42.7017C45.3425 42.9161 45.1893 43.0693 44.9749 43.0693C44.7604 43.0693 44.6072 42.9161 44.6072 42.7017V41.5986C44.6072 41.3842 44.7604 41.231 44.9749 41.231H46.2923C46.5068 41.231 46.66 41.3842 46.66 41.5986C46.66 41.8131 46.5068 41.9663 46.2923 41.9663H45.3425V42.7017ZM44.5457 39.1782V40.2812C44.5457 40.4957 44.3925 40.6489 44.1781 40.6489H42.8606C42.6461 40.6489 42.4929 40.4957 42.4929 40.2812C42.4929 40.0667 42.6461 39.9135 42.8606 39.9135H43.8104V39.1782C43.8104 38.9637 43.9636 38.8105 44.1781 38.8105C44.3925 38.8105 44.5457 38.9637 44.5457 39.1782ZM45.618 34.3984C45.5874 34.3984 45.5874 34.429 45.5874 34.429C44.852 35.6546 43.9941 35.8691 43.4733 35.8691H43.3201C42.4622 35.7771 41.6349 35.1031 41.2672 34.1533C40.5932 32.3762 41.2366 30.7216 43.1056 29.5267C43.2894 29.4348 43.5039 29.4654 43.6265 29.6493C43.7184 29.8331 43.6877 30.0476 43.5039 30.1701C41.9413 31.2119 41.4204 32.4681 41.9719 33.9388C42.217 34.6128 42.7992 35.1031 43.3813 35.1644C43.9329 35.2256 44.4844 34.858 44.944 34.092L45.5874 32.6519C45.6793 32.4681 45.8938 32.3762 46.0776 32.4681C46.2614 32.56 46.3534 32.7745 46.2614 32.9583L45.618 34.3984Z" fill="#0071CE"/>
</svg>
