<svg width="69" height="68" viewBox="0 0 69 68" fill="none" xmlns="http://www.w3.org/2000/svg">
<path d="M32.75 1.58771C33.8329 0.962498 35.1671 0.962498 36.25 1.58771L61.6949 16.2783C62.7778 16.9035 63.4449 18.059 63.4449 19.3094V48.6906C63.4449 49.941 62.7778 51.0965 61.6949 51.7217L36.25 66.4123C35.1671 67.0375 33.8329 67.0375 32.75 66.4123L7.30514 51.7217C6.22223 51.0965 5.55514 49.941 5.55514 48.6906V19.3094C5.55514 18.059 6.22223 16.9035 7.30514 16.2783L32.75 1.58771Z" stroke="#0071CE"/>
<path fill-rule="evenodd" clip-rule="evenodd" d="M32.2034 43.081C32.3842 45.251 33.2522 46.119 35.3137 46.1552C35.3137 46.1662 35.3136 46.1769 35.3134 46.1874L35.3128 46.2145C35.3092 46.364 35.3063 46.4856 35.5307 46.8062C35.5307 47.8912 36.2179 48.8677 37.1944 49.2655C38.207 49.6633 39.3282 49.4102 40.0877 48.6145C40.6301 48.0359 41.1726 47.4211 41.7151 46.8063L41.7152 46.8062C41.4621 46.5531 41.209 46.3362 40.9559 46.1193L40.9557 46.119C40.8833 46.2275 40.811 46.2998 40.7387 46.3722C40.5036 46.6253 40.2775 46.8785 40.0515 47.1317C39.8255 47.3848 39.5994 47.638 39.3643 47.8912C38.9665 48.289 38.4602 48.4698 37.8815 48.3613C37.2667 48.2167 36.8327 47.8188 36.6519 47.204C36.471 46.553 36.6157 45.9743 37.0859 45.5042L41.3535 41.2366C41.4144 41.1452 41.5009 41.1052 41.5699 41.0732C41.5829 41.0672 41.5952 41.0614 41.6067 41.0557C41.5522 40.9945 41.5004 40.9358 41.4503 40.8792C41.2344 40.635 41.0527 40.4294 40.8472 40.2239L39.075 41.996L36.3625 44.7085C35.603 45.4318 34.518 45.3957 33.867 44.6362C33.2884 43.949 33.3607 43.0087 34.0117 42.3215L38.2432 38.0901C38.3155 37.9816 38.3878 37.9092 38.424 37.8731C38.1993 37.6484 38.0031 37.4237 37.7849 37.1738L37.7848 37.1737L37.7007 37.0774C37.6409 37.1371 37.5922 37.1969 37.5483 37.2506C37.5126 37.2944 37.48 37.3342 37.4475 37.3667L33.3245 41.4897C33.2703 41.5259 33.2251 41.5711 33.1799 41.6163C33.1347 41.6615 33.0895 41.7067 33.0352 41.7429C32.3481 42.2854 31.2992 42.213 30.7206 41.5259C30.0696 40.8026 30.2504 39.7537 30.7929 39.2836C31.8056 38.3432 32.782 37.4029 33.7224 36.4264C34.084 36.0286 34.4819 35.8116 35.0605 35.8478C36.688 35.9201 38.2793 35.9201 39.9068 35.8478C40.6302 35.8116 41.1365 36.0286 41.6067 36.6072C43.3065 38.6687 45.4765 39.8984 48.1166 40.3686C48.4622 40.4333 48.8206 40.4594 49.1765 40.4854H49.1766C49.4167 40.5028 49.6557 40.5202 49.8888 40.5494V39.5006C47.9719 39.4644 46.1998 38.9581 44.6085 37.9454C43.4511 37.2221 42.547 36.2094 41.679 35.1968C41.462 34.9436 41.2088 34.8351 40.8833 34.8351H34.952C33.7947 34.8351 32.8544 33.9671 32.8182 32.8821C32.7459 31.6886 33.6862 30.7121 34.9159 30.7121H44.283H44.6808V29.6633H40.594C41.7893 28.468 42.9163 27.3752 44.0746 26.252L44.1745 26.1552C44.283 26.0828 44.4276 26.0467 44.5723 26.0467H49.5271H49.8526V24.9978H47.6464H45.4403C45.4403 24.9978 45.4041 24.9617 45.4041 24.9255C45.5126 24.8532 45.6211 24.7808 45.6935 24.7085C45.9828 24.4192 46.2812 24.1298 46.5795 23.8405C46.8779 23.5512 47.1763 23.2619 47.4656 22.9725C48.1889 22.2492 48.4783 21.345 48.2251 20.3324C47.7911 18.4517 45.6211 17.6561 44.0298 18.8495C43.5483 19.2106 43.131 19.6358 42.703 20.0718C42.488 20.2908 42.2704 20.5125 42.0406 20.7302C42.2576 21.0195 42.4746 21.2727 42.7278 21.562C42.9002 21.3896 43.0591 21.2104 43.2161 21.0332L43.2161 21.0332C43.4214 20.8015 43.6236 20.5734 43.849 20.3685C44.2106 20.043 44.5723 19.7175 44.9701 19.5005C45.6573 19.1389 46.4891 19.3559 46.9593 19.9707C47.5018 20.6579 47.4294 21.5982 46.7423 22.2492C45.4967 23.4587 44.2601 24.6591 43.0236 25.8596L43.02 25.8631C41.7803 27.0665 40.5407 28.27 39.292 29.4825C39.1835 29.591 39.0027 29.6633 38.858 29.6633H34.8797C34.8517 29.6633 34.8237 29.6579 34.7893 29.6512C34.735 29.6407 34.665 29.6271 34.5542 29.6271L41.8237 22.3577C41.6067 22.1045 41.3896 21.8514 41.1365 21.562C41.1003 21.5982 41.0641 21.6434 41.028 21.6886L41.028 21.6886C40.9918 21.7338 40.9557 21.779 40.9195 21.8152L37.99 24.7447C37.8092 24.8893 37.6283 24.9617 37.4113 24.9617H33.9394C33.5777 24.9617 33.1799 24.9978 32.8182 25.0702C31.1184 25.3595 29.9611 26.4445 28.8761 27.6742C29.0435 27.8176 29.195 27.9769 29.3517 28.1415L29.3517 28.1416L29.3517 28.1416C29.432 28.2259 29.5136 28.3117 29.5994 28.3975C29.9611 27.9997 30.3227 27.638 30.6844 27.2763C31.3716 26.5892 32.2034 26.119 33.1799 26.0467C34.2287 25.9743 35.3137 25.9743 36.3625 25.9743C36.4223 25.9743 36.471 25.9853 36.5149 25.9951C36.5507 26.0032 36.5832 26.0105 36.6157 26.0105C36.6157 26.0286 36.6247 26.0376 36.6338 26.0467C36.6428 26.0557 36.6519 26.0647 36.6519 26.0828C36.5434 26.1552 36.4349 26.2275 36.3625 26.2998L32.2396 30.4228C31.686 30.9764 31.1324 31.526 30.5801 32.0742L30.5794 32.0749L30.5779 32.0764L30.5764 32.0779L30.5749 32.0793L30.5735 32.0808L30.5732 32.0811L30.5731 32.0812C29.468 33.1782 28.3684 34.2699 27.2847 35.3776C26.8508 35.8116 26.3806 36.0286 25.7658 35.9201C25.1148 35.8116 24.6446 35.4499 24.4276 34.7989C24.2106 34.1479 24.3914 33.5331 24.8616 33.0629C25.6345 32.2659 26.4235 31.485 27.207 30.7095L27.2071 30.7095L27.2073 30.7092C27.597 30.3235 27.9854 29.9392 28.3697 29.5548C28.442 29.4464 28.5143 29.374 28.5866 29.3018L28.5868 29.3016C28.3698 29.0486 28.1168 28.7955 27.8998 28.5785L27.8998 28.5785L27.8997 28.5785L27.8996 28.5783C27.4646 29.0133 27.0255 29.4402 26.5879 29.8658L26.5875 29.8662L26.5874 29.8662L26.5871 29.8666L26.587 29.8667L26.5869 29.8668L26.5868 29.8669L26.5868 29.8669L26.5867 29.8669L26.5867 29.8669L26.5867 29.867L26.5867 29.867L26.5867 29.867L26.5867 29.867L26.5867 29.867C25.7147 30.7149 24.8482 31.5574 24.0298 32.4481C22.6555 33.9309 23.3426 36.3179 25.2956 36.8604C25.4041 36.8604 25.5126 36.8966 25.6211 36.9327C25.6392 36.9508 25.6482 36.9689 25.6573 36.987C25.6663 37.0051 25.6754 37.0232 25.6934 37.0413C25.5849 37.0774 25.4764 37.1497 25.4041 37.2221L19.075 43.5512C18.8941 43.7682 18.7856 43.9852 18.7856 44.2745V48.5783C18.7856 49.0847 18.9665 49.2655 19.4728 49.2655C21.4981 49.2293 23.3426 48.6507 24.8978 47.3487C25.9104 46.5096 26.8305 45.578 27.7506 44.6463C27.9806 44.4134 28.2106 44.1805 28.4421 43.949C28.5506 43.8405 28.5868 43.6235 28.5868 43.4789C28.6229 42.864 28.6229 42.213 28.5868 41.5982C28.5529 41.158 28.8043 40.9715 29.074 40.7714L29.1293 40.7302C29.5271 42.3939 30.5759 43.1172 32.2034 43.081ZM31.5637 32.5226C31.5886 32.508 31.6185 32.4905 31.6609 32.4481C31.6247 33.6778 32.0949 34.6543 32.9629 35.2329C32.3842 35.8839 31.8055 36.5349 31.1907 37.1497L31.19 37.1505C30.0691 38.2714 28.9482 39.3923 27.7911 40.4771C27.5741 40.6579 27.5018 40.8749 27.5018 41.1642V43.1534C27.5018 43.2619 27.4294 43.4427 27.3571 43.515C27.1497 43.7224 26.9423 43.9321 26.7344 44.1423C26.1082 44.7752 25.477 45.4132 24.8254 46.0105C23.4149 47.3487 21.7151 48.072 19.7621 48.2167V47.9273V44.5639C19.7621 44.4192 19.7983 44.2745 19.9068 44.166L31.5162 32.5566C31.5312 32.5416 31.5462 32.5329 31.5637 32.5226ZM50.2142 41.8152C49.9249 41.5982 49.6356 41.3812 49.3824 41.2004C49.2739 41.3089 49.2015 41.3812 49.093 41.4174C48.4059 42.1769 47.5741 42.7194 46.5614 42.9002C45.9827 43.0087 45.3317 43.0811 44.7169 43.0087C43.6681 42.8641 42.9448 43.2257 42.3661 44.0576C42.1584 44.3691 41.9135 44.6247 41.658 44.8913L41.658 44.8913L41.658 44.8913L41.658 44.8913L41.6579 44.8914L41.6579 44.8914L41.6579 44.8914L41.6579 44.8914L41.6579 44.8914C41.5575 44.9962 41.4555 45.1027 41.3534 45.2149C41.6066 45.468 41.8598 45.685 42.1129 45.902L42.1134 45.9015C42.6196 45.3592 43.1258 44.8169 43.5958 44.2746C43.7404 44.1299 43.8851 44.0576 44.1021 44.0576H45.6934C47.1762 44.0576 48.4421 43.5512 49.527 42.5386C49.7802 42.3216 49.9972 42.0684 50.2142 41.8152ZM44.2468 23.1895L43.2342 22.1769L43.2344 22.1767C43.4513 21.9597 43.6682 21.7428 43.8852 21.562L44.8978 22.5747C44.8115 22.661 44.7087 22.7555 44.6013 22.8544C44.4836 22.9626 44.3603 23.0761 44.2468 23.1895ZM42.6916 24.7447L43.3426 24.0937L42.3661 23.1172C42.1491 23.3342 41.8959 23.5512 41.6789 23.732L42.6916 24.7447ZM41.7875 25.6489L41.1727 26.2637L40.16 25.251C40.2685 25.1606 40.377 25.0612 40.4855 24.9617C40.594 24.8623 40.7025 24.7628 40.811 24.6724L41.7875 25.6489ZM38.9484 26.5168L38.9483 26.5169C38.8398 26.6163 38.7314 26.7157 38.641 26.8061C38.9665 27.1678 39.292 27.4933 39.6175 27.8188C39.8345 27.6379 40.0876 27.4209 40.2685 27.2401L39.2558 26.2275C39.1654 26.3179 39.0569 26.4173 38.9485 26.5167L38.9484 26.5168ZM38.0623 29.4102L37.0497 28.3975C37.1582 28.289 37.2757 28.1806 37.3932 28.0721L37.3933 28.072C37.5108 27.9635 37.6283 27.855 37.7369 27.7465L38.7495 28.7592C38.4963 28.9762 38.2793 29.1932 38.0623 29.4102ZM20.6664 45.7212C20.7749 46.0105 20.8834 46.336 20.9919 46.6615L20.9919 46.6615L20.9919 46.6615L20.9919 46.6615C21.1366 46.5892 21.2089 46.553 21.3174 46.6253C22.33 46.2275 23.2342 45.685 24.0298 44.9617C24.5 44.5458 24.9702 44.1389 25.4403 43.732C25.9105 43.3252 26.3807 42.9183 26.8508 42.5024C26.5985 42.214 26.3821 41.9616 26.1659 41.7093L26.1637 41.7067C25.2233 42.5024 24.3192 43.298 23.415 44.0937C22.6555 44.7447 21.8237 45.2872 20.8472 45.6488C20.811 45.6488 20.7387 45.685 20.6664 45.7211L20.6664 45.7212ZM31.0098 34.4734L31.9863 35.4499C31.7693 35.6669 31.5162 35.8839 31.2992 36.0647C31.2065 35.972 31.1063 35.8756 31.0023 35.7754L31.0023 35.7754C30.7817 35.563 30.5439 35.334 30.3227 35.0883C30.5397 34.9074 30.7928 34.6904 31.0098 34.4734ZM28.7676 36.6796L29.7803 37.6923C29.8345 37.638 29.8888 37.5815 29.943 37.525C30.1058 37.3555 30.2685 37.186 30.4313 37.0775L29.4186 36.0648C29.2016 36.2456 28.9847 36.4625 28.7677 36.6795L28.7676 36.6796Z" fill="#0071CE"/>
</svg>
