<svg width="69" height="68" viewBox="0 0 69 68" fill="none" xmlns="http://www.w3.org/2000/svg">
<path d="M32.75 1.58771C33.8329 0.962498 35.1671 0.962498 36.25 1.58771L61.6949 16.2783C62.7778 16.9035 63.4449 18.059 63.4449 19.3094V48.6906C63.4449 49.941 62.7778 51.0965 61.6949 51.7217L36.25 66.4123C35.1671 67.0375 33.8329 67.0375 32.75 66.4123L7.30514 51.7217C6.22223 51.0965 5.55514 49.941 5.55514 48.6906V19.3094C5.55514 18.059 6.22223 16.9035 7.30514 16.2783L32.75 1.58771Z" stroke="#0071CE"/>
<path d="M31.0128 40.8785C30.9039 40.9148 30.7949 40.9874 30.686 41.0238C30.4317 41.1327 30.1775 41.278 29.9233 41.387C28.87 41.8228 28.2526 41.4596 28.1073 40.37C28.071 40.0795 27.9257 39.9705 27.6715 39.9342C27.1267 39.8252 26.5819 39.6073 26.1824 39.2078C25.7102 38.7357 25.6739 38.1182 26.0371 37.6098C26.255 37.3192 26.5093 37.1013 26.8725 37.1376C27.8168 37.2466 28.761 37.3919 29.669 37.5371C29.7417 37.5371 29.8506 37.5371 29.9233 37.5734C30.5407 37.8277 30.9039 37.5371 31.2308 37.0287C31.6666 36.3023 32.0298 35.5759 32.1387 34.7405C32.1751 34.4863 32.1024 34.4137 31.8482 34.4137C31.4123 34.3774 30.9402 34.3047 30.5044 34.2684C30.2865 34.2684 30.0685 34.3047 29.887 34.4137C28.979 34.8858 28.1799 35.4669 27.5262 36.266C27.2356 36.5928 26.9451 36.9197 26.4729 36.956C26.0008 36.9923 25.6013 36.8471 25.3107 36.4476C25.0202 36.0117 24.9475 35.5396 25.2018 35.0674C25.565 34.341 26.1824 33.7962 26.7998 33.2878C27.0177 33.1062 27.2356 32.9609 27.4899 32.743C27.054 32.3798 26.6545 32.0892 26.0371 32.1619C25.1654 32.2345 24.2938 32.2345 23.4221 32.1619C22.7684 32.1256 22.2599 31.7261 21.8967 31.1449C21.6425 30.7091 21.5335 30.2733 21.7878 29.8011C22.042 29.329 22.4778 29.1474 22.9863 29.1837C23.0953 29.1837 23.2042 29.1837 23.2768 29.1837C23.2768 28.8932 23.2405 28.6026 23.2768 28.3484C23.4584 27.4404 24.548 26.9682 25.3107 27.4767C25.6739 27.7309 26.0008 28.0578 26.3277 28.3484C26.5093 28.4936 26.6545 28.6389 26.8725 28.7842C26.8361 28.6752 26.7635 28.5663 26.7635 28.4573C26.6908 28.0578 26.5456 27.6583 26.5456 27.2588C26.5093 26.3508 27.5262 25.806 28.3252 26.2418C28.87 26.5324 29.1969 27.0772 29.4148 27.6583C29.778 28.6026 29.8869 29.6195 29.8506 30.6365C29.8506 30.9634 29.9596 31.1086 30.2501 31.2539C31.8119 32.0166 33.1557 31.7261 34.3905 30.5638C34.79 30.2006 35.1532 29.7648 35.5527 29.4016C35.8796 29.0747 36.0249 28.7116 36.0249 28.2394C36.0249 26.3871 35.9886 24.5712 35.9886 22.7189C35.9886 21.8835 36.0249 21.0119 36.0975 20.1765C36.1338 19.6317 36.3881 19.2322 36.8239 18.9417C37.8045 18.2879 38.8941 18.1063 40.02 18.4695C41.0006 18.7964 41.6181 19.7407 41.6181 20.9392C41.6181 24.4985 41.6181 28.0941 41.6181 31.6534C41.6181 36.7018 41.6181 41.7865 41.6181 46.8348C41.6181 47.2707 41.5817 47.7428 41.4728 48.1423C41.2912 48.9414 40.819 49.4861 39.9837 49.5951C39.3663 49.6677 38.7125 49.7404 38.0951 49.7041C36.9692 49.6314 36.2791 48.905 36.1339 47.7428C36.0612 47.198 36.0612 46.6169 36.0249 46.0721C36.0249 41.8228 36.0249 37.5734 36.0249 33.2878C36.0249 33.1425 36.0249 32.9972 36.0249 32.7793C35.5891 33.0699 35.2259 33.3241 34.899 33.5783C34.8264 33.651 34.8264 33.7963 34.8264 33.9052C34.8627 35.1764 34.5358 36.3749 34.0273 37.5734C33.8094 38.0819 33.8094 38.663 33.8094 39.2441C33.7731 40.2247 33.8821 41.2054 33.4825 42.1133C33.2283 42.6218 32.9378 43.1303 32.5383 43.6024C32.1751 44.0383 31.5939 44.1835 31.0128 44.0383C30.0685 43.784 29.8143 42.6945 30.4317 41.9317C30.686 41.6412 30.8676 41.3143 31.0855 40.9875C31.0855 40.9511 31.0492 40.9148 31.0128 40.8785ZM37.0418 22.5736C37.0418 22.8278 37.0418 22.9731 37.0418 23.1184C37.0418 24.9707 37.0418 26.8593 37.0055 28.7116C37.0055 29.0021 36.8965 29.329 36.7513 29.5469C35.8796 30.7091 34.8627 31.6897 33.5915 32.4161C33.0104 32.743 32.393 32.8883 31.7392 32.8156C30.8676 32.7067 30.0685 32.3798 29.3422 31.944C28.979 31.726 28.8337 31.4718 28.87 31.036C28.9063 30.019 28.8337 28.9658 28.5068 27.9852C28.4342 27.7673 28.3615 27.5857 28.2163 27.4041C28.1436 27.3314 27.9257 27.2951 27.8168 27.2951C27.7441 27.2951 27.6715 27.513 27.6715 27.622C27.7078 27.8399 27.7804 28.0215 27.8894 28.2394C28.1799 28.8568 28.3615 29.4743 28.3252 30.1643C28.2889 30.7454 27.8894 30.9633 27.4172 30.6728C27.0541 30.4186 26.7272 30.128 26.4003 29.8375C25.9281 29.4379 25.4923 29.0021 25.0202 28.6026C24.8749 28.4936 24.657 28.4936 24.4754 28.4573C24.548 28.6389 24.5843 28.8205 24.6933 28.9658C24.9112 29.22 25.2018 29.4016 25.3834 29.6922C25.4923 29.8738 25.565 30.2006 25.5286 30.4186C25.4923 30.7091 25.1654 30.7454 24.9475 30.7091C24.657 30.6728 24.3301 30.6002 24.0395 30.5275C23.6764 30.4549 23.3132 30.3822 22.95 30.3096C22.95 30.7454 23.1316 31.036 23.5674 31.0723C24.2938 31.1813 25.0565 31.2176 25.7829 31.1813C26.4729 31.1449 27.163 31.036 27.7441 31.5808C28.1073 31.9076 28.5431 32.1982 28.9063 32.5251C29.1242 32.7067 29.1243 32.8883 28.87 33.1062C28.2889 33.5057 27.7441 33.9052 27.1993 34.3774C26.8724 34.6679 26.5819 35.0674 26.3277 35.3943C26.255 35.5032 26.255 35.6485 26.2187 35.7938C26.255 35.8301 26.2913 35.8664 26.364 35.9028C26.6545 35.6485 26.9814 35.4306 27.2357 35.1401C27.9257 34.45 28.6884 33.8689 29.5601 33.4694C29.8869 33.3241 30.2865 33.1788 30.6133 33.2515C31.376 33.3967 32.1024 33.5057 32.8651 33.3967C32.9741 33.3967 33.083 33.3967 33.2646 33.4331C33.192 34.1231 33.192 34.7769 33.083 35.4306C32.9014 36.5565 32.2477 37.4645 31.594 38.3725C31.3034 38.772 31.0128 38.8083 30.6133 38.7357C29.778 38.5904 28.9063 38.4088 28.071 38.2635C27.7078 38.1909 27.3083 38.1909 26.9088 38.1182C26.9088 38.5541 27.1993 38.663 27.4536 38.7357C27.9983 38.8809 28.5794 39.0262 29.1242 39.1352C29.3785 39.2078 29.5238 39.3168 29.4148 39.6073C29.3422 39.7526 29.3422 39.9705 29.3422 40.1521C29.3422 40.479 29.4148 40.5516 29.7417 40.4063C30.0322 40.2974 30.2865 40.1158 30.5407 39.9705C30.7949 39.7889 31.0492 39.6073 31.3034 39.4257C31.8845 39.0625 32.2477 39.2441 32.3203 39.9342C32.3567 40.5153 32.2477 41.0238 31.9935 41.5322C31.8119 41.8954 31.5576 42.186 31.376 42.5492C31.3034 42.6581 31.376 42.8397 31.3397 42.9487C31.485 42.9124 31.6303 42.9487 31.7756 42.8761C31.8845 42.8034 31.9571 42.6945 32.0298 42.5855C32.8651 41.4596 33.0467 40.1884 32.8651 38.8083C32.7925 38.1546 32.8288 37.5371 33.1193 36.956C33.3009 36.5928 33.4826 36.2296 33.5189 35.8301C33.6642 34.9585 33.7368 34.0505 33.8094 33.1425C33.8457 32.9246 33.8821 32.8156 34.1 32.7067C34.8627 32.3072 35.6254 31.8713 36.0249 31.036C36.1702 30.7454 36.5334 30.7454 36.7876 30.7818C36.8966 30.8181 37.0055 31.1086 37.0055 31.2902C37.0418 31.9803 37.0782 32.6704 37.0782 33.3604C37.0782 36.8471 37.0418 40.2974 37.0418 43.784C37.0418 44.8736 37.0055 45.9632 37.0418 47.0164C37.0418 47.9971 37.4413 48.4692 38.204 48.5782C38.3856 48.6145 38.5672 48.6508 38.7488 48.6508C39.9837 48.6145 40.6374 48.5055 40.6374 46.9075C40.6374 38.9173 40.6374 30.927 40.6374 22.9005C40.6374 22.7915 40.6374 22.6462 40.6011 22.4647C39.4026 23.1184 38.2404 23.1547 37.0418 22.5736ZM38.8578 22.0288C39.1847 21.9562 39.4752 21.9562 39.7295 21.8472C40.2016 21.7019 40.4922 21.1935 40.5285 20.6487C40.5285 20.1039 40.2743 19.6681 39.7658 19.5228C39.1847 19.3049 38.5672 19.3775 37.9861 19.5228C37.4413 19.6681 37.1145 20.0676 37.0782 20.6124C37.0418 21.2298 37.2961 21.6293 37.8772 21.8472C38.1677 21.8835 38.5309 21.9562 38.8578 22.0288Z" fill="#0071CE"/>
</svg>
