<svg width="69" height="68" viewBox="0 0 69 68" fill="none" xmlns="http://www.w3.org/2000/svg">
<path d="M32.75 1.58771C33.8329 0.962498 35.1671 0.962498 36.25 1.58771L61.6949 16.2783C62.7778 16.9035 63.4449 18.059 63.4449 19.3094V48.6906C63.4449 49.941 62.7778 51.0965 61.6949 51.7217L36.25 66.4123C35.1671 67.0375 33.8329 67.0375 32.75 66.4123L7.30514 51.7217C6.22223 51.0965 5.55514 49.941 5.55514 48.6906V19.3094C5.55514 18.059 6.22223 16.9035 7.30514 16.2783L32.75 1.58771Z" stroke="#0071CE"/>
<path fill-rule="evenodd" clip-rule="evenodd" d="M44.3646 18.3565H44.7213C44.9711 18.5349 45.0424 18.7846 45.0424 19.07V27.3106V27.703C45.9343 27.6317 46.6477 27.8814 47.3255 28.3808C47.4346 28.4681 47.5704 28.5153 47.7083 28.5633C47.796 28.5938 47.8845 28.6246 47.9676 28.6662V26.9895C47.9676 26.3474 47.8606 26.2047 47.2185 26.2047H45.5419V25.2059H47.2898C48.36 25.2059 48.9665 25.7766 48.9665 26.8469V49.0003C48.9665 49.2856 48.8952 49.5354 48.6455 49.7137H19.8211C19.607 49.5354 19.5 49.357 19.5 49.0716V26.7755C19.5 25.848 20.1064 25.2059 21.034 25.2059H23.2814H24.3873V26.1691H24.1019H21.0697C20.7843 26.1691 20.5345 26.2761 20.4989 26.5615C20.4745 26.8053 20.4834 27.049 20.4915 27.2701C20.4953 27.3725 20.4989 27.47 20.4989 27.5603C20.6473 27.6345 20.7914 27.7002 20.9297 27.7632L20.9297 27.7632L20.9298 27.7632L20.9298 27.7632L20.9298 27.7632C21.1905 27.8819 21.4307 27.9913 21.6404 28.1311C22.4966 28.7376 23.4955 28.7732 24.3873 28.1668C24.4943 28.0954 24.5657 27.9527 24.6013 27.8457C24.7084 27.2393 24.7975 26.6417 24.8867 26.0442C24.9759 25.4467 25.0651 24.8491 25.1721 24.2427C25.5289 22.459 25.9213 20.6396 26.3494 18.8559C26.3789 18.6786 26.5065 18.5257 26.6305 18.3771L26.6305 18.377L26.6305 18.377L26.6305 18.377C26.6562 18.3463 26.6817 18.3157 26.7061 18.2852H27.0628C27.3126 18.4635 27.3839 18.7132 27.3839 18.9986V27.3106C27.3839 27.6674 27.4552 27.9171 27.812 28.0241C27.919 28.0598 28.026 28.1311 28.133 28.2025C28.9892 28.7376 29.8811 28.7732 30.7373 28.2025C31.3794 27.7744 32.0929 27.5603 32.8777 27.6317C33.056 27.6317 33.2701 27.6673 33.4841 27.703L33.5108 27.5151C33.5737 27.0705 33.6401 26.602 33.7338 26.1334H29.8811V25.1345H33.8765C33.9479 24.8135 33.9835 24.5281 34.0192 24.2427C34.2154 23.3508 34.4116 22.4501 34.6078 21.5493L34.6081 21.548L34.6081 21.548C34.8042 20.6477 35.0004 19.7474 35.1965 18.8559C35.226 18.6786 35.3536 18.5257 35.4776 18.3771L35.4776 18.377L35.4776 18.377L35.4776 18.377C35.5033 18.3463 35.5288 18.3157 35.5532 18.2852H35.9099C36.1597 18.4635 36.231 18.7132 36.231 18.9986V24.8135V25.1345H42.688C42.7593 24.7064 42.8306 24.314 42.902 23.9216L42.9022 23.9205L42.9023 23.9204C43.2589 22.2441 43.6156 20.5679 44.0079 18.8916C44.0507 18.7846 44.132 18.6776 44.2133 18.5706L44.2133 18.5706C44.2676 18.4992 44.3218 18.4279 44.3646 18.3565ZM45.1851 34.053C45.1673 34.053 45.1494 34.0619 45.1316 34.0708C45.1138 34.0797 45.0959 34.0886 45.0781 34.0886C45.0781 34.1421 45.0692 34.1957 45.0602 34.2492L45.0602 34.2492C45.0513 34.3027 45.0424 34.3562 45.0424 34.4097V37.0139C45.0424 38.1911 44.0435 39.083 42.902 38.9759C41.7604 38.8689 40.9756 37.8344 41.1183 36.6928C41.154 36.4074 41.1896 36.122 41.2253 35.801C40.4405 36.122 39.9411 36.0864 39.513 35.5869C39.3753 35.4217 39.2589 35.2565 39.1309 35.0749L39.1308 35.0748L39.1308 35.0747C39.093 35.0211 39.0542 34.966 39.0135 34.9091C38.9567 34.8144 38.8898 34.7297 38.8182 34.6391C38.7549 34.559 38.688 34.4744 38.6211 34.374C38.5201 34.5031 38.4236 34.6374 38.3274 34.7712L38.3273 34.7713L38.3273 34.7714C37.8119 35.4883 37.3076 36.1898 36.1953 35.9793V36.9782C36.1953 38.1554 35.1964 39.0473 34.0549 38.9403C32.9133 38.8332 32.1285 37.7987 32.2712 36.6928C32.2898 36.5813 32.2987 36.4699 32.308 36.3533C32.3166 36.2461 32.3255 36.1347 32.3426 36.015C31.6291 35.9793 31.201 35.5513 30.8442 35.0518C30.7632 34.9303 30.6707 34.8088 30.5733 34.6808L30.5732 34.6807C30.499 34.5832 30.4219 34.482 30.3448 34.374C30.2851 34.4487 30.2316 34.5109 30.1843 34.5658C30.1188 34.642 30.0653 34.7042 30.0238 34.7664C29.9837 34.8226 29.9436 34.8805 29.9031 34.939C29.7634 35.1409 29.6189 35.3497 29.453 35.5156C28.9179 36.122 28.1687 36.122 27.5979 35.5512L27.3839 35.3372V37.0139C27.3482 38.1198 26.385 38.9759 25.2792 38.8689C24.1733 38.7976 23.3528 37.7987 23.4955 36.6928L23.7095 34.8734C23.7273 34.7486 23.7363 34.6238 23.7452 34.4989L23.7452 34.4989C23.7541 34.374 23.763 34.2492 23.7808 34.1243H23.7095C23.6827 34.1913 23.6508 34.2533 23.6196 34.3141L23.6196 34.3141C23.5678 34.415 23.5177 34.5124 23.4955 34.6237C23.1387 35.5156 22.1755 35.7296 21.4621 35.0875C21.4086 35.034 21.364 34.9805 21.3194 34.927L21.3194 34.927C21.2748 34.8735 21.2302 34.8199 21.1767 34.7664C21.0555 34.6695 20.9343 34.6055 20.7907 34.5296L20.7907 34.5296C20.7229 34.4938 20.6502 34.4554 20.5702 34.4097V40.831H48.0033V34.8021C47.8607 34.9091 47.7537 34.9804 47.6468 35.0517L47.6466 35.0518C46.7904 35.7296 45.9699 35.5156 45.5419 34.5167C45.4348 34.4097 45.2921 34.2313 45.1851 34.053ZM30.8442 41.9012V42.793C30.8442 43.4352 30.4518 43.8276 29.774 43.8632H26.9915C26.3137 43.8632 25.9213 43.4708 25.9213 42.793V41.9369H20.5345V48.7505H25.4219V47.8587C25.4219 47.2166 25.8143 46.8242 26.4921 46.8242H29.3103C29.9168 46.8242 30.3448 47.2522 30.3448 47.8587V48.7862H33.7695V47.93C33.7695 47.2522 34.1619 46.8598 34.8397 46.8598H37.6223C38.2644 46.8598 38.6568 47.2522 38.6568 47.93V48.8219H41.582V47.93C41.582 47.2522 41.9744 46.8598 42.6522 46.8598H45.3992C46.077 46.8598 46.4694 47.2522 46.4694 47.93V48.7862H47.932V41.9725H46.4694V42.8644C46.4694 43.5065 46.0413 43.8989 45.4348 43.8989H42.6166C42.5663 43.8989 42.5176 43.8963 42.4705 43.8911C42.6616 44.0749 42.7764 44.3419 42.7949 44.6569V45.5488C42.7949 46.1909 42.3669 46.5833 41.7604 46.5833C41.2253 46.5476 40.7615 46.5476 40.2978 46.5476H38.8708C38.3 46.5476 37.872 46.1196 37.872 45.5488V44.6213C37.872 44.0148 38.2644 43.6224 38.8708 43.6224H41.7604C41.802 43.6224 41.8425 43.6244 41.882 43.6283C41.6888 43.4403 41.582 43.1636 41.582 42.8287V41.9725H38.6568V42.8644C38.6568 43.5065 38.2644 43.9346 37.6223 43.9346H34.8397C34.77 43.9346 34.7033 43.9304 34.6398 43.9222C34.8096 44.0995 34.911 44.3435 34.911 44.6213V45.5845C34.911 46.1196 34.4829 46.5476 33.9122 46.5476C33.5806 46.5713 33.2647 46.5636 32.9436 46.5557H32.9436C32.7811 46.5517 32.6173 46.5476 32.4495 46.5476H31.0226C30.3804 46.5476 29.988 46.1196 29.988 45.5131V44.6213C29.988 44.0148 30.3804 43.6224 30.9869 43.6224H33.9122C33.9508 43.6224 33.9888 43.6244 34.0261 43.6282C33.8589 43.4464 33.7695 43.1879 33.7695 42.8644V41.9725C32.7707 41.9012 31.8076 41.9012 30.8445 41.9012H30.8442ZM36.231 35.0161C36.7661 35.0875 36.9445 35.0161 37.2655 34.5881C37.3547 34.481 37.435 34.3651 37.5152 34.2492C37.5955 34.1332 37.6758 34.0173 37.765 33.9103C38.3714 33.2681 38.9065 33.3038 39.513 33.9459C39.6478 34.1033 39.7685 34.2748 39.8929 34.4515C39.9659 34.5553 40.0402 34.6609 40.1194 34.7664C40.4048 35.1588 40.5475 35.1232 40.8329 34.7664C40.922 34.6416 41.0023 34.5168 41.0825 34.392L41.0826 34.392L41.0826 34.3919L41.0826 34.3918C41.1629 34.267 41.2432 34.1421 41.3323 34.0173C41.4037 33.9103 41.475 33.7676 41.5107 33.6605L41.5109 33.6594L41.5109 33.6594L41.5109 33.6593L41.5109 33.6593C41.6178 32.9105 41.7248 32.1618 41.7961 31.4131L42.0101 29.7008C41.2967 29.6651 40.6902 29.4154 40.1194 29.0586C39.3703 28.5949 38.5854 28.6305 37.8006 29.023L36.231 29.8078V35.0161ZM33.3057 28.7732C33.2785 28.7596 33.2564 28.7512 33.2376 28.744C33.2071 28.7324 33.1851 28.7239 33.163 28.7019C32.4852 28.5592 31.8788 28.6662 31.2724 29.0586C30.0951 29.8435 28.8465 29.8435 27.6336 29.0943L27.4196 28.9873C27.4196 29.023 27.3839 29.0586 27.3839 29.0586V33.5535C27.3839 33.6249 27.4196 33.7319 27.4909 33.8032C27.5801 33.9281 27.6782 34.053 27.7763 34.1778L27.7763 34.1778C27.8744 34.3027 27.9725 34.4275 28.0617 34.5524C28.4541 35.1588 28.5968 35.1588 29.0249 34.5881C29.2389 34.267 29.4887 33.9459 29.7384 33.6962C30.0951 33.3395 30.5589 33.3395 30.9156 33.6605C31.0643 33.788 31.2003 33.9407 31.3387 34.0961C31.4328 34.2017 31.528 34.3086 31.6291 34.4097C31.6885 34.4691 31.7417 34.5408 31.7964 34.6147C31.8732 34.7182 31.953 34.8258 32.0572 34.9091C32.1352 34.9872 32.2512 35.0273 32.3774 35.0709C32.4243 35.0871 32.4726 35.1038 32.5209 35.1232C32.6585 33.9248 32.8068 32.7589 32.954 31.6016V31.6016L32.954 31.6015L32.954 31.6014C33.0742 30.6572 33.1936 29.7188 33.3057 28.7732ZM35.2321 23.3152H35.1608C35.064 23.9785 34.9566 24.6419 34.8488 25.3074L34.8488 25.3075V25.3075V25.3075V25.3075C34.6783 26.3597 34.5071 27.4171 34.376 28.4879C34.1085 30.4086 33.8742 32.3129 33.6391 34.2231L33.6391 34.2236C33.5293 35.1159 33.4193 36.0096 33.3057 36.9069C33.2344 37.442 33.6268 37.9057 34.1263 37.9771C34.7327 38.0841 35.2678 37.5847 35.2678 36.9069V23.4935C35.2321 23.4222 35.2321 23.3509 35.2321 23.3152V23.3152ZM26.4207 23.3152H26.385C26.3256 23.6838 26.2622 24.0524 26.1987 24.421L26.1987 24.4211L26.1987 24.4211L26.1987 24.4211C26.0719 25.1583 25.9451 25.8956 25.8499 26.6328C25.3862 30.0575 24.9581 33.4465 24.53 36.8712C24.4943 37.1209 24.6014 37.4063 24.7084 37.6203C24.9224 37.9771 25.3862 38.0841 25.7786 37.9771C26.2067 37.8344 26.4564 37.4776 26.4564 36.9782V23.6005C26.4207 23.4579 26.4207 23.3865 26.4207 23.3152V23.3152ZM44.0792 23.3152H44.0079L43.9372 23.7097C43.7829 24.5694 43.6323 25.4093 43.5084 26.2761C43.3479 27.4355 43.1874 28.586 43.0268 29.7364C42.8663 30.8869 42.7058 32.0374 42.5453 33.1968C42.4263 34.0293 42.3391 34.8617 42.2519 35.6942C42.2083 36.1103 42.1647 36.5264 42.1171 36.9425C42.0458 37.442 42.4026 37.9057 42.902 38.0127C43.4014 38.1198 43.9008 37.7987 44.0079 37.2993C44.0435 37.1566 44.0435 37.0496 44.0435 36.9069V36.9069V25.1345C44.0792 24.4925 44.0792 23.8862 44.0792 23.3155V23.3152ZM20.5345 33.5535C21.0697 33.6249 21.4977 33.8032 21.8545 34.16C22.3422 34.6825 22.3536 34.6608 22.6528 34.0948L22.675 34.053C22.9247 33.5535 23.2458 33.0541 23.9236 33.0541C24.019 32.405 24.1042 31.756 24.1902 31.1015L24.1902 31.1014C24.2648 30.5328 24.3401 29.9601 24.423 29.3797C24.316 29.4154 24.2803 29.4154 24.2089 29.4154C23.1031 29.7721 22.0328 29.7364 21.1053 28.9516C21.0121 28.8817 20.8884 28.827 20.7542 28.7676C20.683 28.7361 20.6088 28.7033 20.5345 28.6662V33.5535ZM48.0033 29.7364L47.9031 29.6897C47.4098 29.4596 46.9753 29.257 46.5407 29.023C46.0769 28.7732 45.6132 28.6305 45.0781 28.7019V33.0898C45.5775 33.0541 45.8629 33.3038 46.1126 33.6605C46.2553 33.8746 46.3623 34.0886 46.4694 34.3383C46.5764 34.5881 46.7191 34.5881 46.9331 34.4454C47.1097 34.3129 47.3 34.1941 47.4955 34.072C47.6159 33.9969 47.7383 33.9205 47.8606 33.8389C47.932 33.7676 48.0033 33.6605 48.0033 33.5535V31.8412V29.7364ZM42.5453 26.2404H36.2667V28.6662C36.3832 28.608 36.4997 28.5556 36.6138 28.5044C36.7792 28.4302 36.9394 28.3582 37.0872 28.2738C38.3714 27.489 39.6557 27.4533 40.9043 28.3095C41.2967 28.5592 41.6891 28.7019 42.1885 28.6662C42.2955 27.8457 42.4026 27.0609 42.5453 26.2404ZM37.6936 48.7505V47.7873H34.804V48.7505H37.6936ZM29.346 48.7505V47.823H26.4207V48.7505H29.346ZM45.5419 47.7873H42.6522V48.7149H45.5419V47.7873ZM42.6166 42.8644H45.5061V41.9369H42.6166V42.8644ZM34.7684 42.8644H37.6936V41.9369H34.7684V42.8644ZM29.8454 41.9369H26.9558V42.8644H29.8454V41.9369ZM28.0617 25.9639V25.0364H29.0249V25.9639H28.0617ZM25.5645 43.6224H24.1376C23.6382 43.6224 23.1387 43.6224 22.6036 43.6581C22.0685 43.6581 21.6404 44.0505 21.6404 44.6213V45.5845C21.6761 46.1552 22.0685 46.5833 22.6393 46.5833H25.5645C26.1353 46.5476 26.5634 46.1552 26.5634 45.5845V44.6213C26.5634 44.0505 26.171 43.6224 25.5645 43.6224ZM22.675 44.6213H25.5645V45.5488H22.675V44.6213ZM33.9122 44.6213H30.9869V45.5488H33.9122V44.6213ZM38.8708 44.6213H41.7604V45.5488H38.8708V44.6213Z" fill="#0071CE"/>
</svg>
