<svg width="69" height="68" viewBox="0 0 69 68" fill="none" xmlns="http://www.w3.org/2000/svg">
<path d="M32.75 1.58771C33.8329 0.962498 35.1671 0.962498 36.25 1.58771L61.6949 16.2783C62.7778 16.9035 63.4449 18.059 63.4449 19.3094V48.6906C63.4449 49.941 62.7778 51.0965 61.6949 51.7217L36.25 66.4123C35.1671 67.0375 33.8329 67.0375 32.75 66.4123L7.30514 51.7217C6.22223 51.0965 5.55514 49.941 5.55514 48.6906V19.3094C5.55514 18.059 6.22223 16.9035 7.30514 16.2783L32.75 1.58771Z" stroke="#0071CE"/>
<path fill-rule="evenodd" clip-rule="evenodd" d="M30.2692 26.79C30.2461 26.5364 30.3655 26.3461 30.4861 26.154C30.5411 26.0662 30.5964 25.9781 30.6385 25.8834C30.7728 25.6483 30.7392 25.5476 30.4706 25.514L30.4706 25.514C30.3027 25.4805 30.1348 25.4469 29.9669 25.3797C29.7319 25.3126 29.4969 25.1447 29.4297 24.9096C29.2954 24.3388 29.2618 23.7344 29.4633 23.1972C29.5829 22.8684 29.8887 22.8057 30.1676 22.7485C30.202 22.7414 30.236 22.7345 30.2692 22.7271C30.8064 22.5928 30.8064 22.5928 30.5378 22.1228L30.5378 22.1227C30.1012 21.3504 30.1349 21.1825 30.7392 20.5781L30.84 20.4774C31.5787 19.7387 31.6794 19.7051 32.586 20.2424C32.8882 20.4103 33.0225 20.3767 33.0561 20.0409C33.0896 19.873 33.1232 19.7051 33.1904 19.5372C33.3247 19.2015 33.5933 19 33.9627 19H34.7349C35.4401 19 35.6751 19.1679 35.843 19.8394C35.9274 20.1433 35.9694 20.2944 36.0585 20.3311C36.1467 20.3675 36.281 20.2919 36.5481 20.1416L36.5481 20.1416C37.1861 19.7723 37.4211 19.8059 37.9248 20.3095L38.4285 20.8132C38.7642 21.149 38.7978 21.4847 38.5628 21.8877L38.5628 21.8877L38.5628 21.8877C38.3632 22.2203 38.2625 22.3882 38.3055 22.5015C38.3493 22.6169 38.5424 22.6756 38.9321 22.7943C39.4022 22.9286 39.6037 23.1636 39.6373 23.6673V24.4731C39.6373 25.0104 39.4358 25.279 38.8986 25.4469L38.8985 25.4469C38.5508 25.5462 38.3746 25.5966 38.3295 25.7027C38.2833 25.8117 38.3756 25.9795 38.5628 26.3199L38.5628 26.3199C38.7978 26.7564 38.7642 27.0922 38.4285 27.428L37.8577 27.9988C37.4212 28.4353 37.1526 28.4689 36.6153 28.1667C36.0109 27.7973 36.0109 27.7973 35.8094 28.5024C35.6416 29.0732 35.3729 29.2747 34.7685 29.2747H34.1641C33.5262 29.2747 33.2576 29.0733 33.0897 28.4353C32.9218 27.7973 32.9218 27.7973 32.3845 28.0995C31.7465 28.4689 31.5451 28.4353 31.0078 27.898L30.4706 27.3608C30.3363 27.1929 30.2356 26.9914 30.2692 26.79ZM31.8137 22.7943C31.7801 22.9957 31.713 23.13 31.5115 23.1636C31.394 23.1972 31.2849 23.2224 31.1757 23.2476C31.0666 23.2727 30.9575 23.2979 30.84 23.3315C30.1013 23.533 30.1013 23.533 30.1013 24.2716V24.2717C30.1013 24.5067 30.1684 24.641 30.437 24.6746C30.7728 24.7417 31.1085 24.8425 31.4442 24.9432L31.4444 24.9432C31.8137 25.044 31.8808 25.2454 31.713 25.5812C31.6626 25.6651 31.6122 25.7575 31.5619 25.8498C31.5115 25.9422 31.4612 26.0345 31.4108 26.1184L31.4108 26.1185C31.0414 26.79 31.0414 26.79 31.6123 27.3608C31.7801 27.5287 31.8809 27.5287 32.0823 27.3944C32.3845 27.1929 32.6867 27.025 32.9889 26.8571C33.2911 26.6892 33.4926 26.7564 33.5933 27.0922C33.6605 27.2936 33.7276 27.4951 33.7612 27.7302C33.9543 28.4703 33.9623 28.4703 34.6424 28.469L34.7349 28.4689C34.97 28.4689 35.0707 28.4017 35.1043 28.1667C35.1715 27.8309 35.2722 27.4951 35.3729 27.1593C35.4737 26.7564 35.7087 26.6892 36.0445 26.8907C36.1284 26.9411 36.2039 26.983 36.2795 27.025L36.2795 27.025C36.3551 27.067 36.4306 27.109 36.5146 27.1593C37.1803 27.5715 37.1876 27.5645 37.695 27.0821C37.725 27.0535 37.7568 27.0233 37.7905 26.9914C37.9584 26.8236 37.9584 26.7228 37.8241 26.5214C37.6227 26.2192 37.4548 25.9171 37.287 25.615L37.287 25.615L37.287 25.6149L37.287 25.6149L37.2869 25.6149L37.2869 25.6149L37.2869 25.6148C37.119 25.3126 37.1861 25.1111 37.5219 25.0104C37.6327 24.9734 37.7536 24.9467 37.879 24.9189L37.8791 24.9189C37.9818 24.8961 38.0876 24.8727 38.1934 24.8425C38.8661 24.6503 38.8665 24.6415 38.8943 24.0289L38.8986 23.9359C38.8986 23.6673 38.865 23.4994 38.5292 23.4658C38.3189 23.4424 38.1249 23.3866 37.9358 23.3321C37.8532 23.3083 37.7715 23.2848 37.6898 23.2643C37.1861 23.13 37.119 22.9286 37.354 22.4921L37.3541 22.4919C37.4212 22.3577 37.4883 22.2234 37.589 22.0891L37.5891 22.0891C38.0255 21.384 38.0255 21.384 37.4547 20.8132C37.2869 20.6453 37.1861 20.6453 36.9847 20.746C36.6489 20.9475 36.3131 21.149 35.9773 21.3168C35.7087 21.4512 35.5408 21.3504 35.4401 21.0818C35.4032 20.971 35.3764 20.8501 35.3486 20.7246L35.3486 20.7246L35.3486 20.7245C35.3259 20.6218 35.3024 20.516 35.2722 20.4103C35.0707 19.6716 35.0707 19.6716 34.2985 19.6716C34.097 19.6716 33.9627 19.7387 33.9291 19.9737C33.862 20.3095 33.7612 20.6789 33.6605 21.0147C33.5597 21.384 33.3583 21.4512 33.0225 21.2833C32.7794 21.1617 32.554 21.0226 32.3206 20.8786C32.2316 20.8237 32.1415 20.7681 32.0487 20.7125C31.8808 20.6117 31.7801 20.6117 31.6458 20.746L31.5984 20.7908C31.04 21.3174 31.0205 21.3358 31.4779 22.022L31.478 22.0221C31.5787 22.19 31.6794 22.3578 31.7801 22.5592V22.5593C31.7801 22.66 31.7801 22.7271 31.8137 22.7943ZM48.401 42.6386C49.6098 40.3889 50.1806 37.9713 50.2142 35.4194C50.1806 32.9347 49.6098 30.5507 48.4682 28.301C47.5951 26.6221 46.2185 25.6484 44.3382 25.4805C42.3571 25.3126 40.7117 26.0513 39.6037 27.7302C38.4956 29.4091 38.3949 31.2222 39.3351 33.0019C40.2081 34.6136 40.2417 36.1581 39.3351 37.7698C38.7979 38.7436 38.6299 39.7845 38.7643 40.859C39.0665 43.0751 40.7789 44.8883 42.8943 45.2576C45.144 45.6606 47.3265 44.6532 48.401 42.6386ZM40.6045 34.2337C40.5797 34.1103 40.5585 33.9925 40.5438 33.8748C40.6682 33.8748 40.7888 33.871 40.9081 33.8672H40.9081C41.1431 33.8598 41.3733 33.8525 41.6183 33.8748C41.9205 33.9084 42.1555 33.8077 42.357 33.5726C42.4029 33.5038 42.4645 33.4506 42.5203 33.4024L42.5203 33.4024L42.5203 33.4024C42.5462 33.3801 42.5708 33.3588 42.592 33.3376C42.9949 32.9346 42.9949 32.9346 42.6256 32.5317C42.2227 32.0616 42.2898 31.3229 42.7599 30.8864C43.23 30.4163 43.9687 30.3827 44.4388 30.8528C44.7074 31.1215 44.8417 31.0879 45.1103 30.8528C45.5804 30.3827 46.3527 30.4163 46.8228 30.92C47.2929 31.3901 47.2929 32.1624 46.8228 32.666C46.5653 32.9235 46.3115 33.181 46.0578 33.4385L46.0577 33.4386C45.5504 33.9534 45.0431 34.4681 44.506 34.9829C44.3045 35.1508 44.3045 35.2851 44.506 35.453L46.7221 37.6691C47.2593 38.2063 47.2929 38.9786 46.7892 39.4823C46.252 40.0195 45.5468 40.0195 44.976 39.4487C44.7745 39.2472 44.6738 39.2808 44.506 39.4487C43.9687 39.9859 43.2636 39.9859 42.7599 39.5494C42.2898 39.1465 42.122 38.307 42.6928 37.7362C42.9278 37.5012 42.8607 37.3669 42.6592 37.1318C42.1661 36.4085 41.4476 36.3934 40.6929 36.4246C40.4917 37.1061 40.1978 37.757 39.8723 38.4078C39.5701 39.0122 39.4694 39.6838 39.503 40.3553C39.5366 42.2357 40.9132 43.9481 42.76 44.4518C44.6739 44.9554 46.7221 44.1496 47.6287 42.4371C50.0799 37.837 50.0799 33.1697 47.6959 28.536C46.9908 27.1258 45.7484 26.3871 44.1703 26.2864C40.7454 26.0849 38.4285 29.5434 39.9731 32.6661C40.1745 33.069 40.376 33.5055 40.5439 33.9084C40.5586 34.0114 40.5797 34.1207 40.6045 34.2337ZM40.7622 35.6856C42.1557 35.621 42.1678 35.6327 43.1964 36.6282L43.2971 36.7289C43.3931 36.8302 43.4815 36.9146 43.5586 36.9882L43.5587 36.9883L43.5587 36.9883C43.9671 37.3782 44.0597 37.4667 43.2971 38.1727C43.0285 38.4078 42.995 38.7435 43.1964 38.945C43.4315 39.1801 43.7001 39.1465 43.9687 38.8779C44.6067 38.2063 44.7074 38.1056 45.4461 38.8779C45.5804 39.0122 45.7147 39.1129 45.9162 39.0793C46.1177 39.0457 46.252 38.945 46.3191 38.7435C46.3863 38.5085 46.2855 38.307 46.1177 38.1727L43.5658 35.6208C43.23 35.2851 43.23 35.1172 43.5658 34.7814L44.6067 33.7405L46.1848 32.1624C46.4199 31.9273 46.4199 31.5915 46.2184 31.4237C45.9498 31.2222 45.7148 31.2893 45.5133 31.4908L45.1103 31.8937C44.8753 32.1288 44.6403 32.1288 44.4052 31.8937C44.3616 31.8502 44.318 31.803 44.2733 31.7547C44.1802 31.654 44.0821 31.548 43.9687 31.4572C43.7336 31.2558 43.465 31.2222 43.2636 31.4572C43.0621 31.6587 43.0957 31.9273 43.2971 32.1624L43.2973 32.1625C43.4651 32.3303 43.633 32.4982 43.7672 32.666C43.9351 32.8675 43.9687 33.0689 43.7672 33.2368C43.7158 33.2926 43.6644 33.3488 43.613 33.405L43.6128 33.4053L43.6125 33.4055C42.8598 34.2293 42.0987 35.0621 40.7788 34.7478H40.7186C40.731 34.8786 40.7382 35.0147 40.7453 35.1507L40.7453 35.1508C40.7537 35.3103 40.7621 35.4698 40.7789 35.6209C40.7728 35.6422 40.7673 35.6638 40.7622 35.6856ZM20.666 28.066C19.3901 30.3492 18.8192 32.8004 18.7856 35.3859C18.8192 37.9713 19.39 40.4561 20.6324 42.7393C22.412 45.8621 26.7435 46.265 29.0604 43.5116C30.4706 41.8663 30.6721 39.6166 29.5976 37.6356C29.0268 36.5947 28.8925 35.5202 29.1275 34.3785C29.2135 33.9917 29.3957 33.6324 29.5774 33.2741C29.6796 33.0727 29.7816 32.8716 29.8662 32.6661C30.9407 30.1478 29.8662 27.2265 27.4487 26.0177C24.9975 24.809 22.0091 25.682 20.666 28.066ZM28.2545 34.9158V35.8224C28.2881 36.091 28.3217 36.3596 28.3888 36.5947C28.5193 37.012 28.7105 37.4091 28.8995 37.8017C28.9538 37.9145 29.0079 38.0268 29.0604 38.1392C30.605 41.2284 28.3217 44.7204 24.8968 44.5189C23.3858 44.4518 22.1434 43.7802 21.4383 42.4371C18.9871 37.837 18.9536 33.1697 21.3376 28.5025C22.1434 26.9243 23.923 26.0177 25.6355 26.2528C27.5158 26.4878 28.9261 27.7302 29.3962 29.5434C29.6648 30.6179 29.5304 31.6588 29.0268 32.6325C28.7917 33.1026 28.5567 33.6063 28.3888 34.1099C28.3721 34.2442 28.3469 34.3785 28.3217 34.5129L28.3217 34.5129C28.2965 34.6472 28.2713 34.7815 28.2545 34.9158ZM34.9365 36.4267V41.8998C34.9365 43.713 34.9364 45.5262 34.9028 47.373V47.6752C34.8693 47.9438 34.7014 48.1117 34.4328 48.1117C34.1642 48.1117 34.0298 47.9438 33.9963 47.6752V47.3394V36.6282V36.326C33.9963 36.0574 33.862 35.8895 33.5934 35.8895H30.1013C29.8662 35.8895 29.6983 35.9902 29.6983 36.2588C29.6983 36.5274 29.8662 36.6282 30.1013 36.6617H30.4035C30.6721 36.6617 30.9407 36.6655 31.2094 36.6692C31.7466 36.6767 32.2838 36.6841 32.8211 36.6617C33.1568 36.6617 33.224 36.7625 33.224 37.0983V47.4065V47.7759C33.2575 48.2796 33.6605 48.7161 34.1642 48.8504C34.6678 48.9511 35.1715 48.7496 35.4737 48.3131C35.6416 48.0445 35.6751 47.7759 35.6751 47.4737V37.0311C35.6751 36.7289 35.7423 36.6282 36.0781 36.6282C36.6613 36.6506 37.2595 36.6431 37.8527 36.6356C38.1474 36.6319 38.4409 36.6282 38.7307 36.6282C39.1336 36.6282 39.3351 36.3931 39.2008 36.0909C39.1001 35.8559 38.8986 35.8559 38.6971 35.8559H38.6971H35.5073C35.0372 35.8559 34.9365 35.9566 34.9365 36.4267ZM34.4999 34.1771H38.63H38.6301C38.7644 34.1771 38.8986 34.1771 38.9993 34.2106C39.1672 34.2442 39.2679 34.3785 39.2679 34.5464C39.2679 34.7479 39.2008 34.8822 38.9993 34.9158C38.865 34.9493 38.7643 34.9493 38.63 34.9493H30.3699C30.2692 34.9493 30.1348 34.9493 30.0341 34.9158C29.8326 34.8822 29.7319 34.7479 29.7319 34.5128C29.7319 34.3114 29.8326 34.2106 30.0341 34.1771C30.1684 34.1435 30.3028 34.1435 30.4035 34.1435C31.7466 34.1771 33.1233 34.1771 34.4999 34.1771ZM28.2261 36.6359H28.2261C28.1254 36.6433 28.0294 36.6503 27.9188 36.6282C27.2136 36.5274 26.71 36.7625 26.2735 37.2997C26.1056 37.5348 26.0384 37.6355 26.2735 37.8705C26.6428 38.2063 26.7435 38.6428 26.6092 39.1129C26.4413 39.583 26.1391 39.8852 25.6355 39.9859C25.1654 40.0867 24.796 39.9188 24.4938 39.583C24.326 39.4151 24.2253 39.4151 24.0238 39.583C23.453 40.1538 22.7143 40.1538 22.177 39.6166C21.7069 39.1129 21.7405 38.3406 22.2777 37.8034C22.5114 37.5697 22.7451 37.3323 22.98 37.0937L22.9803 37.0934C23.4541 36.6121 23.9329 36.1258 24.4267 35.6544C24.6953 35.3858 24.6617 35.2515 24.4267 35.0165C23.9119 34.524 23.4269 34.0316 22.942 33.5392L22.9419 33.5391C22.6994 33.2929 22.4569 33.0466 22.2106 32.8003C21.8077 32.3974 21.7741 31.7259 22.0763 31.2558C22.3785 30.7857 23.0836 30.5842 23.5873 30.7857C23.7551 30.8528 23.8895 30.9536 24.0238 31.0879C24.1917 31.2893 24.326 31.2893 24.4938 31.0879C25.0311 30.5506 25.7362 30.5506 26.2399 31.0207C26.7771 31.5244 26.8107 32.2967 26.2735 32.8003C26.0384 33.0354 26.1056 33.1361 26.2735 33.3711C26.71 33.9084 27.2472 34.1434 27.9188 34.0427C28.0531 34.0091 28.221 34.0427 28.3889 34.0763C28.3721 34.2106 28.3469 34.3449 28.3217 34.4792L28.3217 34.4792C28.2965 34.6135 28.2713 34.7478 28.2545 34.8821C28.1326 34.8821 28.0071 34.8785 27.8803 34.8748C27.6229 34.8673 27.3604 34.8596 27.1129 34.8821C26.8443 34.8821 26.6092 34.815 26.4413 34.6135C26.1963 34.3462 25.9364 34.0936 25.6716 33.8362C25.5373 33.7057 25.4017 33.5739 25.2661 33.4383C24.9975 33.2033 25.0311 32.9682 25.2661 32.7332L25.7362 32.2631C25.9377 32.028 25.9377 31.793 25.7362 31.5915C25.5348 31.3901 25.2661 31.3901 25.0647 31.5915C24.9975 31.6419 24.9388 31.7007 24.88 31.7594C24.8212 31.8182 24.7625 31.877 24.6953 31.9273C24.326 32.2967 24.1916 32.2967 23.7887 31.9273C23.7546 31.8932 23.7226 31.8591 23.6912 31.8255L23.6912 31.8255C23.5989 31.7269 23.511 31.6331 23.3858 31.558C23.1843 31.3901 22.9829 31.3901 22.7814 31.558C22.5799 31.7258 22.5464 31.9609 22.6807 32.1959C22.7143 32.2463 22.7562 32.2967 22.7982 32.347C22.8402 32.3974 22.8821 32.4478 22.9157 32.4981C23.1967 32.7792 23.474 33.0602 23.7501 33.34C24.2985 33.8959 24.8421 34.4468 25.4005 34.9829C25.6691 35.2515 25.6691 35.4529 25.4005 35.7216L25.2326 35.8895L22.8821 38.2399C22.5464 38.5757 22.5128 38.8779 22.7143 39.1129C22.9493 39.3479 23.2179 39.2808 23.5537 38.945L23.6208 38.8779C24.1245 38.3742 24.1917 38.3742 24.6953 38.8779L24.9639 39.1465C25.199 39.3479 25.434 39.3479 25.6355 39.1465C25.8369 38.945 25.8369 38.6764 25.6355 38.4749C25.5683 38.391 25.4844 38.307 25.4004 38.2231C25.3165 38.1392 25.2325 38.0552 25.1654 37.9713C25.0311 37.8034 24.8968 37.6019 25.0982 37.434C25.2053 37.3225 25.3107 37.2068 25.4162 37.0908L25.4162 37.0908C26.1046 36.3345 26.8011 35.5692 28.0531 35.8895H28.221C28.2601 36.0068 28.2878 36.147 28.3174 36.2967C28.3386 36.4039 28.3608 36.516 28.3889 36.6282C28.3316 36.6282 28.2783 36.6321 28.2261 36.6359ZM34.4998 22.0891C33.3918 22.0891 32.4852 22.9621 32.4852 24.0702C32.4852 25.1782 33.3582 26.0848 34.4663 26.0848C35.5743 26.0848 36.4809 25.2118 36.4809 24.1038C36.4809 22.9957 35.6079 22.0891 34.4998 22.0891ZM33.2911 24.0702C33.2911 23.3986 33.8283 22.8614 34.4998 22.8614C35.205 22.8614 35.7422 23.3986 35.7422 24.1038C35.7422 24.7753 35.205 25.3125 34.5334 25.3125C33.8283 25.3125 33.2911 24.7753 33.2911 24.0702Z" fill="#0071CE"/>
</svg>
