<svg width="69" height="68" viewBox="0 0 69 68" fill="none" xmlns="http://www.w3.org/2000/svg">
<path d="M32.75 1.58771C33.8329 0.962498 35.1671 0.962498 36.25 1.58771L61.6949 16.2783C62.7778 16.9035 63.4449 18.059 63.4449 19.3094V48.6906C63.4449 49.941 62.7778 51.0965 61.6949 51.7217L36.25 66.4123C35.1671 67.0375 33.8329 67.0375 32.75 66.4123L7.30514 51.7217C6.22223 51.0965 5.55514 49.941 5.55514 48.6906V19.3094C5.55514 18.059 6.22223 16.9035 7.30514 16.2783L32.75 1.58771Z" stroke="#0071CE"/>
<path fill-rule="evenodd" clip-rule="evenodd" d="M36.7884 26.0599C37.1168 26.1598 37.4643 26.2136 37.8232 26.2136C38.1607 26.2136 38.4867 26.1675 38.7954 26.0814V26.5899C38.7954 26.8095 38.9522 26.9977 39.1718 27.0604L42.4649 27.9072C42.7786 28.0013 43.0295 28.2522 43.1236 28.5658L45.2876 36.1244C45.4758 36.7203 45.2563 37.3476 44.7858 37.7239C44.2526 38.163 43.4686 38.163 42.9354 37.7553L37.9057 34.0264C37.873 33.9944 37.8361 33.9672 37.7966 33.9455L37.4782 33.7094C37.1018 33.4271 37.0077 32.894 37.29 32.5176C37.5409 32.1412 38.0741 32.0472 38.4504 32.2981L42.4963 34.964C42.7158 35.1208 42.9981 35.058 43.1549 34.8385C43.3118 34.619 43.249 34.3367 43.0295 34.1799L41.697 33.3019C41.9826 32.833 42.0746 32.2495 41.9318 31.7021C41.6496 30.6671 40.6146 30.0399 39.5796 30.2594L31.2916 31.6818L32.4289 28.5345C32.523 28.2836 32.7425 28.064 33.0248 27.9699L36.4434 27.029C36.6316 26.9663 36.7884 26.7781 36.7884 26.5586V26.0599ZM35.8475 25.616C34.8685 24.9676 34.2164 23.8562 34.2164 22.6068C34.2164 20.6309 35.8473 19 37.8232 19C39.7991 19 41.43 20.6309 41.43 22.6068C41.43 23.8884 40.757 25.0249 39.7363 25.6653V26.2449L42.6845 26.9977C43.3431 27.1545 43.8449 27.6563 44.0331 28.3149L46.1972 35.8735C46.4794 36.8458 46.1345 37.8807 45.3504 38.508C44.9426 38.8844 44.3781 39.0412 43.8449 39.0412C43.3117 39.0412 42.8099 38.8844 42.3709 38.5394L42.0883 38.3299V43.2893L47.922 43.5889C49.2079 43.6516 50.2116 44.7179 50.2116 46.0038C50.2743 47.2897 49.1766 48.3875 47.8279 48.3875H19.5695C19.2873 48.3875 19.0991 48.1679 19.0991 47.917C19.0991 47.6347 19.3186 47.4466 19.5695 47.4466H47.8279C48.612 47.4466 49.2707 46.7879 49.2707 46.0038C49.2707 45.2198 48.6748 44.5925 47.8907 44.5611L27.1281 43.4948C26.8458 43.4948 26.6577 43.2439 26.6577 42.993C26.6577 42.7107 26.9086 42.5225 27.1595 42.5225L29.9692 42.6668C29.9662 42.6187 29.9702 42.5701 29.9821 42.5225L31.2053 38.0062C31.268 37.7553 31.5503 37.5985 31.8012 37.6612C32.0521 37.7239 32.2089 38.0062 32.1462 38.2571L30.9384 42.7166L41.1474 43.2409V37.6324L37.4806 34.9138L35.0816 35.4814C35.0688 35.6517 35.0209 35.8184 34.938 35.9676C34.7812 36.2499 34.499 36.4694 34.1853 36.5635L32.4603 37.0653C32.3349 37.128 32.2094 37.1594 32.084 37.1594C31.5508 37.1594 31.049 36.8144 30.8922 36.2499L30.6726 35.5285C30.5785 35.2149 30.6099 34.8699 30.7667 34.5876C30.9235 34.3053 31.2058 34.0858 31.5194 33.9917L33.2444 33.4585C33.9031 33.2703 34.593 33.6467 34.8126 34.3053L34.8738 34.5063L36.5398 34.1122C36.0856 33.4895 36.0461 32.6172 36.5059 31.9531C36.5626 31.8712 36.6246 31.7956 36.6912 31.7266L30.2333 32.8312C29.8883 32.8939 29.5746 33.1135 29.4178 33.4585L26.1247 40.7034C26.0619 40.8916 25.9051 41.017 25.6856 41.017H19.2561C18.9738 41.017 18.7856 40.7975 18.7856 40.5466C18.7856 40.2957 19.0052 40.0761 19.2561 40.0761H25.4033L28.5397 33.0821C28.8219 32.4548 29.3865 32.0158 30.0765 31.8903L30.2225 31.8652L31.5507 28.1895C31.7702 27.6249 32.2093 27.1858 32.8052 27.029L35.8475 26.1822V25.616ZM39.1462 24.8483C39.9275 24.3884 40.4577 23.5377 40.4577 22.5754C40.4577 21.1327 39.2973 19.9409 37.8232 19.9409C36.3805 19.9409 35.1887 21.1327 35.1887 22.5754C35.1887 24.0181 36.3805 25.2099 37.8232 25.2099C38.2229 25.2099 38.6034 25.1185 38.9446 24.9555C39.0012 24.904 39.0705 24.8672 39.1462 24.8483ZM38.9836 31.514C38.9071 31.461 38.8281 31.4147 38.7473 31.3749L39.7677 31.2003H39.7991C40.3323 31.1062 40.8655 31.4198 41.0223 31.953C41.0935 32.238 41.0389 32.5231 40.8856 32.7672L38.9836 31.514ZM33.5894 34.3994H33.4953L31.7703 34.9012C31.6135 34.9326 31.5194 35.0894 31.5822 35.2462L31.8017 35.9676L31.8017 35.9676C31.8331 36.0303 31.8644 36.093 31.9272 36.1244C31.9899 36.1558 32.084 36.1558 32.1467 36.1558L33.8717 35.6539C33.9344 35.6226 33.9971 35.5912 34.0285 35.5285C34.0599 35.4658 34.0599 35.3717 34.0599 35.3089L33.8403 34.5876L33.8403 34.5876C33.809 34.5249 33.7776 34.4621 33.7149 34.4308C33.6835 34.3994 33.6521 34.3994 33.5894 34.3994Z" fill="#0071CE"/>
</svg>
