<svg width="69" height="68" viewBox="0 0 69 68" fill="none" xmlns="http://www.w3.org/2000/svg">
<path d="M32.75 1.58771C33.8329 0.962498 35.1671 0.962498 36.25 1.58771L61.6949 16.2783C62.7778 16.9035 63.4449 18.059 63.4449 19.3094V48.6906C63.4449 49.941 62.7778 51.0965 61.6949 51.7217L36.25 66.4123C35.1671 67.0375 33.8329 67.0375 32.75 66.4123L7.30514 51.7217C6.22223 51.0965 5.55514 49.941 5.55514 48.6906V19.3094C5.55514 18.059 6.22223 16.9035 7.30514 16.2783L32.75 1.58771Z" stroke="#0071CE"/>
<path fill-rule="evenodd" clip-rule="evenodd" d="M25.5261 22.9922C25.3812 24.5491 25.6709 25.9251 27.0106 26.9027C27.5899 27.3372 28.2417 27.5906 28.9658 27.5906C30.4879 27.5906 31.9753 27.556 33.4957 27.5206H33.4958H33.4958H33.4958H33.4958H33.4958H33.4958H33.4959H33.4959L33.496 27.5206L33.6004 27.5182C33.6367 27.5182 33.6729 27.5182 33.7453 27.482V26.5768H34.7953V26.9027V36.1357C34.7953 38.0548 33.528 39.3582 31.609 39.3945C29.5814 39.4307 27.7709 40.8066 27.3002 42.7618C27.2224 43.1251 27.2375 43.507 27.2524 43.8809V43.8809V43.881V43.881V43.881V43.8811V43.8811V43.8811V43.8812V43.8812C27.2582 44.0289 27.264 44.1752 27.264 44.3187V44.3188C27.264 44.3912 27.264 44.4636 27.3002 44.5722C27.1568 44.6041 27.0133 44.643 26.8668 44.6827L26.8667 44.6827L26.8667 44.6827L26.8666 44.6828C26.6803 44.7333 26.4891 44.7851 26.2864 44.8257L26.2791 44.7234C26.2455 44.2551 26.214 43.8162 26.214 43.3773C26.214 43.1601 26.1416 43.0515 25.9244 43.0515C25.87 43.0515 25.8248 43.0424 25.7795 43.0334C25.7343 43.0243 25.689 43.0153 25.6347 43.0153C25.3692 43.0153 25.1036 43.0112 24.8381 43.0072C24.3071 42.9992 23.776 42.9911 23.245 43.0153C22.8912 43.0405 22.555 43.1363 22.1873 43.2411C22.0281 43.2865 21.863 43.3336 21.688 43.3773C21.624 43.2493 21.5348 43.096 21.4352 42.925L21.4352 42.925L21.4352 42.9249C21.3659 42.8059 21.2916 42.6783 21.2173 42.5445C22.5588 41.8446 23.9473 41.9199 25.326 41.9945H25.326H25.326H25.3261H25.3261H25.3261H25.3262H25.3262H25.3263H25.3263C25.6592 42.0126 25.9916 42.0306 26.3226 42.0376C26.421 41.8777 26.5153 41.7094 26.611 41.5385C26.7971 41.2062 26.9888 40.8639 27.2278 40.5531C28.3503 39.141 29.8348 38.4168 31.609 38.3806C32.6952 38.3444 33.4918 37.6927 33.6729 36.6426C33.7091 36.534 33.7091 36.4254 33.7091 36.2807V36.2806V28.8217V28.5682H31.9711H29.1469C26.5037 28.5682 24.476 26.5044 24.476 23.8974V20.9284C24.476 19.4438 25.5985 18.2852 27.0468 18.2852C28.4951 18.2852 29.6176 19.4438 29.6176 20.9645V22.8112C29.6176 23.2819 29.7986 23.4629 30.2693 23.4629H33.0211C33.3211 23.4629 33.6211 23.5147 33.9449 23.5706C34.0901 23.5956 34.2401 23.6215 34.3971 23.644C34.9402 22.3767 35.8092 21.2904 36.9678 20.3852C37.1851 20.6387 37.3661 20.8921 37.5833 21.218C37.5109 21.2542 37.4385 21.2904 37.3661 21.3628C36.3161 22.1956 35.5919 23.2457 35.1574 24.4767C34.9402 25.0561 34.6505 25.1285 34.1436 24.8026C33.8539 24.6216 33.4918 24.4767 33.166 24.4767C32.5384 24.4526 31.9108 24.4606 31.2832 24.4687H31.2831C30.9693 24.4727 30.6555 24.4767 30.3417 24.4767C29.2917 24.4767 28.7486 24.006 28.5675 22.956C27.5537 23.6439 26.5399 23.6439 25.5261 22.9922ZM27.0468 22.4491C27.8796 22.4491 28.5676 21.7611 28.6038 20.9284C28.6038 20.0594 27.9158 19.3714 27.0468 19.3714C26.214 19.3714 25.4898 20.0594 25.4898 20.8921C25.4898 21.7249 26.1778 22.4491 27.0468 22.4491ZM36.7671 35.5924L36.7671 35.5926C36.7831 36.1275 36.7986 36.6464 36.7507 37.1496C36.5334 38.8151 35.6282 40.01 34.1437 40.879C33.9626 40.5893 33.8178 40.2997 33.673 39.9738C33.7454 39.9014 33.8178 39.8652 33.8902 39.829C35.1575 38.9962 35.8092 37.8375 35.8092 36.3168V26.8303C35.8092 24.0785 37.6921 21.7249 40.3352 21.0732C43.7026 20.2404 47.1786 22.5939 47.5769 26.0699C47.595 26.1966 47.604 26.3234 47.6131 26.4501C47.6221 26.5768 47.6312 26.7035 47.6493 26.8303V35.5564C47.6131 41.3859 43.594 46.3102 37.8731 47.4326C37.2214 47.5775 36.4972 47.6499 35.8455 47.6499C34.4696 47.6861 33.0575 47.6861 31.6816 47.6499C29.8349 47.6137 28.3142 46.2016 28.1332 44.3912C27.9521 42.617 29.147 40.9514 30.9212 40.5531C31.3099 40.4559 31.7149 40.424 32.1253 40.3916C32.3265 40.3757 32.529 40.3597 32.7316 40.3359C32.7545 40.4275 32.7774 40.5228 32.8014 40.6228L32.8015 40.6229C32.8534 40.839 32.9108 41.0774 32.985 41.3497C32.823 41.3622 32.6652 41.3789 32.5087 41.3955L32.5087 41.3956C32.2108 41.4272 31.9177 41.4583 31.6091 41.4583C30.197 41.5307 29.1108 42.6532 29.1108 44.0653C29.1108 45.405 30.197 46.5637 31.5367 46.5999H31.5367H31.5368H31.5368H31.5368H31.5368H31.5368H31.5369H31.5369H31.5369H31.5369C33.2024 46.6361 34.8679 46.6723 36.5334 46.5637C40.2628 46.2378 43.0871 44.3912 45.0423 41.2411C46.201 39.3945 46.6717 37.3306 46.5993 35.1219C46.5993 35.0495 46.563 34.9047 46.4906 34.8685C45.8027 34.434 45.0785 34.2891 44.3181 34.7236C43.3767 35.2667 42.4353 35.2667 41.4577 34.7236C40.8422 34.3615 40.2266 34.3615 39.5749 34.7236C38.7059 35.2305 37.8007 35.2667 36.7507 34.7598C36.7507 35.0415 36.759 35.3189 36.7671 35.5923V35.5923V35.5923V35.5923V35.5923V35.5924V35.5924V35.5924V35.5924ZM46.5993 33.746V33.4926V26.7941C46.5993 26.6896 46.5909 26.5852 46.5822 26.4767C46.5728 26.3596 46.5631 26.2377 46.5631 26.1061C46.2372 23.5715 43.9923 21.7611 41.4215 21.906C38.9593 22.0146 36.8955 24.1509 36.8231 26.613C36.7989 28.111 36.807 29.625 36.8151 31.1337C36.8191 31.886 36.8231 32.637 36.8231 33.3839C36.8231 33.4563 36.8593 33.6012 36.9317 33.6374C37.6197 34.0719 38.3076 34.2529 39.068 33.8184C40.0456 33.2753 41.0232 33.2753 41.9646 33.8184C42.5801 34.1805 43.1957 34.1443 43.8475 33.8184C44.1009 33.6736 44.4268 33.565 44.7165 33.4926C45.3682 33.3477 45.9837 33.4563 46.5993 33.746ZM20.582 43.6845C20.4645 43.5757 20.3424 43.4626 20.2036 43.3411C19.4794 44.0291 18.9725 44.8618 18.8639 45.8033C18.7769 46.7022 18.7828 47.6243 18.7886 48.5325C18.79 48.7583 18.7914 48.9833 18.7914 49.2068C18.7914 49.4965 19.0449 49.6775 19.407 49.6775H23.3174C23.7519 49.6775 23.933 49.4965 23.933 49.062V47.7223C23.933 47.2878 24.114 47.1067 24.5485 47.1067C24.6839 47.1067 24.818 47.1102 24.9511 47.1136C25.5655 47.1294 26.1555 47.1445 26.721 46.8171C26.7634 46.8595 26.781 46.8895 26.7956 46.9144C26.8059 46.9319 26.8146 46.9469 26.8296 46.9619C27.9883 48.8085 29.6538 49.7137 31.8263 49.7137H36.3523C38.2352 49.7137 40.0456 49.3154 41.7835 48.5551C43.775 47.6499 45.4406 46.3826 46.8165 44.6446C46.563 44.4636 46.2734 44.2463 46.0199 44.0291C45.9837 44.0834 45.9384 44.1286 45.8932 44.1739C45.8479 44.2191 45.8026 44.2644 45.7664 44.3187C43.2681 47.2154 40.118 48.6637 36.3161 48.6999H31.8988C29.8711 48.6999 28.3866 47.7947 27.4814 45.9481C27.2279 45.4774 26.9382 45.405 26.54 45.7308C26.2141 46.0205 25.852 46.1291 25.4537 46.1291H25.1278C23.5347 46.0205 22.8105 46.7809 22.9554 48.3016V48.6999H19.8777C19.8777 48.4061 19.8735 48.1206 19.8695 47.8391L19.8695 47.8391C19.8615 47.2881 19.8537 46.7528 19.8777 46.2015C19.9501 45.3688 20.3484 44.6446 20.9639 44.0291C20.8319 43.9159 20.7098 43.8028 20.5821 43.6846L20.582 43.6845ZM38.3438 20.7111C38.2533 20.5482 38.1719 20.4034 38.0904 20.2586L38.0904 20.2585C38.0089 20.1137 37.9275 19.9689 37.8369 19.8059C39.2129 19.0456 40.6612 18.7197 42.2181 18.8283C45.8751 19.118 48.7718 21.6525 49.4959 25.2009C49.6045 25.7441 49.6408 26.2872 49.6408 26.8303V36.3168C49.6408 38.9238 48.9166 41.3135 47.5407 43.486C47.4968 43.5299 47.4663 43.587 47.4329 43.6493C47.4111 43.69 47.3882 43.7328 47.3596 43.7757L47.1424 43.667C47.07 43.6188 47.0017 43.5705 46.9333 43.5223L46.9332 43.5222C46.7964 43.4257 46.6596 43.3291 46.4906 43.2325C46.5268 43.1782 46.554 43.133 46.5812 43.0877C46.6083 43.0424 46.6355 42.9972 46.6717 42.9429C47.939 40.9514 48.5907 38.7427 48.5907 36.3892V26.7941C48.5907 23.3181 46.0923 20.4577 42.6888 19.9146C41.2767 19.6973 39.9008 19.9146 38.5973 20.5301C38.5611 20.6387 38.4887 20.6749 38.3438 20.7111ZM40.9146 43.0515C41.7836 43.0515 42.4715 42.3635 42.4715 41.4945C42.4715 40.6255 41.7836 39.9376 40.9146 39.9376C40.0818 39.9738 39.3938 40.6617 39.3938 41.4945C39.3938 42.3635 40.0818 43.0515 40.9146 43.0515ZM40.9508 40.9876C41.2042 40.9876 41.4577 41.2049 41.4577 41.4945C41.4577 41.748 41.2404 42.0014 40.987 42.0014C40.6973 42.0376 40.4439 41.8204 40.4439 41.5307C40.4077 41.2411 40.6611 40.9876 40.9508 40.9876ZM44.5354 36.3529V37.3306H43.5215V36.3529H44.5354ZM41.4214 37.3668H40.4438V38.3806H41.4214V37.3668ZM35.3024 43.0153V42.0377H36.28V43.0153H35.3024ZM33.7092 45.0429V44.0653H32.6953V45.0429H33.7092ZM38.8868 32.2253H37.873V32.2237C37.873 30.1965 37.873 28.1694 37.9092 26.1785C37.9092 25.9073 38.0108 25.6564 38.1227 25.3801C38.1601 25.2876 38.1988 25.1922 38.2351 25.0923C38.561 25.2733 38.8506 25.4182 39.1765 25.563C38.8311 26.2225 38.8397 26.9091 38.8481 27.5758V27.5759C38.8493 27.6779 38.8506 27.7794 38.8506 27.8803V31.827C38.8868 31.9356 38.8868 32.0804 38.8868 32.2252V32.2253ZM40.4267 23.6785C40.3625 23.5331 40.2946 23.3793 40.2267 23.2095C39.7922 23.4992 39.4301 23.7526 39.068 24.0061L39.7921 24.7302C39.8471 24.691 39.9038 24.65 39.9618 24.6081C40.1712 24.4567 40.3981 24.2927 40.625 24.1509C40.5673 23.997 40.4993 23.8432 40.4267 23.6785Z" fill="#0071CE"/>
</svg>
