<svg width="69" height="68" viewBox="0 0 69 68" fill="none" xmlns="http://www.w3.org/2000/svg">
<path d="M32.75 1.58771C33.8329 0.962498 35.1671 0.962498 36.25 1.58771L61.6949 16.2783C62.7778 16.9035 63.4449 18.059 63.4449 19.3094V48.6906C63.4449 49.941 62.7778 51.0965 61.6949 51.7217L36.25 66.4123C35.1671 67.0375 33.8329 67.0375 32.75 66.4123L7.30514 51.7217C6.22223 51.0965 5.55514 49.941 5.55514 48.6906V19.3094C5.55514 18.059 6.22223 16.9035 7.30514 16.2783L32.75 1.58771Z" stroke="#0071CE"/>
<path fill-rule="evenodd" clip-rule="evenodd" d="M46.3325 33.2154C46.3034 33.2735 46.2744 33.3316 46.2163 33.3897L45.4611 34.0577L46.013 40.0413C46.2163 40.7094 46.3615 41.5227 46.4487 42.5393C46.4632 42.7136 46.4777 42.8807 46.4922 43.0478C46.5068 43.2147 46.5213 43.3817 46.5358 43.5559C46.6229 44.9501 46.652 46.6929 46.652 49.3652C46.652 49.5685 46.5068 49.7137 46.3034 49.7137H45.2868C45.0835 49.7137 44.9382 49.5685 44.9382 49.3652C44.9382 47.0705 44.8801 45.3858 44.8221 44.0497H42.8469C42.7017 44.9792 42.6726 45.2696 42.6726 45.3568C42.7358 45.42 42.9059 45.4984 43.0611 45.57C43.1199 45.5971 43.1766 45.6233 43.2245 45.6472C43.2493 45.6597 43.2743 45.6721 43.2994 45.6845C43.6259 45.8468 43.9631 46.0144 44.1249 46.2572C44.4445 46.4024 44.5025 46.6058 44.4735 46.722C44.4444 47.0996 43.9507 47.1577 43.544 47.1867C43.0212 47.2448 42.1208 47.2738 40.9299 47.2738H40.8718C39.6809 47.2738 38.8095 47.2448 38.2576 47.1867C38.185 47.1722 38.1196 47.1649 38.0543 47.1576C37.9889 47.1504 37.9235 47.1431 37.8509 47.1286V49.3652C37.8509 49.5685 37.7057 49.7137 37.5024 49.7137H36.4857C36.2824 49.7137 36.1372 49.5685 36.1372 49.3652C36.1372 46.9834 36.1662 45.3568 36.2243 44.0497H35.0044L34.5397 46.6058C34.5632 46.6105 34.5876 46.6152 34.6125 46.62C34.7414 46.645 34.8874 46.6733 35.0334 46.722C35.6724 46.9543 36.0501 47.39 36.1081 47.9419C36.1081 48.1452 36.021 48.3486 35.8758 48.4938C35.6144 48.7552 35.1206 48.8714 34.3363 48.8714C34.2492 48.8714 34.162 48.8641 34.0749 48.8569C33.9878 48.8496 33.9006 48.8423 33.8135 48.8423C33.7844 48.8714 33.7554 48.8714 33.7263 48.8714C33.6682 48.8714 33.6392 48.8714 33.5811 48.8423C33.2768 48.8423 32.9283 48.7981 32.5355 48.7482C32.4783 48.7409 32.4202 48.7335 32.3612 48.7262C32.2886 48.7116 32.216 48.7044 32.1433 48.6971C32.0707 48.6898 31.9981 48.6826 31.9255 48.6681C31.848 48.6681 31.7835 48.6552 31.7404 48.6465C31.7189 48.6422 31.7028 48.639 31.6931 48.639C31.4898 48.639 31.3446 48.4647 31.3446 48.2905C31.3446 48.0871 31.4898 47.9419 31.6931 47.9419H31.8383C31.5479 46.751 32.0417 44.8049 32.274 44.0497H31.9836H31.3446V48.2905V49.3652C31.3446 49.5685 31.1993 49.7137 30.996 49.7137H21.9916C21.7883 49.7137 21.6431 49.5685 21.6431 49.3652V43.7011V42.394C21.6431 41.5517 22.3402 40.8546 23.1825 40.8546H26.1453C25.5062 40.2737 25.1867 39.3442 25.0996 37.8919C25.0125 36.1781 26.2324 34.232 27.4233 32.3731C27.9171 31.5888 28.4109 30.8046 28.7885 30.0784C29.9213 27.8709 32.0997 27.9871 32.913 28.1323C32.9276 28.1032 32.9421 28.0815 32.9566 28.0597C32.9711 28.0379 32.9857 28.0161 33.0002 27.9871C33.0002 27.5804 33.1164 27.1738 33.2906 26.7671C32.8549 26.5057 32.4483 25.9829 32.3031 25.4019C32.1869 24.9662 32.1578 24.0948 33.1164 23.3977C33.6973 22.962 34.162 23.0201 34.4816 23.1073C35.3529 23.3977 35.7886 24.5305 35.9048 24.85C36.2243 24.821 36.5438 24.8791 36.8343 25.0243C37.3281 25.2567 37.7057 25.6633 37.9381 26.1571C38.2866 25.9538 38.9837 25.6633 39.8261 25.431C39.8261 25.4019 39.797 25.4019 39.797 25.4019C39.6809 25.3438 39.5937 25.2277 39.5937 25.0824C39.6228 22.6425 40.5813 21.5388 41.4527 21.045V18.9246C41.4527 18.8084 41.5108 18.6922 41.627 18.6341C41.6289 18.6331 41.6319 18.6316 41.6358 18.6295C41.7485 18.5707 42.6646 18.0921 44.0959 18.3727C45.5166 18.6459 46.1663 19.4331 46.2627 19.5498C46.2688 19.5572 46.2726 19.5619 46.2744 19.5636C46.3325 19.6508 46.3615 19.796 46.3034 19.9122L45.4611 21.8583C46.071 22.6425 46.5067 24.0077 45.6644 26.1862C46.1291 26.5057 46.5648 26.8542 46.9715 27.2899C47.3491 27.6675 47.4943 28.2485 47.3781 28.7713L46.3325 33.2154ZM44.4735 25.9248C44.6187 25.8957 44.764 25.8667 44.9382 25.8376H45.0544C45.1706 25.5472 45.2577 25.2857 45.3158 25.0243L45.0544 25.1115C44.8801 25.431 44.7059 25.6924 44.4735 25.9248ZM40.6103 24.2401C40.5232 24.182 40.4651 24.1239 40.407 24.0368C40.3489 24.2982 40.3199 24.5596 40.3199 24.8791C40.3868 24.9237 40.4538 24.9641 40.5191 25.0035C40.6238 25.0665 40.7242 25.1271 40.8137 25.1986C40.6975 24.9081 40.6394 24.5886 40.6103 24.2401ZM41.2784 23.9496V24.0077C41.3074 24.5596 41.4817 25.1115 41.7431 25.4891L41.9174 25.6633L41.9755 25.7214C42.1498 25.8376 42.3241 25.9248 42.5274 25.9829C42.7307 26.0409 42.934 26.0119 43.1374 25.9538C43.1519 25.9538 43.1664 25.9465 43.1809 25.9393C43.1955 25.932 43.21 25.9248 43.2245 25.9248C43.2788 25.9248 43.3219 25.9022 43.3677 25.8781C43.3954 25.8636 43.4241 25.8486 43.4569 25.8376C43.8635 25.6053 44.2411 25.1696 44.4735 24.6467V24.6177C44.5025 24.6177 44.5025 24.5886 44.5025 24.5886C44.5316 24.5886 44.5316 24.5596 44.5316 24.5596L44.5606 24.5305C44.5606 24.5015 44.5897 24.5015 44.5897 24.5015L44.6187 24.4724C44.6187 24.4434 44.6478 24.4434 44.6478 24.4434C44.6478 24.4144 44.6768 24.4144 44.6768 24.4144H44.7059H44.7349H44.764H44.793H44.8221H44.8511C44.9092 24.4144 44.9673 24.3853 44.9673 24.3272C44.9673 24.2691 44.9382 24.2401 44.9092 24.211H44.8511H44.8221C43.6892 23.8625 43.3988 22.6135 43.3116 21.9745C42.9921 22.4973 42.3241 23.4558 41.2784 23.4558H41.1041H41.0751H41.046H40.9879C40.9589 23.4558 40.9008 23.4849 40.9008 23.543C40.9008 23.6011 40.9298 23.6591 40.9879 23.6591H41.017H41.046C41.046 23.6882 41.0751 23.6882 41.0751 23.6882C41.0751 23.7172 41.1041 23.7172 41.1041 23.7172L41.1332 23.7463L41.1622 23.7753C41.1913 23.7753 41.1913 23.8044 41.1913 23.8044C41.2203 23.8044 41.2203 23.8334 41.2203 23.8334C41.2494 23.8334 41.2494 23.8625 41.2494 23.8625C41.2784 23.8625 41.2784 23.8915 41.2784 23.8915V23.9206V23.9496ZM45.4611 23.7463C45.432 23.1363 45.2287 22.6425 44.8801 22.2068L44.0959 22.0906C44.183 22.5844 44.4154 23.3687 45.0544 23.572H45.0835C45.1125 23.6011 45.1416 23.6011 45.1706 23.6011H45.1996C45.1996 23.6301 45.2287 23.6301 45.2287 23.6301H45.2577H45.2868C45.3449 23.6591 45.403 23.6882 45.4611 23.7463ZM45.6063 19.825C45.3739 19.6217 44.8511 19.2151 43.9797 19.0408C43.0793 18.8665 42.4693 19.0408 42.2369 19.1279V20.9288L43.8054 21.2483L44.9092 21.4807L45.6063 19.825ZM42.7017 21.7711L41.9174 21.5969C41.4236 21.8583 41.046 22.2649 40.8137 22.8168C40.8427 22.8168 40.879 22.8095 40.9153 22.8023C40.9516 22.795 40.9879 22.7878 41.017 22.7878H41.046H41.0751H41.1041H41.1332H41.2203H41.2494C41.9174 22.8459 42.4403 22.2068 42.7017 21.7711ZM41.2784 26.3024C41.046 26.2152 40.8718 26.099 40.6684 25.9538C39.6629 26.1255 38.8437 26.4836 38.4382 26.6608C38.3635 26.6935 38.3028 26.72 38.2576 26.7381C38.3447 27.2899 38.2866 27.8999 38.0833 28.4808L39.129 28.2194C39.2452 28.1904 39.3904 28.2194 39.4775 28.3356C39.5647 28.4518 39.5647 28.597 39.5066 28.7132C39.3323 29.0618 38.9547 30.0493 39.2742 30.6012C39.4485 30.8917 39.8551 31.0369 40.4361 31.0369C40.6394 31.0369 40.7846 31.1822 40.7846 31.3855C40.7846 31.5888 40.6394 31.734 40.4361 31.734C40.0875 31.734 39.797 31.705 39.5356 31.6179L38.1995 34.5515C38.1414 34.6677 38.0252 34.7549 37.88 34.7549C37.8219 34.7549 37.7928 34.7549 37.7348 34.7258C37.5605 34.6387 37.4733 34.4353 37.5605 34.2611L38.9256 31.2983C38.8095 31.2112 38.7223 31.1241 38.6642 31.0079C38.2866 30.427 38.4028 29.6717 38.5771 29.1199L37.5895 29.3813C37.241 29.9041 36.7762 30.2817 36.2824 30.5141C36.2679 30.5141 36.2534 30.5213 36.2389 30.5286C36.2243 30.5359 36.2098 30.5431 36.1953 30.5431C36.021 30.6012 35.8177 30.6593 35.6434 30.6884L37.2991 34.5225L40.6684 36.4976C40.6394 36.4105 40.6103 36.2943 40.6103 36.1781C40.5813 36.091 40.6394 36.0039 40.6975 35.9167L42.266 34.232L44.0959 32.2278L44.154 31.9955C43.8635 32.1407 43.544 32.1988 43.1955 32.1988C43.0212 32.1988 42.8469 32.1988 42.6726 32.1697C42.4693 32.1407 42.3531 31.9664 42.3822 31.7631C42.4112 31.5598 42.5855 31.4436 42.7888 31.4726C43.3407 31.5598 43.7764 31.4726 44.0669 31.2402C44.5025 30.8626 44.5025 30.2236 44.5025 30.2236C44.5025 30.1074 44.5606 30.0203 44.6187 29.9622L44.764 29.3813C44.793 29.207 44.9963 29.0618 45.1706 29.1199C45.3449 29.1489 45.4901 29.3522 45.432 29.5265L44.7349 32.4602C44.7204 32.4892 44.7059 32.511 44.6913 32.5328C44.6768 32.5546 44.6623 32.5764 44.6478 32.6054L42.7888 34.6677L41.3365 36.2362L41.3365 36.2363C41.3656 36.2943 41.3946 36.3524 41.4236 36.3815C41.5108 36.4686 41.8303 36.4686 42.6726 36.1491L43.6312 34.7549L43.6893 34.6968L45.6934 32.9249L46.7391 28.597C46.7972 28.3066 46.7101 27.9871 46.5067 27.7547C46.042 27.2899 45.5192 26.8833 44.9673 26.5638L44.5316 26.6509C44.2702 26.709 44.0087 26.7671 43.7473 26.7671H43.6602C43.544 26.7671 43.4569 26.709 43.3988 26.6509C43.1955 26.709 43.0212 26.7381 42.8179 26.7381C42.6726 26.7381 42.5564 26.7381 42.4402 26.709C42.1207 26.6509 41.8303 26.5057 41.5689 26.3024C41.5108 26.3314 41.4527 26.3314 41.3946 26.3314C41.3801 26.3314 41.3583 26.3242 41.3365 26.3169C41.3147 26.3096 41.2929 26.3024 41.2784 26.3024ZM35.9339 38.4728C36.3115 38.8213 36.66 39.228 36.8924 39.6346C37.0086 39.3151 37.1538 38.9956 37.3281 38.7342L36.4567 38.6471C36.4277 38.618 36.3986 38.618 36.3696 38.618L35.9339 38.4728ZM36.5438 37.979L37.8219 38.0952C38.7514 38.0952 39.129 37.7757 39.4194 37.5143L37.0667 37.1076C37.0521 37.1076 37.0376 37.1004 37.0231 37.0931C37.0086 37.0858 36.9941 37.0786 36.9795 37.0786L34.5397 36.0039L33.7844 35.7134C33.6973 35.6553 33.6102 35.5682 33.5811 35.452L33.2326 33.7092C32.5355 34.0287 31.9545 34.4063 31.5188 34.7258L32.6516 36.701L34.0749 37.1657L36.5438 37.979ZM36.0791 29.846C36.5729 29.5846 37.0086 29.1489 37.27 28.5389C37.3862 28.3066 37.4443 28.0742 37.4733 27.8418C37.0957 28.0161 35.4691 28.6261 34.3654 28.1904C33.9878 28.0451 33.7844 28.1613 33.6683 28.2775C33.6683 29.0327 34.0168 29.7008 34.6268 29.9622C34.8592 30.0493 35.0915 30.1074 35.3529 30.0784C35.2368 29.846 35.2368 29.6137 35.2368 29.4684C35.2658 29.2651 35.411 29.1199 35.6144 29.1489C35.8177 29.178 35.9629 29.3232 35.9339 29.5265C35.9339 29.5846 35.9339 29.7589 36.0791 29.846ZM36.1953 33.8254C36.2243 34.5515 36.1372 35.2196 35.7886 35.6262C35.7596 35.6553 35.7306 35.6843 35.7015 35.7424L37.241 36.4105L39.7389 36.8172L36.8343 35.1325C36.7762 35.0744 36.7181 35.0163 36.6891 34.9582L36.1953 33.8254ZM37.5024 27.1447C37.4443 26.4766 37.1248 25.9248 36.5729 25.6633C36.1372 25.46 35.6144 25.4891 35.0915 25.7505C34.5977 26.0119 34.162 26.4766 33.9006 27.0576C33.8425 27.1738 33.7844 27.319 33.7554 27.4352C34.0168 27.3771 34.3073 27.4061 34.5977 27.5223C35.411 27.8418 36.8053 27.3771 37.27 27.1738C37.3571 27.1157 37.4152 27.1157 37.5024 27.1447ZM34.2782 23.7753C34.0459 23.7172 33.8135 23.7753 33.523 23.9787C33.0583 24.3272 32.8549 24.7629 33.0002 25.2277C33.0873 25.6633 33.3778 26.0119 33.6392 26.1571C33.9587 25.7214 34.3654 25.3438 34.8301 25.1115C34.9463 25.0534 35.0915 24.9953 35.2077 24.9662C35.0625 24.5886 34.7139 23.9206 34.2782 23.7753ZM27.9752 32.7507C26.8424 34.5225 25.6805 36.3524 25.7677 37.8338C25.9129 40.2156 26.6681 40.7094 28.1785 40.8546H31.1703C31.8383 40.8546 32.3902 41.4065 32.3902 42.0745V43.3816H36.2534C36.3115 42.4521 36.3986 41.6969 36.5148 41.0289C36.6891 39.7508 34.6558 38.2985 33.8135 37.8338L32.3031 37.34C32.2159 37.3109 32.1288 37.2819 32.0998 37.1947L30.9089 35.1325C30.8217 35.1615 30.7055 35.1906 30.6184 35.1906C30.5221 35.1906 30.4458 35.1706 30.3564 35.1473C30.3379 35.1424 30.3188 35.1374 30.2989 35.1325C29.9794 35.0163 29.776 34.7549 29.6889 34.4353L29.137 31.9374C29.0789 31.7631 29.2242 31.5598 29.3984 31.5307C29.5727 31.4726 29.776 31.6179 29.8051 31.7921L30.357 34.2901C30.386 34.3773 30.4441 34.4353 30.5312 34.4644C30.6184 34.4934 30.7055 34.4934 30.7636 34.4353C30.996 34.232 31.3155 33.9997 31.6641 33.7673C30.9669 30.3689 30.996 30.1365 31.025 30.0203C31.0541 29.817 31.2284 29.7008 31.4317 29.7298C31.606 29.7589 31.7512 29.9332 31.7222 30.1074C31.7222 30.1655 31.7512 30.6303 32.3031 33.3897L33.0873 33.0411L33.0002 31.1531C32.9711 30.9498 33.1164 30.7755 33.3197 30.7755C33.523 30.7465 33.6973 30.8917 33.6973 31.095L33.7844 33.1864L34.1911 35.1034L34.743 35.3067C35.0334 35.3358 35.1787 35.2486 35.2368 35.1615C35.7886 34.5225 35.3239 32.1697 34.9173 30.8626V30.8336V30.8046V30.7755V30.7465C34.7139 30.7174 34.5106 30.6593 34.3363 30.5722C33.6683 30.2527 33.2326 29.6137 33.0583 28.8584H33.0292C33.0277 28.8581 33.0257 28.8576 33.0233 28.857C32.8492 28.8127 30.516 28.2201 29.3984 30.3979C29.0401 31.0634 28.5915 31.774 28.1521 32.4701C28.0929 32.564 28.0338 32.6575 27.9752 32.7507ZM23.1825 41.5517C22.7178 41.5517 22.3402 41.9293 22.3402 42.394V43.3526H30.996H31.6641V42.0164C31.6641 41.9003 31.606 41.7841 31.5188 41.6969C31.4317 41.6388 31.3155 41.5808 31.1993 41.5808H30.4441C30.2185 41.5808 30.0006 41.5827 29.7906 41.5846C29.1894 41.59 28.6521 41.5948 28.1785 41.5517H23.1825ZM22.3402 49.0166H30.6474V44.0497H22.3402V49.0166ZM35.4092 48.0019C35.4099 48.0012 35.4105 48.0005 35.411 48C35.353 47.4481 34.6268 47.3029 34.2782 47.2738C34.104 47.5352 33.9006 47.9129 33.9587 48.1743C35.1838 48.2313 35.3749 48.0367 35.4092 48.0019ZM33.2326 48.1162C33.2326 47.5353 33.6102 46.9543 33.7844 46.751L34.2782 44.0497H33.0002C32.3031 46.2572 32.3902 47.5933 32.6226 48.0581C32.7305 48.0716 32.8322 48.0788 32.9276 48.0856C33.0376 48.0934 33.1392 48.1006 33.2326 48.1162ZM36.9214 43.7011C36.8343 45.0082 36.8053 46.6348 36.8053 49.0166H37.1538C37.1538 46.6929 37.1829 45.0082 37.27 43.7011V43.6721V43.643V43.614V43.5849C37.299 43.5849 37.2991 43.5559 37.2991 43.5559C37.3281 43.5559 37.3281 43.5269 37.3281 43.5269L37.3571 43.4978L37.3862 43.4688L37.4152 43.4397C37.4152 43.4107 37.4443 43.4107 37.4443 43.4107C37.4443 43.3816 37.4733 43.3816 37.4733 43.3816C37.4733 43.3526 37.5024 43.3526 37.5024 43.3526H37.5314H37.5605H37.5895H37.6186H39.2742H40.9299H42.6145H44.8511C44.8511 43.28 44.8438 43.2073 44.8366 43.1347C44.8293 43.0621 44.8221 42.9895 44.8221 42.9169H40.9589H40.9299H37.7348H37.7057H37.6767H37.6476H37.6186H37.5895H37.5605C37.5605 42.8878 37.5314 42.8878 37.5314 42.8878C37.5314 42.8588 37.5024 42.8588 37.5024 42.8588L37.4733 42.8297L37.4443 42.8007C37.4152 42.8007 37.4152 42.7717 37.4152 42.7717C37.3862 42.7717 37.3862 42.7426 37.3862 42.7426C37.3571 42.7426 37.3571 42.7136 37.3571 42.7136V42.6845V42.6555V42.6264V42.5974V42.5683V42.5393V42.5102C37.5605 40.4189 37.9381 39.2861 38.6352 38.6761C38.49 38.7342 38.3157 38.7633 38.1124 38.7633C37.4443 39.6056 37.0667 41.087 36.9214 43.7011ZM41.2784 41.3774V42.2198H42.5274C42.5855 41.8712 42.6436 41.5517 42.7017 41.3193C42.6746 41.3214 42.6476 41.3235 42.6208 41.3256C42.274 41.3524 41.9505 41.3774 41.627 41.3774H41.2784ZM38.3738 40.9127L38.3157 40.8546C38.2565 41.1111 38.2107 41.4077 38.1601 41.7355C38.1362 41.8903 38.1112 42.052 38.0833 42.2198H38.6061C38.4609 41.5807 38.3738 41.087 38.3738 41.087C38.3447 41.0289 38.3447 40.9708 38.3738 40.9127ZM39.0999 41.087C39.158 41.2903 39.2452 41.726 39.3323 42.2198H40.5522V41.3193C40.5189 41.3149 40.4854 41.3104 40.4517 41.306C40.0449 41.252 39.6096 41.1943 39.0999 41.087ZM43.4279 41.2322L43.4278 41.2322C43.412 41.3271 43.379 41.4824 43.338 41.6745C43.3039 41.8351 43.2642 42.0214 43.2245 42.2198H44.7059C44.6843 41.8957 44.6305 41.6039 44.5805 41.3321C44.5633 41.2385 44.5465 41.1473 44.5316 41.0579C44.125 41.116 43.7764 41.1741 43.4279 41.2322ZM38.4609 40.3318C38.519 40.3027 38.6061 40.3027 38.6642 40.3027C40.8427 40.7384 41.7141 40.8546 44.3573 40.3898C43.8635 38.8504 43.0502 38.7633 41.3946 38.7342L41.3453 38.7351C39.8646 38.7634 38.978 38.7804 38.4609 40.3318ZM37.9076 45.0503C37.9008 45.3585 37.8936 45.6853 37.88 46.0248C38.0833 45.8796 38.3157 45.7634 38.548 45.6472C38.596 45.6233 38.6526 45.5971 38.7115 45.57C38.8666 45.4984 39.0367 45.42 39.0999 45.3568C39.0999 45.2987 39.0709 45.0082 38.9256 44.0787H37.9381C37.9226 44.3726 37.9154 44.6994 37.9076 45.0503ZM38.9111 46.2659C38.8966 46.2727 38.8821 46.2795 38.8675 46.2863C38.7901 46.325 38.6868 46.3637 38.5835 46.4025C38.5319 46.4218 38.4803 46.4412 38.4319 46.4605C38.8095 46.4896 39.4775 46.5186 40.5522 46.5186C40.5522 46.3656 40.557 46.1649 40.5627 45.9261C40.571 45.5757 40.5813 45.1434 40.5813 44.6597V44.0497H39.6808C39.8374 45.0937 39.8299 45.3403 39.8267 45.4428C39.8264 45.4544 39.8261 45.4641 39.8261 45.473C39.7699 45.8661 39.3337 46.0692 38.9111 46.2659ZM42.9485 46.2659C42.526 46.0692 42.0898 45.8661 42.0336 45.473C42.0046 45.3858 41.9755 45.2406 42.1498 44.0787H41.2494V44.6887C41.2784 45.4728 41.2784 46.1697 41.2784 46.5474V46.5477C42.3531 46.5477 43.0212 46.5186 43.3988 46.4896C43.3194 46.43 43.2129 46.3841 43.1163 46.3424C43.0715 46.323 43.0289 46.3047 42.9921 46.2863C42.9776 46.2795 42.9631 46.2727 42.9485 46.2659ZM45.5482 43.7011C45.6353 45.0082 45.6644 46.722 45.6644 49.0166H45.9549C45.9549 46.5767 45.9258 44.9501 45.8387 43.614C45.8242 43.4543 45.8096 43.2874 45.7951 43.1204C45.7806 42.9533 45.7661 42.7862 45.7515 42.6264C45.6644 41.6388 45.5192 40.8546 45.3449 40.2446V40.2156C44.793 38.3276 43.8635 37.7466 41.3655 37.6885H41.3655C41.1331 37.6885 40.9008 37.6885 40.6975 37.7176C40.4941 37.7176 40.2908 37.7466 40.0875 37.7757C40.0109 37.8714 39.9218 37.9545 39.8283 38.0415C39.7799 38.0866 39.7304 38.1328 39.6808 38.1823C40.1746 38.0661 40.7265 38.008 41.3946 38.008C43.3407 38.0371 44.5606 38.2404 45.1416 40.5641C45.2868 41.087 45.3739 41.726 45.4611 42.5393C45.4901 42.8878 45.5192 43.2654 45.5482 43.7011ZM42.3241 37.0205C43.5731 37.1367 44.5025 37.4562 45.1996 38.2695L44.8221 34.6387L44.183 35.2196L43.1955 36.6719C43.1374 36.73 43.0793 36.7591 43.0212 36.7881C42.9305 36.8183 42.8434 36.8485 42.7597 36.8775C42.6021 36.9322 42.4569 36.9825 42.3241 37.0205ZM43.3409 20.4059L43.2828 20.6964C43.2538 20.8997 43.37 21.074 43.5443 21.103H43.6023C43.7766 21.103 43.9219 20.9868 43.9509 20.8126L44.009 20.5221L44.2995 20.5802H44.3576C44.5318 20.5802 44.6771 20.464 44.7061 20.2897C44.7352 20.0864 44.619 19.9121 44.4447 19.8831L44.1542 19.825L44.2123 19.5345C44.2414 19.3312 44.1252 19.1569 43.9509 19.1279C43.7476 19.0988 43.5733 19.215 43.5443 19.3893L43.4862 19.6798L43.1957 19.6217C42.9924 19.5926 42.8181 19.7088 42.7891 19.8831C42.731 20.1155 42.8472 20.3188 43.0505 20.3478L43.3409 20.4059ZM42.6143 25.7505C42.6434 25.7505 42.6797 25.7577 42.716 25.765C42.7523 25.7723 42.7886 25.7795 42.8176 25.7795C43.05 25.7795 43.2533 25.7214 43.4567 25.5762C43.6019 25.46 43.66 25.2567 43.5438 25.0824C43.4276 24.9372 43.2243 24.8791 43.05 24.9953C42.9629 25.0534 42.8467 25.0824 42.7305 25.0534C42.6143 25.0243 42.5272 24.9662 42.4691 24.8791C42.3529 24.7048 42.1496 24.6758 41.9753 24.7629C41.801 24.8791 41.772 25.0824 41.8591 25.2567C42.0624 25.4891 42.3239 25.6924 42.6143 25.7505Z" fill="#0071CE"/>
</svg>
