<svg width="69" height="68" viewBox="0 0 69 68" fill="none" xmlns="http://www.w3.org/2000/svg">
<path d="M32.75 1.58771C33.8329 0.962498 35.1671 0.962498 36.25 1.58771L61.6949 16.2783C62.7778 16.9035 63.4449 18.059 63.4449 19.3094V48.6906C63.4449 49.941 62.7778 51.0965 61.6949 51.7217L36.25 66.4123C35.1671 67.0375 33.8329 67.0375 32.75 66.4123L7.30514 51.7217C6.22223 51.0965 5.55514 49.941 5.55514 48.6906V19.3094C5.55514 18.059 6.22223 16.9035 7.30514 16.2783L32.75 1.58771Z" stroke="#0071CE"/>
<path fill-rule="evenodd" clip-rule="evenodd" d="M46.6744 23.0431C46.6488 23.0652 46.6218 23.0871 46.5934 23.1089C46.5885 23.104 46.5835 23.0997 46.5792 23.096C46.5538 23.0741 46.5479 23.0691 46.6744 23.0431ZM46.6913 23.0284C46.0901 22.3627 45.3836 22.2235 44.5717 22.506C43.7559 22.7897 43.2593 23.3927 43.1884 24.2439C43.1175 25.0243 43.1529 25.8046 43.1884 26.5849C43.2593 27.649 44.0042 28.2874 45.1392 28.4293C45.9905 28.5357 46.8772 28.0037 47.0545 27.0815C47.1964 26.4076 47.5511 26.1238 48.0831 25.911C48.1186 25.911 48.1895 25.8755 48.225 25.8401C49.4664 25.0952 50.1403 23.9957 50.2113 22.5414C50.3177 19.633 47.5156 17.6112 44.7491 18.6044C43.3303 19.1009 41.947 19.5975 40.5637 20.1295C40.209 20.2714 39.9607 20.2005 39.677 19.9877C38.1873 18.8527 36.4848 18.2852 34.6049 18.2852C34.4276 18.2852 34.1793 18.3916 34.0729 18.5334C33.8601 18.8881 34.1438 19.2783 34.6049 19.2783C36.3074 19.3138 37.8326 19.8458 39.1804 20.8744C39.7124 21.2645 40.28 21.3355 40.8829 21.1227L45.2456 19.5266C46.6644 19.03 48.296 19.7394 48.8989 21.1227C49.5019 22.5414 48.9699 24.2085 47.5866 24.9533C47.4683 25.0124 47.3501 25.0755 47.2319 25.1386C46.9954 25.2647 46.759 25.3908 46.5225 25.4854C46.1678 25.6272 46.0259 25.8755 46.0614 26.2657C46.0969 26.8687 45.5648 27.4007 44.9973 27.4362C44.5008 27.4362 44.0397 26.9751 44.0397 26.3721V24.4568C44.0397 23.9602 44.3944 23.5346 44.82 23.4282C45.2811 23.3218 45.7422 23.5346 45.9905 23.9957C46.1323 24.2794 46.3452 24.3858 46.6289 24.2794C47.3383 24.0666 47.8703 23.641 48.0477 22.9316C48.225 22.1867 48.0477 21.5483 47.5156 21.0163C46.9127 20.4488 46.2033 20.3069 45.423 20.5552C44.6427 20.8152 43.8624 21.1069 43.0822 21.3985L43.0822 21.3985L43.0819 21.3986C42.6918 21.5444 42.3017 21.6902 41.9115 21.8321C40.9184 22.1867 40.5637 22.8252 40.812 23.8538C41.1312 25.2371 41.1312 26.5849 40.8475 27.9327C40.6346 28.8549 40.28 29.7416 39.7834 30.5574C39.606 30.8412 39.677 31.1604 39.8898 31.3023C40.0671 31.4442 40.3864 31.3732 40.5637 31.1959C40.6346 31.1249 40.6701 31.054 40.7056 30.9831C42.0534 28.6776 42.3726 26.2302 41.8051 23.6765C41.6987 23.1799 41.8051 23.0025 42.2662 22.8252C43.1912 22.4608 44.1384 22.1185 45.0727 21.7809L45.0728 21.7809C45.3207 21.6913 45.5677 21.6021 45.8131 21.5128C46.3097 21.3355 46.6998 21.4774 46.9127 21.8675C47.1423 22.3268 47.0685 22.6951 46.6913 23.0284ZM39.6769 22.3641C38.1872 21.0162 36.4492 20.3423 34.7467 20.3069C32.4767 20.3069 30.5259 21.0872 29.0362 22.3995C28.8234 22.6123 28.7525 22.8252 28.8943 23.1089C28.9121 23.1444 28.9298 23.1887 28.9476 23.2331C28.9653 23.2774 28.983 23.3217 29.0008 23.3572L29.9584 25.911C30.0294 26.1593 30.2067 26.3366 30.455 26.3011C30.6323 26.2657 30.8097 26.0883 30.9161 25.9464C30.978 25.8536 30.9319 25.6799 30.8956 25.5429L30.8956 25.5428C30.8903 25.5227 30.8851 25.5035 30.8806 25.4853C30.6323 24.7405 30.3486 23.9602 30.0648 23.2153C29.9939 23.0025 30.0294 22.8961 30.2067 22.7542C32.5831 20.8034 36.201 20.8034 38.5774 22.7897C38.7902 22.967 38.7902 23.0735 38.7193 23.3217C38.2759 24.5277 37.8325 25.7425 37.3892 26.9573C36.9458 28.1721 36.5025 29.3869 36.0591 30.5929C35.2788 32.7565 35.0305 34.991 35.3497 37.2611C35.6335 39.1764 35.7044 41.0562 35.4206 42.9361C35.2315 44.2603 35.1369 45.5845 35.0423 46.9086C34.995 47.5707 34.9477 48.2328 34.8886 48.8949C34.8531 49.3205 35.0305 49.6043 35.3142 49.6397C35.6335 49.6752 35.8817 49.3915 35.9172 49.0013C35.9349 48.753 35.9527 48.5136 35.9704 48.2742L35.9704 48.274C35.9882 48.0347 36.0059 47.7953 36.0236 47.5471C36.044 47.2725 36.0585 46.9949 36.073 46.717V46.7169C36.1091 46.0256 36.1454 45.3318 36.2719 44.6741C36.6975 42.2622 36.7685 39.8503 36.4492 37.4384C36.13 35.2748 36.3428 33.1466 37.0877 31.0894C37.5664 29.7951 38.0363 28.5008 38.5061 27.2065L38.5062 27.2063L38.5062 27.2062L38.5063 27.206L38.5063 27.2059L38.5064 27.2057L38.5065 27.2056C38.9764 25.911 39.4464 24.6164 39.9252 23.3217C40.1026 22.8252 40.0671 22.7188 39.6769 22.3641ZM22.2617 23.1799C22.8647 22.5769 23.574 22.2931 24.4253 22.5414C25.2056 22.7542 25.8795 23.6055 25.915 24.4213C25.915 24.7405 25.7376 24.9533 25.4539 24.9888C25.1701 25.0242 24.9573 24.8469 24.9219 24.5277C24.8155 23.8538 24.4608 23.4991 23.8933 23.4636C23.4676 23.4636 23.1839 23.6409 23.0065 23.9956C22.7937 24.3503 22.6164 24.4213 22.1907 24.3149C21.1621 23.9602 20.5946 22.7897 20.9493 21.6901C21.2685 20.697 22.4036 20.2005 23.4322 20.5906C24.6736 21.0162 25.8795 21.4773 27.0855 21.9384C28.0077 22.2577 28.3269 22.967 28.1141 23.9247C27.4047 27.0814 28.0786 29.848 30.3841 32.1535C31.5546 33.324 31.8028 34.8137 31.0225 36.3388C30.5614 37.261 30.2777 38.2542 30.3486 39.3183C30.4196 39.9922 30.5969 40.6661 30.7742 41.34C30.8452 41.6237 30.8452 41.8365 30.5969 42.0139C30.3131 42.1912 30.0649 42.1203 29.9585 41.8011C29.1427 39.7794 29.2136 37.7931 30.2422 35.8423C30.8097 34.7428 30.6324 33.7142 29.7456 32.8274C27.5466 30.6638 26.7308 28.0036 26.9791 24.9533C27.0021 24.6544 27.0549 24.3704 27.1085 24.0819C27.1376 23.9254 27.1669 23.7677 27.1919 23.6055C27.2628 23.2508 27.1564 23.038 26.8017 22.8961C25.5603 22.435 24.3189 21.9739 23.0775 21.5483C22.5809 21.3709 22.1553 21.5837 21.9425 22.0094C21.6942 22.3995 21.8006 22.8252 22.2617 23.1799ZM24.2479 18.6399C21.5522 17.6822 18.7856 19.5975 18.7856 22.5769C18.7856 23.3927 19.1049 24.2439 19.7788 25.0597C20.2399 25.6272 20.8783 25.9819 21.5168 26.2657C21.7296 26.3721 21.8005 26.4785 21.836 26.6913C22.0133 27.8618 22.7227 28.4648 23.8222 28.5002C25.0637 28.5357 25.844 27.4007 25.8085 26.3721C25.8085 26.0883 25.5602 25.8755 25.3119 25.8755C25.0637 25.8755 24.8508 26.0529 24.8154 26.3366V26.5494C24.709 27.2233 24.1769 27.6135 23.5385 27.4362C23.0774 27.2943 22.7936 26.9041 22.8291 26.3721C22.8646 25.9465 22.7227 25.6627 22.3325 25.4854C21.9424 25.308 21.5877 25.1307 21.233 24.9179C20.1689 24.3504 19.6014 23.1799 19.7433 22.0449C20.0271 20.0586 21.9069 18.9236 23.7868 19.5975L28.1495 21.1936C28.6106 21.371 29.0717 21.3355 29.4973 21.0517C30.384 20.4133 31.3417 19.9167 32.3703 19.5975C32.4767 19.562 32.6186 19.4911 32.654 19.3847C32.725 19.2073 32.7604 18.9591 32.6895 18.8172C32.5831 18.5689 32.2993 18.5689 32.0511 18.6399C31.0579 18.9236 30.1357 19.3847 29.2845 20.0231C29.0362 20.2359 28.7879 20.3069 28.4332 20.165C27.3381 19.7438 26.2208 19.3449 25.1165 18.9506L25.1165 18.9506L25.1163 18.9505C24.8257 18.8467 24.536 18.7433 24.2479 18.6399ZM33.6117 35.3457C33.5525 35.9774 33.4823 36.5981 33.4133 37.2078C33.3584 37.6936 33.3042 38.1725 33.257 38.6443C33.0797 40.5242 33.2216 42.4041 33.5408 44.2839C33.6472 44.9756 33.6937 45.6672 33.7403 46.3588C33.7558 46.5894 33.7713 46.8199 33.7891 47.0505C33.8068 47.3697 33.8334 47.68 33.86 47.9904V47.9904V47.9904V47.9904V47.9904V47.9905V47.9905C33.8866 48.3008 33.9132 48.6111 33.9309 48.9303C33.9664 49.3205 33.7891 49.4979 33.4698 49.4979C33.1152 49.4979 32.9378 49.3205 32.9023 48.9658C32.8669 48.5047 32.8353 48.0436 32.8038 47.5825C32.7408 46.6603 32.6777 45.7381 32.5831 44.816C32.5477 44.4081 32.4856 44.009 32.4235 43.61C32.3614 43.211 32.2994 42.812 32.2639 42.4041C32.0866 40.6306 32.1575 38.8217 32.4058 37.0482C32.6895 35.0265 32.5122 33.0402 31.8383 31.1249C31.8205 31.0895 31.8117 31.054 31.8028 31.0185L31.8028 31.0185C31.7939 30.983 31.7851 30.9476 31.7673 30.9121C31.6609 30.5929 31.8028 30.3091 32.0866 30.2027C32.3703 30.0963 32.6541 30.2737 32.725 30.5929C32.765 30.7261 32.8062 30.8606 32.8477 30.996L32.8477 30.996C33.0273 31.582 33.2127 32.187 33.328 32.7919C33.4637 33.6402 33.5345 34.456 33.6025 35.2393L33.6117 35.3457ZM37.7616 36.2324C38.2227 37.1192 38.4355 38.0414 38.471 39.0345C38.4355 40.0631 38.1872 41.0562 37.7261 41.9784C37.6375 42.1558 37.5399 42.3243 37.4424 42.4927L37.4423 42.4928C37.3448 42.6613 37.2473 42.8297 37.1586 43.007C36.7685 43.681 36.8394 44.3903 37.336 44.9933C37.5488 45.2416 37.6197 45.4899 37.5488 45.8091C37.4601 46.3233 37.3715 46.8287 37.2828 47.3341L37.2827 47.3344C37.1941 47.8398 37.1054 48.3452 37.0167 48.8594C36.9458 49.2496 37.0877 49.5688 37.4069 49.6043C37.7261 49.6397 37.9389 49.4624 38.0099 49.0722L38.5419 45.88C38.6129 45.348 38.5064 44.8869 38.1518 44.4967C37.868 44.142 37.868 43.7873 38.0808 43.4327L38.5064 42.6878C39.8543 40.3469 39.7833 37.9704 38.6483 35.594C38.471 35.2393 38.4 34.8137 38.4 34.4235C38.3646 33.8206 38.6838 33.2885 39.0739 32.8629C39.2868 32.6146 39.2868 32.3663 39.0739 32.1535C38.8611 31.9762 38.5774 31.9762 38.3646 32.189C38.1872 32.3663 38.0453 32.5437 37.9035 32.7565C37.1941 33.8915 37.1941 35.062 37.7616 36.2324ZM31.98 43.8583C31.9091 44.3549 31.7672 44.745 31.4835 45.1352C31.3771 45.2771 31.3061 45.5253 31.3416 45.7027C31.4308 46.3493 31.548 46.996 31.6669 47.6514L31.6669 47.6515L31.6669 47.6516C31.7371 48.0387 31.8078 48.4289 31.8736 48.824C31.8736 48.8772 31.8825 48.9215 31.8914 48.9658C31.9002 49.0102 31.9091 49.0545 31.9091 49.1077C31.9091 49.3915 31.7318 49.6043 31.448 49.6397C31.1643 49.6752 30.9514 49.5333 30.8805 49.2496L30.8325 48.9781C30.6361 47.8674 30.4442 46.7825 30.313 45.6672C30.2775 45.348 30.4903 44.9224 30.6677 44.6386C30.8805 44.2485 30.9869 43.9292 30.8096 43.5036C30.7032 43.2908 30.845 43.007 31.0933 42.9006C31.3416 42.7942 31.5899 42.8297 31.7318 43.078C31.7912 43.1968 31.8285 43.3378 31.8684 43.4885C31.8999 43.6077 31.9331 43.733 31.98 43.8583ZM31.6609 29.3515C31.9091 29.2806 32.0155 29.1032 32.051 28.7485C31.9935 28.6192 31.9302 28.4724 31.8635 28.3176C31.7654 28.0903 31.6599 27.8456 31.5544 27.6135C31.448 27.4362 31.1998 27.4007 30.9869 27.5071C30.7741 27.6135 30.6323 27.7909 30.7032 28.0392C30.7741 28.4293 30.916 28.784 31.0934 29.1032C31.1998 29.316 31.4126 29.4225 31.6609 29.3515Z" fill="#0071CE"/>
</svg>
