<svg width="69" height="68" viewBox="0 0 69 68" fill="none" xmlns="http://www.w3.org/2000/svg">
<path d="M32.75 1.58771C33.8329 0.962498 35.1671 0.962498 36.25 1.58771L61.6949 16.2783C62.7778 16.9035 63.4449 18.059 63.4449 19.3094V48.6906C63.4449 49.941 62.7778 51.0965 61.6949 51.7217L36.25 66.4123C35.1671 67.0375 33.8329 67.0375 32.75 66.4123L7.30514 51.7217C6.22223 51.0965 5.55514 49.941 5.55514 48.6906V19.3094C5.55514 18.059 6.22223 16.9035 7.30514 16.2783L32.75 1.58771Z" stroke="#0071CE"/>
<path fill-rule="evenodd" clip-rule="evenodd" d="M50.1471 25.4774C50.1723 25.4019 50.1974 25.3264 50.2142 25.2425V24.0678C50.0128 23.7322 49.7108 23.6315 49.3416 23.6651H48.7711H40.6156C37.9642 23.6986 35.9505 25.2089 35.2457 27.7596C35.2289 27.7764 35.2206 27.8015 35.208 27.8393C35.1954 27.8771 35.1786 27.9274 35.145 27.9945V25.1753V25.0411C37.2259 24.437 37.7293 22.6918 37.4944 21.4836C37.2259 20.0404 35.9505 19 34.4738 19C33.0307 19.0336 31.7553 20.074 31.4868 21.5171C31.3526 22.2219 31.4533 22.8931 31.8224 23.5308C32.2923 24.3363 32.9971 24.8062 33.9033 25.0411V27.9274C33.8697 27.8938 33.8361 27.8267 33.8361 27.7932C33.2991 25.4774 31.1512 23.6315 28.332 23.6651C26.4091 23.6874 24.501 23.68 22.588 23.6725C21.6296 23.6688 20.67 23.6651 19.7067 23.6651H19.7066C19.5724 23.6651 19.4382 23.6651 19.3039 23.6986C19.0019 23.7322 18.8341 23.9336 18.8005 24.2021C18.6998 25.5445 19.1026 26.6521 20.2437 27.424C20.445 27.5582 20.5122 27.6925 20.5122 27.8938C20.5122 29.0349 21.0492 29.9075 21.9889 30.5452C22.056 30.6123 22.1567 30.7801 22.1567 30.8808C22.1902 31.4849 22.3245 32.0219 22.6265 32.5254C23.3313 33.6329 24.3382 34.1027 25.6135 34.1027H33.5005H33.9033V36.0493H30.782C30.0772 36.0493 29.4731 36.3178 29.0368 36.8884C28.4663 37.5932 28.3656 38.3651 28.7348 39.2041C29.1375 40.0767 29.8423 40.513 30.782 40.513H33.5341H33.8697V42.4596H33.5341C33.2333 42.4596 32.9287 42.4559 32.623 42.4522C32.0077 42.4447 31.3874 42.4372 30.782 42.4596C29.7416 42.4596 28.9361 43.2986 28.9026 44.339C28.869 45.3794 29.6409 46.2521 30.6813 46.3192C31.2613 46.3696 31.8602 46.3632 32.4496 46.3569C32.6446 46.3548 32.8387 46.3527 33.0307 46.3527H33.9033V47.7288C33.9033 48.1651 34.1382 48.4671 34.5074 48.4671C34.8765 48.4671 35.1115 48.1651 35.1115 47.7288V46.3527H35.5142H39.6759H39.676C39.8102 46.3527 39.9444 46.3527 40.0786 46.3192C40.3807 46.2856 40.582 46.0171 40.582 45.7486C40.582 45.4466 40.3807 45.1781 40.0786 45.1445H39.7094H35.5142H35.1786V43.6678H38.367C39.8101 43.6678 40.817 42.4596 40.582 41.05C40.3807 40.0767 39.5416 39.3048 38.5683 39.2712H35.5142H35.1786V37.2575H35.5142H38.4676C39.5081 37.224 40.4142 36.4521 40.5485 35.4116C40.5729 35.1189 40.5441 34.8085 40.5136 34.4803C40.5022 34.3569 40.4905 34.2311 40.4813 34.1027H40.7498H43.5019C45.4485 34.0692 46.7574 32.7938 46.8245 30.8808C46.8581 30.7801 46.9252 30.6459 46.9923 30.5788C47.9991 29.9075 48.5026 29.0014 48.5361 27.8267C48.5361 27.6925 48.6368 27.5582 48.7375 27.4911C49.3752 27.0548 49.845 26.4507 50.08 25.7123C50.0968 25.6284 50.1219 25.5529 50.1471 25.4774ZM35.6149 32.7938H35.2793C35.321 32.6165 35.3595 32.4391 35.3978 32.2628C35.4826 31.8718 35.5664 31.4858 35.682 31.1158C35.8505 30.3015 36.0425 29.5107 36.2383 28.7041C36.2765 28.5466 36.3149 28.3884 36.3533 28.2294C36.8231 26.1822 38.3334 24.9404 40.4478 24.9069C42.3036 24.8845 44.1445 24.8919 45.9904 24.8994C46.9152 24.9031 47.8413 24.9069 48.7711 24.9069C48.8046 24.9069 48.8298 24.9152 48.855 24.9236C48.8801 24.932 48.9053 24.9404 48.9389 24.9404C48.9053 25.8801 48.0663 26.6856 47.093 26.7192H44.106C43.7033 26.7192 43.4348 26.887 43.4012 27.2226C43.3341 27.6253 43.6026 27.9274 44.0389 27.9274H46.8581H47.2272C47.2272 28.3973 47.0594 28.7664 46.7909 29.0685C46.3882 29.5719 45.8512 29.7733 45.2135 29.7733H41.4546H41.4545C41.3203 29.7733 41.1861 29.7733 41.0854 29.8069C40.817 29.874 40.6492 30.176 40.6827 30.4445C40.7163 30.7466 40.9848 30.9815 41.3539 30.9815H44.7437H45.5492C45.5492 31.8541 44.8108 32.6596 43.9382 32.7603C43.7704 32.7938 43.6026 32.7938 43.4348 32.7938H35.6149ZM21.7163 28.1079C21.7091 28.0562 21.7009 27.9977 21.6868 27.9274C21.8546 27.9274 21.9553 27.9274 22.056 27.8938H27.3252H27.6272C27.9628 27.8603 28.1978 27.6254 28.1978 27.3233C28.2313 27.0212 27.9964 26.7527 27.6944 26.6856H27.3587H21.9217C20.8813 26.6856 20.0759 25.9137 20.0087 24.8733H20.3444H28.3656C30.6142 24.8733 32.158 26.1151 32.6615 28.2966C32.8293 29.0014 32.9971 29.7146 33.1649 30.4279C33.3327 31.141 33.5005 31.8542 33.6683 32.5589C33.6683 32.5925 33.6683 32.6596 33.7019 32.7603C33.6012 32.7938 33.5005 32.7938 33.3998 32.7938H25.5128C24.3046 32.7938 23.4992 32.1226 23.3985 30.9815H23.7341H27.5937C27.8622 30.9815 28.0971 30.8808 28.2313 30.6123C28.332 30.3774 28.2985 30.1089 28.1307 29.9747C27.9628 29.8404 27.7615 29.7397 27.5601 29.7397H23.7005C22.7608 29.7397 21.9889 29.1692 21.7539 28.2966C21.7344 28.2381 21.7263 28.1796 21.7163 28.1079ZM36.2861 22.0205C36.2861 23.0274 35.4807 23.8329 34.4402 23.8329C33.4334 23.8329 32.6279 23.0274 32.6279 22.0205C32.6279 21.0137 33.467 20.2082 34.4738 20.2082C35.4807 20.2082 36.2861 21.0137 36.2861 22.0205ZM30.6478 37.1904H33.8697V39.1706H33.0978H30.782C30.0437 39.137 29.5738 38.4993 29.8087 37.8281C29.943 37.4589 30.245 37.1904 30.6478 37.1904ZM38.2327 42.3925H35.38H35.1115V40.4794C35.2121 40.4459 35.2793 40.4459 35.3799 40.4459H35.38H38.2327C38.9039 40.4459 39.3402 40.8486 39.3402 41.4192C39.3402 41.9897 38.8704 42.3925 38.2327 42.3925ZM38.4005 35.9822H35.1115V34.0692C35.1786 34.0356 35.2121 34.0356 35.2457 34.0356H35.2457H38.2998C39.0046 34.0692 39.4745 34.6397 39.2731 35.2774C39.1724 35.6801 38.8033 35.9822 38.4005 35.9822ZM33.8697 43.6678V45.0774H33.6683H30.9498C30.4129 45.0774 30.1108 44.7753 30.1444 44.3055C30.1444 43.9699 30.4128 43.6678 30.7485 43.6678H33.8697ZM41.2196 27.9274C41.5553 27.9274 41.8573 27.6589 41.8573 27.3233C41.8573 26.9877 41.5888 26.7192 41.2532 26.7192C40.9512 26.7192 40.6491 26.9877 40.6491 27.3233C40.6155 27.6254 40.884 27.9274 41.2196 27.9274Z" fill="#0071CE"/>
</svg>
