<svg width="69" height="68" viewBox="0 0 69 68" fill="none" xmlns="http://www.w3.org/2000/svg">
<path d="M32.75 1.58771C33.8329 0.962498 35.1671 0.962498 36.25 1.58771L61.6949 16.2783C62.7778 16.9035 63.4449 18.059 63.4449 19.3094V48.6906C63.4449 49.941 62.7778 51.0965 61.6949 51.7217L36.25 66.4123C35.1671 67.0375 33.8329 67.0375 32.75 66.4123L7.30514 51.7217C6.22223 51.0965 5.55514 49.941 5.55514 48.6906V19.3094C5.55514 18.059 6.22223 16.9035 7.30514 16.2783L32.75 1.58771Z" stroke="#0071CE"/>
<path fill-rule="evenodd" clip-rule="evenodd" d="M44.3139 42.3589C44.3139 46.413 41.0132 49.7137 36.959 49.7137C35.1652 49.7137 33.443 49.0679 32.1156 47.9199C31.9721 47.7764 31.9362 47.5252 32.0797 47.3817C32.1515 47.2741 32.2591 47.2382 32.3667 47.2382C32.4744 47.2382 32.5461 47.2741 32.6179 47.3458C33.8377 48.4222 35.3804 48.9962 36.9949 48.9962C40.6185 48.9962 43.5963 46.0543 43.5963 42.3948V39.2734H43.4528H42.8788H42.7353V42.3948C42.7353 45.552 40.1521 48.1351 36.9949 48.1351C33.8377 48.1351 31.2545 45.552 31.2545 42.3948V38.6276H30.3935V42.3948C30.3935 43.5428 30.6805 44.655 31.2545 45.6596C31.2592 45.6735 31.2638 45.6868 31.2683 45.6997C31.2985 45.7864 31.3216 45.8529 31.2904 45.9466C31.2545 46.0184 31.1828 46.126 31.111 46.1619C31.0393 46.1978 30.9316 46.2336 30.824 46.1978C30.7523 46.1619 30.6446 46.0901 30.6087 46.0184C29.9629 44.9062 29.64 43.6505 29.64 42.3948V38.52V38.4124V38.3406L29.6042 38.3047C29.4607 38.1253 29.353 37.8742 29.353 37.6231V36.6544L29.2813 36.6185C28.9942 36.5109 28.7431 36.2238 28.6714 35.9009L28.6355 35.8292L28.5637 35.7933C27.2004 35.3987 25.9447 34.6452 24.9042 33.6407C23.2539 32.0262 22.3569 29.8377 22.3569 27.5415V21.9447C22.3569 20.4737 23.5768 19.2538 25.0477 19.2538H25.9447L25.9806 19.1821C26.4111 18.6081 27.0569 18.2852 27.7385 18.2852C28.9225 18.2852 29.8912 19.2538 29.8912 20.4378C29.8912 21.6218 28.9225 22.5904 27.7385 22.5904C27.021 22.5904 26.3752 22.2675 25.9806 21.6935L25.9447 21.6217H25.0477C24.8684 21.6217 24.7249 21.7653 24.7249 21.9447V23.021C24.7249 23.2004 24.5813 23.3797 24.3661 23.3797C24.1867 23.3797 24.0073 23.2362 24.0073 23.021V21.9447C24.0073 21.3347 24.5096 20.8683 25.0836 20.8683H25.6577L25.6218 20.7248C25.5859 20.6172 25.5859 20.5454 25.5859 20.4378C25.5859 20.384 25.5949 20.3391 25.6038 20.2943C25.6128 20.2494 25.6218 20.2046 25.6218 20.1508L25.6577 20.0073H25.0836C24.0073 20.0073 23.1462 20.8683 23.1462 21.9447V27.5415C23.1462 29.6224 23.9714 31.5957 25.4783 33.1025C26.3393 33.9636 27.3798 34.6094 28.492 34.9681L28.6714 35.0399V34.143L28.5996 34.1071C27.6668 33.7842 26.8057 33.246 26.0882 32.5285C24.7607 31.201 24.0073 29.443 24.0073 27.5774V25.353C24.0073 25.1736 24.1508 24.9942 24.3661 24.9942C24.5455 24.9942 24.7249 25.1377 24.7249 25.353V27.5774C24.7249 29.2636 25.4065 30.8422 26.5905 32.0262C27.2363 32.6361 27.9897 33.1384 28.779 33.4254L28.8508 33.4613L28.9225 33.3895C29.1019 33.1384 29.3889 33.0307 29.6759 33.0307H32.0438C32.3308 33.0307 32.6179 33.1743 32.7973 33.3895L32.869 33.4613L32.9408 33.4254C33.7659 33.1025 34.5194 32.6361 35.1652 31.9903C36.3132 30.8422 36.959 29.2995 36.959 27.6491V21.9447C36.959 21.7653 36.8155 21.6217 36.6361 21.6217H35.811L35.7751 21.6935C35.3446 22.2675 34.6988 22.5904 34.0171 22.5904C32.8331 22.5904 31.8644 21.6218 31.8644 20.4378C31.8644 19.2538 32.8331 18.2852 34.0171 18.2852C34.7346 18.2852 35.3804 18.6081 35.7751 19.1821L35.811 19.2538H36.6361C38.1071 19.2538 39.3269 20.4737 39.3269 21.9447V23.7744C39.3269 23.9538 39.1834 24.1332 38.9682 24.1332C38.7888 24.1332 38.6094 23.9897 38.6094 23.7744V21.9447C38.6094 20.8683 37.7483 20.0073 36.672 20.0073H36.1339L36.1697 20.1508C36.2056 20.2584 36.2056 20.3302 36.2056 20.4378C36.2056 20.4916 36.1966 20.5365 36.1877 20.5813C36.1787 20.6262 36.1697 20.671 36.1697 20.7248L36.1339 20.8683H36.672C37.2819 20.8683 37.7483 21.3706 37.7483 21.9447V27.6491C37.7483 29.5148 37.0308 31.2369 35.7392 32.5285C34.9858 33.246 34.1247 33.8201 33.156 34.143L33.0843 34.1788V35.0758L33.2637 35.004C34.4117 34.6094 35.4881 33.9636 36.3491 33.1025C37.8201 31.6315 38.6094 29.6942 38.6094 27.6133V26.0347C38.6094 25.8553 38.7529 25.6759 38.9682 25.6759C39.1475 25.6759 39.3269 25.8194 39.3269 26.0347V27.6133C39.3269 29.8735 38.4659 31.9903 36.8514 33.6048C35.811 34.6452 34.5194 35.3987 33.1201 35.7933L33.0484 35.8292L33.0125 35.9009C32.9408 36.2238 32.7255 36.5109 32.4026 36.6185L32.3308 36.6544V37.6231C32.3308 37.8742 32.2591 38.1253 32.0797 38.3047L32.0438 38.3406V38.4124V38.52V42.3948C32.0438 45.1214 34.3041 47.3817 37.0308 47.3817C39.7575 47.3817 42.0177 45.1573 42.0177 42.3948V39.1299L41.9101 39.094C40.2239 38.52 39.1117 36.9773 39.1117 35.2193C39.1117 32.9949 40.9414 31.1651 43.1658 31.1651C45.3902 31.1651 47.22 32.9949 47.22 35.2193C47.22 36.9414 46.1078 38.52 44.4215 39.0582L44.3139 39.094V42.3589ZM32.5461 20.4019C32.5461 21.1912 33.1919 21.8011 33.9453 21.8011C34.7346 21.8011 35.3445 21.1912 35.3445 20.4019C35.3445 19.6126 34.6987 19.0027 33.9453 19.0027C33.156 19.0027 32.5461 19.6126 32.5461 20.4019ZM29.0301 20.4019C29.0301 19.6126 28.3843 19.0027 27.6309 19.0027C26.8775 19.0027 26.2317 19.6126 26.2317 20.4019C26.2317 21.1912 26.8416 21.8011 27.6309 21.8011C28.4202 21.8011 29.0301 21.1912 29.0301 20.4019ZM29.2813 35.6139C29.2813 35.7933 29.4248 35.9009 29.5683 35.9009H31.9362C32.1156 35.9009 32.2232 35.7574 32.2232 35.6139V33.9636C32.2232 33.7842 32.0797 33.6766 31.9362 33.6766H29.5683C29.3889 33.6766 29.2813 33.8201 29.2813 33.9636V35.6139ZM31.2186 37.8383C31.3622 37.8383 31.4698 37.7307 31.4698 37.5872V36.6544H30.0347V37.5872C30.0347 37.7307 30.1423 37.8383 30.2858 37.8383H31.2186ZM39.8292 35.2193C39.8292 37.049 41.3002 38.52 43.1299 38.52C44.9597 38.52 46.4307 37.0132 46.4307 35.2193C46.4307 33.3895 44.9597 31.9186 43.1299 31.9186C41.3002 31.9186 39.8292 33.3895 39.8292 35.2193ZM41.3001 35.2193C41.3001 34.2148 42.1253 33.3896 43.1299 33.3896C44.1344 33.3896 44.9237 34.2148 44.9596 35.2193C44.9596 36.2239 44.1344 37.0491 43.1299 37.0491C42.1253 37.0491 41.3001 36.2239 41.3001 35.2193ZM42.0536 35.1834C42.0536 35.7934 42.5558 36.2598 43.1299 36.2598C43.7039 36.2598 44.1703 35.7934 44.2062 35.1834C44.2062 34.5735 43.7039 34.1071 43.1299 34.1071C42.52 34.1071 42.0536 34.6094 42.0536 35.1834Z" fill="#0071CE"/>
</svg>
