<svg width="69" height="68" viewBox="0 0 69 68" fill="none" xmlns="http://www.w3.org/2000/svg">
<path d="M32.75 1.58771C33.8329 0.962498 35.1671 0.962498 36.25 1.58771L61.6949 16.2783C62.7778 16.9035 63.4449 18.059 63.4449 19.3094V48.6906C63.4449 49.941 62.7778 51.0965 61.6949 51.7217L36.25 66.4123C35.1671 67.0375 33.8329 67.0375 32.75 66.4123L7.30514 51.7217C6.22223 51.0965 5.55514 49.941 5.55514 48.6906V19.3094C5.55514 18.059 6.22223 16.9035 7.30514 16.2783L32.75 1.58771Z" stroke="#0071CE"/>
<path fill-rule="evenodd" clip-rule="evenodd" d="M29.8428 32.516H30.6714V21.1445H31.7571V47.1446H30.6714V35.2017C29.6248 35.2017 28.7109 35.2813 28.0578 35.3383C28.0334 35.3404 28.0093 35.3425 27.9856 35.3446C29.1571 36.1731 29.6142 37.2588 29.6142 38.9731C29.6142 41.0588 27.7285 43.316 24.7285 43.316C22.9571 43.316 21.3571 42.116 20.2428 39.916C19.3285 38.116 18.7856 35.7446 18.7856 33.5731C18.7856 31.516 19.4142 29.2303 20.4428 27.516C21.6714 25.4588 23.3856 24.3445 25.2428 24.3445H25.2999C27.5285 24.6017 29.0714 26.1731 29.0714 28.1731C29.0714 29.5731 28.5571 30.8017 27.6999 31.6588C27.7385 31.6897 27.777 31.7226 27.8166 31.7564C27.924 31.8481 28.0396 31.9468 28.1856 32.0303C28.6999 32.3445 29.2714 32.516 29.8428 32.516ZM24.7571 42.2874C26.5856 42.2874 28.5571 40.9731 28.5571 39.0303C28.5571 37.4874 28.1571 36.6874 27.0142 36.0874C26.5571 36.8588 25.7571 37.3731 24.8142 37.4588H24.7571C24.4714 37.4588 24.2428 37.2588 24.2142 36.9731C24.1857 36.6588 24.4142 36.4017 24.6999 36.3731C25.6142 36.2874 26.3571 35.4874 26.3571 34.4874C26.3571 33.516 25.6714 32.6874 24.7285 32.5731C24.4142 32.5445 24.2142 32.2588 24.2428 31.9731C24.2714 31.6588 24.5571 31.4588 24.8428 31.4874C25.1285 31.516 25.3857 31.5731 25.6428 31.6874C27.0428 31.316 27.9856 29.916 27.9856 28.2303C27.9856 26.8017 26.8428 25.6874 25.2142 25.4874C23.0142 25.4874 19.8714 28.4017 19.8714 33.6303C19.8714 37.1731 21.6142 42.2874 24.7571 42.2874ZM26.7285 32.4017C27.1857 32.916 27.4428 33.6017 27.4714 34.3446C27.5346 34.3391 27.6026 34.333 27.6751 34.3266C28.3563 34.2662 29.4374 34.1704 30.7285 34.1446V33.6017H29.8428C29.0714 33.6017 28.2999 33.4017 27.6142 32.9731C27.2999 32.7731 27.0428 32.5731 26.8428 32.3445C26.8251 32.3445 26.8075 32.3555 26.7831 32.3705C26.768 32.3799 26.7503 32.3908 26.7285 32.4017ZM43.7571 24.3731C45.6142 24.3731 47.3285 25.4874 48.5571 27.5445C49.5856 29.2588 50.2142 31.5445 50.2142 33.6017C50.2142 35.7731 49.6713 38.1446 48.7571 39.9446C47.6428 42.1446 46.0428 43.3446 44.2713 43.3446C41.2428 43.3446 39.3856 41.0874 39.3856 39.0017C39.3856 37.316 39.8713 36.2017 41.0142 35.3731C40.3285 35.316 39.3856 35.2588 38.2999 35.2303V47.1446H37.2142V35.2588C36.8142 35.2874 36.4713 35.3445 36.1285 35.4017V47.1446H35.0428V35.8017C34.357 36.116 33.957 36.516 33.957 36.916V47.2017H32.8713V36.916C32.8713 35.3445 34.9285 34.2017 37.757 34.2017C39.4142 34.2017 40.7856 34.316 41.557 34.4017C41.557 33.6588 41.8428 32.9731 42.2999 32.4588C42.2856 32.4445 42.2713 32.4374 42.2571 32.4303C42.2428 32.4231 42.2285 32.416 42.2142 32.4017C42.0142 32.6017 41.757 32.8303 41.4713 33.0017C40.8142 33.4017 40.0428 33.6303 39.2428 33.6303H36.6713C35.3285 33.6303 32.8713 32.9731 32.8713 31.3731V21.1731H33.957V29.1445C34.157 29.2874 34.5285 29.5445 35.0428 29.8017V21.1731H36.1285V32.516C36.2142 32.516 36.307 32.5231 36.3999 32.5303C36.4928 32.5374 36.5856 32.5445 36.6713 32.5445H37.2142V21.1731H38.2999V30.516C38.9571 30.516 39.6428 30.4303 40.3285 30.2303C40.0713 29.6303 39.9285 28.9445 39.9285 28.2017C39.9285 26.2017 41.4713 24.6302 43.6999 24.3731H43.7571ZM33.957 30.4303V31.3445C33.957 31.6588 34.4428 31.9731 35.0428 32.2017V30.9731C34.6142 30.8017 34.2428 30.6017 33.957 30.4303ZM39.2428 32.5445C39.8428 32.5445 40.4142 32.3731 40.8999 32.0588C41.0713 31.9445 41.2142 31.8303 41.3285 31.716C41.157 31.5731 41.0142 31.4017 40.8713 31.2017C40.0142 31.4874 39.1571 31.6303 38.2999 31.6303V32.5445H39.2428ZM40.4428 39.0303C40.4428 40.9731 42.4142 42.2874 44.2428 42.2874C47.3856 42.2874 49.1285 37.1446 49.1285 33.5731C49.1285 30.2588 47.2428 25.4588 43.7856 25.4302C42.1571 25.6302 41.0142 26.7445 41.0142 28.1731C41.0142 29.8588 41.9856 31.2588 43.3571 31.6303C43.6142 31.5445 43.8713 31.4588 44.1571 31.4303C44.4428 31.4017 44.7285 31.6303 44.7571 31.916C44.7856 32.2017 44.5571 32.4874 44.2713 32.516C43.3285 32.6303 42.6428 33.4303 42.6428 34.4303C42.6428 35.4303 43.3571 36.2303 44.2999 36.316C44.5856 36.3445 44.8142 36.6303 44.7856 36.916C44.7571 37.2017 44.5285 37.4017 44.2428 37.4017H44.1856C43.2428 37.316 42.4428 36.8017 41.9856 36.0303C40.8428 36.6874 40.4428 37.4874 40.4428 39.0303Z" fill="#0071CE"/>
</svg>
