<svg width="69" height="68" viewBox="0 0 69 68" fill="none" xmlns="http://www.w3.org/2000/svg">
<path d="M32.75 1.58771C33.8329 0.962498 35.1671 0.962498 36.25 1.58771L61.6949 16.2783C62.7778 16.9035 63.4449 18.059 63.4449 19.3094V48.6906C63.4449 49.941 62.7778 51.0965 61.6949 51.7217L36.25 66.4123C35.1671 67.0375 33.8329 67.0375 32.75 66.4123L7.30514 51.7217C6.22223 51.0965 5.55514 49.941 5.55514 48.6906V19.3094C5.55514 18.059 6.22223 16.9035 7.30514 16.2783L32.75 1.58771Z" stroke="#0071CE"/>
<path fill-rule="evenodd" clip-rule="evenodd" d="M38.8915 18.2852C39.4396 18.3948 39.9878 18.5044 40.536 18.6506C43.3499 19.5277 45.3964 22.1589 45.5791 25.0825C45.5791 25.2652 45.6523 25.3749 45.835 25.4845C48.6489 27.2752 50.0376 29.8699 49.8549 33.232C49.7453 35.1323 49.0144 36.7768 47.7353 38.2021C47.516 38.4579 47.2602 38.4945 47.0409 38.3483C46.7851 38.1655 46.7851 37.8732 47.0409 37.6174C47.7718 36.7768 48.32 35.8267 48.6489 34.7669C49.9645 30.3815 46.9679 25.8134 42.4363 25.2652C42.1805 25.2287 41.9247 25.2287 41.6323 25.2287C41.2669 25.1921 41.0842 25.046 41.0842 24.7536C41.0842 24.4612 41.3034 24.3151 41.6689 24.3151C42.619 24.3516 43.5692 24.4978 44.4463 24.8267C44.4614 24.8267 44.4828 24.833 44.5079 24.8403C44.5434 24.8507 44.5862 24.8632 44.629 24.8632C44.5924 24.242 44.4097 23.6938 44.1905 23.1456C42.9479 20.149 39.5858 18.5044 36.4795 19.4181C35.7121 19.6373 35.237 20.1124 35.1639 20.9529C35.1639 21.0626 35.1273 21.2453 35.0543 21.2818C35.0365 21.2907 35.0181 21.3002 34.9994 21.3098L34.9992 21.3099L34.9992 21.3099C34.864 21.3795 34.7075 21.4601 34.5792 21.428C34.433 21.3915 34.2868 21.1722 34.2502 21.0626C34.1772 20.0393 33.5559 19.5642 32.6057 19.3815C30.9612 19.0161 29.4263 19.2353 27.9646 20.0759C27.942 20.0984 27.9194 20.1071 27.8882 20.119C27.8689 20.1264 27.8463 20.135 27.8184 20.149C27.5626 20.2951 27.3068 20.222 27.1606 20.0028C27.0144 19.7835 27.0875 19.4911 27.3433 19.345C27.9646 19.0526 28.6224 18.7602 29.2436 18.541C29.5487 18.43 29.8748 18.3822 30.2059 18.3337L30.206 18.3337C30.3112 18.3183 30.4169 18.3028 30.5227 18.2852H31.6921C31.7652 18.3217 31.8383 18.3217 31.9114 18.3217C32.9347 18.4679 33.9213 18.6506 34.6157 19.5642C34.6273 19.5478 34.6391 19.5315 34.6509 19.5155C33.9588 18.644 32.9892 18.4653 31.9844 18.3217C31.9479 18.3217 31.9114 18.3126 31.8748 18.3034L31.8748 18.3034C31.8383 18.2943 31.8017 18.2852 31.7652 18.2852H37.5027H37.5758H38.8915ZM33.9579 49.7137L33.9578 49.7137C33.702 49.6041 33.4463 49.4944 33.227 49.3117C32.7154 48.9463 32.6058 48.3616 32.5327 47.7769C32.4596 47.1556 32.3865 46.5709 32.2769 45.9496C32.2769 45.84 32.1672 45.7303 32.0941 45.6938C30.9247 45.1456 29.9745 44.3051 29.3898 43.1357C29.3533 43.0626 29.2436 42.9529 29.134 42.9164C28.2569 42.4779 27.526 41.8931 26.9048 41.1257C26.8317 41.0161 26.6855 40.943 26.5758 40.943C22.9214 40.3217 20.1805 37.5443 19.5958 33.8898C19.0842 30.6373 20.6556 27.3118 23.5061 25.5576C23.7254 25.4114 23.7984 25.2653 23.835 25.0094C23.9446 23.4746 24.5293 22.1224 25.4795 20.953C25.6988 20.6606 25.9911 20.6241 26.2104 20.8068C26.4297 20.9895 26.4297 21.2819 26.2104 21.5742C25.443 22.5244 24.9679 23.6573 24.7852 24.8632C24.8813 24.8376 24.9762 24.812 25.0704 24.7866L25.0704 24.7866C25.5138 24.667 25.941 24.5517 26.3931 24.4613C26.8006 24.3934 27.2395 24.357 27.6515 24.3229L27.7453 24.3151C28.1108 24.2785 28.33 24.4613 28.33 24.7536C28.33 25.046 28.1473 25.2287 27.7818 25.2287C25.5526 25.3018 23.6888 26.1423 22.227 27.8234C18.6822 31.8799 20.7287 38.4945 25.9546 39.8101C26.0277 39.8101 26.0643 39.8466 26.0643 39.8466C25.9912 39.4994 25.9089 39.1431 25.8267 38.7868C25.7445 38.4305 25.6622 38.0742 25.5891 37.727C25.5526 37.5443 25.5526 37.3251 25.5526 37.1424V37.1423C25.5526 36.85 25.7353 36.6307 26.0277 36.6307C26.2835 36.6307 26.4662 36.8134 26.5028 37.1058L26.507 37.1564C26.5422 37.5807 26.5801 38.0362 26.6855 38.4579C27.4164 41.3084 30.2303 43.0991 33.1174 42.5144C33.8848 42.3682 34.2503 41.9297 34.2503 41.1623V39.0427V38.7868C34.2868 38.4945 34.433 38.3118 34.6888 38.3118C34.9446 38.3118 35.1639 38.4945 35.1639 38.8234V41.0161C35.1639 42.0393 35.4928 42.4413 36.4795 42.5875C39.8051 43.1357 42.8383 40.6141 42.9114 37.252V37.1058C42.9479 36.8499 43.1306 36.6672 43.3865 36.6672C43.6423 36.6672 43.825 36.85 43.825 37.1423C43.825 37.9829 43.6788 38.7868 43.3499 39.5543L43.3497 39.555L43.3497 39.555C43.3132 39.6644 43.2768 39.7737 43.2403 39.8466C43.2403 39.8832 43.2769 39.9197 43.2769 39.9197C43.5692 39.7918 43.8707 39.6639 44.1722 39.536C44.4737 39.4081 44.7752 39.2802 45.0676 39.1523C45.1364 39.1293 45.1908 39.092 45.2398 39.0583C45.2689 39.0384 45.2961 39.0197 45.3234 39.0061C45.5792 38.8599 45.835 38.933 45.9446 39.1523C46.0908 39.3716 46.0177 39.6639 45.7619 39.7736C45.1406 40.0659 44.4828 40.3583 43.825 40.6141C43.6437 40.68 43.4474 40.7088 43.2531 40.7373C43.0167 40.7719 42.7831 40.8061 42.5825 40.9064C42.3742 41.0106 42.2253 41.1978 42.0749 41.3869C41.9613 41.5296 41.8469 41.6735 41.7054 41.7835C41.4071 42.013 41.0944 42.228 40.7763 42.4468L40.7763 42.4468L40.7763 42.4468L40.7763 42.4468C40.5878 42.5764 40.3974 42.7073 40.2071 42.8433C40.0974 42.9164 39.9878 43.026 39.9147 43.1357C39.33 44.2685 38.4529 45.0725 37.2835 45.5842C37.1008 45.6573 37.0277 45.7669 37.0277 45.9496C36.9912 46.2968 36.9455 46.644 36.8998 46.9911C36.8541 47.3383 36.8084 47.6855 36.7719 48.0327C36.6622 48.8367 36.2602 49.3483 35.4928 49.6041C35.4745 49.6041 35.4654 49.6132 35.4563 49.6224C35.4471 49.6315 35.438 49.6407 35.4197 49.6407C34.9447 49.7137 34.4698 49.7137 33.9583 49.7137H33.9579ZM34.6888 42.6971C34.2137 43.2819 33.5559 43.5011 32.8616 43.5377C32.3959 43.5622 31.9302 43.5538 31.4755 43.5456C31.2523 43.5416 31.0317 43.5377 30.8151 43.5377C32.6423 45.9862 37.0277 45.8034 38.6722 43.5011C38.5612 43.5096 38.4504 43.5189 38.3399 43.528C37.0319 43.6367 35.7672 43.7418 34.6888 42.6971ZM33.4278 47.3201L33.4278 47.3201L33.4278 47.3204L33.4278 47.3208L33.4279 47.321C33.4677 47.6244 33.5084 47.9347 33.5559 48.2519C33.629 48.5808 33.9214 48.8001 34.2868 48.8001H35.0908C35.4928 48.8001 35.7851 48.5443 35.8582 48.1058C35.9253 47.7705 35.9616 47.4045 35.9953 47.0641L36.0044 46.9729C36.041 46.6805 36.0775 46.4247 36.1141 46.2054C35.1642 46.1689 34.2507 46.1689 33.2643 46.1689H33.2636C33.3256 46.5409 33.3759 46.9246 33.4277 47.32L33.4277 47.32L33.4277 47.3201L33.4277 47.3201L33.4277 47.3201L33.4278 47.3201ZM36.5527 25.3383H38.3434C39.0012 25.3383 39.2935 25.6307 39.2935 26.2885V28.1157C39.2935 28.6639 38.9646 28.9928 38.3799 28.9928H36.5161V30.7835C36.5161 31.4413 36.1872 31.7336 35.566 31.7336H33.7753C33.154 31.7336 32.8251 31.4047 32.8251 30.7835V29.1024V28.9928H32.5327H30.9248C30.4131 28.9928 30.0477 28.6639 30.0477 28.1157V26.1423C30.0477 25.6306 30.3766 25.3017 30.9248 25.3017H32.8251V24.8632V23.438C32.8251 22.8898 33.154 22.5609 33.7022 22.5609H35.6756C36.2238 22.5609 36.5161 22.8898 36.5527 23.438V25.3383ZM35.6391 30.8566V28.9928C35.6391 28.4812 35.968 28.1522 36.5161 28.1157H37.9048H38.4165V26.2885H36.6623C36.0045 26.2885 35.6756 25.9596 35.6756 25.3017V23.5476H33.8483V25.2652C33.8483 25.9961 33.556 26.2885 32.8251 26.2885H31.1075V28.1157H32.8617C33.556 28.1157 33.8483 28.4446 33.8483 29.1024V30.8566H35.6391ZM26.7951 30.82C27.0874 30.82 27.2701 30.6008 27.2701 30.3449C27.2701 30.0891 27.0509 29.9064 26.7585 29.9064C25.7352 29.9064 24.8216 30.2719 24.0908 31.0028C23.8715 31.1855 23.8715 31.4779 24.0542 31.6606C24.2369 31.8433 24.4927 31.8433 24.712 31.6606C25.2967 31.1124 25.9911 30.8566 26.7951 30.82ZM42.9115 29.9064C43.752 29.9795 44.556 30.3084 45.2504 30.9662C45.4696 31.1855 45.5062 31.4413 45.3234 31.6606C45.1407 31.8798 44.8483 31.8798 44.6291 31.6606C44.0809 31.1489 43.4597 30.8931 42.7288 30.8566C42.3268 30.82 42.1075 30.6739 42.1075 30.3815C42.144 30.0161 42.3633 29.8699 42.9115 29.9064ZM32.2403 33.9994C32.1672 33.3416 31.5825 32.7934 30.9247 32.7934C30.2669 32.7934 29.6456 33.3416 29.6091 34.036C29.5725 34.2918 29.7553 34.511 30.0111 34.5476C30.2669 34.5841 30.4862 34.4014 30.5227 34.1456C30.5593 33.8898 30.6323 33.7071 30.9247 33.7071C31.1805 33.7071 31.2901 33.8898 31.3267 34.1456C31.3632 34.438 31.5825 34.5841 31.8383 34.5476C32.0941 34.511 32.2768 34.2918 32.2403 33.9994ZM38.4529 32.7934C39.1107 32.7934 39.6955 33.3416 39.7686 33.9994C39.8051 34.2918 39.6224 34.511 39.3666 34.5476C39.1107 34.5841 38.9281 34.4014 38.855 34.1091C38.8184 33.8532 38.7088 33.7071 38.4529 33.7071C38.1971 33.7071 38.124 33.8898 38.051 34.1091C38.0144 34.4014 37.7951 34.5841 37.5393 34.5476C37.2835 34.511 37.1373 34.2552 37.1373 33.9629C37.247 33.3051 37.7951 32.7934 38.4529 32.7934ZM33.5192 35.4247C33.8481 35.7536 34.2136 35.9363 34.6887 35.9363C35.1638 35.9363 35.5658 35.7536 35.8947 35.3882C36.1139 35.1689 36.114 34.9131 35.9312 34.7303C35.7485 34.5476 35.4927 34.5476 35.2734 34.7303C34.8349 35.0958 34.5791 35.0958 34.1405 34.7303C33.9213 34.5476 33.6654 34.5476 33.4827 34.7303C33.3 34.9496 33.3 35.2054 33.5192 35.4247Z" fill="#0071CE"/>
</svg>
