<svg width="69" height="68" viewBox="0 0 69 68" fill="none" xmlns="http://www.w3.org/2000/svg">
<path d="M32.75 1.58771C33.8329 0.962498 35.1671 0.962498 36.25 1.58771L61.6949 16.2783C62.7778 16.9035 63.4449 18.059 63.4449 19.3094V48.6906C63.4449 49.941 62.7778 51.0965 61.6949 51.7217L36.25 66.4123C35.1671 67.0375 33.8329 67.0375 32.75 66.4123L7.30514 51.7217C6.22223 51.0965 5.55514 49.941 5.55514 48.6906V19.3094C5.55514 18.059 6.22223 16.9035 7.30514 16.2783L32.75 1.58771Z" stroke="#0071CE"/>
<path fill-rule="evenodd" clip-rule="evenodd" d="M50.2142 41.5914C50.1812 41.7481 50.1503 41.9049 50.1193 42.0617C50.0265 42.5322 49.9336 43.0026 49.785 43.4731C48.6626 46.8735 45.4273 49.0854 41.8619 48.8873C40.5083 48.8213 39.2869 48.4251 38.1314 47.6988C37.9663 47.5998 37.8343 47.5668 37.6692 47.6988C36.5468 48.4911 35.2922 48.8543 33.9387 48.8873C32.9813 48.9203 32.0239 48.8873 31.0996 48.6562C30.9798 48.6262 30.86 48.6506 30.7155 48.6801L30.6704 48.6892C28.6236 49.0854 26.6428 49.0524 24.761 48.0289C23.4075 47.2696 22.4171 46.1142 21.6248 44.7937C20.4693 42.8789 19.71 40.799 19.1818 38.6532C19.0828 38.257 19.2809 37.9269 19.644 37.8609C19.9741 37.7949 20.2712 37.9929 20.3703 38.4221C20.7994 40.2708 21.4597 42.0536 22.3841 43.7372C22.9453 44.7606 23.6386 45.718 24.563 46.4773C25.4543 47.2366 26.5107 47.6328 27.6662 47.6988C28.6896 47.7648 29.68 47.7318 30.6704 47.4677C30.8275 47.4154 31.0053 47.446 31.1874 47.4774C31.235 47.4856 31.2828 47.4939 31.3307 47.5007C32.6842 47.8309 34.0377 47.8309 35.3913 47.4677C35.763 47.3686 36.1162 47.195 36.4786 47.0169L36.4787 47.0169C36.599 46.9577 36.7204 46.8981 36.8439 46.8405C34.5329 44.3975 33.7076 41.5914 34.764 38.4551C35.8204 35.3189 38.1314 33.5692 41.4657 33.0079C41.3982 32.8645 41.3329 32.7211 41.2681 32.5788L41.268 32.5786L41.268 32.5785C41.0791 32.164 40.8945 31.7589 40.6734 31.3903C39.1548 28.9143 36.9099 27.5938 34.0047 27.3957C33.5756 27.3627 33.2124 27.4617 32.8823 27.7588C32.288 28.254 31.6278 28.4851 30.8685 28.4521C30.2412 28.4521 29.614 28.287 29.1188 27.8579C28.5906 27.3957 28.0294 27.3297 27.3691 27.3957C24.0017 27.8579 21.6578 29.6736 20.4363 32.8429C20.2382 33.3711 19.9411 33.6022 19.5449 33.4371C19.1818 33.3051 19.0828 32.9419 19.2809 32.4137C20.0732 30.1688 21.5258 28.4851 23.6056 27.2967C23.6695 27.254 23.7335 27.2252 23.8063 27.1923L23.8063 27.1923C23.8463 27.1742 23.8889 27.155 23.9357 27.1316C23.3745 26.5043 22.9453 25.8111 22.6812 25.0187C22.153 23.5001 22.087 21.9485 22.2521 20.3639C22.2851 20.0338 22.4831 19.8357 22.8133 19.8027C24.662 19.6046 26.4777 19.7036 28.2274 20.4959C29.3169 20.9911 30.1092 21.7835 30.6704 22.8399L30.7694 23.0379C30.7694 23.0379 30.8025 23.0379 30.8355 23.0709C30.8838 23.0226 30.9145 22.9743 30.9533 22.913C30.9676 22.8906 30.9829 22.8664 31.0006 22.8399C31.6938 21.9485 32.5852 21.4533 33.7076 21.4203C34.1368 21.3873 34.4009 21.6514 34.4339 22.0145C34.4339 22.3777 34.2028 22.6418 33.7736 22.6418C32.4861 22.7078 31.5618 23.6652 31.5618 24.9527V27.1646C31.6575 27.1008 31.7455 27.0524 31.8259 27.0082C31.9117 26.961 31.9887 26.9186 32.057 26.8675C32.7832 26.1742 33.6746 26.0752 34.599 26.2072C38.6266 26.7684 41.3006 28.9473 42.6542 32.8098C42.7202 33.0079 42.8193 33.0409 42.9843 33.0409C46.4507 33.4041 49.1578 35.781 49.9831 39.1154C50.0306 39.3054 50.063 39.4954 50.0946 39.6817C50.129 39.884 50.1627 40.0819 50.2142 40.2708V41.5914ZM42.291 47.6658C45.9555 47.6658 48.9597 44.6286 48.9597 40.9311C48.9597 37.2336 45.9555 34.1964 42.291 34.1964C38.5936 34.1964 35.5894 37.2336 35.5894 40.9641C35.6224 44.6286 38.6266 47.6658 42.291 47.6658ZM30.3403 27.0986C30.3733 26.2072 30.2742 25.4149 30.0762 24.5896C29.746 23.4011 29.1848 22.4107 28.0954 21.7834C26.7418 21.0241 25.2232 20.8921 23.7046 20.9581C23.5065 20.9581 23.5065 21.0902 23.5065 21.2222V21.2222C23.5197 21.4728 23.5224 21.7182 23.525 21.9624C23.529 22.3296 23.5329 22.6943 23.5726 23.0709C23.7046 24.2264 24.0347 25.2828 24.7941 26.1742C25.0582 26.5043 25.3223 26.7354 25.7844 26.4713L25.7845 26.4713C25.8835 26.4383 25.9825 26.4053 26.0816 26.4053C26.3415 26.3496 26.5909 26.3044 26.8475 26.2578C27.0473 26.2216 27.2514 26.1845 27.4681 26.1412C27.3691 26.0422 27.3031 25.9432 27.2372 25.8443L27.237 25.8441C26.6758 25.2168 26.1146 24.5566 25.5864 23.9293C25.2893 23.5662 25.3553 23.137 25.7184 22.9389C26.0156 22.7738 26.2797 22.8729 26.5438 23.17C26.9894 23.6817 27.4351 24.2017 27.8808 24.7216C28.3265 25.2416 28.7722 25.7615 29.2178 26.2732C29.4489 26.6034 29.8451 26.8675 30.3403 27.0986ZM19.4129 36.2432C19.0827 36.2432 18.8187 35.9791 18.7856 35.649C18.7856 35.3189 19.0497 35.0217 19.3799 35.0217C19.71 35.0217 20.0071 35.3189 20.0071 35.649C20.0401 35.9791 19.743 36.2432 19.4129 36.2432ZM44.3709 43.8693V43.0109H44.3711C44.7012 43.0109 44.9322 43.0109 45.1632 42.9779C45.9885 42.9779 46.5498 42.4167 46.5498 41.5914V40.1718C46.5498 39.3465 45.9885 38.7852 45.1632 38.7852H44.3709V37.9599C44.3379 37.1676 43.8097 36.6064 43.0173 36.5733H41.5317C40.7394 36.5733 40.1782 37.1346 40.1782 37.9269V38.7852H39.3529C38.5606 38.8182 37.9663 39.3795 37.9663 40.1718V41.5583C37.9663 42.4167 38.5275 42.9779 39.3859 43.0109H40.1782V43.8693C40.2112 44.5955 40.7064 45.1898 41.4327 45.2228C41.994 45.2558 42.5552 45.2558 43.1164 45.2228C43.8427 45.1568 44.3709 44.5955 44.3709 43.8693ZM43.1494 42.5157V43.11V43.8032C43.1824 43.9683 43.1164 44.0673 42.9183 44.0673H41.6968C41.4987 44.0673 41.4327 43.9683 41.4327 43.7702V42.6148C41.4327 42.0535 41.2016 41.8224 40.6404 41.8224H39.518C39.2869 41.8224 39.2208 41.7234 39.2208 41.5253V40.3369C39.2208 40.1388 39.2869 40.0727 39.4849 40.0727H40.6404C41.1686 40.0727 41.3997 39.8416 41.3997 39.3134V38.158C41.3667 37.9599 41.4327 37.8609 41.6638 37.8609H42.8193C43.0504 37.8279 43.1164 37.9269 43.1164 38.158V39.2804C43.1164 39.8086 43.3475 40.0397 43.9087 40.0397H45.0312C45.2623 40.0397 45.3283 40.1388 45.3283 40.3369V41.5253C45.3283 41.7234 45.2623 41.7894 45.0642 41.7894H43.8757C43.3805 41.7894 43.1494 42.0205 43.1494 42.5157Z" fill="#0071CE"/>
</svg>
