<svg width="69" height="68" viewBox="0 0 69 68" fill="none" xmlns="http://www.w3.org/2000/svg">
<path d="M32.75 1.58771C33.8329 0.962498 35.1671 0.962498 36.25 1.58771L61.6949 16.2783C62.7778 16.9035 63.4449 18.059 63.4449 19.3094V48.6906C63.4449 49.941 62.7778 51.0965 61.6949 51.7217L36.25 66.4123C35.1671 67.0375 33.8329 67.0375 32.75 66.4123L7.30514 51.7217C6.22223 51.0965 5.55514 49.941 5.55514 48.6906V19.3094C5.55514 18.059 6.22223 16.9035 7.30514 16.2783L32.75 1.58771Z" stroke="#0071CE"/>
<path fill-rule="evenodd" clip-rule="evenodd" d="M33.1529 46.2709C28.1998 46.2709 23.7716 43.4171 21.7378 38.9233C20.2289 38.5624 18.7856 36.5615 18.7856 33.7077C18.7856 32.33 19.1465 31.018 19.8025 30.0011C20.3273 29.181 21.0162 28.6562 21.7378 28.4922C23.7716 24.0311 28.1998 21.1445 33.1529 21.1445C40.0742 21.1445 45.6833 26.7865 45.6833 33.6749C45.6833 34.8558 45.5193 36.0039 45.1913 37.1191L49.8164 39.3825C50.1772 39.5465 50.3084 40.0057 50.1444 40.3665C49.9804 40.7274 49.5212 40.8586 49.1603 40.6946L43.9776 38.1688C43.6496 38.0048 43.4856 37.644 43.6168 37.2831C44.0104 36.1351 44.2072 34.9214 44.2072 33.6749C44.2072 27.5409 39.2213 22.5878 33.1201 22.5878C28.6263 22.5878 24.5916 25.2776 22.8859 29.4107C22.7875 29.6731 22.5251 29.8699 22.2299 29.8699C21.869 29.8699 21.377 30.2307 20.9834 30.7883C20.4913 31.5428 20.1961 32.5597 20.1961 33.6749C20.1961 34.7902 20.4585 35.8071 20.9834 36.5615C21.3442 37.1191 21.8362 37.48 22.2299 37.48C22.5251 37.48 22.7875 37.644 22.8859 37.9392C24.6244 42.0723 28.6263 44.762 33.1201 44.762C36.4988 44.762 39.6805 43.2531 41.7799 40.5961C41.9767 40.3337 42.3703 40.2353 42.6655 40.3993L47.9795 43.0235C48.3403 43.1875 48.4715 43.6467 48.3075 44.0076C48.1435 44.3684 47.6843 44.4996 47.3234 44.3356L42.5343 41.9738C40.1726 44.7292 36.7612 46.2709 33.1529 46.2709ZM24.4932 38.1032C23.05 38.1032 21.9347 36.2335 21.9347 33.7406C21.9347 31.2476 23.0171 29.3779 24.4932 29.3779C25.9365 29.3779 27.0518 31.2476 27.0518 33.7406C27.0518 36.2335 25.9365 38.1032 24.4932 38.1032ZM24.4932 30.8212C24.0996 30.8212 23.4108 31.9365 23.4108 33.7406C23.4108 35.5447 24.1324 36.6599 24.4932 36.6599C24.8869 36.6599 25.5757 35.5447 25.5757 33.7406C25.5757 31.9365 24.8869 30.8212 24.4932 30.8212ZM25.4116 39.3824C27.2157 41.8426 30.1023 43.3187 33.1529 43.3187C38.4012 43.3187 42.6983 39.0216 42.7311 33.7405C42.7311 28.4594 38.434 24.1623 33.1529 24.1623C30.1023 24.1623 27.2157 25.6384 25.4116 28.0986C25.2476 28.2954 25.3132 28.5906 25.51 28.7546C25.7068 28.9186 26.0021 28.853 26.1661 28.6562C27.8062 26.4585 30.3975 25.1136 33.1529 25.1136C37.9092 25.1136 41.7798 28.9842 41.7798 33.7405C41.7798 38.4968 37.9092 42.3674 33.1529 42.3674C30.3975 42.3674 27.7734 41.0554 26.1661 38.8248C26.0021 38.628 25.7068 38.5624 25.51 38.7264C25.3132 38.8904 25.2476 39.1856 25.4116 39.3824Z" fill="#0071CE"/>
</svg>
