<svg width="69" height="68" viewBox="0 0 69 68" fill="none" xmlns="http://www.w3.org/2000/svg">
<path d="M32.75 1.58771C33.8329 0.962498 35.1671 0.962498 36.25 1.58771L61.6949 16.2783C62.7778 16.9035 63.4449 18.059 63.4449 19.3094V48.6906C63.4449 49.941 62.7778 51.0965 61.6949 51.7217L36.25 66.4123C35.1671 67.0375 33.8329 67.0375 32.75 66.4123L7.30514 51.7217C6.22223 51.0965 5.55514 49.941 5.55514 48.6906V19.3094C5.55514 18.059 6.22223 16.9035 7.30514 16.2783L32.75 1.58771Z" stroke="#0071CE"/>
<path fill-rule="evenodd" clip-rule="evenodd" d="M34.0197 29.8219C33.0799 29.5984 32.3274 28.8526 32.094 27.9164H26.256V30.319C29.2708 30.3863 31.7609 32.7263 32.0671 35.6802H34.0197V29.8219ZM32.0813 26.7425C32.3419 25.5917 33.3846 24.7148 34.6067 24.7148C35.8287 24.7148 36.8714 25.5917 37.132 26.7425H43.5709H43.571H46.2122C46.5323 26.7425 46.7992 27.0093 46.7992 27.3295C46.8259 27.6496 46.5591 27.9164 46.2123 27.9164H44.1579V30.4081C46.9676 30.9027 49.0936 33.3644 49.0936 36.2938C49.1052 37.7238 48.6 39.0424 47.7525 40.0751L50.0275 42.35C50.1342 42.4567 50.2142 42.6168 50.2142 42.7769C50.2142 42.937 50.1609 43.097 50.0275 43.2037C49.8941 43.3371 49.7607 43.3905 49.6006 43.3905C49.4405 43.3905 49.2804 43.3371 49.1737 43.2037L46.8968 40.9269C45.8658 41.7653 44.549 42.27 43.1174 42.27C39.9995 42.27 37.4503 39.8766 37.1672 36.8541H32.0724C31.7867 39.8766 29.2153 42.27 26.1226 42.27C24.5661 42.27 23.1514 41.6736 22.0896 40.7002L19.8262 42.9636C19.7194 43.097 19.5593 43.1504 19.3993 43.1504C19.2392 43.1504 19.0791 43.097 18.9724 42.9636C18.8657 42.8569 18.7856 42.6968 18.7856 42.5368C18.7856 42.3767 18.839 42.2166 18.9724 42.1099L21.2846 39.7977C20.5682 38.8109 20.1463 37.5988 20.1463 36.2938C20.1463 33.343 22.2901 30.9016 25.082 30.4084V27.9164H22.6276C22.3074 27.9164 22.0406 27.6496 22.0406 27.3295C22.0406 27.1663 22.1099 27.017 22.2202 26.9098C22.3206 26.8054 22.4636 26.7425 22.6275 26.7425H25.6689H25.669H32.0813ZM37.1229 27.9164C36.8957 28.8685 36.1496 29.6077 35.1936 29.8252V35.6802H37.1723C37.4636 32.8317 39.7601 30.5837 42.603 30.3396C42.729 30.3287 42.856 30.3218 42.984 30.319V27.9164H37.1229ZM33.2193 27.3028C33.2193 26.5291 33.8329 25.9154 34.6067 25.9154C35.3804 25.9154 36.0207 26.5557 35.994 27.3028C35.994 28.0765 35.3804 28.6901 34.6067 28.6901C33.8329 28.6901 33.2193 28.0765 33.2193 27.3028ZM43.571 31.4915C43.5246 31.4915 43.4792 31.4859 43.4357 31.4753C43.3304 31.4683 43.2243 31.4648 43.1174 31.4648C40.4777 31.4648 38.3176 33.6232 38.315 36.2623L38.3151 36.2671C38.3173 36.294 38.3175 36.3205 38.3157 36.3465C38.3585 38.9516 40.5026 41.0694 43.1174 41.0694C45.7586 41.0694 47.9197 38.9084 47.9197 36.2671C47.9197 33.7923 46.0225 31.7391 43.6107 31.4901C43.5975 31.491 43.5843 31.4915 43.571 31.4915ZM22.0618 40.6746L22.0481 40.6618L19.7728 42.937C19.6928 43.0437 19.5594 43.0971 19.3993 43.0971C19.2705 43.0971 19.1168 43.0473 19.0103 42.9477L19.0258 42.9636C19.1325 43.0704 19.2392 43.1237 19.3993 43.1237C19.5327 43.1237 19.6661 43.0704 19.7728 42.9636L22.0618 40.6746ZM26.1226 41.0694C24.7455 41.0694 23.499 40.482 22.6212 39.5454C22.5926 39.497 22.5583 39.4528 22.5208 39.4153C22.4936 39.3812 22.4629 39.3524 22.4296 39.3284C21.7376 38.4958 21.3202 37.4278 21.3202 36.2671C21.3202 33.7923 23.2175 31.7391 25.6293 31.4901C25.6424 31.491 25.6557 31.4915 25.669 31.4915C25.7155 31.4915 25.7608 31.4859 25.8043 31.4753C25.9095 31.4683 26.0157 31.4648 26.1226 31.4648C28.7105 31.4648 30.8119 33.5395 30.9207 36.1078C30.906 36.1586 30.8981 36.2121 30.8981 36.2671C30.8981 36.3239 30.9065 36.3789 30.9221 36.4311C30.8349 38.9973 28.7089 41.0694 26.1226 41.0694ZM39.1421 36.2671C39.1421 38.4548 40.9296 40.2423 43.1174 40.2423C45.3051 40.2423 47.0926 38.4548 47.0926 36.2671C47.0926 36.0269 46.9059 35.8402 46.6657 35.8402C46.4256 35.8402 46.2389 36.0269 46.2389 36.2671C46.2389 37.1328 45.8931 37.9122 45.331 38.4756C44.7616 39.0396 43.979 39.3886 43.1174 39.3886C42.2537 39.3886 41.4694 39.0378 40.8996 38.4714C40.34 37.9084 39.9958 37.1307 39.9958 36.2671C39.9958 34.5329 41.4099 33.1456 43.1174 33.1456C43.3575 33.1456 43.5442 32.9588 43.5442 32.7187C43.5442 32.4786 43.3575 32.2918 43.1174 32.2918C40.9296 32.2918 39.1421 34.0793 39.1421 36.2671ZM26.1226 40.2423C23.9348 40.2423 22.1473 38.4548 22.1473 36.2671C22.1473 34.0793 23.9348 32.2918 26.1226 32.2918C26.3627 32.2918 26.5494 32.4786 26.5494 32.7187C26.5494 32.9588 26.3627 33.1456 26.1226 33.1456C24.4151 33.1456 23.001 34.5329 23.001 36.2671C23.001 37.1335 23.3474 37.9134 23.9103 38.477C24.4795 39.0401 25.2616 39.3886 26.1225 39.3886C26.9869 39.3886 27.7718 39.0373 28.3416 38.4701C28.9005 37.9071 29.2441 37.13 29.2441 36.2671C29.2441 36.0269 29.4308 35.8402 29.6709 35.8402C29.9111 35.8402 30.0978 36.0269 30.0978 36.2671C30.0711 38.4548 28.3103 40.2423 26.1226 40.2423ZM49.5878 43.337C49.4571 43.3337 49.3037 43.2804 49.2003 43.1771C49.307 43.2838 49.4138 43.3371 49.5739 43.3371L49.5878 43.337Z" fill="#0071CE"/>
</svg>
