<svg width="69" height="68" viewBox="0 0 69 68" fill="none" xmlns="http://www.w3.org/2000/svg">
<path d="M32.75 1.58771C33.8329 0.962498 35.1671 0.962498 36.25 1.58771L61.6949 16.2783C62.7778 16.9035 63.4449 18.059 63.4449 19.3094V48.6906C63.4449 49.941 62.7778 51.0965 61.6949 51.7217L36.25 66.4123C35.1671 67.0375 33.8329 67.0375 32.75 66.4123L7.30514 51.7217C6.22223 51.0965 5.55514 49.941 5.55514 48.6906V19.3094C5.55514 18.059 6.22223 16.9035 7.30514 16.2783L32.75 1.58771Z" stroke="#0071CE"/>
<path fill-rule="evenodd" clip-rule="evenodd" d="M33.5537 49.6427C32.8148 49.6404 32.498 49.3554 32.498 48.5776V46.1988C32.498 45.1336 31.8589 44.5301 30.7937 44.4946C30.3902 44.4946 29.9905 44.4906 29.5922 44.4866H29.5921H29.592H29.592H29.5919H29.5918H29.5918H29.5918H29.5918C28.7989 44.4788 28.0112 44.4709 27.2077 44.4946C26.4714 44.5134 25.8656 44.2211 25.4704 43.7616C25.524 43.8319 25.5824 43.8989 25.6455 43.962C25.7405 44.057 25.8443 44.1431 25.9554 44.2193C25.8291 44.137 25.7133 44.0392 25.61 43.9265C25.5318 43.8483 25.4607 43.763 25.3974 43.6717C25.0968 43.2795 24.9401 42.782 24.9709 42.2577C24.9947 41.5937 24.9867 40.9138 24.9788 40.2392C24.9749 39.9039 24.9709 39.5699 24.9709 39.2398C24.9709 39.0696 24.9565 38.9525 24.915 38.8725C24.8403 38.8263 24.7239 38.8138 24.5448 38.8138H24.3318C24.1543 38.8138 23.9413 38.8138 23.7637 38.7783C23.5787 38.7498 23.4107 38.6928 23.2599 38.6118C23.3745 38.6625 23.4963 38.6958 23.6217 38.7072C23.7993 38.7427 24.0123 38.7428 24.1898 38.7428H24.4383C24.6481 38.7428 24.7883 38.7617 24.8803 38.821C24.7992 38.7282 24.6533 38.7073 24.4029 38.7073C24.3307 38.7073 24.2609 38.7095 24.1922 38.7118L24.1921 38.7118H24.1921C23.9902 38.7184 23.7981 38.7247 23.5862 38.6718C23.4071 38.6442 23.2427 38.5886 23.0963 38.51C23.1484 38.5472 23.2029 38.5812 23.2599 38.6118C23.1481 38.5624 23.0432 38.4965 22.9483 38.4186C22.4422 38.0613 22.2145 37.3998 22.4501 36.719C22.6105 36.227 22.7677 35.735 22.9246 35.244L22.9247 35.2439C23.2886 34.105 23.6509 32.9712 24.0478 31.8548C24.3319 31.0737 24.4384 30.2926 24.4384 29.476C24.4384 24.7539 27.2788 20.6708 31.6458 19.0021C33.016 18.4798 34.4216 18.2544 35.7974 18.2885C37.6562 18.3112 39.5152 18.8045 41.1966 19.7477C44.108 21.3809 46.1318 24.1858 46.6999 27.4167C47.0194 29.1209 46.9129 30.8962 46.3448 33.133L46.1781 33.8085C45.6184 36.0763 45.174 37.8768 44.8181 39.5594C44.3921 41.6186 44.3565 43.7489 44.7826 46.1633C44.8529 46.5325 44.9146 46.9105 44.9804 47.3144L44.9804 47.3146L44.9805 47.3147L44.9805 47.3148C45.0476 47.7263 45.1191 48.1649 45.2087 48.6486C45.2442 48.9326 45.1732 49.1812 45.0311 49.3942C44.8536 49.6072 44.5696 49.7137 44.2855 49.7137H42.8298H40.9836H37.3621H33.5986C33.1726 49.7137 32.8839 49.6187 32.7095 49.4056C32.8682 49.5754 33.1224 49.6427 33.4921 49.6427H33.5537ZM32.7095 49.4056C32.5632 49.2493 32.4979 49.0061 32.4979 48.6486V48.6131C32.4979 48.9683 32.564 49.228 32.7095 49.4056ZM32.3109 45.3679C32.0582 44.8747 31.558 44.6011 30.8647 44.6011H29.9771H27.3142C26.8176 44.6286 26.3425 44.4847 25.9554 44.2193C26.3062 44.4479 26.7378 44.5562 27.2077 44.53C28.0953 44.4945 29.0185 44.4945 29.8706 44.53H30.7582C31.5099 44.53 32.0464 44.8282 32.3109 45.3679ZM32.3109 45.3679C32.4335 45.6071 32.4979 45.898 32.4979 46.2343V46.2698C32.4979 45.9209 32.4337 45.6184 32.3109 45.3679ZM46.6596 28.4512C46.7786 30.0159 46.5438 31.5271 46.1673 33.062C45.6348 35.1923 45.1022 37.3581 44.6406 39.4884C44.5702 39.8244 44.5113 40.1605 44.4635 40.4966C44.5121 40.1815 44.5711 39.8692 44.6406 39.5594C45.0311 37.6776 45.5282 35.6894 46.1673 33.133C46.6256 31.3573 46.7835 29.8588 46.6596 28.4512ZM45.0385 48.7548C45.0165 49.232 44.6508 49.5718 44.1436 49.5718H40.9126C40.7736 49.5864 40.633 49.598 40.491 49.6072H40.9836H42.8298H44.179C44.4631 49.6072 44.7116 49.5007 44.8536 49.3232C44.982 49.1627 45.0523 48.9733 45.0385 48.7548ZM27.6619 22.4587C27.4507 22.6972 27.2448 22.9472 27.0444 23.2087C27.206 22.9985 27.3709 22.7961 27.5391 22.6013C27.3782 22.7909 27.2204 22.9877 27.0657 23.1916C25.6455 25.0379 24.9709 27.2037 25.0064 29.618C24.9726 28.4671 25.1162 27.3726 25.4258 26.3462C25.104 27.3929 24.9537 28.4981 24.9709 29.6535C24.9709 30.4696 24.8646 31.2148 24.6164 31.9599C24.9 31.1793 25.0064 30.4341 25.0064 29.618C25.0419 30.3991 24.8999 31.1802 24.6514 31.9258C24.4974 32.3994 24.3435 32.8769 24.1896 33.3544C23.882 34.3089 23.5743 35.2635 23.2667 36.1864L23.0181 36.9675C22.9116 37.3226 22.9471 37.6421 23.1246 37.8906C23.1304 37.8986 23.1362 37.9065 23.1421 37.9143C23.1238 37.8953 23.1062 37.8755 23.0892 37.8551C23.0246 37.7647 22.9788 37.6696 22.9518 37.5698C22.995 37.7468 23.0893 37.897 23.2271 38.0106C23.1966 37.9808 23.1683 37.9486 23.1421 37.9143C23.3153 38.0941 23.5492 38.2102 23.8703 38.2102H24.2253H24.4028C24.8392 38.2102 25.1426 38.3099 25.3254 38.5341C25.2532 38.4564 25.1613 38.3979 25.0474 38.3569C25.3619 38.507 25.5035 38.8145 25.5035 39.3108V42.3288C25.5035 43.4649 26.1071 44.0685 27.2433 44.0685H30.7937C30.8283 44.0685 30.8639 44.0685 30.9 44.0688L30.8791 44.0685L30.8647 44.0685H28.9119H27.3142C26.6813 44.0685 26.2142 43.882 25.9184 43.5315C26.1975 43.8404 26.629 43.9975 27.2077 43.9975H28.8054H30.7582C30.9712 43.9975 31.2198 43.9975 31.4328 44.0685C32.4269 44.317 32.995 45.0981 33.0305 46.1633V48.0805V48.7196C33.0305 49.0036 33.1015 49.1102 33.279 49.1102H34.8768H35.4803V49.0747V48.9681V47.5125V44.033C35.4448 42.5063 34.8057 41.2636 33.5986 40.2695L33.5665 40.2479C33.4644 40.1788 33.3362 40.0919 33.208 40.0919H30.7227H29.5865C29.48 40.0919 29.3735 40.1274 29.338 40.163C29.3025 40.1985 29.267 40.2695 29.267 40.376V40.4112L29.267 40.4115V41.0764C29.2674 41.1739 29.2727 41.2665 29.338 41.2991C29.3735 41.3346 29.48 41.3701 29.5865 41.3701H31.3618C31.9654 41.3701 32.3914 41.7962 32.4269 42.3287C32.4269 42.3405 32.4267 42.3521 32.4263 42.3638C32.4267 42.3757 32.427 42.3877 32.427 42.3998C32.427 42.8968 32.0009 43.3229 31.4328 43.3229C31.208 43.3229 30.9831 43.3268 30.7582 43.3308C30.3085 43.3387 29.8588 43.3466 29.409 43.3229L29.4086 43.3229H29.3735C28.3439 43.2874 27.5273 42.5773 27.3497 41.5831C27.2787 41.2636 27.2787 40.9441 27.3142 40.6245V40.447C27.3142 38.9558 28.1663 38.0682 29.6575 38.0682H30.7937H32.924C33.5986 38.0327 34.3087 38.1037 34.8768 38.7072C34.9478 38.8138 35.0543 38.8493 35.1608 38.8493C35.2318 38.8493 35.3383 38.7783 35.4093 38.7072C35.4803 38.6363 35.4803 38.5653 35.4803 38.4943V38.4942C35.4803 38.3877 35.4093 38.3167 35.2673 38.2102C35.1963 38.1392 35.0898 38.0682 35.0188 38.0327C34.9123 37.9617 34.8057 37.8818 34.6992 37.8019C34.5927 37.722 34.4862 37.6421 34.3797 37.5711C34.3557 37.5591 34.3297 37.5451 34.3019 37.5301L34.3018 37.5301L34.3018 37.5301C34.1656 37.4567 33.9851 37.3594 33.7803 37.3581H25.4325L25.4249 37.3581H25.397C25.0064 37.3581 24.6869 37.2516 24.5448 37.0385C24.3673 36.8255 24.3673 36.5059 24.4738 36.1154C24.9354 34.5887 25.4325 33.0265 25.9295 31.4998C26.2491 30.4701 26.8882 30.0086 27.9533 30.0086H28.7699H29.1605V29.6535V28.9079V27.2392C29.1605 26.2095 29.8706 25.4284 30.9002 25.2864C31.7168 25.1799 32.5334 25.6415 32.924 26.4581L33.0305 26.7066C33.137 26.9062 33.2384 27.1108 33.3405 27.3166C33.5108 27.66 33.6828 28.0069 33.8826 28.3399C34.2022 28.9079 34.6992 29.2985 35.3738 29.476C35.7999 29.5825 36.2614 29.689 36.723 29.7245C37.9657 29.8665 38.4982 30.2926 38.8533 31.4643L39.0308 31.4288C39.1018 30.5411 39.4214 29.76 39.9894 29.1209C41.0191 27.9138 42.8653 27.7007 44.1435 28.5884C45.3502 29.4401 45.6345 31.1433 44.8191 32.5277L44.8182 32.5294L44.8165 32.5321C44.6537 32.8032 44.4702 33.0743 44.266 33.3294C44.2035 33.4076 44.139 33.4843 44.0725 33.5591C43.5755 34.1271 43.2914 34.7307 43.2559 35.4763C43.2471 35.6266 43.2251 35.7746 43.1882 35.9177C43.0711 36.392 42.8101 36.7587 42.4053 37.0021L42.4038 37.003C41.863 37.3579 41.2418 37.4232 40.6932 37.2487C40.6597 37.2387 40.6263 37.2278 40.593 37.2161C39.9895 37.003 39.4924 36.506 39.2794 35.8314C39.2034 35.6287 39.1635 35.4261 39.1211 35.2106C39.1041 35.124 39.0867 35.0353 39.0663 34.9437C39.0475 34.8872 39.0386 34.8206 39.0292 34.7493L39.0292 34.7492V34.7492C39.0223 34.6975 39.0151 34.6433 39.0035 34.5887H38.5693V35.8314V38.6363V38.6363C38.5693 38.7475 38.5693 38.8805 38.5181 38.9841C38.4925 39.104 38.4256 39.1908 38.2498 39.1688C38.1574 39.1688 38.095 39.1425 38.053 39.0997C37.8947 39.0194 37.8947 38.8122 37.8947 38.6718V38.6717V38.6363V38.3522V37.6066C37.9148 37.3849 37.8892 37.2204 37.7853 37.0806C37.6952 36.9957 37.576 36.926 37.4331 36.861C36.794 36.5237 36.1549 36.1775 35.5158 35.8313C34.8768 35.4852 34.2377 35.139 33.5986 34.8017C33.0733 34.5128 32.7229 34.1073 32.5761 33.5853C32.5007 33.3614 32.4624 33.1156 32.4624 32.8489V31.9613C32.4624 31.8123 32.4485 31.6735 32.4214 31.5455C32.2374 30.9404 31.7315 30.6122 31.0068 30.6122H27.9889C27.5017 30.6122 27.1535 30.7084 26.8975 30.9362C26.7139 31.1256 26.5765 31.3909 26.4621 31.7483C26.1758 32.7503 25.8664 33.7293 25.5526 34.7223C25.4772 34.9608 25.4016 35.2002 25.326 35.4408L25.1129 36.1864L25.1047 36.2234C25.0743 36.36 25.0515 36.4623 25.0427 36.5429L25.0419 36.5415C25.0064 36.4704 25.0419 36.3284 25.1129 36.0799L25.326 35.3343C25.3594 35.2171 25.3932 35.1003 25.4273 34.9837C25.2988 35.3947 25.1704 35.807 25.042 36.2219C24.9072 36.6263 24.9157 36.7646 25.1607 36.8077C25.1251 36.793 25.0982 36.7753 25.0774 36.7545C25.0409 36.6998 25.0326 36.6357 25.0427 36.5429C25.0799 36.6125 25.2567 36.6125 25.5035 36.6125H26.9947H33.9181H33.9181C34.0602 36.6125 34.2732 36.6125 34.4152 36.719C34.9123 37.0385 35.3738 37.3936 35.7644 37.7131C35.9263 37.8456 36.0333 38.0207 36.0803 38.2108C36.0269 38.0888 35.9446 37.978 35.8354 37.8906C35.4448 37.5711 34.9833 37.2515 34.4862 36.932C34.4495 36.9075 34.4002 36.8915 34.3454 36.881C34.3571 36.8858 34.3685 36.8909 34.3797 36.8965C34.8413 37.2161 35.3028 37.5356 35.7289 37.8906C36.0291 38.1363 36.1195 38.5077 36.0163 38.8438C36.1119 38.6388 36.1311 38.4161 36.0803 38.2108C36.2005 38.4854 36.1741 38.8164 35.9774 39.0623C35.9063 39.1639 35.8148 39.2452 35.7112 39.3036C35.4145 39.5494 34.9897 39.5893 34.6638 39.3819C34.5806 39.3264 34.5028 39.2655 34.4262 39.2056C34.3067 39.112 34.19 39.0207 34.0602 38.9558C33.9537 38.8848 33.8116 38.8138 33.6696 38.8138H29.3736C29.0675 38.8138 28.7914 38.8975 28.5648 39.0453C28.3079 39.2672 28.1308 39.5776 28.0598 39.9499C28.0243 40.3405 28.0243 40.731 28.0243 41.1216V41.1926C28.0243 41.5466 28.1316 41.8667 28.3192 42.1259C28.0677 41.8616 27.9178 41.4988 27.9178 41.0861V41.0151C27.9059 40.8963 27.898 40.7697 27.8954 40.6404C27.8915 40.8453 27.9004 41.0545 27.9178 41.2636C27.9178 42.1512 28.5924 42.7903 29.4801 42.8258H31.2908C31.4007 42.8258 31.497 42.8088 31.5765 42.779C31.5309 42.7864 31.4828 42.7903 31.4328 42.7903H31.2197H29.622C29.0671 42.769 28.6019 42.5166 28.3192 42.1259C28.5869 42.4074 28.9696 42.5773 29.409 42.5773H31.0067H31.2197C31.3973 42.5773 31.5748 42.5063 31.6458 42.4352C31.6553 42.4162 31.6648 42.3997 31.6737 42.3844C31.6978 42.3427 31.7168 42.3097 31.7168 42.2577C31.7097 42.2151 31.6984 42.1768 31.6825 42.1427C31.5866 42.067 31.4498 42.0447 31.2908 42.0447H29.4801C29.167 42.0447 28.9192 41.8977 28.7922 41.659C28.6775 41.5215 28.6079 41.3385 28.5924 41.1216V40.518V40.3405C28.5924 39.6659 28.9119 39.3463 29.5865 39.3463H29.7286H33.2435C33.4211 39.3463 33.6696 39.4173 33.8116 39.5594C34.4285 40.0294 34.9178 40.5723 35.282 41.1806C34.9323 40.6325 34.4777 40.1381 33.9181 39.7014C33.7761 39.5949 33.5631 39.5239 33.4211 39.5239H29.9061H29.7641C29.6061 39.5239 29.47 39.5433 29.3551 39.5829C29.4456 39.5671 29.5463 39.5594 29.6576 39.5594H33.3146C33.4921 39.5594 33.7051 39.6304 33.8472 39.7369C35.3323 40.8684 36.0779 42.3873 36.0839 44.2585V44.1395C36.0631 43.0362 35.7982 42.0427 35.282 41.1806C35.8421 42.0584 36.1331 43.0739 36.1549 44.2105V47.1219V48.6841V48.9681V49.0036H36.0945C36.0997 49.051 36.1076 49.0983 36.1195 49.1457L36.1549 49.1456V49.1102V49.0036H36.51H37.5396H37.5397C37.6817 49.0036 37.7526 49.0036 37.7881 48.9681C37.8236 48.9326 37.8592 48.8261 37.8592 48.6841V44.4235V43.2874V43.2164C37.8592 43.1098 37.8592 43.0388 37.8947 42.9323C37.9657 42.8258 38.0722 42.6838 38.2142 42.6838C38.3207 42.6838 38.4627 42.8613 38.4982 42.9678C38.5337 43.0388 38.5338 43.1098 38.5338 43.2164V43.2874L38.6048 49.0747H39.9894H44.2145C44.321 49.0747 44.392 49.0391 44.4276 49.0036C44.4986 48.9326 44.4986 48.7906 44.4631 48.6841C44.4453 48.5599 44.4276 48.4445 44.4098 48.3291L44.4098 48.329L44.4097 48.3286C44.392 48.2134 44.3743 48.0981 44.3565 47.974L44.3564 47.9732C44.2854 47.5119 44.2145 47.0506 44.108 46.5893C43.611 43.9975 43.6109 41.6542 44.0725 39.4884C44.3813 38.0157 44.7378 36.543 45.0994 35.0491L45.0994 35.0487L45.0995 35.0487L45.0995 35.0486L45.0996 35.0479C45.2785 34.3092 45.4585 33.5652 45.6347 32.8135C46.0963 30.9317 46.2383 29.476 46.0608 28.0913C45.4217 23.1561 41.5162 19.4281 36.581 18.9666C32.9404 18.6356 29.9168 19.8472 27.5391 22.6013C27.5798 22.5533 27.6207 22.5058 27.6619 22.4587ZM25.9184 43.5315C25.6667 43.2528 25.539 42.8507 25.539 42.3287V42.2932C25.539 42.8157 25.6666 43.233 25.9184 43.5315ZM25.3254 38.5341C25.4742 38.6944 25.539 38.9363 25.539 39.2753V39.3108C25.539 38.9661 25.4698 38.7113 25.3254 38.5341ZM44.8198 32.5264C45.1174 32.0113 45.2598 31.4549 45.2569 30.9184C45.253 31.4546 45.1104 32.0102 44.8198 32.5264ZM38.3637 30.5306C38.0123 30.0872 37.5116 29.8883 36.723 29.7956C36.679 29.7922 36.6349 29.7881 36.5908 29.7835C36.6349 29.7881 36.6789 29.7922 36.723 29.7955C37.5316 29.8669 38.0216 30.0657 38.3637 30.5306ZM35.5173 49.1457H34.9478H33.35C33.0119 49.1457 32.9958 48.7914 32.995 48.6656V48.7551C32.995 48.9682 33.0305 49.1812 33.2791 49.1812C33.7761 49.2049 34.2732 49.197 34.7703 49.1891C35.0188 49.1851 35.2673 49.1812 35.5159 49.1812C35.5159 49.1684 35.5164 49.1566 35.5173 49.1457ZM32.995 46.1837V46.1278C32.995 45.0981 32.4269 44.3525 31.5038 44.1395L31.4272 44.1268C31.4411 44.1308 31.4548 44.135 31.4683 44.1395C32.4224 44.3869 32.9896 45.1266 32.995 46.1837ZM22.9301 37.2304C22.9391 37.1567 22.9567 37.0809 22.9826 37.003L23.2312 36.2219C23.2945 36.0108 23.3586 35.7997 23.4235 35.5886C23.2763 36.0476 23.1298 36.5066 22.9833 36.9656L22.9827 36.9675C22.9555 37.0583 22.9381 37.1461 22.9301 37.2304ZM37.6427 49.1453C37.5105 49.1308 37.3722 49.1284 37.2328 49.1306C37.3576 49.1321 37.483 49.1366 37.6107 49.1457L37.6295 49.1456L37.6427 49.1453ZM42.3844 28.6361C42.2749 28.6379 42.163 28.6457 42.0488 28.6594C40.8061 28.8369 39.8475 29.8666 39.67 31.2157C39.6609 31.2793 39.6564 31.3497 39.6519 31.4218C39.6387 31.6318 39.6246 31.8556 39.4924 31.9613C39.4536 31.9924 39.4079 32.0133 39.3573 32.027C39.4524 32.0196 39.5375 32.0023 39.5989 31.9613C39.6023 31.959 39.6057 31.9566 39.6089 31.954C39.5951 31.97 39.58 31.9844 39.5634 31.9968C39.4214 32.1034 39.2439 32.1034 39.0308 32.1034H39.0308H38.7823C38.6048 32.1389 38.4627 32.1034 38.3917 31.9968C38.3579 31.9743 38.3312 31.9445 38.3094 31.9076C38.2565 31.8311 38.2292 31.7199 38.2143 31.5713L38.2142 31.5708L38.2142 31.5701C38.1877 31.333 38.1075 31.1155 37.9844 30.9302C37.7825 30.6556 37.4624 30.4632 37.078 30.3991C36.9715 30.3814 36.8561 30.3636 36.7408 30.3459L36.7407 30.3459C36.6253 30.3281 36.51 30.3104 36.4035 30.2926L36.1194 30.2571C34.6282 30.0441 33.6341 29.3695 33.066 28.1268C32.9693 27.9334 32.8726 27.74 32.8025 27.5466L32.7288 27.399C32.6134 27.1682 32.498 26.9374 32.3915 26.7066C32.2 26.3024 31.9066 26.0129 31.557 25.8764C31.3529 25.8121 31.1312 25.8032 30.9002 25.8545C30.2611 25.9965 29.8706 26.5291 29.8706 27.2392V29.547V29.618V29.7955V29.8666H30.2611H31.2197C32.2849 29.8666 33.1725 30.7542 33.1725 31.8193V32.8135C33.1725 33.417 33.4211 33.8786 33.9891 34.1626C34.8413 34.6242 35.6934 35.0858 36.51 35.5473L37.6816 36.1864C37.7171 36.2042 37.7438 36.2219 37.7704 36.2397C37.797 36.2574 37.8237 36.2752 37.8592 36.2929C37.8769 36.2929 37.8858 36.3018 37.8947 36.3107C37.9035 36.3196 37.9124 36.3284 37.9302 36.3284V35.4763V34.3757C37.9302 34.1981 37.9657 34.0916 38.0367 34.0206C38.1077 33.9496 38.2497 33.9141 38.3917 33.9141H38.8888C38.9953 33.9851 39.0663 33.9851 39.1373 33.9851H39.2439C39.6699 33.9851 39.7409 34.0916 39.7764 34.5177L39.7764 34.5177C39.8119 34.9083 39.8474 35.2988 39.954 35.6538C40.2025 36.3994 40.7705 36.79 41.5161 36.719C42.2262 36.648 42.6523 36.1509 42.7233 35.3698C42.7943 34.5532 43.0784 33.8431 43.6464 33.1685C44.0015 32.7424 44.321 32.2809 44.5341 31.8193C44.8891 31.0382 44.7826 30.2216 44.25 29.547C43.7175 28.8724 42.9719 28.5884 42.0842 28.7304C40.8771 28.9079 39.954 29.902 39.7764 31.2512C39.954 29.8665 40.9126 28.8369 42.1908 28.6594C42.256 28.6493 42.3206 28.6416 42.3844 28.6361ZM39.7764 31.2512C39.7469 31.3103 39.7419 31.3695 39.7411 31.4286C39.7764 31.393 39.7764 31.3221 39.7764 31.2512ZM39.7405 31.4666L39.7408 31.4479L39.7409 31.4288L39.7411 31.4286C39.7409 31.4405 39.7409 31.4524 39.7409 31.4643L39.7405 31.4666ZM39.7405 31.4666C39.7329 31.5129 39.7269 31.5592 39.721 31.604L39.721 31.6042C39.7104 31.6859 39.7004 31.7628 39.6822 31.8258C39.6636 31.8746 39.6395 31.9184 39.6089 31.954C39.6438 31.926 39.6662 31.8813 39.6822 31.8258C39.7229 31.7194 39.738 31.589 39.7405 31.4666ZM31.1519 25.7897C31.0357 25.7839 30.9159 25.7933 30.7937 25.819C30.1547 25.961 29.7286 26.4936 29.7286 27.2392V29.618V29.6181C29.7286 29.7246 29.7286 29.7956 29.7641 29.9376H29.8351V29.9021V29.689V29.618V27.3102C29.8351 26.5646 30.2611 25.961 30.9357 25.819C31.009 25.8043 31.0811 25.7946 31.1519 25.7897ZM32.6512 30.6344C32.9537 30.9624 33.137 31.4025 33.137 31.8903V32.8845C33.121 33.1884 33.1699 33.4491 33.2836 33.673C33.1335 33.4314 33.066 33.1465 33.066 32.8135V31.8193C33.066 31.3726 32.9123 30.9592 32.6512 30.6344ZM37.8598 36.4356L37.8592 36.4349L37.8591 36.4349L37.8528 36.4318L37.8598 36.4356ZM38.4741 39.7713C38.4672 39.7514 38.4592 39.7325 38.4507 39.7141C38.4668 39.7212 38.4825 39.7291 38.4982 39.7369C38.5692 39.8079 38.6047 39.9144 38.6047 40.0565V40.6955V40.9796V41.2636V41.9027C38.6047 42.0447 38.5692 42.1512 38.4982 42.2222C38.4753 42.1993 38.4375 42.206 38.3946 42.2136C38.371 42.2178 38.3458 42.2222 38.3207 42.2222H38.2497C38.1077 42.1867 37.9656 42.0092 37.9656 41.8672C37.9301 41.2636 37.9301 40.66 37.9656 40.0565C37.9656 39.9144 38.1432 39.7014 38.2497 39.7014C38.3167 39.6791 38.3696 39.6848 38.4173 39.701C38.4154 39.707 38.4135 39.7125 38.4116 39.7177C38.4367 39.7304 38.4574 39.7486 38.4741 39.7713ZM38.4173 39.701C38.4206 39.6907 38.4239 39.6791 38.4272 39.6659C38.4352 39.6818 38.4431 39.6978 38.4507 39.7141C38.4398 39.7093 38.4287 39.7049 38.4173 39.701ZM41.8961 34.5021C42.0803 34.3221 42.2057 34.0718 42.2618 33.7721C42.3329 33.3105 42.0843 32.7424 41.5872 32.5294C41.2677 32.3874 41.1612 32.2454 41.2322 31.9258V31.7838V31.5353C41.2514 31.3718 41.2967 31.224 41.3645 31.096C41.5656 30.7687 41.9241 30.5875 42.3682 30.6122C42.5071 30.6204 42.6365 30.6492 42.7535 30.6965C43.0731 30.8685 43.2915 31.2096 43.2915 31.6418V31.7838C43.2915 31.8903 43.2915 31.9968 43.327 32.1033C43.3625 32.2099 43.4335 32.2809 43.5045 32.3519L43.611 32.4584L43.6465 32.4939L43.6641 32.4764C43.67 32.4821 43.676 32.488 43.6819 32.4939C43.7086 32.4673 43.7374 32.4407 43.7663 32.414C43.8165 32.3677 43.8666 32.3214 43.9052 32.2751C43.9198 32.2585 43.9329 32.2411 43.9431 32.2226C43.9528 32.2065 43.9606 32.1905 43.966 32.1744C43.9837 32.0505 43.9925 31.9353 43.9926 31.8202C43.9938 31.6933 43.985 31.561 43.9661 31.4287C43.8596 30.5766 43.1495 29.902 42.2973 29.902H42.2618C41.3032 29.902 40.5931 30.6477 40.5576 31.5708V32.0323V32.5294C40.5221 32.8845 40.6996 33.062 41.0547 33.0975C41.3742 33.133 41.5518 33.346 41.5518 33.6656C41.5162 33.9851 41.3387 34.1981 40.9837 34.1981H40.8061H40.806C40.6641 34.1981 40.5576 34.1981 40.4156 34.2336C40.2736 34.2691 40.096 34.4467 40.096 34.5532C40.096 34.6597 40.2736 34.8727 40.4156 34.8727C40.5576 34.9082 40.6641 34.9082 40.7706 34.9082C40.9481 34.9082 41.0901 34.8727 41.2676 34.8018C41.2676 34.8018 41.2676 34.8018 41.2676 34.8018C41.5212 34.7679 41.7345 34.6617 41.8961 34.5021ZM43.204 31.0519C43.3277 31.2292 43.3979 31.4535 43.3979 31.7129C43.3979 31.7589 43.3942 31.8088 43.3903 31.8599L43.3903 31.8599C43.3852 31.9279 43.3799 31.9981 43.383 32.065C43.3625 31.9968 43.3625 31.9081 43.3625 31.8193V31.6773C43.3625 31.4392 43.305 31.2276 43.204 31.0519ZM40.2871 34.6522C40.2623 34.6138 40.2447 34.5733 40.2395 34.5382C40.2386 34.5433 40.2381 34.5483 40.2381 34.5532C40.2381 34.5799 40.2582 34.6167 40.2871 34.6522ZM41.632 33.8906C41.6719 33.8131 41.6936 33.7247 41.6936 33.6301C41.6936 33.2751 41.4806 33.0265 41.1256 33.0265C40.7772 32.9917 40.6681 32.8543 40.6641 32.5472V32.5649C40.6641 32.8845 40.7706 32.991 41.0547 33.0265C41.4452 33.062 41.6938 33.3105 41.6583 33.7011C41.6583 33.7683 41.6493 33.8317 41.632 33.8906Z" fill="#0071CE"/>
</svg>
