<svg width="69" height="68" viewBox="0 0 69 68" fill="none" xmlns="http://www.w3.org/2000/svg">
<path d="M32.75 1.58771C33.8329 0.962498 35.1671 0.962498 36.25 1.58771L61.6949 16.2783C62.7778 16.9035 63.4449 18.059 63.4449 19.3094V48.6906C63.4449 49.941 62.7778 51.0965 61.6949 51.7217L36.25 66.4123C35.1671 67.0375 33.8329 67.0375 32.75 66.4123L7.30514 51.7217C6.22223 51.0965 5.55514 49.941 5.55514 48.6906V19.3094C5.55514 18.059 6.22223 16.9035 7.30514 16.2783L32.75 1.58771Z" stroke="#0071CE"/>
<path fill-rule="evenodd" clip-rule="evenodd" d="M43.5408 29.7882C42.9584 30.1159 42.4123 30.4071 41.8663 30.6983C40.2143 31.5746 38.5623 32.4565 36.908 33.3397C34.3704 34.6945 31.8274 36.052 29.2712 37.3963C29.162 37.4691 29.0528 37.5055 28.9436 37.5419C28.6887 37.6147 28.4703 37.5783 28.3247 37.3235C28.2155 37.0686 28.2883 36.7774 28.5067 36.6318L28.7251 36.5226C29.4896 36.1222 30.2449 35.7218 31.0003 35.3214C31.7556 34.9209 32.511 34.5205 33.2754 34.1201C33.3367 34.0996 33.3866 34.0677 33.4442 34.0308L33.4443 34.0308C33.4893 34.0019 33.5391 33.97 33.603 33.9381C32.3664 33.247 31.148 32.5651 29.9296 31.8831L29.9268 31.8816C28.7072 31.1989 27.4876 30.5163 26.2498 29.8246V30.225V39.908V40.272C26.177 40.5269 26.0314 40.6725 25.7402 40.6725C25.4853 40.6725 25.3033 40.5269 25.2305 40.272C25.2068 40.2007 25.214 40.1449 25.222 40.0843C25.2262 40.0522 25.2305 40.0187 25.2305 39.9808V28.0409C25.2305 23.7455 27.8515 20.1417 31.9285 18.7584C32.875 18.4308 33.8214 18.2852 34.8043 18.2852C35.2047 18.2852 35.3867 18.4672 35.4231 18.7584C35.4231 19.086 35.2411 19.268 34.8043 19.3044C30.436 19.4136 27.0506 22.3986 26.359 26.6941C26.2861 27.083 26.2781 27.4881 26.27 27.8987C26.2659 28.1029 26.2619 28.3086 26.2498 28.5142C26.2498 28.587 26.3226 28.6962 26.359 28.7326L26.36 28.7332C27.5246 29.3882 28.6891 30.0432 29.89 30.6983C30.1812 30.3707 30.4724 30.043 30.7637 29.679C30.2176 29.0966 29.7808 28.3321 29.4896 27.4949C29.4602 27.4361 29.3834 27.4011 29.3165 27.3706L29.3165 27.3706L29.3164 27.3705C29.3005 27.3633 29.2852 27.3563 29.2712 27.3493C28.6159 27.0945 28.2155 26.5848 28.2155 25.8932C28.2155 25.238 28.6159 24.6919 29.2712 24.4371C29.3804 24.4007 29.4532 24.2551 29.4896 24.1459C30.2904 21.7798 32.4017 20.2509 34.8771 20.2873C37.2432 20.2873 39.2453 21.7798 40.0826 24.0731C40.1554 24.2915 40.2646 24.4007 40.483 24.4735C41.029 24.6555 41.4294 25.238 41.4294 25.8568C41.4294 26.4756 41.029 27.0581 40.4466 27.2765C40.2282 27.3493 40.119 27.4949 40.0462 27.7133C40.0283 27.7581 40.0104 27.8034 39.9924 27.849L39.992 27.8498L39.9919 27.8502C39.8634 28.1755 39.7279 28.5184 39.5366 28.8054C39.361 29.0687 39.162 29.3319 38.9772 29.5763L38.9771 29.5765L38.9765 29.5773L38.9765 29.5773L38.9754 29.5788L38.9748 29.5796C38.9305 29.6382 38.887 29.6957 38.8449 29.7518L38.845 29.7519C39.1362 30.0067 39.4274 30.2615 39.7186 30.5527C40.0095 30.4072 40.3368 30.2254 40.6641 30.0435L40.665 30.043C41.0835 29.8247 41.5111 29.5973 41.9387 29.3698L41.9387 29.3698L41.9391 29.3696C42.3668 29.1421 42.7946 28.9146 43.2132 28.6962C43.3588 28.6234 43.4316 28.5142 43.4316 28.3322C43.468 25.1652 42.2667 22.617 39.6822 20.7241C39.3546 20.4693 39.2818 20.2509 39.4638 19.9961C39.6458 19.7412 39.937 19.6684 40.2282 19.8869C42.4851 21.4521 43.8684 23.5635 44.2688 26.2572C44.4144 27.3129 44.4144 28.4414 44.4144 29.5334V39.9444C44.4144 44.5675 41.3203 48.4261 36.8064 49.4818C31.7829 50.6466 26.4318 47.2976 25.3033 42.2742C25.2305 41.9465 25.3761 41.6553 25.6674 41.5825C25.9586 41.5097 26.2498 41.7281 26.359 42.0921C26.7594 43.7302 27.5967 45.1499 28.8343 46.2784C31.3461 48.5717 34.2583 49.3362 37.498 48.2441C40.7378 47.152 42.6308 44.8223 43.286 41.4733C43.3588 41.0365 43.3952 40.5633 43.3952 40.09V30.0066C43.5408 29.9702 43.5408 29.8974 43.5408 29.7882ZM35.2775 22.9082C35.2775 22.89 35.2866 22.8718 35.2957 22.8536C35.3048 22.8354 35.3139 22.8172 35.3139 22.799C35.4231 22.3986 35.6415 22.253 35.9691 22.3258C36.2968 22.3986 36.406 22.6898 36.2968 23.0538C36.0783 23.8183 35.1683 24.1823 34.4767 23.7091C34.0034 23.3815 33.7486 22.9082 33.7486 22.2894C33.7486 22.1147 33.7879 21.9399 33.8272 21.7652C33.8535 21.6487 33.8797 21.5322 33.8942 21.4158H33.785C32.0741 21.889 30.9093 22.981 30.3996 24.6919C30.254 25.238 30.254 25.238 29.708 25.3472L29.708 25.3472C29.4168 25.3836 29.2347 25.5656 29.2347 25.8568C29.2347 26.148 29.4168 26.33 29.6716 26.33C30.1812 26.33 30.3268 26.6213 30.436 27.0581C30.9457 29.0602 32.7658 30.4435 34.8407 30.4435C36.9156 30.4435 38.7357 29.0602 39.2453 27.0581C39.3545 26.6213 39.5002 26.3664 40.0098 26.33C40.4102 26.2936 40.5922 25.9296 40.3738 25.6384C40.2646 25.4928 40.0826 25.3836 39.9006 25.3472C39.5002 25.3108 39.391 25.0924 39.2818 24.7283C38.8085 22.9082 37.6437 21.7798 35.8236 21.3429C35.7072 21.3165 35.6132 21.2924 35.5359 21.2726L35.5359 21.2725C35.3526 21.2255 35.264 21.2028 35.1969 21.2311C35.1341 21.2577 35.0902 21.3291 35.0051 21.4675C34.9559 21.5477 34.8928 21.6504 34.8043 21.7798L34.7679 21.8162C34.5859 22.3258 34.8407 22.8354 35.2775 22.9082ZM30.8001 31.1351C31.5239 31.5372 32.2145 31.9283 32.8963 32.3144L32.8964 32.3144C33.4488 32.6273 33.9955 32.9369 34.5495 33.2464C34.6223 33.2828 34.8043 33.2828 34.8771 33.21C35.1319 33.0826 35.3867 32.9461 35.6415 32.8096C35.8963 32.6731 36.1512 32.5366 36.406 32.4092C37.2068 31.9723 38.0077 31.5355 38.8813 31.0623C38.7417 30.9576 38.6189 30.853 38.5008 30.7523C38.3724 30.6429 38.2496 30.5383 38.1169 30.4435C35.9327 31.7903 33.785 31.7903 31.6373 30.4435C31.5236 30.5409 31.4027 30.6384 31.2777 30.7391L31.2777 30.7391L31.2776 30.7391L31.2776 30.7392C31.1225 30.8641 30.9613 30.994 30.8001 31.1351ZM36.9521 47.3704C36.6608 47.334 36.5152 47.2248 36.4424 46.97C36.3696 46.7516 36.4424 46.5332 36.6608 46.424C36.77 46.3512 36.8792 46.3148 36.9883 46.2784L36.9884 46.2784C38.9542 45.4775 40.3375 44.0579 41.1019 42.0921C41.2475 41.6917 41.4659 41.5825 41.7935 41.6917C42.0847 41.8009 42.1939 42.0921 42.0847 42.4562C41.1747 44.7859 39.573 46.424 37.2432 47.2976C37.1932 47.3143 37.1431 47.3234 37.0965 47.3318L37.0965 47.3318L37.0965 47.3318C37.0415 47.3417 36.9915 47.3507 36.9521 47.3704ZM41.5023 38.1243V39.0708V40.09C41.5023 40.454 41.6844 40.6361 42.012 40.6361C42.3396 40.6361 42.5216 40.4176 42.5216 40.09V38.1243C42.5216 37.7603 42.3396 37.5783 42.012 37.5783C41.6844 37.5783 41.5023 37.7967 41.5023 38.1243ZM37.134 18.5036C37.2442 18.5403 37.3708 18.577 37.507 18.6165C37.7758 18.6945 38.0817 18.7832 38.3717 18.904C38.6265 19.0132 38.6993 19.2316 38.5901 19.5229C38.4809 19.8141 38.226 19.8869 37.9712 19.8141C37.6226 19.7269 37.2972 19.6166 36.958 19.5016C36.8721 19.4725 36.7854 19.4431 36.6972 19.4137C36.4787 19.3408 36.406 19.1588 36.4424 18.9404C36.5152 18.6492 36.6972 18.4672 37.134 18.5036ZM35.6779 25.3108C36.0783 25.602 36.5151 25.7476 36.8791 25.7476C37.4252 25.7476 37.8256 25.602 38.1532 25.3108C38.4444 25.056 38.4808 24.8012 38.2988 24.5463C38.1168 24.2915 37.862 24.2915 37.5344 24.51C37.0976 24.8376 36.6971 24.8376 36.2603 24.51C35.9691 24.2915 35.6779 24.2915 35.4959 24.5463C35.3139 24.8012 35.3867 25.0924 35.6779 25.3108ZM32.8386 25.7112C32.4017 25.6748 31.9649 25.602 31.5645 25.2744C31.2733 25.0559 31.2369 24.7647 31.4189 24.5099C31.6009 24.2551 31.8921 24.2551 32.1833 24.4735C32.6566 24.8375 33.0206 24.8011 33.4938 24.4735C33.785 24.2551 34.0762 24.2915 34.2582 24.5463C34.4403 24.8011 34.4038 25.0559 34.1126 25.2744C33.7486 25.5656 33.3482 25.7112 32.8386 25.7112ZM34.4816 28.6813C34.6006 28.7214 34.7206 28.7617 34.8406 28.8054V28.8053C34.8406 28.769 34.8406 28.7689 34.877 28.7326C35.3502 28.7326 35.7507 28.6233 36.1147 28.3685C36.4423 28.1501 36.5151 27.8589 36.2967 27.6041C36.1147 27.3493 35.8235 27.3493 35.5323 27.5677C35.0954 27.8953 34.695 27.8953 34.2582 27.5677C33.9306 27.3493 33.6394 27.3493 33.4574 27.6405C33.2754 27.8953 33.3482 28.1865 33.6758 28.3685C33.9307 28.496 34.2035 28.5878 34.4816 28.6813Z" fill="#0071CE"/>
</svg>
