<svg width="69" height="68" viewBox="0 0 69 68" fill="none" xmlns="http://www.w3.org/2000/svg">
<path d="M32.75 1.58771C33.8329 0.962498 35.1671 0.962498 36.25 1.58771L61.6949 16.2783C62.7778 16.9035 63.4449 18.059 63.4449 19.3094V48.6906C63.4449 49.941 62.7778 51.0965 61.6949 51.7217L36.25 66.4123C35.1671 67.0375 33.8329 67.0375 32.75 66.4123L7.30514 51.7217C6.22223 51.0965 5.55514 49.941 5.55514 48.6906V19.3094C5.55514 18.059 6.22223 16.9035 7.30514 16.2783L32.75 1.58771Z" stroke="#0071CE"/>
<path fill-rule="evenodd" clip-rule="evenodd" d="M30.6031 34.9662H29.9149V33.2293C29.9149 33.1637 29.9149 32.5411 29.456 32.1806C29.2594 32.0167 28.8989 31.8529 28.309 32.0167C28.2926 32.0167 28.2763 32.0249 28.2599 32.0331C28.2435 32.0413 28.2271 32.0495 28.2107 32.0495L27.8502 32.2461C27.8175 32.2461 27.8174 32.2789 27.8174 32.2789C27.5225 32.5083 27.162 32.5738 26.8015 32.5083C26.3427 32.41 25.9494 32.0495 25.8511 31.5579C25.7856 31.1646 25.8511 30.8041 26.1133 30.5092C26.3427 30.2142 26.7032 30.0504 27.0637 30.0504C27.3586 30.0504 27.6208 30.1487 27.8174 30.3126C27.8338 30.3126 27.842 30.3208 27.8502 30.3289C27.8584 30.3371 27.8666 30.3453 27.883 30.3453L28.2107 30.542C28.2435 30.5747 28.2762 30.5747 28.309 30.5747C28.8661 30.7058 29.2266 30.5747 29.456 30.4109C29.9149 30.0504 29.9149 29.4277 29.9149 29.3622V27.5269H31.6846C31.7501 27.5269 31.9795 27.5597 32.0778 27.6908C32.1434 27.7891 32.1434 27.953 32.1106 28.0841L31.9795 28.3462C31.619 28.805 31.4879 29.3622 31.5862 29.9521C31.7501 30.8369 32.4711 31.5251 33.3559 31.6234H33.6181C34.1097 31.6234 34.6013 31.4268 34.9946 31.0991C35.4206 30.7058 35.6828 30.1487 35.6828 29.5588C35.6828 29.1 35.5517 28.6739 35.2895 28.3462L35.1257 28.0513C35.0929 27.9202 35.0929 27.7563 35.1584 27.6908C35.2567 27.5597 35.4862 27.5269 35.5517 27.5269H37.6163V28.379C37.6163 28.6084 37.813 28.805 38.0424 28.805C38.2718 28.805 38.4684 28.6084 38.4684 28.379V27.2975V27.2975C38.4684 27.2647 38.4684 27.232 38.4356 27.1992C38.4356 27.1828 38.4438 27.1664 38.452 27.15C38.4602 27.1337 38.4684 27.1173 38.4684 27.1009V19.3011C38.4684 18.744 38.0096 18.2852 37.4525 18.2852H21.984C21.4269 18.2852 20.9681 18.744 20.9681 19.3011V34.7696C20.9681 35.3267 21.4269 35.7855 21.984 35.7855H29.5871H30.6686C30.898 35.7855 31.0947 35.5889 31.0947 35.3595C31.0947 35.1301 30.8325 34.9662 30.6031 34.9662ZM37.5836 19.3011V26.7732H35.5189C35.4534 26.7732 34.8307 26.7732 34.4702 27.232C34.3064 27.4286 34.1425 27.7891 34.3064 28.379C34.3064 28.3954 34.3145 28.4118 34.3227 28.4282C34.3309 28.4445 34.3391 28.4609 34.3391 28.4773L34.5357 28.8378C34.5357 28.8706 34.5685 28.8706 34.5685 28.8706C34.7324 29.1 34.8307 29.3622 34.8307 29.6243C34.8307 29.9848 34.6669 30.3126 34.4047 30.542C34.1425 30.7714 33.782 30.8697 33.4215 30.8369C32.8972 30.7714 32.4383 30.3453 32.3728 29.821C32.3072 29.4605 32.4056 29.1 32.635 28.8378C32.635 28.8214 32.6432 28.8132 32.6514 28.805C32.6595 28.7968 32.6677 28.7887 32.6677 28.7723L32.8644 28.4445C32.8971 28.4118 32.8971 28.379 32.8971 28.3463V28.3462C33.0282 27.7891 32.8971 27.4286 32.7333 27.1992C32.3728 26.7404 31.7501 26.7404 31.6846 26.7404H29.9149V25.0035C29.9149 24.9379 29.9476 24.7085 30.0787 24.6102C30.177 24.5447 30.3409 24.5446 30.472 24.5774L30.7342 24.7085C31.193 25.069 31.7501 25.2001 32.34 25.1018C33.2249 24.9379 33.9131 24.2169 34.0114 23.3321C34.0769 22.7422 33.9131 22.1523 33.5198 21.7262C33.1265 21.3002 32.5694 21.038 31.9795 21.038C31.5207 21.038 31.0947 21.1691 30.7669 21.4313L30.472 21.5951C30.3409 21.6279 30.177 21.6279 30.1115 21.5624C29.9804 21.4641 29.9476 21.2347 29.9476 21.1691V19.2028V19.2028C29.9476 19.17 29.9476 19.1045 29.9149 19.0717H37.3869C37.4853 19.1045 37.5836 19.2028 37.5836 19.3011ZM21.9185 19.1045H29.1283C29.1283 19.1208 29.1201 19.1454 29.1119 19.17C29.1038 19.1946 29.0956 19.2192 29.0956 19.2355V21.2019C29.0956 21.2674 29.0956 21.8901 29.5544 22.2506C29.751 22.4145 30.1115 22.5783 30.7014 22.4145C30.7178 22.4145 30.7342 22.4063 30.7506 22.3981C30.767 22.3899 30.7834 22.3817 30.7997 22.3817L31.1602 22.185C31.193 22.185 31.193 22.1523 31.193 22.1523C31.4224 21.9884 31.6846 21.8901 31.9468 21.8901C32.3073 21.8901 32.635 22.054 32.8644 22.3161C33.0938 22.5783 33.1921 22.9388 33.1593 23.2993C33.0938 23.8237 32.6677 24.2825 32.1434 24.348C31.7829 24.4136 31.4224 24.3152 31.1602 24.0858C31.1438 24.0858 31.1356 24.0776 31.1274 24.0695C31.1192 24.0613 31.111 24.0531 31.0947 24.0531L30.7669 23.8564C30.7342 23.8237 30.7014 23.8237 30.6686 23.8237C30.1115 23.6926 29.751 23.8237 29.5216 23.9875C29.0628 24.348 29.0628 24.9707 29.0628 25.0362V26.7732H27.2931C27.2275 26.7732 26.9982 26.7404 26.8998 26.6093C26.8343 26.511 26.8343 26.3471 26.8671 26.216L26.9981 25.9539C27.2603 25.5934 27.4242 25.1673 27.4242 24.7085C27.4242 24.0858 27.162 23.4959 26.6704 23.1027C26.1788 22.7094 25.5562 22.5455 24.9335 22.6766C24.147 22.8405 23.5243 23.4632 23.3604 24.2497C23.2293 24.8396 23.3604 25.4295 23.7209 25.8883L23.8848 26.1833C23.9176 26.3144 23.9175 26.4782 23.852 26.5438C23.7537 26.6748 23.5243 26.7076 23.4588 26.7076H21.689V19.3011C21.7218 19.2028 21.8201 19.1045 21.9185 19.1045ZM21.7218 34.7696V27.5925H23.4915C23.5571 27.5925 24.1797 27.5925 24.5402 27.1337C24.7041 26.937 24.868 26.5765 24.7041 25.9866C24.7041 25.9702 24.6959 25.9539 24.6877 25.9375C24.6795 25.9211 24.6713 25.9047 24.6713 25.8883L24.4747 25.5278C24.4747 25.495 24.4419 25.495 24.4419 25.495C24.2125 25.2001 24.147 24.8396 24.2125 24.4791C24.3108 24.0203 24.6713 23.627 25.1629 23.5287C25.5562 23.4632 25.9167 23.5287 26.2116 23.7909C26.5066 24.0203 26.6704 24.3808 26.6704 24.7413C26.6704 25.0362 26.5721 25.2984 26.4083 25.495C26.4083 25.5114 26.4001 25.5196 26.3919 25.5278C26.3837 25.536 26.3755 25.5442 26.3755 25.5606L26.1788 25.8883C26.1461 25.9211 26.1461 25.9539 26.1461 25.9866C26.015 26.5438 26.1461 26.9042 26.3099 27.1337C26.6704 27.5925 27.2931 27.5925 27.3587 27.5925H29.1283V29.4277C29.1283 29.4933 29.0956 29.7227 28.9645 29.821C28.8661 29.8865 28.7023 29.8865 28.5712 29.8537L28.309 29.7227C27.9485 29.4605 27.5225 29.2966 27.0637 29.2966C26.441 29.2966 25.8511 29.5588 25.4579 30.0504C25.0646 30.542 24.9007 31.1646 25.0318 31.7873C25.1957 32.5738 25.8183 33.1965 26.6049 33.3604C27.1948 33.4915 27.7847 33.3604 28.2435 32.9999L28.5384 32.836C28.6695 32.8033 28.8334 32.8032 28.8989 32.8688C29.03 32.9671 29.0628 33.1965 29.0628 33.2621V34.999H21.8857C21.8201 34.9662 21.7218 34.8679 21.7218 34.7696ZM31.6846 49.6482H44.8262C45.1539 49.6482 45.4161 49.3532 45.4161 49.0255C45.4161 48.6978 45.1539 48.4356 44.8262 48.4356H38.96L39.3533 45.2567H43.843C45.1539 45.2567 46.2354 44.1752 46.2354 42.8643V38.8006L47.448 38.5384C48.0051 38.4073 48.3984 38.0796 48.5622 37.6535C48.6933 37.2603 48.6278 36.867 48.3984 36.5065C47.022 34.3435 46.2354 32.6066 46.2354 31.6235V31.2957C46.2682 31.0336 46.2682 30.8043 46.2682 30.6077V30.6075C46.2682 26.4127 43.8103 22.5783 39.9759 20.8742C39.8449 20.8086 39.681 20.8086 39.5171 20.8742C39.386 20.9397 39.2549 21.0708 39.1894 21.2019C39.1239 21.333 39.1239 21.4968 39.1894 21.6607C39.2549 21.7918 39.386 21.9229 39.5171 21.9884C42.9254 23.4959 45.1212 26.8715 45.1212 30.6075C45.1212 30.6988 45.1141 30.79 45.1065 30.8878C45.0978 31.0008 45.0884 31.1225 45.0884 31.263V31.6235C45.0884 33.1965 46.3665 35.4906 47.448 37.162C47.4808 37.1947 47.4807 37.2275 47.4807 37.2275C47.4807 37.2603 47.3825 37.3258 47.2186 37.3914L45.58 37.7519C45.285 37.8174 45.0884 38.0468 45.0884 38.3418V42.8971C45.0884 43.5525 44.5312 44.1097 43.8758 44.1097H38.8289C38.7306 44.1097 38.665 44.1097 38.5995 44.1424C36.2399 44.0769 35.7483 43.1593 35.7483 43.1593C35.65 42.8643 35.2895 42.7005 34.9945 42.8316C34.6668 42.9626 34.503 43.3231 34.6341 43.6181C34.6996 43.7819 35.2895 45.1256 38.1407 45.3222L37.7474 48.4684H31.6846C31.3568 48.4684 31.0946 48.7306 31.0946 49.0583C31.0946 49.386 31.3568 49.6482 31.6846 49.6482ZM22.4101 49.6482H28.7023C29.0301 49.6482 29.2594 49.3205 29.2594 48.9927C29.2594 48.665 28.9973 48.4028 28.6696 48.4028H28.1124L29.4561 38.1779C29.4888 37.9813 29.3905 37.7846 29.2594 37.6535C28.8989 37.3258 28.5385 36.9326 28.2107 36.5065C28.1124 36.3754 27.9813 36.3099 27.8175 36.2771C27.6536 36.2771 27.4898 36.3099 27.3587 36.4082C27.0965 36.6048 27.0637 36.9981 27.2603 37.2603C27.5881 37.6863 27.9158 38.0468 28.2435 38.3745L26.9326 48.4684H22.4101C22.0823 48.4684 21.8202 48.7306 21.8202 49.0583C21.8202 49.386 22.0823 49.6482 22.4101 49.6482ZM32.5368 34.9662C32.3074 34.9662 32.1108 35.1629 32.1108 35.3923C32.1108 35.6217 32.3074 35.8183 32.5368 35.8183H33.6183C33.8477 35.8183 34.0443 35.6217 34.0443 35.3923C34.0443 35.1629 33.8477 34.9662 33.6183 34.9662H32.5368ZM37.9768 29.9193C38.2062 29.9193 38.4029 30.1159 38.4029 30.3453V31.4268C38.4029 31.6562 38.2062 31.8529 37.9768 31.8529C37.7474 31.8529 37.5508 31.6562 37.5508 31.4268V30.3453C37.5508 30.1159 37.7474 29.9193 37.9768 29.9193ZM38.0097 32.9671C37.7803 32.9671 37.5836 33.1638 37.5836 33.3932V34.4747C37.5836 34.7041 37.7803 34.9007 38.0097 34.9007C38.2391 34.9007 38.4357 34.7041 38.4357 34.4747V33.3932C38.4029 33.131 38.2063 32.9671 38.0097 32.9671ZM35.0929 35.3923C35.0929 35.1629 35.2895 34.9662 35.5189 34.9662H36.6004C36.8298 34.9662 37.0265 35.1629 37.0265 35.3923C37.0265 35.6217 36.8298 35.8183 36.6004 35.8183H35.5189C35.2895 35.8183 35.0929 35.6217 35.0929 35.3923ZM21.0664 49.2877C21.0664 49.523 20.8757 49.7137 20.6404 49.7137C20.4051 49.7137 20.2144 49.523 20.2144 49.2877C20.2144 49.0524 20.4051 48.8617 20.6404 48.8617C20.8757 48.8617 21.0664 49.0524 21.0664 49.2877Z" fill="#0071CE"/>
</svg>
