<svg width="69" height="68" viewBox="0 0 69 68" fill="none" xmlns="http://www.w3.org/2000/svg">
<path d="M32.75 1.58771C33.8329 0.962498 35.1671 0.962498 36.25 1.58771L61.6949 16.2783C62.7778 16.9035 63.4449 18.059 63.4449 19.3094V48.6906C63.4449 49.941 62.7778 51.0965 61.6949 51.7217L36.25 66.4123C35.1671 67.0375 33.8329 67.0375 32.75 66.4123L7.30514 51.7217C6.22223 51.0965 5.55514 49.941 5.55514 48.6906V19.3094C5.55514 18.059 6.22223 16.9035 7.30514 16.2783L32.75 1.58771Z" stroke="#0071CE"/>
<path fill-rule="evenodd" clip-rule="evenodd" d="M46.7301 33.217L46.7301 33.2171C47.1216 33.7783 47.514 34.3409 47.8302 34.9417C48.4204 36.1221 47.0432 36.8107 46.0267 37.1714C46.2562 37.86 46.453 38.7454 45.83 39.1388L45.8301 39.139C45.9284 39.2701 46.0267 39.4012 46.0923 39.5323C46.2828 39.9611 46.0235 40.286 45.7668 40.6077C45.6701 40.7288 45.5738 40.8495 45.5021 40.9751L45.502 40.9751C45.4877 41.0183 45.4796 41.0425 45.4778 41.0672C45.4756 41.0987 45.4836 41.131 45.5021 41.2046C45.4693 41.1063 45.5021 41.2702 45.5021 41.2702C45.5348 41.303 45.5348 41.3685 45.5348 41.4013V41.4014C45.5512 41.5161 45.5676 41.6227 45.584 41.7293C45.6004 41.8358 45.6168 41.9424 45.6332 42.0572C45.6988 42.4507 45.6988 42.8769 45.6004 43.2704C45.3053 44.4509 44.1249 44.8116 43.0428 44.9427C42.7547 44.9689 42.4667 44.9742 42.1808 44.9794C41.7506 44.9873 41.3251 44.9951 40.9114 45.0739C40.354 45.1723 39.6982 45.3362 39.4031 45.8609C39.2657 46.0806 39.2434 46.3465 39.2205 46.6197L39.2205 46.6198C39.2161 46.6727 39.2116 46.7258 39.2063 46.779L39.1987 46.8704C39.1686 47.2287 39.1407 47.5613 39.1407 47.8939C39.1079 48.3528 39.1079 48.8118 39.1079 49.2707V49.2711C39.1079 49.8613 38.157 49.8613 38.157 49.2711C38.157 48.3201 38.157 47.3364 38.2882 46.3855C38.3538 45.7953 38.5505 45.2378 39.0095 44.8772C39.4358 44.5492 39.9277 44.3197 40.4523 44.2213C41.0327 44.1158 41.5918 44.0952 42.1638 44.0741H42.1639C42.3029 44.069 42.4427 44.0638 42.5837 44.0574C43.1411 44.0246 43.797 43.959 44.2888 43.5983C44.5184 43.4344 44.6495 43.1065 44.6823 42.8769C44.7079 42.5701 44.6736 42.2831 44.6417 42.0161C44.6327 41.9408 44.6239 41.867 44.6167 41.7949L44.5183 41.1063C44.4855 40.8111 44.6823 40.516 44.879 40.2865L44.8791 40.2865C44.9774 40.1881 45.1086 40.0569 45.1741 39.9258C45.1271 39.867 45.0715 39.8039 45.0136 39.7381L45.0136 39.7381C44.9102 39.6206 44.7992 39.4945 44.7151 39.3684C44.5183 39.0405 44.6167 38.647 44.9774 38.5158C45.0266 38.4994 45.0676 38.4912 45.1085 38.483L45.1086 38.483C45.1495 38.4748 45.1905 38.4666 45.2397 38.4502C45.2725 38.4175 45.3053 38.4174 45.3053 38.4174C45.3053 38.3633 45.2954 38.3191 45.2864 38.2793L45.2864 38.2793C45.2792 38.2469 45.2725 38.2174 45.2725 38.1879C45.207 37.7944 45.0758 37.4337 44.9446 37.073C44.8463 36.8107 45.043 36.5812 45.2725 36.4828C45.6004 36.3517 45.9283 36.2205 46.2562 36.0565C46.2987 36.0323 46.3468 36.0069 46.3978 35.98C46.6224 35.8613 46.9035 35.7129 47.0104 35.4991C46.9901 35.5194 46.9824 35.4895 46.9717 35.4483C46.9651 35.4228 46.9574 35.393 46.9448 35.368C46.912 35.3024 46.8793 35.245 46.8465 35.1876C46.8137 35.1302 46.7809 35.0728 46.7481 35.0073C46.6497 34.8761 46.5595 34.7367 46.4694 34.5974C46.3792 34.458 46.289 34.3187 46.1906 34.1875C46.0999 34.0549 46.0077 33.9222 45.9152 33.7893L45.9152 33.7892C45.5734 33.2977 45.2285 32.8018 44.9446 32.2857C44.9213 32.2416 44.8976 32.1974 44.8738 32.153C44.5958 31.6346 44.3018 31.0862 44.4528 30.4822C44.4769 30.41 44.5049 30.3338 44.5334 30.2561L44.5335 30.2559C44.6216 30.0163 44.7151 29.7621 44.7151 29.5641C44.7151 29.2034 44.6823 28.8427 44.6495 28.482C44.3872 25.7604 43.1411 23.1699 40.977 21.4321C38.6816 19.563 35.6977 19.0056 32.845 19.3663C29.9594 19.727 27.0739 20.8418 24.9753 22.8748C22.8767 24.9078 21.7618 27.695 21.8602 30.6133C21.9258 32.548 22.516 34.3842 23.4341 36.0565C23.6678 36.4888 23.9181 36.9127 24.1687 37.3371L24.1687 37.3372L24.1687 37.3372C24.6216 38.1042 25.0755 38.8731 25.4344 39.6963L25.4808 39.8019C25.7016 40.3034 25.9568 40.8831 25.9262 41.4342V41.8932C25.9262 42.7779 25.8935 43.6626 25.8607 44.5473L25.8606 44.5492C25.8442 45.3362 25.8196 46.1232 25.795 46.9101C25.7704 47.6971 25.7458 48.4841 25.7295 49.2711C25.6967 49.8613 24.7458 49.8613 24.7786 49.2711C24.795 48.8776 24.8032 48.4841 24.8113 48.0906C24.8195 47.6971 24.8277 47.3036 24.8441 46.9102C24.8774 46.0129 24.9022 45.1071 24.9271 44.1973C24.9514 43.3116 24.9757 42.4221 25.0081 41.5325C25.0372 40.6588 24.5231 39.7592 24.0861 38.9946C24.0311 38.8983 23.9773 38.8042 23.926 38.7126C23.7752 38.4502 23.6217 38.1892 23.4682 37.9282L23.4682 37.9282L23.4682 37.9282L23.4682 37.9282C22.8544 36.8842 22.2406 35.8401 21.7946 34.7121C20.5814 31.5971 20.5814 27.9901 22.1881 25.0062C23.5653 22.4486 25.9262 20.5795 28.5822 19.4974C31.3694 18.3498 34.6812 17.8907 37.6324 18.6777C40.3212 19.399 42.6821 21.1369 44.092 23.5634C44.8134 24.7767 45.2725 26.1211 45.5021 27.5311C45.6332 28.2524 45.7644 29.0722 45.666 29.7936C45.6315 29.9831 45.5699 30.1545 45.5097 30.3221C45.4553 30.4734 45.402 30.6217 45.3709 30.7773C45.3417 30.9233 45.4424 31.1212 45.5343 31.3017C45.5456 31.324 45.5568 31.3459 45.5676 31.3675C45.8903 32.0128 46.3096 32.6141 46.7301 33.217ZM33.2057 29.4985C33.8287 30.7117 33.468 32.3184 32.222 32.9743C30.9759 33.6301 29.4676 33.2038 28.7462 31.925C28.4511 31.4003 29.2708 30.9413 29.566 31.4659C29.9922 32.2201 30.9431 32.5808 31.7301 32.1217C32.5171 31.6954 32.8122 30.7445 32.3859 29.9575C32.1236 29.4329 32.9106 28.9738 33.2057 29.4985ZM34.8781 23.7602C34.7469 23.1699 33.8288 23.4323 33.96 24.0225C34.1239 24.7439 34.8125 25.2685 35.5667 25.1702C36.3536 25.0718 36.9439 24.3504 36.8455 23.5634C36.8127 23.3011 36.6487 23.1044 36.3864 23.1044C36.1569 23.1044 35.8946 23.3339 35.9274 23.5634C35.993 24.2848 35.042 24.5143 34.8781 23.7602ZM38.6161 24.8423C39.2064 24.6783 39.4687 25.5637 38.8785 25.7604C37.8948 26.0883 38.321 27.5639 39.3047 27.3015C39.895 27.1704 40.1573 28.0885 39.5671 28.2197C38.6489 28.4492 37.6325 27.9573 37.4029 27.0064C37.1734 26.0555 37.698 25.1374 38.6161 24.8423ZM27.9264 24.0881C27.2378 24.8095 27.2378 25.826 27.8936 26.5801C28.5494 27.3015 29.6971 27.2359 30.3857 26.6129C30.8447 26.2194 30.1561 25.5636 29.7299 25.9571C28.9429 26.6785 27.8936 25.5308 28.615 24.7767C29.0085 24.3176 28.3527 23.6618 27.9264 24.0881ZM30.8448 29.6952C30.3202 28.7771 30.5497 27.5638 31.4678 27.0064C32.4187 26.4817 33.5664 26.7441 34.1894 27.6622C34.5173 28.1541 33.6975 28.6131 33.3696 28.1213C33.0417 27.6622 32.4187 27.531 31.9596 27.8262C31.5006 28.1541 31.3694 28.7443 31.6646 29.2361C31.9597 29.7608 31.1399 30.2198 30.8448 29.6952ZM28.7135 30.6789C29.1069 29.8592 28.8774 28.9411 28.0904 28.482C27.3363 28.0229 26.3197 28.3508 25.8935 29.105C25.5656 29.6297 26.3853 30.0887 26.7132 29.5641C27.1723 28.8099 28.32 29.4329 27.9265 30.2199C27.6314 30.7445 28.4183 31.2036 28.7135 30.6789ZM41.141 24.7111C42.8461 25.5636 43.797 27.6294 43.0428 29.4985C42.3542 31.2364 40.5179 32.2529 38.8456 31.8594C38.7473 33.1382 37.7963 34.2203 36.5175 34.417H36.4847C36.452 34.4498 36.3864 34.4498 36.3536 34.4498C34.091 34.6794 32.4843 36.7452 32.6483 38.9749C32.6811 39.5651 31.7302 39.5651 31.6974 38.9749C31.5006 36.2533 33.5336 33.8924 36.1896 33.5317C36.2224 33.4989 36.2224 33.4989 36.2552 33.4989C37.2389 33.335 38.1243 32.4168 37.8947 31.3675C37.6652 30.3182 36.7798 29.6952 35.7305 29.8264C35.501 29.8592 35.2715 29.5969 35.2715 29.3673C35.2715 29.105 35.4682 28.9411 35.7305 28.9083C37.075 28.7443 38.321 29.5969 38.7145 30.8757C40.0917 31.302 41.7312 30.6789 42.2558 29.2362C42.7805 27.7606 42.1903 26.0227 40.6819 25.4325C40.4524 25.3341 40.3212 25.203 40.3212 24.9734C40.2884 24.416 40.0589 23.9241 39.6326 23.5634C39.4687 23.3995 39.2391 23.2683 39.0096 23.2027C38.917 23.1763 38.803 23.1712 38.6849 23.1659C38.5103 23.1581 38.3267 23.1498 38.1898 23.0716C38.0449 22.9991 37.9401 22.8566 37.8365 22.716C37.7526 22.602 37.6696 22.4892 37.5668 22.4158C37.5311 22.3954 37.4962 22.375 37.4617 22.3548C37.2745 22.2454 37.0997 22.1432 36.8782 22.0879C36.3536 21.9567 35.8945 22.0223 35.4355 22.2846C35.2387 22.4158 35.042 22.3502 34.878 22.219C34.1894 21.6288 33.2385 21.6616 32.5499 22.1862C33.2057 23.006 33.3369 24.1537 32.845 25.1702C32.5499 25.7276 31.7629 25.2357 32.0253 24.7111C32.4843 23.8258 32.1236 22.7437 31.2055 22.3174C30.3202 21.9239 29.3365 22.3174 28.8774 23.1372C28.8118 23.2683 28.6478 23.3667 28.4839 23.3667C27.4674 23.3011 26.4181 23.9241 26.123 24.9406C26.1079 25.001 26.0963 25.07 26.0842 25.142C26.0435 25.3834 25.9971 25.6594 25.7951 25.7604C25.5656 25.8588 25.336 25.9899 25.1393 26.1867C24.7786 26.5474 24.5162 26.9736 24.4179 27.4983C24.3523 27.7278 24.3523 27.9901 24.3851 28.2197C24.4089 28.3147 24.4455 28.4141 24.4826 28.5146C24.548 28.6915 24.6147 28.8721 24.6147 29.0394C24.6147 29.1706 24.5737 29.3017 24.5327 29.4329C24.4917 29.5641 24.4507 29.6952 24.4507 29.8264V29.8266C24.4507 30.0888 24.4507 30.3183 24.5163 30.5806C24.7786 31.6299 25.5 32.4824 26.5165 32.8431C26.746 32.9415 26.8444 33.0726 26.8772 33.3022C26.9427 34.3187 27.8281 35.3352 28.8118 35.5975C29.7299 35.8598 30.648 35.5975 31.3039 34.9089C31.7301 34.4498 32.3859 35.1384 31.9597 35.5647C31.6645 35.8926 31.2711 36.1549 30.8448 36.3517C30.8448 36.3845 30.8448 36.45 30.812 36.5156C30.5825 37.3026 30.5497 38.0896 30.7136 38.8765C30.812 39.4668 29.9267 39.7291 29.7955 39.1389C29.6316 38.2863 29.5988 37.4665 29.7955 36.6468C29.3036 36.7124 28.8118 36.6468 28.3527 36.4828C27.1395 36.0566 26.1558 34.9745 25.9263 33.6957C24.3523 32.9743 23.2374 31.2692 23.5326 29.4985C23.5326 29.3898 23.5551 29.3036 23.5814 29.2027C23.5869 29.1818 23.5925 29.1603 23.5981 29.1378V29.105C23.5817 29.0722 23.5735 29.0476 23.5653 29.023C23.5571 28.9984 23.5489 28.9738 23.5326 28.9411C23.467 28.7443 23.4342 28.5148 23.4014 28.2852C23.3358 27.859 23.4014 27.3671 23.5326 26.9408C23.7949 26.1539 24.3195 25.4653 25.0737 25.0718C25.3688 23.5962 26.6476 22.4486 28.156 22.4486C28.943 21.3337 30.4841 20.8746 31.6974 21.5632C31.7138 21.5632 31.7219 21.5714 31.7301 21.5796C31.7383 21.5878 31.7465 21.596 31.7629 21.596C32.7138 20.7435 34.091 20.6779 35.1731 21.3665C36.3864 20.809 37.7636 21.2353 38.5833 22.2518C39.8949 22.383 40.9442 23.3995 41.141 24.7111Z" fill="#0071CE"/>
</svg>
