<svg width="69" height="68" viewBox="0 0 69 68" fill="none" xmlns="http://www.w3.org/2000/svg">
<path d="M32.75 1.58771C33.8329 0.962498 35.1671 0.962498 36.25 1.58771L61.6949 16.2783C62.7778 16.9035 63.4449 18.059 63.4449 19.3094V48.6906C63.4449 49.941 62.7778 51.0965 61.6949 51.7217L36.25 66.4123C35.1671 67.0375 33.8329 67.0375 32.75 66.4123L7.30514 51.7217C6.22223 51.0965 5.55514 49.941 5.55514 48.6906V19.3094C5.55514 18.059 6.22223 16.9035 7.30514 16.2783L32.75 1.58771Z" stroke="#0071CE"/>
<path fill-rule="evenodd" clip-rule="evenodd" d="M48.3697 21.6666C48.1089 21.5718 47.8286 21.4965 47.561 21.4247L47.5609 21.4246C47.5043 21.4094 47.4482 21.3944 47.3931 21.3793L47.1278 21.3C46.3666 21.0727 45.6588 20.8613 45.0664 20.6038C44.4632 20.2304 43.8025 19.6846 43.1131 19.1101C42.8983 18.9192 42.6836 18.7481 42.4524 18.564L42.4523 18.5639L42.3088 18.4494C41.6226 17.8952 40.6696 18.893 40.3411 19.2369C40.3121 19.2672 40.288 19.2925 40.2693 19.3112C40.1544 19.4548 40.1544 19.6846 40.2981 19.7995C40.3268 19.8282 40.5853 20.058 40.9587 20.374L34.1797 33.099C34.151 33.1852 34.1223 33.2713 34.151 33.3575L35.1851 37.0917L33.2605 40.6823L31.7094 37.1492L32.9733 33.616C33.002 33.5299 33.002 33.4437 32.9733 33.3575L27.372 20.5751C27.5621 20.4392 27.7202 20.3291 27.837 20.2477C27.9672 20.1569 28.0462 20.1019 28.0614 20.0867C28.205 19.9718 28.2337 19.7708 28.1476 19.5984C27.9752 19.3399 26.9986 18.076 26.223 18.5931C26.1556 18.6403 26.0897 18.6859 26.0251 18.7306L26.025 18.7307C25.8143 18.8766 25.6165 19.0137 25.4187 19.1675C24.7293 19.6846 24.0399 20.1442 23.4367 20.4602C22.776 20.69 21.9718 20.8623 21.1387 21.0346C20.9808 21.0634 20.8156 21.0993 20.6504 21.1352L20.6504 21.1352C20.4853 21.1711 20.3201 21.207 20.1621 21.2357C19.2429 21.4368 19.5302 23.0166 19.5876 23.3039C19.6163 23.4762 19.7887 23.5911 19.961 23.5911H20.0185C20.0472 23.5911 20.3632 23.5337 20.8515 23.4188L26.4528 36.2013C26.4815 36.2874 26.5677 36.3449 26.6251 36.3736L30.0147 37.7811L32.169 42.7217L31.9392 43.1526L31.2498 44.4739L30.2444 46.3411C30.2267 46.3411 30.2199 46.352 30.2105 46.3672C30.2048 46.3766 30.198 46.3875 30.187 46.3985L28.6933 48.0071C28.6072 48.0933 28.5784 48.2082 28.6071 48.2943C28.6359 48.4092 28.6933 48.4954 28.7795 48.5528L30.8764 49.6731L30.8764 49.6731C30.9339 49.7018 30.9913 49.7306 31.0487 49.7018C31.1062 49.7018 31.1349 49.7018 31.1636 49.6731C31.2498 49.6157 31.336 49.5295 31.3647 49.4433L31.8243 47.4039L33.1457 44.9623L34.2084 47.3751L34.4957 49.3571C34.5244 49.472 34.5819 49.5582 34.668 49.6157C34.7255 49.6444 34.783 49.6731 34.8691 49.6731C34.8979 49.6731 34.9553 49.6731 34.984 49.6444L37.0809 48.7252C37.1671 48.6677 37.2532 48.5816 37.282 48.4954C37.3107 48.3805 37.282 48.2656 37.2245 48.1794L35.9032 46.5134L35.8457 46.4559L34.2659 42.8079L36.9086 37.8386L40.4992 36.6321C40.5853 36.6034 40.6428 36.546 40.7002 36.4598L47.4792 23.7348C47.9675 23.8784 48.2835 23.9646 48.3122 23.9646H48.4271C48.5708 23.9646 48.7144 23.8497 48.7431 23.706C48.858 23.5337 49.2889 21.9538 48.3697 21.6666ZM20.3632 21.9538C20.6792 21.8677 20.9951 21.8102 21.3111 21.7528C22.2015 21.5804 23.0346 21.4081 23.724 21.1208C23.724 21.1208 23.7527 21.1208 23.7527 21.0921C24.4133 20.7474 25.1315 20.2591 25.8496 19.742C25.9788 19.6415 26.1153 19.5481 26.2517 19.4548C26.3882 19.3614 26.5246 19.2681 26.6539 19.1675H26.6826C26.7688 19.1675 27.0848 19.3686 27.4007 19.7133C26.7688 20.1729 25.2176 21.2644 24.0686 21.7815C22.9732 22.2471 21.2249 22.6343 20.3923 22.8187L20.3923 22.8187L20.277 22.8443C20.2196 22.3273 20.277 21.9538 20.3632 21.9538ZM25.1889 28.618L22.7186 22.9879C23.2931 22.8156 23.8676 22.6432 24.3272 22.4422C24.7868 22.2411 25.3326 21.9538 25.8209 21.6379L28.2912 27.2679L25.1889 28.618ZM30.6179 37.4651C30.5891 37.4364 30.5892 37.4077 30.5892 37.4077L30.5604 37.379L30.5317 37.3502L30.503 37.3215L27.1135 35.914L21.627 23.3901C21.688 23.3779 21.7541 23.3605 21.8232 23.3424L21.8233 23.3424C21.917 23.3178 22.0162 23.2917 22.1154 23.2752L24.758 29.3073C24.8155 29.451 24.9591 29.5371 25.1028 29.5084C25.1315 29.5084 25.1889 29.5084 25.2176 29.4797L28.9518 27.8424C29.1242 27.7562 29.2104 27.5551 29.1242 27.3828L26.4815 21.3506L26.4816 21.3506C26.6252 21.2644 26.7688 21.1783 26.8837 21.0634L32.3701 33.5873L31.0775 37.1204V37.1779V37.2353V37.2928C31.0775 37.3072 31.0846 37.3215 31.0918 37.3359C31.099 37.3502 31.1062 37.3646 31.1062 37.379L32.9158 41.544L32.6286 42.0611L30.6179 37.4651ZM31.7094 45.1921L32.1403 45.4219L31.3934 46.8294L30.9626 46.5996L31.7094 45.1921ZM35.1564 46.657L34.7255 46.8294L34.1223 45.4506L34.5531 45.2782L35.1564 46.657ZM33.8638 43.6984L34.2659 44.6176L33.835 44.7899L33.5765 44.2154L33.634 44.1293L33.8638 43.6984ZM30.7902 48.8975L29.5263 48.2082L30.5317 47.1453L31.1349 47.4613L30.7902 48.8975ZM35.1564 48.8688L34.9553 47.49L35.5585 47.2315L36.4202 48.323L35.1564 48.8688ZM40.1832 36.1151L36.5926 37.3215C36.5639 37.3215 36.5639 37.3215 36.5351 37.3502C36.5208 37.3502 36.5136 37.3574 36.5064 37.3646C36.4992 37.3718 36.4921 37.379 36.4777 37.379L36.4777 37.379L36.4776 37.379C36.4489 37.4078 36.3915 37.4652 36.3915 37.4939L33.6052 42.7217L32.9158 44.0431V44.0718L32.5137 44.8186L32.0828 44.5888L32.5999 43.6122L35.9319 37.3502C35.9606 37.3215 35.9606 37.2641 35.9606 37.2354V37.2353V37.1779V37.1779C35.9606 37.1492 35.9606 37.1204 35.9319 37.0917L34.8978 33.3862L41.5332 20.8336C41.6769 20.9485 41.8205 21.0634 41.9641 21.1495L38.7757 27.153C38.6895 27.3253 38.7469 27.5264 38.9193 27.6413L42.6535 29.6233C42.7109 29.652 42.7684 29.6808 42.8258 29.652C42.9407 29.652 43.0556 29.5659 43.1131 29.4797L46.3015 23.4762L46.8186 23.6486L40.1832 36.1151ZM42.6535 28.8477L39.5512 27.1817L42.5386 21.5804C43.0269 21.9538 43.5439 22.2985 44.0323 22.5283C44.4919 22.7868 45.0664 23.0166 45.6409 23.2177L42.6535 28.8477ZM48.1686 23.3326L48.0421 23.2952C47.2026 23.0473 45.4389 22.5264 44.3483 21.9538C43.1993 21.3506 41.6769 20.0867 41.0736 19.541C41.4758 19.1388 41.8205 18.9665 41.8779 19.0239C42.1364 19.225 42.395 19.4548 42.6535 19.6846C43.3716 20.2878 44.0323 20.8336 44.6929 21.2357C44.6929 21.2357 44.7217 21.2357 44.7217 21.2644C45.4398 21.5804 46.2728 21.8389 47.1633 22.0975C47.3212 22.1405 47.4864 22.1908 47.6516 22.2411C47.8167 22.2913 47.9819 22.3416 48.1399 22.3847C48.2548 22.3847 48.2835 22.8156 48.1686 23.3326ZM42.4236 30.0254L38.6894 28.0434C38.6751 28.0434 38.6607 28.0363 38.6463 28.0291C38.632 28.0219 38.6176 28.0147 38.6033 28.0147C38.5946 28.0147 38.5832 28.0121 38.5709 28.0092C38.5424 28.0026 38.5084 27.9947 38.4884 28.0147C38.3735 28.0147 38.2586 28.1009 38.2011 28.1871L35.6159 33.0415C35.5872 33.1277 35.5585 33.2139 35.5872 33.2713L36.2765 36.4598C36.3053 36.5747 36.3627 36.6321 36.4489 36.6896L36.4489 36.6896C36.5064 36.7183 36.5638 36.747 36.6213 36.7183C36.65 36.7183 36.7074 36.7183 36.7362 36.6896L39.7522 35.4831C39.8384 35.4544 39.8959 35.3969 39.9246 35.3108L42.5098 30.4563C42.6534 30.3414 42.596 30.1116 42.4236 30.0254ZM39.4075 34.9086L37.3968 35.6842L36.8798 35.8853L36.7936 35.4257L36.3053 33.2426L38.6607 28.819L41.763 30.485L39.4075 34.9086ZM29.4976 28.3307L31.6519 33.2139C31.7094 33.3001 31.7094 33.3862 31.7094 33.4437L30.7902 36.4598C30.7615 36.5747 30.6753 36.6608 30.5891 36.6896C30.5604 36.7183 30.503 36.7183 30.4742 36.7183C30.4168 36.7183 30.3593 36.7183 30.3019 36.6896L27.4582 35.3108C27.372 35.2821 27.3145 35.2246 27.2858 35.1384L25.1315 30.2552C25.0453 30.0829 25.1315 29.8818 25.3038 29.7956L29.038 28.1583C29.2104 28.0722 29.4114 28.1583 29.4976 28.3307ZM30.2157 35.8853L30.3306 35.4544L30.9625 33.3862L29.0093 28.9339L25.907 30.284L27.8603 34.7363L29.7274 35.6555L30.2157 35.8853Z" fill="#0071CE"/>
</svg>
