<svg width="69" height="68" viewBox="0 0 69 68" fill="none" xmlns="http://www.w3.org/2000/svg">
<path d="M32.75 1.58771C33.8329 0.962498 35.1671 0.962498 36.25 1.58771L61.6949 16.2783C62.7778 16.9035 63.4449 18.059 63.4449 19.3094V48.6906C63.4449 49.941 62.7778 51.0965 61.6949 51.7217L36.25 66.4123C35.1671 67.0375 33.8329 67.0375 32.75 66.4123L7.30514 51.7217C6.22223 51.0965 5.55514 49.941 5.55514 48.6906V19.3094C5.55514 18.059 6.22223 16.9035 7.30514 16.2783L32.75 1.58771Z" stroke="#0071CE"/>
<path fill-rule="evenodd" clip-rule="evenodd" d="M32.5775 20.8508C32.5775 22.2761 33.6465 23.4164 34.9293 23.4164C36.2121 23.4164 37.2811 22.2761 37.2811 20.8508C37.2811 19.4254 36.2121 18.2852 34.9293 18.2852C33.6465 18.2852 32.5775 19.4254 32.5775 20.8508ZM36.4259 20.8508C36.4259 21.8129 35.7488 22.5968 34.8936 22.5968C34.0384 22.5968 33.3614 21.8129 33.3614 20.8508C33.3614 19.8887 34.0384 19.1047 34.8936 19.1047C35.7488 19.1047 36.4259 19.8887 36.4259 20.8508ZM20.5334 30.935C20.7472 31.5764 21.4954 31.8614 22.0299 31.9683C22.3506 32.0396 22.5644 31.9683 22.5644 31.8614V31.6476L22.6001 31.4695C22.6357 31.3626 22.3862 31.2557 22.1012 31.1844C21.7449 31.0775 21.3885 30.935 21.3173 30.7212L20.7115 29.0108L21.8874 30.0798C22.1012 30.2936 22.4219 30.3292 22.5644 30.1511C22.707 29.9729 22.6357 29.6878 22.4219 29.474L21.0679 28.2268C20.6403 27.8349 20.2839 27.728 19.9989 27.9061C19.7138 28.0843 19.6781 28.4763 19.8563 29.0108L20.5334 30.935ZM28.4084 37.634C28.1946 37.5984 28.0521 37.3133 28.1233 37.0282L28.9073 32.8592L22.9565 32.1821V29.2246H31.2234C31.2947 29.2246 31.366 29.2246 31.4372 29.2602C32.435 29.4027 33.2189 30.151 33.2189 31.0775V36.7788C33.2189 37.0639 33.0407 37.3133 32.8269 37.3133C32.6131 37.3133 32.4349 37.0639 32.4349 36.7788V31.0775C32.4349 30.5786 31.9717 30.1154 31.3659 30.0441H31.3303H31.2234H23.7761V31.4694L29.905 32.1821L28.9429 37.2064C28.8716 37.4915 28.6578 37.7053 28.4084 37.634ZM28.3726 43.5492C27.1255 43.5492 26.199 42.979 26.199 42.2307C26.199 42.0882 26.2346 41.9457 26.3059 41.8388C26.5553 41.3756 27.268 40.948 28.3726 40.948H33.005V38.5454L28.3369 38.8812L20.1057 39.879C19.8206 39.9146 19.5355 39.772 19.5355 39.5582C19.4999 39.3444 19.7137 39.1306 20.0344 39.095L28.3013 38.0973L33.29 37.741H40.0247C41.1293 37.741 42.0914 38.0973 42.7684 38.7743C43.3385 39.3444 43.6592 40.0928 43.6592 40.948V41.625C43.6592 41.7319 43.6592 42.4802 43.1247 43.0147C42.7328 43.4066 42.2339 43.5848 41.5569 43.5848H28.3726V43.5492ZM39.8822 40.948H33.8245V38.5249H39.989C40.8799 38.5249 41.6638 38.8099 42.1627 39.3088C42.5903 39.7008 42.8041 40.2709 42.8041 40.9123V41.5893C42.8041 41.5893 42.8041 42.0882 42.4834 42.4089C42.2409 42.6167 41.9311 42.7235 41.5213 42.7294V42.694H28.4083H28.3726H28.337H28.0876C27.3393 42.6227 27.0186 42.302 27.0186 42.1951C27.1255 42.0526 27.5531 41.7319 28.3726 41.7319H39.8822C40.1672 41.7319 40.4167 41.5537 40.4167 41.3399C40.4167 41.1261 40.1672 40.948 39.8822 40.948ZM19.5 42.1594C19.5 42.3732 19.7494 42.5514 20.0345 42.5514V42.587H25.8784V41.7674H20.0345C19.7494 41.7674 19.5 41.9456 19.5 42.1594ZM46.51 41.6606C45.049 41.6606 43.8731 40.6272 43.8731 39.3801C43.8731 38.1329 45.049 37.0995 46.51 37.0995C47.9709 37.0995 49.1468 38.1329 49.1468 39.3801C49.1468 40.6629 47.9709 41.6606 46.51 41.6606ZM46.51 37.9547C45.5122 37.9547 44.6927 38.5961 44.6927 39.4157C44.6927 40.2353 45.5122 40.8767 46.51 40.8767C47.5077 40.8767 48.3273 40.2353 48.3273 39.4157C48.3273 38.5961 47.5077 37.9547 46.51 37.9547ZM44.9423 43.656H48.1136C48.6124 43.656 49.0757 43.2641 49.0757 42.8008C49.0757 42.3376 48.6481 41.9456 48.1136 41.9456H44.9423C44.4078 41.9456 43.9801 42.3376 43.9801 42.8008C43.9801 43.2641 44.4078 43.656 44.9423 43.656ZM44.6215 42.8008C44.6215 42.7296 44.7284 42.6227 44.9066 42.6227H48.078C48.2205 42.6227 48.363 42.6939 48.363 42.8008C48.363 42.8721 48.2561 42.979 48.078 42.979H44.9066C44.7284 42.979 44.6215 42.9077 44.6215 42.8008ZM36.7108 23.9152C38.4569 23.9152 39.8466 25.3406 39.8466 27.051H39.8822V29.866H37.0315V27.7992C37.0315 27.5498 37.2454 27.336 37.4592 27.336C37.7086 27.336 37.8868 27.5498 37.8868 27.7992V29.0464H39.0627V27.051C39.0627 25.7682 38.0293 24.7348 36.7465 24.7348H33.6108C33.005 24.7348 32.221 24.8773 31.1877 25.982L28.6934 28.6188C28.5152 28.8326 28.2301 28.8326 28.052 28.6901C27.9094 28.5119 27.9094 28.2268 28.0876 28.0487L30.5819 25.4118C31.5084 24.3784 32.4705 23.9152 33.5751 23.9152H36.7108ZM34.2165 35.3891C33.9314 35.3891 33.682 35.2109 33.682 34.9971C33.682 34.7833 33.9314 34.6052 34.2165 34.6052H37.6016V33.2155H38.4212V34.8949L38.4568 34.8903L38.6706 36.8501C38.7063 37.1352 38.5637 37.4202 38.3143 37.4202C38.0649 37.4915 37.8867 37.2777 37.8511 36.957L37.68 35.3891H34.2165ZM32.5419 26.944V28.5119C32.5419 28.7613 32.3637 28.9751 32.1143 29.0108C31.8292 29.0108 31.6866 28.9395 31.6866 28.9039V28.5832L31.3659 28.9039C31.2947 29.0108 31.0809 28.9395 30.9027 28.7969C30.8315 28.7257 30.7958 28.6188 30.7958 28.5119C30.7958 28.405 30.8315 28.2981 30.9384 28.1912L32.2568 26.8371C32.2826 26.8199 32.3063 26.8027 32.328 26.787C32.396 26.7377 32.4436 26.7032 32.4706 26.7302C32.5062 26.7659 32.5419 26.8371 32.5419 26.944ZM34.074 31.2557C33.7889 31.2557 33.5395 31.1131 33.5395 30.935C33.5395 30.7568 33.7889 30.6143 34.074 30.6143H37.2097V30.2223H37.8867V30.8281C37.8867 31.0775 37.6729 31.2913 37.4235 31.2913H34.074V31.2557ZM33.5395 32.5028C33.5395 32.681 33.7889 32.8235 34.074 32.8235V32.8591H38.5994C39.0626 32.8591 39.4546 32.4672 39.4546 32.0039V30.1866H38.7775V32.0039C38.7775 32.1108 38.7063 32.1821 38.5994 32.1821H34.074C33.7889 32.1821 33.5395 32.3246 33.5395 32.5028ZM19.6069 47.1838C19.6069 47.3976 19.8563 47.5757 20.1414 47.5757V47.647H43.8731V49.3218C43.8731 49.5356 44.0513 49.7137 44.2651 49.7137C44.4789 49.7137 44.657 49.5356 44.6927 49.3218V47.647H45.1916V49.3218C45.1916 49.5356 45.3698 49.7137 45.5836 49.7137C45.7974 49.7137 45.9756 49.5356 46.0112 49.3218V47.647H48.1135C49.2181 47.647 50.109 46.8987 50.109 45.9366C50.109 45.0101 49.2181 44.2262 48.1135 44.2262H20.0345C19.7494 44.2262 19.5 44.4044 19.5 44.6182C19.5 44.832 19.7494 45.0101 20.0345 45.0101H48.1135C48.7549 45.0101 49.2894 45.4377 49.2894 45.9009C49.2894 46.3642 48.7549 46.7918 48.1135 46.7918H20.1414C19.8563 46.7918 19.6069 46.97 19.6069 47.1838Z" fill="#0071CE"/>
</svg>
