<svg width="69" height="68" viewBox="0 0 69 68" fill="none" xmlns="http://www.w3.org/2000/svg">
<path d="M32.75 1.58771C33.8329 0.962498 35.1671 0.962498 36.25 1.58771L61.6949 16.2783C62.7778 16.9035 63.4449 18.059 63.4449 19.3094V48.6906C63.4449 49.941 62.7778 51.0965 61.6949 51.7217L36.25 66.4123C35.1671 67.0375 33.8329 67.0375 32.75 66.4123L7.30514 51.7217C6.22223 51.0965 5.55514 49.941 5.55514 48.6906V19.3094C5.55514 18.059 6.22223 16.9035 7.30514 16.2783L32.75 1.58771Z" stroke="#0071CE"/>
<path fill-rule="evenodd" clip-rule="evenodd" d="M32.4694 18.2852C32.1065 18.3214 31.7436 18.394 31.3806 18.4666C31.4169 18.6481 31.4532 18.8205 31.4895 18.9928L31.4896 18.9931C31.5259 19.1654 31.5622 19.3377 31.5984 19.5191C31.7639 19.486 31.9218 19.4604 32.0757 19.4355C32.2592 19.4058 32.4369 19.3771 32.6146 19.3376C32.5939 19.1106 32.5616 18.9071 32.5308 18.7138L32.5308 18.7137L32.5308 18.7137L32.5308 18.7137C32.5075 18.567 32.485 18.4261 32.4694 18.2852ZM21.455 26.2149L21.455 26.2149C21.3098 26.1242 21.1647 26.0334 21.0014 25.9427C23.1789 22.3498 26.2636 19.9546 30.292 18.757C30.3102 18.8477 30.3374 18.9293 30.3646 19.011C30.3918 19.0927 30.4191 19.1743 30.4372 19.265C30.4442 19.2929 30.4511 19.322 30.4583 19.3523L30.4584 19.3525L30.4584 19.3526C30.4888 19.4801 30.5238 19.6266 30.5824 19.7731C26.8443 20.8982 23.941 23.112 21.9087 26.4871C21.7454 26.3964 21.6002 26.3056 21.455 26.2149ZM20.9287 33.9269C20.965 26.233 27.1709 20.1723 34.901 20.2449C42.3408 20.2812 48.4741 26.5959 48.4378 34.0357C48.3652 41.7659 42.1956 47.8266 34.4292 47.7177C26.9531 47.6088 20.9287 41.5118 20.9287 33.9269ZM45.607 27.6484C45.5 27.7483 45.3915 27.8483 45.2827 27.9485C44.8385 28.3578 44.3892 28.7716 44.0102 29.2089C43.7562 29.4993 43.5747 29.9348 43.5384 30.2977C43.4782 30.6887 43.5427 31.1047 43.6079 31.5249L43.6079 31.5249L43.6079 31.5251L43.608 31.5253C43.6214 31.612 43.6349 31.6988 43.6473 31.7856C43.8287 33.1284 43.4658 34.2898 42.4496 35.1971C41.2883 36.2132 39.9455 36.431 38.5665 35.814C37.1874 35.2334 36.4615 34.1083 36.3527 32.6204C36.3527 32.4389 36.2801 32.3663 36.0986 32.3663C35.8809 32.3663 35.6632 32.33 35.4456 32.2938L35.4454 32.2937C34.03 31.9308 33.0864 31.0598 32.7235 29.6807C32.3243 28.2654 32.6872 27.0314 33.7396 26.0153C34.7558 25.0717 35.9897 24.8176 37.3325 25.1443C37.9858 25.3257 38.639 25.2894 39.1834 24.8902C39.6226 24.5666 40.0176 24.1841 40.4153 23.799L40.4153 23.799L40.4154 23.799L40.4154 23.799L40.4154 23.799L40.4154 23.799L40.4154 23.7989L40.4154 23.7989L40.4154 23.7989L40.4154 23.7989L40.4154 23.7989L40.4155 23.7989L40.4155 23.7989L40.4155 23.7989L40.4155 23.7989C40.6422 23.5794 40.8697 23.359 41.1069 23.1482C36.643 20.3538 29.8565 20.6078 25.4289 25.3257C21.1465 29.8985 21.1828 36.3947 23.7958 40.4594C23.9772 40.2658 24.1627 40.0763 24.3482 39.8867C24.7192 39.5077 25.0902 39.1287 25.4289 38.7174C25.9733 38.0641 25.9732 37.2657 25.7555 36.431C25.5014 35.4874 25.6829 34.5438 26.191 33.7091C27.0257 32.33 28.6588 31.6405 30.2194 32.0034C31.8162 32.4026 32.9413 33.7454 33.0501 35.3785C33.0501 35.5963 33.1227 35.6689 33.3404 35.6689C33.5582 35.6689 33.776 35.7051 33.9937 35.7777C35.4091 36.1406 36.3164 37.0479 36.6793 38.4633C37.0059 39.8424 36.643 41.0763 35.5906 42.0562C34.5744 42.9998 33.3767 43.2175 32.0702 42.8909C31.1266 42.6369 30.3283 42.8909 29.6387 43.5804C29.5043 43.7148 29.3699 43.8452 29.2368 43.9741L29.2367 43.9743L29.2367 43.9743C28.9747 44.2283 28.718 44.477 28.4774 44.7418C28.4411 44.7781 28.3685 44.8506 28.3322 44.9232C33.0501 47.754 39.5826 47.2459 43.865 42.8183C48.0386 38.427 48.2926 31.9671 45.607 27.6484ZM41.9779 23.6563C41.8219 23.8123 41.666 23.9722 41.5087 24.1334L41.5086 24.1335L41.5085 24.1337C41.1901 24.4602 40.8663 24.7922 40.5262 25.108C39.9093 25.7249 39.2197 26.1604 38.3487 26.1967C37.9132 26.2258 37.4777 26.1619 37.0423 26.098C36.9334 26.0821 36.8245 26.0661 36.7156 26.0516C35.5905 25.9064 34.6832 26.233 34.0663 27.1766C33.4493 28.0839 33.413 29.0638 33.9937 30.0074C34.5744 30.9509 35.4454 31.3864 36.5704 31.2776C37.26 31.205 37.4414 31.4227 37.3688 32.076C37.1511 33.8543 38.7479 35.3422 40.4899 34.9793C41.9779 34.6527 42.8852 33.2736 42.5222 31.7494C42.3408 30.9872 42.3045 30.2614 42.5585 29.5356C42.74 28.9549 43.1029 28.4831 43.5021 28.0476C43.658 27.8917 43.8179 27.7358 43.9791 27.5786L43.9792 27.5785C44.3058 27.26 44.6379 26.9361 44.9538 26.5959C44.3368 25.6524 42.8126 24.1281 41.9779 23.6563ZM27.316 44.3426L28.7677 42.8909C29.3484 42.2739 30.0742 41.8384 30.9089 41.8022C31.3544 41.7725 31.8242 41.84 32.2785 41.9052L32.2788 41.9053C32.3795 41.9198 32.4795 41.9341 32.5783 41.9473C33.7034 42.1288 34.6107 41.7296 35.2639 40.8223C35.8809 39.915 35.8809 38.9351 35.3365 38.0278C34.7558 37.0842 33.8848 36.6487 32.7598 36.7576C32.0702 36.8302 31.8888 36.6487 31.9614 35.9592C32.1428 34.4349 30.9815 33.0559 29.5298 32.9833C27.7152 32.9107 26.3725 34.4712 26.7717 36.2495C26.9531 37.0117 26.9894 37.7375 26.7354 38.4996C26.5539 39.044 26.191 39.5158 25.7918 39.9513C25.6359 40.1072 25.4759 40.2632 25.3147 40.4204L25.3146 40.4205L25.3145 40.4206C24.9879 40.7391 24.6559 41.0629 24.3401 41.4029C25.1748 42.4917 26.1547 43.5079 27.316 44.3426ZM36.8607 49.7137C36.8177 49.5201 36.7874 49.3266 36.7548 49.1179C36.7324 48.9744 36.7088 48.8239 36.6793 48.6613C36.8569 48.6218 37.0346 48.593 37.2181 48.5633L37.2183 48.5633C37.3721 48.5384 37.53 48.5129 37.6954 48.4798C37.768 48.8064 37.8406 49.1331 37.9131 49.496L37.0422 49.7137H36.8607ZM47.4223 41.5122L47.4217 41.5118C46.4418 43.1449 45.2079 44.5603 43.7199 45.6854C42.2319 46.8467 40.5625 47.6814 38.748 48.2258C38.7939 48.379 38.8334 48.5258 38.8719 48.6688C38.9246 48.8645 38.9754 49.0532 39.0383 49.2419C43.0667 48.008 46.1515 45.6491 48.329 42.0562C48.2564 42.0199 48.1838 41.9836 48.1475 41.9473C47.9299 41.8023 47.6761 41.6572 47.4223 41.5122ZM38.385 37.7012H39.4012V38.7174H38.385V37.7012ZM46.2603 32.947H45.2441V33.9631H46.2603V32.947ZM38.8932 42.9998V44.016H37.877V42.9998H38.8932ZM35.2276 23.4023H36.2437V22.3861H35.2276V23.4023ZM24.086 35.0519V36.0681H23.0699V35.0519H24.086ZM32.5784 45.6128H33.5946V44.5966H32.5784V45.6128ZM30.4372 24.4547V23.4386H31.4534V24.4547H30.4372ZM30.4008 28.1928H29.3846V29.209H30.4008V28.1928ZM24.1223 31.3139V30.2977H25.1385V31.3139H24.1223ZM44.1555 39.2617V38.2456H43.1393V39.2617H44.1555Z" fill="#0071CE"/>
</svg>
