<svg width="69" height="68" viewBox="0 0 69 68" fill="none" xmlns="http://www.w3.org/2000/svg">
<path d="M32.75 1.58771C33.8329 0.962498 35.1671 0.962498 36.25 1.58771L61.6949 16.2783C62.7778 16.9035 63.4449 18.059 63.4449 19.3094V48.6906C63.4449 49.941 62.7778 51.0965 61.6949 51.7217L36.25 66.4123C35.1671 67.0375 33.8329 67.0375 32.75 66.4123L7.30514 51.7217C6.22223 51.0965 5.55514 49.941 5.55514 48.6906V19.3094C5.55514 18.059 6.22223 16.9035 7.30514 16.2783L32.75 1.58771Z" stroke="#0071CE"/>
<path d="M50.2142 35.0787C50.1249 35.6443 50.0654 36.2098 49.9761 36.7753C49.5296 39.0374 48.6367 41.0614 46.8508 42.5794C45.3923 43.8593 43.6362 44.1272 41.8206 43.4426C40.0644 42.758 39.0227 41.4484 38.6655 39.5732C38.5167 38.8291 38.606 38.085 38.8143 37.3408C38.3381 37.4599 38.0702 37.7873 38.0702 38.3529C38.0702 39.4244 38.0702 40.4661 38.0702 41.5377C38.0702 42.9068 38.0702 44.3058 38.0702 45.675C38.0702 46.2703 37.8023 46.7167 37.2666 46.9549C36.7308 47.193 36.2546 47.1037 35.8081 46.7167C35.4807 46.4489 35.3319 46.0619 35.3319 45.6452C35.3319 43.0557 35.3021 40.4661 35.3914 37.9064C35.4212 36.4479 36.2843 35.4061 37.6237 34.8108C37.6833 34.7811 37.7726 34.7513 37.8619 34.7216C37.8916 34.7216 37.9214 34.6918 38.0107 34.662C36.4332 34.1263 35.3021 33.144 34.558 31.6558C33.7841 33.1143 32.653 34.1263 31.135 34.6323C31.522 34.8704 31.9387 35.049 32.2661 35.2871C33.2483 36.0312 33.7246 37.073 33.7246 38.2933C33.7246 40.734 33.7543 43.1747 33.7246 45.6155C33.7246 46.7763 32.6233 47.4608 31.6708 46.8953C31.1946 46.5977 30.9862 46.1512 30.9862 45.6155C30.9862 43.8296 30.9862 42.0139 30.9862 40.228C30.9862 39.603 30.9862 38.9779 30.9862 38.3529C30.9862 37.7873 30.7779 37.4897 30.2719 37.3111C30.3016 37.4599 30.3016 37.579 30.3314 37.698C31.016 40.7936 28.6646 43.77 25.4797 43.77C24.6166 43.77 23.8129 43.5617 23.039 43.145C22.7711 42.9961 22.6521 42.758 22.7711 42.5199C22.8902 42.2818 23.1283 42.1925 23.426 42.3413C23.932 42.5795 24.4677 42.7878 25.063 42.8473C26.9977 43.0557 28.9324 41.7163 29.4087 39.8411C29.7659 38.4124 29.4384 37.1623 28.486 36.061C28.2776 35.8229 28.0693 35.555 27.8014 35.1978C27.5335 35.5252 27.2656 35.8526 26.9977 36.2098C26.7596 36.5372 26.3727 36.5967 26.1941 36.2991C26.1346 36.1503 26.1346 35.9419 26.1941 35.7931C26.462 35.2276 26.8787 34.7811 27.4144 34.4537C27.7716 34.2453 27.7716 33.9774 27.4144 33.7691C26.8787 33.4417 26.462 32.9952 26.1643 32.4297C26.0155 32.1618 26.075 31.9237 26.3131 31.7749C26.5215 31.626 26.8191 31.7153 26.968 31.9534C27.2061 32.3701 27.5037 32.7571 27.9502 32.9654C30.0635 31.0605 29.8849 28.5007 28.486 26.953C26.8787 25.1671 24.1106 25.1373 22.4437 26.8637C21.0746 28.3221 20.3007 30.0485 19.9435 31.9832C19.5863 34.037 19.7054 36.061 20.3602 38.0254C20.6578 38.9482 21.1043 39.8411 21.6698 40.6447C21.7591 40.7638 21.8187 40.8531 21.908 40.9722C22.0568 41.2103 22.027 41.4186 21.8187 41.5972C21.6401 41.7758 21.3424 41.746 21.1638 41.5079C20.9257 41.2103 20.6876 40.8829 20.4793 40.5555C19.5268 38.9779 19.0208 37.2218 18.8422 35.3764C18.6636 33.3524 18.9017 31.3879 19.6458 29.483C20.2411 27.9352 21.1043 26.5958 22.4735 25.5838C25.4202 23.3812 29.7956 25.2266 30.3314 28.8877C30.4802 29.9592 30.3314 30.9712 29.8551 31.9237C29.8254 31.9832 29.7956 32.0725 29.7361 32.1916C30.6886 31.9535 31.4327 31.507 31.9089 30.6735C32.1768 30.1973 32.4447 29.7211 32.7423 29.2449C33.04 28.7389 33.1293 28.2031 33.1293 27.6376C33.1293 25.9707 33.1293 24.3039 33.1293 22.6371C33.1293 21.8037 33.6353 21.2084 34.3794 21.1488C35.1533 21.0893 35.8379 21.6548 35.8379 22.4287C35.8676 23.5896 35.8379 24.7504 35.8676 25.9112C35.8676 26.6553 35.8974 27.3697 35.8974 28.1138C35.8974 28.2328 35.8974 28.3519 35.9569 28.4412C36.4629 29.6615 36.9392 30.8819 38.0702 31.7153C38.3976 31.9534 38.8143 32.0725 39.2013 32.2511C39.231 32.2213 39.231 32.2213 39.2608 32.1916C39.231 32.1023 39.1715 32.013 39.1417 31.9237C38.3381 30.1676 38.4274 28.471 39.4989 26.8637C40.5704 25.2861 42.1182 24.5718 44.0232 24.7206C45.6007 24.8397 46.821 25.6433 47.7735 26.8637C47.9521 27.072 47.9223 27.3399 47.714 27.4887C47.5354 27.6376 47.2675 27.6376 47.0889 27.459C46.821 27.1911 46.5829 26.9232 46.315 26.6553C44.678 25.2266 42.2373 25.2862 40.7193 26.8339C39.2013 28.3817 39.1417 30.8521 40.6002 32.4594C40.7788 32.638 40.9276 32.8464 41.1657 33.1143C41.4634 32.7869 41.7313 32.4892 41.9992 32.1916C42.0587 32.132 42.0884 32.0427 42.1182 31.9832C42.267 31.7748 42.5349 31.6856 42.7433 31.8046C42.9516 31.9237 43.0409 32.1915 42.8921 32.4297C42.5945 32.9952 42.1777 33.4417 41.642 33.7691C41.3146 33.9477 41.3146 34.2453 41.642 34.4239C42.1777 34.7513 42.5945 35.1978 42.8921 35.7335C43.0409 36.0014 42.9814 36.2693 42.7433 36.3884C42.5052 36.5372 42.267 36.4479 42.0884 36.18C41.8503 35.8526 41.5825 35.5252 41.2848 35.168C40.5109 36.1205 39.7668 36.9241 39.5584 38.1147C39.2013 40.2875 40.7788 42.5199 42.9516 42.7878C44.6185 42.9962 45.9281 42.3711 46.9699 41.121C48.339 39.4542 48.9939 37.5194 49.2022 35.4061C49.3808 33.5607 49.1725 31.7451 48.5176 30.0187C48.4283 29.7508 48.2795 29.483 48.1605 29.2151C48.0414 28.8877 48.1009 28.6198 48.3688 28.5305C48.6069 28.4412 48.845 28.5305 48.9939 28.8579C49.6487 30.2271 50.0059 31.6855 50.0952 33.2035C50.0952 33.3226 50.1249 33.4119 50.1547 33.531C50.2142 34.0072 50.2142 34.543 50.2142 35.0787ZM28.5455 34.543C29.4087 34.2453 30.2123 33.9477 31.016 33.6798C32.1173 33.2631 32.9507 32.5487 33.546 31.507C33.6948 31.2391 33.8436 30.9414 34.0222 30.6735C34.2901 30.2271 34.7663 30.2271 35.0342 30.6735C35.2128 30.9414 35.3616 31.2093 35.5104 31.507C36.1057 32.5785 36.9987 33.2929 38.1595 33.7096C38.8441 33.9477 39.5584 34.1858 40.243 34.4239C40.3026 34.4537 40.3919 34.4537 40.4812 34.4834C40.5109 34.3941 40.5109 34.3048 40.5109 34.2453C40.5704 33.7691 40.3919 33.531 39.9454 33.3524C39.4692 33.1738 38.9632 32.9952 38.4869 32.8464C37.5344 32.519 36.8201 31.8939 36.3141 31.0307C36.076 30.6438 35.8676 30.2271 35.6295 29.8402C35.183 29.1258 35.0044 28.3221 35.0044 27.4887C35.0044 25.9112 35.0044 24.3337 35.0044 22.7561C35.0044 22.6371 35.0044 22.518 35.0044 22.4287C34.9747 22.1608 34.8259 22.012 34.558 22.012C34.2901 22.012 34.1413 22.1608 34.1115 22.4287C34.1115 22.518 34.1115 22.6371 34.1115 22.7264C34.1115 24.3337 34.1115 25.9409 34.1115 27.5482C34.1115 28.2924 33.9627 28.977 33.6055 29.6318C33.3079 30.1378 33.04 30.6438 32.7423 31.1498C32.2661 31.9832 31.5517 32.5487 30.6588 32.8464C30.123 33.0547 29.5575 33.2333 29.0217 33.4119C28.7836 33.4714 28.6646 33.6203 28.6348 33.8286C28.5455 34.0667 28.5455 34.2751 28.5455 34.543ZM29.0813 35.3764C29.4384 35.7336 29.6468 36.2098 30.2123 36.3586C31.4327 36.686 31.8494 37.3111 31.8494 38.5612C31.8494 40.8233 31.8494 43.0855 31.8494 45.3178C31.8494 45.4071 31.8494 45.4666 31.8494 45.5559C31.8494 45.9428 32.028 46.1512 32.2959 46.1512C32.5637 46.1512 32.7423 45.9428 32.7423 45.5559C32.7423 43.145 32.7423 40.7043 32.7423 38.2933C32.7423 37.1623 32.2661 36.2693 31.2541 35.7335C30.8076 35.4954 30.3016 35.4061 29.8551 35.2276C29.5873 35.168 29.3491 35.1978 29.0813 35.3764ZM39.9156 35.3466C39.6477 35.168 39.3799 35.168 39.112 35.2573C38.8739 35.3466 38.6357 35.4062 38.4274 35.4954C36.9987 35.9419 36.2546 36.9241 36.2546 38.4124C36.2546 40.7638 36.2546 43.1152 36.2546 45.4666C36.2546 45.5857 36.2546 45.7047 36.2843 45.794C36.3439 46.0322 36.4927 46.1512 36.7308 46.1512C36.9689 46.1512 37.1177 46.0024 37.1773 45.7643C37.1773 45.675 37.1773 45.5559 37.1773 45.4666C37.1773 43.1152 37.1773 40.7638 37.1773 38.3826C37.1773 37.3408 37.6535 36.686 38.6357 36.3884C38.8143 36.3289 38.9929 36.2991 39.1715 36.2098C39.2608 36.18 39.3501 36.1205 39.4096 36.061C39.5584 35.8229 39.737 35.6145 39.9156 35.3466Z" fill="#0071CE"/>
</svg>
