<svg xmlns="http://www.w3.org/2000/svg" version="1.1" xmlns:xlink="http://www.w3.org/1999/xlink" xmlns:svgjs="http://svgjs.com/svgjs" width="58" height="64"><svg width="58" height="64" viewBox="0 0 58 64" fill="none" xmlns="http://www.w3.org/2000/svg">
<path d="M52.8949 17.6816H36.4741V44.0101C36.4741 48.2087 33.1146 51.5866 28.9387 51.5866C24.7629 51.5866 21.4034 48.2087 21.4034 44.0101V17.6816H4.98262C0.743992 17.6816 -0.85727 20.6175 1.43473 24.2164L24.7315 60.6469C27.0235 64.2457 30.7912 64.2457 33.0832 60.6469L56.38 24.2164C58.7347 20.6175 57.1335 17.6816 52.8949 17.6816Z" fill="#0071CE"></path>
<path d="M28.9387 15.5671C33.1145 15.5671 36.474 12.1892 36.474 7.99059C36.474 3.88664 33.1145 0.414062 28.9387 0.414062C24.7628 0.414062 21.4033 3.88664 21.4033 7.99059C21.4033 12.2208 24.7628 15.5671 28.9387 15.5671Z" fill="#0A2240"></path>
</svg><style>@media (prefers-color-scheme: light) { :root { filter: none; } }
</style></svg>