<svg width="26" height="21" viewBox="0 0 26 21" fill="none" xmlns="http://www.w3.org/2000/svg">
<path d="M16.75 7.375C16.75 11.2031 13.0781 14.25 8.625 14.25C7.80469 14.25 7.0625 14.1719 6.32031 13.9766C5.22656 14.7188 3.50781 15.5 1.39844 15.5C1.04688 15.5 0.695312 15.3047 0.539062 14.9531C0.421875 14.6016 0.460938 14.2109 0.734375 13.9375C0.734375 13.9375 1.67188 12.9219 2.25781 11.6719C1.16406 10.5 0.5 9.01562 0.5 7.375C0.5 3.58594 4.13281 0.5 8.625 0.5C13.0781 0.5 16.75 3.58594 16.75 7.375ZM8.625 13C12.4141 13 15.5 10.5 15.5 7.375C15.5 4.28906 12.4141 1.75 8.625 1.75C4.79688 1.75 1.75 4.28906 1.75 7.375C1.75 8.625 2.21875 9.83594 3.15625 10.8125L3.74219 11.4375L3.39062 12.2188C3 13.0391 2.49219 13.7422 2.14062 14.25C3.625 14.0938 4.83594 13.4688 5.65625 12.9609L6.08594 12.6484L6.63281 12.7656C7.25781 12.9219 7.96094 13 8.625 13ZM24.1719 17.5312C24.6797 18.3516 25.2266 18.9375 25.2266 18.9766C25.4609 19.2109 25.5391 19.6016 25.4219 19.9531C25.2656 20.3047 24.9141 20.5 24.5625 20.5C23.2734 20.5 22.1797 20.2266 21.2422 19.8359C20.2266 20.2656 19.1328 20.5 18 20.5C14.4453 20.5 11.5156 18.3125 10.6953 15.3047C11.125 15.2266 11.5547 15.1094 11.9453 14.9922C12.6094 17.4531 15.0312 19.25 18 19.25C18.9375 19.25 19.8359 19.0547 20.7344 18.7031L21.2031 18.4688L21.7109 18.6641C22.4141 18.9766 23.1172 19.1719 23.8203 19.25C23.625 18.9766 23.3516 18.5859 23.1172 18.1953L22.6484 17.4531L23.1562 16.7891C23.8594 15.8516 24.25 14.7578 24.25 13.625C24.25 10.5391 21.4375 8 18 8C17.9609 8 17.9609 8.03906 17.9609 8.03906C17.9609 7.80469 18 7.60938 18 7.375C18 7.17969 17.9609 6.98438 17.9609 6.78906C17.9609 6.78906 17.9609 6.75 18 6.75C22.1406 6.75 25.5 9.83594 25.5 13.625C25.5 15.0703 24.9922 16.4375 24.1719 17.5312Z" fill="white"/>
</svg>
