<svg width="16" height="21" viewBox="0 0 16 21" fill="none" xmlns="http://www.w3.org/2000/svg">
<path d="M14.7578 5.42188C15.2266 5.89062 15.5 6.51562 15.5 7.17969V18C15.5 19.4062 14.3672 20.5 13 20.5H3C1.59375 20.5 0.5 19.4062 0.5 18V3C0.5 1.63281 1.59375 0.5 3 0.5H8.82031C9.48438 0.5 10.1094 0.773438 10.5781 1.24219L14.7578 5.42188ZM9.25 1.86719V6.125C9.25 6.47656 9.52344 6.75 9.875 6.75H14.1328C14.0938 6.59375 14.0156 6.4375 13.8594 6.28125L9.71875 2.14062C9.5625 1.98438 9.40625 1.90625 9.25 1.86719ZM14.25 18V8H9.875C8.82031 8 8 7.17969 8 6.125V1.75H3C2.29688 1.75 1.75 2.33594 1.75 3V18C1.75 18.7031 2.29688 19.25 3 19.25H13C13.6641 19.25 14.25 18.7031 14.25 18ZM9.25 9.875V11.75H11.125C11.4375 11.75 11.75 12.0625 11.75 12.375V13.7031C11.75 14.0156 11.4375 14.2891 11.125 14.2891H9.25V16.125C9.25 16.4766 8.9375 16.75 8.625 16.75H7.375C7.02344 16.75 6.75 16.4766 6.75 16.0859V14.25H4.875C4.52344 14.25 4.25 13.9766 4.25 13.625V12.375C4.25 12.0625 4.52344 11.75 4.875 11.75H6.75V9.875C6.75 9.5625 7.02344 9.25 7.375 9.25H8.625C8.9375 9.25 9.25 9.5625 9.25 9.875Z" fill="white"/>
</svg>
