<svg width="16" height="21" viewBox="0 0 16 21" fill="none" xmlns="http://www.w3.org/2000/svg">
<path d="M14.7578 5.42188C15.2266 5.89062 15.5 6.51562 15.5 7.17969V18C15.5 19.4062 14.3672 20.5 13 20.5H3C1.59375 20.5 0.5 19.4062 0.5 18V3C0.5 1.63281 1.59375 0.5 3 0.5H8.82031C9.48438 0.5 10.1094 0.773438 10.5781 1.24219L14.7578 5.42188ZM9.25 1.86719V6.125C9.25 6.47656 9.52344 6.75 9.875 6.75H14.1328C14.0938 6.59375 14.0156 6.4375 13.8594 6.28125L9.71875 2.14062C9.5625 1.98438 9.40625 1.90625 9.25 1.86719ZM14.25 18V8H9.875C8.82031 8 8 7.17969 8 6.125V1.75H3C2.29688 1.75 1.75 2.33594 1.75 3V18C1.75 18.7031 2.29688 19.25 3 19.25H13C13.6641 19.25 14.25 18.7031 14.25 18ZM4.25 11.125C4.25 10.8125 4.52344 10.5 4.875 10.5H11.125C11.4375 10.5 11.75 10.8125 11.75 11.125C11.75 11.4766 11.4375 11.75 11.125 11.75H4.875C4.52344 11.75 4.25 11.4766 4.25 11.125ZM11.125 13C11.4375 13 11.75 13.3125 11.75 13.625C11.75 13.9766 11.4375 14.25 11.125 14.25H4.875C4.52344 14.25 4.25 13.9766 4.25 13.625C4.25 13.3125 4.52344 13 4.875 13H11.125ZM11.125 15.5C11.4375 15.5 11.75 15.8125 11.75 16.125C11.75 16.4766 11.4375 16.75 11.125 16.75H4.875C4.52344 16.75 4.25 16.4766 4.25 16.125C4.25 15.8125 4.52344 15.5 4.875 15.5H11.125Z" fill="white"/>
</svg>
