<svg width="22" height="20" viewBox="0 0 22 20" fill="none" xmlns="http://www.w3.org/2000/svg">
<path d="M19.0469 2.96094C21.5078 5.07031 21.625 8.82031 19.4375 11.0859L11.8594 18.8984C11.625 19.1328 11.3125 19.25 10.9609 19.25C10.6484 19.25 10.3359 19.1328 10.1016 18.8984L2.52344 11.0859C0.335938 8.82031 0.453125 5.07031 2.91406 2.96094C5.41406 0.851562 8.61719 1.82812 10.2188 3.46875L11 4.28906L11.7422 3.46875C13.7344 1.4375 16.8984 1.16406 19.0469 2.96094ZM18.5391 10.2266C20.0234 8.66406 20.3359 5.73438 18.2266 3.9375C16.0781 2.10156 13.5391 3.42969 12.6406 4.36719L11 6.08594L9.32031 4.36719C8.38281 3.42969 5.88281 2.10156 3.73438 3.9375C1.625 5.73438 1.9375 8.66406 3.42188 10.2266L11 18.0391L18.5391 10.2266Z" fill="white"/>
</svg>
