<svg width="25" height="19" viewBox="0 0 25 19" fill="none" xmlns="http://www.w3.org/2000/svg">
<path d="M13.625 1.375C13.625 1.0625 13.8984 0.75 14.25 0.75H15.8125C16.6328 0.75 17.3359 1.29688 17.6094 2.03906L17.8047 2.66406L20.0312 1.53125C20.2266 1.45312 20.4609 1.375 20.6953 1.375C21.2422 1.375 21.75 1.88281 21.75 2.42969V5.35938C21.75 5.90625 21.2422 6.375 20.6953 6.375C20.4609 6.375 20.2266 6.33594 20.0312 6.21875L18.7812 5.63281L19.7969 8.60156C20.0312 8.60156 20.2656 8.5625 20.5 8.5625C22.1016 8.5625 23.5859 9.22656 24.6406 10.2812C24.875 10.5156 24.875 10.9062 24.6406 11.1797C24.4062 11.4141 24.0156 11.4141 23.7812 11.1797C22.9219 10.3594 21.75 9.8125 20.5 9.8125C18.2734 9.8125 16.4375 11.375 15.9297 13.4062C15.8516 13.7578 15.8125 14.1484 15.8125 14.5H10.5C10.5 16.5703 8.82031 18.25 6.75 18.25C4.64062 18.25 3 16.5703 3 14.5H1.75C1.04688 14.5 0.5 13.9531 0.5 13.25V12C0.5 9.26562 2.72656 7 5.5 7H9.25C9.91406 7 10.5 7.58594 10.5 8.25V12C10.5 12.7031 11.0469 13.25 11.75 13.25H14.6797C14.6797 13.2109 14.6797 13.1719 14.7188 13.1328C15.1875 11.1406 16.6719 9.53906 18.5859 8.875L16.4375 2.42969C16.3203 2.19531 16.0859 2 15.8125 2H14.25C13.8984 2 13.625 1.72656 13.625 1.375ZM18.2344 3.95312C18.2344 3.95312 18.2344 3.95312 18.2734 3.95312L20.5 5.08594V2.70312L18.2734 3.83594C18.2344 3.83594 18.2344 3.83594 18.1953 3.83594L18.2344 3.95312ZM9.25 8.25H5.5C3.39062 8.25 1.75 9.92969 1.75 12V13.25H9.5625C9.36719 12.8984 9.25 12.4688 9.25 12V8.25ZM9.25 14.5H4.25C4.25 15.9062 5.34375 17 6.75 17C8.11719 17 9.25 15.9062 9.25 14.5ZM9.875 4.5C10.1875 4.5 10.5 4.8125 10.5 5.125C10.5 5.47656 10.1875 5.75 9.875 5.75H4.875C4.52344 5.75 4.25 5.47656 4.25 5.125C4.25 4.8125 4.52344 4.5 4.875 4.5H9.875ZM16.75 14.5C16.75 12.4297 18.3906 10.75 20.5 10.75C22.5703 10.75 24.25 12.4297 24.25 14.5C24.25 16.5703 22.5703 18.25 20.5 18.25C18.3906 18.25 16.75 16.5703 16.75 14.5ZM20.5 17C21.8672 17 23 15.9062 23 14.5C23 13.1328 21.8672 12 20.5 12C19.0938 12 18 13.1328 18 14.5C18 15.9062 19.0938 17 20.5 17Z" fill="white"/>
</svg>
