<svg width="16" height="21" viewBox="0 0 16 21" fill="none" xmlns="http://www.w3.org/2000/svg">
<path d="M12.375 13.625C12.6875 13.625 13 13.9375 13 14.25C13 14.6016 12.6875 14.875 12.375 14.875H7.375C7.02344 14.875 6.75 14.6016 6.75 14.25C6.75 13.9375 7.02344 13.625 7.375 13.625H12.375ZM12.375 9.875C12.6875 9.875 13 10.1875 13 10.5C13 10.8516 12.6875 11.125 12.375 11.125H8.625C8.27344 11.125 8 10.8516 8 10.5C8 10.1875 8.27344 9.875 8.625 9.875H12.375ZM4.25 13.3125C4.75781 13.3125 5.1875 13.7422 5.1875 14.25C5.1875 14.7969 4.75781 15.1875 4.25 15.1875C3.70312 15.1875 3.3125 14.7969 3.3125 14.25C3.3125 13.7422 3.70312 13.3125 4.25 13.3125ZM13 3C14.3672 3 15.5 4.13281 15.5 5.5V18C15.5 19.4062 14.3672 20.5 13 20.5H3C1.59375 20.5 0.5 19.4062 0.5 18V5.5C0.5 4.13281 1.59375 3 3 3C3.3125 3 3.625 3.3125 3.625 3.625C3.625 3.97656 3.3125 4.25 3 4.25C2.29688 4.25 1.75 4.83594 1.75 5.5V18C1.75 18.7031 2.29688 19.25 3 19.25H13C13.6641 19.25 14.25 18.7031 14.25 18V5.5C14.25 4.83594 13.6641 4.25 13 4.25C12.6484 4.25 12.375 3.97656 12.375 3.625C12.375 3.3125 12.6484 3 13 3ZM4.875 5.5C4.52344 5.5 4.25 5.22656 4.25 4.875C4.25 4.5625 4.52344 4.25 4.875 4.25H5.8125C5.61719 3.89844 5.5 3.46875 5.5 3C5.5 1.63281 6.59375 0.5 8 0.5C9.36719 0.5 10.5 1.63281 10.5 3C10.5 3.46875 10.3438 3.89844 10.1484 4.25H11.125C11.4375 4.25 11.75 4.5625 11.75 4.875C11.75 5.22656 11.4375 5.5 11.125 5.5H4.875ZM8 1.75C7.29688 1.75 6.75 2.33594 6.75 3C6.75 3.70312 7.29688 4.25 8 4.25C8.66406 4.25 9.25 3.70312 9.25 3C9.25 2.33594 8.66406 1.75 8 1.75ZM3.15625 9.48438C3.39062 9.21094 3.78125 9.21094 4.01562 9.44531L4.91406 10.2656L6.90625 8.19531C7.14062 7.96094 7.53125 7.96094 7.80469 8.19531C8.03906 8.42969 8.03906 8.82031 7.80469 9.09375L5.42188 11.5938C5.30469 11.7109 5.10938 11.75 4.95312 11.75C4.79688 11.75 4.64062 11.7109 4.52344 11.5938L3.19531 10.3438C2.92188 10.1094 2.92188 9.71875 3.15625 9.48438Z" fill="white"/>
</svg>
