<svg width="26" height="21" viewBox="0 0 26 21" fill="none" xmlns="http://www.w3.org/2000/svg">
<path d="M23.8203 13.7031C24.7578 13.7031 25.5 14.4453 25.5 15.3438V16.9062C25.5 17.8438 24.7578 18.5469 23.7812 18.5469H23.4688V18.8594C23.4688 19.7969 22.7656 20.5 21.8672 20.5H20.3047C19.3672 20.5 18.6641 19.7969 18.6641 18.8594V18.5469H18.3516C17.4531 18.5469 16.75 17.8438 16.75 16.9062V15.3438C16.75 14.4453 17.4531 13.7031 18.3906 13.7031H18.7031V13.3906C18.7031 12.4922 19.4062 11.75 20.3438 11.75H21.9062C22.8047 11.75 23.5078 12.4922 23.5078 13.3906V13.7031H23.8203ZM24.25 16.9062V15.3438C24.25 15.1484 24.0547 14.9531 23.7812 14.9531H22.2188V13.3906C22.2188 13.1953 22.0625 13 21.8672 13H20.3047C20.0703 13 19.9141 13.1953 19.9141 13.3906V14.9531H18.3516C18.1562 14.9531 18 15.1484 18 15.3438V16.9062C18 17.1406 18.1562 17.2969 18.3906 17.2969H19.9531V18.8594C19.9531 19.0938 20.1484 19.25 20.3438 19.25H21.9062C22.1016 19.25 22.2969 19.0938 22.2969 18.8594V17.2969H23.8594C24.0547 17.2969 24.25 17.1406 24.25 16.9062ZM19.875 8H22.4141C23.5078 8 24.4844 8.625 25.0312 9.5625C25.2656 9.99219 24.9922 10.5 24.4844 10.5C24.25 10.5 24.0547 10.3828 23.9375 10.1875C23.625 9.64062 23.0391 9.25 22.4141 9.25H19.875C19.6016 9.25 19.3672 9.32812 19.1328 9.44531C18.7812 9.60156 18.3906 9.44531 18.2734 9.09375C18.1562 8.78125 18.3125 8.42969 18.625 8.27344C19.0156 8.11719 19.4453 8 19.875 8ZM20.5 6.75C18.7422 6.75 17.375 5.38281 17.375 3.625C17.375 1.90625 18.7422 0.5 20.5 0.5C22.2188 0.5 23.625 1.90625 23.625 3.625C23.625 5.38281 22.2188 6.75 20.5 6.75ZM20.5 1.75C19.4453 1.75 18.625 2.60938 18.625 3.625C18.625 4.67969 19.4453 5.5 20.5 5.5C21.5156 5.5 22.375 4.67969 22.375 3.625C22.375 2.60938 21.5156 1.75 20.5 1.75ZM16.125 19.25C16.4375 19.25 16.75 19.5625 16.75 19.875C16.75 20.2266 16.4375 20.5 16.125 20.5H6.59375C5.96875 20.5 5.5 20.0703 5.5 19.4844C5.5 16.5938 7.96094 14.25 11.0469 14.25H14.875C15.1875 14.25 15.5 14.5625 15.5 14.875C15.5 15.2266 15.1875 15.5 14.875 15.5H11.0078C8.74219 15.5 6.86719 17.1797 6.75 19.25H16.125ZM6.82812 9.44531C6.59375 9.32812 6.35938 9.25 6.125 9.25H3.54688C2.57031 9.25 1.75 10.1484 1.75 11.2422V11.75C1.75 12.1016 1.4375 12.375 1.125 12.375C0.773438 12.375 0.5 12.1016 0.5 11.75V11.2422C0.5 9.48438 1.86719 8 3.54688 8H6.125C6.55469 8 6.98438 8.11719 7.375 8.3125C7.6875 8.46875 7.80469 8.82031 7.6875 9.13281C7.53125 9.44531 7.14062 9.60156 6.82812 9.44531ZM5.5 6.75C3.74219 6.75 2.375 5.38281 2.375 3.625C2.375 1.90625 3.74219 0.5 5.5 0.5C7.21875 0.5 8.625 1.90625 8.625 3.625C8.625 5.38281 7.21875 6.75 5.5 6.75ZM5.5 1.75C4.44531 1.75 3.625 2.60938 3.625 3.625C3.625 4.67969 4.44531 5.5 5.5 5.5C6.51562 5.5 7.375 4.67969 7.375 3.625C7.375 2.60938 6.51562 1.75 5.5 1.75ZM12.9609 13C10.7344 13 8.89844 11.2031 8.9375 8.9375C8.9375 6.71094 10.7344 4.875 12.9609 4.875C15.1875 4.875 17.0234 6.71094 17.0234 8.9375C17.0234 11.2031 15.2266 13 12.9609 13ZM12.9609 6.125C11.4375 6.125 10.1484 7.41406 10.1484 8.9375C10.1484 10.5 11.4375 11.75 12.9609 11.75C14.5234 11.75 15.7734 10.5 15.7734 8.9375C15.7734 7.41406 14.5234 6.125 12.9609 6.125Z" fill="white"/>
</svg>
